<svg width="213" height="132" viewBox="0 0 213 132" fill="none" xmlns="http://www.w3.org/2000/svg">
<g filter="url(#filter0_d_4516_98935)">
<rect x="8.33301" y="4.5" width="196" height="115" rx="2.34527" fill="white"/>
<path d="M27.7598 26.0291C27.7598 25.8533 27.7324 25.697 27.6777 25.5603C27.627 25.4236 27.5352 25.2986 27.4023 25.1853C27.2695 25.072 27.082 24.9626 26.8398 24.8572C26.6016 24.7478 26.2969 24.6365 25.9258 24.5232C25.5195 24.3982 25.1445 24.2595 24.8008 24.1072C24.4609 23.9509 24.1641 23.7712 23.9102 23.5681C23.6562 23.3611 23.459 23.1248 23.3184 22.8591C23.1777 22.5896 23.1074 22.2791 23.1074 21.9275C23.1074 21.5798 23.1797 21.2634 23.3242 20.9783C23.4727 20.6931 23.6816 20.447 23.9512 20.24C24.2246 20.0291 24.5469 19.8669 24.918 19.7537C25.2891 19.6365 25.6992 19.5779 26.1484 19.5779C26.7812 19.5779 27.3262 19.6951 27.7832 19.9294C28.2441 20.1638 28.5977 20.4783 28.8438 20.8728C29.0938 21.2673 29.2188 21.7029 29.2188 22.1794H27.7598C27.7598 21.8982 27.6992 21.6501 27.5781 21.4353C27.4609 21.2166 27.2812 21.0447 27.0391 20.9197C26.8008 20.7947 26.498 20.7322 26.1309 20.7322C25.7832 20.7322 25.4941 20.7849 25.2637 20.8904C25.0332 20.9958 24.8613 21.1384 24.748 21.3181C24.6348 21.4978 24.5781 21.7009 24.5781 21.9275C24.5781 22.0876 24.6152 22.2341 24.6895 22.3669C24.7637 22.4958 24.877 22.6169 25.0293 22.7302C25.1816 22.8396 25.373 22.9431 25.6035 23.0408C25.834 23.1384 26.1055 23.2322 26.418 23.322C26.8906 23.4626 27.3027 23.6189 27.6543 23.7908C28.0059 23.9587 28.2988 24.1501 28.5332 24.365C28.7676 24.5798 28.9434 24.824 29.0605 25.0974C29.1777 25.3669 29.2363 25.6736 29.2363 26.0173C29.2363 26.3767 29.1641 26.7009 29.0195 26.99C28.875 27.2751 28.668 27.5193 28.3984 27.7224C28.1328 27.9216 27.8125 28.0759 27.4375 28.1853C27.0664 28.2908 26.6523 28.3435 26.1953 28.3435C25.7852 28.3435 25.3809 28.2888 24.9824 28.1794C24.5879 28.0701 24.2285 27.9041 23.9043 27.6814C23.5801 27.4548 23.3223 27.1736 23.1309 26.8376C22.9395 26.4978 22.8438 26.1013 22.8438 25.6482H24.3145C24.3145 25.9255 24.3613 26.1619 24.4551 26.3572C24.5527 26.5525 24.6875 26.7126 24.8594 26.8376C25.0312 26.9587 25.2305 27.0486 25.457 27.1072C25.6875 27.1658 25.9336 27.1951 26.1953 27.1951C26.5391 27.1951 26.8262 27.1462 27.0566 27.0486C27.291 26.9509 27.4668 26.8142 27.584 26.6384C27.7012 26.4626 27.7598 26.2595 27.7598 26.0291ZM32.1582 19.2263V28.2263H30.7402V19.2263H32.1582ZM35.4668 21.8865V28.2263H34.0488V21.8865H35.4668ZM33.9551 20.2224C33.9551 20.0076 34.0254 19.8298 34.166 19.6892C34.3105 19.5447 34.5098 19.4724 34.7637 19.4724C35.0137 19.4724 35.2109 19.5447 35.3555 19.6892C35.5 19.8298 35.5723 20.0076 35.5723 20.2224C35.5723 20.4333 35.5 20.6091 35.3555 20.7498C35.2109 20.8904 35.0137 20.9607 34.7637 20.9607C34.5098 20.9607 34.3105 20.8904 34.166 20.7498C34.0254 20.6091 33.9551 20.4333 33.9551 20.2224ZM41.1309 26.9138V19.2263H42.5488V28.2263H41.2656L41.1309 26.9138ZM37.0059 25.1267V25.0037C37.0059 24.5232 37.0625 24.0857 37.1758 23.6912C37.2891 23.2927 37.4531 22.9509 37.668 22.6658C37.8828 22.3767 38.1445 22.156 38.4531 22.0037C38.7617 21.8474 39.1094 21.7693 39.4961 21.7693C39.8789 21.7693 40.2148 21.8435 40.5039 21.9919C40.793 22.1404 41.0391 22.3533 41.2422 22.6306C41.4453 22.9041 41.6074 23.2322 41.7285 23.615C41.8496 23.9939 41.9355 24.4158 41.9863 24.8806V25.2732C41.9355 25.7263 41.8496 26.1404 41.7285 26.5154C41.6074 26.8904 41.4453 27.2146 41.2422 27.488C41.0391 27.7615 40.791 27.9724 40.498 28.1208C40.209 28.2693 39.8711 28.3435 39.4844 28.3435C39.1016 28.3435 38.7559 28.2634 38.4473 28.1033C38.1426 27.9431 37.8828 27.7185 37.668 27.4294C37.4531 27.1404 37.2891 26.8005 37.1758 26.4099C37.0625 26.0154 37.0059 25.5876 37.0059 25.1267ZM38.418 25.0037V25.1267C38.418 25.4158 38.4434 25.6853 38.4941 25.9353C38.5488 26.1853 38.6328 26.406 38.7461 26.5974C38.8594 26.7849 39.0059 26.9333 39.1855 27.0427C39.3691 27.1482 39.5879 27.2009 39.8418 27.2009C40.1621 27.2009 40.4258 27.1306 40.6328 26.99C40.8398 26.8494 41.002 26.6599 41.1191 26.4216C41.2402 26.1794 41.3223 25.9099 41.3652 25.613V24.5525C41.3418 24.322 41.293 24.1072 41.2188 23.908C41.1484 23.7087 41.0527 23.5349 40.9316 23.3865C40.8105 23.2341 40.6602 23.1169 40.4805 23.0349C40.3047 22.949 40.0957 22.906 39.8535 22.906C39.5957 22.906 39.377 22.9607 39.1973 23.0701C39.0176 23.1794 38.8691 23.3298 38.752 23.5212C38.6387 23.7126 38.5547 23.9353 38.5 24.1892C38.4453 24.4431 38.418 24.7146 38.418 25.0037ZM47.0703 28.3435C46.6016 28.3435 46.1777 28.2673 45.7988 28.115C45.4238 27.9587 45.1035 27.7419 44.8379 27.4646C44.5762 27.1873 44.375 26.8611 44.2344 26.4861C44.0938 26.1111 44.0234 25.7068 44.0234 25.2732V25.0388C44.0234 24.5427 44.0957 24.0935 44.2402 23.6912C44.3848 23.2888 44.5859 22.9451 44.8438 22.6599C45.1016 22.3708 45.4062 22.1501 45.7578 21.9978C46.1094 21.8455 46.4902 21.7693 46.9004 21.7693C47.3535 21.7693 47.75 21.8455 48.0898 21.9978C48.4297 22.1501 48.7109 22.365 48.9336 22.6423C49.1602 22.9158 49.3281 23.2419 49.4375 23.6208C49.5508 23.9998 49.6074 24.4177 49.6074 24.8748V25.4783H44.709V24.4646H48.2129V24.3533C48.2051 24.0994 48.1543 23.8611 48.0605 23.6384C47.9707 23.4158 47.832 23.2361 47.6445 23.0994C47.457 22.9626 47.207 22.8943 46.8945 22.8943C46.6602 22.8943 46.4512 22.9451 46.2676 23.0466C46.0879 23.1443 45.9375 23.2869 45.8164 23.4744C45.6953 23.6619 45.6016 23.8884 45.5352 24.1541C45.4727 24.4158 45.4414 24.7107 45.4414 25.0388V25.2732C45.4414 25.5505 45.4785 25.8083 45.5527 26.0466C45.6309 26.281 45.7441 26.4861 45.8926 26.6619C46.041 26.8376 46.2207 26.9763 46.4316 27.0779C46.6426 27.1755 46.8828 27.2244 47.1523 27.2244C47.4922 27.2244 47.7949 27.156 48.0605 27.0193C48.3262 26.8826 48.5566 26.6892 48.752 26.4392L49.4961 27.1599C49.3594 27.3591 49.1816 27.5505 48.9629 27.7341C48.7441 27.9138 48.4766 28.0603 48.1602 28.1736C47.8477 28.2869 47.4844 28.3435 47.0703 28.3435ZM52.377 23.0935V28.2263H50.9648V21.8865H52.3125L52.377 23.0935ZM54.3164 21.8455L54.3047 23.158C54.2188 23.1423 54.125 23.1306 54.0234 23.1228C53.9258 23.115 53.8281 23.1111 53.7305 23.1111C53.4883 23.1111 53.2754 23.1462 53.0918 23.2166C52.9082 23.283 52.7539 23.3806 52.6289 23.5095C52.5078 23.6345 52.4141 23.7869 52.3477 23.9666C52.2812 24.1462 52.2422 24.3474 52.2305 24.5701L51.9082 24.5935C51.9082 24.1951 51.9473 23.8259 52.0254 23.4861C52.1035 23.1462 52.2207 22.8474 52.377 22.5896C52.5371 22.3318 52.7363 22.1306 52.9746 21.9861C53.2168 21.8416 53.4961 21.7693 53.8125 21.7693C53.8984 21.7693 53.9902 21.7771 54.0879 21.7927C54.1895 21.8083 54.2656 21.8259 54.3164 21.8455Z" fill="black" fill-opacity="0.87"/>
<path d="M96.8994 58.4327V60.6827H84.5947L84.501 58.9835L91.8604 47.4523H94.1221L91.6729 51.6476L87.4424 58.4327H96.8994ZM94.7666 47.4523V64.5148H91.9424V47.4523H94.7666ZM109.942 59.8624C109.942 60.9249 109.696 61.8195 109.204 62.546C108.712 63.2726 108.04 63.8234 107.188 64.1984C106.345 64.5656 105.392 64.7491 104.329 64.7491C103.267 64.7491 102.31 64.5656 101.458 64.1984C100.606 63.8234 99.9346 63.2726 99.4424 62.546C98.9502 61.8195 98.7041 60.9249 98.7041 59.8624C98.7041 59.1593 98.8408 58.5226 99.1143 57.9523C99.3877 57.3741 99.7744 56.8781 100.274 56.464C100.782 56.0421 101.376 55.7179 102.056 55.4913C102.743 55.2648 103.493 55.1515 104.306 55.1515C105.384 55.1515 106.349 55.3507 107.2 55.7491C108.052 56.1476 108.72 56.6984 109.204 57.4015C109.696 58.1046 109.942 58.9249 109.942 59.8624ZM107.106 59.7218C107.106 59.1515 106.989 58.6515 106.755 58.2218C106.521 57.7921 106.192 57.4601 105.771 57.2257C105.349 56.9913 104.86 56.8741 104.306 56.8741C103.743 56.8741 103.255 56.9913 102.841 57.2257C102.427 57.4601 102.103 57.7921 101.868 58.2218C101.642 58.6515 101.528 59.1515 101.528 59.7218C101.528 60.2999 101.642 60.7999 101.868 61.2218C102.095 61.6359 102.419 61.9523 102.841 62.171C103.263 62.3898 103.759 62.4991 104.329 62.4991C104.899 62.4991 105.392 62.3898 105.806 62.171C106.22 61.9523 106.54 61.6359 106.767 61.2218C106.993 60.7999 107.106 60.2999 107.106 59.7218ZM109.556 51.9406C109.556 52.7921 109.329 53.5499 108.876 54.214C108.431 54.8781 107.813 55.4015 107.024 55.7843C106.235 56.1593 105.337 56.3468 104.329 56.3468C103.313 56.3468 102.407 56.1593 101.61 55.7843C100.821 55.4015 100.2 54.8781 99.7471 54.214C99.3018 53.5499 99.0791 52.7921 99.0791 51.9406C99.0791 50.9249 99.3018 50.0695 99.7471 49.3741C100.2 48.671 100.821 48.1359 101.61 47.7687C102.399 47.4015 103.302 47.2179 104.317 47.2179C105.333 47.2179 106.235 47.4015 107.024 47.7687C107.813 48.1359 108.431 48.671 108.876 49.3741C109.329 50.0695 109.556 50.9249 109.556 51.9406ZM106.731 52.0343C106.731 51.5265 106.63 51.0812 106.427 50.6984C106.231 50.3077 105.954 50.0031 105.595 49.7843C105.235 49.5656 104.81 49.4562 104.317 49.4562C103.825 49.4562 103.399 49.5616 103.04 49.7726C102.681 49.9835 102.403 50.2804 102.208 50.6632C102.013 51.046 101.915 51.5031 101.915 52.0343C101.915 52.5577 102.013 53.0148 102.208 53.4054C102.403 53.7882 102.681 54.089 103.04 54.3077C103.407 54.5265 103.837 54.6359 104.329 54.6359C104.821 54.6359 105.247 54.5265 105.606 54.3077C105.966 54.089 106.243 53.7882 106.438 53.4054C106.634 53.0148 106.731 52.5577 106.731 52.0343ZM112.31 51.6359V50.7335C112.31 50.0851 112.45 49.4952 112.731 48.964C113.013 48.4327 113.423 48.007 113.962 47.6866C114.501 47.3663 115.149 47.2062 115.907 47.2062C116.688 47.2062 117.345 47.3663 117.876 47.6866C118.415 48.007 118.825 48.4327 119.106 48.964C119.388 49.4952 119.528 50.0851 119.528 50.7335V51.6359C119.528 52.2687 119.388 52.8507 119.106 53.382C118.833 53.9132 118.427 54.339 117.888 54.6593C117.356 54.9796 116.704 55.1398 115.931 55.1398C115.165 55.1398 114.509 54.9796 113.962 54.6593C113.423 54.339 113.013 53.9132 112.731 53.382C112.45 52.8507 112.31 52.2687 112.31 51.6359ZM114.267 50.7335V51.6359C114.267 51.9484 114.325 52.2452 114.442 52.5265C114.567 52.8077 114.755 53.0343 115.005 53.2062C115.255 53.3781 115.563 53.464 115.931 53.464C116.306 53.464 116.61 53.3781 116.845 53.2062C117.087 53.0343 117.267 52.8077 117.384 52.5265C117.501 52.2452 117.56 51.9484 117.56 51.6359V50.7335C117.56 50.4132 117.497 50.1124 117.372 49.8312C117.255 49.5421 117.075 49.3116 116.833 49.1398C116.591 48.9679 116.282 48.882 115.907 48.882C115.548 48.882 115.243 48.9679 114.993 49.1398C114.751 49.3116 114.567 49.5421 114.442 49.8312C114.325 50.1124 114.267 50.4132 114.267 50.7335ZM120.536 61.2452V60.3312C120.536 59.6906 120.677 59.1046 120.958 58.5734C121.247 58.0421 121.661 57.6163 122.2 57.296C122.739 56.9757 123.388 56.8156 124.146 56.8156C124.927 56.8156 125.583 56.9757 126.114 57.296C126.653 57.6163 127.06 58.0421 127.333 58.5734C127.614 59.1046 127.755 59.6906 127.755 60.3312V61.2452C127.755 61.8859 127.614 62.4718 127.333 63.0031C127.06 63.5343 126.657 63.9601 126.126 64.2804C125.595 64.6007 124.946 64.7609 124.181 64.7609C123.407 64.7609 122.747 64.6007 122.2 64.2804C121.661 63.9601 121.247 63.5343 120.958 63.0031C120.677 62.4718 120.536 61.8859 120.536 61.2452ZM122.505 60.3312V61.2452C122.505 61.5577 122.567 61.8546 122.692 62.1359C122.825 62.4171 123.017 62.6476 123.267 62.8273C123.517 62.9991 123.817 63.0851 124.169 63.0851C124.567 63.0851 124.888 62.9991 125.13 62.8273C125.372 62.6476 125.544 62.421 125.646 62.1476C125.755 61.8663 125.81 61.5656 125.81 61.2452V60.3312C125.81 60.0109 125.747 59.7101 125.622 59.4288C125.505 59.1476 125.321 58.921 125.071 58.7491C124.829 58.5773 124.521 58.4913 124.146 58.4913C123.778 58.4913 123.474 58.5773 123.231 58.7491C122.989 58.921 122.806 59.1476 122.681 59.4288C122.563 59.7101 122.505 60.0109 122.505 60.3312ZM124.849 49.8898L116.517 63.2257L115.075 62.3937L123.407 49.0577L124.849 49.8898Z" fill="black" fill-opacity="0.87"/>
<g clip-path="url(#clip0_4516_98935)">
<rect x="22.4043" y="79.5505" width="167.82" height="3.5179" rx="1.75895" fill="#5469FF" fill-opacity="0.3"/>
<circle cx="24.1635" cy="81.3096" r="0.586317" fill="#5469FF" fill-opacity="0.82"/>
<circle cx="37.806" cy="81.3096" r="0.586317" fill="#5469FF" fill-opacity="0.82"/>
<circle cx="51.4496" cy="81.3096" r="0.586317" fill="#5469FF" fill-opacity="0.82"/>
<circle cx="65.0932" cy="81.3096" r="0.586317" fill="#5469FF" fill-opacity="0.82"/>
<circle cx="78.7357" cy="81.3096" r="0.586317" fill="#5469FF" fill-opacity="0.82"/>
<circle cx="92.3793" cy="81.3096" r="0.586317" fill="#5469FF" fill-opacity="0.82"/>
<circle cx="106.022" cy="81.3096" r="0.586317" fill="#5469FF" fill-opacity="0.82"/>
<circle cx="119.665" cy="81.3096" r="0.586317" fill="#5469FF"/>
<circle cx="133.309" cy="81.3096" r="0.586317" fill="#5469FF"/>
<circle cx="146.952" cy="81.3096" r="0.586317" fill="#5469FF"/>
<circle cx="160.595" cy="81.3096" r="0.586317" fill="#5469FF"/>
<circle cx="174.239" cy="81.3096" r="0.586317" fill="#5469FF"/>
<circle cx="187.881" cy="81.3096" r="0.586317" fill="#5469FF"/>
<g clip-path="url(#clip1_4516_98935)">
<rect x="22.4043" y="79.5505" width="82.5863" height="3.5179" rx="1.75895" fill="#5469FF"/>
<rect x="63.4043" y="79.5505" width="0.586317" height="3.5179" rx="0.293159" fill="#5469FF"/>
</g>
</g>
<path d="M28.3696 92.8805V94.0729C28.3696 94.7138 28.3123 95.2545 28.1978 95.6949C28.0832 96.1354 27.9185 96.4899 27.7036 96.7584C27.4888 97.027 27.2292 97.2221 26.9248 97.3439C26.624 97.462 26.2839 97.5211 25.9043 97.5211C25.6035 97.5211 25.326 97.4835 25.0718 97.4083C24.8175 97.3331 24.5884 97.2132 24.3843 97.0485C24.1838 96.8802 24.0119 96.6617 23.8687 96.3932C23.7254 96.1246 23.6162 95.7988 23.541 95.4156C23.4658 95.0325 23.4282 94.5849 23.4282 94.0729V92.8805C23.4282 92.2395 23.4855 91.7024 23.6001 91.2692C23.7183 90.8359 23.8848 90.4886 24.0996 90.2272C24.3145 89.9622 24.5723 89.7724 24.873 89.6578C25.1774 89.5433 25.5176 89.486 25.8936 89.486C26.1979 89.486 26.4772 89.5236 26.7314 89.5988C26.9893 89.6704 27.2184 89.7867 27.4189 89.9479C27.6195 90.1054 27.7896 90.3167 27.9292 90.5817C28.0724 90.8431 28.1816 91.1635 28.2568 91.5431C28.332 91.9226 28.3696 92.3684 28.3696 92.8805ZM27.3706 94.234V92.714C27.3706 92.3631 27.3491 92.0551 27.3062 91.7902C27.2668 91.5216 27.2077 91.2924 27.1289 91.1027C27.0501 90.9129 26.9499 90.7589 26.8281 90.6407C26.71 90.5226 26.5721 90.4366 26.4146 90.3829C26.2606 90.3256 26.0869 90.297 25.8936 90.297C25.6572 90.297 25.4478 90.3418 25.2651 90.4313C25.0825 90.5172 24.9285 90.6551 24.8032 90.8448C24.6815 91.0346 24.5884 91.2835 24.5239 91.5914C24.4595 91.8994 24.4272 92.2736 24.4272 92.714V94.234C24.4272 94.5849 24.4469 94.8947 24.4863 95.1632C24.5293 95.4318 24.592 95.6645 24.6743 95.8615C24.7567 96.0548 24.8569 96.2142 24.9751 96.3395C25.0933 96.4648 25.2293 96.5579 25.3833 96.6188C25.5409 96.6761 25.7145 96.7047 25.9043 96.7047C26.1478 96.7047 26.3608 96.6582 26.5435 96.5651C26.7261 96.472 26.8783 96.3269 27 96.13C27.1253 95.9295 27.2184 95.6735 27.2793 95.3619C27.3402 95.0468 27.3706 94.6709 27.3706 94.234Z" fill="black" fill-opacity="0.54"/>
<path d="M174.609 89.5504V97.4137H173.615V90.7911L171.612 91.5216V90.6246L174.453 89.5504H174.609ZM182.69 92.8805V94.0729C182.69 94.7138 182.633 95.2545 182.518 95.6949C182.403 96.1354 182.239 96.4899 182.024 96.7584C181.809 97.027 181.549 97.2221 181.245 97.3439C180.944 97.462 180.604 97.5211 180.225 97.5211C179.924 97.5211 179.646 97.4835 179.392 97.4083C179.138 97.3331 178.909 97.2132 178.705 97.0485C178.504 96.8802 178.332 96.6617 178.189 96.3932C178.046 96.1246 177.937 95.7988 177.861 95.4156C177.786 95.0325 177.749 94.5849 177.749 94.0729V92.8805C177.749 92.2395 177.806 91.7024 177.92 91.2692C178.039 90.8359 178.205 90.4886 178.42 90.2272C178.635 89.9622 178.893 89.7724 179.193 89.6578C179.498 89.5433 179.838 89.486 180.214 89.486C180.518 89.486 180.798 89.5236 181.052 89.5988C181.31 89.6704 181.539 89.7867 181.739 89.9479C181.94 90.1054 182.11 90.3167 182.25 90.5817C182.393 90.8431 182.502 91.1635 182.577 91.5431C182.652 91.9226 182.69 92.3684 182.69 92.8805ZM181.691 94.234V92.714C181.691 92.3631 181.669 92.0551 181.626 91.7902C181.587 91.5216 181.528 91.2924 181.449 91.1027C181.37 90.9129 181.27 90.7589 181.148 90.6407C181.03 90.5226 180.892 90.4366 180.735 90.3829C180.581 90.3256 180.407 90.297 180.214 90.297C179.978 90.297 179.768 90.3418 179.585 90.4313C179.403 90.5172 179.249 90.6551 179.124 90.8448C179.002 91.0346 178.909 91.2835 178.844 91.5914C178.78 91.8994 178.748 92.2736 178.748 92.714V94.234C178.748 94.5849 178.767 94.8947 178.807 95.1632C178.85 95.4318 178.912 95.6645 178.995 95.8615C179.077 96.0548 179.177 96.2142 179.295 96.3395C179.414 96.4648 179.55 96.5579 179.704 96.6188C179.861 96.6761 180.035 96.7047 180.225 96.7047C180.468 96.7047 180.681 96.6582 180.864 96.5651C181.046 96.472 181.199 96.3269 181.32 96.13C181.446 95.9295 181.539 95.6735 181.6 95.3619C181.66 95.0468 181.691 94.6709 181.691 94.234ZM189.127 92.8805V94.0729C189.127 94.7138 189.07 95.2545 188.956 95.6949C188.841 96.1354 188.676 96.4899 188.461 96.7584C188.247 97.027 187.987 97.2221 187.683 97.3439C187.382 97.462 187.042 97.5211 186.662 97.5211C186.361 97.5211 186.084 97.4835 185.83 97.4083C185.575 97.3331 185.346 97.2132 185.142 97.0485C184.942 96.8802 184.77 96.6617 184.626 96.3932C184.483 96.1246 184.374 95.7988 184.299 95.4156C184.224 95.0325 184.186 94.5849 184.186 94.0729V92.8805C184.186 92.2395 184.243 91.7024 184.358 91.2692C184.476 90.8359 184.643 90.4886 184.857 90.2272C185.072 89.9622 185.33 89.7724 185.631 89.6578C185.935 89.5433 186.275 89.486 186.651 89.486C186.956 89.486 187.235 89.5236 187.489 89.5988C187.747 89.6704 187.976 89.7867 188.177 89.9479C188.377 90.1054 188.547 90.3167 188.687 90.5817C188.83 90.8431 188.939 91.1635 189.015 91.5431C189.09 91.9226 189.127 92.3684 189.127 92.8805ZM188.128 94.234V92.714C188.128 92.3631 188.107 92.0551 188.064 91.7902C188.025 91.5216 187.965 91.2924 187.887 91.1027C187.808 90.9129 187.708 90.7589 187.586 90.6407C187.468 90.5226 187.33 90.4366 187.172 90.3829C187.018 90.3256 186.845 90.297 186.651 90.297C186.415 90.297 186.206 90.3418 186.023 90.4313C185.84 90.5172 185.686 90.6551 185.561 90.8448C185.439 91.0346 185.346 91.2835 185.282 91.5914C185.217 91.8994 185.185 92.2736 185.185 92.714V94.234C185.185 94.5849 185.205 94.8947 185.244 95.1632C185.287 95.4318 185.35 95.6645 185.432 95.8615C185.514 96.0548 185.615 96.2142 185.733 96.3395C185.851 96.4648 185.987 96.5579 186.141 96.6188C186.299 96.6761 186.472 96.7047 186.662 96.7047C186.906 96.7047 187.119 96.6582 187.301 96.5651C187.484 96.472 187.636 96.3269 187.758 96.13C187.883 95.9295 187.976 95.6735 188.037 95.3619C188.098 95.0468 188.128 94.6709 188.128 94.234Z" fill="black" fill-opacity="0.54"/>
<circle cx="106.597" cy="81.417" r="4.69054" fill="#5469FF"/>
</g>
<defs>
<filter id="filter0_d_4516_98935" x="0.333008" y="0.5" width="212" height="131" filterUnits="userSpaceOnUse" color-interpolation-filters="sRGB">
<feFlood flood-opacity="0" result="BackgroundImageFix"/>
<feColorMatrix in="SourceAlpha" type="matrix" values="0 0 0 0 0 0 0 0 0 0 0 0 0 0 0 0 0 0 127 0" result="hardAlpha"/>
<feOffset dy="4"/>
<feGaussianBlur stdDeviation="4"/>
<feComposite in2="hardAlpha" operator="out"/>
<feColorMatrix type="matrix" values="0 0 0 0 0 0 0 0 0 0 0 0 0 0 0 0 0 0 0.04 0"/>
<feBlend mode="normal" in2="BackgroundImageFix" result="effect1_dropShadow_4516_98935"/>
<feBlend mode="normal" in="SourceGraphic" in2="effect1_dropShadow_4516_98935" result="shape"/>
</filter>
<clipPath id="clip0_4516_98935">
<rect x="22.4043" y="79.5505" width="167.82" height="3.5179" rx="1.75895" fill="white"/>
</clipPath>
<clipPath id="clip1_4516_98935">
<rect x="22.4043" y="79.5505" width="82.5863" height="3.5179" rx="1.75895" fill="white"/>
</clipPath>
</defs>
</svg>
