<svg width="212" height="132" viewBox="0 0 212 132" fill="none" xmlns="http://www.w3.org/2000/svg">
<g filter="url(#filter0_d_4516_98987)">
<rect x="8" y="4.5" width="196" height="115" rx="2.3403" fill="white"/>
<path d="M27.3975 26.0043C27.3975 25.8285 27.3701 25.6722 27.3154 25.5355C27.2646 25.3988 27.1729 25.2738 27.04 25.1605C26.9072 25.0472 26.7197 24.9379 26.4775 24.8324C26.2393 24.723 25.9346 24.6117 25.5635 24.4984C25.1572 24.3734 24.7822 24.2347 24.4385 24.0824C24.0986 23.9261 23.8018 23.7465 23.5479 23.5433C23.2939 23.3363 23.0967 23.1 22.9561 22.8344C22.8154 22.5648 22.7451 22.2543 22.7451 21.9027C22.7451 21.5551 22.8174 21.2386 22.9619 20.9535C23.1104 20.6683 23.3193 20.4222 23.5889 20.2152C23.8623 20.0043 24.1846 19.8422 24.5557 19.7289C24.9268 19.6117 25.3369 19.5531 25.7861 19.5531C26.4189 19.5531 26.9639 19.6703 27.4209 19.9047C27.8818 20.139 28.2354 20.4535 28.4814 20.848C28.7314 21.2426 28.8564 21.6781 28.8564 22.1547H27.3975C27.3975 21.8734 27.3369 21.6254 27.2158 21.4105C27.0986 21.1918 26.9189 21.0199 26.6768 20.8949C26.4385 20.7699 26.1357 20.7074 25.7686 20.7074C25.4209 20.7074 25.1318 20.7601 24.9014 20.8656C24.6709 20.9711 24.499 21.1136 24.3857 21.2933C24.2725 21.473 24.2158 21.6761 24.2158 21.9027C24.2158 22.0629 24.2529 22.2094 24.3271 22.3422C24.4014 22.4711 24.5146 22.5922 24.667 22.7054C24.8193 22.8148 25.0107 22.9183 25.2412 23.016C25.4717 23.1136 25.7432 23.2074 26.0557 23.2972C26.5283 23.4379 26.9404 23.5941 27.292 23.766C27.6436 23.934 27.9365 24.1254 28.1709 24.3402C28.4053 24.5551 28.5811 24.7992 28.6982 25.0726C28.8154 25.3422 28.874 25.6488 28.874 25.9926C28.874 26.3519 28.8018 26.6761 28.6572 26.9652C28.5127 27.2504 28.3057 27.4945 28.0361 27.6976C27.7705 27.8969 27.4502 28.0511 27.0752 28.1605C26.7041 28.266 26.29 28.3187 25.833 28.3187C25.4229 28.3187 25.0186 28.264 24.6201 28.1547C24.2256 28.0453 23.8662 27.8793 23.542 27.6566C23.2178 27.4301 22.96 27.1488 22.7686 26.8129C22.5771 26.473 22.4814 26.0765 22.4814 25.6234H23.9521C23.9521 25.9008 23.999 26.1371 24.0928 26.3324C24.1904 26.5277 24.3252 26.6879 24.4971 26.8129C24.6689 26.934 24.8682 27.0238 25.0947 27.0824C25.3252 27.141 25.5713 27.1703 25.833 27.1703C26.1768 27.1703 26.4639 27.1215 26.6943 27.0238C26.9287 26.9261 27.1045 26.7894 27.2217 26.6136C27.3389 26.4379 27.3975 26.2347 27.3975 26.0043ZM31.7959 19.2015V28.2015H30.3779V19.2015H31.7959ZM35.1045 21.8617V28.2015H33.6865V21.8617H35.1045ZM33.5928 20.1976C33.5928 19.9828 33.6631 19.8051 33.8037 19.6644C33.9482 19.5199 34.1475 19.4476 34.4014 19.4476C34.6514 19.4476 34.8486 19.5199 34.9932 19.6644C35.1377 19.8051 35.21 19.9828 35.21 20.1976C35.21 20.4086 35.1377 20.5844 34.9932 20.725C34.8486 20.8656 34.6514 20.9359 34.4014 20.9359C34.1475 20.9359 33.9482 20.8656 33.8037 20.725C33.6631 20.5844 33.5928 20.4086 33.5928 20.1976ZM40.7686 26.889V19.2015H42.1865V28.2015H40.9033L40.7686 26.889ZM36.6436 25.1019V24.9789C36.6436 24.4984 36.7002 24.0609 36.8135 23.6664C36.9268 23.2679 37.0908 22.9261 37.3057 22.641C37.5205 22.3519 37.7822 22.1312 38.0908 21.9789C38.3994 21.8226 38.7471 21.7445 39.1338 21.7445C39.5166 21.7445 39.8525 21.8187 40.1416 21.9672C40.4307 22.1156 40.6768 22.3285 40.8799 22.6058C41.083 22.8793 41.2451 23.2074 41.3662 23.5902C41.4873 23.9691 41.5732 24.391 41.624 24.8558V25.2484C41.5732 25.7015 41.4873 26.1156 41.3662 26.4906C41.2451 26.8656 41.083 27.1898 40.8799 27.4633C40.6768 27.7367 40.4287 27.9476 40.1357 28.0961C39.8467 28.2445 39.5088 28.3187 39.1221 28.3187C38.7393 28.3187 38.3936 28.2386 38.085 28.0785C37.7803 27.9183 37.5205 27.6937 37.3057 27.4047C37.0908 27.1156 36.9268 26.7758 36.8135 26.3851C36.7002 25.9906 36.6436 25.5629 36.6436 25.1019ZM38.0557 24.9789V25.1019C38.0557 25.391 38.0811 25.6605 38.1318 25.9105C38.1865 26.1605 38.2705 26.3812 38.3838 26.5726C38.4971 26.7601 38.6436 26.9086 38.8232 27.0179C39.0068 27.1234 39.2256 27.1761 39.4795 27.1761C39.7998 27.1761 40.0635 27.1058 40.2705 26.9652C40.4775 26.8246 40.6396 26.6351 40.7568 26.3969C40.8779 26.1547 40.96 25.8851 41.0029 25.5883V24.5277C40.9795 24.2972 40.9307 24.0824 40.8564 23.8832C40.7861 23.684 40.6904 23.5101 40.5693 23.3617C40.4482 23.2094 40.2979 23.0922 40.1182 23.0101C39.9424 22.9242 39.7334 22.8812 39.4912 22.8812C39.2334 22.8812 39.0146 22.9359 38.835 23.0453C38.6553 23.1547 38.5068 23.3051 38.3896 23.4965C38.2764 23.6879 38.1924 23.9105 38.1377 24.1644C38.083 24.4183 38.0557 24.6898 38.0557 24.9789ZM46.708 28.3187C46.2393 28.3187 45.8154 28.2426 45.4365 28.0902C45.0615 27.934 44.7412 27.7172 44.4756 27.4398C44.2139 27.1625 44.0127 26.8363 43.8721 26.4613C43.7314 26.0863 43.6611 25.682 43.6611 25.2484V25.014C43.6611 24.5179 43.7334 24.0687 43.8779 23.6664C44.0225 23.264 44.2236 22.9203 44.4814 22.6351C44.7393 22.3461 45.0439 22.1254 45.3955 21.973C45.7471 21.8207 46.1279 21.7445 46.5381 21.7445C46.9912 21.7445 47.3877 21.8207 47.7275 21.973C48.0674 22.1254 48.3486 22.3402 48.5713 22.6176C48.7979 22.891 48.9658 23.2172 49.0752 23.5961C49.1885 23.975 49.2451 24.3929 49.2451 24.85V25.4535H44.3467V24.4398H47.8506V24.3285C47.8428 24.0746 47.792 23.8363 47.6982 23.6136C47.6084 23.391 47.4697 23.2113 47.2822 23.0746C47.0947 22.9379 46.8447 22.8695 46.5322 22.8695C46.2979 22.8695 46.0889 22.9203 45.9053 23.0219C45.7256 23.1195 45.5752 23.2621 45.4541 23.4496C45.333 23.6371 45.2393 23.8636 45.1729 24.1293C45.1104 24.391 45.0791 24.6859 45.0791 25.014V25.2484C45.0791 25.5258 45.1162 25.7836 45.1904 26.0219C45.2686 26.2562 45.3818 26.4613 45.5303 26.6371C45.6787 26.8129 45.8584 26.9515 46.0693 27.0531C46.2803 27.1508 46.5205 27.1996 46.79 27.1996C47.1299 27.1996 47.4326 27.1312 47.6982 26.9945C47.9639 26.8578 48.1943 26.6644 48.3896 26.4144L49.1338 27.1351C48.9971 27.3344 48.8193 27.5258 48.6006 27.7094C48.3818 27.889 48.1143 28.0355 47.7979 28.1488C47.4854 28.2621 47.1221 28.3187 46.708 28.3187ZM52.0146 23.0687V28.2015H50.6025V21.8617H51.9502L52.0146 23.0687ZM53.9541 21.8207L53.9424 23.1332C53.8564 23.1176 53.7627 23.1058 53.6611 23.098C53.5635 23.0902 53.4658 23.0863 53.3682 23.0863C53.126 23.0863 52.9131 23.1215 52.7295 23.1918C52.5459 23.2582 52.3916 23.3558 52.2666 23.4847C52.1455 23.6097 52.0518 23.7621 51.9854 23.9418C51.9189 24.1215 51.8799 24.3226 51.8682 24.5453L51.5459 24.5687C51.5459 24.1703 51.585 23.8011 51.6631 23.4613C51.7412 23.1215 51.8584 22.8226 52.0146 22.5648C52.1748 22.307 52.374 22.1058 52.6123 21.9613C52.8545 21.8168 53.1338 21.7445 53.4502 21.7445C53.5361 21.7445 53.6279 21.7523 53.7256 21.7679C53.8271 21.7836 53.9033 21.8011 53.9541 21.8207Z" fill="black" fill-opacity="0.87"/>
<path d="M96.5664 58.4613V60.7113H84.2617L84.168 59.0121L91.5273 47.4808H93.7891L91.3398 51.6761L87.1094 58.4613H96.5664ZM94.4336 47.4808V64.5433H91.6094V47.4808H94.4336ZM109.609 59.891C109.609 60.9535 109.363 61.848 108.871 62.5746C108.379 63.3011 107.707 63.8519 106.855 64.2269C106.012 64.5941 105.059 64.7777 103.996 64.7777C102.934 64.7777 101.977 64.5941 101.125 64.2269C100.273 63.8519 99.6016 63.3011 99.1094 62.5746C98.6172 61.848 98.3711 60.9535 98.3711 59.891C98.3711 59.1879 98.5078 58.5511 98.7812 57.9808C99.0547 57.4027 99.4414 56.9066 99.9414 56.4926C100.449 56.0707 101.043 55.7465 101.723 55.5199C102.41 55.2933 103.16 55.1801 103.973 55.1801C105.051 55.1801 106.016 55.3793 106.867 55.7777C107.719 56.1761 108.387 56.7269 108.871 57.4301C109.363 58.1332 109.609 58.9535 109.609 59.891ZM106.773 59.7504C106.773 59.1801 106.656 58.6801 106.422 58.2504C106.188 57.8207 105.859 57.4886 105.438 57.2543C105.016 57.0199 104.527 56.9027 103.973 56.9027C103.41 56.9027 102.922 57.0199 102.508 57.2543C102.094 57.4886 101.77 57.8207 101.535 58.2504C101.309 58.6801 101.195 59.1801 101.195 59.7504C101.195 60.3285 101.309 60.8285 101.535 61.2504C101.762 61.6644 102.086 61.9808 102.508 62.1996C102.93 62.4183 103.426 62.5277 103.996 62.5277C104.566 62.5277 105.059 62.4183 105.473 62.1996C105.887 61.9808 106.207 61.6644 106.434 61.2504C106.66 60.8285 106.773 60.3285 106.773 59.7504ZM109.223 51.9691C109.223 52.8207 108.996 53.5785 108.543 54.2426C108.098 54.9066 107.48 55.4301 106.691 55.8129C105.902 56.1879 105.004 56.3754 103.996 56.3754C102.98 56.3754 102.074 56.1879 101.277 55.8129C100.488 55.4301 99.8672 54.9066 99.4141 54.2426C98.9688 53.5785 98.7461 52.8207 98.7461 51.9691C98.7461 50.9535 98.9688 50.098 99.4141 49.4027C99.8672 48.6996 100.488 48.1644 101.277 47.7972C102.066 47.4301 102.969 47.2465 103.984 47.2465C105 47.2465 105.902 47.4301 106.691 47.7972C107.48 48.1644 108.098 48.6996 108.543 49.4027C108.996 50.098 109.223 50.9535 109.223 51.9691ZM106.398 52.0629C106.398 51.5551 106.297 51.1097 106.094 50.7269C105.898 50.3363 105.621 50.0316 105.262 49.8129C104.902 49.5941 104.477 49.4847 103.984 49.4847C103.492 49.4847 103.066 49.5902 102.707 49.8011C102.348 50.0121 102.07 50.309 101.875 50.6918C101.68 51.0746 101.582 51.5316 101.582 52.0629C101.582 52.5863 101.68 53.0433 101.875 53.434C102.07 53.8168 102.348 54.1176 102.707 54.3363C103.074 54.5551 103.504 54.6644 103.996 54.6644C104.488 54.6644 104.914 54.5551 105.273 54.3363C105.633 54.1176 105.91 53.8168 106.105 53.434C106.301 53.0433 106.398 52.5863 106.398 52.0629ZM111.977 51.6644V50.7621C111.977 50.1136 112.117 49.5238 112.398 48.9926C112.68 48.4613 113.09 48.0355 113.629 47.7152C114.168 47.3949 114.816 47.2347 115.574 47.2347C116.355 47.2347 117.012 47.3949 117.543 47.7152C118.082 48.0355 118.492 48.4613 118.773 48.9926C119.055 49.5238 119.195 50.1136 119.195 50.7621V51.6644C119.195 52.2972 119.055 52.8793 118.773 53.4105C118.5 53.9418 118.094 54.3676 117.555 54.6879C117.023 55.0082 116.371 55.1683 115.598 55.1683C114.832 55.1683 114.176 55.0082 113.629 54.6879C113.09 54.3676 112.68 53.9418 112.398 53.4105C112.117 52.8793 111.977 52.2972 111.977 51.6644ZM113.934 50.7621V51.6644C113.934 51.9769 113.992 52.2738 114.109 52.5551C114.234 52.8363 114.422 53.0629 114.672 53.2347C114.922 53.4066 115.23 53.4926 115.598 53.4926C115.973 53.4926 116.277 53.4066 116.512 53.2347C116.754 53.0629 116.934 52.8363 117.051 52.5551C117.168 52.2738 117.227 51.9769 117.227 51.6644V50.7621C117.227 50.4418 117.164 50.141 117.039 49.8597C116.922 49.5707 116.742 49.3402 116.5 49.1683C116.258 48.9965 115.949 48.9105 115.574 48.9105C115.215 48.9105 114.91 48.9965 114.66 49.1683C114.418 49.3402 114.234 49.5707 114.109 49.8597C113.992 50.141 113.934 50.4418 113.934 50.7621ZM120.203 61.2738V60.3597C120.203 59.7191 120.344 59.1332 120.625 58.6019C120.914 58.0707 121.328 57.6449 121.867 57.3246C122.406 57.0043 123.055 56.8441 123.812 56.8441C124.594 56.8441 125.25 57.0043 125.781 57.3246C126.32 57.6449 126.727 58.0707 127 58.6019C127.281 59.1332 127.422 59.7191 127.422 60.3597V61.2738C127.422 61.9144 127.281 62.5004 127 63.0316C126.727 63.5629 126.324 63.9886 125.793 64.309C125.262 64.6293 124.613 64.7894 123.848 64.7894C123.074 64.7894 122.414 64.6293 121.867 64.309C121.328 63.9886 120.914 63.5629 120.625 63.0316C120.344 62.5004 120.203 61.9144 120.203 61.2738ZM122.172 60.3597V61.2738C122.172 61.5863 122.234 61.8832 122.359 62.1644C122.492 62.4457 122.684 62.6761 122.934 62.8558C123.184 63.0277 123.484 63.1136 123.836 63.1136C124.234 63.1136 124.555 63.0277 124.797 62.8558C125.039 62.6761 125.211 62.4496 125.312 62.1761C125.422 61.8949 125.477 61.5941 125.477 61.2738V60.3597C125.477 60.0394 125.414 59.7386 125.289 59.4574C125.172 59.1761 124.988 58.9496 124.738 58.7777C124.496 58.6058 124.188 58.5199 123.812 58.5199C123.445 58.5199 123.141 58.6058 122.898 58.7777C122.656 58.9496 122.473 59.1761 122.348 59.4574C122.23 59.7386 122.172 60.0394 122.172 60.3597ZM124.516 49.9183L116.184 63.2543L114.742 62.4222L123.074 49.0863L124.516 49.9183Z" fill="black" fill-opacity="0.87"/>
<path d="M30.8153 82.6732L30.526 82.8427V83.178V84.417C30.526 84.4459 30.5145 84.4727 30.4957 84.4917C30.477 84.5105 30.4527 84.5202 30.4285 84.5202H27.6981C27.6738 84.5202 27.6496 84.5105 27.6309 84.4917C27.6121 84.4727 27.6006 84.4459 27.6006 84.417V83.178V82.8427L27.3113 82.6732C26.2619 82.0583 25.5528 80.9113 25.5528 79.5987C25.5528 78.657 25.9239 77.7548 26.5828 77.0904C27.2415 76.4261 28.1339 76.0538 29.0633 76.0538C29.9927 76.0538 30.8851 76.4261 31.5438 77.0904C32.2027 77.7548 32.5737 78.657 32.5737 79.5987C32.5737 80.9113 31.8647 82.0583 30.8153 82.6732ZM29.8434 86.3787V86.4819C29.8434 86.5109 29.8319 86.5377 29.8131 86.5567C29.7944 86.5755 29.7702 86.5852 29.7459 86.5852H28.3807C28.3564 86.5852 28.3322 86.5755 28.3135 86.5567C28.2946 86.5377 28.2832 86.5109 28.2832 86.4819V86.3787H29.8434Z" fill="#5469FF" stroke="#5469FF" stroke-width="1.17015"/>
<g clip-path="url(#clip0_4516_98987)">
<rect x="40.7646" y="79.5642" width="130.472" height="3.51045" rx="1.75522" fill="#5469FF" fill-opacity="0.3"/>
<circle cx="42.5196" cy="81.3195" r="0.585075" fill="#5469FF" fill-opacity="0.82"/>
<circle cx="53.0509" cy="81.3195" r="0.585075" fill="#5469FF" fill-opacity="0.82"/>
<circle cx="63.5831" cy="81.3195" r="0.585075" fill="#5469FF" fill-opacity="0.82"/>
<circle cx="74.1144" cy="81.3195" r="0.585075" fill="#5469FF" fill-opacity="0.82"/>
<circle cx="84.6456" cy="81.3195" r="0.585075" fill="#5469FF" fill-opacity="0.82"/>
<circle cx="95.1778" cy="81.3195" r="0.585075" fill="#5469FF" fill-opacity="0.82"/>
<circle cx="105.709" cy="81.3195" r="0.585075" fill="#5469FF" fill-opacity="0.82"/>
<circle cx="116.24" cy="81.3195" r="0.585075" fill="#5469FF"/>
<circle cx="126.772" cy="81.3195" r="0.585075" fill="#5469FF"/>
<circle cx="137.304" cy="81.3195" r="0.585075" fill="#5469FF"/>
<circle cx="147.835" cy="81.3195" r="0.585075" fill="#5469FF"/>
<circle cx="158.366" cy="81.3195" r="0.585075" fill="#5469FF"/>
<circle cx="168.898" cy="81.3195" r="0.585075" fill="#5469FF"/>
<g clip-path="url(#clip1_4516_98987)">
<rect x="40.7646" y="79.5642" width="67.2836" height="3.51045" rx="1.75522" fill="#5469FF"/>
<rect x="74.1143" y="79.5642" width="0.585075" height="3.51045" rx="0.292537" fill="#5469FF"/>
</g>
</g>
<path d="M46.73 92.8818V94.0742C46.73 94.7152 46.6727 95.2559 46.5581 95.6963C46.4435 96.1367 46.2788 96.4912 46.064 96.7598C45.8491 97.0283 45.5895 97.2235 45.2852 97.3452C44.9844 97.4634 44.6442 97.5225 44.2646 97.5225C43.9639 97.5225 43.6864 97.4849 43.4321 97.4097C43.1779 97.3345 42.9487 97.2145 42.7446 97.0498C42.5441 96.8815 42.3722 96.6631 42.229 96.3945C42.0858 96.126 41.9766 95.8001 41.9014 95.417C41.8262 95.0339 41.7886 94.5863 41.7886 94.0742V92.8818C41.7886 92.2409 41.8459 91.7038 41.9604 91.2705C42.0786 90.8372 42.2451 90.4899 42.46 90.2285C42.6748 89.9635 42.9326 89.7738 43.2334 89.6592C43.5378 89.5446 43.8779 89.4873 44.2539 89.4873C44.5583 89.4873 44.8376 89.5249 45.0918 89.6001C45.3496 89.6717 45.5788 89.7881 45.7793 89.9492C45.9798 90.1068 46.1499 90.318 46.2896 90.583C46.4328 90.8444 46.542 91.1649 46.6172 91.5444C46.6924 91.924 46.73 92.3698 46.73 92.8818ZM45.731 94.2354V92.7153C45.731 92.3644 45.7095 92.0565 45.6665 91.7915C45.6271 91.5229 45.568 91.2938 45.4893 91.104C45.4105 90.9142 45.3102 90.7603 45.1885 90.6421C45.0703 90.5239 44.9325 90.438 44.7749 90.3843C44.6209 90.327 44.4473 90.2983 44.2539 90.2983C44.0176 90.2983 43.8081 90.3431 43.6255 90.4326C43.4429 90.5186 43.2889 90.6564 43.1636 90.8462C43.0418 91.036 42.9487 91.2848 42.8843 91.5928C42.8198 91.9007 42.7876 92.2749 42.7876 92.7153V94.2354C42.7876 94.5863 42.8073 94.896 42.8467 95.1646C42.8896 95.4331 42.9523 95.6659 43.0347 95.8628C43.117 96.0562 43.2173 96.2155 43.3354 96.3408C43.4536 96.4661 43.5897 96.5592 43.7437 96.6201C43.9012 96.6774 44.0749 96.7061 44.2646 96.7061C44.5081 96.7061 44.7212 96.6595 44.9038 96.5664C45.0864 96.4733 45.2386 96.3283 45.3604 96.1313C45.4857 95.9308 45.5788 95.6748 45.6396 95.3633C45.7005 95.0482 45.731 94.6722 45.731 94.2354Z" fill="black" fill-opacity="0.54"/>
<path d="M155.621 89.5518V97.415H154.627V90.7925L152.624 91.5229V90.626L155.465 89.5518H155.621ZM163.702 92.8818V94.0742C163.702 94.7152 163.644 95.2559 163.53 95.6963C163.415 96.1367 163.25 96.4912 163.036 96.7598C162.821 97.0283 162.561 97.2235 162.257 97.3452C161.956 97.4634 161.616 97.5225 161.236 97.5225C160.936 97.5225 160.658 97.4849 160.404 97.4097C160.15 97.3345 159.92 97.2145 159.716 97.0498C159.516 96.8815 159.344 96.6631 159.201 96.3945C159.057 96.126 158.948 95.8001 158.873 95.417C158.798 95.0339 158.76 94.5863 158.76 94.0742V92.8818C158.76 92.2409 158.818 91.7038 158.932 91.2705C159.05 90.8372 159.217 90.4899 159.432 90.2285C159.646 89.9635 159.904 89.7738 160.205 89.6592C160.509 89.5446 160.85 89.4873 161.226 89.4873C161.53 89.4873 161.809 89.5249 162.063 89.6001C162.321 89.6717 162.55 89.7881 162.751 89.9492C162.951 90.1068 163.122 90.318 163.261 90.583C163.404 90.8444 163.514 91.1649 163.589 91.5444C163.664 91.924 163.702 92.3698 163.702 92.8818ZM162.703 94.2354V92.7153C162.703 92.3644 162.681 92.0565 162.638 91.7915C162.599 91.5229 162.54 91.2938 162.461 91.104C162.382 90.9142 162.282 90.7603 162.16 90.6421C162.042 90.5239 161.904 90.438 161.747 90.3843C161.593 90.327 161.419 90.2983 161.226 90.2983C160.989 90.2983 160.78 90.3431 160.597 90.4326C160.415 90.5186 160.261 90.6564 160.135 90.8462C160.014 91.036 159.92 91.2848 159.856 91.5928C159.792 91.9007 159.759 92.2749 159.759 92.7153V94.2354C159.759 94.5863 159.779 94.896 159.818 95.1646C159.861 95.4331 159.924 95.6659 160.006 95.8628C160.089 96.0562 160.189 96.2155 160.307 96.3408C160.425 96.4661 160.561 96.5592 160.715 96.6201C160.873 96.6774 161.047 96.7061 161.236 96.7061C161.48 96.7061 161.693 96.6595 161.875 96.5664C162.058 96.4733 162.21 96.3283 162.332 96.1313C162.457 95.9308 162.55 95.6748 162.611 95.3633C162.672 95.0482 162.703 94.6722 162.703 94.2354ZM170.139 92.8818V94.0742C170.139 94.7152 170.082 95.2559 169.967 95.6963C169.853 96.1367 169.688 96.4912 169.473 96.7598C169.258 97.0283 168.999 97.2235 168.694 97.3452C168.394 97.4634 168.053 97.5225 167.674 97.5225C167.373 97.5225 167.096 97.4849 166.841 97.4097C166.587 97.3345 166.358 97.2145 166.154 97.0498C165.953 96.8815 165.781 96.6631 165.638 96.3945C165.495 96.126 165.386 95.8001 165.311 95.417C165.235 95.0339 165.198 94.5863 165.198 94.0742V92.8818C165.198 92.2409 165.255 91.7038 165.37 91.2705C165.488 90.8372 165.654 90.4899 165.869 90.2285C166.084 89.9635 166.342 89.7738 166.643 89.6592C166.947 89.5446 167.287 89.4873 167.663 89.4873C167.967 89.4873 168.247 89.5249 168.501 89.6001C168.759 89.6717 168.988 89.7881 169.188 89.9492C169.389 90.1068 169.559 90.318 169.699 90.583C169.842 90.8444 169.951 91.1649 170.026 91.5444C170.102 91.924 170.139 92.3698 170.139 92.8818ZM169.14 94.2354V92.7153C169.14 92.3644 169.119 92.0565 169.076 91.7915C169.036 91.5229 168.977 91.2938 168.898 91.104C168.82 90.9142 168.719 90.7603 168.598 90.6421C168.479 90.5239 168.342 90.438 168.184 90.3843C168.03 90.327 167.856 90.2983 167.663 90.2983C167.427 90.2983 167.217 90.3431 167.035 90.4326C166.852 90.5186 166.698 90.6564 166.573 90.8462C166.451 91.036 166.358 91.2848 166.293 91.5928C166.229 91.9007 166.197 92.2749 166.197 92.7153V94.2354C166.197 94.5863 166.216 94.896 166.256 95.1646C166.299 95.4331 166.361 95.6659 166.444 95.8628C166.526 96.0562 166.626 96.2155 166.745 96.3408C166.863 96.4661 166.999 96.5592 167.153 96.6201C167.31 96.6774 167.484 96.7061 167.674 96.7061C167.917 96.7061 168.13 96.6595 168.313 96.5664C168.496 96.4733 168.648 96.3283 168.77 96.1313C168.895 95.9308 168.988 95.6748 169.049 95.3633C169.11 95.0482 169.14 94.6722 169.14 94.2354Z" fill="black" fill-opacity="0.54"/>
<g clip-path="url(#clip2_4516_98987)">
<path d="M184.546 84.1089L184.4 84.1935V84.3619V85.415C184.4 85.4926 184.37 85.567 184.315 85.6219C184.26 85.6767 184.186 85.7075 184.108 85.7075H181.768C181.69 85.7075 181.616 85.6767 181.561 85.6219C181.506 85.567 181.475 85.4926 181.475 85.415V84.3619V84.1935L181.33 84.1089C180.368 83.5504 179.72 82.5094 179.72 81.3195C179.72 80.466 180.059 79.6476 180.662 79.0441C181.266 78.4406 182.084 78.1016 182.938 78.1016C183.791 78.1016 184.61 78.4406 185.213 79.0441C185.817 79.6476 186.156 80.466 186.156 81.3195C186.156 82.5094 185.507 83.5504 184.546 84.1089ZM183.815 86.8777V87.1702C183.815 87.2478 183.785 87.3222 183.73 87.3771C183.675 87.432 183.6 87.4628 183.523 87.4628H182.353C182.275 87.4628 182.201 87.432 182.146 87.3771C182.091 87.3222 182.06 87.2478 182.06 87.1702V86.8777H183.815ZM187.911 81.027H189.081V81.612H187.911V81.027ZM176.794 81.027H177.965V81.612H176.794V81.027ZM183.23 75.1762V76.3464H182.645V75.1762H183.23ZM178.378 77.1818L178.796 76.7613L179.628 77.5972L179.211 78.0109L178.378 77.1818ZM186.665 78.0101L186.247 77.5921L187.075 76.7606L187.497 77.1825L186.665 78.0101Z" fill="#5469FF" stroke="#5469FF" stroke-width="0.585075"/>
</g>
<circle cx="106.02" cy="81.3821" r="4.6806" fill="#5469FF"/>
</g>
<defs>
<filter id="filter0_d_4516_98987" x="0" y="0.5" width="212" height="131" filterUnits="userSpaceOnUse" color-interpolation-filters="sRGB">
<feFlood flood-opacity="0" result="BackgroundImageFix"/>
<feColorMatrix in="SourceAlpha" type="matrix" values="0 0 0 0 0 0 0 0 0 0 0 0 0 0 0 0 0 0 127 0" result="hardAlpha"/>
<feOffset dy="4"/>
<feGaussianBlur stdDeviation="4"/>
<feComposite in2="hardAlpha" operator="out"/>
<feColorMatrix type="matrix" values="0 0 0 0 0 0 0 0 0 0 0 0 0 0 0 0 0 0 0.04 0"/>
<feBlend mode="normal" in2="BackgroundImageFix" result="effect1_dropShadow_4516_98987"/>
<feBlend mode="normal" in="SourceGraphic" in2="effect1_dropShadow_4516_98987" result="shape"/>
</filter>
<clipPath id="clip0_4516_98987">
<rect x="40.7646" y="79.5642" width="130.472" height="3.51045" rx="1.75522" fill="white"/>
</clipPath>
<clipPath id="clip1_4516_98987">
<rect x="40.7646" y="79.5642" width="67.2836" height="3.51045" rx="1.75522" fill="white"/>
</clipPath>
<clipPath id="clip2_4516_98987">
<rect width="14.0418" height="14.0418" fill="white" transform="translate(175.917 74.2986)"/>
</clipPath>
</defs>
</svg>
