<svg width="213" height="132" viewBox="0 0 213 132" fill="none" xmlns="http://www.w3.org/2000/svg">
<g filter="url(#filter0_d_4516_99043)">
<rect x="8.66602" y="4.5" width="196" height="115" rx="2.3403" fill="white"/>
<path d="M28.0635 26.0043C28.0635 25.8285 28.0361 25.6722 27.9814 25.5355C27.9307 25.3988 27.8389 25.2738 27.7061 25.1605C27.5732 25.0472 27.3857 24.9379 27.1436 24.8324C26.9053 24.723 26.6006 24.6117 26.2295 24.4984C25.8232 24.3734 25.4482 24.2347 25.1045 24.0824C24.7646 23.9261 24.4678 23.7465 24.2139 23.5433C23.96 23.3363 23.7627 23.1 23.6221 22.8344C23.4814 22.5648 23.4111 22.2543 23.4111 21.9027C23.4111 21.5551 23.4834 21.2386 23.6279 20.9535C23.7764 20.6683 23.9854 20.4222 24.2549 20.2152C24.5283 20.0043 24.8506 19.8422 25.2217 19.7289C25.5928 19.6117 26.0029 19.5531 26.4521 19.5531C27.085 19.5531 27.6299 19.6703 28.0869 19.9047C28.5479 20.139 28.9014 20.4535 29.1475 20.848C29.3975 21.2426 29.5225 21.6781 29.5225 22.1547H28.0635C28.0635 21.8734 28.0029 21.6254 27.8818 21.4105C27.7646 21.1918 27.585 21.0199 27.3428 20.8949C27.1045 20.7699 26.8018 20.7074 26.4346 20.7074C26.0869 20.7074 25.7979 20.7601 25.5674 20.8656C25.3369 20.9711 25.165 21.1136 25.0518 21.2933C24.9385 21.473 24.8818 21.6761 24.8818 21.9027C24.8818 22.0629 24.9189 22.2094 24.9932 22.3422C25.0674 22.4711 25.1807 22.5922 25.333 22.7054C25.4854 22.8148 25.6768 22.9183 25.9072 23.016C26.1377 23.1136 26.4092 23.2074 26.7217 23.2972C27.1943 23.4379 27.6064 23.5941 27.958 23.766C28.3096 23.934 28.6025 24.1254 28.8369 24.3402C29.0713 24.5551 29.2471 24.7992 29.3643 25.0726C29.4814 25.3422 29.54 25.6488 29.54 25.9926C29.54 26.3519 29.4678 26.6761 29.3232 26.9652C29.1787 27.2504 28.9717 27.4945 28.7021 27.6976C28.4365 27.8969 28.1162 28.0511 27.7412 28.1605C27.3701 28.266 26.9561 28.3187 26.499 28.3187C26.0889 28.3187 25.6846 28.264 25.2861 28.1547C24.8916 28.0453 24.5322 27.8793 24.208 27.6566C23.8838 27.4301 23.626 27.1488 23.4346 26.8129C23.2432 26.473 23.1475 26.0765 23.1475 25.6234H24.6182C24.6182 25.9008 24.665 26.1371 24.7588 26.3324C24.8564 26.5277 24.9912 26.6879 25.1631 26.8129C25.335 26.934 25.5342 27.0238 25.7607 27.0824C25.9912 27.141 26.2373 27.1703 26.499 27.1703C26.8428 27.1703 27.1299 27.1215 27.3604 27.0238C27.5947 26.9261 27.7705 26.7894 27.8877 26.6136C28.0049 26.4379 28.0635 26.2347 28.0635 26.0043ZM32.4619 19.2015V28.2015H31.0439V19.2015H32.4619ZM35.7705 21.8617V28.2015H34.3525V21.8617H35.7705ZM34.2588 20.1976C34.2588 19.9828 34.3291 19.8051 34.4697 19.6644C34.6143 19.5199 34.8135 19.4476 35.0674 19.4476C35.3174 19.4476 35.5146 19.5199 35.6592 19.6644C35.8037 19.8051 35.876 19.9828 35.876 20.1976C35.876 20.4086 35.8037 20.5844 35.6592 20.725C35.5146 20.8656 35.3174 20.9359 35.0674 20.9359C34.8135 20.9359 34.6143 20.8656 34.4697 20.725C34.3291 20.5844 34.2588 20.4086 34.2588 20.1976ZM41.4346 26.889V19.2015H42.8525V28.2015H41.5693L41.4346 26.889ZM37.3096 25.1019V24.9789C37.3096 24.4984 37.3662 24.0609 37.4795 23.6664C37.5928 23.2679 37.7568 22.9261 37.9717 22.641C38.1865 22.3519 38.4482 22.1312 38.7568 21.9789C39.0654 21.8226 39.4131 21.7445 39.7998 21.7445C40.1826 21.7445 40.5186 21.8187 40.8076 21.9672C41.0967 22.1156 41.3428 22.3285 41.5459 22.6058C41.749 22.8793 41.9111 23.2074 42.0322 23.5902C42.1533 23.9691 42.2393 24.391 42.29 24.8558V25.2484C42.2393 25.7015 42.1533 26.1156 42.0322 26.4906C41.9111 26.8656 41.749 27.1898 41.5459 27.4633C41.3428 27.7367 41.0947 27.9476 40.8018 28.0961C40.5127 28.2445 40.1748 28.3187 39.7881 28.3187C39.4053 28.3187 39.0596 28.2386 38.751 28.0785C38.4463 27.9183 38.1865 27.6937 37.9717 27.4047C37.7568 27.1156 37.5928 26.7758 37.4795 26.3851C37.3662 25.9906 37.3096 25.5629 37.3096 25.1019ZM38.7217 24.9789V25.1019C38.7217 25.391 38.7471 25.6605 38.7979 25.9105C38.8525 26.1605 38.9365 26.3812 39.0498 26.5726C39.1631 26.7601 39.3096 26.9086 39.4893 27.0179C39.6729 27.1234 39.8916 27.1761 40.1455 27.1761C40.4658 27.1761 40.7295 27.1058 40.9365 26.9652C41.1436 26.8246 41.3057 26.6351 41.4229 26.3969C41.5439 26.1547 41.626 25.8851 41.6689 25.5883V24.5277C41.6455 24.2972 41.5967 24.0824 41.5225 23.8832C41.4521 23.684 41.3564 23.5101 41.2354 23.3617C41.1143 23.2094 40.9639 23.0922 40.7842 23.0101C40.6084 22.9242 40.3994 22.8812 40.1572 22.8812C39.8994 22.8812 39.6807 22.9359 39.501 23.0453C39.3213 23.1547 39.1729 23.3051 39.0557 23.4965C38.9424 23.6879 38.8584 23.9105 38.8037 24.1644C38.749 24.4183 38.7217 24.6898 38.7217 24.9789ZM47.374 28.3187C46.9053 28.3187 46.4814 28.2426 46.1025 28.0902C45.7275 27.934 45.4072 27.7172 45.1416 27.4398C44.8799 27.1625 44.6787 26.8363 44.5381 26.4613C44.3975 26.0863 44.3271 25.682 44.3271 25.2484V25.014C44.3271 24.5179 44.3994 24.0687 44.5439 23.6664C44.6885 23.264 44.8896 22.9203 45.1475 22.6351C45.4053 22.3461 45.71 22.1254 46.0615 21.973C46.4131 21.8207 46.7939 21.7445 47.2041 21.7445C47.6572 21.7445 48.0537 21.8207 48.3936 21.973C48.7334 22.1254 49.0146 22.3402 49.2373 22.6176C49.4639 22.891 49.6318 23.2172 49.7412 23.5961C49.8545 23.975 49.9111 24.3929 49.9111 24.85V25.4535H45.0127V24.4398H48.5166V24.3285C48.5088 24.0746 48.458 23.8363 48.3643 23.6136C48.2744 23.391 48.1357 23.2113 47.9482 23.0746C47.7607 22.9379 47.5107 22.8695 47.1982 22.8695C46.9639 22.8695 46.7549 22.9203 46.5713 23.0219C46.3916 23.1195 46.2412 23.2621 46.1201 23.4496C45.999 23.6371 45.9053 23.8636 45.8389 24.1293C45.7764 24.391 45.7451 24.6859 45.7451 25.014V25.2484C45.7451 25.5258 45.7822 25.7836 45.8564 26.0219C45.9346 26.2562 46.0479 26.4613 46.1963 26.6371C46.3447 26.8129 46.5244 26.9515 46.7354 27.0531C46.9463 27.1508 47.1865 27.1996 47.4561 27.1996C47.7959 27.1996 48.0986 27.1312 48.3643 26.9945C48.6299 26.8578 48.8604 26.6644 49.0557 26.4144L49.7998 27.1351C49.6631 27.3344 49.4854 27.5258 49.2666 27.7094C49.0479 27.889 48.7803 28.0355 48.4639 28.1488C48.1514 28.2621 47.7881 28.3187 47.374 28.3187ZM52.6807 23.0687V28.2015H51.2686V21.8617H52.6162L52.6807 23.0687ZM54.6201 21.8207L54.6084 23.1332C54.5225 23.1176 54.4287 23.1058 54.3271 23.098C54.2295 23.0902 54.1318 23.0863 54.0342 23.0863C53.792 23.0863 53.5791 23.1215 53.3955 23.1918C53.2119 23.2582 53.0576 23.3558 52.9326 23.4847C52.8115 23.6097 52.7178 23.7621 52.6514 23.9418C52.585 24.1215 52.5459 24.3226 52.5342 24.5453L52.2119 24.5687C52.2119 24.1703 52.251 23.8011 52.3291 23.4613C52.4072 23.1215 52.5244 22.8226 52.6807 22.5648C52.8408 22.307 53.04 22.1058 53.2783 21.9613C53.5205 21.8168 53.7998 21.7445 54.1162 21.7445C54.2021 21.7445 54.2939 21.7523 54.3916 21.7679C54.4932 21.7836 54.5693 21.8011 54.6201 21.8207Z" fill="black" fill-opacity="0.87"/>
<g clip-path="url(#clip0_4516_99043)">
<rect x="22.708" y="67.0747" width="167.916" height="3.51045" rx="1.75522" fill="#5469FF" fill-opacity="0.3"/>
<circle cx="24.463" cy="68.8299" r="0.585075" fill="#5469FF" fill-opacity="0.82"/>
<circle cx="38.1153" cy="68.8299" r="0.585075" fill="#5469FF" fill-opacity="0.82"/>
<circle cx="51.7667" cy="68.8299" r="0.585075" fill="#5469FF" fill-opacity="0.82"/>
<circle cx="65.4191" cy="68.8299" r="0.585075" fill="#5469FF" fill-opacity="0.82"/>
<circle cx="79.0704" cy="68.8299" r="0.585075" fill="#5469FF" fill-opacity="0.82"/>
<circle cx="92.7228" cy="68.8299" r="0.585075" fill="#5469FF" fill-opacity="0.82"/>
<circle cx="106.375" cy="68.8299" r="0.585075" fill="#5469FF" fill-opacity="0.82"/>
<circle cx="120.026" cy="68.8299" r="0.585075" fill="#5469FF"/>
<circle cx="133.679" cy="68.8299" r="0.585075" fill="#5469FF"/>
<circle cx="147.33" cy="68.8299" r="0.585075" fill="#5469FF"/>
<circle cx="160.983" cy="68.8299" r="0.585075" fill="#5469FF"/>
<circle cx="174.634" cy="68.8299" r="0.585075" fill="#5469FF"/>
<circle cx="188.286" cy="68.8299" r="0.585075" fill="#5469FF"/>
<g clip-path="url(#clip1_4516_99043)">
<rect x="22.708" y="67.0747" width="84.8358" height="3.51045" rx="1.75522" fill="#5469FF"/>
<rect x="64.833" y="67.0747" width="0.585075" height="3.51045" rx="0.292537" fill="#5469FF"/>
</g>
</g>
<path d="M28.6733 80.3922V81.5846C28.6733 82.2255 28.616 82.7662 28.5015 83.2067C28.3869 83.6471 28.2222 84.0016 28.0073 84.2701C27.7925 84.5387 27.5329 84.7338 27.2285 84.8556C26.9277 84.9738 26.5876 85.0328 26.208 85.0328C25.9072 85.0328 25.6297 84.9952 25.3755 84.92C25.1213 84.8448 24.8921 84.7249 24.688 84.5602C24.4875 84.3919 24.3156 84.1735 24.1724 83.9049C24.0291 83.6364 23.9199 83.3105 23.8447 82.9274C23.7695 82.5442 23.7319 82.0966 23.7319 81.5846V80.3922C23.7319 79.7513 23.7892 79.2142 23.9038 78.7809C24.022 78.3476 24.1885 78.0003 24.4033 77.7389C24.6182 77.4739 24.876 77.2841 25.1768 77.1696C25.4811 77.055 25.8213 76.9977 26.1973 76.9977C26.5016 76.9977 26.7809 77.0353 27.0352 77.1105C27.293 77.1821 27.5221 77.2985 27.7227 77.4596C27.9232 77.6171 28.0933 77.8284 28.2329 78.0934C28.3761 78.3548 28.4854 78.6753 28.5605 79.0548C28.6357 79.4344 28.6733 79.8802 28.6733 80.3922ZM27.6743 81.7457V80.2257C27.6743 79.8748 27.6528 79.5669 27.6099 79.3019C27.5705 79.0333 27.5114 78.8042 27.4326 78.6144C27.3538 78.4246 27.2536 78.2706 27.1318 78.1525C27.0137 78.0343 26.8758 77.9484 26.7183 77.8947C26.5643 77.8374 26.3906 77.8087 26.1973 77.8087C25.9609 77.8087 25.7515 77.8535 25.5688 77.943C25.3862 78.0289 25.2323 78.1668 25.1069 78.3566C24.9852 78.5463 24.8921 78.7952 24.8276 79.1031C24.7632 79.4111 24.731 79.7853 24.731 80.2257V81.7457C24.731 82.0966 24.7507 82.4064 24.79 82.6749C24.833 82.9435 24.8957 83.1762 24.978 83.3732C25.0604 83.5665 25.1606 83.7259 25.2788 83.8512C25.397 83.9765 25.533 84.0696 25.687 84.1305C25.8446 84.1878 26.0182 84.2164 26.208 84.2164C26.4515 84.2164 26.6646 84.1699 26.8472 84.0768C27.0298 83.9837 27.182 83.8387 27.3037 83.6417C27.429 83.4412 27.5221 83.1852 27.583 82.8737C27.6439 82.5586 27.6743 82.1826 27.6743 81.7457Z" fill="black" fill-opacity="0.54"/>
<path d="M175.008 77.0621V84.9254H174.015V78.3029L172.011 79.0333V78.1364L174.853 77.0621H175.008ZM183.089 80.3922V81.5846C183.089 82.2255 183.032 82.7662 182.917 83.2067C182.803 83.6471 182.638 84.0016 182.423 84.2701C182.208 84.5387 181.949 84.7338 181.645 84.8556C181.344 84.9738 181.004 85.0328 180.624 85.0328C180.323 85.0328 180.046 84.9952 179.792 84.92C179.537 84.8448 179.308 84.7249 179.104 84.5602C178.903 84.3919 178.732 84.1735 178.588 83.9049C178.445 83.6364 178.336 83.3105 178.261 82.9274C178.186 82.5442 178.148 82.0966 178.148 81.5846V80.3922C178.148 79.7513 178.205 79.2142 178.32 78.7809C178.438 78.3476 178.604 78.0003 178.819 77.7389C179.034 77.4739 179.292 77.2841 179.593 77.1696C179.897 77.055 180.237 76.9977 180.613 76.9977C180.918 76.9977 181.197 77.0353 181.451 77.1105C181.709 77.1821 181.938 77.2985 182.139 77.4596C182.339 77.6171 182.509 77.8284 182.649 78.0934C182.792 78.3548 182.901 78.6753 182.977 79.0548C183.052 79.4344 183.089 79.8802 183.089 80.3922ZM182.09 81.7457V80.2257C182.09 79.8748 182.069 79.5669 182.026 79.3019C181.986 79.0333 181.927 78.8042 181.849 78.6144C181.77 78.4246 181.67 78.2706 181.548 78.1525C181.43 78.0343 181.292 77.9484 181.134 77.8947C180.98 77.8374 180.807 77.8087 180.613 77.8087C180.377 77.8087 180.167 77.8535 179.985 77.943C179.802 78.0289 179.648 78.1668 179.523 78.3566C179.401 78.5463 179.308 78.7952 179.244 79.1031C179.179 79.4111 179.147 79.7853 179.147 80.2257V81.7457C179.147 82.0966 179.167 82.4064 179.206 82.6749C179.249 82.9435 179.312 83.1762 179.394 83.3732C179.476 83.5665 179.577 83.7259 179.695 83.8512C179.813 83.9765 179.949 84.0696 180.103 84.1305C180.261 84.1878 180.434 84.2164 180.624 84.2164C180.868 84.2164 181.081 84.1699 181.263 84.0768C181.446 83.9837 181.598 83.8387 181.72 83.6417C181.845 83.4412 181.938 83.1852 181.999 82.8737C182.06 82.5586 182.09 82.1826 182.09 81.7457ZM189.527 80.3922V81.5846C189.527 82.2255 189.47 82.7662 189.355 83.2067C189.24 83.6471 189.076 84.0016 188.861 84.2701C188.646 84.5387 188.386 84.7338 188.082 84.8556C187.781 84.9738 187.441 85.0328 187.062 85.0328C186.761 85.0328 186.483 84.9952 186.229 84.92C185.975 84.8448 185.746 84.7249 185.542 84.5602C185.341 84.3919 185.169 84.1735 185.026 83.9049C184.883 83.6364 184.773 83.3105 184.698 82.9274C184.623 82.5442 184.585 82.0966 184.585 81.5846V80.3922C184.585 79.7513 184.643 79.2142 184.757 78.7809C184.875 78.3476 185.042 78.0003 185.257 77.7389C185.472 77.4739 185.729 77.2841 186.03 77.1696C186.335 77.055 186.675 76.9977 187.051 76.9977C187.355 76.9977 187.634 77.0353 187.889 77.1105C188.146 77.1821 188.376 77.2985 188.576 77.4596C188.777 77.6171 188.947 77.8284 189.086 78.0934C189.23 78.3548 189.339 78.6753 189.414 79.0548C189.489 79.4344 189.527 79.8802 189.527 80.3922ZM188.528 81.7457V80.2257C188.528 79.8748 188.506 79.5669 188.463 79.3019C188.424 79.0333 188.365 78.8042 188.286 78.6144C188.207 78.4246 188.107 78.2706 187.985 78.1525C187.867 78.0343 187.729 77.9484 187.572 77.8947C187.418 77.8374 187.244 77.8087 187.051 77.8087C186.814 77.8087 186.605 77.8535 186.422 77.943C186.24 78.0289 186.086 78.1668 185.96 78.3566C185.839 78.5463 185.746 78.7952 185.681 79.1031C185.617 79.4111 185.584 79.7853 185.584 80.2257V81.7457C185.584 82.0966 185.604 82.4064 185.644 82.6749C185.687 82.9435 185.749 83.1762 185.832 83.3732C185.914 83.5665 186.014 83.7259 186.132 83.8512C186.25 83.9765 186.387 84.0696 186.541 84.1305C186.698 84.1878 186.872 84.2164 187.062 84.2164C187.305 84.2164 187.518 84.1699 187.701 84.0768C187.883 83.9837 188.035 83.8387 188.157 83.6417C188.283 83.4412 188.376 83.1852 188.437 82.8737C188.497 82.5586 188.528 82.1826 188.528 81.7457Z" fill="black" fill-opacity="0.54"/>
<circle cx="106.686" cy="68.8299" r="4.6806" fill="#5469FF"/>
</g>
<defs>
<filter id="filter0_d_4516_99043" x="0.666016" y="0.5" width="212" height="131" filterUnits="userSpaceOnUse" color-interpolation-filters="sRGB">
<feFlood flood-opacity="0" result="BackgroundImageFix"/>
<feColorMatrix in="SourceAlpha" type="matrix" values="0 0 0 0 0 0 0 0 0 0 0 0 0 0 0 0 0 0 127 0" result="hardAlpha"/>
<feOffset dy="4"/>
<feGaussianBlur stdDeviation="4"/>
<feComposite in2="hardAlpha" operator="out"/>
<feColorMatrix type="matrix" values="0 0 0 0 0 0 0 0 0 0 0 0 0 0 0 0 0 0 0.04 0"/>
<feBlend mode="normal" in2="BackgroundImageFix" result="effect1_dropShadow_4516_99043"/>
<feBlend mode="normal" in="SourceGraphic" in2="effect1_dropShadow_4516_99043" result="shape"/>
</filter>
<clipPath id="clip0_4516_99043">
<rect x="22.708" y="67.0747" width="167.916" height="3.51045" rx="1.75522" fill="white"/>
</clipPath>
<clipPath id="clip1_4516_99043">
<rect x="22.708" y="67.0747" width="84.8358" height="3.51045" rx="1.75522" fill="white"/>
</clipPath>
</defs>
</svg>
