<svg version="1.0" xmlns="http://www.w3.org/2000/svg"

 width="1632.000000pt" height="631.000000pt" viewBox="0 0 1632.000000 631.000000"

 preserveAspectRatio="xMidYMid meet">

<path fill="#0c0c0c" stroke="none" d="
M951 512

C939 510 930 501 930 493

L930 490

L934 490

L939 490

L939 493

C941 500 949 505 959 505

C969 505 975 500 975 493

C975 486 971 481 959 478

C940 473 932 466 932 455

C932 447 939 439 947 436

C954 434 965 434 971 437

C979 440 985 449 985 456

L985 457

L980 457

L975 457

L975 455

C975 451 971 446 967 444

C959 441 951 442 945 447

C943 449 942 450 942 454

C942 457 943 460 944 461

C946 464 953 467 962 470

C972 473 976 475 980 479

C988 488 987 502 976 508

C970 512 960 514 951 512

Z

M766 474

L766 436

L772 436

L777 436

L777 453

L777 470

L796 470

L814 470

L814 453

L814 436

L819 436

L824 436

L824 474

L824 512

L819 512

L814 512

L814 495

L814 478

L796 478

L777 478

L777 495

L777 512

L772 512

L766 512

L766 474

Z

M846 511

C846 510 853 493 860 473

C875 437 875 437 879 436

L884 436

L891 455

C895 466 899 476 900 478

C902 482 912 511 912 511

L912 512

L907 512

L902 512

L899 502

L895 493

L879 493

L863 493

L859 502

L856 512

L851 512

L846 512

L846 511

Z

M892 483

C892 483 889 475 886 466

L880 449

L879 449

L879 449

L873 465

C869 474 866 482 866 483

L866 484

L879 484

L892 484

L892 483

Z

M1010 474

L1010 436

L1016 436

L1021 436

L1021 453

L1021 470

L1040 470

L1058 470

L1058 453

L1058 436

L1063 436

L1068 436

L1068 474

L1068 512

L1063 512

L1058 512

L1058 495

L1058 478

L1040 478

L1021 478

L1021 495

L1021 512

L1016 512

L1010 512

L1010 474

Z

M1097 474

L1097 436

L1104 436

L1111 436

L1111 437

C1112 438 1116 449 1121 462

C1126 475 1130 486 1131 487

C1131 487 1132 488 1132 489

C1132 489 1133 492 1134 494

L1136 498

L1138 491

C1140 487 1142 483 1142 482

C1143 480 1147 470 1151 458

C1160 437 1160 437 1166 436

L1173 436

L1173 474

L1173 512

L1168 512

L1163 512

L1163 481

L1164 450

L1157 466

C1153 475 1148 489 1145 497

L1139 512

L1135 512

L1132 512

L1120 483

C1114 467 1108 453 1108 452

L1107 451

L1108 481

L1108 512

L1103 512

L1097 512

L1097 474

Z

M1195 511

C1195 510 1202 493 1209 473

C1224 437 1224 437 1228 436

L1233 436

L1240 455

C1244 466 1248 476 1249 478

C1251 482 1261 511 1261 511

L1261 512

L1256 512

L1251 512

L1248 502

L1244 493

L1228 493

L1212 493

L1208 502

L1205 512

L1200 512

L1195 512

L1195 511

Z

M1241 483

C1241 483 1238 475 1235 466

L1229 449

L1228 449

L1228 449

L1222 465

C1218 474 1215 482 1215 483

L1215 484

L1228 484

L1241 484

L1241 483

Z

M1282 474

L1282 436

L1300 436

C1310 436 1320 436 1322 437

C1327 438 1333 444 1335 448

C1338 453 1337 463 1335 469

C1331 478 1323 481 1305 481

L1293 481

L1293 497

L1293 512

L1288 512

L1282 512

L1282 474

Z

M1321 471

C1325 468 1327 465 1327 459

C1327 455 1327 452 1325 450

C1322 444 1317 443 1304 443

L1293 443

L1293 458

L1293 473

L1305 473

C1316 473 1318 473 1321 471

Z

M258 415

L258 412

L798 412

L1338 412

L1338 415

L1338 418

L798 418

L258 418

L258 415

Z

M1077 379

C1076 379 1071 378 1068 378

C1064 377 1060 377 1060 377

C1057 376 1051 373 1048 372

C1046 371 1044 370 1043 370

C1041 370 1031 361 1025 356

C1018 348 1014 340 1011 328

C1009 321 1009 317 1009 242

L1009 163

L1023 163

L1037 163

L1037 239

C1037 302 1037 316 1039 321

C1040 329 1044 339 1046 339

L1047 339

L1047 341

C1048 342 1050 345 1053 347

C1064 355 1073 357 1089 357

C1094 357 1101 357 1103 356

C1105 355 1108 355 1109 354

C1110 354 1113 353 1115 352

C1127 346 1134 338 1138 326

C1140 320 1140 319 1141 241

L1141 163

L1155 163

L1169 163

L1169 241

C1169 314 1169 320 1167 327

C1160 354 1141 371 1111 378

C1104 379 1082 380 1077 379

Z

M1275 379

C1264 378 1255 376 1248 373

C1243 371 1239 369 1239 369

C1239 369 1236 367 1234 366

C1229 363 1229 363 1221 355

C1217 351 1213 347 1211 343

C1208 336 1205 325 1205 319

L1205 316

L1219 316

L1233 316

L1233 321

C1233 326 1237 336 1241 340

C1245 345 1255 351 1262 354

C1278 359 1300 359 1313 352

C1322 348 1329 340 1331 333

C1336 317 1329 301 1312 292

C1308 290 1305 289 1305 289

C1305 289 1304 288 1302 288

C1300 287 1291 284 1282 282

C1258 275 1247 270 1234 261

C1206 242 1203 205 1227 182

C1240 169 1257 162 1279 161

C1306 160 1328 167 1343 184

C1353 194 1358 205 1360 219

L1360 225

L1346 225

L1332 225

L1332 221

C1332 211 1325 199 1316 192

C1302 182 1276 180 1259 188

C1237 199 1233 226 1251 241

C1256 245 1269 252 1273 252

C1274 252 1275 253 1276 253

C1276 254 1287 257 1287 257

C1287 257 1288 257 1289 257

C1290 258 1293 259 1297 260

C1310 263 1329 271 1336 277

C1353 290 1359 301 1361 319

C1363 348 1343 370 1309 377

C1301 379 1280 380 1275 379

Z

M254 282

L254 186

L220 186

L185 186

L185 174

L185 163

L268 163

L351 164

L351 175

L351 186

L317 186

L282 186

L282 282

L282 377

L268 377

L254 377

L254 282

Z

M383 270

L383 163

L453 163

L522 163

L522 175

L522 186

L467 186

L411 186

L411 221

L411 256

L460 256

L509 256

L509 267

L509 278

L460 278

L411 278

L411 317

L411 355

L468 355

L524 355

L524 366

L524 377

L454 377

L383 377

L383 270

Z

M558 270

L558 163

L576 163

L594 163

L601 182

C605 192 609 201 609 203

C610 204 610 205 611 206

C611 209 662 336 663 337

L664 337

L669 322

C673 313 676 305 676 304

C677 302 690 270 704 234

C718 197 731 166 731 165

C732 163 734 163 750 163

L768 163

L768 270

L768 377

L754 377

L739 377

L739 339

C739 318 740 284 740 262

C741 240 742 218 742 214

L742 206

L741 207

C741 207 737 215 734 225

C730 234 726 243 725 245

C725 246 720 259 714 273

C708 287 703 299 703 301

C702 302 695 319 687 340

C672 377 672 377 663 377

L653 377

L619 292

C600 245 585 206 584 206

L584 206

L584 206

C583 206 584 218 584 231

C585 245 585 283 586 316

L586 377

L572 377

L558 377

L558 270

Z

M822 270

L822 163

L866 163

C906 164 914 164 927 166

C942 169 960 182 967 197

C971 205 973 209 974 220

C977 248 965 271 943 283

C929 290 925 290 885 291

L850 291

L850 334

L850 377

L836 377

L822 377

L822 270

Z

M915 268

C924 266 931 262 936 256

C942 249 945 242 946 231

C947 217 943 206 934 197

C924 188 921 187 882 186

L850 186

L850 227

L850 269

L880 269

C898 269 912 269 915 268

Z

"/>

<path fill="#464646" stroke="none" d="
M951 512

C939 510 930 501 930 493

L930 490

L934 490

L939 490

L939 493

C941 500 949 505 959 505

C969 505 975 500 975 493

C975 486 971 481 959 478

C940 473 932 466 932 455

C932 447 939 439 947 436

C954 434 965 434 971 437

C979 440 985 449 985 456

L985 457

L980 457

L975 457

L975 455

C975 451 971 446 967 444

C959 441 951 442 945 447

C943 449 942 450 942 454

C942 457 943 460 944 461

C946 464 953 467 962 470

C972 473 976 475 980 479

C988 488 987 502 976 508

C970 512 960 514 951 512

Z

M766 474

L766 436

L772 436

L777 436

L777 453

L777 470

L796 470

L814 470

L814 453

L814 436

L819 436

L824 436

L824 474

L824 512

L819 512

L814 512

L814 495

L814 478

L796 478

L777 478

L777 495

L777 512

L772 512

L766 512

L766 474

Z

M846 511

C846 510 853 493 860 473

C875 437 875 437 879 436

L884 436

L891 455

C895 466 899 476 900 478

C902 482 912 511 912 511

L912 512

L907 512

L902 512

L899 502

L895 493

L879 493

L863 493

L859 502

L856 512

L851 512

L846 512

L846 511

Z

M892 483

C892 483 889 475 886 466

L880 449

L879 449

L879 449

L873 465

C869 474 866 482 866 483

L866 484

L879 484

L892 484

L892 483

Z

M1010 474

L1010 436

L1016 436

L1021 436

L1021 453

L1021 470

L1040 470

L1058 470

L1058 453

L1058 436

L1063 436

L1068 436

L1068 474

L1068 512

L1063 512

L1058 512

L1058 495

L1058 478

L1040 478

L1021 478

L1021 495

L1021 512

L1016 512

L1010 512

L1010 474

Z

M1097 474

L1097 436

L1104 436

L1111 436

L1114 444

C1122 464 1134 495 1135 497

L1136 498

L1138 491

C1140 487 1142 483 1142 482

C1143 480 1147 470 1151 458

C1160 437 1160 437 1166 436

L1173 436

L1173 474

L1173 512

L1168 512

L1163 512

L1163 481

L1164 450

L1157 466

C1153 475 1148 489 1145 497

L1139 512

L1135 512

L1132 512

L1120 483

C1114 467 1108 453 1108 452

L1107 451

L1108 481

L1108 512

L1103 512

L1097 512

L1097 474

Z

M1195 511

C1195 510 1202 493 1209 473

C1224 437 1224 437 1228 436

L1233 436

L1240 455

C1244 466 1248 476 1249 478

C1251 482 1261 511 1261 511

L1261 512

L1256 512

L1251 512

L1248 502

L1244 493

L1228 493

L1212 493

L1208 502

L1205 512

L1200 512

L1195 512

L1195 511

Z

M1241 483

C1241 483 1238 475 1235 466

L1229 449

L1228 449

L1228 449

L1222 465

C1218 474 1215 482 1215 483

L1215 484

L1228 484

L1241 484

L1241 483

Z

M1282 474

L1282 436

L1300 436

C1310 436 1320 436 1322 437

C1327 438 1333 444 1335 448

C1338 453 1337 463 1335 469

C1331 478 1323 481 1305 481

L1293 481

L1293 497

L1293 512

L1288 512

L1282 512

L1282 474

Z

M1321 471

C1325 468 1327 465 1327 459

C1327 455 1327 452 1325 450

C1322 444 1317 443 1304 443

L1293 443

L1293 458

L1293 473

L1305 473

C1316 473 1318 473 1321 471

Z

M258 415

L258 412

L798 412

L1338 412

L1338 415

L1338 418

L798 418

L258 418

L258 415

Z

M1077 379

C1076 379 1071 378 1068 378

C1064 377 1060 377 1060 377

C1049 374 1034 365 1025 356

C1018 348 1014 340 1011 328

C1009 321 1009 317 1009 242

L1009 164

L1023 164

L1037 164

L1037 242

C1038 320 1038 321 1040 327

C1048 351 1075 363 1105 355

C1122 351 1133 341 1138 326

C1140 320 1140 319 1141 242

L1141 164

L1155 164

L1169 164

L1169 242

C1169 314 1169 320 1167 327

C1160 354 1141 371 1111 378

C1104 379 1082 380 1077 379

Z

M1275 379

C1265 378 1255 376 1248 373

C1232 366 1217 354 1211 343

C1208 336 1205 325 1205 319

L1205 316

L1219 316

L1233 316

L1233 321

C1233 326 1237 336 1241 340

C1252 353 1274 360 1297 357

C1310 355 1318 351 1325 343

C1335 332 1335 314 1325 302

C1318 294 1307 289 1282 282

C1258 275 1247 270 1234 261

C1206 242 1203 205 1227 182

C1240 169 1257 162 1279 161

C1306 160 1328 167 1343 184

C1353 194 1358 205 1360 219

L1360 225

L1346 225

L1332 225

L1332 221

C1332 211 1325 199 1316 192

C1302 182 1276 180 1259 188

C1238 198 1233 226 1250 240

C1260 248 1269 252 1292 258

C1317 265 1332 272 1343 283

C1355 294 1360 304 1361 319

C1363 348 1343 370 1309 377

C1301 379 1280 380 1275 379

Z

M254 282

L254 186

L220 186

L185 186

L185 175

L185 164

L268 164

L351 164

L351 175

L351 186

L317 186

L282 186

L282 282

L282 377

L268 377

L254 377

L254 282

Z

M383 271

L383 164

L453 164

L522 164

L522 175

L522 186

L467 186

L411 186

L411 221

L411 256

L460 256

L509 256

L509 267

L509 278

L460 278

L411 278

L411 317

L411 355

L468 355

L524 355

L524 366

L524 377

L454 377

L383 377

L383 271

Z

M558 270

L558 164

L576 164

L594 165

L628 250

C647 298 662 337 663 337

L664 337

L669 322

C673 313 676 305 676 304

C677 301 727 175 731 166

L731 164

L750 164

L768 164

L768 271

L768 377

L754 377

L739 377

L739 339

C739 318 740 284 740 262

C741 240 742 218 742 214

L742 206

L741 207

C741 207 737 215 734 225

C730 234 726 243 725 245

C725 246 720 259 714 273

C708 287 703 299 703 301

C702 302 695 319 687 340

C672 377 672 377 663 377

L653 377

L619 292

C600 245 585 206 584 206

L584 206

L584 206

C583 206 584 225 585 248

C585 271 586 309 586 333

L586 377

L572 377

L558 377

L558 270

Z

M822 271

L822 164

L866 164

C922 164 929 165 945 174

C957 180 969 195 972 208

C974 215 975 227 974 235

C972 257 961 273 943 283

C929 290 925 290 885 291

L850 291

L850 334

L850 377

L836 377

L822 377

L822 271

Z

M915 268

C924 266 931 262 936 256

C942 249 945 242 946 231

C947 217 943 206 934 197

C924 188 921 187 882 186

L850 186

L850 227

L850 269

L880 269

C898 269 912 269 915 268

Z

"/>

<path fill="#666666" stroke="none" d="
M951 512

C939 510 930 501 930 493

L930 490

L934 490

L939 490

L939 493

C941 500 949 505 959 505

C969 505 975 500 975 493

C975 486 971 481 959 478

C940 473 932 466 932 455

C932 447 939 439 947 436

C954 434 965 434 971 437

C979 440 985 449 985 456

L985 457

L980 457

L975 457

L975 455

C975 451 971 446 967 444

C959 441 951 442 945 447

C943 449 942 450 942 454

C942 457 943 460 944 461

C946 464 953 467 962 470

C972 473 976 475 980 479

C988 488 987 502 976 508

C970 512 960 514 951 512

Z

M766 474

L766 436

L772 436

L777 436

L777 453

L777 470

L796 470

L814 470

L814 453

L814 436

L819 436

L824 436

L824 474

L824 512

L819 512

L814 512

L814 495

L814 478

L796 478

L777 478

L777 495

L777 512

L772 512

L766 512

L766 474

Z

M846 511

C846 510 853 493 860 473

C875 437 875 437 879 436

L884 436

L891 455

C895 466 899 476 900 478

C902 482 912 511 912 511

L912 512

L907 512

L902 512

L899 502

L895 493

L879 493

L863 493

L859 502

L856 512

L851 512

L846 512

L846 511

Z

M892 483

C892 483 889 475 886 466

L880 449

L879 449

L879 449

L873 465

C869 474 866 482 866 483

L866 484

L879 484

L892 484

L892 483

Z

M1010 474

L1010 436

L1016 436

L1021 436

L1021 453

L1021 470

L1040 470

L1058 470

L1058 453

L1058 436

L1063 436

L1068 436

L1068 474

L1068 512

L1063 512

L1058 512

L1058 495

L1058 478

L1040 478

L1021 478

L1021 495

L1021 512

L1016 512

L1010 512

L1010 474

Z

M1097 474

L1097 436

L1104 436

L1111 436

L1114 444

C1122 464 1134 495 1135 497

L1136 498

L1138 491

C1140 487 1142 483 1142 482

C1143 480 1147 470 1151 458

C1160 437 1160 437 1166 436

L1173 436

L1173 474

L1173 512

L1168 512

L1163 512

L1163 481

L1164 450

L1157 466

C1153 475 1148 489 1145 497

L1139 512

L1135 512

L1132 512

L1120 483

C1114 467 1108 453 1108 452

L1107 451

L1108 481

L1108 512

L1103 512

L1097 512

L1097 474

Z

M1195 511

C1195 510 1202 493 1209 473

C1224 437 1224 437 1228 436

L1233 436

L1240 455

C1244 466 1248 476 1249 478

C1251 482 1261 511 1261 511

L1261 512

L1256 512

L1251 512

L1248 502

L1244 493

L1228 493

L1212 493

L1208 502

L1205 512

L1200 512

L1195 512

L1195 511

Z

M1241 483

C1241 483 1238 475 1235 466

L1229 449

L1228 449

L1228 449

L1222 465

C1218 474 1215 482 1215 483

L1215 484

L1228 484

L1241 484

L1241 483

Z

M1282 474

L1282 436

L1300 436

C1310 436 1320 436 1322 437

C1327 438 1333 444 1335 448

C1338 453 1337 463 1335 469

C1331 478 1323 481 1305 481

L1293 481

L1293 497

L1293 512

L1288 512

L1282 512

L1282 474

Z

M1321 471

C1325 468 1327 465 1327 459

C1327 455 1327 452 1325 450

C1322 444 1317 443 1304 443

L1293 443

L1293 458

L1293 473

L1305 473

C1316 473 1318 473 1321 471

Z

M258 415

L258 412

L798 412

L1338 412

L1338 415

L1338 418

L798 418

L258 418

L258 415

Z

M1077 379

C1076 379 1071 378 1068 378

C1064 377 1060 377 1060 377

C1049 374 1034 365 1025 356

C1018 348 1014 340 1011 328

C1009 321 1009 317 1009 242

L1009 164

L1023 164

L1037 164

L1037 242

C1038 320 1038 321 1040 327

C1048 351 1075 363 1105 355

C1122 351 1133 341 1138 326

C1140 320 1140 319 1141 242

L1141 164

L1155 164

L1169 164

L1169 242

C1169 314 1169 320 1167 327

C1160 354 1141 371 1111 378

C1104 379 1082 380 1077 379

Z

M1275 379

C1265 378 1255 376 1248 373

C1232 366 1217 354 1211 343

C1208 336 1205 325 1205 319

L1205 316

L1219 316

L1233 316

L1233 321

C1233 326 1237 336 1241 340

C1252 353 1274 360 1297 357

C1310 355 1318 351 1325 343

C1335 332 1335 314 1325 302

C1318 294 1307 289 1282 282

C1258 275 1247 270 1234 261

C1206 242 1203 205 1227 182

C1240 169 1257 162 1279 161

C1306 160 1328 167 1343 184

C1353 194 1358 205 1360 219

L1360 225

L1346 225

L1332 225

L1332 221

C1332 211 1325 199 1316 192

C1302 182 1276 180 1259 188

C1238 198 1233 226 1250 240

C1260 248 1269 252 1292 258

C1317 265 1332 272 1343 283

C1355 294 1360 304 1361 319

C1363 348 1343 370 1309 377

C1301 379 1280 380 1275 379

Z

M254 282

L254 186

L220 186

L185 186

L185 175

L185 164

L268 164

L351 164

L351 175

L351 186

L317 186

L282 186

L282 282

L282 377

L268 377

L254 377

L254 282

Z

M383 271

L383 164

L453 164

L522 164

L522 175

L522 186

L467 186

L411 186

L411 221

L411 256

L460 256

L509 256

L509 267

L509 278

L460 278

L411 278

L411 317

L411 355

L468 355

L524 355

L524 366

L524 377

L454 377

L383 377

L383 271

Z

M558 270

L558 164

L576 164

L594 165

L628 250

C647 298 662 337 663 337

L664 337

L669 322

C673 313 676 305 676 304

C677 301 727 175 731 166

L731 164

L750 164

L768 164

L768 271

L768 377

L754 377

L739 377

L739 339

C739 318 740 284 740 262

C741 240 742 218 742 214

L742 206

L741 207

C741 207 737 215 734 225

C730 234 726 243 725 245

C725 246 720 259 714 273

C708 287 703 299 703 301

C702 302 695 319 687 340

C672 377 672 377 663 377

L653 377

L619 292

C600 245 585 206 584 206

L584 206

L584 206

C583 206 584 225 585 248

C585 271 586 309 586 333

L586 377

L572 377

L558 377

L558 270

Z

M822 271

L822 164

L866 164

C922 164 929 165 945 174

C957 180 969 195 972 208

C974 215 975 227 974 235

C972 257 961 273 943 283

C929 290 925 290 885 291

L850 291

L850 334

L850 377

L836 377

L822 377

L822 271

Z

M915 268

C924 266 931 262 936 256

C942 249 945 242 946 231

C947 217 943 206 934 197

C924 188 921 187 882 186

L850 186

L850 227

L850 269

L880 269

C898 269 912 269 915 268

Z

"/>

<path fill="#9a9a9a" stroke="none" d="
M951 512

C945 511 939 508 935 504

C932 501 929 494 930 492

L931 490

L935 490

L938 490

L940 494

C942 499 944 501 949 503

C961 508 975 503 975 493

C975 486 971 481 959 478

C940 473 932 466 932 455

C932 449 934 445 939 441

C944 436 950 435 959 435

C968 435 975 438 980 443

C983 447 986 454 984 456

C984 457 982 457 979 457

L975 457

L975 455

C975 451 971 446 967 444

C959 441 951 442 945 447

C943 449 942 450 942 454

C942 457 943 460 944 461

C946 464 953 467 962 470

C972 473 976 475 980 479

C988 488 987 502 976 508

C970 512 960 514 951 512

Z

M766 474

L766 436

L772 436

L777 436

L777 453

L777 470

L796 470

L814 470

L814 453

L814 436

L819 436

L824 437

L824 474

L824 512

L819 512

L814 512

L814 495

L814 478

L796 478

L777 478

L777 495

L777 512

L772 512

L766 512

L766 474

Z

M847 511

C846 511 852 494 860 473

C875 437 875 437 879 436

L884 436

L891 455

C895 466 899 476 900 478

C903 487 912 510 911 511

C911 512 909 512 907 512

L902 512

L899 502

L895 493

L879 493

L863 493

L859 502

L856 512

L851 512

C849 512 847 512 847 511

Z

M892 483

C892 483 889 475 886 466

L880 449

L879 449

L879 449

L873 465

C869 474 866 482 866 483

L866 484

L879 484

L892 484

L892 483

Z

M1010 474

L1010 436

L1016 436

L1021 436

L1021 453

L1021 470

L1040 470

L1058 470

L1058 453

L1058 436

L1063 436

L1068 437

L1068 474

L1068 512

L1063 512

L1058 512

L1058 495

L1058 478

L1040 478

L1021 478

L1021 495

L1021 512

L1016 512

L1010 512

L1010 474

Z

M1097 474

L1097 436

L1104 436

L1111 436

L1114 444

C1122 464 1134 495 1135 497

L1136 498

L1138 491

C1140 487 1142 483 1142 482

C1143 480 1147 470 1151 458

L1160 437

L1166 437

L1173 437

L1173 474

L1173 512

L1168 512

L1164 512

L1164 481

L1164 450

L1157 466

C1153 475 1148 489 1145 497

L1139 512

L1135 512

L1132 512

L1120 483

C1114 467 1108 453 1108 452

L1107 451

L1108 481

L1108 512

L1103 512

L1097 512

L1097 474

Z

M1196 511

C1195 511 1201 494 1209 473

C1224 437 1224 437 1228 436

L1233 436

L1240 455

C1244 466 1248 476 1249 478

C1252 487 1261 510 1260 511

C1260 512 1258 512 1256 512

L1251 512

L1248 502

L1244 493

L1228 493

L1212 493

L1208 502

L1205 512

L1200 512

C1198 512 1196 512 1196 511

Z

M1241 483

C1241 483 1238 475 1235 466

L1229 449

L1228 449

L1228 449

L1222 465

C1218 474 1215 482 1215 483

L1215 484

L1228 484

L1241 484

L1241 483

Z

M1282 474

L1282 436

L1300 436

C1310 436 1320 436 1322 437

C1327 438 1333 444 1335 448

C1338 453 1337 463 1335 469

C1331 478 1323 481 1305 481

L1293 481

L1293 497

L1293 512

L1288 512

L1282 512

L1282 474

Z

M1321 471

C1325 468 1327 465 1327 459

C1327 455 1327 452 1325 450

C1322 444 1317 443 1304 443

L1293 443

L1293 458

L1293 473

L1305 473

C1316 473 1318 473 1321 471

Z

M258 417

C258 416 258 414 258 413

L259 412

L798 412

L1338 413

L1338 415

L1338 418

L798 418

L259 418

L258 417

Z

M1077 379

C1076 379 1071 378 1068 378

C1064 377 1060 377 1060 377

C1049 374 1034 365 1025 356

C1018 348 1014 340 1011 328

C1009 321 1009 317 1009 242

L1009 164

L1023 164

L1037 164

L1037 242

C1038 320 1038 321 1040 327

C1048 351 1075 363 1105 355

C1122 351 1133 341 1138 326

C1140 320 1140 319 1141 242

L1141 164

L1155 164

L1169 164

L1169 242

C1169 314 1169 320 1167 327

C1160 354 1141 371 1111 378

C1104 379 1082 380 1077 379

Z

M1275 379

C1265 378 1255 376 1248 373

C1232 366 1217 354 1211 343

C1208 336 1205 325 1205 319

L1205 316

L1219 316

L1233 316

L1233 321

C1233 326 1237 336 1241 340

C1252 353 1274 360 1297 357

C1310 355 1318 351 1325 343

C1335 332 1335 314 1325 302

C1318 294 1307 289 1282 282

C1258 275 1247 270 1234 261

C1206 242 1203 205 1227 182

C1240 169 1257 162 1279 161

C1306 160 1328 167 1343 184

C1353 194 1358 205 1360 219

L1360 225

L1346 225

L1332 225

L1332 221

C1332 211 1325 199 1316 192

C1302 182 1276 180 1259 188

C1238 198 1233 226 1250 240

C1260 248 1269 252 1292 258

C1317 265 1332 272 1343 283

C1355 294 1360 304 1361 319

C1363 348 1343 370 1309 377

C1301 379 1280 380 1275 379

Z

M255 376

C254 376 254 333 254 281

L254 186

L220 186

L186 186

L185 175

L185 164

L268 164

L351 164

L351 175

L351 186

L317 186

L282 186

L282 281

L282 377

L268 377

C261 377 255 377 255 376

Z

M384 376

C383 376 383 328 383 270

L383 164

L453 164

L522 164

L522 175

L522 186

L466 186

L411 186

L411 221

L411 256

L460 256

L509 256

L509 267

L509 278

L460 278

L411 278

L411 317

L411 355

L468 355

L524 355

L524 366

L524 377

L454 377

C416 377 384 377 384 376

Z

M559 376

C558 376 558 328 558 270

L558 164

L576 164

L594 165

L628 250

C647 298 662 337 663 337

L664 337

L669 322

C673 313 676 305 676 304

C677 301 727 175 731 166

L731 164

L750 164

L768 164

L768 270

L768 377

L753 377

L739 377

L739 339

C739 318 740 284 740 262

C741 240 742 218 742 214

L742 206

L741 207

C741 207 737 215 734 225

C730 234 726 243 725 245

C725 246 720 259 714 273

C708 287 703 299 703 301

C702 302 695 319 687 340

C672 377 672 377 663 377

L653 377

L619 292

C600 245 585 206 584 206

L584 206

L584 206

C583 206 584 226 585 250

C585 274 586 312 586 335

L586 377

L572 377

C565 377 559 377 559 376

Z

M823 376

C822 376 822 328 822 270

L822 164

L866 164

C922 164 929 165 945 174

C957 180 969 195 972 208

C974 215 975 227 974 235

C972 257 961 273 943 283

C929 290 925 290 885 291

L850 291

L850 334

L850 377

L836 377

C829 377 823 377 823 376

Z

M915 268

C924 266 931 262 936 256

C942 249 945 242 946 231

C947 217 943 206 934 197

C924 188 921 187 882 186

L850 186

L850 227

L850 269

L880 269

C898 269 912 269 915 268

Z

"/>

<path fill="#b5b5b5" stroke="none" d="
M952 512

C951 512 948 511 945 510

C943 509 941 508 940 508

L939 508

L939 507

C939 506 938 505 937 505

C935 504 934 503 934 502

L934 501

L933 501

L932 501

L931 497

C930 491 930 490 935 490

L938 490

L940 494

C941 496 942 498 943 499

C946 503 953 505 959 505

C966 505 968 504 972 501

C975 498 975 497 975 494

C975 491 975 488 974 487

C972 484 966 480 962 479

C953 476 951 475 946 473

C932 466 928 453 936 444

C938 442 940 440 940 440

L940 439

L942 439

L943 439

L943 438

L943 437

L948 436

C959 433 973 436 979 443

C983 448 983 448 984 452

C985 456 985 457 980 457

L976 457

L975 455

C974 450 971 446 968 444

C964 442 963 442 956 442

C950 443 949 443 946 446

C942 449 942 450 942 454

C942 457 943 460 943 461

C945 463 954 468 958 469

C977 474 987 483 985 495

C984 499 979 508 977 508

C976 508 975 509 974 509

C971 512 960 514 952 512

Z

M766 474

L766 436

L770 436

C772 436 774 436 775 437

L777 437

L777 454

L777 470

L796 470

L814 470

L814 454

L814 437

L816 436

C818 436 820 436 821 436

L824 437

L824 474

L824 512

L821 512

C820 512 818 512 816 512

L814 511

L814 494

L814 478

L796 478

L777 478

L777 494

L777 511

L775 511

C774 512 772 512 770 512

L766 512

L766 474

Z

M847 510

C847 508 847 506 848 505

C850 502 852 496 852 495

C852 494 852 493 853 492

C853 491 854 489 855 488

C855 487 857 484 857 482

C858 480 859 478 859 477

C859 476 859 475 860 474

C862 471 864 465 864 464

C864 463 864 462 865 461

C867 457 870 450 871 447

C871 445 872 444 872 443

C873 443 873 442 873 441

C873 437 882 434 884 438

C884 439 885 440 886 442

C886 443 887 445 887 447

C888 449 889 450 889 451

C890 451 890 452 890 453

C890 454 892 459 894 463

C895 464 895 466 895 466

C895 467 896 469 896 470

C897 472 898 474 898 476

L899 479

L900 479

L901 479

L901 481

C901 482 902 484 902 486

C903 487 904 489 904 490

C904 491 904 492 905 493

C906 493 906 494 906 495

C906 496 907 498 907 499

C908 501 909 503 909 505

C910 507 911 508 911 509

L912 509

L911 511

L911 512

L907 512

L903 512

L902 509

C901 508 901 506 900 505

C900 504 899 501 898 499

C897 496 896 494 896 493

C895 492 890 492 879 492

C862 492 862 492 861 497

C860 498 859 500 859 502

C858 503 857 505 857 508

L855 512

L851 512

L847 512

L847 510

Z

M892 483

C892 482 891 480 891 478

C890 477 889 475 889 474

C889 473 888 471 887 469

C886 466 885 464 885 463

C885 462 884 460 883 458

C882 455 881 453 881 452

C881 451 880 449 879 449

L878 449

L878 450

C878 451 877 453 876 456

C875 458 874 460 874 461

C874 462 874 463 873 464

C873 464 872 466 871 469

C870 471 869 474 869 476

C868 477 867 480 867 481

L866 484

L879 484

L892 484

L892 483

Z

M1010 474

L1010 436

L1014 436

C1016 436 1018 436 1019 437

L1021 437

L1021 454

L1021 470

L1040 470

L1058 470

L1058 454

L1058 437

L1060 436

C1062 436 1064 436 1065 436

L1068 437

L1068 474

L1068 512

L1065 512

C1064 512 1062 512 1060 512

L1058 511

L1058 494

L1058 478

L1040 478

L1021 478

L1021 494

L1021 511

L1019 511

C1018 512 1016 512 1014 512

L1010 512

L1010 474

Z

M1097 474

L1097 436

L1104 436

C1109 436 1110 437 1111 439

C1113 442 1115 446 1116 449

C1116 450 1117 454 1118 456

C1120 461 1122 464 1123 468

C1124 469 1125 471 1125 472

C1126 473 1126 474 1126 475

C1126 476 1127 478 1128 480

C1130 484 1131 488 1132 491

C1132 492 1133 494 1134 495

L1135 498

L1136 497

C1137 497 1137 496 1137 495

C1137 495 1137 493 1138 492

C1139 491 1139 489 1140 488

C1141 487 1141 485 1141 484

L1141 482

L1142 482

L1143 482

L1143 480

C1143 479 1143 478 1144 478

C1144 477 1145 476 1146 474

C1146 472 1147 470 1147 469

C1148 468 1149 465 1151 460

C1151 459 1153 455 1154 453

C1155 450 1156 447 1157 445

C1157 443 1158 442 1158 441

C1159 441 1159 440 1159 439

L1159 437

L1161 436

C1163 436 1166 436 1168 436

L1173 437

L1173 474

L1173 512

L1168 512

L1164 512

L1164 481

L1164 450

L1162 453

C1162 455 1160 458 1160 459

C1158 463 1157 466 1155 471

C1153 474 1152 478 1151 480

C1149 484 1149 487 1147 490

C1147 492 1146 494 1145 496

C1144 497 1143 499 1143 501

C1142 502 1141 505 1141 506

C1139 511 1138 512 1136 512

C1133 512 1132 510 1129 504

C1129 502 1127 500 1127 498

C1126 497 1125 495 1125 494

C1125 492 1124 490 1123 489

C1123 488 1122 485 1121 483

C1120 481 1119 477 1117 474

C1116 471 1114 468 1114 467

C1112 462 1111 459 1109 455

L1107 451

L1108 481

L1108 511

L1106 511

C1105 512 1103 512 1101 512

L1097 512

L1097 474

Z

M1196 510

C1196 508 1196 506 1197 505

C1199 502 1201 496 1201 495

C1201 494 1201 493 1202 492

C1202 491 1203 489 1204 488

C1204 487 1206 484 1206 482

C1207 480 1208 478 1208 477

C1208 476 1208 475 1209 474

C1211 471 1213 465 1213 464

C1213 463 1213 462 1214 461

C1216 457 1219 450 1220 447

C1220 445 1221 444 1221 443

C1222 443 1222 442 1222 441

C1222 437 1231 434 1233 438

C1233 439 1234 440 1235 442

C1235 443 1236 445 1236 447

C1237 449 1238 450 1238 451

C1239 451 1239 452 1239 453

C1239 454 1241 459 1243 463

C1244 464 1244 466 1244 466

C1244 467 1245 469 1245 470

C1246 472 1247 474 1247 476

L1248 479

L1249 479

L1250 479

L1250 481

C1250 482 1251 484 1251 486

C1252 487 1253 489 1253 490

C1253 491 1253 492 1254 493

C1255 493 1255 494 1255 495

C1255 496 1256 498 1256 499

C1257 501 1258 503 1258 505

C1259 507 1260 508 1260 509

L1261 509

L1260 511

L1260 512

L1256 512

L1252 512

L1251 509

C1250 508 1250 506 1249 505

C1249 504 1248 501 1247 499

C1246 496 1245 494 1245 493

C1244 492 1239 492 1228 492

C1211 492 1211 492 1210 497

C1209 498 1208 500 1208 502

C1207 503 1206 505 1206 508

L1204 512

L1200 512

L1196 512

L1196 510

Z

M1241 483

C1241 482 1240 480 1240 478

C1239 477 1238 475 1238 474

C1238 473 1237 471 1236 469

C1235 466 1234 464 1234 463

C1234 462 1233 460 1232 458

C1231 455 1230 453 1230 452

C1230 451 1229 449 1228 449

L1227 449

L1227 450

C1227 451 1226 453 1225 456

C1224 458 1223 460 1223 461

C1223 462 1223 463 1222 464

C1222 464 1221 466 1220 469

C1219 471 1218 474 1218 476

C1217 477 1216 480 1216 481

L1215 484

L1228 484

L1241 484

L1241 483

Z

M1282 474

L1282 436

L1302 436

C1324 437 1325 437 1330 443

C1332 445 1334 447 1335 448

C1337 450 1338 461 1335 467

C1334 471 1332 473 1329 475

C1322 480 1318 481 1305 481

L1293 481

L1293 496

L1293 511

L1291 511

C1290 512 1288 512 1286 512

L1282 512

L1282 474

Z

M1320 472

C1325 469 1327 466 1327 459

C1327 447 1322 443 1304 443

L1293 443

L1293 458

L1293 473

L1305 473

C1313 473 1318 473 1320 472

Z

M259 415

L259 413

L798 413

L1337 413

L1337 415

L1337 417

L798 417

L259 417

L259 415

Z

M1077 379

C1075 379 1071 378 1068 378

C1065 377 1062 377 1061 376

C1060 376 1058 376 1057 375

C1055 375 1053 374 1052 374

C1052 374 1050 373 1049 372

C1048 372 1046 371 1045 370

L1042 370

L1042 369

L1042 368

L1041 368

L1039 368

L1039 367

C1039 367 1038 366 1036 365

C1033 363 1021 351 1021 350

L1021 349

L1020 349

L1019 349

L1019 348

L1019 346

L1018 346

L1017 346

L1016 343

C1016 342 1015 339 1014 338

C1014 337 1012 332 1011 328

C1009 321 1009 317 1009 243

L1010 165

L1023 165

L1037 165

L1037 243

C1038 320 1038 321 1040 327

C1041 331 1042 335 1042 335

C1042 335 1043 335 1043 336

C1044 337 1046 339 1047 342

C1049 344 1051 346 1053 347

C1054 348 1056 349 1057 350

C1059 352 1071 356 1080 357

C1092 359 1107 356 1118 351

C1121 349 1124 347 1124 347

L1124 346

L1127 345

C1128 344 1129 343 1130 342

C1130 341 1132 338 1133 337

C1134 336 1137 331 1138 328

C1140 321 1140 321 1141 243

L1142 165

L1155 165

L1169 165

L1169 242

C1169 315 1169 320 1167 327

C1166 331 1165 335 1164 337

C1164 338 1163 340 1162 341

C1162 342 1161 344 1161 344

C1158 347 1153 354 1153 355

C1153 356 1149 360 1147 360

C1147 360 1146 361 1145 362

C1144 363 1143 364 1143 364

C1142 364 1140 365 1139 366

C1135 370 1122 375 1110 378

C1103 379 1082 380 1077 379

Z

M1272 379

C1262 377 1255 376 1250 373

C1247 372 1244 371 1244 371

C1243 371 1241 370 1239 369

C1237 367 1235 366 1234 366

L1233 366

L1233 365

L1233 364

L1232 364

C1231 364 1228 362 1225 359

C1223 356 1220 354 1219 354

L1218 354

L1218 353

C1218 352 1217 351 1216 350

C1215 349 1214 348 1214 348

C1214 347 1213 345 1212 344

C1209 341 1204 321 1205 318

L1206 316

L1218 316

C1224 316 1231 316 1231 317

L1233 317

L1233 321

C1233 325 1235 332 1237 336

C1239 339 1247 347 1248 347

L1249 347

L1249 348

L1249 349

L1252 350

L1254 350

L1254 351

L1254 352

L1256 352

C1257 352 1258 352 1258 353

C1259 354 1272 357 1280 358

C1288 358 1307 356 1309 354

C1310 353 1311 353 1312 353

C1313 353 1315 352 1316 351

C1317 350 1319 349 1319 349

C1319 349 1322 347 1325 344

C1331 338 1332 333 1332 321

C1332 314 1329 306 1326 303

C1325 302 1324 301 1324 300

L1324 299

L1322 298

L1319 297

L1319 296

L1319 295

L1318 295

L1316 295

L1316 294

C1316 293 1313 292 1302 287

C1301 287 1295 285 1290 284

C1273 279 1266 277 1262 275

C1261 275 1259 274 1258 274

C1257 274 1241 266 1240 265

C1240 264 1239 264 1238 264

L1237 264

L1237 263

L1237 262

L1235 262

L1234 262

L1233 261

L1233 259

L1232 259

C1231 259 1221 249 1221 248

C1221 248 1220 247 1219 245

C1218 244 1217 242 1216 241

C1215 239 1214 237 1214 236

C1213 235 1213 230 1212 226

C1211 219 1211 216 1212 210

C1213 203 1220 189 1221 189

L1222 189

L1222 188

C1222 186 1231 177 1233 177

L1234 177

L1234 176

L1235 174

L1236 174

C1237 174 1238 173 1239 173

C1243 169 1257 164 1270 162

C1279 161 1299 161 1306 163

C1308 164 1311 165 1314 165

C1316 166 1318 167 1318 167

C1319 168 1320 168 1321 168

L1323 168

L1323 169

C1323 169 1324 170 1326 171

C1328 172 1331 174 1333 175

C1336 177 1347 188 1349 191

C1349 192 1351 195 1353 199

C1357 205 1358 207 1359 217

C1360 222 1360 223 1359 224

C1358 225 1352 225 1345 225

L1333 225

L1332 222

C1332 217 1330 210 1328 205

C1326 201 1319 194 1316 191

C1303 184 1290 182 1274 184

C1269 185 1264 186 1263 186

C1252 191 1252 191 1246 199

C1240 206 1238 221 1242 230

C1244 236 1249 241 1251 241

L1252 241

L1253 243

L1253 244

L1254 244

C1255 244 1257 245 1258 246

C1259 247 1262 248 1263 249

C1264 249 1266 250 1268 250

C1269 251 1272 252 1275 253

C1281 255 1282 256 1296 259

C1301 261 1308 263 1311 264

C1315 266 1318 267 1318 267

C1320 267 1327 271 1329 273

C1330 273 1331 274 1331 274

C1332 274 1334 275 1335 277

C1337 278 1338 279 1338 279

C1339 279 1351 291 1351 292

L1351 293

L1352 293

L1353 293

L1353 294

L1353 296

L1354 296

C1356 297 1360 310 1361 318

C1361 326 1360 340 1358 341

C1357 341 1357 342 1357 343

C1357 344 1356 346 1355 347

C1354 348 1353 350 1353 351

L1353 352

L1352 353

L1350 353

L1350 354

C1350 356 1345 361 1343 361

C1343 361 1341 362 1341 363

C1340 364 1339 365 1338 365

L1337 365

L1337 366

L1337 367

L1336 367

L1334 367

L1334 368

C1334 370 1314 377 1301 379

C1291 380 1281 380 1272 379

Z

M255 376

C254 376 254 333 254 281

L254 186

L220 186

L186 186

L186 175

L186 165

L268 165

L351 165

L351 174

C351 182 351 185 350 185

C349 186 334 186 315 186

L282 186

L282 281

L282 377

L268 377

C261 377 255 377 255 376

Z

M383 376

C383 375 383 327 383 270

L384 165

L453 165

L522 165

L522 175

L522 186

L466 186

L411 186

L411 221

L411 256

L460 256

L509 257

L509 267

L509 278

L460 278

L411 278

L411 317

L411 355

L466 355

C496 355 522 355 522 356

L524 356

L524 366

L524 376

L522 376

C522 377 490 377 452 377

L384 377

L383 376

Z

M558 376

C558 375 558 327 558 270

L559 165

L576 165

C593 165 593 165 595 169

C596 171 598 174 598 175

C599 178 601 181 602 184

C602 185 603 188 604 189

C604 190 605 194 606 196

C608 201 610 204 611 208

C612 209 613 211 613 212

C614 213 614 214 614 215

C614 216 615 218 616 220

C616 222 618 224 618 226

C620 231 623 238 624 240

C625 241 625 242 625 243

C625 244 626 246 627 248

C627 250 629 252 629 254

C630 257 632 261 633 263

C634 264 634 265 634 266

C634 267 635 269 636 271

C637 275 639 279 640 282

C642 286 643 290 644 291

C645 292 645 293 645 294

C645 295 646 297 647 299

C647 301 649 303 649 305

C650 308 652 312 653 314

C654 315 654 316 654 317

C654 318 655 320 656 322

C656 324 658 326 658 328

C660 333 662 337 663 337

L664 337

L665 334

C666 332 667 329 668 327

C669 324 670 321 670 320

C671 317 673 314 674 311

C675 310 675 308 675 307

L675 305

L676 305

L677 305

L677 303

C677 302 677 301 678 301

C678 300 679 299 680 297

C680 295 681 293 681 292

C682 291 683 288 685 283

C685 282 687 278 688 276

C689 274 690 270 690 269

C691 268 692 265 692 264

C693 263 693 261 694 260

C695 257 697 253 698 249

C699 247 700 245 700 244

C700 243 700 242 701 241

C702 240 703 238 705 232

C705 231 707 227 708 225

C709 223 710 219 710 218

C711 217 712 214 712 213

C713 212 713 210 714 209

C714 208 716 204 717 202

C718 200 719 196 719 195

C720 193 721 191 723 186

C723 184 724 182 725 181

C725 180 727 177 727 175

C728 173 729 171 729 170

C729 169 730 167 731 166

C733 164 733 164 750 164

L768 165

L768 271

L768 377

L756 377

C749 377 742 377 741 377

L739 376

L739 340

C739 320 740 284 741 259

C741 235 742 213 742 210

L742 206

L740 209

C735 219 733 224 733 225

C733 226 733 227 732 228

C732 229 731 231 730 233

C729 234 728 236 728 237

C727 238 727 240 727 241

L727 243

L726 243

L725 243

L725 245

C725 245 725 247 724 248

C723 250 721 254 720 258

C719 260 717 264 716 267

C716 268 714 272 713 275

C711 278 710 281 710 282

C710 283 710 284 709 285

C709 286 708 288 707 290

C706 291 705 293 705 294

C704 295 704 297 704 298

L704 300

L703 300

L702 300

L702 302

C702 302 702 304 701 305

C701 306 700 308 699 309

C699 310 698 313 697 314

C697 316 696 318 695 319

C695 320 693 324 692 327

C690 330 689 334 688 336

C686 341 685 345 682 351

C682 353 680 355 680 357

C679 358 678 361 678 362

C676 366 675 370 674 371

C673 372 673 374 673 374

L673 376

L671 377

C669 377 665 377 661 377

C653 376 653 376 650 369

C650 368 649 365 648 364

C648 362 647 360 646 359

C645 357 645 355 644 354

C643 352 643 350 642 349

C641 347 641 345 640 344

C639 342 639 340 638 339

C637 337 637 335 636 334

C635 332 634 330 634 328

C632 325 632 322 630 318

C629 316 628 312 626 309

C624 304 623 302 621 297

C620 295 620 293 619 292

C618 290 617 288 617 286

C615 283 614 279 613 276

C612 275 612 273 611 272

C610 270 610 268 609 267

C608 265 608 263 607 262

C607 261 606 258 605 256

C604 254 603 250 601 247

C600 244 598 241 598 240

C598 238 597 236 596 235

C596 233 595 231 594 230

C593 228 593 226 592 225

C591 223 591 221 590 220

C589 217 588 215 586 209

L585 206

L584 206

L583 206

L583 216

C585 241 586 306 586 340

L586 377

L572 377

L559 377

L558 376

Z

M822 376

C822 375 822 327 822 270

L823 165

L866 164

C895 164 911 164 917 165

C921 166 925 166 926 166

C927 167 928 167 929 167

C929 168 930 168 931 168

C932 168 934 168 935 169

C936 169 938 171 940 172

C943 173 945 174 946 175

C947 175 948 176 948 176

C949 176 950 177 951 178

C951 179 953 180 953 180

C955 180 961 186 961 188

C961 188 962 190 963 191

C967 195 972 206 973 213

C976 231 972 254 965 262

C964 263 963 265 963 265

C963 267 959 271 958 271

C958 271 956 272 955 274

C954 276 952 277 951 277

C951 277 950 278 949 278

C949 279 946 281 942 283

C926 290 920 291 881 291

L850 291

L850 334

L850 377

L836 377

L823 377

L822 376

Z

M916 268

C919 267 922 266 923 265

C925 265 926 264 927 264

L929 264

L929 263

L929 262

L930 262

C931 262 938 256 938 253

L939 252

L940 252

L941 252

L942 249

C942 247 944 244 944 242

C948 233 946 212 941 206

C940 204 939 203 939 202

L939 201

L938 201

L937 201

L936 199

L935 196

L934 196

C933 196 932 195 931 194

C929 192 926 190 919 188

C915 187 906 187 882 186

L850 186

L850 227

L850 269

L880 269

C897 269 912 269 916 268

Z

"/>

<path fill="#d1d1d1" stroke="none" d="
M956 512

C953 511 950 511 949 512

L948 512

L948 511

L948 510

L944 509

L941 508

L940 508

L940 509

L937 505

C932 500 931 497 931 494

L931 491

L934 491

C937 491 940 493 939 495

C939 497 947 504 948 504

L950 503

L950 504

L951 505

L956 506

C963 506 969 505 973 500

C976 497 976 496 976 492

C975 485 971 481 960 478

C955 476 951 475 951 476

L950 476

L950 475

C950 475 948 473 946 472

C941 470 935 465 934 463

C934 462 933 459 933 455

C933 450 933 449 936 445

C941 438 947 436 957 436

C963 436 967 436 970 438

L975 440

L975 439

L975 439

L978 443

C982 447 983 449 983 453

L984 456

L980 456

L976 456

L976 453

C974 447 966 441 958 441

C957 441 954 441 952 442

L948 443

L948 444

L948 445

L947 445

L946 444

L944 446

C941 449 940 456 942 460

C944 464 949 467 959 470

C978 475 984 481 984 493

C984 499 981 505 976 508

C974 508 973 510 973 510

L973 511

L972 511

C971 510 967 511 963 512

C962 513 959 512 956 512

Z

M766 474

L766 437

L771 437

L777 437

L777 454

L778 471

L796 471

L814 471

L814 454

L814 437

L819 437

L823 437

L823 474

L823 511

L819 511

L814 511

L814 494

L814 478

L796 478

L778 478

L777 494

L777 511

L771 511

L766 512

L766 474

Z

M1010 474

L1010 437

L1015 437

L1021 437

L1021 454

L1022 471

L1040 471

L1058 471

L1058 454

L1058 437

L1063 437

L1067 437

L1067 474

L1067 511

L1063 511

L1058 511

L1058 494

L1058 478

L1040 478

L1022 478

L1021 494

L1021 511

L1015 511

L1010 512

L1010 474

Z

M1097 474

L1097 437

L1104 437

C1111 438 1111 438 1117 455

C1121 465 1125 473 1125 473

C1125 473 1126 474 1126 475

C1126 479 1133 495 1135 497

L1136 498

L1139 492

C1140 489 1141 485 1141 484

L1142 482

L1142 482

L1143 482

L1144 478

C1145 475 1146 473 1146 472

C1146 471 1147 470 1147 470

C1147 470 1151 462 1154 453

L1160 437

L1166 437

L1172 437

L1172 474

L1172 511

L1168 511

L1164 511

L1164 493

C1164 483 1164 474 1164 473

C1165 473 1165 467 1165 462

L1165 451

L1164 451

L1163 451

L1160 458

C1158 461 1157 465 1157 466

C1157 467 1156 468 1156 469

C1155 469 1151 479 1147 490

L1138 511

L1135 511

L1133 511

L1125 492

C1121 481 1117 472 1116 471

L1115 470

L1115 470

L1116 470

L1114 465

C1113 462 1111 457 1110 455

L1108 451

L1107 452

C1106 454 1106 479 1107 480

C1108 480 1108 486 1108 495

L1108 511

L1102 511

L1097 512

L1097 474

Z

M1282 474

L1282 437

L1302 437

C1325 438 1326 438 1332 445

C1335 449 1336 450 1336 457

C1336 463 1336 465 1334 469

C1332 473 1324 479 1320 479

C1319 479 1318 479 1318 480

C1317 480 1312 480 1305 480

L1294 481

L1293 496

L1293 511

L1287 511

L1282 512

L1282 474

Z

M1319 473

C1329 469 1331 455 1324 447

C1320 443 1315 442 1303 442

L1294 443

L1293 457

C1293 465 1293 472 1293 473

L1294 474

L1305 474

C1312 474 1317 474 1319 473

Z

M847 510

C847 510 848 507 849 503

C851 500 852 497 852 496

C852 494 853 493 853 493

C853 493 858 482 863 469

C868 455 873 443 874 441

L875 437

L879 437

C883 438 883 438 888 451

C891 458 894 464 894 464

L896 465

L895 465

L894 465

L897 472

C898 475 899 479 900 479

C900 479 901 481 901 482

C901 483 901 485 902 485

C902 485 903 486 903 487

C903 488 905 494 907 499

C909 505 911 510 911 511

L911 511

L907 511

C903 511 903 511 900 502

C898 497 896 493 895 492

C894 491 889 491 879 491

C869 491 864 491 863 492

C862 493 860 497 858 502

C855 511 855 511 851 511

L847 511

L847 510

Z

M892 484

C892 483 891 479 888 470

C886 463 883 457 883 457

C883 457 882 456 882 455

C882 453 881 452 881 451

L880 449

L879 449

C877 450 866 482 866 483

L867 485

L879 485

C887 485 891 485 892 484

Z

M1196 510

C1196 510 1197 507 1198 503

C1200 500 1201 497 1201 496

C1201 494 1202 493 1202 493

C1202 493 1207 482 1212 469

C1217 455 1222 443 1223 441

L1224 437

L1228 437

C1232 438 1232 438 1237 451

C1240 458 1243 464 1243 464

L1245 465

L1244 465

L1243 465

L1246 472

C1247 475 1248 479 1249 479

C1249 479 1250 481 1250 482

C1250 483 1250 485 1251 485

C1251 485 1252 486 1252 487

C1252 488 1254 494 1256 499

C1258 505 1260 510 1260 511

L1260 511

L1256 511

C1252 511 1252 511 1249 502

C1247 497 1245 493 1244 492

C1243 491 1238 491 1228 491

C1218 491 1213 491 1212 492

C1211 493 1209 497 1207 502

C1204 511 1204 511 1200 511

L1196 511

L1196 510

Z

M1241 484

C1241 483 1240 479 1237 470

C1235 463 1232 457 1232 457

C1232 457 1231 456 1231 455

C1231 453 1230 452 1230 451

L1229 449

L1228 449

C1226 450 1215 482 1215 483

L1216 485

L1228 485

C1236 485 1240 485 1241 484

Z

M259 415

L259 413

L798 413

L1337 413

L1337 415

L1337 417

L798 417

L259 417

L259 415

Z

M1078 379

C1073 378 1061 376 1060 377

L1059 377

L1059 376

L1059 375

L1056 374

C1054 374 1052 374 1052 374

C1051 374 1050 373 1049 372

C1047 370 1045 370 1043 370

L1042 370

L1042 369

C1042 369 1040 367 1037 365

C1029 360 1021 350 1017 342

C1010 328 1011 331 1011 244

L1011 165

L1023 165

L1036 165

L1036 242

C1037 320 1037 320 1039 327

C1042 336 1047 343 1051 346

L1054 349

L1055 348

L1055 348

L1057 350

C1059 353 1071 357 1080 358

C1088 359 1099 358 1109 355

C1116 353 1125 348 1125 346

L1125 345

L1126 345

L1127 346

L1131 340

C1136 334 1141 322 1141 316

C1141 314 1142 279 1142 239

L1143 165

L1155 165

L1168 165

L1168 244

C1168 329 1168 327 1162 340

C1155 355 1139 368 1122 374

C1119 375 1117 376 1117 376

C1116 376 1115 376 1113 377

C1112 377 1107 377 1103 378

C1094 379 1081 380 1078 379

Z

M1277 379

C1276 378 1274 378 1273 378

C1268 378 1255 375 1248 372

L1241 369

L1241 370

L1240 370

L1240 369

C1240 368 1231 363 1229 362

C1227 362 1215 348 1212 343

C1209 337 1205 325 1206 319

L1206 317

L1219 317

L1233 318

L1232 320

C1232 324 1236 336 1239 339

C1241 341 1242 343 1242 343

C1242 345 1264 357 1266 356

L1266 355

L1268 356

C1269 357 1286 359 1289 359

C1290 358 1294 358 1297 358

C1303 357 1314 354 1316 352

C1316 351 1317 350 1318 350

C1321 350 1329 340 1331 335

C1338 318 1329 299 1311 291

C1303 287 1289 282 1284 282

C1283 281 1280 281 1279 280

C1277 280 1276 279 1275 279

C1273 279 1257 273 1250 269

C1232 261 1223 252 1217 241

C1207 221 1212 198 1229 181

L1236 174

L1236 174

L1236 175

L1243 171

C1253 166 1264 163 1279 162

C1292 162 1305 163 1314 166

C1329 171 1345 184 1352 197

C1354 201 1356 204 1356 204

C1356 204 1357 205 1357 207

C1357 208 1358 211 1358 214

C1359 217 1359 220 1359 222

L1360 224

L1346 224

L1333 224

L1333 219

C1332 216 1332 213 1331 213

L1330 213

L1331 212

C1332 210 1326 201 1322 196

L1317 191

L1316 191

L1316 192

L1314 190

C1310 186 1290 181 1281 182

C1278 183 1274 183 1272 183

C1264 184 1248 192 1248 195

C1248 196 1247 197 1245 199

C1244 200 1242 204 1241 207

C1237 219 1239 229 1246 237

L1250 242

L1251 241

L1252 241

L1252 242

C1252 243 1258 247 1266 250

C1272 253 1294 260 1298 260

C1301 261 1301 261 1314 266

C1339 276 1356 293 1359 312

C1361 320 1360 334 1357 341

C1354 349 1348 357 1342 361

C1339 364 1336 366 1335 367

L1333 369

L1333 369

L1333 368

L1327 371

C1319 374 1311 377 1301 378

C1291 379 1278 380 1277 379

Z

M255 282

C255 210 255 187 254 186

C253 185 244 185 219 185

L186 185

L186 175

L187 165

L267 164

C311 164 348 164 349 164

L351 165

L351 175

L351 185

L317 185

C292 185 283 185 282 186

C281 187 281 210 281 282

L281 376

L268 376

L255 376

L255 282

Z

M384 270

L385 165

L453 165

L521 165

L521 175

L521 185

L467 185

C426 185 412 185 411 186

C409 188 409 254 411 256

C412 257 424 257 460 257

L508 257

L508 267

L508 277

L460 277

C424 277 412 277 411 278

C409 280 409 353 411 355

C412 356 426 356 468 356

L524 356

L524 366

L524 376

L454 376

L384 376

L384 270

Z

M559 270

L560 165

L576 164

C591 164 593 164 594 166

C594 167 599 178 604 190

C608 202 613 213 613 213

C613 213 614 214 614 215

C614 218 623 240 624 241

C624 241 625 242 625 243

C625 246 632 263 633 264

C633 264 634 265 634 266

C634 269 643 291 644 292

C644 292 645 293 645 294

C645 297 652 314 653 315

C653 315 654 316 654 317

C654 319 656 323 658 328

L661 337

L663 337

C665 336 676 308 675 306

L675 305

L676 305

L677 305

L678 301

C679 298 680 296 680 295

C680 294 681 293 681 293

C682 292 729 173 729 170

C729 169 730 167 732 166

C734 164 734 164 750 164

L767 165

L767 270

L767 376

L753 376

L739 376

L739 334

C739 305 739 292 740 291

C741 291 741 286 741 277

C741 269 741 262 741 261

C742 261 742 254 742 246

C742 239 742 227 742 220

L743 207

L741 206

L740 206

L739 209

C739 210 738 212 738 213

C738 214 737 215 737 215

C736 216 726 241 727 242

L727 243

L726 243

L725 243

L720 256

C717 263 715 269 715 270

C715 271 714 272 714 272

C713 272 711 278 708 285

L703 298

L703 299

L704 299

L703 300

C702 301 695 318 687 339

L672 376

L663 376

C656 376 654 376 653 374

C652 373 652 372 652 372

C652 370 626 307 625 306

C625 306 624 305 624 304

C624 302 601 245 600 244

C600 244 599 243 599 242

C599 241 596 233 592 223

L585 207

L584 207

L583 207

L583 212

C583 215 583 224 583 232

C583 240 583 248 584 248

C584 249 584 256 584 264

C584 272 584 279 585 279

C585 280 585 302 585 328

L585 376

L572 376

L559 376

L559 270

Z

M823 270

L824 165

L859 164

C881 164 899 164 908 165

C915 166 923 166 925 166

C926 166 928 167 928 167

C928 168 930 168 931 168

C932 168 934 169 934 169

C934 169 938 171 942 174

C952 178 961 187 966 196

C968 200 970 203 970 203

L971 203

L971 204

C970 204 971 207 972 210

C972 213 973 217 973 220

C973 223 974 225 974 226

L975 227

L974 229

C974 230 973 233 973 236

C973 245 969 255 963 265

C961 267 960 270 960 270

L960 271

L959 271

L958 270

L953 275

L948 280

L948 279

L948 279

L940 283

C927 289 919 290 883 290

C860 290 851 290 850 291

C849 292 849 303 849 334

L849 376

L836 376

L823 376

L823 270

Z

M912 269

L912 268

L913 269

C914 269 916 268 920 268

L925 266

L925 265

L925 264

L926 264

C928 265 930 263 936 258

C941 252 942 250 944 243

C948 233 948 224 945 215

C941 201 929 189 918 188

C917 188 915 187 914 186

C912 185 852 185 850 186

C849 187 849 193 849 227

C849 257 849 268 850 269

C851 270 859 270 882 270

L912 270

L912 269

Z

"/>

<path fill="#e4e4e4" stroke="none" d="
M951 511

C940 509 931 501 931 493

L931 491

L934 491

L938 491

L939 494

C940 498 947 504 949 504

L950 503

L950 504

L949 505

L951 505

C955 506 964 506 967 505

C973 502 976 498 976 493

C976 486 970 480 959 477

C948 474 940 470 937 466

C932 461 932 451 937 444

C943 436 960 433 972 439

C978 442 982 447 984 453

L984 456

L980 456

L976 456

L976 453

C973 441 953 437 944 447

C942 449 941 451 941 454

C941 462 946 466 962 471

C978 476 984 481 984 493

C984 499 981 504 976 507

L972 510

L972 510

L973 511

L971 511

C969 511 965 511 962 511

C958 512 953 512 951 511

Z

M766 474

L766 437

L767 455

C767 466 767 482 767 493

L766 512

L766 474

Z

M768 474

L768 437

L772 437

L776 437

L776 452

C776 461 776 469 777 469

L777 471

L796 471

L814 471

L814 469

C815 469 815 461 815 452

L815 437

L819 437

L823 437

L823 474

L823 511

L819 511

L815 511

L815 496

C815 487 815 479 814 479

L814 477

L796 477

L777 477

L777 479

C776 479 776 487 776 496

L776 511

L772 511

L768 511

L768 474

Z

M847 509

C848 508 854 492 862 472

L875 437

L879 437

C883 438 883 438 891 459

L899 480

L900 479

L901 479

L901 480

C900 481 904 494 911 509

L911 511

L907 511

L903 511

L900 502

C898 497 896 493 896 492

C895 491 891 491 879 491

C861 491 862 490 857 503

L855 511

L851 511

L847 511

L847 509

Z

M892 484

C893 483 881 449 879 449

L878 448

L877 450

C869 471 865 483 866 484

C866 485 892 485 892 484

Z

M1010 474

L1010 437

L1011 455

C1011 466 1011 482 1011 493

L1010 512

L1010 474

Z

M1012 474

L1012 437

L1016 437

L1020 437

L1020 452

C1020 461 1020 469 1021 469

L1021 471

L1040 471

L1058 471

L1058 469

C1059 469 1059 461 1059 452

L1059 437

L1063 437

L1067 437

L1067 474

L1067 511

L1063 511

L1059 511

L1059 496

C1059 487 1059 479 1058 479

L1058 477

L1040 477

L1021 477

L1021 479

C1020 479 1020 487 1020 496

L1020 511

L1016 511

L1012 511

L1012 474

Z

M1097 474

L1097 437

L1098 455

C1098 466 1098 482 1098 493

L1097 512

L1097 474

Z

M1099 474

L1099 437

L1105 437

C1110 438 1110 438 1113 443

C1114 446 1119 460 1124 473

L1134 498

L1135 498

L1137 498

L1139 491

C1141 487 1142 484 1141 483

L1141 482

L1142 482

L1143 483

L1151 463

C1161 435 1160 437 1167 437

L1172 437

L1172 474

L1172 511

L1168 511

L1164 511

L1164 481

L1165 450

L1164 450

L1163 450

L1150 480

L1138 511

L1135 511

L1133 511

L1121 481

L1109 451

L1108 451

L1107 452

L1107 481

L1107 511

L1103 511

L1099 511

L1099 474

Z

M1196 509

C1197 508 1203 492 1211 472

L1224 437

L1228 437

C1232 438 1232 438 1240 459

L1248 480

L1249 479

L1250 479

L1250 480

C1249 481 1253 494 1260 509

L1260 511

L1256 511

L1252 511

L1249 502

C1247 497 1245 493 1245 492

C1244 491 1240 491 1228 491

C1210 491 1211 490 1206 503

L1204 511

L1200 511

L1196 511

L1196 509

Z

M1241 484

C1242 483 1230 449 1228 449

L1227 448

L1226 450

C1218 471 1214 483 1215 484

C1215 485 1241 485 1241 484

Z

M1282 474

L1282 437

L1283 455

C1283 466 1283 482 1283 493

L1282 512

L1282 474

Z

M1284 474

L1284 437

L1301 437

C1311 437 1320 437 1322 438

C1331 440 1336 448 1336 458

C1336 474 1328 480 1305 480

L1293 480

L1293 482

C1292 482 1292 489 1292 497

L1292 511

L1288 511

L1284 511

L1284 474

Z

M1321 472

C1326 468 1328 465 1328 459

C1328 454 1328 452 1326 449

C1322 443 1317 442 1304 442

L1293 443

L1292 456

C1292 463 1292 471 1292 472

L1293 474

L1305 474

C1317 474 1318 474 1321 472

Z

M1074 378

C1070 378 1064 376 1060 375

C1055 374 1051 373 1051 374

L1050 374

L1050 373

L1051 372

L1043 369

C1033 363 1022 352 1017 343

C1010 328 1011 333 1010 245

L1010 165

L1023 165

L1036 165

L1036 240

C1036 321 1036 323 1042 334

C1047 345 1059 354 1073 357

C1081 359 1097 359 1105 357

C1122 352 1134 342 1139 326

C1141 320 1141 318 1142 242

L1142 165

L1155 165

L1168 165

L1168 244

C1167 332 1168 328 1161 342

C1152 359 1135 371 1111 377

C1102 378 1083 379 1074 378

Z

M1275 378

C1252 375 1236 368 1223 356

C1213 347 1208 337 1206 323

L1206 317

L1219 317

L1232 317

L1232 321

C1232 326 1236 336 1240 341

C1257 362 1305 365 1324 345

C1330 340 1332 336 1333 329

C1336 315 1329 302 1317 294

C1309 289 1301 286 1282 281

C1263 275 1257 273 1246 267

C1225 256 1214 242 1212 222

C1210 186 1244 160 1290 162

C1312 163 1328 170 1341 183

C1352 194 1357 204 1358 218

L1359 224

L1346 224

L1333 224

L1333 221

C1333 213 1328 202 1321 195

C1307 181 1279 178 1258 188

C1246 194 1239 204 1239 218

C1239 237 1253 248 1291 259

C1323 268 1341 278 1351 293

C1356 301 1359 309 1360 319

C1362 348 1343 369 1308 376

C1301 378 1280 379 1275 378

Z

M255 281

L255 186

L220 185

L186 185

L186 175

L186 165

L268 165

L350 165

L350 175

L350 185

L316 185

L282 186

L281 281

L281 376

L268 376

L255 376

L255 281

Z

M384 271

L384 165

L453 165

L521 165

L521 175

L521 185

L466 185

L411 186

L411 221

L411 257

L459 257

L508 257

L508 267

L508 277

L459 277

L411 278

L411 317

L411 356

L467 356

L523 356

L523 366

L523 376

L454 376

L384 376

L384 271

Z

M559 271

L559 165

L576 165

L594 165

L627 250

C645 297 661 336 662 337

L663 338

L664 337

C666 335 676 307 675 306

L675 305

L676 305

L677 306

L704 236

L732 166

L749 165

L767 165

L767 270

L767 376

L754 376

L740 376

L740 339

C740 319 741 284 742 262

C742 240 743 218 743 214

L743 206

L741 206

C740 207 726 240 726 242

L727 243

L726 243

L725 242

L714 270

C708 286 703 298 704 299

L704 300

L703 300

L702 299

L687 337

L672 376

L663 376

L654 376

L619 291

C601 244 585 205 584 205

L583 205

L583 206

C582 206 583 226 584 249

C584 272 585 310 585 333

L585 376

L572 376

L559 376

L559 271

Z

M823 270

L823 165

L871 165

C913 166 920 166 927 167

C950 174 967 189 972 211

C973 215 973 222 973 228

C973 244 970 256 961 267

L959 270

L960 270

L960 271

L959 271

L959 270

L953 275

C946 280 938 285 928 287

C921 289 917 289 885 290

L850 291

L849 333

L849 376

L836 376

L823 376

L823 270

Z

M915 269

C924 267 930 264 936 257

C943 250 946 242 947 231

C948 217 944 206 935 197

C925 187 920 186 881 186

L850 186

L849 226

C849 249 849 268 849 269

L850 270

L880 270

C898 270 912 270 915 269

Z

"/>

<path fill="#ffffff" stroke="none" d="
M954 511

C943 509 934 503 932 496

C931 492 931 491 935 491

L937 491

L939 495

C942 503 948 506 958 506

C969 506 975 502 976 494

C978 486 972 481 958 476

C953 475 947 473 945 471

C933 465 930 454 937 445

C944 436 960 433 971 439

C977 442 982 447 983 452

L983 456

L980 456

C977 456 977 455 976 452

C974 447 972 445 968 443

C960 439 950 441 944 446

C941 448 941 449 941 454

C941 457 942 460 943 462

C945 465 952 468 961 471

C971 474 975 476 979 481

C988 490 985 503 973 509

C967 511 959 512 954 511

Z

M766 474

L766 437

L767 455

C767 466 767 482 767 493

L766 512

L766 474

Z

M768 510

C768 509 768 493 768 473

L769 438

L772 438

L775 438

L775 452

C775 460 775 468 776 469

L776 471

L795 471

L815 471

L815 469

C816 469 816 461 816 452

L816 437

L819 437

L823 438

L823 474

L823 511

L819 511

L816 511

L816 496

C816 487 816 479 815 479

L815 477

L795 477

L776 477

L776 479

C775 480 775 488 775 496

L775 511

L772 511

L769 511

L768 510

Z

M848 510

C848 509 852 498 857 485

C862 472 868 456 871 450

C875 438 876 437 879 437

C880 437 882 437 883 438

C884 439 909 505 910 509

L910 511

L907 511

C904 511 903 510 900 501

L896 492

L879 492

L862 492

L858 501

C855 510 854 511 851 511

L848 511

L848 510

Z

M893 483

C893 482 885 458 882 450

C881 449 880 448 879 448

L877 448

L871 465

C868 475 865 483 865 484

L865 485

L879 485

L893 485

L893 483

Z

M1010 474

L1010 437

L1011 455

C1011 466 1011 482 1011 493

L1010 512

L1010 474

Z

M1012 510

C1012 509 1012 493 1012 473

L1013 438

L1016 438

L1019 438

L1019 452

C1019 460 1019 468 1020 469

L1020 471

L1039 471

L1059 471

L1059 469

C1060 469 1060 461 1060 452

L1060 437

L1063 437

L1067 438

L1067 474

L1067 511

L1063 511

L1060 511

L1060 496

C1060 487 1060 479 1059 479

L1059 477

L1039 477

L1020 477

L1020 479

C1019 480 1019 488 1019 496

L1019 511

L1016 511

L1013 511

L1012 510

Z

M1097 474

L1097 437

L1098 455

C1098 466 1098 482 1098 493

L1097 512

L1097 474

Z

M1099 510

C1099 509 1099 493 1099 473

L1100 438

L1104 437

C1107 437 1109 437 1110 438

C1110 439 1116 452 1121 467

C1134 500 1134 499 1136 499

L1137 499

L1144 480

C1149 469 1154 455 1156 449

L1161 438

L1166 438

L1172 438

L1172 474

L1172 511

L1168 511

L1165 511

L1165 480

L1165 450

L1164 450

L1163 450

L1157 463

C1154 470 1148 484 1145 493

C1141 503 1137 510 1136 511

L1135 511

L1134 510

C1133 509 1127 495 1120 479

L1109 450

L1107 451

L1106 451

L1106 481

L1106 511

L1103 511

L1100 511

L1099 510

Z

M1197 510

C1197 509 1201 498 1206 485

C1211 472 1217 456 1220 450

C1224 438 1225 437 1228 437

C1229 437 1231 437 1232 438

C1233 439 1258 505 1259 509

L1259 511

L1256 511

C1253 511 1252 510 1249 501

L1245 492

L1228 492

L1211 492

L1207 501

C1204 510 1203 511 1200 511

L1197 511

L1197 510

Z

M1242 483

C1242 482 1234 458 1231 450

C1230 449 1229 448 1228 448

L1226 448

L1220 465

C1217 475 1214 483 1214 484

L1214 485

L1228 485

L1242 485

L1242 483

Z

M1282 474

L1282 437

L1283 455

C1283 466 1283 482 1283 493

L1282 512

L1282 474

Z

M1284 510

C1284 509 1284 493 1284 473

L1285 438

L1301 437

C1321 437 1324 438 1330 444

C1336 450 1338 459 1334 468

C1330 476 1321 480 1303 480

L1292 480

L1292 482

C1291 483 1291 490 1291 498

L1291 511

L1288 511

L1285 511

L1284 510

Z

M1321 472

C1326 470 1328 466 1329 460

C1329 456 1329 454 1327 450

C1324 443 1320 442 1304 442

L1292 442

L1292 444

C1291 444 1291 451 1291 459

C1291 476 1290 475 1306 475

C1315 474 1319 474 1321 472

Z

M1076 378

C1043 374 1020 357 1012 329

C1011 323 1011 316 1011 244

L1011 166

L1023 166

L1036 166

L1036 244

C1037 323 1037 323 1039 329

C1044 342 1054 352 1068 356

C1078 359 1096 359 1106 357

C1123 352 1134 342 1139 327

C1141 321 1141 319 1142 243

L1143 166

L1155 166

L1168 166

L1168 243

C1168 313 1167 321 1166 327

C1158 357 1134 375 1098 378

C1087 379 1087 379 1076 378

Z

M1275 378

C1261 377 1247 372 1236 365

C1228 361 1217 350 1214 345

C1210 339 1207 329 1207 323

L1207 318

L1219 318

L1232 318

L1232 323

C1234 342 1250 355 1275 358

C1296 361 1315 356 1326 344

C1332 338 1334 333 1333 322

C1333 303 1320 291 1290 282

C1268 276 1261 274 1251 270

C1231 260 1220 249 1215 235

C1205 205 1224 174 1261 165

C1267 163 1271 163 1284 163

C1302 163 1310 164 1324 171

C1343 180 1358 202 1358 219

L1358 224

L1346 224

L1334 224

L1333 218

C1330 196 1312 182 1284 182

C1259 182 1243 193 1239 212

C1235 232 1248 246 1280 256

C1308 264 1313 266 1320 269

C1335 276 1349 288 1354 299

C1368 329 1355 360 1323 372

C1309 377 1290 380 1275 378

Z

M256 375

C255 375 255 332 255 280

L255 185

L221 185

L187 185

L187 175

L187 166

L268 165

L349 165

L349 175

L349 185

L315 185

L281 185

L281 280

L281 376

L268 376

C262 376 256 376 256 375

Z

M384 375

C384 374 384 327 384 270

L385 166

L453 166

L521 166

L521 175

L521 185

L465 185

L410 185

L410 221

L410 257

L459 257

L507 257

L507 267

L507 277

L459 277

L410 277

L410 317

L410 356

L466 356

L522 356

L522 366

L522 376

L453 376

L385 376

L384 375

Z

M559 375

C559 374 559 327 559 270

L560 166

L576 166

L593 166

L625 246

C642 290 657 328 658 332

C660 335 661 338 663 338

L665 338

L698 252

L732 165

L749 165

L767 166

L767 271

L767 376

L754 376

L741 376

L741 309

C742 272 742 233 743 223

L743 205

L741 205

L740 205

L738 208

C738 210 724 245 707 287

C690 328 675 365 674 369

L671 376

L663 376

C658 376 655 376 654 375

C653 374 621 295 588 212

L586 205

L584 205

L582 205

L582 219

C584 258 585 308 585 340

L585 376

L572 376

L560 376

L559 375

Z

M823 375

C823 374 823 327 823 270

L824 166

L871 166

C916 166 918 166 926 168

C950 174 966 189 971 211

C973 219 973 236 971 244

C966 265 951 281 927 287

C920 289 916 289 884 290

L849 290

L849 333

L849 376

L836 376

L824 376

L823 375

Z

M918 269

C926 266 932 263 937 257

C944 250 946 243 947 231

C948 216 944 205 935 196

C930 191 923 187 914 186

C910 185 894 185 878 185

L849 185

L849 228

L849 270

L881 270

C905 270 914 270 918 269

Z

"/>

</svg>