<svg id="svg2" xmlns:rdf="http://www.w3.org/1999/02/22-rdf-syntax-ns#" xmlns="http://www.w3.org/2000/svg" height="320" width="1543.4" version="1.1" xmlns:cc="http://creativecommons.org/ns#" xmlns:dc="http://purl.org/dc/elements/1.1/" viewBox="0 0 1543.4268 320.00026">
      <path id="path3996" d="M153.934 130.51h.027c.296 0 .56.2.637.49l2.627 10.076 1.472-3.935a.655.655 0 1 1 1.17-.12l.693 1.084c.136.847.16 1.685.061 2.512l-1.158-1.775-1.735 4.637a.66.66 0 0 1-1.252-.065s-2.192-9.133-2.38-9.133c-.19 0-2.377 13.903-2.377 13.903a.662.662 0 0 1-.647.546.657.657 0 0 1-.638-.507s-2.547-11.528-2.702-11.528c-.155 0-1.574 3.63-1.574 3.63a.655.655 0 0 1-.601.394h-1.645a1.61 1.61 0 0 1-1.482.984 1.607 1.607 0 0 1 0-3.213c.639 0 1.186.376 1.445.916h1.25l2.193-5.054a.655.655 0 0 1 1.24.11s2.193 10.302 2.413 10.302c.219 0 2.343-13.71 2.343-13.71a.657.657 0 0 1 .62-.544zm-3.004-6.54c-8.156 0-14.768 6.65-14.768 14.852 0 8.203 6.612 14.852 14.768 14.852s14.77-6.65 14.77-14.852-6.614-14.851-14.77-14.851zm0-6.952c12.472 0 22.584 9.773 22.584 21.83 0 12.056-10.112 21.83-22.584 21.83s-22.582-9.774-22.582-21.83c0-12.057 10.11-21.83 22.582-21.83zM114.5 0c-.7 0-1.3.5-1.3 1.2V193c0 .8.6 1.4 1.4 1.4h30c27.5 0 49.8-22.3 49.8-49.8V49.8c0-27.5-22.3-49.8-49.8-49.8zM92.3 0H49.8C22.3 0 0 22.3 0 49.8v94.8c0 27.5 22.3 49.8 49.8 49.8h42.5c.8 0 1.5-.6 1.5-1.4V1.4c0-.8-.7-1.4-1.5-1.4M78.1 178.8H49.8c-9.1 0-17.7-3.6-24.1-10.1-6.5-6.4-10.1-15-10.1-24.1V49.8c0-9.1 3.6-17.7 10.1-24.1 6.4-6.5 15-10 24.1-10h28.3zM71.581 35.978a4.692 4.692 0 0 0-4.693-4.692 4.692 4.692 0 0 0-4.692 4.692 4.692 4.692 0 0 0 4.692 4.693 4.692 4.692 0 0 0 4.693-4.693zm0 16.59a4.692 4.692 0 0 0-4.224-4.669 4.692 4.692 0 0 0-.47-.023 4.692 4.692 0 0 0-4.667 4.223 4.692 4.692 0 0 0-.024.468 4.692 4.692 0 0 0 4.692 4.692 4.692 4.692 0 0 0 4.693-4.692zm0 16.59a4.692 4.692 0 0 0-4.224-4.67 4.692 4.692 0 0 0-.47-.024 4.692 4.692 0 0 0-4.667 4.225 4.692 4.692 0 0 0-.024.468 4.692 4.692 0 0 0 4.692 4.692 4.692 4.692 0 0 0 4.693-4.692zm-16.59-33.18a4.692 4.692 0 0 0-4.691-4.692 4.692 4.692 0 0 0-4.693 4.692A4.692 4.692 0 0 0 50.3 40.67a4.692 4.692 0 0 0 4.691-4.693zm0 16.59a4.692 4.692 0 0 0-4.224-4.669 4.692 4.692 0 0 0-.467-.023 4.692 4.692 0 0 0-4.67 4.223 4.692 4.692 0 0 0-.023.468A4.692 4.692 0 0 0 50.3 57.26a4.692 4.692 0 0 0 4.691-4.692zm-16.59-16.59a4.692 4.692 0 0 0-4.69-4.692 4.692 4.692 0 0 0-4.694 4.692 4.692 4.692 0 0 0 4.693 4.693 4.692 4.692 0 0 0 4.691-4.693zm490.774 117.39q0 19.698-10.102 31.1-10.101 11.4-27.059 11.4-17.1 0-27.203-11.4-10.03-11.402-10.03-31.1 0-19.699 10.03-31.1 10.102-11.472 27.203-11.472 16.958 0 27.06 11.473 10.1 11.4 10.1 31.099zm-13.998 0q0-15.658-6.134-23.235-6.133-7.648-17.028-7.648-11.04 0-17.174 7.648-6.06 7.576-6.06 23.235 0 15.152 6.132 23.017 6.134 7.793 17.101 7.793 10.824 0 16.958-7.72 6.205-7.793 6.205-23.09zm-67.611-25.544h-.722q-3.03-.72-5.917-1.01-2.814-.36-6.71-.36-6.278 0-12.123 2.813-5.844 2.742-11.256 7.144v57.22h-13.566v-80.599h13.565v11.906q8.082-6.494 14.216-9.163 6.205-2.743 12.627-2.743 3.536 0 5.123.217 1.587.145 4.763.649zm-70.858 26.915h-59.386q0 7.431 2.237 12.988 2.237 5.483 6.134 9.02 3.752 3.463 8.875 5.195 5.195 1.732 11.4 1.732 8.227 0 16.524-3.248 8.37-3.319 11.906-6.494h.722v14.792q-6.855 2.886-13.999 4.835-7.143 1.947-15.008 1.947-20.06 0-31.316-10.823-11.256-10.895-11.256-30.883 0-19.77 10.75-31.387 10.824-11.617 28.43-11.617 16.308 0 25.11 9.524 8.877 9.525 8.877 27.059zm-13.205-10.391q-.072-10.68-5.412-16.524-5.267-5.844-16.091-5.844-10.896 0-17.39 6.422-6.422 6.422-7.288 15.946zm-72.59 49.282H225.83v-10.029l46.973-59.24h-45.963v-11.329h62.848v9.67l-47.191 59.456h48.416z" fill="#fff"/>
</svg>
