<svg id="svg2" xmlns:rdf="http://www.w3.org/1999/02/22-rdf-syntax-ns#" xmlns="http://www.w3.org/2000/svg" height="320" width="320" version="1.1" xmlns:cc="http://creativecommons.org/ns#" xmlns:dc="http://purl.org/dc/elements/1.1/" viewBox="0 0 320 320.00001">
<path id="path3996" d="M153.934 130.51h.027c.296 0 .56.2.637.49l2.627 10.076 1.472-3.935a.655.655 0 1 1 1.17-.12l.693 1.084c.136.847.16 1.685.061 2.512l-1.158-1.775-1.735 4.637a.66.66 0 0 1-1.252-.065s-2.192-9.133-2.38-9.133c-.19 0-2.377 13.903-2.377 13.903a.662.662 0 0 1-.647.546.657.657 0 0 1-.638-.507s-2.547-11.528-2.702-11.528c-.155 0-1.574 3.63-1.574 3.63a.655.655 0 0 1-.601.394h-1.645a1.61 1.61 0 0 1-1.482.984 1.607 1.607 0 0 1 0-3.213c.639 0 1.186.376 1.445.916h1.25l2.193-5.054a.655.655 0 0 1 1.24.11s2.193 10.302 2.413 10.302c.219 0 2.343-13.71 2.343-13.71a.657.657 0 0 1 .62-.544zm-3.004-6.54c-8.156 0-14.768 6.65-14.768 14.852 0 8.203 6.612 14.852 14.768 14.852s14.77-6.65 14.77-14.852-6.614-14.851-14.77-14.851zm0-6.952c12.472 0 22.584 9.773 22.584 21.83 0 12.056-10.112 21.83-22.584 21.83s-22.582-9.774-22.582-21.83c0-12.057 10.11-21.83 22.582-21.83zM114.5 0c-.7 0-1.3.5-1.3 1.2V193c0 .8.6 1.4 1.4 1.4h30c27.5 0 49.8-22.3 49.8-49.8V49.8c0-27.5-22.3-49.8-49.8-49.8zM92.3 0H49.8C22.3 0 0 22.3 0 49.8v94.8c0 27.5 22.3 49.8 49.8 49.8h42.5c.8 0 1.5-.6 1.5-1.4V1.4c0-.8-.7-1.4-1.5-1.4M78.1 178.8H49.8c-9.1 0-17.7-3.6-24.1-10.1-6.5-6.4-10.1-15-10.1-24.1V49.8c0-9.1 3.6-17.7 10.1-24.1 6.4-6.5 15-10 24.1-10h28.3zM71.581 35.978a4.692 4.692 0 0 0-4.693-4.692 4.692 4.692 0 0 0-4.692 4.692 4.692 4.692 0 0 0 4.692 4.693 4.692 4.692 0 0 0 4.693-4.693zm0 16.59a4.692 4.692 0 0 0-4.224-4.669 4.692 4.692 0 0 0-.47-.023 4.692 4.692 0 0 0-4.667 4.223 4.692 4.692 0 0 0-.024.468 4.692 4.692 0 0 0 4.692 4.692 4.692 4.692 0 0 0 4.693-4.692zm0 16.59a4.692 4.692 0 0 0-4.224-4.67 4.692 4.692 0 0 0-.47-.024 4.692 4.692 0 0 0-4.667 4.225 4.692 4.692 0 0 0-.024.468 4.692 4.692 0 0 0 4.692 4.692 4.692 4.692 0 0 0 4.693-4.692zm-16.59-33.18a4.692 4.692 0 0 0-4.691-4.692 4.692 4.692 0 0 0-4.693 4.692A4.692 4.692 0 0 0 50.3 40.67a4.692 4.692 0 0 0 4.691-4.693zm0 16.59a4.692 4.692 0 0 0-4.224-4.669 4.692 4.692 0 0 0-.467-.023 4.692 4.692 0 0 0-4.67 4.223 4.692 4.692 0 0 0-.023.468A4.692 4.692 0 0 0 50.3 57.26a4.692 4.692 0 0 0 4.691-4.692zm-16.59-16.59a4.692 4.692 0 0 0-4.69-4.692 4.692 4.692 0 0 0-4.694 4.692 4.692 4.692 0 0 0 4.693 4.693 4.692 4.692 0 0 0 4.691-4.693z" fill="#fff"/>
</svg>
