<?xml version="1.0" standalone="no"?>
<!DOCTYPE svg PUBLIC "-//W3C//DTD SVG 20010904//EN"
 "http://www.w3.org/TR/2001/REC-SVG-20010904/DTD/svg10.dtd">
<svg version="1.0" xmlns="http://www.w3.org/2000/svg"
 width="130.000000pt" height="50.000000pt" viewBox="0 0 130.000000 50.000000"
 preserveAspectRatio="xMidYMid meet">
<metadata>
Created by potrace 1.15, written by Peter Selinger 2001-2017
</metadata>
<g transform="translate(0.000000,50.000000) scale(0.100000,-0.100000)"
fill="#000000" stroke="none">
<path d="M120 429 c0 -4 8 -10 18 -12 9 -3 1 -5 -18 -6 -33 -2 -34 -2 -16 -16
19 -14 18 -15 -10 -16 -16 -1 -22 -3 -11 -6 25 -6 21 -23 -5 -24 -18 0 -14 -4
17 -18 22 -10 49 -28 59 -40 21 -23 26 -16 -75 -119 l-42 -42 39 -1 c67 0 129
-11 136 -23 4 -6 8 6 8 27 0 21 -3 36 -7 34 -5 -3 -8 14 -8 38 0 37 4 45 32
63 l31 21 11 -31 c17 -47 14 -51 -20 -28 -16 12 -32 20 -35 17 -3 -3 15 -19
40 -37 28 -19 46 -26 46 -18 -1 40 -51 184 -72 204 -23 23 -118 50 -118 33z"/>
</g>
</svg>
