<svg width="213" height="213" viewBox="0 0 213 213" fill="none" xmlns="http://www.w3.org/2000/svg">
<g filter="url(#filter0_d_3154_417028)">
<rect x="8" y="4" width="197" height="197" rx="4" fill="white" shape-rendering="crispEdges"/>
<g filter="url(#filter1_b_3154_417028)">
<rect x="20" y="16" width="173" height="173" rx="4" fill="white" fill-opacity="0.76"/>
</g>
<path d="M170 124.5C170 107.659 163.31 91.5073 151.401 79.5987C139.493 67.6902 123.341 61 106.5 61C89.6588 61 73.5073 67.6902 61.5987 79.5987C49.6902 91.5073 43 107.659 43 124.5L63.0025 124.5C63.0025 112.964 67.5853 101.9 75.7426 93.7426C83.9 85.5853 94.9637 81.0025 106.5 81.0025C118.036 81.0025 129.1 85.5853 137.257 93.7426C145.415 101.9 149.997 112.964 149.997 124.5H170Z" fill="black" fill-opacity="0.06"/>
<path d="M170 124.5C170 116.161 168.358 107.904 165.166 100.2C161.975 92.4954 157.298 85.4952 151.401 79.5987L137.257 93.7435C141.296 97.7825 144.499 102.577 146.685 107.855C148.871 113.132 149.996 118.788 149.996 124.5H170Z" fill="#2196F3"/>
<path d="M105.848 121.875V124.5H92.5039V122.244L98.9844 115.176C99.6953 114.374 100.256 113.681 100.666 113.098C101.076 112.514 101.363 111.99 101.527 111.525C101.701 111.051 101.787 110.591 101.787 110.145C101.787 109.516 101.669 108.964 101.432 108.49C101.204 108.007 100.867 107.629 100.42 107.355C99.9733 107.073 99.431 106.932 98.793 106.932C98.0547 106.932 97.4349 107.091 96.9336 107.41C96.4323 107.729 96.054 108.171 95.7988 108.736C95.5436 109.292 95.416 109.93 95.416 110.65H92.1211C92.1211 109.493 92.3854 108.436 92.9141 107.479C93.4427 106.512 94.2083 105.747 95.2109 105.182C96.2135 104.607 97.4212 104.32 98.834 104.32C100.165 104.32 101.295 104.544 102.225 104.99C103.154 105.437 103.861 106.07 104.344 106.891C104.836 107.711 105.082 108.682 105.082 109.803C105.082 110.423 104.982 111.038 104.781 111.648C104.581 112.259 104.294 112.87 103.92 113.48C103.555 114.082 103.122 114.688 102.621 115.299C102.12 115.9 101.568 116.511 100.967 117.131L96.6602 121.875H105.848ZM122.201 117.404V120.029H107.845L107.736 118.047L116.322 104.594H118.961L116.103 109.488L111.168 117.404H122.201ZM119.713 104.594V124.5H116.418V104.594H119.713Z" fill="black" fill-opacity="0.54"/>
<path d="M153.916 133.137V141H152.922V134.377L150.918 135.108V134.211L153.76 133.137H153.916ZM161.997 136.467V137.659C161.997 138.3 161.939 138.841 161.825 139.281C161.71 139.722 161.545 140.076 161.331 140.345C161.116 140.613 160.856 140.808 160.552 140.93C160.251 141.048 159.911 141.107 159.531 141.107C159.23 141.107 158.953 141.07 158.699 140.995C158.444 140.919 158.215 140.799 158.011 140.635C157.811 140.466 157.639 140.248 157.496 139.979C157.352 139.711 157.243 139.385 157.168 139.002C157.093 138.619 157.055 138.171 157.055 137.659V136.467C157.055 135.826 157.112 135.289 157.227 134.855C157.345 134.422 157.512 134.075 157.727 133.813C157.941 133.549 158.199 133.359 158.5 133.244C158.804 133.13 159.145 133.072 159.521 133.072C159.825 133.072 160.104 133.11 160.358 133.185C160.616 133.257 160.845 133.373 161.046 133.534C161.246 133.692 161.417 133.903 161.556 134.168C161.699 134.429 161.809 134.75 161.884 135.129C161.959 135.509 161.997 135.955 161.997 136.467ZM160.998 137.82V136.3C160.998 135.949 160.976 135.641 160.933 135.376C160.894 135.108 160.835 134.879 160.756 134.689C160.677 134.499 160.577 134.345 160.455 134.227C160.337 134.109 160.199 134.023 160.042 133.969C159.888 133.912 159.714 133.883 159.521 133.883C159.284 133.883 159.075 133.928 158.892 134.018C158.709 134.104 158.556 134.241 158.43 134.431C158.308 134.621 158.215 134.87 158.151 135.178C158.086 135.486 158.054 135.86 158.054 136.3V137.82C158.054 138.171 158.074 138.481 158.113 138.75C158.156 139.018 158.219 139.251 158.301 139.448C158.384 139.641 158.484 139.8 158.602 139.926C158.72 140.051 158.856 140.144 159.01 140.205C159.168 140.262 159.341 140.291 159.531 140.291C159.775 140.291 159.988 140.244 160.17 140.151C160.353 140.058 160.505 139.913 160.627 139.716C160.752 139.516 160.845 139.26 160.906 138.948C160.967 138.633 160.998 138.257 160.998 137.82ZM168.434 136.467V137.659C168.434 138.3 168.377 138.841 168.262 139.281C168.148 139.722 167.983 140.076 167.768 140.345C167.553 140.613 167.294 140.808 166.989 140.93C166.688 141.048 166.348 141.107 165.969 141.107C165.668 141.107 165.39 141.07 165.136 140.995C164.882 140.919 164.653 140.799 164.449 140.635C164.248 140.466 164.076 140.248 163.933 139.979C163.79 139.711 163.681 139.385 163.605 139.002C163.53 138.619 163.493 138.171 163.493 137.659V136.467C163.493 135.826 163.55 135.289 163.665 134.855C163.783 134.422 163.949 134.075 164.164 133.813C164.379 133.549 164.637 133.359 164.938 133.244C165.242 133.13 165.582 133.072 165.958 133.072C166.262 133.072 166.542 133.11 166.796 133.185C167.054 133.257 167.283 133.373 167.483 133.534C167.684 133.692 167.854 133.903 167.994 134.168C168.137 134.429 168.246 134.75 168.321 135.129C168.396 135.509 168.434 135.955 168.434 136.467ZM167.435 137.82V136.3C167.435 135.949 167.414 135.641 167.371 135.376C167.331 135.108 167.272 134.879 167.193 134.689C167.115 134.499 167.014 134.345 166.893 134.227C166.774 134.109 166.637 134.023 166.479 133.969C166.325 133.912 166.151 133.883 165.958 133.883C165.722 133.883 165.512 133.928 165.33 134.018C165.147 134.104 164.993 134.241 164.868 134.431C164.746 134.621 164.653 134.87 164.588 135.178C164.524 135.486 164.492 135.86 164.492 136.3V137.82C164.492 138.171 164.511 138.481 164.551 138.75C164.594 139.018 164.656 139.251 164.739 139.448C164.821 139.641 164.921 139.8 165.04 139.926C165.158 140.051 165.294 140.144 165.448 140.205C165.605 140.262 165.779 140.291 165.969 140.291C166.212 140.291 166.425 140.244 166.608 140.151C166.791 140.058 166.943 139.913 167.064 139.716C167.19 139.516 167.283 139.26 167.344 138.948C167.405 138.633 167.435 138.257 167.435 137.82Z" fill="#2196F3"/>
<path d="M54.5591 136.467V137.659C54.5591 138.3 54.5018 138.841 54.3872 139.281C54.2726 139.722 54.1079 140.076 53.8931 140.345C53.6782 140.613 53.4186 140.808 53.1143 140.93C52.8135 141.048 52.4733 141.107 52.0938 141.107C51.793 141.107 51.5155 141.07 51.2612 140.995C51.007 140.919 50.7778 140.799 50.5737 140.635C50.3732 140.466 50.2013 140.248 50.0581 139.979C49.9149 139.711 49.8057 139.385 49.7305 139.002C49.6553 138.619 49.6177 138.171 49.6177 137.659V136.467C49.6177 135.826 49.675 135.289 49.7896 134.855C49.9077 134.422 50.0742 134.075 50.2891 133.813C50.5039 133.549 50.7617 133.359 51.0625 133.244C51.3669 133.13 51.707 133.072 52.083 133.072C52.3874 133.072 52.6667 133.11 52.9209 133.185C53.1787 133.257 53.4079 133.373 53.6084 133.534C53.8089 133.692 53.979 133.903 54.1187 134.168C54.2619 134.429 54.3711 134.75 54.4463 135.129C54.5215 135.509 54.5591 135.955 54.5591 136.467ZM53.5601 137.82V136.3C53.5601 135.949 53.5386 135.641 53.4956 135.376C53.4562 135.108 53.3971 134.879 53.3184 134.689C53.2396 134.499 53.1393 134.345 53.0176 134.227C52.8994 134.109 52.7616 134.023 52.604 133.969C52.45 133.912 52.2764 133.883 52.083 133.883C51.8467 133.883 51.6372 133.928 51.4546 134.018C51.272 134.104 51.118 134.241 50.9927 134.431C50.8709 134.621 50.7778 134.87 50.7134 135.178C50.6489 135.486 50.6167 135.86 50.6167 136.3V137.82C50.6167 138.171 50.6364 138.481 50.6758 138.75C50.7188 139.018 50.7814 139.251 50.8638 139.448C50.9461 139.641 51.0464 139.8 51.1646 139.926C51.2827 140.051 51.4188 140.144 51.5728 140.205C51.7303 140.262 51.904 140.291 52.0938 140.291C52.3372 140.291 52.5503 140.244 52.7329 140.151C52.9155 140.058 53.0677 139.913 53.1895 139.716C53.3148 139.516 53.4079 139.26 53.4688 138.948C53.5296 138.633 53.5601 138.257 53.5601 137.82Z" fill="#2196F3"/>
</g>
<defs>
<filter id="filter0_d_3154_417028" x="0" y="0" width="213" height="213" filterUnits="userSpaceOnUse" color-interpolation-filters="sRGB">
<feFlood flood-opacity="0" result="BackgroundImageFix"/>
<feColorMatrix in="SourceAlpha" type="matrix" values="0 0 0 0 0 0 0 0 0 0 0 0 0 0 0 0 0 0 127 0" result="hardAlpha"/>
<feOffset dy="4"/>
<feGaussianBlur stdDeviation="4"/>
<feComposite in2="hardAlpha" operator="out"/>
<feColorMatrix type="matrix" values="0 0 0 0 0 0 0 0 0 0 0 0 0 0 0 0 0 0 0.08 0"/>
<feBlend mode="normal" in2="BackgroundImageFix" result="effect1_dropShadow_3154_417028"/>
<feBlend mode="normal" in="SourceGraphic" in2="effect1_dropShadow_3154_417028" result="shape"/>
</filter>
<filter id="filter1_b_3154_417028" x="14" y="10" width="185" height="185" filterUnits="userSpaceOnUse" color-interpolation-filters="sRGB">
<feFlood flood-opacity="0" result="BackgroundImageFix"/>
<feGaussianBlur in="BackgroundImageFix" stdDeviation="3"/>
<feComposite in2="SourceAlpha" operator="in" result="effect1_backgroundBlur_3154_417028"/>
<feBlend mode="normal" in="SourceGraphic" in2="effect1_backgroundBlur_3154_417028" result="shape"/>
</filter>
</defs>
</svg>
