<svg xmlns="http://www.w3.org/2000/svg" xmlns:tb="https://thingsboard.io/svg" width="1e3" height="1200" fill="none" version="1.1" viewBox="0 0 1e3 1200"><tb:metadata xmlns=""><![CDATA[{
  "title": "HP Crane",
  "description": "Crane with various states.",
  "searchTags": [
    "crane"
  ],
  "widgetSizeX": 5,
  "widgetSizeY": 6,
  "tags": [
    {
      "tag": "background",
      "stateRenderFunction": "var color = ctx.properties.stoppedColor;\nif (ctx.values.running) {\n    color = ctx.properties.runningColor;\n}\nelement.attr({fill: color});",
      "actions": null
    },
    {
      "tag": "clickArea",
      "stateRenderFunction": null,
      "actions": {
        "click": {
          "actionFunction": "ctx.api.callAction(event, 'click');"
        }
      }
    },
    {
      "tag": "critical",
      "stateRenderFunction": "element.attr({fill: ctx.properties.criticalColor});\nif (ctx.values.critical) {\n    element.show();\n} else {\n    element.hide();\n}\n\nvar elementCriticalAnimation = element.remember('criticalAnimation');\nvar criticalAnimation = ctx.values.critical && ctx.values.criticalAnimation;\n\nif (elementCriticalAnimation !== criticalAnimation) {\n    element.remember('criticalAnimation', criticalAnimation);\n    if (criticalAnimation) {\n        ctx.api.cssAnimate(element, 500).attr({opacity: 0.15}).loop(0, true);\n    } else {\n        ctx.api.resetCssAnimation(element);\n    }\n}\n\n",
      "actions": {
        "click": {
          "actionFunction": "ctx.api.callAction(event, 'criticalClick');"
        }
      }
    },
    {
      "tag": "warning",
      "stateRenderFunction": "element.attr({fill: ctx.properties.warningColor});\nvar warning = ctx.values.warning && !(ctx.values.warning && ctx.values.critical)\nif (warning) {\n    element.show();\n} else {\n    element.hide();\n}\n\nvar elementCriticalAnimation = element.remember('criticalAnimation');\nvar criticalAnimation = warning && ctx.values.criticalAnimation;\n\nif (elementCriticalAnimation !== criticalAnimation) {\n    element.remember('criticalAnimation', criticalAnimation);\n    if (criticalAnimation) {\n        ctx.api.cssAnimate(element, 500).attr({opacity: 0.15}).loop(0, true);\n    } else {\n        ctx.api.resetCssAnimation(element);\n    }\n}\n",
      "actions": {
        "click": {
          "actionFunction": "ctx.api.callAction(event, 'warningClick');"
        }
      }
    }
  ],
  "behavior": [
    {
      "id": "running",
      "name": "{i18n:scada.symbol.running}",
      "hint": "{i18n:scada.symbol.running-hint}",
      "group": null,
      "type": "value",
      "valueType": "BOOLEAN",
      "trueLabel": null,
      "falseLabel": null,
      "stateLabel": "{i18n:scada.symbol.running}",
      "defaultGetValueSettings": {
        "action": "GET_ATTRIBUTE",
        "defaultValue": false,
        "executeRpc": {
          "method": "getState",
          "requestTimeout": 5000,
          "requestPersistent": false,
          "persistentPollingInterval": 1000
        },
        "getAttribute": {
          "scope": "SHARED_SCOPE",
          "key": "running"
        },
        "getTimeSeries": {
          "key": "state"
        },
        "getAlarmStatus": {
          "severityList": null,
          "typeList": null
        },
        "dataToValue": {
          "type": "NONE",
          "dataToValueFunction": "/* Should return boolean value */\nreturn data;",
          "compareToValue": true
        }
      },
      "defaultSetValueSettings": null,
      "defaultWidgetActionSettings": null
    },
    {
      "id": "warning",
      "name": "{i18n:scada.symbol.warning}",
      "hint": "{i18n:scada.symbol.warning-state-hint}",
      "group": "{i18n:scada.symbol.warning-state}",
      "type": "value",
      "valueType": "BOOLEAN",
      "trueLabel": null,
      "falseLabel": null,
      "stateLabel": "{i18n:scada.symbol.warning}",
      "defaultGetValueSettings": {
        "action": "GET_ALARM_STATUS",
        "defaultValue": false,
        "executeRpc": {
          "method": "getState",
          "requestTimeout": 5000,
          "requestPersistent": false,
          "persistentPollingInterval": 1000
        },
        "getAttribute": {
          "scope": null,
          "key": "state"
        },
        "getTimeSeries": {
          "key": "state"
        },
        "getAlarmStatus": {
          "severityList": [
            "MAJOR",
            "MINOR",
            "WARNING",
            "INDETERMINATE"
          ],
          "typeList": null
        },
        "dataToValue": {
          "type": "NONE",
          "dataToValueFunction": "/* Should return boolean value */\nreturn data;",
          "compareToValue": true
        }
      },
      "defaultSetValueSettings": null,
      "defaultWidgetActionSettings": null
    },
    {
      "id": "warningClick",
      "name": "{i18n:scada.symbol.warning-click}",
      "hint": "{i18n:scada.symbol.on-click-hint}",
      "group": "{i18n:scada.symbol.warning-state}",
      "type": "widgetAction",
      "valueType": "BOOLEAN",
      "trueLabel": null,
      "falseLabel": null,
      "stateLabel": null,
      "defaultGetValueSettings": null,
      "defaultSetValueSettings": null,
      "defaultWidgetActionSettings": {
        "type": "doNothing",
        "targetDashboardStateId": null,
        "openRightLayout": false,
        "setEntityId": false,
        "stateEntityParamName": null
      }
    },
    {
      "id": "critical",
      "name": "{i18n:scada.symbol.critical}",
      "hint": "{i18n:scada.symbol.critical-state-hint}",
      "group": "{i18n:scada.symbol.critical-state}",
      "type": "value",
      "valueType": "BOOLEAN",
      "trueLabel": null,
      "falseLabel": null,
      "stateLabel": "{i18n:scada.symbol.critical}",
      "defaultGetValueSettings": {
        "action": "GET_ALARM_STATUS",
        "defaultValue": false,
        "executeRpc": {
          "method": "getState",
          "requestTimeout": 5000,
          "requestPersistent": false,
          "persistentPollingInterval": 1000
        },
        "getAttribute": {
          "scope": null,
          "key": "state"
        },
        "getTimeSeries": {
          "key": "state"
        },
        "getAlarmStatus": {
          "severityList": [
            "CRITICAL"
          ],
          "typeList": null
        },
        "dataToValue": {
          "type": "NONE",
          "dataToValueFunction": "/* Should return boolean value */\nreturn data;",
          "compareToValue": true
        }
      },
      "defaultSetValueSettings": null,
      "defaultWidgetActionSettings": null
    },
    {
      "id": "criticalClick",
      "name": "{i18n:scada.symbol.critical-click}",
      "hint": "{i18n:scada.symbol.on-click-hint}",
      "group": "{i18n:scada.symbol.critical-state}",
      "type": "widgetAction",
      "valueType": "BOOLEAN",
      "trueLabel": null,
      "falseLabel": null,
      "stateLabel": null,
      "defaultGetValueSettings": null,
      "defaultSetValueSettings": null,
      "defaultWidgetActionSettings": {
        "type": "doNothing",
        "targetDashboardStateId": null,
        "openRightLayout": false,
        "setEntityId": false,
        "stateEntityParamName": null
      }
    },
    {
      "id": "criticalAnimation",
      "name": "{i18n:scada.symbol.warning-critical-state-animation}",
      "hint": "{i18n:scada.symbol.warning-critical-state-animation-hint}",
      "group": null,
      "type": "value",
      "valueType": "BOOLEAN",
      "trueLabel": null,
      "falseLabel": null,
      "stateLabel": "{i18n:scada.symbol.animation}",
      "defaultGetValueSettings": {
        "action": "DO_NOTHING",
        "defaultValue": false,
        "executeRpc": {
          "method": "getState",
          "requestTimeout": 5000,
          "requestPersistent": false,
          "persistentPollingInterval": 1000
        },
        "getAttribute": {
          "key": "state",
          "scope": null
        },
        "getTimeSeries": {
          "key": "state"
        },
        "dataToValue": {
          "type": "NONE",
          "compareToValue": true,
          "dataToValueFunction": "/* Should return boolean value */\nreturn data;"
        }
      },
      "defaultSetValueSettings": null,
      "defaultWidgetActionSettings": null
    },
    {
      "id": "click",
      "name": "{i18n:scada.symbol.on-click}",
      "hint": "{i18n:scada.symbol.on-click-hint}",
      "group": null,
      "type": "widgetAction",
      "valueType": "BOOLEAN",
      "trueLabel": null,
      "falseLabel": null,
      "stateLabel": null,
      "defaultGetValueSettings": null,
      "defaultSetValueSettings": null,
      "defaultWidgetActionSettings": {
        "type": "doNothing",
        "targetDashboardStateId": null,
        "openRightLayout": false,
        "setEntityId": false,
        "stateEntityParamName": null
      }
    }
  ],
  "properties": [
    {
      "id": "runningColor",
      "name": "{i18n:scada.symbol.colors}",
      "type": "color",
      "default": "#FFFFFF",
      "required": null,
      "subLabel": "{i18n:scada.symbol.running}",
      "divider": true,
      "fieldSuffix": null,
      "disableOnProperty": null,
      "rowClass": "",
      "fieldClass": "",
      "min": null,
      "max": null,
      "step": null
    },
    {
      "id": "stoppedColor",
      "name": "{i18n:scada.symbol.colors}",
      "type": "color",
      "default": "#666666",
      "required": null,
      "subLabel": "{i18n:scada.symbol.stopped}",
      "divider": null,
      "fieldSuffix": null,
      "disableOnProperty": null,
      "rowClass": "",
      "fieldClass": "",
      "min": null,
      "max": null,
      "step": null
    },
    {
      "id": "warningColor",
      "name": "{i18n:scada.symbol.alarm-colors}",
      "type": "color",
      "default": "#FAA405",
      "required": null,
      "subLabel": "{i18n:scada.symbol.warning}",
      "divider": true,
      "fieldSuffix": null,
      "disableOnProperty": null,
      "rowClass": "",
      "fieldClass": "",
      "min": null,
      "max": null,
      "step": null
    },
    {
      "id": "criticalColor",
      "name": "{i18n:scada.symbol.alarm-colors}",
      "type": "color",
      "default": "#D12730",
      "required": null,
      "subLabel": "{i18n:scada.symbol.critical}",
      "divider": null,
      "fieldSuffix": null,
      "disableOnProperty": null,
      "rowClass": "",
      "fieldClass": "",
      "min": null,
      "max": null,
      "step": null
    }
  ]
}]]></tb:metadata>
<g fill="#fff" stroke="#1a1a1a" stroke-width="2" tb:tag="background">
  <path d="m999 1101h-518v98h518z"/>
  <path d="m89 301h-88v38h88z"/>
  <path d="m38.637 353.25c1.8257-2.795 3.0211-5.169 3.5801-7.616 0.4834-2.115 0.4778-4.225 0.0646-6.636h22.765c0.4236 2.76 0.5531 8.434-2.4543 17.437-1.0074 3.015-3.2478 5.918-6.1765 8.829-2.4452 2.43-5.2981 4.799-8.1981 7.207-0.57 0.473-1.1418 0.948-1.7126 1.425-3.4492 2.882-6.8589 5.843-9.4634 8.969s-4.4841 6.511-4.7352 10.25c-0.4781 7.123 1.5349 12.183 4.5904 15.755 3.0323 3.545 7.0211 5.546 10.381 6.711 2.6292 0.911 7.97 1.542 12.913-0.172 2.4934-0.865 4.9095-2.335 6.8093-4.687 1.9017-2.355 3.2394-5.537 3.6645-9.748 0.2685-2.66 0.4677-4.993 0.639-7.001 0.0914-1.07 0.1749-2.048 0.2566-2.933 0.2394-2.589 0.4634-4.351 0.8094-5.493 0.345-1.138 0.6919-1.294 0.9494-1.334 0.2122-0.033 0.5457-0.012 1.0684 0.146 0.5169 0.156 1.1513 0.424 1.9388 0.814 8.6238 4.272 11.837 11.217 12.524 18.027 0.6932 6.867-1.1952 13.571-2.7777 17.098-6.6047 14.722-20.145 23.7-37.326 23.7-10.333 0-18.218-1.819-24.553-5.103-6.3316-3.283-11.186-8.065-15.404-14.105-3.3703-4.826-6.7534-12.808-7.5927-21.713-0.83751-8.887 0.86149-18.628 7.5566-27.085 6.2949-7.951 12.501-11.818 17.718-14.561 0.9365-0.492 1.8598-0.957 2.7531-1.407 1.5646-0.788 3.0372-1.53 4.3284-2.291 2.0627-1.216 3.8384-2.576 5.0837-4.483z"/>
 </g><path d="m559.64 1101-515.24-1098.3 341.87 221.97 538.94 876.28z" stroke="#1a1a1a" stroke-width="2"/><path d="m148 225h237" stroke="#1a1a1a" stroke-width="2"/><path d="m249 438h269" stroke="#1a1a1a" stroke-width="2"/><path d="m362 680h304" stroke="#1a1a1a" stroke-width="2"/><path d="m491 955h344" stroke="#1a1a1a" stroke-width="2"/><path d="m249 437.92 136.32-212.92" stroke="#1a1a1a" stroke-width="2"/><path d="m362 680.92 155.32-242.92" stroke="#1a1a1a" stroke-width="1.9997"/><path d="m492 954.92 175.31-274.92" stroke="#1a1a1a" stroke-width="2.0018"/><path d="m44 2v299" stroke="#1a1a1a" stroke-width="2"/><path d="m336.32 0s-336.32 0-336.32 201v985.08c0 7.9536 8.9545 13.921 20 13.921h960c11.045 0 20-5.9676 20-13.921v-985.08c0-201-330.35-201-330.35-201h-169.65zm335.35 243.6c-6.4435 0-11.667 3.7608-11.667 8.4v901.2c0 4.6392 5.2235 8.4 11.667 8.4h73.33c6.4435 0 11.667-3.7608 11.667-8.4v-901.2c0-4.6392-5.2235-8.4-11.667-8.4z" fill="#000" fill-opacity="0" tb:tag="clickArea"/><g fill="#d12730" style="display: none;" tb:tag="critical">
  <rect width="84" height="84" rx="4" fill="#fff" style=""/>
  <rect width="84" height="84" rx="4" style=""/>
  <rect x="2" y="2" width="80" height="80" rx="2" stroke="#000" stroke-opacity=".87" stroke-width="4" style=""/>
  <path d="m44.559 27.562-0.4688 20.059h-4.0234l-0.4883-20.059zm-5.1172 26.211c0-0.7161 0.2344-1.3151 0.7031-1.7968 0.4818-0.4948 1.1459-0.7422 1.9922-0.7422 0.8334 0 1.4909 0.2474 1.9727 0.7422 0.4817 0.4817 0.7226 1.0807 0.7226 1.7968 0 0.6901-0.2409 1.2826-0.7226 1.7774-0.4818 0.4818-1.1393 0.7226-1.9727 0.7226-0.8463 0-1.5104-0.2408-1.9922-0.7226-0.4687-0.4948-0.7031-1.0873-0.7031-1.7774z" fill="#000" fill-opacity=".87" style=""/>
 </g><g fill="#faa405" style="display: none;" tb:tag="warning">
  <path d="m38.422 7.1554c1.4741-2.9482 5.6813-2.9482 7.1554 0l35.528 71.056c1.3298 2.6596-0.6042 5.7889-3.5777 5.7889h-71.056c-2.9735 0-4.9075-3.1292-3.5777-5.7889z" fill="#fff" style=""/>
  <path d="m38.422 7.1554c1.4741-2.9482 5.6813-2.9482 7.1554 0l35.528 71.056c1.3298 2.6596-0.6042 5.7889-3.5777 5.7889h-71.056c-2.9735 0-4.9075-3.1292-3.5777-5.7889z" style=""/>
  <path d="m40.211 8.0498c0.7371-1.4741 2.8407-1.4741 3.5778-1e-5l35.528 71.056c0.6649 1.3298-0.3021 2.8944-1.7888 2.8944h-71.056c-1.4868 0-2.4538-1.5646-1.7889-2.8944z" stroke="#000" stroke-opacity=".87" stroke-width="4" style=""/>
  <path d="m44.559 37.562-0.4688 20.059h-4.0234l-0.4883-20.059zm-5.1172 26.211c0-0.7161 0.2344-1.3151 0.7031-1.7968 0.4818-0.4948 1.1459-0.7422 1.9922-0.7422 0.8334 0 1.4909 0.2474 1.9727 0.7422 0.4817 0.4817 0.7226 1.0807 0.7226 1.7968 0 0.6901-0.2409 1.2826-0.7226 1.7774-0.4818 0.4818-1.1393 0.7226-1.9727 0.7226-0.8463 0-1.5104-0.2408-1.9922-0.7226-0.4687-0.4948-0.7031-1.0873-0.7031-1.7774z" fill="#000" fill-opacity=".87" style=""/>
 </g>
</svg>