<svg xmlns="http://www.w3.org/2000/svg" xmlns:tb="https://thingsboard.io/svg" width="280" height="168" viewBox="0 0 280 168" fill="none">
<tb:metadata xmlns=""><![CDATA[{
  "title": "Horizontal tank with screen",
  "widgetSizeX": 5,
  "widgetSizeY": 3,
  "tags": [],
  "behavior": [],
  "properties": []
}]]></tb:metadata><path d="M55 168C-7.62939e-06 168 0 111.5 0 111.5L0 84L0 55.5C0 55.5 0 1.52588e-05 55 1.52588e-05C98.4236 1.52588e-05 213.531 1.52588e-05 260.063 1.52588e-05C271.109 1.52588e-05 280 8.95432 280 20V148C280 159.046 271.109 168 260.063 168C213.531 168 98.4236 168 55 168Z" fill="url(#paint0_linear_830_79686)"/><path d="M55 168C-7.62939e-06 168 0 111.5 0 111.5L0 84L0 55.5C0 55.5 0 1.52588e-05 55 1.52588e-05C98.4236 1.52588e-05 213.531 1.52588e-05 260.063 1.52588e-05C271.109 1.52588e-05 280 8.95432 280 20V148C280 159.046 271.109 168 260.063 168C213.531 168 98.4236 168 55 168Z" fill="url(#paint1_linear_830_79686)" fill-opacity="0.2"/><rect x="57.5" y="167.5" width="3" height="167" transform="rotate(-180 57.5 167.5)" fill="#D9D9D9" stroke="#727171"/><rect x="111.5" y="36.5" width="57" height="15" rx="1.5" fill="#F3F3F3"/><rect x="111.5" y="36.5" width="57" height="15" rx="1.5" stroke="#7D7D7D"/><path d="M126.234 41.3008V47H125.109V42.5977L123.757 43.0273V42.1406L126.113 41.3008H126.234ZM131.083 41.2539H131.247V42.1523H131.181C130.884 42.1523 130.619 42.1966 130.388 42.2852C130.156 42.3737 129.959 42.5 129.798 42.6641C129.639 42.8255 129.517 43.0208 129.431 43.25C129.347 43.4792 129.306 43.7357 129.306 44.0195V44.9648C129.306 45.168 129.325 45.3477 129.364 45.5039C129.406 45.6576 129.464 45.7865 129.54 45.8906C129.618 45.9922 129.709 46.069 129.813 46.1211C129.918 46.1706 130.035 46.1953 130.165 46.1953C130.287 46.1953 130.398 46.1693 130.497 46.1172C130.599 46.0651 130.685 45.9922 130.755 45.8984C130.828 45.8021 130.882 45.6901 130.919 45.5625C130.958 45.4323 130.977 45.2904 130.977 45.1367C130.977 44.9831 130.958 44.8411 130.919 44.7109C130.882 44.5807 130.828 44.4688 130.755 44.375C130.682 44.2786 130.593 44.2044 130.489 44.1523C130.385 44.1003 130.268 44.0742 130.138 44.0742C129.961 44.0742 129.804 44.1159 129.669 44.1992C129.536 44.2799 129.432 44.3841 129.356 44.5117C129.281 44.6393 129.241 44.7734 129.235 44.9141L128.895 44.6953C128.903 44.4948 128.945 44.3047 129.02 44.125C129.099 43.9453 129.205 43.7865 129.341 43.6484C129.479 43.5078 129.644 43.3984 129.837 43.3203C130.03 43.2396 130.247 43.1992 130.489 43.1992C130.755 43.1992 130.988 43.25 131.188 43.3516C131.392 43.4531 131.561 43.5924 131.696 43.7695C131.832 43.9466 131.933 44.151 132.001 44.3828C132.069 44.6146 132.102 44.862 132.102 45.125C132.102 45.401 132.057 45.6576 131.966 45.8945C131.877 46.1315 131.748 46.3385 131.579 46.5156C131.412 46.6927 131.212 46.8307 130.977 46.9297C130.743 47.0286 130.48 47.0781 130.188 47.0781C129.886 47.0781 129.612 47.0234 129.364 46.9141C129.119 46.8021 128.908 46.6458 128.731 46.4453C128.554 46.2448 128.418 46.0065 128.321 45.7305C128.227 45.4544 128.181 45.1523 128.181 44.8242V44.3867C128.181 43.9284 128.247 43.5091 128.38 43.1289C128.515 42.7461 128.709 42.4154 128.962 42.1367C129.214 41.8555 129.519 41.638 129.876 41.4844C130.233 41.3307 130.635 41.2539 131.083 41.2539ZM135.772 41.2539H135.936V42.1523H135.87C135.573 42.1523 135.308 42.1966 135.077 42.2852C134.845 42.3737 134.648 42.5 134.487 42.6641C134.328 42.8255 134.206 43.0208 134.12 43.25C134.036 43.4792 133.995 43.7357 133.995 44.0195V44.9648C133.995 45.168 134.014 45.3477 134.053 45.5039C134.095 45.6576 134.153 45.7865 134.229 45.8906C134.307 45.9922 134.398 46.069 134.502 46.1211C134.607 46.1706 134.724 46.1953 134.854 46.1953C134.976 46.1953 135.087 46.1693 135.186 46.1172C135.288 46.0651 135.374 45.9922 135.444 45.8984C135.517 45.8021 135.571 45.6901 135.608 45.5625C135.647 45.4323 135.666 45.2904 135.666 45.1367C135.666 44.9831 135.647 44.8411 135.608 44.7109C135.571 44.5807 135.517 44.4688 135.444 44.375C135.371 44.2786 135.282 44.2044 135.178 44.1523C135.074 44.1003 134.957 44.0742 134.827 44.0742C134.65 44.0742 134.493 44.1159 134.358 44.1992C134.225 44.2799 134.121 44.3841 134.045 44.5117C133.97 44.6393 133.93 44.7734 133.924 44.9141L133.584 44.6953C133.592 44.4948 133.634 44.3047 133.709 44.125C133.788 43.9453 133.894 43.7865 134.03 43.6484C134.168 43.5078 134.333 43.3984 134.526 43.3203C134.719 43.2396 134.936 43.1992 135.178 43.1992C135.444 43.1992 135.677 43.25 135.877 43.3516C136.081 43.4531 136.25 43.5924 136.385 43.7695C136.521 43.9466 136.622 44.151 136.69 44.3828C136.758 44.6146 136.791 44.862 136.791 45.125C136.791 45.401 136.746 45.6576 136.655 45.8945C136.566 46.1315 136.437 46.3385 136.268 46.5156C136.101 46.6927 135.901 46.8307 135.666 46.9297C135.432 47.0286 135.169 47.0781 134.877 47.0781C134.575 47.0781 134.301 47.0234 134.053 46.9141C133.808 46.8021 133.597 46.6458 133.42 46.4453C133.243 46.2448 133.107 46.0065 133.01 45.7305C132.916 45.4544 132.87 45.1523 132.87 44.8242V44.3867C132.87 43.9284 132.936 43.5091 133.069 43.1289C133.204 42.7461 133.398 42.4154 133.651 42.1367C133.903 41.8555 134.208 41.638 134.565 41.4844C134.922 41.3307 135.324 41.2539 135.772 41.2539ZM141.387 43.6562V44.6406C141.387 45.0677 141.341 45.4362 141.25 45.7461C141.159 46.0534 141.027 46.306 140.855 46.5039C140.686 46.6992 140.484 46.8438 140.25 46.9375C140.016 47.0312 139.755 47.0781 139.469 47.0781C139.24 47.0781 139.026 47.0495 138.828 46.9922C138.63 46.9323 138.452 46.8398 138.293 46.7148C138.137 46.5898 138.001 46.4323 137.887 46.2422C137.775 46.0495 137.689 45.8203 137.629 45.5547C137.569 45.2891 137.539 44.9844 137.539 44.6406V43.6562C137.539 43.2292 137.585 42.8633 137.676 42.5586C137.77 42.2513 137.901 42 138.07 41.8047C138.242 41.6094 138.445 41.4661 138.68 41.375C138.914 41.2812 139.174 41.2344 139.461 41.2344C139.69 41.2344 139.902 41.2643 140.098 41.3242C140.296 41.3815 140.474 41.4714 140.633 41.5938C140.792 41.7161 140.927 41.8737 141.039 42.0664C141.151 42.2565 141.237 42.4844 141.297 42.75C141.357 43.013 141.387 43.3151 141.387 43.6562ZM140.258 44.7891V43.5039C140.258 43.2982 140.246 43.1185 140.223 42.9648C140.202 42.8112 140.169 42.681 140.125 42.5742C140.081 42.4648 140.026 42.3763 139.961 42.3086C139.896 42.2409 139.822 42.1914 139.738 42.1602C139.655 42.1289 139.562 42.1133 139.461 42.1133C139.333 42.1133 139.22 42.138 139.121 42.1875C139.025 42.237 138.943 42.3164 138.875 42.4258C138.807 42.5326 138.755 42.6758 138.719 42.8555C138.685 43.0326 138.668 43.2487 138.668 43.5039V44.7891C138.668 44.9948 138.678 45.1758 138.699 45.332C138.723 45.4883 138.757 45.6224 138.801 45.7344C138.848 45.8438 138.902 45.9336 138.965 46.0039C139.03 46.0716 139.104 46.1211 139.187 46.1523C139.273 46.1836 139.367 46.1992 139.469 46.1992C139.594 46.1992 139.704 46.1745 139.801 46.125C139.9 46.0729 139.983 45.9922 140.051 45.8828C140.121 45.7708 140.173 45.625 140.207 45.4453C140.241 45.2656 140.258 45.0469 140.258 44.7891ZM145.507 43.6484V47H144.378V42.7734H145.437L145.507 43.6484ZM145.351 44.7383H145.038C145.038 44.444 145.073 44.1732 145.144 43.9258C145.217 43.6758 145.322 43.4596 145.46 43.2773C145.601 43.0924 145.774 42.9492 145.98 42.8477C146.185 42.7461 146.424 42.6953 146.694 42.6953C146.882 42.6953 147.054 42.724 147.21 42.7812C147.366 42.8359 147.5 42.9232 147.612 43.043C147.727 43.1602 147.815 43.3138 147.878 43.5039C147.94 43.6914 147.972 43.9167 147.972 44.1797V47H146.847V44.3047C146.847 44.112 146.821 43.9635 146.769 43.8594C146.717 43.7552 146.642 43.6823 146.546 43.6406C146.452 43.599 146.339 43.5781 146.206 43.5781C146.06 43.5781 145.933 43.6081 145.823 43.668C145.717 43.7279 145.628 43.8112 145.558 43.918C145.487 44.0221 145.435 44.1445 145.401 44.2852C145.368 44.4258 145.351 44.5768 145.351 44.7383ZM147.866 44.6094L147.464 44.6602C147.464 44.3841 147.498 44.1276 147.565 43.8906C147.636 43.6536 147.739 43.4453 147.874 43.2656C148.012 43.0859 148.183 42.9466 148.386 42.8477C148.589 42.7461 148.823 42.6953 149.089 42.6953C149.292 42.6953 149.477 42.7253 149.644 42.7852C149.81 42.8424 149.952 42.9349 150.069 43.0625C150.189 43.1875 150.28 43.3516 150.343 43.5547C150.408 43.7578 150.44 44.0065 150.44 44.3008V47H149.312V44.3008C149.312 44.1055 149.286 43.957 149.233 43.8555C149.184 43.7513 149.111 43.6797 149.015 43.6406C148.921 43.599 148.809 43.5781 148.679 43.5781C148.543 43.5781 148.425 43.6055 148.323 43.6602C148.222 43.7122 148.137 43.7852 148.069 43.8789C148.002 43.9727 147.951 44.082 147.917 44.207C147.883 44.3294 147.866 44.4635 147.866 44.6094ZM152.532 43.6484V47H151.403V42.7734H152.461L152.532 43.6484ZM152.376 44.7383H152.063C152.063 44.444 152.098 44.1732 152.169 43.9258C152.241 43.6758 152.347 43.4596 152.485 43.2773C152.626 43.0924 152.799 42.9492 153.004 42.8477C153.21 42.7461 153.448 42.6953 153.719 42.6953C153.907 42.6953 154.079 42.724 154.235 42.7812C154.391 42.8359 154.525 42.9232 154.637 43.043C154.752 43.1602 154.84 43.3138 154.903 43.5039C154.965 43.6914 154.997 43.9167 154.997 44.1797V47H153.872V44.3047C153.872 44.112 153.846 43.9635 153.794 43.8594C153.741 43.7552 153.667 43.6823 153.571 43.6406C153.477 43.599 153.364 43.5781 153.231 43.5781C153.085 43.5781 152.958 43.6081 152.848 43.668C152.741 43.7279 152.653 43.8112 152.583 43.918C152.512 44.0221 152.46 44.1445 152.426 44.2852C152.392 44.4258 152.376 44.5768 152.376 44.7383ZM154.891 44.6094L154.489 44.6602C154.489 44.3841 154.523 44.1276 154.59 43.8906C154.661 43.6536 154.764 43.4453 154.899 43.2656C155.037 43.0859 155.208 42.9466 155.411 42.8477C155.614 42.7461 155.848 42.6953 156.114 42.6953C156.317 42.6953 156.502 42.7253 156.669 42.7852C156.835 42.8424 156.977 42.9349 157.094 43.0625C157.214 43.1875 157.305 43.3516 157.368 43.5547C157.433 43.7578 157.465 44.0065 157.465 44.3008V47H156.336V44.3008C156.336 44.1055 156.31 43.957 156.258 43.8555C156.209 43.7513 156.136 43.6797 156.04 43.6406C155.946 43.599 155.834 43.5781 155.704 43.5781C155.568 43.5781 155.45 43.6055 155.348 43.6602C155.247 43.7122 155.162 43.7852 155.094 43.8789C155.027 43.9727 154.976 44.082 154.942 44.207C154.908 44.3294 154.891 44.4635 154.891 44.6094Z" fill="black" fill-opacity="0.54"/><defs>
<linearGradient id="paint0_linear_830_79686" x1="153.243" y1="0.000115606" x2="153.243" y2="168" gradientUnits="userSpaceOnUse">
<stop stop-color="#727171"/>
<stop offset="0.504644" stop-color="#CACACA"/>
<stop offset="1" stop-color="#727171"/>
</linearGradient>
<linearGradient id="paint1_linear_830_79686" x1="228.919" y1="84" x2="280" y2="84" gradientUnits="userSpaceOnUse">
<stop stop-opacity="0"/>
<stop offset="1"/>
</linearGradient>
</defs>
</svg>