<svg xmlns="http://www.w3.org/2000/svg" xmlns:tb="https://thingsboard.io/svg" width="112" height="56" viewBox="0 0 112 56" fill="none">
<tb:metadata xmlns=""><![CDATA[{
  "title": "Horizontal faucet",
  "widgetSizeX": 2,
  "widgetSizeY": 1,
  "tags": [],
  "behavior": [],
  "properties": []
}]]></tb:metadata><rect x="0.5" y="14.5" width="3" height="27" rx="1.5" fill="#D9D9D9" stroke="#727171"/><path d="M4 8H12V48H4V8Z" fill="url(#paint0_linear_838_19478)"/><path d="M4.5 8.5H11.5V47.5H4.5V8.5Z" stroke="black" stroke-opacity="0.12"/><path d="M12 11H14C15.1046 11 16 11.8954 16 13V43C16 44.1046 15.1046 45 14 45H12V11Z" fill="url(#paint1_linear_838_19478)"/><path d="M12.5 11.5H14C14.8284 11.5 15.5 12.1716 15.5 13V43C15.5 43.8284 14.8284 44.5 14 44.5H12.5V11.5Z" stroke="black" stroke-opacity="0.12"/><path d="M16 41.75V28L16 14.25C16 14.25 27.8142 10.451 36 9.25C43.701 8.12008 56 8 56 8C56 8 68.299 8.12008 76 9.25C84.1081 10.4396 96 14.25 96 14.25V41.75C96 41.75 84.1858 45.549 76 46.75C68.299 47.8799 56 48 56 48C56 48 43.701 47.8799 36 46.75C27.8142 45.549 16 41.75 16 41.75Z" fill="url(#paint2_linear_838_19478)"/><path d="M16.6731 41.4385C16.6099 41.4187 16.5522 41.4005 16.5 41.3841V28L16.5 14.6159C16.5522 14.5995 16.6099 14.5813 16.6731 14.5615C17.0109 14.4557 17.5029 14.3031 18.1191 14.1161C19.3515 13.7421 21.08 13.2309 23.0636 12.6823C27.0359 11.5837 32.0115 10.3405 36.0726 9.7447C39.8962 9.18369 44.8747 8.87196 48.9091 8.70083C50.9238 8.61537 52.6984 8.56514 53.9693 8.53629C54.6047 8.52186 55.114 8.51278 55.4643 8.50731C55.6394 8.50457 55.7748 8.50274 55.8663 8.50158L55.9701 8.50035L55.9963 8.50006L55.9972 8.5H56.0028L56.0037 8.50006L56.0299 8.50035L56.1337 8.50158C56.1816 8.50219 56.2414 8.50298 56.3127 8.50398C56.3777 8.5049 56.4522 8.506 56.5357 8.50731C56.886 8.51278 57.3953 8.52186 58.0307 8.53629C59.3016 8.56514 61.0762 8.61537 63.0909 8.70083C67.1253 8.87196 72.1038 9.18369 75.9274 9.7447C79.9495 10.3348 84.9251 11.5779 88.9074 12.6781C90.8959 13.2274 92.6318 13.7397 93.8703 14.1146C94.4896 14.302 94.9844 14.4551 95.3241 14.5612C95.3884 14.5813 95.4471 14.5997 95.5 14.6163V41.3841C95.4478 41.4005 95.3901 41.4187 95.3269 41.4385C94.9891 41.5443 94.4971 41.6969 93.8809 41.8839C92.6485 42.2579 90.92 42.7691 88.9364 43.3177C84.9641 44.4163 79.9885 45.6594 75.9274 46.2553C72.1038 46.8163 67.1253 47.128 63.0909 47.2992C61.0762 47.3846 59.3016 47.4349 58.0307 47.4637C57.3953 47.4781 56.886 47.4872 56.5357 47.4927C56.3606 47.4954 56.2252 47.4973 56.1337 47.4984L56.0299 47.4997L56.0037 47.4999L56.0028 47.5H55.9972L55.9963 47.4999L55.9701 47.4997L55.8663 47.4984C55.7748 47.4973 55.6394 47.4954 55.4643 47.4927C55.114 47.4872 54.6047 47.4781 53.9693 47.4637C52.6984 47.4349 50.9238 47.3846 48.9091 47.2992C44.8747 47.128 39.8962 46.8163 36.0726 46.2553C32.0115 45.6594 27.0359 44.4163 23.0636 43.3177C21.08 42.7691 19.3515 42.2579 18.1191 41.8839C17.5029 41.6969 17.0109 41.5443 16.6731 41.4385Z" stroke="black" stroke-opacity="0.12"/><path d="M96 13C96 11.8954 96.8954 11 98 11H100V45H98C96.8954 45 96 44.1046 96 43V13Z" fill="url(#paint3_linear_838_19478)"/><path d="M96.5 13C96.5 12.1716 97.1716 11.5 98 11.5H99.5V44.5H98C97.1716 44.5 96.5 43.8284 96.5 43V13Z" stroke="black" stroke-opacity="0.12"/><path d="M100 8H108V48H100V8Z" fill="url(#paint4_linear_838_19478)"/><path d="M100.5 8.5H107.5V47.5H100.5V8.5Z" stroke="black" stroke-opacity="0.12"/><rect x="108.5" y="14.5" width="3" height="27" rx="1.5" fill="#D9D9D9" stroke="#727171"/><path d="M84.0002 28C84.0002 43.464 71.4642 56 56.0002 56C40.5363 56 28.0002 43.464 28.0002 28C28.0002 12.536 40.5363 0 56.0002 0C71.4642 0 84.0002 12.536 84.0002 28ZM34.9969 28C34.9969 39.5998 44.4004 49.0034 56.0002 49.0034C67.6001 49.0034 77.0036 39.5998 77.0036 28C77.0036 16.4002 67.6001 6.99664 56.0002 6.99664C44.4004 6.99664 34.9969 16.4002 34.9969 28Z" fill="url(#paint5_radial_838_19478)"/><path d="M54.2502 21C53.767 21 53.3752 20.6083 53.3752 20.125V6.99998C53.3752 6.03349 54.1587 5.25 55.1252 5.25H56.8753C57.8417 5.25 58.6252 6.03349 58.6252 6.99998V20.125C58.6252 20.6083 58.2335 21 57.7503 21H54.2502Z" fill="url(#paint6_linear_838_19478)"/><path d="M62.4353 24.7776C62.2639 24.3258 62.4913 23.8205 62.9431 23.6492L75.2151 18.9947C76.1188 18.652 77.1292 19.1067 77.472 20.0104L78.0926 21.6467C78.4353 22.5503 77.9806 23.5608 77.0769 23.9035L64.8049 28.558C64.3531 28.7293 63.8479 28.502 63.6765 28.0501L62.4353 24.7776Z" fill="url(#paint7_linear_838_19478)"/><path d="M53.3031 35.0356C53.6866 35.3296 53.7593 35.8788 53.4653 36.2624L45.4814 46.6798C44.8935 47.447 43.795 47.5922 43.0279 47.0043L41.6389 45.9398C40.8718 45.3519 40.7265 44.2534 41.3144 43.4863L49.2983 33.0688C49.5923 32.6853 50.1415 32.6126 50.5251 32.9066L53.3031 35.0356Z" fill="url(#paint8_linear_838_19478)"/><path d="M59.3195 35.0356C58.9359 35.3296 58.8633 35.8788 59.1573 36.2624L67.1411 46.6798C67.729 47.447 68.8275 47.5922 69.5946 47.0043L70.9836 45.9398C71.7508 45.3519 71.896 44.2534 71.3081 43.4863L63.3242 33.0688C63.0303 32.6853 62.481 32.6126 62.0975 32.9066L59.3195 35.0356Z" fill="url(#paint9_linear_838_19478)"/><path d="M48.5648 27.1732C48.4232 27.6352 47.9338 27.895 47.4718 27.7533L34.9231 23.9068C33.999 23.6235 33.4795 22.6448 33.7628 21.7207L34.2757 20.0476C34.5589 19.1235 35.5376 18.604 36.4617 18.8873L49.0104 22.7339C49.4724 22.8755 49.7322 23.3648 49.5905 23.8269L48.5648 27.1732Z" fill="url(#paint10_linear_838_19478)"/><g filter="url(#filter0_ii_838_19478)">
<circle cx="56.0003" cy="27.9999" r="8.4" fill="#D9D9D9"/>
</g><path d="M62.5335 28.0001C62.5335 31.6084 59.6084 34.5335 56.0001 34.5335C52.3919 34.5335 49.4668 31.6084 49.4668 28.0001C49.4668 24.3919 52.3919 21.4668 56.0001 21.4668C59.6084 21.4668 62.5335 24.3919 62.5335 28.0001Z" fill="black" fill-opacity="0.05"/><defs>
<filter id="filter0_ii_838_19478" x="46.7253" y="18.7249" width="18.55" height="18.55" filterUnits="userSpaceOnUse" color-interpolation-filters="sRGB">
<feFlood flood-opacity="0" result="BackgroundImageFix"/>
<feBlend mode="normal" in="SourceGraphic" in2="BackgroundImageFix" result="shape"/>
<feColorMatrix in="SourceAlpha" type="matrix" values="0 0 0 0 0 0 0 0 0 0 0 0 0 0 0 0 0 0 127 0" result="hardAlpha"/>
<feOffset dx="0.874992" dy="-0.874992"/>
<feGaussianBlur stdDeviation="0.874992"/>
<feComposite in2="hardAlpha" operator="arithmetic" k2="-1" k3="1"/>
<feColorMatrix type="matrix" values="0 0 0 0 0 0 0 0 0 0 0 0 0 0 0 0 0 0 0.5 0"/>
<feBlend mode="normal" in2="shape" result="effect1_innerShadow_838_19478"/>
<feColorMatrix in="SourceAlpha" type="matrix" values="0 0 0 0 0 0 0 0 0 0 0 0 0 0 0 0 0 0 127 0" result="hardAlpha"/>
<feOffset dx="-0.874992" dy="0.874992"/>
<feGaussianBlur stdDeviation="0.874992"/>
<feComposite in2="hardAlpha" operator="arithmetic" k2="-1" k3="1"/>
<feColorMatrix type="matrix" values="0 0 0 0 1 0 0 0 0 1 0 0 0 0 1 0 0 0 0.5 0"/>
<feBlend mode="normal" in2="effect1_innerShadow_838_19478" result="effect2_innerShadow_838_19478"/>
</filter>
<linearGradient id="paint0_linear_838_19478" x1="8" y1="8" x2="8" y2="48" gradientUnits="userSpaceOnUse">
<stop stop-color="#0054B7"/>
<stop offset="0.503638" stop-color="#77B6FF"/>
<stop offset="1" stop-color="#0054B7"/>
</linearGradient>
<linearGradient id="paint1_linear_838_19478" x1="14" y1="11" x2="14" y2="45" gradientUnits="userSpaceOnUse">
<stop stop-color="#0054B7"/>
<stop offset="0.503638" stop-color="#77B6FF"/>
<stop offset="1" stop-color="#0054B7"/>
</linearGradient>
<linearGradient id="paint2_linear_838_19478" x1="56" y1="48" x2="56" y2="7.99995" gradientUnits="userSpaceOnUse">
<stop stop-color="#0054B7"/>
<stop offset="0.503638" stop-color="#77B6FF"/>
<stop offset="1" stop-color="#0054B7"/>
</linearGradient>
<linearGradient id="paint3_linear_838_19478" x1="98" y1="11" x2="98" y2="45" gradientUnits="userSpaceOnUse">
<stop stop-color="#0054B7"/>
<stop offset="0.503638" stop-color="#77B6FF"/>
<stop offset="1" stop-color="#0054B7"/>
</linearGradient>
<linearGradient id="paint4_linear_838_19478" x1="104" y1="8" x2="104" y2="48" gradientUnits="userSpaceOnUse">
<stop stop-color="#0054B7"/>
<stop offset="0.503638" stop-color="#77B6FF"/>
<stop offset="1" stop-color="#0054B7"/>
</linearGradient>
<radialGradient id="paint5_radial_838_19478" cx="0" cy="0" r="1" gradientUnits="userSpaceOnUse" gradientTransform="translate(56.0002 28) rotate(90) scale(28)">
<stop stop-color="#727171"/>
<stop offset="0.75112" stop-color="#727171"/>
<stop offset="0.873009" stop-color="white"/>
<stop offset="1" stop-color="#727171"/>
</radialGradient>
<linearGradient id="paint6_linear_838_19478" x1="53.3752" y1="12.25" x2="58.6252" y2="12.25" gradientUnits="userSpaceOnUse">
<stop stop-color="#727171"/>
<stop offset="0.498292" stop-color="white"/>
<stop offset="1" stop-color="#727171"/>
</linearGradient>
<linearGradient id="paint7_linear_838_19478" x1="70.3063" y1="20.8565" x2="72.1681" y2="25.7653" gradientUnits="userSpaceOnUse">
<stop stop-color="#727171"/>
<stop offset="0.498292" stop-color="white"/>
<stop offset="1" stop-color="#727171"/>
</linearGradient>
<linearGradient id="paint8_linear_838_19478" x1="48.675" y1="42.5128" x2="44.508" y2="39.3193" gradientUnits="userSpaceOnUse">
<stop stop-color="#727171"/>
<stop offset="0.498292" stop-color="white"/>
<stop offset="1" stop-color="#727171"/>
</linearGradient>
<linearGradient id="paint9_linear_838_19478" x1="63.9476" y1="42.5128" x2="68.1146" y2="39.3193" gradientUnits="userSpaceOnUse">
<stop stop-color="#727171"/>
<stop offset="0.498292" stop-color="white"/>
<stop offset="1" stop-color="#727171"/>
</linearGradient>
<linearGradient id="paint10_linear_838_19478" x1="39.9426" y1="25.4454" x2="41.4812" y2="20.4259" gradientUnits="userSpaceOnUse">
<stop stop-color="#727171"/>
<stop offset="0.498292" stop-color="white"/>
<stop offset="1" stop-color="#727171"/>
</linearGradient>
</defs>
</svg>