<svg xmlns="http://www.w3.org/2000/svg" xmlns:tb="https://thingsboard.io/svg" width="56" height="56" viewBox="0 0 56 56" fill="none">
<tb:metadata xmlns=""><![CDATA[{
  "title": "Left bottom angle connector",
  "widgetSizeX": 1,
  "widgetSizeY": 1,
  "tags": [],
  "behavior": [],
  "properties": []
}]]></tb:metadata><rect x="4" y="18" width="14" height="20" fill="url(#paint0_linear_898_122896)"/><rect x="4.5" y="18.5" width="13" height="19" stroke="black" stroke-opacity="0.12"/><path d="M18 52V38H38V52H18Z" fill="url(#paint1_linear_898_122896)"/><path d="M18.5 51.5V38.5H37.5V51.5H18.5Z" stroke="black" stroke-opacity="0.12"/><rect x="0.5" y="14.5" width="3" height="27" rx="1.5" fill="#D9D9D9" stroke="#727171"/><rect x="14.5" y="55.5" width="3" height="27" rx="1.5" transform="rotate(-90 14.5 55.5)" fill="#D9D9D9" stroke="#727171"/><path d="M18 18C18 18 26.4772 18.4772 32 24C37.5228 29.5228 38 38 38 38H18V18Z" fill="url(#paint2_linear_898_122896)"/><path d="M18.5 37.5V18.5469C18.7196 18.5708 19.0022 18.6056 19.3373 18.6554C20.2009 18.7839 21.411 19.0118 22.7905 19.4094C25.5562 20.2064 28.9673 21.6744 31.6464 24.3536C34.3256 27.0327 35.7936 30.4438 36.5906 33.2095C36.9881 34.589 37.2161 35.7991 37.3446 36.6627C37.3944 36.9978 37.4292 37.2804 37.4531 37.5H18.5Z" stroke="black" stroke-opacity="0.12"/><defs>
<linearGradient id="paint0_linear_898_122896" x1="11.7778" y1="18" x2="11.7778" y2="38" gradientUnits="userSpaceOnUse">
<stop stop-color="#727171"/>
<stop offset="0.498292" stop-color="white"/>
<stop offset="1" stop-color="#727171"/>
</linearGradient>
<linearGradient id="paint1_linear_898_122896" x1="18" y1="40.7654" x2="38" y2="40.7654" gradientUnits="userSpaceOnUse">
<stop stop-color="#727171"/>
<stop offset="0.498292" stop-color="white"/>
<stop offset="1" stop-color="#727171"/>
</linearGradient>
<linearGradient id="paint2_linear_898_122896" x1="18" y1="37" x2="32.5" y2="25.5" gradientUnits="userSpaceOnUse">
<stop stop-color="#727171"/>
<stop offset="0.367326" stop-color="white"/>
<stop offset="1" stop-color="#727171"/>
</linearGradient>
</defs>
</svg>