<svg xmlns="http://www.w3.org/2000/svg" xmlns:tb="https://thingsboard.io/svg" width="56" height="56" viewBox="0 0 56 56" fill="none">
<tb:metadata xmlns=""><![CDATA[{
  "title": "Left top angle connector",
  "widgetSizeX": 1,
  "widgetSizeY": 1,
  "tags": [],
  "behavior": [],
  "properties": []
}]]></tb:metadata><rect x="38" y="4" width="14" height="20" transform="rotate(90 38 4)" fill="url(#paint0_linear_898_122935)"/><rect x="37.5" y="4.5" width="13" height="19" transform="rotate(90 37.5 4.5)" stroke="black" stroke-opacity="0.12"/><path d="M4 18H18V38H4V18Z" fill="url(#paint1_linear_898_122935)"/><path d="M4.5 18.5H17.5V37.5H4.5V18.5Z" stroke="black" stroke-opacity="0.12"/><rect x="41.5" y="0.5" width="3" height="27" rx="1.5" transform="rotate(90 41.5 0.5)" fill="#D9D9D9" stroke="#727171"/><rect x="0.5" y="14.5" width="3" height="27" rx="1.5" fill="#D9D9D9" stroke="#727171"/><path d="M38 18C38 18 37.5228 26.4772 32 32C26.4772 37.5228 18 38 18 38V18H38Z" fill="url(#paint2_linear_898_122935)"/><path d="M18.5 18.5H37.4531C37.4292 18.7196 37.3944 19.0022 37.3446 19.3373C37.2161 20.2009 36.9882 21.411 36.5906 22.7905C35.7936 25.5562 34.3256 28.9673 31.6464 31.6464C28.9673 34.3256 25.5562 35.7936 22.7905 36.5906C21.411 36.9881 20.2009 37.2161 19.3373 37.3446C19.0022 37.3944 18.7196 37.4292 18.5 37.4531V18.5Z" stroke="black" stroke-opacity="0.12"/><defs>
<linearGradient id="paint0_linear_898_122935" x1="45.7778" y1="4" x2="45.7778" y2="24" gradientUnits="userSpaceOnUse">
<stop stop-color="#727171"/>
<stop offset="0.498292" stop-color="white"/>
<stop offset="1" stop-color="#727171"/>
</linearGradient>
<linearGradient id="paint1_linear_898_122935" x1="15.2346" y1="18" x2="15.2346" y2="38" gradientUnits="userSpaceOnUse">
<stop stop-color="#727171"/>
<stop offset="0.498292" stop-color="white"/>
<stop offset="1" stop-color="#727171"/>
</linearGradient>
<linearGradient id="paint2_linear_898_122935" x1="19" y1="18" x2="30.5" y2="32.5" gradientUnits="userSpaceOnUse">
<stop stop-color="#727171"/>
<stop offset="0.367326" stop-color="white"/>
<stop offset="1" stop-color="#727171"/>
</linearGradient>
</defs>
</svg>