<svg xmlns="http://www.w3.org/2000/svg" xmlns:tb="https://thingsboard.io/svg" width="224" height="168" viewBox="0 0 224 168" fill="none">
<tb:metadata xmlns=""><![CDATA[{
  "title": "Pump",
  "widgetSizeX": 4,
  "widgetSizeY": 3,
  "tags": [],
  "behavior": [],
  "properties": []
}]]></tb:metadata><path d="M192 28H208V140H192V28Z" fill="url(#paint0_linear_898_122767)"/><path d="M192.5 28.5H207.5V139.5H192.5V28.5Z" stroke="black" stroke-opacity="0.12"/><path d="M175 28H180C182.209 28 184 29.7909 184 32V136C184 138.209 182.209 140 180 140H175V28Z" fill="url(#paint1_linear_898_122767)"/><path d="M175.5 28.5H180C181.933 28.5 183.5 30.067 183.5 32V136C183.5 137.933 181.933 139.5 180 139.5H175.5V28.5Z" stroke="black" stroke-opacity="0.12"/><path d="M188 56C188 55.4477 188.448 55 189 55H192V113H189C188.448 113 188 112.552 188 112V56Z" fill="url(#paint2_linear_898_122767)"/><path d="M188.5 56C188.5 55.7239 188.724 55.5 189 55.5H191.5V112.5H189C188.724 112.5 188.5 112.276 188.5 112V56Z" stroke="black" stroke-opacity="0.12"/><path d="M184 41H187C187.552 41 188 41.4477 188 42V128C188 128.552 187.552 129 187 129H184V41Z" fill="url(#paint3_linear_898_122767)"/><path d="M184.5 41.5H187C187.276 41.5 187.5 41.7239 187.5 42V128C187.5 128.276 187.276 128.5 187 128.5H184.5V41.5Z" stroke="black" stroke-opacity="0.12"/><path d="M192 28L182 18H211L208 28H192Z" fill="url(#paint4_linear_898_122767)"/><path d="M207.628 27.5H192.207L183.207 18.5H210.328L207.628 27.5Z" stroke="black" stroke-opacity="0.12"/><rect x="169" y="18" width="14" height="55" rx="1" transform="rotate(-90 169 18)" fill="url(#paint5_linear_898_122767)"/><rect x="169.5" y="17.5" width="13" height="54" rx="0.5" transform="rotate(-90 169.5 17.5)" stroke="black" stroke-opacity="0.12"/><rect x="22" y="168" width="17" height="194" rx="1" transform="rotate(-90 22 168)" fill="url(#paint6_linear_898_122767)"/><rect x="22.5" y="167.5" width="16" height="193" rx="0.5" transform="rotate(-90 22.5 167.5)" stroke="black" stroke-opacity="0.12"/><path d="M38 151L46 140H164L172 151H38Z" fill="url(#paint7_linear_898_122767)"/><path d="M163.745 140.5L171.018 150.5H38.9819L46.2546 140.5H163.745Z" stroke="black" stroke-opacity="0.12"/><path d="M188 151L192 140H208L212 151H188Z" fill="url(#paint8_linear_898_122767)"/><path d="M207.65 140.5L211.286 150.5H188.714L192.35 140.5H207.65Z" stroke="black" stroke-opacity="0.12"/><path d="M208 60C208 59.4477 208.448 59 209 59H212C216.418 59 220 62.5817 220 67V99C220 103.418 216.418 107 212 107H209C208.448 107 208 106.552 208 106V60Z" fill="url(#paint9_linear_898_122767)"/><path d="M208.5 60C208.5 59.7239 208.724 59.5 209 59.5H212C216.142 59.5 219.5 62.8579 219.5 67V99C219.5 103.142 216.142 106.5 212 106.5H209C208.724 106.5 208.5 106.276 208.5 106V60Z" stroke="black" stroke-opacity="0.12"/><path d="M22 28H175C177.209 28 179 29.7909 179 32V136C179 138.209 177.209 140 175 140H22V28Z" fill="url(#paint10_linear_898_122767)"/><path d="M22 28H175C177.209 28 179 29.7909 179 32V36H22V28Z" fill="url(#paint11_linear_898_122767)"/><path d="M22 36H179V44H22V36Z" fill="url(#paint12_linear_898_122767)"/><path d="M22 44H179V52H22V44Z" fill="url(#paint13_linear_898_122767)"/><path d="M22 52H179V60H22V52Z" fill="url(#paint14_linear_898_122767)"/><path d="M22 60H179V68H22V60Z" fill="url(#paint15_linear_898_122767)"/><path d="M22 68H179V76H22V68Z" fill="url(#paint16_linear_898_122767)"/><path d="M22 76H179V84H22V76Z" fill="url(#paint17_linear_898_122767)"/><path d="M22 84H179V92H22V84Z" fill="url(#paint18_linear_898_122767)"/><path d="M22 92H179V100H22V92Z" fill="url(#paint19_linear_898_122767)"/><path d="M22 100H179V108H22V100Z" fill="url(#paint20_linear_898_122767)"/><path d="M22 108H179V116H22V108Z" fill="url(#paint21_linear_898_122767)"/><path d="M22 116H179V124H22V116Z" fill="url(#paint22_linear_898_122767)"/><path d="M22 124H179V132H22V124Z" fill="url(#paint23_linear_898_122767)"/><path d="M22 132H179V136C179 138.209 177.209 140 175 140H22V132Z" fill="url(#paint24_linear_898_122767)"/><rect x="-0.5" y="0.5" width="3" height="27" rx="1.5" transform="matrix(-1 0 0 1 223 70)" fill="#D9D9D9" stroke="#727171"/><path d="M0 40C0 33.3726 5.37258 28 12 28H22V140H12C5.37258 140 0 134.627 0 128V40Z" fill="url(#paint25_linear_898_122767)"/><path d="M0.5 40C0.5 33.6487 5.64873 28.5 12 28.5H21.5V139.5H12C5.64873 139.5 0.5 134.351 0.5 128V40Z" stroke="black" stroke-opacity="0.12"/><rect x="182.5" y="3.5" width="3" height="27" rx="1.5" transform="rotate(-90 182.5 3.5)" fill="#D9D9D9" stroke="#727171"/><defs>
<linearGradient id="paint0_linear_898_122767" x1="200" y1="28" x2="200" y2="140" gradientUnits="userSpaceOnUse">
<stop stop-color="#0054B7"/>
<stop offset="0.503638" stop-color="#77B6FF"/>
<stop offset="1" stop-color="#0054B7"/>
</linearGradient>
<linearGradient id="paint1_linear_898_122767" x1="179.5" y1="28" x2="179.5" y2="140" gradientUnits="userSpaceOnUse">
<stop stop-color="#0054B7"/>
<stop offset="0.503638" stop-color="#77B6FF"/>
<stop offset="1" stop-color="#0054B7"/>
</linearGradient>
<linearGradient id="paint2_linear_898_122767" x1="190" y1="55" x2="190" y2="113" gradientUnits="userSpaceOnUse">
<stop stop-color="#0054B7"/>
<stop offset="0.503638" stop-color="#77B6FF"/>
<stop offset="1" stop-color="#0054B7"/>
</linearGradient>
<linearGradient id="paint3_linear_898_122767" x1="186" y1="41" x2="186" y2="129" gradientUnits="userSpaceOnUse">
<stop stop-color="#0054B7"/>
<stop offset="0.503638" stop-color="#77B6FF"/>
<stop offset="1" stop-color="#0054B7"/>
</linearGradient>
<linearGradient id="paint4_linear_898_122767" x1="190.826" y1="23" x2="203.435" y2="23" gradientUnits="userSpaceOnUse">
<stop stop-color="#0054B7"/>
<stop offset="0.503638" stop-color="#77B6FF"/>
<stop offset="1" stop-color="#0054B7"/>
</linearGradient>
<linearGradient id="paint5_linear_898_122767" x1="176" y1="18" x2="176" y2="73" gradientUnits="userSpaceOnUse">
<stop stop-color="#0054B7"/>
<stop offset="0.503638" stop-color="#77B6FF"/>
<stop offset="1" stop-color="#0054B7"/>
</linearGradient>
<linearGradient id="paint6_linear_898_122767" x1="30.5" y1="168" x2="30.5" y2="362" gradientUnits="userSpaceOnUse">
<stop stop-color="#0054B7"/>
<stop offset="0.503638" stop-color="#77B6FF"/>
<stop offset="1" stop-color="#0054B7"/>
</linearGradient>
<linearGradient id="paint7_linear_898_122767" x1="164" y1="145.238" x2="46" y2="145.238" gradientUnits="userSpaceOnUse">
<stop stop-color="#77B6FF"/>
<stop offset="0.500964" stop-color="#0054B7"/>
<stop offset="1" stop-color="#77B6FF"/>
</linearGradient>
<linearGradient id="paint8_linear_898_122767" x1="207.925" y1="145.238" x2="192.075" y2="145.238" gradientUnits="userSpaceOnUse">
<stop stop-color="#77B6FF"/>
<stop offset="0.500964" stop-color="#0054B7"/>
<stop offset="1" stop-color="#77B6FF"/>
</linearGradient>
<linearGradient id="paint9_linear_898_122767" x1="214" y1="59" x2="214" y2="107" gradientUnits="userSpaceOnUse">
<stop stop-color="#0054B7"/>
<stop offset="0.503638" stop-color="#77B6FF"/>
<stop offset="1" stop-color="#0054B7"/>
</linearGradient>
<linearGradient id="paint10_linear_898_122767" x1="100.5" y1="28" x2="100.5" y2="140" gradientUnits="userSpaceOnUse">
<stop stop-color="#0054B7"/>
<stop offset="0.506056" stop-color="#77B6FF"/>
<stop offset="1" stop-color="#0054B7"/>
</linearGradient>
<linearGradient id="paint11_linear_898_122767" x1="102.135" y1="36" x2="102.135" y2="28" gradientUnits="userSpaceOnUse">
<stop stop-color="#D9D9D9" stop-opacity="0"/>
<stop offset="1" stop-color="#000E33"/>
</linearGradient>
<linearGradient id="paint12_linear_898_122767" x1="102.135" y1="44" x2="102.135" y2="36" gradientUnits="userSpaceOnUse">
<stop stop-color="#D9D9D9" stop-opacity="0"/>
<stop offset="1" stop-color="#000E33"/>
</linearGradient>
<linearGradient id="paint13_linear_898_122767" x1="102.135" y1="52" x2="102.135" y2="44" gradientUnits="userSpaceOnUse">
<stop stop-color="#D9D9D9" stop-opacity="0"/>
<stop offset="1" stop-color="#000E33"/>
</linearGradient>
<linearGradient id="paint14_linear_898_122767" x1="102.135" y1="60" x2="102.135" y2="52" gradientUnits="userSpaceOnUse">
<stop stop-color="#D9D9D9" stop-opacity="0"/>
<stop offset="1" stop-color="#000E33"/>
</linearGradient>
<linearGradient id="paint15_linear_898_122767" x1="102.135" y1="68" x2="102.135" y2="60" gradientUnits="userSpaceOnUse">
<stop stop-color="#D9D9D9" stop-opacity="0"/>
<stop offset="1" stop-color="#000E33"/>
</linearGradient>
<linearGradient id="paint16_linear_898_122767" x1="102.135" y1="76" x2="102.135" y2="68" gradientUnits="userSpaceOnUse">
<stop stop-color="#D9D9D9" stop-opacity="0"/>
<stop offset="1" stop-color="#000E33"/>
</linearGradient>
<linearGradient id="paint17_linear_898_122767" x1="102.135" y1="84" x2="102.135" y2="76" gradientUnits="userSpaceOnUse">
<stop stop-color="#D9D9D9" stop-opacity="0"/>
<stop offset="1" stop-color="#000E33"/>
</linearGradient>
<linearGradient id="paint18_linear_898_122767" x1="102.135" y1="92" x2="102.135" y2="84" gradientUnits="userSpaceOnUse">
<stop stop-color="#D9D9D9" stop-opacity="0"/>
<stop offset="1" stop-color="#000E33"/>
</linearGradient>
<linearGradient id="paint19_linear_898_122767" x1="102.135" y1="100" x2="102.135" y2="92" gradientUnits="userSpaceOnUse">
<stop stop-color="#D9D9D9" stop-opacity="0"/>
<stop offset="1" stop-color="#000E33"/>
</linearGradient>
<linearGradient id="paint20_linear_898_122767" x1="102.135" y1="108" x2="102.135" y2="100" gradientUnits="userSpaceOnUse">
<stop stop-color="#D9D9D9" stop-opacity="0"/>
<stop offset="1" stop-color="#000E33"/>
</linearGradient>
<linearGradient id="paint21_linear_898_122767" x1="102.135" y1="116" x2="102.135" y2="108" gradientUnits="userSpaceOnUse">
<stop stop-color="#D9D9D9" stop-opacity="0"/>
<stop offset="1" stop-color="#000E33"/>
</linearGradient>
<linearGradient id="paint22_linear_898_122767" x1="102.135" y1="124" x2="102.135" y2="116" gradientUnits="userSpaceOnUse">
<stop stop-color="#D9D9D9" stop-opacity="0"/>
<stop offset="1" stop-color="#000E33"/>
</linearGradient>
<linearGradient id="paint23_linear_898_122767" x1="102.135" y1="132" x2="102.135" y2="124" gradientUnits="userSpaceOnUse">
<stop stop-color="#D9D9D9" stop-opacity="0"/>
<stop offset="1" stop-color="#000E33"/>
</linearGradient>
<linearGradient id="paint24_linear_898_122767" x1="102.135" y1="140" x2="102.135" y2="132" gradientUnits="userSpaceOnUse">
<stop stop-color="#D9D9D9" stop-opacity="0"/>
<stop offset="1" stop-color="#000E33"/>
</linearGradient>
<linearGradient id="paint25_linear_898_122767" x1="11" y1="28" x2="11" y2="140" gradientUnits="userSpaceOnUse">
<stop stop-color="#0054B7"/>
<stop offset="0.503638" stop-color="#77B6FF"/>
<stop offset="1" stop-color="#0054B7"/>
</linearGradient>
</defs>
</svg>