<svg xmlns="http://www.w3.org/2000/svg" xmlns:tb="https://thingsboard.io/svg" width="224" height="168" viewBox="0 0 224 168" fill="none">
<tb:metadata xmlns=""><![CDATA[{
  "title": "Pump left",
  "widgetSizeX": 4,
  "widgetSizeY": 3,
  "tags": [],
  "behavior": [],
  "properties": []
}]]></tb:metadata><path d="M32 28H16V140H32V28Z" fill="url(#paint0_linear_898_122801)"/><path d="M31.5 28.5H16.5V139.5H31.5V28.5Z" stroke="black" stroke-opacity="0.12"/><path d="M49 28H44C41.7909 28 40 29.7909 40 32V136C40 138.209 41.7909 140 44 140H49V28Z" fill="url(#paint1_linear_898_122801)"/><path d="M48.5 28.5H44C42.067 28.5 40.5 30.067 40.5 32V136C40.5 137.933 42.067 139.5 44 139.5H48.5V28.5Z" stroke="black" stroke-opacity="0.12"/><path d="M36 56C36 55.4477 35.5523 55 35 55H32V113H35C35.5523 113 36 112.552 36 112V56Z" fill="url(#paint2_linear_898_122801)"/><path d="M35.5 56C35.5 55.7239 35.2761 55.5 35 55.5H32.5V112.5H35C35.2761 112.5 35.5 112.276 35.5 112V56Z" stroke="black" stroke-opacity="0.12"/><path d="M40 41H37C36.4477 41 36 41.4477 36 42V128C36 128.552 36.4477 129 37 129H40V41Z" fill="url(#paint3_linear_898_122801)"/><path d="M39.5 41.5H37C36.7239 41.5 36.5 41.7239 36.5 42V128C36.5 128.276 36.7239 128.5 37 128.5H39.5V41.5Z" stroke="black" stroke-opacity="0.12"/><path d="M32 28L42 18H13L16 28H32Z" fill="url(#paint4_linear_898_122801)"/><path d="M16.372 27.5H31.7929L40.7929 18.5H13.672L16.372 27.5Z" stroke="black" stroke-opacity="0.12"/><rect width="14" height="55" rx="1" transform="matrix(0 -1 -1 0 55 18)" fill="url(#paint5_linear_898_122801)"/><rect x="-0.5" y="-0.5" width="13" height="54" rx="0.5" transform="matrix(0 -1 -1 0 54 17)" stroke="black" stroke-opacity="0.12"/><rect width="17" height="194" rx="1" transform="matrix(0 -1 -1 0 202 168)" fill="url(#paint6_linear_898_122801)"/><rect x="-0.5" y="-0.5" width="16" height="193" rx="0.5" transform="matrix(0 -1 -1 0 201 167)" stroke="black" stroke-opacity="0.12"/><path d="M186 151L178 140H60L52 151H186Z" fill="url(#paint7_linear_898_122801)"/><path d="M60.2546 140.5L52.9819 150.5H185.018L177.745 140.5H60.2546Z" stroke="black" stroke-opacity="0.12"/><path d="M36 151L32 140H16L12 151H36Z" fill="url(#paint8_linear_898_122801)"/><path d="M16.3502 140.5L12.7139 150.5H35.2861L31.6498 140.5H16.3502Z" stroke="black" stroke-opacity="0.12"/><path d="M16 60C16 59.4477 15.5523 59 15 59H12C7.58172 59 4 62.5817 4 67V99C4 103.418 7.58172 107 12 107H15C15.5523 107 16 106.552 16 106V60Z" fill="url(#paint9_linear_898_122801)"/><path d="M15.5 60C15.5 59.7239 15.2761 59.5 15 59.5H12C7.85786 59.5 4.5 62.8579 4.5 67V99C4.5 103.142 7.85786 106.5 12 106.5H15C15.2761 106.5 15.5 106.276 15.5 106V60Z" stroke="black" stroke-opacity="0.12"/><path d="M202 28H49C46.7909 28 45 29.7909 45 32V136C45 138.209 46.7909 140 49 140H202V28Z" fill="url(#paint10_linear_898_122801)"/><path d="M202 28H49C46.7909 28 45 29.7909 45 32V36H202V28Z" fill="url(#paint11_linear_898_122801)"/><path d="M202 36H45V44H202V36Z" fill="url(#paint12_linear_898_122801)"/><path d="M202 44H45V52H202V44Z" fill="url(#paint13_linear_898_122801)"/><path d="M202 52H45V60H202V52Z" fill="url(#paint14_linear_898_122801)"/><path d="M202 60H45V68H202V60Z" fill="url(#paint15_linear_898_122801)"/><path d="M202 68H45V76H202V68Z" fill="url(#paint16_linear_898_122801)"/><path d="M202 76H45V84H202V76Z" fill="url(#paint17_linear_898_122801)"/><path d="M202 84H45V92H202V84Z" fill="url(#paint18_linear_898_122801)"/><path d="M202 92H45V100H202V92Z" fill="url(#paint19_linear_898_122801)"/><path d="M202 100H45V108H202V100Z" fill="url(#paint20_linear_898_122801)"/><path d="M202 108H45V116H202V108Z" fill="url(#paint21_linear_898_122801)"/><path d="M202 116H45V124H202V116Z" fill="url(#paint22_linear_898_122801)"/><path d="M202 124H45V132H202V124Z" fill="url(#paint23_linear_898_122801)"/><path d="M202 132H45V136C45 138.209 46.7909 140 49 140H202V132Z" fill="url(#paint24_linear_898_122801)"/><rect x="0.5" y="70.5" width="3" height="27" rx="1.5" fill="#D9D9D9" stroke="#727171"/><path d="M224 40C224 33.3726 218.627 28 212 28H202V140H212C218.627 140 224 134.627 224 128V40Z" fill="url(#paint25_linear_898_122801)"/><path d="M223.5 40C223.5 33.6487 218.351 28.5 212 28.5H202.5V139.5H212C218.351 139.5 223.5 134.351 223.5 128V40Z" stroke="black" stroke-opacity="0.12"/><rect x="-0.5" y="-0.5" width="3" height="27" rx="1.5" transform="matrix(0 -1 -1 0 41 3)" fill="#D9D9D9" stroke="#727171"/><defs>
<linearGradient id="paint0_linear_898_122801" x1="24" y1="28" x2="24" y2="140" gradientUnits="userSpaceOnUse">
<stop stop-color="#0054B7"/>
<stop offset="0.503638" stop-color="#77B6FF"/>
<stop offset="1" stop-color="#0054B7"/>
</linearGradient>
<linearGradient id="paint1_linear_898_122801" x1="44.5" y1="28" x2="44.5" y2="140" gradientUnits="userSpaceOnUse">
<stop stop-color="#0054B7"/>
<stop offset="0.503638" stop-color="#77B6FF"/>
<stop offset="1" stop-color="#0054B7"/>
</linearGradient>
<linearGradient id="paint2_linear_898_122801" x1="34" y1="55" x2="34" y2="113" gradientUnits="userSpaceOnUse">
<stop stop-color="#0054B7"/>
<stop offset="0.503638" stop-color="#77B6FF"/>
<stop offset="1" stop-color="#0054B7"/>
</linearGradient>
<linearGradient id="paint3_linear_898_122801" x1="38" y1="41" x2="38" y2="129" gradientUnits="userSpaceOnUse">
<stop stop-color="#0054B7"/>
<stop offset="0.503638" stop-color="#77B6FF"/>
<stop offset="1" stop-color="#0054B7"/>
</linearGradient>
<linearGradient id="paint4_linear_898_122801" x1="33.1739" y1="23" x2="20.5652" y2="23" gradientUnits="userSpaceOnUse">
<stop stop-color="#0054B7"/>
<stop offset="0.503638" stop-color="#77B6FF"/>
<stop offset="1" stop-color="#0054B7"/>
</linearGradient>
<linearGradient id="paint5_linear_898_122801" x1="7" y1="0" x2="7" y2="55" gradientUnits="userSpaceOnUse">
<stop stop-color="#0054B7"/>
<stop offset="0.503638" stop-color="#77B6FF"/>
<stop offset="1" stop-color="#0054B7"/>
</linearGradient>
<linearGradient id="paint6_linear_898_122801" x1="8.5" y1="0" x2="8.5" y2="194" gradientUnits="userSpaceOnUse">
<stop stop-color="#0054B7"/>
<stop offset="0.503638" stop-color="#77B6FF"/>
<stop offset="1" stop-color="#0054B7"/>
</linearGradient>
<linearGradient id="paint7_linear_898_122801" x1="60" y1="145.238" x2="178" y2="145.238" gradientUnits="userSpaceOnUse">
<stop stop-color="#77B6FF"/>
<stop offset="0.500964" stop-color="#0054B7"/>
<stop offset="1" stop-color="#77B6FF"/>
</linearGradient>
<linearGradient id="paint8_linear_898_122801" x1="16.0746" y1="145.238" x2="31.9254" y2="145.238" gradientUnits="userSpaceOnUse">
<stop stop-color="#77B6FF"/>
<stop offset="0.500964" stop-color="#0054B7"/>
<stop offset="1" stop-color="#77B6FF"/>
</linearGradient>
<linearGradient id="paint9_linear_898_122801" x1="10" y1="59" x2="10" y2="107" gradientUnits="userSpaceOnUse">
<stop stop-color="#0054B7"/>
<stop offset="0.503638" stop-color="#77B6FF"/>
<stop offset="1" stop-color="#0054B7"/>
</linearGradient>
<linearGradient id="paint10_linear_898_122801" x1="123.5" y1="28" x2="123.5" y2="140" gradientUnits="userSpaceOnUse">
<stop stop-color="#0054B7"/>
<stop offset="0.506056" stop-color="#77B6FF"/>
<stop offset="1" stop-color="#0054B7"/>
</linearGradient>
<linearGradient id="paint11_linear_898_122801" x1="121.865" y1="36" x2="121.865" y2="28" gradientUnits="userSpaceOnUse">
<stop stop-color="#D9D9D9" stop-opacity="0"/>
<stop offset="1" stop-color="#000E33"/>
</linearGradient>
<linearGradient id="paint12_linear_898_122801" x1="121.865" y1="44" x2="121.865" y2="36" gradientUnits="userSpaceOnUse">
<stop stop-color="#D9D9D9" stop-opacity="0"/>
<stop offset="1" stop-color="#000E33"/>
</linearGradient>
<linearGradient id="paint13_linear_898_122801" x1="121.865" y1="52" x2="121.865" y2="44" gradientUnits="userSpaceOnUse">
<stop stop-color="#D9D9D9" stop-opacity="0"/>
<stop offset="1" stop-color="#000E33"/>
</linearGradient>
<linearGradient id="paint14_linear_898_122801" x1="121.865" y1="60" x2="121.865" y2="52" gradientUnits="userSpaceOnUse">
<stop stop-color="#D9D9D9" stop-opacity="0"/>
<stop offset="1" stop-color="#000E33"/>
</linearGradient>
<linearGradient id="paint15_linear_898_122801" x1="121.865" y1="68" x2="121.865" y2="60" gradientUnits="userSpaceOnUse">
<stop stop-color="#D9D9D9" stop-opacity="0"/>
<stop offset="1" stop-color="#000E33"/>
</linearGradient>
<linearGradient id="paint16_linear_898_122801" x1="121.865" y1="76" x2="121.865" y2="68" gradientUnits="userSpaceOnUse">
<stop stop-color="#D9D9D9" stop-opacity="0"/>
<stop offset="1" stop-color="#000E33"/>
</linearGradient>
<linearGradient id="paint17_linear_898_122801" x1="121.865" y1="84" x2="121.865" y2="76" gradientUnits="userSpaceOnUse">
<stop stop-color="#D9D9D9" stop-opacity="0"/>
<stop offset="1" stop-color="#000E33"/>
</linearGradient>
<linearGradient id="paint18_linear_898_122801" x1="121.865" y1="92" x2="121.865" y2="84" gradientUnits="userSpaceOnUse">
<stop stop-color="#D9D9D9" stop-opacity="0"/>
<stop offset="1" stop-color="#000E33"/>
</linearGradient>
<linearGradient id="paint19_linear_898_122801" x1="121.865" y1="100" x2="121.865" y2="92" gradientUnits="userSpaceOnUse">
<stop stop-color="#D9D9D9" stop-opacity="0"/>
<stop offset="1" stop-color="#000E33"/>
</linearGradient>
<linearGradient id="paint20_linear_898_122801" x1="121.865" y1="108" x2="121.865" y2="100" gradientUnits="userSpaceOnUse">
<stop stop-color="#D9D9D9" stop-opacity="0"/>
<stop offset="1" stop-color="#000E33"/>
</linearGradient>
<linearGradient id="paint21_linear_898_122801" x1="121.865" y1="116" x2="121.865" y2="108" gradientUnits="userSpaceOnUse">
<stop stop-color="#D9D9D9" stop-opacity="0"/>
<stop offset="1" stop-color="#000E33"/>
</linearGradient>
<linearGradient id="paint22_linear_898_122801" x1="121.865" y1="124" x2="121.865" y2="116" gradientUnits="userSpaceOnUse">
<stop stop-color="#D9D9D9" stop-opacity="0"/>
<stop offset="1" stop-color="#000E33"/>
</linearGradient>
<linearGradient id="paint23_linear_898_122801" x1="121.865" y1="132" x2="121.865" y2="124" gradientUnits="userSpaceOnUse">
<stop stop-color="#D9D9D9" stop-opacity="0"/>
<stop offset="1" stop-color="#000E33"/>
</linearGradient>
<linearGradient id="paint24_linear_898_122801" x1="121.865" y1="140" x2="121.865" y2="132" gradientUnits="userSpaceOnUse">
<stop stop-color="#D9D9D9" stop-opacity="0"/>
<stop offset="1" stop-color="#000E33"/>
</linearGradient>
<linearGradient id="paint25_linear_898_122801" x1="213" y1="28" x2="213" y2="140" gradientUnits="userSpaceOnUse">
<stop stop-color="#0054B7"/>
<stop offset="0.503638" stop-color="#77B6FF"/>
<stop offset="1" stop-color="#0054B7"/>
</linearGradient>
</defs>
</svg>