<svg xmlns="http://www.w3.org/2000/svg" xmlns:tb="https://thingsboard.io/svg" width="56" height="56" viewBox="0 0 56 56" fill="none">
<tb:metadata xmlns=""><![CDATA[{
  "title": "Quadro connector",
  "widgetSizeX": 1,
  "widgetSizeY": 1,
  "tags": [],
  "behavior": [],
  "properties": []
}]]></tb:metadata><path d="M52 38L4 38V18L52 18V38Z" fill="url(#paint0_linear_838_20114)"/><path d="M51.5 37.5L4.5 37.5V18.5L51.5 18.5V37.5Z" stroke="black" stroke-opacity="0.12"/><rect x="14.5" y="55.5" width="3" height="27" rx="1.5" transform="rotate(-90 14.5 55.5)" fill="#D9D9D9" stroke="#727171"/><rect x="14.5" y="3.5" width="3" height="27" rx="1.5" transform="rotate(-90 14.5 3.5)" fill="#D9D9D9" stroke="#727171"/><rect x="55.5" y="41.5" width="3" height="27" rx="1.5" transform="rotate(-180 55.5 41.5)" fill="#D9D9D9" stroke="#727171"/><rect x="3.5" y="41.5" width="3" height="27" rx="1.5" transform="rotate(-180 3.5 41.5)" fill="#D9D9D9" stroke="#727171"/><path d="M18 52V37.5238L28 28L38 37.5238V52H18Z" fill="url(#paint1_linear_838_20114)"/><path d="M18.5 51.5V37.7381L28 28.6905L37.5 37.7381V51.5H18.5Z" stroke="black" stroke-opacity="0.12"/><path d="M18 4V18.4762L28 28L38 18.4762V4L18 4Z" fill="url(#paint2_linear_838_20114)"/><path d="M18.5 4.5V18.2619L28 27.3095L37.5 18.2619V4.5L18.5 4.5Z" stroke="black" stroke-opacity="0.12"/><defs>
<linearGradient id="paint0_linear_838_20114" x1="13.4815" y1="38" x2="13.4815" y2="18" gradientUnits="userSpaceOnUse">
<stop stop-color="#727171"/>
<stop offset="0.498292" stop-color="white"/>
<stop offset="1" stop-color="#727171"/>
</linearGradient>
<linearGradient id="paint1_linear_838_20114" x1="18" y1="46.0741" x2="38" y2="46.0741" gradientUnits="userSpaceOnUse">
<stop stop-color="#727171"/>
<stop offset="0.498292" stop-color="white"/>
<stop offset="1" stop-color="#727171"/>
</linearGradient>
<linearGradient id="paint2_linear_838_20114" x1="18" y1="9.92593" x2="38" y2="9.92593" gradientUnits="userSpaceOnUse">
<stop stop-color="#727171"/>
<stop offset="0.498292" stop-color="white"/>
<stop offset="1" stop-color="#727171"/>
</linearGradient>
</defs>
</svg>