<svg xmlns="http://www.w3.org/2000/svg" xmlns:tb="https://thingsboard.io/svg" width="56" height="56" viewBox="0 0 56 56" fill="none">
<tb:metadata xmlns=""><![CDATA[{
  "title": "Right bottom angle connector",
  "widgetSizeX": 1,
  "widgetSizeY": 1,
  "tags": [],
  "behavior": [],
  "properties": []
}]]></tb:metadata><rect x="18" y="52" width="14" height="20" transform="rotate(-90 18 52)" fill="url(#paint0_linear_898_122973)"/><rect x="18.5" y="51.5" width="13" height="19" transform="rotate(-90 18.5 51.5)" stroke="black" stroke-opacity="0.12"/><path d="M52 38H38V18H52V38Z" fill="url(#paint1_linear_898_122973)"/><path d="M51.5 37.5H38.5V18.5H51.5V37.5Z" stroke="black" stroke-opacity="0.12"/><rect x="14.5" y="55.5" width="3" height="27" rx="1.5" transform="rotate(-90 14.5 55.5)" fill="#D9D9D9" stroke="#727171"/><rect x="55.5" y="41.5" width="3" height="27" rx="1.5" transform="rotate(-180 55.5 41.5)" fill="#D9D9D9" stroke="#727171"/><path d="M18 38C18 38 18.4772 29.5228 24 24C29.5228 18.4772 38 18 38 18V38H18Z" fill="url(#paint2_linear_898_122973)"/><path d="M37.5 37.5H18.5469C18.5708 37.2804 18.6056 36.9978 18.6554 36.6627C18.7839 35.7991 19.0118 34.589 19.4094 33.2095C20.2064 30.4438 21.6744 27.0327 24.3536 24.3536C27.0327 21.6744 30.4438 20.2064 33.2095 19.4094C34.589 19.0119 35.7991 18.7839 36.6627 18.6554C36.9978 18.6056 37.2804 18.5708 37.5 18.5469V37.5Z" stroke="black" stroke-opacity="0.12"/><defs>
<linearGradient id="paint0_linear_898_122973" x1="25.7778" y1="52" x2="25.7778" y2="72" gradientUnits="userSpaceOnUse">
<stop stop-color="#727171"/>
<stop offset="0.498292" stop-color="white"/>
<stop offset="1" stop-color="#727171"/>
</linearGradient>
<linearGradient id="paint1_linear_898_122973" x1="40.7654" y1="38" x2="40.7654" y2="18" gradientUnits="userSpaceOnUse">
<stop stop-color="#727171"/>
<stop offset="0.498292" stop-color="white"/>
<stop offset="1" stop-color="#727171"/>
</linearGradient>
<linearGradient id="paint2_linear_898_122973" x1="37" y1="38" x2="25.5" y2="23.5" gradientUnits="userSpaceOnUse">
<stop stop-color="#727171"/>
<stop offset="0.367326" stop-color="white"/>
<stop offset="1" stop-color="#727171"/>
</linearGradient>
</defs>
</svg>