<svg xmlns="http://www.w3.org/2000/svg" xmlns:tb="https://thingsboard.io/svg" width="56" height="56" viewBox="0 0 56 56" fill="none">
<tb:metadata xmlns=""><![CDATA[{
  "title": "Right top angle connector",
  "widgetSizeX": 1,
  "widgetSizeY": 1,
  "tags": [],
  "behavior": [],
  "properties": []
}]]></tb:metadata><rect x="52" y="38" width="14" height="20" transform="rotate(-180 52 38)" fill="url(#paint0_linear_898_122954)"/><rect x="51.5" y="37.5" width="13" height="19" transform="rotate(-180 51.5 37.5)" stroke="black" stroke-opacity="0.12"/><path d="M38 4V18L18 18L18 4L38 4Z" fill="url(#paint1_linear_898_122954)"/><path d="M37.5 4.5V17.5L18.5 17.5L18.5 4.5L37.5 4.5Z" stroke="black" stroke-opacity="0.12"/><rect x="55.5" y="41.5" width="3" height="27" rx="1.5" transform="rotate(-180 55.5 41.5)" fill="#D9D9D9" stroke="#727171"/><rect x="41.5" y="0.5" width="3" height="27" rx="1.5" transform="rotate(90 41.5 0.5)" fill="#D9D9D9" stroke="#727171"/><path d="M38 38C38 38 29.5228 37.5228 24 32C18.4772 26.4772 18 18 18 18L38 18V38Z" fill="url(#paint2_linear_898_122954)"/><path d="M37.5 18.5V37.4531C37.2804 37.4292 36.9978 37.3944 36.6627 37.3446C35.7991 37.2161 34.589 36.9882 33.2095 36.5906C30.4438 35.7936 27.0327 34.3256 24.3536 31.6464C21.6744 28.9673 20.2064 25.5562 19.4094 22.7905C19.0119 21.411 18.7839 20.2009 18.6554 19.3373C18.6056 19.0022 18.5708 18.7196 18.5469 18.5L37.5 18.5Z" stroke="black" stroke-opacity="0.12"/><defs>
<linearGradient id="paint0_linear_898_122954" x1="59.7778" y1="38" x2="59.7778" y2="58" gradientUnits="userSpaceOnUse">
<stop stop-color="#727171"/>
<stop offset="0.498292" stop-color="white"/>
<stop offset="1" stop-color="#727171"/>
</linearGradient>
<linearGradient id="paint1_linear_898_122954" x1="38" y1="15.2346" x2="18" y2="15.2346" gradientUnits="userSpaceOnUse">
<stop stop-color="#727171"/>
<stop offset="0.498292" stop-color="white"/>
<stop offset="1" stop-color="#727171"/>
</linearGradient>
<linearGradient id="paint2_linear_898_122954" x1="38" y1="19" x2="23.5" y2="30.5" gradientUnits="userSpaceOnUse">
<stop stop-color="#727171"/>
<stop offset="0.367326" stop-color="white"/>
<stop offset="1" stop-color="#727171"/>
</linearGradient>
</defs>
</svg>