<svg xmlns="http://www.w3.org/2000/svg" xmlns:tb="https://thingsboard.io/svg" width="112" height="112" viewBox="0 0 112 112" fill="none">
<tb:metadata xmlns=""><![CDATA[{
  "title": "Top black counter",
  "widgetSizeX": 2,
  "widgetSizeY": 2,
  "tags": [],
  "behavior": [],
  "properties": []
}]]></tb:metadata><rect x="4" y="74" width="104" height="20" fill="url(#paint0_linear_898_122359)"/><rect x="4.5" y="74.5" width="103" height="19" stroke="black" stroke-opacity="0.12"/><path d="M66 66V74.0526L56 83L46 74.0526V66H66Z" fill="url(#paint1_linear_898_122359)"/><path d="M65.5 66.5V73.8291L56 82.3291L46.5 73.8291V66.5H65.5Z" stroke="black" stroke-opacity="0.12"/><rect x="108.5" y="70.5" width="3" height="27" rx="1.5" fill="#D9D9D9" stroke="#727171"/><rect x="0.5" y="70.5" width="3" height="27" rx="1.5" fill="#D9D9D9" stroke="#727171"/><mask id="path-7-inside-1_898_122359" fill="white">
<path d="M91 35C91 54.33 75.33 70 56 70C36.67 70 21 54.33 21 35C21 15.67 36.67 0 56 0C75.33 0 91 15.67 91 35ZM24.9953 35C24.9953 52.1234 38.8766 66.0047 56 66.0047C73.1234 66.0047 87.0047 52.1234 87.0047 35C87.0047 17.8766 73.1234 3.99535 56 3.99535C38.8766 3.99535 24.9953 17.8766 24.9953 35Z"/>
</mask><path d="M91 35C91 54.33 75.33 70 56 70C36.67 70 21 54.33 21 35C21 15.67 36.67 0 56 0C75.33 0 91 15.67 91 35ZM24.9953 35C24.9953 52.1234 38.8766 66.0047 56 66.0047C73.1234 66.0047 87.0047 52.1234 87.0047 35C87.0047 17.8766 73.1234 3.99535 56 3.99535C38.8766 3.99535 24.9953 17.8766 24.9953 35Z" fill="#4A4848" stroke="#7D7D7D" stroke-width="2" mask="url(#path-7-inside-1_898_122359)"/><circle cx="56" cy="35" r="31" fill="#252525"/><rect x="33.5" y="29.5" width="45" height="11" rx="1" fill="white"/><rect x="33.5" y="29.5" width="45" height="11" rx="1" stroke="#7D7D7D"/><path d="M52.8829 34.2646V35.3105C52.8829 35.8115 52.8331 36.2393 52.7335 36.5938C52.6368 36.9453 52.4962 37.231 52.3116 37.4507C52.1271 37.6704 51.9059 37.8315 51.6481 37.9341C51.3932 38.0366 51.1075 38.0879 50.7911 38.0879C50.5392 38.0879 50.3048 38.0557 50.088 37.9912C49.8741 37.9268 49.6808 37.8257 49.5079 37.688C49.3351 37.5503 49.1871 37.373 49.0641 37.1562C48.944 36.9365 48.8502 36.6743 48.7828 36.3696C48.7184 36.0649 48.6861 35.7119 48.6861 35.3105V34.2646C48.6861 33.7607 48.7359 33.3359 48.8356 32.9902C48.9352 32.6416 49.0773 32.3589 49.2618 32.1421C49.4464 31.9224 49.6661 31.7627 49.921 31.6631C50.1788 31.5635 50.4659 31.5137 50.7823 31.5137C51.0372 31.5137 51.2716 31.5459 51.4855 31.6104C51.7023 31.6719 51.8956 31.77 52.0655 31.9048C52.2384 32.0396 52.3849 32.2153 52.505 32.4321C52.628 32.646 52.7218 32.9053 52.7862 33.21C52.8507 33.5117 52.8829 33.8633 52.8829 34.2646ZM51.8238 35.46V34.1064C51.8238 33.8516 51.8092 33.6274 51.7799 33.4341C51.7506 33.2378 51.7066 33.0723 51.6481 32.9375C51.5924 32.7998 51.5221 32.6885 51.4371 32.6035C51.3522 32.5156 51.2555 32.4526 51.1471 32.4146C51.0387 32.3735 50.9171 32.353 50.7823 32.353C50.6183 32.353 50.4718 32.3853 50.3429 32.4497C50.214 32.5112 50.1056 32.6108 50.0177 32.7485C49.9298 32.8862 49.8624 33.0679 49.8155 33.2935C49.7716 33.5161 49.7496 33.7871 49.7496 34.1064V35.46C49.7496 35.7178 49.7643 35.9448 49.7936 36.1411C49.8229 36.3374 49.8668 36.5059 49.9254 36.6465C49.984 36.7842 50.0543 36.8984 50.1363 36.9893C50.2213 37.0771 50.318 37.1416 50.4264 37.1826C50.5377 37.2236 50.6593 37.2441 50.7911 37.2441C50.9581 37.2441 51.1061 37.2119 51.235 37.1475C51.3639 37.083 51.4723 36.9805 51.5602 36.8398C51.6481 36.6963 51.714 36.5103 51.7579 36.2817C51.8019 36.0532 51.8238 35.7793 51.8238 35.46ZM55.1694 34.3218H55.8022C56.0483 34.3218 56.252 34.2793 56.4131 34.1943C56.5771 34.1094 56.6987 33.9922 56.7778 33.8428C56.8569 33.6934 56.8965 33.522 56.8965 33.3286C56.8965 33.1265 56.8599 32.9536 56.7866 32.8101C56.7163 32.6636 56.6079 32.5508 56.4614 32.4717C56.3179 32.3926 56.1348 32.353 55.9121 32.353C55.7246 32.353 55.5547 32.3911 55.4023 32.4673C55.2529 32.5405 55.1343 32.646 55.0464 32.7837C54.9585 32.9185 54.9146 33.0796 54.9146 33.2671H53.8511C53.8511 32.9272 53.9404 32.6255 54.1191 32.3618C54.2979 32.0981 54.541 31.8916 54.8486 31.7422C55.1592 31.5898 55.5078 31.5137 55.8945 31.5137C56.3076 31.5137 56.668 31.5825 56.9756 31.7202C57.2861 31.855 57.5278 32.0571 57.7007 32.3267C57.8735 32.5962 57.96 32.9302 57.96 33.3286C57.96 33.5103 57.9175 33.6948 57.8325 33.8823C57.7476 34.0698 57.6216 34.2412 57.4546 34.3965C57.2876 34.5488 57.0796 34.6733 56.8306 34.77C56.5815 34.8638 56.293 34.9106 55.9648 34.9106H55.1694V34.3218ZM55.1694 35.1479V34.5679H55.9648C56.3398 34.5679 56.6592 34.6118 56.9229 34.6997C57.1895 34.7876 57.4062 34.9092 57.5732 35.0645C57.7402 35.2168 57.8618 35.3911 57.938 35.5874C58.0171 35.7837 58.0566 35.9917 58.0566 36.2114C58.0566 36.5103 58.0024 36.7769 57.894 37.0112C57.7886 37.2427 57.6377 37.439 57.4414 37.6001C57.2451 37.7612 57.0151 37.8828 56.7515 37.9648C56.4907 38.0469 56.2065 38.0879 55.8989 38.0879C55.6235 38.0879 55.3599 38.0498 55.1079 37.9736C54.856 37.8975 54.6304 37.7847 54.4312 37.6353C54.2319 37.4829 54.0737 37.2939 53.9565 37.0684C53.8423 36.8398 53.7852 36.5762 53.7852 36.2773H54.8442C54.8442 36.4678 54.8882 36.6362 54.9761 36.7827C55.0669 36.9263 55.1929 37.0391 55.354 37.1211C55.5181 37.2031 55.7056 37.2441 55.9165 37.2441C56.1392 37.2441 56.3311 37.2046 56.4922 37.1255C56.6533 37.0464 56.7764 36.9292 56.8613 36.7739C56.9492 36.6187 56.9932 36.4312 56.9932 36.2114C56.9932 35.9624 56.9448 35.7603 56.8481 35.605C56.7515 35.4497 56.6138 35.3354 56.4351 35.2622C56.2563 35.186 56.0454 35.1479 55.8022 35.1479H55.1694ZM59.9916 37.165H60.0795C60.4838 37.165 60.8207 37.1123 61.0902 37.0068C61.3627 36.8984 61.5795 36.749 61.7406 36.5586C61.9018 36.3682 62.0175 36.144 62.0878 35.8862C62.1581 35.6284 62.1933 35.3486 62.1933 35.0469V33.9438C62.1933 33.6831 62.1654 33.4546 62.1098 33.2583C62.057 33.0591 61.9809 32.8936 61.8812 32.7617C61.7846 32.627 61.6718 32.5259 61.5429 32.4585C61.4169 32.3911 61.2807 32.3574 61.1342 32.3574C60.973 32.3574 60.828 32.394 60.6991 32.4673C60.5731 32.5376 60.4662 32.6357 60.3783 32.7617C60.2934 32.8848 60.2274 33.0298 60.1806 33.1968C60.1366 33.3608 60.1146 33.5366 60.1146 33.7241C60.1146 33.8999 60.1351 34.0698 60.1762 34.2339C60.2201 34.395 60.2846 34.5386 60.3695 34.6646C60.4545 34.7905 60.5614 34.8901 60.6903 34.9634C60.8192 35.0366 60.9701 35.0732 61.143 35.0732C61.307 35.0732 61.4579 35.0425 61.5956 34.981C61.7333 34.9165 61.8534 34.8301 61.9559 34.7217C62.0585 34.6133 62.1391 34.4917 62.1976 34.3569C62.2562 34.2222 62.2885 34.0845 62.2943 33.9438L62.6986 34.0669C62.6986 34.2896 62.6518 34.5093 62.558 34.7261C62.4672 34.9399 62.3397 35.1362 62.1757 35.3149C62.0145 35.4907 61.8256 35.6313 61.6088 35.7368C61.3949 35.8423 61.162 35.895 60.9101 35.895C60.6054 35.895 60.3358 35.8379 60.1015 35.7236C59.87 35.6064 59.6767 35.4482 59.5214 35.249C59.369 35.0498 59.2548 34.8213 59.1786 34.5635C59.1024 34.3057 59.0643 34.0347 59.0643 33.7505C59.0643 33.4429 59.1112 33.1543 59.205 32.8848C59.2987 32.6152 59.435 32.3779 59.6137 32.1729C59.7924 31.9648 60.0092 31.8037 60.2641 31.6895C60.5219 31.5723 60.8134 31.5137 61.1386 31.5137C61.4843 31.5137 61.7875 31.5811 62.0482 31.7158C62.309 31.8506 62.5287 32.0366 62.7074 32.2739C62.8861 32.5112 63.0209 32.7866 63.1117 33.1001C63.2025 33.4136 63.2479 33.7505 63.2479 34.1108V34.4844C63.2479 34.8623 63.2143 35.2271 63.1469 35.5786C63.0795 35.9272 62.9696 36.251 62.8173 36.5498C62.6679 36.8457 62.4701 37.1064 62.224 37.332C61.9809 37.5547 61.682 37.729 61.3275 37.855C60.976 37.978 60.5629 38.0396 60.0883 38.0396H59.9916V37.165Z" fill="black" fill-opacity="0.87"/><path d="M49.2502 47.4746V50H48.5442V46.8301H49.2092L49.2502 47.4746ZM49.136 48.2979L48.8957 48.2949C48.8957 48.0762 48.9231 47.874 48.9777 47.6885C49.0324 47.5029 49.1125 47.3418 49.218 47.2051C49.3235 47.0664 49.4543 46.96 49.6106 46.8857C49.7688 46.8096 49.9514 46.7715 50.1584 46.7715C50.3029 46.7715 50.4348 46.793 50.5539 46.8359C50.675 46.877 50.7795 46.9424 50.8674 47.0322C50.9572 47.1221 51.0256 47.2373 51.0725 47.3779C51.1213 47.5186 51.1457 47.6885 51.1457 47.8877V50H50.4397V47.9492C50.4397 47.7949 50.4162 47.6738 50.3694 47.5859C50.3244 47.498 50.259 47.4355 50.1731 47.3984C50.0891 47.3594 49.9885 47.3398 49.8713 47.3398C49.7385 47.3398 49.6252 47.3652 49.5315 47.416C49.4397 47.4668 49.3645 47.5361 49.3059 47.624C49.2473 47.7119 49.2043 47.8135 49.177 47.9287C49.1496 48.0439 49.136 48.167 49.136 48.2979ZM51.1018 48.1104L50.7707 48.1836C50.7707 47.9922 50.7971 47.8115 50.8498 47.6416C50.9045 47.4697 50.9836 47.3193 51.0871 47.1904C51.1926 47.0596 51.3225 46.957 51.4768 46.8828C51.6311 46.8086 51.8078 46.7715 52.007 46.7715C52.1692 46.7715 52.3137 46.7939 52.4406 46.8389C52.5695 46.8818 52.6789 46.9502 52.7688 47.0439C52.8586 47.1377 52.927 47.2598 52.9738 47.4102C53.0207 47.5586 53.0442 47.7383 53.0442 47.9492V50H52.3352V47.9463C52.3352 47.7861 52.3117 47.6621 52.2649 47.5742C52.2199 47.4863 52.1555 47.4258 52.0715 47.3926C51.9875 47.3574 51.8869 47.3398 51.7697 47.3398C51.6604 47.3398 51.5637 47.3604 51.4797 47.4014C51.3977 47.4404 51.3283 47.4961 51.2717 47.5684C51.2151 47.6387 51.1721 47.7197 51.1428 47.8115C51.1154 47.9033 51.1018 48.0029 51.1018 48.1104ZM54.2965 46.6836H54.5514C54.6354 46.6836 54.7047 46.6719 54.7594 46.6484C54.8141 46.623 54.8551 46.5889 54.8824 46.5459C54.9117 46.5029 54.9264 46.4521 54.9264 46.3936C54.9264 46.3232 54.899 46.2617 54.8443 46.209C54.7916 46.1543 54.7027 46.127 54.5777 46.127C54.482 46.127 54.401 46.1475 54.3346 46.1885C54.2701 46.2275 54.2379 46.2832 54.2379 46.3555H53.7047C53.7047 46.2168 53.7438 46.0986 53.8219 46.001C53.9 45.9033 54.0045 45.8291 54.1354 45.7783C54.2662 45.7275 54.4088 45.7021 54.5631 45.7021C54.7408 45.7021 54.8971 45.7275 55.0318 45.7783C55.1666 45.8271 55.2711 45.9004 55.3453 45.998C55.4215 46.0957 55.4596 46.2168 55.4596 46.3613C55.4596 46.4727 55.4244 46.5713 55.3541 46.6572C55.2857 46.7432 55.19 46.8105 55.067 46.8594C54.9459 46.9062 54.8033 46.9297 54.6393 46.9297H54.2965V46.6836ZM54.2965 47.0498V46.8096H54.6393C54.8209 46.8096 54.9762 46.8311 55.1051 46.874C55.234 46.915 55.3316 46.9785 55.3981 47.0645C55.4664 47.1504 55.5006 47.2617 55.5006 47.3984C55.5006 47.543 55.4596 47.666 55.3775 47.7676C55.2955 47.8691 55.1832 47.9463 55.0406 47.999C54.9 48.0518 54.7418 48.0781 54.566 48.0781C54.4195 48.0781 54.277 48.0547 54.1383 48.0078C54.0016 47.959 53.8883 47.8828 53.7984 47.7793C53.7106 47.6758 53.6666 47.54 53.6666 47.3721H54.2027C54.2027 47.4482 54.2379 47.5137 54.3082 47.5684C54.3785 47.623 54.4732 47.6504 54.5924 47.6504C54.7193 47.6504 54.8131 47.623 54.8736 47.5684C54.9361 47.5117 54.9674 47.4414 54.9674 47.3574C54.9674 47.2832 54.9498 47.2236 54.9147 47.1787C54.8815 47.1338 54.8336 47.1016 54.7711 47.082C54.7086 47.0605 54.6354 47.0498 54.5514 47.0498H54.2965ZM58.042 45.7344L56.3809 50.3662H55.8271L57.4912 45.7344H58.042ZM59.3266 45.5V50H58.6234V45.5H59.3266ZM59.2035 48.2979L58.975 48.2949C58.9769 48.0762 59.0072 47.874 59.0658 47.6885C59.1264 47.5029 59.2103 47.3418 59.3178 47.2051C59.4271 47.0664 59.558 46.96 59.7103 46.8857C59.8627 46.8096 60.0316 46.7715 60.2172 46.7715C60.3734 46.7715 60.5141 46.793 60.6391 46.8359C60.766 46.8789 60.8754 46.9482 60.9672 47.0439C61.059 47.1377 61.1283 47.2607 61.1752 47.4131C61.224 47.5635 61.2484 47.7471 61.2484 47.9639V50H60.5394V47.958C60.5394 47.8057 60.517 47.6846 60.4721 47.5947C60.4291 47.5049 60.3656 47.4404 60.2816 47.4014C60.1976 47.3604 60.0951 47.3398 59.974 47.3398C59.8471 47.3398 59.7348 47.3652 59.6371 47.416C59.5414 47.4668 59.4613 47.5361 59.3969 47.624C59.3324 47.7119 59.2836 47.8135 59.2504 47.9287C59.2191 48.0439 59.2035 48.167 59.2035 48.2979ZM62.7703 47.4336V50H62.0642V46.8301H62.7381L62.7703 47.4336ZM63.74 46.8096L63.7342 47.4658C63.6912 47.458 63.6443 47.4521 63.5935 47.4482C63.5447 47.4443 63.4959 47.4424 63.4471 47.4424C63.326 47.4424 63.2195 47.46 63.1277 47.4951C63.0359 47.5283 62.9588 47.5771 62.8963 47.6416C62.8357 47.7041 62.7889 47.7803 62.7556 47.8701C62.7224 47.96 62.7029 48.0605 62.6971 48.1719L62.5359 48.1836C62.5359 47.9844 62.5555 47.7998 62.5945 47.6299C62.6336 47.46 62.6922 47.3105 62.7703 47.1816C62.8504 47.0527 62.95 46.9521 63.0691 46.8799C63.1902 46.8076 63.3299 46.7715 63.4881 46.7715C63.531 46.7715 63.5769 46.7754 63.6258 46.7832C63.6765 46.791 63.7146 46.7998 63.74 46.8096Z" fill="white" fill-opacity="0.8"/><circle cx="46.5" cy="20.5" r="4.5" fill="url(#paint2_linear_898_122359)"/><circle cx="46.5" cy="20.5" r="4" stroke="black" stroke-opacity="0.12"/><circle cx="65.5" cy="20.5" r="4.5" fill="url(#paint3_linear_898_122359)"/><circle cx="65.5" cy="20.5" r="4" stroke="black" stroke-opacity="0.12"/><defs>
<linearGradient id="paint0_linear_898_122359" x1="61.7778" y1="74" x2="61.7778" y2="94" gradientUnits="userSpaceOnUse">
<stop stop-color="#727171"/>
<stop offset="0.498292" stop-color="white"/>
<stop offset="1" stop-color="#727171"/>
</linearGradient>
<linearGradient id="paint1_linear_898_122359" x1="66" y1="70.1975" x2="46" y2="70.1975" gradientUnits="userSpaceOnUse">
<stop stop-color="#727171"/>
<stop offset="0.498292" stop-color="white"/>
<stop offset="1" stop-color="#727171"/>
</linearGradient>
<linearGradient id="paint2_linear_898_122359" x1="43.4625" y1="17.125" x2="49.7625" y2="23.9875" gradientUnits="userSpaceOnUse">
<stop stop-color="#716F6F"/>
<stop offset="1" stop-color="#252525"/>
</linearGradient>
<linearGradient id="paint3_linear_898_122359" x1="62.4625" y1="17.125" x2="68.7625" y2="23.9875" gradientUnits="userSpaceOnUse">
<stop stop-color="#716F6F"/>
<stop offset="1" stop-color="#252525"/>
</linearGradient>
</defs>
</svg>