<svg xmlns="http://www.w3.org/2000/svg" width="18" height="18" viewBox="0 0 18 18">
  <path d="M3.75 2.25C2.92157 2.25 2.25 2.92157 2.25 3.75V14.25C2.25 15.0267 2.84028 15.6654 3.59668 15.7422L3.75 15.75H14.25L14.4033 15.7422C15.1093 15.6705 15.6705 15.1093 15.7422 14.4033L15.75 14.25V3.75C15.75 2.92157 15.0784 2.25 14.25 2.25H3.75ZM14.25 14.25H7.5V3.75H14.25V14.25ZM6 14.25H3.75V3.75H6V14.25Z"/>
  <path d="M8.97729 6.77197L11.2046 8.99927L8.97729 11.2266L9.77271 12.022L12.7954 8.99927L9.77271 5.97656L8.97729 6.77197Z"/>
</svg>
