<svg xmlns="http://www.w3.org/2000/svg" width="18" height="18" viewBox="0 0 18 18">
  <path d="M14.25 2.25C15.0784 2.25 15.75 2.92157 15.75 3.75V14.25C15.75 15.0267 15.1597 15.6654 14.4033 15.7422L14.25 15.75H3.75L3.59668 15.7422C2.89069 15.6705 2.32949 15.1093 2.25781 14.4033L2.25 14.25V3.75C2.25 2.92157 2.92157 2.25 3.75 2.25H14.25ZM3.75 14.25H10.5V3.75H3.75V14.25ZM12 14.25H14.25V3.75H12V14.25Z"/>
  <path d="M9.02271 6.77295L6.79541 9.00024L9.02271 11.2275L8.22729 12.0229L5.20459 9.00024L8.22729 5.97754L9.02271 6.77295Z"/>
</svg>
