<svg width="214" height="144" viewBox="0 0 214 144" fill="none" xmlns="http://www.w3.org/2000/svg">
<g filter="url(#filter0_d_3275_19097)">
<rect x="8.5" y="4" width="197" height="128" rx="4" fill="white" shape-rendering="crispEdges"/>
<g filter="url(#filter1_b_3275_19097)">
<rect x="20.5" y="16" width="173" height="104" rx="4" fill="white" fill-opacity="0.76"/>
</g>
<path d="M37.9766 36.7578H35.0156V35.2031H37.9766C38.4922 35.2031 38.9089 35.1198 39.2266 34.9531C39.5443 34.7865 39.776 34.5573 39.9219 34.2656C40.0729 33.9688 40.1484 33.6302 40.1484 33.25C40.1484 32.8906 40.0729 32.5547 39.9219 32.2422C39.776 31.9245 39.5443 31.6693 39.2266 31.4766C38.9089 31.2839 38.4922 31.1875 37.9766 31.1875H35.6172V41H33.6562V29.625H37.9766C38.8568 29.625 39.6042 29.7812 40.2188 30.0938C40.8385 30.401 41.3099 30.8281 41.6328 31.375C41.9557 31.9167 42.1172 32.5365 42.1172 33.2344C42.1172 33.9688 41.9557 34.599 41.6328 35.125C41.3099 35.651 40.8385 36.0547 40.2188 36.3359C39.6042 36.6172 38.8568 36.7578 37.9766 36.7578ZM45.8281 34.1562V41H43.9453V32.5469H45.7422L45.8281 34.1562ZM48.4141 32.4922L48.3984 34.2422C48.2839 34.2214 48.1589 34.2057 48.0234 34.1953C47.8932 34.1849 47.763 34.1797 47.6328 34.1797C47.3099 34.1797 47.026 34.2266 46.7812 34.3203C46.5365 34.4089 46.3307 34.5391 46.1641 34.7109C46.0026 34.8776 45.8776 35.0807 45.7891 35.3203C45.7005 35.5599 45.6484 35.8281 45.6328 36.125L45.2031 36.1562C45.2031 35.625 45.2552 35.1328 45.3594 34.6797C45.4635 34.2266 45.6198 33.8281 45.8281 33.4844C46.0417 33.1406 46.3073 32.8724 46.625 32.6797C46.9479 32.487 47.3203 32.3906 47.7422 32.3906C47.8568 32.3906 47.9792 32.401 48.1094 32.4219C48.2448 32.4427 48.3464 32.4661 48.4141 32.4922ZM49.2812 36.8672V36.6875C49.2812 36.0781 49.3698 35.513 49.5469 34.9922C49.724 34.4661 49.9792 34.0104 50.3125 33.625C50.651 33.2344 51.0625 32.9323 51.5469 32.7188C52.0365 32.5 52.5885 32.3906 53.2031 32.3906C53.8229 32.3906 54.375 32.5 54.8594 32.7188C55.349 32.9323 55.763 33.2344 56.1016 33.625C56.4401 34.0104 56.6979 34.4661 56.875 34.9922C57.0521 35.513 57.1406 36.0781 57.1406 36.6875V36.8672C57.1406 37.4766 57.0521 38.0417 56.875 38.5625C56.6979 39.0833 56.4401 39.5391 56.1016 39.9297C55.763 40.3151 55.3516 40.6172 54.8672 40.8359C54.3828 41.0495 53.8333 41.1562 53.2188 41.1562C52.599 41.1562 52.0443 41.0495 51.5547 40.8359C51.0703 40.6172 50.6589 40.3151 50.3203 39.9297C49.9818 39.5391 49.724 39.0833 49.5469 38.5625C49.3698 38.0417 49.2812 37.4766 49.2812 36.8672ZM51.1641 36.6875V36.8672C51.1641 37.2474 51.2031 37.6068 51.2812 37.9453C51.3594 38.2839 51.4818 38.5807 51.6484 38.8359C51.8151 39.0911 52.0286 39.2917 52.2891 39.4375C52.5495 39.5833 52.8594 39.6562 53.2188 39.6562C53.5677 39.6562 53.8698 39.5833 54.125 39.4375C54.3854 39.2917 54.599 39.0911 54.7656 38.8359C54.9323 38.5807 55.0547 38.2839 55.1328 37.9453C55.2161 37.6068 55.2578 37.2474 55.2578 36.8672V36.6875C55.2578 36.3125 55.2161 35.9583 55.1328 35.625C55.0547 35.2865 54.9297 34.987 54.7578 34.7266C54.5911 34.4661 54.3776 34.263 54.1172 34.1172C53.862 33.9661 53.5573 33.8906 53.2031 33.8906C52.849 33.8906 52.5417 33.9661 52.2812 34.1172C52.026 34.263 51.8151 34.4661 51.6484 34.7266C51.4818 34.987 51.3594 35.2865 51.2812 35.625C51.2031 35.9583 51.1641 36.3125 51.1641 36.6875ZM64.3828 32.5469H66.0938V40.7656C66.0938 41.526 65.9323 42.1719 65.6094 42.7031C65.2865 43.2344 64.8359 43.638 64.2578 43.9141C63.6797 44.1953 63.0104 44.3359 62.25 44.3359C61.9271 44.3359 61.5677 44.2891 61.1719 44.1953C60.7812 44.1016 60.401 43.9505 60.0312 43.7422C59.6667 43.5391 59.362 43.2708 59.1172 42.9375L60 41.8281C60.3021 42.1875 60.6354 42.4505 61 42.6172C61.3646 42.7839 61.7474 42.8672 62.1484 42.8672C62.5807 42.8672 62.9479 42.7865 63.25 42.625C63.5573 42.4688 63.7943 42.237 63.9609 41.9297C64.1276 41.6224 64.2109 41.2474 64.2109 40.8047V34.4609L64.3828 32.5469ZM58.6406 36.8672V36.7031C58.6406 36.0625 58.7188 35.4792 58.875 34.9531C59.0312 34.4219 59.2552 33.9661 59.5469 33.5859C59.8385 33.2005 60.1927 32.9062 60.6094 32.7031C61.026 32.4948 61.4974 32.3906 62.0234 32.3906C62.5703 32.3906 63.0365 32.4896 63.4219 32.6875C63.8125 32.8854 64.138 33.1693 64.3984 33.5391C64.6589 33.9036 64.862 34.3411 65.0078 34.8516C65.1589 35.3568 65.2708 35.9193 65.3438 36.5391V37.0625C65.276 37.6667 65.1615 38.2188 65 38.7188C64.8385 39.2188 64.625 39.651 64.3594 40.0156C64.0938 40.3802 63.7656 40.6615 63.375 40.8594C62.9896 41.0573 62.5339 41.1562 62.0078 41.1562C61.4922 41.1562 61.026 41.0495 60.6094 40.8359C60.1979 40.6224 59.8438 40.3229 59.5469 39.9375C59.2552 39.5521 59.0312 39.099 58.875 38.5781C58.7188 38.0521 58.6406 37.4818 58.6406 36.8672ZM60.5234 36.7031V36.8672C60.5234 37.2526 60.5599 37.612 60.6328 37.9453C60.7109 38.2786 60.8281 38.5729 60.9844 38.8281C61.1458 39.0781 61.349 39.276 61.5938 39.4219C61.8438 39.5625 62.138 39.6328 62.4766 39.6328C62.9193 39.6328 63.2812 39.5391 63.5625 39.3516C63.849 39.1641 64.0677 38.9115 64.2188 38.5938C64.375 38.2708 64.4844 37.9115 64.5469 37.5156V36.1016C64.5156 35.7943 64.4505 35.5078 64.3516 35.2422C64.2578 34.9766 64.1302 34.7448 63.9688 34.5469C63.8073 34.3438 63.6042 34.1875 63.3594 34.0781C63.1146 33.9635 62.8255 33.9062 62.4922 33.9062C62.1536 33.9062 61.8594 33.9792 61.6094 34.125C61.3594 34.2708 61.1536 34.4714 60.9922 34.7266C60.8359 34.9818 60.7188 35.2786 60.6406 35.6172C60.5625 35.9557 60.5234 36.3177 60.5234 36.7031ZM70.1875 34.1562V41H68.3047V32.5469H70.1016L70.1875 34.1562ZM72.7734 32.4922L72.7578 34.2422C72.6432 34.2214 72.5182 34.2057 72.3828 34.1953C72.2526 34.1849 72.1224 34.1797 71.9922 34.1797C71.6693 34.1797 71.3854 34.2266 71.1406 34.3203C70.8958 34.4089 70.6901 34.5391 70.5234 34.7109C70.362 34.8776 70.237 35.0807 70.1484 35.3203C70.0599 35.5599 70.0078 35.8281 69.9922 36.125L69.5625 36.1562C69.5625 35.625 69.6146 35.1328 69.7188 34.6797C69.8229 34.2266 69.9792 33.8281 70.1875 33.4844C70.401 33.1406 70.6667 32.8724 70.9844 32.6797C71.3073 32.487 71.6797 32.3906 72.1016 32.3906C72.2161 32.3906 72.3385 32.401 72.4688 32.4219C72.6042 32.4427 72.7057 32.4661 72.7734 32.4922ZM77.7734 41.1562C77.1484 41.1562 76.5833 41.0547 76.0781 40.8516C75.5781 40.6432 75.151 40.3542 74.7969 39.9844C74.4479 39.6146 74.1797 39.1797 73.9922 38.6797C73.8047 38.1797 73.7109 37.6406 73.7109 37.0625V36.75C73.7109 36.0885 73.8073 35.4896 74 34.9531C74.1927 34.4167 74.4609 33.9583 74.8047 33.5781C75.1484 33.1927 75.5547 32.8984 76.0234 32.6953C76.4922 32.4922 77 32.3906 77.5469 32.3906C78.151 32.3906 78.6797 32.4922 79.1328 32.6953C79.5859 32.8984 79.9609 33.1849 80.2578 33.5547C80.5599 33.9193 80.7839 34.3542 80.9297 34.8594C81.0807 35.3646 81.1562 35.9219 81.1562 36.5312V37.3359H74.625V35.9844H79.2969V35.8359C79.2865 35.4974 79.2188 35.1797 79.0938 34.8828C78.974 34.5859 78.7891 34.3464 78.5391 34.1641C78.2891 33.9818 77.9557 33.8906 77.5391 33.8906C77.2266 33.8906 76.9479 33.9583 76.7031 34.0938C76.4635 34.224 76.263 34.4141 76.1016 34.6641C75.9401 34.9141 75.8151 35.2161 75.7266 35.5703C75.6432 35.9193 75.6016 36.3125 75.6016 36.75V37.0625C75.6016 37.4323 75.651 37.776 75.75 38.0938C75.8542 38.4062 76.0052 38.6797 76.2031 38.9141C76.401 39.1484 76.6406 39.3333 76.9219 39.4688C77.2031 39.599 77.5234 39.6641 77.8828 39.6641C78.3359 39.6641 78.7396 39.5729 79.0938 39.3906C79.4479 39.2083 79.7552 38.9505 80.0156 38.6172L81.0078 39.5781C80.8255 39.8438 80.5885 40.099 80.2969 40.3438C80.0052 40.5833 79.6484 40.7786 79.2266 40.9297C78.8099 41.0807 78.3255 41.1562 77.7734 41.1562ZM87.6172 38.7109C87.6172 38.5234 87.5703 38.3542 87.4766 38.2031C87.3828 38.0469 87.2031 37.9062 86.9375 37.7812C86.6771 37.6562 86.2917 37.5417 85.7812 37.4375C85.3333 37.3385 84.9219 37.2214 84.5469 37.0859C84.1771 36.9453 83.8594 36.776 83.5938 36.5781C83.3281 36.3802 83.1224 36.1458 82.9766 35.875C82.8307 35.6042 82.7578 35.2917 82.7578 34.9375C82.7578 34.5938 82.8333 34.2682 82.9844 33.9609C83.1354 33.6536 83.3516 33.3828 83.6328 33.1484C83.9141 32.9141 84.2552 32.7292 84.6562 32.5938C85.0625 32.4583 85.5156 32.3906 86.0156 32.3906C86.724 32.3906 87.3307 32.5104 87.8359 32.75C88.3464 32.9844 88.737 33.3047 89.0078 33.7109C89.2786 34.112 89.4141 34.5651 89.4141 35.0703H87.5312C87.5312 34.8464 87.474 34.638 87.3594 34.4453C87.25 34.2474 87.0833 34.0885 86.8594 33.9688C86.6354 33.8438 86.3542 33.7812 86.0156 33.7812C85.6927 33.7812 85.4245 33.8333 85.2109 33.9375C85.0026 34.0365 84.8464 34.1667 84.7422 34.3281C84.6432 34.4896 84.5938 34.6667 84.5938 34.8594C84.5938 35 84.6198 35.1276 84.6719 35.2422C84.7292 35.3516 84.8229 35.4531 84.9531 35.5469C85.0833 35.6354 85.2604 35.7188 85.4844 35.7969C85.7135 35.875 86 35.9505 86.3438 36.0234C86.9896 36.1589 87.5443 36.3333 88.0078 36.5469C88.4766 36.7552 88.8359 37.026 89.0859 37.3594C89.3359 37.6875 89.4609 38.1042 89.4609 38.6094C89.4609 38.9844 89.3802 39.3281 89.2188 39.6406C89.0625 39.9479 88.8333 40.2161 88.5312 40.4453C88.2292 40.6693 87.8672 40.8438 87.4453 40.9688C87.0286 41.0938 86.5599 41.1562 86.0391 41.1562C85.2734 41.1562 84.625 41.0208 84.0938 40.75C83.5625 40.474 83.1589 40.1224 82.8828 39.6953C82.612 39.263 82.4766 38.8151 82.4766 38.3516H84.2969C84.3177 38.7005 84.4141 38.9792 84.5859 39.1875C84.763 39.3906 84.9818 39.5391 85.2422 39.6328C85.5078 39.7214 85.7812 39.7656 86.0625 39.7656C86.401 39.7656 86.6849 39.7214 86.9141 39.6328C87.1432 39.5391 87.3177 39.4141 87.4375 39.2578C87.5573 39.0964 87.6172 38.9141 87.6172 38.7109ZM96.1016 38.7109C96.1016 38.5234 96.0547 38.3542 95.9609 38.2031C95.8672 38.0469 95.6875 37.9062 95.4219 37.7812C95.1615 37.6562 94.776 37.5417 94.2656 37.4375C93.8177 37.3385 93.4062 37.2214 93.0312 37.0859C92.6615 36.9453 92.3438 36.776 92.0781 36.5781C91.8125 36.3802 91.6068 36.1458 91.4609 35.875C91.3151 35.6042 91.2422 35.2917 91.2422 34.9375C91.2422 34.5938 91.3177 34.2682 91.4688 33.9609C91.6198 33.6536 91.8359 33.3828 92.1172 33.1484C92.3984 32.9141 92.7396 32.7292 93.1406 32.5938C93.5469 32.4583 94 32.3906 94.5 32.3906C95.2083 32.3906 95.8151 32.5104 96.3203 32.75C96.8307 32.9844 97.2214 33.3047 97.4922 33.7109C97.763 34.112 97.8984 34.5651 97.8984 35.0703H96.0156C96.0156 34.8464 95.9583 34.638 95.8438 34.4453C95.7344 34.2474 95.5677 34.0885 95.3438 33.9688C95.1198 33.8438 94.8385 33.7812 94.5 33.7812C94.1771 33.7812 93.9089 33.8333 93.6953 33.9375C93.487 34.0365 93.3307 34.1667 93.2266 34.3281C93.1276 34.4896 93.0781 34.6667 93.0781 34.8594C93.0781 35 93.1042 35.1276 93.1562 35.2422C93.2135 35.3516 93.3073 35.4531 93.4375 35.5469C93.5677 35.6354 93.7448 35.7188 93.9688 35.7969C94.1979 35.875 94.4844 35.9505 94.8281 36.0234C95.474 36.1589 96.0286 36.3333 96.4922 36.5469C96.9609 36.7552 97.3203 37.026 97.5703 37.3594C97.8203 37.6875 97.9453 38.1042 97.9453 38.6094C97.9453 38.9844 97.8646 39.3281 97.7031 39.6406C97.5469 39.9479 97.3177 40.2161 97.0156 40.4453C96.7135 40.6693 96.3516 40.8438 95.9297 40.9688C95.513 41.0938 95.0443 41.1562 94.5234 41.1562C93.7578 41.1562 93.1094 41.0208 92.5781 40.75C92.0469 40.474 91.6432 40.1224 91.3672 39.6953C91.0964 39.263 90.9609 38.8151 90.9609 38.3516H92.7812C92.8021 38.7005 92.8984 38.9792 93.0703 39.1875C93.2474 39.3906 93.4661 39.5391 93.7266 39.6328C93.9922 39.7214 94.2656 39.7656 94.5469 39.7656C94.8854 39.7656 95.1693 39.7214 95.3984 39.6328C95.6276 39.5391 95.8021 39.4141 95.9219 39.2578C96.0417 39.0964 96.1016 38.9141 96.1016 38.7109ZM104.086 29H105.969V39.1953L105.789 41H104.086V29ZM111.484 36.6953V36.8594C111.484 37.4844 111.414 38.0599 111.273 38.5859C111.138 39.1068 110.93 39.5599 110.648 39.9453C110.372 40.3307 110.029 40.6302 109.617 40.8438C109.211 41.0521 108.74 41.1562 108.203 41.1562C107.677 41.1562 107.219 41.0573 106.828 40.8594C106.438 40.6615 106.109 40.3802 105.844 40.0156C105.583 39.651 105.372 39.2161 105.211 38.7109C105.049 38.2057 104.935 37.6484 104.867 37.0391V36.5156C104.935 35.901 105.049 35.3438 105.211 34.8438C105.372 34.3385 105.583 33.9036 105.844 33.5391C106.109 33.1693 106.435 32.8854 106.82 32.6875C107.211 32.4896 107.667 32.3906 108.188 32.3906C108.729 32.3906 109.206 32.4948 109.617 32.7031C110.034 32.9115 110.38 33.2083 110.656 33.5938C110.932 33.974 111.138 34.4271 111.273 34.9531C111.414 35.4792 111.484 36.0599 111.484 36.6953ZM109.602 36.8594V36.6953C109.602 36.3151 109.57 35.9583 109.508 35.625C109.445 35.2865 109.341 34.9896 109.195 34.7344C109.055 34.4792 108.862 34.2786 108.617 34.1328C108.378 33.9818 108.078 33.9062 107.719 33.9062C107.385 33.9062 107.099 33.9635 106.859 34.0781C106.62 34.1927 106.419 34.349 106.258 34.5469C106.096 34.7448 105.969 34.974 105.875 35.2344C105.786 35.4948 105.727 35.776 105.695 36.0781V37.4922C105.742 37.8828 105.841 38.2422 105.992 38.5703C106.148 38.8932 106.367 39.1536 106.648 39.3516C106.93 39.5443 107.292 39.6406 107.734 39.6406C108.083 39.6406 108.378 39.5703 108.617 39.4297C108.857 39.2891 109.047 39.0938 109.188 38.8438C109.333 38.5885 109.438 38.2917 109.5 37.9531C109.568 37.6146 109.602 37.25 109.602 36.8594ZM118.094 39.3047V35.2734C118.094 34.9714 118.039 34.7109 117.93 34.4922C117.82 34.2734 117.654 34.1042 117.43 33.9844C117.211 33.8646 116.935 33.8047 116.602 33.8047C116.294 33.8047 116.029 33.8568 115.805 33.9609C115.581 34.0651 115.406 34.2057 115.281 34.3828C115.156 34.5599 115.094 34.7604 115.094 34.9844H113.219C113.219 34.651 113.299 34.3281 113.461 34.0156C113.622 33.7031 113.857 33.4245 114.164 33.1797C114.471 32.9349 114.839 32.7422 115.266 32.6016C115.693 32.4609 116.172 32.3906 116.703 32.3906C117.339 32.3906 117.901 32.4974 118.391 32.7109C118.885 32.9245 119.273 33.2474 119.555 33.6797C119.841 34.1068 119.984 34.6432 119.984 35.2891V39.0469C119.984 39.4323 120.01 39.7786 120.062 40.0859C120.12 40.388 120.201 40.651 120.305 40.875V41H118.375C118.286 40.7969 118.216 40.5391 118.164 40.2266C118.117 39.9089 118.094 39.6016 118.094 39.3047ZM118.367 35.8594L118.383 37.0234H117.031C116.682 37.0234 116.375 37.0573 116.109 37.125C115.844 37.1875 115.622 37.2812 115.445 37.4062C115.268 37.5312 115.135 37.6823 115.047 37.8594C114.958 38.0365 114.914 38.237 114.914 38.4609C114.914 38.6849 114.966 38.8906 115.07 39.0781C115.174 39.2604 115.326 39.4036 115.523 39.5078C115.727 39.612 115.971 39.6641 116.258 39.6641C116.643 39.6641 116.979 39.5859 117.266 39.4297C117.557 39.2682 117.786 39.0729 117.953 38.8438C118.12 38.6094 118.208 38.388 118.219 38.1797L118.828 39.0156C118.766 39.2292 118.659 39.4583 118.508 39.7031C118.357 39.9479 118.159 40.1823 117.914 40.4062C117.674 40.625 117.385 40.8047 117.047 40.9453C116.714 41.0859 116.328 41.1562 115.891 41.1562C115.339 41.1562 114.846 41.0469 114.414 40.8281C113.982 40.6042 113.643 40.3047 113.398 39.9297C113.154 39.5495 113.031 39.1198 113.031 38.6406C113.031 38.1927 113.115 37.7969 113.281 37.4531C113.453 37.1042 113.703 36.8125 114.031 36.5781C114.365 36.3438 114.771 36.1667 115.25 36.0469C115.729 35.9219 116.276 35.8594 116.891 35.8594H118.367ZM124.094 34.1562V41H122.211V32.5469H124.008L124.094 34.1562ZM126.68 32.4922L126.664 34.2422C126.549 34.2214 126.424 34.2057 126.289 34.1953C126.159 34.1849 126.029 34.1797 125.898 34.1797C125.576 34.1797 125.292 34.2266 125.047 34.3203C124.802 34.4089 124.596 34.5391 124.43 34.7109C124.268 34.8776 124.143 35.0807 124.055 35.3203C123.966 35.5599 123.914 35.8281 123.898 36.125L123.469 36.1562C123.469 35.625 123.521 35.1328 123.625 34.6797C123.729 34.2266 123.885 33.8281 124.094 33.4844C124.307 33.1406 124.573 32.8724 124.891 32.6797C125.214 32.487 125.586 32.3906 126.008 32.3906C126.122 32.3906 126.245 32.401 126.375 32.4219C126.51 32.4427 126.612 32.4661 126.68 32.4922Z" fill="black" fill-opacity="0.87"/>
<path d="M37.1055 65.6914H38.793C39.4492 65.6914 39.9922 65.5781 40.4219 65.3516C40.8594 65.125 41.1836 64.8125 41.3945 64.4141C41.6055 64.0156 41.7109 63.5586 41.7109 63.043C41.7109 62.5039 41.6133 62.043 41.418 61.6602C41.2305 61.2695 40.9414 60.9688 40.5508 60.7578C40.168 60.5469 39.6797 60.4414 39.0859 60.4414C38.5859 60.4414 38.1328 60.543 37.7266 60.7461C37.3281 60.9414 37.0117 61.2227 36.7773 61.5898C36.543 61.9492 36.4258 62.3789 36.4258 62.8789H33.5898C33.5898 61.9727 33.8281 61.168 34.3047 60.4648C34.7812 59.7617 35.4297 59.2109 36.25 58.8125C37.0781 58.4062 38.0078 58.2031 39.0391 58.2031C40.1406 58.2031 41.1016 58.3867 41.9219 58.7539C42.75 59.1133 43.3945 59.6523 43.8555 60.3711C44.3164 61.0898 44.5469 61.9805 44.5469 63.043C44.5469 63.5273 44.4336 64.0195 44.207 64.5195C43.9805 65.0195 43.6445 65.4766 43.1992 65.8906C42.7539 66.2969 42.1992 66.6289 41.5352 66.8867C40.8711 67.1367 40.1016 67.2617 39.2266 67.2617H37.1055V65.6914ZM37.1055 67.8945V66.3477H39.2266C40.2266 66.3477 41.0781 66.4648 41.7812 66.6992C42.4922 66.9336 43.0703 67.2578 43.5156 67.6719C43.9609 68.0781 44.2852 68.543 44.4883 69.0664C44.6992 69.5898 44.8047 70.1445 44.8047 70.7305C44.8047 71.5273 44.6602 72.2383 44.3711 72.8633C44.0898 73.4805 43.6875 74.0039 43.1641 74.4336C42.6406 74.8633 42.0273 75.1875 41.3242 75.4062C40.6289 75.625 39.8711 75.7344 39.0508 75.7344C38.3164 75.7344 37.6133 75.6328 36.9414 75.4297C36.2695 75.2266 35.668 74.9258 35.1367 74.5273C34.6055 74.1211 34.1836 73.6172 33.8711 73.0156C33.5664 72.4062 33.4141 71.7031 33.4141 70.9062H36.2383C36.2383 71.4141 36.3555 71.8633 36.5898 72.2539C36.832 72.6367 37.168 72.9375 37.5977 73.1562C38.0352 73.375 38.5352 73.4844 39.0977 73.4844C39.6914 73.4844 40.2031 73.3789 40.6328 73.168C41.0625 72.957 41.3906 72.6445 41.6172 72.2305C41.8516 71.8164 41.9688 71.3164 41.9688 70.7305C41.9688 70.0664 41.8398 69.5273 41.582 69.1133C41.3242 68.6992 40.957 68.3945 40.4805 68.1992C40.0039 67.9961 39.4414 67.8945 38.793 67.8945H37.1055ZM55.9609 58.332H56.3125V60.6406H56.1133C55.1055 60.6406 54.2344 60.7969 53.5 61.1094C52.7734 61.4219 52.1758 61.8516 51.707 62.3984C51.2383 62.9453 50.8867 63.5859 50.6523 64.3203C50.4258 65.0469 50.3125 65.8203 50.3125 66.6406V69.3242C50.3125 70.0039 50.3867 70.6055 50.5352 71.1289C50.6836 71.6445 50.8906 72.0781 51.1562 72.4297C51.4297 72.7734 51.7422 73.0352 52.0938 73.2148C52.4453 73.3945 52.8242 73.4844 53.2305 73.4844C53.6523 73.4844 54.0352 73.3984 54.3789 73.2266C54.7227 73.0469 55.0156 72.8008 55.2578 72.4883C55.5 72.1758 55.6836 71.8047 55.8086 71.375C55.9336 70.9453 55.9961 70.4766 55.9961 69.9688C55.9961 69.4844 55.9336 69.0312 55.8086 68.6094C55.6914 68.1797 55.5156 67.8047 55.2812 67.4844C55.0469 67.1562 54.7539 66.9023 54.4023 66.7227C54.0586 66.5352 53.6602 66.4414 53.207 66.4414C52.6445 66.4414 52.1328 66.5742 51.6719 66.8398C51.2188 67.1055 50.8516 67.4531 50.5703 67.8828C50.2969 68.3047 50.1484 68.7539 50.125 69.2305L49.0469 68.8789C49.1094 68.1523 49.2695 67.5 49.5273 66.9219C49.793 66.3438 50.1406 65.8516 50.5703 65.4453C51 65.0391 51.4961 64.7305 52.0586 64.5195C52.6289 64.3008 53.2539 64.1914 53.9336 64.1914C54.7617 64.1914 55.4805 64.3477 56.0898 64.6602C56.6992 64.9727 57.2031 65.3984 57.6016 65.9375C58.0078 66.4688 58.3086 67.0781 58.5039 67.7656C58.707 68.4453 58.8086 69.1562 58.8086 69.8984C58.8086 70.7188 58.6836 71.4844 58.4336 72.1953C58.1836 72.8984 57.8164 73.5156 57.332 74.0469C56.8555 74.5781 56.2734 74.9922 55.5859 75.2891C54.9062 75.5859 54.1328 75.7344 53.2656 75.7344C52.3516 75.7344 51.5352 75.5586 50.8164 75.207C50.1055 74.8555 49.5 74.3711 49 73.7539C48.5078 73.1367 48.1328 72.4258 47.875 71.6211C47.6172 70.8164 47.4883 69.9648 47.4883 69.0664V67.8945C47.4883 66.5977 47.6523 65.375 47.9805 64.2266C48.3086 63.0703 48.8125 62.0508 49.4922 61.168C50.1797 60.2852 51.0586 59.5938 52.1289 59.0938C53.1992 58.5859 54.4766 58.332 55.9609 58.332Z" fill="black" fill-opacity="0.87"/>
<path d="M63.2178 67.9873V67.4609C63.2178 67.0827 63.2998 66.7386 63.4639 66.4287C63.6279 66.1188 63.8626 65.8704 64.168 65.6836C64.4733 65.4967 64.8356 65.4033 65.2549 65.4033C65.6833 65.4033 66.0479 65.4967 66.3486 65.6836C66.654 65.8704 66.8887 66.1188 67.0527 66.4287C67.2168 66.7386 67.2988 67.0827 67.2988 67.4609V67.9873C67.2988 68.3564 67.2168 68.696 67.0527 69.0059C66.8932 69.3158 66.6608 69.5641 66.3555 69.751C66.0547 69.9378 65.6924 70.0312 65.2686 70.0312C64.8447 70.0312 64.4779 69.9378 64.168 69.751C63.8626 69.5641 63.6279 69.3158 63.4639 69.0059C63.2998 68.696 63.2178 68.3564 63.2178 67.9873ZM64.168 67.4609V67.9873C64.168 68.1969 64.2067 68.3952 64.2842 68.582C64.3662 68.7689 64.4893 68.9215 64.6533 69.04C64.8174 69.154 65.0225 69.2109 65.2686 69.2109C65.5146 69.2109 65.7174 69.154 65.877 69.04C66.0365 68.9215 66.1549 68.7689 66.2324 68.582C66.3099 68.3952 66.3486 68.1969 66.3486 67.9873V67.4609C66.3486 67.2467 66.3076 67.0462 66.2256 66.8594C66.1481 66.668 66.0273 66.5153 65.8633 66.4014C65.7038 66.2829 65.501 66.2236 65.2549 66.2236C65.0133 66.2236 64.8105 66.2829 64.6465 66.4014C64.487 66.5153 64.3662 66.668 64.2842 66.8594C64.2067 67.0462 64.168 67.2467 64.168 67.4609ZM68.0645 73.5928V73.0596C68.0645 72.6859 68.1465 72.3441 68.3105 72.0342C68.4746 71.7243 68.7093 71.4759 69.0146 71.2891C69.32 71.1022 69.6823 71.0088 70.1016 71.0088C70.5299 71.0088 70.8945 71.1022 71.1953 71.2891C71.5007 71.4759 71.7354 71.7243 71.8994 72.0342C72.0635 72.3441 72.1455 72.6859 72.1455 73.0596V73.5928C72.1455 73.9665 72.0635 74.3083 71.8994 74.6182C71.7399 74.9281 71.5075 75.1764 71.2021 75.3633C70.9014 75.5501 70.5391 75.6436 70.1152 75.6436C69.6914 75.6436 69.3268 75.5501 69.0215 75.3633C68.7161 75.1764 68.4792 74.9281 68.3105 74.6182C68.1465 74.3083 68.0645 73.9665 68.0645 73.5928ZM69.0146 73.0596V73.5928C69.0146 73.8024 69.0534 74.0029 69.1309 74.1943C69.2129 74.3812 69.3359 74.5339 69.5 74.6523C69.6641 74.7663 69.8691 74.8232 70.1152 74.8232C70.3613 74.8232 70.5641 74.7663 70.7236 74.6523C70.8877 74.5339 71.0085 74.3812 71.0859 74.1943C71.1634 74.0075 71.2021 73.807 71.2021 73.5928V73.0596C71.2021 72.8454 71.1611 72.6449 71.0791 72.458C71.0016 72.2712 70.8809 72.1208 70.7168 72.0068C70.5573 71.8883 70.3522 71.8291 70.1016 71.8291C69.86 71.8291 69.6572 71.8883 69.4932 72.0068C69.3337 72.1208 69.2129 72.2712 69.1309 72.458C69.0534 72.6449 69.0146 72.8454 69.0146 73.0596ZM70.416 66.9619L65.5557 74.7412L64.8447 74.29L69.7051 66.5107L70.416 66.9619Z" fill="black" fill-opacity="0.87"/>
<g clip-path="url(#clip0_3275_19097)">
<rect x="32.5" y="87.5" width="149" height="5" rx="2.5" fill="black" fill-opacity="0.04"/>
<rect width="51" height="5" rx="2.5" transform="matrix(-1 0 0 1 83.5 87.5)" fill="#3F52DD"/>
</g>
<path d="M38.0591 99.9668V101.159C38.0591 101.8 38.0018 102.341 37.8872 102.781C37.7726 103.222 37.6079 103.576 37.3931 103.845C37.1782 104.113 36.9186 104.308 36.6143 104.43C36.3135 104.548 35.9733 104.607 35.5938 104.607C35.293 104.607 35.0155 104.57 34.7612 104.495C34.507 104.419 34.2778 104.299 34.0737 104.135C33.8732 103.966 33.7013 103.748 33.5581 103.479C33.4149 103.211 33.3057 102.885 33.2305 102.502C33.1553 102.119 33.1177 101.671 33.1177 101.159V99.9668C33.1177 99.3258 33.175 98.7887 33.2896 98.3555C33.4077 97.9222 33.5742 97.5749 33.7891 97.3135C34.0039 97.0485 34.2617 96.8587 34.5625 96.7441C34.8669 96.6296 35.207 96.5723 35.583 96.5723C35.8874 96.5723 36.1667 96.6099 36.4209 96.6851C36.6787 96.7567 36.9079 96.873 37.1084 97.0342C37.3089 97.1917 37.479 97.403 37.6187 97.668C37.7619 97.9294 37.8711 98.2498 37.9463 98.6294C38.0215 99.009 38.0591 99.4548 38.0591 99.9668ZM37.0601 101.32V99.8003C37.0601 99.4494 37.0386 99.1414 36.9956 98.8765C36.9562 98.6079 36.8971 98.3787 36.8184 98.189C36.7396 97.9992 36.6393 97.8452 36.5176 97.7271C36.3994 97.6089 36.2616 97.5229 36.104 97.4692C35.95 97.4119 35.7764 97.3833 35.583 97.3833C35.3467 97.3833 35.1372 97.4281 34.9546 97.5176C34.772 97.6035 34.618 97.7414 34.4927 97.9312C34.3709 98.1209 34.2778 98.3698 34.2134 98.6777C34.1489 98.9857 34.1167 99.3599 34.1167 99.8003V101.32C34.1167 101.671 34.1364 101.981 34.1758 102.25C34.2188 102.518 34.2814 102.751 34.3638 102.948C34.4461 103.141 34.5464 103.3 34.6646 103.426C34.7827 103.551 34.9188 103.644 35.0728 103.705C35.2303 103.762 35.404 103.791 35.5938 103.791C35.8372 103.791 36.0503 103.744 36.2329 103.651C36.4155 103.558 36.5677 103.413 36.6895 103.216C36.8148 103.016 36.9079 102.76 36.9688 102.448C37.0296 102.133 37.0601 101.757 37.0601 101.32Z" fill="black" fill-opacity="0.54"/>
<path d="M165.416 96.6367V104.5H164.422V97.8774L162.418 98.6079V97.7109L165.26 96.6367H165.416ZM173.497 99.9668V101.159C173.497 101.8 173.439 102.341 173.325 102.781C173.21 103.222 173.045 103.576 172.831 103.845C172.616 104.113 172.356 104.308 172.052 104.43C171.751 104.548 171.411 104.607 171.031 104.607C170.73 104.607 170.453 104.57 170.199 104.495C169.944 104.419 169.715 104.299 169.511 104.135C169.311 103.966 169.139 103.748 168.996 103.479C168.852 103.211 168.743 102.885 168.668 102.502C168.593 102.119 168.555 101.671 168.555 101.159V99.9668C168.555 99.3258 168.612 98.7887 168.727 98.3555C168.845 97.9222 169.012 97.5749 169.227 97.3135C169.441 97.0485 169.699 96.8587 170 96.7441C170.304 96.6296 170.645 96.5723 171.021 96.5723C171.325 96.5723 171.604 96.6099 171.858 96.6851C172.116 96.7567 172.345 96.873 172.546 97.0342C172.746 97.1917 172.917 97.403 173.056 97.668C173.199 97.9294 173.309 98.2498 173.384 98.6294C173.459 99.009 173.497 99.4548 173.497 99.9668ZM172.498 101.32V99.8003C172.498 99.4494 172.476 99.1414 172.433 98.8765C172.394 98.6079 172.335 98.3787 172.256 98.189C172.177 97.9992 172.077 97.8452 171.955 97.7271C171.837 97.6089 171.699 97.5229 171.542 97.4692C171.388 97.4119 171.214 97.3833 171.021 97.3833C170.784 97.3833 170.575 97.4281 170.392 97.5176C170.209 97.6035 170.056 97.7414 169.93 97.9312C169.808 98.1209 169.715 98.3698 169.651 98.6777C169.586 98.9857 169.554 99.3599 169.554 99.8003V101.32C169.554 101.671 169.574 101.981 169.613 102.25C169.656 102.518 169.719 102.751 169.801 102.948C169.884 103.141 169.984 103.3 170.102 103.426C170.22 103.551 170.356 103.644 170.51 103.705C170.668 103.762 170.841 103.791 171.031 103.791C171.275 103.791 171.488 103.744 171.67 103.651C171.853 103.558 172.005 103.413 172.127 103.216C172.252 103.016 172.345 102.76 172.406 102.448C172.467 102.133 172.498 101.757 172.498 101.32ZM179.934 99.9668V101.159C179.934 101.8 179.877 102.341 179.762 102.781C179.648 103.222 179.483 103.576 179.268 103.845C179.053 104.113 178.794 104.308 178.489 104.43C178.188 104.548 177.848 104.607 177.469 104.607C177.168 104.607 176.89 104.57 176.636 104.495C176.382 104.419 176.153 104.299 175.949 104.135C175.748 103.966 175.576 103.748 175.433 103.479C175.29 103.211 175.181 102.885 175.105 102.502C175.03 102.119 174.993 101.671 174.993 101.159V99.9668C174.993 99.3258 175.05 98.7887 175.165 98.3555C175.283 97.9222 175.449 97.5749 175.664 97.3135C175.879 97.0485 176.137 96.8587 176.438 96.7441C176.742 96.6296 177.082 96.5723 177.458 96.5723C177.762 96.5723 178.042 96.6099 178.296 96.6851C178.554 96.7567 178.783 96.873 178.983 97.0342C179.184 97.1917 179.354 97.403 179.494 97.668C179.637 97.9294 179.746 98.2498 179.821 98.6294C179.896 99.009 179.934 99.4548 179.934 99.9668ZM178.935 101.32V99.8003C178.935 99.4494 178.914 99.1414 178.871 98.8765C178.831 98.6079 178.772 98.3787 178.693 98.189C178.615 97.9992 178.514 97.8452 178.393 97.7271C178.274 97.6089 178.137 97.5229 177.979 97.4692C177.825 97.4119 177.651 97.3833 177.458 97.3833C177.222 97.3833 177.012 97.4281 176.83 97.5176C176.647 97.6035 176.493 97.7414 176.368 97.9312C176.246 98.1209 176.153 98.3698 176.088 98.6777C176.024 98.9857 175.992 99.3599 175.992 99.8003V101.32C175.992 101.671 176.011 101.981 176.051 102.25C176.094 102.518 176.156 102.751 176.239 102.948C176.321 103.141 176.421 103.3 176.54 103.426C176.658 103.551 176.794 103.644 176.948 103.705C177.105 103.762 177.279 103.791 177.469 103.791C177.712 103.791 177.925 103.744 178.108 103.651C178.291 103.558 178.443 103.413 178.564 103.216C178.69 103.016 178.783 102.76 178.844 102.448C178.905 102.133 178.935 101.757 178.935 101.32Z" fill="black" fill-opacity="0.54"/>
</g>
<defs>
<filter id="filter0_d_3275_19097" x="0.5" y="0" width="213" height="144" filterUnits="userSpaceOnUse" color-interpolation-filters="sRGB">
<feFlood flood-opacity="0" result="BackgroundImageFix"/>
<feColorMatrix in="SourceAlpha" type="matrix" values="0 0 0 0 0 0 0 0 0 0 0 0 0 0 0 0 0 0 127 0" result="hardAlpha"/>
<feOffset dy="4"/>
<feGaussianBlur stdDeviation="4"/>
<feComposite in2="hardAlpha" operator="out"/>
<feColorMatrix type="matrix" values="0 0 0 0 0 0 0 0 0 0 0 0 0 0 0 0 0 0 0.04 0"/>
<feBlend mode="normal" in2="BackgroundImageFix" result="effect1_dropShadow_3275_19097"/>
<feBlend mode="normal" in="SourceGraphic" in2="effect1_dropShadow_3275_19097" result="shape"/>
</filter>
<filter id="filter1_b_3275_19097" x="14.5" y="10" width="185" height="116" filterUnits="userSpaceOnUse" color-interpolation-filters="sRGB">
<feFlood flood-opacity="0" result="BackgroundImageFix"/>
<feGaussianBlur in="BackgroundImageFix" stdDeviation="3"/>
<feComposite in2="SourceAlpha" operator="in" result="effect1_backgroundBlur_3275_19097"/>
<feBlend mode="normal" in="SourceGraphic" in2="effect1_backgroundBlur_3275_19097" result="shape"/>
</filter>
<clipPath id="clip0_3275_19097">
<rect x="32.5" y="87.5" width="149" height="5" rx="2.5" fill="white"/>
</clipPath>
</defs>
</svg>
