<svg width="214" height="144" viewBox="0 0 214 144" fill="none" xmlns="http://www.w3.org/2000/svg">
<g filter="url(#filter0_d_3275_19125)">
<rect x="8.5" y="4" width="197" height="128" rx="4" fill="white" shape-rendering="crispEdges"/>
<g filter="url(#filter1_b_3275_19125)">
<rect x="20.5" y="16" width="173" height="104" rx="4" fill="white" fill-opacity="0.76"/>
</g>
<path d="M37.9766 64.2578H35.0156V62.7031H37.9766C38.4922 62.7031 38.9089 62.6198 39.2266 62.4531C39.5443 62.2865 39.776 62.0573 39.9219 61.7656C40.0729 61.4688 40.1484 61.1302 40.1484 60.75C40.1484 60.3906 40.0729 60.0547 39.9219 59.7422C39.776 59.4245 39.5443 59.1693 39.2266 58.9766C38.9089 58.7839 38.4922 58.6875 37.9766 58.6875H35.6172V68.5H33.6562V57.125H37.9766C38.8568 57.125 39.6042 57.2812 40.2188 57.5938C40.8385 57.901 41.3099 58.3281 41.6328 58.875C41.9557 59.4167 42.1172 60.0365 42.1172 60.7344C42.1172 61.4688 41.9557 62.099 41.6328 62.625C41.3099 63.151 40.8385 63.5547 40.2188 63.8359C39.6042 64.1172 38.8568 64.2578 37.9766 64.2578ZM45.8281 61.6562V68.5H43.9453V60.0469H45.7422L45.8281 61.6562ZM48.4141 59.9922L48.3984 61.7422C48.2839 61.7214 48.1589 61.7057 48.0234 61.6953C47.8932 61.6849 47.763 61.6797 47.6328 61.6797C47.3099 61.6797 47.026 61.7266 46.7812 61.8203C46.5365 61.9089 46.3307 62.0391 46.1641 62.2109C46.0026 62.3776 45.8776 62.5807 45.7891 62.8203C45.7005 63.0599 45.6484 63.3281 45.6328 63.625L45.2031 63.6562C45.2031 63.125 45.2552 62.6328 45.3594 62.1797C45.4635 61.7266 45.6198 61.3281 45.8281 60.9844C46.0417 60.6406 46.3073 60.3724 46.625 60.1797C46.9479 59.987 47.3203 59.8906 47.7422 59.8906C47.8568 59.8906 47.9792 59.901 48.1094 59.9219C48.2448 59.9427 48.3464 59.9661 48.4141 59.9922ZM49.2812 64.3672V64.1875C49.2812 63.5781 49.3698 63.013 49.5469 62.4922C49.724 61.9661 49.9792 61.5104 50.3125 61.125C50.651 60.7344 51.0625 60.4323 51.5469 60.2188C52.0365 60 52.5885 59.8906 53.2031 59.8906C53.8229 59.8906 54.375 60 54.8594 60.2188C55.349 60.4323 55.763 60.7344 56.1016 61.125C56.4401 61.5104 56.6979 61.9661 56.875 62.4922C57.0521 63.013 57.1406 63.5781 57.1406 64.1875V64.3672C57.1406 64.9766 57.0521 65.5417 56.875 66.0625C56.6979 66.5833 56.4401 67.0391 56.1016 67.4297C55.763 67.8151 55.3516 68.1172 54.8672 68.3359C54.3828 68.5495 53.8333 68.6562 53.2188 68.6562C52.599 68.6562 52.0443 68.5495 51.5547 68.3359C51.0703 68.1172 50.6589 67.8151 50.3203 67.4297C49.9818 67.0391 49.724 66.5833 49.5469 66.0625C49.3698 65.5417 49.2812 64.9766 49.2812 64.3672ZM51.1641 64.1875V64.3672C51.1641 64.7474 51.2031 65.1068 51.2812 65.4453C51.3594 65.7839 51.4818 66.0807 51.6484 66.3359C51.8151 66.5911 52.0286 66.7917 52.2891 66.9375C52.5495 67.0833 52.8594 67.1562 53.2188 67.1562C53.5677 67.1562 53.8698 67.0833 54.125 66.9375C54.3854 66.7917 54.599 66.5911 54.7656 66.3359C54.9323 66.0807 55.0547 65.7839 55.1328 65.4453C55.2161 65.1068 55.2578 64.7474 55.2578 64.3672V64.1875C55.2578 63.8125 55.2161 63.4583 55.1328 63.125C55.0547 62.7865 54.9297 62.487 54.7578 62.2266C54.5911 61.9661 54.3776 61.763 54.1172 61.6172C53.862 61.4661 53.5573 61.3906 53.2031 61.3906C52.849 61.3906 52.5417 61.4661 52.2812 61.6172C52.026 61.763 51.8151 61.9661 51.6484 62.2266C51.4818 62.487 51.3594 62.7865 51.2812 63.125C51.2031 63.4583 51.1641 63.8125 51.1641 64.1875ZM64.3828 60.0469H66.0938V68.2656C66.0938 69.026 65.9323 69.6719 65.6094 70.2031C65.2865 70.7344 64.8359 71.138 64.2578 71.4141C63.6797 71.6953 63.0104 71.8359 62.25 71.8359C61.9271 71.8359 61.5677 71.7891 61.1719 71.6953C60.7812 71.6016 60.401 71.4505 60.0312 71.2422C59.6667 71.0391 59.362 70.7708 59.1172 70.4375L60 69.3281C60.3021 69.6875 60.6354 69.9505 61 70.1172C61.3646 70.2839 61.7474 70.3672 62.1484 70.3672C62.5807 70.3672 62.9479 70.2865 63.25 70.125C63.5573 69.9688 63.7943 69.737 63.9609 69.4297C64.1276 69.1224 64.2109 68.7474 64.2109 68.3047V61.9609L64.3828 60.0469ZM58.6406 64.3672V64.2031C58.6406 63.5625 58.7188 62.9792 58.875 62.4531C59.0312 61.9219 59.2552 61.4661 59.5469 61.0859C59.8385 60.7005 60.1927 60.4062 60.6094 60.2031C61.026 59.9948 61.4974 59.8906 62.0234 59.8906C62.5703 59.8906 63.0365 59.9896 63.4219 60.1875C63.8125 60.3854 64.138 60.6693 64.3984 61.0391C64.6589 61.4036 64.862 61.8411 65.0078 62.3516C65.1589 62.8568 65.2708 63.4193 65.3438 64.0391V64.5625C65.276 65.1667 65.1615 65.7188 65 66.2188C64.8385 66.7188 64.625 67.151 64.3594 67.5156C64.0938 67.8802 63.7656 68.1615 63.375 68.3594C62.9896 68.5573 62.5339 68.6562 62.0078 68.6562C61.4922 68.6562 61.026 68.5495 60.6094 68.3359C60.1979 68.1224 59.8438 67.8229 59.5469 67.4375C59.2552 67.0521 59.0312 66.599 58.875 66.0781C58.7188 65.5521 58.6406 64.9818 58.6406 64.3672ZM60.5234 64.2031V64.3672C60.5234 64.7526 60.5599 65.112 60.6328 65.4453C60.7109 65.7786 60.8281 66.0729 60.9844 66.3281C61.1458 66.5781 61.349 66.776 61.5938 66.9219C61.8438 67.0625 62.138 67.1328 62.4766 67.1328C62.9193 67.1328 63.2812 67.0391 63.5625 66.8516C63.849 66.6641 64.0677 66.4115 64.2188 66.0938C64.375 65.7708 64.4844 65.4115 64.5469 65.0156V63.6016C64.5156 63.2943 64.4505 63.0078 64.3516 62.7422C64.2578 62.4766 64.1302 62.2448 63.9688 62.0469C63.8073 61.8438 63.6042 61.6875 63.3594 61.5781C63.1146 61.4635 62.8255 61.4062 62.4922 61.4062C62.1536 61.4062 61.8594 61.4792 61.6094 61.625C61.3594 61.7708 61.1536 61.9714 60.9922 62.2266C60.8359 62.4818 60.7188 62.7786 60.6406 63.1172C60.5625 63.4557 60.5234 63.8177 60.5234 64.2031ZM70.1875 61.6562V68.5H68.3047V60.0469H70.1016L70.1875 61.6562ZM72.7734 59.9922L72.7578 61.7422C72.6432 61.7214 72.5182 61.7057 72.3828 61.6953C72.2526 61.6849 72.1224 61.6797 71.9922 61.6797C71.6693 61.6797 71.3854 61.7266 71.1406 61.8203C70.8958 61.9089 70.6901 62.0391 70.5234 62.2109C70.362 62.3776 70.237 62.5807 70.1484 62.8203C70.0599 63.0599 70.0078 63.3281 69.9922 63.625L69.5625 63.6562C69.5625 63.125 69.6146 62.6328 69.7188 62.1797C69.8229 61.7266 69.9792 61.3281 70.1875 60.9844C70.401 60.6406 70.6667 60.3724 70.9844 60.1797C71.3073 59.987 71.6797 59.8906 72.1016 59.8906C72.2161 59.8906 72.3385 59.901 72.4688 59.9219C72.6042 59.9427 72.7057 59.9661 72.7734 59.9922ZM77.7734 68.6562C77.1484 68.6562 76.5833 68.5547 76.0781 68.3516C75.5781 68.1432 75.151 67.8542 74.7969 67.4844C74.4479 67.1146 74.1797 66.6797 73.9922 66.1797C73.8047 65.6797 73.7109 65.1406 73.7109 64.5625V64.25C73.7109 63.5885 73.8073 62.9896 74 62.4531C74.1927 61.9167 74.4609 61.4583 74.8047 61.0781C75.1484 60.6927 75.5547 60.3984 76.0234 60.1953C76.4922 59.9922 77 59.8906 77.5469 59.8906C78.151 59.8906 78.6797 59.9922 79.1328 60.1953C79.5859 60.3984 79.9609 60.6849 80.2578 61.0547C80.5599 61.4193 80.7839 61.8542 80.9297 62.3594C81.0807 62.8646 81.1562 63.4219 81.1562 64.0312V64.8359H74.625V63.4844H79.2969V63.3359C79.2865 62.9974 79.2188 62.6797 79.0938 62.3828C78.974 62.0859 78.7891 61.8464 78.5391 61.6641C78.2891 61.4818 77.9557 61.3906 77.5391 61.3906C77.2266 61.3906 76.9479 61.4583 76.7031 61.5938C76.4635 61.724 76.263 61.9141 76.1016 62.1641C75.9401 62.4141 75.8151 62.7161 75.7266 63.0703C75.6432 63.4193 75.6016 63.8125 75.6016 64.25V64.5625C75.6016 64.9323 75.651 65.276 75.75 65.5938C75.8542 65.9062 76.0052 66.1797 76.2031 66.4141C76.401 66.6484 76.6406 66.8333 76.9219 66.9688C77.2031 67.099 77.5234 67.1641 77.8828 67.1641C78.3359 67.1641 78.7396 67.0729 79.0938 66.8906C79.4479 66.7083 79.7552 66.4505 80.0156 66.1172L81.0078 67.0781C80.8255 67.3438 80.5885 67.599 80.2969 67.8438C80.0052 68.0833 79.6484 68.2786 79.2266 68.4297C78.8099 68.5807 78.3255 68.6562 77.7734 68.6562ZM87.6172 66.2109C87.6172 66.0234 87.5703 65.8542 87.4766 65.7031C87.3828 65.5469 87.2031 65.4062 86.9375 65.2812C86.6771 65.1562 86.2917 65.0417 85.7812 64.9375C85.3333 64.8385 84.9219 64.7214 84.5469 64.5859C84.1771 64.4453 83.8594 64.276 83.5938 64.0781C83.3281 63.8802 83.1224 63.6458 82.9766 63.375C82.8307 63.1042 82.7578 62.7917 82.7578 62.4375C82.7578 62.0938 82.8333 61.7682 82.9844 61.4609C83.1354 61.1536 83.3516 60.8828 83.6328 60.6484C83.9141 60.4141 84.2552 60.2292 84.6562 60.0938C85.0625 59.9583 85.5156 59.8906 86.0156 59.8906C86.724 59.8906 87.3307 60.0104 87.8359 60.25C88.3464 60.4844 88.737 60.8047 89.0078 61.2109C89.2786 61.612 89.4141 62.0651 89.4141 62.5703H87.5312C87.5312 62.3464 87.474 62.138 87.3594 61.9453C87.25 61.7474 87.0833 61.5885 86.8594 61.4688C86.6354 61.3438 86.3542 61.2812 86.0156 61.2812C85.6927 61.2812 85.4245 61.3333 85.2109 61.4375C85.0026 61.5365 84.8464 61.6667 84.7422 61.8281C84.6432 61.9896 84.5938 62.1667 84.5938 62.3594C84.5938 62.5 84.6198 62.6276 84.6719 62.7422C84.7292 62.8516 84.8229 62.9531 84.9531 63.0469C85.0833 63.1354 85.2604 63.2188 85.4844 63.2969C85.7135 63.375 86 63.4505 86.3438 63.5234C86.9896 63.6589 87.5443 63.8333 88.0078 64.0469C88.4766 64.2552 88.8359 64.526 89.0859 64.8594C89.3359 65.1875 89.4609 65.6042 89.4609 66.1094C89.4609 66.4844 89.3802 66.8281 89.2188 67.1406C89.0625 67.4479 88.8333 67.7161 88.5312 67.9453C88.2292 68.1693 87.8672 68.3438 87.4453 68.4688C87.0286 68.5938 86.5599 68.6562 86.0391 68.6562C85.2734 68.6562 84.625 68.5208 84.0938 68.25C83.5625 67.974 83.1589 67.6224 82.8828 67.1953C82.612 66.763 82.4766 66.3151 82.4766 65.8516H84.2969C84.3177 66.2005 84.4141 66.4792 84.5859 66.6875C84.763 66.8906 84.9818 67.0391 85.2422 67.1328C85.5078 67.2214 85.7812 67.2656 86.0625 67.2656C86.401 67.2656 86.6849 67.2214 86.9141 67.1328C87.1432 67.0391 87.3177 66.9141 87.4375 66.7578C87.5573 66.5964 87.6172 66.4141 87.6172 66.2109ZM96.1016 66.2109C96.1016 66.0234 96.0547 65.8542 95.9609 65.7031C95.8672 65.5469 95.6875 65.4062 95.4219 65.2812C95.1615 65.1562 94.776 65.0417 94.2656 64.9375C93.8177 64.8385 93.4062 64.7214 93.0312 64.5859C92.6615 64.4453 92.3438 64.276 92.0781 64.0781C91.8125 63.8802 91.6068 63.6458 91.4609 63.375C91.3151 63.1042 91.2422 62.7917 91.2422 62.4375C91.2422 62.0938 91.3177 61.7682 91.4688 61.4609C91.6198 61.1536 91.8359 60.8828 92.1172 60.6484C92.3984 60.4141 92.7396 60.2292 93.1406 60.0938C93.5469 59.9583 94 59.8906 94.5 59.8906C95.2083 59.8906 95.8151 60.0104 96.3203 60.25C96.8307 60.4844 97.2214 60.8047 97.4922 61.2109C97.763 61.612 97.8984 62.0651 97.8984 62.5703H96.0156C96.0156 62.3464 95.9583 62.138 95.8438 61.9453C95.7344 61.7474 95.5677 61.5885 95.3438 61.4688C95.1198 61.3438 94.8385 61.2812 94.5 61.2812C94.1771 61.2812 93.9089 61.3333 93.6953 61.4375C93.487 61.5365 93.3307 61.6667 93.2266 61.8281C93.1276 61.9896 93.0781 62.1667 93.0781 62.3594C93.0781 62.5 93.1042 62.6276 93.1562 62.7422C93.2135 62.8516 93.3073 62.9531 93.4375 63.0469C93.5677 63.1354 93.7448 63.2188 93.9688 63.2969C94.1979 63.375 94.4844 63.4505 94.8281 63.5234C95.474 63.6589 96.0286 63.8333 96.4922 64.0469C96.9609 64.2552 97.3203 64.526 97.5703 64.8594C97.8203 65.1875 97.9453 65.6042 97.9453 66.1094C97.9453 66.4844 97.8646 66.8281 97.7031 67.1406C97.5469 67.4479 97.3177 67.7161 97.0156 67.9453C96.7135 68.1693 96.3516 68.3438 95.9297 68.4688C95.513 68.5938 95.0443 68.6562 94.5234 68.6562C93.7578 68.6562 93.1094 68.5208 92.5781 68.25C92.0469 67.974 91.6432 67.6224 91.3672 67.1953C91.0964 66.763 90.9609 66.3151 90.9609 65.8516H92.7812C92.8021 66.2005 92.8984 66.4792 93.0703 66.6875C93.2474 66.8906 93.4661 67.0391 93.7266 67.1328C93.9922 67.2214 94.2656 67.2656 94.5469 67.2656C94.8854 67.2656 95.1693 67.2214 95.3984 67.1328C95.6276 67.0391 95.8021 66.9141 95.9219 66.7578C96.0417 66.5964 96.1016 66.4141 96.1016 66.2109ZM104.086 56.5H105.969V66.6953L105.789 68.5H104.086V56.5ZM111.484 64.1953V64.3594C111.484 64.9844 111.414 65.5599 111.273 66.0859C111.138 66.6068 110.93 67.0599 110.648 67.4453C110.372 67.8307 110.029 68.1302 109.617 68.3438C109.211 68.5521 108.74 68.6562 108.203 68.6562C107.677 68.6562 107.219 68.5573 106.828 68.3594C106.438 68.1615 106.109 67.8802 105.844 67.5156C105.583 67.151 105.372 66.7161 105.211 66.2109C105.049 65.7057 104.935 65.1484 104.867 64.5391V64.0156C104.935 63.401 105.049 62.8438 105.211 62.3438C105.372 61.8385 105.583 61.4036 105.844 61.0391C106.109 60.6693 106.435 60.3854 106.82 60.1875C107.211 59.9896 107.667 59.8906 108.188 59.8906C108.729 59.8906 109.206 59.9948 109.617 60.2031C110.034 60.4115 110.38 60.7083 110.656 61.0938C110.932 61.474 111.138 61.9271 111.273 62.4531C111.414 62.9792 111.484 63.5599 111.484 64.1953ZM109.602 64.3594V64.1953C109.602 63.8151 109.57 63.4583 109.508 63.125C109.445 62.7865 109.341 62.4896 109.195 62.2344C109.055 61.9792 108.862 61.7786 108.617 61.6328C108.378 61.4818 108.078 61.4062 107.719 61.4062C107.385 61.4062 107.099 61.4635 106.859 61.5781C106.62 61.6927 106.419 61.849 106.258 62.0469C106.096 62.2448 105.969 62.474 105.875 62.7344C105.786 62.9948 105.727 63.276 105.695 63.5781V64.9922C105.742 65.3828 105.841 65.7422 105.992 66.0703C106.148 66.3932 106.367 66.6536 106.648 66.8516C106.93 67.0443 107.292 67.1406 107.734 67.1406C108.083 67.1406 108.378 67.0703 108.617 66.9297C108.857 66.7891 109.047 66.5938 109.188 66.3438C109.333 66.0885 109.438 65.7917 109.5 65.4531C109.568 65.1146 109.602 64.75 109.602 64.3594ZM118.094 66.8047V62.7734C118.094 62.4714 118.039 62.2109 117.93 61.9922C117.82 61.7734 117.654 61.6042 117.43 61.4844C117.211 61.3646 116.935 61.3047 116.602 61.3047C116.294 61.3047 116.029 61.3568 115.805 61.4609C115.581 61.5651 115.406 61.7057 115.281 61.8828C115.156 62.0599 115.094 62.2604 115.094 62.4844H113.219C113.219 62.151 113.299 61.8281 113.461 61.5156C113.622 61.2031 113.857 60.9245 114.164 60.6797C114.471 60.4349 114.839 60.2422 115.266 60.1016C115.693 59.9609 116.172 59.8906 116.703 59.8906C117.339 59.8906 117.901 59.9974 118.391 60.2109C118.885 60.4245 119.273 60.7474 119.555 61.1797C119.841 61.6068 119.984 62.1432 119.984 62.7891V66.5469C119.984 66.9323 120.01 67.2786 120.062 67.5859C120.12 67.888 120.201 68.151 120.305 68.375V68.5H118.375C118.286 68.2969 118.216 68.0391 118.164 67.7266C118.117 67.4089 118.094 67.1016 118.094 66.8047ZM118.367 63.3594L118.383 64.5234H117.031C116.682 64.5234 116.375 64.5573 116.109 64.625C115.844 64.6875 115.622 64.7812 115.445 64.9062C115.268 65.0312 115.135 65.1823 115.047 65.3594C114.958 65.5365 114.914 65.737 114.914 65.9609C114.914 66.1849 114.966 66.3906 115.07 66.5781C115.174 66.7604 115.326 66.9036 115.523 67.0078C115.727 67.112 115.971 67.1641 116.258 67.1641C116.643 67.1641 116.979 67.0859 117.266 66.9297C117.557 66.7682 117.786 66.5729 117.953 66.3438C118.12 66.1094 118.208 65.888 118.219 65.6797L118.828 66.5156C118.766 66.7292 118.659 66.9583 118.508 67.2031C118.357 67.4479 118.159 67.6823 117.914 67.9062C117.674 68.125 117.385 68.3047 117.047 68.4453C116.714 68.5859 116.328 68.6562 115.891 68.6562C115.339 68.6562 114.846 68.5469 114.414 68.3281C113.982 68.1042 113.643 67.8047 113.398 67.4297C113.154 67.0495 113.031 66.6198 113.031 66.1406C113.031 65.6927 113.115 65.2969 113.281 64.9531C113.453 64.6042 113.703 64.3125 114.031 64.0781C114.365 63.8438 114.771 63.6667 115.25 63.5469C115.729 63.4219 116.276 63.3594 116.891 63.3594H118.367ZM124.094 61.6562V68.5H122.211V60.0469H124.008L124.094 61.6562ZM126.68 59.9922L126.664 61.7422C126.549 61.7214 126.424 61.7057 126.289 61.6953C126.159 61.6849 126.029 61.6797 125.898 61.6797C125.576 61.6797 125.292 61.7266 125.047 61.8203C124.802 61.9089 124.596 62.0391 124.43 62.2109C124.268 62.3776 124.143 62.5807 124.055 62.8203C123.966 63.0599 123.914 63.3281 123.898 63.625L123.469 63.6562C123.469 63.125 123.521 62.6328 123.625 62.1797C123.729 61.7266 123.885 61.3281 124.094 60.9844C124.307 60.6406 124.573 60.3724 124.891 60.1797C125.214 59.987 125.586 59.8906 126.008 59.8906C126.122 59.8906 126.245 59.901 126.375 59.9219C126.51 59.9427 126.612 59.9661 126.68 59.9922Z" fill="black" fill-opacity="0.87"/>
<path d="M149.57 61.9609H150.695C151.133 61.9609 151.495 61.8854 151.781 61.7344C152.073 61.5833 152.289 61.375 152.43 61.1094C152.57 60.8438 152.641 60.5391 152.641 60.1953C152.641 59.8359 152.576 59.5286 152.445 59.2734C152.32 59.013 152.128 58.8125 151.867 58.6719C151.612 58.5312 151.286 58.4609 150.891 58.4609C150.557 58.4609 150.255 58.5286 149.984 58.6641C149.719 58.7943 149.508 58.9818 149.352 59.2266C149.195 59.4661 149.117 59.7526 149.117 60.0859H147.227C147.227 59.4818 147.385 58.9453 147.703 58.4766C148.021 58.0078 148.453 57.6406 149 57.375C149.552 57.1042 150.172 56.9688 150.859 56.9688C151.594 56.9688 152.234 57.0911 152.781 57.3359C153.333 57.5755 153.763 57.9349 154.07 58.4141C154.378 58.8932 154.531 59.487 154.531 60.1953C154.531 60.5182 154.456 60.8464 154.305 61.1797C154.154 61.513 153.93 61.8177 153.633 62.0938C153.336 62.3646 152.966 62.5859 152.523 62.7578C152.081 62.9245 151.568 63.0078 150.984 63.0078H149.57V61.9609ZM149.57 63.4297V62.3984H150.984C151.651 62.3984 152.219 62.4766 152.688 62.6328C153.161 62.7891 153.547 63.0052 153.844 63.2812C154.141 63.5521 154.357 63.862 154.492 64.2109C154.633 64.5599 154.703 64.9297 154.703 65.3203C154.703 65.8516 154.607 66.3255 154.414 66.7422C154.227 67.1536 153.958 67.5026 153.609 67.7891C153.26 68.0755 152.852 68.2917 152.383 68.4375C151.919 68.5833 151.414 68.6562 150.867 68.6562C150.378 68.6562 149.909 68.5885 149.461 68.4531C149.013 68.3177 148.612 68.1172 148.258 67.8516C147.904 67.5807 147.622 67.2448 147.414 66.8438C147.211 66.4375 147.109 65.9688 147.109 65.4375H148.992C148.992 65.776 149.07 66.0755 149.227 66.3359C149.388 66.5911 149.612 66.7917 149.898 66.9375C150.19 67.0833 150.523 67.1562 150.898 67.1562C151.294 67.1562 151.635 67.0859 151.922 66.9453C152.208 66.8047 152.427 66.5964 152.578 66.3203C152.734 66.0443 152.812 65.7109 152.812 65.3203C152.812 64.8776 152.727 64.5182 152.555 64.2422C152.383 63.9661 152.138 63.763 151.82 63.6328C151.503 63.4974 151.128 63.4297 150.695 63.4297H149.57ZM162.391 57.0547H162.625V58.5938H162.492C161.82 58.5938 161.24 58.6979 160.75 58.9062C160.266 59.1146 159.867 59.401 159.555 59.7656C159.242 60.1302 159.008 60.5573 158.852 61.0469C158.701 61.5312 158.625 62.0469 158.625 62.5938V64.3828C158.625 64.8359 158.674 65.237 158.773 65.5859C158.872 65.9297 159.01 66.2188 159.188 66.4531C159.37 66.6823 159.578 66.8568 159.812 66.9766C160.047 67.0964 160.299 67.1562 160.57 67.1562C160.852 67.1562 161.107 67.099 161.336 66.9844C161.565 66.8646 161.76 66.7005 161.922 66.4922C162.083 66.2839 162.206 66.0365 162.289 65.75C162.372 65.4635 162.414 65.151 162.414 64.8125C162.414 64.4896 162.372 64.1875 162.289 63.9062C162.211 63.6198 162.094 63.3698 161.938 63.1562C161.781 62.9375 161.586 62.7682 161.352 62.6484C161.122 62.5234 160.857 62.4609 160.555 62.4609C160.18 62.4609 159.839 62.5495 159.531 62.7266C159.229 62.9036 158.984 63.1354 158.797 63.4219C158.615 63.7031 158.516 64.0026 158.5 64.3203L157.781 64.0859C157.823 63.6016 157.93 63.1667 158.102 62.7812C158.279 62.3958 158.51 62.0677 158.797 61.7969C159.083 61.526 159.414 61.3203 159.789 61.1797C160.169 61.0339 160.586 60.9609 161.039 60.9609C161.591 60.9609 162.07 61.0651 162.477 61.2734C162.883 61.4818 163.219 61.7656 163.484 62.125C163.755 62.4792 163.956 62.8854 164.086 63.3438C164.221 63.7969 164.289 64.2708 164.289 64.7656C164.289 65.3125 164.206 65.8229 164.039 66.2969C163.872 66.7656 163.628 67.1771 163.305 67.5312C162.987 67.8854 162.599 68.1615 162.141 68.3594C161.688 68.5573 161.172 68.6562 160.594 68.6562C159.984 68.6562 159.44 68.5391 158.961 68.3047C158.487 68.0703 158.083 67.7474 157.75 67.3359C157.422 66.9245 157.172 66.4505 157 65.9141C156.828 65.3776 156.742 64.8099 156.742 64.2109V63.4297C156.742 62.5651 156.852 61.75 157.07 60.9844C157.289 60.2135 157.625 59.5339 158.078 58.9453C158.536 58.3568 159.122 57.8958 159.836 57.5625C160.549 57.224 161.401 57.0547 162.391 57.0547Z" fill="black" fill-opacity="0.87"/>
<path d="M166.281 59.9141V59.3125C166.281 58.8802 166.375 58.487 166.562 58.1328C166.75 57.7786 167.023 57.4948 167.383 57.2812C167.742 57.0677 168.174 56.9609 168.68 56.9609C169.201 56.9609 169.638 57.0677 169.992 57.2812C170.352 57.4948 170.625 57.7786 170.812 58.1328C171 58.487 171.094 58.8802 171.094 59.3125V59.9141C171.094 60.3359 171 60.724 170.812 61.0781C170.63 61.4323 170.359 61.7161 170 61.9297C169.646 62.1432 169.211 62.25 168.695 62.25C168.185 62.25 167.747 62.1432 167.383 61.9297C167.023 61.7161 166.75 61.4323 166.562 61.0781C166.375 60.724 166.281 60.3359 166.281 59.9141ZM167.586 59.3125V59.9141C167.586 60.1224 167.625 60.3203 167.703 60.5078C167.786 60.6953 167.911 60.8464 168.078 60.9609C168.245 61.0755 168.451 61.1328 168.695 61.1328C168.945 61.1328 169.148 61.0755 169.305 60.9609C169.466 60.8464 169.586 60.6953 169.664 60.5078C169.742 60.3203 169.781 60.1224 169.781 59.9141V59.3125C169.781 59.099 169.74 58.8984 169.656 58.7109C169.578 58.5182 169.458 58.3646 169.297 58.25C169.135 58.1354 168.93 58.0781 168.68 58.0781C168.44 58.0781 168.237 58.1354 168.07 58.25C167.909 58.3646 167.786 58.5182 167.703 58.7109C167.625 58.8984 167.586 59.099 167.586 59.3125ZM171.766 66.3203V65.7109C171.766 65.2839 171.859 64.8932 172.047 64.5391C172.24 64.1849 172.516 63.901 172.875 63.6875C173.234 63.474 173.667 63.3672 174.172 63.3672C174.693 63.3672 175.13 63.474 175.484 63.6875C175.844 63.901 176.115 64.1849 176.297 64.5391C176.484 64.8932 176.578 65.2839 176.578 65.7109V66.3203C176.578 66.7474 176.484 67.138 176.297 67.4922C176.115 67.8464 175.846 68.1302 175.492 68.3438C175.138 68.5573 174.706 68.6641 174.195 68.6641C173.68 68.6641 173.24 68.5573 172.875 68.3438C172.516 68.1302 172.24 67.8464 172.047 67.4922C171.859 67.138 171.766 66.7474 171.766 66.3203ZM173.078 65.7109V66.3203C173.078 66.5286 173.12 66.7266 173.203 66.9141C173.292 67.1016 173.419 67.2552 173.586 67.375C173.753 67.4896 173.953 67.5469 174.188 67.5469C174.453 67.5469 174.667 67.4896 174.828 67.375C174.99 67.2552 175.104 67.1042 175.172 66.9219C175.245 66.7344 175.281 66.5339 175.281 66.3203V65.7109C175.281 65.4974 175.24 65.2969 175.156 65.1094C175.078 64.9219 174.956 64.7708 174.789 64.6562C174.628 64.5417 174.422 64.4844 174.172 64.4844C173.927 64.4844 173.724 64.5417 173.562 64.6562C173.401 64.7708 173.279 64.9219 173.195 65.1094C173.117 65.2969 173.078 65.4974 173.078 65.7109ZM174.641 58.75L169.086 67.6406L168.125 67.0859L173.68 58.1953L174.641 58.75Z" fill="black" fill-opacity="0.87"/>
<g clip-path="url(#clip0_3275_19125)">
<rect x="32.5" y="79.5" width="149" height="5" rx="2.5" fill="black" fill-opacity="0.04"/>
<rect width="51" height="5" rx="2.5" transform="matrix(-1 0 0 1 83.5 79.5)" fill="#3F52DD"/>
</g>
</g>
<defs>
<filter id="filter0_d_3275_19125" x="0.5" y="0" width="213" height="144" filterUnits="userSpaceOnUse" color-interpolation-filters="sRGB">
<feFlood flood-opacity="0" result="BackgroundImageFix"/>
<feColorMatrix in="SourceAlpha" type="matrix" values="0 0 0 0 0 0 0 0 0 0 0 0 0 0 0 0 0 0 127 0" result="hardAlpha"/>
<feOffset dy="4"/>
<feGaussianBlur stdDeviation="4"/>
<feComposite in2="hardAlpha" operator="out"/>
<feColorMatrix type="matrix" values="0 0 0 0 0 0 0 0 0 0 0 0 0 0 0 0 0 0 0.04 0"/>
<feBlend mode="normal" in2="BackgroundImageFix" result="effect1_dropShadow_3275_19125"/>
<feBlend mode="normal" in="SourceGraphic" in2="effect1_dropShadow_3275_19125" result="shape"/>
</filter>
<filter id="filter1_b_3275_19125" x="14.5" y="10" width="185" height="116" filterUnits="userSpaceOnUse" color-interpolation-filters="sRGB">
<feFlood flood-opacity="0" result="BackgroundImageFix"/>
<feGaussianBlur in="BackgroundImageFix" stdDeviation="3"/>
<feComposite in2="SourceAlpha" operator="in" result="effect1_backgroundBlur_3275_19125"/>
<feBlend mode="normal" in="SourceGraphic" in2="effect1_backgroundBlur_3275_19125" result="shape"/>
</filter>
<clipPath id="clip0_3275_19125">
<rect x="32.5" y="79.5" width="149" height="5" rx="2.5" fill="white"/>
</clipPath>
</defs>
</svg>
