<svg width="255" height="150" version="1.1" viewBox="0 0 255 150" xmlns="http://www.w3.org/2000/svg">
 <rect width="255" height="150" fill="white"/>
 <path d="m26.551 15.707v-0.3008c0-0.2161 0.0469-0.4127 0.1406-0.5898 0.0938-0.1771 0.2279-0.319 0.4024-0.4258 0.1744-0.1067 0.3815-0.1601 0.621-0.1601 0.2448 0 0.4532 0.0534 0.625 0.1601 0.1745 0.1068 0.3086 0.2487 0.4024 0.4258 0.0937 0.1771 0.1406 0.3737 0.1406 0.5898v0.3008c0 0.211-0.0469 0.405-0.1406 0.5821-0.0912 0.177-0.224 0.319-0.3984 0.4257-0.1719 0.1068-0.379 0.1602-0.6211 0.1602-0.2422 0-0.4519-0.0534-0.6289-0.1602-0.1745-0.1067-0.3086-0.2487-0.4024-0.4257-0.0937-0.1771-0.1406-0.3711-0.1406-0.5821zm0.543-0.3008v0.3008c0 0.1198 0.0221 0.2331 0.0664 0.3399 0.0468 0.1067 0.1171 0.194 0.2109 0.2617 0.0937 0.0651 0.2109 0.0976 0.3516 0.0976 0.1406 0 0.2565-0.0325 0.3476-0.0976 0.0912-0.0677 0.1589-0.155 0.2031-0.2617 0.0443-0.1068 0.0664-0.2201 0.0664-0.3399v-0.3008c0-0.1223-0.0234-0.2369-0.0703-0.3437-0.0442-0.1094-0.1133-0.1966-0.207-0.2617-0.0911-0.0677-0.207-0.1016-0.3477-0.1016-0.138 0-0.2539 0.0339-0.3476 0.1016-0.0912 0.0651-0.1602 0.1523-0.207 0.2617-0.0443 0.1068-0.0664 0.2214-0.0664 0.3437zm2.2265 3.504v-0.3047c0-0.2136 0.0469-0.4089 0.1406-0.586 0.0938-0.1771 0.2279-0.319 0.4024-0.4257 0.1745-0.1068 0.3815-0.1602 0.6211-0.1602 0.2448 0 0.4531 0.0534 0.625 0.1602 0.1745 0.1067 0.3086 0.2486 0.4023 0.4257 0.0938 0.1771 0.1406 0.3724 0.1406 0.586v0.3047c0 0.2135-0.0468 0.4088-0.1406 0.5859-0.0911 0.1771-0.2239 0.319-0.3984 0.4258-0.1719 0.1067-0.3789 0.1601-0.6211 0.1601s-0.4505-0.0534-0.625-0.1601c-0.1745-0.1068-0.3099-0.2487-0.4063-0.4258-0.0937-0.1771-0.1406-0.3724-0.1406-0.5859zm0.543-0.3047v0.3047c0 0.1197 0.0221 0.2343 0.0664 0.3437 0.0469 0.1068 0.1172 0.194 0.2109 0.2617 0.0938 0.0651 0.211 0.0977 0.3516 0.0977s0.2565-0.0326 0.3476-0.0977c0.0938-0.0677 0.1628-0.1549 0.2071-0.2617 0.0442-0.1068 0.0664-0.2213 0.0664-0.3437v-0.3047c0-0.1224-0.0235-0.237-0.0703-0.3438-0.0443-0.1068-0.1133-0.1927-0.2071-0.2578-0.0911-0.0677-0.2083-0.1016-0.3515-0.1016-0.138 0-0.2539 0.0339-0.3477 0.1016-0.0911 0.0651-0.1601 0.151-0.207 0.2578-0.0443 0.1068-0.0664 0.2214-0.0664 0.3438zm0.8008-3.4844-2.7774 4.4453-0.4062-0.2578 2.7773-4.4453 0.4063 0.2578z" fill="black" fill-opacity=".54"/>
 <path d="m25.551 16.703v0.8672c0 0.4662-0.0417 0.8594-0.125 1.1797-0.0834 0.3203-0.2031 0.5781-0.3594 0.7734-0.1562 0.1954-0.345 0.3373-0.5664 0.4258-0.2188 0.086-0.4661 0.1289-0.7422 0.1289-0.2187 0-0.4206-0.0273-0.6055-0.082s-0.3515-0.1419-0.5-0.2617c-0.1458-0.1224-0.2708-0.2813-0.375-0.4766-0.1041-0.1953-0.1835-0.4323-0.2382-0.7109-0.0547-0.2787-0.0821-0.6042-0.0821-0.9766v-0.8672c0-0.4661 0.0417-0.8567 0.125-1.1719 0.086-0.3151 0.2071-0.5677 0.3633-0.7578 0.1563-0.1927 0.3438-0.3307 0.5625-0.414 0.2214-0.0834 0.4688-0.125 0.7422-0.125 0.2214 0 0.4245 0.0273 0.6094 0.082 0.1875 0.0521 0.3541 0.1367 0.5 0.2539 0.1458 0.1146 0.2695 0.2682 0.3711 0.4609 0.1041 0.1902 0.1836 0.4232 0.2383 0.6993 0.0546 0.276 0.082 0.6002 0.082 0.9726zm-0.7266 0.9844v-1.1055c0-0.2552-0.0156-0.4791-0.0469-0.6718-0.0286-0.1954-0.0716-0.362-0.1289-0.5-0.0573-0.1381-0.1302-0.25-0.2187-0.336-0.0859-0.0859-0.1862-0.1484-0.3008-0.1875-0.112-0.0416-0.2383-0.0625-0.3789-0.0625-0.1719 0-0.3242 0.0326-0.457 0.0977-0.1328 0.0625-0.2448 0.1627-0.336 0.3008-0.0885 0.138-0.1562 0.319-0.2031 0.5429-0.0469 0.224-0.0703 0.4961-0.0703 0.8164v1.1055c0 0.2552 0.0143 0.4805 0.043 0.6758 0.0312 0.1953 0.0768 0.3646 0.1367 0.5078 0.0599 0.1406 0.1328 0.2565 0.2187 0.3477 0.086 0.0911 0.1849 0.1588 0.2969 0.2031 0.1146 0.0416 0.2409 0.0625 0.3789 0.0625 0.1771 0 0.332-0.0339 0.4649-0.1016 0.1328-0.0677 0.2434-0.1732 0.332-0.3164 0.0911-0.1458 0.1588-0.332 0.2031-0.5586 0.0443-0.2292 0.0664-0.5026 0.0664-0.8203z" fill="black" fill-opacity=".54"/>
 <path d="m20.92 16.703v0.8672c0 0.4662-0.0416 0.8594-0.125 1.1797-0.0833 0.3203-0.2031 0.5781-0.3594 0.7734-0.1562 0.1954-0.345 0.3373-0.5664 0.4258-0.2187 0.086-0.4661 0.1289-0.7421 0.1289-0.2188 0-0.4206-0.0273-0.6055-0.082s-0.3516-0.1419-0.5-0.2617c-0.1458-0.1224-0.2708-0.2813-0.375-0.4766s-0.1836-0.4323-0.2383-0.7109c-0.0547-0.2787-0.082-0.6042-0.082-0.9766v-0.8672c0-0.4661 0.0416-0.8567 0.125-1.1719 0.0859-0.3151 0.207-0.5677 0.3633-0.7578 0.1562-0.1927 0.3437-0.3307 0.5625-0.414 0.2213-0.0834 0.4687-0.125 0.7421-0.125 0.2214 0 0.4245 0.0273 0.6094 0.082 0.1875 0.0521 0.3542 0.1367 0.5 0.2539 0.1458 0.1146 0.2695 0.2682 0.3711 0.4609 0.1042 0.1902 0.1836 0.4232 0.2383 0.6993 0.0547 0.276 0.082 0.6002 0.082 0.9726zm-0.7265 0.9844v-1.1055c0-0.2552-0.0157-0.4791-0.0469-0.6718-0.0287-0.1954-0.0716-0.362-0.1289-0.5-0.0573-0.1381-0.1302-0.25-0.2188-0.336-0.0859-0.0859-0.1862-0.1484-0.3008-0.1875-0.1119-0.0416-0.2382-0.0625-0.3789-0.0625-0.1718 0-0.3242 0.0326-0.457 0.0977-0.1328 0.0625-0.2448 0.1627-0.3359 0.3008-0.0886 0.138-0.1563 0.319-0.2032 0.5429-0.0468 0.224-0.0703 0.4961-0.0703 0.8164v1.1055c0 0.2552 0.0144 0.4805 0.043 0.6758 0.0313 0.1953 0.0768 0.3646 0.1367 0.5078 0.0599 0.1406 0.1328 0.2565 0.2188 0.3477 0.0859 0.0911 0.1849 0.1588 0.2968 0.2031 0.1146 0.0416 0.2409 0.0625 0.379 0.0625 0.177 0 0.332-0.0339 0.4648-0.1016s0.2435-0.1732 0.332-0.3164c0.0912-0.1458 0.1589-0.332 0.2032-0.5586 0.0442-0.2292 0.0664-0.5026 0.0664-0.8203z" fill="black" fill-opacity=".54"/>
 <path d="m15.092 14.281v5.7188h-0.7227v-4.8164l-1.457 0.5312v-0.6523l2.0664-0.7813h0.1133z" fill="black" fill-opacity=".54"/>
 <path d="m26.551 43.707v-0.3008c0-0.2161 0.0469-0.4127 0.1406-0.5898 0.0938-0.1771 0.2279-0.319 0.4024-0.4258 0.1744-0.1067 0.3815-0.1601 0.621-0.1601 0.2448 0 0.4532 0.0534 0.625 0.1601 0.1745 0.1068 0.3086 0.2487 0.4024 0.4258 0.0937 0.1771 0.1406 0.3737 0.1406 0.5898v0.3008c0 0.211-0.0469 0.405-0.1406 0.5821-0.0912 0.177-0.224 0.319-0.3984 0.4257-0.1719 0.1068-0.379 0.1602-0.6211 0.1602-0.2422 0-0.4519-0.0534-0.6289-0.1602-0.1745-0.1067-0.3086-0.2487-0.4024-0.4257-0.0937-0.1771-0.1406-0.3711-0.1406-0.5821zm0.543-0.3008v0.3008c0 0.1198 0.0221 0.2331 0.0664 0.3399 0.0468 0.1067 0.1171 0.194 0.2109 0.2617 0.0937 0.0651 0.2109 0.0976 0.3516 0.0976 0.1406 0 0.2565-0.0325 0.3476-0.0976 0.0912-0.0677 0.1589-0.155 0.2031-0.2617 0.0443-0.1068 0.0664-0.2201 0.0664-0.3399v-0.3008c0-0.1223-0.0234-0.2369-0.0703-0.3437-0.0442-0.1094-0.1133-0.1966-0.207-0.2617-0.0911-0.0677-0.207-0.1016-0.3477-0.1016-0.138 0-0.2539 0.0339-0.3476 0.1016-0.0912 0.0651-0.1602 0.1523-0.207 0.2617-0.0443 0.1068-0.0664 0.2214-0.0664 0.3437zm2.2265 3.504v-0.3047c0-0.2136 0.0469-0.4089 0.1406-0.586 0.0938-0.1771 0.2279-0.319 0.4024-0.4257 0.1745-0.1068 0.3815-0.1602 0.6211-0.1602 0.2448 0 0.4531 0.0534 0.625 0.1602 0.1745 0.1067 0.3086 0.2486 0.4023 0.4257 0.0938 0.1771 0.1406 0.3724 0.1406 0.586v0.3047c0 0.2135-0.0468 0.4088-0.1406 0.5859-0.0911 0.1771-0.2239 0.319-0.3984 0.4258-0.1719 0.1067-0.3789 0.1601-0.6211 0.1601s-0.4505-0.0534-0.625-0.1601c-0.1745-0.1068-0.3099-0.2487-0.4063-0.4258-0.0937-0.1771-0.1406-0.3724-0.1406-0.5859zm0.543-0.3047v0.3047c0 0.1197 0.0221 0.2343 0.0664 0.3437 0.0469 0.1068 0.1172 0.194 0.2109 0.2617 0.0938 0.0651 0.211 0.0977 0.3516 0.0977s0.2565-0.0326 0.3476-0.0977c0.0938-0.0677 0.1628-0.1549 0.2071-0.2617 0.0442-0.1068 0.0664-0.2213 0.0664-0.3437v-0.3047c0-0.1224-0.0235-0.237-0.0703-0.3438-0.0443-0.1068-0.1133-0.1927-0.2071-0.2578-0.0911-0.0677-0.2083-0.1016-0.3515-0.1016-0.138 0-0.2539 0.0339-0.3477 0.1016-0.0911 0.0651-0.1601 0.151-0.207 0.2578-0.0443 0.1068-0.0664 0.2214-0.0664 0.3438zm0.8008-3.4844-2.7774 4.4453-0.4062-0.2578 2.7773-4.4453 0.4063 0.2578z" fill="black" fill-opacity=".54"/>
 <path d="m22.894 45.293-0.5781-0.1485 0.2852-2.832h2.9179v0.668h-2.3047l-0.1718 1.5468c0.1041-0.0599 0.2356-0.1158 0.3945-0.1679 0.1615-0.0521 0.3464-0.0782 0.5547-0.0782 0.263 0 0.4987 0.0456 0.707 0.1368 0.2084 0.0885 0.3854 0.2161 0.5313 0.3828 0.1484 0.1666 0.2617 0.3672 0.3398 0.6015 0.0781 0.2344 0.1172 0.4961 0.1172 0.7852 0 0.2734-0.0378 0.5247-0.1133 0.7539-0.0729 0.2292-0.1836 0.4297-0.332 0.6016-0.1485 0.1692-0.336 0.3008-0.5625 0.3945-0.224 0.0937-0.4883 0.1406-0.793 0.1406-0.2291 0-0.4466-0.0312-0.6523-0.0937-0.2032-0.0651-0.3854-0.1628-0.5469-0.293-0.1589-0.1328-0.2891-0.2969-0.3906-0.4922-0.099-0.1979-0.1615-0.4297-0.1875-0.6953h0.6875c0.0312 0.2135 0.0937 0.3932 0.1875 0.5391 0.0937 0.1458 0.2161 0.2565 0.3672 0.332 0.1536 0.0729 0.332 0.1094 0.5351 0.1094 0.1719 0 0.3242-0.03 0.457-0.0899 0.1329-0.0599 0.2448-0.1458 0.336-0.2578 0.0911-0.112 0.1601-0.2474 0.207-0.4062 0.0495-0.1589 0.0742-0.3373 0.0742-0.5352 0-0.1797-0.0247-0.3463-0.0742-0.5-0.0495-0.1536-0.1237-0.2877-0.2226-0.4023-0.0964-0.1146-0.2149-0.2032-0.3555-0.2657-0.1406-0.0651-0.3021-0.0976-0.4844-0.0976-0.2422 0-0.4258 0.0325-0.5508 0.0976-0.1224 0.0651-0.2487 0.1537-0.3789 0.2657z" fill="black" fill-opacity=".54"/>
 <path d="m21.025 42.312v0.4063l-2.3555 5.2812h-0.7617l2.3516-5.0938h-3.0782v-0.5937h3.8438z" fill="black" fill-opacity=".54"/>
 <path d="m26.551 71.707v-0.3008c0-0.2161 0.0469-0.4127 0.1406-0.5898 0.0938-0.1771 0.2279-0.319 0.4024-0.4258 0.1744-0.1067 0.3815-0.1601 0.621-0.1601 0.2448 0 0.4532 0.0534 0.625 0.1601 0.1745 0.1068 0.3086 0.2487 0.4024 0.4258 0.0937 0.1771 0.1406 0.3737 0.1406 0.5898v0.3008c0 0.211-0.0469 0.405-0.1406 0.5821-0.0912 0.177-0.224 0.319-0.3984 0.4257-0.1719 0.1068-0.379 0.1602-0.6211 0.1602-0.2422 0-0.4519-0.0534-0.6289-0.1602-0.1745-0.1067-0.3086-0.2487-0.4024-0.4257-0.0937-0.1771-0.1406-0.3711-0.1406-0.5821zm0.543-0.3008v0.3008c0 0.1198 0.0221 0.2331 0.0664 0.3399 0.0468 0.1067 0.1171 0.194 0.2109 0.2617 0.0937 0.0651 0.2109 0.0976 0.3516 0.0976 0.1406 0 0.2565-0.0325 0.3476-0.0976 0.0912-0.0677 0.1589-0.155 0.2031-0.2617 0.0443-0.1068 0.0664-0.2201 0.0664-0.3399v-0.3008c0-0.1223-0.0234-0.2369-0.0703-0.3437-0.0442-0.1094-0.1133-0.1966-0.207-0.2617-0.0911-0.0677-0.207-0.1016-0.3477-0.1016-0.138 0-0.2539 0.0339-0.3476 0.1016-0.0912 0.0651-0.1602 0.1523-0.207 0.2617-0.0443 0.1068-0.0664 0.2214-0.0664 0.3437zm2.2265 3.504v-0.3047c0-0.2136 0.0469-0.4089 0.1406-0.586 0.0938-0.1771 0.2279-0.319 0.4024-0.4257 0.1745-0.1068 0.3815-0.1602 0.6211-0.1602 0.2448 0 0.4531 0.0534 0.625 0.1602 0.1745 0.1067 0.3086 0.2486 0.4023 0.4257 0.0938 0.1771 0.1406 0.3724 0.1406 0.586v0.3047c0 0.2135-0.0468 0.4088-0.1406 0.5859-0.0911 0.1771-0.2239 0.319-0.3984 0.4258-0.1719 0.1067-0.3789 0.1601-0.6211 0.1601s-0.4505-0.0534-0.625-0.1601c-0.1745-0.1068-0.3099-0.2487-0.4063-0.4258-0.0937-0.1771-0.1406-0.3724-0.1406-0.5859zm0.543-0.3047v0.3047c0 0.1197 0.0221 0.2343 0.0664 0.3437 0.0469 0.1068 0.1172 0.194 0.2109 0.2617 0.0938 0.0651 0.211 0.0977 0.3516 0.0977s0.2565-0.0326 0.3476-0.0977c0.0938-0.0677 0.1628-0.1549 0.2071-0.2617 0.0442-0.1068 0.0664-0.2213 0.0664-0.3437v-0.3047c0-0.1224-0.0235-0.237-0.0703-0.3438-0.0443-0.1068-0.1133-0.1927-0.2071-0.2578-0.0911-0.0677-0.2083-0.1016-0.3515-0.1016-0.138 0-0.2539 0.0339-0.3477 0.1016-0.0911 0.0651-0.1601 0.151-0.207 0.2578-0.0443 0.1068-0.0664 0.2214-0.0664 0.3438zm0.8008-3.4844-2.7774 4.4453-0.4062-0.2578 2.7773-4.4453 0.4063 0.2578z" fill="black" fill-opacity=".54"/>
 <path d="m25.551 72.703v0.8672c0 0.4662-0.0417 0.8594-0.125 1.1797-0.0834 0.3203-0.2031 0.5781-0.3594 0.7734-0.1562 0.1954-0.345 0.3373-0.5664 0.4258-0.2188 0.086-0.4661 0.1289-0.7422 0.1289-0.2187 0-0.4206-0.0273-0.6055-0.082s-0.3515-0.1419-0.5-0.2617c-0.1458-0.1224-0.2708-0.2813-0.375-0.4766-0.1041-0.1953-0.1835-0.4323-0.2382-0.7109-0.0547-0.2787-0.0821-0.6042-0.0821-0.9766v-0.8672c0-0.4661 0.0417-0.8567 0.125-1.1719 0.086-0.3151 0.2071-0.5677 0.3633-0.7578 0.1563-0.1927 0.3438-0.3307 0.5625-0.414 0.2214-0.0834 0.4688-0.125 0.7422-0.125 0.2214 0 0.4245 0.0273 0.6094 0.082 0.1875 0.0521 0.3541 0.1367 0.5 0.2539 0.1458 0.1146 0.2695 0.2682 0.3711 0.4609 0.1041 0.1902 0.1836 0.4232 0.2382 0.6993 0.0547 0.276 0.0821 0.6002 0.0821 0.9726zm-0.7266 0.9844v-1.1055c0-0.2552-0.0156-0.4791-0.0469-0.6718-0.0286-0.1954-0.0716-0.362-0.1289-0.5-0.0573-0.1381-0.1302-0.25-0.2187-0.336-0.086-0.0859-0.1862-0.1484-0.3008-0.1875-0.112-0.0416-0.2383-0.0625-0.3789-0.0625-0.1719 0-0.3242 0.0326-0.457 0.0977-0.1328 0.0625-0.2448 0.1627-0.336 0.3008-0.0885 0.138-0.1562 0.319-0.2031 0.5429-0.0469 0.224-0.0703 0.4961-0.0703 0.8164v1.1055c0 0.2552 0.0143 0.4805 0.043 0.6758 0.0312 0.1953 0.0768 0.3646 0.1367 0.5078 0.0599 0.1406 0.1328 0.2565 0.2187 0.3477 0.086 0.0911 0.1849 0.1588 0.2969 0.2031 0.1146 0.0416 0.2409 0.0625 0.3789 0.0625 0.1771 0 0.332-0.0339 0.4649-0.1016 0.1328-0.0677 0.2434-0.1732 0.332-0.3164 0.0911-0.1458 0.1588-0.332 0.2031-0.5586 0.0443-0.2292 0.0664-0.5026 0.0664-0.8203z" fill="black" fill-opacity=".54"/>
 <path d="m18.264 73.293-0.5782-0.1485 0.2852-2.832h2.918v0.668h-2.3047l-0.1719 1.5468c0.1042-0.0599 0.2357-0.1158 0.3945-0.1679 0.1615-0.0521 0.3464-0.0782 0.5547-0.0782 0.263 0 0.4987 0.0456 0.7071 0.1368 0.2083 0.0885 0.3854 0.2161 0.5312 0.3828 0.1484 0.1666 0.2617 0.3672 0.3399 0.6015 0.0781 0.2344 0.1171 0.4961 0.1171 0.7852 0 0.2734-0.0377 0.5247-0.1132 0.7539-0.073 0.2292-0.1836 0.4297-0.3321 0.6016-0.1484 0.1692-0.3359 0.3008-0.5625 0.3945-0.2239 0.0937-0.4883 0.1406-0.7929 0.1406-0.2292 0-0.4467-0.0312-0.6524-0.0937-0.2031-0.0651-0.3854-0.1628-0.5469-0.293-0.1588-0.1328-0.289-0.2969-0.3906-0.4922-0.0989-0.1979-0.1614-0.4297-0.1875-0.6953h0.6875c0.0313 0.2135 0.0938 0.3932 0.1875 0.5391 0.0938 0.1458 0.2162 0.2565 0.3672 0.332 0.1536 0.0729 0.332 0.1094 0.5352 0.1094 0.1718 0 0.3242-0.03 0.457-0.0899s0.2448-0.1458 0.3359-0.2578c0.0912-0.112 0.1602-0.2474 0.2071-0.4062 0.0494-0.1589 0.0742-0.3373 0.0742-0.5352 0-0.1797-0.0248-0.3463-0.0742-0.5-0.0495-0.1536-0.1237-0.2877-0.2227-0.4023-0.0964-0.1146-0.2148-0.2032-0.3555-0.2657-0.1406-0.0651-0.302-0.0976-0.4843-0.0976-0.2422 0-0.4258 0.0325-0.5508 0.0976-0.1224 0.0651-0.2487 0.1537-0.3789 0.2657z" fill="black" fill-opacity=".54"/>
 <path d="m26.551 99.707v-0.3008c0-0.2161 0.0469-0.4127 0.1406-0.5898 0.0938-0.1771 0.2279-0.319 0.4024-0.4258 0.1744-0.1067 0.3815-0.1601 0.621-0.1601 0.2448 0 0.4532 0.0534 0.625 0.1601 0.1745 0.1068 0.3086 0.2487 0.4024 0.4258 0.0937 0.1771 0.1406 0.3737 0.1406 0.5898v0.3008c0 0.211-0.0469 0.405-0.1406 0.582-0.0912 0.177-0.224 0.319-0.3984 0.426-0.1719 0.107-0.379 0.16-0.6211 0.16-0.2422 0-0.4519-0.053-0.6289-0.16-0.1745-0.107-0.3086-0.249-0.4024-0.426-0.0937-0.177-0.1406-0.371-0.1406-0.582zm0.543-0.3008v0.3008c0 0.1198 0.0221 0.2331 0.0664 0.34 0.0468 0.107 0.1171 0.194 0.2109 0.262 0.0937 0.065 0.2109 0.097 0.3516 0.097 0.1406 0 0.2565-0.032 0.3476-0.097 0.0912-0.068 0.1589-0.155 0.2031-0.262 0.0443-0.1069 0.0664-0.2202 0.0664-0.34v-0.3008c0-0.1223-0.0234-0.2369-0.0703-0.3437-0.0442-0.1094-0.1133-0.1966-0.207-0.2617-0.0911-0.0677-0.207-0.1016-0.3477-0.1016-0.138 0-0.2539 0.0339-0.3476 0.1016-0.0912 0.0651-0.1602 0.1523-0.207 0.2617-0.0443 0.1068-0.0664 0.2214-0.0664 0.3437zm2.2265 3.5038v-0.305c0-0.213 0.0469-0.408 0.1406-0.585 0.0938-0.178 0.2279-0.319 0.4024-0.426s0.3815-0.16 0.6211-0.16c0.2448 0 0.4531 0.053 0.625 0.16 0.1745 0.107 0.3086 0.248 0.4023 0.426 0.0938 0.177 0.1406 0.372 0.1406 0.585v0.305c0 0.214-0.0468 0.409-0.1406 0.586-0.0911 0.177-0.2239 0.319-0.3984 0.426-0.1719 0.107-0.3789 0.16-0.6211 0.16s-0.4505-0.053-0.625-0.16-0.3099-0.249-0.4063-0.426c-0.0937-0.177-0.1406-0.372-0.1406-0.586zm0.543-0.305v0.305c0 0.12 0.0221 0.235 0.0664 0.344 0.0469 0.107 0.1172 0.194 0.2109 0.262 0.0938 0.065 0.211 0.097 0.3516 0.097s0.2565-0.032 0.3476-0.097c0.0938-0.068 0.1628-0.155 0.2071-0.262 0.0442-0.107 0.0664-0.221 0.0664-0.344v-0.305c0-0.122-0.0235-0.237-0.0703-0.343-0.0443-0.107-0.1133-0.193-0.2071-0.258-0.0911-0.068-0.2083-0.102-0.3515-0.102-0.138 0-0.2539 0.034-0.3477 0.102-0.0911 0.065-0.1601 0.151-0.207 0.258-0.0443 0.106-0.0664 0.221-0.0664 0.343zm0.8008-3.4839-2.7774 4.4449-0.4062-0.257 2.7773-4.4457 0.4063 0.2578z" fill="black" fill-opacity=".54"/>
 <path d="m22.894 101.29-0.5781-0.148 0.2852-2.8325h2.9179v0.668h-2.3047l-0.1718 1.5465c0.1041-0.06 0.2356-0.116 0.3945-0.168 0.1615-0.052 0.3464-0.078 0.5547-0.078 0.263 0 0.4987 0.046 0.707 0.137 0.2084 0.089 0.3854 0.216 0.5313 0.383 0.1484 0.166 0.2617 0.367 0.3398 0.601 0.0781 0.235 0.1172 0.496 0.1172 0.786 0 0.273-0.0378 0.524-0.1133 0.753-0.0729 0.23-0.1836 0.43-0.332 0.602-0.1485 0.169-0.336 0.301-0.5625 0.395-0.224 0.093-0.4883 0.14-0.793 0.14-0.2291 0-0.4466-0.031-0.6523-0.094-0.2032-0.065-0.3854-0.162-0.5469-0.293-0.1589-0.132-0.2891-0.296-0.3906-0.492-0.099-0.198-0.1615-0.429-0.1875-0.695h0.6875c0.0312 0.213 0.0937 0.393 0.1875 0.539 0.0937 0.146 0.2161 0.256 0.3672 0.332 0.1536 0.073 0.332 0.109 0.5351 0.109 0.1719 0 0.3242-0.03 0.457-0.089 0.1329-0.06 0.2448-0.146 0.336-0.258 0.0911-0.112 0.1601-0.248 0.207-0.407 0.0495-0.158 0.0742-0.337 0.0742-0.535 0-0.179-0.0247-0.346-0.0742-0.5-0.0495-0.153-0.1237-0.287-0.2226-0.402-0.0964-0.115-0.2149-0.203-0.3555-0.266-0.1406-0.065-0.3021-0.097-0.4844-0.097-0.2422 0-0.4258 0.032-0.5508 0.097-0.1224 0.065-0.2487 0.154-0.3789 0.266z" fill="black" fill-opacity=".54"/>
 <path d="m21.076 103.41v0.594h-3.7227v-0.52l1.8633-2.074c0.2292-0.255 0.4062-0.471 0.5312-0.648 0.1277-0.18 0.2162-0.34 0.2657-0.481 0.0521-0.143 0.0781-0.2887 0.0781-0.4372 0-0.1875-0.0391-0.3567-0.1172-0.5078-0.0755-0.1536-0.1875-0.276-0.3359-0.3672-0.1485-0.0911-0.3282-0.1367-0.5391-0.1367-0.2526 0-0.4635 0.0495-0.6328 0.1485-0.1667 0.0963-0.2917 0.2317-0.375 0.4062s-0.125 0.375-0.125 0.6016h-0.7227c0-0.3203 0.0704-0.6133 0.211-0.8789 0.1406-0.2657 0.3489-0.4766 0.625-0.6328 0.276-0.1589 0.6159-0.2383 1.0195-0.2383 0.3594 0 0.6667 0.0638 0.9219 0.1914 0.2552 0.125 0.4505 0.3021 0.5859 0.5312 0.138 0.2266 0.2071 0.4922 0.2071 0.7969 0 0.1667-0.0287 0.3361-0.086 0.5081-0.0547 0.169-0.1315 0.338-0.2305 0.508-0.0963 0.169-0.2096 0.335-0.3398 0.5-0.1276 0.164-0.2643 0.325-0.4102 0.484l-1.5234 1.652h2.8516z" fill="black" fill-opacity=".54"/>
 <path d="m26.551 125.71v-0.301c0-0.216 0.0469-0.413 0.1406-0.59 0.0938-0.177 0.2279-0.319 0.4024-0.425 0.1744-0.107 0.3815-0.161 0.621-0.161 0.2448 0 0.4532 0.054 0.625 0.161 0.1745 0.106 0.3086 0.248 0.4024 0.425 0.0937 0.177 0.1406 0.374 0.1406 0.59v0.301c0 0.211-0.0469 0.405-0.1406 0.582-0.0912 0.177-0.224 0.319-0.3984 0.426-0.1719 0.107-0.379 0.16-0.6211 0.16-0.2422 0-0.4519-0.053-0.6289-0.16-0.1745-0.107-0.3086-0.249-0.4024-0.426-0.0937-0.177-0.1406-0.371-0.1406-0.582zm0.543-0.301v0.301c0 0.12 0.0221 0.233 0.0664 0.34 0.0468 0.107 0.1171 0.194 0.2109 0.262 0.0937 0.065 0.2109 0.097 0.3516 0.097 0.1406 0 0.2565-0.032 0.3476-0.097 0.0912-0.068 0.1589-0.155 0.2031-0.262 0.0443-0.107 0.0664-0.22 0.0664-0.34v-0.301c0-0.122-0.0234-0.237-0.0703-0.344-0.0442-0.109-0.1133-0.196-0.207-0.261-0.0911-0.068-0.207-0.102-0.3477-0.102-0.138 0-0.2539 0.034-0.3476 0.102-0.0912 0.065-0.1602 0.152-0.207 0.261-0.0443 0.107-0.0664 0.222-0.0664 0.344zm2.2265 3.504v-0.305c0-0.213 0.0469-0.408 0.1406-0.585 0.0938-0.178 0.2279-0.319 0.4024-0.426s0.3815-0.16 0.6211-0.16c0.2448 0 0.4531 0.053 0.625 0.16 0.1745 0.107 0.3086 0.248 0.4023 0.426 0.0938 0.177 0.1406 0.372 0.1406 0.585v0.305c0 0.214-0.0468 0.409-0.1406 0.586-0.0911 0.177-0.2239 0.319-0.3984 0.426-0.1719 0.107-0.3789 0.16-0.6211 0.16s-0.4505-0.053-0.625-0.16-0.3099-0.249-0.4063-0.426c-0.0937-0.177-0.1406-0.372-0.1406-0.586zm0.543-0.305v0.305c0 0.12 0.0221 0.235 0.0664 0.344 0.0469 0.107 0.1172 0.194 0.2109 0.262 0.0938 0.065 0.211 0.097 0.3516 0.097s0.2565-0.032 0.3476-0.097c0.0938-0.068 0.1628-0.155 0.2071-0.262 0.0442-0.107 0.0664-0.221 0.0664-0.344v-0.305c0-0.122-0.0235-0.237-0.0703-0.343-0.0443-0.107-0.1133-0.193-0.2071-0.258-0.0911-0.068-0.2083-0.102-0.3515-0.102-0.138 0-0.2539 0.034-0.3477 0.102-0.0911 0.065-0.1601 0.151-0.207 0.258-0.0443 0.106-0.0664 0.221-0.0664 0.343zm0.8008-3.484-2.7774 4.445-0.4062-0.257 2.7773-4.446 0.4063 0.258z" fill="black" fill-opacity=".54"/>
 <path d="m25.551 126.7v0.867c0 0.466-0.0417 0.86-0.125 1.18-0.0834 0.32-0.2031 0.578-0.3594 0.773-0.1562 0.196-0.345 0.338-0.5664 0.426-0.2188 0.086-0.4661 0.129-0.7422 0.129-0.2187 0-0.4206-0.027-0.6055-0.082s-0.3515-0.142-0.5-0.262c-0.1458-0.122-0.2708-0.281-0.375-0.476-0.1041-0.196-0.1835-0.432-0.2382-0.711s-0.0821-0.604-0.0821-0.977v-0.867c0-0.466 0.0417-0.857 0.125-1.172 0.086-0.315 0.2071-0.567 0.3633-0.758 0.1563-0.192 0.3438-0.33 0.5625-0.414 0.2214-0.083 0.4688-0.125 0.7422-0.125 0.2214 0 0.4245 0.028 0.6094 0.082 0.1875 0.052 0.3541 0.137 0.5 0.254 0.1458 0.115 0.2695 0.269 0.3711 0.461 0.1041 0.19 0.1836 0.423 0.2383 0.699 0.0546 0.277 0.082 0.601 0.082 0.973zm-0.7266 0.985v-1.106c0-0.255-0.0156-0.479-0.0469-0.672-0.0286-0.195-0.0716-0.362-0.1289-0.5s-0.1302-0.25-0.2187-0.336c-0.0859-0.086-0.1862-0.148-0.3008-0.187-0.112-0.042-0.2383-0.063-0.3789-0.063-0.1719 0-0.3242 0.033-0.457 0.098-0.1328 0.062-0.2448 0.163-0.336 0.301-0.0885 0.138-0.1562 0.319-0.2031 0.543s-0.0703 0.496-0.0703 0.816v1.106c0 0.255 0.0143 0.48 0.043 0.675 0.0312 0.196 0.0768 0.365 0.1367 0.508 0.0599 0.141 0.1328 0.257 0.2187 0.348 0.086 0.091 0.1849 0.159 0.2969 0.203 0.1146 0.042 0.2409 0.062 0.3789 0.062 0.1771 0 0.332-0.033 0.4649-0.101 0.1328-0.068 0.2434-0.173 0.332-0.317 0.0911-0.145 0.1588-0.332 0.2031-0.558 0.0443-0.229 0.0664-0.503 0.0664-0.82z" fill="black" fill-opacity=".54"/>
 <path d="m87.25 127h0.5v2h-0.5v-2z" fill="black" fill-opacity=".5"/>
 <path d="m93.668 132.77h0.6562v4.137c0 0.373-0.0755 0.69-0.2265 0.953-0.1511 0.263-0.362 0.463-0.6329 0.598-0.2682 0.138-0.5781 0.207-0.9296 0.207-0.1459 0-0.3178-0.023-0.5157-0.07-0.1953-0.045-0.388-0.121-0.5781-0.231-0.1875-0.107-0.345-0.251-0.4726-0.433l0.3789-0.43c0.177 0.213 0.3619 0.362 0.5546 0.445 0.1954 0.084 0.3881 0.125 0.5782 0.125 0.2291 0 0.4271-0.043 0.5937-0.129 0.1667-0.086 0.2956-0.213 0.3867-0.383 0.0938-0.166 0.1407-0.372 0.1407-0.617v-3.242l0.0664-0.93zm-2.9102 2.161v-0.082c0-0.323 0.0378-0.616 0.1133-0.879 0.0781-0.266 0.1888-0.494 0.332-0.684 0.1459-0.19 0.3216-0.336 0.5274-0.437 0.2057-0.105 0.4375-0.157 0.6953-0.157 0.2656 0 0.4974 0.047 0.6953 0.141 0.2005 0.091 0.3698 0.225 0.5078 0.402 0.1406 0.175 0.2513 0.386 0.332 0.633 0.0808 0.247 0.1368 0.527 0.168 0.84v0.359c-0.0286 0.31-0.0846 0.589-0.168 0.836-0.0807 0.248-0.1914 0.459-0.332 0.633-0.138 0.175-0.3073 0.309-0.5078 0.402-0.2005 0.092-0.4349 0.137-0.7031 0.137-0.2526 0-0.4818-0.053-0.6875-0.16-0.2032-0.107-0.3776-0.257-0.5235-0.449-0.1458-0.193-0.2578-0.42-0.3359-0.68-0.0755-0.263-0.1133-0.548-0.1133-0.855zm0.7227-0.082v0.082c0 0.211 0.0208 0.408 0.0625 0.593 0.0442 0.185 0.1106 0.348 0.1992 0.489 0.0911 0.14 0.207 0.251 0.3476 0.332 0.1407 0.078 0.3086 0.117 0.504 0.117 0.2395 0 0.4374-0.051 0.5937-0.153 0.1563-0.101 0.2799-0.235 0.3711-0.402 0.0937-0.167 0.1667-0.348 0.2187-0.543v-0.941c-0.0286-0.143-0.0729-0.281-0.1328-0.414-0.0573-0.136-0.1328-0.255-0.2265-0.36-0.0912-0.106-0.2045-0.191-0.3399-0.254-0.1354-0.062-0.2942-0.093-0.4765-0.093-0.198 0-0.3685 0.041-0.5118 0.125-0.1406 0.08-0.2565 0.192-0.3476 0.336-0.0886 0.14-0.155 0.304-0.1992 0.492-0.0417 0.185-0.0625 0.383-0.0625 0.594z" fill="black" fill-opacity=".54"/>
 <path d="m89.02 136.02v-3.25h0.7266v4.227h-0.6914l-0.0352-0.977zm0.1367-0.89 0.3008-8e-3c0 0.281-0.0299 0.542-0.0898 0.781-0.0573 0.237-0.1511 0.443-0.2813 0.617-0.1302 0.175-0.3007 0.312-0.5117 0.411-0.2109 0.096-0.4674 0.144-0.7695 0.144-0.2057 0-0.3945-0.03-0.5664-0.09-0.1693-0.06-0.3151-0.152-0.4375-0.277s-0.2175-0.288-0.2852-0.488c-0.0651-0.201-0.0976-0.442-0.0976-0.723v-2.727h0.7226v2.735c0 0.19 0.0209 0.347 0.0625 0.472 0.0443 0.123 0.1029 0.221 0.1758 0.293 0.0755 0.071 0.1589 0.12 0.25 0.149 0.0938 0.029 0.1901 0.043 0.2891 0.043 0.3073 0 0.5508-0.059 0.7304-0.176 0.1797-0.12 0.3086-0.28 0.3868-0.48 0.0807-0.204 0.121-0.429 0.121-0.676z" fill="black" fill-opacity=".54"/>
 <path d="m83.394 131.82-1.8828 5.184h-0.7695l2.168-5.688h0.496l-0.0117 0.504zm1.5782 5.184-1.8868-5.184-0.0117-0.504h0.4961l2.1758 5.688h-0.7734zm-0.0977-2.105v0.617h-3.1953v-0.617h3.1953z" fill="black" fill-opacity=".54"/>
 <path d="m190.75 127h0.5v2h-0.5v-2z" fill="black" fill-opacity=".5"/>
 <path d="m194.86 133.59v5.039h-0.726v-5.852h0.664l0.062 0.813zm2.848 1.266v0.082c0 0.307-0.036 0.592-0.109 0.855-0.073 0.26-0.18 0.487-0.321 0.68-0.138 0.192-0.308 0.342-0.511 0.449s-0.436 0.16-0.7 0.16c-0.268 0-0.505-0.044-0.71-0.133-0.206-0.088-0.381-0.217-0.524-0.386-0.143-0.17-0.258-0.373-0.344-0.61-0.083-0.237-0.14-0.504-0.172-0.801v-0.437c0.032-0.313 0.09-0.593 0.176-0.84s0.2-0.458 0.34-0.633c0.143-0.177 0.317-0.311 0.52-0.402 0.203-0.094 0.437-0.141 0.703-0.141 0.265 0 0.501 0.052 0.707 0.157 0.206 0.101 0.379 0.247 0.519 0.437 0.141 0.19 0.246 0.418 0.317 0.684 0.073 0.263 0.109 0.556 0.109 0.879zm-0.726 0.082v-0.082c0-0.211-0.023-0.409-0.067-0.594-0.044-0.188-0.113-0.352-0.207-0.492-0.091-0.144-0.208-0.256-0.351-0.336-0.144-0.084-0.314-0.125-0.512-0.125-0.182 0-0.341 0.031-0.477 0.093-0.133 0.063-0.246 0.148-0.34 0.254-0.093 0.105-0.17 0.224-0.23 0.36-0.057 0.133-0.1 0.271-0.129 0.414v1.012c0.052 0.182 0.125 0.354 0.219 0.515 0.094 0.159 0.219 0.288 0.375 0.387 0.156 0.096 0.353 0.144 0.59 0.144 0.195 0 0.363-0.04 0.504-0.121 0.143-0.083 0.26-0.196 0.351-0.34 0.094-0.143 0.163-0.307 0.207-0.492 0.044-0.187 0.067-0.386 0.067-0.597z" fill="black" fill-opacity=".54"/>
 <path d="m191.56 137.08c-0.294 0-0.561-0.049-0.8-0.148-0.237-0.102-0.442-0.244-0.614-0.426-0.169-0.182-0.299-0.399-0.39-0.649s-0.137-0.523-0.137-0.82v-0.164c0-0.344 0.051-0.65 0.152-0.918 0.102-0.271 0.24-0.5 0.415-0.687 0.174-0.188 0.372-0.33 0.593-0.426 0.222-0.097 0.451-0.145 0.688-0.145 0.302 0 0.562 0.052 0.781 0.157 0.221 0.104 0.402 0.25 0.543 0.437 0.141 0.185 0.245 0.404 0.312 0.656 0.068 0.25 0.102 0.524 0.102 0.821v0.324h-3.156v-0.59h2.433v-0.055c-0.01-0.187-0.049-0.369-0.117-0.547-0.065-0.177-0.169-0.322-0.312-0.437-0.144-0.115-0.339-0.172-0.586-0.172-0.164 0-0.315 0.035-0.453 0.106-0.138 0.067-0.257 0.169-0.356 0.304-0.099 0.136-0.176 0.301-0.23 0.496-0.055 0.196-0.082 0.421-0.082 0.676v0.164c0 0.201 0.027 0.389 0.082 0.567 0.057 0.174 0.139 0.328 0.246 0.46 0.109 0.133 0.241 0.237 0.394 0.313 0.157 0.076 0.334 0.113 0.532 0.113 0.255 0 0.471-0.052 0.648-0.156s0.332-0.243 0.465-0.418l0.437 0.348c-0.091 0.138-0.207 0.269-0.347 0.394-0.141 0.125-0.314 0.227-0.52 0.305-0.203 0.078-0.444 0.117-0.723 0.117z" fill="black" fill-opacity=".54"/>
 <path d="m188.12 135.56c0-0.132-0.021-0.25-0.062-0.351-0.039-0.104-0.11-0.198-0.211-0.281-0.099-0.084-0.237-0.163-0.414-0.239-0.175-0.075-0.396-0.152-0.664-0.23-0.282-0.083-0.536-0.176-0.762-0.277-0.227-0.105-0.421-0.223-0.582-0.356-0.162-0.133-0.285-0.285-0.371-0.457s-0.129-0.368-0.129-0.59c0-0.221 0.045-0.426 0.137-0.613 0.091-0.188 0.221-0.35 0.39-0.488 0.172-0.141 0.377-0.25 0.613-0.328 0.237-0.079 0.502-0.118 0.793-0.118 0.428 0 0.79 0.082 1.086 0.246 0.3 0.162 0.528 0.374 0.684 0.637 0.156 0.261 0.234 0.539 0.234 0.836h-0.75c0-0.213-0.045-0.402-0.136-0.566-0.091-0.167-0.23-0.297-0.414-0.391-0.185-0.096-0.42-0.144-0.704-0.144-0.268 0-0.489 0.04-0.664 0.121-0.174 0.08-0.304 0.19-0.39 0.328-0.084 0.138-0.125 0.295-0.125 0.472 0 0.12 0.025 0.23 0.074 0.329 0.052 0.096 0.132 0.186 0.238 0.269 0.11 0.083 0.248 0.16 0.414 0.231 0.17 0.07 0.371 0.138 0.606 0.203 0.323 0.091 0.601 0.192 0.836 0.304 0.234 0.112 0.427 0.239 0.578 0.379 0.154 0.138 0.267 0.296 0.34 0.473 0.075 0.174 0.113 0.372 0.113 0.594 0 0.231-0.047 0.441-0.141 0.629-0.093 0.187-0.227 0.347-0.402 0.48-0.174 0.133-0.384 0.236-0.629 0.309-0.242 0.07-0.513 0.105-0.812 0.105-0.263 0-0.523-0.036-0.778-0.109-0.252-0.073-0.483-0.183-0.691-0.328-0.206-0.146-0.371-0.326-0.496-0.539-0.123-0.217-0.184-0.467-0.184-0.75h0.75c0 0.195 0.038 0.363 0.113 0.503 0.076 0.138 0.179 0.253 0.309 0.344 0.133 0.091 0.283 0.159 0.449 0.203 0.17 0.042 0.345 0.063 0.528 0.063 0.263 0 0.485-0.037 0.668-0.11 0.182-0.072 0.32-0.177 0.414-0.312 0.096-0.135 0.144-0.296 0.144-0.481z" fill="black" fill-opacity=".54"/>
 <path d="m243 126.75v0.5h-207v-0.5h207z" fill="#7F7F7F"/>
 <path d="m243 100.75v0.5h-207v-0.5h207z" fill="#E0E0E0"/>
 <path d="m243 72.75v0.5h-207v-0.5h207z" fill="#E0E0E0"/>
 <path d="m243 44.75v0.5h-207v-0.5h207z" fill="#E0E0E0"/>
 <path d="m243 16.75v0.5h-207v-0.5h207z" fill="#E0E0E0"/>
 <path d="M52 51H76V127H52V51Z" fill="#7D8EFF"/>
 <path d="m155 38h24v89h-24v-89z" fill="#7D8EFF"/>
 <path d="m76 72h24v55h-24v-55z" fill="#F96EFF"/>
 <path d="m179 56h24v71h-24v-71z" fill="#F96EFF"/>
 <path d="m100 45h24v82h-24v-82z" fill="#FFED53"/>
 <path d="m203 51h24v76h-24v-76z" fill="#FFED53"/>
 <path d="m65.879 63.166c-0.1042 0-0.2005 0.0234-0.2891 0.0703-0.0911 0.0443-0.1731 0.1367-0.2461 0.2774-0.0755 0.138-0.1406 0.3463-0.1953 0.625-0.0494 0.2343-0.108 0.4466-0.1757 0.6367-0.0678 0.1875-0.1498 0.3476-0.2461 0.4804-0.0964 0.1303-0.2097 0.2305-0.3399 0.3008s-0.2825 0.1055-0.457 0.1055c-0.1667 0-0.3242-0.0365-0.4727-0.1094-0.1484-0.0755-0.2799-0.181-0.3945-0.3164-0.1146-0.138-0.2044-0.3034-0.2695-0.4961s-0.0977-0.4075-0.0977-0.6445c0-0.3386 0.0599-0.6276 0.1797-0.8672s0.2799-0.4232 0.4805-0.5508c0.1979-0.1276 0.4179-0.1914 0.6601-0.1914v0.7227c-0.1172 0-0.2304 0.0351-0.3398 0.1054-0.112 0.0677-0.2044 0.168-0.2774 0.3008-0.0729 0.1302-0.1093 0.2904-0.1093 0.4805 0 0.2005 0.0312 0.3633 0.0937 0.4883 0.0599 0.1224 0.1367 0.2122 0.2305 0.2695 0.0937 0.0547 0.1927 0.082 0.2969 0.082 0.0781 0 0.1484-0.013 0.2109-0.039 0.0599-0.0287 0.1159-0.0782 0.168-0.1485 0.0494-0.0703 0.0963-0.1692 0.1406-0.2968s0.0885-0.2904 0.1328-0.4883c0.0781-0.3464 0.1719-0.6315 0.2812-0.8555 0.1094-0.2239 0.2435-0.3906 0.4024-0.5 0.1588-0.1094 0.3516-0.1641 0.5781-0.1641 0.1849 0 0.3542 0.0391 0.5078 0.1172 0.1537 0.0756 0.2865 0.1862 0.3985 0.3321 0.1093 0.1432 0.1953 0.3151 0.2578 0.5156 0.0599 0.1979 0.0898 0.4206 0.0898 0.668 0 0.3724-0.0664 0.6875-0.1992 0.9453s-0.3047 0.4531-0.5156 0.5859c-0.211 0.1328-0.4336 0.1992-0.668 0.1992v-0.7265c0.1979-0.0105 0.3555-0.0677 0.4727-0.1719 0.1146-0.1042 0.1966-0.2318 0.2461-0.3828 0.0468-0.1511 0.0703-0.3008 0.0703-0.4492 0-0.198-0.0261-0.3633-0.0782-0.4961-0.052-0.1355-0.1236-0.2383-0.2148-0.3086-0.0911-0.0703-0.1953-0.1055-0.3125-0.1055z" fill="black" fill-opacity=".54"/>
 <path d="m65.879 67.549c-0.1042 0-0.2005 0.0235-0.2891 0.0703-0.0911 0.0443-0.1731 0.1367-0.2461 0.2774-0.0755 0.138-0.1406 0.3463-0.1953 0.625-0.0494 0.2343-0.108 0.4466-0.1757 0.6367-0.0678 0.1875-0.1498 0.3476-0.2461 0.4805-0.0964 0.1302-0.2097 0.2304-0.3399 0.3007-0.1302 0.0704-0.2825 0.1055-0.457 0.1055-0.1667 0-0.3242-0.0364-0.4727-0.1094-0.1484-0.0755-0.2799-0.181-0.3945-0.3164-0.1146-0.138-0.2044-0.3034-0.2695-0.4961s-0.0977-0.4075-0.0977-0.6445c0-0.3385 0.0599-0.6276 0.1797-0.8672s0.2799-0.4232 0.4805-0.5508c0.1979-0.1276 0.4179-0.1914 0.6601-0.1914v0.7227c-0.1172 0-0.2304 0.0351-0.3398 0.1055-0.112 0.0677-0.2044 0.1679-0.2774 0.3007-0.0729 0.1302-0.1093 0.2904-0.1093 0.4805 0 0.2005 0.0312 0.3633 0.0937 0.4883 0.0599 0.1224 0.1367 0.2122 0.2305 0.2695 0.0937 0.0547 0.1927 0.082 0.2969 0.082 0.0781 0 0.1484-0.013 0.2109-0.039 0.0599-0.0287 0.1159-0.0781 0.168-0.1485 0.0494-0.0703 0.0963-0.1692 0.1406-0.2968s0.0885-0.2904 0.1328-0.4883c0.0781-0.3464 0.1719-0.6315 0.2812-0.8555 0.1094-0.2239 0.2435-0.3906 0.4024-0.5 0.1588-0.1094 0.3516-0.164 0.5781-0.164 0.1849 0 0.3542 0.039 0.5078 0.1171 0.1537 0.0756 0.2865 0.1862 0.3985 0.3321 0.1093 0.1432 0.1953 0.3151 0.2578 0.5156 0.0599 0.1979 0.0898 0.4206 0.0898 0.668 0 0.3724-0.0664 0.6875-0.1992 0.9453s-0.3047 0.4531-0.5156 0.5859c-0.211 0.1328-0.4336 0.1992-0.668 0.1992v-0.7265c0.1979-0.0104 0.3555-0.0677 0.4727-0.1719 0.1146-0.1042 0.1966-0.2318 0.2461-0.3828 0.0468-0.1511 0.0703-0.3008 0.0703-0.4492 0-0.1979-0.0261-0.3633-0.0782-0.4961-0.052-0.1354-0.1236-0.2383-0.2148-0.3086-0.0911-0.0703-0.1953-0.1055-0.3125-0.1055z" fill="black" fill-opacity=".54"/>
 <path d="m67.078 72.748c0 0.2943-0.0495 0.5612-0.1484 0.8008-0.1016 0.237-0.2435 0.4414-0.4258 0.6133-0.1823 0.1693-0.3984 0.2995-0.6484 0.3906-0.25 0.0912-0.5235 0.1367-0.8203 0.1367h-0.1641c-0.3438 0-0.6497-0.0507-0.918-0.1523-0.2708-0.1016-0.5-0.2396-0.6875-0.4141-0.1875-0.1744-0.3294-0.3724-0.4258-0.5937-0.0963-0.2214-0.1445-0.4505-0.1445-0.6875 0-0.3021 0.0521-0.5625 0.1563-0.7813 0.1041-0.2213 0.25-0.4023 0.4375-0.5429 0.1849-0.1407 0.4036-0.2448 0.6562-0.3125 0.25-0.0677 0.5234-0.1016 0.8203-0.1016h0.3242v3.1563h-0.5898v-2.4336h-0.0547c-0.1875 0.0104-0.3698 0.0494-0.5469 0.1171-0.177 0.0652-0.3229 0.1693-0.4375 0.3125-0.1145 0.1433-0.1718 0.3386-0.1718 0.586 0 0.164 0.0351 0.3151 0.1054 0.4531 0.0677 0.138 0.1693 0.2565 0.3047 0.3555 0.1354 0.0989 0.3008 0.1758 0.4961 0.2304 0.1953 0.0547 0.4206 0.0821 0.6758 0.0821h0.1641c0.2005 0 0.3893-0.0274 0.5664-0.0821 0.1744-0.0572 0.3281-0.1393 0.4609-0.246 0.1328-0.1094 0.237-0.2409 0.3125-0.3946 0.0755-0.1562 0.1133-0.3333 0.1133-0.5312 0-0.2552-0.0521-0.4714-0.1563-0.6485-0.1041-0.177-0.2435-0.332-0.4179-0.4648l0.3476-0.4375c0.138 0.0911 0.2695 0.207 0.3945 0.3476 0.125 0.1407 0.2266 0.3138 0.3047 0.5196 0.0782 0.2031 0.1172 0.444 0.1172 0.7226z" fill="black" fill-opacity=".54"/>
 <path d="m63.676 78.452h3.3242v0.7226h-4.2266v-0.6836l0.9024-0.039zm1.0508 0.1718-0.0118 0.3008c-0.289-0.0026-0.5559-0.0456-0.8007-0.1289-0.2474-0.0833-0.4623-0.2005-0.6446-0.3516-0.1823-0.151-0.3229-0.3307-0.4218-0.539-0.1016-0.211-0.1524-0.444-0.1524-0.6992 0-0.2084 0.0287-0.3959 0.0859-0.5625 0.0547-0.1667 0.1433-0.3086 0.2657-0.4258 0.1224-0.1198 0.2812-0.211 0.4765-0.2735 0.1927-0.0625 0.4284-0.0937 0.7071-0.0937h2.7695v0.7266h-2.7773c-0.2214 0-0.3985 0.0325-0.5313 0.0976-0.1354 0.0651-0.2331 0.1602-0.293 0.2852-0.0625 0.125-0.0937 0.2786-0.0937 0.4609 0 0.1797 0.0377 0.3438 0.1133 0.4922 0.0755 0.1458 0.1797 0.2721 0.3125 0.3789 0.1328 0.1042 0.2851 0.1862 0.457 0.2461 0.1693 0.0573 0.349 0.0859 0.5391 0.0859z" fill="black" fill-opacity=".54"/>
 <path d="m62.773 80.272h0.5547v2.2851h-0.5547v-2.2851zm-1.0273 1.5117v-0.7227h4.207c0.1433 0 0.2513-0.0221 0.3242-0.0664 0.073-0.0442 0.1211-0.1015 0.1446-0.1718 0.0234-0.0704 0.0351-0.1459 0.0351-0.2266 0-0.0599-0.0052-0.1224-0.0156-0.1875-0.013-0.0677-0.0234-0.1185-0.0312-0.1524l0.5898-0.0039c0.0182 0.0573 0.0352 0.1329 0.0508 0.2266 0.0182 0.0911 0.0273 0.2018 0.0273 0.332 0 0.1771-0.0351 0.3399-0.1054 0.4883-0.0704 0.1485-0.1875 0.2669-0.3516 0.3555-0.1667 0.0859-0.3906 0.1289-0.6719 0.1289h-4.2031z" fill="black" fill-opacity=".54"/>
 <path d="m67.078 84.78c0 0.2943-0.0495 0.5612-0.1484 0.8008-0.1016 0.2369-0.2435 0.4414-0.4258 0.6132-0.1823 0.1693-0.3984 0.2995-0.6484 0.3907-0.25 0.0911-0.5235 0.1367-0.8203 0.1367h-0.1641c-0.3438 0-0.6497-0.0508-0.918-0.1524-0.2708-0.1015-0.5-0.2395-0.6875-0.414s-0.3294-0.3724-0.4258-0.5938c-0.0963-0.2213-0.1445-0.4505-0.1445-0.6875 0-0.302 0.0521-0.5625 0.1563-0.7812 0.1041-0.2214 0.25-0.4024 0.4375-0.543 0.1849-0.1406 0.4036-0.2448 0.6562-0.3125 0.25-0.0677 0.5234-0.1015 0.8203-0.1015h0.3242v3.1562h-0.5898v-2.4336h-0.0547c-0.1875 0.0104-0.3698 0.0495-0.5469 0.1172-0.177 0.0651-0.3229 0.1693-0.4375 0.3125-0.1145 0.1432-0.1718 0.3385-0.1718 0.5859 0 0.1641 0.0351 0.3151 0.1054 0.4532 0.0677 0.138 0.1693 0.2565 0.3047 0.3554 0.1354 0.099 0.3008 0.1758 0.4961 0.2305s0.4206 0.082 0.6758 0.082h0.1641c0.2005 0 0.3893-0.0273 0.5664-0.082 0.1744-0.0573 0.3281-0.1393 0.4609-0.2461 0.1328-0.1094 0.237-0.2409 0.3125-0.3945 0.0755-0.1563 0.1133-0.3334 0.1133-0.5313 0-0.2552-0.0521-0.4713-0.1563-0.6484-0.1041-0.1771-0.2435-0.332-0.4179-0.4649l0.3476-0.4375c0.138 0.0912 0.2695 0.2071 0.3945 0.3477s0.2266 0.3138 0.3047 0.5195c0.0782 0.2032 0.1172 0.444 0.1172 0.7227z" fill="black" fill-opacity=".54"/>
 <path d="m66.25 91.729-3.4766-1.0859v-0.4766l0.6914 0.0938 3.5352 1.1054v0.4649l-0.75-0.1016zm-3.4766 0.7305 3.5157-0.9258 0.7109-0.0664v0.4883l-4.2266 1.2265v-0.7226zm3.4883-3.3321-3.4883-0.8828v-0.7187l4.2266 1.2265v0.4844l-0.7383-0.1094zm-3.4883 0.9336 3.418-1.0625 0.8086-0.1211v0.461l-3.543 1.1367-0.6836 0.0937v-0.5078z" fill="black" fill-opacity=".54"/>
 <path d="m67 96.987v0.7227h-4.6719c-0.3047 0-0.5612-0.0547-0.7695-0.1641-0.2109-0.112-0.3698-0.2721-0.4766-0.4805-0.1093-0.2083-0.164-0.4557-0.164-0.7421 0-0.0834 0.0052-0.1667 0.0156-0.25 0.0104-0.086 0.026-0.1693 0.0469-0.25l0.5898 0.039c-0.013 0.0547-0.0221 0.1172-0.0273 0.1875-0.0052 0.0677-0.0078 0.1354-0.0078 0.2031 0 0.1537 0.0312 0.2865 0.0937 0.3985 0.0599 0.1094 0.1484 0.1927 0.2656 0.25s0.2617 0.0859 0.4336 0.0859h4.6719zm-4.2266-0.8984h0.5547v2.289h-0.5547v-2.289z" fill="black" fill-opacity=".54"/>
 <path d="m66.277 100.17h-2.1757c-0.1667 0-0.3112 0.034-0.4336 0.102-0.125 0.065-0.2214 0.164-0.2891 0.297s-0.1016 0.297-0.1016 0.492c0 0.182 0.0313 0.342 0.0938 0.48 0.0625 0.136 0.1445 0.243 0.2461 0.321 0.1015 0.075 0.2109 0.113 0.3281 0.113v0.723c-0.151 0-0.3008-0.039-0.4492-0.118-0.1484-0.078-0.2826-0.19-0.4024-0.335-0.1223-0.149-0.2187-0.326-0.289-0.532-0.0729-0.208-0.1094-0.44-0.1094-0.695 0-0.307 0.0521-0.578 0.1563-0.813 0.1041-0.2365 0.2617-0.4214 0.4726-0.5542 0.2084-0.1354 0.4701-0.2031 0.7852-0.2031h1.9687c0.1406 0 0.2904-0.0118 0.4492-0.0352 0.1589-0.026 0.2956-0.0638 0.4102-0.1133h0.0625v0.7538c-0.0833 0.037-0.194 0.065-0.332 0.086-0.1407 0.021-0.2709 0.031-0.3907 0.031zm-1.8398-0.125 0.5078-7e-3v0.73c0 0.206 0.0169 0.389 0.0508 0.551 0.0312 0.161 0.0794 0.297 0.1445 0.406s0.1472 0.193 0.2461 0.25c0.0964 0.057 0.2097 0.086 0.3399 0.086 0.1328 0 0.2539-0.03 0.3632-0.09 0.1094-0.06 0.1967-0.15 0.2618-0.269 0.0625-0.123 0.0937-0.273 0.0937-0.45 0-0.221-0.0469-0.416-0.1406-0.586-0.0938-0.169-0.2083-0.303-0.3438-0.402-0.1354-0.101-0.2669-0.156-0.3945-0.164l0.3477-0.3086c0.1093 0.0182 0.2304 0.0677 0.3632 0.1484 0.1329 0.0812 0.2605 0.1892 0.3829 0.3242 0.1197 0.133 0.22 0.292 0.3007 0.477 0.0782 0.182 0.1172 0.388 0.1172 0.617 0 0.286-0.056 0.538-0.1679 0.754-0.112 0.213-0.2618 0.38-0.4493 0.5-0.1901 0.117-0.4023 0.176-0.6367 0.176-0.2265 0-0.4258-0.045-0.5976-0.133-0.1745-0.089-0.319-0.216-0.4336-0.383-0.1172-0.167-0.2058-0.367-0.2657-0.602-0.0599-0.234-0.0898-0.496-0.0898-0.785v-0.84z" fill="black" fill-opacity=".54"/>
 <path d="m67.078 105.4c0 0.294-0.0495 0.561-0.1484 0.801-0.1016 0.237-0.2435 0.441-0.4258 0.613-0.1823 0.169-0.3984 0.299-0.6484 0.39-0.25 0.092-0.5235 0.137-0.8203 0.137h-0.1641c-0.3438 0-0.6497-0.051-0.918-0.152-0.2708-0.102-0.5-0.24-0.6875-0.414-0.1875-0.175-0.3294-0.373-0.4258-0.594-0.0963-0.221-0.1445-0.45-0.1445-0.687 0-0.303 0.0521-0.563 0.1563-0.782 0.1041-0.221 0.25-0.402 0.4375-0.543 0.1849-0.14 0.4036-0.244 0.6562-0.312 0.25-0.068 0.5234-0.102 0.8203-0.102h0.3242v3.157h-0.5898v-2.434h-0.0547c-0.1875 0.01-0.3698 0.049-0.5469 0.117-0.177 0.065-0.3229 0.169-0.4375 0.313-0.1145 0.143-0.1718 0.338-0.1718 0.586 0 0.164 0.0351 0.315 0.1054 0.453 0.0677 0.138 0.1693 0.256 0.3047 0.355s0.3008 0.176 0.4961 0.231c0.1953 0.054 0.4206 0.082 0.6758 0.082h0.1641c0.2005 0 0.3893-0.028 0.5664-0.082 0.1744-0.058 0.3281-0.14 0.4609-0.246 0.1328-0.11 0.237-0.241 0.3125-0.395 0.0755-0.156 0.1133-0.333 0.1133-0.531 0-0.255-0.0521-0.472-0.1563-0.649-0.1041-0.177-0.2435-0.332-0.4179-0.465l0.3476-0.437c0.138 0.091 0.2695 0.207 0.3945 0.348 0.125 0.14 0.2266 0.313 0.3047 0.519 0.0782 0.203 0.1172 0.444 0.1172 0.723z" fill="black" fill-opacity=".54"/>
 <path d="m66.387 108.16h0.6133v2.843h-0.6133v-2.843zm-5.0742 2.695h5.6875v0.754h-5.6875v-0.754z" fill="black" fill-opacity=".54"/>
 <path d="m63.68 115.07h0.9297c0.4453 0 0.8255 0.045 1.1406 0.133 0.3125 0.086 0.5664 0.211 0.7617 0.375s0.3386 0.361 0.4297 0.59c0.0912 0.227 0.1367 0.481 0.1367 0.762 0 0.224-0.0286 0.432-0.0859 0.625-0.0573 0.19-0.1471 0.362-0.2695 0.515-0.1224 0.154-0.28 0.286-0.4727 0.395-0.1953 0.107-0.4284 0.19-0.6992 0.25-0.2709 0.057-0.5847 0.086-0.9414 0.086h-0.9297c-0.4479 0-0.8255-0.044-1.1328-0.133-0.3099-0.088-0.5612-0.215-0.7539-0.379-0.1953-0.164-0.3373-0.359-0.4258-0.586-0.0886-0.229-0.1328-0.484-0.1328-0.765 0-0.227 0.0286-0.435 0.0859-0.625 0.0547-0.193 0.1419-0.365 0.2617-0.516 0.1198-0.154 0.2761-0.284 0.4688-0.391 0.1901-0.109 0.4206-0.192 0.6914-0.25 0.2682-0.057 0.5807-0.086 0.9375-0.086zm1.0625 0.942h-1.2031c-0.2266 0-0.4258 0.013-0.5977 0.039-0.1745 0.026-0.3216 0.065-0.4414 0.117-0.1224 0.05-0.2214 0.112-0.2969 0.188-0.0781 0.075-0.1341 0.161-0.1679 0.257-0.0365 0.097-0.0547 0.205-0.0547 0.325 0 0.145 0.0286 0.276 0.0859 0.39 0.0547 0.115 0.1432 0.211 0.2656 0.289s0.2839 0.138 0.4844 0.18c0.1979 0.039 0.4388 0.059 0.7227 0.059h1.2031c0.2292 0 0.431-0.013 0.6055-0.04 0.1744-0.026 0.3242-0.065 0.4492-0.117 0.1224-0.052 0.2239-0.114 0.3047-0.187 0.0781-0.076 0.1354-0.162 0.1718-0.258 0.0365-0.099 0.0547-0.207 0.0547-0.324 0-0.149-0.0286-0.28-0.0859-0.395-0.0573-0.114-0.1485-0.211-0.2735-0.289-0.1276-0.078-0.2929-0.137-0.496-0.176-0.2032-0.039-0.4467-0.058-0.7305-0.058z" fill="black" fill-opacity=".87"/>
 <path d="m61.312 119.79h0.5156l5.1719 2.273v0.993l-4.9375-2.27v2.945h-0.75v-3.941z" fill="black" fill-opacity=".87"/>
 <path d="m169.88 63.166c-0.104 0-0.201 0.0234-0.289 0.0703-0.091 0.0443-0.173 0.1367-0.246 0.2774-0.076 0.138-0.141 0.3463-0.196 0.625-0.049 0.2343-0.108 0.4466-0.175 0.6367-0.068 0.1875-0.15 0.3476-0.246 0.4804-0.097 0.1303-0.21 0.2305-0.34 0.3008s-0.283 0.1055-0.457 0.1055c-0.167 0-0.325-0.0365-0.473-0.1094-0.148-0.0755-0.28-0.181-0.395-0.3164-0.114-0.138-0.204-0.3034-0.269-0.4961s-0.098-0.4075-0.098-0.6445c0-0.3386 0.06-0.6276 0.18-0.8672s0.28-0.4232 0.48-0.5508c0.198-0.1276 0.418-0.1914 0.661-0.1914v0.7227c-0.118 0-0.231 0.0351-0.34 0.1054-0.112 0.0677-0.205 0.168-0.278 0.3008-0.072 0.1302-0.109 0.2904-0.109 0.4805 0 0.2005 0.031 0.3633 0.094 0.4883 0.06 0.1224 0.137 0.2122 0.23 0.2695 0.094 0.0547 0.193 0.082 0.297 0.082 0.078 0 0.149-0.013 0.211-0.039 0.06-0.0287 0.116-0.0782 0.168-0.1485 0.05-0.0703 0.096-0.1692 0.141-0.2968 0.044-0.1276 0.088-0.2904 0.132-0.4883 0.079-0.3464 0.172-0.6315 0.282-0.8555 0.109-0.2239 0.243-0.3906 0.402-0.5s0.352-0.1641 0.578-0.1641c0.185 0 0.354 0.0391 0.508 0.1172 0.154 0.0756 0.286 0.1862 0.398 0.3321 0.11 0.1432 0.196 0.3151 0.258 0.5156 0.06 0.1979 0.09 0.4206 0.09 0.668 0 0.3724-0.066 0.6875-0.199 0.9453s-0.305 0.4531-0.516 0.5859-0.433 0.1992-0.668 0.1992v-0.7265c0.198-0.0105 0.356-0.0677 0.473-0.1719 0.115-0.1042 0.197-0.2318 0.246-0.3828 0.047-0.1511 0.07-0.3008 0.07-0.4492 0-0.198-0.026-0.3633-0.078-0.4961-0.052-0.1355-0.123-0.2383-0.215-0.3086-0.091-0.0703-0.195-0.1055-0.312-0.1055z" fill="black" fill-opacity=".54"/>
 <path d="m169.88 67.549c-0.104 0-0.201 0.0235-0.289 0.0703-0.091 0.0443-0.173 0.1367-0.246 0.2774-0.076 0.138-0.141 0.3463-0.196 0.625-0.049 0.2343-0.108 0.4466-0.175 0.6367-0.068 0.1875-0.15 0.3476-0.246 0.4805-0.097 0.1302-0.21 0.2304-0.34 0.3007-0.13 0.0704-0.283 0.1055-0.457 0.1055-0.167 0-0.325-0.0364-0.473-0.1094-0.148-0.0755-0.28-0.181-0.395-0.3164-0.114-0.138-0.204-0.3034-0.269-0.4961s-0.098-0.4075-0.098-0.6445c0-0.3385 0.06-0.6276 0.18-0.8672s0.28-0.4232 0.48-0.5508c0.198-0.1276 0.418-0.1914 0.661-0.1914v0.7227c-0.118 0-0.231 0.0351-0.34 0.1055-0.112 0.0677-0.205 0.1679-0.278 0.3007-0.072 0.1302-0.109 0.2904-0.109 0.4805 0 0.2005 0.031 0.3633 0.094 0.4883 0.06 0.1224 0.137 0.2122 0.23 0.2695 0.094 0.0547 0.193 0.082 0.297 0.082 0.078 0 0.149-0.013 0.211-0.039 0.06-0.0287 0.116-0.0781 0.168-0.1485 0.05-0.0703 0.096-0.1692 0.141-0.2968 0.044-0.1276 0.088-0.2904 0.132-0.4883 0.079-0.3464 0.172-0.6315 0.282-0.8555 0.109-0.2239 0.243-0.3906 0.402-0.5s0.352-0.164 0.578-0.164c0.185 0 0.354 0.039 0.508 0.1171 0.154 0.0756 0.286 0.1862 0.398 0.3321 0.11 0.1432 0.196 0.3151 0.258 0.5156 0.06 0.1979 0.09 0.4206 0.09 0.668 0 0.3724-0.066 0.6875-0.199 0.9453s-0.305 0.4531-0.516 0.5859-0.433 0.1992-0.668 0.1992v-0.7265c0.198-0.0104 0.356-0.0677 0.473-0.1719 0.115-0.1042 0.197-0.2318 0.246-0.3828 0.047-0.1511 0.07-0.3008 0.07-0.4492 0-0.1979-0.026-0.3633-0.078-0.4961-0.052-0.1354-0.123-0.2383-0.215-0.3086-0.091-0.0703-0.195-0.1055-0.312-0.1055z" fill="black" fill-opacity=".54"/>
 <path d="m171.08 72.748c0 0.2943-0.049 0.5612-0.148 0.8008-0.102 0.237-0.244 0.4414-0.426 0.6133-0.182 0.1693-0.399 0.2995-0.649 0.3906-0.25 0.0912-0.523 0.1367-0.82 0.1367h-0.164c-0.344 0-0.65-0.0507-0.918-0.1523-0.271-0.1016-0.5-0.2396-0.687-0.4141-0.188-0.1744-0.33-0.3724-0.426-0.5937-0.097-0.2214-0.145-0.4505-0.145-0.6875 0-0.3021 0.052-0.5625 0.157-0.7813 0.104-0.2213 0.25-0.4023 0.437-0.5429 0.185-0.1407 0.404-0.2448 0.656-0.3125 0.25-0.0677 0.524-0.1016 0.821-0.1016h0.324v3.1563h-0.59v-2.4336h-0.055c-0.187 0.0104-0.369 0.0494-0.547 0.1171-0.177 0.0652-0.322 0.1693-0.437 0.3125-0.115 0.1433-0.172 0.3386-0.172 0.586 0 0.164 0.035 0.3151 0.106 0.4531 0.067 0.138 0.169 0.2565 0.304 0.3555 0.136 0.0989 0.301 0.1758 0.496 0.2304 0.196 0.0547 0.421 0.0821 0.676 0.0821h0.164c0.201 0 0.389-0.0274 0.567-0.0821 0.174-0.0572 0.328-0.1393 0.46-0.246 0.133-0.1094 0.237-0.2409 0.313-0.3946 0.076-0.1562 0.113-0.3333 0.113-0.5312 0-0.2552-0.052-0.4714-0.156-0.6485-0.104-0.177-0.243-0.332-0.418-0.4648l0.348-0.4375c0.138 0.0911 0.269 0.207 0.394 0.3476 0.125 0.1407 0.227 0.3138 0.305 0.5196 0.078 0.2031 0.117 0.444 0.117 0.7226z" fill="black" fill-opacity=".54"/>
 <path d="m167.68 78.452h3.324v0.7226h-4.227v-0.6836l0.903-0.039zm1.051 0.1718-0.012 0.3008c-0.289-0.0026-0.556-0.0456-0.801-0.1289-0.247-0.0833-0.462-0.2005-0.644-0.3516-0.183-0.151-0.323-0.3307-0.422-0.539-0.102-0.211-0.153-0.444-0.153-0.6992 0-0.2084 0.029-0.3959 0.086-0.5625 0.055-0.1667 0.143-0.3086 0.266-0.4258 0.122-0.1198 0.281-0.211 0.476-0.2735 0.193-0.0625 0.429-0.0937 0.707-0.0937h2.77v0.7266h-2.777c-0.222 0-0.399 0.0325-0.532 0.0976-0.135 0.0651-0.233 0.1602-0.293 0.2852-0.062 0.125-0.093 0.2786-0.093 0.4609 0 0.1797 0.037 0.3438 0.113 0.4922 0.075 0.1458 0.18 0.2721 0.312 0.3789 0.133 0.1042 0.286 0.1862 0.457 0.2461 0.17 0.0573 0.349 0.0859 0.54 0.0859z" fill="black" fill-opacity=".54"/>
 <path d="m166.77 80.272h0.555v2.2851h-0.555v-2.2851zm-1.027 1.5117v-0.7227h4.207c0.143 0 0.251-0.0221 0.324-0.0664 0.073-0.0442 0.121-0.1015 0.145-0.1718 0.023-0.0704 0.035-0.1459 0.035-0.2266 0-0.0599-5e-3 -0.1224-0.016-0.1875-0.013-0.0677-0.023-0.1185-0.031-0.1524l0.59-0.0039c0.018 0.0573 0.035 0.1329 0.051 0.2266 0.018 0.0911 0.027 0.2018 0.027 0.332 0 0.1771-0.035 0.3399-0.105 0.4883-0.071 0.1485-0.188 0.2669-0.352 0.3555-0.167 0.0859-0.391 0.1289-0.672 0.1289h-4.203z" fill="black" fill-opacity=".54"/>
 <path d="m171.08 84.78c0 0.2943-0.049 0.5612-0.148 0.8008-0.102 0.2369-0.244 0.4414-0.426 0.6132-0.182 0.1693-0.399 0.2995-0.649 0.3907-0.25 0.0911-0.523 0.1367-0.82 0.1367h-0.164c-0.344 0-0.65-0.0508-0.918-0.1524-0.271-0.1015-0.5-0.2395-0.687-0.414-0.188-0.1745-0.33-0.3724-0.426-0.5938-0.097-0.2213-0.145-0.4505-0.145-0.6875 0-0.302 0.052-0.5625 0.157-0.7812 0.104-0.2214 0.25-0.4024 0.437-0.543 0.185-0.1406 0.404-0.2448 0.656-0.3125 0.25-0.0677 0.524-0.1015 0.821-0.1015h0.324v3.1562h-0.59v-2.4336h-0.055c-0.187 0.0104-0.369 0.0495-0.547 0.1172-0.177 0.0651-0.322 0.1693-0.437 0.3125s-0.172 0.3385-0.172 0.5859c0 0.1641 0.035 0.3151 0.106 0.4532 0.067 0.138 0.169 0.2565 0.304 0.3554 0.136 0.099 0.301 0.1758 0.496 0.2305 0.196 0.0547 0.421 0.082 0.676 0.082h0.164c0.201 0 0.389-0.0273 0.567-0.082 0.174-0.0573 0.328-0.1393 0.46-0.2461 0.133-0.1094 0.237-0.2409 0.313-0.3945 0.076-0.1563 0.113-0.3334 0.113-0.5313 0-0.2552-0.052-0.4713-0.156-0.6484s-0.243-0.332-0.418-0.4649l0.348-0.4375c0.138 0.0912 0.269 0.2071 0.394 0.3477s0.227 0.3138 0.305 0.5195c0.078 0.2032 0.117 0.444 0.117 0.7227z" fill="black" fill-opacity=".54"/>
 <path d="m170.25 91.729-3.477-1.0859v-0.4766l0.692 0.0938 3.535 1.1054v0.4649l-0.75-0.1016zm-3.477 0.7305 3.516-0.9258 0.711-0.0664v0.4883l-4.227 1.2265v-0.7226zm3.489-3.3321-3.489-0.8828v-0.7187l4.227 1.2265v0.4844l-0.738-0.1094zm-3.489 0.9336 3.418-1.0625 0.809-0.1211v0.461l-3.543 1.1367-0.684 0.0937v-0.5078z" fill="black" fill-opacity=".54"/>
 <path d="m171 96.987v0.7227h-4.672c-0.305 0-0.561-0.0547-0.769-0.1641-0.211-0.112-0.37-0.2721-0.477-0.4805-0.109-0.2083-0.164-0.4557-0.164-0.7421 0-0.0834 5e-3 -0.1667 0.016-0.25 0.01-0.086 0.026-0.1693 0.046-0.25l0.59 0.039c-0.013 0.0547-0.022 0.1172-0.027 0.1875-5e-3 0.0677-8e-3 0.1354-8e-3 0.2031 0 0.1537 0.031 0.2865 0.094 0.3985 0.06 0.1094 0.148 0.1927 0.266 0.25 0.117 0.0573 0.261 0.0859 0.433 0.0859h4.672zm-4.227-0.8984h0.555v2.289h-0.555v-2.289z" fill="black" fill-opacity=".54"/>
 <path d="m170.28 100.17h-2.175c-0.167 0-0.312 0.034-0.434 0.102-0.125 0.065-0.221 0.164-0.289 0.297s-0.102 0.297-0.102 0.492c0 0.182 0.032 0.342 0.094 0.48 0.063 0.136 0.145 0.243 0.246 0.321 0.102 0.075 0.211 0.113 0.328 0.113v0.723c-0.151 0-0.3-0.039-0.449-0.118-0.148-0.078-0.282-0.19-0.402-0.335-0.123-0.149-0.219-0.326-0.289-0.532-0.073-0.208-0.11-0.44-0.11-0.695 0-0.307 0.052-0.578 0.157-0.813 0.104-0.2365 0.261-0.4214 0.472-0.5542 0.209-0.1354 0.47-0.2031 0.785-0.2031h1.969c0.141 0 0.29-0.0118 0.449-0.0352 0.159-0.026 0.296-0.0638 0.41-0.1133h0.063v0.7538c-0.083 0.037-0.194 0.065-0.332 0.086-0.141 0.021-0.271 0.031-0.391 0.031zm-1.84-0.125 0.508-7e-3v0.73c0 0.206 0.017 0.389 0.051 0.551 0.031 0.161 0.08 0.297 0.145 0.406s0.147 0.193 0.246 0.25c0.096 0.057 0.209 0.086 0.34 0.086 0.132 0 0.253-0.03 0.363-0.09 0.109-0.06 0.196-0.15 0.262-0.269 0.062-0.123 0.093-0.273 0.093-0.45 0-0.221-0.047-0.416-0.14-0.586-0.094-0.169-0.209-0.303-0.344-0.402-0.135-0.101-0.267-0.156-0.395-0.164l0.348-0.3086c0.109 0.0182 0.231 0.0677 0.363 0.1484 0.133 0.0812 0.261 0.1892 0.383 0.3242 0.12 0.133 0.22 0.292 0.301 0.477 0.078 0.182 0.117 0.388 0.117 0.617 0 0.286-0.056 0.538-0.168 0.754-0.112 0.213-0.262 0.38-0.449 0.5-0.19 0.117-0.402 0.176-0.637 0.176-0.226 0-0.426-0.045-0.597-0.133-0.175-0.089-0.319-0.216-0.434-0.383-0.117-0.167-0.206-0.367-0.266-0.602-0.06-0.234-0.09-0.496-0.09-0.785v-0.84z" fill="black" fill-opacity=".54"/>
 <path d="m171.08 105.4c0 0.294-0.049 0.561-0.148 0.801-0.102 0.237-0.244 0.441-0.426 0.613-0.182 0.169-0.399 0.299-0.649 0.39-0.25 0.092-0.523 0.137-0.82 0.137h-0.164c-0.344 0-0.65-0.051-0.918-0.152-0.271-0.102-0.5-0.24-0.687-0.414-0.188-0.175-0.33-0.373-0.426-0.594-0.097-0.221-0.145-0.45-0.145-0.687 0-0.303 0.052-0.563 0.157-0.782 0.104-0.221 0.25-0.402 0.437-0.543 0.185-0.14 0.404-0.244 0.656-0.312 0.25-0.068 0.524-0.102 0.821-0.102h0.324v3.157h-0.59v-2.434h-0.055c-0.187 0.01-0.369 0.049-0.547 0.117-0.177 0.065-0.322 0.169-0.437 0.313-0.115 0.143-0.172 0.338-0.172 0.586 0 0.164 0.035 0.315 0.106 0.453 0.067 0.138 0.169 0.256 0.304 0.355 0.136 0.099 0.301 0.176 0.496 0.231 0.196 0.054 0.421 0.082 0.676 0.082h0.164c0.201 0 0.389-0.028 0.567-0.082 0.174-0.058 0.328-0.14 0.46-0.246 0.133-0.11 0.237-0.241 0.313-0.395 0.076-0.156 0.113-0.333 0.113-0.531 0-0.255-0.052-0.472-0.156-0.649s-0.243-0.332-0.418-0.465l0.348-0.437c0.138 0.091 0.269 0.207 0.394 0.348 0.125 0.14 0.227 0.313 0.305 0.519 0.078 0.203 0.117 0.444 0.117 0.723z" fill="black" fill-opacity=".54"/>
 <path d="m170.39 108.16h0.613v2.843h-0.613v-2.843zm-5.075 2.695h5.688v0.754h-5.688v-0.754z" fill="black" fill-opacity=".54"/>
 <path d="m170.26 118.02v-0.079c0-0.359-0.047-0.658-0.141-0.898-0.096-0.242-0.229-0.435-0.398-0.578-0.17-0.143-0.369-0.246-0.598-0.309-0.229-0.062-0.478-0.093-0.746-0.093h-0.98c-0.232 0-0.435 0.024-0.61 0.074-0.177 0.047-0.324 0.114-0.441 0.203-0.12 0.086-0.21 0.186-0.27 0.301-0.06 0.112-0.09 0.233-0.09 0.363 0 0.143 0.033 0.272 0.098 0.387 0.063 0.112 0.15 0.207 0.262 0.285 0.109 0.075 0.238 0.134 0.386 0.176 0.146 0.039 0.303 0.058 0.469 0.058 0.156 0 0.308-0.018 0.453-0.054 0.144-0.04 0.271-0.097 0.383-0.172 0.112-0.076 0.201-0.171 0.266-0.285 0.065-0.115 0.097-0.249 0.097-0.403 0-0.146-0.027-0.28-0.082-0.402-0.057-0.123-0.134-0.229-0.23-0.32-0.096-0.092-0.204-0.163-0.324-0.215s-0.242-0.081-0.367-0.086l0.109-0.36c0.198 0 0.393 0.042 0.586 0.125 0.19 0.081 0.364 0.194 0.523 0.34 0.157 0.143 0.282 0.311 0.375 0.504 0.094 0.19 0.141 0.397 0.141 0.621 0 0.271-0.051 0.511-0.152 0.719-0.105 0.206-0.245 0.378-0.422 0.516-0.177 0.135-0.381 0.237-0.61 0.304-0.229 0.068-0.47 0.102-0.722 0.102-0.274 0-0.53-0.042-0.77-0.125-0.239-0.083-0.45-0.205-0.633-0.363-0.185-0.159-0.328-0.352-0.429-0.579-0.105-0.229-0.157-0.488-0.157-0.777 0-0.307 0.06-0.577 0.18-0.809 0.12-0.231 0.285-0.427 0.496-0.585 0.211-0.159 0.456-0.279 0.735-0.36 0.278-0.081 0.578-0.121 0.898-0.121h0.332c0.336 0 0.66 0.03 0.973 0.09 0.31 0.06 0.597 0.157 0.863 0.293 0.263 0.133 0.495 0.308 0.695 0.527 0.198 0.216 0.353 0.482 0.465 0.797 0.109 0.313 0.164 0.68 0.164 1.102v0.086h-0.777z" fill="black" fill-opacity=".87"/>
 <path d="m165.31 119.79h0.516l5.172 2.273v0.993l-4.938-2.27v2.945h-0.75v-3.941z" fill="black" fill-opacity=".87"/>
 <path d="m90.562 80.62-3.7891-1.1758v-0.7734l4.8789 1.6953c0.1042 0.0391 0.2162 0.0912 0.336 0.1563 0.1224 0.0625 0.2383 0.1432 0.3476 0.2422 0.1094 0.0989 0.198 0.2187 0.2657 0.3593 0.0703 0.1381 0.1054 0.3034 0.1054 0.4961 0 0.0573-0.0078 0.1302-0.0234 0.2188-0.0156 0.0885-0.0287 0.151-0.0391 0.1875l-0.5859 0.0039c0.0026-0.0208 0.0052-0.0534 0.0078-0.0977 0.0052-0.0468 0.0078-0.0794 0.0078-0.0976 0-0.1641-0.0221-0.3034-0.0664-0.418-0.0417-0.1146-0.1133-0.2109-0.2148-0.2891-0.099-0.0807-0.2357-0.1497-0.4102-0.207l-0.8203-0.3008zm-3.7891 0.8633 3.2813-1.0976 0.7617-0.1875 0.2656 0.5195-4.3086 1.5547v-0.7891z" fill="black" fill-opacity=".54"/>
 <path d="m86.773 82.905h0.5547v2.2851h-0.5547v-2.2851zm-1.0273 1.5117v-0.7227h4.207c0.1433 0 0.2513-0.0221 0.3242-0.0664 0.073-0.0442 0.1211-0.1015 0.1446-0.1718 0.0234-0.0703 0.0351-0.1459 0.0351-0.2266 0-0.0599-0.0052-0.1224-0.0156-0.1875-0.013-0.0677-0.0234-0.1185-0.0312-0.1523l0.5898-0.0039c0.0182 0.0572 0.0352 0.1328 0.0508 0.2265 0.0182 0.0912 0.0273 0.2018 0.0273 0.332 0 0.1771-0.0351 0.3399-0.1054 0.4883-0.0704 0.1485-0.1875 0.267-0.3516 0.3555-0.1667 0.0859-0.3906 0.1289-0.6719 0.1289h-4.2031z" fill="black" fill-opacity=".54"/>
 <path d="m86.773 86.084h4.2266v0.7265h-4.2266v-0.7265zm-1.1211 0.7812c-0.1171 0-0.2161-0.0351-0.2968-0.1054-0.0808-0.073-0.1211-0.1797-0.1211-0.3204 0-0.138 0.0403-0.2434 0.1211-0.3164 0.0807-0.0755 0.1797-0.1132 0.2968-0.1132 0.112 0 0.2084 0.0377 0.2891 0.1132 0.0781 0.073 0.1172 0.1784 0.1172 0.3164 0 0.1407-0.0391 0.2474-0.1172 0.3204-0.0807 0.0703-0.1771 0.1054-0.2891 0.1054z" fill="black" fill-opacity=".54"/>
 <path d="m90.18 88.971h-5.1797v-0.7266h6v0.6641l-0.8203 0.0625zm-1.2461 2.8437h-0.082c-0.323 0-0.6159-0.039-0.8789-0.1171-0.2657-0.0808-0.4935-0.1941-0.6836-0.3399-0.1901-0.1484-0.336-0.3242-0.4375-0.5273-0.1042-0.2058-0.1563-0.4349-0.1563-0.6875 0-0.2657 0.0469-0.4974 0.1406-0.6953 0.0912-0.2006 0.2253-0.3698 0.4024-0.5079 0.1745-0.1406 0.3854-0.2513 0.6328-0.332s0.5273-0.1367 0.8398-0.168h0.3594c0.3099 0.0287 0.5886 0.0847 0.8359 0.168 0.2474 0.0807 0.4584 0.1914 0.6329 0.332 0.1744 0.1381 0.3086 0.3073 0.4023 0.5079 0.0912 0.2005 0.1367 0.4348 0.1367 0.7031 0 0.2474-0.0534 0.4739-0.1601 0.6797-0.1068 0.2031-0.2565 0.3789-0.4493 0.5273-0.1927 0.1458-0.4192 0.2591-0.6796 0.3399-0.2631 0.0781-0.5482 0.1171-0.8555 0.1171zm-0.082-0.7265h0.082c0.2109 0 0.4088-0.0209 0.5937-0.0625 0.1849-0.0443 0.3477-0.112 0.4883-0.2031 0.1406-0.0912 0.2513-0.2071 0.3321-0.3477 0.0781-0.1406 0.1171-0.3086 0.1171-0.5039 0-0.2396-0.0507-0.4362-0.1523-0.5899-0.1016-0.1562-0.2357-0.2812-0.4023-0.375-0.1667-0.0937-0.3477-0.1666-0.543-0.2187h-0.9414c-0.1432 0.0312-0.2813 0.0768-0.4141 0.1367-0.1354 0.0573-0.2552 0.1328-0.3594 0.2266-0.1067 0.0911-0.1914 0.2044-0.2539 0.3398-0.0625 0.1328-0.0937 0.2904-0.0937 0.4727 0 0.1979 0.0417 0.3685 0.125 0.5117 0.0807 0.1406 0.1927 0.2565 0.3359 0.3477 0.1406 0.0911 0.3047 0.1588 0.4922 0.2031 0.1849 0.0416 0.3828 0.0625 0.5938 0.0625z" fill="black" fill-opacity=".54"/>
 <path d="m86.773 93.045h4.2266v0.7266h-4.2266v-0.7266zm-1.1211 0.7813c-0.1171 0-0.2161-0.0352-0.2968-0.1055-0.0808-0.0729-0.1211-0.1797-0.1211-0.3203 0-0.138 0.0403-0.2435 0.1211-0.3164 0.0807-0.0755 0.1797-0.1133 0.2968-0.1133 0.112 0 0.2084 0.0378 0.2891 0.1133 0.0781 0.0729 0.1172 0.1784 0.1172 0.3164 0 0.1406-0.0391 0.2474-0.1172 0.3203-0.0807 0.0703-0.1771 0.1055-0.2891 0.1055z" fill="black" fill-opacity=".54"/>
 <path d="m87.613 100.38h3.3867v0.727h-4.2266v-0.687l0.8399-0.04zm1.1133 0.149-0.0118 0.336c-0.289-3e-3 -0.5559-0.041-0.8007-0.113-0.2474-0.073-0.4623-0.181-0.6446-0.325-0.1823-0.143-0.3229-0.321-0.4218-0.5348-0.1016-0.2136-0.1524-0.461-0.1524-0.7422 0-0.1979 0.0287-0.3802 0.0859-0.5469 0.0547-0.1667 0.142-0.3112 0.2618-0.4336s0.2734-0.2174 0.4609-0.2852c0.1875-0.0677 0.4141-0.1015 0.6797-0.1015h2.8164v0.7226h-2.7813c-0.2213 0-0.3984 0.0378-0.5312 0.1133-0.1328 0.0729-0.2292 0.1771-0.2891 0.3125-0.0625 0.1354-0.0937 0.2943-0.0937 0.4766 0 0.2135 0.0377 0.3919 0.1133 0.5351 0.0755 0.1431 0.1797 0.2581 0.3125 0.3441s0.2851 0.148 0.457 0.187c0.1693 0.037 0.349 0.055 0.5391 0.055zm-0.3985-2.7384 0.1485 0.4844c-0.2318-0.0026-0.4545-0.0404-0.668-0.1133-0.2135-0.0755-0.4037-0.1836-0.5703-0.3242-0.1667-0.1433-0.2982-0.319-0.3946-0.5274-0.0989-0.2083-0.1484-0.4466-0.1484-0.7148 0-0.2266 0.03-0.4271 0.0899-0.6016 0.0599-0.1771 0.1523-0.3255 0.2773-0.4453 0.1224-0.1224 0.2799-0.2148 0.4727-0.2773 0.1927-0.0625 0.4218-0.0938 0.6875-0.0938h2.7773v0.7266h-2.7852c-0.2369 0-0.4205 0.0377-0.5507 0.1133-0.1329 0.0729-0.2253 0.177-0.2774 0.3125-0.0547 0.1328-0.082 0.2916-0.082 0.4765 0 0.1589 0.0273 0.2995 0.082 0.4219s0.1302 0.2253 0.2266 0.3086c0.0937 0.0833 0.2018 0.1471 0.3242 0.1914 0.1224 0.0417 0.2526 0.0625 0.3906 0.0625z" fill="black" fill-opacity=".54"/>
 <path d="m90.023 103.17h-3.25v-0.726h4.2266v0.691l-0.9766 0.035zm-0.8906-0.136-0.0078-0.301c0.2812 0 0.5417 0.03 0.7812 0.09 0.237 0.057 0.4428 0.151 0.6172 0.281 0.1745 0.13 0.3112 0.301 0.4102 0.512 0.0963 0.211 0.1445 0.467 0.1445 0.769 0 0.206-0.0299 0.395-0.0898 0.567-0.0599 0.169-0.1524 0.315-0.2774 0.437s-0.2877 0.218-0.4882 0.285c-0.2006 0.065-0.4415 0.098-0.7227 0.098h-2.7266v-0.723h2.7344c0.1901 0 0.3477-0.021 0.4727-0.062 0.1224-0.045 0.22-0.103 0.2929-0.176 0.0703-0.076 0.1198-0.159 0.1485-0.25 0.0286-0.094 0.0429-0.19 0.0429-0.289 0-0.307-0.0586-0.551-0.1757-0.731-0.1198-0.179-0.28-0.308-0.4805-0.386-0.2031-0.081-0.4284-0.121-0.6758-0.121z" fill="black" fill-opacity=".54"/>
 <path d="m87.758 107.9h0.6133v3.078h-0.6133v-3.078zm-2.4453 2.961h5.6875v0.754h-5.6875v-0.754zm0-3.617h5.6875v0.75h-5.6875v-0.75z" fill="black" fill-opacity=".54"/>
 <path d="m87.68 115.07h0.9297c0.4453 0 0.8255 0.045 1.1406 0.133 0.3125 0.086 0.5664 0.211 0.7617 0.375s0.3386 0.361 0.4297 0.59c0.0912 0.227 0.1367 0.481 0.1367 0.762 0 0.224-0.0286 0.432-0.0859 0.625-0.0573 0.19-0.1471 0.362-0.2695 0.515-0.1224 0.154-0.28 0.286-0.4727 0.395-0.1953 0.107-0.4284 0.19-0.6992 0.25-0.2709 0.057-0.5847 0.086-0.9414 0.086h-0.9297c-0.4479 0-0.8255-0.044-1.1328-0.133-0.3099-0.088-0.5612-0.215-0.7539-0.379-0.1953-0.164-0.3373-0.359-0.4258-0.586-0.0886-0.229-0.1328-0.484-0.1328-0.765 0-0.227 0.0286-0.435 0.0859-0.625 0.0547-0.193 0.1419-0.365 0.2617-0.516 0.1198-0.154 0.2761-0.284 0.4688-0.391 0.1901-0.109 0.4206-0.192 0.6914-0.25 0.2682-0.057 0.5807-0.086 0.9375-0.086zm1.0625 0.942h-1.2031c-0.2266 0-0.4258 0.013-0.5977 0.039-0.1745 0.026-0.3216 0.065-0.4414 0.117-0.1224 0.05-0.2214 0.112-0.2969 0.188-0.0781 0.075-0.1341 0.161-0.1679 0.257-0.0365 0.097-0.0547 0.205-0.0547 0.325 0 0.145 0.0286 0.276 0.0859 0.39 0.0547 0.115 0.1432 0.211 0.2656 0.289s0.2839 0.138 0.4844 0.18c0.1979 0.039 0.4388 0.059 0.7227 0.059h1.2031c0.2292 0 0.431-0.013 0.6055-0.04 0.1744-0.026 0.3242-0.065 0.4492-0.117 0.1224-0.052 0.2239-0.114 0.3047-0.187 0.0781-0.076 0.1354-0.162 0.1718-0.258 0.0365-0.099 0.0547-0.207 0.0547-0.324 0-0.149-0.0286-0.28-0.0859-0.395-0.0573-0.114-0.1485-0.211-0.2735-0.289-0.1276-0.078-0.2929-0.137-0.496-0.176-0.2032-0.039-0.4467-0.058-0.7305-0.058z" fill="black" fill-opacity=".87"/>
 <path d="m88.356 122.58-0.1836 0.75-2.8594-0.309v-3.066h0.7969v2.285l1.3945 0.156c-0.0521-0.088-0.1029-0.211-0.1523-0.367-0.0521-0.156-0.0782-0.334-0.0782-0.535 0-0.268 0.0443-0.508 0.1328-0.719 0.086-0.213 0.2123-0.394 0.379-0.543 0.164-0.148 0.3645-0.261 0.6015-0.339 0.2344-0.079 0.4987-0.118 0.793-0.118 0.263 0 0.5091 0.039 0.7383 0.118 0.2291 0.075 0.431 0.19 0.6054 0.343 0.1745 0.154 0.3112 0.348 0.4102 0.582 0.0963 0.232 0.1445 0.507 0.1445 0.825 0 0.237-0.0338 0.464-0.1015 0.683-0.0704 0.216-0.1732 0.41-0.3086 0.582-0.1381 0.172-0.3073 0.31-0.5078 0.414-0.2032 0.104-0.4362 0.164-0.6993 0.18v-0.922c0.1849-0.023 0.3425-0.074 0.4727-0.152 0.1276-0.081 0.2253-0.188 0.293-0.321 0.0677-0.132 0.1015-0.286 0.1015-0.461 0-0.158-0.0273-0.295-0.082-0.41-0.0573-0.114-0.138-0.209-0.2422-0.285-0.1068-0.078-0.2318-0.135-0.375-0.172-0.1432-0.039-0.3021-0.058-0.4766-0.058-0.1666 0-0.319 0.022-0.457 0.066-0.138 0.042-0.2578 0.106-0.3594 0.191-0.1015 0.084-0.1797 0.189-0.2343 0.317-0.0573 0.127-0.086 0.275-0.086 0.441 0 0.224 0.0326 0.396 0.0977 0.516 0.0651 0.117 0.1458 0.226 0.2422 0.328z" fill="black" fill-opacity=".87"/>
 <path d="m193.56 80.512-3.789-1.1758v-0.7734l4.879 1.6953c0.105 0.0391 0.216 0.0912 0.336 0.1563 0.123 0.0625 0.239 0.1432 0.348 0.2421 0.109 0.099 0.198 0.2188 0.266 0.3594 0.07 0.138 0.105 0.3034 0.105 0.4961 0 0.0573-8e-3 0.1302-0.023 0.2188-0.016 0.0885-0.029 0.151-0.039 0.1875l-0.586 0.0039c2e-3 -0.0209 5e-3 -0.0534 7e-3 -0.0977 6e-3 -0.0469 8e-3 -0.0794 8e-3 -0.0976 0-0.1641-0.022-0.3034-0.066-0.418-0.042-0.1146-0.113-0.2109-0.215-0.2891-0.099-0.0807-0.236-0.1497-0.41-0.207l-0.821-0.3008zm-3.789 0.8633 3.282-1.0977 0.761-0.1875 0.266 0.5196-4.309 1.5547v-0.7891z" fill="black" fill-opacity=".54"/>
 <path d="m189.77 82.797h0.555v2.2851h-0.555v-2.2851zm-1.027 1.5117v-0.7227h4.207c0.143 0 0.251-0.0221 0.324-0.0664 0.073-0.0442 0.121-0.1015 0.145-0.1718 0.023-0.0704 0.035-0.1459 0.035-0.2266 0-0.0599-5e-3 -0.1224-0.016-0.1875-0.013-0.0677-0.023-0.1185-0.031-0.1524l0.59-0.0039c0.018 0.0573 0.035 0.1329 0.051 0.2266 0.018 0.0912 0.027 0.2018 0.027 0.332 0 0.1771-0.035 0.3399-0.105 0.4883-0.071 0.1485-0.188 0.2669-0.352 0.3555-0.167 0.0859-0.391 0.1289-0.672 0.1289h-4.203z" fill="black" fill-opacity=".54"/>
 <path d="m189.77 85.977h4.227v0.7265h-4.227v-0.7265zm-1.121 0.7812c-0.117 0-0.216-0.0351-0.297-0.1055-0.08-0.0729-0.121-0.1796-0.121-0.3203 0-0.138 0.041-0.2435 0.121-0.3164 0.081-0.0755 0.18-0.1133 0.297-0.1133 0.112 0 0.209 0.0378 0.289 0.1133 0.079 0.0729 0.118 0.1784 0.118 0.3164 0 0.1407-0.039 0.2474-0.118 0.3203-0.08 0.0704-0.177 0.1055-0.289 0.1055z" fill="black" fill-opacity=".54"/>
 <path d="m193.18 88.863h-5.18v-0.7266h6v0.6641l-0.82 0.0625zm-1.246 2.8437h-0.082c-0.323 0-0.616-0.039-0.879-0.1172-0.266-0.0807-0.494-0.194-0.684-0.3398-0.19-0.1484-0.336-0.3242-0.437-0.5273-0.105-0.2058-0.157-0.4349-0.157-0.6875 0-0.2657 0.047-0.4974 0.141-0.6954 0.091-0.2005 0.225-0.3697 0.402-0.5078 0.175-0.1406 0.386-0.2513 0.633-0.332s0.527-0.1367 0.84-0.168h0.359c0.31 0.0287 0.589 0.0847 0.836 0.168 0.248 0.0807 0.459 0.1914 0.633 0.332 0.175 0.1381 0.309 0.3073 0.402 0.5078 0.092 0.2006 0.137 0.4349 0.137 0.7032 0 0.2474-0.053 0.4739-0.16 0.6797-0.107 0.2031-0.257 0.3789-0.449 0.5273-0.193 0.1458-0.42 0.2591-0.68 0.3398-0.263 0.0782-0.548 0.1172-0.855 0.1172zm-0.082-0.7265h0.082c0.211 0 0.408-0.0209 0.593-0.0625 0.185-0.0443 0.348-0.112 0.489-0.2032 0.14-0.0911 0.251-0.207 0.332-0.3476 0.078-0.1406 0.117-0.3086 0.117-0.5039 0-0.2396-0.051-0.4362-0.153-0.5899-0.101-0.1562-0.235-0.2812-0.402-0.375-0.167-0.0937-0.348-0.1666-0.543-0.2187h-0.941c-0.143 0.0312-0.281 0.0768-0.414 0.1367-0.136 0.0573-0.255 0.1328-0.36 0.2266-0.106 0.0911-0.191 0.2044-0.254 0.3398-0.062 0.1328-0.093 0.2904-0.093 0.4727 0 0.1979 0.041 0.3685 0.125 0.5117 0.08 0.1406 0.192 0.2565 0.336 0.3476 0.14 0.0912 0.304 0.1589 0.492 0.2032 0.185 0.0416 0.383 0.0625 0.594 0.0625z" fill="black" fill-opacity=".54"/>
 <path d="m189.77 92.938h4.227v0.7266h-4.227v-0.7266zm-1.121 0.7812c-0.117 0-0.216-0.0351-0.297-0.1054-0.08-0.0729-0.121-0.1797-0.121-0.3203 0-0.1381 0.041-0.2435 0.121-0.3164 0.081-0.0756 0.18-0.1133 0.297-0.1133 0.112 0 0.209 0.0377 0.289 0.1133 0.079 0.0729 0.118 0.1783 0.118 0.3164 0 0.1406-0.039 0.2474-0.118 0.3203-0.08 0.0703-0.177 0.1054-0.289 0.1054z" fill="black" fill-opacity=".54"/>
 <path d="m190.61 100.27h3.387v0.726h-4.227v-0.687l0.84-0.039zm1.114 0.148-0.012 0.336c-0.289-3e-3 -0.556-0.04-0.801-0.113-0.247-0.073-0.462-0.181-0.644-0.325-0.183-0.143-0.323-0.3212-0.422-0.5348-0.102-0.2135-0.153-0.4609-0.153-0.7421 0-0.198 0.029-0.3802 0.086-0.5469 0.055-0.1667 0.142-0.3112 0.262-0.4336s0.273-0.2175 0.461-0.2852c0.187-0.0677 0.414-0.1015 0.68-0.1015h2.816v0.7226h-2.781c-0.222 0-0.399 0.0378-0.532 0.1133-0.132 0.0729-0.229 0.1771-0.289 0.3125-0.062 0.1354-0.093 0.2943-0.093 0.4766 0 0.2135 0.037 0.3919 0.113 0.5351 0.075 0.1433 0.18 0.258 0.312 0.344 0.133 0.086 0.286 0.148 0.457 0.187 0.17 0.037 0.349 0.055 0.54 0.055zm-0.399-2.7383 0.149 0.4844c-0.232-0.0026-0.455-0.0404-0.668-0.1133-0.214-0.0755-0.404-0.1836-0.571-0.3242-0.166-0.1433-0.298-0.319-0.394-0.5274-0.099-0.2083-0.149-0.4466-0.149-0.7148 0-0.2266 0.03-0.4271 0.09-0.6016 0.06-0.1771 0.152-0.3255 0.277-0.4453 0.123-0.1224 0.28-0.2148 0.473-0.2773s0.422-0.0938 0.688-0.0938h2.777v0.7266h-2.785c-0.237 0-0.421 0.0377-0.551 0.1132-0.133 0.073-0.225 0.1771-0.277 0.3125-0.055 0.1329-0.082 0.2917-0.082 0.4766 0 0.1589 0.027 0.2995 0.082 0.4219 0.054 0.1224 0.13 0.2252 0.226 0.3086 0.094 0.0833 0.202 0.1471 0.324 0.1914 0.123 0.0417 0.253 0.0625 0.391 0.0625z" fill="black" fill-opacity=".54"/>
 <path d="m193.02 103.07h-3.25v-0.726h4.227v0.691l-0.977 0.035zm-0.89-0.136-8e-3 -0.301c0.281 0 0.542 0.03 0.781 0.09 0.237 0.057 0.443 0.151 0.617 0.281 0.175 0.13 0.312 0.301 0.411 0.512 0.096 0.211 0.144 0.467 0.144 0.769 0 0.206-0.03 0.395-0.09 0.567-0.06 0.169-0.152 0.315-0.277 0.437-0.125 0.123-0.288 0.218-0.488 0.285-0.201 0.065-0.442 0.098-0.723 0.098h-2.727v-0.723h2.735c0.19 0 0.347-0.021 0.472-0.062 0.123-0.044 0.221-0.103 0.293-0.176 0.071-0.075 0.12-0.159 0.149-0.25 0.029-0.094 0.043-0.19 0.043-0.289 0-0.307-0.059-0.551-0.176-0.731-0.12-0.179-0.28-0.308-0.48-0.386-0.204-0.081-0.429-0.121-0.676-0.121z" fill="black" fill-opacity=".54"/>
 <path d="m190.76 107.79h0.613v3.078h-0.613v-3.078zm-2.446 2.961h5.688v0.754h-5.688v-0.754zm0-3.617h5.688v0.75h-5.688v-0.75z" fill="black" fill-opacity=".54"/>
 <path d="m188.29 116.2h5.707v0.942h-4.59l0.473 1.394h-0.778l-0.812-2.223v-0.113z" fill="black" fill-opacity=".87"/>
 <path d="m188.28 120.73v-0.118h0.77v0.067c0 0.336 0.052 0.626 0.156 0.871 0.104 0.242 0.248 0.441 0.43 0.598 0.182 0.156 0.396 0.273 0.64 0.351 0.243 0.076 0.5 0.113 0.774 0.113h0.894c0.227 0 0.427-0.024 0.602-0.074 0.172-0.049 0.316-0.118 0.434-0.207 0.114-0.091 0.201-0.195 0.261-0.312 0.06-0.118 0.09-0.244 0.09-0.379 0-0.141-0.029-0.269-0.086-0.383-0.06-0.115-0.142-0.212-0.246-0.293s-0.228-0.142-0.371-0.184c-0.143-0.041-0.299-0.062-0.469-0.062-0.161 0-0.312 0.021-0.453 0.062-0.143 0.039-0.268 0.098-0.375 0.176-0.109 0.078-0.194 0.176-0.254 0.293-0.062 0.115-0.094 0.247-0.094 0.399 0 0.187 0.045 0.358 0.133 0.511 0.089 0.151 0.205 0.274 0.348 0.367 0.141 0.092 0.29 0.141 0.449 0.149l-0.117 0.359c-0.242-0.021-0.46-0.074-0.652-0.16-0.193-0.088-0.357-0.204-0.493-0.348-0.135-0.143-0.238-0.308-0.308-0.496-0.073-0.19-0.11-0.398-0.11-0.625 0-0.276 0.053-0.515 0.157-0.718 0.104-0.204 0.246-0.372 0.425-0.504 0.178-0.136 0.381-0.236 0.61-0.301 0.226-0.068 0.463-0.102 0.711-0.102 0.273 0 0.528 0.042 0.765 0.125 0.235 0.084 0.441 0.206 0.618 0.368 0.177 0.158 0.315 0.352 0.414 0.582 0.099 0.226 0.148 0.484 0.148 0.773 0 0.305-0.058 0.577-0.176 0.816-0.117 0.237-0.278 0.439-0.484 0.606-0.206 0.164-0.443 0.289-0.711 0.375s-0.552 0.129-0.852 0.129h-0.39c-0.432 0-0.84-0.055-1.223-0.164-0.385-0.11-0.725-0.278-1.019-0.504-0.295-0.229-0.525-0.522-0.692-0.879-0.169-0.357-0.254-0.783-0.254-1.277z" fill="black" fill-opacity=".87"/>
 <path d="m115.08 80.928c0 0.2943-0.049 0.5612-0.148 0.8008-0.102 0.237-0.244 0.4414-0.426 0.6133-0.182 0.1693-0.399 0.2995-0.649 0.3906-0.25 0.0912-0.523 0.1367-0.82 0.1367h-0.164c-0.344 0-0.65-0.0508-0.918-0.1523-0.271-0.1016-0.5-0.2396-0.687-0.4141-0.188-0.1745-0.33-0.3724-0.426-0.5937-0.097-0.2214-0.145-0.4505-0.145-0.6875 0-0.3021 0.052-0.5625 0.157-0.7813 0.104-0.2213 0.25-0.4023 0.437-0.5429 0.185-0.1407 0.404-0.2448 0.656-0.3125 0.25-0.0678 0.524-0.1016 0.821-0.1016h0.324v3.1562h-0.59v-2.4336h-0.055c-0.187 0.0105-0.369 0.0495-0.547 0.1172-0.177 0.0651-0.322 0.1693-0.437 0.3125-0.115 0.1433-0.172 0.3386-0.172 0.586 0 0.164 0.035 0.3151 0.106 0.4531 0.067 0.138 0.169 0.2565 0.304 0.3555 0.136 0.0989 0.301 0.1757 0.496 0.2304 0.196 0.0547 0.421 0.0821 0.676 0.0821h0.164c0.201 0 0.389-0.0274 0.567-0.0821 0.174-0.0573 0.328-0.1393 0.46-0.2461 0.133-0.1093 0.237-0.2408 0.313-0.3945 0.076-0.1562 0.113-0.3333 0.113-0.5312 0-0.2552-0.052-0.4714-0.156-0.6485s-0.243-0.332-0.418-0.4648l0.348-0.4375c0.138 0.0911 0.269 0.207 0.394 0.3476 0.125 0.1407 0.227 0.3138 0.305 0.5196 0.078 0.2031 0.117 0.444 0.117 0.7226z" fill="black" fill-opacity=".54"/>
 <path d="m111.44 84.842h3.563v0.7226h-4.227v-0.7031l0.664-0.0195zm-0.687-1.3203 0.672 0.0039c-0.013 0.0599-0.021 0.1172-0.024 0.1719-5e-3 0.052-7e-3 0.1119-7e-3 0.1796 0 0.1667 0.026 0.3138 0.078 0.4414 0.052 0.1277 0.125 0.2357 0.218 0.3243 0.094 0.0885 0.206 0.1588 0.336 0.2109 0.128 0.0495 0.269 0.082 0.422 0.0977l0.117 0.2031c-0.255 0-0.494-0.0248-0.718-0.0742-0.224-0.0521-0.422-0.1315-0.594-0.2383-0.174-0.1068-0.31-0.2422-0.406-0.4063-0.099-0.1666-0.149-0.3645-0.149-0.5937 0-0.0521 7e-3 -0.112 0.02-0.1797 0.01-0.0677 0.022-0.1146 0.035-0.1406z" fill="black" fill-opacity=".54"/>
 <path d="m114.02 87.643h-3.25v-0.7266h4.227v0.6914l-0.977 0.0352zm-0.89-0.1368-8e-3 -0.3007c0.281 0 0.542 0.0299 0.781 0.0898 0.237 0.0573 0.443 0.1511 0.617 0.2813 0.175 0.1302 0.312 0.3007 0.411 0.5117 0.096 0.2109 0.144 0.4674 0.144 0.7695 0 0.2057-0.03 0.3945-0.09 0.5664-0.06 0.1693-0.152 0.3151-0.277 0.4375s-0.288 0.2175-0.488 0.2852c-0.201 0.0651-0.442 0.0976-0.723 0.0976h-2.727v-0.7226h2.735c0.19 0 0.347-0.0209 0.472-0.0625 0.123-0.0443 0.221-0.1029 0.293-0.1758 0.071-0.0755 0.12-0.1589 0.149-0.25 0.029-0.0938 0.043-0.1901 0.043-0.2891 0-0.3073-0.059-0.5508-0.176-0.7304-0.12-0.1797-0.28-0.3086-0.48-0.3868-0.204-0.0807-0.429-0.1211-0.676-0.1211z" fill="black" fill-opacity=".54"/>
 <path d="m110.77 91.327h0.555v2.2851h-0.555v-2.2851zm-1.027 1.5117v-0.7227h4.207c0.143 0 0.251-0.0221 0.324-0.0664s0.121-0.1015 0.145-0.1719c0.023-0.0703 0.035-0.1458 0.035-0.2265 0-0.0599-5e-3 -0.1224-0.016-0.1875-0.013-0.0677-0.023-0.1185-0.031-0.1524l0.59-0.0039c0.018 0.0573 0.035 0.1328 0.051 0.2266 0.018 0.0911 0.027 0.2018 0.027 0.332 0 0.1771-0.035 0.3399-0.105 0.4883-0.071 0.1484-0.188 0.2669-0.352 0.3555-0.167 0.0859-0.391 0.1289-0.672 0.1289h-4.203z" fill="black" fill-opacity=".54"/>
 <path d="m113.88 95.018c-0.104 0-0.201 0.0234-0.289 0.0703-0.091 0.0442-0.173 0.1367-0.246 0.2773-0.076 0.138-0.141 0.3464-0.196 0.625-0.049 0.2344-0.108 0.4466-0.175 0.6367-0.068 0.1875-0.15 0.3477-0.246 0.4805-0.097 0.1302-0.21 0.2305-0.34 0.3008s-0.283 0.1055-0.457 0.1055c-0.167 0-0.325-0.0365-0.473-0.1094-0.148-0.0755-0.28-0.181-0.395-0.3164-0.114-0.138-0.204-0.3034-0.269-0.4961s-0.098-0.4076-0.098-0.6445c0-0.3386 0.06-0.6277 0.18-0.8672 0.12-0.2396 0.28-0.4232 0.48-0.5508 0.198-0.1276 0.418-0.1914 0.661-0.1914v0.7226c-0.118 0-0.231 0.0352-0.34 0.1055-0.112 0.0677-0.205 0.168-0.278 0.3008-0.072 0.1302-0.109 0.2903-0.109 0.4805 0 0.2005 0.031 0.3632 0.094 0.4882 0.06 0.1224 0.137 0.2123 0.23 0.2696 0.094 0.0547 0.193 0.082 0.297 0.082 0.078 0 0.149-0.013 0.211-0.0391 0.06-0.0286 0.116-0.0781 0.168-0.1484 0.05-0.0703 0.096-0.1693 0.141-0.2969 0.044-0.1276 0.088-0.2903 0.132-0.4883 0.079-0.3463 0.172-0.6315 0.282-0.8554 0.109-0.224 0.243-0.3907 0.402-0.5 0.159-0.1094 0.352-0.1641 0.578-0.1641 0.185 0 0.354 0.0391 0.508 0.1172 0.154 0.0755 0.286 0.1862 0.398 0.332 0.11 0.1433 0.196 0.3151 0.258 0.5157 0.06 0.1979 0.09 0.4205 0.09 0.6679 0 0.3724-0.066 0.6875-0.199 0.9453s-0.305 0.4532-0.516 0.586-0.433 0.1992-0.668 0.1992v-0.7266c0.198-0.0104 0.356-0.0677 0.473-0.1718 0.115-0.1042 0.197-0.2318 0.246-0.3829 0.047-0.151 0.07-0.3007 0.07-0.4492 0-0.1979-0.026-0.3633-0.078-0.4961-0.052-0.1354-0.123-0.2383-0.215-0.3086-0.091-0.0703-0.195-0.1054-0.312-0.1054z" fill="black" fill-opacity=".54"/>
 <path d="m110.77 98.889h4.227v0.7265h-4.227v-0.7265zm-1.121 0.7812c-0.117 0-0.216-0.0351-0.297-0.1055-0.08-0.0729-0.121-0.1796-0.121-0.3203 0-0.138 0.041-0.2435 0.121-0.3164 0.081-0.0755 0.18-0.1133 0.297-0.1133 0.112 0 0.209 0.0378 0.289 0.1133 0.079 0.0729 0.118 0.1784 0.118 0.3164 0 0.1407-0.039 0.2474-0.118 0.3203-0.08 0.0704-0.177 0.1055-0.289 0.1055z" fill="black" fill-opacity=".54"/>
 <path d="m112.93 104.68h-0.09c-0.305 0-0.587-0.044-0.848-0.133-0.263-0.088-0.491-0.216-0.684-0.382-0.195-0.167-0.346-0.369-0.453-0.606-0.109-0.237-0.164-0.502-0.164-0.797 0-0.297 0.055-0.564 0.164-0.801 0.107-0.239 0.258-0.442 0.453-0.609 0.193-0.169 0.421-0.298 0.684-0.387 0.261-0.088 0.543-0.132 0.848-0.132h0.09c0.304 0 0.587 0.044 0.847 0.132 0.261 0.089 0.489 0.218 0.684 0.387 0.193 0.167 0.344 0.369 0.453 0.606 0.107 0.234 0.16 0.5 0.16 0.796 0 0.297-0.053 0.564-0.16 0.801-0.109 0.237-0.26 0.44-0.453 0.61-0.195 0.166-0.423 0.294-0.684 0.382-0.26 0.089-0.543 0.133-0.847 0.133zm-0.09-0.722h0.09c0.211 0 0.41-0.025 0.597-0.075 0.185-0.049 0.349-0.123 0.492-0.222 0.144-0.102 0.257-0.228 0.34-0.379 0.081-0.151 0.121-0.327 0.121-0.528 0-0.197-0.04-0.371-0.121-0.519-0.083-0.151-0.196-0.276-0.34-0.375-0.143-0.099-0.307-0.173-0.492-0.223-0.187-0.052-0.386-0.078-0.597-0.078h-0.09c-0.209 0-0.405 0.026-0.59 0.078-0.188 0.05-0.353 0.125-0.496 0.227-0.146 0.099-0.261 0.224-0.344 0.375-0.083 0.148-0.125 0.323-0.125 0.523 0 0.198 0.042 0.373 0.125 0.524 0.083 0.148 0.198 0.273 0.344 0.375 0.143 0.099 0.308 0.173 0.496 0.222 0.185 0.05 0.381 0.075 0.59 0.075z" fill="black" fill-opacity=".54"/>
 <path d="m109.31 111.37v-0.731l4.637-1.863-4.637-1.86v-0.734l5.688 2.313v0.57l-5.688 2.305zm0 0.238v-0.645l3.469-0.105h2.219v0.75h-5.688zm0-5.016v-0.644h5.688v0.75h-2.219l-3.469-0.106z" fill="black" fill-opacity=".54"/>
 <path d="m112.36 117.78-0.183 0.75-2.86-0.308v-3.067h0.797v2.285l1.395 0.157c-0.052-0.089-0.103-0.211-0.152-0.368-0.053-0.156-0.079-0.334-0.079-0.535 0-0.268 0.045-0.508 0.133-0.719 0.086-0.213 0.212-0.394 0.379-0.543 0.164-0.148 0.365-0.261 0.602-0.339 0.234-0.078 0.498-0.118 0.793-0.118 0.263 0 0.509 0.04 0.738 0.118 0.229 0.075 0.431 0.19 0.605 0.343 0.175 0.154 0.312 0.348 0.411 0.582 0.096 0.232 0.144 0.507 0.144 0.825 0 0.237-0.034 0.464-0.101 0.683-0.071 0.216-0.174 0.41-0.309 0.582-0.138 0.172-0.307 0.31-0.508 0.414-0.203 0.105-0.436 0.164-0.699 0.18v-0.922c0.185-0.023 0.342-0.074 0.473-0.152 0.127-0.081 0.225-0.188 0.293-0.321 0.067-0.132 0.101-0.286 0.101-0.46 0-0.159-0.027-0.296-0.082-0.411-0.057-0.114-0.138-0.209-0.242-0.285-0.107-0.078-0.232-0.135-0.375-0.172-0.143-0.039-0.302-0.058-0.477-0.058-0.166 0-0.319 0.022-0.457 0.066-0.138 0.042-0.258 0.106-0.359 0.192-0.102 0.083-0.18 0.188-0.234 0.316-0.058 0.128-0.086 0.275-0.086 0.441 0 0.224 0.032 0.396 0.097 0.516 0.065 0.117 0.146 0.227 0.242 0.328z" fill="black" fill-opacity=".87"/>
 <path d="m109.31 119.79h0.516l5.172 2.273v0.993l-4.938-2.27v2.945h-0.75v-3.941z" fill="black" fill-opacity=".87"/>
 <path d="m218.08 80.928c0 0.2943-0.049 0.5612-0.148 0.8008-0.102 0.237-0.244 0.4414-0.426 0.6133-0.182 0.1693-0.399 0.2995-0.649 0.3906-0.25 0.0912-0.523 0.1367-0.82 0.1367h-0.164c-0.344 0-0.65-0.0508-0.918-0.1523-0.271-0.1016-0.5-0.2396-0.687-0.4141-0.188-0.1745-0.33-0.3724-0.426-0.5937-0.097-0.2214-0.145-0.4505-0.145-0.6875 0-0.3021 0.052-0.5625 0.157-0.7813 0.104-0.2213 0.25-0.4023 0.437-0.5429 0.185-0.1407 0.404-0.2448 0.656-0.3125 0.25-0.0678 0.524-0.1016 0.821-0.1016h0.324v3.1562h-0.59v-2.4336h-0.055c-0.187 0.0105-0.369 0.0495-0.547 0.1172-0.177 0.0651-0.322 0.1693-0.437 0.3125-0.115 0.1433-0.172 0.3386-0.172 0.586 0 0.164 0.035 0.3151 0.106 0.4531 0.067 0.138 0.169 0.2565 0.304 0.3555 0.136 0.0989 0.301 0.1757 0.496 0.2304 0.196 0.0547 0.421 0.0821 0.676 0.0821h0.164c0.201 0 0.389-0.0274 0.567-0.0821 0.174-0.0573 0.328-0.1393 0.46-0.2461 0.133-0.1093 0.237-0.2408 0.313-0.3945 0.076-0.1562 0.113-0.3333 0.113-0.5312 0-0.2552-0.052-0.4714-0.156-0.6485s-0.243-0.332-0.418-0.4648l0.348-0.4375c0.138 0.0911 0.269 0.207 0.394 0.3476 0.125 0.1407 0.227 0.3138 0.305 0.5196 0.078 0.2031 0.117 0.444 0.117 0.7226z" fill="black" fill-opacity=".54"/>
 <path d="m214.44 84.842h3.563v0.7226h-4.227v-0.7031l0.664-0.0195zm-0.687-1.3203 0.672 0.0039c-0.013 0.0599-0.021 0.1172-0.024 0.1719-5e-3 0.052-7e-3 0.1119-7e-3 0.1796 0 0.1667 0.026 0.3138 0.078 0.4414 0.052 0.1277 0.125 0.2357 0.218 0.3243 0.094 0.0885 0.206 0.1588 0.336 0.2109 0.128 0.0495 0.269 0.082 0.422 0.0977l0.117 0.2031c-0.255 0-0.494-0.0248-0.718-0.0742-0.224-0.0521-0.422-0.1315-0.594-0.2383-0.174-0.1068-0.31-0.2422-0.406-0.4063-0.099-0.1666-0.149-0.3645-0.149-0.5937 0-0.0521 7e-3 -0.112 0.02-0.1797 0.01-0.0677 0.022-0.1146 0.035-0.1406z" fill="black" fill-opacity=".54"/>
 <path d="m217.02 87.643h-3.25v-0.7266h4.227v0.6914l-0.977 0.0352zm-0.89-0.1368-8e-3 -0.3007c0.281 0 0.542 0.0299 0.781 0.0898 0.237 0.0573 0.443 0.1511 0.617 0.2813 0.175 0.1302 0.312 0.3007 0.411 0.5117 0.096 0.2109 0.144 0.4674 0.144 0.7695 0 0.2057-0.03 0.3945-0.09 0.5664-0.06 0.1693-0.152 0.3151-0.277 0.4375s-0.288 0.2175-0.488 0.2852c-0.201 0.0651-0.442 0.0976-0.723 0.0976h-2.727v-0.7226h2.735c0.19 0 0.347-0.0209 0.472-0.0625 0.123-0.0443 0.221-0.1029 0.293-0.1758 0.071-0.0755 0.12-0.1589 0.149-0.25 0.029-0.0938 0.043-0.1901 0.043-0.2891 0-0.3073-0.059-0.5508-0.176-0.7304-0.12-0.1797-0.28-0.3086-0.48-0.3868-0.204-0.0807-0.429-0.1211-0.676-0.1211z" fill="black" fill-opacity=".54"/>
 <path d="m213.77 91.327h0.555v2.2851h-0.555v-2.2851zm-1.027 1.5117v-0.7227h4.207c0.143 0 0.251-0.0221 0.324-0.0664s0.121-0.1015 0.145-0.1719c0.023-0.0703 0.035-0.1458 0.035-0.2265 0-0.0599-5e-3 -0.1224-0.016-0.1875-0.013-0.0677-0.023-0.1185-0.031-0.1524l0.59-0.0039c0.018 0.0573 0.035 0.1328 0.051 0.2266 0.018 0.0911 0.027 0.2018 0.027 0.332 0 0.1771-0.035 0.3399-0.105 0.4883-0.071 0.1484-0.188 0.2669-0.352 0.3555-0.167 0.0859-0.391 0.1289-0.672 0.1289h-4.203z" fill="black" fill-opacity=".54"/>
 <path d="m216.88 95.018c-0.104 0-0.201 0.0234-0.289 0.0703-0.091 0.0442-0.173 0.1367-0.246 0.2773-0.076 0.138-0.141 0.3464-0.196 0.625-0.049 0.2344-0.108 0.4466-0.175 0.6367-0.068 0.1875-0.15 0.3477-0.246 0.4805-0.097 0.1302-0.21 0.2305-0.34 0.3008s-0.283 0.1055-0.457 0.1055c-0.167 0-0.325-0.0365-0.473-0.1094-0.148-0.0755-0.28-0.181-0.395-0.3164-0.114-0.138-0.204-0.3034-0.269-0.4961s-0.098-0.4076-0.098-0.6445c0-0.3386 0.06-0.6277 0.18-0.8672 0.12-0.2396 0.28-0.4232 0.48-0.5508 0.198-0.1276 0.418-0.1914 0.661-0.1914v0.7226c-0.118 0-0.231 0.0352-0.34 0.1055-0.112 0.0677-0.205 0.168-0.278 0.3008-0.072 0.1302-0.109 0.2903-0.109 0.4805 0 0.2005 0.031 0.3632 0.094 0.4882 0.06 0.1224 0.137 0.2123 0.23 0.2696 0.094 0.0547 0.193 0.082 0.297 0.082 0.078 0 0.149-0.013 0.211-0.0391 0.06-0.0286 0.116-0.0781 0.168-0.1484 0.05-0.0703 0.096-0.1693 0.141-0.2969 0.044-0.1276 0.088-0.2903 0.132-0.4883 0.079-0.3463 0.172-0.6315 0.282-0.8554 0.109-0.224 0.243-0.3907 0.402-0.5 0.159-0.1094 0.352-0.1641 0.578-0.1641 0.185 0 0.354 0.0391 0.508 0.1172 0.154 0.0755 0.286 0.1862 0.398 0.332 0.11 0.1433 0.196 0.3151 0.258 0.5157 0.06 0.1979 0.09 0.4205 0.09 0.6679 0 0.3724-0.066 0.6875-0.199 0.9453s-0.305 0.4532-0.516 0.586-0.433 0.1992-0.668 0.1992v-0.7266c0.198-0.0104 0.356-0.0677 0.473-0.1718 0.115-0.1042 0.197-0.2318 0.246-0.3829 0.047-0.151 0.07-0.3007 0.07-0.4492 0-0.1979-0.026-0.3633-0.078-0.4961-0.052-0.1354-0.123-0.2383-0.215-0.3086-0.091-0.0703-0.195-0.1054-0.312-0.1054z" fill="black" fill-opacity=".54"/>
 <path d="m213.77 98.889h4.227v0.7265h-4.227v-0.7265zm-1.121 0.7812c-0.117 0-0.216-0.0351-0.297-0.1055-0.08-0.0729-0.121-0.1796-0.121-0.3203 0-0.138 0.041-0.2435 0.121-0.3164 0.081-0.0755 0.18-0.1133 0.297-0.1133 0.112 0 0.209 0.0378 0.289 0.1133 0.079 0.0729 0.118 0.1784 0.118 0.3164 0 0.1407-0.039 0.2474-0.118 0.3203-0.08 0.0704-0.177 0.1055-0.289 0.1055z" fill="black" fill-opacity=".54"/>
 <path d="m215.93 104.68h-0.09c-0.305 0-0.587-0.044-0.848-0.133-0.263-0.088-0.491-0.216-0.684-0.382-0.195-0.167-0.346-0.369-0.453-0.606-0.109-0.237-0.164-0.502-0.164-0.797 0-0.297 0.055-0.564 0.164-0.801 0.107-0.239 0.258-0.442 0.453-0.609 0.193-0.169 0.421-0.298 0.684-0.387 0.261-0.088 0.543-0.132 0.848-0.132h0.09c0.304 0 0.587 0.044 0.847 0.132 0.261 0.089 0.489 0.218 0.684 0.387 0.193 0.167 0.344 0.369 0.453 0.606 0.107 0.234 0.16 0.5 0.16 0.796 0 0.297-0.053 0.564-0.16 0.801-0.109 0.237-0.26 0.44-0.453 0.61-0.195 0.166-0.423 0.294-0.684 0.382-0.26 0.089-0.543 0.133-0.847 0.133zm-0.09-0.722h0.09c0.211 0 0.41-0.025 0.597-0.075 0.185-0.049 0.349-0.123 0.492-0.222 0.144-0.102 0.257-0.228 0.34-0.379 0.081-0.151 0.121-0.327 0.121-0.528 0-0.197-0.04-0.371-0.121-0.519-0.083-0.151-0.196-0.276-0.34-0.375-0.143-0.099-0.307-0.173-0.492-0.223-0.187-0.052-0.386-0.078-0.597-0.078h-0.09c-0.209 0-0.405 0.026-0.59 0.078-0.188 0.05-0.353 0.125-0.496 0.227-0.146 0.099-0.261 0.224-0.344 0.375-0.083 0.148-0.125 0.323-0.125 0.523 0 0.198 0.042 0.373 0.125 0.524 0.083 0.148 0.198 0.273 0.344 0.375 0.143 0.099 0.308 0.173 0.496 0.222 0.185 0.05 0.381 0.075 0.59 0.075z" fill="black" fill-opacity=".54"/>
 <path d="m212.31 111.37v-0.731l4.637-1.863-4.637-1.86v-0.734l5.688 2.313v0.57l-5.688 2.305zm0 0.238v-0.645l3.469-0.105h2.219v0.75h-5.688zm0-5.016v-0.644h5.688v0.75h-2.219l-3.469-0.106z" fill="black" fill-opacity=".54"/>
 <path d="m212.31 115h0.516l5.172 2.274v0.992l-4.938-2.27v2.945l-0.75 1e-3v-3.942z" fill="black" fill-opacity=".87"/>
 <path d="m212.28 120.73v-0.118h0.77v0.067c0 0.336 0.052 0.626 0.156 0.871 0.104 0.242 0.248 0.441 0.43 0.598 0.182 0.156 0.396 0.273 0.64 0.351 0.243 0.076 0.5 0.113 0.774 0.113h0.894c0.227 0 0.427-0.024 0.602-0.074 0.172-0.049 0.316-0.118 0.434-0.207 0.114-0.091 0.201-0.195 0.261-0.312 0.06-0.118 0.09-0.244 0.09-0.379 0-0.141-0.029-0.269-0.086-0.383-0.06-0.115-0.142-0.212-0.246-0.293s-0.228-0.142-0.371-0.184c-0.143-0.041-0.299-0.062-0.469-0.062-0.161 0-0.312 0.021-0.453 0.062-0.143 0.039-0.268 0.098-0.375 0.176-0.109 0.078-0.194 0.176-0.254 0.293-0.062 0.115-0.094 0.247-0.094 0.399 0 0.187 0.045 0.358 0.133 0.511 0.089 0.151 0.205 0.274 0.348 0.367 0.141 0.092 0.29 0.141 0.449 0.149l-0.117 0.359c-0.242-0.021-0.46-0.074-0.652-0.16-0.193-0.088-0.357-0.204-0.493-0.348-0.135-0.143-0.238-0.308-0.308-0.496-0.073-0.19-0.11-0.398-0.11-0.625 0-0.276 0.053-0.515 0.157-0.718 0.104-0.204 0.246-0.372 0.425-0.504 0.178-0.136 0.381-0.236 0.61-0.301 0.226-0.068 0.463-0.102 0.711-0.102 0.273 0 0.528 0.042 0.765 0.125 0.235 0.084 0.441 0.206 0.618 0.368 0.177 0.158 0.315 0.352 0.414 0.582 0.099 0.226 0.148 0.484 0.148 0.773 0 0.305-0.058 0.577-0.176 0.816-0.117 0.237-0.278 0.439-0.484 0.606-0.206 0.164-0.443 0.289-0.711 0.375s-0.552 0.129-0.852 0.129h-0.39c-0.432 0-0.84-0.055-1.223-0.164-0.385-0.11-0.725-0.278-1.019-0.504-0.295-0.229-0.525-0.522-0.692-0.879-0.169-0.357-0.254-0.783-0.254-1.277z" fill="black" fill-opacity=".87"/>
</svg>
