<svg width="255" height="104" version="1.1" viewBox="0 0 255 104" xmlns="http://www.w3.org/2000/svg">
 <rect width="255" height="104" fill="white"/>
 <path d="M12 16H243V88H12V16Z" fill="black" fill-opacity=".06"/>
 <path d="m13 85v2h2.0391v1h-3.0391v-3h1zm14.197 2v1h-6.0791v-1h6.0791zm12.158 0v1h-6.0791v-1h6.0791zm12.157 0v1h-6.0781v-1h6.0781zm12.158 0v1h-6.0791v-1h6.0791zm12.158 0v1h-6.0791v-1h6.0791zm12.158 0v1h-6.0791v-1h6.0791zm12.158 0v1h-6.0796v-1h6.0796zm12.158 0v1h-6.079v-1h6.079zm12.158 0v1h-6.079v-1h6.079zm12.157 0v1h-6.079v-1h6.079zm12.158 0v1h-6.079v-1h6.079zm12.159 0v1h-6.08v-1h6.08zm12.157 0v1h-6.078v-1h6.078zm12.158 0v1h-6.079v-1h6.079zm12.158 0v1h-6.079v-1h6.079zm12.157 0v1h-6.078v-1h6.078zm12.159 0v1h-6.079v-1h6.079zm12.158 0v1h-6.079v-1h6.079zm9.118-2v3h-3.039v-1h2.039v-2h1zm-230-12v6h-1v-6h1zm230 0v6h-1v-6h1zm-230-12v6h-1v-6h1zm230 0v6h-1v-6h1zm-230-12v6h-1v-6h1zm230 0v6h-1v-6h1zm-230-12v6h-1v-6h1zm230 0v6h-1v-6h1zm-230-12v6h-1v-6h1zm230 0v6h-1v-6h1zm-227.96-9v1h-2.0391v2h-1v-3h3.0391zm227.96 0v3h-1v-2h-2.039v-1h3.039zm-215.8 0v1h-6.0791v-1h6.0791zm12.158 0v1h-6.0791v-1h6.0791zm12.157 0v1h-6.0781v-1h6.0781zm12.158 0v1h-6.0791v-1h6.0791zm12.158 0v1h-6.0791v-1h6.0791zm12.157 0v1h-6.0781v-1h6.0781zm12.159 0v1h-6.0796v-1h6.0796zm12.158 0v1h-6.079v-1h6.079zm12.158 0v1h-6.079v-1h6.079zm12.157 0v1h-6.079v-1h6.079zm12.158 0v1h-6.079v-1h6.079zm12.159 0v1h-6.08v-1h6.08zm12.157 0v1h-6.079v-1h6.079zm12.158 0v1h-6.079v-1h6.079zm12.158 0v1h-6.079v-1h6.079zm12.157 0v1h-6.078v-1h6.078zm12.159 0v1h-6.079v-1h6.079zm12.158 0v1h-6.079v-1h6.079z" fill="black" fill-opacity=".16"/>
 <path d="m96 43h-14c-1.1 0-2 0.9-2 2v14c0 1.1 0.9 2 2 2h14c1.1 0 2-0.9 2-2v-14c0-1.1-0.9-2-2-2zm0 16h-14v-14h14v14zm-12-9h2v7h-2v-7zm4-3h2v10h-2v-10zm4 6h2v4h-2v-4z" fill="black" fill-opacity=".54"/>
 <path d="m176.84 48.547v1.375h-4.766v-1.375h4.766zm-3.391-2.0703h1.883v8.1875c0 0.2604 0.036 0.4609 0.109 0.6015 0.079 0.1354 0.185 0.2266 0.321 0.2735 0.135 0.0468 0.294 0.0703 0.476 0.0703 0.13 0 0.255-0.0078 0.375-0.0235 0.12-0.0156 0.216-0.0312 0.289-0.0468l8e-3 1.4375c-0.156 0.0468-0.338 0.0885-0.547 0.125-0.203 0.0364-0.437 0.0546-0.703 0.0546-0.432 0-0.815-0.0755-1.148-0.2265-0.334-0.1563-0.594-0.4089-0.782-0.7578-0.187-0.349-0.281-0.8125-0.281-1.3907v-8.3046z" fill="black" fill-opacity=".54"/>
 <path d="m168.66 50.156v6.8438h-1.883v-8.4531h1.797l0.086 1.6093zm2.586-1.664-0.016 1.75c-0.114-0.0208-0.239-0.0365-0.375-0.0469-0.13-0.0104-0.26-0.0156-0.39-0.0156-0.323 0-0.607 0.0469-0.852 0.1406-0.245 0.0886-0.45 0.2188-0.617 0.3906-0.161 0.1667-0.286 0.3698-0.375 0.6094-0.088 0.2396-0.141 0.5078-0.156 0.8047l-0.43 0.0312c0-0.5312 0.052-1.0234 0.156-1.4765 0.105-0.4531 0.261-0.8516 0.469-1.1953 0.214-0.3438 0.479-0.612 0.797-0.8047 0.323-0.1927 0.695-0.2891 1.117-0.2891 0.115 0 0.237 0.0104 0.367 0.0313 0.136 0.0208 0.237 0.0442 0.305 0.0703z" fill="black" fill-opacity=".54"/>
 <path d="m157.18 52.867v-0.1797c0-0.6094 0.088-1.1745 0.265-1.6953 0.177-0.5261 0.433-0.9818 0.766-1.3672 0.338-0.3906 0.75-0.6927 1.234-0.9062 0.49-0.2188 1.042-0.3282 1.657-0.3282 0.619 0 1.171 0.1094 1.656 0.3282 0.489 0.2135 0.903 0.5156 1.242 0.9062 0.338 0.3854 0.596 0.8411 0.773 1.3672 0.177 0.5208 0.266 1.0859 0.266 1.6953v0.1797c0 0.6094-0.089 1.1745-0.266 1.6953s-0.435 0.9766-0.773 1.3672c-0.339 0.3854-0.75 0.6875-1.234 0.9062-0.485 0.2136-1.034 0.3203-1.649 0.3203-0.62 0-1.174-0.1067-1.664-0.3203-0.484-0.2187-0.896-0.5208-1.234-0.9062-0.339-0.3906-0.597-0.8464-0.774-1.3672s-0.265-1.0859-0.265-1.6953zm1.882-0.1797v0.1797c0 0.3802 0.04 0.7396 0.118 1.0781 0.078 0.3386 0.2 0.6354 0.367 0.8906 0.166 0.2552 0.38 0.4558 0.64 0.6016 0.261 0.1458 0.571 0.2187 0.93 0.2187 0.349 0 0.651-0.0729 0.906-0.2187 0.261-0.1458 0.474-0.3464 0.641-0.6016s0.289-0.552 0.367-0.8906c0.084-0.3385 0.125-0.6979 0.125-1.0781v-0.1797c0-0.375-0.041-0.7292-0.125-1.0625-0.078-0.3385-0.203-0.638-0.375-0.8984-0.166-0.2605-0.38-0.4636-0.64-0.6094-0.256-0.1511-0.56-0.2266-0.914-0.2266-0.355 0-0.662 0.0755-0.922 0.2266-0.256 0.1458-0.467 0.3489-0.633 0.6094-0.167 0.2604-0.289 0.5599-0.367 0.8984-0.078 0.3333-0.118 0.6875-0.118 1.0625z" fill="black" fill-opacity=".54"/>
 <path d="m150.28 50.172v10.078h-1.883v-11.703h1.735l0.148 1.625zm5.508 2.5234v0.1641c0 0.6146-0.073 1.1849-0.219 1.7109-0.14 0.5208-0.351 0.9766-0.632 1.3672-0.277 0.3854-0.618 0.6849-1.024 0.8984-0.406 0.2136-0.875 0.3203-1.406 0.3203-0.526 0-0.987-0.0963-1.383-0.289-0.391-0.1979-0.721-0.4766-0.992-0.836-0.271-0.3593-0.49-0.7812-0.656-1.2656-0.162-0.4896-0.276-1.026-0.344-1.6094v-0.6328c0.068-0.6198 0.182-1.1823 0.344-1.6875 0.166-0.5052 0.385-0.9401 0.656-1.3047 0.271-0.3645 0.601-0.6458 0.992-0.8437s0.846-0.2969 1.367-0.2969c0.531 0 1.003 0.1042 1.414 0.3125 0.412 0.2031 0.758 0.4948 1.039 0.875 0.282 0.375 0.493 0.8281 0.633 1.3594 0.141 0.526 0.211 1.112 0.211 1.7578zm-1.883 0.1641v-0.1641c0-0.3906-0.036-0.7526-0.109-1.0859-0.073-0.3386-0.188-0.6354-0.344-0.8906-0.156-0.2553-0.357-0.4532-0.601-0.5938-0.24-0.1458-0.529-0.2188-0.868-0.2188-0.333 0-0.619 0.0573-0.859 0.1719-0.24 0.1094-0.44 0.263-0.602 0.461-0.161 0.1979-0.286 0.4297-0.375 0.6953-0.088 0.2604-0.151 0.5442-0.187 0.8515v1.5157c0.062 0.375 0.169 0.7187 0.32 1.0312s0.365 0.5625 0.641 0.75c0.281 0.1823 0.64 0.2734 1.078 0.2734 0.339 0 0.628-0.0729 0.867-0.2187 0.24-0.1458 0.435-0.3464 0.586-0.6016 0.156-0.2604 0.271-0.5599 0.344-0.8984s0.109-0.6979 0.109-1.0781z" fill="black" fill-opacity=".54"/>
 <path d="m143.39 57.156c-0.625 0-1.19-0.1015-1.696-0.3046-0.5-0.2084-0.927-0.4974-1.281-0.8672-0.349-0.3698-0.617-0.8047-0.805-1.3047-0.187-0.5-0.281-1.0391-0.281-1.6172v-0.3125c0-0.6615 0.097-1.2604 0.289-1.7969 0.193-0.5364 0.461-0.9948 0.805-1.375 0.344-0.3854 0.75-0.6797 1.219-0.8828 0.468-0.2031 0.976-0.3047 1.523-0.3047 0.604 0 1.133 0.1016 1.586 0.3047s0.828 0.4896 1.125 0.8594c0.302 0.3646 0.526 0.7995 0.672 1.3047 0.151 0.5052 0.226 1.0625 0.226 1.6718v0.8047h-6.531v-1.3515h4.672v-0.1485c-0.01-0.3385-0.078-0.6562-0.203-0.9531-0.12-0.2969-0.305-0.5364-0.555-0.7187s-0.583-0.2735-1-0.2735c-0.312 0-0.591 0.0677-0.836 0.2032-0.239 0.1302-0.44 0.3203-0.601 0.5703-0.162 0.25-0.287 0.552-0.375 0.9062-0.084 0.349-0.125 0.7422-0.125 1.1797v0.3125c0 0.3698 0.049 0.7135 0.148 1.0313 0.104 0.3124 0.255 0.5859 0.453 0.8203 0.198 0.2343 0.438 0.4192 0.719 0.5547 0.281 0.1302 0.602 0.1953 0.961 0.1953 0.453 0 0.857-0.0912 1.211-0.2735s0.661-0.4401 0.922-0.7734l0.992 0.9609c-0.182 0.2657-0.419 0.5209-0.711 0.7657-0.292 0.2395-0.648 0.4348-1.07 0.5859-0.417 0.151-0.901 0.2265-1.453 0.2265z" fill="black" fill-opacity=".54"/>
 <path d="m135.9 50.156v6.8438h-1.882v-8.4531h1.796l0.086 1.6093zm2.586-1.664-0.015 1.75c-0.115-0.0208-0.24-0.0365-0.375-0.0469-0.131-0.0104-0.261-0.0156-0.391-0.0156-0.323 0-0.607 0.0469-0.852 0.1406-0.244 0.0886-0.45 0.2188-0.617 0.3906-0.161 0.1667-0.286 0.3698-0.375 0.6094-0.088 0.2396-0.14 0.5078-0.156 0.8047l-0.43 0.0312c0-0.5312 0.052-1.0234 0.157-1.4765 0.104-0.4531 0.26-0.8516 0.468-1.1953 0.214-0.3438 0.48-0.612 0.797-0.8047 0.323-0.1927 0.696-0.2891 1.117-0.2891 0.115 0 0.237 0.0104 0.368 0.0313 0.135 0.0208 0.237 0.0442 0.304 0.0703z" fill="black" fill-opacity=".54"/>
 <path d="m124.87 45h1.883v10.195l-0.18 1.8047h-1.703v-12zm7.399 7.6953v0.1641c0 0.625-0.071 1.2005-0.211 1.7265-0.136 0.5209-0.344 0.974-0.625 1.3594-0.276 0.3854-0.62 0.6849-1.032 0.8985-0.406 0.2083-0.877 0.3124-1.414 0.3124-0.526 0-0.984-0.0989-1.375-0.2968-0.39-0.1979-0.718-0.4792-0.984-0.8438-0.261-0.3646-0.471-0.7995-0.633-1.3047-0.161-0.5052-0.276-1.0625-0.344-1.6718v-0.5235c0.068-0.6146 0.183-1.1718 0.344-1.6718 0.162-0.5053 0.372-0.9402 0.633-1.3047 0.266-0.3698 0.591-0.6537 0.976-0.8516 0.391-0.1979 0.847-0.2969 1.368-0.2969 0.541 0 1.018 0.1042 1.429 0.3125 0.417 0.2084 0.763 0.5052 1.039 0.8907 0.276 0.3802 0.482 0.8333 0.618 1.3593 0.14 0.5261 0.211 1.1068 0.211 1.7422zm-1.883 0.1641v-0.1641c0-0.3802-0.032-0.737-0.094-1.0703-0.063-0.3385-0.167-0.6354-0.313-0.8906-0.14-0.2552-0.333-0.4558-0.578-0.6016-0.239-0.151-0.539-0.2266-0.898-0.2266-0.333 0-0.62 0.0573-0.859 0.1719-0.24 0.1146-0.441 0.2709-0.602 0.4688s-0.289 0.4271-0.383 0.6875c-0.088 0.2604-0.148 0.5416-0.18 0.8437v1.4141c0.047 0.3906 0.146 0.75 0.297 1.0781 0.157 0.3229 0.375 0.5833 0.657 0.7813 0.281 0.1927 0.643 0.289 1.086 0.289 0.348 0 0.643-0.0703 0.882-0.2109 0.24-0.1406 0.43-0.3359 0.571-0.5859 0.145-0.2553 0.25-0.5521 0.312-0.8907 0.068-0.3385 0.102-0.7031 0.102-1.0937z" fill="black" fill-opacity=".54"/>
 <path d="m120.89 55.008v-6.4609h1.89v8.4531h-1.781l-0.109-1.9922zm0.265-1.7578 0.633-0.0156c0 0.5677-0.062 1.0911-0.187 1.5703-0.125 0.4739-0.318 0.888-0.579 1.2422-0.26 0.3489-0.593 0.6224-1 0.8203-0.406 0.1927-0.893 0.289-1.461 0.289-0.411 0-0.789-0.0598-1.132-0.1796-0.344-0.1198-0.641-0.3047-0.891-0.5547-0.245-0.25-0.435-0.5755-0.57-0.9766-0.136-0.401-0.203-0.8802-0.203-1.4375v-5.4609h1.882v5.4765c0 0.3073 0.037 0.5651 0.11 0.7735 0.073 0.2031 0.172 0.3672 0.297 0.4922s0.27 0.2135 0.437 0.2656 0.344 0.0781 0.531 0.0781c0.537 0 0.959-0.1042 1.266-0.3125 0.313-0.2135 0.534-0.5 0.664-0.8594 0.135-0.3593 0.203-0.763 0.203-1.2109z" fill="black" fill-opacity=".54"/>
 <path d="m112.14 54.07c0-0.2344-0.037-0.4427-0.11-0.625-0.067-0.1823-0.19-0.3489-0.367-0.5-0.177-0.151-0.427-0.2969-0.75-0.4375-0.318-0.1458-0.724-0.2943-1.219-0.4453-0.541-0.1667-1.041-0.3516-1.5-0.5547-0.453-0.2083-0.849-0.4479-1.187-0.7187-0.339-0.2761-0.602-0.5912-0.789-0.9453-0.188-0.3594-0.281-0.7735-0.281-1.2422 0-0.4636 0.096-0.8855 0.289-1.2657 0.197-0.3802 0.476-0.7083 0.835-0.9843 0.365-0.2813 0.795-0.4974 1.29-0.6485 0.494-0.1562 1.041-0.2343 1.64-0.2343 0.844 0 1.57 0.1562 2.18 0.4687 0.614 0.3125 1.086 0.7318 1.414 1.2578 0.333 0.5261 0.5 1.1068 0.5 1.7422h-1.945c0-0.375-0.081-0.7057-0.243-0.9922-0.156-0.2917-0.395-0.5208-0.718-0.6875-0.318-0.1667-0.722-0.25-1.211-0.25-0.464 0-0.849 0.0703-1.157 0.211-0.307 0.1406-0.536 0.3307-0.687 0.5703-0.151 0.2395-0.227 0.5104-0.227 0.8125 0 0.2135 0.05 0.4088 0.149 0.5859 0.099 0.1719 0.25 0.3333 0.453 0.4844 0.203 0.1458 0.458 0.2838 0.766 0.414 0.307 0.1302 0.669 0.2552 1.086 0.375 0.63 0.1875 1.179 0.3959 1.648 0.625 0.469 0.224 0.859 0.4792 1.172 0.7657 0.312 0.2864 0.547 0.6119 0.703 0.9765 0.156 0.3594 0.234 0.7683 0.234 1.2266 0 0.4792-0.096 0.9114-0.289 1.2969-0.192 0.3802-0.468 0.7057-0.828 0.9765-0.354 0.2657-0.781 0.4714-1.281 0.6172-0.495 0.1406-1.047 0.2109-1.656 0.2109-0.547 0-1.086-0.0729-1.617-0.2187-0.527-0.1458-1.006-0.3672-1.438-0.6641-0.432-0.302-0.776-0.677-1.031-1.125-0.255-0.4531-0.383-0.9817-0.383-1.5859h1.961c0 0.3698 0.062 0.6849 0.187 0.9453 0.131 0.2604 0.31 0.474 0.539 0.6406 0.23 0.1615 0.495 0.2813 0.797 0.3594 0.308 0.0781 0.636 0.1172 0.985 0.1172 0.458 0 0.841-0.0651 1.148-0.1953 0.313-0.1302 0.547-0.3125 0.703-0.5469s0.235-0.5052 0.235-0.8125z" fill="black" fill-opacity=".54"/>
</svg>
