<svg width="160" height="159" viewBox="0 0 160 159" fill="none" xmlns="http://www.w3.org/2000/svg">
<g filter="url(#filter0_d_4488_87673)">
<rect x="6.8335" y="3" width="147" height="147" rx="2.98477" fill="white" shape-rendering="crispEdges"/>
<path d="M28.8288 27.7583H26.6193V26.5982H28.8288C29.2135 26.5982 29.5244 26.5361 29.7615 26.4117C29.9986 26.2873 30.1715 26.1163 30.2803 25.8987C30.393 25.6772 30.4494 25.4245 30.4494 25.1408C30.4494 24.8727 30.393 24.622 30.2803 24.3888C30.1715 24.1517 29.9986 23.9613 29.7615 23.8175C29.5244 23.6737 29.2135 23.6018 28.8288 23.6018H27.0682V30.9238H25.605V22.4359H28.8288C29.4856 22.4359 30.0433 22.5525 30.5019 22.7857C30.9643 23.015 31.3161 23.3336 31.557 23.7417C31.798 24.1459 31.9185 24.6084 31.9185 25.1292C31.9185 25.6772 31.798 26.1474 31.557 26.5399C31.3161 26.9325 30.9643 27.2337 30.5019 27.4435C30.0433 27.6534 29.4856 27.7583 28.8288 27.7583ZM32.927 27.84V27.7059C32.927 27.2512 32.9931 26.8295 33.1252 26.4408C33.2573 26.0483 33.4478 25.7083 33.6965 25.4207C33.9491 25.1292 34.2561 24.9038 34.6176 24.7444C34.9829 24.5812 35.3949 24.4996 35.8535 24.4996C36.3159 24.4996 36.7279 24.5812 37.0893 24.7444C37.4547 24.9038 37.7636 25.1292 38.0163 25.4207C38.2689 25.7083 38.4613 26.0483 38.5934 26.4408C38.7255 26.8295 38.7916 27.2512 38.7916 27.7059V27.84C38.7916 28.2947 38.7255 28.7163 38.5934 29.105C38.4613 29.4936 38.2689 29.8337 38.0163 30.1252C37.7636 30.4128 37.4566 30.6382 37.0952 30.8014C36.7337 30.9607 36.3237 31.0404 35.8651 31.0404C35.4026 31.0404 34.9887 30.9607 34.6234 30.8014C34.262 30.6382 33.9549 30.4128 33.7023 30.1252C33.4497 29.8337 33.2573 29.4936 33.1252 29.105C32.9931 28.7163 32.927 28.2947 32.927 27.84ZM34.3319 27.7059V27.84C34.3319 28.1237 34.3611 28.3918 34.4194 28.6444C34.4777 28.8971 34.569 29.1186 34.6934 29.309C34.8177 29.4995 34.9771 29.6491 35.1714 29.7579C35.3657 29.8667 35.597 29.9211 35.8651 29.9211C36.1255 29.9211 36.3509 29.8667 36.5414 29.7579C36.7357 29.6491 36.895 29.4995 37.0194 29.309C37.1438 29.1186 37.2351 28.8971 37.2934 28.6444C37.3556 28.3918 37.3867 28.1237 37.3867 27.84V27.7059C37.3867 27.426 37.3556 27.1618 37.2934 26.913C37.2351 26.6604 37.1418 26.437 37.0136 26.2426C36.8892 26.0483 36.7299 25.8967 36.5355 25.7879C36.3451 25.6752 36.1177 25.6189 35.8535 25.6189C35.5892 25.6189 35.3599 25.6752 35.1656 25.7879C34.9751 25.8967 34.8177 26.0483 34.6934 26.2426C34.569 26.437 34.4777 26.6604 34.4194 26.913C34.3611 27.1618 34.3319 27.426 34.3319 27.7059ZM41.8696 29.5247L43.3271 24.6162H44.2248L43.98 26.0852L42.5109 30.9238H41.7064L41.8696 29.5247ZM41.0127 24.6162L42.1495 29.548L42.2427 30.9238H41.345L39.6369 24.6162H41.0127ZM45.589 29.4897L46.6908 24.6162H48.0607L46.3585 30.9238H45.4607L45.589 29.4897ZM44.3764 24.6162L45.8163 29.4664L45.997 30.9238H45.1925L43.706 26.0794L43.4611 24.6162H44.3764ZM51.9841 31.0404C51.5177 31.0404 51.096 30.9646 50.719 30.8131C50.3459 30.6576 50.0272 30.4419 49.763 30.166C49.5026 29.89 49.3024 29.5655 49.1625 29.1924C49.0226 28.8193 48.9526 28.4171 48.9526 27.9857V27.7525C48.9526 27.2589 49.0245 26.812 49.1683 26.4117C49.3121 26.0114 49.5123 25.6694 49.7688 25.3857C50.0253 25.0981 50.3284 24.8785 50.6782 24.7269C51.028 24.5754 51.4069 24.4996 51.815 24.4996C52.2658 24.4996 52.6603 24.5754 52.9984 24.7269C53.3365 24.8785 53.6164 25.0923 53.8379 25.3682C54.0633 25.6402 54.2304 25.9648 54.3392 26.3417C54.4519 26.7187 54.5083 27.1346 54.5083 27.5893V28.1897H49.6347V27.1812H53.1208V27.0704C53.1131 26.8178 53.0625 26.5808 52.9693 26.3592C52.8799 26.1377 52.7419 25.9589 52.5554 25.8229C52.3688 25.6869 52.1201 25.6189 51.8092 25.6189C51.576 25.6189 51.3681 25.6694 51.1854 25.7704C51.0066 25.8676 50.857 26.0094 50.7365 26.196C50.616 26.3825 50.5228 26.608 50.4567 26.8722C50.3945 27.1326 50.3634 27.426 50.3634 27.7525V27.9857C50.3634 28.2616 50.4003 28.5181 50.4742 28.7552C50.5519 28.9884 50.6646 29.1924 50.8123 29.3673C50.96 29.5422 51.1388 29.6802 51.3486 29.7812C51.5585 29.8784 51.7975 29.927 52.0657 29.927C52.4038 29.927 52.705 29.8589 52.9693 29.7229C53.2335 29.5869 53.4628 29.3945 53.6572 29.1458L54.3975 29.8628C54.2615 30.061 54.0847 30.2515 53.867 30.4341C53.6494 30.6129 53.3832 30.7587 53.0684 30.8714C52.7575 30.9841 52.396 31.0404 51.9841 31.0404ZM57.2016 25.8171V30.9238H55.7966V24.6162H57.1375L57.2016 25.8171ZM59.1312 24.5754L59.1195 25.8812C59.034 25.8657 58.9408 25.854 58.8397 25.8462C58.7425 25.8384 58.6454 25.8346 58.5482 25.8346C58.3073 25.8346 58.0955 25.8695 57.9128 25.9395C57.7301 26.0056 57.5766 26.1027 57.4523 26.231C57.3318 26.3553 57.2385 26.5069 57.1724 26.6857C57.1064 26.8645 57.0675 27.0646 57.0558 27.2861L56.7352 27.3095C56.7352 26.913 56.7741 26.5458 56.8518 26.2077C56.9295 25.8695 57.0461 25.5722 57.2016 25.3157C57.3609 25.0592 57.5591 24.8591 57.7962 24.7153C58.0372 24.5715 58.315 24.4996 58.6298 24.4996C58.7153 24.4996 58.8067 24.5073 58.9038 24.5229C59.0049 24.5384 59.0807 24.5559 59.1312 24.5754Z" fill="black" fill-opacity="0.87"/>
<g filter="url(#filter1_i_4488_87673)">
<path d="M115.032 89.9774C115.032 108.728 99.4969 123.929 80.3337 123.929C61.1706 123.929 45.6357 108.728 45.6357 89.9774C45.6357 71.2264 61.1706 56.0256 80.3337 56.0256C99.4969 56.0256 115.032 71.2264 115.032 89.9774Z" fill="#3F52DD"/>
</g>
<path d="M114.285 89.9774C114.285 108.301 99.1001 123.183 80.3337 123.183C61.5673 123.183 46.3819 108.301 46.3819 89.9774C46.3819 71.6537 61.5673 56.7718 80.3337 56.7718C99.1001 56.7718 114.285 71.6537 114.285 89.9774Z" stroke="white" stroke-width="1.49239"/>
<g filter="url(#filter2_d_4488_87673)">
<path fill-rule="evenodd" clip-rule="evenodd" d="M80.3337 131.391C103.618 131.391 122.494 112.849 122.494 89.9772C122.494 67.105 103.618 48.5635 80.3337 48.5635C57.0495 48.5635 38.1738 67.105 38.1738 89.9772C38.1738 112.849 57.0495 131.391 80.3337 131.391ZM80.3335 123.929C99.4967 123.929 115.031 108.728 115.031 89.9774C115.031 71.2263 99.4967 56.0256 80.3335 56.0256C61.1703 56.0256 45.6355 71.2263 45.6355 89.9774C45.6355 108.728 61.1703 123.929 80.3335 123.929Z" fill="url(#paint0_linear_4488_87673)"/>
</g>
<path d="M79.1079 89.4611V90.1985C79.1079 91.0749 78.9983 91.8605 78.7792 92.5552C78.5601 93.2499 78.2449 93.8404 77.8334 94.3267C77.4219 94.8129 76.9276 95.1843 76.3505 95.4408C75.7787 95.6973 75.1374 95.8256 74.4267 95.8256C73.7373 95.8256 73.1041 95.6973 72.527 95.4408C71.9552 95.1843 71.4582 94.8129 71.036 94.3267C70.6192 93.8404 70.2959 93.2499 70.0661 92.5552C69.8363 91.8605 69.7215 91.0749 69.7215 90.1985V89.4611C69.7215 88.5847 69.8337 87.8018 70.0581 87.1125C70.2879 86.4178 70.6112 85.8273 71.028 85.341C71.4448 84.8494 71.9391 84.4753 72.5109 84.2188C73.0881 83.9623 73.7213 83.834 74.4107 83.834C75.1214 83.834 75.7627 83.9623 76.3344 84.2188C76.9116 84.4753 77.4059 84.8494 77.8174 85.341C78.2342 85.8273 78.5521 86.4178 78.7712 87.1125C78.9957 87.8018 79.1079 88.5847 79.1079 89.4611ZM77.5769 90.1985V89.4451C77.5769 88.7504 77.5047 88.1358 77.3605 87.6014C77.2215 87.0671 77.0158 86.6182 76.7432 86.2548C76.4707 85.8914 76.1367 85.6162 75.7413 85.4292C75.3512 85.2421 74.9076 85.1486 74.4107 85.1486C73.9297 85.1486 73.4942 85.2421 73.1041 85.4292C72.7193 85.6162 72.388 85.8914 72.1101 86.2548C71.8376 86.6182 71.6265 87.0671 71.4769 87.6014C71.3273 88.1358 71.2525 88.7504 71.2525 89.4451V90.1985C71.2525 90.8986 71.3273 91.5185 71.4769 92.0582C71.6265 92.5926 71.8403 93.0441 72.1182 93.4129C72.4014 93.7762 72.7354 94.0514 73.1201 94.2385C73.5102 94.4255 73.9457 94.519 74.4267 94.519C74.929 94.519 75.3752 94.4255 75.7653 94.2385C76.1554 94.0514 76.4841 93.7762 76.7513 93.4129C77.0238 93.0441 77.2295 92.5926 77.3685 92.0582C77.5074 91.5185 77.5769 90.8986 77.5769 90.1985ZM90.4021 83.9944V95.6653H88.847L82.9715 86.6636V95.6653H81.4244V83.9944H82.9715L88.8711 93.0201V83.9944H90.4021Z" fill="white"/>
</g>
<defs>
<filter id="filter0_d_4488_87673" x="0.863953" y="0.0152285" width="158.939" height="158.939" filterUnits="userSpaceOnUse" color-interpolation-filters="sRGB">
<feFlood flood-opacity="0" result="BackgroundImageFix"/>
<feColorMatrix in="SourceAlpha" type="matrix" values="0 0 0 0 0 0 0 0 0 0 0 0 0 0 0 0 0 0 127 0" result="hardAlpha"/>
<feOffset dy="2.98477"/>
<feGaussianBlur stdDeviation="2.98477"/>
<feComposite in2="hardAlpha" operator="out"/>
<feColorMatrix type="matrix" values="0 0 0 0 0 0 0 0 0 0 0 0 0 0 0 0 0 0 0.04 0"/>
<feBlend mode="normal" in2="BackgroundImageFix" result="effect1_dropShadow_4488_87673"/>
<feBlend mode="normal" in="SourceGraphic" in2="effect1_dropShadow_4488_87673" result="shape"/>
</filter>
<filter id="filter1_i_4488_87673" x="41.9048" y="56.0256" width="73.127" height="71.6345" filterUnits="userSpaceOnUse" color-interpolation-filters="sRGB">
<feFlood flood-opacity="0" result="BackgroundImageFix"/>
<feBlend mode="normal" in="SourceGraphic" in2="BackgroundImageFix" result="shape"/>
<feColorMatrix in="SourceAlpha" type="matrix" values="0 0 0 0 0 0 0 0 0 0 0 0 0 0 0 0 0 0 127 0" result="hardAlpha"/>
<feOffset dx="-3.73096" dy="3.73096"/>
<feGaussianBlur stdDeviation="2.98477"/>
<feComposite in2="hardAlpha" operator="arithmetic" k2="-1" k3="1"/>
<feColorMatrix type="matrix" values="0 0 0 0 0 0 0 0 0 0 0 0 0 0 0 0 0 0 0.15 0"/>
<feBlend mode="normal" in2="shape" result="effect1_innerShadow_4488_87673"/>
</filter>
<filter id="filter2_d_4488_87673" x="32.2043" y="45.5787" width="96.2589" height="94.7665" filterUnits="userSpaceOnUse" color-interpolation-filters="sRGB">
<feFlood flood-opacity="0" result="BackgroundImageFix"/>
<feColorMatrix in="SourceAlpha" type="matrix" values="0 0 0 0 0 0 0 0 0 0 0 0 0 0 0 0 0 0 127 0" result="hardAlpha"/>
<feOffset dy="2.98477"/>
<feGaussianBlur stdDeviation="2.98477"/>
<feComposite in2="hardAlpha" operator="out"/>
<feColorMatrix type="matrix" values="0 0 0 0 0 0 0 0 0 0 0 0 0 0 0 0 0 0 0.08 0"/>
<feBlend mode="normal" in2="BackgroundImageFix" result="effect1_dropShadow_4488_87673"/>
<feBlend mode="normal" in="SourceGraphic" in2="effect1_dropShadow_4488_87673" result="shape"/>
</filter>
<linearGradient id="paint0_linear_4488_87673" x1="54.8859" y1="123.183" x2="102.361" y2="55.5962" gradientUnits="userSpaceOnUse">
<stop stop-color="#CCCCCC"/>
<stop offset="1" stop-color="white"/>
</linearGradient>
</defs>
</svg>
