<svg width="160" height="159" viewBox="0 0 160 159" fill="none" xmlns="http://www.w3.org/2000/svg">
<g filter="url(#filter0_d_4488_87637)">
<rect x="6.8335" y="3" width="147" height="147" rx="2.98477" fill="white" shape-rendering="crispEdges"/>
<path d="M28.8288 27.7583H26.6193V26.5982H28.8288C29.2135 26.5982 29.5244 26.5361 29.7615 26.4117C29.9986 26.2873 30.1715 26.1163 30.2803 25.8987C30.393 25.6772 30.4494 25.4245 30.4494 25.1408C30.4494 24.8727 30.393 24.622 30.2803 24.3888C30.1715 24.1517 29.9986 23.9613 29.7615 23.8175C29.5244 23.6737 29.2135 23.6018 28.8288 23.6018H27.0682V30.9238H25.605V22.4359H28.8288C29.4856 22.4359 30.0433 22.5525 30.5019 22.7857C30.9643 23.015 31.3161 23.3336 31.557 23.7417C31.798 24.1459 31.9185 24.6084 31.9185 25.1292C31.9185 25.6772 31.798 26.1474 31.557 26.5399C31.3161 26.9325 30.9643 27.2337 30.5019 27.4435C30.0433 27.6534 29.4856 27.7583 28.8288 27.7583ZM32.927 27.84V27.7059C32.927 27.2512 32.9931 26.8295 33.1252 26.4408C33.2573 26.0483 33.4478 25.7083 33.6965 25.4207C33.9491 25.1292 34.2561 24.9038 34.6176 24.7444C34.9829 24.5812 35.3949 24.4996 35.8535 24.4996C36.3159 24.4996 36.7279 24.5812 37.0893 24.7444C37.4547 24.9038 37.7636 25.1292 38.0163 25.4207C38.2689 25.7083 38.4613 26.0483 38.5934 26.4408C38.7255 26.8295 38.7916 27.2512 38.7916 27.7059V27.84C38.7916 28.2947 38.7255 28.7163 38.5934 29.105C38.4613 29.4936 38.2689 29.8337 38.0163 30.1252C37.7636 30.4128 37.4566 30.6382 37.0952 30.8014C36.7337 30.9607 36.3237 31.0404 35.8651 31.0404C35.4026 31.0404 34.9887 30.9607 34.6234 30.8014C34.262 30.6382 33.9549 30.4128 33.7023 30.1252C33.4497 29.8337 33.2573 29.4936 33.1252 29.105C32.9931 28.7163 32.927 28.2947 32.927 27.84ZM34.3319 27.7059V27.84C34.3319 28.1237 34.3611 28.3918 34.4194 28.6444C34.4777 28.8971 34.569 29.1186 34.6934 29.309C34.8177 29.4995 34.9771 29.6491 35.1714 29.7579C35.3657 29.8667 35.597 29.9211 35.8651 29.9211C36.1255 29.9211 36.3509 29.8667 36.5414 29.7579C36.7357 29.6491 36.895 29.4995 37.0194 29.309C37.1438 29.1186 37.2351 28.8971 37.2934 28.6444C37.3556 28.3918 37.3867 28.1237 37.3867 27.84V27.7059C37.3867 27.426 37.3556 27.1618 37.2934 26.913C37.2351 26.6604 37.1418 26.437 37.0136 26.2426C36.8892 26.0483 36.7299 25.8967 36.5355 25.7879C36.3451 25.6752 36.1177 25.6189 35.8535 25.6189C35.5892 25.6189 35.3599 25.6752 35.1656 25.7879C34.9751 25.8967 34.8177 26.0483 34.6934 26.2426C34.569 26.437 34.4777 26.6604 34.4194 26.913C34.3611 27.1618 34.3319 27.426 34.3319 27.7059ZM41.8696 29.5247L43.3271 24.6162H44.2248L43.98 26.0852L42.5109 30.9238H41.7064L41.8696 29.5247ZM41.0127 24.6162L42.1495 29.548L42.2427 30.9238H41.345L39.6369 24.6162H41.0127ZM45.589 29.4897L46.6908 24.6162H48.0607L46.3585 30.9238H45.4607L45.589 29.4897ZM44.3764 24.6162L45.8163 29.4664L45.997 30.9238H45.1925L43.706 26.0794L43.4611 24.6162H44.3764ZM51.9841 31.0404C51.5177 31.0404 51.096 30.9646 50.719 30.8131C50.3459 30.6576 50.0272 30.4419 49.763 30.166C49.5026 29.89 49.3024 29.5655 49.1625 29.1924C49.0226 28.8193 48.9526 28.4171 48.9526 27.9857V27.7525C48.9526 27.2589 49.0245 26.812 49.1683 26.4117C49.3121 26.0114 49.5123 25.6694 49.7688 25.3857C50.0253 25.0981 50.3284 24.8785 50.6782 24.7269C51.028 24.5754 51.4069 24.4996 51.815 24.4996C52.2658 24.4996 52.6603 24.5754 52.9984 24.7269C53.3365 24.8785 53.6164 25.0923 53.8379 25.3682C54.0633 25.6402 54.2304 25.9648 54.3392 26.3417C54.4519 26.7187 54.5083 27.1346 54.5083 27.5893V28.1897H49.6347V27.1812H53.1208V27.0704C53.1131 26.8178 53.0625 26.5808 52.9693 26.3592C52.8799 26.1377 52.7419 25.9589 52.5554 25.8229C52.3688 25.6869 52.1201 25.6189 51.8092 25.6189C51.576 25.6189 51.3681 25.6694 51.1854 25.7704C51.0066 25.8676 50.857 26.0094 50.7365 26.196C50.616 26.3825 50.5228 26.608 50.4567 26.8722C50.3945 27.1326 50.3634 27.426 50.3634 27.7525V27.9857C50.3634 28.2616 50.4003 28.5181 50.4742 28.7552C50.5519 28.9884 50.6646 29.1924 50.8123 29.3673C50.96 29.5422 51.1388 29.6802 51.3486 29.7812C51.5585 29.8784 51.7975 29.927 52.0657 29.927C52.4038 29.927 52.705 29.8589 52.9693 29.7229C53.2335 29.5869 53.4628 29.3945 53.6572 29.1458L54.3975 29.8628C54.2615 30.061 54.0847 30.2515 53.867 30.4341C53.6494 30.6129 53.3832 30.7587 53.0684 30.8714C52.7575 30.9841 52.396 31.0404 51.9841 31.0404ZM57.2016 25.8171V30.9238H55.7966V24.6162H57.1375L57.2016 25.8171ZM59.1312 24.5754L59.1195 25.8812C59.034 25.8657 58.9408 25.854 58.8397 25.8462C58.7425 25.8384 58.6454 25.8346 58.5482 25.8346C58.3073 25.8346 58.0955 25.8695 57.9128 25.9395C57.7301 26.0056 57.5766 26.1027 57.4523 26.231C57.3318 26.3553 57.2385 26.5069 57.1724 26.6857C57.1064 26.8645 57.0675 27.0646 57.0558 27.2861L56.7352 27.3095C56.7352 26.913 56.7741 26.5458 56.8518 26.2077C56.9295 25.8695 57.0461 25.5722 57.2016 25.3157C57.3609 25.0592 57.5591 24.8591 57.7962 24.7153C58.0372 24.5715 58.315 24.4996 58.6298 24.4996C58.7153 24.4996 58.8067 24.5073 58.9038 24.5229C59.0049 24.5384 59.0807 24.5559 59.1312 24.5754Z" fill="black" fill-opacity="0.87"/>
<path d="M114.285 89.9774C114.285 108.728 99.0847 123.929 80.3336 123.929C61.5826 123.929 46.3818 108.728 46.3818 89.9774C46.3818 71.2264 61.5826 56.0256 80.3336 56.0256C99.0847 56.0256 114.285 71.2264 114.285 89.9774Z" fill="#3F52DD"/>
<path d="M122.121 89.9773C122.121 113.055 103.412 131.764 80.3337 131.764C57.2555 131.764 38.5469 113.055 38.5469 89.9773C38.5469 66.8991 57.2555 48.1905 80.3337 48.1905C103.412 48.1905 122.121 66.8991 122.121 89.9773Z" fill="white" stroke="#3F52DD" stroke-width="0.746193"/>
<path d="M114.285 89.9774C114.285 108.728 99.0847 123.929 80.3336 123.929C61.5826 123.929 46.3818 108.728 46.3818 89.9774C46.3818 71.2264 61.5826 56.0256 80.3336 56.0256C99.0847 56.0256 114.285 71.2264 114.285 89.9774Z" fill="#3F52DD"/>
<path d="M79.2736 88.7629V89.4041C79.2736 90.2858 79.1587 91.0767 78.9289 91.7768C78.6992 92.4768 78.3705 93.0727 77.943 93.5643C77.5208 94.0559 77.0132 94.4327 76.42 94.6945C75.8269 94.951 75.1696 95.0793 74.4481 95.0793C73.7321 95.0793 73.0775 94.951 72.4843 94.6945C71.8965 94.4327 71.3861 94.0559 70.9533 93.5643C70.5204 93.0727 70.1838 92.4768 69.9433 91.7768C69.7082 91.0767 69.5906 90.2858 69.5906 89.4041V88.7629C69.5906 87.8811 69.7082 87.0929 69.9433 86.3982C70.1784 85.6982 70.5097 85.1023 70.9373 84.6107C71.3701 84.1137 71.8804 83.737 72.4683 83.4805C73.0614 83.2186 73.716 83.0877 74.4321 83.0877C75.1535 83.0877 75.8108 83.2186 76.404 83.4805C76.9972 83.737 77.5075 84.1137 77.935 84.6107C78.3625 85.1023 78.6911 85.6982 78.9209 86.3982C79.1561 87.0929 79.2736 87.8811 79.2736 88.7629ZM77.2617 89.4041V88.7468C77.2617 88.0949 77.1975 87.5204 77.0693 87.0234C76.9464 86.5211 76.762 86.1016 76.5162 85.765C76.2757 85.423 75.9792 85.1665 75.6265 84.9955C75.2738 84.8191 74.8757 84.7309 74.4321 84.7309C73.9886 84.7309 73.5931 84.8191 73.2458 84.9955C72.8984 85.1665 72.6019 85.423 72.356 85.765C72.1156 86.1016 71.9312 86.5211 71.803 87.0234C71.6747 87.5204 71.6106 88.0949 71.6106 88.7468V89.4041C71.6106 90.0561 71.6747 90.6332 71.803 91.1355C71.9312 91.6378 72.1182 92.0627 72.3641 92.41C72.6152 92.752 72.9145 93.0112 73.2618 93.1875C73.6092 93.3585 74.0046 93.444 74.4481 93.444C74.897 93.444 75.2951 93.3585 75.6425 93.1875C75.9898 93.0112 76.2838 92.752 76.5242 92.41C76.7647 92.0627 76.9464 91.6378 77.0693 91.1355C77.1975 90.6332 77.2617 90.0561 77.2617 89.4041ZM90.5438 83.248V94.9189H88.5318L83.2975 86.5585V94.9189H81.2856V83.248H83.2975L88.5478 91.6245V83.248H90.5438Z" fill="white"/>
</g>
<defs>
<filter id="filter0_d_4488_87637" x="0.863953" y="0.0152285" width="158.939" height="158.939" filterUnits="userSpaceOnUse" color-interpolation-filters="sRGB">
<feFlood flood-opacity="0" result="BackgroundImageFix"/>
<feColorMatrix in="SourceAlpha" type="matrix" values="0 0 0 0 0 0 0 0 0 0 0 0 0 0 0 0 0 0 127 0" result="hardAlpha"/>
<feOffset dy="2.98477"/>
<feGaussianBlur stdDeviation="2.98477"/>
<feComposite in2="hardAlpha" operator="out"/>
<feColorMatrix type="matrix" values="0 0 0 0 0 0 0 0 0 0 0 0 0 0 0 0 0 0 0.04 0"/>
<feBlend mode="normal" in2="BackgroundImageFix" result="effect1_dropShadow_4488_87637"/>
<feBlend mode="normal" in="SourceGraphic" in2="effect1_dropShadow_4488_87637" result="shape"/>
</filter>
</defs>
</svg>
