<svg width="160" height="159" viewBox="0 0 160 159" fill="none" xmlns="http://www.w3.org/2000/svg">
<g filter="url(#filter0_d_4488_87619)">
<rect x="6.16699" y="3" width="147" height="147" rx="2.98477" fill="white" shape-rendering="crispEdges"/>
<path d="M28.1618 27.7583H25.9523V26.5982H28.1618C28.5465 26.5982 28.8574 26.5361 29.0945 26.4117C29.3316 26.2873 29.5045 26.1163 29.6133 25.8987C29.7261 25.6772 29.7824 25.4245 29.7824 25.1408C29.7824 24.8727 29.7261 24.622 29.6133 24.3888C29.5045 24.1517 29.3316 23.9613 29.0945 23.8175C28.8574 23.6737 28.5465 23.6018 28.1618 23.6018H26.4012V30.9238H24.938V22.4359H28.1618C28.8186 22.4359 29.3763 22.5525 29.8349 22.7857C30.2974 23.015 30.6491 23.3336 30.89 23.7417C31.131 24.1459 31.2515 24.6084 31.2515 25.1292C31.2515 25.6772 31.131 26.1474 30.89 26.5399C30.6491 26.9325 30.2974 27.2337 29.8349 27.4435C29.3763 27.6534 28.8186 27.7583 28.1618 27.7583ZM32.26 27.84V27.7059C32.26 27.2512 32.3261 26.8295 32.4582 26.4408C32.5903 26.0483 32.7808 25.7083 33.0295 25.4207C33.2821 25.1292 33.5892 24.9038 33.9506 24.7444C34.3159 24.5812 34.7279 24.4996 35.1865 24.4996C35.649 24.4996 36.0609 24.5812 36.4224 24.7444C36.7877 24.9038 37.0966 25.1292 37.3493 25.4207C37.6019 25.7083 37.7943 26.0483 37.9264 26.4408C38.0585 26.8295 38.1246 27.2512 38.1246 27.7059V27.84C38.1246 28.2947 38.0585 28.7163 37.9264 29.105C37.7943 29.4936 37.6019 29.8337 37.3493 30.1252C37.0966 30.4128 36.7896 30.6382 36.4282 30.8014C36.0667 30.9607 35.6567 31.0404 35.1981 31.0404C34.7356 31.0404 34.3217 30.9607 33.9564 30.8014C33.595 30.6382 33.288 30.4128 33.0353 30.1252C32.7827 29.8337 32.5903 29.4936 32.4582 29.105C32.3261 28.7163 32.26 28.2947 32.26 27.84ZM33.6649 27.7059V27.84C33.6649 28.1237 33.6941 28.3918 33.7524 28.6444C33.8107 28.8971 33.902 29.1186 34.0264 29.309C34.1507 29.4995 34.3101 29.6491 34.5044 29.7579C34.6987 29.8667 34.93 29.9211 35.1981 29.9211C35.4585 29.9211 35.6839 29.8667 35.8744 29.7579C36.0687 29.6491 36.228 29.4995 36.3524 29.309C36.4768 29.1186 36.5681 28.8971 36.6264 28.6444C36.6886 28.3918 36.7197 28.1237 36.7197 27.84V27.7059C36.7197 27.426 36.6886 27.1618 36.6264 26.913C36.5681 26.6604 36.4748 26.437 36.3466 26.2426C36.2222 26.0483 36.0629 25.8967 35.8685 25.7879C35.6781 25.6752 35.4507 25.6189 35.1865 25.6189C34.9222 25.6189 34.6929 25.6752 34.4986 25.7879C34.3081 25.8967 34.1507 26.0483 34.0264 26.2426C33.902 26.437 33.8107 26.6604 33.7524 26.913C33.6941 27.1618 33.6649 27.426 33.6649 27.7059ZM41.2027 29.5247L42.6601 24.6162H43.5578L43.313 26.0852L41.8439 30.9238H41.0394L41.2027 29.5247ZM40.3457 24.6162L41.4825 29.548L41.5757 30.9238H40.678L38.9699 24.6162H40.3457ZM44.922 29.4897L46.0238 24.6162H47.3937L45.6915 30.9238H44.7937L44.922 29.4897ZM43.7094 24.6162L45.1493 29.4664L45.33 30.9238H44.5255L43.039 26.0794L42.7941 24.6162H43.7094ZM51.3171 31.0404C50.8507 31.0404 50.429 30.9646 50.052 30.8131C49.6789 30.6576 49.3603 30.4419 49.096 30.166C48.8356 29.89 48.6354 29.5655 48.4955 29.1924C48.3556 28.8193 48.2857 28.4171 48.2857 27.9857V27.7525C48.2857 27.2589 48.3576 26.812 48.5014 26.4117C48.6451 26.0114 48.8453 25.6694 49.1018 25.3857C49.3583 25.0981 49.6614 24.8785 50.0112 24.7269C50.361 24.5754 50.7399 24.4996 51.148 24.4996C51.5988 24.4996 51.9933 24.5754 52.3314 24.7269C52.6695 24.8785 52.9494 25.0923 53.1709 25.3682C53.3963 25.6402 53.5634 25.9648 53.6722 26.3417C53.7849 26.7187 53.8413 27.1346 53.8413 27.5893V28.1897H48.9677V27.1812H52.4538V27.0704C52.4461 26.8178 52.3955 26.5808 52.3023 26.3592C52.2129 26.1377 52.0749 25.9589 51.8884 25.8229C51.7018 25.6869 51.4531 25.6189 51.1422 25.6189C50.909 25.6189 50.7011 25.6694 50.5184 25.7704C50.3396 25.8676 50.19 26.0094 50.0695 26.196C49.949 26.3825 49.8558 26.608 49.7897 26.8722C49.7275 27.1326 49.6964 27.426 49.6964 27.7525V27.9857C49.6964 28.2616 49.7333 28.5181 49.8072 28.7552C49.8849 28.9884 49.9976 29.1924 50.1453 29.3673C50.293 29.5422 50.4718 29.6802 50.6816 29.7812C50.8915 29.8784 51.1305 29.927 51.3987 29.927C51.7368 29.927 52.038 29.8589 52.3023 29.7229C52.5665 29.5869 52.7958 29.3945 52.9902 29.1458L53.7305 29.8628C53.5945 30.061 53.4177 30.2515 53.2 30.4341C52.9824 30.6129 52.7162 30.7587 52.4014 30.8714C52.0905 30.9841 51.729 31.0404 51.3171 31.0404ZM56.5346 25.8171V30.9238H55.1296V24.6162H56.4705L56.5346 25.8171ZM58.4642 24.5754L58.4525 25.8812C58.367 25.8657 58.2738 25.854 58.1727 25.8462C58.0756 25.8384 57.9784 25.8346 57.8812 25.8346C57.6403 25.8346 57.4285 25.8695 57.2458 25.9395C57.0631 26.0056 56.9096 26.1027 56.7853 26.231C56.6648 26.3553 56.5715 26.5069 56.5054 26.6857C56.4394 26.8645 56.4005 27.0646 56.3888 27.2861L56.0682 27.3095C56.0682 26.913 56.1071 26.5458 56.1848 26.2077C56.2625 25.8695 56.3791 25.5722 56.5346 25.3157C56.6939 25.0592 56.8921 24.8591 57.1292 24.7153C57.3702 24.5715 57.648 24.4996 57.9628 24.4996C58.0483 24.4996 58.1397 24.5073 58.2368 24.5229C58.3379 24.5384 58.4137 24.5559 58.4642 24.5754Z" fill="black" fill-opacity="0.87"/>
<path d="M112.873 89.9774C112.873 108.316 98.0061 123.183 79.6671 123.183C61.3282 123.183 46.4615 108.316 46.4615 89.9774C46.4615 71.6385 61.3282 56.7718 79.6671 56.7718C98.0061 56.7718 112.873 71.6385 112.873 89.9774Z" stroke="#3F52DD" stroke-width="1.49239"/>
<path d="M121.454 89.9773C121.454 113.055 102.745 131.764 79.6672 131.764C56.589 131.764 37.8804 113.055 37.8804 89.9773C37.8804 66.8991 56.589 48.1905 79.6672 48.1905C102.745 48.1905 121.454 66.8991 121.454 89.9773Z" stroke="#3F52DD" stroke-width="0.746193"/>
<path d="M112.873 89.9774C112.873 108.316 98.0061 123.183 79.6671 123.183C61.3282 123.183 46.4615 108.316 46.4615 89.9774C46.4615 71.6385 61.3282 56.7718 79.6671 56.7718C98.0061 56.7718 112.873 71.6385 112.873 89.9774Z" stroke="#3F52DD" stroke-width="1.49239"/>
<path d="M110.634 89.9777C110.634 107.08 96.7698 120.945 79.6672 120.945C62.5646 120.945 48.7002 107.08 48.7002 89.9777C48.7002 72.8751 62.5646 59.0107 79.6672 59.0107C96.7698 59.0107 110.634 72.8751 110.634 89.9777Z" fill="#3F52DD"/>
<path d="M78.6071 89.5094V90.1507C78.6071 91.0324 78.4922 91.8233 78.2624 92.5234C78.0327 93.2234 77.704 93.8192 77.2765 94.3109C76.8543 94.8025 76.3467 95.1792 75.7535 95.4411C75.1604 95.6976 74.5031 95.8258 73.7816 95.8258C73.0656 95.8258 72.411 95.6976 71.8178 95.4411C71.23 95.1792 70.7196 94.8025 70.2868 94.3109C69.8539 93.8192 69.5173 93.2234 69.2768 92.5234C69.0417 91.8233 68.9241 91.0324 68.9241 90.1507V89.5094C68.9241 88.6277 69.0417 87.8395 69.2768 87.1448C69.5119 86.4447 69.8432 85.8489 70.2707 85.3573C70.7036 84.8603 71.2139 84.4836 71.8018 84.2271C72.3949 83.9652 73.0495 83.8343 73.7656 83.8343C74.487 83.8343 75.1443 83.9652 75.7375 84.2271C76.3307 84.4836 76.841 84.8603 77.2685 85.3573C77.696 85.8489 78.0246 86.4447 78.2544 87.1448C78.4896 87.8395 78.6071 88.6277 78.6071 89.5094ZM76.5952 90.1507V89.4934C76.5952 88.8415 76.531 88.267 76.4028 87.77C76.2799 87.2677 76.0955 86.8482 75.8497 86.5115C75.6092 86.1695 75.3127 85.913 74.96 85.742C74.6073 85.5657 74.2092 85.4775 73.7656 85.4775C73.3221 85.4775 72.9266 85.5657 72.5793 85.742C72.2319 85.913 71.9354 86.1695 71.6895 86.5115C71.4491 86.8482 71.2647 87.2677 71.1364 87.77C71.0082 88.267 70.9441 88.8415 70.9441 89.4934V90.1507C70.9441 90.8026 71.0082 91.3798 71.1364 91.8821C71.2647 92.3844 71.4517 92.8093 71.6976 93.1566C71.9487 93.4986 72.248 93.7578 72.5953 93.9341C72.9427 94.1051 73.3381 94.1906 73.7816 94.1906C74.2305 94.1906 74.6286 94.1051 74.976 93.9341C75.3233 93.7578 75.6173 93.4986 75.8577 93.1566C76.0982 92.8093 76.2799 92.3844 76.4028 91.8821C76.531 91.3798 76.5952 90.8026 76.5952 90.1507ZM89.8773 83.9946V95.6655H87.8653L82.631 87.3051V95.6655H80.6191V83.9946H82.631L87.8813 92.3711V83.9946H89.8773Z" fill="white"/>
</g>
<defs>
<filter id="filter0_d_4488_87619" x="0.197449" y="0.0152285" width="158.939" height="158.939" filterUnits="userSpaceOnUse" color-interpolation-filters="sRGB">
<feFlood flood-opacity="0" result="BackgroundImageFix"/>
<feColorMatrix in="SourceAlpha" type="matrix" values="0 0 0 0 0 0 0 0 0 0 0 0 0 0 0 0 0 0 127 0" result="hardAlpha"/>
<feOffset dy="2.98477"/>
<feGaussianBlur stdDeviation="2.98477"/>
<feComposite in2="hardAlpha" operator="out"/>
<feColorMatrix type="matrix" values="0 0 0 0 0 0 0 0 0 0 0 0 0 0 0 0 0 0 0.04 0"/>
<feBlend mode="normal" in2="BackgroundImageFix" result="effect1_dropShadow_4488_87619"/>
<feBlend mode="normal" in="SourceGraphic" in2="effect1_dropShadow_4488_87619" result="shape"/>
</filter>
</defs>
</svg>
