<svg width="160" height="159" viewBox="0 0 160 159" fill="none" xmlns="http://www.w3.org/2000/svg">
<g filter="url(#filter0_d_4488_88106)">
<rect x="6.16699" y="3" width="147" height="147" rx="2.98477" fill="white" shape-rendering="crispEdges"/>
<path d="M28.1623 27.7583H25.9528V26.5982H28.1623C28.547 26.5982 28.8579 26.5361 29.095 26.4117C29.3321 26.2873 29.505 26.1163 29.6138 25.8987C29.7265 25.6772 29.7829 25.4245 29.7829 25.1408C29.7829 24.8727 29.7265 24.622 29.6138 24.3888C29.505 24.1517 29.3321 23.9613 29.095 23.8175C28.8579 23.6737 28.547 23.6018 28.1623 23.6018H26.4017V30.9238H24.9385V22.4359H28.1623C28.8191 22.4359 29.3768 22.5525 29.8354 22.7857C30.2978 23.015 30.6496 23.3336 30.8905 23.7417C31.1315 24.1459 31.252 24.6084 31.252 25.1292C31.252 25.6772 31.1315 26.1474 30.8905 26.5399C30.6496 26.9325 30.2978 27.2337 29.8354 27.4435C29.3768 27.6534 28.8191 27.7583 28.1623 27.7583ZM32.2605 27.84V27.7059C32.2605 27.2512 32.3266 26.8295 32.4587 26.4408C32.5908 26.0483 32.7813 25.7083 33.03 25.4207C33.2826 25.1292 33.5896 24.9038 33.9511 24.7444C34.3164 24.5812 34.7284 24.4996 35.187 24.4996C35.6494 24.4996 36.0614 24.5812 36.4228 24.7444C36.7882 24.9038 37.0971 25.1292 37.3498 25.4207C37.6024 25.7083 37.7948 26.0483 37.9269 26.4408C38.059 26.8295 38.1251 27.2512 38.1251 27.7059V27.84C38.1251 28.2947 38.059 28.7163 37.9269 29.105C37.7948 29.4936 37.6024 29.8337 37.3498 30.1252C37.0971 30.4128 36.7901 30.6382 36.4287 30.8014C36.0672 30.9607 35.6572 31.0404 35.1986 31.0404C34.7361 31.0404 34.3222 30.9607 33.9569 30.8014C33.5955 30.6382 33.2884 30.4128 33.0358 30.1252C32.7832 29.8337 32.5908 29.4936 32.4587 29.105C32.3266 28.7163 32.2605 28.2947 32.2605 27.84ZM33.6654 27.7059V27.84C33.6654 28.1237 33.6946 28.3918 33.7529 28.6444C33.8112 28.8971 33.9025 29.1186 34.0269 29.309C34.1512 29.4995 34.3106 29.6491 34.5049 29.7579C34.6992 29.8667 34.9305 29.9211 35.1986 29.9211C35.459 29.9211 35.6844 29.8667 35.8749 29.7579C36.0692 29.6491 36.2285 29.4995 36.3529 29.309C36.4773 29.1186 36.5686 28.8971 36.6269 28.6444C36.6891 28.3918 36.7202 28.1237 36.7202 27.84V27.7059C36.7202 27.426 36.6891 27.1618 36.6269 26.913C36.5686 26.6604 36.4753 26.437 36.3471 26.2426C36.2227 26.0483 36.0633 25.8967 35.869 25.7879C35.6786 25.6752 35.4512 25.6189 35.187 25.6189C34.9227 25.6189 34.6934 25.6752 34.4991 25.7879C34.3086 25.8967 34.1512 26.0483 34.0269 26.2426C33.9025 26.437 33.8112 26.6604 33.7529 26.913C33.6946 27.1618 33.6654 27.426 33.6654 27.7059ZM41.2031 29.5247L42.6605 24.6162H43.5583L43.3135 26.0852L41.8444 30.9238H41.0399L41.2031 29.5247ZM40.3462 24.6162L41.483 29.548L41.5762 30.9238H40.6785L38.9704 24.6162H40.3462ZM44.9224 29.4897L46.0242 24.6162H47.3942L45.692 30.9238H44.7942L44.9224 29.4897ZM43.7099 24.6162L45.1498 29.4664L45.3305 30.9238H44.526L43.0395 26.0794L42.7946 24.6162H43.7099ZM51.3176 31.0404C50.8512 31.0404 50.4295 30.9646 50.0525 30.8131C49.6794 30.6576 49.3607 30.4419 49.0965 30.166C48.8361 29.89 48.6359 29.5655 48.496 29.1924C48.3561 28.8193 48.2861 28.4171 48.2861 27.9857V27.7525C48.2861 27.2589 48.358 26.812 48.5018 26.4117C48.6456 26.0114 48.8458 25.6694 49.1023 25.3857C49.3588 25.0981 49.6619 24.8785 50.0117 24.7269C50.3615 24.5754 50.7404 24.4996 51.1485 24.4996C51.5993 24.4996 51.9938 24.5754 52.3319 24.7269C52.67 24.8785 52.9498 25.0923 53.1714 25.3682C53.3968 25.6402 53.5639 25.9648 53.6727 26.3417C53.7854 26.7187 53.8418 27.1346 53.8418 27.5893V28.1897H48.9682V27.1812H52.4543V27.0704C52.4466 26.8178 52.396 26.5808 52.3028 26.3592C52.2134 26.1377 52.0754 25.9589 51.8889 25.8229C51.7023 25.6869 51.4536 25.6189 51.1427 25.6189C50.9095 25.6189 50.7016 25.6694 50.5189 25.7704C50.3401 25.8676 50.1905 26.0094 50.07 26.196C49.9495 26.3825 49.8563 26.608 49.7902 26.8722C49.728 27.1326 49.6969 27.426 49.6969 27.7525V27.9857C49.6969 28.2616 49.7338 28.5181 49.8077 28.7552C49.8854 28.9884 49.9981 29.1924 50.1458 29.3673C50.2935 29.5422 50.4723 29.6802 50.6821 29.7812C50.892 29.8784 51.131 29.927 51.3992 29.927C51.7373 29.927 52.0385 29.8589 52.3028 29.7229C52.567 29.5869 52.7963 29.3945 52.9907 29.1458L53.731 29.8628C53.595 30.061 53.4182 30.2515 53.2005 30.4341C52.9829 30.6129 52.7167 30.7587 52.4019 30.8714C52.091 30.9841 51.7295 31.0404 51.3176 31.0404ZM56.5351 25.8171V30.9238H55.1301V24.6162H56.4709L56.5351 25.8171ZM58.4647 24.5754L58.453 25.8812C58.3675 25.8657 58.2742 25.854 58.1732 25.8462C58.076 25.8384 57.9789 25.8346 57.8817 25.8346C57.6408 25.8346 57.429 25.8695 57.2463 25.9395C57.0636 26.0056 56.9101 26.1027 56.7857 26.231C56.6653 26.3553 56.572 26.5069 56.5059 26.6857C56.4399 26.8645 56.401 27.0646 56.3893 27.2861L56.0687 27.3095C56.0687 26.913 56.1076 26.5458 56.1853 26.2077C56.263 25.8695 56.3796 25.5722 56.5351 25.3157C56.6944 25.0592 56.8926 24.8591 57.1297 24.7153C57.3707 24.5715 57.6485 24.4996 57.9633 24.4996C58.0488 24.4996 58.1402 24.5073 58.2373 24.5229C58.3384 24.5384 58.4142 24.5559 58.4647 24.5754Z" fill="black" fill-opacity="0.87"/>
<g filter="url(#filter1_d_4488_88106)">
<path d="M120.708 89.9772C120.708 112.849 102.333 131.391 79.6671 131.391C57.001 131.391 38.6265 112.849 38.6265 89.9772C38.6265 67.105 57.001 48.5635 79.6671 48.5635C102.333 48.5635 120.708 67.105 120.708 89.9772Z" fill="url(#paint0_linear_4488_88106)"/>
</g>
<path d="M109.515 89.9775C109.515 106.894 95.964 120.571 79.2938 120.571C62.6236 120.571 49.073 106.894 49.073 89.9775C49.073 73.0605 62.6236 59.3835 79.2938 59.3835C95.964 59.3835 109.515 73.0605 109.515 89.9775Z" fill="#3F52DD" stroke="white" stroke-width="3.73096"/>
<path d="M78.0294 91.0495V91.6026C78.0294 92.4896 77.9091 93.2859 77.6687 93.9913C77.4282 94.6966 77.0888 95.2978 76.6507 95.7948C76.2125 96.2864 75.6888 96.6632 75.0796 96.925C74.4757 97.1869 73.8051 97.3178 73.0676 97.3178C72.3355 97.3178 71.6649 97.1869 71.0557 96.925C70.4518 96.6632 69.9281 96.2864 69.4846 95.7948C69.041 95.2978 68.6964 94.6966 68.4505 93.9913C68.2101 93.2859 68.0898 92.4896 68.0898 91.6026V91.0495C68.0898 90.1571 68.2101 89.3608 68.4505 88.6608C68.691 87.9554 69.0304 87.3542 69.4685 86.8572C69.9121 86.3603 70.4358 85.9809 71.0396 85.719C71.6488 85.4572 72.3195 85.3262 73.0516 85.3262C73.789 85.3262 74.4597 85.4572 75.0635 85.719C75.6727 85.9809 76.1964 86.3603 76.6346 86.8572C77.0782 87.3542 77.4202 87.9554 77.6606 88.6608C77.9065 89.3608 78.0294 90.1571 78.0294 91.0495ZM75.6006 91.6026V91.0334C75.6006 90.4136 75.5445 89.8685 75.4323 89.3982C75.32 88.928 75.1544 88.5325 74.9353 88.2119C74.7162 87.8913 74.449 87.6508 74.1337 87.4905C73.8184 87.3248 73.4577 87.242 73.0516 87.242C72.6455 87.242 72.2847 87.3248 71.9695 87.4905C71.6595 87.6508 71.395 87.8913 71.1759 88.2119C70.9621 88.5325 70.7992 88.928 70.6869 89.3982C70.5747 89.8685 70.5186 90.4136 70.5186 91.0334V91.6026C70.5186 92.2171 70.5747 92.7622 70.6869 93.2378C70.7992 93.708 70.9648 94.1061 71.1839 94.4321C71.403 94.7527 71.6702 94.9959 71.9855 95.1616C72.3008 95.3272 72.6615 95.41 73.0676 95.41C73.4737 95.41 73.8345 95.3272 74.1497 95.1616C74.465 94.9959 74.7295 94.7527 74.9433 94.4321C75.1571 94.1061 75.32 93.708 75.4323 93.2378C75.5445 92.7622 75.6006 92.2171 75.6006 91.6026ZM89.2594 85.4865V97.1575H86.8547L82.1655 89.3341V97.1575H79.7608V85.4865H82.1655L86.8627 93.3179V85.4865H89.2594Z" fill="white"/>
</g>
<defs>
<filter id="filter0_d_4488_88106" x="0.197449" y="0.0152285" width="158.939" height="158.939" filterUnits="userSpaceOnUse" color-interpolation-filters="sRGB">
<feFlood flood-opacity="0" result="BackgroundImageFix"/>
<feColorMatrix in="SourceAlpha" type="matrix" values="0 0 0 0 0 0 0 0 0 0 0 0 0 0 0 0 0 0 127 0" result="hardAlpha"/>
<feOffset dy="2.98477"/>
<feGaussianBlur stdDeviation="2.98477"/>
<feComposite in2="hardAlpha" operator="out"/>
<feColorMatrix type="matrix" values="0 0 0 0 0 0 0 0 0 0 0 0 0 0 0 0 0 0 0.04 0"/>
<feBlend mode="normal" in2="BackgroundImageFix" result="effect1_dropShadow_4488_88106"/>
<feBlend mode="normal" in="SourceGraphic" in2="effect1_dropShadow_4488_88106" result="shape"/>
</filter>
<filter id="filter1_d_4488_88106" x="32.6569" y="45.5787" width="94.0201" height="94.7665" filterUnits="userSpaceOnUse" color-interpolation-filters="sRGB">
<feFlood flood-opacity="0" result="BackgroundImageFix"/>
<feColorMatrix in="SourceAlpha" type="matrix" values="0 0 0 0 0 0 0 0 0 0 0 0 0 0 0 0 0 0 127 0" result="hardAlpha"/>
<feOffset dy="2.98477"/>
<feGaussianBlur stdDeviation="2.98477"/>
<feComposite in2="hardAlpha" operator="out"/>
<feColorMatrix type="matrix" values="0 0 0 0 0 0 0 0 0 0 0 0 0 0 0 0 0 0 0.08 0"/>
<feBlend mode="normal" in2="BackgroundImageFix" result="effect1_dropShadow_4488_88106"/>
<feBlend mode="normal" in="SourceGraphic" in2="effect1_dropShadow_4488_88106" result="shape"/>
</filter>
<linearGradient id="paint0_linear_4488_88106" x1="54.8948" y1="123.183" x2="102.789" y2="56.8087" gradientUnits="userSpaceOnUse">
<stop stop-color="#CCCCCC"/>
<stop offset="1" stop-color="white"/>
</linearGradient>
</defs>
</svg>
