<svg width="160" height="159" viewBox="0 0 160 159" fill="none" xmlns="http://www.w3.org/2000/svg">
<g filter="url(#filter0_d_4488_88089)">
<rect x="6.5" y="3" width="147" height="147" rx="2.98477" fill="white" shape-rendering="crispEdges"/>
<path d="M28.4953 27.7583H26.2858V26.5982H28.4953C28.88 26.5982 29.1909 26.5361 29.428 26.4117C29.6651 26.2873 29.838 26.1163 29.9468 25.8987C30.0595 25.6772 30.1159 25.4245 30.1159 25.1408C30.1159 24.8727 30.0595 24.622 29.9468 24.3888C29.838 24.1517 29.6651 23.9613 29.428 23.8175C29.1909 23.6737 28.88 23.6018 28.4953 23.6018H26.7347V30.9238H25.2715V22.4359H28.4953C29.1521 22.4359 29.7098 22.5525 30.1684 22.7857C30.6309 23.015 30.9826 23.3336 31.2235 23.7417C31.4645 24.1459 31.585 24.6084 31.585 25.1292C31.585 25.6772 31.4645 26.1474 31.2235 26.5399C30.9826 26.9325 30.6309 27.2337 30.1684 27.4435C29.7098 27.6534 29.1521 27.7583 28.4953 27.7583ZM32.5935 27.84V27.7059C32.5935 27.2512 32.6596 26.8295 32.7917 26.4408C32.9238 26.0483 33.1143 25.7083 33.363 25.4207C33.6156 25.1292 33.9227 24.9038 34.2841 24.7444C34.6494 24.5812 35.0614 24.4996 35.52 24.4996C35.9825 24.4996 36.3944 24.5812 36.7559 24.7444C37.1212 24.9038 37.4301 25.1292 37.6828 25.4207C37.9354 25.7083 38.1278 26.0483 38.2599 26.4408C38.392 26.8295 38.4581 27.2512 38.4581 27.7059V27.84C38.4581 28.2947 38.392 28.7163 38.2599 29.105C38.1278 29.4936 37.9354 29.8337 37.6828 30.1252C37.4301 30.4128 37.1231 30.6382 36.7617 30.8014C36.4002 30.9607 35.9902 31.0404 35.5316 31.0404C35.0691 31.0404 34.6552 30.9607 34.2899 30.8014C33.9285 30.6382 33.6215 30.4128 33.3688 30.1252C33.1162 29.8337 32.9238 29.4936 32.7917 29.105C32.6596 28.7163 32.5935 28.2947 32.5935 27.84ZM33.9984 27.7059V27.84C33.9984 28.1237 34.0276 28.3918 34.0859 28.6444C34.1442 28.8971 34.2355 29.1186 34.3599 29.309C34.4842 29.4995 34.6436 29.6491 34.8379 29.7579C35.0322 29.8667 35.2635 29.9211 35.5316 29.9211C35.792 29.9211 36.0174 29.8667 36.2079 29.7579C36.4022 29.6491 36.5615 29.4995 36.6859 29.309C36.8103 29.1186 36.9016 28.8971 36.9599 28.6444C37.0221 28.3918 37.0532 28.1237 37.0532 27.84V27.7059C37.0532 27.426 37.0221 27.1618 36.9599 26.913C36.9016 26.6604 36.8083 26.437 36.6801 26.2426C36.5557 26.0483 36.3964 25.8967 36.202 25.7879C36.0116 25.6752 35.7842 25.6189 35.52 25.6189C35.2557 25.6189 35.0264 25.6752 34.8321 25.7879C34.6416 25.8967 34.4842 26.0483 34.3599 26.2426C34.2355 26.437 34.1442 26.6604 34.0859 26.913C34.0276 27.1618 33.9984 27.426 33.9984 27.7059ZM41.5361 29.5247L42.9936 24.6162H43.8913L43.6465 26.0852L42.1774 30.9238H41.3729L41.5361 29.5247ZM40.6792 24.6162L41.816 29.548L41.9092 30.9238H41.0115L39.3034 24.6162H40.6792ZM45.2555 29.4897L46.3573 24.6162H47.7272L46.025 30.9238H45.1272L45.2555 29.4897ZM44.0429 24.6162L45.4828 29.4664L45.6635 30.9238H44.859L43.3725 26.0794L43.1276 24.6162H44.0429ZM51.6506 31.0404C51.1842 31.0404 50.7625 30.9646 50.3855 30.8131C50.0124 30.6576 49.6937 30.4419 49.4295 30.166C49.1691 29.89 48.9689 29.5655 48.829 29.1924C48.6891 28.8193 48.6192 28.4171 48.6192 27.9857V27.7525C48.6192 27.2589 48.6911 26.812 48.8348 26.4117C48.9786 26.0114 49.1788 25.6694 49.4353 25.3857C49.6918 25.0981 49.9949 24.8785 50.3447 24.7269C50.6945 24.5754 51.0734 24.4996 51.4815 24.4996C51.9323 24.4996 52.3268 24.5754 52.6649 24.7269C53.003 24.8785 53.2829 25.0923 53.5044 25.3682C53.7298 25.6402 53.8969 25.9648 54.0057 26.3417C54.1184 26.7187 54.1748 27.1346 54.1748 27.5893V28.1897H49.3012V27.1812H52.7873V27.0704C52.7796 26.8178 52.729 26.5808 52.6358 26.3592C52.5464 26.1377 52.4084 25.9589 52.2219 25.8229C52.0353 25.6869 51.7866 25.6189 51.4757 25.6189C51.2425 25.6189 51.0346 25.6694 50.8519 25.7704C50.6731 25.8676 50.5235 26.0094 50.403 26.196C50.2825 26.3825 50.1893 26.608 50.1232 26.8722C50.061 27.1326 50.0299 27.426 50.0299 27.7525V27.9857C50.0299 28.2616 50.0668 28.5181 50.1407 28.7552C50.2184 28.9884 50.3311 29.1924 50.4788 29.3673C50.6265 29.5422 50.8053 29.6802 51.0151 29.7812C51.225 29.8784 51.464 29.927 51.7322 29.927C52.0703 29.927 52.3715 29.8589 52.6358 29.7229C52.9 29.5869 53.1293 29.3945 53.3237 29.1458L54.064 29.8628C53.928 30.061 53.7512 30.2515 53.5335 30.4341C53.3159 30.6129 53.0497 30.7587 52.7349 30.8714C52.424 30.9841 52.0625 31.0404 51.6506 31.0404ZM56.8681 25.8171V30.9238H55.4631V24.6162H56.804L56.8681 25.8171ZM58.7977 24.5754L58.786 25.8812C58.7005 25.8657 58.6073 25.854 58.5062 25.8462C58.409 25.8384 58.3119 25.8346 58.2147 25.8346C57.9738 25.8346 57.762 25.8695 57.5793 25.9395C57.3966 26.0056 57.2431 26.1027 57.1188 26.231C56.9983 26.3553 56.905 26.5069 56.8389 26.6857C56.7729 26.8645 56.734 27.0646 56.7223 27.2861L56.4017 27.3095C56.4017 26.913 56.4406 26.5458 56.5183 26.2077C56.596 25.8695 56.7126 25.5722 56.8681 25.3157C57.0274 25.0592 57.2256 24.8591 57.4627 24.7153C57.7037 24.5715 57.9815 24.4996 58.2963 24.4996C58.3818 24.4996 58.4732 24.5073 58.5703 24.5229C58.6714 24.5384 58.7472 24.5559 58.7977 24.5754Z" fill="black" fill-opacity="0.87"/>
<g filter="url(#filter1_i_4488_88089)">
<path d="M121.041 89.9772C121.041 112.849 102.666 131.391 80.0001 131.391C57.334 131.391 38.9595 112.849 38.9595 89.9772C38.9595 67.105 57.334 48.5635 80.0001 48.5635C102.666 48.5635 121.041 67.105 121.041 89.9772Z" fill="white"/>
</g>
<path d="M120.295 89.9772C120.295 112.444 102.248 130.645 80.0001 130.645C57.7524 130.645 39.7057 112.444 39.7057 89.9772C39.7057 67.5108 57.7524 49.3097 80.0001 49.3097C102.248 49.3097 120.295 67.5108 120.295 89.9772Z" stroke="#FAFAFA" stroke-width="1.49239"/>
<path d="M78.9406 89.5089V90.1502C78.9406 91.0319 78.8257 91.8228 78.5959 92.5229C78.3662 93.2229 78.0375 93.8187 77.61 94.3104C77.1878 94.802 76.6802 95.1788 76.087 95.4406C75.4938 95.6971 74.8366 95.8254 74.1151 95.8254C73.3991 95.8254 72.7444 95.6971 72.1513 95.4406C71.5635 95.1788 71.0531 94.802 70.6203 94.3104C70.1874 93.8187 69.8508 93.2229 69.6103 92.5229C69.3752 91.8228 69.2576 91.0319 69.2576 90.1502V89.5089C69.2576 88.6272 69.3752 87.839 69.6103 87.1443C69.8454 86.4443 70.1767 85.8484 70.6042 85.3568C71.0371 84.8598 71.5474 84.4831 72.1353 84.2266C72.7284 83.9647 73.383 83.8338 74.0991 83.8338C74.8205 83.8338 75.4778 83.9647 76.071 84.2266C76.6641 84.4831 77.1745 84.8598 77.602 85.3568C78.0295 85.8484 78.3581 86.4443 78.5879 87.1443C78.8231 87.839 78.9406 88.6272 78.9406 89.5089ZM76.9287 90.1502V89.4929C76.9287 88.841 76.8645 88.2665 76.7363 87.7695C76.6134 87.2672 76.429 86.8477 76.1832 86.5111C75.9427 86.1691 75.6461 85.9126 75.2935 85.7415C74.9408 85.5652 74.5426 85.477 74.0991 85.477C73.6556 85.477 73.2601 85.5652 72.9128 85.7415C72.5654 85.9126 72.2688 86.1691 72.023 86.5111C71.7826 86.8477 71.5982 87.2672 71.4699 87.7695C71.3417 88.2665 71.2776 88.841 71.2776 89.4929V90.1502C71.2776 90.8022 71.3417 91.3793 71.4699 91.8816C71.5982 92.3839 71.7852 92.8088 72.031 93.1561C72.2822 93.4981 72.5815 93.7573 72.9288 93.9336C73.2762 94.1046 73.6716 94.1901 74.1151 94.1901C74.564 94.1901 74.9621 94.1046 75.3095 93.9336C75.6568 93.7573 75.9507 93.4981 76.1912 93.1561C76.4317 92.8088 76.6134 92.3839 76.7363 91.8816C76.8645 91.3793 76.9287 90.8022 76.9287 90.1502ZM90.2108 83.9941V95.665H88.1988L82.9645 87.3046V95.665H80.9526V83.9941H82.9645L88.2148 92.3706V83.9941H90.2108Z" fill="#3F52DD"/>
</g>
<defs>
<filter id="filter0_d_4488_88089" x="0.530457" y="0.0152285" width="158.939" height="158.939" filterUnits="userSpaceOnUse" color-interpolation-filters="sRGB">
<feFlood flood-opacity="0" result="BackgroundImageFix"/>
<feColorMatrix in="SourceAlpha" type="matrix" values="0 0 0 0 0 0 0 0 0 0 0 0 0 0 0 0 0 0 127 0" result="hardAlpha"/>
<feOffset dy="2.98477"/>
<feGaussianBlur stdDeviation="2.98477"/>
<feComposite in2="hardAlpha" operator="out"/>
<feColorMatrix type="matrix" values="0 0 0 0 0 0 0 0 0 0 0 0 0 0 0 0 0 0 0.04 0"/>
<feBlend mode="normal" in2="BackgroundImageFix" result="effect1_dropShadow_4488_88089"/>
<feBlend mode="normal" in="SourceGraphic" in2="effect1_dropShadow_4488_88089" result="shape"/>
</filter>
<filter id="filter1_i_4488_88089" x="38.9595" y="48.5635" width="85.812" height="86.5584" filterUnits="userSpaceOnUse" color-interpolation-filters="sRGB">
<feFlood flood-opacity="0" result="BackgroundImageFix"/>
<feBlend mode="normal" in="SourceGraphic" in2="BackgroundImageFix" result="shape"/>
<feColorMatrix in="SourceAlpha" type="matrix" values="0 0 0 0 0 0 0 0 0 0 0 0 0 0 0 0 0 0 127 0" result="hardAlpha"/>
<feOffset dx="3.73096" dy="3.73096"/>
<feGaussianBlur stdDeviation="2.98477"/>
<feComposite in2="hardAlpha" operator="arithmetic" k2="-1" k3="1"/>
<feColorMatrix type="matrix" values="0 0 0 0 0 0 0 0 0 0 0 0 0 0 0 0 0 0 0.1 0"/>
<feBlend mode="normal" in2="shape" result="effect1_innerShadow_4488_88089"/>
</filter>
</defs>
</svg>
