<svg width="160" height="159" viewBox="0 0 160 159" fill="none" xmlns="http://www.w3.org/2000/svg">
<g filter="url(#filter0_d_4488_87655)">
<rect x="6.5" y="3" width="147" height="147" rx="2.98477" fill="white" shape-rendering="crispEdges"/>
<path d="M28.4953 27.7583H26.2858V26.5982H28.4953C28.88 26.5982 29.1909 26.5361 29.428 26.4117C29.6651 26.2873 29.838 26.1163 29.9468 25.8987C30.0595 25.6772 30.1159 25.4245 30.1159 25.1408C30.1159 24.8727 30.0595 24.622 29.9468 24.3888C29.838 24.1517 29.6651 23.9613 29.428 23.8175C29.1909 23.6737 28.88 23.6018 28.4953 23.6018H26.7347V30.9238H25.2715V22.4359H28.4953C29.1521 22.4359 29.7098 22.5525 30.1684 22.7857C30.6309 23.015 30.9826 23.3336 31.2235 23.7417C31.4645 24.1459 31.585 24.6084 31.585 25.1292C31.585 25.6772 31.4645 26.1474 31.2235 26.5399C30.9826 26.9325 30.6309 27.2337 30.1684 27.4435C29.7098 27.6534 29.1521 27.7583 28.4953 27.7583ZM32.5935 27.84V27.7059C32.5935 27.2512 32.6596 26.8295 32.7917 26.4408C32.9238 26.0483 33.1143 25.7083 33.363 25.4207C33.6156 25.1292 33.9227 24.9038 34.2841 24.7444C34.6494 24.5812 35.0614 24.4996 35.52 24.4996C35.9825 24.4996 36.3944 24.5812 36.7559 24.7444C37.1212 24.9038 37.4301 25.1292 37.6828 25.4207C37.9354 25.7083 38.1278 26.0483 38.2599 26.4408C38.392 26.8295 38.4581 27.2512 38.4581 27.7059V27.84C38.4581 28.2947 38.392 28.7163 38.2599 29.105C38.1278 29.4936 37.9354 29.8337 37.6828 30.1252C37.4301 30.4128 37.1231 30.6382 36.7617 30.8014C36.4002 30.9607 35.9902 31.0404 35.5316 31.0404C35.0691 31.0404 34.6552 30.9607 34.2899 30.8014C33.9285 30.6382 33.6215 30.4128 33.3688 30.1252C33.1162 29.8337 32.9238 29.4936 32.7917 29.105C32.6596 28.7163 32.5935 28.2947 32.5935 27.84ZM33.9984 27.7059V27.84C33.9984 28.1237 34.0276 28.3918 34.0859 28.6444C34.1442 28.8971 34.2355 29.1186 34.3599 29.309C34.4842 29.4995 34.6436 29.6491 34.8379 29.7579C35.0322 29.8667 35.2635 29.9211 35.5316 29.9211C35.792 29.9211 36.0174 29.8667 36.2079 29.7579C36.4022 29.6491 36.5615 29.4995 36.6859 29.309C36.8103 29.1186 36.9016 28.8971 36.9599 28.6444C37.0221 28.3918 37.0532 28.1237 37.0532 27.84V27.7059C37.0532 27.426 37.0221 27.1618 36.9599 26.913C36.9016 26.6604 36.8083 26.437 36.6801 26.2426C36.5557 26.0483 36.3964 25.8967 36.202 25.7879C36.0116 25.6752 35.7842 25.6189 35.52 25.6189C35.2557 25.6189 35.0264 25.6752 34.8321 25.7879C34.6416 25.8967 34.4842 26.0483 34.3599 26.2426C34.2355 26.437 34.1442 26.6604 34.0859 26.913C34.0276 27.1618 33.9984 27.426 33.9984 27.7059ZM41.5361 29.5247L42.9936 24.6162H43.8913L43.6465 26.0852L42.1774 30.9238H41.3729L41.5361 29.5247ZM40.6792 24.6162L41.816 29.548L41.9092 30.9238H41.0115L39.3034 24.6162H40.6792ZM45.2555 29.4897L46.3573 24.6162H47.7272L46.025 30.9238H45.1272L45.2555 29.4897ZM44.0429 24.6162L45.4828 29.4664L45.6635 30.9238H44.859L43.3725 26.0794L43.1276 24.6162H44.0429ZM51.6506 31.0404C51.1842 31.0404 50.7625 30.9646 50.3855 30.8131C50.0124 30.6576 49.6937 30.4419 49.4295 30.166C49.1691 29.89 48.9689 29.5655 48.829 29.1924C48.6891 28.8193 48.6192 28.4171 48.6192 27.9857V27.7525C48.6192 27.2589 48.6911 26.812 48.8348 26.4117C48.9786 26.0114 49.1788 25.6694 49.4353 25.3857C49.6918 25.0981 49.9949 24.8785 50.3447 24.7269C50.6945 24.5754 51.0734 24.4996 51.4815 24.4996C51.9323 24.4996 52.3268 24.5754 52.6649 24.7269C53.003 24.8785 53.2829 25.0923 53.5044 25.3682C53.7298 25.6402 53.8969 25.9648 54.0057 26.3417C54.1184 26.7187 54.1748 27.1346 54.1748 27.5893V28.1897H49.3012V27.1812H52.7873V27.0704C52.7796 26.8178 52.729 26.5808 52.6358 26.3592C52.5464 26.1377 52.4084 25.9589 52.2219 25.8229C52.0353 25.6869 51.7866 25.6189 51.4757 25.6189C51.2425 25.6189 51.0346 25.6694 50.8519 25.7704C50.6731 25.8676 50.5235 26.0094 50.403 26.196C50.2825 26.3825 50.1893 26.608 50.1232 26.8722C50.061 27.1326 50.0299 27.426 50.0299 27.7525V27.9857C50.0299 28.2616 50.0668 28.5181 50.1407 28.7552C50.2184 28.9884 50.3311 29.1924 50.4788 29.3673C50.6265 29.5422 50.8053 29.6802 51.0151 29.7812C51.225 29.8784 51.464 29.927 51.7322 29.927C52.0703 29.927 52.3715 29.8589 52.6358 29.7229C52.9 29.5869 53.1293 29.3945 53.3237 29.1458L54.064 29.8628C53.928 30.061 53.7512 30.2515 53.5335 30.4341C53.3159 30.6129 53.0497 30.7587 52.7349 30.8714C52.424 30.9841 52.0625 31.0404 51.6506 31.0404ZM56.8681 25.8171V30.9238H55.4631V24.6162H56.804L56.8681 25.8171ZM58.7977 24.5754L58.786 25.8812C58.7005 25.8657 58.6073 25.854 58.5062 25.8462C58.409 25.8384 58.3119 25.8346 58.2147 25.8346C57.9738 25.8346 57.762 25.8695 57.5793 25.9395C57.3966 26.0056 57.2431 26.1027 57.1188 26.231C56.9983 26.3553 56.905 26.5069 56.8389 26.6857C56.7729 26.8645 56.734 27.0646 56.7223 27.2861L56.4017 27.3095C56.4017 26.913 56.4406 26.5458 56.5183 26.2077C56.596 25.8695 56.7126 25.5722 56.8681 25.3157C57.0274 25.0592 57.2256 24.8591 57.4627 24.7153C57.7037 24.5715 57.9815 24.4996 58.2963 24.4996C58.3818 24.4996 58.4732 24.5073 58.5703 24.5229C58.6714 24.5384 58.7472 24.5559 58.7977 24.5754Z" fill="black" fill-opacity="0.87"/>
<path d="M122.16 89.9773C122.16 113.262 103.285 132.137 80.0002 132.137C56.716 132.137 37.8403 113.262 37.8403 89.9773C37.8403 66.693 56.716 47.8174 80.0002 47.8174C103.285 47.8174 122.16 66.693 122.16 89.9773Z" fill="#3F52DD"/>
<path d="M78.9401 88.7629V89.4041C78.9401 90.2858 78.8252 91.0767 78.5955 91.7768C78.3657 92.4768 78.037 93.0727 77.6095 93.5643C77.1874 94.0559 76.6797 94.4327 76.0865 94.6945C75.4934 94.951 74.8361 95.0793 74.1147 95.0793C73.3986 95.0793 72.744 94.951 72.1508 94.6945C71.563 94.4327 71.0526 94.0559 70.6198 93.5643C70.1869 93.0727 69.8503 92.4768 69.6098 91.7768C69.3747 91.0767 69.2571 90.2858 69.2571 89.4041V88.7629C69.2571 87.8811 69.3747 87.0929 69.6098 86.3982C69.8449 85.6982 70.1762 85.1023 70.6038 84.6107C71.0366 84.1137 71.5469 83.737 72.1348 83.4805C72.7279 83.2186 73.3825 83.0877 74.0986 83.0877C74.82 83.0877 75.4773 83.2186 76.0705 83.4805C76.6637 83.737 77.174 84.1137 77.6015 84.6107C78.029 85.1023 78.3577 85.6982 78.5874 86.3982C78.8226 87.0929 78.9401 87.8811 78.9401 88.7629ZM76.9282 89.4041V88.7468C76.9282 88.0949 76.8641 87.5204 76.7358 87.0234C76.6129 86.5211 76.4285 86.1016 76.1827 85.765C75.9422 85.423 75.6457 85.1665 75.293 84.9955C74.9403 84.8191 74.5422 84.7309 74.0986 84.7309C73.6551 84.7309 73.2596 84.8191 72.9123 84.9955C72.5649 85.1665 72.2684 85.423 72.0225 85.765C71.7821 86.1016 71.5977 86.5211 71.4695 87.0234C71.3412 87.5204 71.2771 88.0949 71.2771 88.7468V89.4041C71.2771 90.0561 71.3412 90.6332 71.4695 91.1355C71.5977 91.6378 71.7847 92.0627 72.0306 92.41C72.2817 92.752 72.581 93.0112 72.9283 93.1875C73.2757 93.3585 73.6711 93.444 74.1147 93.444C74.5635 93.444 74.9616 93.3585 75.309 93.1875C75.6563 93.0112 75.9503 92.752 76.1907 92.41C76.4312 92.0627 76.6129 91.6378 76.7358 91.1355C76.8641 90.6332 76.9282 90.0561 76.9282 89.4041ZM90.2103 83.248V94.9189H88.1983L82.964 86.5585V94.9189H80.9521V83.248H82.964L88.2143 91.6245V83.248H90.2103Z" fill="white"/>
</g>
<defs>
<filter id="filter0_d_4488_87655" x="0.530457" y="0.0152285" width="158.939" height="158.939" filterUnits="userSpaceOnUse" color-interpolation-filters="sRGB">
<feFlood flood-opacity="0" result="BackgroundImageFix"/>
<feColorMatrix in="SourceAlpha" type="matrix" values="0 0 0 0 0 0 0 0 0 0 0 0 0 0 0 0 0 0 127 0" result="hardAlpha"/>
<feOffset dy="2.98477"/>
<feGaussianBlur stdDeviation="2.98477"/>
<feComposite in2="hardAlpha" operator="out"/>
<feColorMatrix type="matrix" values="0 0 0 0 0 0 0 0 0 0 0 0 0 0 0 0 0 0 0.04 0"/>
<feBlend mode="normal" in2="BackgroundImageFix" result="effect1_dropShadow_4488_87655"/>
<feBlend mode="normal" in="SourceGraphic" in2="effect1_dropShadow_4488_87655" result="shape"/>
</filter>
</defs>
</svg>
