<svg width="18" height="18" viewBox="0 0 18 18" fill="none" xmlns="http://www.w3.org/2000/svg">
<path d="M3 0C1.34315 0 0 1.34315 0 3V13H2V3C2 2.44772 2.44772 2 3 2H13V0H3Z" fill="black"/>
<path fill-rule="evenodd" clip-rule="evenodd" d="M6 3C4.34315 3 3 4.34315 3 6V14C3 15.6569 4.34315 17 6 17H14C15.6569 17 17 15.6569 17 14V6C17 4.34315 15.6569 3 14 3H6ZM5 6C5 5.44772 5.44772 5 6 5H14C14.5523 5 15 5.44772 15 6V14C15 14.5523 14.5523 15 14 15H6C5.44772 15 5 14.5523 5 14V6Z" fill="black"/>
</svg>
