<svg width="25" height="24" xmlns="http://www.w3.org/2000/svg"><g clip-path="url(#a)"><path d="M11.75 3a.25.25 0 0 0-.25.25v1.5c0 .138.112.25.25.25h1.5a.25.25 0 0 0 .25-.25v-1.5a.25.25 0 0 0-.25-.25h-1.5Zm-6 3a.25.25 0 0 0-.25.25v1.5c0 .138.112.25.25.25h1.5a.25.25 0 0 0 .25-.25v-1.5A.25.25 0 0 0 7.25 6h-1.5Zm3 0a.25.25 0 0 0-.25.25v1.5c0 .138.112.25.25.25h1.5a.25.25 0 0 0 .25-.25v-1.5a.25.25 0 0 0-.25-.25h-1.5Zm3 0a.25.25 0 0 0-.25.25v1.5c0 .138.112.25.25.25h1.5a.25.25 0 0 0 .25-.25v-1.5a.25.25 0 0 0-.25-.25h-1.5Zm7.49 1.15-.227.326c-.284.437-.49.918-.612 1.423-.23.967-.09 1.874.403 2.65-.596.33-1.611.444-1.804.451H1.5a1 1 0 0 0-1 1c0 1 .217 2.462.693 3.758.545 1.422 1.356 2.47 2.41 3.11 1.18.72 3.1 1.132 5.275 1.132.982.003 1.964-.086 2.93-.265a12.277 12.277 0 0 0 3.823-1.383 10.513 10.513 0 0 0 2.61-2.126c1.252-1.412 1.998-2.985 2.553-4.382l.007-.004c1.498.06 2.405-.519 2.894-1 .31-.292.55-.649.707-1.043l.098-.286-.236-.186c-.065-.051-.673-.509-1.954-.509-.339.002-.677.031-1.01.087-.248-1.692-1.653-2.518-1.716-2.555l-.345-.198ZM2.75 9a.25.25 0 0 0-.25.25v1.5c0 .138.112.25.25.25h1.5a.25.25 0 0 0 .25-.25v-1.5A.25.25 0 0 0 4.25 9h-1.5Zm3 0a.25.25 0 0 0-.25.25v1.5c0 .138.112.25.25.25h1.5a.25.25 0 0 0 .25-.25v-1.5A.25.25 0 0 0 7.25 9h-1.5Zm3 0a.25.25 0 0 0-.25.25v1.5c0 .138.112.25.25.25h1.5a.25.25 0 0 0 .25-.25v-1.5a.25.25 0 0 0-.25-.25h-1.5Zm3 0a.25.25 0 0 0-.25.25v1.5c0 .138.112.25.25.25h1.5a.25.25 0 0 0 .25-.25v-1.5a.25.25 0 0 0-.25-.25h-1.5Zm3 0a.25.25 0 0 0-.25.25v1.5c0 .138.112.25.25.25h1.5a.25.25 0 0 0 .25-.25v-1.5a.25.25 0 0 0-.25-.25h-1.5Z" fill="currentColor" /></g><defs><clipPath id="a"><path fill="currentColor" d="M.5 0h24v24H.5z"/></clipPath></defs></svg>
