<svg xmlns="http://www.w3.org/2000/svg" width="140" height="140" viewBox="0 0 140 140" fill="none">
  <g clip-path="url(#clip0_13185_50044)">
    <path opacity="0.04" fill-rule="evenodd" clip-rule="evenodd" d="M102.271 129.383C86.4025 136.01 69.2411 130.203 52.8508 125.028C36.2959 119.802 17.7835 115.275 9.42417 100.07C0.9147 84.5925 1.6114 64.0191 11.1144 49.1143C19.4626 36.0208 38.857 39.4065 52.6528 32.2694C66.601 25.0534 75.3719 5.2002 90.8419 7.86788C106.558 10.578 111.71 29.9276 119.548 43.8049C127.943 58.6713 140.512 73.089 137.132 89.8316C133.518 107.731 119.131 122.342 102.271 129.383Z" fill="#305680"/>
    <path d="M125.137 21.6824L122.365 25.7374C122.001 26.2698 121.172 26.0687 121.093 25.4288L120.236 18.5327C109.745 31.9955 93.1047 49.4609 73.2087 61.1045C39.4675 80.8506 24.7349 82.2084 17.5 83.3C26.5436 81.9355 55.1215 71.2926 76.8262 55.6465C91.6577 44.9551 108.298 25.8099 115.895 16.3495L108.955 17.5129C108.329 17.6178 107.898 16.9037 108.282 16.3989L111.746 11.8419C111.855 11.699 112.014 11.6033 112.191 11.5745L122.455 9.9095C122.83 9.84861 123.185 10.0984 123.255 10.4722L125.247 21.1591C125.281 21.3413 125.241 21.5295 125.137 21.6824Z" fill="#305680"/>
    <path fill-rule="evenodd" clip-rule="evenodd" d="M17.7541 109.935C17.5926 109.803 17.5 109.605 17.5 109.397V95.0984C17.5 94.7523 17.7529 94.4584 18.0949 94.4052C22.6363 93.6985 27.0488 92.8106 31.3297 91.7665C31.7721 91.6586 32.2 91.9927 32.2 92.4481V117.07C32.2 117.568 31.6956 117.906 31.2373 117.713C26.3129 115.632 21.7004 113.15 17.7541 109.935ZM39.675 120.867C39.3909 120.771 39.2 120.505 39.2 120.205V90.1542C39.2 89.8448 39.4032 89.5723 39.6994 89.4827C44.279 88.098 48.6919 86.5389 52.9345 84.8406C53.3961 84.6558 53.9 84.9947 53.9 85.4919V124.404C53.9 124.877 53.4401 125.214 52.9888 125.072C52.9428 125.057 52.8967 125.043 52.8507 125.028C51.4223 124.577 49.9792 124.131 48.5294 123.683C45.5842 122.774 42.611 121.855 39.675 120.867ZM75.2387 73.8871C75.7073 73.6117 76.3 73.9484 76.3 74.492V130.563C76.3 130.997 75.9089 131.327 75.4818 131.249C71.0195 130.432 66.5452 129.234 62.0986 127.908C61.8025 127.819 61.6 127.547 61.6 127.238V81.5218C61.6 81.2503 61.7571 81.0034 62.0025 80.8875C66.6525 78.691 71.0666 76.3395 75.2387 73.8871ZM84.6641 132.313C84.2918 132.298 84 131.99 84 131.618V68.7407C84 68.5078 84.116 68.2902 84.3088 68.1597C89.121 64.9013 93.5358 61.5462 97.5426 58.2079C98.0009 57.8261 98.7 58.1505 98.7 58.747V130.143C98.7 130.452 98.4979 130.725 98.2012 130.81C93.7597 132.084 89.2328 132.493 84.6641 132.313ZM119.793 35.0901C120.199 34.5339 121.1 34.8172 121.1 35.5056V116.978C121.1 117.173 121.019 117.359 120.876 117.491C116.833 121.208 112.27 124.403 107.411 126.962C106.949 127.204 106.4 126.867 106.4 126.345V50.5478C106.4 50.3585 106.477 50.1767 106.613 50.0446C112.225 44.5776 116.64 39.4155 119.793 35.0901Z" fill="#305680"/>
    <path opacity="0.16" d="M88.2 23.8C88.2 24.9598 87.2598 25.9 86.1 25.9C84.9402 25.9 84 24.9598 84 23.8C84 22.6402 84.9402 21.7 86.1 21.7C87.2598 21.7 88.2 22.6402 88.2 23.8Z" fill="#305680"/>
    <path opacity="0.16" d="M28.7 59.85C28.7 60.4299 28.2299 60.9 27.65 60.9C27.0701 60.9 26.6 60.4299 26.6 59.85C26.6 59.2701 27.0701 58.8 27.65 58.8C28.2299 58.8 28.7 59.2701 28.7 59.85Z" fill="#305680"/>
    <path opacity="0.16" d="M82.6 89.25C82.6 89.8299 82.1299 90.3 81.55 90.3C80.9701 90.3 80.5 89.8299 80.5 89.25C80.5 88.6701 80.9701 88.2 81.55 88.2C82.1299 88.2 82.6 88.6701 82.6 89.25Z" fill="#305680"/>
    <path opacity="0.16" d="M38.5 85.4C38.5 85.7866 38.1866 86.1 37.8 86.1C37.4134 86.1 37.1 85.7866 37.1 85.4C37.1 85.0134 37.4134 84.7 37.8 84.7C38.1866 84.7 38.5 85.0134 38.5 85.4Z" fill="#305680"/>
    <path opacity="0.16" d="M129.5 82.6C129.5 83.3732 128.873 84 128.1 84C127.327 84 126.7 83.3732 126.7 82.6C126.7 81.8268 127.327 81.2 128.1 81.2C128.873 81.2 129.5 81.8268 129.5 82.6Z" fill="#305680"/>
    <path opacity="0.16" d="M53.2 48.3C53.2 49.0732 52.5732 49.7 51.8 49.7C51.0268 49.7 50.4 49.0732 50.4 48.3C50.4 47.5268 51.0268 46.9 51.8 46.9C52.5732 46.9 53.2 47.5268 53.2 48.3Z" fill="#305680"/>
    <path opacity="0.16" d="M16.1 77C16.1 77.3866 15.7866 77.7 15.4 77.7C15.0134 77.7 14.7 77.3866 14.7 77C14.7 76.6134 15.0134 76.3 15.4 76.3C15.7866 76.3 16.1 76.6134 16.1 77Z" fill="#305680"/>
    <path opacity="0.16" d="M79.1 43.4C79.1 44.1732 78.4732 44.8 77.7 44.8C76.9269 44.8 76.3 44.1732 76.3 43.4C76.3 42.6268 76.9269 42 77.7 42C78.4732 42 79.1 42.6268 79.1 43.4Z" fill="#305680"/>
  </g>
  <defs>
    <clipPath id="clip0_13185_50044">
      <rect width="140" height="140" fill="white"/>
    </clipPath>
  </defs>
</svg>
