<svg xmlns="http://www.w3.org/2000/svg" viewBox="6 4 42 46" width="18" height="18">
  <style>.fill-white{fill:#ffffff;}</style>
  <path class="fill-white" d="M41.633 47.719c0-.559.453-1.012 1.008-1.012.554 0 1.007.453 1.007 1.012v1.008c0 .558-.453 1.011-1.007 1.011a1.011 1.011 0 0 1-1.008-1.011ZM38.617 47.719c0-.559.45-1.012 1.004-1.012.559 0 1.008.453 1.008 1.012v1.008c0 .558-.45 1.011-1.008 1.011a1.008 1.008 0 0 1-1.004-1.011ZM35.598 47.719c0-.559.449-1.012 1.004-1.012.558 0 1.007.453 1.007 1.012v1.008c0 .558-.449 1.011-1.007 1.011a1.008 1.008 0 0 1-1.004-1.011ZM32.578 47.719c0-.559.453-1.012 1.008-1.012.555 0 1.004.453 1.004 1.012v1.008c0 .558-.45 1.011-1.004 1.011a1.011 1.011 0 0 1-1.008-1.011ZM44.652 44.684a1.01 1.01 0 0 1 1.008-1.008h1.004c.559 0 1.008.453 1.008 1.008 0 .558-.45 1.011-1.008 1.011H45.66a1.011 1.011 0 0 1-1.008-1.011ZM28.555 44.684c0-.555.449-1.008 1.004-1.008h1.007a1.01 1.01 0 0 1 0 2.02H29.56a1.008 1.008 0 0 1-1.004-1.012Z"/>
  <path class="fill-white" d="M15.477 35.59h-3.02v3.031c0 2.234 1.8 4.043 4.023 4.043h2.012a4.035 4.035 0 0 0 4.028-4.043V35.59H19.5v2.023h-4.023ZM7.074 41.309a.75.75 0 0 0-.746.75c0 3.73 3.012 6.754 6.723 6.754a.751.751 0 0 0 0-1.504c-2.887 0-5.227-2.352-5.227-5.25a.75.75 0 0 0-.75-.75Z"/>
  <path class="fill-white" d="M9.977 41.023a.75.75 0 0 0-.747.75 4.118 4.118 0 0 0 4.11 4.125.747.747 0 0 0 .746-.75.747.747 0 0 0-.746-.75 2.622 2.622 0 0 1-2.617-2.625.747.747 0 0 0-.746-.75Z"/>
  <path class="fill-white" d="M44.652 41.66c0-.558.453-1.012 1.008-1.012h1.004c.559 0 1.008.454 1.008 1.012 0 .555-.45 1.008-1.008 1.008H45.66a1.01 1.01 0 0 1-1.008-1.008ZM28.555 41.66c0-.558.449-1.012 1.004-1.012h1.007a1.01 1.01 0 0 1 0 2.02H29.56a1.007 1.007 0 0 1-1.004-1.008ZM44.652 38.621c0-.559.453-1.012 1.008-1.012h1.004c.559 0 1.008.453 1.008 1.012 0 .559-.45 1.012-1.008 1.012H45.66a1.011 1.011 0 0 1-1.008-1.012ZM28.555 38.621c0-.559.449-1.012 1.004-1.012h1.007a1.011 1.011 0 0 1 0 2.024H29.56a1.008 1.008 0 0 1-1.004-1.012ZM44.652 35.594c0-.559.453-1.012 1.008-1.012h1.004c.559 0 1.008.453 1.008 1.012 0 .558-.45 1.011-1.008 1.011H45.66a1.011 1.011 0 0 1-1.008-1.011ZM28.555 35.594c0-.559.449-1.012 1.004-1.012h1.007a1.011 1.011 0 0 1 0 2.023H29.56a1.008 1.008 0 0 1-1.004-1.011Z"/>
  <path class="fill-white" d="M12.457 33.57c0-.558.45-1.011 1.004-1.011h8.05c.555 0 1.009.453 1.009 1.011v1.008H12.457Z"/>
  <path class="fill-white" d="M41.633 31.55c0-.558.453-1.01 1.008-1.01.554 0 1.007.452 1.007 1.01v1.009c0 .558-.453 1.011-1.007 1.011a1.011 1.011 0 0 1-1.008-1.011Z"/>
  <path class="fill-white" d="M27.547 10.184v2.168h2.015v-2.168a3.592 3.592 0 0 1-2.015 0Zm3.02 16.316v-4.043h2.011V26.5h4.027c1.11 0 2.012.906 2.012 2.023v2.02h-2.012v-2.02h-4.027a2.019 2.019 0 0 1-2.012-2.023Zm-4.024-4.043V26.5a2.019 2.019 0 0 1-2.012 2.023h-6.039v2.02H16.48v-2.02c0-1.117.903-2.023 2.012-2.023h6.04v-4.043Z"/>
  <path class="fill-white" d="M32.578 31.55c0-.558.453-1.01 1.008-1.01.555 0 1.004.452 1.004 1.01v1.009c0 .558-.45 1.011-1.004 1.011a1.011 1.011 0 0 1-1.008-1.011Z"/>
  <path class="fill-white" d="M32.578 32.559c-1.11 0-2.012.906-2.012 2.02v11.116c0 1.117.903 2.024 2.012 2.024h11.067a2.02 2.02 0 0 0 2.015-2.024V34.578c0-1.113-.902-2.02-2.015-2.02Zm1.008 2.02c-.559 0-1.008.452-1.008 1.01v9.099c0 .558.45 1.007 1.008 1.007h9.055c.554 0 1.004-.449 1.004-1.008V35.59c0-.559-.45-1.012-1.004-1.012Z"/>
  <path class="fill-white" d="M38.617 40.648h3.016v3.032h-3.016ZM34.59 40.648h3.02v3.032h-3.02ZM38.617 36.602h3.016v3.035h-3.016ZM34.59 36.602h3.02v3.035h-3.02Z"/>
  <path class="fill-white" d="M28.555 9.313a2.518 2.518 0 0 0 2.515-2.524 2.519 2.519 0 0 0-2.515-2.527 2.519 2.519 0 0 0-2.516 2.527 2.518 2.518 0 0 0 2.516 2.524Zm-11.067 4.042a2.02 2.02 0 0 0-2.015 2.024v4.043c0 1.113.902 2.02 2.015 2.02h22.133a2.016 2.016 0 0 0 2.012-2.02v-4.043a2.016 2.016 0 0 0-2.012-2.024Zm1.004 4.043a1.01 1.01 0 0 0 0-2.02c-.555 0-1.004.454-1.004 1.013 0 .554.45 1.007 1.004 1.007Zm4.028-1.007a1.01 1.01 0 0 1-1.008 1.007 1.01 1.01 0 0 1 0-2.02c.554 0 1.008.454 1.008 1.013Z"/>
</svg>
