<svg version="1.1" id="Layer_1" xmlns="http://www.w3.org/2000/svg" xmlns:xlink="http://www.w3.org/1999/xlink" x="0px" y="0px"
	 width="100%" viewBox="0 0 4096 1826" enable-background="new 0 0 4096 1826" xml:space="preserve">
<path fill="#FFFFFF" opacity="0.000000" stroke="none"
	d="
M3022.000000,1828.000000
	C2014.666870,1828.000000 1008.333679,1828.000000 2.000405,1828.000000
	C2.000270,1219.333618 2.000270,610.667236 2.000135,2.000650
	C1367.332886,2.000433 2732.665771,2.000433 4097.999023,2.000217
	C4097.999023,610.666016 4097.999023,1219.332031 4097.999512,1827.999023
	C3739.666748,1828.000000 3381.333252,1828.000000 3022.000000,1828.000000
M3149.702637,1563.000000
	C3149.702637,1631.554810 3149.702637,1700.109497 3149.702637,1768.468262
	C3162.530762,1770.584717 3376.043945,1770.089844 3384.116211,1767.821533
	C3384.116211,1600.328247 3384.116211,1432.534058 3384.116211,1264.865723
	C3403.129639,1262.723389 3832.461426,1263.592896 3839.439941,1265.666138
	C3839.529785,1265.980103 3839.698242,1266.293945 3839.698486,1266.607910
	C3839.809570,1432.255859 3839.909424,1597.903687 3840.011230,1763.551636
	C3840.011475,1764.217896 3840.006592,1764.887939 3840.072266,1765.549438
	C3840.137939,1766.207886 3840.259277,1766.865234 3840.415283,1767.508667
	C3840.488281,1767.809204 3840.664551,1768.104370 3840.859375,1768.350098
	C3841.063477,1768.607422 3841.346191,1768.802490 3841.638428,1769.063965
	C3918.757568,1769.063965 3995.918945,1769.063965 4072.982910,1769.063965
	C4075.016357,1755.243652 4074.360352,621.083557 4072.444336,614.349243
	C3995.232666,614.349243 3918.057617,614.349243 3840.000000,614.349243
	C3840.000000,665.257080 3840.000000,715.512817 3840.000000,765.768555
	C3840.000000,816.098450 3840.000977,866.428345 3839.999512,916.758240
	C3839.997803,966.935913 3839.993652,1017.113525 3839.990723,1067.109009
	C3820.648193,1069.274048 3391.113037,1068.398804 3383.382324,1066.106812
	C3383.382324,915.812805 3383.382324,765.273193 3383.382324,614.442383
	C3305.149658,614.442383 3227.741699,614.442383 3149.702393,614.442383
	C3149.702393,930.461609 3149.702393,1245.730835 3149.702637,1563.000000
M2477.814453,914.782166
	C2382.159180,1054.812988 2286.525391,1194.858765 2190.763916,1334.816772
	C2187.208008,1340.013672 2185.573486,1345.126587 2185.593018,1351.435791
	C2185.774414,1409.763550 2185.700195,1468.092163 2185.700195,1526.420532
	C2185.700195,1529.660034 2185.700195,1532.899536 2185.700195,1537.246338
	C2343.578613,1537.246338 2500.379150,1537.246338 2658.345947,1537.246338
	C2658.345947,1615.136719 2658.345947,1691.923706 2658.345947,1769.030273
	C2730.622559,1769.030273 2801.726318,1769.030273 2873.980225,1769.030273
	C2873.980225,1691.563721 2873.980225,1614.765747 2873.980225,1537.222900
	C2898.744141,1537.222900 2922.363770,1537.338379 2945.981689,1537.190430
	C2969.476562,1537.043213 2992.999756,1537.845947 3016.290771,1536.699097
	C3018.511475,1518.959229 3017.626709,1349.007812 3015.164551,1341.450562
	C2968.566162,1341.450562 2921.688477,1341.450562 2873.700439,1341.450562
	C2873.700439,1219.065430 2873.700439,1097.512085 2873.700439,975.958801
	C2873.700439,854.042480 2873.700439,732.126160 2873.700439,609.499451
	C2869.932861,609.215698 2867.023438,608.807312 2864.113770,608.805359
	C2807.785156,608.767639 2751.456543,608.855408 2695.128662,608.663574
	C2689.121582,608.643127 2685.464600,610.619629 2682.080811,615.611084
	C2650.299561,662.492859 2618.268311,709.205322 2586.304443,755.963318
	C2550.392090,808.496826 2514.474854,861.026978 2477.814453,914.782166
M1064.996948,1724.049805
	C1093.943848,1740.748047 1124.421631,1754.006958 1156.165161,1764.356812
	C1205.295532,1780.375366 1255.664795,1788.160400 1307.402588,1788.138306
	C1353.673828,1788.118530 1398.991211,1782.344360 1443.357300,1769.168335
	C1573.318237,1730.571533 1682.236084,1619.425293 1720.007690,1486.966431
	C1733.820801,1438.526367 1739.081787,1389.159546 1738.423706,1338.883057
	C1737.683960,1282.390747 1729.285889,1227.274536 1707.767578,1174.970581
	C1661.420044,1062.314575 1581.981567,982.585266 1467.329956,939.759583
	C1399.049194,914.254761 1328.077881,908.854126 1255.868530,915.410156
	C1213.482910,919.258545 1172.435913,928.615234 1132.805542,944.085632
	C1045.774048,978.059753 978.453613,1034.866821 933.129150,1116.999390
	C898.492310,1179.765137 878.229980,1246.733154 874.768127,1318.530518
	C873.354065,1347.858154 874.906372,1377.091431 877.705383,1406.296997
	C882.046448,1451.591675 891.325012,1495.740479 907.861694,1538.217651
	C938.772278,1617.617310 989.881409,1680.049194 1064.996948,1724.049805
M2076.257080,1422.746948
	C2075.604980,1405.784302 2074.911133,1388.823120 2074.309326,1371.858765
	C2072.952148,1333.599731 2071.637695,1295.339478 2070.311035,1257.079468
	C2068.972656,1218.472290 2067.643311,1179.864746 2066.303467,1141.257568
	C2064.975098,1102.988159 2063.630371,1064.719116 2062.308105,1026.449463
	C2060.963135,987.522583 2059.580811,948.596924 2058.317139,909.667358
	C2057.204102,875.382080 2056.299072,841.090088 2055.152588,806.805969
	C2054.857422,797.977173 2053.998535,789.167175 2053.412598,780.556274
	C2017.339111,777.837341 1823.026123,775.405273 1814.593506,777.607361
	C1814.401001,780.080261 1814.148804,782.691223 1814.002319,785.308228
	C1813.183716,799.933716 1812.447510,814.564087 1811.577881,829.186523
	C1809.067993,871.386841 1806.475708,913.582275 1803.980225,955.783386
	C1802.467163,981.373779 1801.126465,1006.974365 1799.613892,1032.564819
	C1797.079956,1075.434326 1794.451172,1118.298096 1791.900757,1161.166748
	C1790.377930,1186.762329 1788.983643,1212.365723 1787.433594,1237.959717
	C1785.018188,1277.841431 1782.446411,1317.713745 1780.082153,1357.598511
	C1778.486572,1384.515625 1777.216309,1411.451782 1775.653320,1438.370972
	C1773.068115,1482.899048 1770.387817,1527.421753 1767.696777,1571.943481
	C1766.853516,1585.895142 1765.679321,1599.828125 1764.954102,1613.785156
	C1763.744507,1637.059448 1762.034424,1660.341919 1761.896973,1683.628906
	C1761.735840,1710.927856 1770.935547,1735.306152 1789.330444,1755.712036
	C1803.761108,1771.720459 1821.747559,1781.123413 1843.573486,1781.940430
	C1861.543091,1782.613159 1879.529297,1782.903564 1897.510986,1783.185181
	C1931.818848,1783.722534 1966.128418,1784.157837 2000.437988,1784.584839
	C2017.394165,1784.796021 2032.517334,1779.474854 2045.869507,1769.098267
	C2064.798340,1754.387939 2076.084717,1734.819702 2081.850098,1711.852539
	C2085.954834,1695.500854 2085.202637,1678.951050 2084.485840,1662.236694
	C2082.459717,1615.003418 2081.308105,1567.732910 2079.725830,1520.479980
	C2078.656250,1488.542603 2077.441162,1456.610107 2076.257080,1422.746948
M1743.088257,369.784210
	C1710.843140,383.662964 1692.429321,407.861389 1689.566650,443.004639
	C1688.379761,457.575745 1688.497803,472.265900 1688.334839,486.905396
	C1687.708252,543.190002 1687.232910,599.476318 1686.653320,655.761536
	C1686.172119,702.486084 1722.060669,740.324402 1768.831787,741.613220
	C1807.773682,742.686279 1846.736328,742.999390 1885.688354,743.717529
	C1918.313110,744.318970 1950.935059,745.077515 1983.559937,745.659912
	C2016.522095,746.248352 2049.486816,747.145996 2082.449707,747.111267
	C2125.507080,747.065918 2159.812744,717.442810 2166.357666,674.993530
	C2167.819336,665.513733 2167.852783,655.759521 2167.860352,646.131165
	C2167.864258,640.903503 2169.023926,637.301575 2173.986328,634.890015
	C2181.162598,631.402771 2187.902344,626.987122 2195.162354,623.707947
	C2247.943604,599.868713 2301.991211,598.225708 2356.823730,615.489380
	C2394.113770,627.229858 2426.747070,646.694092 2452.022705,676.948914
	C2460.074219,686.586731 2466.396729,697.693665 2473.267090,708.286194
	C2479.548340,717.970703 2490.292969,720.532593 2498.954590,713.936951
	C2504.458008,709.746155 2506.663330,703.929199 2505.878906,697.190125
	C2504.609619,686.285583 2503.592529,675.307190 2501.490723,664.551147
	C2480.898682,559.155396 2425.200928,477.721588 2333.744873,421.317719
	C2287.982666,393.094696 2237.968994,376.415863 2184.338867,371.940826
	C2158.505127,369.785187 2132.500977,369.370941 2106.560059,368.863281
	C2050.626953,367.768677 1994.685425,367.076904 1938.746094,366.308014
	C1885.465576,365.575653 1832.181396,365.067902 1778.903198,364.197144
	C1767.093262,364.004150 1755.680664,365.339447 1743.088257,369.784210
M741.697998,1543.000000
	C741.697998,1277.416626 741.697998,1011.833313 741.697998,744.782654
	C726.639343,744.782654 712.408752,744.782654 698.178162,744.782654
	C684.179138,744.782654 670.180054,744.782654 656.181030,744.782654
	C641.848694,744.782654 627.516296,744.782654 613.183960,744.782654
	C599.184937,744.782654 585.184692,744.670227 571.187134,744.814148
	C557.055359,744.959412 542.870300,744.159668 528.972229,745.287598
	C526.745483,771.550720 527.787354,1789.738159 529.922424,1797.099487
	C551.674133,1799.192139 734.300476,1798.188110 741.697815,1795.784180
	C741.697815,1712.292480 741.697815,1628.646240 741.697998,1543.000000
M546.718201,646.308594
	C580.395447,667.113098 616.808533,674.397156 655.890320,668.286438
	C739.342651,655.238159 800.115051,577.277832 787.293518,488.836517
	C773.928528,396.645813 687.418518,338.423279 599.327271,356.074158
	C528.609802,370.243835 473.842896,431.474579 472.565033,507.961670
	C471.585266,566.606689 496.842468,612.598389 546.718201,646.308594
M1508.995850,719.761169
	C1515.658081,719.844666 1522.322021,720.065247 1528.982422,719.988586
	C1562.682739,719.601013 1590.987305,693.688843 1594.258301,660.212158
	C1594.962036,653.009338 1595.331665,645.773926 1595.911011,637.784180
	C1615.168091,637.784180 1633.966309,637.784180 1653.445312,637.784180
	C1654.024536,579.239868 1654.595703,521.511597 1655.173828,463.074921
	C1635.227417,462.619995 1616.727051,462.198029 1597.219849,461.753113
	C1597.219849,454.865753 1597.306030,448.941437 1597.205688,443.020264
	C1596.587402,406.492493 1567.429199,377.000946 1530.978516,376.343170
	C1506.326538,375.898315 1481.659058,376.210907 1457.012329,375.611420
	C1424.229614,374.814056 1390.779663,402.264862 1390.275391,442.432556
	C1389.886597,473.401672 1389.154297,504.366821 1388.825928,535.336365
	C1388.405640,574.982117 1387.838501,614.632935 1388.083862,654.277039
	C1388.290161,687.595703 1415.908936,716.318665 1449.094238,718.177429
	C1468.364136,719.256714 1487.695435,719.243286 1508.995850,719.761169
M216.111816,165.152664
	C243.308578,132.604416 274.019867,103.682907 308.177277,77.433563
	C297.338684,62.901749 287.093903,49.166069 276.870026,35.458447
	C147.868805,127.821854 28.415590,308.606506 38.045895,538.163147
	C46.488464,739.407776 157.628738,904.433411 277.097778,987.683960
	C287.360352,973.892944 297.629517,960.093018 308.221710,945.859070
	C304.081940,942.606445 300.715637,939.953796 297.341278,937.311523
	C273.672485,918.777344 251.629181,898.442871 231.608551,876.051331
	C151.848526,786.846191 105.277191,682.875244 93.574097,563.584778
	C88.137535,508.169525 90.967400,453.124817 102.742073,398.699829
	C121.458519,312.188507 158.866699,234.608200 216.111816,165.152664
M993.654236,41.289478
	C990.978210,39.385574 988.302185,37.481670 984.888062,35.052628
	C974.298767,49.252609 964.018921,63.037548 953.661133,76.927094
	C1093.312500,188.599213 1169.653198,332.073425 1169.769287,511.356354
	C1169.885620,690.960083 1093.499512,834.716431 953.658752,946.523499
	C964.172119,960.575867 974.460083,974.326904 984.997131,988.410828
	C987.652527,986.495911 989.553955,985.194519 991.381470,983.796570
	C1029.679810,954.499390 1063.966797,921.067505 1093.855225,883.243835
	C1165.446411,792.645386 1207.753906,690.014465 1220.402710,575.113098
	C1225.385498,529.848633 1225.106445,484.671661 1219.564209,439.582184
	C1210.493408,365.784241 1188.489380,295.966125 1153.314575,230.377319
	C1113.695435,156.501495 1060.704468,93.886116 993.654236,41.289478
M310.518219,279.584961
	C334.037994,246.991959 361.932648,218.631104 394.708313,193.929611
	C383.830505,179.342377 373.448456,165.419952 363.088165,151.526703
	C257.750427,227.498764 167.795670,374.368469 184.102753,554.214050
	C197.213425,698.807312 281.844482,815.903992 363.511749,871.351135
	C372.839966,858.846497 382.198639,846.329285 391.509857,833.776794
	C392.466003,832.487793 393.138123,830.988098 394.087158,829.333252
	C309.474426,763.428650 256.699463,678.328735 240.435562,572.471436
	C224.126999,466.323364 248.036118,368.842133 310.518219,279.584961
M1067.796997,612.726807
	C1080.188232,557.591980 1082.847290,502.063324 1074.291138,446.126465
	C1057.571899,336.823547 1007.525940,245.648010 924.898926,172.310837
	C916.724487,165.055420 907.981445,158.440567 898.750427,150.915451
	C887.812012,165.597870 877.404602,179.567596 867.058533,193.455032
	C970.114197,275.706909 1025.519531,381.149597 1025.456421,512.011108
	C1025.393311,642.847351 969.629883,748.149292 867.100037,829.940796
	C877.657837,844.072754 887.944458,857.841675 898.129272,871.474365
	C899.961792,870.667358 900.936340,870.380493 901.750061,869.847900
	C903.140076,868.937988 904.447754,867.897705 905.758118,866.871521
	C936.338074,842.922852 963.571655,815.637573 987.109253,784.734802
	C1026.003174,733.670288 1052.545898,676.743835 1067.796997,612.726807
M847.334534,385.723358
	C874.223938,432.498749 885.325500,482.888245 879.853333,536.437561
	C872.396729,609.406189 838.050049,667.934326 780.424622,713.430298
	C786.210388,721.284912 791.287354,728.263184 796.457458,735.171753
	C801.572205,742.006287 806.780884,748.770630 811.904541,755.508179
	C882.694214,705.000671 942.958374,607.321045 933.560364,486.954407
	C929.215881,431.311096 910.546509,380.473999 878.161621,334.881348
	C859.789185,309.015991 838.108276,286.393890 811.854309,267.428345
	C800.980774,282.128174 790.780640,295.917664 780.276489,310.118256
	C807.603333,331.430115 829.809631,355.562347 847.334534,385.723358
M354.252472,385.355988
	C287.830597,531.775574 350.779144,687.769470 450.105469,755.121033
	C460.308197,741.351135 470.530121,727.555298 480.968750,713.467041
	C415.694458,661.360962 380.399902,594.565735 380.394165,511.800385
	C380.388428,428.781189 415.741577,361.706055 481.029510,309.882721
	C470.215363,295.353455 459.943726,281.553131 449.277893,267.223206
	C407.813202,298.944611 376.303925,337.366577 354.252472,385.355988
z"/>
<path fill="#767171" opacity="1.000000" stroke="none"
	d="
M3149.702637,1562.000000
	C3149.702393,1245.730835 3149.702393,930.461609 3149.702393,614.442383
	C3227.741699,614.442383 3305.149658,614.442383 3383.382324,614.442383
	C3383.382324,765.273193 3383.382324,915.812805 3383.382324,1066.106812
	C3391.113037,1068.398804 3820.648193,1069.274048 3839.990723,1067.109009
	C3839.993652,1017.113525 3839.997803,966.935913 3839.999512,916.758240
	C3840.000977,866.428345 3840.000000,816.098450 3840.000000,765.768555
	C3840.000000,715.512817 3840.000000,665.257080 3840.000000,614.349243
	C3918.057617,614.349243 3995.232666,614.349243 4072.444336,614.349243
	C4074.360352,621.083557 4075.016357,1755.243652 4072.982910,1769.063965
	C3995.918945,1769.063965 3918.757568,1769.063965 3841.638428,1769.063965
	C3841.346191,1768.802490 3841.063477,1768.607422 3840.859375,1768.350098
	C3840.664551,1768.104370 3840.488281,1767.809204 3840.415283,1767.508667
	C3840.259277,1766.865234 3840.137939,1766.207886 3840.072266,1765.549438
	C3840.006592,1764.887939 3840.011475,1764.217896 3840.011230,1763.551636
	C3839.909424,1597.903687 3839.809570,1432.255859 3839.698486,1266.607910
	C3839.698242,1266.293945 3839.529785,1265.980103 3839.439941,1265.666138
	C3832.461426,1263.592896 3403.129639,1262.723389 3384.116211,1264.865723
	C3384.116211,1432.534058 3384.116211,1600.328247 3384.116211,1767.821533
	C3376.043945,1770.089844 3162.530762,1770.584717 3149.702637,1768.468262
	C3149.702637,1700.109497 3149.702637,1631.554810 3149.702637,1562.000000
z"/>
<path fill="#777272" opacity="1.000000" stroke="none"
	d="
M2478.187256,914.170410
	C2514.474854,861.026978 2550.392090,808.496826 2586.304443,755.963318
	C2618.268311,709.205322 2650.299561,662.492859 2682.080811,615.611084
	C2685.464600,610.619629 2689.121582,608.643127 2695.128662,608.663574
	C2751.456543,608.855408 2807.785156,608.767639 2864.113770,608.805359
	C2867.023438,608.807312 2869.932861,609.215698 2873.700439,609.499451
	C2873.700439,732.126160 2873.700439,854.042480 2873.700439,975.958801
	C2873.700439,1097.512085 2873.700439,1219.065430 2873.700439,1341.450562
	C2921.688477,1341.450562 2968.566162,1341.450562 3015.164551,1341.450562
	C3017.626709,1349.007812 3018.511475,1518.959229 3016.290771,1536.699097
	C2992.999756,1537.845947 2969.476562,1537.043213 2945.981689,1537.190430
	C2922.363770,1537.338379 2898.744141,1537.222900 2873.980225,1537.222900
	C2873.980225,1614.765747 2873.980225,1691.563721 2873.980225,1769.030273
	C2801.726318,1769.030273 2730.622559,1769.030273 2658.345947,1769.030273
	C2658.345947,1691.923706 2658.345947,1615.136719 2658.345947,1537.246338
	C2500.379150,1537.246338 2343.578613,1537.246338 2185.700195,1537.246338
	C2185.700195,1532.899536 2185.700195,1529.660034 2185.700195,1526.420532
	C2185.700195,1468.092163 2185.774414,1409.763550 2185.593018,1351.435791
	C2185.573486,1345.126587 2187.208008,1340.013672 2190.763916,1334.816772
	C2286.525391,1194.858765 2382.159180,1054.812988 2478.187256,914.170410
M2658.303467,1121.000000
	C2658.303467,1064.589722 2658.303467,1008.179382 2658.303467,951.769043
	C2655.870117,952.363770 2655.040283,953.269287 2654.363037,954.277161
	C2568.535889,1081.978027 2482.719482,1209.686035 2396.920166,1337.405273
	C2396.564697,1337.934326 2396.416260,1338.618042 2396.248047,1339.249878
	C2396.171631,1339.536133 2396.228760,1339.890625 2396.324707,1340.181152
	C2396.427002,1340.490356 2396.647461,1340.760620 2396.872314,1341.143066
	C2483.616211,1341.143066 2570.415039,1341.143066 2658.303711,1341.143066
	C2658.303711,1268.065430 2658.303711,1195.532715 2658.303467,1121.000000
z"/>
<path fill="#ED7D32" opacity="1.000000" stroke="none"
	d="
M1064.372803,1723.669312
	C989.881409,1680.049194 938.772278,1617.617310 907.861694,1538.217651
	C891.325012,1495.740479 882.046448,1451.591675 877.705383,1406.296997
	C874.906372,1377.091431 873.354065,1347.858154 874.768127,1318.530518
	C878.229980,1246.733154 898.492310,1179.765137 933.129150,1116.999390
	C978.453613,1034.866821 1045.774048,978.059753 1132.805542,944.085632
	C1172.435913,928.615234 1213.482910,919.258545 1255.868530,915.410156
	C1328.077881,908.854126 1399.049194,914.254761 1467.329956,939.759583
	C1581.981567,982.585266 1661.420044,1062.314575 1707.767578,1174.970581
	C1729.285889,1227.274536 1737.683960,1282.390747 1738.423706,1338.883057
	C1739.081787,1389.159546 1733.820801,1438.526367 1720.007690,1486.966431
	C1682.236084,1619.425293 1573.318237,1730.571533 1443.357300,1769.168335
	C1398.991211,1782.344360 1353.673828,1788.118530 1307.402588,1788.138306
	C1255.664795,1788.160400 1205.295532,1780.375366 1156.165161,1764.356812
	C1124.421631,1754.006958 1093.943848,1740.748047 1064.372803,1723.669312
M1109.952026,1267.068359
	C1102.846558,1299.830322 1101.118286,1333.044189 1102.076172,1366.421143
	C1102.967407,1397.476318 1107.229492,1428.054810 1115.914795,1457.990112
	C1140.264404,1541.916382 1209.986084,1602.057617 1291.984741,1606.817383
	C1332.301270,1609.157593 1370.318848,1601.932861 1404.895630,1580.585449
	C1456.192505,1548.915039 1486.350220,1502.079590 1499.961304,1444.167114
	C1513.323120,1387.314331 1514.033447,1329.945190 1503.608398,1272.608276
	C1495.727173,1229.262695 1479.132812,1189.732788 1448.669800,1156.882324
	C1400.042358,1104.443970 1340.001343,1085.577026 1270.276733,1097.289429
	C1216.699341,1106.289429 1176.290283,1136.391724 1145.515625,1180.114990
	C1127.422241,1205.821289 1116.980103,1234.902832 1109.952026,1267.068359
z"/>
<path fill="#ED7D31" opacity="1.000000" stroke="none"
	d="
M2076.274170,1423.711182
	C2077.441162,1456.610107 2078.656250,1488.542603 2079.725830,1520.479980
	C2081.308105,1567.732910 2082.459717,1615.003418 2084.485840,1662.236694
	C2085.202637,1678.951050 2085.954834,1695.500854 2081.850098,1711.852539
	C2076.084717,1734.819702 2064.798340,1754.387939 2045.869507,1769.098267
	C2032.517334,1779.474854 2017.394165,1784.796021 2000.437988,1784.584839
	C1966.128418,1784.157837 1931.818848,1783.722534 1897.510986,1783.185181
	C1879.529297,1782.903564 1861.543091,1782.613159 1843.573486,1781.940430
	C1821.747559,1781.123413 1803.761108,1771.720459 1789.330444,1755.712036
	C1770.935547,1735.306152 1761.735840,1710.927856 1761.896973,1683.628906
	C1762.034424,1660.341919 1763.744507,1637.059448 1764.954102,1613.785156
	C1765.679321,1599.828125 1766.853516,1585.895142 1767.696777,1571.943481
	C1770.387817,1527.421753 1773.068115,1482.899048 1775.653320,1438.370972
	C1777.216309,1411.451782 1778.486572,1384.515625 1780.082153,1357.598511
	C1782.446411,1317.713745 1785.018188,1277.841431 1787.433594,1237.959717
	C1788.983643,1212.365723 1790.377930,1186.762329 1791.900757,1161.166748
	C1794.451172,1118.298096 1797.079956,1075.434326 1799.613892,1032.564819
	C1801.126465,1006.974365 1802.467163,981.373779 1803.980225,955.783386
	C1806.475708,913.582275 1809.067993,871.386841 1811.577881,829.186523
	C1812.447510,814.564087 1813.183716,799.933716 1814.002319,785.308228
	C1814.148804,782.691223 1814.401001,780.080261 1814.593506,777.607361
	C1823.026123,775.405273 2017.339111,777.837341 2053.412598,780.556274
	C2053.998535,789.167175 2054.857422,797.977173 2055.152588,806.805969
	C2056.299072,841.090088 2057.204102,875.382080 2058.317139,909.667358
	C2059.580811,948.596924 2060.963135,987.522583 2062.308105,1026.449463
	C2063.630371,1064.719116 2064.975098,1102.988159 2066.303467,1141.257568
	C2067.643311,1179.864746 2068.972656,1218.472290 2070.311035,1257.079468
	C2071.637695,1295.339478 2072.952148,1333.599731 2074.309326,1371.858765
	C2074.911133,1388.823120 2075.604980,1405.784302 2076.274170,1423.711182
z"/>
<path fill="#777272" opacity="1.000000" stroke="none"
	d="
M1743.820801,369.505341
	C1755.680664,365.339447 1767.093262,364.004150 1778.903198,364.197144
	C1832.181396,365.067902 1885.465576,365.575653 1938.746094,366.308014
	C1994.685425,367.076904 2050.626953,367.768677 2106.560059,368.863281
	C2132.500977,369.370941 2158.505127,369.785187 2184.338867,371.940826
	C2237.968994,376.415863 2287.982666,393.094696 2333.744873,421.317719
	C2425.200928,477.721588 2480.898682,559.155396 2501.490723,664.551147
	C2503.592529,675.307190 2504.609619,686.285583 2505.878906,697.190125
	C2506.663330,703.929199 2504.458008,709.746155 2498.954590,713.936951
	C2490.292969,720.532593 2479.548340,717.970703 2473.267090,708.286194
	C2466.396729,697.693665 2460.074219,686.586731 2452.022705,676.948914
	C2426.747070,646.694092 2394.113770,627.229858 2356.823730,615.489380
	C2301.991211,598.225708 2247.943604,599.868713 2195.162354,623.707947
	C2187.902344,626.987122 2181.162598,631.402771 2173.986328,634.890015
	C2169.023926,637.301575 2167.864258,640.903503 2167.860352,646.131165
	C2167.852783,655.759521 2167.819336,665.513733 2166.357666,674.993530
	C2159.812744,717.442810 2125.507080,747.065918 2082.449707,747.111267
	C2049.486816,747.145996 2016.522095,746.248352 1983.559937,745.659912
	C1950.935059,745.077515 1918.313110,744.318970 1885.688354,743.717529
	C1846.736328,742.999390 1807.773682,742.686279 1768.831787,741.613220
	C1722.060669,740.324402 1686.172119,702.486084 1686.653320,655.761536
	C1687.232910,599.476318 1687.708252,543.190002 1688.334839,486.905396
	C1688.497803,472.265900 1688.379761,457.575745 1689.566650,443.004639
	C1692.429321,407.861389 1710.843140,383.662964 1743.820801,369.505341
M2183.554932,439.569305
	C2172.947021,438.886841 2162.342285,437.736969 2151.730225,437.664917
	C2142.702393,437.603546 2136.108643,444.738922 2135.718994,453.523376
	C2135.346924,461.924042 2140.697998,468.518982 2149.585449,470.301941
	C2152.499268,470.886536 2155.514648,470.992279 2158.490234,471.236603
	C2166.106201,471.861938 2173.749023,472.235443 2181.339600,473.081024
	C2200.260986,475.188843 2218.511230,480.119720 2236.511230,486.231873
	C2246.310059,489.559235 2255.636963,484.239044 2258.234619,474.560883
	C2260.547852,465.942230 2256.176025,458.073822 2246.261719,454.449554
	C2226.533691,447.237946 2206.251465,442.142334 2183.554932,439.569305
z"/>
<path fill="#ED7E32" opacity="1.000000" stroke="none"
	d="
M741.697876,1544.000000
	C741.697815,1628.646240 741.697815,1712.292480 741.697815,1795.784180
	C734.300476,1798.188110 551.674133,1799.192139 529.922424,1797.099487
	C527.787354,1789.738159 526.745483,771.550720 528.972229,745.287598
	C542.870300,744.159668 557.055359,744.959412 571.187134,744.814148
	C585.184692,744.670227 599.184937,744.782654 613.183960,744.782654
	C627.516296,744.782654 641.848694,744.782654 656.181030,744.782654
	C670.180054,744.782654 684.179138,744.782654 698.178162,744.782654
	C712.408752,744.782654 726.639343,744.782654 741.697998,744.782654
	C741.697998,1011.833313 741.697998,1277.416626 741.697876,1544.000000
z"/>
<path fill="#ED7D32" opacity="1.000000" stroke="none"
	d="
M546.087891,645.955444
	C496.842468,612.598389 471.585266,566.606689 472.565033,507.961670
	C473.842896,431.474579 528.609802,370.243835 599.327271,356.074158
	C687.418518,338.423279 773.928528,396.645813 787.293518,488.836517
	C800.115051,577.277832 739.342651,655.238159 655.890320,668.286438
	C616.808533,674.397156 580.395447,667.113098 546.087891,645.955444
z"/>
<path fill="#777272" opacity="1.000000" stroke="none"
	d="
M1507.997437,719.741394
	C1487.695435,719.243286 1468.364136,719.256714 1449.094238,718.177429
	C1415.908936,716.318665 1388.290161,687.595703 1388.083862,654.277039
	C1387.838501,614.632935 1388.405640,574.982117 1388.825928,535.336365
	C1389.154297,504.366821 1389.886597,473.401672 1390.275391,442.432556
	C1390.779663,402.264862 1424.229614,374.814056 1457.012329,375.611420
	C1481.659058,376.210907 1506.326538,375.898315 1530.978516,376.343170
	C1567.429199,377.000946 1596.587402,406.492493 1597.205688,443.020264
	C1597.306030,448.941437 1597.219849,454.865753 1597.219849,461.753113
	C1616.727051,462.198029 1635.227417,462.619995 1655.173828,463.074921
	C1654.595703,521.511597 1654.024536,579.239868 1653.445312,637.784180
	C1633.966309,637.784180 1615.168091,637.784180 1595.911011,637.784180
	C1595.331665,645.773926 1594.962036,653.009338 1594.258301,660.212158
	C1590.987305,693.688843 1562.682739,719.601013 1528.982422,719.988586
	C1522.322021,720.065247 1515.658081,719.844666 1507.997437,719.741394
z"/>
<path fill="#ED7E33" opacity="1.000000" stroke="none"
	d="
M215.663055,165.700485
	C158.866699,234.608200 121.458519,312.188507 102.742073,398.699829
	C90.967400,453.124817 88.137535,508.169525 93.574097,563.584778
	C105.277191,682.875244 151.848526,786.846191 231.608551,876.051331
	C251.629181,898.442871 273.672485,918.777344 297.341278,937.311523
	C300.715637,939.953796 304.081940,942.606445 308.221710,945.859070
	C297.629517,960.093018 287.360352,973.892944 277.097778,987.683960
	C157.628738,904.433411 46.488464,739.407776 38.045895,538.163147
	C28.415590,308.606506 147.868805,127.821854 276.870026,35.458447
	C287.093903,49.166069 297.338684,62.901749 308.177277,77.433563
	C274.019867,103.682907 243.308578,132.604416 215.663055,165.700485
z"/>
<path fill="#ED7E33" opacity="1.000000" stroke="none"
	d="
M994.224854,41.719879
	C1060.704468,93.886116 1113.695435,156.501495 1153.314575,230.377319
	C1188.489380,295.966125 1210.493408,365.784241 1219.564209,439.582184
	C1225.106445,484.671661 1225.385498,529.848633 1220.402710,575.113098
	C1207.753906,690.014465 1165.446411,792.645386 1093.855225,883.243835
	C1063.966797,921.067505 1029.679810,954.499390 991.381470,983.796570
	C989.553955,985.194519 987.652527,986.495911 984.997131,988.410828
	C974.460083,974.326904 964.172119,960.575867 953.658752,946.523499
	C1093.499512,834.716431 1169.885620,690.960083 1169.769287,511.356354
	C1169.653198,332.073425 1093.312500,188.599213 953.661133,76.927094
	C964.018921,63.037548 974.298767,49.252609 984.888062,35.052628
	C988.302185,37.481670 990.978210,39.385574 994.224854,41.719879
z"/>
<path fill="#ED7F33" opacity="1.000000" stroke="none"
	d="
M310.125427,280.182739
	C248.036118,368.842133 224.126999,466.323364 240.435562,572.471436
	C256.699463,678.328735 309.474426,763.428650 394.087158,829.333252
	C393.138123,830.988098 392.466003,832.487793 391.509857,833.776794
	C382.198639,846.329285 372.839966,858.846497 363.511749,871.351135
	C281.844482,815.903992 197.213425,698.807312 184.102753,554.214050
	C167.795670,374.368469 257.750427,227.498764 363.088165,151.526703
	C373.448456,165.419952 383.830505,179.342377 394.708313,193.929611
	C361.932648,218.631104 334.037994,246.991959 310.125427,280.182739
z"/>
<path fill="#ED7E33" opacity="1.000000" stroke="none"
	d="
M1067.646606,613.545776
	C1052.545898,676.743835 1026.003174,733.670288 987.109253,784.734802
	C963.571655,815.637573 936.338074,842.922852 905.758118,866.871521
	C904.447754,867.897705 903.140076,868.937988 901.750061,869.847900
	C900.936340,870.380493 899.961792,870.667358 898.129272,871.474365
	C887.944458,857.841675 877.657837,844.072754 867.100037,829.940796
	C969.629883,748.149292 1025.393311,642.847351 1025.456421,512.011108
	C1025.519531,381.149597 970.114197,275.706909 867.058533,193.455032
	C877.404602,179.567596 887.812012,165.597870 898.750427,150.915451
	C907.981445,158.440567 916.724487,165.055420 924.898926,172.310837
	C1007.525940,245.648010 1057.571899,336.823547 1074.291138,446.126465
	C1082.847290,502.063324 1080.188232,557.591980 1067.646606,613.545776
z"/>
<path fill="#ED7E33" opacity="1.000000" stroke="none"
	d="
M846.942383,385.104553
	C829.809631,355.562347 807.603333,331.430115 780.276489,310.118256
	C790.780640,295.917664 800.980774,282.128174 811.854309,267.428345
	C838.108276,286.393890 859.789185,309.015991 878.161621,334.881348
	C910.546509,380.473999 929.215881,431.311096 933.560364,486.954407
	C942.958374,607.321045 882.694214,705.000671 811.904541,755.508179
	C806.780884,748.770630 801.572205,742.006287 796.457458,735.171753
	C791.287354,728.263184 786.210388,721.284912 780.424622,713.430298
	C838.050049,667.934326 872.396729,609.406189 879.853333,536.437561
	C885.325500,482.888245 874.223938,432.498749 846.942383,385.104553
z"/>
<path fill="#ED7E33" opacity="1.000000" stroke="none"
	d="
M354.567780,384.672913
	C376.303925,337.366577 407.813202,298.944611 449.277893,267.223206
	C459.943726,281.553131 470.215363,295.353455 481.029510,309.882721
	C415.741577,361.706055 380.388428,428.781189 380.394165,511.800385
	C380.399902,594.565735 415.694458,661.360962 480.968750,713.467041
	C470.530121,727.555298 460.308197,741.351135 450.105469,755.121033
	C350.779144,687.769470 287.830597,531.775574 354.567780,384.672913
z"/>
<path fill="#FEFEFE" opacity="0.000000" stroke="none"
	d="
M2658.303711,1122.000000
	C2658.303711,1195.532715 2658.303711,1268.065430 2658.303711,1341.143066
	C2570.415039,1341.143066 2483.616211,1341.143066 2396.872314,1341.143066
	C2396.647461,1340.760620 2396.427002,1340.490356 2396.324707,1340.181152
	C2396.228760,1339.890625 2396.171631,1339.536133 2396.248047,1339.249878
	C2396.416260,1338.618042 2396.564697,1337.934326 2396.920166,1337.405273
	C2482.719482,1209.686035 2568.535889,1081.978027 2654.363037,954.277161
	C2655.040283,953.269287 2655.870117,952.363770 2658.303467,951.769043
	C2658.303467,1008.179382 2658.303467,1064.589722 2658.303711,1122.000000
z"/>
<path fill="#FFFFFE" opacity="0.000000" stroke="none"
	d="
M1110.079834,1266.235352
	C1116.980103,1234.902832 1127.422241,1205.821289 1145.515625,1180.114990
	C1176.290283,1136.391724 1216.699341,1106.289429 1270.276733,1097.289429
	C1340.001343,1085.577026 1400.042358,1104.443970 1448.669800,1156.882324
	C1479.132812,1189.732788 1495.727173,1229.262695 1503.608398,1272.608276
	C1514.033447,1329.945190 1513.323120,1387.314331 1499.961304,1444.167114
	C1486.350220,1502.079590 1456.192505,1548.915039 1404.895630,1580.585449
	C1370.318848,1601.932861 1332.301270,1609.157593 1291.984741,1606.817383
	C1209.986084,1602.057617 1140.264404,1541.916382 1115.914795,1457.990112
	C1107.229492,1428.054810 1102.967407,1397.476318 1102.076172,1366.421143
	C1101.118286,1333.044189 1102.846558,1299.830322 1110.079834,1266.235352
z"/>
<path fill="#FCFCFC" opacity="1.000000" stroke="none"
	d="
M2184.447266,439.658142
	C2206.251465,442.142334 2226.533691,447.237946 2246.261719,454.449554
	C2256.176025,458.073822 2260.547852,465.942230 2258.234619,474.560883
	C2255.636963,484.239044 2246.310059,489.559235 2236.511230,486.231873
	C2218.511230,480.119720 2200.260986,475.188843 2181.339600,473.081024
	C2173.749023,472.235443 2166.106201,471.861938 2158.490234,471.236603
	C2155.514648,470.992279 2152.499268,470.886536 2149.585449,470.301941
	C2140.697998,468.518982 2135.346924,461.924042 2135.718994,453.523376
	C2136.108643,444.738922 2142.702393,437.603546 2151.730225,437.664917
	C2162.342285,437.736969 2172.947021,438.886841 2184.447266,439.658142
z"/>
</svg>
