<svg width="25" height="24" xmlns="http://www.w3.org/2000/svg"><path d="M20.91 18.862c-.652-.267-.931-.621-.904-1.15.028-.618-.323-1.07-.489-1.249.1-.384.394-1.712 0-2.866-.423-1.235-1.715-3.12-3.05-4.975-.545-.761-.57-1.589-.6-2.547-.03-.914-.062-1.95-.571-3.102C14.742 1.72 13.629 1 12.245 1c-.824 0-1.67.257-2.32.706-1.333.92-1.157 2.925-1.04 4.252.015.182.03.353.039.5.078 1.3.007 1.984-.085 2.193-.06.136-.354.523-.665.933-.322.424-.687.904-.986 1.352-.357.539-.645 1.362-.924 2.159-.204.583-.396 1.133-.584 1.462a1.991 1.991 0 0 0-.193 1.496c-.134.093-.329.277-.493.624-.198.423-.6.65-1.437.811-.384.079-.65.24-.788.48-.202.35-.092.79.008 1.09.149.44.056.72-.111 1.227-.04.116-.083.249-.127.395-.07.23-.045.44.074.623.316.483 1.238.653 2.187.765.567.068 1.187.294 1.787.514.587.214 1.195.436 1.747.504.084.01.168.016.248.016.834 0 1.21-.554 1.33-.781.3-.061 1.333-.257 2.398-.283 1.063-.03 2.091.18 2.383.245.091.175.333.575.718.782.212.115.506.182.808.182.322 0 .935-.076 1.42-.587.483-.512 1.692-1.167 2.575-1.644.197-.107.38-.207.542-.297.496-.275.767-.668.742-1.077-.02-.34-.245-.64-.588-.78Zm-10.975-.098c-.062-.435-.62-.866-1.269-1.365-.53-.409-1.13-.871-1.295-1.263-.341-.808-.072-2.23.398-2.962.232-.366.421-.922.605-1.46.198-.58.402-1.18.631-1.442.363-.41.698-1.208.757-1.837.34.324.867.735 1.353.735.075 0 .148-.01.217-.03.333-.095.823-.378 1.296-.652.409-.236.912-.526 1.102-.553.324.466 2.212 4.643 2.405 5.984a6.34 6.34 0 0 1-.09 2.283 1.678 1.678 0 0 0-.225-.016c-.525 0-.665.287-.7.458-.094.445-.104 1.869-.105 2.188-.19.242-1.151 1.38-2.531 1.584a10.96 10.96 0 0 1-1.56.123c-.405 0-.663-.032-.77-.048l-.694-.793c.274-.135.547-.42.475-.934Zm.88-13.085-.064.03a1.292 1.292 0 0 0-.014-.142c-.076-.436-.365-.752-.687-.752a.486.486 0 0 0-.075.005c-.191.032-.342.176-.424.38.072-.448.326-.78.627-.78.354 0 .653.477.653 1.042 0 .07-.005.142-.016.217Zm2.749.336c.032-.103.05-.215.05-.33 0-.512-.325-.913-.74-.913-.404 0-.734.41-.734.913 0 .034.002.068.005.102l-.063-.024a1.395 1.395 0 0 1-.07-.438c0-.612.391-1.11.872-1.11.48 0 .872.498.872 1.11 0 .254-.07.497-.192.69Zm-.354 1.19c-.007.032-.022.045-.185.13a4.979 4.979 0 0 0-.313.174l-.086.052c-.344.209-1.15.697-1.368.726-.149.02-.24-.037-.447-.178a6.4 6.4 0 0 0-.15-.1c-.372-.244-.612-.513-.639-.618.122-.094.423-.329.577-.468.313-.29.628-.486.783-.486.009 0 .016 0 .024.002.183.032.634.212.964.344.153.06.284.113.377.146.292.1.444.229.463.277ZM15.83 20.8c.165-.743.355-1.753.324-2.349-.007-.135-.019-.282-.03-.425-.022-.266-.054-.662-.021-.779a.145.145 0 0 1 .022-.008c.001.34.075 1.02.618 1.257.162.07.347.106.55.106.544 0 1.148-.267 1.395-.514.146-.146.268-.324.354-.465a.56.56 0 0 1 .024.22c-.032.502.212 1.168.676 1.413l.068.036c.165.087.605.317.612.427 0 0-.004.013-.028.035-.11.101-.498.299-.872.49-.665.34-1.418.724-1.757 1.08-.476.501-1.015.838-1.34.838a.354.354 0 0 1-.107-.015c-.353-.11-.644-.62-.487-1.347ZM3.789 18.905c-.036-.168-.064-.301-.034-.43.022-.096.494-.198.696-.242.283-.061.576-.125.767-.241.26-.157.4-.447.523-.702.09-.184.182-.375.292-.438a.061.061 0 0 1 .034-.008c.206 0 .64.434.888.822.064.097.18.293.316.52.406.678.96 1.607 1.25 1.919.262.28.685.818.58 1.28-.076.357-.481.648-.577.713a.59.59 0 0 1-.128.012c-.555 0-1.653-.462-2.243-.71l-.087-.037c-.33-.138-.868-.225-1.388-.309-.414-.067-.98-.159-1.074-.241-.076-.086.012-.364.09-.609.056-.176.114-.358.146-.548.045-.304-.008-.552-.05-.75Z" fill="currentColor"/></svg>
