<svg xmlns="http://www.w3.org/2000/svg" viewBox="0 0 419.362 119.499"><g id="Layer_2" data-name="Layer 2"><g id="Layer_1-2" data-name="Layer 1"><path d="M0,0H69.4V14.672H15.65V50.537H68.638V65.21H15.65v39.615H67.491V119.5H0Z" fill="#44863f"/><path d="M72.371,0H89.488l30.649,96.348L150.3,0h16.465L127.311,119.5H111.985Z" fill="#44863f"/><path d="M171.54,0h15.65V119.5H171.54Z" fill="#44863f"/><path d="M325.5,75.959v8.827h8v4.255h-8v16.575c0,3.81,1.079,5.97,4.192,5.97a12.448,12.448,0,0,0,3.238-.381l.254,4.191a13.688,13.688,0,0,1-4.953.762,7.742,7.742,0,0,1-6.033-2.35c-1.588-1.651-2.16-4.382-2.16-8V89.041h-4.762V84.786h4.762V77.419Z" fill="#44863f"/><path d="M340.362,101.171c.127,7.557,4.953,10.668,10.542,10.668a20.2,20.2,0,0,0,8.509-1.587l.954,4a24.9,24.9,0,0,1-10.225,1.905c-9.463,0-15.115-6.224-15.115-15.5s5.462-16.575,14.416-16.575c10.034,0,12.7,8.827,12.7,14.479a21.173,21.173,0,0,1-.191,2.6Zm16.384-4c.064-3.557-1.46-9.082-7.748-9.082-5.652,0-8.128,5.208-8.573,9.082Z" fill="#44863f"/><path d="M388.816,114.38a20.585,20.585,0,0,1-8.827,1.778c-9.273,0-15.306-6.287-15.306-15.686,0-9.463,6.478-16.321,16.512-16.321a18.689,18.689,0,0,1,7.748,1.587l-1.271,4.318A12.965,12.965,0,0,0,381.2,88.6c-7.049,0-10.86,5.207-10.86,11.621,0,7.114,4.573,11.5,10.669,11.5a15.874,15.874,0,0,0,6.86-1.525Z" fill="#44863f"/><path d="M393.2,70.433h5.589V89.612h.126a10.39,10.39,0,0,1,4-3.938,11.513,11.513,0,0,1,5.716-1.586c4.128,0,10.733,2.54,10.733,13.145v18.29h-5.589V97.868c0-4.953-1.841-9.145-7.112-9.145a8.03,8.03,0,0,0-7.5,5.589,6.774,6.774,0,0,0-.38,2.667v18.544H393.2Z" fill="#44863f"/><path d="M307.975,59.8a61.152,61.152,0,0,1-3.26,19.76,60.277,60.277,0,0,1-8.31,16.01,1.035,1.035,0,0,1-1.56.12l-4.39-4.4-4.63-4.63a1.017,1.017,0,0,1-.1-1.31,44.012,44.012,0,0,0-33.65-69.45c-.97-.05-1.94-.06-2.9-.04a43.951,43.951,0,0,0-1.69,87.82c.57.03,1.13.05,1.69.06a44.366,44.366,0,0,0,8.61-.69,43.021,43.021,0,0,0,8.9-2.6,1.016,1.016,0,0,1,1.11.22l5.24,5.24,4.77,4.77a1.027,1.027,0,0,1-.22,1.62,57.437,57.437,0,0,1-12.48,5.14,56.822,56.822,0,0,1-56.17-15.43,60.941,60.941,0,0,1,0-84.43A57.051,57.051,0,0,1,249.175.109c.26-.01.52-.01.78-.01a57.032,57.032,0,0,1,41.02,17.48A60.411,60.411,0,0,1,307.975,59.8Z" fill="#44863f"/><path d="M298.645,105.959l-38.89-38.89a2.2,2.2,0,0,0-3.11,0l-6,6a2.2,2.2,0,0,0,0,3.11l38.89,38.89a2.755,2.755,0,0,0,.27.23,2.208,2.208,0,0,0,2.57,0,2.755,2.755,0,0,0,.27-.23l6-6A2.2,2.2,0,0,0,298.645,105.959Z" fill="#8dc63f"/><path d="M277.805,110.679a1.027,1.027,0,0,1-.22,1.62,55.93,55.93,0,0,1-6.24,3h-22.17v-11.56a44.366,44.366,0,0,0,8.61-.69,43.021,43.021,0,0,0,8.9-2.6,1.016,1.016,0,0,1,1.11.22l5.24,5.24Z" fill="#44863f"/><path d="M298.645,105.959a2.2,2.2,0,0,1,0,3.11l-6,6a2.755,2.755,0,0,1-.27.23h-2.57a2.755,2.755,0,0,1-.27-.23l-38.89-38.89a2.2,2.2,0,0,1,0-3.11l6-6a2.2,2.2,0,0,1,3.11,0Z" fill="#8dc63f"/><path d="M307.975,59.8a61.152,61.152,0,0,1-3.26,19.76,60.277,60.277,0,0,1-8.31,16.01,1.035,1.035,0,0,1-1.56.12l-4.39-4.4-4.63-4.63a1.017,1.017,0,0,1-.1-1.31,44.012,44.012,0,0,0-33.65-69.45c-.97-.05-1.94-.06-2.9-.04V.109c.26-.01.52-.01.78-.01a57.032,57.032,0,0,1,41.02,17.48A60.411,60.411,0,0,1,307.975,59.8Z" fill="#44863f"/></g></g></svg>