<?xml version="1.0" encoding="UTF-8"?><svg id="b" xmlns="http://www.w3.org/2000/svg" viewBox="0 0 283.46 283.46"><defs><style>.d{fill:#fff;}</style></defs><g id="c"><path class="d" d="M141.13,222.23c46.9,0,79.75-31.96,79.75-79.45,0-51.38-38.23-75.87-71.69-75.87-17.62,0-32.56,6.87-41.82,20.01V0h-44.8v143.08c0,49.58,33.45,79.16,78.56,79.16ZM141.43,108.73c20.31,0,34.05,14.64,34.05,35.84s-13.74,35.84-34.05,35.84-34.05-14.64-34.05-35.84,13.74-35.84,34.05-35.84Z"/><path d="M141.43,180.41c20.31,0,34.05-14.64,34.05-35.84s-13.74-35.84-34.05-35.84-34.05,14.64-34.05,35.84,13.74,35.84,34.05,35.84Z"/><path d="M107.38,0v86.92c9.26-13.14,24.19-20.01,41.82-20.01,33.45,0,71.69,24.49,71.69,75.87,0,47.49-32.86,79.45-79.75,79.45s-78.56-29.57-78.56-79.16V0H0v283.46h283.46V0H107.38Z"/></g></svg>