<svg xmlns="http://www.w3.org/2000/svg" width="2000" height="360"><path d="M124.541 29.062l25.584 50.26 179.89 35.6 18.015-33.707z" fill="#009dff"/><path d="M65.338 15.247L0 0l146.765 265.447 26.695-45.8zM173.46 313.73L199.043 360l112.362-210.252-42.64-6.885zM973.373 70c-23.338 0-42.135 5.238-56.391 15.714-14.151 10.476-21.227 24.35-21.227 41.622 0 12.93 4.328 24.256 12.987 33.977 8.66 9.626 23.499 19.725 44.514 30.296l15.682 7.785c12.672 6.418 21.278 11.986 25.82 16.705 4.54 4.625 6.81 10.336 6.81 17.132 0 8.588-3.643 15.383-10.93 20.386-7.18 5.002-17.053 7.504-29.62 7.504-17.952 0-39.55-4.72-64.788-14.158v35.959c24.922 4.719 46.782 7.078 65.58 7.078 28.407 0 50.689-5.522 66.846-16.565 16.158-11.042 24.236-26.284 24.236-45.726 0-13.686-4.275-25.293-12.83-34.826-8.553-9.532-24.132-19.961-46.73-31.287l-16.792-8.352c-12.567-6.324-21.121-11.656-25.662-15.998-4.541-4.341-6.81-9.392-6.81-15.15 0-6.983 3.22-12.598 9.662-16.845 6.548-4.341 15.208-6.513 25.98-6.513 13.94 0 32.894 4.01 56.866 12.033v-33.55C1013.132 72.407 992.066 70 973.373 70zM450 75.239l86.65 209.522h48.946l83.798-209.522h-35.168L569.28 237.336 502.116 75.239zm713.3 50.539c-25.238 0-45.566 7.363-60.984 22.086-15.312 14.63-22.97 33.977-22.97 58.044 0 25.482 8.394 45.585 25.185 60.309 16.791 14.723 39.709 22.084 68.75 22.084 19.96 0 41.08-2.925 63.363-8.776v-29.449c-19.748 6.513-37.49 9.77-53.226 9.77-33.265 0-51.483-14.819-54.65-44.454h107.876c0-31.051-5.861-53.749-17.583-68.095-11.722-14.345-30.31-21.52-55.76-21.52zm227.946 0c-24.183 0-43.932 10.949-59.244 32.845v-29.305h-46.886V284.76h46.886v-97.824c13.728-18.781 28.037-28.173 42.927-28.173 13.095 0 19.643 8.825 19.643 26.475v99.522h46.89V174.904c0-15.195-4.489-27.182-13.465-35.96-8.976-8.776-21.228-13.166-36.751-13.166zm174.562 0c-22.599 0-40.18 4.105-52.747 12.316-12.567 8.117-18.852 19.537-18.852 34.26 0 10.571 3.697 19.443 11.09 26.616 7.391 7.173 19.694 13.873 36.908 20.103l15.842 5.662c15.84 5.663 23.759 12.271 23.759 19.822 0 11.703-9.61 17.553-28.83 17.553-16.474 0-36.328-4.342-59.56-13.025v30.723c21.331 5.663 42.452 8.493 63.362 8.493 21.754 0 39.39-4.53 52.908-13.591 13.623-9.155 20.434-21.047 20.434-35.676 0-11.137-4.012-20.244-12.037-27.323-7.92-7.078-22.072-14.063-42.454-20.953l-13.624-4.671c-14.362-4.908-21.544-10.901-21.544-17.98 0-10.76 9.716-16.138 29.147-16.138 12.355 0 27.934 2.925 46.731 8.777V131.3c-19.537-3.68-36.382-5.522-50.533-5.522zm190.088 0c-27.668 0-49.58 7.268-65.738 21.803-16.051 14.534-24.079 34.353-24.079 59.458 0 24.822 7.973 44.595 23.92 59.318 16.051 14.63 37.648 21.944 64.788 21.944 28.407 0 50.689-7.22 66.846-21.66 16.158-14.44 24.236-34.403 24.236-59.885 0-24.916-8.078-44.64-24.236-59.175-16.051-14.535-37.963-21.803-65.737-21.803zm235.39 0c-24.817 0-43.296 10.949-55.44 32.845v-29.305h-46.889V284.76h46.889v-98.674c11.722-16.894 26.928-25.341 45.62-25.341 5.702 0 11.88 1.086 18.534 3.256v-37.374a44.64 44.64 0 00-8.714-.85zm-829.411 26.191c19.114 0 28.671 13.26 28.671 39.78h-62.41c3.062-26.52 14.308-39.78 33.739-39.78zm594.02 0c12.462 0 22.231 4.907 29.307 14.723 7.181 9.816 10.772 23.17 10.772 40.064 0 36.902-13.466 55.354-40.395 55.354-12.25 0-21.914-4.954-28.99-14.864-7.075-9.91-10.611-23.313-10.611-40.207 0-17.082 3.536-30.531 10.612-40.347 7.18-9.816 16.95-14.723 29.306-14.723zM704.086 181.7v26.19h144.621V181.7z" fill="#fff"/></svg>
