<?xml version="1.0" encoding="UTF-8" standalone="no"?>
<svg
   id="Layer_1"
   viewBox="0 0 1300 319.99999"
   version="1.1"
   sodipodi:docname="logo_title_white.svg"
   width="1300"
   height="320"
   inkscape:version="1.1.2 (b8e25be833, 2022-02-05)"
   xmlns:inkscape="http://www.inkscape.org/namespaces/inkscape"
   xmlns:sodipodi="http://sodipodi.sourceforge.net/DTD/sodipodi-0.dtd"
   xmlns="http://www.w3.org/2000/svg"
   xmlns:svg="http://www.w3.org/2000/svg">
  <sodipodi:namedview
     id="namedview23"
     pagecolor="#ffffff"
     bordercolor="#666666"
     borderopacity="1.0"
     inkscape:pageshadow="2"
     inkscape:pageopacity="0.0"
     inkscape:pagecheckerboard="0"
     showgrid="false"
     width="666.32001px"
     lock-margins="true"
     inkscape:zoom="0.5594544"
     inkscape:cx="549.64265"
     inkscape:cy="79.541782"
     inkscape:window-width="1920"
     inkscape:window-height="1010"
     inkscape:window-x="-1926"
     inkscape:window-y="368"
     inkscape:window-maximized="1"
     inkscape:current-layer="Layer_1" />
  <defs
     id="defs4">
    <style
       id="style2">.cls-1{fill:#312929;}</style>
  </defs>
  <path
     class="cls-1"
     d="M 40.875039,180.8812 C 26.546943,190.24781 11.680092,193.11414 0,193.20921 v -54.47423 z"
     id="path6"
     style="fill:#ff8a00;fill-opacity:1;stroke-width:0.352128" />
  <path
     class="cls-1"
     d="M 22.655927,134.35098 H 0 V 39.054537 c 41.487742,0.323957 75.34839,34.402925 75.34839,77.077333 0,27.46952 -12.891415,44.28716 -19.902287,51.8544 L 22.652406,134.3545 Z"
     id="path8"
     style="fill:#ff8a00;fill-opacity:1;stroke-width:0.352128" />
  <path
     class="cls-1"
     d="m 231.6933,36.557948 c 0.19015,0 0.3803,0 0.57045,0.0035 V 101.0819 c -25.15604,-6.781991 -34.31489,-16.514812 -34.31489,-32.036627 0,-18.127559 14.60627,-32.483825 33.74444,-32.483825 z"
     id="path10"
     style="fill:#ff8a00;fill-opacity:1;stroke-width:0.352128" />
  <path
     class="cls-1"
     d="m 179.31423,69.795326 c 0,33.994454 25.43774,42.811744 52.12906,50.364894 0.27465,0.081 0.55284,0.15846 0.82397,0.23945 v 75.29557 c -0.19014,0.0106 -0.38029,0.0106 -0.57044,0.0106 -22.41296,0 -37.52278,-14.60628 -38.77987,-38.52987 h -18.63463 c 0.50003,33.2409 24.42361,55.40033 57.4145,55.40033 0.19015,0 0.3803,0 0.57044,-0.0106 v 19.69805 H 0 V 212.8298 c 29.356926,-0.15494 47.935209,-11.80334 55.731327,-17.09583 l 15.13799,15.69788 H 97.778949 L 70.309434,183.12074 C 81.239496,171.63079 96.652145,150.32704 96.652145,116.13187 96.652145,60.566047 53.259387,19.736784 0,19.433954 V 0 h 232.26375 v 19.69805 c -0.19015,-0.01056 -0.3803,-0.01056 -0.57045,-0.01056 -28.70901,0 -52.38259,20.645275 -52.38259,50.10784 z"
     id="path12"
     style="fill:#ff8a00;fill-opacity:1;stroke-width:0.352128" />
  <path
     class="cls-1"
     d="M 2.0669924,246.76086 H 17.000748 c 7.355958,0 17.789516,0.76764 27.011753,8.56376 6.697478,5.59884 12.518157,14.93376 12.518157,28.11039 0,15.37392 -7.577799,23.60667 -12.845637,28.1104 C 36.987544,317.25693 29.959065,320 16.891589,320 H 2.0669924 Z m 8.1235966,65.55218 h 7.137639 c 5.820678,0 13.835116,-0.65847 20.972754,-6.58831 5.489678,-4.61288 9.880717,-11.85968 9.880717,-22.28972 0,-17.56767 -12.299838,-28.98719 -30.853471,-28.98719 h -7.137639 z"
     id="path14"
     style="fill:#ff8a00;fill-opacity:1;stroke-width:0.352128" />
  <path
     class="cls-1"
     d="M 111.87112,299.35473 H 80.686649 l -8.785597,20.64175 H 62.897135 L 96.606363,243.2431 129.4388,319.99648 h -9.00392 z M 108.68436,291.67129 96.384528,262.3531 83.86637,291.67129 h 24.81447 z"
     id="path16"
     style="fill:#ff8a00;fill-opacity:1;stroke-width:0.352128" />
  <path
     class="cls-1"
     d="M 152.82715,254.44782 V 320 h -8.12712 v -65.55218 h -17.78951 v -7.68696 h 43.70263 v 7.68696 h -17.78952 z"
     id="path18"
     style="fill:#ff8a00;fill-opacity:1;stroke-width:0.352128" />
  <path
     class="cls-1"
     d="M 217.06237,299.35473 H 185.8779 l -8.7856,20.64175 h -9.00391 l 33.70923,-76.75338 32.83243,76.75338 h -9.00392 z m -3.18324,-7.68344 -12.29983,-29.31819 -12.51816,29.31819 h 24.81447 z"
     id="path20"
     style="fill:#ff8a00;fill-opacity:1;stroke-width:0.352128" />
  <text
     xml:space="preserve"
     style="font-style:normal;font-weight:normal;font-size:40px;line-height:1.25;font-family:sans-serif;fill:#000000;fill-opacity:1;stroke:none"
     x="303.34131"
     y="245.83286"
     id="text4209"><tspan
       sodipodi:role="line"
       id="tspan4207"
       x="303.34131"
       y="245.83286" /></text>
  <text
     xml:space="preserve"
     style="font-style:normal;font-weight:normal;font-size:40px;line-height:1.25;font-family:sans-serif;fill:#000000;fill-opacity:1;stroke:none"
     x="315.34857"
     y="199.69969"
     id="text966"><tspan
       sodipodi:role="line"
       id="tspan964"
       x="315.34857"
       y="199.69969" /></text>
  <text
     xml:space="preserve"
     style="font-style:normal;font-weight:normal;font-size:40px;line-height:1.25;font-family:sans-serif;fill:#ff8a00;fill-opacity:1;stroke:none"
     x="309.54956"
     y="316.24207"
     id="text1675"><tspan
       sodipodi:role="line"
       id="tspan1673"
       x="309.54956"
       y="316.24207"
       style="font-style:normal;font-variant:normal;font-weight:normal;font-stretch:normal;font-size:200px;font-family:Kapital;-inkscape-font-specification:'Kapital, Normal';font-variant-ligatures:normal;font-variant-caps:normal;font-variant-numeric:normal;font-variant-east-asian:normal;fill:#ff8a00;fill-opacity:1">IOT.QSDATA</tspan></text>
</svg>
