<?xml version="1.0" encoding="UTF-8"?>
<svg width="25px" height="25px" viewBox="0 0 25 25" version="1.1" xmlns="http://www.w3.org/2000/svg" xmlns:xlink="http://www.w3.org/1999/xlink">
  <title>fluxble logo</title>
  <g id="Page-1" stroke="none" stroke-width="1" fill="none" fill-rule="evenodd">
    <g id="fluxble-logo" fill="#FFFFFF" fill-rule="nonzero">
      <g id="Group-2" transform="translate(-0.000000, 0.000000)">
        <path d="M10.9152534,24.9423077 C10.5514714,24.8942308 10.1844842,24.8573718 9.82230472,24.7948718 C9.35916369,24.7147436 8.89121497,24.6346154 8.43768933,24.5128205 C7.98416369,24.3910256 7.56909959,24.2163462 7.11877907,24.0592949 L20.5338432,1.0400641 L20.5867278,1.06410256 L11.9873688,21.3333333 C12.4072406,21.2676282 12.754997,21.2291667 13.0947406,21.1554487 C15.9969842,20.5272436 18.3271124,18.0144231 18.7854457,15.0657051 C18.9966648,13.7833729 18.8622424,12.4679147 18.3960227,11.2548077 C18.2576794,10.9270368 18.2699799,10.555094 18.4296765,10.2371795 C18.8864073,9.22435897 19.3078816,8.19391026 19.7630098,7.12179487 C19.8559586,7.2275641 19.9232663,7.30448718 19.9937791,7.38782051 C21.5963432,9.49839744 22.3014714,11.875 22.2165355,14.5192308 C22.0562791,19.3701923 18.3591637,23.7371795 13.5819201,24.661859 C13.0546765,24.7628205 12.5146124,24.8044872 11.979356,24.8766026 C11.893726,24.8941328 11.8091828,24.9166063 11.7261509,24.9439103 L10.9152534,24.9423077 Z" id="Path"></path>
        <path d="M1.39121497,19.588141 C1.60275343,19.8894231 1.80307395,20.1971154 2.03224061,20.4887821 C2.31749702,20.8637821 2.60275343,21.2435897 2.92166369,21.588141 C3.24057395,21.9326923 3.58352266,22.2291667 3.93127907,22.5496795 L18.1716637,0.0352564103 L18.1251893,1.16482416e-14 L4.09954831,16.974359 C3.96493292,16.5705128 3.83833036,16.2435897 3.7469842,15.9086538 C2.96813805,13.0432692 4.12358677,9.81891026 6.53063805,8.05608974 C7.57234279,7.27673363 8.80225853,6.78786425 10.0947406,6.63942308 C10.4498957,6.61155503 10.7749806,6.42939031 10.9841637,6.14102564 C11.6684586,5.26923077 12.3880098,4.42147436 13.129997,3.52564103 C12.9921765,3.49358974 12.891215,3.46153846 12.7886509,3.44551282 C10.1796765,3.00160256 7.73897138,3.46634615 5.4344842,4.75961538 C1.20211241,7.12980769 -0.962951694,12.4262821 0.412048306,17.0897436 C0.572304716,17.6057692 0.779035485,18.1041667 0.960125229,18.6121795 C0.984257638,18.6959307 1.00352064,18.781009 1.01781754,18.8669872 L1.39121497,19.588141 Z" id="Path"></path>
      </g>
    </g>
  </g>
</svg>
