<svg xmlns="http://www.w3.org/2000/svg" width="1175.721" height="320">
  <path d="M110.703 25.834l22.743 44.674 159.901 31.646 16.012-29.962z" fill="#009dff" />
  <path d="M58.078 13.553L0 0l130.457 235.953 23.728-40.711zm96.108 265.317L176.927 320l99.877-186.89-37.903-6.121z"
    fill="#fff" />
  <path
    d="M424.056 80c-10.453 0-19.038.545-25.757 1.635-6.72 1.09-12.04 2.887-15.96 5.394-3.92 2.397-6.72 5.613-8.399 9.645-1.493 3.924-2.24 8.773-2.24 14.549 0 8.173.56 14.822 1.68 19.945 1.307 5.122 4.852 9.153 10.638 12.096 2.8 1.526 5.973 2.889 9.519 4.088a275.578 275.578 0 0010.92 3.105c3.919.981 7.745 2.016 11.478 3.106 3.92 1.09 7.56 2.29 10.92 3.597 3.733 1.526 6.44 3.105 8.12 4.74 1.68 1.635 2.518 4.033 2.518 7.194 0 5.23-.933 8.663-2.8 10.297-1.679 1.526-5.319 2.29-10.918 2.29-5.6 0-9.24-.873-10.92-2.616-1.68-1.853-2.517-5.176-2.517-9.971v-2.452c0-.763.186-1.472.56-2.126H374.22c-.933 1.962-1.587 4.577-1.96 7.846-.187 3.16-.281 6.321-.281 9.482 0 9.699 4.107 16.51 12.32 20.434 8.212 3.814 21.091 5.722 38.636 5.722 10.64 0 19.503-.653 26.596-1.961 7.279-1.199 12.973-3.27 17.079-6.213 4.293-2.943 7.279-6.865 8.959-11.77 1.866-4.904 2.799-11.062 2.799-18.473 0-5.122-.373-9.371-1.12-12.75-.747-3.487-1.865-6.376-3.359-8.665-1.306-2.398-3.173-4.304-5.6-5.72-2.24-1.526-4.853-2.943-7.84-4.25-2.799-1.09-5.598-2.017-8.398-2.78a308.09 308.09 0 00-8.959-2.29 389 389 0 00-10.078-2.778c-3.547-.981-7.373-2.18-11.48-3.597-3.546-1.199-6.159-2.507-7.839-3.924-1.493-1.525-2.239-4.086-2.239-7.683 0-3.814.746-6.429 2.24-7.845 1.492-1.526 4.946-2.29 10.359-2.29s8.866.764 10.36 2.29c1.68 1.416 2.517 4.03 2.517 7.845v3.27c0 .545-.092 1.254-.279 2.126h36.395c.934-1.526 1.496-3.27 1.682-5.231.374-1.962.56-4.632.56-8.01 0-5.232-.935-9.591-2.801-13.079-1.68-3.487-4.572-6.266-8.678-8.336-4.106-2.18-9.427-3.706-15.96-4.578-6.346-.872-14.277-1.309-23.796-1.309zm405.74 0c-10.453 0-19.038.545-25.758 1.635-6.72 1.09-12.04 2.887-15.96 5.394-3.92 2.397-6.719 5.613-8.399 9.645-1.493 3.924-2.239 8.773-2.239 14.549 0 8.173.56 14.822 1.68 19.945 1.306 5.122 4.852 9.153 10.638 12.096 2.8 1.526 5.975 2.889 9.52 4.088a275.443 275.443 0 0010.918 3.105c3.92.981 7.746 2.016 11.479 3.106 3.92 1.09 7.56 2.29 10.919 3.597 3.733 1.526 6.44 3.105 8.12 4.74 1.68 1.635 2.518 4.033 2.518 7.194 0 5.23-.932 8.663-2.799 10.297-1.68 1.526-5.32 2.29-10.919 2.29-5.6 0-9.24-.873-10.92-2.616-1.68-1.853-2.517-5.176-2.517-9.971v-2.452c0-.763.186-1.472.56-2.126H779.96c-.933 1.962-1.587 4.577-1.96 7.846-.187 3.16-.281 6.321-.281 9.482 0 9.699 4.107 16.51 12.32 20.434 8.212 3.814 21.092 5.722 38.637 5.722 10.639 0 19.502-.653 26.595-1.961 7.28-1.199 12.973-3.27 17.08-6.213 4.292-2.943 7.278-6.865 8.958-11.77 1.867-4.904 2.801-11.062 2.801-18.473 0-5.122-.375-9.371-1.122-12.75-.746-3.487-1.865-6.376-3.358-8.665-1.307-2.398-3.174-4.304-5.6-5.72-2.24-1.526-4.853-2.943-7.84-4.25-2.8-1.09-5.6-2.017-8.399-2.78a308.09 308.09 0 00-8.959-2.29 389 389 0 00-10.078-2.778c-3.546-.981-7.373-2.18-11.48-3.597-3.545-1.199-6.159-2.507-7.838-3.924-1.494-1.525-2.24-4.086-2.24-7.683 0-3.814.746-6.429 2.24-7.845 1.493-1.526 4.946-2.29 10.36-2.29 5.412 0 8.865.764 10.359 2.29 1.68 1.416 2.517 4.03 2.517 7.845v3.27c0 .545-.092 1.254-.278 2.126h36.395c.933-1.526 1.495-3.27 1.682-5.231.373-1.962.56-4.632.56-8.01 0-5.232-.935-9.591-2.802-13.079-1.68-3.487-4.571-6.266-8.678-8.336-4.106-2.18-9.427-3.706-15.96-4.578-6.345-.872-14.277-1.309-23.796-1.309zM968.1 80c-6.72 0-12.691.163-17.918.49-5.039.327-9.425.927-13.158 1.799-3.733.763-6.905 1.798-9.518 3.106-2.427 1.307-4.575 2.888-6.442 4.741-1.866 1.962-3.452 4.032-4.759 6.212-1.306 2.18-2.425 5.176-3.359 8.99-.746 3.814-1.306 8.774-1.679 14.877-.373 6.103-.56 14.003-.56 23.703s.187 17.656.56 23.868c.373 6.103.933 11.061 1.68 14.875.933 3.815 2.052 6.866 3.358 9.155a30.865 30.865 0 004.76 6.049c3.732 3.814 9.053 6.484 15.96 8.01 7.092 1.417 17.45 2.125 31.075 2.125 6.72 0 12.6-.164 17.64-.49 5.039-.328 9.425-.872 13.158-1.635 3.733-.872 6.813-1.907 9.24-3.106 2.613-1.308 4.853-2.942 6.72-4.904a30.865 30.865 0 004.759-6.049c1.306-2.289 2.333-5.34 3.08-9.155.933-3.814 1.584-8.772 1.958-14.875.373-6.212.56-14.169.56-23.868 0-9.7-.187-17.6-.56-23.703-.374-6.103-1.025-11.063-1.958-14.877-.747-3.814-1.774-6.81-3.08-8.99-1.307-2.18-2.893-4.25-4.76-6.212-3.733-3.705-9.145-6.321-16.238-7.847-6.906-1.526-17.08-2.29-30.519-2.29zm-459.773 2.125v123.75h93.511V178.41h-49.556v-23.376h48.997v-25.012h-48.997v-21.742h49.835V82.125zm125.853 0v123.75h40.035v-66.37h1.681l50.114 66.37h22.958V82.125h-40.316v42.994h-1.68l-29.677-42.994zm421.33 0v123.75h43.957V157.65h6.717c1.306 0 2.52.164 3.64.49 1.12.219 2.054.818 2.8 1.799.748.872 1.401 2.18 1.961 3.924.56 1.743 1.12 4.031 1.68 6.865 1.306 7.193 2.425 12.86 3.358 17.002.934 4.141 1.68 7.41 2.24 9.808.56 2.289 1.027 4.032 1.4 5.231a80.16 80.16 0 001.68 3.106h46.757v-.818a15.003 15.003 0 01-1.401-2.779c-.187-.98-.56-2.398-1.12-4.25a450.42 450.42 0 01-1.4-7.357c-.56-3.051-1.4-7.083-2.52-12.096-1.494-7.193-3.08-12.752-4.76-16.675-1.493-4.032-2.985-7.029-4.478-8.99-.933-1.526-2.055-2.616-3.361-3.27a50.371 50.371 0 00-3.359-1.799v-.98c2.987-.981 5.6-1.963 7.84-2.943 2.24-1.09 4.107-2.67 5.6-4.74 1.68-2.071 2.89-4.905 3.637-8.501.747-3.706 1.122-8.774 1.122-15.204 0-5.994-.748-11.06-2.242-15.202-1.306-4.25-3.825-7.684-7.558-10.3-3.546-2.724-8.4-4.685-14.559-5.884-6.16-1.308-13.999-1.962-23.518-1.962zm-87.41 23.213c3.546 0 6.068.273 7.56.818 1.494.436 2.613 1.198 3.36 2.288.373.763.746 1.744 1.119 2.943s.654 3.051.84 5.558c.188 2.397.28 5.667.28 9.808.186 4.141.28 9.645.28 16.51 0 6.649-.094 12.044-.28 16.185 0 4.032-.092 7.248-.28 9.646-.186 2.397-.467 4.194-.84 5.393-.373 1.2-.746 2.18-1.12 2.943-.746 1.09-1.865 1.854-3.358 2.29-1.493.436-4.015.653-7.56.653-3.547 0-6.16-.217-7.84-.653-1.493-.436-2.52-1.2-3.08-2.29-.56-.762-1.025-1.744-1.398-2.943l-.841-5.393c-.187-2.398-.373-5.614-.56-9.646v-32.694c.187-4.142.373-7.412.56-9.81.373-2.506.654-4.358.84-5.557.374-1.199.839-2.18 1.399-2.943.56-1.09 1.587-1.852 3.08-2.288 1.68-.545 4.293-.818 7.84-.818zm131.367 2.29h11.197c4.293 0 7.374.817 9.24 2.451 2.054 1.635 3.08 4.905 3.08 9.809 0 5.776-.84 9.699-2.52 11.77-1.68 1.96-4.574 2.942-8.68 2.942h-12.317z" fill="#fff" /></svg>
