<svg width="176" height="30" viewBox="0 0 176 30" fill="none" xmlns="http://www.w3.org/2000/svg">
<path fill-rule="evenodd" clip-rule="evenodd" d="M40.2985 10.4103V2.23047H35.8391V24.6949H40.079V22.6178H40.141C40.6222 23.5197 41.3341 24.1595 42.2765 24.5372C43.2167 24.9149 44.2855 25.1037 45.4785 25.1037C46.2946 25.1037 47.0995 24.9349 47.8956 24.5994C48.6917 24.2639 49.4079 23.7508 50.0466 23.0576C50.6852 22.3645 51.2041 21.4781 51.601 20.3984C51.998 19.3187 52.1975 18.0347 52.1975 16.5462C52.1975 15.0556 51.998 13.7715 51.601 12.6918C51.2019 11.6121 50.6852 10.728 50.0466 10.0348C49.4079 9.3417 48.6917 8.82852 47.8956 8.49306C47.0995 8.1576 46.2946 7.98876 45.4785 7.98876C44.474 7.98876 43.505 8.18204 42.5736 8.57081C41.6423 8.95737 40.9039 9.57274 40.3606 10.4103H40.2985ZM46.8268 12.9273C47.1417 13.4094 47.3723 13.9648 47.5186 14.5935C47.665 15.2222 47.7404 15.882 47.7382 16.5751C47.7382 17.246 47.665 17.8969 47.5186 18.5256C47.3701 19.1566 47.1417 19.712 46.8268 20.194C46.5119 20.6761 46.1194 21.0604 45.6493 21.3426C45.177 21.6247 44.6071 21.7669 43.9374 21.7669C43.2877 21.7669 42.7222 21.6247 42.241 21.3426C41.7598 21.0582 41.3629 20.6761 41.048 20.194C40.7331 19.7097 40.5025 19.1543 40.3561 18.5256C40.2098 17.8969 40.1366 17.246 40.1366 16.5751C40.1366 15.8842 40.2098 15.2222 40.3561 14.5935C40.5025 13.9648 40.7331 13.4094 41.048 12.9273C41.3629 12.4452 41.7598 12.0609 42.241 11.7788C42.7222 11.4966 43.2877 11.3544 43.9374 11.3544C44.6071 11.3544 45.1792 11.4966 45.6493 11.7788C46.1194 12.0631 46.5119 12.4452 46.8268 12.9273ZM58.3511 2.23047V24.6905H53.8917V2.23047H58.3511ZM85.6373 21.7647C84.38 21.7647 83.4176 21.4403 82.7479 20.7894C82.0782 20.1407 81.7123 19.0921 81.648 17.6437H93.3608C93.4428 16.3863 93.3386 15.18 93.0459 14.027C92.7532 12.874 92.2764 11.8454 91.6179 10.9434C90.9593 10.0415 90.1144 9.32392 89.0899 8.78852C88.0654 8.25313 86.8613 7.98654 85.4798 7.98654C84.2447 7.98654 83.1204 8.20647 82.1048 8.64634C81.0892 9.08621 80.2155 9.69048 79.4837 10.4547C78.7498 11.2211 78.1843 12.1275 77.7874 13.1761C77.3904 14.2247 77.1909 15.3577 77.1909 16.5729C77.1909 17.8325 77.3838 18.9855 77.7719 20.0341C78.1577 21.0827 78.7076 21.9846 79.4194 22.7399C80.1313 23.4953 80.9983 24.0773 82.025 24.4861C83.0517 24.8949 84.2026 25.0992 85.4798 25.0992C87.3226 25.0992 88.8926 24.6816 90.1898 23.8418C91.4892 23.0043 92.4516 21.6092 93.0792 19.6586H89.1542C89.0079 20.1607 88.6109 20.6383 87.9612 21.0893C87.3115 21.5403 86.5376 21.7647 85.6373 21.7647ZM85.3557 11.3522C86.4422 11.3522 87.2538 11.6477 87.7882 12.2342C88.3227 12.8207 88.693 13.6804 88.9036 14.8112H81.6502C81.6702 14.4979 81.7389 14.1403 81.8542 13.7426C81.9696 13.345 82.1691 12.9673 82.4508 12.6096C82.7346 12.2542 83.1116 11.9565 83.5817 11.7143C84.0518 11.4722 84.6438 11.3522 85.3557 11.3522ZM71.6028 22.4267V24.6905H75.8404V8.42641H71.381V16.9506C71.381 18.6078 71.1083 19.7964 70.565 20.5206C70.0217 21.2448 69.1414 21.6069 67.9284 21.6069C66.8618 21.6069 66.1189 21.2759 65.6998 20.6161C65.2807 19.9563 65.0723 18.9544 65.0723 17.6126V8.42641H60.6129V18.4301C60.6129 19.4365 60.7016 20.354 60.879 21.1826C61.0564 22.0113 61.3668 22.7133 61.8059 23.2909C62.245 23.8685 62.8459 24.3128 63.6109 24.6283C64.376 24.9415 65.3539 25.0992 66.5469 25.0992C67.4893 25.0992 68.4096 24.8904 69.3099 24.4705C70.2102 24.0529 70.942 23.3709 71.5074 22.4267H71.6028Z" fill="#1890FF"/>
<path fill-rule="evenodd" clip-rule="evenodd" d="M131.983 24.6216C131.522 24.8971 130.883 25.0348 130.067 25.0348C129.375 25.0348 128.827 24.8415 128.419 24.4527C128.011 24.064 127.807 23.4308 127.807 22.5489C127.076 23.4308 126.222 24.064 125.248 24.4527C124.275 24.8415 123.224 25.0348 122.093 25.0348C121.361 25.0348 120.665 24.9504 120.004 24.7838C119.345 24.6171 118.773 24.355 118.292 23.9973C117.811 23.6419 117.429 23.1753 117.146 22.5977C116.864 22.0201 116.722 21.3226 116.722 20.505C116.722 19.5831 116.88 18.8277 117.192 18.2412C117.507 17.6548 117.92 17.1771 118.432 16.8106C118.944 16.444 119.532 16.1663 120.19 15.9775C120.849 15.7886 121.525 15.6309 122.215 15.5065C122.947 15.3599 123.643 15.251 124.304 15.1755C124.962 15.1022 125.543 14.9978 126.047 14.86C126.55 14.7245 126.947 14.5246 127.24 14.2624C127.532 14.0003 127.679 13.6182 127.679 13.1139C127.679 12.5274 127.568 12.0542 127.348 11.6987C127.129 11.3433 126.845 11.07 126.501 10.8812C126.155 10.6924 125.769 10.5657 125.339 10.5035C124.909 10.4413 124.485 10.4102 124.069 10.4102C122.938 10.4102 121.995 10.6257 121.244 11.0545C120.49 11.4855 120.082 12.2963 120.019 13.4915H117.35C117.392 12.4852 117.6 11.6365 117.977 10.9434C118.354 10.2503 118.855 9.69044 119.485 9.25946C120.113 8.8307 120.829 8.51968 121.636 8.33084C122.441 8.14201 123.306 8.04871 124.226 8.04871C124.958 8.04871 125.685 8.10202 126.408 8.20644C127.131 8.31085 127.785 8.52634 128.371 8.85069C128.956 9.17504 129.428 9.63046 129.783 10.217C130.138 10.8034 130.317 11.5677 130.317 12.5074V20.8582C130.317 21.4869 130.353 21.9468 130.428 22.2401C130.502 22.5333 130.748 22.6799 131.167 22.6799C131.397 22.6799 131.67 22.6288 131.983 22.5222V24.6216ZM127.648 16.2596C127.313 16.5106 126.874 16.695 126.328 16.8106C125.783 16.9261 125.213 17.0194 124.616 17.0927C124.02 17.166 123.417 17.2504 122.811 17.3437C122.204 17.437 121.66 17.5903 121.179 17.7992C120.698 18.008 120.306 18.3079 120.002 18.6944C119.698 19.0832 119.547 19.6119 119.547 20.2829C119.547 20.7227 119.636 21.096 119.813 21.4003C119.991 21.7047 120.221 21.9513 120.505 22.1401C120.787 22.3289 121.117 22.4644 121.494 22.5489C121.871 22.6333 122.268 22.6755 122.687 22.6755C123.565 22.6755 124.319 22.5555 124.947 22.3134C125.574 22.0734 126.087 21.7691 126.486 21.4003C126.883 21.0338 127.178 20.6361 127.366 20.2051C127.555 19.7763 127.648 19.372 127.648 18.9944V16.2596ZM159.143 23.653C157.927 24.5749 156.4 25.037 154.559 25.037C153.262 25.037 152.135 24.8282 151.184 24.4083C150.231 23.9884 149.43 23.4019 148.783 22.6466C148.133 21.8913 147.647 20.9893 147.323 19.9407C147 18.8922 146.816 17.7503 146.773 16.5129C146.773 15.2755 146.962 14.1425 147.339 13.1161C147.716 12.0897 148.244 11.1967 148.924 10.4413C149.605 9.686 150.41 9.0995 151.342 8.67963C152.273 8.25975 153.293 8.05093 154.404 8.05093C155.847 8.05093 157.047 8.35084 157.998 8.94844C158.952 9.54604 159.715 10.3058 160.291 11.23C160.866 12.1519 161.265 13.1605 161.484 14.2491C161.704 15.3399 161.793 16.3773 161.75 17.3637H149.599C149.579 18.0768 149.661 18.7522 149.849 19.392C150.038 20.0318 150.341 20.5983 150.761 21.0915C151.18 21.5847 151.714 21.9779 152.362 22.2712C153.009 22.5644 153.774 22.711 154.654 22.711C155.785 22.711 156.71 22.4489 157.433 21.9246C158.156 21.4003 158.63 20.6028 158.861 19.5342H161.5C161.141 21.3559 160.356 22.731 159.143 23.653ZM158.497 13.2094C158.256 12.6429 157.932 12.1564 157.524 11.7476C157.116 11.3388 156.635 11.0145 156.08 10.7723C155.526 10.5324 154.914 10.4102 154.244 10.4102C153.552 10.4102 152.929 10.5302 152.375 10.7723C151.82 11.0145 151.344 11.3433 150.947 11.7632C150.55 12.183 150.235 12.6696 150.004 13.2249C149.774 13.7803 149.638 14.3735 149.596 15.0022H158.921C158.879 14.3735 158.739 13.7759 158.497 13.2094ZM165.296 21.0582C165.547 21.4669 165.877 21.7935 166.285 22.0334C166.693 22.2756 167.154 22.4467 167.667 22.5533C168.179 22.6577 168.709 22.711 169.252 22.711C169.671 22.711 170.11 22.6799 170.572 22.6177C171.033 22.5555 171.456 22.44 171.842 22.2712C172.23 22.1045 172.55 21.8579 172.8 21.5314C173.051 21.207 173.177 20.7916 173.177 20.2895C173.177 19.5964 172.915 19.0743 172.392 18.7167C171.869 18.3612 171.215 18.0724 170.43 17.8525C169.645 17.6325 168.791 17.4326 167.871 17.2549C166.948 17.0771 166.097 16.8261 165.312 16.4995C164.527 16.1752 163.873 15.7175 163.349 15.131C162.826 14.5446 162.564 13.727 162.564 12.6784C162.564 11.8609 162.746 11.1589 163.114 10.5702C163.48 9.98368 163.95 9.50605 164.527 9.13949C165.101 8.77293 165.751 8.49968 166.474 8.32195C167.197 8.14423 167.913 8.05537 168.625 8.05537C169.545 8.05537 170.394 8.13312 171.168 8.29085C171.942 8.44858 172.627 8.72184 173.224 9.10839C173.82 9.49716 174.297 10.0215 174.652 10.6813C175.007 11.3411 175.217 12.1653 175.279 13.1516H172.609C172.567 12.6273 172.432 12.1919 172.201 11.8454C171.971 11.4988 171.678 11.2211 171.323 11.0123C170.966 10.8034 170.574 10.6502 170.146 10.5568C169.716 10.4635 169.283 10.4147 168.842 10.4147C168.443 10.4147 168.041 10.4458 167.633 10.508C167.225 10.5702 166.853 10.6813 166.518 10.839C166.183 10.9967 165.91 11.2055 165.702 11.4677C165.491 11.7298 165.387 12.0697 165.387 12.4896C165.387 12.9517 165.549 13.3338 165.873 13.6382C166.196 13.9425 166.611 14.1935 167.112 14.3935C167.616 14.5934 168.179 14.76 168.809 14.8978C169.436 15.0355 170.064 15.1755 170.694 15.3221C171.363 15.4687 172.017 15.6464 172.656 15.8575C173.295 16.0663 173.86 16.344 174.352 16.6906C174.845 17.0371 175.242 17.4726 175.545 17.9969C175.849 18.5212 176 19.1721 176 19.9474C176 20.9338 175.796 21.7513 175.388 22.4C174.98 23.0509 174.446 23.5752 173.787 23.9729C173.128 24.3705 172.383 24.6482 171.558 24.806C170.731 24.9637 169.911 25.0414 169.093 25.0414C168.192 25.0414 167.334 24.9481 166.518 24.7593C165.702 24.5705 164.979 24.2617 164.352 23.8307C163.724 23.4019 163.221 22.8354 162.844 22.1312C162.467 21.4292 162.258 20.5739 162.216 19.5675H164.886C164.908 20.1496 165.043 20.6494 165.296 21.0582ZM131.635 8.42637L137.664 24.6904H140.52L146.454 8.42637H143.66L139.232 21.9846H139.17L134.617 8.42637H131.635ZM105.009 11.7609L108.307 24.6904H111.134L116.314 8.42637H113.551L109.908 21.7335H109.846L106.455 8.42637H103.535L100.268 21.7335H100.206L96.5318 8.42637H93.5803L98.7914 24.6904H101.681L104.947 11.7609H105.009Z" fill="white"/>
<path fill-rule="evenodd" clip-rule="evenodd" d="M15.4493 4.12322C7.61264 4.12322 1.25953 10.488 1.25953 18.339C1.25953 19.6142 1.43028 20.8516 1.74516 22.029C0.631985 19.9319 0 17.5392 0 15C0 6.71579 6.70347 0 14.9725 0C23.2415 0 29.945 6.71579 29.9472 15C29.9472 16.053 29.8386 17.0794 29.6323 18.0702C29.4882 10.3436 23.195 4.12322 15.4493 4.12322ZM28.4038 21.6291C25.9602 26.5877 20.8666 30 14.9725 30C9.3312 30 4.41946 26.872 1.86713 22.249C2.67651 22.1668 3.96709 21.7847 5.40624 20.3962C5.78261 20.0113 6.24271 19.4196 6.79033 18.7154C9.18207 15.6399 13.2431 10.4177 19.2877 10.8968C21.9909 11.1922 23.5564 13.2472 23.9467 14.2602C23.9467 14.2602 22.1217 12.4008 20.1016 13.967C18.9773 14.7845 18.2145 17.226 20.3943 19.2565C22.3124 21.0427 24.8248 22.0002 28.4038 21.6291Z" fill="#1890FF"/>
</svg>
