<svg width="30" height="30" viewBox="0 0 30 30" fill="none" xmlns="http://www.w3.org/2000/svg">
  <path d="M14.9726 30C20.8666 30 25.9602 26.5877 28.4039 21.6291C24.8249 22.0001 22.3125 21.0426 20.3943 19.2565C18.2145 17.226 18.9773 14.7845 20.1016 13.967C22.1217 12.4008 23.9467 14.2602 23.9467 14.2602C23.5565 13.2472 21.9909 11.1922 19.2878 10.8968C11.8592 10.308 7.42644 18.3301 5.4063 20.3962C3.96715 21.7846 2.67657 22.1668 1.86719 22.249C4.41952 26.872 9.33126 30 14.9726 30Z" fill="#00ADE8"/>
  <path d="M1.25953 18.339C1.25953 10.488 7.61264 4.12322 15.4493 4.12322C23.195 4.12322 29.4882 10.3436 29.6323 18.0702C29.8386 17.0794 29.9472 16.053 29.9472 15C29.945 6.71579 23.2415 0 14.9725 0C6.70347 0 0 6.71579 0 15C0 17.5392 0.631985 19.9319 1.74516 22.029C1.43028 20.8516 1.25953 19.6142 1.25953 18.339Z" fill="#00ADE8"/>
</svg>
