<svg xmlns="http://www.w3.org/2000/svg" width="2000" height="360">
  <path d="M124.541 29.062l25.584 50.26 179.89 35.6 18.015-33.707z" fill="#009dff" />
  <path d="M65.338 15.247L0 0l146.765 265.447 26.695-45.8zM173.46 313.73L199.043 360l112.362-210.252-42.64-6.885z"
    fill="#fff" />
  <path
    d="M940.257 70c-24.092 0-43.495 5.238-58.211 15.714-14.608 10.476-21.912 24.35-21.912 41.622 0 12.93 4.467 24.256 13.406 33.977 8.94 9.626 24.257 19.725 45.95 30.296l16.188 7.785c13.081 6.418 21.965 11.986 26.652 16.705 4.688 4.625 7.03 10.336 7.03 17.132 0 8.588-3.76 15.383-11.281 20.386-7.413 5.002-17.604 7.504-30.576 7.504-18.532 0-40.825-4.72-66.879-14.158v35.959C886.351 287.64 908.916 290 928.32 290c29.324 0 52.324-5.522 69.003-16.565 16.679-11.042 25.018-26.284 25.018-45.726 0-13.686-4.414-25.293-13.244-34.826-8.83-9.532-24.91-19.961-48.239-31.287l-17.332-8.352c-12.973-6.324-21.803-11.656-26.49-15.998-4.688-4.341-7.03-9.392-7.03-15.15 0-6.983 3.324-12.598 9.974-16.845 6.758-4.341 15.698-6.513 26.817-6.513 14.39 0 33.956 4.01 58.701 12.033v-33.55C981.298 72.407 959.552 70 940.257 70zm-540.258 5.239l89.445 209.522h50.526l86.5-209.522h-36.302l-67.041 162.097-69.33-162.097zm736.312 50.539c-26.053 0-47.036 7.363-62.952 22.086-15.806 14.63-23.71 33.977-23.71 58.044 0 25.482 8.664 45.585 25.997 60.309 17.332 14.723 40.99 22.084 70.967 22.084 20.603 0 42.406-2.925 65.407-8.776v-29.449c-20.385 6.513-38.7 9.77-54.942 9.77-34.338 0-53.144-14.819-56.414-44.454h111.356c0-31.051-6.05-53.749-18.15-68.095-12.1-14.345-31.287-21.52-57.559-21.52zm235.299 0c-24.964 0-45.349 10.949-61.155 32.845v-29.305h-48.4V284.76h48.4v-97.824c14.17-18.781 28.942-28.173 44.312-28.173 13.517 0 20.277 8.825 20.277 26.475v99.522h48.401V174.904c0-15.195-4.632-27.182-13.898-35.96-9.266-8.776-21.913-13.166-37.937-13.166zm180.194 0c-23.328 0-41.477 4.105-54.45 12.316-12.972 8.117-19.46 19.537-19.46 34.26 0 10.571 3.817 19.443 11.448 26.616 7.63 7.173 20.33 13.873 38.099 20.103l16.353 5.662c16.352 5.663 24.525 12.271 24.525 19.822 0 11.703-9.919 17.553-29.759 17.553-17.005 0-37.5-4.342-61.482-13.025v30.723c22.02 5.663 43.822 8.493 65.406 8.493 22.456 0 40.661-4.53 54.615-13.591 14.062-9.155 21.094-21.047 21.094-35.676 0-11.137-4.142-20.244-12.426-27.323-8.176-7.078-22.784-14.063-43.823-20.953l-14.064-4.671c-14.825-4.908-22.239-10.901-22.239-17.98 0-10.76 10.029-16.138 30.087-16.138 12.754 0 28.835 2.925 48.239 8.777V131.3c-20.167-3.68-37.556-5.522-52.163-5.522zm196.22 0c-28.561 0-51.18 7.268-67.859 21.803-16.57 14.534-24.855 34.353-24.855 59.458 0 24.822 8.23 44.595 24.69 59.318 16.57 14.63 38.863 21.944 66.879 21.944 29.324 0 52.324-7.22 69.003-21.66 16.679-14.44 25.018-34.403 25.018-59.885 0-24.916-8.34-44.64-25.018-59.175-16.57-14.535-39.189-21.803-67.858-21.803zm242.984 0c-25.618 0-44.693 10.949-57.23 32.845v-29.305h-48.4V284.76h48.4v-98.674c12.101-16.894 27.798-25.341 47.093-25.341 5.886 0 12.264 1.086 19.132 3.256v-37.374a47.518 47.518 0 00-8.995-.85zm-856.169 26.191c19.731 0 29.597 13.26 29.597 39.78h-64.424c3.16-26.52 14.77-39.78 34.827-39.78zm613.185 0c12.863 0 22.948 4.907 30.251 14.723 7.413 9.816 11.12 23.17 11.12 40.064 0 36.902-13.901 55.354-41.699 55.354-12.645 0-22.62-4.954-29.924-14.864-7.304-9.91-10.954-23.313-10.954-40.207 0-17.082 3.65-30.531 10.954-40.347 7.413-9.816 17.497-14.723 30.252-14.723zM662.28 181.7v26.19h149.288V181.7z"
    fill="#fff" />
</svg>
