<?xml version="1.0" encoding="UTF-8"?>
<svg version="1.1" xmlns="http://www.w3.org/2000/svg" width="645" height="109">
<path d="M0 0 C2.25964485 1.05920852 4.07478713 2.35607514 6 3.9375 C6.556875 3.256875 7.11375 2.57625 7.6875 1.875 C8.450625 1.235625 9.21375 0.59625 10 -0.0625 C12.75 0.1875 12.75 0.1875 15 0.9375 C13.62845496 3.89159701 12.01136276 6.37758376 10 8.9375 C11.32 9.9275 12.64 10.9175 14 11.9375 C14.556875 11.256875 15.11375 10.57625 15.6875 9.875 C16.450625 9.235625 17.21375 8.59625 18 7.9375 C20.75 8.1875 20.75 8.1875 23 8.9375 C21.38731308 11.64974618 19.75098126 14.31102812 18 16.9375 C18.680625 17.494375 19.36125 18.05125 20.0625 18.625 C22 20.9375 22 20.9375 22 23.4375 C20.83363367 26.35341582 19.35083942 27.8899947 17 29.9375 C18.15173355 32.40550047 19.04783565 33.98533565 21 35.9375 C20.625 38.0625 20.625 38.0625 20 39.9375 C16.73045798 39.37378586 15.17424117 38.43787734 13 35.9375 C9.83884224 37.30733503 9.0072908 37.9265638 7 40.9375 C8.65 42.5875 10.3 44.2375 12 45.9375 C11.67 46.9275 11.34 47.9175 11 48.9375 C8.625 48.6875 8.625 48.6875 6 47.9375 C5.34 46.6175 4.68 45.2975 4 43.9375 C1.36 46.2475 -1.28 48.5575 -4 50.9375 C-7.0831351 49.73850302 -10.06279492 48.46049523 -13 46.9375 C-13.598125 47.5975 -14.19625 48.2575 -14.8125 48.9375 C-17 50.9375 -17 50.9375 -20 50.9375 C-20.75 49.1875 -20.75 49.1875 -21 46.9375 C-19.0625 44.6875 -19.0625 44.6875 -17 42.9375 C-17.66 41.6175 -18.32 40.2975 -19 38.9375 C-21.46800047 40.08923355 -23.04783565 40.98533565 -25 42.9375 C-25.99 42.9375 -26.98 42.9375 -28 42.9375 C-28.495 41.4525 -28.495 41.4525 -29 39.9375 C-27.0625 37.25 -27.0625 37.25 -25 34.9375 C-26.22007944 32.2469472 -26.22007944 32.2469472 -28 29.9375 C-28.46167861 27.24437478 -28.42697209 25.57347941 -26.8828125 23.2734375 C-25.63593427 21.78704593 -24.32142331 20.35803006 -23 18.9375 C-23.66 18.36 -24.32 17.7825 -25 17.1875 C-27 14.9375 -27 14.9375 -27 10.9375 C-23.13275596 11.47461723 -21.03438225 12.53092098 -18 14.9375 C-17.34 14.9375 -16.68 14.9375 -16 14.9375 C-14.62036318 12.21854472 -14.62036318 12.21854472 -14 8.9375 C-15.87197454 6.24316683 -15.87197454 6.24316683 -18 3.9375 C-17.67 2.9475 -17.34 1.9575 -17 0.9375 C-14.47671825 1.37254858 -13.26840377 1.64672925 -11.5 3.5625 C-10.10080261 5.16675062 -10.10080261 5.16675062 -8.0625 4.875 C-5.81602542 4.011208 -5.81602542 4.011208 -4 1.8125 C-2 -0.0625 -2 -0.0625 0 0 Z M0 10.9375 C-2.45579697 14.62314084 -2.45579697 14.62314084 -3 18.9375 C-2.01 19.2675 -1.02 19.5975 0 19.9375 C0 20.9275 0 21.9175 0 22.9375 C-3.63 24.2575 -7.26 25.5775 -11 26.9375 C-10.87625 28.34 -10.7525 29.7425 -10.625 31.1875 C-10.55539063 31.97640625 -10.48578125 32.7653125 -10.4140625 33.578125 C-9.98492887 36.023377 -9.21399362 37.78586903 -8 39.9375 C-7.34 39.9375 -6.68 39.9375 -6 39.9375 C-6.33 36.6375 -6.66 33.3375 -7 29.9375 C-6.21753906 29.70675781 -5.43507813 29.47601563 -4.62890625 29.23828125 C-3.61699219 28.91214844 -2.60507812 28.58601563 -1.5625 28.25 C-0.55316406 27.93675781 0.45617187 27.62351562 1.49609375 27.30078125 C4.2307387 26.17489399 4.2307387 26.17489399 4.875 23.4375 C4.99669295 21.00364092 4.76681968 19.23795905 4 16.9375 C4.66 16.9375 5.32 16.9375 6 16.9375 C5.88693303 14.97855639 5.88693303 14.97855639 5 12.9375 C2.50965614 11.64089566 2.50965614 11.64089566 0 10.9375 Z " fill="#FAFBFD" transform="translate(47,27.0625)"/>
<path d="M0 0 C18 0 18 0 23 3 C25.51855199 7.12126689 25.08846982 10.39493538 24 15 C22.4375 17.4375 22.4375 17.4375 21 19 C21.66 19 22.32 19 23 19 C25.03643611 21.12476346 25.93544185 22.45611972 26.28515625 25.40234375 C26.21167969 26.23894531 26.13820313 27.07554688 26.0625 27.9375 C26.01222656 28.77152344 25.96195312 29.60554688 25.91015625 30.46484375 C25 33 25 33 19 38 C12.73 38 6.46 38 0 38 C0 25.46 0 12.92 0 0 Z M5 5 C5 8.63 5 12.26 5 16 C6.5675 16.061875 8.135 16.12375 9.75 16.1875 C10.63171875 16.22230469 11.5134375 16.25710937 12.421875 16.29296875 C15.44671583 15.94923684 16.75583602 14.99772541 19 13 C18.74438677 10.6568787 18.40729228 8.32156597 18 6 C14.14854957 4.07427479 9.19956748 4.95116782 5 5 Z M5 21 C5 25.29 5 29.58 5 34 C11.73109629 34.24893207 11.73109629 34.24893207 18 32 C20.29827312 30.12061828 20.29827312 30.12061828 20.3125 27.0625 C20.25259966 24.08944983 20.25259966 24.08944983 18.8671875 22.3203125 C16.16566496 20.41003087 14.07776508 20.70716887 10.8125 20.8125 C7.9353125 20.9053125 7.9353125 20.9053125 5 21 Z " fill="#F8FAFD" transform="translate(258,32)"/>
<path d="M0 0 C3.92002004 3.92002004 5.54979298 8.01344279 5.875 13.5 C5.37082583 18.03756752 4.62798534 20.16520735 1.4375 23.4375 C-2.3125 23.8125 -2.3125 23.8125 -5.5625 23.4375 C-5.5625 22.7775 -5.5625 22.1175 -5.5625 21.4375 C-6.5525 22.0975 -7.5425 22.7575 -8.5625 23.4375 C-14.78631562 23.99319782 -14.78631562 23.99319782 -17.25390625 22.2265625 C-19.79449762 18.75315699 -19.12530164 14.53121194 -18.5625 10.4375 C-17.25 7.8125 -17.25 7.8125 -14.5625 6.4375 C-10.8283494 6.12587304 -7.32456903 6.25835386 -3.5625 6.4375 C-3.5625 10.7275 -3.5625 15.0175 -3.5625 19.4375 C-2.5725 19.1075 -1.5825 18.7775 -0.5625 18.4375 C0.96964888 15.37320224 0.66688548 12.8209358 0.4375 9.4375 C-0.39229708 6.52671756 -0.39229708 6.52671756 -2.5625 4.4375 C-6.59261771 2.53136325 -9.91592141 2.35128952 -14.3125 2.9375 C-18.35966166 4.80542077 -19.58241808 6.47733616 -21.5625 10.4375 C-23.00856987 15.29216313 -22.42065797 18.74786322 -20.5625 23.4375 C-18.06688945 26.03485007 -16.74838004 26.42172963 -13.109375 26.73046875 C-11.85640625 26.69566406 -10.6034375 26.66085938 -9.3125 26.625 C-8.04921875 26.59792969 -6.7859375 26.57085937 -5.484375 26.54296875 C-4.03804688 26.49076172 -4.03804688 26.49076172 -2.5625 26.4375 C-2.5625 27.7575 -2.5625 29.0775 -2.5625 30.4375 C-5.36357012 31.83803506 -7.75141681 31.6450504 -10.875 31.6875 C-12.00550781 31.71328125 -13.13601563 31.7390625 -14.30078125 31.765625 C-19.07821775 31.28502061 -22.50392311 29.10779226 -25.5625 25.4375 C-27.4893565 19.6569305 -27.72567026 12.6813412 -25.65625 6.91015625 C-20.21629216 -2.45284812 -9.63920902 -4.22772326 0 0 Z M-12.75 10.5 C-14.89196662 12.38581473 -14.89196662 12.38581473 -14.8125 15.625 C-14.73 16.553125 -14.6475 17.48125 -14.5625 18.4375 C-12.0875 18.9325 -12.0875 18.9325 -9.5625 19.4375 C-7.27236347 16.0022952 -7.38407027 14.452169 -7.5625 10.4375 C-10.47293228 9.07905982 -10.47293228 9.07905982 -12.75 10.5 Z " fill="#FCF3F3" transform="translate(430.5625,37.5625)"/>
<path d="M0 0 C0.99 0.66 1.98 1.32 3 2 C3.33 1.67 3.66 1.34 4 1 C5.66617115 0.95936168 7.33388095 0.957279 9 1 C9.07468157 5.00178342 9.12885021 9.00329167 9.16479492 13.00561523 C9.17979409 14.36441117 9.20020038 15.72315941 9.22631836 17.08178711 C9.49564933 31.46194881 9.49564933 31.46194881 6 37 C3.85208273 39.17911109 2.63183398 39.88426803 -0.3671875 40.43359375 C-6.25215342 40.44276036 -9.46516073 39.81881202 -14 36 C-13.34 34.35 -12.68 32.7 -12 31 C-11.34 31.33 -10.68 31.66 -10 32 C-10 32.66 -10 33.32 -10 34 C-4.44506076 35.02703748 -4.44506076 35.02703748 1 34 C1.33 32.02 1.66 30.04 2 28 C1.484375 28.350625 0.96875 28.70125 0.4375 29.0625 C-3.10821105 30.42623502 -5.3530138 29.95973321 -9 29 C-12.11905047 26.42339309 -13.7181368 24.8455896 -15 21 C-15.48566422 14.52759035 -15.93386705 8.47931482 -12 3 C-8.49371702 -0.89586998 -4.92722677 -0.39104974 0 0 Z M-8.375 6.875 C-10.66902263 11.28658198 -10.92687576 15.12591197 -10 20 C-7.66995779 23.32863173 -6.38307483 24.73655718 -2.375 25.5 C0.52636077 24.88918721 1.27014445 24.39820883 3 22 C3.47790288 18.67534381 3.47790288 18.67534381 3.375 15 C3.38273437 13.7625 3.39046875 12.525 3.3984375 11.25 C3.26655542 8.06102033 3.26655542 8.06102033 1.66015625 6.09375 C-2.0015113 3.68135726 -5.06707154 4.26347753 -8.375 6.875 Z " fill="#F9FAFD" transform="translate(214,41)"/>
<path d="M0 0 C1.65 0 3.3 0 5 0 C5 13.2 5 26.4 5 40 C2.66666667 40 0.33333333 40 -2 40 C-3.258125 40.226875 -4.51625 40.45375 -5.8125 40.6875 C-8.85099399 41.07281627 -9.89272442 41.04529414 -12.8125 39.8125 C-16.02338435 37.15205297 -17.67977763 34.9606671 -19 31 C-19.57785229 24.64362482 -19.27837831 19.53932887 -16 14 C-13.56766397 11.71074256 -12.05739234 10.9927823 -8.7109375 11.015625 C-2.38157895 11.61842105 -2.38157895 11.61842105 -1 13 C-0.67 8.71 -0.34 4.42 0 0 Z M-12 18 C-12.98275588 20.94826763 -13.13414725 22.92652504 -13.125 26 C-13.12757813 26.86625 -13.13015625 27.7325 -13.1328125 28.625 C-13.09594205 31.15011695 -13.09594205 31.15011695 -12 34 C-9.43072407 35.90316736 -8.10124839 36.0060749 -4.875 35.8125 C-1.69792816 35.25088039 -1.69792816 35.25088039 0 32 C0.39389847 28.90237565 0.39389847 28.90237565 0.375 25.5 C0.40335937 24.3553125 0.43171875 23.210625 0.4609375 22.03125 C0.29263734 18.92666634 0.29263734 18.92666634 -1.86328125 17.11328125 C-5.92194487 14.99862105 -8.26479644 15.50986429 -12 18 Z " fill="#F8F9FD" transform="translate(385,30)"/>
<path d="M0 0 C1.98 0 3.96 0 6 0 C6 4.29 6 8.58 6 13 C7.32 12.34 8.64 11.68 10 11 C12.72690251 10.54196559 15.27233676 10.53512105 18 11 C20.96858157 13.20740681 21.82865791 14.48597373 23 18 C23.08178114 19.70016844 23.10749501 21.40336297 23.09765625 23.10546875 C23.09443359 24.08837891 23.09121094 25.07128906 23.08789062 26.08398438 C23.07951172 27.10814453 23.07113281 28.13230469 23.0625 29.1875 C23.05798828 30.22326172 23.05347656 31.25902344 23.04882812 32.32617188 C23.0370401 34.88417266 23.02058515 37.44205733 23 40 C21.02 40 19.04 40 17 40 C16.97494385 39.3387915 16.9498877 38.67758301 16.92407227 37.99633789 C16.80846898 35.01817695 16.68558246 32.0403608 16.5625 29.0625 C16.52318359 28.02158203 16.48386719 26.98066406 16.44335938 25.90820312 C16.40146484 24.91884766 16.35957031 23.92949219 16.31640625 22.91015625 C16.27974854 21.99371338 16.24309082 21.07727051 16.20532227 20.13305664 C16.22996136 18.0179272 16.22996136 18.0179272 15 17 C12.04182893 16.74994614 12.04182893 16.74994614 9 17 C6.51942372 19.48057628 6.70980995 20.36192464 6.5859375 23.7890625 C6.54726562 24.73007812 6.50859375 25.67109375 6.46875 26.640625 C6.4378125 27.62546875 6.406875 28.6103125 6.375 29.625 C6.31699219 31.11386719 6.31699219 31.11386719 6.2578125 32.6328125 C6.1633686 35.08835385 6.07780125 37.5438841 6 40 C4.02 40 2.04 40 0 40 C0 26.8 0 13.6 0 0 Z " fill="#F8FAFD" transform="translate(128,30)"/>
<path d="M0 0 C1.32 0 2.64 0 4 0 C4.54627431 6.99534607 3.53558409 12.19787562 0.77734375 18.65234375 C-0.29600614 21.1093156 -0.29600614 21.1093156 1 24 C1.375 27.375 1.375 27.375 1 31 C-1.4375 33.875 -1.4375 33.875 -4 36 C-4.33 36.33 -4.66 36.66 -5 37 C-8.66344611 37.13568319 -11.50615721 37.16461426 -15 36 C-17.43576216 36.77004725 -17.43576216 36.77004725 -20.0625 37.9375 C-25.54931294 40.06638342 -30.17198229 40.45511635 -36 40 C-36 38.68 -36 37.36 -36 36 C-34.94039062 35.72285156 -33.88078125 35.44570312 -32.7890625 35.16015625 C-31.40101131 34.794386 -30.01299213 34.42849428 -28.625 34.0625 C-27.57699219 33.78889648 -27.57699219 33.78889648 -26.5078125 33.50976562 C-22.66044902 32.51487491 -22.66044902 32.51487491 -19 31 C-18.49869796 29.00919273 -18.49869796 29.00919273 -18.1875 26.6875 C-17.4970306 23.34669037 -17.12376545 22.14144623 -14.8125 19.5 C-11.50865988 17.73795193 -8.71293914 17.29121091 -5 17 C-2.75519358 11.38798394 -1.16651426 5.92863717 0 0 Z M-11 23 C-13.33391203 25.78114056 -13.33391203 25.78114056 -12.625 28.6875 C-12.41875 29.450625 -12.2125 30.21375 -12 31 C-9.65466049 31.76956136 -9.65466049 31.76956136 -7 32 C-5 31 -5 31 -4 29 C-4.23043864 26.34533951 -4.23043864 26.34533951 -5 24 C-7.97 23.505 -7.97 23.505 -11 23 Z " fill="#F8F9FD" transform="translate(80,53)"/>
<path d="M0 0 C-0.33 1.65 -0.66 3.3 -1 5 C-2.46373047 5.29003906 -2.46373047 5.29003906 -3.95703125 5.5859375 C-5.22933594 5.84632812 -6.50164063 6.10671875 -7.8125 6.375 C-9.07707031 6.63023438 -10.34164062 6.88546875 -11.64453125 7.1484375 C-15.10239018 7.82777181 -15.10239018 7.82777181 -18 10 C-17.979375 10.928125 -17.95875 11.85625 -17.9375 12.8125 C-18.01651745 16.84238997 -19.24193006 18.16081036 -22 21 C-24.70879335 22.35439668 -27.00933268 22.06501451 -30 22 C-33.20578207 27.39154257 -34.06898067 32.84431924 -35 39 C-36.9375 39.5625 -36.9375 39.5625 -39 40 C-40 39 -40 39 -40.3125 35.125 C-40.29977109 31.12175879 -39.43437241 28.13838799 -37.9375 24.4375 C-36.4968008 20.8557617 -35.73824136 18.50428676 -36.4375 14.6875 C-37.10620864 10.30374334 -36.49265252 8.61004847 -34 5 C-30.83872004 2.60178762 -27.87280104 2.75279993 -24 3 C-23.01 3.33 -22.02 3.66 -21 4 C-18.8241616 3.229355 -18.8241616 3.229355 -16.5 2.0625 C-10.91049705 -0.33653445 -6.00062102 -0.41068889 0 0 Z M-31 9 C-31.93391003 10.81656815 -31.93391003 10.81656815 -32 13 C-30.6483633 15.24755753 -30.6483633 15.24755753 -29 17 C-27.35 16.67 -25.7 16.34 -24 16 C-23.67 14.02 -23.34 12.04 -23 10 C-26.22775842 7.84816105 -27.49103862 7.24551931 -31 9 Z " fill="#F8F9FD" transform="translate(44,13)"/>
<path d="M0 0 C2.93250784 1.60377103 4.21031036 2.3117845 6 5 C6.88240477 9.10158294 6.88478063 13.12883349 6.875 17.3125 C6.895625 18.43462891 6.91625 19.55675781 6.9375 20.71289062 C6.9845317 23.47600293 7.00444741 26.2365698 7 29 C4 29 1 29 -2 29 C-3.093125 29.226875 -4.18625 29.45375 -5.3125 29.6875 C-9.66824452 30.05663089 -11.46980918 29.54502129 -15 27 C-16.85400123 23.52374769 -17.12216931 21.69229277 -16.4375 17.8125 C-14.62417041 14.26468124 -13.75692003 13.38009307 -10 12 C-6.31850756 11.76666597 -2.68304875 11.82584533 1 12 C0.67 10.02 0.34 8.04 0 6 C-1.27875 5.938125 -2.5575 5.87625 -3.875 5.8125 C-4.95394531 5.76029297 -4.95394531 5.76029297 -6.0546875 5.70703125 C-7.01761719 5.85205078 -7.01761719 5.85205078 -8 6 C-8.99 7.485 -8.99 7.485 -10 9 C-13.125 9.1875 -13.125 9.1875 -16 9 C-15.6655974 5.90677596 -15.4404882 4.41112232 -13.125 2.25 C-9.09132912 -0.12274758 -4.57856994 -1.07448051 0 0 Z M-11 18 C-10.67 19.98 -10.34 21.96 -10 24 C-7.03155004 24.67464772 -4.68650224 25.14843292 -1.6875 24.5 C0.98387573 22.12544379 0.7461778 19.42659975 1 16 C-5.31268603 15.62447835 -5.31268603 15.62447835 -11 18 Z " fill="#F8F9FD" transform="translate(336,41)"/>
<path d="M0 0 C1.54300781 -0.02513672 1.54300781 -0.02513672 3.1171875 -0.05078125 C6.53255493 0.36172417 8.36826005 1.28960326 11.125 3.3125 C14.87740204 8.48822696 14.9454927 14.15880474 14.125 20.3125 C12.64962095 24.37702464 10.7709143 26.88189047 7.125 29.3125 C7.95 30.09625 8.775 30.88 9.625 31.6875 C12.125 34.3125 12.125 34.3125 12.125 36.3125 C9.4375 36.6875 9.4375 36.6875 6.125 36.3125 C4.92359036 34.81885558 3.72730175 33.31883101 2.609375 31.76171875 C0.21056896 29.41972654 -2.57251549 29.38960648 -5.78515625 28.87109375 C-9.00310965 28.01096789 -10.21344377 26.08176038 -11.875 23.3125 C-14.08117801 18.90014399 -13.30681815 13.11501802 -12.875 8.3125 C-10.57723772 2.135842 -6.33666972 0.02370325 0 0 Z M-4.875 5.3125 C-7.89631902 8.33381902 -8.62644994 11.08714891 -8.875 15.3125 C-7.75574199 21.14746661 -7.75574199 21.14746661 -3.875 25.3125 C-0.94629668 26.31442482 0.7312512 26.40624971 3.75 25.6875 C6.89368016 23.86747465 7.77892798 22.713103 9.125 19.3125 C9.78457898 14.42196315 9.84772089 10.62410458 7.4375 6.25 C3.21390933 2.71131593 -0.09422794 2.67049439 -4.875 5.3125 Z " fill="#FBF7F7" transform="translate(512.875,35.6875)"/>
<path d="M0 0 C3.54482488 3.13263594 5.29222827 5.74473502 6.00390625 10.48046875 C6.30489175 16.12151963 5.24497799 20.89404689 1.6875 25.375 C-2.08167701 27.76697771 -5.04132824 28.62769722 -9.4375 28.3125 C-14.07161375 27.19134345 -16.85394217 25.68822155 -19.42578125 21.609375 C-20.5458909 18.78689606 -20.6135284 16.46982733 -20.625 13.4375 C-20.64175781 12.41785156 -20.65851563 11.39820313 -20.67578125 10.34765625 C-20.11495908 5.75856304 -17.84410884 2.31800737 -14.3125 -0.625 C-9.03026236 -2.38574588 -4.93564139 -2.42125804 0 0 Z M-11.3125 3.375 C-11.3125 4.035 -11.3125 4.695 -11.3125 5.375 C-11.9725 5.375 -12.6325 5.375 -13.3125 5.375 C-15.61421899 10.12229542 -16.21180254 14.6021505 -14.5625 19.6875 C-12.95406434 21.85888813 -11.90685417 22.58228067 -9.3125 23.375 C-5.91712504 23.23641327 -4.03646596 23.1382377 -1.65625 20.62890625 C0.66966379 16.72759154 0.31257506 12.7718348 -0.3125 8.375 C-1.64266164 5.14661227 -1.64266164 5.14661227 -4.3125 3.375 C-7.98049815 2.95728196 -7.98049815 2.95728196 -11.3125 3.375 Z " fill="#F9F9FD" transform="translate(309.3125,42.625)"/>
<path d="M0 0 C2.96858157 2.20740681 3.82865791 3.48597373 5 7 C5.08178114 8.70016844 5.10749501 10.40336297 5.09765625 12.10546875 C5.09443359 13.08837891 5.09121094 14.07128906 5.08789062 15.08398438 C5.07951172 16.10814453 5.07113281 17.13230469 5.0625 18.1875 C5.05798828 19.22326172 5.05347656 20.25902344 5.04882812 21.32617188 C5.0370401 23.88417266 5.02058515 26.44205733 5 29 C3.02 29 1.04 29 -1 29 C-1.02505615 28.3387915 -1.0501123 27.67758301 -1.07592773 26.99633789 C-1.19153102 24.01817695 -1.31441754 21.0403608 -1.4375 18.0625 C-1.47681641 17.02158203 -1.51613281 15.98066406 -1.55664062 14.90820312 C-1.59853516 13.91884766 -1.64042969 12.92949219 -1.68359375 11.91015625 C-1.72025146 10.99371338 -1.75690918 10.07727051 -1.79467773 9.13305664 C-1.77003864 7.0179272 -1.77003864 7.0179272 -3 6 C-5.95817107 5.74994614 -5.95817107 5.74994614 -9 6 C-11.48057628 8.48057628 -11.29019005 9.36192464 -11.4140625 12.7890625 C-11.45273438 13.73007812 -11.49140625 14.67109375 -11.53125 15.640625 C-11.5621875 16.62546875 -11.593125 17.6103125 -11.625 18.625 C-11.68300781 20.11386719 -11.68300781 20.11386719 -11.7421875 21.6328125 C-11.8366314 24.08835385 -11.92219875 26.5438841 -12 29 C-13.98 29 -15.96 29 -18 29 C-18 19.76 -18 10.52 -18 1 C-16.35 1 -14.7 1 -13 1 C-13 1.66 -13 2.32 -13 3 C-12.34 2.505 -11.68 2.01 -11 1.5 C-6.88248556 -0.55875722 -4.58746602 -0.50971845 0 0 Z " fill="#F9FAFD" transform="translate(188,41)"/>
<path d="M0 0 C3.4375 1.625 3.4375 1.625 6 4 C6.875 7.25 6.875 7.25 7 10 C5.02 10 3.04 10 1 10 C0.34 8.68 -0.32 7.36 -1 6 C-2.98 6 -4.96 6 -7 6 C-7.33 7.32 -7.66 8.64 -8 10 C-7.08476562 10.32613281 -6.16953125 10.65226562 -5.2265625 10.98828125 C-4.03804687 11.42527344 -2.84953125 11.86226562 -1.625 12.3125 C-0.44164062 12.74175781 0.74171875 13.17101563 1.9609375 13.61328125 C5 15 5 15 7 18 C7.4375 21.4375 7.4375 21.4375 7 25 C4.25826204 28.36084008 1.65878257 29.26402694 -2.5 29.875 C-7.08194322 30.19467046 -10.04453237 29.46660072 -13.75 26.6875 C-15.34776706 24.53051446 -15.64426042 22.63247289 -16 20 C-14.02 20 -12.04 20 -10 20 C-9.67 21.32 -9.34 22.64 -9 24 C-7.081875 24.0309375 -7.081875 24.0309375 -5.125 24.0625 C-4.40570313 24.07410156 -3.68640625 24.08570312 -2.9453125 24.09765625 C-0.91814596 24.12649242 -0.91814596 24.12649242 1 23 C0.91248595 21.03832492 0.91248595 21.03832492 0 19 C-2.40800544 17.77870565 -2.40800544 17.77870565 -5.3125 17 C-9.57278829 15.72589509 -12.18916913 14.52522256 -15 11 C-15 7.26357514 -14.46757292 5.55807091 -12.0625 2.6875 C-8.28255285 -0.40518403 -4.75285697 -0.62607207 0 0 Z " fill="#F8FAFD" transform="translate(244,41)"/>
<path d="M0 0 C9.9 0 19.8 0 30 0 C30 1.65 30 3.3 30 5 C26.37 5 22.74 5 19 5 C18.67 15.89 18.34 26.78 18 38 C16.02 38 14.04 38 12 38 C11.67 27.11 11.34 16.22 11 5 C7.37 5 3.74 5 0 5 C0 3.35 0 1.7 0 0 Z " fill="#F9FBFD" transform="translate(94,32)"/>
<path d="M0 0 C1.65 0 3.3 0 5 0 C7.66666667 6.66666667 10.33333333 13.33333333 13 20 C15.31 13.4 17.62 6.8 20 0 C21.65 0 23.3 0 25 0 C23.31632748 6.83807348 21.21222478 13.48703016 18.875 20.125 C18.60929199 20.88353271 18.34358398 21.64206543 18.06982422 22.42358398 C16.1278453 27.8721547 16.1278453 27.8721547 15 29 C13.33382885 29.04063832 11.66611905 29.042721 10 29 C8.57383715 25.03139842 7.14972524 21.06206889 5.72753906 17.09204102 C5.2430817 15.74060005 4.7580569 14.38936235 4.27246094 13.03833008 C3.57599238 11.10029972 2.88154429 9.16155589 2.1875 7.22265625 C1.76855469 6.05484619 1.34960938 4.88703613 0.91796875 3.68383789 C0 1 0 1 0 0 Z " fill="#FBF6F6" transform="translate(459,36)"/>
<path d="M0 0 C1.32 0 2.64 0 4 0 C4 2.97 4 5.94 4 9 C4.66 8.67 5.32 8.34 6 8 C8.05859375 7.83203125 8.05859375 7.83203125 10.4375 7.8125 C11.21996094 7.79832031 12.00242187 7.78414062 12.80859375 7.76953125 C15 8 15 8 18 10 C18.90238747 12.70716242 19.11851302 14.23776768 19.09765625 17.01171875 C19.09443359 17.76904297 19.09121094 18.52636719 19.08789062 19.30664062 C19.07951172 20.09232422 19.07113281 20.87800781 19.0625 21.6875 C19.05798828 22.48478516 19.05347656 23.28207031 19.04882812 24.10351562 C19.0370585 26.06904257 19.01912348 28.03453085 19 30 C17.35 30 15.7 30 14 30 C13.67 24.39 13.34 18.78 13 13 C9.14061025 11.65486576 9.14061025 11.65486576 6 13 C4.84429296 16.46712111 4.67164707 19.5414956 4.4375 23.1875 C4.35371094 24.45980469 4.26992188 25.73210938 4.18359375 27.04296875 C4.12300781 28.01878906 4.06242188 28.99460937 4 30 C2.68 30 1.36 30 0 30 C0 20.1 0 10.2 0 0 Z " fill="#FBF6F6" transform="translate(592,35)"/>
<path d="M0 0 C2.5 1.5 2.5 1.5 4 4 C4.59879858 6.70491771 4.81452473 9.21787101 5 12 C0.05 12 -4.9 12 -10 12 C-7.6969193 17.00943797 -7.6969193 17.00943797 -4.6875 17.875 C-1.65044985 18.01625815 1.02996982 17.62163422 4 17 C3.67 18.65 3.34 20.3 3 22 C-7.8018794 22.7752545 -7.8018794 22.7752545 -12.1875 19.9375 C-15.11595461 15.1913839 -15.30853306 11.6829076 -14.3125 6.25 C-11.5640865 -0.55559533 -6.80012314 -1.08751969 0 0 Z M-7.1875 3.625 C-9.4555109 5.04747363 -9.4555109 5.04747363 -10 9 C-6.7 9 -3.4 9 0 9 C-0.5444891 5.04747363 -0.5444891 5.04747363 -2.8125 3.625 C-5 2.79166667 -5 2.79166667 -7.1875 3.625 Z " fill="#FBF7F7" transform="translate(563,43)"/>
<path d="M0 0 C5.61 0 11.22 0 17 0 C17 0.99 17 1.98 17 3 C13.04 3 9.08 3 5 3 C5 5.97 5 8.94 5 12 C8.63 12 12.26 12 16 12 C16 12.99 16 13.98 16 15 C12.37 15 8.74 15 5 15 C5 18.63 5 22.26 5 26 C8.96 26 12.92 26 17 26 C17 26.99 17 27.98 17 29 C11.39 29 5.78 29 0 29 C0 19.43 0 9.86 0 0 Z " fill="#FBF6F6" transform="translate(441,36)"/>
<path d="M0 0 C0 1.98 0 3.96 0 6 C-0.969375 6.144375 -1.93875 6.28875 -2.9375 6.4375 C-5.86486773 6.67562341 -5.86486773 6.67562341 -7 8 C-7.15686249 9.55948542 -7.25076639 11.12542668 -7.31640625 12.69140625 C-7.35830078 13.63564453 -7.40019531 14.57988281 -7.44335938 15.55273438 C-7.48267578 16.54595703 -7.52199219 17.53917969 -7.5625 18.5625 C-7.62727539 20.05813477 -7.62727539 20.05813477 -7.69335938 21.58398438 C-7.79980298 24.0558415 -7.90181928 26.5278031 -8 29 C-9.98 29 -11.96 29 -14 29 C-14 19.76 -14 10.52 -14 1 C-11.69 1 -9.38 1 -7 1 C-4.53721199 -0.231394 -2.7204945 -0.07159196 0 0 Z " fill="#F8F9FD" transform="translate(363,41)"/>
<path d="M0 0 C3.63 0 7.26 0 11 0 C11 0.99 11 1.98 11 3 C10.01 3 9.02 3 8 3 C8 10.59 8 18.18 8 26 C8.99 26 9.98 26 11 26 C11 26.99 11 27.98 11 29 C7.37 29 3.74 29 0 29 C0 28.01 0 27.02 0 26 C0.99 26 1.98 26 3 26 C3 18.41 3 10.82 3 3 C2.01 3 1.02 3 0 3 C0 2.01 0 1.02 0 0 Z " fill="#FBF6F6" transform="translate(485,36)"/>
<path d="M0 0 C0.98484375 0.02707031 1.9696875 0.05414063 2.984375 0.08203125 C3.73203125 0.11683594 4.4796875 0.15164062 5.25 0.1875 C4.92 1.8375 4.59 3.4875 4.25 5.1875 C3.3425 4.94 2.435 4.6925 1.5 4.4375 C-1.76856518 3.8525716 -1.76856518 3.8525716 -4.125 5.75 C-6.21062609 8.87843913 -6.36564756 10.49361466 -5.75 14.1875 C-4.33333333 16.77083333 -4.33333333 16.77083333 -1.75 18.1875 C1.94432511 18.04137105 1.94432511 18.04137105 5.25 17.1875 C4.92 18.8375 4.59 20.4875 4.25 22.1875 C-4.6015625 22.9609375 -4.6015625 22.9609375 -8.8125 20.125 C-11.91481559 15.42148927 -12.06629101 11.9127237 -11.0625 6.4375 C-8.78340135 0.79401763 -5.89450422 -0.21051801 0 0 Z " fill="#FCF7F7" transform="translate(582.75,42.8125)"/>
<path d="M0 0 C7.26 0 14.52 0 22 0 C22 0.99 22 1.98 22 3 C19.03 3 16.06 3 13 3 C13 11.58 13 20.16 13 29 C11.68 29 10.36 29 9 29 C9 20.42 9 11.84 9 3 C6.03 3 3.06 3 0 3 C0 2.01 0 1.02 0 0 Z " fill="#FBF6F6" transform="translate(528,36)"/>
<path d="M0 0 C1.65 0 3.3 0 5 0 C5 9.24 5 18.48 5 28 C3.35 28 1.7 28 0 28 C0 18.76 0 9.52 0 0 Z " fill="#F9F9FE" transform="translate(158,42)"/>
<path d="M0 0 C0.33 0 0.66 0 1 0 C1 5.61 1 11.22 1 17 C0.34 16.67 -0.32 16.34 -1 16 C-1.02712153 14.083412 -1.04645097 12.1667127 -1.0625 10.25 C-1.07410156 9.18265625 -1.08570312 8.1153125 -1.09765625 7.015625 C-1.01510087 4.46631499 -0.74617558 2.42066409 0 0 Z " fill="#756E50" transform="translate(1,37)"/>
<path d="M0 0 C0.99 0.33 1.98 0.66 3 1 C3.33 1.99 3.66 2.98 4 4 C3.01 4.99 2.02 5.98 1 7 C0.01 6.67 -0.98 6.34 -2 6 C-2.33 5.01 -2.66 4.02 -3 3 C-2.01 2.01 -1.02 1.02 0 0 Z " fill="#F6F5FE" transform="translate(160,31)"/>
</svg>
