<?xml version="1.0" encoding="UTF-8"?>
<svg version="1.1" xmlns="http://www.w3.org/2000/svg" width="645" height="109">
<path d="M0 0 C2.25964485 1.05920852 4.07478713 2.35607514 6 3.9375 C6.556875 3.256875 7.11375 2.57625 7.6875 1.875 C8.450625 1.235625 9.21375 0.59625 10 -0.0625 C12.75 0.1875 12.75 0.1875 15 0.9375 C13.62845496 3.89159701 12.01136276 6.37758376 10 8.9375 C11.32 9.9275 12.64 10.9175 14 11.9375 C14.556875 11.256875 15.11375 10.57625 15.6875 9.875 C16.450625 9.235625 17.21375 8.59625 18 7.9375 C20.75 8.1875 20.75 8.1875 23 8.9375 C21.38731308 11.64974618 19.75098126 14.31102812 18 16.9375 C18.680625 17.494375 19.36125 18.05125 20.0625 18.625 C22 20.9375 22 20.9375 22 23.4375 C20.83363367 26.35341582 19.35083942 27.8899947 17 29.9375 C18.15173355 32.40550047 19.04783565 33.98533565 21 35.9375 C20.625 38.0625 20.625 38.0625 20 39.9375 C16.73045798 39.37378586 15.17424117 38.43787734 13 35.9375 C9.83884224 37.30733503 9.0072908 37.9265638 7 40.9375 C8.65 42.5875 10.3 44.2375 12 45.9375 C11.67 46.9275 11.34 47.9175 11 48.9375 C8.625 48.6875 8.625 48.6875 6 47.9375 C5.34 46.6175 4.68 45.2975 4 43.9375 C1.36 46.2475 -1.28 48.5575 -4 50.9375 C-7.0831351 49.73850302 -10.06279492 48.46049523 -13 46.9375 C-13.598125 47.5975 -14.19625 48.2575 -14.8125 48.9375 C-17 50.9375 -17 50.9375 -20 50.9375 C-20.75 49.1875 -20.75 49.1875 -21 46.9375 C-19.0625 44.6875 -19.0625 44.6875 -17 42.9375 C-17.66 41.6175 -18.32 40.2975 -19 38.9375 C-21.46800047 40.08923355 -23.04783565 40.98533565 -25 42.9375 C-25.99 42.9375 -26.98 42.9375 -28 42.9375 C-28.495 41.4525 -28.495 41.4525 -29 39.9375 C-27.0625 37.25 -27.0625 37.25 -25 34.9375 C-26.22007944 32.2469472 -26.22007944 32.2469472 -28 29.9375 C-28.46167861 27.24437478 -28.42697209 25.57347941 -26.8828125 23.2734375 C-25.63593427 21.78704593 -24.32142331 20.35803006 -23 18.9375 C-23.66 18.36 -24.32 17.7825 -25 17.1875 C-27 14.9375 -27 14.9375 -27 10.9375 C-23.13275596 11.47461723 -21.03438225 12.53092098 -18 14.9375 C-17.34 14.9375 -16.68 14.9375 -16 14.9375 C-14.62036318 12.21854472 -14.62036318 12.21854472 -14 8.9375 C-15.87197454 6.24316683 -15.87197454 6.24316683 -18 3.9375 C-17.67 2.9475 -17.34 1.9575 -17 0.9375 C-14.47671825 1.37254858 -13.26840377 1.64672925 -11.5 3.5625 C-10.10080261 5.16675062 -10.10080261 5.16675062 -8.0625 4.875 C-5.81602542 4.011208 -5.81602542 4.011208 -4 1.8125 C-2 -0.0625 -2 -0.0625 0 0 Z M0 10.9375 C-2.45579697 14.62314084 -2.45579697 14.62314084 -3 18.9375 C-2.01 19.2675 -1.02 19.5975 0 19.9375 C0 20.9275 0 21.9175 0 22.9375 C-3.63 24.2575 -7.26 25.5775 -11 26.9375 C-10.87625 28.34 -10.7525 29.7425 -10.625 31.1875 C-10.55539063 31.97640625 -10.48578125 32.7653125 -10.4140625 33.578125 C-9.98492887 36.023377 -9.21399362 37.78586903 -8 39.9375 C-7.34 39.9375 -6.68 39.9375 -6 39.9375 C-6.33 36.6375 -6.66 33.3375 -7 29.9375 C-6.21753906 29.70675781 -5.43507813 29.47601563 -4.62890625 29.23828125 C-3.61699219 28.91214844 -2.60507812 28.58601563 -1.5625 28.25 C-0.55316406 27.93675781 0.45617187 27.62351562 1.49609375 27.30078125 C4.2307387 26.17489399 4.2307387 26.17489399 4.875 23.4375 C4.99669295 21.00364092 4.76681968 19.23795905 4 16.9375 C4.66 16.9375 5.32 16.9375 6 16.9375 C5.88693303 14.97855639 5.88693303 14.97855639 5 12.9375 C2.50965614 11.64089566 2.50965614 11.64089566 0 10.9375 Z " fill="#FAFBFD" transform="translate(47,27.0625)"/>
<path d="M0 0 C2.41677109 0.74660964 3.90153401 1.56105189 6 3 C6 3.99 6 4.98 6 6 C6.66 6 7.32 6 8 6 C9.96571078 11.6514185 10.82896611 17.01960163 10 23 C8.125 26.4375 8.125 26.4375 6 29 C5.34 29.99 4.68 30.98 4 32 C4.66 32 5.32 32 6 32 C6.33 33.32 6.66 34.64 7 36 C5.515 36.495 5.515 36.495 4 37 C4 37.66 4 38.32 4 39 C1.8148887 37.98548404 0.09040643 37.08370965 -1.6875 35.4375 C-4.22782532 33.85837885 -5.50547359 33.76638263 -8.4375 33.5625 C-12.76289594 33.20027472 -14.94284585 32.23698674 -18 29 C-22.41829175 22.98681269 -21.83475459 16.09924316 -21 9 C-16.97982256 -0.71927957 -9.28431995 -0.78507117 0 0 Z M-11.375 7.875 C-13.69329396 10.90661517 -14.15625654 12.6132872 -14.1875 16.375 C-14.20167969 17.14585938 -14.21585937 17.91671875 -14.23046875 18.7109375 C-13.97457373 21.25253892 -13.32431787 22.82906463 -12 25 C-9.30412197 27.09679403 -7.907056 26.99510821 -4.4375 26.8125 C-0.94163325 25.98620422 -0.09163804 25.7319354 2 23 C3.30423734 18.20403863 3.40519053 14.09980287 1.6875 9.4375 C0.2298097 6.91455793 0.2298097 6.91455793 -2 6 C-7.07878925 5.47889029 -7.07878925 5.47889029 -11.375 7.875 Z " fill="#F7FAFC" transform="translate(512,35)"/>
<path d="M0 0 C18 0 18 0 23 3 C25.51855199 7.12126689 25.08846982 10.39493538 24 15 C22.4375 17.4375 22.4375 17.4375 21 19 C21.66 19 22.32 19 23 19 C25.03643611 21.12476346 25.93544185 22.45611972 26.28515625 25.40234375 C26.21167969 26.23894531 26.13820313 27.07554688 26.0625 27.9375 C26.01222656 28.77152344 25.96195312 29.60554688 25.91015625 30.46484375 C25 33 25 33 19 38 C12.73 38 6.46 38 0 38 C0 25.46 0 12.92 0 0 Z M5 5 C5 8.63 5 12.26 5 16 C6.5675 16.061875 8.135 16.12375 9.75 16.1875 C10.63171875 16.22230469 11.5134375 16.25710937 12.421875 16.29296875 C15.44671583 15.94923684 16.75583602 14.99772541 19 13 C18.74438677 10.6568787 18.40729228 8.32156597 18 6 C14.14854957 4.07427479 9.19956748 4.95116782 5 5 Z M5 21 C5 25.29 5 29.58 5 34 C11.73109629 34.24893207 11.73109629 34.24893207 18 32 C20.29827312 30.12061828 20.29827312 30.12061828 20.3125 27.0625 C20.25259966 24.08944983 20.25259966 24.08944983 18.8671875 22.3203125 C16.16566496 20.41003087 14.07776508 20.70716887 10.8125 20.8125 C7.9353125 20.9053125 7.9353125 20.9053125 5 21 Z " fill="#F8FAFD" transform="translate(258,32)"/>
<path d="M0 0 C0.99 0.66 1.98 1.32 3 2 C3.33 1.67 3.66 1.34 4 1 C5.66617115 0.95936168 7.33388095 0.957279 9 1 C9.07468157 5.00178342 9.12885021 9.00329167 9.16479492 13.00561523 C9.17979409 14.36441117 9.20020038 15.72315941 9.22631836 17.08178711 C9.49564933 31.46194881 9.49564933 31.46194881 6 37 C3.85208273 39.17911109 2.63183398 39.88426803 -0.3671875 40.43359375 C-6.25215342 40.44276036 -9.46516073 39.81881202 -14 36 C-13.34 34.35 -12.68 32.7 -12 31 C-11.34 31.33 -10.68 31.66 -10 32 C-10 32.66 -10 33.32 -10 34 C-4.44506076 35.02703748 -4.44506076 35.02703748 1 34 C1.33 32.02 1.66 30.04 2 28 C1.484375 28.350625 0.96875 28.70125 0.4375 29.0625 C-3.10821105 30.42623502 -5.3530138 29.95973321 -9 29 C-12.11905047 26.42339309 -13.7181368 24.8455896 -15 21 C-15.48566422 14.52759035 -15.93386705 8.47931482 -12 3 C-8.49371702 -0.89586998 -4.92722677 -0.39104974 0 0 Z M-8.375 6.875 C-10.66902263 11.28658198 -10.92687576 15.12591197 -10 20 C-7.66995779 23.32863173 -6.38307483 24.73655718 -2.375 25.5 C0.52636077 24.88918721 1.27014445 24.39820883 3 22 C3.47790288 18.67534381 3.47790288 18.67534381 3.375 15 C3.38273437 13.7625 3.39046875 12.525 3.3984375 11.25 C3.26655542 8.06102033 3.26655542 8.06102033 1.66015625 6.09375 C-2.0015113 3.68135726 -5.06707154 4.26347753 -8.375 6.875 Z " fill="#F9FAFD" transform="translate(214,41)"/>
<path d="M0 0 C0.86882812 0.00644531 1.73765625 0.01289062 2.6328125 0.01953125 C4.875 0.1875 4.875 0.1875 6.875 1.1875 C6.875 1.8475 6.875 2.5075 6.875 3.1875 C7.865 3.1875 8.855 3.1875 9.875 3.1875 C12.78304078 8.77093829 13.39255629 12.01610443 11.875 18.1875 C10.125 20.6875 10.125 20.6875 7.875 22.1875 C5.125 22.4375 5.125 22.4375 2.875 22.1875 C4.525 22.8475 6.175 23.5075 7.875 24.1875 C7.545 24.8475 7.215 25.5075 6.875 26.1875 C6.215 26.1875 5.555 26.1875 4.875 26.1875 C4.875 26.8475 4.875 27.5075 4.875 28.1875 C-0.68404901 29.37872479 -4.80425097 29.53677269 -9.8125 26.625 C-12.85201021 23.42119194 -14.38693445 20.55438781 -15.125 16.1875 C-14.82418506 10.54721993 -13.23487796 6.1764992 -9.125 2.1875 C-5.99990446 0.26125577 -3.64676797 -0.05987231 0 0 Z M-7.0625 7.3125 C-9.37758338 10.53958593 -10.125 12.22510154 -10.125 16.1875 C-9.15797897 19.53896587 -9.15797897 19.53896587 -7.125 22.1875 C-4.54085574 23.15656827 -4.54085574 23.15656827 -2.125 23.1875 C-2.95 22.506875 -3.775 21.82625 -4.625 21.125 C-7.125 18.1875 -7.125 18.1875 -7.5625 14.5625 C-7.125 11.1875 -7.125 11.1875 -5.125 8.1875 C-1.5 7 -1.5 7 1.875 6.1875 C2.205 6.8475 2.535 7.5075 2.875 8.1875 C3.205 7.1975 3.535 6.2075 3.875 5.1875 C-2.01175544 4.60648485 -2.01175544 4.60648485 -7.0625 7.3125 Z M5.875 9.1875 C5.545 11.8275 5.215 14.4675 4.875 17.1875 C5.865 16.8575 6.855 16.5275 7.875 16.1875 C9.05255913 13.24360218 8.90848696 12.28796087 7.875 9.1875 C7.215 9.1875 6.555 9.1875 5.875 9.1875 Z M-2.125 11.1875 C-4.4023501 14.00259993 -4.4023501 14.00259993 -4.125 17.1875 C-2.805 17.1875 -1.485 17.1875 -0.125 17.1875 C0.205 15.5375 0.535 13.8875 0.875 12.1875 C-0.115 11.8575 -1.105 11.5275 -2.125 11.1875 Z " fill="#F2F5FD" transform="translate(414.125,39.8125)"/>
<path d="M0 0 C6.6 0 13.2 0 20 0 C20 2.31 20 4.62 20 7 C15.71 7 11.42 7 7 7 C7 8.98 7 10.96 7 13 C7.99 12.67 8.98 12.34 10 12 C11.56118428 11.93259135 13.1250252 11.91485544 14.6875 11.9375 C15.89986328 11.95103516 15.89986328 11.95103516 17.13671875 11.96484375 C18.05904297 11.98224609 18.05904297 11.98224609 19 12 C19.04241723 14.33294775 19.04092937 16.66702567 19 19 C18 20 18 20 15.71484375 20.09765625 C14.34005859 20.08025391 14.34005859 20.08025391 12.9375 20.0625 C12.01839844 20.05347656 11.09929687 20.04445313 10.15234375 20.03515625 C9.44207031 20.02355469 8.73179687 20.01195313 8 20 C7.67 21.98 7.34 23.96 7 26 C11.29 26 15.58 26 20 26 C20 28.31 20 30.62 20 33 C16.85418577 33.02888514 13.70840531 33.04675923 10.5625 33.0625 C9.66466797 33.07087891 8.76683594 33.07925781 7.84179688 33.08789062 C6.56079102 33.09272461 6.56079102 33.09272461 5.25390625 33.09765625 C4.46314697 33.10289307 3.6723877 33.10812988 2.85766602 33.11352539 C1 33 1 33 0 32 C-0.0883967 29.6243148 -0.11530305 27.27791326 -0.09765625 24.90234375 C-0.0962413 24.19348526 -0.09482635 23.48462677 -0.09336853 22.75428772 C-0.08775443 20.48198288 -0.07519963 18.20977525 -0.0625 15.9375 C-0.05748681 14.40039204 -0.05292359 12.86328255 -0.04882812 11.32617188 C-0.0386297 7.55071333 -0.01905732 3.77546596 0 0 Z " fill="#F8FAFB" transform="translate(429,35)"/>
<path d="M0 0 C3.34989011 4.64662177 3.28477783 8.49429536 3 14 C2.09636719 13.98839844 1.19273437 13.97679688 0.26171875 13.96484375 C-1.50751953 13.95130859 -1.50751953 13.95130859 -3.3125 13.9375 C-4.48425781 13.92589844 -5.65601563 13.91429688 -6.86328125 13.90234375 C-10.03059195 13.85100102 -10.03059195 13.85100102 -13 15 C-13 15.66 -13 16.32 -13 17 C-10.19235272 17.77426109 -10.19235272 17.77426109 -7 18 C-5.63266972 17.04701223 -4.29735507 16.04625409 -3 15 C-0.25 14.8125 -0.25 14.8125 2 15 C2 19 2 19 -0.0625 21.6875 C-4.17927684 24.92836687 -7.50439451 25.11883836 -12.625 24.875 C-16.18667963 23.56280224 -17.70377318 22.04094904 -20 19 C-22.11988374 13.71872443 -22.55421394 9.33480749 -20.4375 4 C-18.99915977 1.26763462 -18.26944656 0.17017678 -15.625 -1.5 C-14.75875 -1.665 -13.8925 -1.83 -13 -2 C-12.05125 -2.268125 -11.1025 -2.53625 -10.125 -2.8125 C-5.92894611 -3.06426323 -3.61432734 -2.11404052 0 0 Z M-12 4 C-12.66 5.32 -13.32 6.64 -14 8 C-9.545 7.505 -9.545 7.505 -5 7 C-5.99 6.01 -6.98 5.02 -8 4 C-9.32 4 -10.64 4 -12 4 Z " fill="#F7F9FB" transform="translate(568,44)"/>
<path d="M0 0 C1.65 0 3.3 0 5 0 C5 13.2 5 26.4 5 40 C2.66666667 40 0.33333333 40 -2 40 C-3.258125 40.226875 -4.51625 40.45375 -5.8125 40.6875 C-8.85099399 41.07281627 -9.89272442 41.04529414 -12.8125 39.8125 C-16.02338435 37.15205297 -17.67977763 34.9606671 -19 31 C-19.57785229 24.64362482 -19.27837831 19.53932887 -16 14 C-13.56766397 11.71074256 -12.05739234 10.9927823 -8.7109375 11.015625 C-2.38157895 11.61842105 -2.38157895 11.61842105 -1 13 C-0.67 8.71 -0.34 4.42 0 0 Z M-12 18 C-12.98275588 20.94826763 -13.13414725 22.92652504 -13.125 26 C-13.12757813 26.86625 -13.13015625 27.7325 -13.1328125 28.625 C-13.09594205 31.15011695 -13.09594205 31.15011695 -12 34 C-9.43072407 35.90316736 -8.10124839 36.0060749 -4.875 35.8125 C-1.69792816 35.25088039 -1.69792816 35.25088039 0 32 C0.39389847 28.90237565 0.39389847 28.90237565 0.375 25.5 C0.40335937 24.3553125 0.43171875 23.210625 0.4609375 22.03125 C0.29263734 18.92666634 0.29263734 18.92666634 -1.86328125 17.11328125 C-5.92194487 14.99862105 -8.26479644 15.50986429 -12 18 Z " fill="#F8F9FD" transform="translate(385,30)"/>
<path d="M0 0 C1.98 0 3.96 0 6 0 C6 4.29 6 8.58 6 13 C7.32 12.34 8.64 11.68 10 11 C12.72690251 10.54196559 15.27233676 10.53512105 18 11 C20.96858157 13.20740681 21.82865791 14.48597373 23 18 C23.08178114 19.70016844 23.10749501 21.40336297 23.09765625 23.10546875 C23.09443359 24.08837891 23.09121094 25.07128906 23.08789062 26.08398438 C23.07951172 27.10814453 23.07113281 28.13230469 23.0625 29.1875 C23.05798828 30.22326172 23.05347656 31.25902344 23.04882812 32.32617188 C23.0370401 34.88417266 23.02058515 37.44205733 23 40 C21.02 40 19.04 40 17 40 C16.97494385 39.3387915 16.9498877 38.67758301 16.92407227 37.99633789 C16.80846898 35.01817695 16.68558246 32.0403608 16.5625 29.0625 C16.52318359 28.02158203 16.48386719 26.98066406 16.44335938 25.90820312 C16.40146484 24.91884766 16.35957031 23.92949219 16.31640625 22.91015625 C16.27974854 21.99371338 16.24309082 21.07727051 16.20532227 20.13305664 C16.22996136 18.0179272 16.22996136 18.0179272 15 17 C12.04182893 16.74994614 12.04182893 16.74994614 9 17 C6.51942372 19.48057628 6.70980995 20.36192464 6.5859375 23.7890625 C6.54726562 24.73007812 6.50859375 25.67109375 6.46875 26.640625 C6.4378125 27.62546875 6.406875 28.6103125 6.375 29.625 C6.31699219 31.11386719 6.31699219 31.11386719 6.2578125 32.6328125 C6.1633686 35.08835385 6.07780125 37.5438841 6 40 C4.02 40 2.04 40 0 40 C0 26.8 0 13.6 0 0 Z " fill="#F8FAFD" transform="translate(128,30)"/>
<path d="M0 0 C2.64 0 5.28 0 8 0 C9.96939767 6.28894321 11.64746536 12.54945018 13 19 C13.99 19 14.98 19 16 19 C16.19335938 18.13117187 16.38671875 17.26234375 16.5859375 16.3671875 C16.84632813 15.21476562 17.10671875 14.06234375 17.375 12.875 C17.63023437 11.73804688 17.88546875 10.60109375 18.1484375 9.4296875 C18.94636477 6.21601712 19.90790559 3.12433966 21 0 C23.64 0 26.28 0 29 0 C27.30082407 7.12207783 25.46225165 14.10336148 23 21 C22.65582031 21.97839844 22.31164062 22.95679687 21.95703125 23.96484375 C19.14375 31.85625 19.14375 31.85625 18 33 C15.66702567 33.04092937 13.33294775 33.04241723 11 33 C7.85750323 27.3651782 6.16787652 22.11044718 4.72265625 15.83203125 C4.11147641 13.43686703 3.40171533 11.36194983 2.375 9.125 C1.01437955 6.0326808 0.40727662 3.33966827 0 0 Z " fill="#F5F7FC" transform="translate(450,35)"/>
<path d="M0 0 C2.31 0 4.62 0 7 0 C7 2.64 7 5.28 7 8 C7.70125 7.649375 8.4025 7.29875 9.125 6.9375 C12.61928892 5.79805796 14.49014991 5.95451274 18 7 C20.25726011 8.89121793 21.68646424 10.37292849 23 13 C23.09848651 15.63596244 23.13899328 18.23959856 23.125 20.875 C23.13080078 21.95587891 23.13080078 21.95587891 23.13671875 23.05859375 C23.13036598 26.50815011 23.08702974 29.70440191 22 33 C20.02 33 18.04 33 16 33 C15.67 27.06 15.34 21.12 15 15 C13.35 14.67 11.7 14.34 10 14 C7.64891442 17.70821628 7.56844942 21.48605238 7.375 25.75 C7.33632813 26.44738281 7.29765625 27.14476563 7.2578125 27.86328125 C7.16401376 29.57510818 7.08093826 31.28751682 7 33 C5.02 33 3.04 33 1 33 C-0.15927528 29.52217417 -0.11313066 26.81196743 -0.09765625 23.14453125 C-0.0962413 22.48289474 -0.09482635 21.82125824 -0.09336853 21.13957214 C-0.08777996 19.03050172 -0.07522965 16.92153823 -0.0625 14.8125 C-0.05748352 13.38086091 -0.05292087 11.94922015 -0.04882812 10.51757812 C-0.0378143 7.01168412 -0.02055755 3.5058525 0 0 Z " fill="#F2F5FD" transform="translate(603,35)"/>
<path d="M0 0 C1.32 0 2.64 0 4 0 C4.54627431 6.99534607 3.53558409 12.19787562 0.77734375 18.65234375 C-0.29600614 21.1093156 -0.29600614 21.1093156 1 24 C1.375 27.375 1.375 27.375 1 31 C-1.4375 33.875 -1.4375 33.875 -4 36 C-4.33 36.33 -4.66 36.66 -5 37 C-8.66344611 37.13568319 -11.50615721 37.16461426 -15 36 C-17.43576216 36.77004725 -17.43576216 36.77004725 -20.0625 37.9375 C-25.54931294 40.06638342 -30.17198229 40.45511635 -36 40 C-36 38.68 -36 37.36 -36 36 C-34.94039062 35.72285156 -33.88078125 35.44570312 -32.7890625 35.16015625 C-31.40101131 34.794386 -30.01299213 34.42849428 -28.625 34.0625 C-27.57699219 33.78889648 -27.57699219 33.78889648 -26.5078125 33.50976562 C-22.66044902 32.51487491 -22.66044902 32.51487491 -19 31 C-18.49869796 29.00919273 -18.49869796 29.00919273 -18.1875 26.6875 C-17.4970306 23.34669037 -17.12376545 22.14144623 -14.8125 19.5 C-11.50865988 17.73795193 -8.71293914 17.29121091 -5 17 C-2.75519358 11.38798394 -1.16651426 5.92863717 0 0 Z M-11 23 C-13.33391203 25.78114056 -13.33391203 25.78114056 -12.625 28.6875 C-12.41875 29.450625 -12.2125 30.21375 -12 31 C-9.65466049 31.76956136 -9.65466049 31.76956136 -7 32 C-5 31 -5 31 -4 29 C-4.23043864 26.34533951 -4.23043864 26.34533951 -5 24 C-7.97 23.505 -7.97 23.505 -11 23 Z " fill="#F8F9FD" transform="translate(80,53)"/>
<path d="M0 0 C-0.33 1.65 -0.66 3.3 -1 5 C-2.46373047 5.29003906 -2.46373047 5.29003906 -3.95703125 5.5859375 C-5.22933594 5.84632812 -6.50164063 6.10671875 -7.8125 6.375 C-9.07707031 6.63023438 -10.34164062 6.88546875 -11.64453125 7.1484375 C-15.10239018 7.82777181 -15.10239018 7.82777181 -18 10 C-17.979375 10.928125 -17.95875 11.85625 -17.9375 12.8125 C-18.01651745 16.84238997 -19.24193006 18.16081036 -22 21 C-24.70879335 22.35439668 -27.00933268 22.06501451 -30 22 C-33.20578207 27.39154257 -34.06898067 32.84431924 -35 39 C-36.9375 39.5625 -36.9375 39.5625 -39 40 C-40 39 -40 39 -40.3125 35.125 C-40.29977109 31.12175879 -39.43437241 28.13838799 -37.9375 24.4375 C-36.4968008 20.8557617 -35.73824136 18.50428676 -36.4375 14.6875 C-37.10620864 10.30374334 -36.49265252 8.61004847 -34 5 C-30.83872004 2.60178762 -27.87280104 2.75279993 -24 3 C-23.01 3.33 -22.02 3.66 -21 4 C-18.8241616 3.229355 -18.8241616 3.229355 -16.5 2.0625 C-10.91049705 -0.33653445 -6.00062102 -0.41068889 0 0 Z M-31 9 C-31.93391003 10.81656815 -31.93391003 10.81656815 -32 13 C-30.6483633 15.24755753 -30.6483633 15.24755753 -29 17 C-27.35 16.67 -25.7 16.34 -24 16 C-23.67 14.02 -23.34 12.04 -23 10 C-26.22775842 7.84816105 -27.49103862 7.24551931 -31 9 Z " fill="#F8F9FD" transform="translate(44,13)"/>
<path d="M0 0 C2.93250784 1.60377103 4.21031036 2.3117845 6 5 C6.88240477 9.10158294 6.88478063 13.12883349 6.875 17.3125 C6.895625 18.43462891 6.91625 19.55675781 6.9375 20.71289062 C6.9845317 23.47600293 7.00444741 26.2365698 7 29 C4 29 1 29 -2 29 C-3.093125 29.226875 -4.18625 29.45375 -5.3125 29.6875 C-9.66824452 30.05663089 -11.46980918 29.54502129 -15 27 C-16.85400123 23.52374769 -17.12216931 21.69229277 -16.4375 17.8125 C-14.62417041 14.26468124 -13.75692003 13.38009307 -10 12 C-6.31850756 11.76666597 -2.68304875 11.82584533 1 12 C0.67 10.02 0.34 8.04 0 6 C-1.27875 5.938125 -2.5575 5.87625 -3.875 5.8125 C-4.95394531 5.76029297 -4.95394531 5.76029297 -6.0546875 5.70703125 C-7.01761719 5.85205078 -7.01761719 5.85205078 -8 6 C-8.99 7.485 -8.99 7.485 -10 9 C-13.125 9.1875 -13.125 9.1875 -16 9 C-15.6655974 5.90677596 -15.4404882 4.41112232 -13.125 2.25 C-9.09132912 -0.12274758 -4.57856994 -1.07448051 0 0 Z M-11 18 C-10.67 19.98 -10.34 21.96 -10 24 C-7.03155004 24.67464772 -4.68650224 25.14843292 -1.6875 24.5 C0.98387573 22.12544379 0.7461778 19.42659975 1 16 C-5.31268603 15.62447835 -5.31268603 15.62447835 -11 18 Z " fill="#F8F9FD" transform="translate(336,41)"/>
<path d="M0 0 C1.19109375 0.13535156 1.19109375 0.13535156 2.40625 0.2734375 C4.5 0.625 4.5 0.625 6.5 1.625 C6.5 2.285 6.5 2.945 6.5 3.625 C7.82 4.285 9.14 4.945 10.5 5.625 C10.5 7.275 10.5 8.925 10.5 10.625 C7.75 11.375 7.75 11.375 4.5 11.625 C3.14631404 10.31233482 1.81200404 8.97932675 0.5 7.625 C-2.8321498 7.81698522 -2.8321498 7.81698522 -5.5 9.625 C-5.87052339 14.80235677 -5.87052339 14.80235677 -4.5 19.625 C-1.86 19.625 0.78 19.625 3.5 19.625 C4.16 18.305 4.82 16.985 5.5 15.625 C5.83 16.285 6.16 16.945 6.5 17.625 C7.82 17.295 9.14 16.965 10.5 16.625 C10.18031467 20.14153861 9.87757864 22.15931968 7.625 24.9375 C4.16762332 27.68306384 0.91672554 27.96623771 -3.43359375 27.91015625 C-6.85340256 27.43823556 -8.9265947 25.83077598 -11.5 23.625 C-13.94834595 19.51865135 -14.55767669 15.36272799 -14.5 10.625 C-12.17812704 3.78837406 -7.32702646 -0.88019474 0 0 Z " fill="#F8FBFC" transform="translate(588.5,41.375)"/>
<path d="M0 0 C3.54482488 3.13263594 5.29222827 5.74473502 6.00390625 10.48046875 C6.30489175 16.12151963 5.24497799 20.89404689 1.6875 25.375 C-2.08167701 27.76697771 -5.04132824 28.62769722 -9.4375 28.3125 C-14.07161375 27.19134345 -16.85394217 25.68822155 -19.42578125 21.609375 C-20.5458909 18.78689606 -20.6135284 16.46982733 -20.625 13.4375 C-20.64175781 12.41785156 -20.65851563 11.39820313 -20.67578125 10.34765625 C-20.11495908 5.75856304 -17.84410884 2.31800737 -14.3125 -0.625 C-9.03026236 -2.38574588 -4.93564139 -2.42125804 0 0 Z M-11.3125 3.375 C-11.3125 4.035 -11.3125 4.695 -11.3125 5.375 C-11.9725 5.375 -12.6325 5.375 -13.3125 5.375 C-15.61421899 10.12229542 -16.21180254 14.6021505 -14.5625 19.6875 C-12.95406434 21.85888813 -11.90685417 22.58228067 -9.3125 23.375 C-5.91712504 23.23641327 -4.03646596 23.1382377 -1.65625 20.62890625 C0.66966379 16.72759154 0.31257506 12.7718348 -0.3125 8.375 C-1.64266164 5.14661227 -1.64266164 5.14661227 -4.3125 3.375 C-7.98049815 2.95728196 -7.98049815 2.95728196 -11.3125 3.375 Z " fill="#F9F9FD" transform="translate(309.3125,42.625)"/>
<path d="M0 0 C2.96858157 2.20740681 3.82865791 3.48597373 5 7 C5.08178114 8.70016844 5.10749501 10.40336297 5.09765625 12.10546875 C5.09443359 13.08837891 5.09121094 14.07128906 5.08789062 15.08398438 C5.07951172 16.10814453 5.07113281 17.13230469 5.0625 18.1875 C5.05798828 19.22326172 5.05347656 20.25902344 5.04882812 21.32617188 C5.0370401 23.88417266 5.02058515 26.44205733 5 29 C3.02 29 1.04 29 -1 29 C-1.02505615 28.3387915 -1.0501123 27.67758301 -1.07592773 26.99633789 C-1.19153102 24.01817695 -1.31441754 21.0403608 -1.4375 18.0625 C-1.47681641 17.02158203 -1.51613281 15.98066406 -1.55664062 14.90820312 C-1.59853516 13.91884766 -1.64042969 12.92949219 -1.68359375 11.91015625 C-1.72025146 10.99371338 -1.75690918 10.07727051 -1.79467773 9.13305664 C-1.77003864 7.0179272 -1.77003864 7.0179272 -3 6 C-5.95817107 5.74994614 -5.95817107 5.74994614 -9 6 C-11.48057628 8.48057628 -11.29019005 9.36192464 -11.4140625 12.7890625 C-11.45273438 13.73007812 -11.49140625 14.67109375 -11.53125 15.640625 C-11.5621875 16.62546875 -11.593125 17.6103125 -11.625 18.625 C-11.68300781 20.11386719 -11.68300781 20.11386719 -11.7421875 21.6328125 C-11.8366314 24.08835385 -11.92219875 26.5438841 -12 29 C-13.98 29 -15.96 29 -18 29 C-18 19.76 -18 10.52 -18 1 C-16.35 1 -14.7 1 -13 1 C-13 1.66 -13 2.32 -13 3 C-12.34 2.505 -11.68 2.01 -11 1.5 C-6.88248556 -0.55875722 -4.58746602 -0.50971845 0 0 Z " fill="#F9FAFD" transform="translate(188,41)"/>
<path d="M0 0 C3.4375 1.625 3.4375 1.625 6 4 C6.875 7.25 6.875 7.25 7 10 C5.02 10 3.04 10 1 10 C0.34 8.68 -0.32 7.36 -1 6 C-2.98 6 -4.96 6 -7 6 C-7.33 7.32 -7.66 8.64 -8 10 C-7.08476562 10.32613281 -6.16953125 10.65226562 -5.2265625 10.98828125 C-4.03804687 11.42527344 -2.84953125 11.86226562 -1.625 12.3125 C-0.44164062 12.74175781 0.74171875 13.17101563 1.9609375 13.61328125 C5 15 5 15 7 18 C7.4375 21.4375 7.4375 21.4375 7 25 C4.25826204 28.36084008 1.65878257 29.26402694 -2.5 29.875 C-7.08194322 30.19467046 -10.04453237 29.46660072 -13.75 26.6875 C-15.34776706 24.53051446 -15.64426042 22.63247289 -16 20 C-14.02 20 -12.04 20 -10 20 C-9.67 21.32 -9.34 22.64 -9 24 C-7.081875 24.0309375 -7.081875 24.0309375 -5.125 24.0625 C-4.40570313 24.07410156 -3.68640625 24.08570312 -2.9453125 24.09765625 C-0.91814596 24.12649242 -0.91814596 24.12649242 1 23 C0.91248595 21.03832492 0.91248595 21.03832492 0 19 C-2.40800544 17.77870565 -2.40800544 17.77870565 -5.3125 17 C-9.57278829 15.72589509 -12.18916913 14.52522256 -15 11 C-15 7.26357514 -14.46757292 5.55807091 -12.0625 2.6875 C-8.28255285 -0.40518403 -4.75285697 -0.62607207 0 0 Z " fill="#F8FAFD" transform="translate(244,41)"/>
<path d="M0 0 C9.9 0 19.8 0 30 0 C30 1.65 30 3.3 30 5 C26.37 5 22.74 5 19 5 C18.67 15.89 18.34 26.78 18 38 C16.02 38 14.04 38 12 38 C11.67 27.11 11.34 16.22 11 5 C7.37 5 3.74 5 0 5 C0 3.35 0 1.7 0 0 Z " fill="#F9FBFD" transform="translate(94,32)"/>
<path d="M0 0 C8.91 0 17.82 0 27 0 C27 2.31 27 4.62 27 7 C24.03 7 21.06 7 18 7 C17.67 15.58 17.34 24.16 17 33 C15.02 33 13.04 33 11 33 C9.93567725 29.80703175 9.96211664 27.79555059 10.12109375 24.45703125 C10.16943359 23.38388672 10.21777344 22.31074219 10.26757812 21.20507812 C10.32365234 20.08552734 10.37972656 18.96597656 10.4375 17.8125 C10.48970703 16.68134766 10.54191406 15.55019531 10.59570312 14.38476562 C10.72543807 11.5895672 10.86040641 8.7947206 11 6 C10.01 6.495 10.01 6.495 9 7 C6.3276379 7.13415472 3.67749512 7.04318541 1 7 C0 4 0 4 0 0 Z " fill="#F6F8FC" transform="translate(521,35)"/>
<path d="M0 0 C2.64 0 5.28 0 8 0 C8.02465392 4.53897705 8.04283789 9.07791543 8.05493164 13.61694336 C8.0599714 15.16219766 8.0668032 16.70744716 8.07543945 18.25268555 C8.08752076 20.46925029 8.09323173 22.68575218 8.09765625 24.90234375 C8.10281754 25.5971434 8.10797882 26.29194305 8.11329651 27.00779724 C8.11349277 28.6722933 8.06189129 30.33665499 8 32 C7 33 7 33 4 33.125 C1 33 1 33 0 32 C-0.0883967 29.6243148 -0.11530305 27.27791326 -0.09765625 24.90234375 C-0.0962413 24.19348526 -0.09482635 23.48462677 -0.09336853 22.75428772 C-0.08775443 20.48198288 -0.07519963 18.20977525 -0.0625 15.9375 C-0.05748681 14.40039204 -0.05292359 12.86328255 -0.04882812 11.32617188 C-0.03778042 7.55074358 -0.02050641 3.77538829 0 0 Z " fill="#F2F5FA" transform="translate(480,35)"/>
<path d="M0 0 C0 1.98 0 3.96 0 6 C-0.969375 6.144375 -1.93875 6.28875 -2.9375 6.4375 C-5.86486773 6.67562341 -5.86486773 6.67562341 -7 8 C-7.15686249 9.55948542 -7.25076639 11.12542668 -7.31640625 12.69140625 C-7.35830078 13.63564453 -7.40019531 14.57988281 -7.44335938 15.55273438 C-7.48267578 16.54595703 -7.52199219 17.53917969 -7.5625 18.5625 C-7.62727539 20.05813477 -7.62727539 20.05813477 -7.69335938 21.58398438 C-7.79980298 24.0558415 -7.90181928 26.5278031 -8 29 C-9.98 29 -11.96 29 -14 29 C-14 19.76 -14 10.52 -14 1 C-11.69 1 -9.38 1 -7 1 C-4.53721199 -0.231394 -2.7204945 -0.07159196 0 0 Z " fill="#F8F9FD" transform="translate(363,41)"/>
<path d="M0 0 C1.65 0 3.3 0 5 0 C5 9.24 5 18.48 5 28 C3.35 28 1.7 28 0 28 C0 18.76 0 9.52 0 0 Z " fill="#F9F9FE" transform="translate(158,42)"/>
<path d="M0 0 C1.19109375 0.13535156 1.19109375 0.13535156 2.40625 0.2734375 C4.5 0.625 4.5 0.625 6.5 1.625 C6.5 2.285 6.5 2.945 6.5 3.625 C7.82 4.285 9.14 4.945 10.5 5.625 C10.5 7.275 10.5 8.925 10.5 10.625 C9.51 10.295 8.52 9.965 7.5 9.625 C7.0359375 8.4184375 7.0359375 8.4184375 6.5625 7.1875 C5.73023146 4.56562328 5.73023146 4.56562328 3.75 3.3125 C-0.12338959 2.12896429 -4.77048801 1.89344086 -8.5 3.625 C-9.74714403 6.03452023 -9.74714403 6.03452023 -10.5 8.625 C-10.83 9.285 -11.16 9.945 -11.5 10.625 C-12.0499739 16.34472855 -11.04794766 19.13788972 -7.5 23.625 C-6.84 24.285 -6.18 24.945 -5.5 25.625 C-6.16 25.955 -6.82 26.285 -7.5 26.625 C-11.76292073 23.14735414 -13.40797457 20.34489623 -14.33984375 14.8984375 C-14.59303448 11.30436415 -14.00668375 8.88948146 -12.5 5.625 C-8.69994721 1.55049895 -5.56756312 -0.66883063 0 0 Z " fill="#EAF0FE" transform="translate(588.5,41.375)"/>
<path d="M0 0 C6.75 1.625 6.75 1.625 9 5 C9.21118164 6.96118164 9.21118164 6.96118164 9.16015625 9.16015625 C9.14919922 9.95357422 9.13824219 10.74699219 9.12695312 11.56445312 C9.10568359 12.38880859 9.08441406 13.21316406 9.0625 14.0625 C9.02811163 15.69913147 8.99796068 17.33585912 8.97265625 18.97265625 C8.95468994 19.69718994 8.93672363 20.42172363 8.91821289 21.16821289 C8.87995369 23.09896834 8.87995369 23.09896834 10 25 C8.68 25 7.36 25 6 25 C6.05220703 23.58847656 6.05220703 23.58847656 6.10546875 22.1484375 C6.14607422 20.28058594 6.14607422 20.28058594 6.1875 18.375 C6.22230469 17.14523438 6.25710938 15.91546875 6.29296875 14.6484375 C5.97553158 10.69528661 5.07557302 8.35284872 3 5 C0.94906855 3.59533047 0.94906855 3.59533047 -1 3 C-0.67 2.01 -0.34 1.02 0 0 Z " fill="#FAFCFC" transform="translate(615,43)"/>
<path d="M0 0 C3.96 0 7.92 0 12 0 C8 2 8 2 2 2 C2 12.23 2 22.46 2 33 C1.34 32.67 0.68 32.34 0 32 C0 21.44 0 10.88 0 0 Z " fill="#EDF1FF" transform="translate(429,35)"/>
<path d="M0 0 C2.67860365 1.21754711 4.42835839 2.18704256 6.12890625 4.60546875 C7.38631943 8.06194535 7.24951809 11.4360739 7.1875 15.0625 C7.18685547 15.78244141 7.18621094 16.50238281 7.18554688 17.24414062 C7.15902862 20.41749137 7.00983535 22.97049394 6 26 C5.34 25.67 4.68 25.34 4 25 C4.03480469 23.73542969 4.06960938 22.47085938 4.10546875 21.16796875 C4.13360677 19.50782577 4.16090691 17.84766844 4.1875 16.1875 C4.21263672 15.35412109 4.23777344 14.52074219 4.26367188 13.66210938 C4.27333984 12.85966797 4.28300781 12.05722656 4.29296875 11.23046875 C4.3086792 10.49207764 4.32438965 9.75368652 4.34057617 8.99291992 C3.90322052 6.43368392 3.01070134 5.59050974 1 4 C-3.21060254 2.52059911 -5.92608088 3.38938081 -10 5 C-10 4.34 -10 3.68 -10 3 C-6.82818466 -0.17181534 -4.38884607 -0.53740972 0 0 Z " fill="#EAEFF8" transform="translate(619,41)"/>
<path d="M0 0 C0.78375 0.04125 1.5675 0.0825 2.375 0.125 C2.375 4.125 2.375 4.125 0.3125 6.8125 C-3.85017902 10.08950263 -7.25702524 10.33548665 -12.4375 9.875 C-14.625 9.125 -14.625 9.125 -16.625 6.125 C-15.28695312 6.26808594 -15.28695312 6.26808594 -13.921875 6.4140625 C-12.16617188 6.58035156 -12.16617188 6.58035156 -10.375 6.75 C-9.21484375 6.86601563 -8.0546875 6.98203125 -6.859375 7.1015625 C-3.68627909 7.12455595 -2.24182756 6.82205154 0.375 5.125 C0.375 4.135 0.375 3.145 0.375 2.125 C-0.305625 2.62 -0.98625 3.115 -1.6875 3.625 C-5.21965009 5.42865111 -7.71136991 5.35521353 -11.625 5.125 C-11.295 4.465 -10.965 3.805 -10.625 3.125 C-8.62616131 2.78477214 -6.62609278 2.45170903 -4.625 2.125 C-2.625 0.125 -2.625 0.125 0 0 Z " fill="#E9F0FE" transform="translate(567.625,58.875)"/>
<path d="M0 0 C1.47931712 3.84622452 0.58923368 6.29178807 -1 10 C-3.125 12.875 -3.125 12.875 -5 15 C-4.34 15 -3.68 15 -3 15 C-2.67 16.32 -2.34 17.64 -2 19 C-2.99 19.33 -3.98 19.66 -5 20 C-5 20.66 -5 21.32 -5 22 C-8.875 20.25 -8.875 20.25 -10 18 C-9.01 17.67 -8.02 17.34 -7 17 C-6.9175 16.278125 -6.835 15.55625 -6.75 14.8125 C-6 12 -6 12 -4.0625 9.625 C-1.53672036 6.41037137 -0.92857894 3.9464605 0 0 Z " fill="#EEF3FD" transform="translate(521,52)"/>
<path d="M0 0 C2.7925814 1.35124907 3.57340148 3.20930296 4.9375 5.9375 C6.11974668 9.48424003 5.83079634 11.91272995 5.5 15.625 C5.39816406 16.80449219 5.29632812 17.98398438 5.19140625 19.19921875 C5.10761719 20.10285156 5.02382813 21.00648437 4.9375 21.9375 C4.2775 21.9375 3.6175 21.9375 2.9375 21.9375 C2.6075 15.9975 2.2775 10.0575 1.9375 3.9375 C0.2875 3.6075 -1.3625 3.2775 -3.0625 2.9375 C-4.0525 2.6075 -5.0425 2.2775 -6.0625 1.9375 C-3.91727846 0.63504407 -2.53584158 -0.07684368 0 0 Z " fill="#ECF2FE" transform="translate(616.0625,46.0625)"/>
<path d="M0 0 C0.268125 0.556875 0.53625 1.11375 0.8125 1.6875 C2.00699665 4.08933398 2.00699665 4.08933398 3.625 6.625 C5 9 5 9 5 11 C9.29 11.66 13.58 12.32 18 13 C18 13.99 18 14.98 18 16 C17.34 15.67 16.68 15.34 16 15 C14.56433053 14.87307441 13.12628212 14.77213424 11.6875 14.6875 C7.34642236 14.23457858 5.06958535 13.25014919 2 10 C-0.24158382 7.08594103 -1.09750589 5.87755298 -0.6875 2.1875 C-0.460625 1.465625 -0.23375 0.74375 0 0 Z " fill="#EAEFFD" transform="translate(492,54)"/>
<path d="M0 0 C0.28875 0.598125 0.5775 1.19625 0.875 1.8125 C2.04742026 4.19327792 2.04742026 4.19327792 4 7 C5.97747122 7.36297936 5.97747122 7.36297936 8.125 7.1875 C9.40375 7.125625 10.6825 7.06375 12 7 C12.66 5.68 13.32 4.36 14 3 C14.33 3.66 14.66 4.32 15 5 C16.32 4.67 17.64 4.34 19 4 C19 4.99 19 5.98 19 7 C16.03 6.505 16.03 6.505 13 6 C12.34 7.32 11.68 8.64 11 10 C4.51707705 10.3669579 4.51707705 10.3669579 2.0625 8.625 C1 7 1 7 1 5 C0.34 4.67 -0.32 4.34 -1 4 C-0.67 2.68 -0.34 1.36 0 0 Z " fill="#E9EFFA" transform="translate(580,54)"/>
<path d="M0 0 C0.66 0.33 1.32 0.66 2 1 C2.33 1.99 2.66 2.98 3 4 C5.88211302 4.96070434 7.69850044 5.10581883 10.6875 5.0625 C11.49574219 5.05347656 12.30398438 5.04445313 13.13671875 5.03515625 C13.75160156 5.02355469 14.36648438 5.01195313 15 5 C15 6.32 15 7.64 15 9 C13.35 9.33 11.7 9.66 10 10 C10 9.34 10 8.68 10 8 C8.9275 7.896875 7.855 7.79375 6.75 7.6875 C3.14179128 7.02599507 1.63604977 6.42516579 -1 4 C-0.67 2.68 -0.34 1.36 0 0 Z " fill="#F9FBFB" transform="translate(404,59)"/>
<path d="M0 0 C2.0625 0.4375 2.0625 0.4375 4 1 C3.360625 1.350625 2.72125 1.70125 2.0625 2.0625 C-0.82163832 4.77184206 -0.7100822 7.15858911 -1 11 C0.32 11.33 1.64 11.66 3 12 C1.25 12.6875 1.25 12.6875 -1 13 C-3.25 12 -3.25 12 -5 10 C-5.25 6.3125 -5.25 6.3125 -5 3 C-4.360625 2.690625 -3.72125 2.38125 -3.0625 2.0625 C-1.06389179 1.1654837 -1.06389179 1.1654837 0 0 Z " fill="#F8FAFE" transform="translate(411,48)"/>
<path d="M0 0 C0 0.33 0 0.66 0 1 C-0.886875 1.2475 -1.77375 1.495 -2.6875 1.75 C-6.44809415 3.16909213 -8.32801086 3.96693124 -11 7 C-12.31423514 10.94270542 -13.21143287 14.92253096 -14 19 C-14.33 19 -14.66 19 -15 19 C-15.57405178 12.65991699 -15.44230619 8.44143957 -11.38671875 3.375 C-7.6877608 -0.29269915 -4.99309417 -0.18841865 0 0 Z " fill="#ECF1FE" transform="translate(506,35)"/>
<path d="M0 0 C3 2 3 2 3.6875 4.125 C3.8421875 5.053125 3.8421875 5.053125 4 6 C5.32 5.01 6.64 4.02 8 3 C8.25 9.625 8.25 9.625 6 13 C5.34 13 4.68 13 4 13 C1.65167242 8.50754724 0 5.07851026 0 0 Z " fill="#ECF1FB" transform="translate(460,49)"/>
<path d="M0 0 C0 3 0 3 -1.3125 4.625 C-4.89714953 7.54582554 -8.58719618 7.08326045 -13 7 C-12.67 6.01 -12.34 5.02 -12 4 C-11.13375 4.0825 -10.2675 4.165 -9.375 4.25 C-5.24011993 3.94371259 -3.25357303 2.47891278 0 0 Z " fill="#E8F0FD" transform="translate(597,62)"/>
<path d="M0 0 C2.0625 0.4375 2.0625 0.4375 4 1 C2.7934375 1.9590625 2.7934375 1.9590625 1.5625 2.9375 C-1.42550676 6.50853246 -1.6445599 8.41828941 -1.859375 12.9140625 C-2 15 -2 15 -3 18 C-4.59309601 14.33587918 -5.34326696 12.261738 -4.27734375 8.34375 C-1.55665468 1.55665468 -1.55665468 1.55665468 0 0 Z " fill="#EBF0FE" transform="translate(551,43)"/>
<path d="M0 0 C3.3 0 6.6 0 10 0 C10 2.31 10 4.62 10 7 C9.34 7 8.68 7 8 7 C8 5.68 8 4.36 8 3 C5.03 2.67 2.06 2.34 -1 2 C-0.67 1.34 -0.34 0.68 0 0 Z " fill="#E5EBFE" transform="translate(439,61)"/>
<path d="M0 0 C0.33 0 0.66 0 1 0 C1 5.61 1 11.22 1 17 C0.34 16.67 -0.32 16.34 -1 16 C-1.02712153 14.083412 -1.04645097 12.1667127 -1.0625 10.25 C-1.07410156 9.18265625 -1.08570312 8.1153125 -1.09765625 7.015625 C-1.01510087 4.46631499 -0.74617558 2.42066409 0 0 Z " fill="#756E50" transform="translate(1,37)"/>
<path d="M0 0 C0.99 0.33 1.98 0.66 3 1 C3.33 1.99 3.66 2.98 4 4 C3.01 4.99 2.02 5.98 1 7 C0.01 6.67 -0.98 6.34 -2 6 C-2.33 5.01 -2.66 4.02 -3 3 C-2.01 2.01 -1.02 1.02 0 0 Z " fill="#F6F5FE" transform="translate(160,31)"/>
<path d="M0 0 C0.33 0.99 0.66 1.98 1 3 C3.31 3 5.62 3 8 3 C8.33 3.66 8.66 4.32 9 5 C8.67 5.66 8.34 6.32 8 7 C3.52599758 7.36275695 3.52599758 7.36275695 1.1875 5.75 C0 4 0 4 0 0 Z " fill="#F3F3FC" transform="translate(553,49)"/>
<path d="M0 0 C0.66 0 1.32 0 2 0 C2 2.64 2 5.28 2 8 C2.99 8.33 3.98 8.66 5 9 C3.35 9.33 1.7 9.66 0 10 C-0.74926071 6.33694766 -1.2380014 3.57644848 0 0 Z " fill="#F1F4F8" transform="translate(434,53)"/>
<path d="M0 0 C2.64 0 5.28 0 8 0 C7.01 1.485 7.01 1.485 6 3 C5.01 2.67 4.02 2.34 3 2 C2.01 3.32 1.02 4.64 0 6 C-1 3 -1 3 0 0 Z " fill="#EAF2FE" transform="translate(471,35)"/>
</svg>
