<?xml version="1.0" encoding="UTF-8" standalone="no"?>
<svg
   id="Layer_1"
   viewBox="0 0 320 436.432"
   version="1.1"
   sodipodi:docname="logo_title_white.svg"
   width="320"
   height="436.43201"
   inkscape:version="1.1.2 (b8e25be833, 2022-02-05)"
   xmlns:inkscape="http://www.inkscape.org/namespaces/inkscape"
   xmlns:sodipodi="http://sodipodi.sourceforge.net/DTD/sodipodi-0.dtd"
   xmlns="http://www.w3.org/2000/svg"
   xmlns:svg="http://www.w3.org/2000/svg">
  <sodipodi:namedview
     id="namedview23"
     pagecolor="#ffffff"
     bordercolor="#666666"
     borderopacity="1.0"
     inkscape:pageshadow="2"
     inkscape:pageopacity="0.0"
     inkscape:pagecheckerboard="0"
     showgrid="false"
     width="666.32001px"
     lock-margins="true"
     inkscape:zoom="1.582376"
     inkscape:cx="237.30137"
     inkscape:cy="218.02656"
     inkscape:window-width="1920"
     inkscape:window-height="1129"
     inkscape:window-x="-8"
     inkscape:window-y="-8"
     inkscape:window-maximized="1"
     inkscape:current-layer="Layer_1" />
  <defs
     id="defs4">
    <style
       id="style2">.cls-1{fill:#312929;}</style>
  </defs>
  <path
     class="cls-1"
     d="M 55.747389,246.69468 C 36.206027,259.46932 15.929884,263.37856 0,263.50822 v -74.29463 z"
     id="path6"
     style="stroke-width:0.48025;fill:#ff8a00;fill-opacity:1" />
  <path
     class="cls-1"
     d="M 30.899268,183.23448 H 0 V 53.264498 c 56.583023,0.441829 102.76384,46.920402 102.76384,105.121862 0,37.46428 -17.581945,60.40101 -27.143718,70.72158 L 30.894465,183.23928 Z"
     id="path8"
     style="stroke-width:0.48025;fill:#ff8a00;fill-opacity:1" />
  <path
     class="cls-1"
     d="m 315.99472,49.859527 c 0.25933,0 0.51867,0 0.778,0.0048 v 87.996163 c -34.30904,-9.24961 -46.80033,-22.52371 -46.80033,-43.693125 0,-24.723256 19.92075,-44.303038 46.02233,-44.303038 z"
     id="path10"
     style="stroke-width:0.48025;fill:#ff8a00;fill-opacity:1" />
  <path
     class="cls-1"
     d="m 244.55757,95.190299 c 0,46.363311 34.69324,58.388761 71.09617,68.690121 0.37459,0.11046 0.75399,0.21611 1.12378,0.32657 v 102.6918 c -0.25933,0.0144 -0.51867,0.0144 -0.778,0.0144 -30.5679,0 -51.17541,-19.92075 -52.8899,-52.54892 H 237.6948 c 0.68196,45.33557 33.31012,75.55769 78.30472,75.55769 0.25933,0 0.51867,0 0.778,-0.0144 v 26.86517 H 0 v -26.50498 c 40.03842,-0.21131 65.376396,-16.09797 76.009125,-23.31613 l 20.645936,21.40954 H 133.35574 L 95.891464,249.74907 C 110.79842,234.07852 131.81895,205.02341 131.81895,158.38636 131.81895,82.602954 72.637772,26.917997 0,26.504983 V 0 h 316.77272 v 26.86517 c -0.25933,-0.01441 -0.51867,-0.01441 -0.778,-0.01441 -39.15476,0 -71.44195,28.157042 -71.44195,68.339537 z"
     id="path12"
     style="stroke-width:0.48;fill:#ff8a00;stroke-miterlimit:4;stroke-dasharray:none;fill-opacity:1" />
  <path
     class="cls-1"
     d="M 2.8190659,336.5446 H 23.186457 c 10.032417,0 24.262216,1.04695 36.839957,11.67968 9.13435,7.63597 17.072878,20.36739 17.072878,38.33833 0,20.96771 -10.334975,32.19594 -17.519511,38.33834 -9.134349,7.78965 -18.720134,11.53079 -36.542201,11.53079 H 2.8190659 Z m 11.0793611,89.40329 h 9.734662 c 7.938528,0 18.869012,-0.89806 28.603674,-8.98547 7.487093,-6.29127 13.475808,-16.17481 13.475808,-30.39981 0,-23.95966 -16.775124,-39.53416 -42.079482,-39.53416 h -9.734662 z"
     id="path14"
     style="stroke-width:0.48025;fill:#ff8a00;fill-opacity:1" />
  <path
     class="cls-1"
     d="M 152.57534,408.2747 H 110.04442 L 98.062192,436.42694 H 85.782207 L 131.75651,331.74691 176.535,436.42694 h -12.27999 z m -4.34626,-10.47905 -16.77512,-39.98559 -17.07288,39.98559 h 33.8432 z"
     id="path16"
     style="stroke-width:0.48025;fill:#ff8a00;fill-opacity:1" />
  <path
     class="cls-1"
     d="m 208.43319,347.02845 v 89.40329 H 197.34902 V 347.02845 H 173.08681 V 336.5446 h 59.60379 v 10.48385 h -24.26222 z"
     id="path18"
     style="stroke-width:0.48025;fill:#ff8a00;fill-opacity:1" />
  <path
     class="cls-1"
     d="m 296.04034,408.2747 h -42.53092 l -11.98223,28.15224 H 229.24721 L 275.22152,331.74691 320,436.42694 h -12.27999 z m -4.34146,-10.47905 -16.77512,-39.98559 -17.07288,39.98559 h 33.8432 z"
     id="path20"
     style="stroke-width:0.48025;fill:#ff8a00;fill-opacity:1" />
</svg>
