<?xml version="1.0" encoding="utf-8"?>
<!-- Generator: Adobe Illustrator 16.0.3, SVG Export Plug-In . SVG Version: 6.00 Build 0)  -->
<!DOCTYPE svg PUBLIC "-//W3C//DTD SVG 1.1//EN" "http://www.w3.org/Graphics/SVG/1.1/DTD/svg11.dtd">
<svg version="1.1"
	 id="svg2" xmlns:cc="http://creativecommons.org/ns#" xmlns:dc="http://purl.org/dc/elements/1.1/" xmlns:rdf="http://www.w3.org/1999/02/22-rdf-syntax-ns#"
	 xmlns="http://www.w3.org/2000/svg" xmlns:xlink="http://www.w3.org/1999/xlink" x="0px" y="0px" width="320px" height="320px"
	 viewBox="0 0 320 320" enable-background="new 0 0 320 320" xml:space="preserve">
<path fill-rule="evenodd" clip-rule="evenodd" fill="#FFFFFF" d="M155.409,267.879c1.363,21.395-8.047,36.043-25.746,45.072
	c-16.563,8.447-32.782,5.791-46.866-5.941c-14.459-12.037-18.974-27.982-14.163-46.041c6.482-24.321,31.375-37.973,56.617-29.722
	c13.647,4.464,25.15,3.53,36.812-4.113c6.485-4.249,13.488-7.707,19.965-11.966c13.938-9.171,19.468-22.295,13.705-39.136
	c-3.299-9.648-9.158-19.714-16.708-26.367c-19.456-17.141-40.41-32.586-60.922-48.51c-13.265-10.3-28.231-11.331-44.372-8.521
	c-22.615,3.938-44.098-10.066-49.894-31.819c-4.839-18.155-0.105-33.931,14.13-46.079C51.929,2.821,68.097,0.404,84.891,7.946
	c17.087,7.672,27.157,21.674,26.423,40.227c-0.937,23.649,8.849,40,27.368,53.364c17.533,12.647,34.13,26.604,51.011,40.139
	c11.818,9.472,24.846,13.717,40.187,12.271c14.535-1.371,25.848,5.181,33.039,17.849c7.107,12.521,6.115,25.511-2.102,36.754
	c-8.513,11.647-20.699,18.623-35.422,13.329c-17.109-6.156-31.365-2.3-45.094,8.163c-5.47,4.172-12.443,6.635-17.201,11.4
	C155.805,248.753,153.603,258.409,155.409,267.879z"/>
<path fill-rule="evenodd" clip-rule="evenodd" fill="#FFFFFF" d="M254.14,140.411c-14.394-0.25-26.101-12.374-25.924-26.848
	c0.177-14.512,12.057-26.243,26.562-26.227c14.709,0.017,26.964,12.667,26.439,27.294
	C280.697,129.135,268.589,140.665,254.14,140.411z"/>
<path fill-rule="evenodd" clip-rule="evenodd" fill="#FFFFFF" d="M127.134,180.056c-0.205-12.023,8.897-21.551,20.8-21.775
	c11.663-0.22,21.35,9.389,21.397,21.224c0.05,11.744-9.635,21.492-21.275,21.417C136.711,200.849,127.329,191.494,127.134,180.056z"
	/>
<path fill-rule="evenodd" clip-rule="evenodd" fill="#FFFFFF" d="M258.352,282.567c-11.488,0.059-20.935-9.204-21.096-20.685
	c-0.16-11.338,9.196-20.673,20.837-20.787c11.427-0.112,21.188,9.389,21.097,20.526C279.091,273.24,269.868,282.513,258.352,282.567
	z"/>
</svg>
