<?xml version="1.0" encoding="utf-8"?>
<!-- Generator: Adobe Illustrator 16.0.3, SVG Export Plug-In . SVG Version: 6.00 Build 0)  -->
<!DOCTYPE svg PUBLIC "-//W3C//DTD SVG 1.1//EN" "http://www.w3.org/Graphics/SVG/1.1/DTD/svg11.dtd">
<svg version="1.1"
	 id="svg2" xmlns:cc="http://creativecommons.org/ns#" xmlns:dc="http://purl.org/dc/elements/1.1/" xmlns:rdf="http://www.w3.org/1999/02/22-rdf-syntax-ns#"
	 xmlns="http://www.w3.org/2000/svg" xmlns:xlink="http://www.w3.org/1999/xlink" x="0px" y="0px" width="1543.4px" height="320px"
	 viewBox="0 0 1543.4 320" enable-background="new 0 0 1543.4 320" xml:space="preserve">
<g>
	<path fill-rule="evenodd" clip-rule="evenodd" fill="#FFFFFF" d="M524.211,141.941c12.913-0.009,25.827,0.181,38.731-0.093
		c5.664-0.123,8.098,2.205,8.094,7.655c-0.013,25.823,0.083,51.642-0.14,77.462c-0.023,2.68-1.297,5.865-3.04,7.93
		c-19.322,22.916-42.08,40.952-72.495,46.063c-43.188,7.259-80.202-4.7-108.601-38.733c-31.489-37.73-39.697-80.968-22.522-126.653
		c27.117-72.137,100.67-96.451,161.209-66.674c9.549,4.696,17.442,12.685,26.364,18.765c7.391,5.034,4.963,10.083,0.641,15.229
		c-6.577,7.833-13.938,15.088-19.835,23.394c-4.581,6.456-7.598,5.89-13.094,1.208c-27.226-23.186-63.582-23.103-87.599,0.49
		c-19.595,19.249-25.65,43.087-19.181,69.455c6.177,25.18,21.583,42.836,47.296,49.443c21.36,5.489,40.529-0.388,57.494-14.021
		c3.105-2.496,5.275-19.586,2.517-22.087c-1.472-1.337-4.239-1.671-6.436-1.714c-9.386-0.186-18.78-0.214-28.168-0.055
		c-5.546,0.096-8.113-2.301-8.076-7.845c0.072-10.563,0.057-21.127-0.024-31.688c-0.043-5.601,2.541-7.715,8.133-7.604
		C498.386,142.125,511.301,141.95,524.211,141.941z"/>
	<path fill-rule="evenodd" clip-rule="evenodd" fill="#FFFFFF" d="M968.428,122.963c34.244-20.788,65.888-14.163,85.555,7.498
		c11.362-5.959,21.735-13.429,33.311-17.088c33.596-10.617,72.234,7.362,75.697,47.254c3.18,36.69,2.392,73.725,3.34,110.606
		c0.143,5.512-2.415,7.836-8.061,7.703c-11.143-0.255-22.319-0.487-33.442,0.079c-8.04,0.408-10.183-3.242-10.124-10.414
		c0.202-24.938,0.353-49.879,0.046-74.818c-0.091-7.813-0.596-15.932-2.816-23.342c-3.237-10.802-11.466-15.28-23.108-14.724
		c-8.31,0.4-16.522,7.558-18.665,17.164c-1.262,5.668-1.926,11.576-1.971,17.381c-0.209,26.406-0.304,52.818,0.028,79.218
		c0.088,7.321-2.414,9.857-9.659,9.518c-10.246-0.479-20.559-0.551-30.795,0.021c-7.483,0.419-9.73-2.608-9.666-9.613
		c0.219-23.471,0.128-46.944,0.045-70.416c-0.029-6.45-0.261-12.91-0.737-19.342c-1.025-14.01-9.58-23.73-20.89-24.05
		c-13.333-0.38-23.846,8.585-24.975,22.913c-1.28,16.31-1.509,32.713-1.835,49.082c-0.29,14.664-0.246,29.343-0.018,44.009
		c0.079,5.198-1.545,7.454-6.997,7.336c-11.729-0.253-23.475-0.255-35.205-0.011c-5.523,0.116-6.962-2.363-6.952-7.436
		c0.12-51.052,0.145-102.105,0.007-153.158c-0.017-5.701,2.049-8.01,7.67-7.85c6.74,0.193,13.538,0.486,20.235-0.11
		C958.121,109.509,966.071,110.912,968.428,122.963z"/>
	<path fill-rule="evenodd" clip-rule="evenodd" fill="#FFFFFF" d="M641.297,128.902c18.967-23.045,42.466-25.214,68.069-20.431
		c5.421,1.011,7.487,2.994,6.781,8.698c-1.076,8.68-1.492,17.447-1.975,26.191c-0.635,11.458-1.785,12.414-13.252,10.119
		c-19.132-3.826-36.66-0.362-49.354,14.939c-5.154,6.211-8.711,15.537-9.063,23.618c-1.127,25.748-0.612,51.575-0.271,77.368
		c0.095,7.175-2.071,9.956-9.473,9.601c-10.822-0.513-21.69-0.323-32.53-0.058c-5.885,0.143-8.659-1.982-8.647-8.069
		c0.102-50.711,0.139-101.421,0.087-152.135c-0.006-6.05,2.724-8.384,8.574-8.271c9.671,0.186,19.354,0.299,29.017-0.015
		c6.048-0.2,9.41,1.935,10.028,8.144C639.567,121.434,640.36,124.214,641.297,128.902z"/>
	<path fill-rule="evenodd" clip-rule="evenodd" fill="#FFFFFF" d="M281.12,195.026c0-25.482,0.173-50.971-0.121-76.453
		c-0.072-6.143,1.831-8.367,7.995-8.165c11.125,0.363,22.269,0.234,33.404,0.107c5.258-0.058,8.083,1.444,8.064,7.468
		c-0.151,51.281-0.14,102.567-0.026,153.851c0.013,5.438-2.254,7.174-7.379,7.089c-11.424-0.197-22.867-0.363-34.283,0.064
		c-6.473,0.245-7.975-2.686-7.943-8.374c0.142-25.195,0.061-50.392,0.061-75.588C280.969,195.026,281.045,195.026,281.12,195.026z"
		/>
	<path fill-rule="evenodd" clip-rule="evenodd" fill="#FFFFFF" d="M1242.915,278.822c-13.945,0-27.983-0.074-42.022,0.035
		c-6.608,0.052-5.557-4.65-5.563-8.596c-0.048-24.057-0.005-48.113,0.006-72.172c0.011-26.111,0.213-52.226-0.11-78.334
		c-0.082-6.729,1.722-9.629,8.821-9.355c10.842,0.421,21.71,0.189,32.562,0.107c4.751-0.037,7.758,1.065,7.741,6.822
		c-0.14,52.807-0.104,105.612-0.153,158.417C1244.196,276.28,1243.766,276.812,1242.915,278.822z"/>
	<path fill-rule="evenodd" clip-rule="evenodd" fill="#FFFFFF" d="M332.414,65.364c0.295,15.326-10.634,26.549-26.193,26.897
		c-15.667,0.349-27.644-11.533-27.875-27.653c-0.221-15.604,11.12-26.905,27.163-27.294C318.558,36.995,333.98,47.62,332.414,65.364
		z"/>
	<path fill-rule="evenodd" clip-rule="evenodd" fill="#FFFFFF" d="M1246.085,64.961c-0.036,16.489-10.605,27.38-26.512,27.32
		c-15.374-0.056-27.131-11.804-27.277-27.255c-0.152-16.258,11.198-27.622,27.555-27.576
		C1235.635,37.494,1246.124,48.496,1246.085,64.961z"/>
	<path fill-rule="evenodd" clip-rule="evenodd" fill="#FFFFFF" d="M758.806,268.624c1.386,21.749-8.181,36.642-26.173,45.82
		c-16.838,8.588-33.325,5.888-47.643-6.039c-14.699-12.237-19.29-28.445-14.398-46.806c6.589-24.723,31.896-38.603,57.556-30.216
		c13.874,4.54,25.568,3.59,37.423-4.18c6.593-4.321,13.712-7.834,20.295-12.165c14.171-9.322,19.792-22.662,13.934-39.783
		c-3.354-9.81-9.311-20.042-16.984-26.805c-19.779-17.424-41.082-33.127-61.934-49.316c-13.485-10.469-28.699-11.518-45.108-8.66
		c-22.99,4.002-44.83-10.232-50.722-32.349c-4.919-18.455-0.107-34.492,14.365-46.843c14.195-12.112,30.63-14.569,47.703-6.902
		c17.37,7.8,27.607,22.034,26.861,40.895c-0.952,24.041,8.996,40.664,27.822,54.249c17.824,12.855,34.695,27.045,51.858,40.805
		c12.014,9.629,25.257,13.944,40.852,12.473c14.777-1.392,26.276,5.268,33.587,18.147c7.226,12.728,6.217,25.933-2.136,37.361
		c-8.654,11.842-21.042,18.935-36.009,13.552c-17.395-6.259-31.886-2.339-45.843,8.297c-5.561,4.242-12.65,6.747-17.486,11.593
		C759.21,249.181,756.971,258.999,758.806,268.624z"/>
	<path fill-rule="evenodd" clip-rule="evenodd" fill="#FFFFFF" d="M859.175,139.043c-14.632-0.254-26.532-12.58-26.352-27.294
		c0.179-14.752,12.256-26.679,27-26.663c14.953,0.018,27.411,12.879,26.879,27.749C886.172,127.581,873.864,139.301,859.175,139.043
		z"/>
	<path fill-rule="evenodd" clip-rule="evenodd" fill="#FFFFFF" d="M730.063,179.346c-0.208-12.225,9.045-21.907,21.146-22.137
		c11.856-0.223,21.704,9.545,21.751,21.577c0.05,11.938-9.794,21.847-21.628,21.771C739.8,200.482,730.261,190.974,730.063,179.346z
		"/>
	<path fill-rule="evenodd" clip-rule="evenodd" fill="#FFFFFF" d="M863.458,283.556c-11.68,0.061-21.283-9.354-21.446-21.026
		c-0.163-11.526,9.35-21.015,21.183-21.133c11.615-0.111,21.541,9.545,21.446,20.867
		C884.541,274.076,875.165,283.502,863.458,283.556z"/>
</g>
</svg>
