<?xml version="1.0" encoding="UTF-8"?>
<svg width="113px" height="25px" viewBox="0 0 113 25" version="1.1" xmlns="http://www.w3.org/2000/svg" xmlns:xlink="http://www.w3.org/1999/xlink">
    <!-- Generator: Sketch 59 (86127) - https://sketch.com -->
    <title>@1xcolorful logo</title>
    <desc>Created with Sketch.</desc>
    <g id="Page-1" stroke="none" stroke-width="1" fill="none" fill-rule="evenodd">
        <g id="colorful-logo" fill-rule="nonzero">
            <g id="Group">
                <g id="Group-2" transform="translate(-0.000000, 0.000000)">
                    <path d="M10.9152534,24.9423077 C10.5514714,24.8942308 10.1844842,24.8573718 9.82230472,24.7948718 C9.35916369,24.7147436 8.89121497,24.6346154 8.43768933,24.5128205 C7.98416369,24.3910256 7.56909959,24.2163462 7.11877907,24.0592949 L20.5338432,1.0400641 L20.5867278,1.06410256 L11.9873688,21.3333333 C12.4072406,21.2676282 12.754997,21.2291667 13.0947406,21.1554487 C15.9969842,20.5272436 18.3271124,18.0144231 18.7854457,15.0657051 C18.9966648,13.7833729 18.8622424,12.4679147 18.3960227,11.2548077 C18.2576794,10.9270368 18.2699799,10.555094 18.4296765,10.2371795 C18.8864073,9.22435897 19.3078816,8.19391026 19.7630098,7.12179487 C19.8559586,7.2275641 19.9232663,7.30448718 19.9937791,7.38782051 C21.5963432,9.49839744 22.3014714,11.875 22.2165355,14.5192308 C22.0562791,19.3701923 18.3591637,23.7371795 13.5819201,24.661859 C13.0546765,24.7628205 12.5146124,24.8044872 11.979356,24.8766026 C11.893726,24.8941328 11.8091828,24.9166063 11.7261509,24.9439103 L10.9152534,24.9423077 Z" id="Path" fill="#313A82"></path>
                    <path d="M1.39121497,19.588141 C1.60275343,19.8894231 1.80307395,20.1971154 2.03224061,20.4887821 C2.31749702,20.8637821 2.60275343,21.2435897 2.92166369,21.588141 C3.24057395,21.9326923 3.58352266,22.2291667 3.93127907,22.5496795 L18.1716637,0.0352564103 L18.1251893,1.16482416e-14 L4.09954831,16.974359 C3.96493292,16.5705128 3.83833036,16.2435897 3.7469842,15.9086538 C2.96813805,13.0432692 4.12358677,9.81891026 6.53063805,8.05608974 C7.57234279,7.27673363 8.80225853,6.78786425 10.0947406,6.63942308 C10.4498957,6.61155503 10.7749806,6.42939031 10.9841637,6.14102564 C11.6684586,5.26923077 12.3880098,4.42147436 13.129997,3.52564103 C12.9921765,3.49358974 12.891215,3.46153846 12.7886509,3.44551282 C10.1796765,3.00160256 7.73897138,3.46634615 5.4344842,4.75961538 C1.20211241,7.12980769 -0.962951694,12.4262821 0.412048306,17.0897436 C0.572304716,17.6057692 0.779035485,18.1041667 0.960125229,18.6121795 C0.984257638,18.6959307 1.00352064,18.781009 1.01781754,18.8669872 L1.39121497,19.588141 Z" id="Path" fill="#F6AF00"></path>
                </g>
                <polygon id="Path" fill="#313A82" points="30.254997 12.9919872 35.8110868 13.0016026 35.8110868 15.1538462 30.254997 15.1442308 30.2437791 22.0128205 27.8655739 22.0128205 27.8832022 6.79647436 30.2405739 6.79647436 37.0258304 6.80608974 37.0258304 8.93910256 30.2598047 8.92788462"></polygon>
                <polygon id="Path" fill="#313A82" points="48.5562791 22.0432692 42.1812791 22.0320513 39.8239073 22.0320513 39.8479457 6.81891026 42.2261509 6.81891026 42.2053175 19.8782051 48.5610868 19.8878205"></polygon>
                <path d="M52.016215,20.8333333 C51.4411135,20.4016009 50.9778554,19.8383274 50.6652534,19.1907051 C50.317728,18.4701507 50.1442684,17.6780552 50.1588432,16.8782051 L50.1748688,6.83333333 L52.5530739,6.83333333 L52.5370483,16.8798077 C52.5370483,17.7820513 52.8575611,18.4823718 53.4761509,18.9519231 C54.0498688,19.4038462 54.8896124,19.6714744 55.791856,19.6730769 C56.6207558,19.6881002 57.4327381,19.4376548 58.1091637,18.9583333 C58.7245483,18.4887821 59.0338432,17.7916667 59.0354457,16.8894231 L59.0514714,6.84455128 L61.4553175,6.84455128 L61.4392919,16.8910256 C61.4403612,17.6915585 61.2641335,18.4823941 60.9232663,19.2067308 C60.5941134,19.8436382 60.1317174,20.4022301 59.567497,20.8445513 C57.3085468,22.4540886 54.2760924,22.4489357 52.0226252,20.8317308 L52.016215,20.8333333 Z" id="Path" fill="#313A82"></path>
                <polygon id="Path" fill="#313A82" points="75.1187791 22.0849359 71.0690996 16.1330128 67.0210227 22.0721154 64.0274329 22.0721154 69.5771124 13.9423077 64.7694201 6.86057692 67.7614073 6.86057692 71.0771124 11.7467949 74.4264714 6.87179487 77.4200611 6.87179487 72.5707022 13.9423077 78.1123688 22.0897436"></polygon>
                <path d="M89.9905739,17.599359 C90.0377171,19.0225757 89.315228,20.3610175 88.0995483,21.1025641 C87.0530739,21.7564103 85.6380098,22.1025641 83.9152534,22.099381 L82.5626893,22.099381 L80.5530739,22.099381 L80.5771124,6.89102564 L82.9553175,6.89102564 L83.9392919,6.89102564 C85.6203816,6.89102564 86.8511509,7.21153846 87.7101252,7.83974359 C88.1673306,8.17847507 88.5271746,8.63173475 88.7533945,9.15384615 C88.965242,9.66109133 89.0694713,10.2067947 89.0594842,10.7564103 C89.0594842,11.5769231 88.7902534,12.5801282 87.8655739,13.5432692 C88.1112716,13.710011 88.3437937,13.8953857 88.5610868,14.0977564 C88.9989699,14.5280223 89.3527742,15.0361744 89.604356,15.5961538 C89.8694435,16.2302361 90.0009209,16.9121729 89.9905739,17.599359 Z M87.8591637,17.599359 C87.8836256,16.8649816 87.5918561,16.1553982 87.0578816,15.650641 C86.7220049,15.3251706 86.3278535,15.0658462 85.8960227,14.8862179 C85.6908945,14.9679487 85.4857663,15.0705128 85.254997,15.1522436 C84.5032918,15.4490312 83.7274659,15.680653 82.9360868,15.8445513 L82.9360868,19.9455128 L83.9200611,19.9455128 C85.2117278,19.9455128 86.2582022,19.724359 86.9344842,19.2948718 C87.5359218,18.9459068 87.8925797,18.2906947 87.8591637,17.5961538 L87.8591637,17.599359 Z M82.9521124,9.01762821 L82.9521124,13.6314103 C83.4830101,13.5153397 84.0022449,13.3512014 84.5033945,13.1410256 C85.2630098,12.8349359 85.8575611,12.4871795 86.266215,12.0785256 C86.6748688,11.6698718 86.9072406,11.2387821 86.9072406,10.7467949 C86.9072406,10.0080128 86.6428175,9.72115385 86.4264714,9.55769231 C85.8527534,9.125 84.7453816,9.02083333 83.9457022,9.01923077 L82.9521124,9.01762821 Z" id="Shape" fill="#313A82"></path>
                <polygon id="Path" fill="#313A82" points="101.341535 22.1282051 94.9665355 22.1153846 92.6075611 22.1153846 92.6267919 6.90224359 95.004997 6.90224359 94.9841637 19.9615385 101.339933 19.9727564"></polygon>
                <polygon id="Path" fill="#313A82" points="105.477753 13.1137821 111.033843 13.1233974 111.033843 15.275641 105.479356 15.2660256 105.479356 19.9823718 112.224548 19.9935897 112.224548 22.1458333 105.447305 22.1346154 103.089933 22.1346154 103.113971 6.92147436 105.471343 6.92147436 112.237369 6.93269231 112.237369 9.06410256 105.492177 9.05288462"></polygon>
            </g>
        </g>
    </g>
</svg>