<?xml version="1.0" encoding="UTF-8"?>
<!DOCTYPE svg PUBLIC "-//W3C//DTD SVG 1.1//EN" "http://www.w3.org/Graphics/SVG/1.1/DTD/svg11.dtd">
<!-- Creator: CorelDRAW X7 -->
<svg xmlns="http://www.w3.org/2000/svg" xml:space="preserve" width="84.6667mm" height="84.6667mm" version="1.1" style="shape-rendering:geometricPrecision; text-rendering:geometricPrecision; image-rendering:optimizeQuality; fill-rule:evenodd; clip-rule:evenodd"
viewBox="0 0 5475 5475"
 xmlns:xlink="http://www.w3.org/1999/xlink">
 <defs>
  <style type="text/css">
   <![CDATA[
    .fil2 {fill:#7C7C7C}
    .fil1 {fill:#FEFEFE}
    .fil0 {fill:white}
   ]]>
  </style>
 </defs>
 <g id="Layer_x0020_1">
  <metadata id="CorelCorpID_0Corel-Layer"/>
  <g id="_831309696">
   <path class="fil0" d="M4883 3501c85,1 124,1 208,-11 131,-16 237,-113 290,-192 174,-264 66,-1028 -8,-1294 -97,-342 -288,-723 -507,-983 -79,-95 -206,-239 -301,-317 -24,-19 -42,-40 -64,-58 -49,-37 -89,-71 -142,-111 -803,-583 -1819,-697 -2723,-305 -220,96 -426,230 -611,373l-129 114c-48,43 -87,73 -131,122 -76,87 -154,169 -227,270 -649,899 -728,2094 -143,3046 85,138 117,173 204,292 187,256 528,522 806,684 434,251 1007,390 1609,330 156,-15 278,-31 383,-115 83,-66 166,-163 193,-304 59,-310 -153,-530 -394,-580 -206,-43 -406,87 -902,-49 -247,-69 -490,-208 -644,-348 -172,-156 -314,-309 -433,-560 -251,-529 -217,-1084 55,-1591 350,-654 1230,-1053 2031,-779 767,262 1249,1005 1163,1807 -30,285 172,540 417,559z"/>
   <path class="fil1" d="M3066 3614c8,76 50,153 88,193 45,48 84,100 131,142 68,60 426,461 534,570l399 432c147,130 225,333 497,327 278,-7 560,-279 512,-588 -22,-144 -89,-192 -156,-267 -162,-181 -465,-485 -595,-642l-335 -353c-25,-28 -42,-49 -65,-77 -23,-27 -48,-44 -72,-70 -52,-58 -137,-163 -205,-200 -342,-185 -778,135 -733,533z"/>
   <path class="fil2" d="M4883 3501c2,1 6,1 7,4 2,3 6,3 8,4 11,3 17,4 28,5l165 -24c-84,12 -123,12 -208,11z"/>
  </g>
 </g>
</svg>
