<svg xmlns="http://www.w3.org/2000/svg" width="1175.721" height="320">
  <path
    d="M830.222 319.043v-55.684h17.213v6.619h-10.737v17.505h10.59v6.33h-10.59v18.312h10.66v6.918zM913.637 319.043a4352.731 4352.731 0 00-4.19-13.905c-1.18-3.87-2.174-7.16-2.98-9.855-.81-2.696-1.46-4.901-1.95-6.618-.492-1.718-.897-3.116-1.216-4.196-.32-1.08-.563-1.92-.736-2.538a24.825 24.825 0 01-.405-1.652h-.364c.045 1.571.07 3.212.07 4.925v33.839h-5.954v-55.684h7.5c1.08 4.12 2.011 7.638 2.797 10.555.785 2.92 1.434 5.371 1.95 7.358a724.62 724.62 0 001.248 4.78c.318 1.204.562 2.157.734 2.866.172.715.3 1.252.37 1.622.076.365.137.7.182.992h.37a52.689 52.689 0 01-.075-2.867V263.359h6.034v55.684zM965.86 319.043v-55.684h17.213v6.619h-10.738v17.505h10.59v6.33h-10.59v18.312h10.662v6.918zM1041.036 289.547c.882 0 1.621-.121 2.21-.37.587-.244 1.073-.78 1.469-1.617.198-.39.345-.785.44-1.175a13.8 13.8 0 00.26-1.582c.07-.664.12-1.5.146-2.503.025-1.003.036-2.315.036-3.937 0-1.22-.011-2.239-.036-3.05a31.886 31.886 0 00-.112-1.986c-.05-.516-.136-.932-.258-1.252a5.531 5.531 0 00-.4-.846c-.593-.928-1.45-1.399-2.58-1.399h-4.114v19.717zm5.225 29.495a6.166 6.166 0 01-.37-.917c-.096-.32-.183-.775-.259-1.362a48.236 48.236 0 01-.218-2.392 220.72 220.72 0 01-.258-4.009c-.096-1.865-.208-3.74-.33-5.624a88.078 88.078 0 00-.552-5.63c-.249-1.52-.578-2.502-.993-2.944-.416-.44-1.115-.658-2.098-.658h-3.086v23.536h-6.476V263.36h11.771c1.713 0 3.04.208 3.973.624.927.42 1.738 1.07 2.428 1.951.44.587.82 1.241 1.139 1.95.314.71.573 1.556.77 2.539.198.978.33 2.118.407 3.42.07 1.298.11 2.807.11 4.52 0 1.768-.025 3.253-.076 4.455-.05 1.2-.136 2.23-.259 3.085a21.994 21.994 0 01-.4 2.174 14.362 14.362 0 01-.517 1.617c-.343.835-.749 1.469-1.215 1.91-.467.44-.968.785-1.506 1.034v.364c.487.25.968.7 1.434 1.363.466.66.797 1.754.994 3.273.338 2.55.622 5.14.846 7.76.218 2.624.405 5.36.552 8.203.096 1.13.208 2.082.33 2.868.122.784.304 1.546.552 2.28v.293zM1113.71 263.36h6.694v26.998c0 4.216-.037 7.722-.107 10.513-.076 2.798-.188 5.103-.335 6.917-.147 1.815-.34 3.274-.588 4.379a20.221 20.221 0 01-.882 2.979 12.144 12.144 0 01-1.14 2.169 4.989 4.989 0 01-1.616 1.504c-.664.396-1.475.69-2.427.887-.958.192-2.174.294-3.644.294-2.842 0-4.93-.506-6.252-1.51-1.324-1.004-2.305-2.686-2.944-5.036a54.148 54.148 0 01-.4-1.915 20.074 20.074 0 01-.294-2.17 37.409 37.409 0 01-.148-2.833c-.025-1.078-.04-2.351-.04-3.825 0-1.272.015-2.255.04-2.94.02-.688.082-1.372.183-2.061h5.883c-.051.394-.071.907-.071 1.544v3.457c0 1.57.07 3.126.218 4.672.147 1.545.37 2.757.664 3.643.243.684.552 1.201.917 1.546.37.34 1.068.512 2.097.512 1.13 0 1.885-.183 2.28-.553.391-.364.71-.968.959-1.799.147-.592.278-1.303.404-2.134.122-.835.218-1.985.295-3.46.071-1.469.132-3.37.183-5.701.045-2.325.07-5.304.07-8.933zM1169.538 250.855h5.666v8.239h-5.666zm-.511 12.504h6.694v55.684h-6.694zM400 80h69.438l65.205 108.39L601.539 80h69.014l-89.762 135.49c-8.189 12.698-23.286 19.052-45.303 19.052-22.3 0-37.545-6.354-45.729-19.052zM712.889 112.601V80h196.456v32.601h-65.619v119.824h-65.632V112.6zM976.242 198.55v-83.83c0-13.266 5.148-22.366 15.455-27.312C1001.999 82.472 1020.7 80 1047.8 80h127.864v32.601h-118.55c-8.47.567-13.55 2.828-15.243 6.775v66.897c0 5.65 1.971 9.46 5.929 11.431 2.255 1.13 6.774 1.693 13.545 1.693h114.319v33.027h-137.604c-7.342 0-14.969-.846-22.863-2.538-25.973-5.082-38.956-15.52-38.956-31.335"
    fill="#fff" />
  <g>
    <path d="M110.703 25.834l22.743 44.674 159.901 31.646 16.012-29.962z" fill="#009dff" />
    <path d="M58.078 13.553L0 0l130.457 235.953 23.728-40.711zM154.186 278.87L176.927 320l99.877-186.89-37.903-6.121z"
      fill="#fff" />
  </g>
</svg>