<svg width="25" height="24" xmlns="http://www.w3.org/2000/svg"><path d="M21.873 16.68c-.517 1.15-.767 1.664-1.432 2.678-.932 1.418-2.247 3.188-3.87 3.199-1.446.013-1.82-.943-3.782-.926-1.961.009-2.37.945-3.818.93-1.625-.015-2.868-1.61-3.8-3.025-2.607-3.97-2.882-8.623-1.272-11.098 1.14-1.755 2.942-2.786 4.635-2.786 1.725 0 2.81.947 4.234.947 1.384 0 2.226-.95 4.22-.95 1.508 0 3.102.822 4.242 2.24-3.727 2.043-3.122 7.366.643 8.791Zm-6.4-12.615C16.2 3.134 16.752 1.82 16.55.48c-1.183.081-2.567.837-3.375 1.815-.733.893-1.34 2.217-1.104 3.497 1.292.042 2.628-.729 3.403-1.727Z" fill="currentColor" /></svg>
