<svg xmlns="http://www.w3.org/2000/svg" width="234" height="245" fill="none"><rect width="100%" height="100%"/><mask id="a" fill="#fff"><path d="M144.998 161.896a18.006 18.006 0 0 1-.561 13.766 17.988 17.988 0 0 1-10.13 9.336 18.001 18.001 0 0 1-23.102-10.691l16.897-6.205 16.896-6.206Z"/></mask><g class="currentLayer"><path fill="#fff" d="M0 0h234v245H0z"/><path d="M3.186 131.261a100 100 0 0 1 23.92-91.658l6.805-7.324C71.513-8.188 134.803-10.502 175.26 27.111l26.547 24.682c44.827 41.677 42.031 113.484-5.902 151.548l-24.43 19.4c-57.171 45.4-142.145 16.223-159.366-54.722l-8.922-36.758Z" fill="#F3F7FF"/><circle opacity=".4" cx="195" cy="67" r="6" fill="#6794C7"/><circle opacity=".4" cx="121.5" cy="15.5" r="10.5" fill="#6794C7"/><circle opacity=".4" cx="41" cy="73" r="9" fill="#6794C7"/><circle opacity=".4" cx="116.5" cy="47.5" r="2.5" fill="#6794C7"/><circle opacity=".4" cx="196.5" cy="179.5" r="3.5" fill="#6794C7"/><circle opacity=".4" cx="102.5" cy="185.5" r="3.5" fill="#6794C7"/><circle opacity=".4" cx="28" cy="150" r="6" fill="#6794C7"/><path d="M144.998 161.896a18.006 18.006 0 0 1-.561 13.766 17.988 17.988 0 0 1-10.13 9.336 18.001 18.001 0 0 1-23.102-10.691l16.897-6.205 16.896-6.206Z" fill="#fff" stroke="#6794C7" stroke-width="6" mask="url(#a)"/><ellipse opacity=".4" cx="113" cy="202" rx="70" ry="5" fill="#6794C7"/><path d="m76.238 66.355.9-.666-.383-1.052-.705-1.938a12.722 12.722 0 0 1 23.91-8.703l.705 1.938.383 1.053 1.118-.069c21.32-1.302 40.916 11.6 48.23 31.693l12.326 33.866a17.494 17.494 0 0 0 9.049 9.875l11.659 5.437 1.707 4.689L67.675 185.23l-1.706-4.688 5.436-11.66a17.5 17.5 0 0 0 .585-13.381l-12.327-33.866c-7.313-20.093-.595-42.573 16.575-55.28Z" fill="#fff" stroke="#6794C7" stroke-width="3"/></g></svg>
