<svg xmlns="http://www.w3.org/2000/svg" width="18" height="18" viewBox="0 0 18 18" fill="none">
  <path d="M8.5011 0C6.90566 0 5.41209 0.445179 4.13531 1.2113C3.77124 0.915337 3.31377 0.750592 2.83778 0.750468C2.83771 0.750468 2.83765 0.750468 2.83758 0.750468C1.70391 0.750509 0.774364 1.68005 0.77442 2.81357C0.77442 2.81377 0.77442 2.81397 0.77442 2.81417C0.774977 3.28743 0.939049 3.74122 1.23024 4.10365C0.452289 5.38768 3.37531e-05 6.89218 3.37531e-05 8.50016C-0.000729547 8.56539 0.0114602 8.63012 0.0358966 8.6906C0.0603331 8.75108 0.0965305 8.80612 0.142392 8.85251C0.188253 8.89891 0.242866 8.93574 0.303067 8.96088C0.363267 8.98602 0.427859 8.99896 0.493099 8.99896C0.558339 8.99896 0.622931 8.98602 0.683132 8.96088C0.743333 8.93574 0.797946 8.89891 0.843807 8.85251C0.889668 8.80612 0.925865 8.75108 0.950302 8.6906C0.974738 8.63012 0.986928 8.56539 0.986165 8.50016C0.986165 7.11085 1.36413 5.81467 2.01994 4.6996C2.2768 4.81122 2.55279 4.87674 2.83664 4.87718C2.83688 4.87718 2.83711 4.87718 2.83734 4.87718C3.97107 4.87721 4.90078 3.94765 4.90073 2.81407C4.90073 2.814 4.90073 2.81392 4.90073 2.81385C4.90064 2.53267 4.83668 2.25914 4.72732 2.00412C5.83641 1.35822 7.12275 0.986401 8.5009 0.986401C8.56613 0.987164 8.63087 0.974975 8.69136 0.950542C8.75185 0.926109 8.80689 0.889918 8.85329 0.844063C8.89969 0.798208 8.93653 0.743601 8.96168 0.683408C8.98682 0.623216 8.99976 0.558634 8.99976 0.493403C8.99976 0.428172 8.98682 0.36359 8.96168 0.303398C8.93653 0.243205 8.89969 0.188597 8.85329 0.142743C8.80689 0.0968878 8.75185 0.0606972 8.69136 0.0362641C8.63087 0.011831 8.56613 -0.000358125 8.5009 0.00040507L8.5011 0ZM2.83722 1.73678C3.16982 1.7369 3.46672 1.87807 3.67175 2.13481C3.67511 2.13889 3.67854 2.14291 3.68202 2.14688C3.8323 2.33697 3.91448 2.57168 3.91457 2.81408C3.91448 3.41459 3.43824 3.8908 2.83771 3.89103C2.59189 3.89057 2.35389 3.80616 2.1627 3.65173C2.16247 3.65156 2.16223 3.6514 2.162 3.65123C1.90808 3.44689 1.76061 3.13953 1.76013 2.8136C1.76027 2.21309 2.23658 1.7369 2.83722 1.73678Z" fill="black" fill-opacity="0.87"/>
  <path fill-rule="evenodd" clip-rule="evenodd" d="M3.76812 5.78359C3.68419 5.87123 3.63501 5.99226 3.64112 6.12505C3.64654 6.24005 3.69249 6.35117 3.77259 6.43539C4.15539 6.82098 4.91015 7.57279 4.91015 7.57279L5.57639 6.90743C5.57639 6.90743 4.84664 6.17847 4.44147 5.77295C4.35124 5.68114 4.23054 5.6428 4.10329 5.64223C3.97064 5.6416 3.852 5.69588 3.76808 5.78352L3.76812 5.78359ZM5.57641 6.90732L3.51544 8.96806C3.29184 9.19169 3.29184 9.55417 3.51544 9.77779L8.03726 14.299C8.2609 14.5226 8.62351 14.5226 8.84716 14.299L14.4353 8.7116C14.6589 8.48795 14.6589 8.12543 14.4353 7.90181L13.3873 6.854L11.6014 5.06772L9.9133 3.38044C9.68964 3.15686 9.32711 3.15686 9.10346 3.38044L5.57654 6.90687L5.57641 6.90732ZM7.70893 4.77515C7.70893 4.77515 6.97919 4.04618 6.57401 3.64067C6.48379 3.54886 6.36308 3.51052 6.23583 3.50995C5.97052 3.50868 5.76141 3.72713 5.77363 3.9927C5.77904 4.1077 5.825 4.21882 5.9051 4.30303C6.28789 4.68863 7.04265 5.44044 7.04265 5.44044L7.70889 4.77508L7.70893 4.77515ZM11.6011 5.06836C11.6011 5.06836 12.3301 4.33871 12.7357 3.9336C12.8275 3.84338 12.8659 3.7227 12.8665 3.59547C12.8677 3.33019 12.6492 3.12111 12.3836 3.13332C12.2686 3.13873 12.1575 3.18469 12.0733 3.26477C11.6876 3.64751 10.9357 4.40217 10.9357 4.40217L11.6011 5.06831L11.6011 5.06836ZM13.3872 6.85424C13.3872 6.85424 14.1163 6.1246 14.5218 5.71948C14.6137 5.62927 14.652 5.50858 14.6526 5.38135C14.6539 5.11607 14.4354 4.90699 14.1698 4.9192C14.0547 4.92461 13.9436 4.97057 13.8594 5.05066C13.4737 5.4334 12.7218 6.18806 12.7218 6.18806L13.3873 6.8542L13.3872 6.85424ZM12.3742 10.7725C12.3742 10.7725 13.1039 11.5015 13.5092 11.9069C13.5994 11.9987 13.7201 12.037 13.8474 12.0376C14.1127 12.0389 14.3218 11.8204 14.3096 11.5549L14.3095 11.555C14.3041 11.44 14.2581 11.3288 14.178 11.2446C13.7952 10.859 13.0405 10.1072 13.0405 10.1072L12.3742 10.7726L12.3742 10.7725ZM10.2415 12.9049C10.2415 12.9049 10.9712 13.6339 11.3765 14.0393C11.4668 14.1311 11.5875 14.1694 11.7147 14.17C11.98 14.1713 12.1891 13.9528 12.1769 13.6872H12.1768C12.1714 13.5722 12.1254 13.4611 12.0453 13.3769C11.6625 12.9913 10.9078 12.2395 10.9078 12.2395L10.2415 12.9049L10.2415 12.9049ZM6.32269 12.5851C6.32269 12.5851 5.59362 13.3147 5.18817 13.7199C5.09634 13.8101 5.058 13.9308 5.05742 14.0581C5.05616 14.3233 5.27463 14.5324 5.54024 14.5202H5.54014C5.65515 14.5148 5.76629 14.4688 5.85051 14.3887C6.23617 14.006 6.98807 13.2513 6.98807 13.2513L6.32319 12.5854L6.32269 12.5851ZM4.53712 10.7999C4.53712 10.7999 3.80805 11.5295 3.4026 11.9348C3.31078 12.025 3.27244 12.1457 3.27186 12.2729C3.27059 12.5382 3.48907 12.7473 3.75468 12.735H3.75457C3.86959 12.7296 3.98072 12.6837 4.06495 12.6036C4.45061 12.2209 5.2025 11.4662 5.2025 11.4662L4.53711 10.7997L4.53712 10.7999ZM9.44426 5.70688C9.53873 5.6109 9.6674 5.55727 9.79848 5.55918C9.89201 5.56051 9.98146 5.59012 10.0551 5.64409L10.9832 6.32463C11.1633 6.45382 11.2163 6.69915 11.1087 6.90461C11.001 7.11006 10.7642 7.21531 10.549 7.15336L10.8934 8.50026C10.956 8.74501 10.8055 9.00463 10.5569 9.08052L8.04573 9.84717L8.50955 11.6404C8.57552 11.8861 8.42508 12.1491 8.1746 12.2257C7.92412 12.3023 7.66971 12.1632 7.60827 11.9161L7.0299 9.67936C6.96653 9.43438 7.11705 9.17403 7.36605 9.09792L9.87826 8.33093L9.6464 7.42441C9.49095 7.59675 9.23951 7.6386 9.05093 7.52348C8.86231 7.40836 8.79136 7.16973 8.88296 6.95841L9.33954 5.86426C9.36391 5.8059 9.39957 5.7524 9.4443 5.70693L9.44426 5.70688Z" fill="black" fill-opacity="0.87"/>
  <path d="M9.49903 18C11.0945 18 12.588 17.5548 13.8649 16.7887C14.2289 17.0846 14.6864 17.2494 15.1624 17.2495C15.1625 17.2495 15.1626 17.2495 15.1626 17.2495C16.2964 17.2495 17.2259 16.3199 17.2258 15.1864C17.2258 15.1862 17.2258 15.186 17.2258 15.1858C17.2253 14.7125 17.0612 14.2587 16.77 13.8963C17.5477 12.6128 18 11.1082 18 9.50025C18.0008 9.43498 17.9887 9.3702 17.9643 9.30966C17.9399 9.24913 17.9037 9.19404 17.8578 9.14759C17.8119 9.10115 17.7573 9.06427 17.6971 9.0391C17.6368 9.01394 17.5722 9.00098 17.5069 9.00098C17.4417 9.00098 17.377 9.01394 17.3168 9.0391C17.2566 9.06427 17.2019 9.10115 17.1561 9.14759C17.1102 9.19404 17.074 9.24913 17.0496 9.30966C17.0252 9.3702 17.013 9.43498 17.0139 9.50025C17.0139 10.8896 16.6359 12.1858 15.9801 13.3009C15.7232 13.1892 15.4472 13.1237 15.1634 13.1233C15.1632 13.1233 15.1629 13.1233 15.1627 13.1233C14.029 13.1233 13.0993 14.0528 13.0993 15.1864C13.0994 15.4676 13.1634 15.7411 13.2727 15.9961C12.1636 16.642 10.8772 17.0138 9.49909 17.0138C9.43382 17.013 9.36903 17.0252 9.30848 17.0496C9.24794 17.074 9.19284 17.1101 9.14639 17.156C9.09994 17.2019 9.06306 17.2565 9.03789 17.3167C9.01272 17.3769 8.99976 17.4416 8.99976 17.5068C8.99976 17.5721 9.01272 17.6367 9.03789 17.697C9.06306 17.7572 9.09994 17.8118 9.14639 17.8577C9.19284 17.9035 9.24794 17.9397 9.30848 17.9641C9.36903 17.9885 9.43382 18.0007 9.49909 17.9998L9.49903 18ZM15.1629 16.2635C14.8303 16.2635 14.5334 16.1222 14.3284 15.8655C14.325 15.8614 14.3216 15.8574 14.3181 15.8534C14.1678 15.6633 14.0856 15.4286 14.0856 15.1862C14.0857 14.5857 14.5619 14.1095 15.1624 14.1093C15.4082 14.1097 15.6462 14.1941 15.8374 14.3486C15.8377 14.3487 15.8379 14.3489 15.8381 14.3491C16.092 14.5534 16.2395 14.8608 16.24 15.1867C16.2398 15.7872 15.7635 16.2635 15.1629 16.2635Z" fill="black" fill-opacity="0.87"/>
</svg>
