<svg version="1.1"
	 id="svg2" xmlns:rdf="http://www.w3.org/1999/02/22-rdf-syntax-ns#" xmlns:cc="http://creativecommons.org/ns#" xmlns:dc="http://purl.org/dc/elements/1.1/"
	 xmlns="http://www.w3.org/2000/svg" xmlns:xlink="http://www.w3.org/1999/xlink" x="0px" y="0px" width="1543.4px" height="320px"
	 viewBox="0 0 1543.4 320" enable-background="new 0 0 1543.4 320" xml:space="preserve">
<g id="layer101">
	<path fill="#FFFFFF" d="M639.444,314.448c-9.051-1.812-20.733-5.265-25.588-7.405c-1.892-0.905-3.701-1.646-3.949-1.646
		c-0.906,0-10.858-6.172-13-8.145c-4.194-3.704-5.182-6.911-5.182-16.949c0-10.283,1.07-13.903,4.442-15.057
		c2.552-0.903,6.912,0.577,12.013,3.948c8.72,5.844,22.871,11.85,34.965,14.811c11.188,2.798,29.536,2.798,38.996,0.082
		c20.486-5.921,31.759-20.074,31.759-39.655c0-14.644-6.171-24.271-22.38-34.801c-6.006-3.867-10.531-6.254-23.283-12.012
		c-12.833-5.76-31.428-15.384-36.611-18.759c-27.232-18.1-37.351-40.725-32.499-72.811c2.139-14.48,10.12-27.889,22.296-37.598
		c20.486-16.372,59.895-20.815,90.827-10.202c8.887,3.044,16.292,6.91,19.828,10.202c4.117,3.948,5.597,11.765,4.198,21.638
		c-1.564,10.859-4.032,11.847-14.562,5.841c-17.936-10.284-30.851-14.316-45.662-14.316c-13.656,0-23.941,3.292-31.675,10.038
		c-10.777,9.461-13.903,26.574-7.322,40.066c2.714,5.431,11.189,14.152,18.429,18.842c5.102,3.374,14.231,7.98,28.383,14.562
		c28.466,13.163,37.68,18.761,47.72,28.714c13.902,13.821,19.334,27.068,19.334,46.977c0,21.062-6.582,37.434-20.57,51.501
		c-11.518,11.685-24.683,18.019-45.66,22.135C673.669,316.668,650.385,316.585,639.444,314.448z"/>
	<path fill="#FFFFFF" d="M827.023,314.448c-16.618-3.376-28.218-7.651-39.242-14.479c-6.829-4.28-9.463-11.603-8.558-23.697
		c0.904-12.668,5.349-14.397,16.948-6.745c2.47,1.646,4.773,2.962,5.102,2.962c0.411,0,2.058,0.822,3.785,1.893
		c4.36,2.714,17.523,7.649,25.503,9.625c12.425,2.964,27.81,2.964,39.656,0c6.499-1.563,15.633-6.745,20.239-11.271
		c2.716-2.715,5.595-6.829,7.488-10.695l3.125-6.335v-10.696c0-10.283-0.082-11.024-2.469-15.714
		c-2.797-5.76-11.024-14.398-17.77-18.759c-5.101-3.289-14.152-7.98-22.133-11.6c-13.738-6.171-33.897-16.373-39.655-20.157
		c-7.403-4.771-16.782-13.409-21.392-19.662c-4.771-6.5-9.462-16.948-11.021-24.764c-1.647-8.557-1.235-25.012,0.902-32.992
		c1.894-7.24,7.569-19.006,10.286-21.391c0.327-0.247,1.562-1.809,2.797-3.456c4.77-6.334,17.193-14.479,28.712-18.758
		c10.037-3.785,28.385-6.171,40.479-5.348c14.973,1.069,34.062,6.088,42.616,11.188c2.141,1.316,4.196,2.386,4.525,2.386
		c0.412,0,1.976,1.317,3.538,2.963l2.797,2.878v12.176c0,10.861-0.164,12.424-1.563,13.988c-2.14,2.385-4.605,2.138-10.119-0.906
		c-16.125-8.804-20.239-10.532-32.744-13.904c-7.405-1.975-21.967-2.139-29.372-0.248c-11.93,2.962-20.237,9.215-24.763,18.43
		c-2.552,5.1-2.634,5.758-2.634,15.22c0,9.215,0.166,10.202,2.388,14.809c2.88,5.842,10.94,14.234,18.591,19.17
		c4.691,3.125,16.786,9.297,26.74,13.739c20.405,9.13,38.831,19.498,46.074,25.916c15.138,13.657,21.472,26.492,22.377,45.742
		c0.985,19.828-2.881,33.732-13.33,48.46c-3.701,5.265-10.694,12.259-14.808,14.808c-1.315,0.905-2.633,1.812-2.88,2.14
		c-1.152,1.481-12.67,6.909-19.087,9.051c-12.917,4.361-22.295,5.678-38.915,5.596C838.544,315.927,832.371,315.517,827.023,314.448
		z"/>
	<path fill="#FFFFFF" d="M85.503,312.391c-6.583-2.059-6.007-0.824-13.742-28.385c-3.455-12.422-5.1-18.182-6.581-23.036
		c-0.741-2.468-2.058-6.91-2.88-9.871c-0.822-2.964-2.057-7.158-2.714-9.463c-1.398-4.525-8.886-30.687-11.272-39.08
		c-0.822-2.963-2.056-7.157-2.715-9.461c-0.74-2.221-2.468-8.393-3.867-13.574c-1.48-5.184-2.962-10.202-3.373-11.106
		c-0.329-0.907-1.646-5.35-2.798-9.874c-1.151-4.524-2.468-9.132-2.88-10.285c-0.411-1.151-1.481-4.772-2.385-7.979
		c-0.988-3.291-2.468-8.722-3.456-11.929c-0.905-3.292-1.976-6.912-2.386-8.064c-0.411-1.151-1.645-5.759-2.879-10.285
		c-1.151-4.524-2.468-9.131-2.88-10.283c-0.411-1.152-1.48-4.772-2.386-7.98c-3.455-12.176-5.184-18.018-6.334-21.474
		c-0.658-1.892-1.152-5.512-1.152-7.98c0-6.745,0.822-7.075,17.031-7.075c16.784,0,18.264,0.576,19.91,7.075
		c0.74,3.209,3.208,12.505,5.43,20.568c0.659,2.304,1.893,7.076,2.88,10.696c0.988,3.621,2.222,8.476,2.879,10.695
		c0.658,2.304,1.975,7.076,2.88,10.696c0.987,3.62,2.304,8.475,2.879,10.695c0.659,2.305,2.469,8.968,4.031,14.808
		c1.563,5.924,3.62,13.329,4.525,16.457c0.905,3.208,2.715,10.038,4.114,15.219c1.397,5.184,6.417,23.941,11.188,41.55
		c10.037,36.69,10.119,36.939,13.492,50.185c1.482,5.431,2.716,10.285,2.879,10.695c0.165,0.494,0.824-1.563,1.564-4.524
		c0.658-2.962,2.632-10.533,4.278-16.865c1.644-6.335,3.456-13.575,4.114-16.045c0.576-2.47,2.386-9.709,4.113-16.042
		c5.925-22.872,8.804-33.813,9.873-38.257c0.576-2.469,2.386-9.709,4.113-16.042c1.646-6.336,3.703-14.318,4.525-17.69
		c1.4-5.676,3.538-14.068,10.038-38.668c1.316-5.183,3.126-12.258,3.949-15.632c0.823-3.372,2.14-8.391,2.879-11.107
		c0.74-2.715,1.892-7.322,2.551-10.201c3.784-16.455,4.607-17.441,15.384-18.183c4.115-0.247,10.861-0.247,14.892,0
		c6.994,0.494,7.487,0.659,9.543,3.209c1.234,1.48,2.633,4.361,3.127,6.5c0.493,2.138,2.138,8.557,3.784,14.314
		c8.803,31.099,10.285,36.53,12.753,45.908c0.905,3.374,2.221,8.228,2.961,10.695c0.741,2.469,1.811,6.418,2.469,8.639
		c0.576,2.304,2.468,8.968,4.113,14.81c1.646,5.923,3.702,13.329,4.525,16.455c0.822,3.209,2.88,10.613,4.525,16.454
		c1.729,5.924,3.539,12.59,4.114,14.809c0.576,2.303,2.468,8.969,4.114,14.807c1.646,5.924,3.456,12.592,4.114,14.811
		c0.575,2.304,2.468,8.969,4.113,14.811c3.538,12.505,5.266,18.922,5.924,21.802c0.494,2.139,0.905,0.906,8.144-26.329
		c4.197-15.63,4.938-18.347,7.242-27.147c1.809-6.91,5.099-19.581,8.391-31.675c0.576-2.222,1.893-7.076,2.797-10.696
		c0.905-3.619,2.223-8.391,2.799-10.693c1.068-4.032,3.291-12.179,7.568-28.139c1.151-4.443,2.879-10.859,3.785-14.234
		c0.823-3.372,2.057-7.979,2.633-10.284c4.36-16.044,7.569-28.301,10.859-40.725c2.305-9.049,4.279-14.973,5.266-15.96
		c1.892-1.975,12.176-2.88,23.2-2.14c9.051,0.659,9.957,1.48,9.379,8.639c-0.247,2.716-1.151,7.324-2.057,10.285
		c-0.905,2.961-2.384,8.144-3.373,11.518c-0.988,3.374-2.057,7.075-2.468,8.227c-0.823,2.386-2.222,7.323-9.05,31.264
		c-4.689,16.373-9.05,31.512-12.093,41.55c-2.222,7.649-4.442,15.63-5.266,18.922c-0.412,1.81-0.987,3.865-1.316,4.524
		c-0.494,1.15-1.892,6.005-4.69,16.042c-0.658,2.306-1.809,6.172-2.549,8.639c-0.741,2.47-2.058,6.912-2.879,9.873
		c-0.823,2.963-2.139,7.405-2.88,9.871c-0.741,2.47-2.057,6.912-2.879,9.875c-0.823,2.963-3.949,13.904-6.993,24.27
		c-5.678,19.417-8.063,27.972-9.626,33.732c-1.399,5.019-4.196,8.309-8.638,9.792c-2.88,0.986-6.994,1.316-17.032,1.232
		c-19.498,0-22.131-1.399-25.257-13.163c-0.904-3.292-2.138-7.898-2.797-10.202c-1.068-3.95-3.538-12.752-10.038-35.788
		c-1.563-5.677-3.373-12.093-3.949-14.398c-1.316-4.937-6.417-23.2-8.72-31.265c-0.987-3.126-2.222-7.567-2.796-9.871
		c-0.577-2.222-2.058-7.322-3.209-11.271c-1.153-3.95-2.469-8.641-2.88-10.285c-0.411-1.727-2.14-7.898-3.786-13.823
		c-5.676-20.238-8.555-30.44-11.024-39.407c-1.316-4.855-2.633-9.132-2.878-9.379c-0.495-0.412-0.741,0.247-2.058,5.594
		c-1.727,6.911-7.321,28.383-9.625,36.612c-1.153,4.524-2.88,11.021-3.703,14.397c-0.822,3.375-2.057,8.391-2.797,11.106
		c-0.741,2.715-1.974,7.734-2.879,11.105c-1.563,6.335-6.499,25.425-10.284,39.904c-4.031,15.384-7.979,30.44-9.461,36.611
		c-0.822,3.374-2.138,8.391-2.879,11.107c-1.481,5.594-2.962,11.353-5.019,19.743c-2.714,11.438-5.512,12.755-25.34,12.671
		C93.647,313.542,87.806,313.132,85.503,312.391z"/>
	<path fill="#FFFFFF" d="M350.996,312.391c-2.716-1.48-3.373-3.867-2.305-8.64c0.741-3.454,11.107-32.662,13.576-38.419
		c0.659-1.401,1.151-3.046,1.151-3.704c0.083-0.577,0.741-2.552,1.646-4.36s1.563-3.62,1.645-4.03c0-0.412,4.278-12.26,9.38-26.327
		c5.184-14.071,9.708-26.575,10.037-27.892c0.248-1.234,0.823-2.47,1.233-2.713c0.412-0.249,0.741-0.989,0.741-1.73
		c0-0.658,0.495-2.387,1.153-3.783c0.574-1.483,3.949-10.611,7.486-20.323c6.993-19.496,9.296-25.915,10.365-28.383
		c0.413-0.904,1.399-3.867,2.387-6.583c4.607-13.739,16.125-44.016,16.619-44.016c0.329,0,1.234,1.153,1.974,2.634
		c3.209,6.252,11.518,13.163,18.595,15.385c4.936,1.645,5.346-0.742-4.278,26.408c-2.388,6.582-4.937,13.987-5.76,16.454
		c-0.822,2.468-2.798,8.229-4.444,12.753c-1.562,4.524-5.347,15.305-8.308,23.859c-3.044,8.639-6.582,19.17-7.981,23.448
		c-1.316,4.278-2.714,8.554-3.126,9.458c-0.411,0.907-2.221,6.503-4.113,12.344c-1.893,5.923-3.702,11.436-4.113,12.34
		c-0.412,0.907-1.317,3.538-1.976,5.762c-0.987,3.372-8.063,23.774-9.791,28.381c-0.246,0.66-2.386,6.993-4.689,13.988
		c-2.386,6.993-4.772,13.572-5.43,14.562c-2.14,3.456-6.17,4.362-18.347,4.362C356.261,313.542,352.559,313.214,350.996,312.391z"/>
	<path fill="#FFFFFF" d="M538.083,312.391c-3.128-1.318-3.951-2.797-6.995-11.933c-1.313-3.863-2.713-7.731-3.123-8.636
		c-0.414-0.904-1.893-4.773-3.21-8.639s-4.362-12.341-6.665-18.924c-2.302-6.582-5.346-15.221-6.664-19.332
		c-1.398-4.031-2.797-8.145-3.208-9.049c-0.411-0.907-1.81-5.186-3.208-9.464c-2.716-8.721-7.158-21.72-8.311-24.271
		c-0.328-0.904-1.479-4.03-2.467-6.991c-0.988-2.964-2.139-6.088-2.552-6.993c-0.411-0.904-1.233-3.293-1.892-5.348
		c-0.657-2.06-3.042-9.051-5.428-15.632c-2.387-6.582-4.773-13.576-5.43-15.633c-0.659-2.057-1.482-4.442-1.893-5.348
		c-0.411-0.904-2.139-5.511-3.784-10.284c-2.55-7.157-6.912-19.498-8.475-23.611c-0.164-0.659,0.412-1.07,1.727-1.07
		c2.635,0,10.121-3.044,13.74-5.677c3.869-2.714,7.898-6.993,10.367-10.942c2.304-3.62,3.126-3.539,4.442,0.822
		c0.495,1.646,1.399,4.361,2.057,5.924c0.576,1.563,4.524,12.34,8.639,23.858c4.196,11.518,7.898,21.72,8.31,22.625
		c0.658,1.646,1.893,4.855,4.854,13.576c0.822,2.468,5.43,14.975,10.203,27.725c4.691,12.753,8.803,24.271,9.132,25.67
		c0.33,1.399,0.904,2.716,1.314,2.962c0.413,0.331,0.741,1.153,0.741,1.893c0.084,0.741,0.743,2.88,1.647,4.688
		c0.904,1.812,1.563,3.704,1.645,4.114c0,0.904,11.023,31.263,12.751,35.378c0.659,1.397,1.4,3.538,1.728,4.854
		c0.329,1.316,1.07,3.371,1.645,4.523c0.66,1.153,1.154,2.634,1.154,3.209s0.328,1.646,0.741,2.469
		c0.411,0.74,2.631,6.663,4.935,12.999c7.405,20.569,6.665,21.722-13.248,21.722C544.5,313.542,539.975,313.214,538.083,312.391z"/>
	<path fill="#FFFFFF" d="M995.025,311.651c-1.643-0.658-3.701-1.647-4.444-2.222c-3.617-3.045-3.537,0.328-3.537-128.593V58.579
		l2.14-1.398c2.634-1.728,12.671-2.55,22.215-1.81c11.516,0.905,10.201-14.15,10.201,115.264v111.725h47.553h47.637l1.646,1.895
		c5.347,5.84,4.029,25.504-1.812,27.725c-1.399,0.495-23.695,0.822-60.304,0.822C1009.835,312.72,997.492,312.474,995.025,311.651z"
		/>
	<path fill="#FFFFFF" d="M1144.021,311.979c-6.662-1.975-8.556-6.911-7.898-20.32c0.496-10.037,0.905-10.944,18.348-37.682
		c2.305-3.621,5.76-8.968,7.65-11.929c1.812-2.962,3.703-5.679,4.034-6.169c0.326-0.415,2.301-3.375,4.358-6.584
		c1.975-3.126,6.006-9.461,8.888-13.988c2.959-4.523,6.663-10.283,8.225-12.751c1.563-2.467,4.279-6.581,5.925-9.051
		c1.645-2.466,5.594-8.554,8.638-13.575c3.126-4.935,6.007-9.379,6.337-9.87c0.327-0.413,2.22-3.209,4.112-6.172
		c1.812-2.962,5.676-8.885,8.473-13.164c2.801-4.277,6.665-10.366,8.722-13.575c1.977-3.127,3.868-6.088,4.277-6.582
		c0.33-0.411,2.552-3.866,4.938-7.568c8.227-12.917,14.069-22.132,18.841-29.372c2.631-4.032,4.772-7.404,4.772-7.569
		c0-0.165-26.657-0.329-59.155-0.329h-59.237l-2.302-1.975c-2.222-1.975-2.304-2.14-2.552-12.176
		c-0.329-10.12-0.244-10.284,1.894-12.835l2.223-2.633h75.195c83.095,0,78.488-0.328,81.78,5.185
		c1.396,2.221,1.645,4.195,1.645,12.176c0,11.436-1.317,15.549-8.557,26.327c-1.396,2.056-5.678,8.639-9.544,14.645
		c-3.867,6.006-9.791,15.22-13.245,20.485c-3.374,5.265-7.733,12.011-9.625,14.974c-1.895,2.962-3.785,5.923-4.28,6.582
		c-0.41,0.659-2.386,3.62-4.194,6.581c-1.895,2.964-5.266,8.063-7.488,11.354c-2.141,3.29-3.947,6.172-3.947,6.418
		c0,0.164-1.236,2.139-2.716,4.277c-1.482,2.141-4.854,7.407-7.571,11.683c-2.631,4.278-5.099,7.98-5.346,8.227
		c-0.246,0.248-2.799,4.114-5.596,8.642c-6.91,10.941-18.757,29.368-19.662,30.521c-0.328,0.412-0.989,1.48-1.48,2.222
		c-1.645,2.716-14.81,23.2-15.386,24.022c-0.411,0.495-2.304,3.456-4.36,6.581l-3.621,5.762l64.339,0.41
		c35.376,0.246,64.419,0.494,64.584,0.658c0.081,0.08,0.987,1.893,1.81,3.948c1.152,2.633,1.645,5.596,1.645,10.285
		c0,7.568-1.645,12.423-4.606,13.822C1300.915,312.966,1147.641,313.132,1144.021,311.979z"/>
	<path fill="#FFFFFF" d="M376.5,135.752c-1.481-1.976-2.963-3.702-3.209-3.95c-1.398-1.234-8.638-13.081-11.436-18.675
		c-12.176-24.519-12.258-52.655-0.247-78.407c4.69-9.955,15.796-26.327,17.853-26.327c0.494,0,3.209,2.386,6.088,5.265
		c5.677,5.759,5.677,5.267,0.906,11.189c-12.918,15.797-19.664,37.763-17.36,56.521c0.987,8.063,3.949,17.935,7.569,25.092
		c2.632,5.266,12.752,20.486,14.15,21.391c0.988,0.576,0,1.646-6.992,7.405c-1.974,1.729-3.867,3.29-4.114,3.538
		C379.461,139.042,377.98,137.726,376.5,135.752z"/>
	<path fill="#FFFFFF" d="M538.66,136.163c-2.058-1.729-4.771-4.113-6.088-5.348l-2.47-2.221l3.705-4.772
		c3.864-4.937,12.256-18.43,12.256-19.663c0-0.412,0.495-1.645,1.072-2.797c6.167-11.847,7.321-34.473,2.549-49.364
		c-1.234-3.866-1.399-4.277-4.525-11.107c-2.22-4.936-9.954-16.783-12.258-18.922c-0.905-0.822-1.645-1.974-1.645-2.55
		c0-1.399,9.461-11.024,10.86-11.024c2.138,0.082,12.257,14.808,17.524,25.669c6.499,13.246,8.967,24.353,9.05,39.738
		c0,16.043-1.809,23.941-8.887,39.079c-2.96,6.335-10.612,18.266-15.549,24.024l-1.891,2.303L538.66,136.163z"/>
	<path fill="#FFFFFF" d="M403.814,109.835c-0.987-1.317-2.139-2.797-2.55-3.374c-1.728-1.974-6.335-11.271-7.817-15.796
		c-1.891-5.594-2.633-21.801-1.316-27.973c2.058-9.625,11.436-27.973,14.316-27.973c0.576,0,3.126,1.729,5.595,3.785
		c7.404,6.253,7.074,5.676,4.689,8.72c-1.151,1.481-3.373,5.513-5.019,8.968c-6.665,14.151-5.348,29.207,3.702,41.63
		c1.728,2.386,3.127,4.442,3.127,4.608c0,0.74-11.272,9.625-12.177,9.625C405.871,112.056,404.719,111.069,403.814,109.835z"/>
	<path fill="#FFFFFF" d="M508.382,107.284c-2.797-2.55-5.101-4.936-5.101-5.183c0-0.247,1.151-1.975,2.551-3.702
		c3.621-4.525,5.677-8.885,7.404-15.55c1.974-7.404,1.974-9.79-0.165-17.935c-1.563-6.417-4.854-13.411-8.227-17.771
		c-0.904-1.07-1.564-2.222-1.564-2.551c0-0.329,2.386-2.715,5.348-5.264c3.619-3.291,5.758-4.608,6.829-4.279
		c2.797,0.905,10.12,14.398,12.998,23.942c2.223,7.24,2.057,24.435-0.329,31.346c-2.632,7.98-8.883,18.84-12.092,21.061
		C514.554,112.551,513.648,112.056,508.382,107.284z"/>
	<path fill="#FFFFFF" d="M452.354,105.475c-29.042-6.088-32.579-45.99-5.099-57.509c3.949-1.645,5.511-1.892,12.753-1.562
		c6.909,0.246,8.966,0.657,12.422,2.467c7.733,4.031,13.082,10.448,15.549,18.922c3.126,10.696,0.246,21.145-8.228,29.784
		C473.582,103.912,461.487,107.368,452.354,105.475z"/>
</g>
</svg>
