<svg width="200" height="160" fill="none" xmlns="http://www.w3.org/2000/svg"><path fill="#fff" d="M0 0h200v160H0z"/><path fill-rule="evenodd" clip-rule="evenodd" d="M196 1H4a3 3 0 00-3 3v152a3 3 0 003 3h192a3 3 0 003-3V4a3 3 0 00-3-3zM4 0h192a4 4 0 014 4v152a4 4 0 01-4 4H4a4 4 0 01-4-4V4a4 4 0 014-4z" fill="#E0E0E0"/><g opacity=".38" fill="#000"><path d="M72.736 76H71.04l-6.442-9.861V76H62.9V63.203h1.697l6.46 9.905v-9.905h1.678V76zM75.048 71.157c0-.931.181-1.77.545-2.513.369-.745.879-1.319 1.53-1.723.655-.404 1.402-.607 2.24-.607 1.295 0 2.341.449 3.138 1.345.803.897 1.204 2.089 1.204 3.577v.115c0 .925-.179 1.757-.536 2.496a4.004 4.004 0 01-1.52 1.714c-.657.41-1.413.615-2.268.615-1.29 0-2.335-.448-3.138-1.345-.797-.896-1.195-2.083-1.195-3.56v-.114zm1.635.194c0 1.054.243 1.901.73 2.54.491.638 1.148.958 1.968.958.826 0 1.482-.323 1.969-.967.486-.65.73-1.559.73-2.725 0-1.043-.25-1.886-.748-2.531-.492-.65-1.148-.976-1.969-.976-.802 0-1.45.32-1.942.958-.492.64-.738 1.553-.738 2.743zM91.976 76H90.35v-9.51h1.626V76zm-1.758-12.032c0-.264.079-.487.237-.668.164-.182.404-.273.72-.273.317 0 .557.091.722.273a.96.96 0 01.246.668.93.93 0 01-.246.659c-.165.176-.405.264-.721.264-.317 0-.557-.088-.72-.264a.949.949 0 01-.238-.66zM96.115 66.49l.044 1.055c.697-.82 1.638-1.23 2.822-1.23 1.33 0 2.235.51 2.715 1.529a3.621 3.621 0 011.231-1.108c.51-.28 1.11-.422 1.802-.422 2.085 0 3.146 1.105 3.181 3.314V76h-1.626v-6.275c0-.68-.155-1.187-.466-1.52-.31-.34-.832-.51-1.564-.51-.604 0-1.105.181-1.503.544-.398.358-.63.841-.694 1.45V76h-1.635v-6.231c0-1.383-.677-2.075-2.03-2.075-1.067 0-1.796.454-2.189 1.363V76h-1.626v-9.51h1.538zM116.242 76c-.094-.188-.17-.522-.228-1.002-.756.785-1.659 1.178-2.707 1.178-.938 0-1.708-.264-2.312-.791-.598-.533-.896-1.207-.896-2.022 0-.99.375-1.757 1.125-2.302.755-.551 1.816-.827 3.181-.827h1.582v-.747c0-.568-.17-1.02-.509-1.353-.34-.34-.841-.51-1.503-.51-.58 0-1.067.147-1.459.44-.393.292-.589.647-.589 1.063h-1.635c0-.475.167-.932.501-1.371.34-.445.797-.797 1.371-1.055a4.643 4.643 0 011.907-.386c1.096 0 1.954.275 2.575.826.622.544.944 1.297.967 2.258v4.377c0 .873.112 1.568.334 2.083V76h-1.705zm-2.698-1.24c.51 0 .993-.131 1.45-.395.457-.263.788-.606.993-1.028v-1.951h-1.274c-1.992 0-2.988.583-2.988 1.749 0 .51.17.908.509 1.195.34.287.777.43 1.31.43zM119.775 71.166c0-1.482.343-2.66 1.029-3.533.685-.88 1.593-1.319 2.724-1.319 1.16 0 2.066.41 2.716 1.23l.079-1.054h1.486v9.282c0 1.23-.367 2.2-1.099 2.909-.727.709-1.705 1.063-2.936 1.063a4.888 4.888 0 01-2.012-.44c-.657-.292-1.158-.694-1.503-1.203l.844-.976c.697.861 1.549 1.292 2.557 1.292.791 0 1.406-.223 1.846-.668.445-.445.668-1.072.668-1.88v-.818c-.651.75-1.538 1.125-2.663 1.125-1.114 0-2.016-.448-2.707-1.345-.686-.896-1.029-2.118-1.029-3.665zm1.635.185c0 1.072.22 1.916.659 2.53.44.61 1.055.915 1.846.915 1.025 0 1.778-.466 2.259-1.398v-4.341c-.498-.909-1.245-1.363-2.241-1.363-.791 0-1.41.308-1.855.923-.445.615-.668 1.527-.668 2.734zM134.216 76.176c-1.289 0-2.338-.422-3.147-1.266-.808-.85-1.213-1.983-1.213-3.401v-.299c0-.943.179-1.784.537-2.522.363-.745.867-1.325 1.511-1.74a3.806 3.806 0 012.11-.633c1.236 0 2.197.407 2.882 1.221.686.815 1.029 1.98 1.029 3.498v.677h-6.443c.024.937.296 1.696.818 2.276.527.575 1.195.862 2.004.862.574 0 1.06-.118 1.459-.352a3.675 3.675 0 001.046-.932l.993.774c-.797 1.225-1.992 1.837-3.586 1.837zm-.202-8.526c-.657 0-1.207.24-1.653.721-.445.475-.72 1.143-.826 2.004h4.764v-.123c-.047-.826-.27-1.465-.668-1.916-.399-.457-.938-.686-1.617-.686zM78.45 92.35c0 1.448-.332 2.614-.994 3.499-.662.884-1.559 1.327-2.69 1.327-1.154 0-2.062-.366-2.724-1.099v4.579h-1.626V87.49h1.485l.08 1.055c.662-.82 1.582-1.23 2.76-1.23 1.142 0 2.044.43 2.706 1.291.668.862 1.002 2.06 1.002 3.595v.15zm-1.627-.184c0-1.072-.228-1.919-.685-2.54-.457-.621-1.084-.932-1.881-.932-.985 0-1.723.437-2.215 1.31v4.544c.486.867 1.23 1.3 2.232 1.3.78 0 1.398-.307 1.855-.922.463-.621.694-1.541.694-2.76zM85.12 88.95a4.874 4.874 0 00-.8-.062c-1.066 0-1.79.454-2.17 1.362V97h-1.627v-9.51h1.583l.026 1.099c.533-.85 1.289-1.275 2.267-1.275.317 0 .557.042.721.124v1.511zM90.394 97.176c-1.29 0-2.338-.422-3.147-1.266-.808-.85-1.213-1.983-1.213-3.401v-.299c0-.943.179-1.784.536-2.522.364-.745.868-1.325 1.512-1.74a3.803 3.803 0 012.11-.633c1.236 0 2.197.407 2.882 1.221.686.815 1.029 1.98 1.029 3.498v.677H87.66c.024.937.296 1.696.818 2.276.527.575 1.195.862 2.003.862.575 0 1.061-.118 1.46-.352a3.666 3.666 0 001.045-.932l.993.774c-.796 1.225-1.992 1.837-3.585 1.837zm-.203-8.526c-.656 0-1.207.24-1.652.721-.445.475-.72 1.143-.826 2.004h4.764v-.123c-.047-.826-.27-1.465-.668-1.916-.399-.457-.938-.686-1.618-.686zM99.007 94.794l2.355-7.304h1.661L99.613 97h-1.239l-3.445-9.51h1.66l2.418 7.304zM106.354 97h-1.625v-9.51h1.625V97zm-1.757-12.032c0-.264.079-.487.237-.668.164-.182.404-.273.721-.273.316 0 .556.091.72.273a.96.96 0 01.246.668.93.93 0 01-.246.659c-.164.176-.404.264-.72.264-.317 0-.557-.088-.721-.264a.95.95 0 01-.237-.66zM112.911 97.176c-1.289 0-2.338-.422-3.146-1.266-.809-.85-1.213-1.983-1.213-3.401v-.299c0-.943.178-1.784.536-2.522.363-.745.867-1.325 1.512-1.74a3.8 3.8 0 012.109-.633c1.236 0 2.197.407 2.883 1.221.685.815 1.028 1.98 1.028 3.498v.677h-6.442c.023.937.296 1.696.817 2.276.527.575 1.195.862 2.004.862.574 0 1.061-.118 1.459-.352a3.675 3.675 0 001.046-.932l.993.774c-.797 1.225-1.992 1.837-3.586 1.837zm-.202-8.526c-.656 0-1.207.24-1.652.721-.446.475-.721 1.143-.827 2.004h4.764v-.123c-.047-.826-.269-1.465-.668-1.916-.398-.457-.937-.686-1.617-.686zM126.93 94.759l1.828-7.269h1.626L127.615 97h-1.318l-2.312-7.207-2.25 7.207h-1.318l-2.76-9.51h1.617l1.872 7.12 2.215-7.12h1.31l2.259 7.269z"/></g></svg>