<?xml version="1.0" encoding="UTF-8"?>
<svg width="64" height="113" fill="none" version="1.1" viewBox="0 0 64 113" xmlns="http://www.w3.org/2000/svg">
 <path d="m25.028 0c-1.6651 0-3.1561 1.0316-3.7432 2.5898l-0.309 0.82038c-0.5871 1.5582-2.078 2.5898-3.7432 2.5898h-7.2325c-5.5228 0-10 4.4772-10 10v87c0 5.523 4.4772 10 10 10h44c5.5228 0 10-4.477 10-10v-87c0-5.5228-4.4772-10-10-10h-7.3597c-1.6015 0-3.0486-0.9552-3.6781-2.4278l-0.4892-1.1444c-0.6294-1.4726-2.0765-2.4278-3.678-2.4278zm-15.028 8h44c4.4183 0 8 3.5817 8 8v87c0 4.418-3.5817 8-8 8h-44c-4.4183 0-8-3.582-8-8v-87c0-4.4183 3.5817-8 8-8z" clip-rule="evenodd" fill="#000" fill-rule="evenodd"/>
</svg>
