<?xml version="1.0" encoding="UTF-8"?>
<svg width="113" height="64" fill="none" version="1.1" viewBox="0 0 113 64" xmlns="http://www.w3.org/2000/svg">
 <path d="m113 25.028c0-1.6651-1.0316-3.1561-2.5898-3.7432l-0.82038-0.309c-1.5582-0.5871-2.5898-2.078-2.5898-3.7432v-7.2325c0-5.5228-4.4772-10-10-10h-87c-5.523 0-10 4.4772-10 10v44c0 5.5228 4.477 10 10 10h87c5.5228 0 10-4.4772 10-10v-7.3597c0-1.6015 0.9552-3.0486 2.4278-3.6781l1.1444-0.4892c1.4726-0.6294 2.4278-2.0765 2.4278-3.678zm-8-15.028v44c0 4.4183-3.5817 8-8 8h-87c-4.418 0-8-3.5817-8-8v-44c0-4.4183 3.582-8 8-8h87c4.4183 0 8 3.5817 8 8z" clip-rule="evenodd" fill="#000" fill-rule="evenodd"/>
</svg>
