<svg width="127" height="127" viewBox="0 0 127 127" fill="none" xmlns="http://www.w3.org/2000/svg">
<g filter="url(#filter0_d_2675_142332)">
<rect x="5.5" y="3" width="116" height="116" rx="2.35533" fill="white" shape-rendering="crispEdges"/>
<g filter="url(#filter1_b_2675_142332)">
<rect x="12.5659" y="10.0659" width="101.868" height="101.868" rx="2.35533" fill="white" fill-opacity="0.76"/>
</g>
<path d="M22.8247 21.7496H21.118L21.1088 20.9078H22.5992C22.8507 20.9078 23.0639 20.871 23.2387 20.7974C23.4166 20.7207 23.5515 20.6118 23.6435 20.4708C23.7355 20.3266 23.7815 20.1534 23.7815 19.9509C23.7815 19.7271 23.7386 19.5446 23.6527 19.4035C23.5668 19.2624 23.435 19.1597 23.2571 19.0953C23.0823 19.0309 22.8584 18.9987 22.5854 18.9987H21.4676V24.7766H20.3129V18.0786H22.5854C22.9535 18.0786 23.2816 18.1139 23.5699 18.1844C23.8612 18.255 24.1081 18.3654 24.3105 18.5157C24.516 18.6629 24.6709 18.85 24.7752 19.0769C24.8825 19.3038 24.9362 19.5737 24.9362 19.8865C24.9362 20.1626 24.8702 20.4156 24.7384 20.6456C24.6065 20.8725 24.4117 21.0581 24.1541 21.2022C23.8965 21.3464 23.576 21.4322 23.1927 21.4598L22.8247 21.7496ZM22.7741 24.7766H20.7545L21.2744 23.8612H22.7741C23.0347 23.8612 23.2525 23.8182 23.4273 23.7324C23.6021 23.6434 23.7324 23.5223 23.8183 23.3689C23.9072 23.2125 23.9517 23.03 23.9517 22.8215C23.9517 22.6038 23.9134 22.4151 23.8367 22.2557C23.76 22.0931 23.6389 21.9689 23.4733 21.8831C23.3077 21.7941 23.0915 21.7496 22.8247 21.7496H21.5274L21.5366 20.9078H23.2249L23.4871 21.2252C23.8551 21.2375 24.1572 21.3188 24.3933 21.469C24.6326 21.6193 24.8104 21.814 24.927 22.0533C25.0435 22.2925 25.1018 22.5501 25.1018 22.8261C25.1018 23.2524 25.0082 23.6097 24.8212 23.898C24.6372 24.1862 24.3719 24.4055 24.0253 24.5558C23.6788 24.703 23.2617 24.7766 22.7741 24.7766ZM29.1086 23.7784V21.4046C29.1086 21.2267 29.0764 21.0734 29.012 20.9446C28.9476 20.8158 28.8495 20.7161 28.7176 20.6456C28.5888 20.575 28.4262 20.5398 28.23 20.5398C28.049 20.5398 27.8926 20.5704 27.7607 20.6318C27.6289 20.6931 27.5261 20.7759 27.4525 20.8802C27.3789 20.9845 27.3421 21.1025 27.3421 21.2344H26.238C26.238 21.0381 26.2856 20.848 26.3807 20.664C26.4757 20.48 26.6137 20.3159 26.7947 20.1718C26.9756 20.0276 27.1918 19.9141 27.4433 19.8313C27.6948 19.7485 27.9769 19.7071 28.2898 19.7071C28.6639 19.7071 28.9951 19.77 29.2834 19.8957C29.5748 20.0215 29.8032 20.2116 29.9689 20.4662C30.1375 20.7177 30.2219 21.0335 30.2219 21.4138V23.6265C30.2219 23.8535 30.2372 24.0574 30.2679 24.2384C30.3016 24.4163 30.3491 24.5711 30.4105 24.703V24.7766H29.2742C29.2221 24.657 29.1807 24.5052 29.15 24.3212C29.1224 24.1341 29.1086 23.9532 29.1086 23.7784ZM29.2696 21.7496L29.2788 22.4351H28.483C28.2775 22.4351 28.0965 22.455 27.9401 22.4949C27.7837 22.5317 27.6534 22.5869 27.5491 22.6605C27.4448 22.7341 27.3666 22.823 27.3145 22.9273C27.2624 23.0316 27.2363 23.1497 27.2363 23.2815C27.2363 23.4134 27.267 23.5345 27.3283 23.6449C27.3896 23.7523 27.4786 23.8366 27.5951 23.898C27.7147 23.9593 27.8589 23.99 28.0275 23.99C28.2545 23.99 28.4523 23.944 28.621 23.852C28.7927 23.7569 28.9277 23.6419 29.0258 23.5069C29.1239 23.3689 29.1761 23.2386 29.1822 23.1159L29.541 23.6081C29.5042 23.7339 29.4414 23.8688 29.3524 24.013C29.2635 24.1571 29.1469 24.2951 29.0028 24.427C28.8617 24.5558 28.6915 24.6616 28.4922 24.7444C28.2959 24.8272 28.0689 24.8686 27.8113 24.8686C27.4862 24.8686 27.1964 24.8042 26.9419 24.6754C26.6873 24.5435 26.488 24.3672 26.3439 24.1464C26.1997 23.9225 26.1276 23.6695 26.1276 23.3873C26.1276 23.1236 26.1767 22.8905 26.2748 22.6881C26.3761 22.4826 26.5233 22.3109 26.7165 22.1729C26.9127 22.0349 27.152 21.9306 27.4341 21.8601C27.7163 21.7864 28.0383 21.7496 28.4002 21.7496H29.2696ZM33.8101 19.7991V20.6088H31.0039V19.7991H33.8101ZM31.8136 18.5801H32.9222V23.4011C32.9222 23.5545 32.9437 23.6726 32.9866 23.7554C33.0326 23.8351 33.0955 23.8888 33.1752 23.9164C33.255 23.944 33.3485 23.9578 33.4558 23.9578C33.5325 23.9578 33.6061 23.9532 33.6767 23.944C33.7472 23.9348 33.8039 23.9256 33.8469 23.9164L33.8515 24.7628C33.7595 24.7904 33.6521 24.8149 33.5294 24.8364C33.4098 24.8579 33.2718 24.8686 33.1154 24.8686C32.8609 24.8686 32.6355 24.8241 32.4392 24.7352C32.2429 24.6432 32.0896 24.4945 31.9792 24.289C31.8688 24.0835 31.8136 23.8106 31.8136 23.4701V18.5801ZM37.0946 19.7991V20.6088H34.2885V19.7991H37.0946ZM35.0981 18.5801H36.2068V23.4011C36.2068 23.5545 36.2283 23.6726 36.2712 23.7554C36.3172 23.8351 36.3801 23.8888 36.4598 23.9164C36.5395 23.944 36.6331 23.9578 36.7404 23.9578C36.8171 23.9578 36.8907 23.9532 36.9612 23.944C37.0318 23.9348 37.0885 23.9256 37.1314 23.9164L37.136 24.7628C37.044 24.7904 36.9367 24.8149 36.814 24.8364C36.6944 24.8579 36.5564 24.8686 36.4 24.8686C36.1455 24.8686 35.92 24.8241 35.7238 24.7352C35.5275 24.6432 35.3741 24.4945 35.2637 24.289C35.1533 24.0835 35.0981 23.8106 35.0981 23.4701V18.5801ZM40.2918 24.8686C39.9238 24.8686 39.591 24.8088 39.2936 24.6892C38.9992 24.5665 38.7477 24.3963 38.5391 24.1786C38.3336 23.9608 38.1757 23.7048 38.0653 23.4103C37.9549 23.1159 37.8997 22.7985 37.8997 22.4581V22.2741C37.8997 21.8846 37.9564 21.5319 38.0699 21.216C38.1834 20.9001 38.3413 20.6302 38.5437 20.4064C38.7461 20.1794 38.9853 20.0061 39.2614 19.8865C39.5374 19.7669 39.8364 19.7071 40.1584 19.7071C40.5142 19.7071 40.8255 19.7669 41.0923 19.8865C41.3591 20.0061 41.5799 20.1748 41.7547 20.3926C41.9326 20.6072 42.0645 20.8633 42.1503 21.1608C42.2393 21.4583 42.2837 21.7864 42.2837 22.1453V22.6191H38.4379V21.8232H41.1889V21.7358C41.1827 21.5365 41.1429 21.3494 41.0693 21.1746C40.9987 20.9998 40.8899 20.8587 40.7426 20.7514C40.5954 20.644 40.3992 20.5904 40.1538 20.5904C39.9698 20.5904 39.8057 20.6302 39.6616 20.71C39.5205 20.7867 39.4024 20.8986 39.3074 21.0458C39.2123 21.193 39.1387 21.3709 39.0866 21.5794C39.0375 21.7849 39.013 22.0165 39.013 22.2741V22.4581C39.013 22.6758 39.0421 22.8782 39.1004 23.0653C39.1617 23.2493 39.2506 23.4103 39.3672 23.5483C39.4837 23.6864 39.6248 23.7952 39.7904 23.875C39.956 23.9516 40.1446 23.99 40.3562 23.99C40.623 23.99 40.8607 23.9363 41.0693 23.829C41.2778 23.7216 41.4588 23.5698 41.6121 23.3735L42.1963 23.9394C42.089 24.0958 41.9494 24.246 41.7777 24.3902C41.606 24.5313 41.3959 24.6463 41.1475 24.7352C40.9021 24.8241 40.6169 24.8686 40.2918 24.8686ZM44.409 20.7468V24.7766H43.3004V19.7991H44.3584L44.409 20.7468ZM45.9317 19.7669L45.9225 20.7974C45.8551 20.7851 45.7815 20.7759 45.7017 20.7698C45.625 20.7637 45.5484 20.7606 45.4717 20.7606C45.2816 20.7606 45.1144 20.7882 44.9703 20.8434C44.8261 20.8955 44.705 20.9722 44.6069 21.0734C44.5118 21.1715 44.4382 21.2912 44.386 21.4322C44.3339 21.5733 44.3032 21.7312 44.294 21.9061L44.041 21.9245C44.041 21.6116 44.0717 21.3218 44.133 21.055C44.1944 20.7882 44.2864 20.5536 44.409 20.3512C44.5348 20.1488 44.6912 19.9908 44.8783 19.8773C45.0684 19.7639 45.2877 19.7071 45.5361 19.7071C45.6036 19.7071 45.6757 19.7133 45.7523 19.7255C45.8321 19.7378 45.8919 19.7516 45.9317 19.7669ZM48.3009 24.2338L49.6533 19.7991H50.8402L48.8437 25.5357C48.7977 25.6583 48.7379 25.7917 48.6643 25.9359C48.5907 26.08 48.4941 26.2165 48.3745 26.3453C48.2579 26.4772 48.1123 26.583 47.9374 26.6627C47.7626 26.7455 47.551 26.7869 47.3026 26.7869C47.2045 26.7869 47.1094 26.7777 47.0174 26.7593C46.9285 26.744 46.8441 26.7271 46.7644 26.7087L46.7598 25.8623C46.7904 25.8653 46.8272 25.8684 46.8702 25.8715C46.9162 25.8745 46.953 25.8761 46.9806 25.8761C47.1646 25.8761 47.3179 25.8531 47.4406 25.8071C47.5633 25.7641 47.663 25.6936 47.7396 25.5955C47.8194 25.4973 47.8868 25.3654 47.942 25.1998L48.3009 24.2338ZM47.5372 19.7991L48.7195 23.5253L48.9173 24.6938L48.1491 24.8916L46.3412 19.7991H47.5372Z" fill="black" fill-opacity="0.87"/>
<g filter="url(#filter2_b_2675_142332)">
<path d="M53.3279 45.9337V54.335H51.942V47.5783L49.8892 48.2741V47.1298L53.1611 45.9337H53.3279ZM61.7535 49.4472V50.8158C61.7535 51.4713 61.6883 52.031 61.5579 52.4949C61.4314 52.9549 61.2474 53.3287 61.0059 53.6162C60.7644 53.9037 60.475 54.1145 60.1376 54.2487C59.8041 54.3829 59.4303 54.45 59.0163 54.45C58.6866 54.45 58.3799 54.4078 58.0963 54.3235C57.8164 54.2391 57.5634 54.1069 57.3372 53.9267C57.111 53.7465 56.9174 53.5146 56.7564 53.2309C56.5993 52.9434 56.4766 52.6003 56.3884 52.2016C56.3041 51.8029 56.2619 51.341 56.2619 50.8158V49.4472C56.2619 48.7878 56.3271 48.232 56.4574 47.7796C56.5878 47.3234 56.7737 46.9535 57.0152 46.6698C57.2567 46.3823 57.5442 46.1733 57.8777 46.043C58.2151 45.9127 58.5908 45.8475 59.0048 45.8475C59.3383 45.8475 59.645 45.8897 59.9249 45.974C60.2085 46.0545 60.4616 46.1829 60.6839 46.3593C60.9101 46.5356 61.1018 46.7656 61.2589 47.0493C61.4199 47.3292 61.5426 47.6684 61.627 48.0671C61.7113 48.462 61.7535 48.922 61.7535 49.4472ZM60.3676 51.0113V49.2402C60.3676 48.9067 60.3485 48.6134 60.3101 48.3604C60.2718 48.1035 60.2143 47.8869 60.1376 47.7106C60.0648 47.5304 59.9728 47.3847 59.8616 47.2736C59.7504 47.1586 59.6239 47.0761 59.4821 47.0263C59.3402 46.9726 59.1812 46.9458 59.0048 46.9458C58.7901 46.9458 58.5985 46.988 58.4298 47.0723C58.2611 47.1528 58.1193 47.2832 58.0043 47.4633C57.8892 47.6435 57.8011 47.8812 57.7397 48.1764C57.6822 48.4677 57.6535 48.8223 57.6535 49.2402V51.0113C57.6535 51.3486 57.6727 51.6457 57.711 51.9026C57.7493 52.1594 57.8068 52.3799 57.8835 52.5639C57.9602 52.744 58.0522 52.8935 58.1595 53.0124C58.2707 53.1274 58.3972 53.2117 58.539 53.2654C58.6847 53.3191 58.8438 53.3459 59.0163 53.3459C59.2348 53.3459 59.4284 53.3037 59.5971 53.2194C59.7658 53.1351 59.9076 53.0009 60.0226 52.8169C60.1376 52.629 60.2239 52.3856 60.2814 52.0866C60.3389 51.7876 60.3676 51.4291 60.3676 51.0113ZM68.5057 49.4472V50.8158C68.5057 51.4713 68.4405 52.031 68.3102 52.4949C68.1837 52.9549 67.9997 53.3287 67.7582 53.6162C67.5167 53.9037 67.2272 54.1145 66.8899 54.2487C66.5564 54.3829 66.1826 54.45 65.7686 54.45C65.4389 54.45 65.1322 54.4078 64.8485 54.3235C64.5687 54.2391 64.3156 54.1069 64.0895 53.9267C63.8633 53.7465 63.6697 53.5146 63.5087 53.2309C63.3515 52.9434 63.2288 52.6003 63.1407 52.2016C63.0563 51.8029 63.0142 51.341 63.0142 50.8158V49.4472C63.0142 48.7878 63.0793 48.232 63.2097 47.7796C63.34 47.3234 63.5259 46.9535 63.7674 46.6698C64.009 46.3823 64.2965 46.1733 64.63 46.043C64.9673 45.9127 65.343 45.8475 65.7571 45.8475C66.0906 45.8475 66.3973 45.8897 66.6771 45.974C66.9608 46.0545 67.2138 46.1829 67.4362 46.3593C67.6623 46.5356 67.854 46.7656 68.0112 47.0493C68.1722 47.3292 68.2949 47.6684 68.3792 48.0671C68.4635 48.462 68.5057 48.922 68.5057 49.4472ZM67.1199 51.0113V49.2402C67.1199 48.9067 67.1007 48.6134 67.0624 48.3604C67.024 48.1035 66.9665 47.8869 66.8899 47.7106C66.817 47.5304 66.725 47.3847 66.6139 47.2736C66.5027 47.1586 66.3762 47.0761 66.2343 47.0263C66.0925 46.9726 65.9334 46.9458 65.7571 46.9458C65.5424 46.9458 65.3507 46.988 65.182 47.0723C65.0134 47.1528 64.8715 47.2832 64.7565 47.4633C64.6415 47.6435 64.5533 47.8812 64.492 48.1764C64.4345 48.4677 64.4057 48.8223 64.4057 49.2402V51.0113C64.4057 51.3486 64.4249 51.6457 64.4632 51.9026C64.5016 52.1594 64.5591 52.3799 64.6357 52.5639C64.7124 52.744 64.8044 52.8935 64.9118 53.0124C65.0229 53.1274 65.1494 53.2117 65.2913 53.2654C65.437 53.3191 65.5961 53.3459 65.7686 53.3459C65.9871 53.3459 66.1807 53.3037 66.3493 53.2194C66.518 53.1351 66.6599 53.0009 66.7749 52.8169C66.8899 52.629 66.9761 52.3856 67.0336 52.0866C67.0911 51.7876 67.1199 51.4291 67.1199 51.0113Z" fill="black" fill-opacity="0.87"/>
<path d="M71.4914 49.9112V49.6013C71.4914 49.3786 71.5397 49.176 71.6363 48.9935C71.7329 48.811 71.8738 48.6648 72.0589 48.5547C72.2441 48.4447 72.4668 48.3897 72.7271 48.3897C72.9955 48.3897 73.2209 48.4447 73.4034 48.5547C73.5885 48.6648 73.7294 48.811 73.826 48.9935C73.9226 49.176 73.9709 49.3786 73.9709 49.6013V49.9112C73.9709 50.1286 73.9226 50.3285 73.826 50.511C73.7321 50.6935 73.5926 50.8397 73.4074 50.9497C73.2249 51.0598 73.0008 51.1148 72.7352 51.1148C72.4722 51.1148 72.2468 51.0598 72.0589 50.9497C71.8738 50.8397 71.7329 50.6935 71.6363 50.511C71.5397 50.3285 71.4914 50.1286 71.4914 49.9112ZM72.1636 49.6013V49.9112C72.1636 50.0186 72.1837 50.1206 72.224 50.2172C72.2669 50.3138 72.3313 50.3916 72.4172 50.4506C72.5031 50.5097 72.6091 50.5392 72.7352 50.5392C72.864 50.5392 72.9686 50.5097 73.0492 50.4506C73.1323 50.3916 73.1941 50.3138 73.2343 50.2172C73.2746 50.1206 73.2947 50.0186 73.2947 49.9112V49.6013C73.2947 49.4913 73.2732 49.388 73.2303 49.2914C73.19 49.1921 73.1283 49.1129 73.0451 49.0539C72.9619 48.9948 72.8559 48.9653 72.7271 48.9653C72.6037 48.9653 72.499 48.9948 72.4132 49.0539C72.33 49.1129 72.2669 49.1921 72.224 49.2914C72.1837 49.388 72.1636 49.4913 72.1636 49.6013ZM74.3171 53.2119V52.898C74.3171 52.6779 74.3654 52.4766 74.462 52.2942C74.5613 52.1117 74.7035 51.9654 74.8887 51.8554C75.0738 51.7454 75.2966 51.6904 75.5569 51.6904C75.8252 51.6904 76.0506 51.7454 76.2331 51.8554C76.4183 51.9654 76.5578 52.1117 76.6517 52.2942C76.7483 52.4766 76.7966 52.6779 76.7966 52.898V53.2119C76.7966 53.432 76.7483 53.6332 76.6517 53.8157C76.5578 53.9982 76.4196 54.1444 76.2371 54.2545C76.0546 54.3645 75.8319 54.4195 75.5689 54.4195C75.3033 54.4195 75.0765 54.3645 74.8887 54.2545C74.7035 54.1444 74.5613 53.9982 74.462 53.8157C74.3654 53.6332 74.3171 53.432 74.3171 53.2119ZM74.9933 52.898V53.2119C74.9933 53.3193 75.0148 53.4212 75.0577 53.5178C75.1034 53.6144 75.1691 53.6936 75.255 53.7553C75.3408 53.8144 75.4442 53.8439 75.5649 53.8439C75.7018 53.8439 75.8118 53.8144 75.895 53.7553C75.9782 53.6936 76.0372 53.6158 76.0721 53.5219C76.1097 53.4253 76.1284 53.3219 76.1284 53.2119V52.898C76.1284 52.7879 76.107 52.6846 76.064 52.588C76.0238 52.4914 75.9607 52.4136 75.8749 52.3546C75.7917 52.2955 75.6857 52.266 75.5569 52.266C75.4307 52.266 75.3261 52.2955 75.2429 52.3546C75.1597 52.4136 75.0966 52.4914 75.0537 52.588C75.0135 52.6846 74.9933 52.7879 74.9933 52.898ZM75.7984 49.3115L72.9364 53.8922L72.4413 53.6064L75.3033 49.0257L75.7984 49.3115Z" fill="black" fill-opacity="0.87"/>
</g>
<mask id="mask0_2675_142332" style="mask-type:alpha" maskUnits="userSpaceOnUse" x="32" y="67" width="59" height="34">
<path d="M87.3479 67.7566C89.2991 67.7566 90.8809 69.3384 90.8809 71.2896L90.8809 97.1982C90.8809 99.1494 89.2991 100.731 87.3479 100.731L36.1194 100.731C34.1682 100.731 32.5864 99.1494 32.5864 97.1982L32.5864 71.2896C32.5864 69.3384 34.1682 67.7566 36.1194 67.7566L87.3479 67.7566Z" fill="#5469FF"/>
</mask>
<g mask="url(#mask0_2675_142332)">
<path d="M90.8809 68.051L90.8809 101.026L32.5864 101.026L32.5864 68.051L90.8809 68.051Z" fill="#5CDF90"/>
</g>
<path fill-rule="evenodd" clip-rule="evenodd" d="M96.769 80.1384C96.769 79.1579 96.1616 78.2799 95.2441 77.9343C94.2732 77.5685 93.236 78.286 93.236 79.3236L93.236 89.0222C93.236 90.1056 94.3433 90.8365 95.3395 90.4106C96.2066 90.04 96.769 89.1879 96.769 88.2449L96.769 80.1384ZM87.3477 66.5788C89.9494 66.5788 92.0584 68.6878 92.0584 71.2894L92.0584 97.1981C92.0584 99.7997 89.9493 101.909 87.3477 101.909L36.1193 101.909C33.5177 101.909 31.4086 99.7997 31.4086 97.1981L31.4086 71.2894C31.4086 68.6878 33.5177 66.5788 36.1193 66.5788L87.3477 66.5788ZM87.3477 65.4011C90.5998 65.4011 93.236 68.0374 93.236 71.2894L93.236 97.1981C93.236 100.45 90.5998 103.086 87.3477 103.086L36.1193 103.086C32.8673 103.086 30.231 100.45 30.231 97.1981L30.231 71.2894C30.231 68.0374 32.8673 65.4011 36.1193 65.4011L87.3477 65.4011Z" fill="#5CDF90" fill-opacity="0.32"/>
</g>
<defs>
<filter id="filter0_d_2675_142332" x="0.78934" y="0.64467" width="125.421" height="125.421" filterUnits="userSpaceOnUse" color-interpolation-filters="sRGB">
<feFlood flood-opacity="0" result="BackgroundImageFix"/>
<feColorMatrix in="SourceAlpha" type="matrix" values="0 0 0 0 0 0 0 0 0 0 0 0 0 0 0 0 0 0 127 0" result="hardAlpha"/>
<feOffset dy="2.35533"/>
<feGaussianBlur stdDeviation="2.35533"/>
<feComposite in2="hardAlpha" operator="out"/>
<feColorMatrix type="matrix" values="0 0 0 0 0 0 0 0 0 0 0 0 0 0 0 0 0 0 0.04 0"/>
<feBlend mode="normal" in2="BackgroundImageFix" result="effect1_dropShadow_2675_142332"/>
<feBlend mode="normal" in="SourceGraphic" in2="effect1_dropShadow_2675_142332" result="shape"/>
</filter>
<filter id="filter1_b_2675_142332" x="9.03292" y="6.53292" width="108.934" height="108.934" filterUnits="userSpaceOnUse" color-interpolation-filters="sRGB">
<feFlood flood-opacity="0" result="BackgroundImageFix"/>
<feGaussianBlur in="BackgroundImageFix" stdDeviation="1.7665"/>
<feComposite in2="SourceAlpha" operator="in" result="effect1_backgroundBlur_2675_142332"/>
<feBlend mode="normal" in="SourceGraphic" in2="effect1_backgroundBlur_2675_142332" result="shape"/>
</filter>
<filter id="filter2_b_2675_142332" x="41.8454" y="37.4467" width="43.3096" height="26.7767" filterUnits="userSpaceOnUse" color-interpolation-filters="sRGB">
<feFlood flood-opacity="0" result="BackgroundImageFix"/>
<feGaussianBlur in="BackgroundImageFix" stdDeviation="1.7665"/>
<feComposite in2="SourceAlpha" operator="in" result="effect1_backgroundBlur_2675_142332"/>
<feBlend mode="normal" in="SourceGraphic" in2="effect1_backgroundBlur_2675_142332" result="shape"/>
</filter>
</defs>
</svg>
