<svg width="127" height="127" viewBox="0 0 127 127" fill="none" xmlns="http://www.w3.org/2000/svg">
<g filter="url(#filter0_d_2675_142395)">
<rect x="5.5" y="3" width="116" height="116" rx="2.35533" fill="white" shape-rendering="crispEdges"/>
<g filter="url(#filter1_b_2675_142395)">
<rect x="12.5659" y="10.0659" width="101.868" height="101.868" rx="2.35533" fill="white" fill-opacity="0.76"/>
</g>
<path d="M22.8244 21.3156H21.1177L21.1085 20.4737H22.599C22.8505 20.4737 23.0636 20.4369 23.2384 20.3633C23.4163 20.2866 23.5513 20.1778 23.6433 20.0367C23.7353 19.8926 23.7813 19.7193 23.7813 19.5169C23.7813 19.293 23.7383 19.1105 23.6525 18.9694C23.5666 18.8284 23.4347 18.7256 23.2568 18.6612C23.082 18.5968 22.8581 18.5646 22.5852 18.5646H21.4673V24.3425H20.3127V17.6446H22.5852C22.9532 17.6446 23.2814 17.6798 23.5697 17.7504C23.861 17.8209 24.1079 17.9313 24.3103 18.0816C24.5158 18.2288 24.6706 18.4159 24.7749 18.6428C24.8823 18.8698 24.9359 19.1396 24.9359 19.4525C24.9359 19.7285 24.87 19.9815 24.7381 20.2115C24.6062 20.4384 24.4115 20.624 24.1539 20.7681C23.8963 20.9123 23.5758 20.9981 23.1924 21.0257L22.8244 21.3156ZM22.7738 24.3425H20.7543L21.2741 23.4271H22.7738C23.0345 23.4271 23.2522 23.3841 23.427 23.2983C23.6019 23.2093 23.7322 23.0882 23.8181 22.9349C23.907 22.7784 23.9515 22.596 23.9515 22.3874C23.9515 22.1697 23.9131 21.9811 23.8365 21.8216C23.7598 21.659 23.6387 21.5348 23.473 21.449C23.3074 21.36 23.0912 21.3156 22.8244 21.3156H21.5271L21.5363 20.4737H23.2246L23.4868 20.7911C23.8549 20.8034 24.157 20.8847 24.3931 21.0349C24.6323 21.1852 24.8102 21.38 24.9267 21.6192C25.0433 21.8584 25.1015 22.116 25.1015 22.392C25.1015 22.8183 25.008 23.1756 24.8209 23.4639C24.6369 23.7522 24.3716 23.9714 24.0251 24.1217C23.6785 24.2689 23.2614 24.3425 22.7738 24.3425ZM29.1084 23.3443V20.9705C29.1084 20.7927 29.0762 20.6393 29.0118 20.5105C28.9474 20.3817 28.8492 20.282 28.7173 20.2115C28.5885 20.141 28.426 20.1057 28.2297 20.1057C28.0488 20.1057 27.8924 20.1364 27.7605 20.1977C27.6286 20.259 27.5259 20.3418 27.4523 20.4461C27.3787 20.5504 27.3419 20.6685 27.3419 20.8003H26.2378C26.2378 20.6041 26.2853 20.4139 26.3804 20.2299C26.4755 20.0459 26.6135 19.8818 26.7944 19.7377C26.9754 19.5935 27.1916 19.4801 27.4431 19.3973C27.6945 19.3145 27.9767 19.273 28.2895 19.273C28.6637 19.273 28.9949 19.3359 29.2832 19.4617C29.5745 19.5874 29.803 19.7775 29.9686 20.0321C30.1373 20.2836 30.2216 20.5995 30.2216 20.9797V23.1925C30.2216 23.4194 30.237 23.6234 30.2676 23.8043C30.3014 23.9822 30.3489 24.1371 30.4102 24.2689V24.3425H29.274C29.2218 24.2229 29.1804 24.0711 29.1498 23.8871C29.1222 23.7 29.1084 23.5191 29.1084 23.3443ZM29.2694 21.3156L29.2786 22.001H28.4827C28.2772 22.001 28.0963 22.0209 27.9399 22.0608C27.7835 22.0976 27.6531 22.1528 27.5489 22.2264C27.4446 22.3 27.3664 22.389 27.3143 22.4932C27.2621 22.5975 27.2361 22.7156 27.2361 22.8474C27.2361 22.9793 27.2667 23.1005 27.3281 23.2109C27.3894 23.3182 27.4783 23.4025 27.5949 23.4639C27.7145 23.5252 27.8586 23.5559 28.0273 23.5559C28.2542 23.5559 28.4521 23.5099 28.6207 23.4179C28.7925 23.3228 28.9274 23.2078 29.0256 23.0729C29.1237 22.9349 29.1758 22.8045 29.182 22.6818L29.5408 23.1741C29.504 23.2998 29.4411 23.4347 29.3522 23.5789C29.2632 23.723 29.1467 23.861 29.0026 23.9929C28.8615 24.1217 28.6913 24.2275 28.4919 24.3103C28.2956 24.3931 28.0687 24.4345 27.8111 24.4345C27.486 24.4345 27.1962 24.3701 26.9416 24.2413C26.6871 24.1094 26.4877 23.9331 26.3436 23.7123C26.1995 23.4884 26.1274 23.2354 26.1274 22.9533C26.1274 22.6895 26.1765 22.4564 26.2746 22.254C26.3758 22.0485 26.523 21.8768 26.7162 21.7388C26.9125 21.6008 27.1517 21.4965 27.4339 21.426C27.716 21.3524 28.038 21.3156 28.3999 21.3156H29.2694ZM33.8098 19.3651V20.1747H31.0037V19.3651H33.8098ZM31.8133 18.146H32.922V22.9671C32.922 23.1204 32.9434 23.2385 32.9864 23.3213C33.0324 23.401 33.0952 23.4547 33.175 23.4823C33.2547 23.5099 33.3483 23.5237 33.4556 23.5237C33.5323 23.5237 33.6059 23.5191 33.6764 23.5099C33.7469 23.5007 33.8037 23.4915 33.8466 23.4823L33.8512 24.3287C33.7592 24.3563 33.6519 24.3809 33.5292 24.4023C33.4096 24.4238 33.2716 24.4345 33.1152 24.4345C32.8606 24.4345 32.6352 24.3901 32.4389 24.3011C32.2427 24.2091 32.0893 24.0604 31.9789 23.8549C31.8685 23.6494 31.8133 23.3765 31.8133 23.0361V18.146ZM37.0944 19.3651V20.1747H34.2882V19.3651H37.0944ZM35.0979 18.146H36.2066V22.9671C36.2066 23.1204 36.228 23.2385 36.271 23.3213C36.317 23.401 36.3798 23.4547 36.4596 23.4823C36.5393 23.5099 36.6328 23.5237 36.7402 23.5237C36.8169 23.5237 36.8905 23.5191 36.961 23.5099C37.0315 23.5007 37.0883 23.4915 37.1312 23.4823L37.1358 24.3287C37.0438 24.3563 36.9365 24.3809 36.8138 24.4023C36.6942 24.4238 36.5562 24.4345 36.3998 24.4345C36.1452 24.4345 35.9198 24.3901 35.7235 24.3011C35.5272 24.2091 35.3739 24.0604 35.2635 23.8549C35.1531 23.6494 35.0979 23.3765 35.0979 23.0361V18.146ZM40.2916 24.4345C39.9236 24.4345 39.5908 24.3747 39.2933 24.2551C38.9989 24.1325 38.7474 23.9622 38.5389 23.7445C38.3334 23.5268 38.1755 23.2707 38.0651 22.9763C37.9546 22.6818 37.8994 22.3644 37.8994 22.024V21.84C37.8994 21.4505 37.9562 21.0978 38.0697 20.7819C38.1831 20.466 38.3411 20.1962 38.5435 19.9723C38.7459 19.7453 38.9851 19.5721 39.2611 19.4525C39.5371 19.3329 39.8362 19.273 40.1582 19.273C40.5139 19.273 40.8252 19.3329 41.092 19.4525C41.3588 19.5721 41.5796 19.7407 41.7545 19.9585C41.9323 20.1732 42.0642 20.4292 42.1501 20.7267C42.239 21.0242 42.2835 21.3524 42.2835 21.7112V22.185H38.4377V21.3892H41.1886V21.3018C41.1825 21.1024 41.1426 20.9153 41.069 20.7405C40.9985 20.5657 40.8896 20.4246 40.7424 20.3173C40.5952 20.21 40.3989 20.1563 40.1536 20.1563C39.9696 20.1563 39.8055 20.1962 39.6613 20.2759C39.5203 20.3526 39.4022 20.4645 39.3071 20.6117C39.2121 20.7589 39.1384 20.9368 39.0863 21.1454C39.0372 21.3508 39.0127 21.5824 39.0127 21.84V22.024C39.0127 22.2417 39.0418 22.4442 39.1001 22.6312C39.1614 22.8152 39.2504 22.9763 39.3669 23.1143C39.4835 23.2523 39.6245 23.3611 39.7901 23.4409C39.9558 23.5176 40.1444 23.5559 40.356 23.5559C40.6228 23.5559 40.8605 23.5022 41.069 23.3949C41.2776 23.2875 41.4585 23.1357 41.6119 22.9395L42.1961 23.5053C42.0887 23.6617 41.9492 23.812 41.7775 23.9561C41.6057 24.0972 41.3956 24.2122 41.1472 24.3011C40.9019 24.3901 40.6167 24.4345 40.2916 24.4345ZM44.4088 20.3127V24.3425H43.3001V19.3651H44.3582L44.4088 20.3127ZM45.9315 19.3329L45.9223 20.3633C45.8548 20.351 45.7812 20.3418 45.7015 20.3357C45.6248 20.3296 45.5481 20.3265 45.4715 20.3265C45.2813 20.3265 45.1142 20.3541 44.97 20.4093C44.8259 20.4614 44.7048 20.5381 44.6066 20.6393C44.5115 20.7375 44.4379 20.8571 44.3858 20.9981C44.3337 21.1392 44.303 21.2972 44.2938 21.472L44.0408 21.4904C44.0408 21.1776 44.0715 20.8877 44.1328 20.6209C44.1941 20.3541 44.2861 20.1195 44.4088 19.9171C44.5345 19.7147 44.691 19.5567 44.878 19.4433C45.0682 19.3298 45.2875 19.273 45.5359 19.273C45.6033 19.273 45.6754 19.2792 45.7521 19.2915C45.8318 19.3037 45.8916 19.3175 45.9315 19.3329ZM48.3006 23.7997L49.6531 19.3651H50.84L48.8434 25.1016C48.7974 25.2242 48.7376 25.3577 48.664 25.5018C48.5904 25.6459 48.4938 25.7824 48.3742 25.9112C48.2577 26.0431 48.112 26.1489 47.9372 26.2286C47.7624 26.3114 47.5508 26.3528 47.3024 26.3528C47.2042 26.3528 47.1092 26.3436 47.0171 26.3252C46.9282 26.3099 46.8439 26.293 46.7641 26.2746L46.7595 25.4282C46.7902 25.4313 46.827 25.4343 46.8699 25.4374C46.9159 25.4405 46.9527 25.442 46.9803 25.442C47.1644 25.442 47.3177 25.419 47.4404 25.373C47.563 25.3301 47.6627 25.2595 47.7394 25.1614C47.8191 25.0632 47.8866 24.9314 47.9418 24.7658L48.3006 23.7997ZM47.537 19.3651L48.7192 23.0913L48.9171 24.2597L48.1488 24.4575L46.3409 19.3651H47.537Z" fill="black" fill-opacity="0.87"/>
<g filter="url(#filter2_b_2675_142395)">
<path d="M52.7385 45.9337V54.335H51.3527V47.5783L49.2998 48.2741V47.1298L52.5717 45.9337H52.7385ZM61.1641 49.4472V50.8158C61.1641 51.4713 61.0989 52.031 60.9686 52.4949C60.8421 52.9549 60.6581 53.3287 60.4166 53.6162C60.175 53.9037 59.8856 54.1145 59.5483 54.2487C59.2147 54.3829 58.841 54.45 58.427 54.45C58.0973 54.45 57.7906 54.4078 57.5069 54.3235C57.2271 54.2391 56.974 54.1069 56.7479 53.9267C56.5217 53.7465 56.3281 53.5146 56.1671 53.2309C56.0099 52.9434 55.8872 52.6003 55.7991 52.2016C55.7147 51.8029 55.6726 51.341 55.6726 50.8158V49.4472C55.6726 48.7878 55.7377 48.232 55.8681 47.7796C55.9984 47.3234 56.1843 46.9535 56.4258 46.6698C56.6674 46.3823 56.9549 46.1733 57.2884 46.043C57.6257 45.9127 58.0014 45.8475 58.4155 45.8475C58.749 45.8475 59.0557 45.8897 59.3355 45.974C59.6192 46.0545 59.8722 46.1829 60.0945 46.3593C60.3207 46.5356 60.5124 46.7656 60.6696 47.0493C60.8306 47.3292 60.9533 47.6684 61.0376 48.0671C61.1219 48.462 61.1641 48.922 61.1641 49.4472ZM59.7783 51.0113V49.2402C59.7783 48.9067 59.7591 48.6134 59.7208 48.3604C59.6824 48.1035 59.6249 47.8869 59.5483 47.7106C59.4754 47.5304 59.3834 47.3847 59.2722 47.2736C59.1611 47.1586 59.0346 47.0761 58.8927 47.0263C58.7509 46.9726 58.5918 46.9458 58.4155 46.9458C58.2008 46.9458 58.0091 46.988 57.8404 47.0723C57.6717 47.1528 57.5299 47.2832 57.4149 47.4633C57.2999 47.6435 57.2117 47.8812 57.1504 48.1764C57.0929 48.4677 57.0641 48.8223 57.0641 49.2402V51.0113C57.0641 51.3486 57.0833 51.6457 57.1216 51.9026C57.16 52.1594 57.2175 52.3799 57.2941 52.5639C57.3708 52.744 57.4628 52.8935 57.5702 53.0124C57.6813 53.1274 57.8078 53.2117 57.9497 53.2654C58.0954 53.3191 58.2544 53.3459 58.427 53.3459C58.6455 53.3459 58.8391 53.3037 59.0077 53.2194C59.1764 53.1351 59.3183 53.0009 59.4333 52.8169C59.5483 52.629 59.6345 52.3856 59.692 52.0866C59.7495 51.7876 59.7783 51.4291 59.7783 51.0113ZM67.9164 49.4472V50.8158C67.9164 51.4713 67.8512 52.031 67.7208 52.4949C67.5943 52.9549 67.4103 53.3287 67.1688 53.6162C66.9273 53.9037 66.6379 54.1145 66.3005 54.2487C65.967 54.3829 65.5932 54.45 65.1792 54.45C64.8495 54.45 64.5428 54.4078 64.2592 54.3235C63.9793 54.2391 63.7263 54.1069 63.5001 53.9267C63.2739 53.7465 63.0803 53.5146 62.9193 53.2309C62.7622 52.9434 62.6395 52.6003 62.5513 52.2016C62.467 51.8029 62.4248 51.341 62.4248 50.8158V49.4472C62.4248 48.7878 62.49 48.232 62.6203 47.7796C62.7507 47.3234 62.9366 46.9535 63.1781 46.6698C63.4196 46.3823 63.7071 46.1733 64.0406 46.043C64.378 45.9127 64.7537 45.8475 65.1677 45.8475C65.5012 45.8475 65.8079 45.8897 66.0878 45.974C66.3714 46.0545 66.6245 46.1829 66.8468 46.3593C67.073 46.5356 67.2647 46.7656 67.4218 47.0493C67.5828 47.3292 67.7055 47.6684 67.7898 48.0671C67.8742 48.462 67.9164 48.922 67.9164 49.4472ZM66.5305 51.0113V49.2402C66.5305 48.9067 66.5114 48.6134 66.473 48.3604C66.4347 48.1035 66.3772 47.8869 66.3005 47.7106C66.2277 47.5304 66.1357 47.3847 66.0245 47.2736C65.9133 47.1586 65.7868 47.0761 65.645 47.0263C65.5031 46.9726 65.344 46.9458 65.1677 46.9458C64.953 46.9458 64.7613 46.988 64.5927 47.0723C64.424 47.1528 64.2822 47.2832 64.1671 47.4633C64.0521 47.6435 63.964 47.8812 63.9026 48.1764C63.8451 48.4677 63.8164 48.8223 63.8164 49.2402V51.0113C63.8164 51.3486 63.8355 51.6457 63.8739 51.9026C63.9122 52.1594 63.9697 52.3799 64.0464 52.5639C64.1231 52.744 64.2151 52.8935 64.3224 53.0124C64.4336 53.1274 64.5601 53.2117 64.7019 53.2654C64.8476 53.3191 65.0067 53.3459 65.1792 53.3459C65.3977 53.3459 65.5913 53.3037 65.76 53.2194C65.9287 53.1351 66.0705 53.0009 66.1855 52.8169C66.3005 52.629 66.3868 52.3856 66.4443 52.0866C66.5018 51.7876 66.5305 51.4291 66.5305 51.0113Z" fill="black" fill-opacity="0.87"/>
<path d="M72.1378 49.2793V48.9251C72.1378 48.6705 72.193 48.439 72.3034 48.2304C72.4138 48.0219 72.5748 47.8547 72.7864 47.729C72.998 47.6033 73.2526 47.5404 73.55 47.5404C73.8567 47.5404 74.1143 47.6033 74.3229 47.729C74.5345 47.8547 74.6955 48.0219 74.8059 48.2304C74.9163 48.439 74.9715 48.6705 74.9715 48.9251V49.2793C74.9715 49.5277 74.9163 49.7562 74.8059 49.9647C74.6986 50.1733 74.5391 50.3404 74.3275 50.4661C74.1189 50.5919 73.8629 50.6548 73.5592 50.6548C73.2587 50.6548 73.0011 50.5919 72.7864 50.4661C72.5748 50.3404 72.4138 50.1733 72.3034 49.9647C72.193 49.7562 72.1378 49.5277 72.1378 49.2793ZM72.906 48.9251V49.2793C72.906 49.402 72.929 49.5185 72.975 49.6289C73.0241 49.7393 73.0977 49.8282 73.1958 49.8957C73.294 49.9632 73.4151 49.9969 73.5592 49.9969C73.7064 49.9969 73.8261 49.9632 73.9181 49.8957C74.0131 49.8282 74.0837 49.7393 74.1297 49.6289C74.1757 49.5185 74.1987 49.402 74.1987 49.2793V48.9251C74.1987 48.7993 74.1741 48.6812 74.1251 48.5708C74.0791 48.4574 74.0085 48.3669 73.9135 48.2994C73.8184 48.232 73.6972 48.1982 73.55 48.1982C73.409 48.1982 73.2894 48.232 73.1912 48.2994C73.0961 48.3669 73.0241 48.4574 72.975 48.5708C72.929 48.6812 72.906 48.7993 72.906 48.9251ZM75.3671 53.0515V52.6927C75.3671 52.4412 75.4223 52.2112 75.5327 52.0026C75.6462 51.7941 75.8088 51.6269 76.0204 51.5012C76.232 51.3755 76.4865 51.3126 76.784 51.3126C77.0907 51.3126 77.3483 51.3755 77.5569 51.5012C77.7685 51.6269 77.9279 51.7941 78.0353 52.0026C78.1457 52.2112 78.2009 52.4412 78.2009 52.6927V53.0515C78.2009 53.303 78.1457 53.533 78.0353 53.7415C77.9279 53.9501 77.77 54.1172 77.5615 54.243C77.3529 54.3687 77.0984 54.4316 76.7978 54.4316C76.4942 54.4316 76.2351 54.3687 76.0204 54.243C75.8088 54.1172 75.6462 53.9501 75.5327 53.7415C75.4223 53.533 75.3671 53.303 75.3671 53.0515ZM76.14 52.6927V53.0515C76.14 53.1742 76.1645 53.2907 76.2136 53.4011C76.2657 53.5115 76.3409 53.602 76.439 53.6725C76.5371 53.74 76.6552 53.7737 76.7932 53.7737C76.9496 53.7737 77.0754 53.74 77.1704 53.6725C77.2655 53.602 77.333 53.513 77.3728 53.4057C77.4158 53.2953 77.4373 53.1772 77.4373 53.0515V52.6927C77.4373 52.5669 77.4127 52.4489 77.3636 52.3385C77.3176 52.228 77.2456 52.1391 77.1474 52.0716C77.0524 52.0042 76.9312 51.9704 76.784 51.9704C76.6399 51.9704 76.5203 52.0042 76.4252 52.0716C76.3301 52.1391 76.2581 52.228 76.209 52.3385C76.163 52.4489 76.14 52.5669 76.14 52.6927ZM77.06 48.5938L73.7893 53.8289L73.2234 53.5023L76.4942 48.2672L77.06 48.5938Z" fill="black" fill-opacity="0.87"/>
</g>
<rect x="90.292" y="65.9897" width="31.797" height="12.9543" rx="2.35533" transform="rotate(90 90.292 65.9897)" fill="#5CDF90"/>
<rect x="75.5713" y="65.9897" width="31.797" height="12.9543" rx="2.35533" transform="rotate(90 75.5713 65.9897)" fill="#5CDF90"/>
<rect x="60.8506" y="65.9897" width="31.797" height="12.9543" rx="2.35533" transform="rotate(90 60.8506 65.9897)" fill="#5CDF90"/>
<rect x="46.1294" y="65.9897" width="31.797" height="12.9543" rx="2.35533" transform="rotate(90 46.1294 65.9897)" fill="#5CDF90"/>
<path fill-rule="evenodd" clip-rule="evenodd" d="M96.769 77.7829C96.769 76.8024 96.1616 75.9245 95.2441 75.5788C94.2732 75.213 93.236 75.9306 93.236 76.9681L93.236 86.6667C93.236 87.7501 94.3433 88.481 95.3395 88.0552C96.2066 87.6845 96.769 86.8324 96.769 85.8894L96.769 77.7829ZM87.3477 64.2233C89.9494 64.2233 92.0584 66.3324 92.0584 68.934L92.0584 94.8426C92.0584 97.4442 89.9493 99.5533 87.3477 99.5533L36.1193 99.5533C33.5177 99.5533 31.4086 97.4442 31.4086 94.8426L31.4086 68.934C31.4086 66.3323 33.5177 64.2233 36.1193 64.2233L87.3477 64.2233ZM87.3477 63.0457C90.5998 63.0457 93.236 65.6819 93.236 68.934L93.236 94.8426C93.236 98.0946 90.5998 100.731 87.3477 100.731L36.1193 100.731C32.8673 100.731 30.231 98.0946 30.231 94.8426L30.231 68.934C30.231 65.6819 32.8673 63.0457 36.1193 63.0457L87.3477 63.0457Z" fill="#5CDF90" fill-opacity="0.32"/>
</g>
<defs>
<filter id="filter0_d_2675_142395" x="0.78934" y="0.64467" width="125.421" height="125.421" filterUnits="userSpaceOnUse" color-interpolation-filters="sRGB">
<feFlood flood-opacity="0" result="BackgroundImageFix"/>
<feColorMatrix in="SourceAlpha" type="matrix" values="0 0 0 0 0 0 0 0 0 0 0 0 0 0 0 0 0 0 127 0" result="hardAlpha"/>
<feOffset dy="2.35533"/>
<feGaussianBlur stdDeviation="2.35533"/>
<feComposite in2="hardAlpha" operator="out"/>
<feColorMatrix type="matrix" values="0 0 0 0 0 0 0 0 0 0 0 0 0 0 0 0 0 0 0.04 0"/>
<feBlend mode="normal" in2="BackgroundImageFix" result="effect1_dropShadow_2675_142395"/>
<feBlend mode="normal" in="SourceGraphic" in2="effect1_dropShadow_2675_142395" result="shape"/>
</filter>
<filter id="filter1_b_2675_142395" x="9.03292" y="6.53292" width="108.934" height="108.934" filterUnits="userSpaceOnUse" color-interpolation-filters="sRGB">
<feFlood flood-opacity="0" result="BackgroundImageFix"/>
<feGaussianBlur in="BackgroundImageFix" stdDeviation="1.7665"/>
<feComposite in2="SourceAlpha" operator="in" result="effect1_backgroundBlur_2675_142395"/>
<feBlend mode="normal" in="SourceGraphic" in2="effect1_backgroundBlur_2675_142395" result="shape"/>
</filter>
<filter id="filter2_b_2675_142395" x="44.7893" y="39.802" width="37.4215" height="22.066" filterUnits="userSpaceOnUse" color-interpolation-filters="sRGB">
<feFlood flood-opacity="0" result="BackgroundImageFix"/>
<feGaussianBlur in="BackgroundImageFix" stdDeviation="1.7665"/>
<feComposite in2="SourceAlpha" operator="in" result="effect1_backgroundBlur_2675_142395"/>
<feBlend mode="normal" in="SourceGraphic" in2="effect1_backgroundBlur_2675_142395" result="shape"/>
</filter>
</defs>
</svg>
