<svg width="127" height="127" viewBox="0 0 127 127" fill="none" xmlns="http://www.w3.org/2000/svg">
<g filter="url(#filter0_d_2675_142359)">
<rect x="5.5" y="3" width="116" height="116" rx="2.35533" fill="white" shape-rendering="crispEdges"/>
<path d="M22.8244 21.3156H21.1177L21.1085 20.4737H22.599C22.8505 20.4737 23.0636 20.4369 23.2384 20.3633C23.4163 20.2866 23.5513 20.1778 23.6433 20.0367C23.7353 19.8926 23.7813 19.7193 23.7813 19.5169C23.7813 19.293 23.7383 19.1105 23.6525 18.9694C23.5666 18.8284 23.4347 18.7256 23.2568 18.6612C23.082 18.5968 22.8581 18.5646 22.5852 18.5646H21.4673V24.3425H20.3127V17.6446H22.5852C22.9532 17.6446 23.2814 17.6798 23.5697 17.7504C23.861 17.8209 24.1079 17.9313 24.3103 18.0816C24.5158 18.2288 24.6706 18.4159 24.7749 18.6428C24.8823 18.8698 24.9359 19.1396 24.9359 19.4525C24.9359 19.7285 24.87 19.9815 24.7381 20.2115C24.6062 20.4384 24.4115 20.624 24.1539 20.7681C23.8963 20.9123 23.5758 20.9981 23.1924 21.0257L22.8244 21.3156ZM22.7738 24.3425H20.7543L21.2741 23.4271H22.7738C23.0345 23.4271 23.2522 23.3841 23.427 23.2983C23.6019 23.2093 23.7322 23.0882 23.8181 22.9349C23.907 22.7784 23.9515 22.596 23.9515 22.3874C23.9515 22.1697 23.9131 21.9811 23.8365 21.8216C23.7598 21.659 23.6387 21.5348 23.473 21.449C23.3074 21.36 23.0912 21.3156 22.8244 21.3156H21.5271L21.5363 20.4737H23.2246L23.4868 20.7911C23.8549 20.8034 24.157 20.8847 24.3931 21.0349C24.6323 21.1852 24.8102 21.38 24.9267 21.6192C25.0433 21.8584 25.1015 22.116 25.1015 22.392C25.1015 22.8183 25.008 23.1756 24.8209 23.4639C24.6369 23.7522 24.3716 23.9714 24.0251 24.1217C23.6785 24.2689 23.2614 24.3425 22.7738 24.3425ZM29.1084 23.3443V20.9705C29.1084 20.7927 29.0762 20.6393 29.0118 20.5105C28.9473 20.3817 28.8492 20.282 28.7173 20.2115C28.5885 20.141 28.426 20.1057 28.2297 20.1057C28.0488 20.1057 27.8924 20.1364 27.7605 20.1977C27.6286 20.259 27.5259 20.3418 27.4523 20.4461C27.3787 20.5504 27.3419 20.6685 27.3419 20.8003H26.2378C26.2378 20.6041 26.2853 20.4139 26.3804 20.2299C26.4755 20.0459 26.6135 19.8818 26.7944 19.7377C26.9754 19.5935 27.1916 19.4801 27.4431 19.3973C27.6945 19.3145 27.9767 19.2731 28.2895 19.2731C28.6637 19.2731 28.9949 19.3359 29.2832 19.4617C29.5745 19.5874 29.803 19.7775 29.9686 20.0321C30.1373 20.2836 30.2216 20.5995 30.2216 20.9797V23.1925C30.2216 23.4194 30.237 23.6234 30.2676 23.8043C30.3014 23.9822 30.3489 24.1371 30.4102 24.2689V24.3425H29.274C29.2218 24.2229 29.1804 24.0711 29.1498 23.8871C29.1222 23.7 29.1084 23.5191 29.1084 23.3443ZM29.2694 21.3156L29.2786 22.001H28.4827C28.2772 22.001 28.0963 22.0209 27.9399 22.0608C27.7835 22.0976 27.6531 22.1528 27.5489 22.2264C27.4446 22.3 27.3664 22.389 27.3143 22.4932C27.2621 22.5975 27.2361 22.7156 27.2361 22.8474C27.2361 22.9793 27.2667 23.1005 27.3281 23.2109C27.3894 23.3182 27.4783 23.4025 27.5949 23.4639C27.7145 23.5252 27.8586 23.5559 28.0273 23.5559C28.2542 23.5559 28.4521 23.5099 28.6207 23.4179C28.7925 23.3228 28.9274 23.2078 29.0256 23.0729C29.1237 22.9349 29.1758 22.8045 29.182 22.6818L29.5408 23.1741C29.504 23.2998 29.4411 23.4347 29.3522 23.5789C29.2632 23.723 29.1467 23.861 29.0026 23.9929C28.8615 24.1217 28.6913 24.2275 28.4919 24.3103C28.2956 24.3931 28.0687 24.4345 27.8111 24.4345C27.486 24.4345 27.1962 24.3701 26.9416 24.2413C26.6871 24.1094 26.4877 23.9331 26.3436 23.7123C26.1995 23.4884 26.1274 23.2354 26.1274 22.9533C26.1274 22.6895 26.1765 22.4564 26.2746 22.254C26.3758 22.0485 26.523 21.8768 26.7162 21.7388C26.9125 21.6008 27.1517 21.4965 27.4339 21.426C27.716 21.3524 28.038 21.3156 28.3999 21.3156H29.2694ZM33.8098 19.3651V20.1747H31.0037V19.3651H33.8098ZM31.8133 18.146H32.922V22.9671C32.922 23.1204 32.9434 23.2385 32.9864 23.3213C33.0324 23.401 33.0952 23.4547 33.175 23.4823C33.2547 23.5099 33.3483 23.5237 33.4556 23.5237C33.5323 23.5237 33.6059 23.5191 33.6764 23.5099C33.7469 23.5007 33.8037 23.4915 33.8466 23.4823L33.8512 24.3287C33.7592 24.3563 33.6519 24.3809 33.5292 24.4023C33.4096 24.4238 33.2716 24.4345 33.1152 24.4345C32.8606 24.4345 32.6352 24.3901 32.4389 24.3011C32.2427 24.2091 32.0893 24.0604 31.9789 23.8549C31.8685 23.6494 31.8133 23.3765 31.8133 23.0361V18.146ZM37.0944 19.3651V20.1747H34.2882V19.3651H37.0944ZM35.0979 18.146H36.2065V22.9671C36.2065 23.1204 36.228 23.2385 36.271 23.3213C36.317 23.401 36.3798 23.4547 36.4596 23.4823C36.5393 23.5099 36.6328 23.5237 36.7402 23.5237C36.8168 23.5237 36.8905 23.5191 36.961 23.5099C37.0315 23.5007 37.0883 23.4915 37.1312 23.4823L37.1358 24.3287C37.0438 24.3563 36.9365 24.3809 36.8138 24.4023C36.6942 24.4238 36.5562 24.4345 36.3998 24.4345C36.1452 24.4345 35.9198 24.3901 35.7235 24.3011C35.5272 24.2091 35.3739 24.0604 35.2635 23.8549C35.1531 23.6494 35.0979 23.3765 35.0979 23.0361V18.146ZM40.2916 24.4345C39.9236 24.4345 39.5908 24.3747 39.2933 24.2551C38.9989 24.1325 38.7474 23.9622 38.5389 23.7445C38.3334 23.5268 38.1755 23.2707 38.0651 22.9763C37.9546 22.6818 37.8994 22.3644 37.8994 22.024V21.84C37.8994 21.4505 37.9562 21.0978 38.0697 20.7819C38.1831 20.466 38.3411 20.1962 38.5435 19.9723C38.7459 19.7453 38.9851 19.5721 39.2611 19.4525C39.5371 19.3329 39.8361 19.2731 40.1582 19.2731C40.5139 19.2731 40.8252 19.3329 41.092 19.4525C41.3588 19.5721 41.5796 19.7407 41.7545 19.9585C41.9323 20.1732 42.0642 20.4292 42.1501 20.7267C42.239 21.0242 42.2835 21.3524 42.2835 21.7112V22.185H38.4377V21.3892H41.1886V21.3018C41.1825 21.1024 41.1426 20.9153 41.069 20.7405C40.9985 20.5657 40.8896 20.4246 40.7424 20.3173C40.5952 20.21 40.3989 20.1563 40.1536 20.1563C39.9696 20.1563 39.8055 20.1962 39.6613 20.2759C39.5203 20.3526 39.4022 20.4645 39.3071 20.6117C39.212 20.7589 39.1384 20.9368 39.0863 21.1454C39.0372 21.3508 39.0127 21.5824 39.0127 21.84V22.024C39.0127 22.2417 39.0418 22.4442 39.1001 22.6312C39.1614 22.8152 39.2504 22.9763 39.3669 23.1143C39.4835 23.2523 39.6245 23.3611 39.7901 23.4409C39.9558 23.5176 40.1444 23.5559 40.356 23.5559C40.6228 23.5559 40.8605 23.5022 41.069 23.3949C41.2776 23.2875 41.4585 23.1357 41.6118 22.9395L42.1961 23.5053C42.0887 23.6617 41.9492 23.812 41.7775 23.9561C41.6057 24.0972 41.3956 24.2122 41.1472 24.3011C40.9019 24.3901 40.6167 24.4345 40.2916 24.4345ZM44.4088 20.3127V24.3425H43.3001V19.3651H44.3582L44.4088 20.3127ZM45.9315 19.3329L45.9223 20.3633C45.8548 20.351 45.7812 20.3418 45.7015 20.3357C45.6248 20.3296 45.5481 20.3265 45.4715 20.3265C45.2813 20.3265 45.1142 20.3541 44.97 20.4093C44.8259 20.4614 44.7047 20.5381 44.6066 20.6393C44.5115 20.7375 44.4379 20.8571 44.3858 20.9981C44.3337 21.1392 44.303 21.2972 44.2938 21.472L44.0408 21.4904C44.0408 21.1776 44.0714 20.8877 44.1328 20.6209C44.1941 20.3541 44.2861 20.1195 44.4088 19.9171C44.5345 19.7147 44.6909 19.5567 44.878 19.4433C45.0682 19.3298 45.2874 19.2731 45.5359 19.2731C45.6033 19.2731 45.6754 19.2792 45.7521 19.2915C45.8318 19.3037 45.8916 19.3175 45.9315 19.3329ZM48.3006 23.7997L49.6531 19.3651H50.84L48.8434 25.1016C48.7974 25.2242 48.7376 25.3577 48.664 25.5018C48.5904 25.6459 48.4938 25.7824 48.3742 25.9112C48.2577 26.0431 48.112 26.1489 47.9372 26.2286C47.7624 26.3114 47.5508 26.3528 47.3024 26.3528C47.2042 26.3528 47.1091 26.3436 47.0171 26.3252C46.9282 26.3099 46.8439 26.293 46.7641 26.2746L46.7595 25.4282C46.7902 25.4313 46.827 25.4343 46.8699 25.4374C46.9159 25.4405 46.9527 25.442 46.9803 25.442C47.1644 25.442 47.3177 25.419 47.4404 25.373C47.563 25.3301 47.6627 25.2595 47.7394 25.1614C47.8191 25.0632 47.8866 24.9314 47.9418 24.7658L48.3006 23.7997ZM47.537 19.3651L48.7192 23.0913L48.917 24.2597L48.1488 24.4575L46.3409 19.3651H47.537Z" fill="black" fill-opacity="0.87"/>
<rect x="27.7129" y="45.2412" width="31.797" height="12.9543" rx="2.35533" fill="#5CDF90"/>
<rect x="27.7129" y="59.9619" width="31.797" height="12.9543" rx="2.35533" fill="#5CDF90"/>
<rect x="27.7129" y="74.6829" width="31.797" height="12.9543" rx="2.35533" fill="#5CDF90"/>
<rect x="27.7129" y="89.4036" width="31.797" height="12.9543" rx="2.35533" fill="#5CDF90"/>
<path fill-rule="evenodd" clip-rule="evenodd" d="M39.5063 38.7639C38.5258 38.7639 37.6479 39.3713 37.3022 40.2889L37.1202 40.7719C36.7745 41.6895 35.8966 42.2969 34.9161 42.2969L30.6574 42.2969C27.4053 42.2969 24.769 44.9332 24.769 48.1852V99.4137C24.769 102.666 27.4053 105.302 30.6574 105.302H56.566C59.818 105.302 62.4543 102.666 62.4543 99.4137V48.1852C62.4543 44.9332 59.818 42.2969 56.566 42.2969L52.2324 42.2969C51.2894 42.2969 50.4372 41.7345 50.0666 40.8674L49.7785 40.1935C49.4079 39.3264 48.5558 38.7639 47.6128 38.7639H39.5063ZM30.6574 43.4746H56.566C59.1676 43.4746 61.2767 45.5836 61.2767 48.1852V99.4137C61.2767 102.015 59.1676 104.124 56.566 104.124H30.6574C28.0557 104.124 25.9467 102.015 25.9467 99.4137V48.1852C25.9467 45.5836 28.0557 43.4746 30.6574 43.4746Z" fill="#5CDF90" fill-opacity="0.32"/>
<g filter="url(#filter1_b_2675_142359)">
<path d="M76.2917 67.1317V75.533H74.9059V68.7763L72.853 69.4721V68.3278L76.125 67.1317H76.2917ZM84.7173 70.6452V72.0138C84.7173 72.6693 84.6522 73.229 84.5218 73.6929C84.3953 74.1529 84.2113 74.5267 83.9698 74.8142C83.7283 75.1017 83.4388 75.3125 83.1015 75.4467C82.768 75.5809 82.3942 75.648 81.9802 75.648C81.6505 75.648 81.3438 75.6058 81.0601 75.5215C80.7803 75.4371 80.5273 75.3049 80.3011 75.1247C80.0749 74.9445 79.8813 74.7126 79.7203 74.4289C79.5631 74.1414 79.4405 73.7983 79.3523 73.3996C79.2679 73.0009 79.2258 72.539 79.2258 72.0138V70.6452C79.2258 69.9858 79.2909 69.43 79.4213 68.9776C79.5516 68.5214 79.7376 68.1515 79.9791 67.8678C80.2206 67.5803 80.5081 67.3713 80.8416 67.241C81.179 67.1107 81.5547 67.0455 81.9687 67.0455C82.3022 67.0455 82.6089 67.0877 82.8887 67.172C83.1724 67.2525 83.4254 67.3809 83.6478 67.5573C83.8739 67.7336 84.0656 67.9636 84.2228 68.2473C84.3838 68.5272 84.5065 68.8664 84.5908 69.2651C84.6752 69.66 84.7173 70.12 84.7173 70.6452ZM83.3315 72.2093V70.4382C83.3315 70.1047 83.3123 69.8114 83.274 69.5584C83.2357 69.3015 83.1782 69.0849 83.1015 68.9086C83.0286 68.7284 82.9366 68.5827 82.8255 68.4716C82.7143 68.3566 82.5878 68.2741 82.446 68.2243C82.3041 68.1706 82.145 68.1438 81.9687 68.1438C81.754 68.1438 81.5623 68.186 81.3936 68.2703C81.225 68.3508 81.0831 68.4812 80.9681 68.6613C80.8531 68.8415 80.7649 69.0792 80.7036 69.3744C80.6461 69.6657 80.6173 70.0203 80.6173 70.4382V72.2093C80.6173 72.5466 80.6365 72.8437 80.6749 73.1006C80.7132 73.3574 80.7707 73.5779 80.8474 73.7619C80.924 73.942 81.016 74.0915 81.1234 74.2104C81.2346 74.3254 81.3611 74.4097 81.5029 74.4634C81.6486 74.5171 81.8077 74.5439 81.9802 74.5439C82.1987 74.5439 82.3923 74.5017 82.561 74.4174C82.7296 74.3331 82.8715 74.1989 82.9865 74.0149C83.1015 73.827 83.1877 73.5836 83.2452 73.2846C83.3027 72.9856 83.3315 72.6271 83.3315 72.2093ZM91.4696 70.6452V72.0138C91.4696 72.6693 91.4044 73.229 91.2741 73.6929C91.1476 74.1529 90.9635 74.5267 90.722 74.8142C90.4805 75.1017 90.1911 75.3125 89.8537 75.4467C89.5202 75.5809 89.1464 75.648 88.7324 75.648C88.4027 75.648 88.0961 75.6058 87.8124 75.5215C87.5325 75.4371 87.2795 75.3049 87.0533 75.1247C86.8272 74.9445 86.6336 74.7126 86.4726 74.4289C86.3154 74.1414 86.1927 73.7983 86.1045 73.3996C86.0202 73.0009 85.978 72.539 85.978 72.0138V70.6452C85.978 69.9858 86.0432 69.43 86.1735 68.9776C86.3039 68.5214 86.4898 68.1515 86.7313 67.8678C86.9728 67.5803 87.2603 67.3713 87.5939 67.241C87.9312 67.1107 88.3069 67.0455 88.7209 67.0455C89.0544 67.0455 89.3611 67.0877 89.641 67.172C89.9247 67.2525 90.1777 67.3809 90.4 67.5573C90.6262 67.7336 90.8179 67.9636 90.975 68.2473C91.1361 68.5272 91.2587 68.8664 91.3431 69.2651C91.4274 69.66 91.4696 70.12 91.4696 70.6452ZM90.0838 72.2093V70.4382C90.0838 70.1047 90.0646 69.8114 90.0262 69.5584C89.9879 69.3015 89.9304 69.0849 89.8537 68.9086C89.7809 68.7284 89.6889 68.5827 89.5777 68.4716C89.4665 68.3566 89.34 68.2741 89.1982 68.2243C89.0564 68.1706 88.8973 68.1438 88.7209 68.1438C88.5062 68.1438 88.3146 68.186 88.1459 68.2703C87.9772 68.3508 87.8354 68.4812 87.7204 68.6613C87.6054 68.8415 87.5172 69.0792 87.4559 69.3744C87.3984 69.6657 87.3696 70.0203 87.3696 70.4382V72.2093C87.3696 72.5466 87.3888 72.8437 87.4271 73.1006C87.4654 73.3574 87.5229 73.5779 87.5996 73.7619C87.6763 73.942 87.7683 74.0915 87.8756 74.2104C87.9868 74.3254 88.1133 74.4097 88.2551 74.4634C88.4008 74.5171 88.5599 74.5439 88.7324 74.5439C88.9509 74.5439 89.1445 74.5017 89.3132 74.4174C89.4819 74.3331 89.6237 74.1989 89.7387 74.0149C89.8537 73.827 89.94 73.5836 89.9975 73.2846C90.055 72.9856 90.0838 72.6271 90.0838 72.2093Z" fill="black" fill-opacity="0.87"/>
<path d="M95.691 70.4773V70.1231C95.691 69.8685 95.7462 69.637 95.8566 69.4284C95.967 69.2199 96.128 69.0527 96.3396 68.927C96.5512 68.8013 96.8058 68.7384 97.1033 68.7384C97.4099 68.7384 97.6676 68.8013 97.8761 68.927C98.0877 69.0527 98.2487 69.2199 98.3591 69.4284C98.4695 69.637 98.5247 69.8685 98.5247 70.1231V70.4773C98.5247 70.7257 98.4695 70.9542 98.3591 71.1627C98.2518 71.3713 98.0923 71.5384 97.8807 71.6641C97.6722 71.7899 97.4161 71.8528 97.1125 71.8528C96.8119 71.8528 96.5543 71.7899 96.3396 71.6641C96.128 71.5384 95.967 71.3713 95.8566 71.1627C95.7462 70.9542 95.691 70.7257 95.691 70.4773ZM96.4592 70.1231V70.4773C96.4592 70.6 96.4822 70.7165 96.5282 70.8269C96.5773 70.9373 96.6509 71.0262 96.749 71.0937C96.8472 71.1612 96.9683 71.1949 97.1125 71.1949C97.2597 71.1949 97.3793 71.1612 97.4713 71.0937C97.5664 71.0262 97.6369 70.9373 97.6829 70.8269C97.7289 70.7165 97.7519 70.6 97.7519 70.4773V70.1231C97.7519 69.9973 97.7274 69.8792 97.6783 69.7688C97.6323 69.6554 97.5618 69.5649 97.4667 69.4974C97.3716 69.43 97.2505 69.3962 97.1033 69.3962C96.9622 69.3962 96.8426 69.43 96.7444 69.4974C96.6494 69.5649 96.5773 69.6554 96.5282 69.7688C96.4822 69.8792 96.4592 69.9973 96.4592 70.1231ZM98.9204 74.2495V73.8907C98.9204 73.6392 98.9756 73.4092 99.086 73.2006C99.1994 72.9921 99.362 72.8249 99.5736 72.6992C99.7852 72.5735 100.04 72.5106 100.337 72.5106C100.644 72.5106 100.902 72.5735 101.11 72.6992C101.322 72.8249 101.481 72.9921 101.589 73.2006C101.699 73.4092 101.754 73.6392 101.754 73.8907V74.2495C101.754 74.501 101.699 74.731 101.589 74.9395C101.481 75.1481 101.323 75.3152 101.115 75.441C100.906 75.5667 100.652 75.6296 100.351 75.6296C100.047 75.6296 99.7883 75.5667 99.5736 75.441C99.362 75.3152 99.1994 75.1481 99.086 74.9395C98.9756 74.731 98.9204 74.501 98.9204 74.2495ZM99.6932 73.8907V74.2495C99.6932 74.3722 99.7177 74.4887 99.7668 74.5991C99.8189 74.7095 99.8941 74.8 99.9922 74.8705C100.09 74.938 100.208 74.9717 100.346 74.9717C100.503 74.9717 100.629 74.938 100.724 74.8705C100.819 74.8 100.886 74.711 100.926 74.6037C100.969 74.4933 100.99 74.3752 100.99 74.2495V73.8907C100.99 73.7649 100.966 73.6469 100.917 73.5364C100.871 73.426 100.799 73.3371 100.701 73.2696C100.606 73.2022 100.484 73.1684 100.337 73.1684C100.193 73.1684 100.073 73.2022 99.9784 73.2696C99.8833 73.3371 99.8113 73.426 99.7622 73.5364C99.7162 73.6469 99.6932 73.7649 99.6932 73.8907ZM100.613 69.7918L97.3425 75.0269L96.7766 74.7003L100.047 69.4652L100.613 69.7918Z" fill="black" fill-opacity="0.87"/>
</g>
</g>
<defs>
<filter id="filter0_d_2675_142359" x="0.78934" y="0.64467" width="125.421" height="125.421" filterUnits="userSpaceOnUse" color-interpolation-filters="sRGB">
<feFlood flood-opacity="0" result="BackgroundImageFix"/>
<feColorMatrix in="SourceAlpha" type="matrix" values="0 0 0 0 0 0 0 0 0 0 0 0 0 0 0 0 0 0 127 0" result="hardAlpha"/>
<feOffset dy="2.35533"/>
<feGaussianBlur stdDeviation="2.35533"/>
<feComposite in2="hardAlpha" operator="out"/>
<feColorMatrix type="matrix" values="0 0 0 0 0 0 0 0 0 0 0 0 0 0 0 0 0 0 0.04 0"/>
<feBlend mode="normal" in2="BackgroundImageFix" result="effect1_dropShadow_2675_142359"/>
<feBlend mode="normal" in="SourceGraphic" in2="effect1_dropShadow_2675_142359" result="shape"/>
</filter>
<filter id="filter1_b_2675_142359" x="68.3425" y="61" width="37.4215" height="22.066" filterUnits="userSpaceOnUse" color-interpolation-filters="sRGB">
<feFlood flood-opacity="0" result="BackgroundImageFix"/>
<feGaussianBlur in="BackgroundImageFix" stdDeviation="1.7665"/>
<feComposite in2="SourceAlpha" operator="in" result="effect1_backgroundBlur_2675_142359"/>
<feBlend mode="normal" in="SourceGraphic" in2="effect1_backgroundBlur_2675_142359" result="shape"/>
</filter>
</defs>
</svg>
