<svg width="127" height="127" viewBox="0 0 127 127" fill="none" xmlns="http://www.w3.org/2000/svg">
<g filter="url(#filter0_d_2675_142297)">
<rect x="5.5" y="3" width="116" height="116" rx="2.35533" fill="white" shape-rendering="crispEdges"/>
<g filter="url(#filter1_b_2675_142297)">
<rect x="12.5659" y="10.0659" width="101.868" height="101.868" rx="2.35533" fill="white" fill-opacity="0.76"/>
</g>
<path d="M22.8247 21.7496H21.118L21.1088 20.9078H22.5992C22.8507 20.9078 23.0639 20.871 23.2387 20.7974C23.4166 20.7207 23.5515 20.6118 23.6435 20.4708C23.7355 20.3266 23.7815 20.1534 23.7815 19.9509C23.7815 19.7271 23.7386 19.5446 23.6527 19.4035C23.5668 19.2624 23.435 19.1597 23.2571 19.0953C23.0823 19.0309 22.8584 18.9987 22.5854 18.9987H21.4676V24.7766H20.3129V18.0786H22.5854C22.9535 18.0786 23.2816 18.1139 23.5699 18.1844C23.8612 18.255 24.1081 18.3654 24.3105 18.5157C24.516 18.6629 24.6709 18.85 24.7752 19.0769C24.8825 19.3038 24.9362 19.5737 24.9362 19.8865C24.9362 20.1626 24.8702 20.4156 24.7384 20.6456C24.6065 20.8725 24.4117 21.0581 24.1541 21.2022C23.8965 21.3464 23.576 21.4322 23.1927 21.4598L22.8247 21.7496ZM22.7741 24.7766H20.7545L21.2744 23.8612H22.7741C23.0347 23.8612 23.2525 23.8182 23.4273 23.7324C23.6021 23.6434 23.7324 23.5223 23.8183 23.3689C23.9072 23.2125 23.9517 23.03 23.9517 22.8215C23.9517 22.6038 23.9134 22.4151 23.8367 22.2557C23.76 22.0931 23.6389 21.9689 23.4733 21.8831C23.3077 21.7941 23.0915 21.7496 22.8247 21.7496H21.5274L21.5366 20.9078H23.2249L23.4871 21.2252C23.8551 21.2375 24.1572 21.3188 24.3933 21.469C24.6326 21.6193 24.8104 21.814 24.927 22.0533C25.0435 22.2925 25.1018 22.5501 25.1018 22.8261C25.1018 23.2524 25.0082 23.6097 24.8212 23.898C24.6372 24.1862 24.3719 24.4055 24.0253 24.5558C23.6788 24.703 23.2617 24.7766 22.7741 24.7766ZM29.1086 23.7784V21.4046C29.1086 21.2267 29.0764 21.0734 29.012 20.9446C28.9476 20.8158 28.8495 20.7161 28.7176 20.6456C28.5888 20.575 28.4262 20.5398 28.23 20.5398C28.049 20.5398 27.8926 20.5704 27.7607 20.6318C27.6289 20.6931 27.5261 20.7759 27.4525 20.8802C27.3789 20.9845 27.3421 21.1025 27.3421 21.2344H26.238C26.238 21.0381 26.2856 20.848 26.3807 20.664C26.4757 20.48 26.6137 20.3159 26.7947 20.1718C26.9756 20.0276 27.1918 19.9141 27.4433 19.8313C27.6948 19.7485 27.9769 19.7071 28.2898 19.7071C28.6639 19.7071 28.9951 19.77 29.2834 19.8957C29.5748 20.0215 29.8032 20.2116 29.9689 20.4662C30.1375 20.7177 30.2219 21.0335 30.2219 21.4138V23.6265C30.2219 23.8535 30.2372 24.0574 30.2679 24.2384C30.3016 24.4163 30.3491 24.5711 30.4105 24.703V24.7766H29.2742C29.2221 24.657 29.1807 24.5052 29.15 24.3212C29.1224 24.1341 29.1086 23.9532 29.1086 23.7784ZM29.2696 21.7496L29.2788 22.4351H28.483C28.2775 22.4351 28.0965 22.455 27.9401 22.4949C27.7837 22.5317 27.6534 22.5869 27.5491 22.6605C27.4448 22.7341 27.3666 22.823 27.3145 22.9273C27.2624 23.0316 27.2363 23.1497 27.2363 23.2815C27.2363 23.4134 27.267 23.5345 27.3283 23.6449C27.3896 23.7523 27.4786 23.8366 27.5951 23.898C27.7147 23.9593 27.8589 23.99 28.0275 23.99C28.2545 23.99 28.4523 23.944 28.621 23.852C28.7927 23.7569 28.9277 23.6419 29.0258 23.5069C29.1239 23.3689 29.1761 23.2386 29.1822 23.1159L29.541 23.6081C29.5042 23.7339 29.4414 23.8688 29.3524 24.013C29.2635 24.1571 29.1469 24.2951 29.0028 24.427C28.8617 24.5558 28.6915 24.6616 28.4922 24.7444C28.2959 24.8272 28.0689 24.8686 27.8113 24.8686C27.4862 24.8686 27.1964 24.8042 26.9419 24.6754C26.6873 24.5435 26.488 24.3672 26.3439 24.1464C26.1997 23.9225 26.1276 23.6695 26.1276 23.3873C26.1276 23.1236 26.1767 22.8905 26.2748 22.6881C26.3761 22.4826 26.5233 22.3109 26.7165 22.1729C26.9127 22.0349 27.152 21.9306 27.4341 21.8601C27.7163 21.7864 28.0383 21.7496 28.4002 21.7496H29.2696ZM33.8101 19.7991V20.6088H31.0039V19.7991H33.8101ZM31.8136 18.5801H32.9222V23.4011C32.9222 23.5545 32.9437 23.6726 32.9866 23.7554C33.0326 23.8351 33.0955 23.8888 33.1752 23.9164C33.255 23.944 33.3485 23.9578 33.4558 23.9578C33.5325 23.9578 33.6061 23.9532 33.6767 23.944C33.7472 23.9348 33.8039 23.9256 33.8469 23.9164L33.8515 24.7628C33.7595 24.7904 33.6521 24.8149 33.5294 24.8364C33.4098 24.8579 33.2718 24.8686 33.1154 24.8686C32.8609 24.8686 32.6355 24.8241 32.4392 24.7352C32.2429 24.6432 32.0896 24.4945 31.9792 24.289C31.8688 24.0835 31.8136 23.8106 31.8136 23.4701V18.5801ZM37.0946 19.7991V20.6088H34.2885V19.7991H37.0946ZM35.0981 18.5801H36.2068V23.4011C36.2068 23.5545 36.2283 23.6726 36.2712 23.7554C36.3172 23.8351 36.3801 23.8888 36.4598 23.9164C36.5395 23.944 36.6331 23.9578 36.7404 23.9578C36.8171 23.9578 36.8907 23.9532 36.9612 23.944C37.0318 23.9348 37.0885 23.9256 37.1314 23.9164L37.136 24.7628C37.044 24.7904 36.9367 24.8149 36.814 24.8364C36.6944 24.8579 36.5564 24.8686 36.4 24.8686C36.1455 24.8686 35.92 24.8241 35.7238 24.7352C35.5275 24.6432 35.3741 24.4945 35.2637 24.289C35.1533 24.0835 35.0981 23.8106 35.0981 23.4701V18.5801ZM40.2918 24.8686C39.9238 24.8686 39.591 24.8088 39.2936 24.6892C38.9992 24.5665 38.7477 24.3963 38.5391 24.1786C38.3336 23.9608 38.1757 23.7048 38.0653 23.4103C37.9549 23.1159 37.8997 22.7985 37.8997 22.4581V22.2741C37.8997 21.8846 37.9564 21.5319 38.0699 21.216C38.1834 20.9001 38.3413 20.6302 38.5437 20.4064C38.7461 20.1794 38.9853 20.0061 39.2614 19.8865C39.5374 19.7669 39.8364 19.7071 40.1584 19.7071C40.5142 19.7071 40.8255 19.7669 41.0923 19.8865C41.3591 20.0061 41.5799 20.1748 41.7547 20.3926C41.9326 20.6072 42.0645 20.8633 42.1503 21.1608C42.2393 21.4583 42.2837 21.7864 42.2837 22.1453V22.6191H38.4379V21.8232H41.1889V21.7358C41.1827 21.5365 41.1429 21.3494 41.0693 21.1746C40.9987 20.9998 40.8899 20.8587 40.7426 20.7514C40.5954 20.644 40.3992 20.5904 40.1538 20.5904C39.9698 20.5904 39.8057 20.6302 39.6616 20.71C39.5205 20.7867 39.4024 20.8986 39.3074 21.0458C39.2123 21.193 39.1387 21.3709 39.0866 21.5794C39.0375 21.7849 39.013 22.0165 39.013 22.2741V22.4581C39.013 22.6758 39.0421 22.8782 39.1004 23.0653C39.1617 23.2493 39.2506 23.4103 39.3672 23.5483C39.4837 23.6864 39.6248 23.7952 39.7904 23.875C39.956 23.9516 40.1446 23.99 40.3562 23.99C40.623 23.99 40.8607 23.9363 41.0693 23.829C41.2778 23.7216 41.4588 23.5698 41.6121 23.3735L42.1963 23.9394C42.089 24.0958 41.9494 24.246 41.7777 24.3902C41.606 24.5313 41.3959 24.6463 41.1475 24.7352C40.9021 24.8241 40.6169 24.8686 40.2918 24.8686ZM44.409 20.7468V24.7766H43.3004V19.7991H44.3584L44.409 20.7468ZM45.9317 19.7669L45.9225 20.7974C45.8551 20.7851 45.7815 20.7759 45.7017 20.7698C45.625 20.7637 45.5484 20.7606 45.4717 20.7606C45.2816 20.7606 45.1144 20.7882 44.9703 20.8434C44.8261 20.8955 44.705 20.9722 44.6069 21.0734C44.5118 21.1715 44.4382 21.2912 44.386 21.4322C44.3339 21.5733 44.3032 21.7312 44.294 21.9061L44.041 21.9245C44.041 21.6116 44.0717 21.3218 44.133 21.055C44.1944 20.7882 44.2864 20.5536 44.409 20.3512C44.5348 20.1488 44.6912 19.9908 44.8783 19.8773C45.0684 19.7639 45.2877 19.7071 45.5361 19.7071C45.6036 19.7071 45.6757 19.7133 45.7523 19.7255C45.8321 19.7378 45.8919 19.7516 45.9317 19.7669ZM48.3009 24.2338L49.6533 19.7991H50.8402L48.8437 25.5357C48.7977 25.6583 48.7379 25.7917 48.6643 25.9359C48.5907 26.08 48.4941 26.2165 48.3745 26.3453C48.2579 26.4772 48.1123 26.583 47.9374 26.6627C47.7626 26.7455 47.551 26.7869 47.3026 26.7869C47.2045 26.7869 47.1094 26.7777 47.0174 26.7593C46.9285 26.744 46.8441 26.7271 46.7644 26.7087L46.7598 25.8623C46.7904 25.8653 46.8272 25.8684 46.8702 25.8715C46.9162 25.8745 46.953 25.8761 46.9806 25.8761C47.1646 25.8761 47.3179 25.8531 47.4406 25.8071C47.5633 25.7641 47.663 25.6936 47.7396 25.5955C47.8194 25.4973 47.8868 25.3654 47.942 25.1998L48.3009 24.2338ZM47.5372 19.7991L48.7195 23.5253L48.9173 24.6938L48.1491 24.8916L46.3412 19.7991H47.5372Z" fill="black" fill-opacity="0.87"/>
<mask id="mask0_2675_142297" style="mask-type:alpha" maskUnits="userSpaceOnUse" x="20" y="44" width="34" height="59">
<path d="M20.6472 48.1853C20.6472 46.2341 22.229 44.6523 24.1802 44.6523H50.0888C52.0401 44.6523 53.6218 46.2341 53.6218 48.1853V99.4138C53.6218 101.365 52.0401 102.947 50.0888 102.947H24.1802C22.229 102.947 20.6472 101.365 20.6472 99.4138V48.1853Z" fill="#5469FF"/>
</mask>
<g mask="url(#mask0_2675_142297)">
<path d="M20.6472 44.6523H53.6218V102.947H20.6472V44.6523Z" fill="#5CDF90"/>
</g>
<path fill-rule="evenodd" clip-rule="evenodd" d="M33.0292 38.7639C32.0487 38.7639 31.1708 39.3713 30.8251 40.2889L30.6432 40.7719C30.2975 41.6895 29.4195 42.2969 28.439 42.2969H24.1803C20.9283 42.2969 18.292 44.9332 18.292 48.1852V99.4137C18.292 102.666 20.9283 105.302 24.1803 105.302H50.0889C53.341 105.302 55.9773 102.666 55.9773 99.4137V48.1852C55.9773 44.9332 53.341 42.2969 50.089 42.2969H45.7553C44.8123 42.2969 43.9602 41.7345 43.5895 40.8674L43.3015 40.1935C42.9308 39.3264 42.0787 38.7639 41.1357 38.7639H33.0292ZM24.1803 43.4746H50.089C52.6906 43.4746 54.7996 45.5836 54.7996 48.1852V99.4137C54.7996 102.015 52.6906 104.124 50.0889 104.124H24.1803C21.5787 104.124 19.4697 102.015 19.4697 99.4137V48.1852C19.4697 45.5836 21.5787 43.4746 24.1803 43.4746Z" fill="#5CDF90" fill-opacity="0.32"/>
<g filter="url(#filter2_b_2675_142297)">
<path d="M76.8808 67.1317V75.533H75.495V68.7763L73.4422 69.4721V68.3278L76.7141 67.1317H76.8808ZM85.3064 70.6452V72.0138C85.3064 72.6693 85.2413 73.229 85.1109 73.6929C84.9844 74.1529 84.8004 74.5267 84.5589 74.8142C84.3174 75.1017 84.028 75.3125 83.6906 75.4467C83.3571 75.5809 82.9833 75.648 82.5693 75.648C82.2396 75.648 81.9329 75.6058 81.6492 75.5215C81.3694 75.4371 81.1164 75.3049 80.8902 75.1247C80.664 74.9445 80.4704 74.7126 80.3094 74.4289C80.1522 74.1414 80.0296 73.7983 79.9414 73.3996C79.8571 73.0009 79.8149 72.539 79.8149 72.0138V70.6452C79.8149 69.9858 79.8801 69.43 80.0104 68.9776C80.1407 68.5214 80.3267 68.1515 80.5682 67.8678C80.8097 67.5803 81.0972 67.3713 81.4307 67.241C81.7681 67.1107 82.1438 67.0455 82.5578 67.0455C82.8913 67.0455 83.198 67.0877 83.4778 67.172C83.7615 67.2525 84.0145 67.3809 84.2369 67.5573C84.4631 67.7336 84.6547 67.9636 84.8119 68.2473C84.9729 68.5272 85.0956 68.8664 85.1799 69.2651C85.2643 69.66 85.3064 70.12 85.3064 70.6452ZM83.9206 72.2093V70.4382C83.9206 70.1047 83.9014 69.8114 83.8631 69.5584C83.8248 69.3015 83.7673 69.0849 83.6906 68.9086C83.6178 68.7284 83.5258 68.5827 83.4146 68.4716C83.3034 68.3566 83.1769 68.2741 83.0351 68.2243C82.8932 68.1706 82.7341 68.1438 82.5578 68.1438C82.3431 68.1438 82.1514 68.186 81.9828 68.2703C81.8141 68.3508 81.6722 68.4812 81.5572 68.6613C81.4422 68.8415 81.3541 69.0792 81.2927 69.3744C81.2352 69.6657 81.2065 70.0203 81.2065 70.4382V72.2093C81.2065 72.5466 81.2256 72.8437 81.264 73.1006C81.3023 73.3574 81.3598 73.5779 81.4365 73.7619C81.5131 73.942 81.6052 74.0915 81.7125 74.2104C81.8237 74.3254 81.9502 74.4097 82.092 74.4634C82.2377 74.5171 82.3968 74.5439 82.5693 74.5439C82.7878 74.5439 82.9814 74.5017 83.1501 74.4174C83.3187 74.3331 83.4606 74.1989 83.5756 74.0149C83.6906 73.827 83.7769 73.5836 83.8344 73.2846C83.8919 72.9856 83.9206 72.6271 83.9206 72.2093ZM92.0587 70.6452V72.0138C92.0587 72.6693 91.9935 73.229 91.8632 73.6929C91.7367 74.1529 91.5527 74.5267 91.3111 74.8142C91.0696 75.1017 90.7802 75.3125 90.4429 75.4467C90.1093 75.5809 89.7356 75.648 89.3215 75.648C88.9919 75.648 88.6852 75.6058 88.4015 75.5215C88.1216 75.4371 87.8686 75.3049 87.6424 75.1247C87.4163 74.9445 87.2227 74.7126 87.0617 74.4289C86.9045 74.1414 86.7818 73.7983 86.6936 73.3996C86.6093 73.0009 86.5671 72.539 86.5671 72.0138V70.6452C86.5671 69.9858 86.6323 69.43 86.7626 68.9776C86.893 68.5214 87.0789 68.1515 87.3204 67.8678C87.5619 67.5803 87.8495 67.3713 88.183 67.241C88.5203 67.1107 88.896 67.0455 89.31 67.0455C89.6436 67.0455 89.9502 67.0877 90.2301 67.172C90.5138 67.2525 90.7668 67.3809 90.9891 67.5573C91.2153 67.7336 91.407 67.9636 91.5642 68.2473C91.7252 68.5272 91.8478 68.8664 91.9322 69.2651C92.0165 69.66 92.0587 70.12 92.0587 70.6452ZM90.6729 72.2093V70.4382C90.6729 70.1047 90.6537 69.8114 90.6154 69.5584C90.577 69.3015 90.5195 69.0849 90.4429 68.9086C90.37 68.7284 90.278 68.5827 90.1668 68.4716C90.0557 68.3566 89.9292 68.2741 89.7873 68.2243C89.6455 68.1706 89.4864 68.1438 89.31 68.1438C89.0954 68.1438 88.9037 68.186 88.735 68.2703C88.5663 68.3508 88.4245 68.4812 88.3095 68.6613C88.1945 68.8415 88.1063 69.0792 88.045 69.3744C87.9875 69.6657 87.9587 70.0203 87.9587 70.4382V72.2093C87.9587 72.5466 87.9779 72.8437 88.0162 73.1006C88.0546 73.3574 88.1121 73.5779 88.1887 73.7619C88.2654 73.942 88.3574 74.0915 88.4647 74.2104C88.5759 74.3254 88.7024 74.4097 88.8443 74.4634C88.9899 74.5171 89.149 74.5439 89.3215 74.5439C89.5401 74.5439 89.7336 74.5017 89.9023 74.4174C90.071 74.3331 90.2128 74.1989 90.3278 74.0149C90.4429 73.827 90.5291 73.5836 90.5866 73.2846C90.6441 72.9856 90.6729 72.6271 90.6729 72.2093Z" fill="black" fill-opacity="0.87"/>
<path d="M95.0449 71.1092V70.7993C95.0449 70.5766 95.0932 70.374 95.1898 70.1915C95.2864 70.009 95.4273 69.8628 95.6124 69.7527C95.7976 69.6427 96.0203 69.5877 96.2806 69.5877C96.5489 69.5877 96.7744 69.6427 96.9568 69.7527C97.142 69.8628 97.2829 70.009 97.3795 70.1915C97.4761 70.374 97.5244 70.5766 97.5244 70.7993V71.1092C97.5244 71.3266 97.4761 71.5265 97.3795 71.709C97.2856 71.8915 97.146 72.0377 96.9609 72.1477C96.7784 72.2578 96.5543 72.3128 96.2886 72.3128C96.0257 72.3128 95.8003 72.2578 95.6124 72.1477C95.4273 72.0377 95.2864 71.8915 95.1898 71.709C95.0932 71.5265 95.0449 71.3266 95.0449 71.1092ZM95.7171 70.7993V71.1092C95.7171 71.2166 95.7372 71.3186 95.7774 71.4152C95.8204 71.5118 95.8848 71.5896 95.9707 71.6486C96.0565 71.7077 96.1625 71.7372 96.2886 71.7372C96.4175 71.7372 96.5221 71.7077 96.6026 71.6486C96.6858 71.5896 96.7475 71.5118 96.7878 71.4152C96.828 71.3186 96.8482 71.2166 96.8482 71.1092V70.7993C96.8482 70.6893 96.8267 70.586 96.7838 70.4894C96.7435 70.3901 96.6818 70.3109 96.5986 70.2519C96.5154 70.1928 96.4094 70.1633 96.2806 70.1633C96.1572 70.1633 96.0525 70.1928 95.9666 70.2519C95.8834 70.3109 95.8204 70.3901 95.7774 70.4894C95.7372 70.586 95.7171 70.6893 95.7171 70.7993ZM97.8706 74.4099V74.096C97.8706 73.8759 97.9189 73.6746 98.0155 73.4922C98.1148 73.3097 98.257 73.1634 98.4421 73.0534C98.6273 72.9434 98.85 72.8884 99.1103 72.8884C99.3787 72.8884 99.6041 72.9434 99.7866 73.0534C99.9717 73.1634 100.111 73.3097 100.205 73.4922C100.302 73.6746 100.35 73.8759 100.35 74.096V74.4099C100.35 74.63 100.302 74.8312 100.205 75.0137C100.111 75.1962 99.9731 75.3424 99.7906 75.4525C99.6081 75.5625 99.3854 75.6175 99.1224 75.6175C98.8567 75.6175 98.63 75.5625 98.4421 75.4525C98.257 75.3424 98.1148 75.1962 98.0155 75.0137C97.9189 74.8312 97.8706 74.63 97.8706 74.4099ZM98.5468 74.096V74.4099C98.5468 74.5173 98.5683 74.6192 98.6112 74.7158C98.6568 74.8124 98.7226 74.8916 98.8084 74.9533C98.8943 75.0124 98.9976 75.0419 99.1184 75.0419C99.2552 75.0419 99.3653 75.0124 99.4484 74.9533C99.5316 74.8916 99.5907 74.8138 99.6256 74.7199C99.6631 74.6233 99.6819 74.5199 99.6819 74.4099V74.096C99.6819 73.9859 99.6604 73.8826 99.6175 73.786C99.5773 73.6894 99.5142 73.6116 99.4283 73.5525C99.3451 73.4935 99.2391 73.464 99.1103 73.464C98.9842 73.464 98.8796 73.4935 98.7964 73.5525C98.7132 73.6116 98.6501 73.6894 98.6072 73.786C98.5669 73.8826 98.5468 73.9859 98.5468 74.096ZM99.3518 70.5095L96.4899 75.0902L95.9948 74.8044L98.8567 70.2237L99.3518 70.5095Z" fill="black" fill-opacity="0.87"/>
</g>
</g>
<defs>
<filter id="filter0_d_2675_142297" x="0.78934" y="0.64467" width="125.421" height="125.421" filterUnits="userSpaceOnUse" color-interpolation-filters="sRGB">
<feFlood flood-opacity="0" result="BackgroundImageFix"/>
<feColorMatrix in="SourceAlpha" type="matrix" values="0 0 0 0 0 0 0 0 0 0 0 0 0 0 0 0 0 0 127 0" result="hardAlpha"/>
<feOffset dy="2.35533"/>
<feGaussianBlur stdDeviation="2.35533"/>
<feComposite in2="hardAlpha" operator="out"/>
<feColorMatrix type="matrix" values="0 0 0 0 0 0 0 0 0 0 0 0 0 0 0 0 0 0 0.04 0"/>
<feBlend mode="normal" in2="BackgroundImageFix" result="effect1_dropShadow_2675_142297"/>
<feBlend mode="normal" in="SourceGraphic" in2="effect1_dropShadow_2675_142297" result="shape"/>
</filter>
<filter id="filter1_b_2675_142297" x="9.03292" y="6.53292" width="108.934" height="108.934" filterUnits="userSpaceOnUse" color-interpolation-filters="sRGB">
<feFlood flood-opacity="0" result="BackgroundImageFix"/>
<feGaussianBlur in="BackgroundImageFix" stdDeviation="1.7665"/>
<feComposite in2="SourceAlpha" operator="in" result="effect1_backgroundBlur_2675_142297"/>
<feBlend mode="normal" in="SourceGraphic" in2="effect1_backgroundBlur_2675_142297" result="shape"/>
</filter>
<filter id="filter2_b_2675_142297" x="61.8657" y="56.2893" width="50.3756" height="31.4874" filterUnits="userSpaceOnUse" color-interpolation-filters="sRGB">
<feFlood flood-opacity="0" result="BackgroundImageFix"/>
<feGaussianBlur in="BackgroundImageFix" stdDeviation="1.7665"/>
<feComposite in2="SourceAlpha" operator="in" result="effect1_backgroundBlur_2675_142297"/>
<feBlend mode="normal" in="SourceGraphic" in2="effect1_backgroundBlur_2675_142297" result="shape"/>
</filter>
</defs>
</svg>
