<svg width="255" height="76" viewBox="0 0 255 76" fill="none" xmlns="http://www.w3.org/2000/svg">
<g filter="url(#filter0_d_4034_105585)">
<rect x="8.66406" y="4.5" width="238" height="59" rx="4" fill="white" shape-rendering="crispEdges"/>
<path d="M69.3047 36.0703C69.3047 35.8359 69.2682 35.6276 69.1953 35.4453C69.1276 35.263 69.0052 35.0964 68.8281 34.9453C68.651 34.7943 68.401 34.6484 68.0781 34.5078C67.7604 34.362 67.3542 34.2135 66.8594 34.0625C66.3177 33.8958 65.8177 33.7109 65.3594 33.5078C64.9062 33.2995 64.5104 33.0599 64.1719 32.7891C63.8333 32.513 63.5703 32.1979 63.3828 31.8438C63.1953 31.4844 63.1016 31.0703 63.1016 30.6016C63.1016 30.138 63.1979 29.7161 63.3906 29.3359C63.5885 28.9557 63.8672 28.6276 64.2266 28.3516C64.5911 28.0703 65.0208 27.8542 65.5156 27.7031C66.0104 27.5469 66.5573 27.4688 67.1562 27.4688C68 27.4688 68.7266 27.625 69.3359 27.9375C69.9505 28.25 70.4219 28.6693 70.75 29.1953C71.0833 29.7214 71.25 30.3021 71.25 30.9375H69.3047C69.3047 30.5625 69.224 30.2318 69.0625 29.9453C68.9062 29.6536 68.6667 29.4245 68.3438 29.2578C68.026 29.0911 67.6224 29.0078 67.1328 29.0078C66.6693 29.0078 66.2839 29.0781 65.9766 29.2188C65.6693 29.3594 65.4401 29.5495 65.2891 29.7891C65.138 30.0286 65.0625 30.2995 65.0625 30.6016C65.0625 30.8151 65.112 31.0104 65.2109 31.1875C65.3099 31.3594 65.4609 31.5208 65.6641 31.6719C65.8672 31.8177 66.1224 31.9557 66.4297 32.0859C66.737 32.2161 67.099 32.3411 67.5156 32.4609C68.1458 32.6484 68.6953 32.8568 69.1641 33.0859C69.6328 33.3099 70.0234 33.5651 70.3359 33.8516C70.6484 34.138 70.8828 34.4635 71.0391 34.8281C71.1953 35.1875 71.2734 35.5964 71.2734 36.0547C71.2734 36.5339 71.1771 36.9661 70.9844 37.3516C70.7917 37.7318 70.5156 38.0573 70.1562 38.3281C69.8021 38.5938 69.375 38.7995 68.875 38.9453C68.3802 39.0859 67.8281 39.1562 67.2188 39.1562C66.6719 39.1562 66.1328 39.0833 65.6016 38.9375C65.0755 38.7917 64.5964 38.5703 64.1641 38.2734C63.7318 37.9714 63.388 37.5964 63.1328 37.1484C62.8776 36.6953 62.75 36.1667 62.75 35.5625H64.7109C64.7109 35.9323 64.7734 36.2474 64.8984 36.5078C65.0286 36.7682 65.2083 36.9818 65.4375 37.1484C65.6667 37.3099 65.9323 37.4297 66.2344 37.5078C66.5417 37.5859 66.8698 37.625 67.2188 37.625C67.6771 37.625 68.0599 37.5599 68.3672 37.4297C68.6797 37.2995 68.9141 37.1172 69.0703 36.8828C69.2266 36.6484 69.3047 36.3776 69.3047 36.0703ZM75.3672 37.125L77.3203 30.5469H78.5234L78.1953 32.5156L76.2266 39H75.1484L75.3672 37.125ZM74.2188 30.5469L75.7422 37.1562L75.8672 39H74.6641L72.375 30.5469H74.2188ZM80.3516 37.0781L81.8281 30.5469H83.6641L81.3828 39H80.1797L80.3516 37.0781ZM78.7266 30.5469L80.6562 37.0469L80.8984 39H79.8203L77.8281 32.5078L77.5 30.5469H78.7266ZM87.2109 30.5469V39H85.3203V30.5469H87.2109ZM85.1953 28.3281C85.1953 28.0417 85.2891 27.8047 85.4766 27.6172C85.6693 27.4245 85.9349 27.3281 86.2734 27.3281C86.6068 27.3281 86.8698 27.4245 87.0625 27.6172C87.2552 27.8047 87.3516 28.0417 87.3516 28.3281C87.3516 28.6094 87.2552 28.8438 87.0625 29.0312C86.8698 29.2188 86.6068 29.3125 86.2734 29.3125C85.9349 29.3125 85.6693 29.2188 85.4766 29.0312C85.2891 28.8438 85.1953 28.6094 85.1953 28.3281ZM93.3984 30.5469V31.9219H88.6328V30.5469H93.3984ZM90.0078 28.4766H91.8906V36.6641C91.8906 36.9245 91.9271 37.125 92 37.2656C92.0781 37.401 92.1849 37.4922 92.3203 37.5391C92.4557 37.5859 92.6146 37.6094 92.7969 37.6094C92.9271 37.6094 93.0521 37.6016 93.1719 37.5859C93.2917 37.5703 93.388 37.5547 93.4609 37.5391L93.4688 38.9766C93.3125 39.0234 93.1302 39.0651 92.9219 39.1016C92.7188 39.138 92.4844 39.1562 92.2188 39.1562C91.7865 39.1562 91.4036 39.0807 91.0703 38.9297C90.737 38.7734 90.4766 38.5208 90.2891 38.1719C90.1016 37.8229 90.0078 37.3594 90.0078 36.7812V28.4766ZM98.5547 37.6562C98.862 37.6562 99.138 37.5964 99.3828 37.4766C99.6328 37.3516 99.8333 37.1797 99.9844 36.9609C100.141 36.7422 100.227 36.4896 100.242 36.2031H102.016C102.005 36.75 101.844 37.2474 101.531 37.6953C101.219 38.1432 100.805 38.5 100.289 38.7656C99.7734 39.026 99.2031 39.1562 98.5781 39.1562C97.9323 39.1562 97.3698 39.0469 96.8906 38.8281C96.4115 38.6042 96.013 38.2969 95.6953 37.9062C95.3776 37.5156 95.138 37.0651 94.9766 36.5547C94.8203 36.0443 94.7422 35.4974 94.7422 34.9141V34.6406C94.7422 34.0573 94.8203 33.5104 94.9766 33C95.138 32.4844 95.3776 32.0312 95.6953 31.6406C96.013 31.25 96.4115 30.9453 96.8906 30.7266C97.3698 30.5026 97.9297 30.3906 98.5703 30.3906C99.2474 30.3906 99.8411 30.526 100.352 30.7969C100.862 31.0625 101.263 31.4349 101.555 31.9141C101.852 32.388 102.005 32.9401 102.016 33.5703H100.242C100.227 33.2578 100.148 32.9766 100.008 32.7266C99.8724 32.4714 99.6797 32.2682 99.4297 32.1172C99.1849 31.9661 98.8906 31.8906 98.5469 31.8906C98.1667 31.8906 97.8516 31.9688 97.6016 32.125C97.3516 32.276 97.1562 32.4844 97.0156 32.75C96.875 33.0104 96.7734 33.3047 96.7109 33.6328C96.6536 33.9557 96.625 34.2917 96.625 34.6406V34.9141C96.625 35.263 96.6536 35.6016 96.7109 35.9297C96.7682 36.2578 96.8672 36.5521 97.0078 36.8125C97.1536 37.0677 97.3516 37.2734 97.6016 37.4297C97.8516 37.5807 98.1693 37.6562 98.5547 37.6562ZM105.57 27V39H103.695V27H105.57ZM105.242 34.4609L104.633 34.4531C104.638 33.8698 104.719 33.3307 104.875 32.8359C105.036 32.3411 105.26 31.9115 105.547 31.5469C105.839 31.1771 106.188 30.8932 106.594 30.6953C107 30.4922 107.451 30.3906 107.945 30.3906C108.362 30.3906 108.737 30.4479 109.07 30.5625C109.409 30.6771 109.701 30.862 109.945 31.1172C110.19 31.3672 110.375 31.6953 110.5 32.1016C110.63 32.5026 110.695 32.9922 110.695 33.5703V39H108.805V33.5547C108.805 33.1484 108.745 32.8255 108.625 32.5859C108.51 32.3464 108.341 32.1745 108.117 32.0703C107.893 31.9609 107.62 31.9062 107.297 31.9062C106.958 31.9062 106.659 31.974 106.398 32.1094C106.143 32.2448 105.93 32.4297 105.758 32.6641C105.586 32.8984 105.456 33.1693 105.367 33.4766C105.284 33.7839 105.242 34.112 105.242 34.4609Z" fill="black" fill-opacity="0.76"/>
<path d="M130.242 32.9531V33.6719C130.242 34.526 130.135 35.2917 129.922 35.9688C129.708 36.6458 129.401 37.2214 129 37.6953C128.599 38.1693 128.117 38.5312 127.555 38.7812C126.997 39.0312 126.372 39.1562 125.68 39.1562C125.008 39.1562 124.391 39.0312 123.828 38.7812C123.271 38.5312 122.786 38.1693 122.375 37.6953C121.969 37.2214 121.654 36.6458 121.43 35.9688C121.206 35.2917 121.094 34.526 121.094 33.6719V32.9531C121.094 32.099 121.203 31.3359 121.422 30.6641C121.646 29.987 121.961 29.4115 122.367 28.9375C122.773 28.4583 123.255 28.0938 123.812 27.8438C124.375 27.5938 124.992 27.4688 125.664 27.4688C126.357 27.4688 126.982 27.5938 127.539 27.8438C128.102 28.0938 128.583 28.4583 128.984 28.9375C129.391 29.4115 129.701 29.987 129.914 30.6641C130.133 31.3359 130.242 32.099 130.242 32.9531ZM128.75 33.6719V32.9375C128.75 32.2604 128.68 31.6615 128.539 31.1406C128.404 30.6198 128.203 30.1823 127.938 29.8281C127.672 29.474 127.346 29.2057 126.961 29.0234C126.581 28.8411 126.148 28.75 125.664 28.75C125.195 28.75 124.771 28.8411 124.391 29.0234C124.016 29.2057 123.693 29.474 123.422 29.8281C123.156 30.1823 122.951 30.6198 122.805 31.1406C122.659 31.6615 122.586 32.2604 122.586 32.9375V33.6719C122.586 34.3542 122.659 34.9583 122.805 35.4844C122.951 36.0052 123.159 36.4453 123.43 36.8047C123.706 37.1589 124.031 37.4271 124.406 37.6094C124.786 37.7917 125.211 37.8828 125.68 37.8828C126.169 37.8828 126.604 37.7917 126.984 37.6094C127.365 37.4271 127.685 37.1589 127.945 36.8047C128.211 36.4453 128.411 36.0052 128.547 35.4844C128.682 34.9583 128.75 34.3542 128.75 33.6719ZM134.587 39H133.142V29.6562C133.142 29.0469 133.252 28.5339 133.47 28.1172C133.694 27.6953 134.015 27.3776 134.431 27.1641C134.848 26.9453 135.343 26.8359 135.916 26.8359C136.082 26.8359 136.249 26.8464 136.416 26.8672C136.587 26.888 136.754 26.9193 136.916 26.9609L136.837 28.1406C136.728 28.1146 136.603 28.0964 136.462 28.0859C136.327 28.0755 136.192 28.0703 136.056 28.0703C135.749 28.0703 135.483 28.1328 135.259 28.2578C135.041 28.3776 134.874 28.5547 134.759 28.7891C134.645 29.0234 134.587 29.3125 134.587 29.6562V39ZM136.384 30.5469V31.6562H131.806V30.5469H136.384ZM140.3 39H138.855V29.6562C138.855 29.0469 138.964 28.5339 139.183 28.1172C139.407 27.6953 139.727 27.3776 140.144 27.1641C140.56 26.9453 141.055 26.8359 141.628 26.8359C141.795 26.8359 141.961 26.8464 142.128 26.8672C142.3 26.888 142.467 26.9193 142.628 26.9609L142.55 28.1406C142.441 28.1146 142.316 28.0964 142.175 28.0859C142.04 28.0755 141.904 28.0703 141.769 28.0703C141.461 28.0703 141.196 28.1328 140.972 28.2578C140.753 28.3776 140.586 28.5547 140.472 28.7891C140.357 29.0234 140.3 29.3125 140.3 29.6562V39ZM142.097 30.5469V31.6562H137.519V30.5469H142.097Z" fill="black" fill-opacity="0.38"/>
<rect x="151.164" y="23" width="42" height="22" rx="11" fill="#5469FF"/>
<circle cx="182.164" cy="34" r="9" fill="white"/>
</g>
<defs>
<filter id="filter0_d_4034_105585" x="0.664062" y="0.5" width="254" height="75" filterUnits="userSpaceOnUse" color-interpolation-filters="sRGB">
<feFlood flood-opacity="0" result="BackgroundImageFix"/>
<feColorMatrix in="SourceAlpha" type="matrix" values="0 0 0 0 0 0 0 0 0 0 0 0 0 0 0 0 0 0 127 0" result="hardAlpha"/>
<feOffset dy="4"/>
<feGaussianBlur stdDeviation="4"/>
<feComposite in2="hardAlpha" operator="out"/>
<feColorMatrix type="matrix" values="0 0 0 0 0 0 0 0 0 0 0 0 0 0 0 0 0 0 0.04 0"/>
<feBlend mode="normal" in2="BackgroundImageFix" result="effect1_dropShadow_4034_105585"/>
<feBlend mode="normal" in="SourceGraphic" in2="effect1_dropShadow_4034_105585" result="shape"/>
</filter>
</defs>
</svg>
