<svg width="254" height="76" viewBox="0 0 254 76" fill="none" xmlns="http://www.w3.org/2000/svg">
<g filter="url(#filter0_d_4034_105562)">
<rect x="8" y="4.5" width="238" height="59" rx="4" fill="white" shape-rendering="crispEdges"/>
<path d="M42.0781 32.9531V33.6719C42.0781 34.526 41.9714 35.2917 41.7578 35.9688C41.5443 36.6458 41.237 37.2214 40.8359 37.6953C40.4349 38.1693 39.9531 38.5312 39.3906 38.7812C38.8333 39.0312 38.2083 39.1562 37.5156 39.1562C36.8438 39.1562 36.2266 39.0312 35.6641 38.7812C35.1068 38.5312 34.6224 38.1693 34.2109 37.6953C33.8047 37.2214 33.4896 36.6458 33.2656 35.9688C33.0417 35.2917 32.9297 34.526 32.9297 33.6719V32.9531C32.9297 32.099 33.0391 31.3359 33.2578 30.6641C33.4818 29.987 33.7969 29.4115 34.2031 28.9375C34.6094 28.4583 35.0911 28.0938 35.6484 27.8438C36.2109 27.5938 36.8281 27.4688 37.5 27.4688C38.1927 27.4688 38.8177 27.5938 39.375 27.8438C39.9375 28.0938 40.4193 28.4583 40.8203 28.9375C41.2266 29.4115 41.5365 29.987 41.75 30.6641C41.9688 31.3359 42.0781 32.099 42.0781 32.9531ZM40.5859 33.6719V32.9375C40.5859 32.2604 40.5156 31.6615 40.375 31.1406C40.2396 30.6198 40.0391 30.1823 39.7734 29.8281C39.5078 29.474 39.1823 29.2057 38.7969 29.0234C38.4167 28.8411 37.9844 28.75 37.5 28.75C37.0312 28.75 36.6068 28.8411 36.2266 29.0234C35.8516 29.2057 35.5286 29.474 35.2578 29.8281C34.9922 30.1823 34.7865 30.6198 34.6406 31.1406C34.4948 31.6615 34.4219 32.2604 34.4219 32.9375V33.6719C34.4219 34.3542 34.4948 34.9583 34.6406 35.4844C34.7865 36.0052 34.9948 36.4453 35.2656 36.8047C35.5417 37.1589 35.8672 37.4271 36.2422 37.6094C36.6224 37.7917 37.0469 37.8828 37.5156 37.8828C38.0052 37.8828 38.4401 37.7917 38.8203 37.6094C39.2005 37.4271 39.5208 37.1589 39.7812 36.8047C40.0469 36.4453 40.2474 36.0052 40.3828 35.4844C40.5182 34.9583 40.5859 34.3542 40.5859 33.6719ZM46.4234 39H44.9781V29.6562C44.9781 29.0469 45.0875 28.5339 45.3062 28.1172C45.5302 27.6953 45.8505 27.3776 46.2672 27.1641C46.6839 26.9453 47.1786 26.8359 47.7516 26.8359C47.9182 26.8359 48.0849 26.8464 48.2516 26.8672C48.4234 26.888 48.5901 26.9193 48.7516 26.9609L48.6734 28.1406C48.5641 28.1146 48.4391 28.0964 48.2984 28.0859C48.163 28.0755 48.0276 28.0703 47.8922 28.0703C47.5849 28.0703 47.3193 28.1328 47.0953 28.2578C46.8766 28.3776 46.7099 28.5547 46.5953 28.7891C46.4807 29.0234 46.4234 29.3125 46.4234 29.6562V39ZM48.2203 30.5469V31.6562H43.6422V30.5469H48.2203ZM52.1359 39H50.6906V29.6562C50.6906 29.0469 50.8 28.5339 51.0187 28.1172C51.2427 27.6953 51.563 27.3776 51.9797 27.1641C52.3964 26.9453 52.8911 26.8359 53.4641 26.8359C53.6307 26.8359 53.7974 26.8464 53.9641 26.8672C54.1359 26.888 54.3026 26.9193 54.4641 26.9609L54.3859 28.1406C54.2766 28.1146 54.1516 28.0964 54.0109 28.0859C53.8755 28.0755 53.7401 28.0703 53.6047 28.0703C53.2974 28.0703 53.0318 28.1328 52.8078 28.2578C52.5891 28.3776 52.4224 28.5547 52.3078 28.7891C52.1932 29.0234 52.1359 29.3125 52.1359 29.6562V39ZM53.9328 30.5469V31.6562H49.3547V30.5469H53.9328Z" fill="black" fill-opacity="0.38"/>
<rect x="63" y="23" width="42" height="22" rx="11" fill="#5469FF"/>
<circle cx="94" cy="34" r="9" fill="white"/>
<path d="M120.141 36.0703C120.141 35.8359 120.104 35.6276 120.031 35.4453C119.964 35.263 119.841 35.0964 119.664 34.9453C119.487 34.7943 119.237 34.6484 118.914 34.5078C118.596 34.362 118.19 34.2135 117.695 34.0625C117.154 33.8958 116.654 33.7109 116.195 33.5078C115.742 33.2995 115.346 33.0599 115.008 32.7891C114.669 32.513 114.406 32.1979 114.219 31.8438C114.031 31.4844 113.938 31.0703 113.938 30.6016C113.938 30.138 114.034 29.7161 114.227 29.3359C114.424 28.9557 114.703 28.6276 115.062 28.3516C115.427 28.0703 115.857 27.8542 116.352 27.7031C116.846 27.5469 117.393 27.4688 117.992 27.4688C118.836 27.4688 119.562 27.625 120.172 27.9375C120.786 28.25 121.258 28.6693 121.586 29.1953C121.919 29.7214 122.086 30.3021 122.086 30.9375H120.141C120.141 30.5625 120.06 30.2318 119.898 29.9453C119.742 29.6536 119.503 29.4245 119.18 29.2578C118.862 29.0911 118.458 29.0078 117.969 29.0078C117.505 29.0078 117.12 29.0781 116.812 29.2188C116.505 29.3594 116.276 29.5495 116.125 29.7891C115.974 30.0286 115.898 30.2995 115.898 30.6016C115.898 30.8151 115.948 31.0104 116.047 31.1875C116.146 31.3594 116.297 31.5208 116.5 31.6719C116.703 31.8177 116.958 31.9557 117.266 32.0859C117.573 32.2161 117.935 32.3411 118.352 32.4609C118.982 32.6484 119.531 32.8568 120 33.0859C120.469 33.3099 120.859 33.5651 121.172 33.8516C121.484 34.138 121.719 34.4635 121.875 34.8281C122.031 35.1875 122.109 35.5964 122.109 36.0547C122.109 36.5339 122.013 36.9661 121.82 37.3516C121.628 37.7318 121.352 38.0573 120.992 38.3281C120.638 38.5938 120.211 38.7995 119.711 38.9453C119.216 39.0859 118.664 39.1562 118.055 39.1562C117.508 39.1562 116.969 39.0833 116.438 38.9375C115.911 38.7917 115.432 38.5703 115 38.2734C114.568 37.9714 114.224 37.5964 113.969 37.1484C113.714 36.6953 113.586 36.1667 113.586 35.5625H115.547C115.547 35.9323 115.609 36.2474 115.734 36.5078C115.865 36.7682 116.044 36.9818 116.273 37.1484C116.503 37.3099 116.768 37.4297 117.07 37.5078C117.378 37.5859 117.706 37.625 118.055 37.625C118.513 37.625 118.896 37.5599 119.203 37.4297C119.516 37.2995 119.75 37.1172 119.906 36.8828C120.062 36.6484 120.141 36.3776 120.141 36.0703ZM126.203 37.125L128.156 30.5469H129.359L129.031 32.5156L127.062 39H125.984L126.203 37.125ZM125.055 30.5469L126.578 37.1562L126.703 39H125.5L123.211 30.5469H125.055ZM131.188 37.0781L132.664 30.5469H134.5L132.219 39H131.016L131.188 37.0781ZM129.562 30.5469L131.492 37.0469L131.734 39H130.656L128.664 32.5078L128.336 30.5469H129.562ZM138.047 30.5469V39H136.156V30.5469H138.047ZM136.031 28.3281C136.031 28.0417 136.125 27.8047 136.312 27.6172C136.505 27.4245 136.771 27.3281 137.109 27.3281C137.443 27.3281 137.706 27.4245 137.898 27.6172C138.091 27.8047 138.188 28.0417 138.188 28.3281C138.188 28.6094 138.091 28.8438 137.898 29.0312C137.706 29.2188 137.443 29.3125 137.109 29.3125C136.771 29.3125 136.505 29.2188 136.312 29.0312C136.125 28.8438 136.031 28.6094 136.031 28.3281ZM144.234 30.5469V31.9219H139.469V30.5469H144.234ZM140.844 28.4766H142.727V36.6641C142.727 36.9245 142.763 37.125 142.836 37.2656C142.914 37.401 143.021 37.4922 143.156 37.5391C143.292 37.5859 143.451 37.6094 143.633 37.6094C143.763 37.6094 143.888 37.6016 144.008 37.5859C144.128 37.5703 144.224 37.5547 144.297 37.5391L144.305 38.9766C144.148 39.0234 143.966 39.0651 143.758 39.1016C143.555 39.138 143.32 39.1562 143.055 39.1562C142.622 39.1562 142.24 39.0807 141.906 38.9297C141.573 38.7734 141.312 38.5208 141.125 38.1719C140.938 37.8229 140.844 37.3594 140.844 36.7812V28.4766ZM149.391 37.6562C149.698 37.6562 149.974 37.5964 150.219 37.4766C150.469 37.3516 150.669 37.1797 150.82 36.9609C150.977 36.7422 151.062 36.4896 151.078 36.2031H152.852C152.841 36.75 152.68 37.2474 152.367 37.6953C152.055 38.1432 151.641 38.5 151.125 38.7656C150.609 39.026 150.039 39.1562 149.414 39.1562C148.768 39.1562 148.206 39.0469 147.727 38.8281C147.247 38.6042 146.849 38.2969 146.531 37.9062C146.214 37.5156 145.974 37.0651 145.812 36.5547C145.656 36.0443 145.578 35.4974 145.578 34.9141V34.6406C145.578 34.0573 145.656 33.5104 145.812 33C145.974 32.4844 146.214 32.0312 146.531 31.6406C146.849 31.25 147.247 30.9453 147.727 30.7266C148.206 30.5026 148.766 30.3906 149.406 30.3906C150.083 30.3906 150.677 30.526 151.188 30.7969C151.698 31.0625 152.099 31.4349 152.391 31.9141C152.688 32.388 152.841 32.9401 152.852 33.5703H151.078C151.062 33.2578 150.984 32.9766 150.844 32.7266C150.708 32.4714 150.516 32.2682 150.266 32.1172C150.021 31.9661 149.727 31.8906 149.383 31.8906C149.003 31.8906 148.688 31.9688 148.438 32.125C148.188 32.276 147.992 32.4844 147.852 32.75C147.711 33.0104 147.609 33.3047 147.547 33.6328C147.49 33.9557 147.461 34.2917 147.461 34.6406V34.9141C147.461 35.263 147.49 35.6016 147.547 35.9297C147.604 36.2578 147.703 36.5521 147.844 36.8125C147.99 37.0677 148.188 37.2734 148.438 37.4297C148.688 37.5807 149.005 37.6562 149.391 37.6562ZM156.406 27V39H154.531V27H156.406ZM156.078 34.4609L155.469 34.4531C155.474 33.8698 155.555 33.3307 155.711 32.8359C155.872 32.3411 156.096 31.9115 156.383 31.5469C156.674 31.1771 157.023 30.8932 157.43 30.6953C157.836 30.4922 158.286 30.3906 158.781 30.3906C159.198 30.3906 159.573 30.4479 159.906 30.5625C160.245 30.6771 160.536 30.862 160.781 31.1172C161.026 31.3672 161.211 31.6953 161.336 32.1016C161.466 32.5026 161.531 32.9922 161.531 33.5703V39H159.641V33.5547C159.641 33.1484 159.581 32.8255 159.461 32.5859C159.346 32.3464 159.177 32.1745 158.953 32.0703C158.729 31.9609 158.456 31.9062 158.133 31.9062C157.794 31.9062 157.495 31.974 157.234 32.1094C156.979 32.2448 156.766 32.4297 156.594 32.6641C156.422 32.8984 156.292 33.1693 156.203 33.4766C156.12 33.7839 156.078 34.112 156.078 34.4609Z" fill="black" fill-opacity="0.76"/>
</g>
<defs>
<filter id="filter0_d_4034_105562" x="0" y="0.5" width="254" height="75" filterUnits="userSpaceOnUse" color-interpolation-filters="sRGB">
<feFlood flood-opacity="0" result="BackgroundImageFix"/>
<feColorMatrix in="SourceAlpha" type="matrix" values="0 0 0 0 0 0 0 0 0 0 0 0 0 0 0 0 0 0 127 0" result="hardAlpha"/>
<feOffset dy="4"/>
<feGaussianBlur stdDeviation="4"/>
<feComposite in2="hardAlpha" operator="out"/>
<feColorMatrix type="matrix" values="0 0 0 0 0 0 0 0 0 0 0 0 0 0 0 0 0 0 0.04 0"/>
<feBlend mode="normal" in2="BackgroundImageFix" result="effect1_dropShadow_4034_105562"/>
<feBlend mode="normal" in="SourceGraphic" in2="effect1_dropShadow_4034_105562" result="shape"/>
</filter>
</defs>
</svg>
