<svg width="255" height="76" viewBox="0 0 255 76" fill="none" xmlns="http://www.w3.org/2000/svg">
<g filter="url(#filter0_d_4034_105539)">
<rect x="8.33203" y="4.5" width="238" height="59" rx="4" fill="white" shape-rendering="crispEdges"/>
<path d="M39.4727 36.0703C39.4727 35.8359 39.4362 35.6276 39.3633 35.4453C39.2956 35.263 39.1732 35.0964 38.9961 34.9453C38.819 34.7943 38.569 34.6484 38.2461 34.5078C37.9284 34.362 37.5221 34.2135 37.0273 34.0625C36.4857 33.8958 35.9857 33.7109 35.5273 33.5078C35.0742 33.2995 34.6784 33.0599 34.3398 32.7891C34.0013 32.513 33.7383 32.1979 33.5508 31.8438C33.3633 31.4844 33.2695 31.0703 33.2695 30.6016C33.2695 30.138 33.3659 29.7161 33.5586 29.3359C33.7565 28.9557 34.0352 28.6276 34.3945 28.3516C34.7591 28.0703 35.1888 27.8542 35.6836 27.7031C36.1784 27.5469 36.7253 27.4688 37.3242 27.4688C38.168 27.4688 38.8945 27.625 39.5039 27.9375C40.1185 28.25 40.5898 28.6693 40.918 29.1953C41.2513 29.7214 41.418 30.3021 41.418 30.9375H39.4727C39.4727 30.5625 39.3919 30.2318 39.2305 29.9453C39.0742 29.6536 38.8346 29.4245 38.5117 29.2578C38.194 29.0911 37.7904 29.0078 37.3008 29.0078C36.8372 29.0078 36.4518 29.0781 36.1445 29.2188C35.8372 29.3594 35.6081 29.5495 35.457 29.7891C35.306 30.0286 35.2305 30.2995 35.2305 30.6016C35.2305 30.8151 35.2799 31.0104 35.3789 31.1875C35.4779 31.3594 35.6289 31.5208 35.832 31.6719C36.0352 31.8177 36.2904 31.9557 36.5977 32.0859C36.9049 32.2161 37.2669 32.3411 37.6836 32.4609C38.3138 32.6484 38.8633 32.8568 39.332 33.0859C39.8008 33.3099 40.1914 33.5651 40.5039 33.8516C40.8164 34.138 41.0508 34.4635 41.207 34.8281C41.3633 35.1875 41.4414 35.5964 41.4414 36.0547C41.4414 36.5339 41.3451 36.9661 41.1523 37.3516C40.9596 37.7318 40.6836 38.0573 40.3242 38.3281C39.9701 38.5938 39.543 38.7995 39.043 38.9453C38.5482 39.0859 37.9961 39.1562 37.3867 39.1562C36.8398 39.1562 36.3008 39.0833 35.7695 38.9375C35.2435 38.7917 34.7643 38.5703 34.332 38.2734C33.8997 37.9714 33.556 37.5964 33.3008 37.1484C33.0456 36.6953 32.918 36.1667 32.918 35.5625H34.8789C34.8789 35.9323 34.9414 36.2474 35.0664 36.5078C35.1966 36.7682 35.3763 36.9818 35.6055 37.1484C35.8346 37.3099 36.1003 37.4297 36.4023 37.5078C36.7096 37.5859 37.0378 37.625 37.3867 37.625C37.8451 37.625 38.2279 37.5599 38.5352 37.4297C38.8477 37.2995 39.082 37.1172 39.2383 36.8828C39.3945 36.6484 39.4727 36.3776 39.4727 36.0703ZM45.5352 37.125L47.4883 30.5469H48.6914L48.3633 32.5156L46.3945 39H45.3164L45.5352 37.125ZM44.3867 30.5469L45.9102 37.1562L46.0352 39H44.832L42.543 30.5469H44.3867ZM50.5195 37.0781L51.9961 30.5469H53.832L51.5508 39H50.3477L50.5195 37.0781ZM48.8945 30.5469L50.8242 37.0469L51.0664 39H49.9883L47.9961 32.5078L47.668 30.5469H48.8945ZM57.3789 30.5469V39H55.4883V30.5469H57.3789ZM55.3633 28.3281C55.3633 28.0417 55.457 27.8047 55.6445 27.6172C55.8372 27.4245 56.1029 27.3281 56.4414 27.3281C56.7747 27.3281 57.0378 27.4245 57.2305 27.6172C57.4232 27.8047 57.5195 28.0417 57.5195 28.3281C57.5195 28.6094 57.4232 28.8438 57.2305 29.0312C57.0378 29.2188 56.7747 29.3125 56.4414 29.3125C56.1029 29.3125 55.8372 29.2188 55.6445 29.0312C55.457 28.8438 55.3633 28.6094 55.3633 28.3281ZM63.5664 30.5469V31.9219H58.8008V30.5469H63.5664ZM60.1758 28.4766H62.0586V36.6641C62.0586 36.9245 62.0951 37.125 62.168 37.2656C62.2461 37.401 62.3529 37.4922 62.4883 37.5391C62.6237 37.5859 62.7826 37.6094 62.9648 37.6094C63.0951 37.6094 63.2201 37.6016 63.3398 37.5859C63.4596 37.5703 63.556 37.5547 63.6289 37.5391L63.6367 38.9766C63.4805 39.0234 63.2982 39.0651 63.0898 39.1016C62.8867 39.138 62.6523 39.1562 62.3867 39.1562C61.9544 39.1562 61.5716 39.0807 61.2383 38.9297C60.9049 38.7734 60.6445 38.5208 60.457 38.1719C60.2695 37.8229 60.1758 37.3594 60.1758 36.7812V28.4766ZM68.7227 37.6562C69.0299 37.6562 69.306 37.5964 69.5508 37.4766C69.8008 37.3516 70.0013 37.1797 70.1523 36.9609C70.3086 36.7422 70.3945 36.4896 70.4102 36.2031H72.1836C72.1732 36.75 72.0117 37.2474 71.6992 37.6953C71.3867 38.1432 70.9727 38.5 70.457 38.7656C69.9414 39.026 69.3711 39.1562 68.7461 39.1562C68.1003 39.1562 67.5378 39.0469 67.0586 38.8281C66.5794 38.6042 66.181 38.2969 65.8633 37.9062C65.5456 37.5156 65.306 37.0651 65.1445 36.5547C64.9883 36.0443 64.9102 35.4974 64.9102 34.9141V34.6406C64.9102 34.0573 64.9883 33.5104 65.1445 33C65.306 32.4844 65.5456 32.0312 65.8633 31.6406C66.181 31.25 66.5794 30.9453 67.0586 30.7266C67.5378 30.5026 68.0977 30.3906 68.7383 30.3906C69.4154 30.3906 70.0091 30.526 70.5195 30.7969C71.0299 31.0625 71.431 31.4349 71.7227 31.9141C72.0195 32.388 72.1732 32.9401 72.1836 33.5703H70.4102C70.3945 33.2578 70.3164 32.9766 70.1758 32.7266C70.0404 32.4714 69.8477 32.2682 69.5977 32.1172C69.3529 31.9661 69.0586 31.8906 68.7148 31.8906C68.3346 31.8906 68.0195 31.9688 67.7695 32.125C67.5195 32.276 67.3242 32.4844 67.1836 32.75C67.043 33.0104 66.9414 33.3047 66.8789 33.6328C66.8216 33.9557 66.793 34.2917 66.793 34.6406V34.9141C66.793 35.263 66.8216 35.6016 66.8789 35.9297C66.9362 36.2578 67.0352 36.5521 67.1758 36.8125C67.3216 37.0677 67.5195 37.2734 67.7695 37.4297C68.0195 37.5807 68.3372 37.6562 68.7227 37.6562ZM75.7383 27V39H73.8633V27H75.7383ZM75.4102 34.4609L74.8008 34.4531C74.806 33.8698 74.8867 33.3307 75.043 32.8359C75.2044 32.3411 75.4284 31.9115 75.7148 31.5469C76.0065 31.1771 76.3555 30.8932 76.7617 30.6953C77.168 30.4922 77.6185 30.3906 78.1133 30.3906C78.5299 30.3906 78.9049 30.4479 79.2383 30.5625C79.5768 30.6771 79.8685 30.862 80.1133 31.1172C80.3581 31.3672 80.543 31.6953 80.668 32.1016C80.7982 32.5026 80.8633 32.9922 80.8633 33.5703V39H78.9727V33.5547C78.9727 33.1484 78.9128 32.8255 78.793 32.5859C78.6784 32.3464 78.5091 32.1745 78.2852 32.0703C78.0612 31.9609 77.7878 31.9062 77.4648 31.9062C77.1263 31.9062 76.8268 31.974 76.5664 32.1094C76.3112 32.2448 76.0977 32.4297 75.9258 32.6641C75.7539 32.8984 75.6237 33.1693 75.5352 33.4766C75.4518 33.7839 75.4102 34.112 75.4102 34.4609Z" fill="black" fill-opacity="0.76"/>
<path d="M159.41 32.9531V33.6719C159.41 34.526 159.303 35.2917 159.09 35.9688C158.876 36.6458 158.569 37.2214 158.168 37.6953C157.767 38.1693 157.285 38.5312 156.723 38.7812C156.165 39.0312 155.54 39.1562 154.848 39.1562C154.176 39.1562 153.559 39.0312 152.996 38.7812C152.439 38.5312 151.954 38.1693 151.543 37.6953C151.137 37.2214 150.822 36.6458 150.598 35.9688C150.374 35.2917 150.262 34.526 150.262 33.6719V32.9531C150.262 32.099 150.371 31.3359 150.59 30.6641C150.814 29.987 151.129 29.4115 151.535 28.9375C151.941 28.4583 152.423 28.0938 152.98 27.8438C153.543 27.5938 154.16 27.4688 154.832 27.4688C155.525 27.4688 156.15 27.5938 156.707 27.8438C157.27 28.0938 157.751 28.4583 158.152 28.9375C158.559 29.4115 158.868 29.987 159.082 30.6641C159.301 31.3359 159.41 32.099 159.41 32.9531ZM157.918 33.6719V32.9375C157.918 32.2604 157.848 31.6615 157.707 31.1406C157.572 30.6198 157.371 30.1823 157.105 29.8281C156.84 29.474 156.514 29.2057 156.129 29.0234C155.749 28.8411 155.316 28.75 154.832 28.75C154.363 28.75 153.939 28.8411 153.559 29.0234C153.184 29.2057 152.861 29.474 152.59 29.8281C152.324 30.1823 152.118 30.6198 151.973 31.1406C151.827 31.6615 151.754 32.2604 151.754 32.9375V33.6719C151.754 34.3542 151.827 34.9583 151.973 35.4844C152.118 36.0052 152.327 36.4453 152.598 36.8047C152.874 37.1589 153.199 37.4271 153.574 37.6094C153.954 37.7917 154.379 37.8828 154.848 37.8828C155.337 37.8828 155.772 37.7917 156.152 37.6094C156.533 37.4271 156.853 37.1589 157.113 36.8047C157.379 36.4453 157.579 36.0052 157.715 35.4844C157.85 34.9583 157.918 34.3542 157.918 33.6719ZM163.755 39H162.31V29.6562C162.31 29.0469 162.42 28.5339 162.638 28.1172C162.862 27.6953 163.183 27.3776 163.599 27.1641C164.016 26.9453 164.511 26.8359 165.084 26.8359C165.25 26.8359 165.417 26.8464 165.584 26.8672C165.755 26.888 165.922 26.9193 166.084 26.9609L166.005 28.1406C165.896 28.1146 165.771 28.0964 165.63 28.0859C165.495 28.0755 165.36 28.0703 165.224 28.0703C164.917 28.0703 164.651 28.1328 164.427 28.2578C164.209 28.3776 164.042 28.5547 163.927 28.7891C163.813 29.0234 163.755 29.3125 163.755 29.6562V39ZM165.552 30.5469V31.6562H160.974V30.5469H165.552ZM169.468 39H168.023V29.6562C168.023 29.0469 168.132 28.5339 168.351 28.1172C168.575 27.6953 168.895 27.3776 169.312 27.1641C169.728 26.9453 170.223 26.8359 170.796 26.8359C170.963 26.8359 171.129 26.8464 171.296 26.8672C171.468 26.888 171.635 26.9193 171.796 26.9609L171.718 28.1406C171.609 28.1146 171.484 28.0964 171.343 28.0859C171.208 28.0755 171.072 28.0703 170.937 28.0703C170.629 28.0703 170.364 28.1328 170.14 28.2578C169.921 28.3776 169.754 28.5547 169.64 28.7891C169.525 29.0234 169.468 29.3125 169.468 29.6562V39ZM171.265 30.5469V31.6562H166.687V30.5469H171.265Z" fill="black" fill-opacity="0.38"/>
<rect x="180.332" y="23" width="42" height="22" rx="11" fill="#5469FF"/>
<circle cx="211.332" cy="34" r="9" fill="white"/>
</g>
<defs>
<filter id="filter0_d_4034_105539" x="0.332031" y="0.5" width="254" height="75" filterUnits="userSpaceOnUse" color-interpolation-filters="sRGB">
<feFlood flood-opacity="0" result="BackgroundImageFix"/>
<feColorMatrix in="SourceAlpha" type="matrix" values="0 0 0 0 0 0 0 0 0 0 0 0 0 0 0 0 0 0 127 0" result="hardAlpha"/>
<feOffset dy="4"/>
<feGaussianBlur stdDeviation="4"/>
<feComposite in2="hardAlpha" operator="out"/>
<feColorMatrix type="matrix" values="0 0 0 0 0 0 0 0 0 0 0 0 0 0 0 0 0 0 0.04 0"/>
<feBlend mode="normal" in2="BackgroundImageFix" result="effect1_dropShadow_4034_105539"/>
<feBlend mode="normal" in="SourceGraphic" in2="effect1_dropShadow_4034_105539" result="shape"/>
</filter>
</defs>
</svg>
