<svg width="158" height="129" viewBox="0 0 158 129" fill="none" xmlns="http://www.w3.org/2000/svg">
<g filter="url(#filter0_d_3420_69223)">
<rect x="5.3252" y="4" width="147.35" height="117" rx="1.7594" fill="white" shape-rendering="crispEdges"/>
<path d="M17.8437 20.797H16.775L16.7819 20.1132H17.8437C18.153 20.1132 18.4119 20.0456 18.6203 19.9104C18.8311 19.7753 18.9892 19.5817 19.0946 19.3297C19.2022 19.0777 19.2561 18.7776 19.2561 18.4294V18.1579C19.2561 17.8876 19.2251 17.6482 19.1633 17.4397C19.1037 17.2312 19.0144 17.056 18.8952 16.9139C18.7784 16.7719 18.6341 16.6642 18.4623 16.5909C18.2927 16.5176 18.0969 16.481 17.8747 16.481H16.7544V15.7937H17.8747C18.2068 15.7937 18.5104 15.8498 18.7853 15.9621C19.0602 16.072 19.2973 16.2313 19.4966 16.4397C19.6982 16.6482 19.8528 16.8979 19.9605 17.1889C20.0682 17.4798 20.122 17.8051 20.122 18.1648V18.4294C20.122 18.789 20.0682 19.1143 19.9605 19.4053C19.8528 19.6962 19.6982 19.9459 19.4966 20.1544C19.295 20.3606 19.0545 20.5198 18.775 20.6321C18.4978 20.742 18.1874 20.797 17.8437 20.797ZM17.2527 15.7937V20.797H16.3902V15.7937H17.2527ZM20.8574 18.9792V18.9001C20.8574 18.6321 20.8963 18.3836 20.9742 18.1545C21.0521 17.9231 21.1644 17.7226 21.311 17.5531C21.4599 17.3813 21.6409 17.2484 21.8539 17.1545C22.0693 17.0583 22.3121 17.0102 22.5824 17.0102C22.855 17.0102 23.0979 17.0583 23.3109 17.1545C23.5263 17.2484 23.7084 17.3813 23.8573 17.5531C24.0062 17.7226 24.1196 17.9231 24.1975 18.1545C24.2754 18.3836 24.3143 18.6321 24.3143 18.9001V18.9792C24.3143 19.2472 24.2754 19.4958 24.1975 19.7249C24.1196 19.954 24.0062 20.1544 23.8573 20.3262C23.7084 20.4957 23.5274 20.6286 23.3144 20.7248C23.1013 20.8188 22.8596 20.8657 22.5893 20.8657C22.3167 20.8657 22.0727 20.8188 21.8574 20.7248C21.6443 20.6286 21.4633 20.4957 21.3144 20.3262C21.1655 20.1544 21.0521 19.954 20.9742 19.7249C20.8963 19.4958 20.8574 19.2472 20.8574 18.9792ZM21.6855 18.9001V18.9792C21.6855 19.1464 21.7027 19.3045 21.7371 19.4534C21.7715 19.6023 21.8253 19.7329 21.8986 19.8451C21.9719 19.9574 22.0658 20.0456 22.1804 20.1097C22.2949 20.1739 22.4312 20.2059 22.5893 20.2059C22.7428 20.2059 22.8757 20.1739 22.9879 20.1097C23.1025 20.0456 23.1964 19.9574 23.2697 19.8451C23.343 19.7329 23.3968 19.6023 23.4312 19.4534C23.4679 19.3045 23.4862 19.1464 23.4862 18.9792V18.9001C23.4862 18.7352 23.4679 18.5794 23.4312 18.4328C23.3968 18.2839 23.3419 18.1522 23.2663 18.0376C23.1929 17.9231 23.099 17.8337 22.9845 17.7696C22.8722 17.7032 22.7382 17.6699 22.5824 17.6699C22.4266 17.6699 22.2915 17.7032 22.1769 17.7696C22.0647 17.8337 21.9719 17.9231 21.8986 18.0376C21.8253 18.1522 21.7715 18.2839 21.7371 18.4328C21.7027 18.5794 21.6855 18.7352 21.6855 18.9001ZM27.3555 19.9207V17.0789H28.1871V20.797H27.4036L27.3555 19.9207ZM27.4723 19.1476L27.7507 19.1407C27.7507 19.3904 27.7232 19.6206 27.6682 19.8314C27.6132 20.0399 27.5284 20.222 27.4139 20.3778C27.2994 20.5313 27.1527 20.6515 26.974 20.7386C26.7954 20.8233 26.5812 20.8657 26.3315 20.8657C26.1505 20.8657 25.9844 20.8394 25.8332 20.7867C25.682 20.734 25.5514 20.6527 25.4414 20.5427C25.3338 20.4327 25.2502 20.2896 25.1906 20.1132C25.131 19.9368 25.1013 19.726 25.1013 19.4809V17.0789H25.9294V19.4878C25.9294 19.6229 25.9454 19.7363 25.9775 19.828C26.0096 19.9173 26.0531 19.9895 26.1081 20.0444C26.1631 20.0994 26.2272 20.1384 26.3005 20.1613C26.3738 20.1842 26.4517 20.1956 26.5342 20.1956C26.7702 20.1956 26.9557 20.1498 27.0909 20.0582C27.2283 19.9643 27.3257 19.8383 27.383 19.6802C27.4425 19.5221 27.4723 19.3446 27.4723 19.1476ZM31.5272 17.0789H32.2797V20.6939C32.2797 21.0284 32.2087 21.3124 32.0667 21.5461C31.9246 21.7798 31.7265 21.9573 31.4722 22.0787C31.2179 22.2025 30.9235 22.2643 30.5891 22.2643C30.447 22.2643 30.289 22.2437 30.1149 22.2025C29.943 22.1612 29.7758 22.0948 29.6131 22.0031C29.4528 21.9138 29.3188 21.7958 29.2111 21.6492L29.5994 21.1612C29.7323 21.3193 29.8789 21.435 30.0393 21.5083C30.1996 21.5816 30.368 21.6183 30.5444 21.6183C30.7345 21.6183 30.896 21.5828 31.0289 21.5118C31.1641 21.443 31.2683 21.3411 31.3416 21.2059C31.4149 21.0708 31.4516 20.9058 31.4516 20.7111V17.9208L31.5272 17.0789ZM29.0015 18.9792V18.907C29.0015 18.6252 29.0358 18.3687 29.1046 18.1373C29.1733 17.9036 29.2718 17.7032 29.4001 17.5359C29.5284 17.3664 29.6842 17.237 29.8674 17.1476C30.0507 17.056 30.258 17.0102 30.4894 17.0102C30.73 17.0102 30.935 17.0537 31.1045 17.1407C31.2763 17.2278 31.4195 17.3527 31.5341 17.5153C31.6486 17.6757 31.7379 17.8681 31.8021 18.0926C31.8685 18.3148 31.9178 18.5622 31.9498 18.8349V19.0651C31.9201 19.3308 31.8697 19.5737 31.7987 19.7936C31.7276 20.0135 31.6337 20.2037 31.5169 20.364C31.4 20.5244 31.2557 20.6481 31.0839 20.7351C30.9144 20.8222 30.7139 20.8657 30.4825 20.8657C30.2557 20.8657 30.0507 20.8188 29.8674 20.7248C29.6865 20.6309 29.5307 20.4992 29.4001 20.3297C29.2718 20.1601 29.1733 19.9608 29.1046 19.7317C29.0358 19.5004 29.0015 19.2495 29.0015 18.9792ZM29.8296 18.907V18.9792C29.8296 19.1487 29.8457 19.3068 29.8777 19.4534C29.9121 19.6 29.9637 19.7294 30.0324 19.8417C30.1034 19.9517 30.1927 20.0387 30.3004 20.1029C30.4104 20.1647 30.5398 20.1956 30.6887 20.1956C30.8834 20.1956 31.0427 20.1544 31.1664 20.0719C31.2924 19.9895 31.3886 19.8784 31.455 19.7386C31.5237 19.5966 31.5719 19.4385 31.5993 19.2644V18.6424C31.5856 18.5073 31.557 18.3813 31.5134 18.2644C31.4722 18.1476 31.4161 18.0456 31.3451 17.9586C31.274 17.8692 31.1847 17.8005 31.077 17.7524C30.9694 17.702 30.8422 17.6768 30.6956 17.6768C30.5467 17.6768 30.4172 17.7089 30.3073 17.773C30.1973 17.8372 30.1068 17.9254 30.0358 18.0376C29.9671 18.1499 29.9155 18.2805 29.8812 18.4294C29.8468 18.5783 29.8296 18.7375 29.8296 18.907ZM34.0666 15.5188V20.797H33.2419V15.5188H34.0666ZM33.9223 18.8005L33.6543 18.7971C33.6566 18.5405 33.6921 18.3034 33.7608 18.0857C33.8318 17.8681 33.9303 17.6791 34.0563 17.5187C34.1846 17.3561 34.3381 17.2312 34.5168 17.1442C34.6955 17.0548 34.8936 17.0102 35.1113 17.0102C35.2945 17.0102 35.4595 17.0354 35.6061 17.0858C35.755 17.1362 35.8833 17.2175 35.991 17.3297C36.0986 17.4397 36.18 17.584 36.2349 17.7627C36.2922 17.9391 36.3209 18.1545 36.3209 18.4088V20.797H35.4893V18.4019C35.4893 18.2232 35.4629 18.0812 35.4102 17.9758C35.3598 17.8704 35.2854 17.7948 35.1869 17.749C35.0884 17.7009 34.9681 17.6768 34.8261 17.6768C34.6771 17.6768 34.5454 17.7066 34.4309 17.7662C34.3186 17.8257 34.2247 17.907 34.1491 18.0101C34.0735 18.1132 34.0162 18.2324 33.9773 18.3675C33.9406 18.5027 33.9223 18.647 33.9223 18.8005ZM38.0906 17.8727V20.797H37.2624V17.0789H38.0425L38.0906 17.8727ZM37.9428 18.8005L37.6748 18.7971C37.6771 18.5336 37.7137 18.2919 37.7847 18.072C37.858 17.8521 37.9588 17.6631 38.0871 17.505C38.2177 17.3469 38.3735 17.2255 38.5545 17.1407C38.7354 17.0537 38.937 17.0102 39.1593 17.0102C39.3379 17.0102 39.4995 17.0354 39.6438 17.0858C39.7904 17.1339 39.9153 17.2129 40.0183 17.3229C40.1237 17.4328 40.2039 17.576 40.2589 17.7524C40.3139 17.9265 40.3414 18.1407 40.3414 18.395V20.797H39.5098V18.3916C39.5098 18.2129 39.4834 18.072 39.4307 17.9689C39.3803 17.8635 39.3059 17.7891 39.2074 17.7455C39.1112 17.6997 38.9909 17.6768 38.8466 17.6768C38.7045 17.6768 38.5774 17.7066 38.4651 17.7662C38.3529 17.8257 38.2578 17.907 38.1799 18.0101C38.1043 18.1132 38.0459 18.2324 38.0047 18.3675C37.9634 18.5027 37.9428 18.647 37.9428 18.8005ZM43.5337 19.9207V17.0789H44.3653V20.797H43.5818L43.5337 19.9207ZM43.6505 19.1476L43.9289 19.1407C43.9289 19.3904 43.9014 19.6206 43.8464 19.8314C43.7914 20.0399 43.7067 20.222 43.5921 20.3778C43.4776 20.5313 43.331 20.6515 43.1523 20.7386C42.9736 20.8233 42.7594 20.8657 42.5097 20.8657C42.3287 20.8657 42.1626 20.8394 42.0114 20.7867C41.8602 20.734 41.7296 20.6527 41.6197 20.5427C41.512 20.4327 41.4284 20.2896 41.3688 20.1132C41.3093 19.9368 41.2795 19.726 41.2795 19.4809V17.0789H42.1076V19.4878C42.1076 19.6229 42.1237 19.7363 42.1557 19.828C42.1878 19.9173 42.2313 19.9895 42.2863 20.0444C42.3413 20.0994 42.4054 20.1384 42.4788 20.1613C42.5521 20.1842 42.6299 20.1956 42.7124 20.1956C42.9484 20.1956 43.1339 20.1498 43.2691 20.0582C43.4066 19.9643 43.5039 19.8383 43.5612 19.6802C43.6208 19.5221 43.6505 19.3446 43.6505 19.1476ZM47.0284 17.0789V17.6837H44.9323V17.0789H47.0284ZM45.5371 16.1683H46.3652V19.7695C46.3652 19.8841 46.3813 19.9723 46.4133 20.0341C46.4477 20.0937 46.4947 20.1338 46.5542 20.1544C46.6138 20.175 46.6837 20.1853 46.7638 20.1853C46.8211 20.1853 46.8761 20.1819 46.9288 20.175C46.9815 20.1681 47.0239 20.1613 47.0559 20.1544L47.0594 20.7867C46.9906 20.8073 46.9105 20.8256 46.8188 20.8417C46.7295 20.8577 46.6264 20.8657 46.5096 20.8657C46.3194 20.8657 46.151 20.8325 46.0044 20.7661C45.8578 20.6973 45.7433 20.5862 45.6608 20.4327C45.5783 20.2793 45.5371 20.0754 45.5371 19.8211V16.1683Z" fill="black" fill-opacity="0.87"/>
<path d="M79.9256 33.7977C79.9824 32.1711 81.3509 30.8834 82.9637 31.1023C86.8864 31.6348 90.6722 32.9537 94.0898 34.991C98.3536 37.5327 101.906 41.1103 104.418 45.3917C106.93 49.6731 108.32 54.5197 108.458 59.4816C108.569 63.4589 107.874 67.407 106.425 71.091C105.829 72.6057 104.037 73.172 102.59 72.4281V72.4281C101.142 71.6841 100.591 69.9117 101.149 68.3826C102.166 65.5944 102.65 62.6306 102.567 59.6462C102.456 55.6766 101.344 51.7994 99.3345 48.3743C97.325 44.9491 94.4829 42.0871 91.0718 40.0537C88.5074 38.525 85.6839 37.5019 82.7539 37.0293C81.1471 36.7702 79.8688 35.4243 79.9256 33.7977V33.7977Z" fill="#FF4D5A"/>
<path d="M78.0743 33.7977C78.0175 32.1712 76.6491 30.8835 75.0363 31.1024C70.9598 31.6557 67.0329 33.0581 63.5144 35.2312C59.1576 37.922 55.5771 41.7016 53.1259 46.1975C50.6746 50.6934 49.4372 55.7505 49.5355 60.8703C49.6338 65.9901 51.0644 70.9959 53.6865 75.3944C56.3085 79.7929 60.0314 83.4323 64.4883 85.9538C68.9451 88.4754 73.9821 89.7921 79.1028 89.7743C84.2235 89.7564 89.2512 88.4045 93.6903 85.8519C97.2755 83.7904 100.377 81.0031 102.802 77.6804C103.762 76.3659 103.28 74.5496 101.876 73.726V73.726C100.473 72.9024 98.6806 73.3868 97.6884 74.6769C95.8037 77.1277 93.4491 79.1917 90.7523 80.7424C87.2009 82.7845 83.1788 83.866 79.0822 83.8803C74.9857 83.8946 70.9561 82.8412 67.3906 80.824C63.8251 78.8067 60.8468 75.8952 58.7492 72.3764C56.6515 68.8576 55.507 64.8529 55.4284 60.7571C55.3497 56.6613 56.3397 52.6156 58.3007 49.0189C60.2617 45.4222 63.126 42.3985 66.6115 40.2458C69.2582 38.6112 72.1937 37.5216 75.246 37.0294C76.8528 36.7702 78.1311 35.4243 78.0743 33.7977V33.7977Z" fill="#08872B"/>
<rect x="20.5427" y="99.0526" width="3.5188" height="3.5188" rx="1.7594" fill="#08872B"/>
<path d="M27.5991 100.678L28.344 98.0595H28.7048L28.496 99.0776L27.6945 101.812H27.3363L27.5991 100.678ZM26.8285 98.0595L27.4213 100.626L27.5991 101.812H27.2435L26.3337 98.0595H26.8285ZM29.6687 100.624L30.2486 98.0595H30.746L29.8388 101.812H29.4831L29.6687 100.624ZM28.7589 98.0595L29.4831 100.678L29.746 101.812H29.3878L28.6146 99.0776L28.4032 98.0595H28.7589ZM31.9193 99.0234V101.812H31.4399V99.0234H31.9193ZM31.4038 98.2838C31.4038 98.2064 31.427 98.1412 31.4734 98.0879C31.5215 98.0346 31.592 98.008 31.6848 98.008C31.7758 98.008 31.8454 98.0346 31.8935 98.0879C31.9433 98.1412 31.9683 98.2064 31.9683 98.2838C31.9683 98.3576 31.9433 98.4212 31.8935 98.4745C31.8454 98.526 31.7758 98.5518 31.6848 98.5518C31.592 98.5518 31.5215 98.526 31.4734 98.4745C31.427 98.4212 31.4038 98.3576 31.4038 98.2838ZM33.3375 99.6188V101.812H32.8607V99.0234H33.3117L33.3375 99.6188ZM33.2241 100.312L33.0256 100.304C33.0273 100.114 33.0557 99.9375 33.1107 99.776C33.1656 99.6128 33.243 99.471 33.3426 99.3507C33.4423 99.2305 33.5608 99.1377 33.6983 99.0724C33.8375 99.0054 33.9912 98.9719 34.1596 98.9719C34.2971 98.9719 34.4208 98.9908 34.5307 99.0286C34.6407 99.0647 34.7343 99.1231 34.8116 99.2038C34.8907 99.2846 34.9508 99.3894 34.9921 99.5183C35.0333 99.6454 35.0539 99.8009 35.0539 99.9847V101.812H34.5745V99.9796C34.5745 99.8335 34.5531 99.7167 34.5101 99.6291C34.4672 99.5397 34.4044 99.4753 34.322 99.4358C34.2395 99.3946 34.1381 99.3739 34.0179 99.3739C33.8993 99.3739 33.7911 99.3989 33.6931 99.4487C33.5969 99.4985 33.5136 99.5672 33.4431 99.6549C33.3744 99.7425 33.3203 99.843 33.2808 99.9564C33.243 100.068 33.2241 100.187 33.2241 100.312ZM37.7117 101.271V97.8534H38.1911V101.812H37.753L37.7117 101.271ZM35.8355 100.449V100.395C35.8355 100.181 35.8613 99.9882 35.9128 99.8146C35.9661 99.6394 36.0408 99.4891 36.137 99.3636C36.235 99.2382 36.351 99.142 36.485 99.075C36.6207 99.0063 36.7719 98.9719 36.9386 98.9719C37.1138 98.9719 37.2667 99.0028 37.3973 99.0647C37.5296 99.1248 37.6413 99.2133 37.7324 99.3301C37.8251 99.4452 37.8982 99.5844 37.9514 99.7476C38.0047 99.9109 38.0416 100.096 38.0622 100.302V100.539C38.0433 100.743 38.0064 100.927 37.9514 101.09C37.8982 101.254 37.8251 101.393 37.7324 101.508C37.6413 101.623 37.5296 101.711 37.3973 101.773C37.265 101.833 37.1104 101.864 36.9334 101.864C36.7702 101.864 36.6207 101.828 36.485 101.758C36.351 101.687 36.235 101.589 36.137 101.462C36.0408 101.334 35.9661 101.185 35.9128 101.013C35.8613 100.84 35.8355 100.651 35.8355 100.449ZM36.3149 100.395V100.449C36.3149 100.588 36.3286 100.718 36.3561 100.84C36.3853 100.962 36.43 101.07 36.4901 101.163C36.5503 101.255 36.6267 101.328 36.7195 101.382C36.8123 101.433 36.9231 101.459 37.052 101.459C37.21 101.459 37.3398 101.425 37.4411 101.358C37.5442 101.291 37.6267 101.203 37.6885 101.093C37.7504 100.983 37.7985 100.864 37.8329 100.735V100.114C37.8122 100.019 37.7822 99.928 37.7427 99.8404C37.7049 99.7511 37.655 99.672 37.5932 99.6033C37.533 99.5329 37.4583 99.477 37.369 99.4358C37.2813 99.3946 37.1774 99.3739 37.0571 99.3739C36.9265 99.3739 36.814 99.4014 36.7195 99.4564C36.6267 99.5097 36.5503 99.5836 36.4901 99.6781C36.43 99.7708 36.3853 99.8791 36.3561 100.003C36.3286 100.125 36.3149 100.255 36.3149 100.395ZM41.0713 99.5595V102.884H40.5919V99.0234H41.03L41.0713 99.5595ZM42.9501 100.395V100.449C42.9501 100.651 42.926 100.84 42.8779 101.013C42.8298 101.185 42.7594 101.334 42.6666 101.462C42.5755 101.589 42.463 101.687 42.329 101.758C42.1949 101.828 42.0412 101.864 41.8676 101.864C41.6907 101.864 41.5343 101.834 41.3986 101.776C41.2628 101.718 41.1477 101.632 41.0532 101.521C40.9587 101.409 40.8831 101.275 40.8264 101.119C40.7714 100.962 40.7336 100.786 40.713 100.59V100.302C40.7336 100.096 40.7723 99.9109 40.829 99.7476C40.8857 99.5844 40.9604 99.4452 41.0532 99.3301C41.1477 99.2133 41.262 99.1248 41.396 99.0647C41.53 99.0028 41.6846 98.9719 41.8599 98.9719C42.0351 98.9719 42.1906 99.0063 42.3264 99.075C42.4621 99.142 42.5764 99.2382 42.6692 99.3636C42.7619 99.4891 42.8315 99.6394 42.8779 99.8146C42.926 99.9882 42.9501 100.181 42.9501 100.395ZM42.4707 100.449V100.395C42.4707 100.255 42.4561 100.125 42.4269 100.003C42.3977 99.8791 42.3521 99.7708 42.2903 99.6781C42.2302 99.5836 42.1528 99.5097 42.0583 99.4564C41.9638 99.4014 41.8513 99.3739 41.7207 99.3739C41.6005 99.3739 41.4956 99.3946 41.4063 99.4358C41.3187 99.477 41.2439 99.5329 41.1821 99.6033C41.1202 99.672 41.0695 99.7511 41.03 99.8404C40.9922 99.928 40.9639 100.019 40.945 100.114V100.781C40.9793 100.901 41.0274 101.015 41.0893 101.121C41.1512 101.226 41.2336 101.311 41.3367 101.376C41.4398 101.44 41.5695 101.472 41.7259 101.472C41.8547 101.472 41.9656 101.445 42.0583 101.392C42.1528 101.337 42.2302 101.262 42.2903 101.168C42.3521 101.073 42.3977 100.965 42.4269 100.843C42.4561 100.719 42.4707 100.588 42.4707 100.449ZM43.608 100.449V100.389C43.608 100.188 43.6372 100.002 43.6956 99.8301C43.754 99.6566 43.8382 99.5062 43.9482 99.3791C44.0581 99.2502 44.1913 99.1506 44.3476 99.0801C44.504 99.008 44.6792 98.9719 44.8734 98.9719C45.0693 98.9719 45.2454 99.008 45.4017 99.0801C45.5598 99.1506 45.6938 99.2502 45.8038 99.3791C45.9154 99.5062 46.0005 99.6566 46.0589 99.8301C46.1173 100.002 46.1465 100.188 46.1465 100.389V100.449C46.1465 100.65 46.1173 100.836 46.0589 101.008C46.0005 101.18 45.9154 101.33 45.8038 101.459C45.6938 101.586 45.5606 101.686 45.4043 101.758C45.2497 101.828 45.0744 101.864 44.8785 101.864C44.6827 101.864 44.5066 101.828 44.3502 101.758C44.1938 101.686 44.0598 101.586 43.9482 101.459C43.8382 101.33 43.754 101.18 43.6956 101.008C43.6372 100.836 43.608 100.65 43.608 100.449ZM44.0847 100.389V100.449C44.0847 100.588 44.1011 100.719 44.1337 100.843C44.1664 100.965 44.2153 101.073 44.2806 101.168C44.3476 101.262 44.431 101.337 44.5306 101.392C44.6303 101.445 44.7462 101.472 44.8785 101.472C45.0091 101.472 45.1234 101.445 45.2213 101.392C45.321 101.337 45.4034 101.262 45.4687 101.168C45.534 101.073 45.583 100.965 45.6156 100.843C45.65 100.719 45.6672 100.588 45.6672 100.449V100.389C45.6672 100.252 45.65 100.122 45.6156 100C45.583 99.8765 45.5332 99.7674 45.4661 99.6729C45.4009 99.5767 45.3184 99.5011 45.2187 99.4461C45.1208 99.3911 45.0057 99.3636 44.8734 99.3636C44.7428 99.3636 44.6277 99.3911 44.528 99.4461C44.4301 99.5011 44.3476 99.5767 44.2806 99.6729C44.2153 99.7674 44.1664 99.8765 44.1337 100C44.1011 100.122 44.0847 100.252 44.0847 100.389ZM47.6266 101.317L48.343 99.0234H48.6575L48.5956 99.4796L47.8663 101.812H47.5596L47.6266 101.317ZM47.1446 99.0234L47.7554 101.343L47.7992 101.812H47.4771L46.6678 99.0234H47.1446ZM49.343 101.325L49.9255 99.0234H50.3997L49.5904 101.812H49.2708L49.343 101.325ZM48.7271 99.0234L49.4281 101.279L49.508 101.812H49.2038L48.4539 99.4745L48.392 99.0234H48.7271ZM52.2225 101.864C52.0283 101.864 51.8522 101.831 51.6941 101.766C51.5378 101.699 51.4029 101.605 51.2895 101.485C51.1778 101.364 51.0919 101.222 51.0318 101.057C50.9717 100.892 50.9416 100.712 50.9416 100.516V100.407C50.9416 100.181 50.9751 99.9787 51.0421 99.8018C51.1091 99.6231 51.2002 99.4719 51.3153 99.3482C51.4304 99.2245 51.561 99.1308 51.707 99.0672C51.8531 99.0037 52.0043 98.9719 52.1606 98.9719C52.3599 98.9719 52.5317 99.0063 52.6761 99.075C52.8221 99.1437 52.9415 99.2399 53.0343 99.3636C53.1271 99.4856 53.1958 99.6299 53.2405 99.7966C53.2852 99.9616 53.3075 100.142 53.3075 100.338V100.552H51.2251V100.163H52.8307V100.126C52.8238 100.003 52.7981 99.8825 52.7534 99.7657C52.7104 99.6488 52.6417 99.5526 52.5472 99.477C52.4527 99.4014 52.3238 99.3636 52.1606 99.3636C52.0524 99.3636 51.9527 99.3868 51.8617 99.4332C51.7706 99.4779 51.6924 99.5449 51.6271 99.6342C51.5618 99.7236 51.5112 99.8327 51.4751 99.9616C51.439 100.09 51.421 100.239 51.421 100.407V100.516C51.421 100.648 51.439 100.773 51.4751 100.889C51.5129 101.004 51.567 101.106 51.6374 101.193C51.7096 101.281 51.7964 101.35 51.8977 101.4C52.0008 101.449 52.1177 101.474 52.2483 101.474C52.4166 101.474 52.5592 101.44 52.6761 101.371C52.7929 101.303 52.8951 101.211 52.9828 101.096L53.2714 101.325C53.2113 101.416 53.1348 101.503 53.042 101.585C52.9493 101.668 52.835 101.735 52.6993 101.786C52.5653 101.838 52.4063 101.864 52.2225 101.864ZM54.5169 99.4616V101.812H54.0401V99.0234H54.504L54.5169 99.4616ZM55.388 99.008L55.3854 99.4513C55.3459 99.4427 55.3081 99.4375 55.272 99.4358C55.2377 99.4324 55.1982 99.4306 55.1535 99.4306C55.0435 99.4306 54.9465 99.4478 54.8623 99.4822C54.7781 99.5165 54.7068 99.5647 54.6484 99.6265C54.5899 99.6884 54.5435 99.7622 54.5092 99.8482C54.4765 99.9323 54.4551 100.025 54.4447 100.126L54.3107 100.204C54.3107 100.035 54.3271 99.8774 54.3597 99.7296C54.3941 99.5818 54.4465 99.4513 54.5169 99.3379C54.5874 99.2227 54.6767 99.1334 54.7849 99.0698C54.8949 99.0045 55.0255 98.9719 55.1767 98.9719C55.2111 98.9719 55.2506 98.9762 55.2952 98.9848C55.3399 98.9916 55.3708 98.9994 55.388 99.008Z" fill="black" fill-opacity="0.38"/>
<path d="M28.5806 106.047V109.812H27.9595V106.784L27.0394 107.096V106.583L28.5058 106.047H28.5806ZM30.724 107.655H31.0951C31.2394 107.655 31.3589 107.63 31.4534 107.58C31.5496 107.53 31.6209 107.462 31.6673 107.374C31.7137 107.286 31.7369 107.186 31.7369 107.072C31.7369 106.954 31.7154 106.852 31.6724 106.768C31.6312 106.682 31.5676 106.616 31.4817 106.57C31.3975 106.523 31.2901 106.5 31.1595 106.5C31.0496 106.5 30.9499 106.523 30.8606 106.567C30.773 106.61 30.7034 106.672 30.6518 106.753C30.6003 106.832 30.5745 106.926 30.5745 107.036H29.9508C29.9508 106.837 30.0032 106.66 30.108 106.505C30.2128 106.351 30.3554 106.23 30.5359 106.142C30.718 106.053 30.9224 106.008 31.1492 106.008C31.3915 106.008 31.6028 106.048 31.7832 106.129C31.9654 106.208 32.1071 106.327 32.2085 106.485C32.3099 106.643 32.3605 106.839 32.3605 107.072C32.3605 107.179 32.3356 107.287 32.2858 107.397C32.236 107.507 32.1621 107.608 32.0642 107.699C31.9662 107.788 31.8442 107.861 31.6982 107.918C31.5521 107.973 31.3829 108 31.1905 108H30.724V107.655ZM30.724 108.139V107.799H31.1905C31.4104 107.799 31.5977 107.825 31.7523 107.877C31.9087 107.928 32.0358 107.999 32.1337 108.09C32.2317 108.18 32.303 108.282 32.3477 108.397C32.394 108.512 32.4172 108.634 32.4172 108.763C32.4172 108.938 32.3855 109.095 32.3219 109.232C32.26 109.368 32.1715 109.483 32.0564 109.577C31.9413 109.672 31.8064 109.743 31.6518 109.791C31.4989 109.84 31.3322 109.864 31.1518 109.864C30.9903 109.864 30.8357 109.841 30.6879 109.797C30.5402 109.752 30.4079 109.686 30.291 109.598C30.1742 109.509 30.0814 109.398 30.0127 109.266C29.9457 109.132 29.9122 108.977 29.9122 108.802H30.5333C30.5333 108.913 30.559 109.012 30.6106 109.098C30.6639 109.182 30.7377 109.248 30.8322 109.297C30.9285 109.345 31.0384 109.369 31.1621 109.369C31.2927 109.369 31.4052 109.346 31.4997 109.299C31.5942 109.253 31.6664 109.184 31.7162 109.093C31.7678 109.002 31.7935 108.892 31.7935 108.763C31.7935 108.617 31.7652 108.498 31.7085 108.407C31.6518 108.316 31.571 108.249 31.4662 108.206C31.3614 108.162 31.2377 108.139 31.0951 108.139H30.724ZM35.6199 109.317V109.812H33.1045V109.387L34.3261 108.054C34.4601 107.903 34.5658 107.773 34.6431 107.663C34.7204 107.553 34.7746 107.454 34.8055 107.366C34.8381 107.277 34.8545 107.19 34.8545 107.106C34.8545 106.987 34.8321 106.883 34.7874 106.794C34.7445 106.703 34.6809 106.632 34.5967 106.58C34.5125 106.527 34.4103 106.5 34.29 106.5C34.1509 106.5 34.034 106.53 33.9395 106.59C33.845 106.651 33.7737 106.734 33.7256 106.84C33.6775 106.945 33.6535 107.066 33.6535 107.201H33.0323C33.0323 106.983 33.0822 106.784 33.1818 106.603C33.2815 106.421 33.4258 106.277 33.6148 106.17C33.8038 106.062 34.0315 106.008 34.2978 106.008C34.5486 106.008 34.7617 106.05 34.9369 106.134C35.1122 106.218 35.2453 106.338 35.3364 106.493C35.4292 106.647 35.4756 106.83 35.4756 107.041C35.4756 107.158 35.4567 107.274 35.4189 107.389C35.3811 107.505 35.327 107.62 35.2565 107.735C35.1878 107.848 35.1062 107.962 35.0117 108.078C34.9172 108.191 34.8132 108.306 34.6998 108.423L33.888 109.317H35.6199Z" fill="black" fill-opacity="0.76"/>
<rect x="69.861" y="99.0526" width="3.5188" height="3.5188" rx="1.7594" fill="#FF4D5A"/>
<path d="M77.7314 100.864C77.7314 100.776 77.7177 100.699 77.6902 100.632C77.6644 100.563 77.618 100.501 77.551 100.446C77.4858 100.391 77.3947 100.339 77.2779 100.289C77.1627 100.239 77.0167 100.188 76.8397 100.137C76.6542 100.082 76.4866 100.021 76.3372 99.9538C76.1877 99.8851 76.0597 99.8069 75.9532 99.7193C75.8466 99.6317 75.765 99.5312 75.7083 99.4178C75.6516 99.3044 75.6233 99.1746 75.6233 99.0286C75.6233 98.8825 75.6533 98.7477 75.7135 98.624C75.7736 98.5003 75.8595 98.3929 75.9712 98.3018C76.0846 98.209 76.2195 98.1369 76.3758 98.0853C76.5322 98.0338 76.7066 98.008 76.899 98.008C77.1808 98.008 77.4196 98.0621 77.6155 98.1704C77.8131 98.2769 77.9634 98.4169 78.0665 98.5905C78.1696 98.7623 78.2211 98.9461 78.2211 99.142H77.7263C77.7263 99.0011 77.6962 98.8765 77.6361 98.7683C77.576 98.6583 77.4849 98.5724 77.3629 98.5106C77.2409 98.447 77.0863 98.4152 76.899 98.4152C76.722 98.4152 76.576 98.4418 76.4609 98.4951C76.3458 98.5484 76.2598 98.6205 76.2031 98.7116C76.1482 98.8026 76.1207 98.9066 76.1207 99.0234C76.1207 99.1025 76.137 99.1746 76.1696 99.2399C76.204 99.3035 76.2564 99.3628 76.3269 99.4178C76.399 99.4727 76.4901 99.5234 76.6 99.5698C76.7117 99.6162 76.8449 99.6609 76.9995 99.7038C77.2126 99.764 77.3964 99.831 77.551 99.9049C77.7057 99.9787 77.8328 100.062 77.9325 100.155C78.0338 100.246 78.1086 100.35 78.1567 100.467C78.2065 100.582 78.2314 100.712 78.2314 100.858C78.2314 101.011 78.2005 101.15 78.1387 101.273C78.0768 101.397 77.9883 101.503 77.8732 101.59C77.7581 101.678 77.6198 101.746 77.4583 101.794C77.2985 101.84 77.1198 101.864 76.9222 101.864C76.7487 101.864 76.5777 101.84 76.4093 101.791C76.2427 101.743 76.0906 101.671 75.9532 101.575C75.8174 101.479 75.7083 101.36 75.6258 101.219C75.5451 101.077 75.5047 100.912 75.5047 100.724H75.9995C75.9995 100.853 76.0245 100.964 76.0743 101.057C76.1241 101.148 76.192 101.224 76.2779 101.284C76.3655 101.344 76.4643 101.388 76.5743 101.418C76.6859 101.445 76.8019 101.459 76.9222 101.459C77.0957 101.459 77.2426 101.435 77.3629 101.387C77.4832 101.339 77.5742 101.27 77.6361 101.181C77.6997 101.091 77.7314 100.986 77.7314 100.864ZM78.8429 100.449V100.389C78.8429 100.188 78.8721 100.002 78.9306 99.8301C78.989 99.6566 79.0732 99.5062 79.1831 99.3791C79.2931 99.2502 79.4262 99.1506 79.5826 99.0801C79.7389 99.008 79.9142 98.9719 80.1084 98.9719C80.3042 98.9719 80.4803 99.008 80.6367 99.0801C80.7948 99.1506 80.9288 99.2502 81.0387 99.3791C81.1504 99.5062 81.2355 99.6566 81.2939 99.8301C81.3523 100.002 81.3815 100.188 81.3815 100.389V100.449C81.3815 100.65 81.3523 100.836 81.2939 101.008C81.2355 101.18 81.1504 101.33 81.0387 101.459C80.9288 101.586 80.7956 101.686 80.6393 101.758C80.4846 101.828 80.3094 101.864 80.1135 101.864C79.9176 101.864 79.7415 101.828 79.5852 101.758C79.4288 101.686 79.2948 101.586 79.1831 101.459C79.0732 101.33 78.989 101.18 78.9306 101.008C78.8721 100.836 78.8429 100.65 78.8429 100.449ZM79.3197 100.389V100.449C79.3197 100.588 79.336 100.719 79.3687 100.843C79.4013 100.965 79.4503 101.073 79.5156 101.168C79.5826 101.262 79.6659 101.337 79.7656 101.392C79.8652 101.445 79.9812 101.472 80.1135 101.472C80.2441 101.472 80.3583 101.445 80.4563 101.392C80.5559 101.337 80.6384 101.262 80.7037 101.168C80.769 101.073 80.818 100.965 80.8506 100.843C80.885 100.719 80.9021 100.588 80.9021 100.449V100.389C80.9021 100.252 80.885 100.122 80.8506 100C80.818 99.8765 80.7681 99.7674 80.7011 99.6729C80.6358 99.5767 80.5534 99.5011 80.4537 99.4461C80.3558 99.3911 80.2407 99.3636 80.1084 99.3636C79.9778 99.3636 79.8627 99.3911 79.763 99.4461C79.6651 99.5011 79.5826 99.5767 79.5156 99.6729C79.4503 99.7674 79.4013 99.8765 79.3687 100C79.336 100.122 79.3197 100.252 79.3197 100.389ZM82.6734 97.8534V101.812H82.194V97.8534H82.6734ZM85.2591 101.335V99.8997C85.2591 99.7897 85.2367 99.6944 85.1921 99.6136C85.1491 99.5312 85.0838 99.4676 84.9962 99.4229C84.9086 99.3782 84.8003 99.3559 84.6715 99.3559C84.5512 99.3559 84.4455 99.3765 84.3544 99.4178C84.2651 99.459 84.1947 99.5131 84.1431 99.5801C84.0933 99.6471 84.0684 99.7193 84.0684 99.7966H83.5916C83.5916 99.697 83.6174 99.5982 83.6689 99.5002C83.7204 99.4023 83.7943 99.3138 83.8905 99.2348C83.9885 99.154 84.1053 99.0904 84.2411 99.0441C84.3785 98.9959 84.5314 98.9719 84.6998 98.9719C84.9025 98.9719 85.0812 99.0063 85.2359 99.075C85.3922 99.1437 85.5142 99.2477 85.6018 99.3868C85.6912 99.5243 85.7359 99.697 85.7359 99.9049V101.204C85.7359 101.297 85.7436 101.395 85.759 101.5C85.7762 101.605 85.8011 101.695 85.8338 101.771V101.812H85.3364C85.3123 101.757 85.2934 101.684 85.2797 101.593C85.2659 101.5 85.2591 101.414 85.2591 101.335ZM85.3415 100.121L85.3467 100.456H84.8647C84.729 100.456 84.6079 100.468 84.5014 100.49C84.3948 100.511 84.3055 100.542 84.2333 100.585C84.1612 100.628 84.1062 100.682 84.0684 100.748C84.0306 100.811 84.0117 100.886 84.0117 100.972C84.0117 101.059 84.0314 101.139 84.071 101.212C84.1105 101.284 84.1697 101.341 84.2488 101.384C84.3295 101.425 84.4283 101.446 84.5452 101.446C84.6912 101.446 84.8201 101.415 84.9318 101.353C85.0434 101.291 85.1319 101.216 85.1972 101.126C85.2642 101.037 85.3003 100.95 85.3055 100.866L85.5091 101.096C85.497 101.168 85.4644 101.248 85.4111 101.335C85.3579 101.423 85.2866 101.507 85.1972 101.588C85.1096 101.667 85.0048 101.733 84.8828 101.786C84.7625 101.838 84.6268 101.864 84.4756 101.864C84.2866 101.864 84.1208 101.827 83.9782 101.753C83.8373 101.679 83.7273 101.58 83.6483 101.456C83.571 101.331 83.5323 101.191 83.5323 101.036C83.5323 100.887 83.5615 100.755 83.6199 100.642C83.6784 100.527 83.7625 100.431 83.8725 100.356C83.9825 100.279 84.1148 100.22 84.2694 100.181C84.424 100.141 84.5967 100.121 84.7874 100.121H85.3415ZM87.1386 99.4616V101.812H86.6618V99.0234H87.1257L87.1386 99.4616ZM88.0097 99.008L88.0071 99.4513C87.9676 99.4427 87.9298 99.4375 87.8937 99.4358C87.8593 99.4324 87.8198 99.4306 87.7751 99.4306C87.6652 99.4306 87.5681 99.4478 87.4839 99.4822C87.3997 99.5165 87.3284 99.5647 87.27 99.6265C87.2116 99.6884 87.1652 99.7622 87.1308 99.8482C87.0982 99.9323 87.0767 100.025 87.0664 100.126L86.9324 100.204C86.9324 100.035 86.9487 99.8774 86.9813 99.7296C87.0157 99.5818 87.0681 99.4513 87.1386 99.3379C87.209 99.2227 87.2983 99.1334 87.4066 99.0698C87.5166 99.0045 87.6471 98.9719 87.7983 98.9719C87.8327 98.9719 87.8722 98.9762 87.9169 98.9848C87.9616 98.9916 87.9925 98.9994 88.0097 99.008ZM90.5883 99.5595V102.884H90.1089V99.0234H90.5471L90.5883 99.5595ZM92.4671 100.395V100.449C92.4671 100.651 92.443 100.84 92.3949 101.013C92.3468 101.185 92.2764 101.334 92.1836 101.462C92.0925 101.589 91.98 101.687 91.846 101.758C91.712 101.828 91.5582 101.864 91.3847 101.864C91.2077 101.864 91.0513 101.834 90.9156 101.776C90.7799 101.718 90.6647 101.632 90.5702 101.521C90.4757 101.409 90.4001 101.275 90.3435 101.119C90.2885 100.962 90.2507 100.786 90.2301 100.59V100.302C90.2507 100.096 90.2893 99.9109 90.346 99.7476C90.4027 99.5844 90.4775 99.4452 90.5702 99.3301C90.6647 99.2133 90.779 99.1248 90.913 99.0647C91.047 99.0028 91.2017 98.9719 91.3769 98.9719C91.5522 98.9719 91.7077 99.0063 91.8434 99.075C91.9791 99.142 92.0934 99.2382 92.1862 99.3636C92.279 99.4891 92.3485 99.6394 92.3949 99.8146C92.443 99.9882 92.4671 100.181 92.4671 100.395ZM91.9877 100.449V100.395C91.9877 100.255 91.9731 100.125 91.9439 100.003C91.9147 99.8791 91.8692 99.7708 91.8073 99.6781C91.7472 99.5836 91.6699 99.5097 91.5754 99.4564C91.4809 99.4014 91.3683 99.3739 91.2378 99.3739C91.1175 99.3739 91.0127 99.3946 90.9233 99.4358C90.8357 99.477 90.761 99.5329 90.6991 99.6033C90.6373 99.672 90.5866 99.7511 90.5471 99.8404C90.5093 99.928 90.4809 100.019 90.462 100.114V100.781C90.4964 100.901 90.5445 101.015 90.6063 101.121C90.6682 101.226 90.7507 101.311 90.8537 101.376C90.9568 101.44 91.0866 101.472 91.2429 101.472C91.3718 101.472 91.4826 101.445 91.5754 101.392C91.6699 101.337 91.7472 101.262 91.8073 101.168C91.8692 101.073 91.9147 100.965 91.9439 100.843C91.9731 100.719 91.9877 100.588 91.9877 100.449ZM93.125 100.449V100.389C93.125 100.188 93.1542 100.002 93.2126 99.8301C93.271 99.6566 93.3552 99.5062 93.4652 99.3791C93.5751 99.2502 93.7083 99.1506 93.8647 99.0801C94.021 99.008 94.1963 98.9719 94.3904 98.9719C94.5863 98.9719 94.7624 99.008 94.9187 99.0801C95.0768 99.1506 95.2108 99.2502 95.3208 99.3791C95.4325 99.5062 95.5175 99.6566 95.5759 99.8301C95.6344 100.002 95.6636 100.188 95.6636 100.389V100.449C95.6636 100.65 95.6344 100.836 95.5759 101.008C95.5175 101.18 95.4325 101.33 95.3208 101.459C95.2108 101.586 95.0777 101.686 94.9213 101.758C94.7667 101.828 94.5914 101.864 94.3956 101.864C94.1997 101.864 94.0236 101.828 93.8672 101.758C93.7109 101.686 93.5769 101.586 93.4652 101.459C93.3552 101.33 93.271 101.18 93.2126 101.008C93.1542 100.836 93.125 100.65 93.125 100.449ZM93.6018 100.389V100.449C93.6018 100.588 93.6181 100.719 93.6507 100.843C93.6834 100.965 93.7324 101.073 93.7976 101.168C93.8647 101.262 93.948 101.337 94.0476 101.392C94.1473 101.445 94.2633 101.472 94.3956 101.472C94.5261 101.472 94.6404 101.445 94.7383 101.392C94.838 101.337 94.9205 101.262 94.9858 101.168C95.051 101.073 95.1 100.965 95.1327 100.843C95.167 100.719 95.1842 100.588 95.1842 100.449V100.389C95.1842 100.252 95.167 100.122 95.1327 100C95.1 99.8765 95.0502 99.7674 94.9832 99.6729C94.9179 99.5767 94.8354 99.5011 94.7358 99.4461C94.6378 99.3911 94.5227 99.3636 94.3904 99.3636C94.2598 99.3636 94.1447 99.3911 94.0451 99.4461C93.9471 99.5011 93.8647 99.5767 93.7976 99.6729C93.7324 99.7674 93.6834 99.8765 93.6507 100C93.6181 100.122 93.6018 100.252 93.6018 100.389ZM97.1436 101.317L97.8601 99.0234H98.1745L98.1126 99.4796L97.3833 101.812H97.0766L97.1436 101.317ZM96.6617 99.0234L97.2725 101.343L97.3163 101.812H96.9941L96.1849 99.0234H96.6617ZM98.86 101.325L99.4425 99.0234H99.9167L99.1075 101.812H98.7879L98.86 101.325ZM98.2441 99.0234L98.9451 101.279L99.025 101.812H98.7209L97.9709 99.4745L97.909 99.0234H98.2441ZM101.74 101.864C101.545 101.864 101.369 101.831 101.211 101.766C101.055 101.699 100.92 101.605 100.807 101.485C100.695 101.364 100.609 101.222 100.549 101.057C100.489 100.892 100.459 100.712 100.459 100.516V100.407C100.459 100.181 100.492 99.9787 100.559 99.8018C100.626 99.6231 100.717 99.4719 100.832 99.3482C100.947 99.2245 101.078 99.1308 101.224 99.0672C101.37 99.0037 101.521 98.9719 101.678 98.9719C101.877 98.9719 102.049 99.0063 102.193 99.075C102.339 99.1437 102.459 99.2399 102.551 99.3636C102.644 99.4856 102.713 99.6299 102.758 99.7966C102.802 99.9616 102.825 100.142 102.825 100.338V100.552H100.742V100.163H102.348V100.126C102.341 100.003 102.315 99.8825 102.27 99.7657C102.227 99.6488 102.159 99.5526 102.064 99.477C101.97 99.4014 101.841 99.3636 101.678 99.3636C101.569 99.3636 101.47 99.3868 101.379 99.4332C101.288 99.4779 101.209 99.5449 101.144 99.6342C101.079 99.7236 101.028 99.8327 100.992 99.9616C100.956 100.09 100.938 100.239 100.938 100.407V100.516C100.938 100.648 100.956 100.773 100.992 100.889C101.03 101.004 101.084 101.106 101.154 101.193C101.227 101.281 101.313 101.35 101.415 101.4C101.518 101.449 101.635 101.474 101.765 101.474C101.934 101.474 102.076 101.44 102.193 101.371C102.31 101.303 102.412 101.211 102.5 101.096L102.788 101.325C102.728 101.416 102.652 101.503 102.559 101.585C102.466 101.668 102.352 101.735 102.216 101.786C102.082 101.838 101.923 101.864 101.74 101.864ZM104.034 99.4616V101.812H103.557V99.0234H104.021L104.034 99.4616ZM104.905 99.008L104.902 99.4513C104.863 99.4427 104.825 99.4375 104.789 99.4358C104.755 99.4324 104.715 99.4306 104.671 99.4306C104.561 99.4306 104.463 99.4478 104.379 99.4822C104.295 99.5165 104.224 99.5647 104.165 99.6265C104.107 99.6884 104.061 99.7622 104.026 99.8482C103.994 99.9323 103.972 100.025 103.962 100.126L103.828 100.204C103.828 100.035 103.844 99.8774 103.877 99.7296C103.911 99.5818 103.963 99.4513 104.034 99.3379C104.104 99.2227 104.194 99.1334 104.302 99.0698C104.412 99.0045 104.543 98.9719 104.694 98.9719C104.728 98.9719 104.768 98.9762 104.812 98.9848C104.857 98.9916 104.888 98.9994 104.905 99.008Z" fill="black" fill-opacity="0.38"/>
<path d="M76.9649 108.067L76.4701 107.946L76.6737 106.06H78.6968V106.585H77.1891L77.086 107.505C77.1445 107.471 77.2252 107.438 77.3283 107.405C77.4314 107.371 77.5491 107.353 77.6814 107.353C77.8584 107.353 78.0164 107.383 78.1556 107.441C78.2965 107.498 78.4159 107.581 78.5138 107.691C78.6118 107.799 78.6865 107.931 78.7381 108.088C78.7896 108.242 78.8154 108.417 78.8154 108.611C78.8154 108.785 78.7896 108.947 78.7381 109.098C78.6882 109.249 78.6126 109.382 78.5113 109.498C78.4099 109.613 78.2819 109.703 78.1273 109.768C77.9743 109.832 77.7931 109.864 77.5835 109.864C77.4271 109.864 77.2768 109.841 77.1324 109.797C76.9898 109.75 76.8618 109.682 76.7484 109.593C76.635 109.502 76.544 109.39 76.4752 109.258C76.4065 109.124 76.367 108.97 76.3567 108.797H76.9649C76.9804 108.919 77.0139 109.023 77.0654 109.108C77.1187 109.193 77.1891 109.257 77.2768 109.302C77.3644 109.346 77.4658 109.369 77.5809 109.369C77.6857 109.369 77.7759 109.351 77.8515 109.315C77.9271 109.277 77.9898 109.224 78.0396 109.155C78.0912 109.084 78.129 109.002 78.153 108.907C78.1788 108.813 78.1917 108.708 78.1917 108.593C78.1917 108.483 78.1771 108.383 78.1479 108.291C78.1204 108.2 78.0783 108.121 78.0216 108.054C77.9666 107.987 77.897 107.936 77.8128 107.9C77.7286 107.862 77.6316 107.843 77.5216 107.843C77.3738 107.843 77.2604 107.864 77.1814 107.907C77.1041 107.95 77.0319 108.004 76.9649 108.067ZM81.1186 106.047V109.812H80.4975V106.784L79.5774 107.096V106.583L81.0438 106.047H81.1186Z" fill="black" fill-opacity="0.76"/>
<rect x="119.179" y="99.0526" width="3.5188" height="3.5188" rx="1.7594" fill="black" fill-opacity="0.06"/>
<path d="M126.536 98.0595V101.812H126.046V98.0595H126.536ZM127.742 98.0595V98.4667H124.843V98.0595H127.742ZM128.019 100.449V100.389C128.019 100.188 128.048 100.002 128.106 99.8301C128.165 99.6566 128.249 99.5062 128.359 99.3791C128.469 99.2502 128.602 99.1506 128.758 99.0801C128.915 99.008 129.09 98.9719 129.284 98.9719C129.48 98.9719 129.656 99.008 129.812 99.0801C129.97 99.1506 130.104 99.2502 130.214 99.3791C130.326 99.5062 130.411 99.6566 130.469 99.8301C130.528 100.002 130.557 100.188 130.557 100.389V100.449C130.557 100.65 130.528 100.836 130.469 101.008C130.411 101.18 130.326 101.33 130.214 101.459C130.104 101.586 129.971 101.686 129.815 101.758C129.66 101.828 129.485 101.864 129.289 101.864C129.093 101.864 128.917 101.828 128.761 101.758C128.604 101.686 128.47 101.586 128.359 101.459C128.249 101.33 128.165 101.18 128.106 101.008C128.048 100.836 128.019 100.65 128.019 100.449ZM128.495 100.389V100.449C128.495 100.588 128.512 100.719 128.544 100.843C128.577 100.965 128.626 101.073 128.691 101.168C128.758 101.262 128.842 101.337 128.941 101.392C129.041 101.445 129.157 101.472 129.289 101.472C129.42 101.472 129.534 101.445 129.632 101.392C129.732 101.337 129.814 101.262 129.879 101.168C129.945 101.073 129.994 100.965 130.026 100.843C130.061 100.719 130.078 100.588 130.078 100.449V100.389C130.078 100.252 130.061 100.122 130.026 100C129.994 99.8765 129.944 99.7674 129.877 99.6729C129.811 99.5767 129.729 99.5011 129.629 99.4461C129.531 99.3911 129.416 99.3636 129.284 99.3636C129.153 99.3636 129.038 99.3911 128.939 99.4461C128.841 99.5011 128.758 99.5767 128.691 99.6729C128.626 99.7674 128.577 99.8765 128.544 100C128.512 100.122 128.495 100.252 128.495 100.389ZM132.498 99.0234V99.3894H130.991V99.0234H132.498ZM131.501 98.3456H131.978V101.121C131.978 101.216 131.992 101.287 132.022 101.335C132.051 101.383 132.089 101.415 132.135 101.431C132.181 101.446 132.231 101.454 132.285 101.454C132.324 101.454 132.365 101.45 132.408 101.443C132.453 101.435 132.486 101.428 132.509 101.423L132.511 101.812C132.474 101.824 132.424 101.835 132.362 101.846C132.302 101.858 132.229 101.864 132.143 101.864C132.026 101.864 131.919 101.84 131.821 101.794C131.723 101.748 131.645 101.67 131.586 101.562C131.529 101.452 131.501 101.304 131.501 101.119V98.3456ZM134.878 101.335V99.8997C134.878 99.7897 134.856 99.6944 134.811 99.6136C134.768 99.5312 134.703 99.4676 134.615 99.4229C134.527 99.3782 134.419 99.3559 134.29 99.3559C134.17 99.3559 134.064 99.3765 133.973 99.4178C133.884 99.459 133.814 99.5131 133.762 99.5801C133.712 99.6471 133.687 99.7193 133.687 99.7966H133.21C133.21 99.697 133.236 99.5982 133.288 99.5002C133.339 99.4023 133.413 99.3138 133.509 99.2348C133.607 99.154 133.724 99.0904 133.86 99.0441C133.997 98.9959 134.15 98.9719 134.319 98.9719C134.521 98.9719 134.7 99.0063 134.855 99.075C135.011 99.1437 135.133 99.2477 135.221 99.3868C135.31 99.5243 135.355 99.697 135.355 99.9049V101.204C135.355 101.297 135.362 101.395 135.378 101.5C135.395 101.605 135.42 101.695 135.453 101.771V101.812H134.955C134.931 101.757 134.912 101.684 134.899 101.593C134.885 101.5 134.878 101.414 134.878 101.335ZM134.96 100.121L134.966 100.456H134.484C134.348 100.456 134.227 100.468 134.12 100.49C134.014 100.511 133.924 100.542 133.852 100.585C133.78 100.628 133.725 100.682 133.687 100.748C133.649 100.811 133.631 100.886 133.631 100.972C133.631 101.059 133.65 101.139 133.69 101.212C133.729 101.284 133.789 101.341 133.868 101.384C133.948 101.425 134.047 101.446 134.164 101.446C134.31 101.446 134.439 101.415 134.551 101.353C134.662 101.291 134.751 101.216 134.816 101.126C134.883 101.037 134.919 100.95 134.924 100.866L135.128 101.096C135.116 101.168 135.083 101.248 135.03 101.335C134.977 101.423 134.905 101.507 134.816 101.588C134.728 101.667 134.624 101.733 134.502 101.786C134.381 101.838 134.246 101.864 134.094 101.864C133.905 101.864 133.74 101.827 133.597 101.753C133.456 101.679 133.346 101.58 133.267 101.456C133.19 101.331 133.151 101.191 133.151 101.036C133.151 100.887 133.18 100.755 133.239 100.642C133.297 100.527 133.381 100.431 133.491 100.356C133.601 100.279 133.734 100.22 133.888 100.181C134.043 100.141 134.216 100.121 134.406 100.121H134.96ZM136.799 97.8534V101.812H136.319V97.8534H136.799Z" fill="black" fill-opacity="0.38"/>
<path d="M127.217 106.047V109.812H126.596V106.784L125.676 107.096V106.583L127.142 106.047H127.217ZM131.085 108.789C131.085 109.023 131.03 109.219 130.922 109.379C130.814 109.539 130.666 109.66 130.479 109.742C130.293 109.823 130.084 109.864 129.85 109.864C129.616 109.864 129.406 109.823 129.219 109.742C129.031 109.66 128.884 109.539 128.775 109.379C128.667 109.219 128.613 109.023 128.613 108.789C128.613 108.634 128.643 108.494 128.703 108.369C128.763 108.242 128.848 108.133 128.958 108.041C129.07 107.949 129.201 107.877 129.35 107.828C129.501 107.778 129.666 107.753 129.845 107.753C130.082 107.753 130.294 107.797 130.481 107.884C130.669 107.972 130.816 108.093 130.922 108.248C131.03 108.402 131.085 108.583 131.085 108.789ZM130.461 108.758C130.461 108.632 130.435 108.523 130.384 108.428C130.332 108.334 130.26 108.261 130.167 108.209C130.074 108.157 129.967 108.132 129.845 108.132C129.721 108.132 129.614 108.157 129.523 108.209C129.432 108.261 129.36 108.334 129.309 108.428C129.259 108.523 129.234 108.632 129.234 108.758C129.234 108.885 129.259 108.995 129.309 109.088C129.359 109.179 129.43 109.248 129.523 109.297C129.615 109.345 129.725 109.369 129.85 109.369C129.975 109.369 130.084 109.345 130.175 109.297C130.266 109.248 130.336 109.179 130.386 109.088C130.436 108.995 130.461 108.885 130.461 108.758ZM130.999 107.047C130.999 107.234 130.95 107.401 130.85 107.547C130.752 107.693 130.616 107.808 130.443 107.892C130.269 107.974 130.072 108.016 129.85 108.016C129.627 108.016 129.427 107.974 129.252 107.892C129.079 107.808 128.942 107.693 128.842 107.547C128.744 107.401 128.695 107.234 128.695 107.047C128.695 106.823 128.744 106.635 128.842 106.482C128.942 106.328 129.079 106.21 129.252 106.129C129.426 106.048 129.624 106.008 129.847 106.008C130.071 106.008 130.269 106.048 130.443 106.129C130.616 106.21 130.752 106.328 130.85 106.482C130.95 106.635 130.999 106.823 130.999 107.047ZM130.378 107.067C130.378 106.956 130.356 106.858 130.311 106.773C130.268 106.688 130.207 106.621 130.128 106.572C130.049 106.524 129.956 106.5 129.847 106.5C129.739 106.5 129.646 106.523 129.567 106.57C129.487 106.616 129.426 106.682 129.384 106.766C129.341 106.85 129.319 106.95 129.319 107.067C129.319 107.182 129.341 107.283 129.384 107.369C129.426 107.453 129.487 107.519 129.567 107.567C129.647 107.615 129.742 107.639 129.85 107.639C129.958 107.639 130.052 107.615 130.131 107.567C130.21 107.519 130.271 107.453 130.314 107.369C130.357 107.283 130.378 107.182 130.378 107.067ZM132.47 107.655H132.841C132.986 107.655 133.105 107.63 133.2 107.58C133.296 107.53 133.367 107.462 133.413 107.374C133.46 107.286 133.483 107.186 133.483 107.072C133.483 106.954 133.462 106.852 133.419 106.768C133.377 106.682 133.314 106.616 133.228 106.57C133.144 106.523 133.036 106.5 132.906 106.5C132.796 106.5 132.696 106.523 132.607 106.567C132.519 106.61 132.45 106.672 132.398 106.753C132.347 106.832 132.321 106.926 132.321 107.036H131.697C131.697 106.837 131.749 106.66 131.854 106.505C131.959 106.351 132.102 106.23 132.282 106.142C132.464 106.053 132.669 106.008 132.895 106.008C133.138 106.008 133.349 106.048 133.529 106.129C133.712 106.208 133.853 106.327 133.955 106.485C134.056 106.643 134.107 106.839 134.107 107.072C134.107 107.179 134.082 107.287 134.032 107.397C133.982 107.507 133.908 107.608 133.81 107.699C133.712 107.788 133.59 107.861 133.444 107.918C133.298 107.973 133.129 108 132.937 108H132.47V107.655ZM132.47 108.139V107.799H132.937C133.157 107.799 133.344 107.825 133.499 107.877C133.655 107.928 133.782 107.999 133.88 108.09C133.978 108.18 134.049 108.282 134.094 108.397C134.14 108.512 134.163 108.634 134.163 108.763C134.163 108.938 134.132 109.095 134.068 109.232C134.006 109.368 133.918 109.483 133.803 109.577C133.688 109.672 133.553 109.743 133.398 109.791C133.245 109.84 133.078 109.864 132.898 109.864C132.737 109.864 132.582 109.841 132.434 109.797C132.286 109.752 132.154 109.686 132.037 109.598C131.92 109.509 131.828 109.398 131.759 109.266C131.692 109.132 131.658 108.977 131.658 108.802H132.28C132.28 108.913 132.305 109.012 132.357 109.098C132.41 109.182 132.484 109.248 132.578 109.297C132.675 109.345 132.785 109.369 132.908 109.369C133.039 109.369 133.151 109.346 133.246 109.299C133.34 109.253 133.413 109.184 133.462 109.093C133.514 109.002 133.54 108.892 133.54 108.763C133.54 108.617 133.511 108.498 133.455 108.407C133.398 108.316 133.317 108.249 133.212 108.206C133.108 108.162 132.984 108.139 132.841 108.139H132.47Z" fill="black" fill-opacity="0.76"/>
</g>
<defs>
<filter id="filter0_d_3420_69223" x="0.0469995" y="0.481203" width="157.906" height="127.556" filterUnits="userSpaceOnUse" color-interpolation-filters="sRGB">
<feFlood flood-opacity="0" result="BackgroundImageFix"/>
<feColorMatrix in="SourceAlpha" type="matrix" values="0 0 0 0 0 0 0 0 0 0 0 0 0 0 0 0 0 0 127 0" result="hardAlpha"/>
<feOffset dy="1.7594"/>
<feGaussianBlur stdDeviation="2.6391"/>
<feComposite in2="hardAlpha" operator="out"/>
<feColorMatrix type="matrix" values="0 0 0 0 0 0 0 0 0 0 0 0 0 0 0 0 0 0 0.06 0"/>
<feBlend mode="normal" in2="BackgroundImageFix" result="effect1_dropShadow_3420_69223"/>
<feBlend mode="normal" in="SourceGraphic" in2="effect1_dropShadow_3420_69223" result="shape"/>
</filter>
</defs>
</svg>
