<svg width="212" height="131" viewBox="0 0 212 131" fill="none" xmlns="http://www.w3.org/2000/svg">
<g filter="url(#filter0_d_3419_4847)">
<rect x="7.37061" y="5" width="197.259" height="116" rx="4" fill="white" shape-rendering="crispEdges"/>
<path opacity="0.9" d="M23.9974 27H22.5667L22.5759 26.0845H23.9974C24.4114 26.0845 24.7579 25.9941 25.037 25.8131C25.3192 25.6322 25.5308 25.373 25.6718 25.0357C25.816 24.6983 25.8881 24.2966 25.8881 23.8304V23.467C25.8881 23.1051 25.8467 22.7846 25.7638 22.5056C25.6841 22.2265 25.5645 21.9919 25.405 21.8017C25.2486 21.6116 25.0554 21.4674 24.8254 21.3693C24.5985 21.2712 24.3362 21.2221 24.0388 21.2221H22.5391V20.302H24.0388C24.4834 20.302 24.8898 20.3772 25.2578 20.5274C25.6258 20.6747 25.9433 20.8878 26.2101 21.1669C26.48 21.446 26.687 21.7802 26.8311 22.1697C26.9752 22.5592 27.0473 22.9947 27.0473 23.4762V23.8304C27.0473 24.3119 26.9752 24.7474 26.8311 25.1369C26.687 25.5264 26.48 25.8607 26.2101 26.1398C25.9402 26.4158 25.6182 26.6289 25.244 26.7792C24.8729 26.9264 24.4574 27 23.9974 27ZM23.2061 20.302V27H22.0514V20.302H23.2061ZM28.0318 24.5665V24.4607C28.0318 24.1018 28.0839 23.7691 28.1882 23.4624C28.2925 23.1527 28.4427 22.8843 28.639 22.6574C28.8384 22.4273 29.0806 22.2495 29.3658 22.1237C29.6541 21.9949 29.9792 21.9305 30.3411 21.9305C30.7061 21.9305 31.0311 21.9949 31.3164 22.1237C31.6046 22.2495 31.8485 22.4273 32.0478 22.6574C32.2471 22.8843 32.3989 23.1527 32.5032 23.4624C32.6075 23.7691 32.6596 24.1018 32.6596 24.4607V24.5665C32.6596 24.9253 32.6075 25.258 32.5032 25.5647C32.3989 25.8714 32.2471 26.1398 32.0478 26.3698C31.8485 26.5967 31.6062 26.7746 31.321 26.9034C31.0357 27.0291 30.7122 27.092 30.3503 27.092C29.9853 27.092 29.6587 27.0291 29.3704 26.9034C29.0852 26.7746 28.843 26.5967 28.6436 26.3698C28.4443 26.1398 28.2925 25.8714 28.1882 25.5647C28.0839 25.258 28.0318 24.9253 28.0318 24.5665ZM29.1404 24.4607V24.5665C29.1404 24.7903 29.1634 25.002 29.2094 25.2013C29.2554 25.4006 29.3275 25.5755 29.4257 25.7257C29.5238 25.876 29.6495 25.9941 29.8029 26.0799C29.9562 26.1658 30.1387 26.2088 30.3503 26.2088C30.5558 26.2088 30.7337 26.1658 30.8839 26.0799C31.0373 25.9941 31.163 25.876 31.2612 25.7257C31.3593 25.5755 31.4314 25.4006 31.4774 25.2013C31.5264 25.002 31.551 24.7903 31.551 24.5665V24.4607C31.551 24.2398 31.5264 24.0313 31.4774 23.835C31.4314 23.6357 31.3578 23.4593 31.2566 23.306C31.1584 23.1527 31.0327 23.033 30.8793 22.9472C30.7291 22.8582 30.5496 22.8138 30.3411 22.8138C30.1326 22.8138 29.9516 22.8582 29.7983 22.9472C29.648 23.033 29.5238 23.1527 29.4257 23.306C29.3275 23.4593 29.2554 23.6357 29.2094 23.835C29.1634 24.0313 29.1404 24.2398 29.1404 24.4607ZM36.7309 25.8269V22.0225H37.8441V27H36.7953L36.7309 25.8269ZM36.8873 24.7919L37.2599 24.7827C37.2599 25.117 37.2231 25.4252 37.1495 25.7073C37.0759 25.9864 36.9624 26.2302 36.8091 26.4388C36.6557 26.6442 36.4594 26.8053 36.2202 26.9218C35.981 27.0353 35.6943 27.092 35.36 27.092C35.1177 27.092 34.8954 27.0567 34.6929 26.9862C34.4905 26.9157 34.3157 26.8068 34.1685 26.6596C34.0244 26.5124 33.9124 26.3207 33.8327 26.0845C33.753 25.8484 33.7131 25.5663 33.7131 25.2381V22.0225H34.8217V25.2473C34.8217 25.4282 34.8432 25.5801 34.8862 25.7027C34.9291 25.8223 34.9874 25.9189 35.061 25.9925C35.1346 26.0661 35.2204 26.1183 35.3186 26.149C35.4167 26.1796 35.521 26.195 35.6314 26.195C35.9473 26.195 36.1957 26.1336 36.3766 26.0109C36.5606 25.8852 36.691 25.7165 36.7677 25.5049C36.8474 25.2933 36.8873 25.0556 36.8873 24.7919ZM42.3156 22.0225H43.323V26.862C43.323 27.3098 43.2279 27.69 43.0378 28.0029C42.8477 28.3157 42.5824 28.5534 42.242 28.7159C41.9015 28.8815 41.5074 28.9643 41.0597 28.9643C40.8695 28.9643 40.6579 28.9367 40.4249 28.8815C40.1948 28.8263 39.971 28.7374 39.7532 28.6147C39.5385 28.4951 39.3591 28.3371 39.215 28.1409L39.7348 27.4876C39.9127 27.6992 40.109 27.8541 40.3237 27.9523C40.5383 28.0504 40.7637 28.0995 40.9999 28.0995C41.2544 28.0995 41.4706 28.0519 41.6485 27.9569C41.8295 27.8648 41.969 27.7284 42.0671 27.5474C42.1653 27.3665 42.2144 27.1457 42.2144 26.885V23.1496L42.3156 22.0225ZM38.9344 24.5665V24.4699C38.9344 24.0926 38.9804 23.7492 39.0724 23.4394C39.1644 23.1266 39.2963 22.8582 39.468 22.6344C39.6397 22.4074 39.8483 22.2341 40.0936 22.1145C40.339 21.9919 40.6165 21.9305 40.9263 21.9305C41.2483 21.9305 41.5228 21.9888 41.7497 22.1053C41.9797 22.2219 42.1714 22.389 42.3248 22.6068C42.4781 22.8214 42.5977 23.0791 42.6836 23.3796C42.7725 23.6771 42.8385 24.0083 42.8814 24.3733V24.6815C42.8415 25.0372 42.7741 25.3623 42.679 25.6567C42.5839 25.9511 42.4582 26.2057 42.3018 26.4204C42.1454 26.635 41.9521 26.8007 41.7221 26.9172C41.4952 27.0337 41.2268 27.092 40.9171 27.092C40.6135 27.092 40.339 27.0291 40.0936 26.9034C39.8514 26.7777 39.6428 26.6013 39.468 26.3744C39.2963 26.1474 39.1644 25.8806 39.0724 25.5739C38.9804 25.2642 38.9344 24.9284 38.9344 24.5665ZM40.043 24.4699V24.5665C40.043 24.7934 40.0645 25.005 40.1074 25.2013C40.1534 25.3976 40.2224 25.5709 40.3145 25.7211C40.4095 25.8683 40.5291 25.9849 40.6733 26.0707C40.8205 26.1536 40.9938 26.195 41.1931 26.195C41.4538 26.195 41.6669 26.1398 41.8325 26.0293C42.0012 25.9189 42.13 25.7702 42.219 25.5831C42.311 25.393 42.3754 25.1814 42.4122 24.9483V24.1156C42.3938 23.9347 42.3554 23.766 42.2972 23.6096C42.242 23.4532 42.1668 23.3167 42.0717 23.2002C41.9767 23.0806 41.8571 22.9886 41.7129 22.9242C41.5688 22.8567 41.3986 22.823 41.2023 22.823C41.003 22.823 40.8297 22.8659 40.6825 22.9518C40.5353 23.0376 40.4141 23.1557 40.3191 23.306C40.227 23.4563 40.158 23.6311 40.112 23.8304C40.066 24.0298 40.043 24.2429 40.043 24.4699ZM45.7152 19.934V27H44.6111V19.934H45.7152ZM45.5219 24.3273L45.1631 24.3227C45.1662 23.9792 45.2137 23.6617 45.3057 23.3704C45.4008 23.0791 45.5327 22.826 45.7013 22.6114C45.8731 22.3936 46.0786 22.2265 46.3178 22.1099C46.557 21.9903 46.8223 21.9305 47.1136 21.9305C47.359 21.9305 47.5798 21.9643 47.7761 22.0317C47.9754 22.0992 48.1472 22.2081 48.2913 22.3583C48.4354 22.5056 48.5443 22.6988 48.6179 22.938C48.6946 23.1741 48.7329 23.4624 48.7329 23.8028V27H47.6197V23.7936C47.6197 23.5544 47.5844 23.3643 47.5138 23.2232C47.4464 23.0821 47.3467 22.9809 47.2148 22.9196C47.083 22.8552 46.9219 22.823 46.7318 22.823C46.5325 22.823 46.3561 22.8628 46.2028 22.9426C46.0525 23.0223 45.9268 23.1312 45.8256 23.2692C45.7244 23.4072 45.6477 23.5667 45.5955 23.7476C45.5465 23.9286 45.5219 24.1218 45.5219 24.3273ZM51.102 23.0852V27H49.9934V22.0225H51.0376L51.102 23.0852ZM50.9042 24.3273L50.5454 24.3227C50.5485 23.97 50.5976 23.6464 50.6926 23.352C50.7908 23.0576 50.9257 22.8046 51.0974 22.593C51.2723 22.3813 51.4808 22.2188 51.7231 22.1053C51.9654 21.9888 52.2352 21.9305 52.5327 21.9305C52.7719 21.9305 52.9882 21.9643 53.1814 22.0317C53.3776 22.0961 53.5448 22.2019 53.6828 22.3491C53.8239 22.4964 53.9312 22.688 54.0048 22.9242C54.0784 23.1573 54.1152 23.444 54.1152 23.7844V27H53.002V23.7798C53.002 23.5406 52.9667 23.352 52.8961 23.214C52.8287 23.0729 52.729 22.9732 52.5971 22.915C52.4683 22.8536 52.3073 22.823 52.1141 22.823C51.924 22.823 51.7538 22.8628 51.6035 22.9426C51.4532 23.0223 51.3259 23.1312 51.2217 23.2692C51.1204 23.4072 51.0422 23.5667 50.987 23.7476C50.9318 23.9286 50.9042 24.1218 50.9042 24.3273ZM58.3888 25.8269V22.0225H59.5021V27H58.4533L58.3888 25.8269ZM58.5453 24.7919L58.9179 24.7827C58.9179 25.117 58.8811 25.4252 58.8075 25.7073C58.7339 25.9864 58.6204 26.2302 58.4671 26.4388C58.3137 26.6442 58.1174 26.8053 57.8782 26.9218C57.639 27.0353 57.3523 27.092 57.018 27.092C56.7757 27.092 56.5533 27.0567 56.3509 26.9862C56.1485 26.9157 55.9737 26.8068 55.8265 26.6596C55.6824 26.5124 55.5704 26.3207 55.4907 26.0845C55.4109 25.8484 55.3711 25.5663 55.3711 25.2381V22.0225H56.4797V25.2473C56.4797 25.4282 56.5012 25.5801 56.5441 25.7027C56.5871 25.8223 56.6454 25.9189 56.719 25.9925C56.7926 26.0661 56.8784 26.1183 56.9766 26.149C57.0747 26.1796 57.179 26.195 57.2894 26.195C57.6053 26.195 57.8537 26.1336 58.0346 26.0109C58.2186 25.8852 58.349 25.7165 58.4256 25.5049C58.5054 25.2933 58.5453 25.0556 58.5453 24.7919ZM63.0673 22.0225V22.8322H60.2612V22.0225H63.0673ZM61.0708 20.8035H62.1795V25.6245C62.1795 25.7779 62.2009 25.8959 62.2439 25.9787C62.2899 26.0585 62.3527 26.1122 62.4325 26.1398C62.5122 26.1674 62.6057 26.1812 62.7131 26.1812C62.7898 26.1812 62.8634 26.1766 62.9339 26.1674C63.0044 26.1582 63.0612 26.149 63.1041 26.1398L63.1087 26.9862C63.0167 27.0138 62.9094 27.0383 62.7867 27.0598C62.6671 27.0813 62.5291 27.092 62.3727 27.092C62.1181 27.092 61.8927 27.0475 61.6964 26.9586C61.5002 26.8666 61.3468 26.7179 61.2364 26.5124C61.126 26.3069 61.0708 26.0339 61.0708 25.6935V20.8035Z" fill="black" fill-opacity="0.87"/>
<path d="M55.6846 44.2868C55.7487 42.4505 57.2936 40.9968 59.1143 41.244C63.5428 41.845 67.8166 43.334 71.6748 45.6339C76.4883 48.5033 80.4989 52.5421 83.3346 57.3754C86.1704 62.2088 87.7392 67.6802 87.8957 73.2818C88.0211 77.7718 87.2358 82.2289 85.6001 86.3878C84.9275 88.0977 82.9049 88.7371 81.2707 87.8972V87.8972C79.6364 87.0573 79.0142 85.0564 79.6437 83.3302C80.7918 80.1826 81.3386 76.8366 81.2445 73.4676C81.1193 68.9863 79.8642 64.6092 77.5956 60.7425C75.3271 56.8758 72.1185 53.6448 68.2678 51.3493C65.3727 49.6235 62.1852 48.4685 58.8775 47.935C57.0636 47.6425 55.6205 46.1231 55.6846 44.2868V44.2868Z" fill="#FF4D5A"/>
<path d="M53.5947 44.2868C53.5306 42.4505 51.9857 40.9968 50.165 41.2439C45.563 41.8686 41.1299 43.4517 37.1577 45.905C32.2393 48.9427 28.1973 53.2096 25.43 58.2851C22.6627 63.3606 21.2658 69.0695 21.3767 74.8494C21.4877 80.6292 23.1028 86.2803 26.0629 91.2458C29.0229 96.2114 33.2258 100.32 38.2572 103.167C43.2886 106.013 48.9749 107.5 54.7558 107.48C60.5366 107.459 66.2124 105.933 71.2238 103.052C75.2711 100.724 78.7723 97.5776 81.5105 93.8266C82.5939 92.3426 82.0499 90.2922 80.4651 89.3624V89.3624C78.8804 88.4326 76.8575 88.9794 75.7373 90.4359C73.6096 93.2026 70.9514 95.5327 67.907 97.2833C63.8979 99.5887 59.3572 100.81 54.7325 100.826C50.1079 100.842 45.5588 99.6527 41.5337 97.3754C37.5085 95.0981 34.1463 91.8112 31.7782 87.8388C29.4102 83.8664 28.1181 79.3455 28.0293 74.7216C27.9405 70.0978 29.0581 65.5306 31.2719 61.4702C33.4857 57.4098 36.7194 53.9963 40.6541 51.5662C43.6421 49.7207 46.956 48.4908 50.4017 47.935C52.2157 47.6424 53.6588 46.1231 53.5947 44.2868V44.2868Z" fill="#08872B"/>
<rect x="102.041" y="57.1448" width="4.71066" height="4.71066" rx="2.35533" fill="#08872B"/>
<path d="M113.762 59.9819L114.759 56.4765H115.242L114.962 57.8393L113.889 61.5H113.41L113.762 59.9819ZM112.73 56.4765L113.524 59.9129L113.762 61.5H113.286L112.068 56.4765H112.73ZM116.532 59.9095L117.309 56.4765H117.974L116.76 61.5H116.284L116.532 59.9095ZM115.314 56.4765L116.284 59.9819L116.636 61.5H116.156L115.121 57.8393L114.838 56.4765H115.314ZM119.545 57.7669V61.5H118.903V57.7669H119.545ZM118.855 56.7767C118.855 56.6732 118.886 56.5858 118.948 56.5145C119.013 56.4432 119.107 56.4075 119.231 56.4075C119.353 56.4075 119.446 56.4432 119.511 56.5145C119.577 56.5858 119.611 56.6732 119.611 56.7767C119.611 56.8756 119.577 56.9607 119.511 57.032C119.446 57.101 119.353 57.1355 119.231 57.1355C119.107 57.1355 119.013 57.101 118.948 57.032C118.886 56.9607 118.855 56.8756 118.855 56.7767ZM121.444 58.5639V61.5H120.805V57.7669H121.409L121.444 58.5639ZM121.292 59.492L121.026 59.4816C121.029 59.2263 121.066 58.9906 121.14 58.7743C121.214 58.5558 121.317 58.3661 121.451 58.2051C121.584 58.0441 121.743 57.9199 121.927 57.8324C122.113 57.7427 122.319 57.6979 122.544 57.6979C122.728 57.6979 122.894 57.7232 123.041 57.7738C123.188 57.8221 123.314 57.9003 123.417 58.0084C123.523 58.1165 123.604 58.2568 123.659 58.4293C123.714 58.5995 123.742 58.8077 123.742 59.0538V61.5H123.1V59.0469C123.1 58.8514 123.071 58.695 123.014 58.5777C122.956 58.4581 122.872 58.3718 122.762 58.3189C122.651 58.2637 122.516 58.2361 122.355 58.2361C122.196 58.2361 122.051 58.2695 121.92 58.3362C121.791 58.4029 121.679 58.4949 121.585 58.6122C121.493 58.7295 121.421 58.8641 121.368 59.0159C121.317 59.1654 121.292 59.3241 121.292 59.492ZM127.3 60.7755V56.2005H127.941V61.5H127.355L127.3 60.7755ZM124.788 59.6748V59.6024C124.788 59.3172 124.822 59.0584 124.891 58.8261C124.963 58.5915 125.063 58.3902 125.192 58.2223C125.323 58.0544 125.478 57.9256 125.657 57.8359C125.839 57.7439 126.041 57.6979 126.265 57.6979C126.499 57.6979 126.704 57.7393 126.879 57.8221C127.056 57.9026 127.205 58.0211 127.327 58.1775C127.451 58.3316 127.549 58.5179 127.62 58.7364C127.692 58.9549 127.741 59.2022 127.769 59.4782V59.7956C127.744 60.0693 127.694 60.3154 127.62 60.5339C127.549 60.7525 127.451 60.9388 127.327 61.0929C127.205 61.247 127.056 61.3654 126.879 61.4482C126.702 61.5288 126.495 61.569 126.258 61.569C126.039 61.569 125.839 61.5219 125.657 61.4275C125.478 61.3332 125.323 61.201 125.192 61.0308C125.063 60.8606 124.963 60.6605 124.891 60.4304C124.822 60.1981 124.788 59.9463 124.788 59.6748ZM125.43 59.6024V59.6748C125.43 59.8612 125.448 60.036 125.485 60.1993C125.524 60.3626 125.584 60.5063 125.664 60.6306C125.745 60.7548 125.847 60.8525 125.971 60.9238C126.095 60.9928 126.244 61.0273 126.416 61.0273C126.628 61.0273 126.802 60.9825 126.937 60.8928C127.075 60.8031 127.186 60.6846 127.269 60.5374C127.351 60.3902 127.416 60.2303 127.462 60.0578V59.2263C127.434 59.0998 127.394 58.9779 127.341 58.8606C127.29 58.741 127.224 58.6352 127.141 58.5432C127.06 58.4489 126.96 58.3741 126.841 58.3189C126.723 58.2637 126.584 58.2361 126.423 58.2361C126.248 58.2361 126.098 58.2729 125.971 58.3465C125.847 58.4178 125.745 58.5167 125.664 58.6432C125.584 58.7674 125.524 58.9124 125.485 59.078C125.448 59.2413 125.43 59.4161 125.43 59.6024ZM131.797 58.4845V62.9353H131.155V57.7669H131.742L131.797 58.4845ZM134.312 59.6024V59.6748C134.312 59.9463 134.28 60.1981 134.216 60.4304C134.151 60.6605 134.057 60.8606 133.933 61.0308C133.811 61.201 133.66 61.3332 133.481 61.4275C133.301 61.5219 133.095 61.569 132.863 61.569C132.626 61.569 132.417 61.5299 132.235 61.4517C132.054 61.3735 131.899 61.2596 131.773 61.1101C131.646 60.9606 131.545 60.7812 131.469 60.5719C131.396 60.3626 131.345 60.1268 131.317 59.8646V59.4782C131.345 59.2022 131.397 58.9549 131.473 58.7364C131.549 58.5179 131.649 58.3316 131.773 58.1775C131.899 58.0211 132.052 57.9026 132.232 57.8221C132.411 57.7393 132.618 57.6979 132.853 57.6979C133.087 57.6979 133.296 57.7439 133.477 57.8359C133.659 57.9256 133.812 58.0544 133.936 58.2223C134.06 58.3902 134.154 58.5915 134.216 58.8261C134.28 59.0584 134.312 59.3172 134.312 59.6024ZM133.67 59.6748V59.6024C133.67 59.4161 133.651 59.2413 133.612 59.078C133.573 58.9124 133.512 58.7674 133.429 58.6432C133.348 58.5167 133.245 58.4178 133.118 58.3465C132.992 58.2729 132.841 58.2361 132.666 58.2361C132.505 58.2361 132.365 58.2637 132.246 58.3189C132.128 58.3741 132.028 58.4489 131.945 58.5432C131.863 58.6352 131.795 58.741 131.742 58.8606C131.691 58.9779 131.653 59.0998 131.628 59.2263V60.1199C131.674 60.2809 131.738 60.4327 131.821 60.5753C131.904 60.7157 132.014 60.8295 132.152 60.9169C132.29 61.002 132.464 61.0446 132.673 61.0446C132.846 61.0446 132.994 61.0089 133.118 60.9376C133.245 60.864 133.348 60.764 133.429 60.6375C133.512 60.5109 133.573 60.366 133.612 60.2027C133.651 60.0371 133.67 59.8612 133.67 59.6748ZM135.193 59.6748V59.5955C135.193 59.3264 135.232 59.0768 135.31 58.8468C135.388 58.6145 135.501 58.4132 135.648 58.243C135.796 58.0705 135.974 57.9371 136.183 57.8428C136.392 57.7462 136.627 57.6979 136.887 57.6979C137.149 57.6979 137.385 57.7462 137.594 57.8428C137.806 57.9371 137.985 58.0705 138.133 58.243C138.282 58.4132 138.396 58.6145 138.474 58.8468C138.552 59.0768 138.591 59.3264 138.591 59.5955V59.6748C138.591 59.944 138.552 60.1935 138.474 60.4235C138.396 60.6536 138.282 60.8548 138.133 61.0273C137.985 61.1975 137.807 61.3309 137.598 61.4275C137.391 61.5219 137.156 61.569 136.894 61.569C136.632 61.569 136.396 61.5219 136.187 61.4275C135.977 61.3309 135.798 61.1975 135.648 61.0273C135.501 60.8548 135.388 60.6536 135.31 60.4235C135.232 60.1935 135.193 59.944 135.193 59.6748ZM135.831 59.5955V59.6748C135.831 59.8612 135.853 60.0371 135.897 60.2027C135.94 60.366 136.006 60.5109 136.093 60.6375C136.183 60.764 136.295 60.864 136.428 60.9376C136.562 61.0089 136.717 61.0446 136.894 61.0446C137.069 61.0446 137.222 61.0089 137.353 60.9376C137.486 60.864 137.597 60.764 137.684 60.6375C137.771 60.5109 137.837 60.366 137.881 60.2027C137.927 60.0371 137.95 59.8612 137.95 59.6748V59.5955C137.95 59.4115 137.927 59.2378 137.881 59.0745C137.837 58.9089 137.77 58.7628 137.681 58.6363C137.593 58.5075 137.483 58.4063 137.349 58.3327C137.218 58.2591 137.064 58.2223 136.887 58.2223C136.712 58.2223 136.558 58.2591 136.425 58.3327C136.294 58.4063 136.183 58.5075 136.093 58.6363C136.006 58.7628 135.94 58.9089 135.897 59.0745C135.853 59.2378 135.831 59.4115 135.831 59.5955ZM140.573 60.8376L141.532 57.7669H141.953L141.87 58.3776L140.894 61.5H140.483L140.573 60.8376ZM139.928 57.7669L140.745 60.8721L140.804 61.5H140.373L139.289 57.7669H139.928ZM142.871 60.8479L143.65 57.7669H144.285L143.202 61.5H142.774L142.871 60.8479ZM142.046 57.7669L142.984 60.7858L143.091 61.5H142.684L141.68 58.3707L141.597 57.7669H142.046ZM146.725 61.569C146.465 61.569 146.23 61.5253 146.018 61.4379C145.809 61.3482 145.628 61.2228 145.476 61.0618C145.327 60.9008 145.212 60.7099 145.131 60.4891C145.051 60.2683 145.011 60.0268 145.011 59.7646V59.6196C145.011 59.316 145.055 59.0458 145.145 58.8089C145.235 58.5696 145.357 58.3672 145.511 58.2016C145.665 58.036 145.84 57.9107 146.035 57.8255C146.231 57.7404 146.433 57.6979 146.643 57.6979C146.909 57.6979 147.139 57.7439 147.333 57.8359C147.528 57.9279 147.688 58.0567 147.812 58.2223C147.936 58.3856 148.028 58.5788 148.088 58.802C148.148 59.0228 148.178 59.2643 148.178 59.5265V59.8129H145.39V59.2919H147.54V59.2436C147.53 59.078 147.496 58.917 147.436 58.7605C147.379 58.6041 147.287 58.4753 147.16 58.3741C147.034 58.2729 146.861 58.2223 146.643 58.2223C146.498 58.2223 146.364 58.2534 146.242 58.3155C146.12 58.3753 146.016 58.465 145.928 58.5846C145.841 58.7042 145.773 58.8503 145.725 59.0228C145.676 59.1953 145.652 59.3942 145.652 59.6196V59.7646C145.652 59.9417 145.676 60.1084 145.725 60.2648C145.775 60.4189 145.848 60.5546 145.942 60.672C146.039 60.7893 146.155 60.8813 146.291 60.948C146.429 61.0147 146.585 61.048 146.76 61.048C146.985 61.048 147.176 61.002 147.333 60.91C147.489 60.818 147.626 60.695 147.743 60.5408L148.13 60.8479C148.049 60.9698 147.947 61.086 147.822 61.1964C147.698 61.3068 147.545 61.3965 147.364 61.4655C147.184 61.5345 146.971 61.569 146.725 61.569ZM149.797 58.3534V61.5H149.159V57.7669H149.78L149.797 58.3534ZM150.963 57.7462L150.96 58.3396C150.907 58.3281 150.856 58.3212 150.808 58.3189C150.762 58.3143 150.709 58.312 150.649 58.312C150.502 58.312 150.372 58.335 150.259 58.381C150.147 58.427 150.051 58.4914 149.973 58.5742C149.895 58.657 149.833 58.7559 149.787 58.871C149.743 58.9837 149.714 59.1079 149.7 59.2436L149.521 59.3471C149.521 59.1217 149.543 58.9101 149.586 58.7122C149.632 58.5144 149.703 58.3396 149.797 58.1878C149.891 58.0337 150.011 57.9141 150.156 57.829C150.303 57.7416 150.478 57.6979 150.68 57.6979C150.726 57.6979 150.779 57.7036 150.839 57.7151C150.899 57.7243 150.94 57.7347 150.963 57.7462Z" fill="black" fill-opacity="0.38"/>
<path d="M185.341 56.4455H185.445V57.1252H185.386C185.09 57.1252 184.833 57.1712 184.617 57.2632C184.403 57.3552 184.227 57.4817 184.089 57.6427C183.951 57.8037 183.847 57.9923 183.778 58.2085C183.712 58.4224 183.678 58.6501 183.678 58.8917V59.6817C183.678 59.8819 183.7 60.059 183.744 60.2131C183.788 60.3649 183.849 60.4925 183.927 60.5961C184.007 60.6973 184.099 60.7743 184.203 60.8272C184.306 60.8801 184.418 60.9066 184.538 60.9066C184.662 60.9066 184.774 60.8813 184.876 60.8307C184.977 60.7778 185.063 60.7053 185.134 60.6133C185.206 60.5213 185.26 60.412 185.297 60.2855C185.333 60.159 185.352 60.021 185.352 59.8715C185.352 59.7289 185.333 59.5955 185.297 59.4713C185.262 59.3448 185.21 59.2344 185.141 59.1401C185.072 59.0435 184.986 58.9687 184.883 58.9158C184.781 58.8606 184.664 58.833 184.531 58.833C184.365 58.833 184.214 58.8721 184.079 58.9503C183.945 59.0285 183.837 59.1309 183.754 59.2574C183.674 59.3816 183.63 59.5138 183.623 59.6541L183.306 59.5506C183.324 59.3367 183.371 59.1447 183.447 58.9745C183.525 58.8043 183.628 58.6593 183.754 58.5397C183.881 58.4201 184.027 58.3293 184.192 58.2672C184.36 58.2028 184.544 58.1706 184.745 58.1706C184.988 58.1706 185.2 58.2166 185.379 58.3086C185.559 58.4006 185.707 58.5259 185.824 58.6846C185.944 58.8411 186.033 59.0205 186.09 59.2229C186.15 59.423 186.18 59.6323 186.18 59.8508C186.18 60.0923 186.143 60.3177 186.069 60.527C185.996 60.7341 185.888 60.9158 185.745 61.0722C185.605 61.2286 185.433 61.3505 185.231 61.4379C185.031 61.5253 184.803 61.569 184.548 61.569C184.279 61.569 184.038 61.5173 183.827 61.4137C183.617 61.3102 183.439 61.1676 183.292 60.9859C183.147 60.8042 183.037 60.5949 182.961 60.358C182.885 60.1211 182.847 59.8704 182.847 59.6058V59.2608C182.847 58.879 182.895 58.519 182.992 58.1809C183.088 57.8405 183.237 57.5403 183.437 57.2804C183.639 57.0205 183.898 56.8169 184.213 56.6697C184.528 56.5202 184.904 56.4455 185.341 56.4455ZM190.277 60.1303C190.277 60.4431 190.205 60.7065 190.06 60.9204C189.915 61.1343 189.717 61.2964 189.467 61.4068C189.218 61.515 188.938 61.569 188.625 61.569C188.312 61.569 188.03 61.515 187.78 61.4068C187.529 61.2964 187.331 61.1343 187.186 60.9204C187.041 60.7065 186.969 60.4431 186.969 60.1303C186.969 59.9233 187.009 59.7358 187.089 59.5679C187.17 59.3977 187.284 59.2516 187.431 59.1297C187.581 59.0055 187.755 58.9101 187.955 58.8434C188.158 58.7766 188.379 58.7433 188.618 58.7433C188.935 58.7433 189.219 58.802 189.47 58.9193C189.721 59.0366 189.918 59.1987 190.06 59.4057C190.205 59.6127 190.277 59.8543 190.277 60.1303ZM189.443 60.0889C189.443 59.921 189.408 59.7738 189.339 59.6472C189.27 59.5207 189.173 59.423 189.049 59.354C188.925 59.285 188.781 59.2505 188.618 59.2505C188.452 59.2505 188.309 59.285 188.187 59.354C188.065 59.423 187.969 59.5207 187.9 59.6472C187.834 59.7738 187.8 59.921 187.8 60.0889C187.8 60.2591 187.834 60.4063 187.9 60.5305C187.967 60.6524 188.062 60.7456 188.187 60.81C188.311 60.8744 188.457 60.9066 188.625 60.9066C188.793 60.9066 188.938 60.8744 189.06 60.81C189.181 60.7456 189.276 60.6524 189.342 60.5305C189.409 60.4063 189.443 60.2591 189.443 60.0889ZM190.164 57.7979C190.164 58.0487 190.097 58.2718 189.964 58.4673C189.832 58.6628 189.651 58.8169 189.418 58.9296C189.186 59.04 188.922 59.0952 188.625 59.0952C188.326 59.0952 188.059 59.04 187.824 58.9296C187.592 58.8169 187.409 58.6628 187.276 58.4673C187.145 58.2718 187.079 58.0487 187.079 57.7979C187.079 57.4989 187.145 57.2471 187.276 57.0424C187.409 56.8353 187.592 56.6778 187.824 56.5697C188.057 56.4616 188.322 56.4075 188.621 56.4075C188.92 56.4075 189.186 56.4616 189.418 56.5697C189.651 56.6778 189.832 56.8353 189.964 57.0424C190.097 57.2471 190.164 57.4989 190.164 57.7979ZM189.332 57.8255C189.332 57.676 189.302 57.5449 189.242 57.4322C189.185 57.3172 189.103 57.2275 188.997 57.1631C188.892 57.0987 188.766 57.0665 188.621 57.0665C188.476 57.0665 188.351 57.0976 188.245 57.1597C188.14 57.2218 188.058 57.3092 188 57.4219C187.943 57.5346 187.914 57.6691 187.914 57.8255C187.914 57.9797 187.943 58.1142 188 58.2292C188.058 58.3419 188.14 58.4305 188.245 58.4949C188.353 58.5593 188.48 58.5915 188.625 58.5915C188.77 58.5915 188.895 58.5593 189.001 58.4949C189.107 58.4305 189.188 58.3419 189.246 58.2292C189.303 58.1142 189.332 57.9797 189.332 57.8255Z" fill="black" fill-opacity="0.76"/>
<rect x="102.041" y="71.8555" width="4.71066" height="4.71066" rx="2.35533" fill="#FF4D5A"/>
<path d="M114.851 74.941C114.851 74.8237 114.833 74.7202 114.796 74.6305C114.761 74.5385 114.699 74.4557 114.61 74.3821C114.522 74.3085 114.4 74.2383 114.244 74.1716C114.09 74.1049 113.894 74.0371 113.657 73.9681C113.409 73.8945 113.185 73.8128 112.985 73.7231C112.784 73.6311 112.613 73.5264 112.47 73.4091C112.328 73.2918 112.219 73.1573 112.143 73.0055C112.067 72.8537 112.029 72.68 112.029 72.4845C112.029 72.289 112.069 72.1084 112.15 71.9428C112.23 71.7772 112.345 71.6334 112.495 71.5115C112.646 71.3873 112.827 71.2907 113.036 71.2217C113.246 71.1527 113.479 71.1182 113.737 71.1182C114.114 71.1182 114.434 71.1907 114.696 71.3356C114.96 71.4782 115.162 71.6656 115.3 71.898C115.438 72.128 115.507 72.3741 115.507 72.6363H114.844C114.844 72.4477 114.804 72.2809 114.723 72.136C114.643 71.9888 114.521 71.8738 114.358 71.791C114.194 71.7059 113.987 71.6633 113.737 71.6633C113.5 71.6633 113.304 71.699 113.15 71.7703C112.996 71.8416 112.881 71.9382 112.805 72.0601C112.731 72.182 112.695 72.3212 112.695 72.4776C112.695 72.5834 112.717 72.68 112.76 72.7674C112.806 72.8525 112.876 72.9319 112.971 73.0055C113.067 73.0791 113.189 73.1469 113.336 73.209C113.486 73.2711 113.664 73.3309 113.871 73.3884C114.156 73.4689 114.403 73.5586 114.61 73.6576C114.817 73.7565 114.987 73.868 115.12 73.9922C115.256 74.1141 115.356 74.2533 115.42 74.4097C115.487 74.5638 115.52 74.7386 115.52 74.9341C115.52 75.1388 115.479 75.324 115.396 75.4896C115.313 75.6552 115.195 75.7967 115.041 75.914C114.887 76.0313 114.702 76.1221 114.485 76.1865C114.271 76.2486 114.032 76.2797 113.768 76.2797C113.535 76.2797 113.307 76.2475 113.081 76.1831C112.858 76.1187 112.654 76.0221 112.47 75.8933C112.289 75.7645 112.143 75.6058 112.032 75.4171C111.924 75.2262 111.87 75.0054 111.87 74.7547H112.533C112.533 74.9272 112.566 75.0756 112.633 75.1998C112.699 75.3217 112.79 75.4229 112.905 75.5034C113.022 75.5839 113.155 75.6437 113.302 75.6828C113.451 75.7196 113.607 75.738 113.768 75.738C114 75.738 114.197 75.7058 114.358 75.6414C114.519 75.577 114.641 75.485 114.723 75.3654C114.809 75.2458 114.851 75.1043 114.851 74.941ZM116.339 74.3855V74.3062C116.339 74.0371 116.378 73.7875 116.456 73.5575C116.535 73.3252 116.647 73.1239 116.794 72.9537C116.942 72.7812 117.12 72.6478 117.329 72.5535C117.539 72.4569 117.773 72.4086 118.033 72.4086C118.295 72.4086 118.531 72.4569 118.74 72.5535C118.952 72.6478 119.131 72.7812 119.279 72.9537C119.428 73.1239 119.542 73.3252 119.62 73.5575C119.698 73.7875 119.737 74.0371 119.737 74.3062V74.3855C119.737 74.6547 119.698 74.9042 119.62 75.1342C119.542 75.3642 119.428 75.5655 119.279 75.738C119.131 75.9082 118.953 76.0416 118.744 76.1382C118.537 76.2325 118.302 76.2797 118.04 76.2797C117.778 76.2797 117.542 76.2325 117.333 76.1382C117.123 76.0416 116.944 75.9082 116.794 75.738C116.647 75.5655 116.535 75.3642 116.456 75.1342C116.378 74.9042 116.339 74.6547 116.339 74.3855ZM116.977 74.3062V74.3855C116.977 74.5719 116.999 74.7478 117.043 74.9134C117.087 75.0767 117.152 75.2216 117.24 75.3481C117.329 75.4747 117.441 75.5747 117.574 75.6483C117.708 75.7196 117.863 75.7553 118.04 75.7553C118.215 75.7553 118.368 75.7196 118.499 75.6483C118.632 75.5747 118.743 75.4747 118.83 75.3481C118.917 75.2216 118.983 75.0767 119.027 74.9134C119.073 74.7478 119.096 74.5719 119.096 74.3855V74.3062C119.096 74.1222 119.073 73.9485 119.027 73.7852C118.983 73.6196 118.916 73.4735 118.827 73.347C118.739 73.2182 118.629 73.117 118.495 73.0434C118.364 72.9698 118.21 72.933 118.033 72.933C117.858 72.933 117.704 72.9698 117.571 73.0434C117.44 73.117 117.329 73.2182 117.24 73.347C117.152 73.4735 117.087 73.6196 117.043 73.7852C116.999 73.9485 116.977 74.1222 116.977 74.3062ZM121.467 70.9112V76.2107H120.825V70.9112H121.467ZM124.928 75.5724V73.6507C124.928 73.5034 124.898 73.3758 124.839 73.2677C124.781 73.1573 124.694 73.0722 124.576 73.0124C124.459 72.9526 124.314 72.9227 124.142 72.9227C123.981 72.9227 123.839 72.9503 123.717 73.0055C123.598 73.0607 123.503 73.1331 123.434 73.2228C123.368 73.3125 123.334 73.4091 123.334 73.5126H122.696C122.696 73.3792 122.731 73.247 122.8 73.1159C122.869 72.9848 122.968 72.8663 123.096 72.7605C123.227 72.6524 123.384 72.5673 123.566 72.5052C123.75 72.4408 123.954 72.4086 124.18 72.4086C124.451 72.4086 124.69 72.4546 124.897 72.5466C125.107 72.6386 125.27 72.7778 125.387 72.9641C125.507 73.1481 125.567 73.3792 125.567 73.6576V75.3964C125.567 75.5207 125.577 75.6529 125.598 75.7932C125.621 75.9335 125.654 76.0543 125.698 76.1555V76.2107H125.032C125 76.1371 124.974 76.0393 124.956 75.9174C124.938 75.7932 124.928 75.6782 124.928 75.5724ZM125.039 73.9474L125.046 74.3959H124.4C124.219 74.3959 124.057 74.4108 123.914 74.4407C123.771 74.4683 123.652 74.5109 123.555 74.5684C123.459 74.6259 123.385 74.6984 123.334 74.7858C123.284 74.8709 123.258 74.9709 123.258 75.0859C123.258 75.2032 123.285 75.3102 123.338 75.4068C123.391 75.5034 123.47 75.5805 123.576 75.638C123.684 75.6932 123.816 75.7208 123.973 75.7208C124.168 75.7208 124.341 75.6794 124.49 75.5966C124.64 75.5138 124.758 75.4125 124.846 75.2929C124.935 75.1733 124.984 75.0572 124.99 74.9445L125.263 75.2515C125.247 75.3481 125.203 75.4551 125.132 75.5724C125.061 75.6897 124.965 75.8024 124.846 75.9105C124.728 76.0163 124.588 76.1049 124.425 76.1762C124.264 76.2452 124.082 76.2797 123.88 76.2797C123.627 76.2797 123.405 76.2302 123.214 76.1313C123.025 76.0324 122.878 75.9002 122.772 75.7346C122.669 75.5667 122.617 75.3792 122.617 75.1722C122.617 74.9721 122.656 74.7961 122.734 74.6443C122.812 74.4902 122.925 74.3625 123.072 74.2613C123.219 74.1578 123.396 74.0796 123.604 74.0267C123.811 73.9738 124.042 73.9474 124.297 73.9474H125.039ZM127.444 73.0641V76.2107H126.806V72.4776H127.427L127.444 73.0641ZM128.611 72.4569L128.607 73.0503C128.554 73.0388 128.504 73.0319 128.455 73.0296C128.409 73.025 128.356 73.0227 128.297 73.0227C128.149 73.0227 128.02 73.0457 127.907 73.0917C127.794 73.1377 127.699 73.2021 127.62 73.2849C127.542 73.3677 127.48 73.4666 127.434 73.5816C127.39 73.6944 127.362 73.8186 127.348 73.9543L127.168 74.0578C127.168 73.8324 127.19 73.6208 127.234 73.4229C127.28 73.2251 127.35 73.0503 127.444 72.8985C127.539 72.7444 127.658 72.6248 127.803 72.5397C127.951 72.4523 128.125 72.4086 128.328 72.4086C128.374 72.4086 128.427 72.4143 128.486 72.4258C128.546 72.435 128.588 72.4454 128.611 72.4569ZM132.063 73.1952V77.646H131.421V72.4776H132.007L132.063 73.1952ZM134.578 74.3131V74.3855C134.578 74.657 134.546 74.9088 134.481 75.1411C134.417 75.3711 134.323 75.5713 134.198 75.7415C134.076 75.9117 133.926 76.0439 133.746 76.1382C133.567 76.2325 133.361 76.2797 133.129 76.2797C132.892 76.2797 132.683 76.2406 132.501 76.1624C132.319 76.0842 132.165 75.9703 132.039 75.8208C131.912 75.6713 131.811 75.4919 131.735 75.2826C131.661 75.0733 131.611 74.8375 131.583 74.5753V74.1889C131.611 73.9129 131.662 73.6656 131.738 73.4471C131.814 73.2286 131.914 73.0423 132.039 72.8882C132.165 72.7318 132.318 72.6133 132.497 72.5328C132.677 72.45 132.884 72.4086 133.118 72.4086C133.353 72.4086 133.561 72.4546 133.743 72.5466C133.925 72.6363 134.078 72.7651 134.202 72.933C134.326 73.1009 134.419 73.3022 134.481 73.5368C134.546 73.7691 134.578 74.0279 134.578 74.3131ZM133.936 74.3855V74.3131C133.936 74.1268 133.917 73.952 133.877 73.7887C133.838 73.6231 133.777 73.4781 133.695 73.3539C133.614 73.2274 133.511 73.1285 133.384 73.0572C133.258 72.9836 133.107 72.9468 132.932 72.9468C132.771 72.9468 132.631 72.9744 132.511 73.0296C132.394 73.0848 132.294 73.1596 132.211 73.2539C132.128 73.3459 132.06 73.4517 132.007 73.5713C131.957 73.6886 131.919 73.8105 131.894 73.937V74.8306C131.94 74.9916 132.004 75.1434 132.087 75.286C132.17 75.4264 132.28 75.5402 132.418 75.6276C132.556 75.7127 132.73 75.7553 132.939 75.7553C133.112 75.7553 133.26 75.7196 133.384 75.6483C133.511 75.5747 133.614 75.4747 133.695 75.3481C133.777 75.2216 133.838 75.0767 133.877 74.9134C133.917 74.7478 133.936 74.5719 133.936 74.3855ZM135.459 74.3855V74.3062C135.459 74.0371 135.498 73.7875 135.576 73.5575C135.654 73.3252 135.767 73.1239 135.914 72.9537C136.061 72.7812 136.239 72.6478 136.449 72.5535C136.658 72.4569 136.893 72.4086 137.153 72.4086C137.415 72.4086 137.651 72.4569 137.86 72.5535C138.072 72.6478 138.251 72.7812 138.398 72.9537C138.548 73.1239 138.662 73.3252 138.74 73.5575C138.818 73.7875 138.857 74.0371 138.857 74.3062V74.3855C138.857 74.6547 138.818 74.9042 138.74 75.1342C138.662 75.3642 138.548 75.5655 138.398 75.738C138.251 75.9082 138.073 76.0416 137.863 76.1382C137.656 76.2325 137.422 76.2797 137.16 76.2797C136.897 76.2797 136.662 76.2325 136.452 76.1382C136.243 76.0416 136.064 75.9082 135.914 75.738C135.767 75.5655 135.654 75.3642 135.576 75.1342C135.498 74.9042 135.459 74.6547 135.459 74.3855ZM136.097 74.3062V74.3855C136.097 74.5719 136.119 74.7478 136.162 74.9134C136.206 75.0767 136.272 75.2216 136.359 75.3481C136.449 75.4747 136.56 75.5747 136.694 75.6483C136.827 75.7196 136.982 75.7553 137.16 75.7553C137.334 75.7553 137.487 75.7196 137.618 75.6483C137.752 75.5747 137.862 75.4747 137.95 75.3481C138.037 75.2216 138.103 75.0767 138.146 74.9134C138.192 74.7478 138.215 74.5719 138.215 74.3855V74.3062C138.215 74.1222 138.192 73.9485 138.146 73.7852C138.103 73.6196 138.036 73.4735 137.946 73.347C137.859 73.2182 137.748 73.117 137.615 73.0434C137.484 72.9698 137.33 72.933 137.153 72.933C136.978 72.933 136.824 72.9698 136.69 73.0434C136.559 73.117 136.449 73.2182 136.359 73.347C136.272 73.4735 136.206 73.6196 136.162 73.7852C136.119 73.9485 136.097 74.1222 136.097 74.3062ZM140.838 75.5483L141.798 72.4776H142.218L142.136 73.0883L141.159 76.2107H140.749L140.838 75.5483ZM140.193 72.4776L141.011 75.5828L141.07 76.2107H140.638L139.555 72.4776H140.193ZM143.136 75.5586L143.916 72.4776H144.551L143.467 76.2107H143.04L143.136 75.5586ZM142.312 72.4776L143.25 75.4965L143.357 76.2107H142.95L141.946 73.0814L141.863 72.4776H142.312ZM146.991 76.2797C146.731 76.2797 146.495 76.236 146.284 76.1486C146.074 76.0589 145.894 75.9335 145.742 75.7725C145.592 75.6115 145.477 75.4206 145.397 75.1998C145.316 74.979 145.276 74.7375 145.276 74.4752V74.3303C145.276 74.0267 145.321 73.7565 145.411 73.5195C145.5 73.2803 145.622 73.0779 145.776 72.9123C145.931 72.7467 146.105 72.6213 146.301 72.5362C146.496 72.4511 146.699 72.4086 146.908 72.4086C147.175 72.4086 147.405 72.4546 147.598 72.5466C147.794 72.6386 147.954 72.7674 148.078 72.933C148.202 73.0963 148.294 73.2895 148.354 73.5126C148.414 73.7335 148.443 73.975 148.443 74.2372V74.5236H145.656V74.0026H147.805V73.9543C147.796 73.7887 147.762 73.6277 147.702 73.4712C147.644 73.3148 147.552 73.186 147.426 73.0848C147.299 72.9836 147.127 72.933 146.908 72.933C146.763 72.933 146.63 72.9641 146.508 73.0262C146.386 73.086 146.281 73.1757 146.194 73.2953C146.107 73.4149 146.039 73.5609 145.99 73.7335C145.942 73.906 145.918 74.1049 145.918 74.3303V74.4752C145.918 74.6524 145.942 74.8191 145.99 74.9755C146.041 75.1296 146.113 75.2653 146.208 75.3826C146.304 75.5 146.421 75.592 146.556 75.6587C146.694 75.7254 146.851 75.7587 147.025 75.7587C147.251 75.7587 147.442 75.7127 147.598 75.6207C147.755 75.5287 147.891 75.4056 148.009 75.2515L148.395 75.5586C148.315 75.6805 148.212 75.7967 148.088 75.9071C147.964 76.0175 147.811 76.1072 147.629 76.1762C147.45 76.2452 147.237 76.2797 146.991 76.2797ZM150.063 73.0641V76.2107H149.424V72.4776H150.045L150.063 73.0641ZM151.229 72.4569L151.225 73.0503C151.172 73.0388 151.122 73.0319 151.073 73.0296C151.027 73.025 150.975 73.0227 150.915 73.0227C150.768 73.0227 150.638 73.0457 150.525 73.0917C150.412 73.1377 150.317 73.2021 150.239 73.2849C150.16 73.3677 150.098 73.4666 150.052 73.5816C150.008 73.6944 149.98 73.8186 149.966 73.9543L149.787 74.0578C149.787 73.8324 149.808 73.6208 149.852 73.4229C149.898 73.2251 149.968 73.0503 150.063 72.8985C150.157 72.7444 150.276 72.6248 150.421 72.5397C150.569 72.4523 150.743 72.4086 150.946 72.4086C150.992 72.4086 151.045 72.4143 151.105 72.4258C151.164 72.435 151.206 72.4454 151.229 72.4569Z" fill="black" fill-opacity="0.38"/>
<path d="M183.703 73.8749L183.04 73.7128L183.313 71.1872H186.021V71.8911H184.003L183.865 73.1228C183.943 73.0768 184.051 73.0319 184.189 72.9882C184.327 72.9422 184.485 72.9192 184.662 72.9192C184.899 72.9192 185.11 72.9583 185.297 73.0365C185.485 73.1124 185.645 73.224 185.776 73.3712C185.907 73.5161 186.007 73.6932 186.076 73.9025C186.145 74.1095 186.18 74.343 186.18 74.6029C186.18 74.8352 186.145 75.0526 186.076 75.255C186.01 75.4574 185.908 75.6357 185.773 75.7898C185.637 75.9439 185.466 76.0646 185.259 76.152C185.054 76.2371 184.811 76.2797 184.531 76.2797C184.321 76.2797 184.12 76.2498 183.927 76.19C183.736 76.1279 183.565 76.037 183.413 75.9174C183.261 75.7955 183.139 75.646 183.047 75.4689C182.955 75.2895 182.902 75.0836 182.888 74.8513H183.703C183.723 75.0146 183.768 75.1538 183.837 75.2688C183.908 75.3815 184.003 75.4678 184.12 75.5276C184.237 75.5874 184.373 75.6173 184.527 75.6173C184.667 75.6173 184.788 75.5931 184.889 75.5448C184.991 75.4942 185.075 75.4229 185.141 75.3309C185.21 75.2366 185.261 75.1262 185.293 74.9997C185.328 74.8732 185.345 74.7329 185.345 74.5788C185.345 74.4315 185.325 74.297 185.286 74.1751C185.249 74.0532 185.193 73.9474 185.117 73.8577C185.044 73.768 184.95 73.699 184.838 73.6507C184.725 73.6 184.595 73.5747 184.448 73.5747C184.25 73.5747 184.098 73.6035 183.992 73.661C183.889 73.7185 183.792 73.7898 183.703 73.8749ZM189.263 71.17V76.2107H188.432V72.1567L187.2 72.5742V71.8876L189.163 71.17H189.263Z" fill="black" fill-opacity="0.76"/>
<rect x="102.041" y="86.5662" width="4.71066" height="4.71066" rx="2.35533" fill="black" fill-opacity="0.06"/>
<path d="M114.043 85.8979V90.9214H113.387V85.8979H114.043ZM115.657 85.8979V86.443H111.776V85.8979H115.657ZM116.027 89.0962V89.0169C116.027 88.7478 116.066 88.4982 116.145 88.2682C116.223 88.0359 116.336 87.8346 116.483 87.6644C116.63 87.4919 116.808 87.3585 117.017 87.2642C117.227 87.1676 117.461 87.1193 117.721 87.1193C117.984 87.1193 118.219 87.1676 118.429 87.2642C118.64 87.3585 118.82 87.4919 118.967 87.6644C119.116 87.8346 119.23 88.0359 119.308 88.2682C119.387 88.4982 119.426 88.7478 119.426 89.0169V89.0962C119.426 89.3654 119.387 89.6149 119.308 89.8449C119.23 90.0749 119.116 90.2762 118.967 90.4487C118.82 90.6189 118.641 90.7523 118.432 90.8489C118.225 90.9432 117.99 90.9904 117.728 90.9904C117.466 90.9904 117.23 90.9432 117.021 90.8489C116.812 90.7523 116.632 90.6189 116.483 90.4487C116.336 90.2762 116.223 90.0749 116.145 89.8449C116.066 89.6149 116.027 89.3654 116.027 89.0962ZM116.666 89.0169V89.0962C116.666 89.2825 116.687 89.4585 116.731 89.6241C116.775 89.7874 116.84 89.9323 116.928 90.0588C117.017 90.1853 117.129 90.2854 117.262 90.359C117.396 90.4303 117.551 90.466 117.728 90.466C117.903 90.466 118.056 90.4303 118.187 90.359C118.321 90.2854 118.431 90.1853 118.518 90.0588C118.606 89.9323 118.671 89.7874 118.715 89.6241C118.761 89.4585 118.784 89.2825 118.784 89.0962V89.0169C118.784 88.8329 118.761 88.6592 118.715 88.4959C118.671 88.3303 118.605 88.1842 118.515 88.0577C118.427 87.9289 118.317 87.8277 118.184 87.7541C118.053 87.6805 117.898 87.6437 117.721 87.6437C117.547 87.6437 117.392 87.6805 117.259 87.7541C117.128 87.8277 117.017 87.9289 116.928 88.0577C116.84 88.1842 116.775 88.3303 116.731 88.4959C116.687 88.6592 116.666 88.8329 116.666 89.0169ZM122.025 87.1883V87.6782H120.006V87.1883H122.025ZM120.689 86.2809H121.328V89.9967C121.328 90.1232 121.347 90.2187 121.386 90.2831C121.425 90.3475 121.476 90.3901 121.538 90.4108C121.6 90.4315 121.667 90.4418 121.738 90.4418C121.791 90.4418 121.846 90.4372 121.904 90.428C121.964 90.4165 122.009 90.4073 122.038 90.4004L122.042 90.9214C121.991 90.9375 121.925 90.9524 121.842 90.9662C121.761 90.9823 121.664 90.9904 121.549 90.9904C121.392 90.9904 121.248 90.9593 121.117 90.8972C120.986 90.8351 120.881 90.7316 120.803 90.5867C120.727 90.4395 120.689 90.2417 120.689 89.9933V86.2809ZM125.21 90.2831V88.3613C125.21 88.2141 125.18 88.0865 125.12 87.9784C125.063 87.868 124.975 87.7829 124.858 87.7231C124.741 87.6633 124.596 87.6334 124.423 87.6334C124.262 87.6334 124.121 87.661 123.999 87.7162C123.879 87.7714 123.785 87.8438 123.716 87.9335C123.649 88.0232 123.616 88.1198 123.616 88.2233H122.978C122.978 88.0899 123.012 87.9577 123.081 87.8266C123.15 87.6955 123.249 87.577 123.378 87.4712C123.509 87.3631 123.666 87.278 123.847 87.2159C124.031 87.1515 124.236 87.1193 124.461 87.1193C124.733 87.1193 124.972 87.1653 125.179 87.2573C125.388 87.3493 125.552 87.4884 125.669 87.6748C125.789 87.8588 125.848 88.0899 125.848 88.3682V90.1071C125.848 90.2313 125.859 90.3636 125.879 90.5039C125.902 90.6442 125.936 90.765 125.979 90.8662V90.9214H125.314C125.281 90.8478 125.256 90.75 125.238 90.6281C125.219 90.5039 125.21 90.3889 125.21 90.2831ZM125.32 88.6581L125.327 89.1066H124.682C124.5 89.1066 124.338 89.1215 124.196 89.1514C124.053 89.179 123.934 89.2216 123.837 89.2791C123.74 89.3366 123.667 89.4091 123.616 89.4965C123.565 89.5816 123.54 89.6816 123.54 89.7966C123.54 89.9139 123.567 90.0209 123.62 90.1175C123.672 90.2141 123.752 90.2912 123.858 90.3487C123.966 90.4039 124.098 90.4315 124.254 90.4315C124.45 90.4315 124.622 90.3901 124.772 90.3073C124.921 90.2244 125.04 90.1232 125.127 90.0036C125.217 89.884 125.265 89.7679 125.272 89.6552L125.545 89.9622C125.529 90.0588 125.485 90.1658 125.414 90.2831C125.342 90.4004 125.247 90.5131 125.127 90.6212C125.01 90.727 124.87 90.8156 124.706 90.8869C124.545 90.9559 124.364 90.9904 124.161 90.9904C123.908 90.9904 123.686 90.9409 123.495 90.842C123.307 90.7431 123.16 90.6109 123.054 90.4453C122.95 90.2774 122.898 90.0899 122.898 89.8829C122.898 89.6828 122.938 89.5068 123.016 89.355C123.094 89.2009 123.207 89.0732 123.354 88.972C123.501 88.8685 123.678 88.7903 123.885 88.7374C124.092 88.6845 124.323 88.6581 124.579 88.6581H125.32ZM127.781 85.6219V90.9214H127.14V85.6219H127.781Z" fill="black" fill-opacity="0.38"/>
<path d="M180.937 85.8807V90.9214H180.105V86.8674L178.873 87.2849V86.5983L180.837 85.8807H180.937ZM186.114 89.5517C186.114 89.8645 186.042 90.1278 185.897 90.3418C185.752 90.5557 185.554 90.7178 185.303 90.8282C185.055 90.9363 184.774 90.9904 184.462 90.9904C184.149 90.9904 183.867 90.9363 183.616 90.8282C183.366 90.7178 183.168 90.5557 183.023 90.3418C182.878 90.1278 182.806 89.8645 182.806 89.5517C182.806 89.3446 182.846 89.1572 182.926 88.9893C183.007 88.8191 183.121 88.673 183.268 88.5511C183.417 88.4269 183.592 88.3314 183.792 88.2647C183.995 88.198 184.215 88.1647 184.455 88.1647C184.772 88.1647 185.056 88.2233 185.307 88.3406C185.558 88.458 185.754 88.6201 185.897 88.8271C186.042 89.0341 186.114 89.2756 186.114 89.5517ZM185.279 89.5103C185.279 89.3423 185.245 89.1951 185.176 89.0686C185.107 88.9421 185.01 88.8444 184.886 88.7754C184.762 88.7064 184.618 88.6719 184.455 88.6719C184.289 88.6719 184.145 88.7064 184.023 88.7754C183.902 88.8444 183.806 88.9421 183.737 89.0686C183.67 89.1951 183.637 89.3423 183.637 89.5103C183.637 89.6805 183.67 89.8277 183.737 89.9519C183.804 90.0738 183.899 90.1669 184.023 90.2313C184.148 90.2958 184.294 90.328 184.462 90.328C184.63 90.328 184.774 90.2958 184.896 90.2313C185.018 90.1669 185.113 90.0738 185.179 89.9519C185.246 89.8277 185.279 89.6805 185.279 89.5103ZM186 87.2193C186 87.47 185.934 87.6932 185.8 87.8887C185.669 88.0842 185.487 88.2383 185.255 88.351C185.023 88.4614 184.758 88.5166 184.462 88.5166C184.163 88.5166 183.896 88.4614 183.661 88.351C183.429 88.2383 183.246 88.0842 183.113 87.8887C182.981 87.6932 182.916 87.47 182.916 87.2193C182.916 86.9203 182.981 86.6685 183.113 86.4637C183.246 86.2567 183.429 86.0992 183.661 85.9911C183.893 85.883 184.159 85.8289 184.458 85.8289C184.757 85.8289 185.023 85.883 185.255 85.9911C185.487 86.0992 185.669 86.2567 185.8 86.4637C185.934 86.6685 186 86.9203 186 87.2193ZM185.169 87.2469C185.169 87.0974 185.139 86.9663 185.079 86.8536C185.022 86.7386 184.94 86.6489 184.834 86.5845C184.728 86.5201 184.603 86.4879 184.458 86.4879C184.313 86.4879 184.188 86.5189 184.082 86.581C183.976 86.6432 183.895 86.7306 183.837 86.8433C183.78 86.956 183.751 87.0905 183.751 87.2469C183.751 87.401 183.78 87.5356 183.837 87.6506C183.895 87.7633 183.976 87.8519 184.082 87.9163C184.19 87.9807 184.317 88.0129 184.462 88.0129C184.607 88.0129 184.732 87.9807 184.838 87.9163C184.943 87.8519 185.025 87.7633 185.083 87.6506C185.14 87.5356 185.169 87.401 185.169 87.2469ZM187.969 88.0336H188.466C188.659 88.0336 188.819 88.0002 188.946 87.9335C189.075 87.8668 189.17 87.7748 189.232 87.6575C189.294 87.5402 189.325 87.4056 189.325 87.2538C189.325 87.0951 189.296 86.9594 189.239 86.8467C189.184 86.7317 189.099 86.6432 188.984 86.581C188.871 86.5189 188.727 86.4879 188.552 86.4879C188.405 86.4879 188.272 86.5178 188.152 86.5776C188.035 86.6351 187.942 86.7179 187.873 86.826C187.804 86.9318 187.769 87.0583 187.769 87.2055H186.934C186.934 86.9387 187.004 86.7018 187.145 86.4948C187.285 86.2878 187.476 86.1256 187.717 86.0083C187.961 85.8887 188.235 85.8289 188.539 85.8289C188.863 85.8289 189.146 85.883 189.387 85.9911C189.631 86.0969 189.821 86.2556 189.957 86.4672C190.092 86.6788 190.16 86.941 190.16 87.2538C190.16 87.3964 190.127 87.5414 190.06 87.6886C189.993 87.8358 189.895 87.9703 189.763 88.0922C189.632 88.2118 189.469 88.3096 189.273 88.3855C189.078 88.4591 188.851 88.4959 188.594 88.4959H187.969V88.0336ZM187.969 88.6822V88.2268H188.594C188.888 88.2268 189.139 88.2613 189.346 88.3303C189.555 88.3993 189.725 88.4948 189.857 88.6167C189.988 88.7363 190.083 88.8731 190.143 89.0272C190.205 89.1813 190.236 89.3446 190.236 89.5172C190.236 89.7518 190.194 89.9611 190.108 90.1451C190.026 90.3268 189.907 90.4809 189.753 90.6074C189.599 90.7339 189.418 90.8294 189.211 90.8938C189.007 90.9582 188.784 90.9904 188.542 90.9904C188.326 90.9904 188.119 90.9605 187.921 90.9007C187.723 90.8409 187.546 90.7523 187.39 90.635C187.233 90.5154 187.109 90.3671 187.017 90.1899C186.927 90.0105 186.882 89.8035 186.882 89.5689H187.714C187.714 89.7184 187.748 89.8507 187.817 89.9657C187.889 90.0784 187.988 90.1669 188.114 90.2313C188.243 90.2958 188.39 90.328 188.556 90.328C188.731 90.328 188.881 90.2969 189.008 90.2348C189.134 90.1727 189.231 90.0807 189.298 89.9588C189.367 89.8369 189.401 89.6897 189.401 89.5172C189.401 89.3216 189.363 89.1629 189.287 89.041C189.211 88.9191 189.103 88.8294 188.963 88.7719C188.823 88.7121 188.657 88.6822 188.466 88.6822H187.969Z" fill="black" fill-opacity="0.76"/>
</g>
<defs>
<filter id="filter0_d_3419_4847" x="0.304615" y="0.28934" width="211.391" height="130.132" filterUnits="userSpaceOnUse" color-interpolation-filters="sRGB">
<feFlood flood-opacity="0" result="BackgroundImageFix"/>
<feColorMatrix in="SourceAlpha" type="matrix" values="0 0 0 0 0 0 0 0 0 0 0 0 0 0 0 0 0 0 127 0" result="hardAlpha"/>
<feOffset dy="2.35533"/>
<feGaussianBlur stdDeviation="3.53299"/>
<feComposite in2="hardAlpha" operator="out"/>
<feColorMatrix type="matrix" values="0 0 0 0 0 0 0 0 0 0 0 0 0 0 0 0 0 0 0.06 0"/>
<feBlend mode="normal" in2="BackgroundImageFix" result="effect1_dropShadow_3419_4847"/>
<feBlend mode="normal" in="SourceGraphic" in2="effect1_dropShadow_3419_4847" result="shape"/>
</filter>
</defs>
</svg>
