<svg width="212" height="131" viewBox="0 0 212 131" fill="none" xmlns="http://www.w3.org/2000/svg">
<g filter="url(#filter0_d_3419_5013)">
<rect x="7.37061" y="5" width="197.259" height="116" rx="4" fill="white" shape-rendering="crispEdges"/>
<path d="M23.9974 27H22.5667L22.5759 26.0845H23.9974C24.4114 26.0845 24.7579 25.9941 25.037 25.8131C25.3192 25.6322 25.5308 25.373 25.6718 25.0357C25.816 24.6983 25.8881 24.2966 25.8881 23.8304V23.467C25.8881 23.1051 25.8467 22.7846 25.7638 22.5056C25.6841 22.2265 25.5645 21.9919 25.405 21.8017C25.2486 21.6116 25.0554 21.4674 24.8254 21.3693C24.5984 21.2712 24.3362 21.2221 24.0388 21.2221H22.5391V20.302H24.0388C24.4834 20.302 24.8898 20.3772 25.2578 20.5274C25.6258 20.6747 25.9433 20.8878 26.2101 21.1669C26.48 21.446 26.687 21.7802 26.8311 22.1697C26.9752 22.5592 27.0473 22.9947 27.0473 23.4762V23.8304C27.0473 24.3119 26.9752 24.7474 26.8311 25.1369C26.687 25.5264 26.48 25.8607 26.2101 26.1398C25.9402 26.4158 25.6182 26.6289 25.244 26.7792C24.8729 26.9264 24.4574 27 23.9974 27ZM23.2061 20.302V27H22.0514V20.302H23.2061ZM28.0318 24.5665V24.4607C28.0318 24.1018 28.0839 23.7691 28.1882 23.4624C28.2925 23.1527 28.4427 22.8843 28.639 22.6574C28.8384 22.4273 29.0806 22.2495 29.3658 22.1237C29.6541 21.9949 29.9792 21.9305 30.3411 21.9305C30.7061 21.9305 31.0311 21.9949 31.3164 22.1237C31.6046 22.2495 31.8484 22.4273 32.0478 22.6574C32.2471 22.8843 32.3989 23.1527 32.5032 23.4624C32.6075 23.7691 32.6596 24.1018 32.6596 24.4607V24.5665C32.6596 24.9253 32.6075 25.258 32.5032 25.5647C32.3989 25.8714 32.2471 26.1398 32.0478 26.3698C31.8484 26.5967 31.6062 26.7746 31.321 26.9034C31.0357 27.0291 30.7122 27.092 30.3503 27.092C29.9853 27.092 29.6587 27.0291 29.3704 26.9034C29.0852 26.7746 28.843 26.5967 28.6436 26.3698C28.4443 26.1398 28.2925 25.8714 28.1882 25.5647C28.0839 25.258 28.0318 24.9253 28.0318 24.5665ZM29.1404 24.4607V24.5665C29.1404 24.7903 29.1634 25.002 29.2094 25.2013C29.2554 25.4006 29.3275 25.5755 29.4256 25.7257C29.5238 25.876 29.6495 25.9941 29.8029 26.0799C29.9562 26.1658 30.1387 26.2088 30.3503 26.2088C30.5558 26.2088 30.7337 26.1658 30.8839 26.0799C31.0373 25.9941 31.163 25.876 31.2612 25.7257C31.3593 25.5755 31.4314 25.4006 31.4774 25.2013C31.5264 25.002 31.551 24.7903 31.551 24.5665V24.4607C31.551 24.2398 31.5264 24.0313 31.4774 23.835C31.4314 23.6357 31.3578 23.4593 31.2566 23.306C31.1584 23.1527 31.0327 23.033 30.8793 22.9472C30.7291 22.8582 30.5496 22.8138 30.3411 22.8138C30.1326 22.8138 29.9516 22.8582 29.7983 22.9472C29.648 23.033 29.5238 23.1527 29.4256 23.306C29.3275 23.4593 29.2554 23.6357 29.2094 23.835C29.1634 24.0313 29.1404 24.2398 29.1404 24.4607ZM36.7309 25.8269V22.0225H37.8441V27H36.7953L36.7309 25.8269ZM36.8873 24.7919L37.2599 24.7827C37.2599 25.117 37.2231 25.4252 37.1495 25.7073C37.0759 25.9864 36.9624 26.2302 36.8091 26.4388C36.6557 26.6442 36.4594 26.8053 36.2202 26.9218C35.981 27.0353 35.6943 27.092 35.36 27.092C35.1177 27.092 34.8954 27.0567 34.6929 26.9862C34.4905 26.9157 34.3157 26.8068 34.1685 26.6596C34.0244 26.5124 33.9124 26.3207 33.8327 26.0845C33.753 25.8484 33.7131 25.5663 33.7131 25.2381V22.0225H34.8217V25.2473C34.8217 25.4282 34.8432 25.5801 34.8861 25.7027C34.9291 25.8223 34.9874 25.9189 35.061 25.9925C35.1346 26.0661 35.2204 26.1183 35.3186 26.149C35.4167 26.1796 35.521 26.195 35.6314 26.195C35.9473 26.195 36.1957 26.1336 36.3766 26.0109C36.5606 25.8852 36.691 25.7165 36.7677 25.5049C36.8474 25.2933 36.8873 25.0556 36.8873 24.7919ZM42.3156 22.0225H43.323V26.862C43.323 27.3098 43.2279 27.69 43.0378 28.0029C42.8477 28.3157 42.5824 28.5534 42.242 28.7159C41.9015 28.8815 41.5074 28.9643 41.0597 28.9643C40.8695 28.9643 40.6579 28.9367 40.4249 28.8815C40.1948 28.8263 39.971 28.7374 39.7532 28.6147C39.5385 28.4951 39.3591 28.3371 39.215 28.1409L39.7348 27.4876C39.9127 27.6992 40.109 27.8541 40.3236 27.9523C40.5383 28.0504 40.7637 28.0995 40.9999 28.0995C41.2544 28.0995 41.4706 28.0519 41.6485 27.9569C41.8295 27.8648 41.969 27.7284 42.0671 27.5474C42.1653 27.3665 42.2144 27.1457 42.2144 26.885V23.1496L42.3156 22.0225ZM38.9344 24.5665V24.4699C38.9344 24.0926 38.9804 23.7492 39.0724 23.4394C39.1644 23.1266 39.2963 22.8582 39.468 22.6344C39.6397 22.4074 39.8483 22.2341 40.0936 22.1145C40.339 21.9919 40.6165 21.9305 40.9263 21.9305C41.2483 21.9305 41.5228 21.9888 41.7497 22.1053C41.9797 22.2219 42.1714 22.389 42.3248 22.6068C42.4781 22.8214 42.5977 23.0791 42.6836 23.3796C42.7725 23.6771 42.8385 24.0083 42.8814 24.3733V24.6815C42.8415 25.0372 42.7741 25.3623 42.679 25.6567C42.5839 25.9511 42.4582 26.2057 42.3018 26.4204C42.1453 26.635 41.9521 26.8007 41.7221 26.9172C41.4952 27.0337 41.2268 27.092 40.9171 27.092C40.6135 27.092 40.339 27.0291 40.0936 26.9034C39.8514 26.7777 39.6428 26.6013 39.468 26.3744C39.2963 26.1474 39.1644 25.8806 39.0724 25.5739C38.9804 25.2642 38.9344 24.9284 38.9344 24.5665ZM40.043 24.4699V24.5665C40.043 24.7934 40.0645 25.005 40.1074 25.2013C40.1534 25.3976 40.2224 25.5709 40.3144 25.7211C40.4095 25.8683 40.5291 25.9849 40.6733 26.0707C40.8205 26.1536 40.9938 26.195 41.1931 26.195C41.4538 26.195 41.6669 26.1398 41.8325 26.0293C42.0012 25.9189 42.13 25.7702 42.219 25.5831C42.311 25.393 42.3754 25.1814 42.4122 24.9483V24.1156C42.3938 23.9347 42.3554 23.766 42.2972 23.6096C42.242 23.4532 42.1668 23.3167 42.0717 23.2002C41.9767 23.0806 41.8571 22.9886 41.7129 22.9242C41.5688 22.8567 41.3986 22.823 41.2023 22.823C41.003 22.823 40.8297 22.8659 40.6825 22.9518C40.5353 23.0376 40.4141 23.1557 40.319 23.306C40.227 23.4563 40.158 23.6311 40.112 23.8304C40.066 24.0298 40.043 24.2429 40.043 24.4699ZM45.7151 19.934V27H44.6111V19.934H45.7151ZM45.5219 24.3273L45.1631 24.3227C45.1662 23.9792 45.2137 23.6617 45.3057 23.3704C45.4008 23.0791 45.5327 22.826 45.7013 22.6114C45.8731 22.3936 46.0786 22.2265 46.3178 22.1099C46.557 21.9903 46.8223 21.9305 47.1136 21.9305C47.359 21.9305 47.5798 21.9643 47.7761 22.0317C47.9754 22.0992 48.1471 22.2081 48.2913 22.3583C48.4354 22.5056 48.5443 22.6988 48.6179 22.938C48.6946 23.1741 48.7329 23.4624 48.7329 23.8028V27H47.6197V23.7936C47.6197 23.5544 47.5844 23.3643 47.5138 23.2232C47.4464 23.0821 47.3467 22.9809 47.2148 22.9196C47.083 22.8552 46.9219 22.823 46.7318 22.823C46.5325 22.823 46.3561 22.8628 46.2028 22.9426C46.0525 23.0223 45.9268 23.1312 45.8256 23.2692C45.7243 23.4072 45.6477 23.5667 45.5955 23.7476C45.5465 23.9286 45.5219 24.1218 45.5219 24.3273ZM51.102 23.0852V27H49.9934V22.0225H51.0376L51.102 23.0852ZM50.9042 24.3273L50.5454 24.3227C50.5485 23.97 50.5975 23.6464 50.6926 23.352C50.7908 23.0576 50.9257 22.8046 51.0974 22.593C51.2723 22.3813 51.4808 22.2188 51.7231 22.1053C51.9654 21.9888 52.2352 21.9305 52.5327 21.9305C52.7719 21.9305 52.9881 21.9643 53.1814 22.0317C53.3776 22.0961 53.5448 22.2019 53.6828 22.3491C53.8239 22.4964 53.9312 22.688 54.0048 22.9242C54.0784 23.1573 54.1152 23.444 54.1152 23.7844V27H53.0019V23.7798C53.0019 23.5406 52.9667 23.352 52.8961 23.214C52.8287 23.0729 52.729 22.9732 52.5971 22.915C52.4683 22.8536 52.3073 22.823 52.1141 22.823C51.924 22.823 51.7537 22.8628 51.6035 22.9426C51.4532 23.0223 51.3259 23.1312 51.2216 23.2692C51.1204 23.4072 51.0422 23.5667 50.987 23.7476C50.9318 23.9286 50.9042 24.1218 50.9042 24.3273ZM58.3888 25.8269V22.0225H59.5021V27H58.4532L58.3888 25.8269ZM58.5453 24.7919L58.9179 24.7827C58.9179 25.117 58.8811 25.4252 58.8075 25.7073C58.7339 25.9864 58.6204 26.2302 58.467 26.4388C58.3137 26.6442 58.1174 26.8053 57.8782 26.9218C57.639 27.0353 57.3523 27.092 57.018 27.092C56.7757 27.092 56.5533 27.0567 56.3509 26.9862C56.1485 26.9157 55.9737 26.8068 55.8265 26.6596C55.6824 26.5124 55.5704 26.3207 55.4907 26.0845C55.4109 25.8484 55.3711 25.5663 55.3711 25.2381V22.0225H56.4797V25.2473C56.4797 25.4282 56.5012 25.5801 56.5441 25.7027C56.5871 25.8223 56.6453 25.9189 56.719 25.9925C56.7926 26.0661 56.8784 26.1183 56.9766 26.149C57.0747 26.1796 57.179 26.195 57.2894 26.195C57.6053 26.195 57.8537 26.1336 58.0346 26.0109C58.2186 25.8852 58.349 25.7165 58.4256 25.5049C58.5054 25.2933 58.5453 25.0556 58.5453 24.7919ZM63.0673 22.0225V22.8322H60.2611V22.0225H63.0673ZM61.0708 20.8035H62.1795V25.6245C62.1795 25.7779 62.2009 25.8959 62.2439 25.9787C62.2899 26.0585 62.3527 26.1122 62.4325 26.1398C62.5122 26.1674 62.6057 26.1812 62.7131 26.1812C62.7898 26.1812 62.8634 26.1766 62.9339 26.1674C63.0044 26.1582 63.0612 26.149 63.1041 26.1398L63.1087 26.9862C63.0167 27.0138 62.9094 27.0383 62.7867 27.0598C62.6671 27.0813 62.5291 27.092 62.3727 27.092C62.1181 27.092 61.8927 27.0475 61.6964 26.9586C61.5001 26.8666 61.3468 26.7179 61.2364 26.5124C61.126 26.3069 61.0708 26.0339 61.0708 25.6935V20.8035Z" fill="black" fill-opacity="0.87"/>
<path d="M55.6846 44.2868C55.7487 42.4505 57.2936 40.9968 59.1143 41.244C63.5428 41.845 67.8166 43.334 71.6748 45.6339C76.4883 48.5033 80.4989 52.5421 83.3346 57.3755C86.1703 62.2088 87.7392 67.6802 87.8957 73.2818C88.0211 77.7718 87.2358 82.2289 85.6001 86.3878C84.9275 88.0977 82.9049 88.7371 81.2707 87.8972V87.8972C79.6364 87.0573 79.0142 85.0564 79.6437 83.3302C80.7918 80.1826 81.3386 76.8366 81.2445 73.4676C81.1193 68.9863 79.8642 64.6092 77.5956 60.7425C75.3271 56.8758 72.1185 53.6448 68.2678 51.3493C65.3727 49.6235 62.1852 48.4685 58.8775 47.935C57.0636 47.6425 55.6205 46.1231 55.6846 44.2868V44.2868Z" fill="#FF4D5A"/>
<path d="M53.5947 44.2868C53.5306 42.4505 51.9857 40.9968 50.165 41.2439C45.563 41.8686 41.1299 43.4517 37.1577 45.905C32.2393 48.9427 28.1973 53.2096 25.43 58.2851C22.6627 63.3606 21.2658 69.0695 21.3767 74.8494C21.4877 80.6292 23.1028 86.2803 26.0629 91.2458C29.0229 96.2114 33.2258 100.32 38.2572 103.167C43.2886 106.013 48.9749 107.5 54.7558 107.48C60.5366 107.459 66.2124 105.933 71.2238 103.052C75.2711 100.724 78.7722 97.5776 81.5105 93.8266C82.5939 92.3426 82.0499 90.2922 80.4651 89.3624V89.3624C78.8803 88.4326 76.8575 88.9794 75.7373 90.4359C73.6096 93.2026 70.9514 95.5327 67.907 97.2833C63.8979 99.5887 59.3572 100.81 54.7325 100.826C50.1079 100.842 45.5588 99.6527 41.5337 97.3754C37.5085 95.0981 34.1463 91.8112 31.7782 87.8388C29.4102 83.8664 28.1181 79.3455 28.0293 74.7216C27.9405 70.0978 29.0581 65.5306 31.2719 61.4702C33.4857 57.4098 36.7194 53.9963 40.6541 51.5661C43.6421 49.7207 46.956 48.4908 50.4017 47.935C52.2157 47.6424 53.6588 46.1231 53.5947 44.2868V44.2868Z" fill="#08872B"/>
<path d="M48.7207 63.9817V69.0051H48.0652V63.9817H48.7207ZM50.3354 63.9817V64.5268H46.454V63.9817H50.3354ZM50.7055 67.18V67.1006C50.7055 66.8315 50.7446 66.5819 50.8228 66.3519C50.901 66.1196 51.0137 65.9184 51.1609 65.7481C51.3081 65.5756 51.4864 65.4422 51.6957 65.3479C51.905 65.2513 52.1396 65.203 52.3996 65.203C52.6618 65.203 52.8975 65.2513 53.1068 65.3479C53.3185 65.4422 53.4979 65.5756 53.6451 65.7481C53.7946 65.9184 53.9084 66.1196 53.9866 66.3519C54.0648 66.5819 54.1039 66.8315 54.1039 67.1006V67.18C54.1039 67.4491 54.0648 67.6987 53.9866 67.9287C53.9084 68.1587 53.7946 68.3599 53.6451 68.5325C53.4979 68.7027 53.3196 68.8361 53.1103 68.9327C52.9033 69.027 52.6687 69.0741 52.4065 69.0741C52.1442 69.0741 51.9085 69.027 51.6992 68.9327C51.4899 68.8361 51.3104 68.7027 51.1609 68.5325C51.0137 68.3599 50.901 68.1587 50.8228 67.9287C50.7446 67.6987 50.7055 67.4491 50.7055 67.18ZM51.3438 67.1006V67.18C51.3438 67.3663 51.3656 67.5422 51.4093 67.7079C51.4531 67.8712 51.5186 68.0161 51.606 68.1426C51.6957 68.2691 51.8073 68.3691 51.9407 68.4427C52.0741 68.514 52.2293 68.5497 52.4065 68.5497C52.5813 68.5497 52.7342 68.514 52.8653 68.4427C52.9987 68.3691 53.1091 68.2691 53.1965 68.1426C53.284 68.0161 53.3495 67.8712 53.3932 67.7079C53.4392 67.5422 53.4622 67.3663 53.4622 67.18V67.1006C53.4622 66.9166 53.4392 66.743 53.3932 66.5796C53.3495 66.414 53.2828 66.268 53.1931 66.1415C53.1057 66.0127 52.9953 65.9115 52.8619 65.8379C52.7308 65.7642 52.5767 65.7274 52.3996 65.7274C52.2247 65.7274 52.0706 65.7642 51.9372 65.8379C51.8061 65.9115 51.6957 66.0127 51.606 66.1415C51.5186 66.268 51.4531 66.414 51.4093 66.5796C51.3656 66.743 51.3438 66.9166 51.3438 67.1006ZM56.7029 65.272V65.7619H54.6845V65.272H56.7029ZM55.3676 64.3646H56.0059V68.0805C56.0059 68.207 56.0255 68.3024 56.0646 68.3668C56.1037 68.4312 56.1543 68.4738 56.2164 68.4945C56.2785 68.5152 56.3452 68.5256 56.4165 68.5256C56.4694 68.5256 56.5246 68.521 56.5821 68.5117C56.6419 68.5002 56.6868 68.491 56.7167 68.4841L56.7201 69.0051C56.6695 69.0212 56.6028 69.0362 56.52 69.05C56.4395 69.0661 56.3417 69.0741 56.2267 69.0741C56.0703 69.0741 55.9266 69.0431 55.7955 68.981C55.6644 68.9189 55.5597 68.8154 55.4815 68.6705C55.4056 68.5233 55.3676 68.3254 55.3676 68.077V64.3646ZM59.8883 68.3668V66.4451C59.8883 66.2979 59.8584 66.1702 59.7986 66.0621C59.7411 65.9517 59.6537 65.8666 59.5364 65.8068C59.4191 65.747 59.2742 65.7171 59.1017 65.7171C58.9407 65.7171 58.7992 65.7447 58.6773 65.7999C58.5577 65.8551 58.4634 65.9276 58.3944 66.0173C58.3277 66.107 58.2943 66.2036 58.2943 66.3071H57.656C57.656 66.1737 57.6905 66.0414 57.7595 65.9103C57.8285 65.7792 57.9274 65.6607 58.0563 65.5549C58.1874 65.4468 58.3438 65.3617 58.5255 65.2996C58.7095 65.2352 58.9142 65.203 59.1396 65.203C59.411 65.203 59.6502 65.249 59.8573 65.341C60.0666 65.433 60.2299 65.5722 60.3472 65.7585C60.4668 65.9425 60.5266 66.1737 60.5266 66.452V68.1909C60.5266 68.3151 60.5369 68.4473 60.5576 68.5877C60.5806 68.728 60.614 68.8487 60.6577 68.9499V69.0051H59.9918C59.9596 68.9315 59.9343 68.8338 59.9159 68.7119C59.8975 68.5877 59.8883 68.4726 59.8883 68.3668ZM59.9987 66.7418L60.0056 67.1903H59.3604C59.1787 67.1903 59.0166 67.2053 58.874 67.2352C58.7313 67.2628 58.6117 67.3053 58.5151 67.3628C58.4185 67.4203 58.3449 67.4928 58.2943 67.5802C58.2437 67.6653 58.2184 67.7654 58.2184 67.8804C58.2184 67.9977 58.2449 68.1046 58.2978 68.2012C58.3507 68.2978 58.43 68.3749 58.5358 68.4324C58.6439 68.4876 58.7762 68.5152 58.9326 68.5152C59.1281 68.5152 59.3006 68.4738 59.4501 68.391C59.5996 68.3082 59.7181 68.207 59.8055 68.0874C59.8952 67.9678 59.9435 67.8516 59.9504 67.7389L60.223 68.046C60.2069 68.1426 60.1632 68.2495 60.0919 68.3668C60.0206 68.4841 59.9251 68.5969 59.8055 68.705C59.6882 68.8108 59.5479 68.8993 59.3846 68.9706C59.2236 69.0396 59.0419 69.0741 58.8394 69.0741C58.5864 69.0741 58.3645 69.0247 58.1736 68.9258C57.985 68.8269 57.8377 68.6946 57.7319 68.529C57.6284 68.3611 57.5767 68.1736 57.5767 67.9666C57.5767 67.7665 57.6158 67.5905 57.694 67.4387C57.7722 67.2846 57.8849 67.157 58.0321 67.0558C58.1793 66.9523 58.3564 66.8741 58.5634 66.8212C58.7704 66.7683 59.0016 66.7418 59.2569 66.7418H59.9987ZM62.4596 63.7056V69.0051H61.8179V63.7056H62.4596Z" fill="black" fill-opacity="0.38"/>
<path d="M48.5559 74.6039V83.0051H47.1701V76.2485L45.1172 76.9443V75.8L48.3891 74.6039H48.5559ZM56.9987 80.7223C56.9987 81.2436 56.878 81.6826 56.6365 82.0391C56.395 82.3956 56.0653 82.6659 55.6474 82.8499C55.2334 83.03 54.7657 83.1201 54.2443 83.1201C53.723 83.1201 53.2534 83.03 52.8355 82.8499C52.4177 82.6659 52.088 82.3956 51.8465 82.0391C51.6049 81.6826 51.4842 81.2436 51.4842 80.7223C51.4842 80.3772 51.5513 80.0648 51.6854 79.7849C51.8196 79.5013 52.0094 79.2578 52.2547 79.0547C52.5039 78.8476 52.7953 78.6886 53.1288 78.5774C53.4661 78.4662 53.8341 78.4106 54.2328 78.4106C54.7619 78.4106 55.2353 78.5084 55.6532 78.7039C56.071 78.8994 56.3988 79.1697 56.6365 79.5147C56.878 79.8597 56.9987 80.2622 56.9987 80.7223ZM55.6072 80.6532C55.6072 80.3734 55.5497 80.1281 55.4347 79.9172C55.3196 79.7064 55.1586 79.5434 54.9516 79.4284C54.7446 79.3134 54.505 79.2559 54.2328 79.2559C53.9568 79.2559 53.7172 79.3134 53.514 79.4284C53.3109 79.5434 53.1518 79.7064 53.0368 79.9172C52.9256 80.1281 52.87 80.3734 52.87 80.6532C52.87 80.9369 52.9256 81.1823 53.0368 81.3893C53.1479 81.5925 53.307 81.7477 53.514 81.8551C53.7211 81.9624 53.9645 82.0161 54.2443 82.0161C54.5242 82.0161 54.7657 81.9624 54.9689 81.8551C55.1721 81.7477 55.3292 81.5925 55.4404 81.3893C55.5516 81.1823 55.6072 80.9369 55.6072 80.6532ZM56.809 76.835C56.809 77.2529 56.6978 77.6247 56.4755 77.9506C56.2569 78.2764 55.9541 78.5333 55.5669 78.7211C55.1797 78.9052 54.7389 78.9972 54.2443 78.9972C53.746 78.9972 53.3013 78.9052 52.9103 78.7211C52.5231 78.5333 52.2183 78.2764 51.996 77.9506C51.7774 77.6247 51.6682 77.2529 51.6682 76.835C51.6682 76.3367 51.7774 75.9169 51.996 75.5757C52.2183 75.2307 52.5231 74.9681 52.9103 74.7879C53.2974 74.6077 53.7402 74.5177 54.2386 74.5177C54.7369 74.5177 55.1797 74.6077 55.5669 74.7879C55.9541 74.9681 56.2569 75.2307 56.4755 75.5757C56.6978 75.9169 56.809 76.3367 56.809 76.835ZM55.4231 76.881C55.4231 76.6319 55.3733 76.4133 55.2736 76.2255C55.1778 76.0338 55.0417 75.8843 54.8654 75.777C54.689 75.6696 54.4801 75.616 54.2386 75.616C53.9971 75.616 53.7881 75.6677 53.6118 75.7712C53.4355 75.8747 53.2994 76.0204 53.2035 76.2083C53.1077 76.3961 53.0598 76.6204 53.0598 76.881C53.0598 77.1379 53.1077 77.3621 53.2035 77.5538C53.2994 77.7417 53.4355 77.8893 53.6118 77.9966C53.792 78.1039 54.0028 78.1576 54.2443 78.1576C54.4858 78.1576 54.6948 78.1039 54.8711 77.9966C55.0475 77.8893 55.1836 77.7417 55.2794 77.5538C55.3752 77.3621 55.4231 77.1379 55.4231 76.881ZM59.904 78.1921H60.7321C61.0541 78.1921 61.3205 78.1365 61.5314 78.0254C61.746 77.9142 61.9051 77.7608 62.0086 77.5653C62.1121 77.3698 62.1639 77.1456 62.1639 76.8925C62.1639 76.628 62.116 76.4018 62.0201 76.214C61.9281 76.0223 61.7863 75.8747 61.5946 75.7712C61.4068 75.6677 61.1672 75.616 60.8758 75.616C60.6305 75.616 60.4081 75.6658 60.2088 75.7655C60.0133 75.8613 59.858 75.9993 59.743 76.1795C59.628 76.3558 59.5705 76.5667 59.5705 76.812H58.1789C58.1789 76.3673 58.2959 75.9725 58.5297 75.6275C58.7635 75.2825 59.0817 75.0122 59.4843 74.8167C59.8906 74.6173 60.3468 74.5177 60.8528 74.5177C61.3934 74.5177 61.8649 74.6077 62.2674 74.7879C62.6738 74.9643 62.99 75.2288 63.2162 75.5815C63.4424 75.9342 63.5555 76.3712 63.5555 76.8925C63.5555 77.1302 63.4999 77.3717 63.3887 77.6171C63.2775 77.8624 63.1127 78.0867 62.8942 78.2899C62.6757 78.4892 62.4035 78.6521 62.0776 78.7786C61.7518 78.9013 61.3742 78.9627 60.9448 78.9627H59.904V78.1921ZM59.904 79.2732V78.5141H60.9448C61.4355 78.5141 61.8534 78.5716 62.1984 78.6866C62.5473 78.8016 62.8309 78.9607 63.0494 79.1639C63.268 79.3633 63.4271 79.5914 63.5267 79.8482C63.6302 80.1051 63.682 80.3772 63.682 80.6647C63.682 81.0558 63.6111 81.4046 63.4692 81.7113C63.3312 82.0142 63.1338 82.271 62.8769 82.4818C62.6201 82.6927 62.3192 82.8518 61.9741 82.9591C61.633 83.0665 61.2611 83.1201 60.8586 83.1201C60.4982 83.1201 60.1532 83.0703 59.8235 82.9706C59.4938 82.871 59.1987 82.7234 58.938 82.5279C58.6773 82.3285 58.4703 82.0812 58.3169 81.7861C58.1674 81.487 58.0927 81.142 58.0927 80.751H59.4785C59.4785 81.0002 59.536 81.2206 59.651 81.4123C59.7699 81.6001 59.9347 81.7477 60.1455 81.8551C60.3602 81.9624 60.6056 82.0161 60.8816 82.0161C61.1729 82.0161 61.424 81.9643 61.6349 81.8608C61.8457 81.7573 62.0067 81.604 62.1179 81.4008C62.2329 81.1976 62.2904 80.9523 62.2904 80.6647C62.2904 80.3389 62.2272 80.0744 62.1006 79.8712C61.9741 79.668 61.794 79.5185 61.5601 79.4227C61.3263 79.323 61.0503 79.2732 60.7321 79.2732H59.904Z" fill="black" fill-opacity="0.87"/>
<rect x="102.041" y="64.5002" width="4.71066" height="4.71066" rx="2.35533" fill="#08872B"/>
<path d="M113.762 67.3374L114.759 63.832H115.242L114.962 65.1948L113.889 68.8555H113.41L113.762 67.3374ZM112.73 63.832L113.524 67.2684L113.762 68.8555H113.286L112.068 63.832H112.73ZM116.532 67.2649L117.309 63.832H117.974L116.76 68.8555H116.284L116.532 67.2649ZM115.314 63.832L116.284 67.3374L116.636 68.8555H116.156L115.121 65.1948L114.838 63.832H115.314ZM119.545 65.1224V68.8555H118.903V65.1224H119.545ZM118.855 64.1322C118.855 64.0287 118.886 63.9412 118.948 63.8699C119.013 63.7986 119.107 63.763 119.231 63.763C119.353 63.763 119.446 63.7986 119.511 63.8699C119.577 63.9412 119.611 64.0287 119.611 64.1322C119.611 64.2311 119.577 64.3162 119.511 64.3875C119.446 64.4565 119.353 64.491 119.231 64.491C119.107 64.491 119.013 64.4565 118.948 64.3875C118.886 64.3162 118.855 64.2311 118.855 64.1322ZM121.444 65.9194V68.8555H120.805V65.1224H121.409L121.444 65.9194ZM121.292 66.8475L121.026 66.8371C121.029 66.5818 121.066 66.346 121.14 66.1298C121.214 65.9113 121.317 65.7215 121.451 65.5605C121.584 65.3995 121.743 65.2753 121.927 65.1879C122.113 65.0982 122.319 65.0534 122.544 65.0534C122.728 65.0534 122.894 65.0787 123.041 65.1293C123.188 65.1776 123.314 65.2558 123.417 65.3639C123.523 65.472 123.604 65.6123 123.659 65.7848C123.714 65.955 123.742 66.1632 123.742 66.4093V68.8555H123.1V66.4024C123.1 66.2069 123.071 66.0505 123.014 65.9332C122.956 65.8136 122.872 65.7273 122.762 65.6744C122.651 65.6192 122.516 65.5916 122.355 65.5916C122.196 65.5916 122.051 65.6249 121.92 65.6916C121.791 65.7583 121.679 65.8504 121.585 65.9677C121.493 66.085 121.421 66.2195 121.368 66.3713C121.317 66.5208 121.292 66.6795 121.292 66.8475ZM127.3 68.1309V63.556H127.941V68.8555H127.355L127.3 68.1309ZM124.788 67.0303V66.9579C124.788 66.6726 124.822 66.4139 124.891 66.1816C124.963 65.947 125.063 65.7457 125.192 65.5778C125.323 65.4099 125.478 65.2811 125.657 65.1914C125.839 65.0994 126.041 65.0534 126.265 65.0534C126.499 65.0534 126.704 65.0948 126.879 65.1776C127.056 65.2581 127.205 65.3765 127.327 65.5329C127.451 65.687 127.549 65.8734 127.62 66.0919C127.692 66.3104 127.741 66.5576 127.769 66.8337V67.1511C127.744 67.4248 127.694 67.6709 127.62 67.8894C127.549 68.1079 127.451 68.2942 127.327 68.4483C127.205 68.6025 127.056 68.7209 126.879 68.8037C126.702 68.8842 126.495 68.9245 126.258 68.9245C126.039 68.9245 125.839 68.8773 125.657 68.783C125.478 68.6887 125.323 68.5565 125.192 68.3862C125.063 68.216 124.963 68.0159 124.891 67.7859C124.822 67.5536 124.788 67.3017 124.788 67.0303ZM125.43 66.9579V67.0303C125.43 67.2166 125.448 67.3914 125.485 67.5547C125.524 67.7181 125.584 67.8618 125.664 67.986C125.745 68.1102 125.847 68.208 125.971 68.2793C126.095 68.3483 126.244 68.3828 126.416 68.3828C126.628 68.3828 126.802 68.3379 126.937 68.2482C127.075 68.1585 127.186 68.0401 127.269 67.8929C127.351 67.7457 127.416 67.5858 127.462 67.4133V66.5818C127.434 66.4553 127.394 66.3334 127.341 66.2161C127.29 66.0965 127.224 65.9907 127.141 65.8987C127.06 65.8044 126.96 65.7296 126.841 65.6744C126.723 65.6192 126.584 65.5916 126.423 65.5916C126.248 65.5916 126.098 65.6284 125.971 65.702C125.847 65.7733 125.745 65.8722 125.664 65.9987C125.584 66.1229 125.524 66.2678 125.485 66.4334C125.448 66.5967 125.43 66.7716 125.43 66.9579ZM131.797 65.84V70.2907H131.155V65.1224H131.742L131.797 65.84ZM134.312 66.9579V67.0303C134.312 67.3017 134.28 67.5536 134.216 67.7859C134.151 68.0159 134.057 68.216 133.933 68.3862C133.811 68.5565 133.66 68.6887 133.481 68.783C133.301 68.8773 133.095 68.9245 132.863 68.9245C132.626 68.9245 132.417 68.8854 132.235 68.8072C132.054 68.729 131.899 68.6151 131.773 68.4656C131.646 68.3161 131.545 68.1367 131.469 67.9274C131.396 67.7181 131.345 67.4823 131.317 67.2201V66.8337C131.345 66.5576 131.397 66.3104 131.473 66.0919C131.549 65.8734 131.649 65.687 131.773 65.5329C131.899 65.3765 132.052 65.2581 132.232 65.1776C132.411 65.0948 132.618 65.0534 132.853 65.0534C133.087 65.0534 133.296 65.0994 133.477 65.1914C133.659 65.2811 133.812 65.4099 133.936 65.5778C134.06 65.7457 134.154 65.947 134.216 66.1816C134.28 66.4139 134.312 66.6726 134.312 66.9579ZM133.67 67.0303V66.9579C133.67 66.7716 133.651 66.5967 133.612 66.4334C133.573 66.2678 133.512 66.1229 133.429 65.9987C133.348 65.8722 133.245 65.7733 133.118 65.702C132.992 65.6284 132.841 65.5916 132.666 65.5916C132.505 65.5916 132.365 65.6192 132.246 65.6744C132.128 65.7296 132.028 65.8044 131.945 65.8987C131.863 65.9907 131.795 66.0965 131.742 66.2161C131.691 66.3334 131.653 66.4553 131.628 66.5818V67.4754C131.674 67.6364 131.738 67.7882 131.821 67.9308C131.904 68.0711 132.014 68.185 132.152 68.2724C132.29 68.3575 132.464 68.4 132.673 68.4C132.846 68.4 132.994 68.3644 133.118 68.2931C133.245 68.2195 133.348 68.1194 133.429 67.9929C133.512 67.8664 133.573 67.7215 133.612 67.5582C133.651 67.3926 133.67 67.2166 133.67 67.0303ZM135.193 67.0303V66.951C135.193 66.6818 135.232 66.4323 135.31 66.2023C135.388 65.97 135.501 65.7687 135.648 65.5985C135.796 65.426 135.974 65.2926 136.183 65.1983C136.392 65.1017 136.627 65.0534 136.887 65.0534C137.149 65.0534 137.385 65.1017 137.594 65.1983C137.806 65.2926 137.985 65.426 138.133 65.5985C138.282 65.7687 138.396 65.97 138.474 66.2023C138.552 66.4323 138.591 66.6818 138.591 66.951V67.0303C138.591 67.2994 138.552 67.549 138.474 67.779C138.396 68.009 138.282 68.2103 138.133 68.3828C137.985 68.553 137.807 68.6864 137.598 68.783C137.391 68.8773 137.156 68.9245 136.894 68.9245C136.632 68.9245 136.396 68.8773 136.187 68.783C135.977 68.6864 135.798 68.553 135.648 68.3828C135.501 68.2103 135.388 68.009 135.31 67.779C135.232 67.549 135.193 67.2994 135.193 67.0303ZM135.831 66.951V67.0303C135.831 67.2166 135.853 67.3926 135.897 67.5582C135.94 67.7215 136.006 67.8664 136.093 67.9929C136.183 68.1194 136.295 68.2195 136.428 68.2931C136.562 68.3644 136.717 68.4 136.894 68.4C137.069 68.4 137.222 68.3644 137.353 68.2931C137.486 68.2195 137.597 68.1194 137.684 67.9929C137.771 67.8664 137.837 67.7215 137.881 67.5582C137.927 67.3926 137.95 67.2166 137.95 67.0303V66.951C137.95 66.767 137.927 66.5933 137.881 66.43C137.837 66.2644 137.77 66.1183 137.681 65.9918C137.593 65.863 137.483 65.7618 137.349 65.6882C137.218 65.6146 137.064 65.5778 136.887 65.5778C136.712 65.5778 136.558 65.6146 136.425 65.6882C136.294 65.7618 136.183 65.863 136.093 65.9918C136.006 66.1183 135.94 66.2644 135.897 66.43C135.853 66.5933 135.831 66.767 135.831 66.951ZM140.573 68.193L141.532 65.1224H141.953L141.87 65.733L140.894 68.8555H140.483L140.573 68.193ZM139.928 65.1224L140.745 68.2275L140.804 68.8555H140.373L139.289 65.1224H139.928ZM142.871 68.2034L143.65 65.1224H144.285L143.202 68.8555H142.774L142.871 68.2034ZM142.046 65.1224L142.984 68.1413L143.091 68.8555H142.684L141.68 65.7261L141.597 65.1224H142.046ZM146.725 68.9245C146.465 68.9245 146.23 68.8808 146.018 68.7934C145.809 68.7037 145.628 68.5783 145.476 68.4173C145.327 68.2563 145.212 68.0654 145.131 67.8446C145.051 67.6238 145.011 67.3822 145.011 67.12V66.9751C145.011 66.6715 145.055 66.4012 145.145 66.1643C145.235 65.9251 145.357 65.7227 145.511 65.5571C145.665 65.3915 145.84 65.2661 146.035 65.181C146.231 65.0959 146.433 65.0534 146.643 65.0534C146.909 65.0534 147.139 65.0994 147.333 65.1914C147.528 65.2834 147.688 65.4122 147.812 65.5778C147.936 65.7411 148.028 65.9343 148.088 66.1574C148.148 66.3782 148.178 66.6197 148.178 66.882V67.1683H145.39V66.6473H147.54V66.599C147.53 66.4334 147.496 66.2724 147.436 66.116C147.379 65.9596 147.287 65.8308 147.16 65.7296C147.034 65.6284 146.861 65.5778 146.643 65.5778C146.498 65.5778 146.364 65.6088 146.242 65.6709C146.12 65.7307 146.016 65.8205 145.928 65.9401C145.841 66.0597 145.773 66.2057 145.725 66.3782C145.676 66.5507 145.652 66.7497 145.652 66.9751V67.12C145.652 67.2971 145.676 67.4639 145.725 67.6203C145.775 67.7744 145.848 67.9101 145.942 68.0274C146.039 68.1447 146.155 68.2367 146.291 68.3034C146.429 68.3701 146.585 68.4035 146.76 68.4035C146.985 68.4035 147.176 68.3575 147.333 68.2655C147.489 68.1735 147.626 68.0504 147.743 67.8963L148.13 68.2034C148.049 68.3253 147.947 68.4414 147.822 68.5519C147.698 68.6623 147.545 68.752 147.364 68.821C147.184 68.89 146.971 68.9245 146.725 68.9245ZM149.797 65.7089V68.8555H149.159V65.1224H149.78L149.797 65.7089ZM150.963 65.1017L150.96 65.6951C150.907 65.6836 150.856 65.6767 150.808 65.6744C150.762 65.6698 150.709 65.6675 150.649 65.6675C150.502 65.6675 150.372 65.6905 150.259 65.7365C150.147 65.7825 150.051 65.8469 149.973 65.9297C149.895 66.0125 149.833 66.1114 149.787 66.2264C149.743 66.3391 149.714 66.4633 149.7 66.599L149.521 66.7026C149.521 66.4771 149.543 66.2655 149.586 66.0677C149.632 65.8699 149.703 65.6951 149.797 65.5433C149.891 65.3892 150.011 65.2696 150.156 65.1845C150.303 65.0971 150.478 65.0534 150.68 65.0534C150.726 65.0534 150.779 65.0591 150.839 65.0706C150.899 65.0798 150.94 65.0902 150.963 65.1017Z" fill="black" fill-opacity="0.38"/>
<path d="M185.341 63.8009H185.445V64.4806H185.386C185.09 64.4806 184.833 64.5266 184.617 64.6186C184.403 64.7106 184.227 64.8371 184.089 64.9982C183.951 65.1592 183.847 65.3478 183.778 65.564C183.712 65.7779 183.678 66.0056 183.678 66.2471V67.0372C183.678 67.2373 183.7 67.4144 183.744 67.5685C183.788 67.7204 183.849 67.848 183.927 67.9515C184.007 68.0527 184.099 68.1298 184.203 68.1827C184.306 68.2356 184.418 68.262 184.538 68.262C184.662 68.262 184.774 68.2367 184.876 68.1861C184.977 68.1332 185.063 68.0608 185.134 67.9688C185.206 67.8768 185.26 67.7675 185.297 67.641C185.333 67.5145 185.352 67.3765 185.352 67.227C185.352 67.0844 185.333 66.951 185.297 66.8268C185.262 66.7002 185.21 66.5898 185.141 66.4955C185.072 66.3989 184.986 66.3242 184.883 66.2713C184.781 66.2161 184.664 66.1885 184.531 66.1885C184.365 66.1885 184.214 66.2276 184.079 66.3058C183.945 66.384 183.837 66.4863 183.754 66.6128C183.674 66.7371 183.63 66.8693 183.623 67.0096L183.306 66.9061C183.324 66.6922 183.371 66.5001 183.447 66.3299C183.525 66.1597 183.628 66.0148 183.754 65.8952C183.881 65.7756 184.027 65.6847 184.192 65.6226C184.36 65.5582 184.544 65.526 184.745 65.526C184.988 65.526 185.2 65.572 185.379 65.664C185.559 65.756 185.707 65.8814 185.824 66.0401C185.944 66.1965 186.033 66.3759 186.09 66.5783C186.15 66.7785 186.18 66.9878 186.18 67.2063C186.18 67.4478 186.143 67.6732 186.069 67.8825C185.996 68.0895 185.888 68.2712 185.745 68.4276C185.605 68.5841 185.433 68.706 185.231 68.7934C185.031 68.8808 184.803 68.9245 184.548 68.9245C184.279 68.9245 184.038 68.8727 183.827 68.7692C183.617 68.6657 183.439 68.5231 183.292 68.3414C183.147 68.1597 183.037 67.9504 182.961 67.7135C182.885 67.4765 182.847 67.2258 182.847 66.9613V66.6163C182.847 66.2345 182.895 65.8745 182.992 65.5364C183.088 65.196 183.237 64.8958 183.437 64.6359C183.639 64.376 183.898 64.1724 184.213 64.0252C184.528 63.8757 184.904 63.8009 185.341 63.8009ZM190.277 67.4857C190.277 67.7986 190.205 68.0619 190.06 68.2758C189.915 68.4897 189.717 68.6519 189.467 68.7623C189.218 68.8704 188.938 68.9245 188.625 68.9245C188.312 68.9245 188.03 68.8704 187.78 68.7623C187.529 68.6519 187.331 68.4897 187.186 68.2758C187.041 68.0619 186.969 67.7986 186.969 67.4857C186.969 67.2787 187.009 67.0913 187.089 66.9234C187.17 66.7532 187.284 66.6071 187.431 66.4852C187.581 66.361 187.755 66.2655 187.955 66.1988C188.158 66.1321 188.379 66.0988 188.618 66.0988C188.935 66.0988 189.219 66.1574 189.47 66.2747C189.721 66.392 189.918 66.5542 190.06 66.7612C190.205 66.9682 190.277 67.2097 190.277 67.4857ZM189.443 67.4443C189.443 67.2764 189.408 67.1292 189.339 67.0027C189.27 66.8762 189.173 66.7785 189.049 66.7095C188.925 66.6404 188.781 66.6059 188.618 66.6059C188.452 66.6059 188.309 66.6404 188.187 66.7095C188.065 66.7785 187.969 66.8762 187.9 67.0027C187.834 67.1292 187.8 67.2764 187.8 67.4443C187.8 67.6146 187.834 67.7618 187.9 67.886C187.967 68.0079 188.062 68.101 188.187 68.1654C188.311 68.2298 188.457 68.262 188.625 68.262C188.793 68.262 188.938 68.2298 189.06 68.1654C189.181 68.101 189.276 68.0079 189.342 67.886C189.409 67.7618 189.443 67.6146 189.443 67.4443ZM190.164 65.1534C190.164 65.4041 190.097 65.6272 189.964 65.8228C189.832 66.0183 189.651 66.1724 189.418 66.2851C189.186 66.3955 188.922 66.4507 188.625 66.4507C188.326 66.4507 188.059 66.3955 187.824 66.2851C187.592 66.1724 187.409 66.0183 187.276 65.8228C187.145 65.6272 187.079 65.4041 187.079 65.1534C187.079 64.8544 187.145 64.6025 187.276 64.3978C187.409 64.1908 187.592 64.0333 187.824 63.9251C188.057 63.817 188.322 63.763 188.621 63.763C188.92 63.763 189.186 63.817 189.418 63.9251C189.651 64.0333 189.832 64.1908 189.964 64.3978C190.097 64.6025 190.164 64.8544 190.164 65.1534ZM189.332 65.181C189.332 65.0315 189.302 64.9004 189.242 64.7877C189.185 64.6727 189.103 64.583 188.997 64.5186C188.892 64.4542 188.766 64.422 188.621 64.422C188.476 64.422 188.351 64.453 188.245 64.5151C188.14 64.5772 188.058 64.6646 188 64.7773C187.943 64.8901 187.914 65.0246 187.914 65.181C187.914 65.3351 187.943 65.4697 188 65.5847C188.058 65.6974 188.14 65.7859 188.245 65.8504C188.353 65.9148 188.48 65.947 188.625 65.947C188.77 65.947 188.895 65.9148 189.001 65.8504C189.107 65.7859 189.188 65.6974 189.246 65.5847C189.303 65.4697 189.332 65.3351 189.332 65.181Z" fill="black" fill-opacity="0.76"/>
<rect x="102.041" y="79.2109" width="4.71066" height="4.71066" rx="2.35533" fill="#FF4D5A"/>
<path d="M114.851 82.2965C114.851 82.1792 114.833 82.0757 114.796 81.986C114.761 81.894 114.699 81.8112 114.61 81.7376C114.522 81.664 114.4 81.5938 114.244 81.5271C114.09 81.4604 113.894 81.3925 113.657 81.3235C113.409 81.2499 113.185 81.1683 112.985 81.0786C112.784 80.9866 112.613 80.8819 112.47 80.7646C112.328 80.6473 112.219 80.5127 112.143 80.3609C112.067 80.2091 112.029 80.0355 112.029 79.84C112.029 79.6444 112.069 79.4639 112.15 79.2983C112.23 79.1327 112.345 78.9889 112.495 78.867C112.646 78.7428 112.827 78.6462 113.036 78.5772C113.246 78.5082 113.479 78.4737 113.737 78.4737C114.114 78.4737 114.434 78.5461 114.696 78.691C114.96 78.8337 115.162 79.0211 115.3 79.2534C115.438 79.4834 115.507 79.7296 115.507 79.9918H114.844C114.844 79.8032 114.804 79.6364 114.723 79.4915C114.643 79.3443 114.521 79.2293 114.358 79.1465C114.194 79.0614 113.987 79.0188 113.737 79.0188C113.5 79.0188 113.304 79.0545 113.15 79.1258C112.996 79.1971 112.881 79.2937 112.805 79.4156C112.731 79.5375 112.695 79.6766 112.695 79.8331C112.695 79.9389 112.717 80.0355 112.76 80.1229C112.806 80.208 112.876 80.2873 112.971 80.3609C113.067 80.4345 113.189 80.5024 113.336 80.5645C113.486 80.6266 113.664 80.6864 113.871 80.7439C114.156 80.8244 114.403 80.9141 114.61 81.013C114.817 81.1119 114.987 81.2235 115.12 81.3477C115.256 81.4696 115.356 81.6088 115.42 81.7652C115.487 81.9193 115.52 82.0941 115.52 82.2896C115.52 82.4943 115.479 82.6795 115.396 82.8451C115.313 83.0107 115.195 83.1521 115.041 83.2694C114.887 83.3868 114.702 83.4776 114.485 83.542C114.271 83.6041 114.032 83.6352 113.768 83.6352C113.535 83.6352 113.307 83.603 113.081 83.5386C112.858 83.4742 112.654 83.3776 112.47 83.2487C112.289 83.1199 112.143 82.9612 112.032 82.7726C111.924 82.5817 111.87 82.3609 111.87 82.1102H112.533C112.533 82.2827 112.566 82.431 112.633 82.5553C112.699 82.6772 112.79 82.7784 112.905 82.8589C113.022 82.9394 113.155 82.9992 113.302 83.0383C113.451 83.0751 113.607 83.0935 113.768 83.0935C114 83.0935 114.197 83.0613 114.358 82.9969C114.519 82.9325 114.641 82.8405 114.723 82.7209C114.809 82.6013 114.851 82.4598 114.851 82.2965ZM116.339 81.741V81.6617C116.339 81.3925 116.378 81.143 116.456 80.913C116.535 80.6807 116.647 80.4794 116.794 80.3092C116.942 80.1367 117.12 80.0033 117.329 79.909C117.539 79.8124 117.773 79.7641 118.033 79.7641C118.295 79.7641 118.531 79.8124 118.74 79.909C118.952 80.0033 119.131 80.1367 119.279 80.3092C119.428 80.4794 119.542 80.6807 119.62 80.913C119.698 81.143 119.737 81.3925 119.737 81.6617V81.741C119.737 82.0101 119.698 82.2597 119.62 82.4897C119.542 82.7197 119.428 82.921 119.279 83.0935C119.131 83.2637 118.953 83.3971 118.744 83.4937C118.537 83.588 118.302 83.6352 118.04 83.6352C117.778 83.6352 117.542 83.588 117.333 83.4937C117.123 83.3971 116.944 83.2637 116.794 83.0935C116.647 82.921 116.535 82.7197 116.456 82.4897C116.378 82.2597 116.339 82.0101 116.339 81.741ZM116.977 81.6617V81.741C116.977 81.9273 116.999 82.1033 117.043 82.2689C117.087 82.4322 117.152 82.5771 117.24 82.7036C117.329 82.8301 117.441 82.9302 117.574 83.0038C117.708 83.0751 117.863 83.1107 118.04 83.1107C118.215 83.1107 118.368 83.0751 118.499 83.0038C118.632 82.9302 118.743 82.8301 118.83 82.7036C118.917 82.5771 118.983 82.4322 119.027 82.2689C119.073 82.1033 119.096 81.9273 119.096 81.741V81.6617C119.096 81.4776 119.073 81.304 119.027 81.1407C118.983 80.9751 118.916 80.829 118.827 80.7025C118.739 80.5737 118.629 80.4725 118.495 80.3989C118.364 80.3253 118.21 80.2885 118.033 80.2885C117.858 80.2885 117.704 80.3253 117.571 80.3989C117.44 80.4725 117.329 80.5737 117.24 80.7025C117.152 80.829 117.087 80.9751 117.043 81.1407C116.999 81.304 116.977 81.4776 116.977 81.6617ZM121.467 78.2667V83.5662H120.825V78.2667H121.467ZM124.928 82.9279V81.0061C124.928 80.8589 124.898 80.7313 124.839 80.6231C124.781 80.5127 124.694 80.4276 124.576 80.3678C124.459 80.308 124.314 80.2781 124.142 80.2781C123.981 80.2781 123.839 80.3057 123.717 80.3609C123.598 80.4161 123.503 80.4886 123.434 80.5783C123.368 80.668 123.334 80.7646 123.334 80.8681H122.696C122.696 80.7347 122.731 80.6024 122.8 80.4713C122.869 80.3402 122.968 80.2218 123.096 80.116C123.227 80.0079 123.384 79.9228 123.566 79.8607C123.75 79.7963 123.954 79.7641 124.18 79.7641C124.451 79.7641 124.69 79.8101 124.897 79.9021C125.107 79.9941 125.27 80.1332 125.387 80.3195C125.507 80.5035 125.567 80.7347 125.567 81.013V82.7519C125.567 82.8761 125.577 83.0084 125.598 83.1487C125.621 83.289 125.654 83.4098 125.698 83.511V83.5662H125.032C125 83.4926 124.974 83.3948 124.956 83.2729C124.938 83.1487 124.928 83.0337 124.928 82.9279ZM125.039 81.3028L125.046 81.7514H124.4C124.219 81.7514 124.057 81.7663 123.914 81.7962C123.771 81.8238 123.652 81.8664 123.555 81.9239C123.459 81.9814 123.385 82.0538 123.334 82.1412C123.284 82.2263 123.258 82.3264 123.258 82.4414C123.258 82.5587 123.285 82.6657 123.338 82.7623C123.391 82.8589 123.47 82.9359 123.576 82.9934C123.684 83.0486 123.816 83.0762 123.973 83.0762C124.168 83.0762 124.341 83.0348 124.49 82.952C124.64 82.8692 124.758 82.768 124.846 82.6484C124.935 82.5288 124.984 82.4126 124.99 82.2999L125.263 82.607C125.247 82.7036 125.203 82.8106 125.132 82.9279C125.061 83.0452 124.965 83.1579 124.846 83.266C124.728 83.3718 124.588 83.4604 124.425 83.5317C124.264 83.6007 124.082 83.6352 123.88 83.6352C123.627 83.6352 123.405 83.5857 123.214 83.4868C123.025 83.3879 122.878 83.2556 122.772 83.09C122.669 82.9221 122.617 82.7347 122.617 82.5277C122.617 82.3275 122.656 82.1516 122.734 81.9998C122.812 81.8457 122.925 81.718 123.072 81.6168C123.219 81.5133 123.396 81.4351 123.604 81.3822C123.811 81.3293 124.042 81.3028 124.297 81.3028H125.039ZM127.444 80.4196V83.5662H126.806V79.8331H127.427L127.444 80.4196ZM128.611 79.8124L128.607 80.4058C128.554 80.3943 128.504 80.3874 128.455 80.3851C128.409 80.3805 128.356 80.3782 128.297 80.3782C128.149 80.3782 128.02 80.4012 127.907 80.4472C127.794 80.4932 127.699 80.5576 127.62 80.6404C127.542 80.7232 127.48 80.8221 127.434 80.9371C127.39 81.0498 127.362 81.174 127.348 81.3097L127.168 81.4132C127.168 81.1878 127.19 80.9762 127.234 80.7784C127.28 80.5806 127.35 80.4058 127.444 80.254C127.539 80.0999 127.658 79.9803 127.803 79.8952C127.951 79.8078 128.125 79.7641 128.328 79.7641C128.374 79.7641 128.427 79.7698 128.486 79.7813C128.546 79.7905 128.588 79.8009 128.611 79.8124ZM132.063 80.5507V85.0014H131.421V79.8331H132.007L132.063 80.5507ZM134.578 81.6686V81.741C134.578 82.0124 134.546 82.2643 134.481 82.4966C134.417 82.7266 134.323 82.9267 134.198 83.0969C134.076 83.2671 133.926 83.3994 133.746 83.4937C133.567 83.588 133.361 83.6352 133.129 83.6352C132.892 83.6352 132.683 83.5961 132.501 83.5179C132.319 83.4397 132.165 83.3258 132.039 83.1763C131.912 83.0268 131.811 82.8474 131.735 82.6381C131.661 82.4287 131.611 82.193 131.583 81.9308V81.5444C131.611 81.2683 131.662 81.0211 131.738 80.8026C131.814 80.584 131.914 80.3977 132.039 80.2436C132.165 80.0872 132.318 79.9688 132.497 79.8883C132.677 79.8055 132.884 79.7641 133.118 79.7641C133.353 79.7641 133.561 79.8101 133.743 79.9021C133.925 79.9918 134.078 80.1206 134.202 80.2885C134.326 80.4564 134.419 80.6577 134.481 80.8923C134.546 81.1246 134.578 81.3833 134.578 81.6686ZM133.936 81.741V81.6686C133.936 81.4822 133.917 81.3074 133.877 81.1441C133.838 80.9785 133.777 80.8336 133.695 80.7094C133.614 80.5829 133.511 80.484 133.384 80.4127C133.258 80.3391 133.107 80.3023 132.932 80.3023C132.771 80.3023 132.631 80.3299 132.511 80.3851C132.394 80.4403 132.294 80.515 132.211 80.6093C132.128 80.7014 132.06 80.8072 132.007 80.9268C131.957 81.0441 131.919 81.166 131.894 81.2925V82.1861C131.94 82.3471 132.004 82.4989 132.087 82.6415C132.17 82.7818 132.28 82.8957 132.418 82.9831C132.556 83.0682 132.73 83.1107 132.939 83.1107C133.112 83.1107 133.26 83.0751 133.384 83.0038C133.511 82.9302 133.614 82.8301 133.695 82.7036C133.777 82.5771 133.838 82.4322 133.877 82.2689C133.917 82.1033 133.936 81.9273 133.936 81.741ZM135.459 81.741V81.6617C135.459 81.3925 135.498 81.143 135.576 80.913C135.654 80.6807 135.767 80.4794 135.914 80.3092C136.061 80.1367 136.239 80.0033 136.449 79.909C136.658 79.8124 136.893 79.7641 137.153 79.7641C137.415 79.7641 137.651 79.8124 137.86 79.909C138.072 80.0033 138.251 80.1367 138.398 80.3092C138.548 80.4794 138.662 80.6807 138.74 80.913C138.818 81.143 138.857 81.3925 138.857 81.6617V81.741C138.857 82.0101 138.818 82.2597 138.74 82.4897C138.662 82.7197 138.548 82.921 138.398 83.0935C138.251 83.2637 138.073 83.3971 137.863 83.4937C137.656 83.588 137.422 83.6352 137.16 83.6352C136.897 83.6352 136.662 83.588 136.452 83.4937C136.243 83.3971 136.064 83.2637 135.914 83.0935C135.767 82.921 135.654 82.7197 135.576 82.4897C135.498 82.2597 135.459 82.0101 135.459 81.741ZM136.097 81.6617V81.741C136.097 81.9273 136.119 82.1033 136.162 82.2689C136.206 82.4322 136.272 82.5771 136.359 82.7036C136.449 82.8301 136.56 82.9302 136.694 83.0038C136.827 83.0751 136.982 83.1107 137.16 83.1107C137.334 83.1107 137.487 83.0751 137.618 83.0038C137.752 82.9302 137.862 82.8301 137.95 82.7036C138.037 82.5771 138.103 82.4322 138.146 82.2689C138.192 82.1033 138.215 81.9273 138.215 81.741V81.6617C138.215 81.4776 138.192 81.304 138.146 81.1407C138.103 80.9751 138.036 80.829 137.946 80.7025C137.859 80.5737 137.748 80.4725 137.615 80.3989C137.484 80.3253 137.33 80.2885 137.153 80.2885C136.978 80.2885 136.824 80.3253 136.69 80.3989C136.559 80.4725 136.449 80.5737 136.359 80.7025C136.272 80.829 136.206 80.9751 136.162 81.1407C136.119 81.304 136.097 81.4776 136.097 81.6617ZM140.838 82.9037L141.798 79.8331H142.218L142.136 80.4437L141.159 83.5662H140.749L140.838 82.9037ZM140.193 79.8331L141.011 82.9382L141.07 83.5662H140.638L139.555 79.8331H140.193ZM143.136 82.9141L143.916 79.8331H144.551L143.467 83.5662H143.04L143.136 82.9141ZM142.312 79.8331L143.25 82.852L143.357 83.5662H142.95L141.946 80.4368L141.863 79.8331H142.312ZM146.991 83.6352C146.731 83.6352 146.495 83.5915 146.284 83.5041C146.074 83.4144 145.894 83.289 145.742 83.128C145.592 82.967 145.477 82.7761 145.397 82.5553C145.316 82.3344 145.276 82.0929 145.276 81.8307V81.6858C145.276 81.3822 145.321 81.1119 145.411 80.875C145.5 80.6358 145.622 80.4334 145.776 80.2678C145.931 80.1022 146.105 79.9768 146.301 79.8917C146.496 79.8066 146.699 79.7641 146.908 79.7641C147.175 79.7641 147.405 79.8101 147.598 79.9021C147.794 79.9941 147.954 80.1229 148.078 80.2885C148.202 80.4518 148.294 80.645 148.354 80.8681C148.414 81.0889 148.443 81.3304 148.443 81.5927V81.879H145.656V81.358H147.805V81.3097C147.796 81.1441 147.762 80.9831 147.702 80.8267C147.644 80.6703 147.552 80.5415 147.426 80.4403C147.299 80.3391 147.127 80.2885 146.908 80.2885C146.763 80.2885 146.63 80.3195 146.508 80.3816C146.386 80.4414 146.281 80.5311 146.194 80.6508C146.107 80.7704 146.039 80.9164 145.99 81.0889C145.942 81.2614 145.918 81.4604 145.918 81.6858V81.8307C145.918 82.0078 145.942 82.1746 145.99 82.331C146.041 82.4851 146.113 82.6208 146.208 82.7381C146.304 82.8554 146.421 82.9474 146.556 83.0141C146.694 83.0808 146.851 83.1142 147.025 83.1142C147.251 83.1142 147.442 83.0682 147.598 82.9762C147.755 82.8842 147.891 82.7611 148.009 82.607L148.395 82.9141C148.315 83.036 148.212 83.1521 148.088 83.2625C147.964 83.373 147.811 83.4627 147.629 83.5317C147.45 83.6007 147.237 83.6352 146.991 83.6352ZM150.063 80.4196V83.5662H149.424V79.8331H150.045L150.063 80.4196ZM151.229 79.8124L151.225 80.4058C151.172 80.3943 151.122 80.3874 151.073 80.3851C151.027 80.3805 150.975 80.3782 150.915 80.3782C150.768 80.3782 150.638 80.4012 150.525 80.4472C150.412 80.4932 150.317 80.5576 150.239 80.6404C150.16 80.7232 150.098 80.8221 150.052 80.9371C150.008 81.0498 149.98 81.174 149.966 81.3097L149.787 81.4132C149.787 81.1878 149.808 80.9762 149.852 80.7784C149.898 80.5806 149.968 80.4058 150.063 80.254C150.157 80.0999 150.276 79.9803 150.421 79.8952C150.569 79.8078 150.743 79.7641 150.946 79.7641C150.992 79.7641 151.045 79.7698 151.105 79.7813C151.164 79.7905 151.206 79.8009 151.229 79.8124Z" fill="black" fill-opacity="0.38"/>
<path d="M183.703 81.2304L183.04 81.0682L183.313 78.5427H186.021V79.2465H184.003L183.865 80.4782C183.943 80.4322 184.051 80.3874 184.189 80.3437C184.327 80.2977 184.485 80.2747 184.662 80.2747C184.899 80.2747 185.11 80.3138 185.297 80.392C185.485 80.4679 185.645 80.5794 185.776 80.7267C185.907 80.8716 186.007 81.0487 186.076 81.258C186.145 81.465 186.18 81.6985 186.18 81.9584C186.18 82.1907 186.145 82.408 186.076 82.6105C186.01 82.8129 185.908 82.9911 185.773 83.1452C185.637 83.2993 185.466 83.4201 185.259 83.5075C185.054 83.5926 184.811 83.6352 184.531 83.6352C184.321 83.6352 184.12 83.6053 183.927 83.5455C183.736 83.4834 183.565 83.3925 183.413 83.2729C183.261 83.151 183.139 83.0015 183.047 82.8244C182.955 82.645 182.902 82.4391 182.888 82.2068H183.703C183.723 82.3701 183.768 82.5093 183.837 82.6243C183.908 82.737 184.003 82.8232 184.12 82.883C184.237 82.9428 184.373 82.9727 184.527 82.9727C184.667 82.9727 184.788 82.9486 184.889 82.9003C184.991 82.8497 185.075 82.7784 185.141 82.6864C185.21 82.5921 185.261 82.4817 185.293 82.3551C185.328 82.2286 185.345 82.0883 185.345 81.9342C185.345 81.787 185.325 81.6525 185.286 81.5305C185.249 81.4086 185.193 81.3028 185.117 81.2131C185.044 81.1234 184.95 81.0544 184.838 81.0061C184.725 80.9555 184.595 80.9302 184.448 80.9302C184.25 80.9302 184.098 80.959 183.992 81.0165C183.889 81.074 183.792 81.1453 183.703 81.2304ZM189.263 78.5254V83.5662H188.432V79.5122L187.2 79.9297V79.2431L189.163 78.5254H189.263Z" fill="black" fill-opacity="0.76"/>
</g>
<defs>
<filter id="filter0_d_3419_5013" x="0.304616" y="0.28934" width="211.391" height="130.132" filterUnits="userSpaceOnUse" color-interpolation-filters="sRGB">
<feFlood flood-opacity="0" result="BackgroundImageFix"/>
<feColorMatrix in="SourceAlpha" type="matrix" values="0 0 0 0 0 0 0 0 0 0 0 0 0 0 0 0 0 0 127 0" result="hardAlpha"/>
<feOffset dy="2.35533"/>
<feGaussianBlur stdDeviation="3.53299"/>
<feComposite in2="hardAlpha" operator="out"/>
<feColorMatrix type="matrix" values="0 0 0 0 0 0 0 0 0 0 0 0 0 0 0 0 0 0 0.06 0"/>
<feBlend mode="normal" in2="BackgroundImageFix" result="effect1_dropShadow_3419_5013"/>
<feBlend mode="normal" in="SourceGraphic" in2="effect1_dropShadow_3419_5013" result="shape"/>
</filter>
</defs>
</svg>
