<svg width="158" height="129" viewBox="0 0 158 129" fill="none" xmlns="http://www.w3.org/2000/svg">
<g filter="url(#filter0_d_3420_69383)">
<rect x="5.3252" y="4" width="147.35" height="117" rx="1.7594" fill="white" shape-rendering="crispEdges"/>
<path d="M17.8437 20.797H16.775L16.7819 20.1132H17.8437C18.153 20.1132 18.4119 20.0456 18.6203 19.9104C18.8311 19.7753 18.9892 19.5817 19.0946 19.3297C19.2022 19.0777 19.2561 18.7776 19.2561 18.4294V18.1579C19.2561 17.8876 19.2251 17.6482 19.1633 17.4397C19.1037 17.2312 19.0144 17.056 18.8952 16.9139C18.7784 16.7719 18.6341 16.6642 18.4623 16.5909C18.2927 16.5176 18.0969 16.481 17.8747 16.481H16.7544V15.7937H17.8747C18.2068 15.7937 18.5104 15.8498 18.7853 15.9621C19.0602 16.072 19.2973 16.2313 19.4966 16.4397C19.6982 16.6482 19.8528 16.8979 19.9605 17.1889C20.0682 17.4798 20.122 17.8051 20.122 18.1648V18.4294C20.122 18.789 20.0682 19.1143 19.9605 19.4053C19.8528 19.6962 19.6982 19.9459 19.4966 20.1544C19.295 20.3606 19.0545 20.5198 18.775 20.6321C18.4978 20.742 18.1874 20.797 17.8437 20.797ZM17.2527 15.7937V20.797H16.3902V15.7937H17.2527ZM20.8574 18.9792V18.9001C20.8574 18.6321 20.8963 18.3836 20.9742 18.1545C21.0521 17.9231 21.1644 17.7226 21.311 17.5531C21.4599 17.3813 21.6409 17.2484 21.8539 17.1545C22.0693 17.0583 22.3121 17.0102 22.5824 17.0102C22.855 17.0102 23.0979 17.0583 23.3109 17.1545C23.5263 17.2484 23.7084 17.3813 23.8573 17.5531C24.0062 17.7226 24.1196 17.9231 24.1975 18.1545C24.2754 18.3836 24.3143 18.6321 24.3143 18.9001V18.9792C24.3143 19.2472 24.2754 19.4958 24.1975 19.7249C24.1196 19.954 24.0062 20.1544 23.8573 20.3262C23.7084 20.4957 23.5274 20.6286 23.3144 20.7248C23.1013 20.8188 22.8596 20.8657 22.5893 20.8657C22.3167 20.8657 22.0727 20.8188 21.8574 20.7248C21.6443 20.6286 21.4633 20.4957 21.3144 20.3262C21.1655 20.1544 21.0521 19.954 20.9742 19.7249C20.8963 19.4958 20.8574 19.2472 20.8574 18.9792ZM21.6855 18.9001V18.9792C21.6855 19.1464 21.7027 19.3045 21.7371 19.4534C21.7715 19.6023 21.8253 19.7329 21.8986 19.8451C21.9719 19.9574 22.0658 20.0456 22.1804 20.1097C22.2949 20.1739 22.4312 20.2059 22.5893 20.2059C22.7428 20.2059 22.8757 20.1739 22.9879 20.1097C23.1025 20.0456 23.1964 19.9574 23.2697 19.8451C23.343 19.7329 23.3968 19.6023 23.4312 19.4534C23.4679 19.3045 23.4862 19.1464 23.4862 18.9792V18.9001C23.4862 18.7352 23.4679 18.5794 23.4312 18.4328C23.3968 18.2839 23.3419 18.1522 23.2663 18.0376C23.1929 17.9231 23.099 17.8337 22.9845 17.7696C22.8722 17.7032 22.7382 17.6699 22.5824 17.6699C22.4266 17.6699 22.2915 17.7032 22.1769 17.7696C22.0647 17.8337 21.9719 17.9231 21.8986 18.0376C21.8253 18.1522 21.7715 18.2839 21.7371 18.4328C21.7027 18.5794 21.6855 18.7352 21.6855 18.9001ZM27.3555 19.9207V17.0789H28.1871V20.797H27.4036L27.3555 19.9207ZM27.4723 19.1476L27.7507 19.1407C27.7507 19.3904 27.7232 19.6206 27.6682 19.8314C27.6132 20.0399 27.5284 20.222 27.4139 20.3778C27.2994 20.5313 27.1527 20.6515 26.974 20.7386C26.7954 20.8233 26.5812 20.8657 26.3315 20.8657C26.1505 20.8657 25.9844 20.8394 25.8332 20.7867C25.682 20.734 25.5514 20.6527 25.4414 20.5427C25.3338 20.4327 25.2502 20.2896 25.1906 20.1132C25.131 19.9368 25.1013 19.726 25.1013 19.4809V17.0789H25.9294V19.4878C25.9294 19.6229 25.9454 19.7363 25.9775 19.828C26.0096 19.9173 26.0531 19.9895 26.1081 20.0444C26.1631 20.0994 26.2272 20.1384 26.3005 20.1613C26.3738 20.1842 26.4517 20.1956 26.5342 20.1956C26.7702 20.1956 26.9557 20.1498 27.0909 20.0582C27.2283 19.9643 27.3257 19.8383 27.383 19.6802C27.4425 19.5221 27.4723 19.3446 27.4723 19.1476ZM31.5272 17.0789H32.2797V20.6939C32.2797 21.0284 32.2087 21.3124 32.0667 21.5461C31.9246 21.7798 31.7265 21.9573 31.4722 22.0787C31.2179 22.2025 30.9235 22.2643 30.5891 22.2643C30.447 22.2643 30.289 22.2437 30.1149 22.2025C29.943 22.1612 29.7758 22.0948 29.6131 22.0031C29.4528 21.9138 29.3188 21.7958 29.2111 21.6492L29.5994 21.1612C29.7323 21.3193 29.8789 21.435 30.0393 21.5083C30.1996 21.5816 30.368 21.6183 30.5444 21.6183C30.7345 21.6183 30.896 21.5828 31.0289 21.5118C31.1641 21.443 31.2683 21.3411 31.3416 21.2059C31.4149 21.0708 31.4516 20.9058 31.4516 20.7111V17.9208L31.5272 17.0789ZM29.0015 18.9792V18.907C29.0015 18.6252 29.0358 18.3687 29.1046 18.1373C29.1733 17.9036 29.2718 17.7032 29.4001 17.5359C29.5284 17.3664 29.6842 17.237 29.8674 17.1476C30.0507 17.056 30.258 17.0102 30.4894 17.0102C30.73 17.0102 30.935 17.0537 31.1045 17.1407C31.2763 17.2278 31.4195 17.3527 31.5341 17.5153C31.6486 17.6757 31.7379 17.8681 31.8021 18.0926C31.8685 18.3148 31.9178 18.5622 31.9498 18.8349V19.0651C31.9201 19.3308 31.8697 19.5737 31.7987 19.7936C31.7276 20.0135 31.6337 20.2037 31.5169 20.364C31.4 20.5244 31.2557 20.6481 31.0839 20.7351C30.9144 20.8222 30.7139 20.8657 30.4825 20.8657C30.2557 20.8657 30.0507 20.8188 29.8674 20.7248C29.6865 20.6309 29.5307 20.4992 29.4001 20.3297C29.2718 20.1601 29.1733 19.9608 29.1046 19.7317C29.0358 19.5004 29.0015 19.2495 29.0015 18.9792ZM29.8296 18.907V18.9792C29.8296 19.1487 29.8457 19.3068 29.8777 19.4534C29.9121 19.6 29.9637 19.7294 30.0324 19.8417C30.1034 19.9517 30.1927 20.0387 30.3004 20.1029C30.4104 20.1647 30.5398 20.1956 30.6887 20.1956C30.8834 20.1956 31.0427 20.1544 31.1664 20.0719C31.2924 19.9895 31.3886 19.8784 31.455 19.7386C31.5237 19.5966 31.5719 19.4385 31.5993 19.2644V18.6424C31.5856 18.5073 31.557 18.3813 31.5134 18.2644C31.4722 18.1476 31.4161 18.0456 31.3451 17.9586C31.274 17.8692 31.1847 17.8005 31.077 17.7524C30.9694 17.702 30.8422 17.6768 30.6956 17.6768C30.5467 17.6768 30.4172 17.7089 30.3073 17.773C30.1973 17.8372 30.1068 17.9254 30.0358 18.0376C29.9671 18.1499 29.9155 18.2805 29.8812 18.4294C29.8468 18.5783 29.8296 18.7375 29.8296 18.907ZM34.0666 15.5188V20.797H33.2419V15.5188H34.0666ZM33.9223 18.8005L33.6543 18.7971C33.6566 18.5405 33.6921 18.3034 33.7608 18.0857C33.8318 17.8681 33.9303 17.6791 34.0563 17.5187C34.1846 17.3561 34.3381 17.2312 34.5168 17.1442C34.6955 17.0548 34.8936 17.0102 35.1113 17.0102C35.2945 17.0102 35.4595 17.0354 35.6061 17.0858C35.755 17.1362 35.8833 17.2175 35.991 17.3297C36.0986 17.4397 36.18 17.584 36.2349 17.7627C36.2922 17.9391 36.3209 18.1545 36.3209 18.4088V20.797H35.4893V18.4019C35.4893 18.2232 35.4629 18.0812 35.4102 17.9758C35.3598 17.8704 35.2854 17.7948 35.1869 17.749C35.0884 17.7009 34.9681 17.6768 34.8261 17.6768C34.6771 17.6768 34.5454 17.7066 34.4309 17.7662C34.3186 17.8257 34.2247 17.907 34.1491 18.0101C34.0735 18.1132 34.0162 18.2324 33.9773 18.3675C33.9406 18.5027 33.9223 18.647 33.9223 18.8005ZM38.0906 17.8727V20.797H37.2624V17.0789H38.0425L38.0906 17.8727ZM37.9428 18.8005L37.6748 18.7971C37.6771 18.5336 37.7137 18.2919 37.7847 18.072C37.858 17.8521 37.9588 17.6631 38.0871 17.505C38.2177 17.3469 38.3735 17.2255 38.5545 17.1407C38.7354 17.0537 38.937 17.0102 39.1593 17.0102C39.3379 17.0102 39.4995 17.0354 39.6438 17.0858C39.7904 17.1339 39.9153 17.2129 40.0183 17.3229C40.1237 17.4328 40.2039 17.576 40.2589 17.7524C40.3139 17.9265 40.3414 18.1407 40.3414 18.395V20.797H39.5098V18.3916C39.5098 18.2129 39.4834 18.072 39.4307 17.9689C39.3803 17.8635 39.3059 17.7891 39.2074 17.7455C39.1112 17.6997 38.9909 17.6768 38.8466 17.6768C38.7045 17.6768 38.5774 17.7066 38.4651 17.7662C38.3529 17.8257 38.2578 17.907 38.1799 18.0101C38.1043 18.1132 38.0459 18.2324 38.0047 18.3675C37.9634 18.5027 37.9428 18.647 37.9428 18.8005ZM43.5337 19.9207V17.0789H44.3653V20.797H43.5818L43.5337 19.9207ZM43.6505 19.1476L43.9289 19.1407C43.9289 19.3904 43.9014 19.6206 43.8464 19.8314C43.7914 20.0399 43.7067 20.222 43.5921 20.3778C43.4776 20.5313 43.331 20.6515 43.1523 20.7386C42.9736 20.8233 42.7594 20.8657 42.5097 20.8657C42.3287 20.8657 42.1626 20.8394 42.0114 20.7867C41.8602 20.734 41.7296 20.6527 41.6197 20.5427C41.512 20.4327 41.4284 20.2896 41.3688 20.1132C41.3093 19.9368 41.2795 19.726 41.2795 19.4809V17.0789H42.1076V19.4878C42.1076 19.6229 42.1237 19.7363 42.1557 19.828C42.1878 19.9173 42.2313 19.9895 42.2863 20.0444C42.3413 20.0994 42.4054 20.1384 42.4788 20.1613C42.5521 20.1842 42.6299 20.1956 42.7124 20.1956C42.9484 20.1956 43.1339 20.1498 43.2691 20.0582C43.4066 19.9643 43.5039 19.8383 43.5612 19.6802C43.6208 19.5221 43.6505 19.3446 43.6505 19.1476ZM47.0284 17.0789V17.6837H44.9323V17.0789H47.0284ZM45.5371 16.1683H46.3652V19.7695C46.3652 19.8841 46.3813 19.9723 46.4133 20.0341C46.4477 20.0937 46.4947 20.1338 46.5542 20.1544C46.6138 20.175 46.6837 20.1853 46.7638 20.1853C46.8211 20.1853 46.8761 20.1819 46.9288 20.175C46.9815 20.1681 47.0239 20.1613 47.0559 20.1544L47.0594 20.7867C46.9906 20.8073 46.9105 20.8256 46.8188 20.8417C46.7295 20.8577 46.6264 20.8657 46.5096 20.8657C46.3194 20.8657 46.151 20.8325 46.0044 20.7661C45.8578 20.6973 45.7433 20.5862 45.6608 20.4327C45.5783 20.2793 45.5371 20.0754 45.5371 19.8211V16.1683Z" fill="black" fill-opacity="0.87"/>
<path d="M79.9257 33.7977C79.9825 32.1711 81.3509 30.8834 82.9637 31.1023C86.8865 31.6348 90.6722 32.9537 94.0899 34.991C98.3537 37.5327 101.906 41.1103 104.418 45.3917C106.93 49.6731 108.32 54.5197 108.458 59.4816C108.57 63.4589 107.874 67.407 106.425 71.091C105.829 72.6057 104.038 73.172 102.59 72.4281V72.4281C101.142 71.6841 100.591 69.9117 101.149 68.3826C102.166 65.5944 102.65 62.6306 102.567 59.6462C102.456 55.6766 101.344 51.7994 99.3346 48.3743C97.3251 44.9491 94.4829 42.0871 91.0719 40.0537C88.5075 38.525 85.684 37.5019 82.754 37.0293C81.1471 36.7702 79.8689 35.4243 79.9257 33.7977V33.7977Z" fill="#FF4D5A"/>
<path d="M78.0744 33.7977C78.0176 32.1712 76.6491 30.8835 75.0363 31.1024C70.9599 31.6557 67.033 33.0581 63.5144 35.2312C59.1576 37.922 55.5772 41.7016 53.1259 46.1975C50.6747 50.6934 49.4372 55.7505 49.5355 60.8703C49.6338 65.9901 51.0645 70.9959 53.6865 75.3944C56.3086 79.7929 60.0315 83.4323 64.4883 85.9538C68.9452 88.4754 73.9822 89.7921 79.1029 89.7743C84.2236 89.7564 89.2513 88.4045 93.6904 85.8519C97.2755 83.7904 100.377 81.0031 102.802 77.6804C103.762 76.3659 103.28 74.5496 101.876 73.726V73.726C100.473 72.9024 98.6807 73.3868 97.6885 74.6769C95.8037 77.1277 93.4491 79.1917 90.7523 80.7424C87.201 82.7845 83.1789 83.866 79.0823 83.8803C74.9857 83.8946 70.9561 82.8412 67.3907 80.824C63.8252 78.8067 60.8469 75.8952 58.7492 72.3764C56.6516 68.8576 55.5071 64.8529 55.4284 60.7571C55.3498 56.6613 56.3397 52.6156 58.3007 49.0189C60.2617 45.4222 63.1261 42.3985 66.6115 40.2458C69.2583 38.6112 72.1938 37.5216 75.2461 37.0294C76.8529 36.7702 78.1312 35.4243 78.0744 33.7977V33.7977Z" fill="#08872B"/>
<path d="M74.3587 52.0521V55.8046H73.8691V52.0521H74.3587ZM75.5649 52.0521V52.4593H72.6655V52.0521H75.5649ZM75.8413 54.4412V54.3819C75.8413 54.1809 75.8706 53.9945 75.929 53.8227C75.9874 53.6491 76.0716 53.4988 76.1815 53.3716C76.2915 53.2428 76.4247 53.1431 76.581 53.0727C76.7374 53.0005 76.9126 52.9644 77.1068 52.9644C77.3026 52.9644 77.4788 53.0005 77.6351 53.0727C77.7932 53.1431 77.9272 53.2428 78.0372 53.3716C78.1488 53.4988 78.2339 53.6491 78.2923 53.8227C78.3507 53.9945 78.3799 54.1809 78.3799 54.3819V54.4412C78.3799 54.6422 78.3507 54.8286 78.2923 55.0005C78.2339 55.1723 78.1488 55.3226 78.0372 55.4515C77.9272 55.5786 77.794 55.6783 77.6377 55.7504C77.483 55.8209 77.3078 55.8561 77.1119 55.8561C76.9161 55.8561 76.7399 55.8209 76.5836 55.7504C76.4272 55.6783 76.2932 55.5786 76.1815 55.4515C76.0716 55.3226 75.9874 55.1723 75.929 55.0005C75.8706 54.8286 75.8413 54.6422 75.8413 54.4412ZM76.3181 54.3819V54.4412C76.3181 54.5804 76.3345 54.7118 76.3671 54.8355C76.3997 54.9575 76.4487 55.0658 76.514 55.1603C76.581 55.2548 76.6643 55.3295 76.764 55.3845C76.8637 55.4377 76.9796 55.4644 77.1119 55.4644C77.2425 55.4644 77.3568 55.4377 77.4547 55.3845C77.5544 55.3295 77.6368 55.2548 77.7021 55.1603C77.7674 55.0658 77.8164 54.9575 77.849 54.8355C77.8834 54.7118 77.9006 54.5804 77.9006 54.4412V54.3819C77.9006 54.2445 77.8834 54.1148 77.849 53.9928C77.8164 53.8691 77.7665 53.76 77.6995 53.6655C77.6342 53.5692 77.5518 53.4936 77.4521 53.4387C77.3542 53.3837 77.2391 53.3562 77.1068 53.3562C76.9762 53.3562 76.8611 53.3837 76.7614 53.4387C76.6635 53.4936 76.581 53.5692 76.514 53.6655C76.4487 53.76 76.3997 53.8691 76.3671 53.9928C76.3345 54.1148 76.3181 54.2445 76.3181 54.3819ZM80.3213 53.016V53.382H78.8136V53.016H80.3213ZM79.3239 52.3382H79.8007V55.1139C79.8007 55.2084 79.8153 55.2797 79.8445 55.3278C79.8737 55.3759 79.9115 55.4077 79.9579 55.4231C80.0043 55.4386 80.0541 55.4463 80.1074 55.4463C80.1469 55.4463 80.1881 55.4429 80.2311 55.436C80.2758 55.4274 80.3093 55.4206 80.3316 55.4154L80.3342 55.8046C80.2964 55.8166 80.2465 55.8278 80.1847 55.8381C80.1246 55.8501 80.0515 55.8561 79.9656 55.8561C79.8488 55.8561 79.7414 55.8329 79.6435 55.7865C79.5455 55.7401 79.4674 55.6628 79.4089 55.5546C79.3522 55.4446 79.3239 55.2968 79.3239 55.1113V52.3382ZM82.7008 55.3278V53.8923C82.7008 53.7823 82.6784 53.6869 82.6338 53.6062C82.5908 53.5237 82.5255 53.4601 82.4379 53.4155C82.3503 53.3708 82.242 53.3485 82.1132 53.3485C81.9929 53.3485 81.8872 53.3691 81.7962 53.4103C81.7068 53.4515 81.6364 53.5057 81.5848 53.5727C81.535 53.6397 81.5101 53.7118 81.5101 53.7892H81.0333C81.0333 53.6895 81.0591 53.5907 81.1106 53.4928C81.1622 53.3948 81.236 53.3064 81.3322 53.2273C81.4302 53.1466 81.547 53.083 81.6828 53.0366C81.8202 52.9885 81.9731 52.9644 82.1415 52.9644C82.3442 52.9644 82.5229 52.9988 82.6776 53.0675C82.8339 53.1363 82.9559 53.2402 83.0435 53.3794C83.1329 53.5168 83.1776 53.6895 83.1776 53.8974V55.1963C83.1776 55.2891 83.1853 55.3879 83.2008 55.4927C83.2179 55.5975 83.2428 55.6877 83.2755 55.7633V55.8046H82.7781C82.754 55.7496 82.7351 55.6766 82.7214 55.5855C82.7076 55.4927 82.7008 55.4068 82.7008 55.3278ZM82.7832 54.1139L82.7884 54.4489H82.3064C82.1707 54.4489 82.0496 54.4601 81.9431 54.4824C81.8365 54.5031 81.7472 54.5348 81.675 54.5778C81.6029 54.6208 81.5479 54.6749 81.5101 54.7402C81.4723 54.8037 81.4534 54.8785 81.4534 54.9644C81.4534 55.052 81.4731 55.1319 81.5127 55.2041C81.5522 55.2762 81.6115 55.3338 81.6905 55.3767C81.7712 55.418 81.87 55.4386 81.9869 55.4386C82.1329 55.4386 82.2618 55.4077 82.3735 55.3458C82.4851 55.284 82.5736 55.2084 82.6389 55.119C82.7059 55.0297 82.742 54.9429 82.7472 54.8587L82.9508 55.0881C82.9387 55.1603 82.9061 55.2401 82.8528 55.3278C82.7996 55.4154 82.7283 55.4996 82.6389 55.5803C82.5513 55.6594 82.4465 55.7255 82.3245 55.7788C82.2042 55.8303 82.0685 55.8561 81.9173 55.8561C81.7283 55.8561 81.5625 55.8192 81.4199 55.7453C81.279 55.6714 81.169 55.5726 81.09 55.4489C81.0127 55.3235 80.974 55.1834 80.974 55.0288C80.974 54.8793 81.0032 54.7479 81.0616 54.6345C81.1201 54.5194 81.2042 54.424 81.3142 54.3484C81.4242 54.2711 81.5565 54.2127 81.7111 54.1732C81.8657 54.1337 82.0384 54.1139 82.2291 54.1139H82.7832ZM84.6215 51.8459V55.8046H84.1421V51.8459H84.6215Z" fill="black" fill-opacity="0.38"/>
<path d="M74.079 60.529V66.8046H73.0438V61.7575L71.5103 62.2772V61.4224L73.9544 60.529H74.079ZM80.3857 65.0993C80.3857 65.4887 80.2954 65.8166 80.115 66.0829C79.9346 66.3493 79.6884 66.5511 79.3762 66.6886C79.067 66.8232 78.7176 66.8905 78.3282 66.8905C77.9387 66.8905 77.5879 66.8232 77.2758 66.6886C76.9636 66.5511 76.7174 66.3493 76.537 66.0829C76.3566 65.8166 76.2664 65.4887 76.2664 65.0993C76.2664 64.8416 76.3165 64.6082 76.4167 64.3991C76.5169 64.1872 76.6587 64.0054 76.8419 63.8536C77.0281 63.699 77.2457 63.5801 77.4948 63.4971C77.7468 63.4141 78.0217 63.3725 78.3196 63.3725C78.7147 63.3725 79.0684 63.4456 79.3805 63.5916C79.6927 63.7376 79.9375 63.9395 80.115 64.1973C80.2954 64.455 80.3857 64.7557 80.3857 65.0993ZM79.3462 65.0477C79.3462 64.8387 79.3032 64.6554 79.2173 64.4979C79.1314 64.3404 79.0111 64.2187 78.8565 64.1328C78.7019 64.0469 78.5229 64.004 78.3196 64.004C78.1134 64.004 77.9344 64.0469 77.7826 64.1328C77.6309 64.2187 77.512 64.3404 77.4261 64.4979C77.3431 64.6554 77.3015 64.8387 77.3015 65.0477C77.3015 65.2597 77.3431 65.4429 77.4261 65.5976C77.5092 65.7493 77.628 65.8653 77.7826 65.9455C77.9373 66.0257 78.1191 66.0658 78.3282 66.0658C78.5372 66.0658 78.7176 66.0257 78.8694 65.9455C79.0211 65.8653 79.1386 65.7493 79.2216 65.5976C79.3046 65.4429 79.3462 65.2597 79.3462 65.0477ZM80.2439 62.1956C80.2439 62.5077 80.1609 62.7855 79.9948 63.0289C79.8315 63.2723 79.6053 63.4642 79.3161 63.6045C79.0269 63.7419 78.6976 63.8107 78.3282 63.8107C77.9559 63.8107 77.6237 63.7419 77.3316 63.6045C77.0424 63.4642 76.8147 63.2723 76.6486 63.0289C76.4854 62.7855 76.4038 62.5077 76.4038 62.1956C76.4038 61.8233 76.4854 61.5098 76.6486 61.2549C76.8147 60.9972 77.0424 60.801 77.3316 60.6664C77.6208 60.5318 77.9516 60.4645 78.3239 60.4645C78.6961 60.4645 79.0269 60.5318 79.3161 60.6664C79.6053 60.801 79.8315 60.9972 79.9948 61.2549C80.1609 61.5098 80.2439 61.8233 80.2439 62.1956ZM79.2087 62.23C79.2087 62.0438 79.1715 61.8806 79.097 61.7403C79.0254 61.5971 78.9238 61.4854 78.7921 61.4052C78.6603 61.3251 78.5043 61.285 78.3239 61.285C78.1434 61.285 77.9874 61.3236 77.8557 61.4009C77.7239 61.4783 77.6223 61.5871 77.5507 61.7274C77.4791 61.8677 77.4433 62.0352 77.4433 62.23C77.4433 62.4218 77.4791 62.5893 77.5507 62.7325C77.6223 62.8728 77.7239 62.9831 77.8557 63.0633C77.9902 63.1434 78.1477 63.1835 78.3282 63.1835C78.5086 63.1835 78.6646 63.1434 78.7964 63.0633C78.9281 62.9831 79.0297 62.8728 79.1013 62.7325C79.1729 62.5893 79.2087 62.4218 79.2087 62.23ZM82.5559 63.2093H83.1744C83.4149 63.2093 83.614 63.1678 83.7715 63.0847C83.9318 63.0017 84.0507 62.8872 84.128 62.7411C84.2053 62.5951 84.244 62.4275 84.244 62.2385C84.244 62.041 84.2082 61.872 84.1366 61.7317C84.0678 61.5885 83.9619 61.4783 83.8187 61.4009C83.6784 61.3236 83.4994 61.285 83.2818 61.285C83.0985 61.285 82.9324 61.3222 82.7835 61.3966C82.6375 61.4682 82.5215 61.5713 82.4356 61.7059C82.3497 61.8376 82.3067 61.9951 82.3067 62.1784H81.2672C81.2672 61.8462 81.3546 61.5513 81.5293 61.2936C81.7039 61.0358 81.9416 60.8339 82.2423 60.6879C82.5458 60.539 82.8866 60.4645 83.2646 60.4645C83.6684 60.4645 84.0206 60.5318 84.3213 60.6664C84.6248 60.7982 84.8611 60.9957 85.03 61.2592C85.199 61.5226 85.2834 61.8491 85.2834 62.2385C85.2834 62.4161 85.2419 62.5965 85.1589 62.7798C85.0758 62.963 84.9527 63.1306 84.7895 63.2823C84.6262 63.4312 84.4229 63.5529 84.1795 63.6474C83.9361 63.7391 83.6541 63.7849 83.3333 63.7849H82.5559V63.2093ZM82.5559 64.0168V63.4499H83.3333C83.6999 63.4499 84.012 63.4928 84.2697 63.5787C84.5303 63.6646 84.7422 63.7835 84.9054 63.9352C85.0687 64.0841 85.1875 64.2545 85.262 64.4464C85.3393 64.6382 85.3779 64.8416 85.3779 65.0563C85.3779 65.3484 85.325 65.609 85.219 65.8381C85.1159 66.0643 84.9684 66.2562 84.7766 66.4137C84.5847 66.5712 84.3599 66.69 84.1022 66.7702C83.8473 66.8504 83.5696 66.8905 83.2689 66.8905C82.9997 66.8905 82.742 66.8532 82.4957 66.7788C82.2495 66.7043 82.029 66.5941 81.8342 66.448C81.6395 66.2991 81.4849 66.1144 81.3703 65.8939C81.2586 65.6706 81.2028 65.4129 81.2028 65.1208H82.238C82.238 65.3069 82.281 65.4716 82.3669 65.6147C82.4556 65.7551 82.5788 65.8653 82.7363 65.9455C82.8966 66.0257 83.0799 66.0658 83.2861 66.0658C83.5037 66.0658 83.6913 66.0271 83.8488 65.9498C84.0063 65.8725 84.1265 65.7579 84.2096 65.6061C84.2955 65.4544 84.3385 65.2711 84.3385 65.0563C84.3385 64.8129 84.2912 64.6153 84.1967 64.4636C84.1022 64.3118 83.9676 64.2001 83.7929 64.1285C83.6183 64.0541 83.4121 64.0168 83.1744 64.0168H82.5559Z" fill="black" fill-opacity="0.87"/>
<rect x="31.7018" y="99.0526" width="3.5188" height="3.5188" rx="1.7594" fill="#08872B"/>
<path d="M38.7583 100.678L39.5031 98.0595H39.8639L39.6551 99.0776L38.8536 101.812H38.4954L38.7583 100.678ZM37.9877 98.0595L38.5804 100.626L38.7583 101.812H38.4026L37.4928 98.0595H37.9877ZM40.8278 100.624L41.4077 98.0595H41.9051L40.9979 101.812H40.6422L40.8278 100.624ZM39.918 98.0595L40.6422 100.678L40.9051 101.812H40.5469L39.7737 99.0776L39.5624 98.0595H39.918ZM43.0784 99.0234V101.812H42.599V99.0234H43.0784ZM42.563 98.2838C42.563 98.2064 42.5862 98.1412 42.6325 98.0879C42.6807 98.0346 42.7511 98.008 42.8439 98.008C42.9349 98.008 43.0045 98.0346 43.0526 98.0879C43.1025 98.1412 43.1274 98.2064 43.1274 98.2838C43.1274 98.3576 43.1025 98.4212 43.0526 98.4745C43.0045 98.526 42.9349 98.5518 42.8439 98.5518C42.7511 98.5518 42.6807 98.526 42.6325 98.4745C42.5862 98.4212 42.563 98.3576 42.563 98.2838ZM44.4966 99.6188V101.812H44.0198V99.0234H44.4708L44.4966 99.6188ZM44.3832 100.312L44.1847 100.304C44.1865 100.114 44.2148 99.9375 44.2698 99.776C44.3248 99.6128 44.4021 99.471 44.5017 99.3507C44.6014 99.2305 44.7199 99.1377 44.8574 99.0724C44.9966 99.0054 45.1503 98.9719 45.3187 98.9719C45.4562 98.9719 45.5799 98.9908 45.6898 99.0286C45.7998 99.0647 45.8935 99.1231 45.9708 99.2038C46.0498 99.2846 46.1099 99.3894 46.1512 99.5183C46.1924 99.6454 46.213 99.8009 46.213 99.9847V101.812H45.7337V99.9796C45.7337 99.8335 45.7122 99.7167 45.6692 99.6291C45.6263 99.5397 45.5636 99.4753 45.4811 99.4358C45.3986 99.3946 45.2972 99.3739 45.177 99.3739C45.0584 99.3739 44.9502 99.3989 44.8522 99.4487C44.756 99.4985 44.6727 99.5672 44.6023 99.6549C44.5335 99.7425 44.4794 99.843 44.4399 99.9564C44.4021 100.068 44.3832 100.187 44.3832 100.312ZM48.8709 101.271V97.8534H49.3502V101.812H48.9121L48.8709 101.271ZM46.9946 100.449V100.395C46.9946 100.181 47.0204 99.9882 47.0719 99.8146C47.1252 99.6394 47.1999 99.4891 47.2962 99.3636C47.3941 99.2382 47.5101 99.142 47.6441 99.075C47.7798 99.0063 47.931 98.9719 48.0977 98.9719C48.2729 98.9719 48.4259 99.0028 48.5564 99.0647C48.6887 99.1248 48.8004 99.2133 48.8915 99.3301C48.9843 99.4452 49.0573 99.5844 49.1105 99.7476C49.1638 99.9109 49.2007 100.096 49.2214 100.302V100.539C49.2025 100.743 49.1655 100.927 49.1105 101.09C49.0573 101.254 48.9843 101.393 48.8915 101.508C48.8004 101.623 48.6887 101.711 48.5564 101.773C48.4241 101.833 48.2695 101.864 48.0925 101.864C47.9293 101.864 47.7798 101.828 47.6441 101.758C47.5101 101.687 47.3941 101.589 47.2962 101.462C47.1999 101.334 47.1252 101.185 47.0719 101.013C47.0204 100.84 46.9946 100.651 46.9946 100.449ZM47.474 100.395V100.449C47.474 100.588 47.4877 100.718 47.5152 100.84C47.5444 100.962 47.5891 101.07 47.6492 101.163C47.7094 101.255 47.7858 101.328 47.8786 101.382C47.9714 101.433 48.0822 101.459 48.2111 101.459C48.3692 101.459 48.4989 101.425 48.6002 101.358C48.7033 101.291 48.7858 101.203 48.8477 101.093C48.9095 100.983 48.9576 100.864 48.992 100.735V100.114C48.9714 100.019 48.9413 99.928 48.9018 99.8404C48.864 99.7511 48.8142 99.672 48.7523 99.6033C48.6922 99.5329 48.6174 99.477 48.5281 99.4358C48.4405 99.3946 48.3365 99.3739 48.2162 99.3739C48.0857 99.3739 47.9731 99.4014 47.8786 99.4564C47.7858 99.5097 47.7094 99.5836 47.6492 99.6781C47.5891 99.7708 47.5444 99.8791 47.5152 100.003C47.4877 100.125 47.474 100.255 47.474 100.395ZM52.2304 99.5595V102.884H51.751V99.0234H52.1891L52.2304 99.5595ZM54.1092 100.395V100.449C54.1092 100.651 54.0851 100.84 54.037 101.013C53.9889 101.185 53.9185 101.334 53.8257 101.462C53.7346 101.589 53.6221 101.687 53.4881 101.758C53.3541 101.828 53.2003 101.864 53.0267 101.864C52.8498 101.864 52.6934 101.834 52.5577 101.776C52.422 101.718 52.3068 101.632 52.2123 101.521C52.1178 101.409 52.0422 101.275 51.9855 101.119C51.9306 100.962 51.8928 100.786 51.8721 100.59V100.302C51.8928 100.096 51.9314 99.9109 51.9881 99.7476C52.0448 99.5844 52.1196 99.4452 52.2123 99.3301C52.3068 99.2133 52.4211 99.1248 52.5551 99.0647C52.6891 99.0028 52.8438 98.9719 53.019 98.9719C53.1943 98.9719 53.3498 99.0063 53.4855 99.075C53.6212 99.142 53.7355 99.2382 53.8283 99.3636C53.921 99.4891 53.9906 99.6394 54.037 99.8146C54.0851 99.9882 54.1092 100.181 54.1092 100.395ZM53.6298 100.449V100.395C53.6298 100.255 53.6152 100.125 53.586 100.003C53.5568 99.8791 53.5113 99.7708 53.4494 99.6781C53.3893 99.5836 53.312 99.5097 53.2175 99.4564C53.123 99.4014 53.0104 99.3739 52.8798 99.3739C52.7596 99.3739 52.6548 99.3946 52.5654 99.4358C52.4778 99.477 52.4031 99.5329 52.3412 99.6033C52.2793 99.672 52.2287 99.7511 52.1891 99.8404C52.1513 99.928 52.123 100.019 52.1041 100.114V100.781C52.1385 100.901 52.1866 101.015 52.2484 101.121C52.3103 101.226 52.3927 101.311 52.4958 101.376C52.5989 101.44 52.7286 101.472 52.885 101.472C53.0139 101.472 53.1247 101.445 53.2175 101.392C53.312 101.337 53.3893 101.262 53.4494 101.168C53.5113 101.073 53.5568 100.965 53.586 100.843C53.6152 100.719 53.6298 100.588 53.6298 100.449ZM54.7671 100.449V100.389C54.7671 100.188 54.7963 100.002 54.8547 99.8301C54.9131 99.6566 54.9973 99.5062 55.1073 99.3791C55.2172 99.2502 55.3504 99.1506 55.5067 99.0801C55.6631 99.008 55.8383 98.9719 56.0325 98.9719C56.2284 98.9719 56.4045 99.008 56.5608 99.0801C56.7189 99.1506 56.8529 99.2502 56.9629 99.3791C57.0746 99.5062 57.1596 99.6566 57.218 99.8301C57.2765 100.002 57.3057 100.188 57.3057 100.389V100.449C57.3057 100.65 57.2765 100.836 57.218 101.008C57.1596 101.18 57.0746 101.33 56.9629 101.459C56.8529 101.586 56.7198 101.686 56.5634 101.758C56.4088 101.828 56.2335 101.864 56.0377 101.864C55.8418 101.864 55.6657 101.828 55.5093 101.758C55.353 101.686 55.219 101.586 55.1073 101.459C54.9973 101.33 54.9131 101.18 54.8547 101.008C54.7963 100.836 54.7671 100.65 54.7671 100.449ZM55.2439 100.389V100.449C55.2439 100.588 55.2602 100.719 55.2928 100.843C55.3255 100.965 55.3744 101.073 55.4397 101.168C55.5067 101.262 55.5901 101.337 55.6897 101.392C55.7894 101.445 55.9054 101.472 56.0377 101.472C56.1682 101.472 56.2825 101.445 56.3804 101.392C56.4801 101.337 56.5626 101.262 56.6278 101.168C56.6931 101.073 56.7421 100.965 56.7747 100.843C56.8091 100.719 56.8263 100.588 56.8263 100.449V100.389C56.8263 100.252 56.8091 100.122 56.7747 100C56.7421 99.8765 56.6923 99.7674 56.6253 99.6729C56.56 99.5767 56.4775 99.5011 56.3779 99.4461C56.2799 99.3911 56.1648 99.3636 56.0325 99.3636C55.9019 99.3636 55.7868 99.3911 55.6872 99.4461C55.5892 99.5011 55.5067 99.5767 55.4397 99.6729C55.3744 99.7674 55.3255 99.8765 55.2928 100C55.2602 100.122 55.2439 100.252 55.2439 100.389ZM58.7857 101.317L59.5022 99.0234H59.8166L59.7547 99.4796L59.0254 101.812H58.7187L58.7857 101.317ZM58.3037 99.0234L58.9145 101.343L58.9584 101.812H58.6362L57.827 99.0234H58.3037ZM60.5021 101.325L61.0846 99.0234H61.5588L60.7495 101.812H60.43L60.5021 101.325ZM59.8862 99.0234L60.5872 101.279L60.6671 101.812H60.363L59.613 99.4745L59.5511 99.0234H59.8862ZM63.3816 101.864C63.1874 101.864 63.0113 101.831 62.8533 101.766C62.6969 101.699 62.562 101.605 62.4486 101.485C62.337 101.364 62.251 101.222 62.1909 101.057C62.1308 100.892 62.1007 100.712 62.1007 100.516V100.407C62.1007 100.181 62.1342 99.9787 62.2012 99.8018C62.2682 99.6231 62.3593 99.4719 62.4744 99.3482C62.5895 99.2245 62.7201 99.1308 62.8661 99.0672C63.0122 99.0037 63.1634 98.9719 63.3197 98.9719C63.519 98.9719 63.6909 99.0063 63.8352 99.075C63.9812 99.1437 64.1006 99.2399 64.1934 99.3636C64.2862 99.4856 64.3549 99.6299 64.3996 99.7966C64.4443 99.9616 64.4666 100.142 64.4666 100.338V100.552H62.3842V100.163H63.9898V100.126C63.983 100.003 63.9572 99.8825 63.9125 99.7657C63.8696 99.6488 63.8008 99.5526 63.7063 99.477C63.6118 99.4014 63.483 99.3636 63.3197 99.3636C63.2115 99.3636 63.1118 99.3868 63.0208 99.4332C62.9297 99.4779 62.8515 99.5449 62.7863 99.6342C62.721 99.7236 62.6703 99.8327 62.6342 99.9616C62.5981 100.09 62.5801 100.239 62.5801 100.407V100.516C62.5801 100.648 62.5981 100.773 62.6342 100.889C62.672 101.004 62.7261 101.106 62.7966 101.193C62.8687 101.281 62.9555 101.35 63.0569 101.4C63.16 101.449 63.2768 101.474 63.4074 101.474C63.5757 101.474 63.7184 101.44 63.8352 101.371C63.952 101.303 64.0543 101.211 64.1419 101.096L64.4305 101.325C64.3704 101.416 64.2939 101.503 64.2012 101.585C64.1084 101.668 63.9941 101.735 63.8584 101.786C63.7244 101.838 63.5654 101.864 63.3816 101.864ZM65.676 99.4616V101.812H65.1992V99.0234H65.6631L65.676 99.4616ZM66.5471 99.008L66.5446 99.4513C66.505 99.4427 66.4672 99.4375 66.4312 99.4358C66.3968 99.4324 66.3573 99.4306 66.3126 99.4306C66.2026 99.4306 66.1056 99.4478 66.0214 99.4822C65.9372 99.5165 65.8659 99.5647 65.8075 99.6265C65.7491 99.6884 65.7027 99.7622 65.6683 99.8482C65.6357 99.9323 65.6142 100.025 65.6039 100.126L65.4699 100.204C65.4699 100.035 65.4862 99.8774 65.5188 99.7296C65.5532 99.5818 65.6056 99.4513 65.676 99.3379C65.7465 99.2227 65.8358 99.1334 65.9441 99.0698C66.054 99.0045 66.1846 98.9719 66.3358 98.9719C66.3702 98.9719 66.4097 98.9762 66.4544 98.9848C66.499 98.9916 66.53 98.9994 66.5471 99.008Z" fill="black" fill-opacity="0.38"/>
<path d="M39.7397 106.047V109.812H39.1186V106.784L38.1985 107.096V106.583L39.665 106.047H39.7397ZM41.8831 107.655H42.2542C42.3986 107.655 42.518 107.63 42.6125 107.58C42.7087 107.53 42.78 107.462 42.8264 107.374C42.8728 107.286 42.896 107.186 42.896 107.072C42.896 106.954 42.8745 106.852 42.8315 106.768C42.7903 106.682 42.7267 106.616 42.6408 106.57C42.5566 106.523 42.4492 106.5 42.3187 106.5C42.2087 106.5 42.1091 106.523 42.0197 106.567C41.9321 106.61 41.8625 106.672 41.8109 106.753C41.7594 106.832 41.7336 106.926 41.7336 107.036H41.1099C41.1099 106.837 41.1623 106.66 41.2672 106.505C41.372 106.351 41.5146 106.23 41.695 106.142C41.8771 106.053 42.0816 106.008 42.3084 106.008C42.5506 106.008 42.762 106.048 42.9424 106.129C43.1245 106.208 43.2662 106.327 43.3676 106.485C43.469 106.643 43.5197 106.839 43.5197 107.072C43.5197 107.179 43.4947 107.287 43.4449 107.397C43.3951 107.507 43.3212 107.608 43.2233 107.699C43.1253 107.788 43.0034 107.861 42.8573 107.918C42.7113 107.973 42.542 108 42.3496 108H41.8831V107.655ZM41.8831 108.139V107.799H42.3496C42.5695 107.799 42.7568 107.825 42.9114 107.877C43.0678 107.928 43.1949 107.999 43.2929 108.09C43.3908 108.18 43.4621 108.282 43.5068 108.397C43.5532 108.512 43.5764 108.634 43.5764 108.763C43.5764 108.938 43.5446 109.095 43.481 109.232C43.4191 109.368 43.3307 109.483 43.2155 109.577C43.1004 109.672 42.9656 109.743 42.8109 109.791C42.658 109.84 42.4913 109.864 42.3109 109.864C42.1494 109.864 41.9948 109.841 41.847 109.797C41.6993 109.752 41.567 109.686 41.4501 109.598C41.3333 109.509 41.2405 109.398 41.1718 109.266C41.1048 109.132 41.0713 108.977 41.0713 108.802H41.6924C41.6924 108.913 41.7182 109.012 41.7697 109.098C41.823 109.182 41.8969 109.248 41.9914 109.297C42.0876 109.345 42.1975 109.369 42.3212 109.369C42.4518 109.369 42.5644 109.346 42.6589 109.299C42.7534 109.253 42.8255 109.184 42.8754 109.093C42.9269 109.002 42.9527 108.892 42.9527 108.763C42.9527 108.617 42.9243 108.498 42.8676 108.407C42.8109 108.316 42.7302 108.249 42.6254 108.206C42.5206 108.162 42.3968 108.139 42.2542 108.139H41.8831ZM46.779 109.317V109.812H44.2636V109.387L45.4852 108.054C45.6193 107.903 45.7249 107.773 45.8022 107.663C45.8796 107.553 45.9337 107.454 45.9646 107.366C45.9973 107.277 46.0136 107.19 46.0136 107.106C46.0136 106.987 45.9912 106.883 45.9466 106.794C45.9036 106.703 45.84 106.632 45.7559 106.58C45.6717 106.527 45.5694 106.5 45.4492 106.5C45.31 106.5 45.1932 106.53 45.0987 106.59C45.0042 106.651 44.9329 106.734 44.8847 106.84C44.8366 106.945 44.8126 107.066 44.8126 107.201H44.1915C44.1915 106.983 44.2413 106.784 44.3409 106.603C44.4406 106.421 44.5849 106.277 44.7739 106.17C44.9629 106.062 45.1906 106.008 45.4569 106.008C45.7077 106.008 45.9208 106.05 46.096 106.134C46.2713 106.218 46.4045 106.338 46.4955 106.493C46.5883 106.647 46.6347 106.83 46.6347 107.041C46.6347 107.158 46.6158 107.274 46.578 107.389C46.5402 107.505 46.4861 107.62 46.4156 107.735C46.3469 107.848 46.2653 107.962 46.1708 108.078C46.0763 108.191 45.9723 108.306 45.8589 108.423L45.0471 109.317H46.779Z" fill="black" fill-opacity="0.76"/>
<rect x="91.02" y="99.0526" width="3.5188" height="3.5188" rx="1.7594" fill="#FF4D5A"/>
<path d="M98.8905 100.864C98.8905 100.776 98.8768 100.699 98.8493 100.632C98.8235 100.563 98.7771 100.501 98.7101 100.446C98.6448 100.391 98.5537 100.339 98.4369 100.289C98.3218 100.239 98.1758 100.188 97.9988 100.137C97.8132 100.082 97.6457 100.021 97.4962 99.9538C97.3467 99.8851 97.2187 99.8069 97.1122 99.7193C97.0057 99.6317 96.9241 99.5312 96.8674 99.4178C96.8107 99.3044 96.7823 99.1746 96.7823 99.0286C96.7823 98.8825 96.8124 98.7477 96.8725 98.624C96.9327 98.5003 97.0186 98.3929 97.1302 98.3018C97.2436 98.209 97.3785 98.1369 97.5349 98.0853C97.6912 98.0338 97.8656 98.008 98.0581 98.008C98.3398 98.008 98.5787 98.0621 98.7745 98.1704C98.9721 98.2769 99.1225 98.4169 99.2255 98.5905C99.3286 98.7623 99.3802 98.9461 99.3802 99.142H98.8854C98.8854 99.0011 98.8553 98.8765 98.7951 98.7683C98.735 98.6583 98.6439 98.5724 98.522 98.5106C98.4 98.447 98.2453 98.4152 98.0581 98.4152C97.8811 98.4152 97.735 98.4418 97.6199 98.4951C97.5048 98.5484 97.4189 98.6205 97.3622 98.7116C97.3072 98.8026 97.2797 98.9066 97.2797 99.0234C97.2797 99.1025 97.2961 99.1746 97.3287 99.2399C97.3631 99.3035 97.4155 99.3628 97.4859 99.4178C97.5581 99.4727 97.6491 99.5234 97.7591 99.5698C97.8708 99.6162 98.0039 99.6609 98.1586 99.7038C98.3716 99.764 98.5555 99.831 98.7101 99.9049C98.8647 99.9787 98.9919 100.062 99.0915 100.155C99.1929 100.246 99.2676 100.35 99.3158 100.467C99.3656 100.582 99.3905 100.712 99.3905 100.858C99.3905 101.011 99.3596 101.15 99.2977 101.273C99.2359 101.397 99.1474 101.503 99.0323 101.59C98.9171 101.678 98.7788 101.746 98.6173 101.794C98.4575 101.84 98.2788 101.864 98.0813 101.864C97.9077 101.864 97.7368 101.84 97.5684 101.791C97.4017 101.743 97.2497 101.671 97.1122 101.575C96.9765 101.479 96.8674 101.36 96.7849 101.219C96.7041 101.077 96.6638 100.912 96.6638 100.724H97.1586C97.1586 100.853 97.1835 100.964 97.2333 101.057C97.2832 101.148 97.351 101.224 97.4369 101.284C97.5246 101.344 97.6234 101.388 97.7333 101.418C97.845 101.445 97.961 101.459 98.0813 101.459C98.2548 101.459 98.4017 101.435 98.522 101.387C98.6422 101.339 98.7333 101.27 98.7951 101.181C98.8587 101.091 98.8905 100.986 98.8905 100.864ZM100.002 100.449V100.389C100.002 100.188 100.031 100.002 100.09 99.8301C100.148 99.6566 100.232 99.5062 100.342 99.3791C100.452 99.2502 100.585 99.1506 100.742 99.0801C100.898 99.008 101.073 98.9719 101.267 98.9719C101.463 98.9719 101.639 99.008 101.796 99.0801C101.954 99.1506 102.088 99.2502 102.198 99.3791C102.309 99.5062 102.395 99.6566 102.453 99.8301C102.511 100.002 102.541 100.188 102.541 100.389V100.449C102.541 100.65 102.511 100.836 102.453 101.008C102.395 101.18 102.309 101.33 102.198 101.459C102.088 101.586 101.955 101.686 101.798 101.758C101.644 101.828 101.468 101.864 101.273 101.864C101.077 101.864 100.901 101.828 100.744 101.758C100.588 101.686 100.454 101.586 100.342 101.459C100.232 101.33 100.148 101.18 100.09 101.008C100.031 100.836 100.002 100.65 100.002 100.449ZM100.479 100.389V100.449C100.479 100.588 100.495 100.719 100.528 100.843C100.56 100.965 100.609 101.073 100.675 101.168C100.742 101.262 100.825 101.337 100.925 101.392C101.024 101.445 101.14 101.472 101.273 101.472C101.403 101.472 101.517 101.445 101.615 101.392C101.715 101.337 101.797 101.262 101.863 101.168C101.928 101.073 101.977 100.965 102.01 100.843C102.044 100.719 102.061 100.588 102.061 100.449V100.389C102.061 100.252 102.044 100.122 102.01 100C101.977 99.8765 101.927 99.7674 101.86 99.6729C101.795 99.5767 101.712 99.5011 101.613 99.4461C101.515 99.3911 101.4 99.3636 101.267 99.3636C101.137 99.3636 101.022 99.3911 100.922 99.4461C100.824 99.5011 100.742 99.5767 100.675 99.6729C100.609 99.7674 100.56 99.8765 100.528 100C100.495 100.122 100.479 100.252 100.479 100.389ZM103.832 97.8534V101.812H103.353V97.8534H103.832ZM106.418 101.335V99.8997C106.418 99.7897 106.396 99.6944 106.351 99.6136C106.308 99.5312 106.243 99.4676 106.155 99.4229C106.068 99.3782 105.959 99.3559 105.831 99.3559C105.71 99.3559 105.605 99.3765 105.514 99.4178C105.424 99.459 105.354 99.5131 105.302 99.5801C105.252 99.6471 105.227 99.7193 105.227 99.7966H104.751C104.751 99.697 104.776 99.5982 104.828 99.5002C104.88 99.4023 104.953 99.3138 105.05 99.2348C105.148 99.154 105.264 99.0904 105.4 99.0441C105.538 98.9959 105.69 98.9719 105.859 98.9719C106.062 98.9719 106.24 99.0063 106.395 99.075C106.551 99.1437 106.673 99.2477 106.761 99.3868C106.85 99.5243 106.895 99.697 106.895 99.9049V101.204C106.895 101.297 106.903 101.395 106.918 101.5C106.935 101.605 106.96 101.695 106.993 101.771V101.812H106.495C106.471 101.757 106.452 101.684 106.439 101.593C106.425 101.5 106.418 101.414 106.418 101.335ZM106.501 100.121L106.506 100.456H106.024C105.888 100.456 105.767 100.468 105.66 100.49C105.554 100.511 105.465 100.542 105.392 100.585C105.32 100.628 105.265 100.682 105.227 100.748C105.19 100.811 105.171 100.886 105.171 100.972C105.171 101.059 105.19 101.139 105.23 101.212C105.27 101.284 105.329 101.341 105.408 101.384C105.489 101.425 105.587 101.446 105.704 101.446C105.85 101.446 105.979 101.415 106.091 101.353C106.202 101.291 106.291 101.216 106.356 101.126C106.423 101.037 106.459 100.95 106.465 100.866L106.668 101.096C106.656 101.168 106.623 101.248 106.57 101.335C106.517 101.423 106.446 101.507 106.356 101.588C106.269 101.667 106.164 101.733 106.042 101.786C105.922 101.838 105.786 101.864 105.635 101.864C105.446 101.864 105.28 101.827 105.137 101.753C104.996 101.679 104.886 101.58 104.807 101.456C104.73 101.331 104.691 101.191 104.691 101.036C104.691 100.887 104.721 100.755 104.779 100.642C104.837 100.527 104.922 100.431 105.032 100.356C105.142 100.279 105.274 100.22 105.428 100.181C105.583 100.141 105.756 100.121 105.946 100.121H106.501ZM108.298 99.4616V101.812H107.821V99.0234H108.285L108.298 99.4616ZM109.169 99.008L109.166 99.4513C109.127 99.4427 109.089 99.4375 109.053 99.4358C109.018 99.4324 108.979 99.4306 108.934 99.4306C108.824 99.4306 108.727 99.4478 108.643 99.4822C108.559 99.5165 108.487 99.5647 108.429 99.6265C108.371 99.6884 108.324 99.7622 108.29 99.8482C108.257 99.9323 108.236 100.025 108.225 100.126L108.091 100.204C108.091 100.035 108.108 99.8774 108.14 99.7296C108.175 99.5818 108.227 99.4513 108.298 99.3379C108.368 99.2227 108.457 99.1334 108.566 99.0698C108.676 99.0045 108.806 98.9719 108.957 98.9719C108.992 98.9719 109.031 98.9762 109.076 98.9848C109.121 98.9916 109.152 98.9994 109.169 99.008ZM111.747 99.5595V102.884H111.268V99.0234H111.706L111.747 99.5595ZM113.626 100.395V100.449C113.626 100.651 113.602 100.84 113.554 101.013C113.506 101.185 113.435 101.334 113.343 101.462C113.252 101.589 113.139 101.687 113.005 101.758C112.871 101.828 112.717 101.864 112.544 101.864C112.367 101.864 112.21 101.834 112.075 101.776C111.939 101.718 111.824 101.632 111.729 101.521C111.635 101.409 111.559 101.275 111.503 101.119C111.448 100.962 111.41 100.786 111.389 100.59V100.302C111.41 100.096 111.448 99.9109 111.505 99.7476C111.562 99.5844 111.637 99.4452 111.729 99.3301C111.824 99.2133 111.938 99.1248 112.072 99.0647C112.206 99.0028 112.361 98.9719 112.536 98.9719C112.711 98.9719 112.867 99.0063 113.002 99.075C113.138 99.142 113.252 99.2382 113.345 99.3636C113.438 99.4891 113.508 99.6394 113.554 99.8146C113.602 99.9882 113.626 100.181 113.626 100.395ZM113.147 100.449V100.395C113.147 100.255 113.132 100.125 113.103 100.003C113.074 99.8791 113.028 99.7708 112.966 99.6781C112.906 99.5836 112.829 99.5097 112.734 99.4564C112.64 99.4014 112.527 99.3739 112.397 99.3739C112.277 99.3739 112.172 99.3946 112.082 99.4358C111.995 99.477 111.92 99.5329 111.858 99.6033C111.796 99.672 111.746 99.7511 111.706 99.8404C111.668 99.928 111.64 100.019 111.621 100.114V100.781C111.655 100.901 111.704 101.015 111.765 101.121C111.827 101.226 111.91 101.311 112.013 101.376C112.116 101.44 112.246 101.472 112.402 101.472C112.531 101.472 112.642 101.445 112.734 101.392C112.829 101.337 112.906 101.262 112.966 101.168C113.028 101.073 113.074 100.965 113.103 100.843C113.132 100.719 113.147 100.588 113.147 100.449ZM114.284 100.449V100.389C114.284 100.188 114.313 100.002 114.372 99.8301C114.43 99.6566 114.514 99.5062 114.624 99.3791C114.734 99.2502 114.867 99.1506 115.024 99.0801C115.18 99.008 115.355 98.9719 115.549 98.9719C115.745 98.9719 115.921 99.008 116.078 99.0801C116.236 99.1506 116.37 99.2502 116.48 99.3791C116.592 99.5062 116.677 99.6566 116.735 99.8301C116.793 100.002 116.823 100.188 116.823 100.389V100.449C116.823 100.65 116.793 100.836 116.735 101.008C116.677 101.18 116.592 101.33 116.48 101.459C116.37 101.586 116.237 101.686 116.08 101.758C115.926 101.828 115.75 101.864 115.555 101.864C115.359 101.864 115.183 101.828 115.026 101.758C114.87 101.686 114.736 101.586 114.624 101.459C114.514 101.33 114.43 101.18 114.372 101.008C114.313 100.836 114.284 100.65 114.284 100.449ZM114.761 100.389V100.449C114.761 100.588 114.777 100.719 114.81 100.843C114.842 100.965 114.891 101.073 114.957 101.168C115.024 101.262 115.107 101.337 115.207 101.392C115.306 101.445 115.422 101.472 115.555 101.472C115.685 101.472 115.799 101.445 115.897 101.392C115.997 101.337 116.08 101.262 116.145 101.168C116.21 101.073 116.259 100.965 116.292 100.843C116.326 100.719 116.343 100.588 116.343 100.449V100.389C116.343 100.252 116.326 100.122 116.292 100C116.259 99.8765 116.209 99.7674 116.142 99.6729C116.077 99.5767 115.994 99.5011 115.895 99.4461C115.797 99.3911 115.682 99.3636 115.549 99.3636C115.419 99.3636 115.304 99.3911 115.204 99.4461C115.106 99.5011 115.024 99.5767 114.957 99.6729C114.891 99.7674 114.842 99.8765 114.81 100C114.777 100.122 114.761 100.252 114.761 100.389ZM118.303 101.317L119.019 99.0234H119.334L119.272 99.4796L118.542 101.812H118.236L118.303 101.317ZM117.821 99.0234L118.432 101.343L118.475 101.812H118.153L117.344 99.0234H117.821ZM120.019 101.325L120.602 99.0234H121.076L120.267 101.812H119.947L120.019 101.325ZM119.403 99.0234L120.104 101.279L120.184 101.812H119.88L119.13 99.4745L119.068 99.0234H119.403ZM122.899 101.864C122.704 101.864 122.528 101.831 122.37 101.766C122.214 101.699 122.079 101.605 121.966 101.485C121.854 101.364 121.768 101.222 121.708 101.057C121.648 100.892 121.618 100.712 121.618 100.516V100.407C121.618 100.181 121.651 99.9787 121.718 99.8018C121.785 99.6231 121.876 99.4719 121.991 99.3482C122.106 99.2245 122.237 99.1308 122.383 99.0672C122.529 99.0037 122.68 98.9719 122.837 98.9719C123.036 98.9719 123.208 99.0063 123.352 99.075C123.498 99.1437 123.618 99.2399 123.71 99.3636C123.803 99.4856 123.872 99.6299 123.917 99.7966C123.961 99.9616 123.984 100.142 123.984 100.338V100.552H121.901V100.163H123.507V100.126C123.5 100.003 123.474 99.8825 123.429 99.7657C123.387 99.6488 123.318 99.5526 123.223 99.477C123.129 99.4014 123 99.3636 122.837 99.3636C122.728 99.3636 122.629 99.3868 122.538 99.4332C122.447 99.4779 122.369 99.5449 122.303 99.6342C122.238 99.7236 122.187 99.8327 122.151 99.9616C122.115 100.09 122.097 100.239 122.097 100.407V100.516C122.097 100.648 122.115 100.773 122.151 100.889C122.189 101.004 122.243 101.106 122.314 101.193C122.386 101.281 122.472 101.35 122.574 101.4C122.677 101.449 122.794 101.474 122.924 101.474C123.093 101.474 123.235 101.44 123.352 101.371C123.469 101.303 123.571 101.211 123.659 101.096L123.948 101.325C123.887 101.416 123.811 101.503 123.718 101.585C123.625 101.668 123.511 101.735 123.375 101.786C123.241 101.838 123.082 101.864 122.899 101.864ZM125.193 99.4616V101.812H124.716V99.0234H125.18L125.193 99.4616ZM126.064 99.008L126.062 99.4513C126.022 99.4427 125.984 99.4375 125.948 99.4358C125.914 99.4324 125.874 99.4306 125.83 99.4306C125.72 99.4306 125.623 99.4478 125.538 99.4822C125.454 99.5165 125.383 99.5647 125.324 99.6265C125.266 99.6884 125.22 99.7622 125.185 99.8482C125.153 99.9323 125.131 100.025 125.121 100.126L124.987 100.204C124.987 100.035 125.003 99.8774 125.036 99.7296C125.07 99.5818 125.123 99.4513 125.193 99.3379C125.263 99.2227 125.353 99.1334 125.461 99.0698C125.571 99.0045 125.702 98.9719 125.853 98.9719C125.887 98.9719 125.927 98.9762 125.971 98.9848C126.016 98.9916 126.047 98.9994 126.064 99.008Z" fill="black" fill-opacity="0.38"/>
<path d="M98.124 108.067L97.6291 107.946L97.8327 106.06H99.8559V106.585H98.3482L98.2451 107.505C98.3035 107.471 98.3843 107.438 98.4874 107.405C98.5905 107.371 98.7081 107.353 98.8404 107.353C99.0174 107.353 99.1755 107.383 99.3147 107.441C99.4555 107.498 99.575 107.581 99.6729 107.691C99.7708 107.799 99.8456 107.931 99.8971 108.088C99.9487 108.242 99.9744 108.417 99.9744 108.611C99.9744 108.785 99.9487 108.947 99.8971 109.098C99.8473 109.249 99.7717 109.382 99.6703 109.498C99.5689 109.613 99.4409 109.703 99.2863 109.768C99.1334 109.832 98.9521 109.864 98.7425 109.864C98.5862 109.864 98.4358 109.841 98.2915 109.797C98.1489 109.75 98.0209 109.682 97.9075 109.593C97.7941 109.502 97.703 109.39 97.6343 109.258C97.5656 109.124 97.5261 108.97 97.5157 108.797H98.124C98.1394 108.919 98.1729 109.023 98.2245 109.108C98.2777 109.193 98.3482 109.257 98.4358 109.302C98.5234 109.346 98.6248 109.369 98.7399 109.369C98.8447 109.369 98.9349 109.351 99.0105 109.315C99.0861 109.277 99.1489 109.224 99.1987 109.155C99.2502 109.084 99.288 109.002 99.3121 108.907C99.3379 108.813 99.3507 108.708 99.3507 108.593C99.3507 108.483 99.3361 108.383 99.3069 108.291C99.2794 108.2 99.2373 108.121 99.1806 108.054C99.1257 107.987 99.0561 107.936 98.9719 107.9C98.8877 107.862 98.7906 107.843 98.6807 107.843C98.5329 107.843 98.4195 107.864 98.3405 107.907C98.2631 107.95 98.191 108.004 98.124 108.067ZM102.278 106.047V109.812H101.657V106.784L100.736 107.096V106.583L102.203 106.047H102.278Z" fill="black" fill-opacity="0.76"/>
</g>
<defs>
<filter id="filter0_d_3420_69383" x="0.0469995" y="0.481203" width="157.906" height="127.556" filterUnits="userSpaceOnUse" color-interpolation-filters="sRGB">
<feFlood flood-opacity="0" result="BackgroundImageFix"/>
<feColorMatrix in="SourceAlpha" type="matrix" values="0 0 0 0 0 0 0 0 0 0 0 0 0 0 0 0 0 0 127 0" result="hardAlpha"/>
<feOffset dy="1.7594"/>
<feGaussianBlur stdDeviation="2.6391"/>
<feComposite in2="hardAlpha" operator="out"/>
<feColorMatrix type="matrix" values="0 0 0 0 0 0 0 0 0 0 0 0 0 0 0 0 0 0 0.06 0"/>
<feBlend mode="normal" in2="BackgroundImageFix" result="effect1_dropShadow_3420_69383"/>
<feBlend mode="normal" in="SourceGraphic" in2="effect1_dropShadow_3420_69383" result="shape"/>
</filter>
</defs>
</svg>
