<svg width="214" height="75" viewBox="0 0 214 75" fill="none" xmlns="http://www.w3.org/2000/svg">
<g filter="url(#filter0_d_2638_340594)">
<path d="M8.5 8C8.5 5.79086 10.2909 4 12.5 4H201.5C203.709 4 205.5 5.79086 205.5 8V59C205.5 61.2091 203.709 63 201.5 63H12.5C10.2909 63 8.5 61.2091 8.5 59V8Z" fill="white"/>
<rect x="20.5" y="15.5" width="36" height="36" rx="4" fill="#00695C"/>
<path d="M30.9701 41.4999H46.0301C47.5701 41.4999 48.5301 39.8299 47.7601 38.4999L40.2301 25.4899C39.4601 24.1599 37.5401 24.1599 36.7701 25.4899L29.2401 38.4999C28.4701 39.8299 29.4301 41.4999 30.9701 41.4999ZM38.5001 34.4999C37.9501 34.4999 37.5001 34.0499 37.5001 33.4999V31.4999C37.5001 30.9499 37.9501 30.4999 38.5001 30.4999C39.0501 30.4999 39.5001 30.9499 39.5001 31.4999V33.4999C39.5001 34.0499 39.0501 34.4999 38.5001 34.4999ZM39.5001 38.4999H37.5001V36.4999H39.5001V38.4999Z" fill="white"/>
<path d="M72.6426 16.9688V25.5H71.5293V16.9688H72.6426ZM75.3848 16.9688V17.8945H68.793V16.9688H75.3848ZM76.0133 22.4004V22.2656C76.0133 21.8086 76.0797 21.3848 76.2125 20.9941C76.3453 20.5996 76.5367 20.2578 76.7867 19.9688C77.0367 19.6758 77.3395 19.4492 77.6949 19.2891C78.0504 19.125 78.4488 19.043 78.8902 19.043C79.3355 19.043 79.7359 19.125 80.0914 19.2891C80.4508 19.4492 80.7555 19.6758 81.0055 19.9688C81.2594 20.2578 81.4527 20.5996 81.5855 20.9941C81.7184 21.3848 81.7848 21.8086 81.7848 22.2656V22.4004C81.7848 22.8574 81.7184 23.2812 81.5855 23.6719C81.4527 24.0625 81.2594 24.4043 81.0055 24.6973C80.7555 24.9863 80.4527 25.2129 80.0973 25.377C79.7457 25.5371 79.3473 25.6172 78.902 25.6172C78.4566 25.6172 78.0563 25.5371 77.7008 25.377C77.3453 25.2129 77.0406 24.9863 76.7867 24.6973C76.5367 24.4043 76.3453 24.0625 76.2125 23.6719C76.0797 23.2812 76.0133 22.8574 76.0133 22.4004ZM77.0973 22.2656V22.4004C77.0973 22.7168 77.1344 23.0156 77.2086 23.2969C77.2828 23.5742 77.3941 23.8203 77.5426 24.0352C77.6949 24.25 77.8844 24.4199 78.1109 24.5449C78.3375 24.666 78.6012 24.7266 78.902 24.7266C79.1988 24.7266 79.4586 24.666 79.6813 24.5449C79.9078 24.4199 80.0953 24.25 80.2438 24.0352C80.3922 23.8203 80.5035 23.5742 80.5777 23.2969C80.6559 23.0156 80.6949 22.7168 80.6949 22.4004V22.2656C80.6949 21.9531 80.6559 21.6582 80.5777 21.3809C80.5035 21.0996 80.3902 20.8516 80.2379 20.6367C80.0895 20.418 79.902 20.2461 79.6754 20.1211C79.4527 19.9961 79.191 19.9336 78.8902 19.9336C78.5934 19.9336 78.3316 19.9961 78.1051 20.1211C77.8824 20.2461 77.6949 20.418 77.5426 20.6367C77.3941 20.8516 77.2828 21.0996 77.2086 21.3809C77.1344 21.6582 77.0973 21.9531 77.0973 22.2656ZM86.1984 19.1602V19.9922H82.7707V19.1602H86.1984ZM83.9309 17.6191H85.0148V23.9297C85.0148 24.1445 85.048 24.3066 85.1145 24.416C85.1809 24.5254 85.2668 24.5977 85.3723 24.6328C85.4777 24.668 85.591 24.6855 85.7121 24.6855C85.802 24.6855 85.8957 24.6777 85.9934 24.6621C86.0949 24.6426 86.1711 24.627 86.2219 24.6152L86.2277 25.5C86.1418 25.5273 86.0285 25.5527 85.8879 25.5762C85.7512 25.6035 85.5852 25.6172 85.3898 25.6172C85.1242 25.6172 84.8801 25.5645 84.6574 25.459C84.4348 25.3535 84.257 25.1777 84.1242 24.9316C83.9953 24.6816 83.9309 24.3457 83.9309 23.9238V17.6191ZM91.6082 24.416V21.1523C91.6082 20.9023 91.5574 20.6855 91.4559 20.502C91.3582 20.3145 91.2098 20.1699 91.0105 20.0684C90.8113 19.9668 90.5652 19.916 90.2723 19.916C89.9988 19.916 89.7586 19.9629 89.5516 20.0566C89.3484 20.1504 89.1883 20.2734 89.0711 20.4258C88.9578 20.5781 88.9012 20.7422 88.9012 20.918H87.8172C87.8172 20.6914 87.8758 20.4668 87.993 20.2441C88.1102 20.0215 88.2781 19.8203 88.4969 19.6406C88.7195 19.457 88.9852 19.3125 89.2938 19.207C89.6063 19.0977 89.9539 19.043 90.3367 19.043C90.7977 19.043 91.2039 19.1211 91.5555 19.2773C91.9109 19.4336 92.1883 19.6699 92.3875 19.9863C92.5906 20.2988 92.6922 20.6914 92.6922 21.1641V24.1172C92.6922 24.3281 92.7098 24.5527 92.7449 24.791C92.784 25.0293 92.8406 25.2344 92.9148 25.4062V25.5H91.784C91.7293 25.375 91.6863 25.209 91.6551 25.002C91.6238 24.791 91.6082 24.5957 91.6082 24.416ZM91.7957 21.6562L91.8074 22.418H90.7117C90.4031 22.418 90.1277 22.4434 89.8855 22.4941C89.6434 22.541 89.4402 22.6133 89.2762 22.7109C89.1121 22.8086 88.9871 22.9316 88.9012 23.0801C88.8152 23.2246 88.7723 23.3945 88.7723 23.5898C88.7723 23.7891 88.8172 23.9707 88.907 24.1348C88.9969 24.2988 89.1316 24.4297 89.3113 24.5273C89.4949 24.6211 89.7195 24.668 89.9852 24.668C90.3172 24.668 90.6102 24.5977 90.8641 24.457C91.118 24.3164 91.3191 24.1445 91.4676 23.9414C91.6199 23.7383 91.702 23.541 91.7137 23.3496L92.1766 23.8711C92.1492 24.0352 92.075 24.2168 91.9539 24.416C91.8328 24.6152 91.6707 24.8066 91.4676 24.9902C91.2684 25.1699 91.0301 25.3203 90.7527 25.4414C90.4793 25.5586 90.1707 25.6172 89.827 25.6172C89.3973 25.6172 89.0203 25.5332 88.6961 25.3652C88.3758 25.1973 88.1258 24.9727 87.9461 24.6914C87.7703 24.4062 87.6824 24.0879 87.6824 23.7363C87.6824 23.3965 87.7488 23.0977 87.8816 22.8398C88.0145 22.5781 88.2059 22.3613 88.4559 22.1895C88.7059 22.0137 89.0066 21.8809 89.3582 21.791C89.7098 21.7012 90.1023 21.6562 90.5359 21.6562H91.7957ZM95.975 16.5V25.5H94.8852V16.5H95.975Z" fill="black" fill-opacity="0.54"/>
<path d="M78.8418 40.1992V42.5234C78.8418 43.6367 78.7311 44.5872 78.5098 45.375C78.2949 46.1562 77.9824 46.791 77.5723 47.2793C77.1621 47.7676 76.6706 48.1257 76.0977 48.3535C75.5312 48.5814 74.8965 48.6953 74.1934 48.6953C73.6335 48.6953 73.1126 48.6237 72.6309 48.4805C72.1556 48.3372 71.7259 48.1126 71.3418 47.8066C70.9577 47.5007 70.6289 47.1068 70.3555 46.625C70.0885 46.1367 69.8802 45.554 69.7305 44.877C69.5872 44.1999 69.5156 43.4154 69.5156 42.5234V40.1992C69.5156 39.0794 69.6263 38.1354 69.8477 37.3672C70.069 36.5924 70.3848 35.9642 70.7949 35.4824C71.2051 34.9941 71.6934 34.6393 72.2598 34.418C72.8327 34.1966 73.4707 34.0859 74.1738 34.0859C74.7402 34.0859 75.2611 34.1576 75.7363 34.3008C76.2181 34.4375 76.6478 34.6556 77.0254 34.9551C77.4095 35.2546 77.735 35.6452 78.002 36.127C78.2754 36.6022 78.4837 37.1784 78.627 37.8555C78.7702 38.526 78.8418 39.3073 78.8418 40.1992ZM76.4883 42.8555V39.8477C76.4883 39.2812 76.4557 38.7832 76.3906 38.3535C76.3255 37.9173 76.2279 37.5495 76.0977 37.25C75.974 36.944 75.8177 36.6966 75.6289 36.5078C75.4401 36.3125 75.2253 36.1725 74.9844 36.0879C74.7435 35.9967 74.4733 35.9512 74.1738 35.9512C73.8092 35.9512 73.4837 36.0228 73.1973 36.166C72.9108 36.3027 72.6699 36.5241 72.4746 36.8301C72.2793 37.1361 72.1296 37.5397 72.0254 38.041C71.9277 38.5358 71.8789 39.138 71.8789 39.8477V42.8555C71.8789 43.4284 71.9115 43.9329 71.9766 44.3691C72.0417 44.8053 72.1393 45.1797 72.2695 45.4922C72.3997 45.7982 72.556 46.0521 72.7383 46.2539C72.9271 46.4492 73.1419 46.5924 73.3828 46.6836C73.6302 46.7747 73.9004 46.8203 74.1934 46.8203C74.5645 46.8203 74.8932 46.7487 75.1797 46.6055C75.4661 46.4622 75.707 46.2344 75.9023 45.9219C76.0977 45.6029 76.2441 45.1895 76.3418 44.6816C76.4395 44.1738 76.4883 43.5651 76.4883 42.8555Z" fill="black" fill-opacity="0.87"/>
</g>
<defs>
<filter id="filter0_d_2638_340594" x="0.5" y="0" width="213" height="75" filterUnits="userSpaceOnUse" color-interpolation-filters="sRGB">
<feFlood flood-opacity="0" result="BackgroundImageFix"/>
<feColorMatrix in="SourceAlpha" type="matrix" values="0 0 0 0 0 0 0 0 0 0 0 0 0 0 0 0 0 0 127 0" result="hardAlpha"/>
<feOffset dy="4"/>
<feGaussianBlur stdDeviation="4"/>
<feComposite in2="hardAlpha" operator="out"/>
<feColorMatrix type="matrix" values="0 0 0 0 0 0 0 0 0 0 0 0 0 0 0 0 0 0 0.04 0"/>
<feBlend mode="normal" in2="BackgroundImageFix" result="effect1_dropShadow_2638_340594"/>
<feBlend mode="normal" in="SourceGraphic" in2="effect1_dropShadow_2638_340594" result="shape"/>
</filter>
</defs>
</svg>
