<svg width="214" height="75" viewBox="0 0 214 75" fill="none" xmlns="http://www.w3.org/2000/svg">
<g filter="url(#filter0_d_2638_340580)">
<path d="M8.5 8C8.5 5.79086 10.2909 4 12.5 4H201.5C203.709 4 205.5 5.79086 205.5 8V59C205.5 61.2091 203.709 63 201.5 63H12.5C10.2909 63 8.5 61.2091 8.5 59V8Z" fill="white"/>
<rect x="20.5" y="15.5" width="36" height="36" rx="4" fill="#00695C"/>
<path d="M30.9701 41.4999H46.0301C47.5701 41.4999 48.5301 39.8299 47.7601 38.4999L40.2301 25.4899C39.4601 24.1599 37.5401 24.1599 36.7701 25.4899L29.2401 38.4999C28.4701 39.8299 29.4301 41.4999 30.9701 41.4999ZM38.5001 34.4999C37.9501 34.4999 37.5001 34.0499 37.5001 33.4999V31.4999C37.5001 30.9499 37.9501 30.4999 38.5001 30.4999C39.0501 30.4999 39.5001 30.9499 39.5001 31.4999V33.4999C39.5001 34.0499 39.0501 34.4999 38.5001 34.4999ZM39.5001 38.4999H37.5001V36.4999H39.5001V38.4999Z" fill="white"/>
<path d="M72.6426 28.9688V37.5H71.5293V28.9688H72.6426ZM75.3848 28.9688V29.8945H68.793V28.9688H75.3848ZM76.0133 34.4004V34.2656C76.0133 33.8086 76.0797 33.3848 76.2125 32.9941C76.3453 32.5996 76.5367 32.2578 76.7867 31.9688C77.0367 31.6758 77.3395 31.4492 77.6949 31.2891C78.0504 31.125 78.4488 31.043 78.8902 31.043C79.3355 31.043 79.7359 31.125 80.0914 31.2891C80.4508 31.4492 80.7555 31.6758 81.0055 31.9688C81.2594 32.2578 81.4527 32.5996 81.5855 32.9941C81.7184 33.3848 81.7848 33.8086 81.7848 34.2656V34.4004C81.7848 34.8574 81.7184 35.2812 81.5855 35.6719C81.4527 36.0625 81.2594 36.4043 81.0055 36.6973C80.7555 36.9863 80.4527 37.2129 80.0973 37.377C79.7457 37.5371 79.3473 37.6172 78.902 37.6172C78.4566 37.6172 78.0563 37.5371 77.7008 37.377C77.3453 37.2129 77.0406 36.9863 76.7867 36.6973C76.5367 36.4043 76.3453 36.0625 76.2125 35.6719C76.0797 35.2812 76.0133 34.8574 76.0133 34.4004ZM77.0973 34.2656V34.4004C77.0973 34.7168 77.1344 35.0156 77.2086 35.2969C77.2828 35.5742 77.3941 35.8203 77.5426 36.0352C77.6949 36.25 77.8844 36.4199 78.1109 36.5449C78.3375 36.666 78.6012 36.7266 78.902 36.7266C79.1988 36.7266 79.4586 36.666 79.6813 36.5449C79.9078 36.4199 80.0953 36.25 80.2438 36.0352C80.3922 35.8203 80.5035 35.5742 80.5777 35.2969C80.6559 35.0156 80.6949 34.7168 80.6949 34.4004V34.2656C80.6949 33.9531 80.6559 33.6582 80.5777 33.3809C80.5035 33.0996 80.3902 32.8516 80.2379 32.6367C80.0895 32.418 79.902 32.2461 79.6754 32.1211C79.4527 31.9961 79.191 31.9336 78.8902 31.9336C78.5934 31.9336 78.3316 31.9961 78.1051 32.1211C77.8824 32.2461 77.6949 32.418 77.5426 32.6367C77.3941 32.8516 77.2828 33.0996 77.2086 33.3809C77.1344 33.6582 77.0973 33.9531 77.0973 34.2656ZM86.1984 31.1602V31.9922H82.7707V31.1602H86.1984ZM83.9309 29.6191H85.0148V35.9297C85.0148 36.1445 85.048 36.3066 85.1145 36.416C85.1809 36.5254 85.2668 36.5977 85.3723 36.6328C85.4777 36.668 85.591 36.6855 85.7121 36.6855C85.802 36.6855 85.8957 36.6777 85.9934 36.6621C86.0949 36.6426 86.1711 36.627 86.2219 36.6152L86.2277 37.5C86.1418 37.5273 86.0285 37.5527 85.8879 37.5762C85.7512 37.6035 85.5852 37.6172 85.3898 37.6172C85.1242 37.6172 84.8801 37.5645 84.6574 37.459C84.4348 37.3535 84.257 37.1777 84.1242 36.9316C83.9953 36.6816 83.9309 36.3457 83.9309 35.9238V29.6191ZM91.6082 36.416V33.1523C91.6082 32.9023 91.5574 32.6855 91.4559 32.502C91.3582 32.3145 91.2098 32.1699 91.0105 32.0684C90.8113 31.9668 90.5652 31.916 90.2723 31.916C89.9988 31.916 89.7586 31.9629 89.5516 32.0566C89.3484 32.1504 89.1883 32.2734 89.0711 32.4258C88.9578 32.5781 88.9012 32.7422 88.9012 32.918H87.8172C87.8172 32.6914 87.8758 32.4668 87.993 32.2441C88.1102 32.0215 88.2781 31.8203 88.4969 31.6406C88.7195 31.457 88.9852 31.3125 89.2938 31.207C89.6063 31.0977 89.9539 31.043 90.3367 31.043C90.7977 31.043 91.2039 31.1211 91.5555 31.2773C91.9109 31.4336 92.1883 31.6699 92.3875 31.9863C92.5906 32.2988 92.6922 32.6914 92.6922 33.1641V36.1172C92.6922 36.3281 92.7098 36.5527 92.7449 36.791C92.784 37.0293 92.8406 37.2344 92.9148 37.4062V37.5H91.784C91.7293 37.375 91.6863 37.209 91.6551 37.002C91.6238 36.791 91.6082 36.5957 91.6082 36.416ZM91.7957 33.6562L91.8074 34.418H90.7117C90.4031 34.418 90.1277 34.4434 89.8855 34.4941C89.6434 34.541 89.4402 34.6133 89.2762 34.7109C89.1121 34.8086 88.9871 34.9316 88.9012 35.0801C88.8152 35.2246 88.7723 35.3945 88.7723 35.5898C88.7723 35.7891 88.8172 35.9707 88.907 36.1348C88.9969 36.2988 89.1316 36.4297 89.3113 36.5273C89.4949 36.6211 89.7195 36.668 89.9852 36.668C90.3172 36.668 90.6102 36.5977 90.8641 36.457C91.118 36.3164 91.3191 36.1445 91.4676 35.9414C91.6199 35.7383 91.702 35.541 91.7137 35.3496L92.1766 35.8711C92.1492 36.0352 92.075 36.2168 91.9539 36.416C91.8328 36.6152 91.6707 36.8066 91.4676 36.9902C91.2684 37.1699 91.0301 37.3203 90.7527 37.4414C90.4793 37.5586 90.1707 37.6172 89.827 37.6172C89.3973 37.6172 89.0203 37.5332 88.6961 37.3652C88.3758 37.1973 88.1258 36.9727 87.9461 36.6914C87.7703 36.4062 87.6824 36.0879 87.6824 35.7363C87.6824 35.3965 87.7488 35.0977 87.8816 34.8398C88.0145 34.5781 88.2059 34.3613 88.4559 34.1895C88.7059 34.0137 89.0066 33.8809 89.3582 33.791C89.7098 33.7012 90.1023 33.6562 90.5359 33.6562H91.7957ZM95.975 28.5V37.5H94.8852V28.5H95.975Z" fill="black" fill-opacity="0.54"/>
<path d="M191.842 32.1992V34.5234C191.842 35.6367 191.731 36.5872 191.51 37.375C191.295 38.1562 190.982 38.791 190.572 39.2793C190.162 39.7676 189.671 40.1257 189.098 40.3535C188.531 40.5814 187.896 40.6953 187.193 40.6953C186.633 40.6953 186.113 40.6237 185.631 40.4805C185.156 40.3372 184.726 40.1126 184.342 39.8066C183.958 39.5007 183.629 39.1068 183.355 38.625C183.089 38.1367 182.88 37.554 182.73 36.877C182.587 36.1999 182.516 35.4154 182.516 34.5234V32.1992C182.516 31.0794 182.626 30.1354 182.848 29.3672C183.069 28.5924 183.385 27.9642 183.795 27.4824C184.205 26.9941 184.693 26.6393 185.26 26.418C185.833 26.1966 186.471 26.0859 187.174 26.0859C187.74 26.0859 188.261 26.1576 188.736 26.3008C189.218 26.4375 189.648 26.6556 190.025 26.9551C190.41 27.2546 190.735 27.6452 191.002 28.127C191.275 28.6022 191.484 29.1784 191.627 29.8555C191.77 30.526 191.842 31.3073 191.842 32.1992ZM189.488 34.8555V31.8477C189.488 31.2812 189.456 30.7832 189.391 30.3535C189.326 29.9173 189.228 29.5495 189.098 29.25C188.974 28.944 188.818 28.6966 188.629 28.5078C188.44 28.3125 188.225 28.1725 187.984 28.0879C187.743 27.9967 187.473 27.9512 187.174 27.9512C186.809 27.9512 186.484 28.0228 186.197 28.166C185.911 28.3027 185.67 28.5241 185.475 28.8301C185.279 29.1361 185.13 29.5397 185.025 30.041C184.928 30.5358 184.879 31.138 184.879 31.8477V34.8555C184.879 35.4284 184.911 35.9329 184.977 36.3691C185.042 36.8053 185.139 37.1797 185.27 37.4922C185.4 37.7982 185.556 38.0521 185.738 38.2539C185.927 38.4492 186.142 38.5924 186.383 38.6836C186.63 38.7747 186.9 38.8203 187.193 38.8203C187.564 38.8203 187.893 38.7487 188.18 38.6055C188.466 38.4622 188.707 38.2344 188.902 37.9219C189.098 37.6029 189.244 37.1895 189.342 36.6816C189.439 36.1738 189.488 35.5651 189.488 34.8555Z" fill="black" fill-opacity="0.87"/>
</g>
<defs>
<filter id="filter0_d_2638_340580" x="0.5" y="0" width="213" height="75" filterUnits="userSpaceOnUse" color-interpolation-filters="sRGB">
<feFlood flood-opacity="0" result="BackgroundImageFix"/>
<feColorMatrix in="SourceAlpha" type="matrix" values="0 0 0 0 0 0 0 0 0 0 0 0 0 0 0 0 0 0 127 0" result="hardAlpha"/>
<feOffset dy="4"/>
<feGaussianBlur stdDeviation="4"/>
<feComposite in2="hardAlpha" operator="out"/>
<feColorMatrix type="matrix" values="0 0 0 0 0 0 0 0 0 0 0 0 0 0 0 0 0 0 0.04 0"/>
<feBlend mode="normal" in2="BackgroundImageFix" result="effect1_dropShadow_2638_340580"/>
<feBlend mode="normal" in="SourceGraphic" in2="effect1_dropShadow_2638_340580" result="shape"/>
</filter>
</defs>
</svg>
