<svg width="214" height="76" fill="none" xmlns="http://www.w3.org/2000/svg"><g filter="url(#a)"><rect x="8.5" y="4.5" width="197" height="59" rx="4" fill="#fff" shape-rendering="crispEdges"/><rect x="21" y="18.5" width="31" height="31" rx="15.5" stroke="#305680"/><rect x="24.5" y="22" width="24" height="24" rx="12" fill="#305680"/><path d="m38.5 40 1.41-1.41L35.33 34l4.58-4.59L38.5 28l-6 6 6 6Z" fill="#fff"/><path d="M65 22a3.5 3.5 0 0 1 3.5-3.5h77A3.5 3.5 0 0 1 149 22v24a3.5 3.5 0 0 1-3.5 3.5h-77A3.5 3.5 0 0 1 65 46V22Z" fill="#305680" fill-opacity=".04"/><path d="M65 22a3.5 3.5 0 0 1 3.5-3.5h77A3.5 3.5 0 0 1 149 22v24a3.5 3.5 0 0 1-3.5 3.5h-77A3.5 3.5 0 0 1 65 46V22Z" stroke="#305680"/><path d="M88.59 37.5V39h-7.63v-1.29l3.7-4.04c.41-.46.73-.85.97-1.19.23-.33.4-.63.49-.9a2.3 2.3 0 0 0-.06-1.73c-.13-.27-.32-.5-.58-.65a1.7 1.7 0 0 0-.93-.24c-.42 0-.77.1-1.06.27-.28.19-.5.44-.65.76a2.6 2.6 0 0 0-.22 1.1h-1.88c0-.67.15-1.27.46-1.82.3-.55.73-.99 1.3-1.3a4.1 4.1 0 0 1 2.08-.5c.76 0 1.4.13 1.94.38.53.26.93.62 1.2 1.09a3.36 3.36 0 0 1 .25 2.72 5 5 0 0 1-.49 1.04 9 9 0 0 1-.74 1.04c-.28.35-.6.7-.94 1.05l-2.46 2.71h5.25Zm9.27-9.88v1.04L93.3 39h-1.98l4.54-9.88h-5.9v-1.5h7.89Zm1.98 10.44c0-.29.1-.53.3-.73.2-.2.46-.3.8-.3s.6.1.8.3c.2.2.3.44.3.73a1 1 0 0 1-.3.74c-.2.2-.46.3-.8.3s-.6-.1-.8-.3a1 1 0 0 1-.3-.74Zm6.49-4.35-1.5-.37.61-5.72h6.14v1.6H107l-.32 2.79a3.67 3.67 0 0 1 1.81-.46c.54 0 1.02.09 1.44.26.42.17.79.43 1.08.76.3.33.53.73.68 1.2a5 5 0 0 1 0 3.07 3.17 3.17 0 0 1-1.85 2.03c-.46.19-1.01.29-1.65.29a4.6 4.6 0 0 1-1.36-.2 3.73 3.73 0 0 1-1.17-.62 3.14 3.14 0 0 1-1.19-2.42h1.85c.05.37.15.69.3.95.16.25.38.45.64.58a2 2 0 0 0 .92.2c.32 0 .6-.05.83-.16.23-.11.42-.27.57-.48.15-.22.27-.47.34-.75a3.62 3.62 0 0 0-.02-1.87 1.98 1.98 0 0 0-.38-.72c-.17-.2-.38-.36-.63-.47a2.13 2.13 0 0 0-.88-.17c-.45 0-.8.07-1.04.2-.23.13-.45.29-.65.48Zm11.75-4.16c0-.38.1-.72.28-1.04.19-.32.44-.57.75-.76a1.96 1.96 0 0 1 2.05 0c.31.19.56.44.74.76.19.32.28.66.28 1.04s-.1.73-.28 1.05c-.18.31-.43.56-.74.74a2.04 2.04 0 0 1-2.8-.74 2.03 2.03 0 0 1-.28-1.05Zm1.05 0a1 1 0 0 0 1 1 .97.97 0 0 0 .98-1 1 1 0 0 0-.27-.72.93.93 0 0 0-.7-.3c-.28 0-.51.1-.71.3-.2.2-.3.43-.3.72Zm12.19 5.75h1.95a4.5 4.5 0 0 1-.62 1.99 3.72 3.72 0 0 1-1.5 1.37 5 5 0 0 1-2.33.5 4.15 4.15 0 0 1-3.34-1.45c-.4-.48-.71-1.04-.92-1.7-.21-.66-.32-1.4-.32-2.22v-.95c0-.81.1-1.55.32-2.22.22-.66.53-1.22.94-1.69.4-.47.9-.84 1.46-1.09a4.78 4.78 0 0 1 1.93-.37c.9 0 1.67.17 2.3.5.62.33 1.1.8 1.45 1.38.35.59.56 1.26.64 2.02h-1.95c-.05-.48-.17-.9-.35-1.25a1.77 1.77 0 0 0-.76-.8 2.73 2.73 0 0 0-1.33-.28c-.45 0-.84.08-1.17.25a2.2 2.2 0 0 0-.84.73c-.22.33-.39.72-.5 1.2-.11.47-.17 1-.17 1.6v.97c0 .57.05 1.1.15 1.56.1.47.26.86.47 1.2.21.33.48.59.81.77.33.18.72.27 1.18.27.56 0 1-.08 1.35-.26.35-.18.61-.44.8-.78.17-.34.3-.76.35-1.25Z" fill="#000" fill-opacity=".87"/><rect x="162" y="18.5" width="31" height="31" rx="15.5" stroke="#305680"/><rect x="165.5" y="22" width="24" height="24" rx="12" fill="#305680"/><path d="m175.5 28-1.41 1.41 4.58 4.59-4.58 4.59L175.5 40l6-6-6-6Z" fill="#fff"/></g><defs><filter id="a" x=".5" y=".5" width="213" height="75" filterUnits="userSpaceOnUse" color-interpolation-filters="sRGB"><feFlood flood-opacity="0" result="BackgroundImageFix"/><feColorMatrix in="SourceAlpha" values="0 0 0 0 0 0 0 0 0 0 0 0 0 0 0 0 0 0 127 0" result="hardAlpha"/><feOffset dy="4"/><feGaussianBlur stdDeviation="4"/><feComposite in2="hardAlpha" operator="out"/><feColorMatrix values="0 0 0 0 0 0 0 0 0 0 0 0 0 0 0 0 0 0 0.04 0"/><feBlend in2="BackgroundImageFix" result="effect1_dropShadow_5669_166705"/><feBlend in="SourceGraphic" in2="effect1_dropShadow_5669_166705" result="shape"/></filter></defs></svg>