<svg width="214" height="76" fill="none" xmlns="http://www.w3.org/2000/svg"><g filter="url(#a)"><rect x="8.83" y="4.5" width="197" height="59" rx="4" fill="#fff" shape-rendering="crispEdges"/><rect x="20.83" y="18" width="32" height="32" rx="16" fill="#305680"/><path d="m38.83 40 1.41-1.41L35.66 34l4.58-4.59-1.4-1.41-6 6 6 6Z" fill="#fff"/><rect x="65.33" y="18.5" width="84" height="31" rx="3.5" fill="#305680" fill-opacity=".04"/><rect x="65.33" y="18.5" width="84" height="31" rx="3.5" stroke="#305680"/><path d="M88.92 37.5V39h-7.63v-1.29l3.7-4.04c.41-.46.73-.85.97-1.19.23-.33.4-.63.49-.9a2.3 2.3 0 0 0-.05-1.73c-.13-.27-.33-.5-.58-.65a1.7 1.7 0 0 0-.93-.24c-.42 0-.78.1-1.06.27-.3.19-.5.44-.65.76a2.6 2.6 0 0 0-.22 1.1h-1.88c0-.67.15-1.27.45-1.82.3-.55.74-.99 1.31-1.3a4.1 4.1 0 0 1 2.07-.5c.76 0 1.4.13 1.94.38.53.26.93.62 1.21 1.09.28.47.42 1.02.42 1.66 0 .36-.06.7-.17 1.06a5 5 0 0 1-.5 1.04c-.2.35-.45.7-.73 1.04-.3.35-.6.7-.95 1.05l-2.46 2.71h5.25Zm9.27-9.88v1.04L93.65 39h-1.99l4.54-9.88h-5.89v-1.5h7.88Zm1.98 10.44c0-.29.1-.53.3-.73.2-.2.46-.3.8-.3s.61.1.8.3c.2.2.3.44.3.73a1 1 0 0 1-.3.74c-.19.2-.46.3-.8.3s-.6-.1-.8-.3a1 1 0 0 1-.3-.74Zm6.5-4.35-1.5-.37.6-5.72h6.14v1.6h-4.57l-.31 2.79a3.67 3.67 0 0 1 1.8-.46c.54 0 1.02.09 1.44.26.43.17.79.43 1.09.76.3.33.52.73.68 1.2a5 5 0 0 1 0 3.07c-.16.45-.38.86-.7 1.2-.3.36-.69.63-1.16.83a4.6 4.6 0 0 1-3.02.09 3.73 3.73 0 0 1-1.16-.62 3.14 3.14 0 0 1-1.18-2.42h1.84c.05.37.15.69.3.95.17.25.38.45.65.58a2 2 0 0 0 .92.2c.32 0 .59-.05.82-.16.23-.11.42-.27.57-.48.16-.22.27-.47.34-.75a3.62 3.62 0 0 0-.01-1.87 1.98 1.98 0 0 0-.39-.72c-.16-.2-.37-.36-.63-.47a2.13 2.13 0 0 0-.88-.17c-.45 0-.8.07-1.03.2-.24.13-.46.29-.66.48Zm11.74-4.16c0-.38.1-.72.28-1.04.19-.32.44-.57.75-.76a1.96 1.96 0 0 1 2.06 0c.3.19.55.44.73.76.19.32.28.66.28 1.04s-.1.73-.28 1.05a1.97 1.97 0 0 1-1.76 1.02 2.04 2.04 0 0 1-1.78-1.02 2.03 2.03 0 0 1-.28-1.05Zm1.06 0a1 1 0 0 0 1 1 .97.97 0 0 0 .98-1 1 1 0 0 0-.28-.72.93.93 0 0 0-.7-.3c-.27 0-.5.1-.7.3-.2.2-.3.43-.3.72Zm12.18 5.75h1.96a4.5 4.5 0 0 1-.63 1.99 3.72 3.72 0 0 1-1.5 1.37 5 5 0 0 1-2.33.5 4.15 4.15 0 0 1-3.34-1.45c-.4-.48-.7-1.04-.92-1.7-.21-.66-.31-1.4-.31-2.22v-.95c0-.81.1-1.55.32-2.22a4.9 4.9 0 0 1 .93-1.69c.4-.47.9-.84 1.46-1.09a4.78 4.78 0 0 1 1.93-.37c.91 0 1.68.17 2.3.5.63.33 1.11.8 1.45 1.38.35.59.57 1.26.64 2.02h-1.95c-.05-.48-.17-.9-.34-1.25a1.77 1.77 0 0 0-.77-.8 2.73 2.73 0 0 0-1.33-.28c-.44 0-.84.08-1.17.25a2.2 2.2 0 0 0-.83.73c-.23.33-.4.72-.51 1.2-.11.47-.17 1-.17 1.6v.97c0 .57.05 1.1.15 1.56.1.47.26.86.47 1.2.22.33.49.59.81.77.33.18.72.27 1.18.27.56 0 1.01-.08 1.35-.26.35-.18.62-.44.8-.78.18-.34.3-.76.35-1.25Z" fill="#000" fill-opacity=".87"/><rect x="161.83" y="18" width="32" height="32" rx="16" fill="#305680"/><path d="m175.83 28-1.4 1.41L179 34l-4.58 4.59 1.41 1.41 6-6-6-6Z" fill="#fff"/></g><defs><filter id="a" x=".83" y=".5" width="213" height="75" filterUnits="userSpaceOnUse" color-interpolation-filters="sRGB"><feFlood flood-opacity="0" result="BackgroundImageFix"/><feColorMatrix in="SourceAlpha" values="0 0 0 0 0 0 0 0 0 0 0 0 0 0 0 0 0 0 127 0" result="hardAlpha"/><feOffset dy="4"/><feGaussianBlur stdDeviation="4"/><feComposite in2="hardAlpha" operator="out"/><feColorMatrix values="0 0 0 0 0 0 0 0 0 0 0 0 0 0 0 0 0 0 0.04 0"/><feBlend in2="BackgroundImageFix" result="effect1_dropShadow_5669_166701"/><feBlend in="SourceGraphic" in2="effect1_dropShadow_5669_166701" result="shape"/></filter></defs></svg>