<svg width="214" height="76" fill="none" xmlns="http://www.w3.org/2000/svg"><g filter="url(#a)"><rect x="8.17" y="4.5" width="197" height="59" rx="4" fill="#fff" shape-rendering="crispEdges"/><g filter="url(#b)"><rect x="20.17" y="18" width="32" height="32" rx="16" fill="url(#c)" shape-rendering="crispEdges"/><rect x="24.17" y="22" width="24" height="24" rx="12" fill="#305680"/><rect x="24.17" y="22" width="24" height="24" rx="12" stroke="#fff" stroke-width="1.5"/><path d="m38.17 40 1.4-1.41L35 34l4.58-4.59L38.17 28l-6 6 6 6Z" fill="#fff"/></g><path d="M67.16 17.5a3.5 3.5 0 0 0-3.5 3.5v26a3.5 3.5 0 0 0 3.5 3.5h79a3.5 3.5 0 0 0 3.5-3.5V21a3.5 3.5 0 0 0-3.5-3.5h-79Z" fill="#305680" fill-opacity=".04"/><path d="M67.16 17.5a3.5 3.5 0 0 0-3.5 3.5v26a3.5 3.5 0 0 0 3.5 3.5h79a3.5 3.5 0 0 0 3.5-3.5V21a3.5 3.5 0 0 0-3.5-3.5h-79Z" stroke="#305680"/><path d="M88.25 37.5V39h-7.62v-1.29l3.7-4.04c.4-.46.73-.85.96-1.19.24-.33.4-.63.5-.9a2.3 2.3 0 0 0-.06-1.73c-.13-.27-.32-.5-.58-.65a1.7 1.7 0 0 0-.93-.24c-.42 0-.78.1-1.06.27-.29.19-.5.44-.65.76a2.6 2.6 0 0 0-.22 1.1h-1.88c0-.67.15-1.27.45-1.82.3-.55.74-.99 1.31-1.3a4.1 4.1 0 0 1 2.07-.5c.76 0 1.41.13 1.94.38.53.26.94.62 1.21 1.09.28.47.42 1.02.42 1.66 0 .36-.05.7-.17 1.06a5 5 0 0 1-.49 1.04c-.2.35-.46.7-.74 1.04-.29.35-.6.7-.95 1.05L83 37.5h5.25Zm9.28-9.88v1.04L92.98 39h-1.99l4.54-9.88h-5.89v-1.5h7.89Zm1.97 10.44c0-.29.1-.53.3-.73.2-.2.47-.3.8-.3.35 0 .62.1.8.3.2.2.3.44.3.73a1 1 0 0 1-.3.74c-.19.2-.45.3-.8.3-.33 0-.6-.1-.8-.3a1 1 0 0 1-.3-.74Zm6.5-4.35-1.5-.37.61-5.72h6.13v1.6h-4.57l-.3 2.79a3.67 3.67 0 0 1 1.8-.46c.53 0 1.01.09 1.43.26.43.17.8.43 1.09.76.3.33.52.73.68 1.2a5 5 0 0 1 0 3.07 3.17 3.17 0 0 1-1.85 2.03 4.6 4.6 0 0 1-3.02.09 3.73 3.73 0 0 1-1.16-.62 3.14 3.14 0 0 1-1.19-2.42h1.84c.05.37.15.69.3.95.17.25.38.45.65.58a2 2 0 0 0 .92.2c.32 0 .6-.05.82-.16.23-.11.42-.27.57-.48.16-.22.27-.47.35-.75a3.62 3.62 0 0 0-.02-1.87 1.98 1.98 0 0 0-.38-.72c-.17-.2-.38-.36-.64-.47a2.13 2.13 0 0 0-.88-.17c-.45 0-.79.07-1.03.2-.23.13-.45.29-.66.48Zm11.74-4.16a2.14 2.14 0 0 1 1.03-1.8 1.96 1.96 0 0 1 2.06 0c.3.19.55.44.73.76a2.02 2.02 0 0 1 0 2.1c-.18.3-.42.55-.73.73a2.04 2.04 0 0 1-2.8-.74 2.03 2.03 0 0 1-.29-1.05Zm1.06 0a1 1 0 0 0 1 1 .97.97 0 0 0 .98-1 1 1 0 0 0-.28-.72.93.93 0 0 0-.7-.3c-.27 0-.5.1-.7.3-.2.2-.3.43-.3.72Zm12.19 5.75h1.95a4.5 4.5 0 0 1-.63 1.99 3.72 3.72 0 0 1-1.49 1.37 5 5 0 0 1-2.33.5 4.15 4.15 0 0 1-3.34-1.45c-.4-.48-.72-1.04-.93-1.7-.2-.66-.31-1.4-.31-2.22v-.95c0-.81.1-1.55.32-2.22a4.9 4.9 0 0 1 .94-1.69c.4-.47.89-.84 1.46-1.09a4.78 4.78 0 0 1 1.93-.37c.9 0 1.67.17 2.3.5.62.33 1.1.8 1.45 1.38.35.59.56 1.26.64 2.02h-1.96c-.05-.48-.16-.9-.34-1.25a1.77 1.77 0 0 0-.77-.8 2.73 2.73 0 0 0-1.32-.28c-.45 0-.84.08-1.17.25a2.2 2.2 0 0 0-.84.73c-.22.33-.4.72-.5 1.2-.12.47-.17 1-.17 1.6v.97c0 .57.05 1.1.15 1.56.1.47.26.86.46 1.2.22.33.49.59.82.77.33.18.72.27 1.18.27.55 0 1-.08 1.35-.26.35-.18.61-.44.79-.78.18-.34.3-.76.36-1.25Z" fill="#000" fill-opacity=".87"/><g filter="url(#d)"><rect x="161.17" y="18" width="32" height="32" rx="16" fill="url(#e)" shape-rendering="crispEdges"/><rect x="165.17" y="22" width="24" height="24" rx="12" fill="#305680"/><rect x="165.17" y="22" width="24" height="24" rx="12" stroke="#fff" stroke-width="1.5"/><path d="m175.17 28-1.41 1.41 4.58 4.59-4.58 4.59 1.4 1.41 6-6-6-6Z" fill="#fff"/></g></g><defs><filter id="a" x=".17" y=".5" width="213" height="75" filterUnits="userSpaceOnUse" color-interpolation-filters="sRGB"><feFlood flood-opacity="0" result="BackgroundImageFix"/><feColorMatrix in="SourceAlpha" values="0 0 0 0 0 0 0 0 0 0 0 0 0 0 0 0 0 0 127 0" result="hardAlpha"/><feOffset dy="4"/><feGaussianBlur stdDeviation="4"/><feComposite in2="hardAlpha" operator="out"/><feColorMatrix values="0 0 0 0 0 0 0 0 0 0 0 0 0 0 0 0 0 0 0.04 0"/><feBlend in2="BackgroundImageFix" result="effect1_dropShadow_5875_230652"/><feBlend in="SourceGraphic" in2="effect1_dropShadow_5875_230652" result="shape"/></filter><filter id="b" x="12.17" y="14" width="48" height="48" filterUnits="userSpaceOnUse" color-interpolation-filters="sRGB"><feFlood flood-opacity="0" result="BackgroundImageFix"/><feColorMatrix in="SourceAlpha" values="0 0 0 0 0 0 0 0 0 0 0 0 0 0 0 0 0 0 127 0" result="hardAlpha"/><feOffset dy="4"/><feGaussianBlur stdDeviation="4"/><feComposite in2="hardAlpha" operator="out"/><feColorMatrix values="0 0 0 0 0 0 0 0 0 0 0 0 0 0 0 0 0 0 0.08 0"/><feBlend in2="BackgroundImageFix" result="effect1_dropShadow_5875_230652"/><feBlend in="SourceGraphic" in2="effect1_dropShadow_5875_230652" result="shape"/></filter><filter id="d" x="153.17" y="14" width="48" height="48" filterUnits="userSpaceOnUse" color-interpolation-filters="sRGB"><feFlood flood-opacity="0" result="BackgroundImageFix"/><feColorMatrix in="SourceAlpha" values="0 0 0 0 0 0 0 0 0 0 0 0 0 0 0 0 0 0 127 0" result="hardAlpha"/><feOffset dy="4"/><feGaussianBlur stdDeviation="4"/><feComposite in2="hardAlpha" operator="out"/><feColorMatrix values="0 0 0 0 0 0 0 0 0 0 0 0 0 0 0 0 0 0 0.08 0"/><feBlend in2="BackgroundImageFix" result="effect1_dropShadow_5875_230652"/><feBlend in="SourceGraphic" in2="effect1_dropShadow_5875_230652" result="shape"/></filter><linearGradient id="c" x1="26.51" y1="46.83" x2="44.96" y2="21.03" gradientUnits="userSpaceOnUse"><stop stop-color="#CCC"/><stop offset="1" stop-color="#fff"/></linearGradient><linearGradient id="e" x1="167.51" y1="46.83" x2="185.96" y2="21.03" gradientUnits="userSpaceOnUse"><stop stop-color="#CCC"/><stop offset="1" stop-color="#fff"/></linearGradient></defs></svg>