<svg width="128" height="127" viewBox="0 0 128 127" fill="none" xmlns="http://www.w3.org/2000/svg">
<g filter="url(#filter0_d_3195_68011)">
<rect x="5.5" y="2.5" width="117" height="117" rx="2.37563" fill="white" shape-rendering="crispEdges"/>
<g filter="url(#filter1_b_3195_68011)">
<rect x="12.627" y="9.62695" width="102.746" height="102.746" rx="2.37563" fill="white" fill-opacity="0.76"/>
</g>
<path d="M23.8741 22.6104C23.8741 22.4897 23.8556 22.3815 23.8185 22.2856C23.7844 22.1866 23.7195 22.0969 23.6236 22.0165C23.5277 21.9329 23.3931 21.851 23.2199 21.7705C23.0467 21.6901 22.8224 21.6066 22.5471 21.52C22.2409 21.421 21.9501 21.3096 21.6748 21.1859C21.4026 21.0622 21.1613 20.9183 20.951 20.7544C20.7438 20.5874 20.5798 20.394 20.4592 20.1744C20.3416 19.9548 20.2829 19.6996 20.2829 19.4088C20.2829 19.1273 20.3447 18.8721 20.4685 18.6432C20.5922 18.4112 20.7654 18.2133 20.9881 18.0493C21.2108 17.8823 21.4738 17.7539 21.7769 17.6642C22.0831 17.5745 22.4188 17.5297 22.7838 17.5297C23.2818 17.5297 23.7164 17.6194 24.0876 17.7988C24.4588 17.9782 24.7465 18.2241 24.9506 18.5365C25.1579 18.8489 25.2615 19.2062 25.2615 19.6083H23.8788C23.8788 19.4104 23.837 19.2372 23.7535 19.0887C23.6731 18.9371 23.5494 18.818 23.3823 18.7314C23.2184 18.6448 23.0111 18.6015 22.7606 18.6015C22.5193 18.6015 22.3182 18.6386 22.1574 18.7128C21.9965 18.784 21.8759 18.8814 21.7955 19.0052C21.715 19.1258 21.6748 19.2619 21.6748 19.4135C21.6748 19.5279 21.7027 19.6315 21.7583 19.7243C21.8171 19.8171 21.9037 19.9038 22.0182 19.9842C22.1326 20.0646 22.2734 20.1404 22.4404 20.2115C22.6075 20.2827 22.8008 20.3523 23.0204 20.4203C23.3885 20.5317 23.7118 20.657 23.9901 20.7962C24.2716 20.9354 24.5067 21.0916 24.6954 21.2648C24.8841 21.438 25.0264 21.6344 25.1223 21.8541C25.2182 22.0737 25.2661 22.3227 25.2661 22.6011C25.2661 22.8949 25.2089 23.1579 25.0944 23.3899C24.98 23.6219 24.8145 23.8183 24.598 23.9791C24.3814 24.14 24.1232 24.2622 23.8231 24.3457C23.5231 24.4292 23.1874 24.471 22.8162 24.471C22.4822 24.471 22.1527 24.4277 21.8279 24.3411C21.5032 24.2513 21.2077 24.1168 20.9417 23.9374C20.6788 23.758 20.4685 23.5291 20.3107 23.2507C20.1529 22.9723 20.0741 22.6428 20.0741 22.2624H21.4707C21.4707 22.4727 21.5032 22.6506 21.5681 22.796C21.6331 22.9413 21.7243 23.0589 21.8419 23.1486C21.9625 23.2383 22.1048 23.3033 22.2687 23.3435C22.4358 23.3837 22.6183 23.4038 22.8162 23.4038C23.0575 23.4038 23.2555 23.3698 23.4102 23.3017C23.5679 23.2337 23.6839 23.1393 23.7581 23.0187C23.8355 22.898 23.8741 22.7619 23.8741 22.6104ZM27.6882 19.3578V24.3782H26.3472V19.3578H27.6882ZM26.2637 18.0493C26.2637 17.8545 26.3318 17.6936 26.4679 17.5668C26.604 17.44 26.7865 17.3765 27.0154 17.3765C27.2412 17.3765 27.4221 17.44 27.5582 17.5668C27.6974 17.6936 27.767 17.8545 27.767 18.0493C27.767 18.2442 27.6974 18.4051 27.5582 18.5319C27.4221 18.6587 27.2412 18.7221 27.0154 18.7221C26.7865 18.7221 26.604 18.6587 26.4679 18.5319C26.3318 18.4051 26.2637 18.2442 26.2637 18.0493ZM32.1193 19.3578H33.3303V24.2111C33.3303 24.6689 33.2282 25.0571 33.0241 25.3758C32.823 25.6975 32.5415 25.9403 32.1796 26.1042C31.8177 26.2713 31.397 26.3548 30.9175 26.3548C30.7072 26.3548 30.4845 26.3269 30.2494 26.2713C30.0174 26.2156 29.7947 26.129 29.5812 26.0114C29.3709 25.8939 29.1946 25.7454 29.0523 25.566L29.6416 24.7772C29.7962 24.9566 29.9756 25.0958 30.1798 25.1948C30.3839 25.2969 30.6098 25.3479 30.8572 25.3479C31.0985 25.3479 31.3026 25.3031 31.4697 25.2134C31.6367 25.1267 31.7651 24.9984 31.8548 24.8282C31.9445 24.6612 31.9894 24.4586 31.9894 24.2204V20.5178L32.1193 19.3578ZM28.7414 21.9283V21.8309C28.7414 21.4473 28.7878 21.0993 28.8806 20.7869C28.9765 20.4714 29.1111 20.2007 29.2843 19.9749C29.4606 19.7491 29.674 19.5743 29.9246 19.4506C30.1751 19.3269 30.4582 19.265 30.7737 19.265C31.1078 19.265 31.3877 19.3269 31.6135 19.4506C31.8393 19.5743 32.0249 19.7506 32.1703 19.9795C32.3157 20.2053 32.4286 20.4729 32.509 20.7822C32.5925 21.0885 32.6575 21.4241 32.7039 21.7891V22.0025C32.6575 22.3521 32.5879 22.6769 32.4951 22.9769C32.4023 23.277 32.2801 23.5399 32.1286 23.7657C31.977 23.9884 31.7883 24.1616 31.5625 24.2854C31.3398 24.4091 31.0737 24.471 30.7644 24.471C30.4551 24.471 30.1751 24.4076 29.9246 24.2807C29.6771 24.1539 29.4652 23.976 29.2889 23.7471C29.1126 23.5182 28.9765 23.2491 28.8806 22.9398C28.7878 22.6305 28.7414 22.2933 28.7414 21.9283ZM30.0777 21.8309V21.9283C30.0777 22.1355 30.0978 22.3289 30.138 22.5083C30.1782 22.6877 30.2401 22.847 30.3236 22.9862C30.4102 23.1223 30.517 23.229 30.6438 23.3064C30.7737 23.3806 30.9268 23.4177 31.1031 23.4177C31.3475 23.4177 31.547 23.3667 31.7017 23.2646C31.8563 23.1594 31.9723 23.0156 32.0497 22.8331C32.127 22.6506 32.1719 22.4402 32.1842 22.2021V21.5942C32.178 21.3994 32.1517 21.2246 32.1054 21.0699C32.059 20.9122 31.994 20.7776 31.9105 20.6662C31.827 20.5549 31.7187 20.4683 31.5857 20.4064C31.4527 20.3445 31.2949 20.3136 31.1124 20.3136C30.9361 20.3136 30.783 20.3538 30.6531 20.4342C30.5262 20.5116 30.4195 20.6183 30.3329 20.7544C30.2494 20.8905 30.186 21.0514 30.1427 21.237C30.0994 21.4195 30.0777 21.6174 30.0777 21.8309ZM35.8266 20.4296V24.3782H34.4903V19.3578H35.743L35.8266 20.4296ZM35.6317 21.6917H35.2698C35.2698 21.3205 35.3177 20.9864 35.4136 20.6894C35.5095 20.3894 35.6441 20.1342 35.8173 19.9239C35.9905 19.7104 36.1962 19.548 36.4344 19.4367C36.6757 19.3222 36.9448 19.265 37.2417 19.265C37.4768 19.265 37.6918 19.299 37.8867 19.3671C38.0816 19.4351 38.2486 19.5434 38.3878 19.6919C38.5301 19.8403 38.6383 20.0368 38.7126 20.2811C38.7899 20.5255 38.8286 20.824 38.8286 21.1766V24.3782H37.483V21.172C37.483 20.9493 37.4521 20.7761 37.3902 20.6523C37.3283 20.5286 37.2371 20.442 37.1165 20.3925C36.9989 20.3399 36.8535 20.3136 36.6803 20.3136C36.5009 20.3136 36.3447 20.3492 36.2117 20.4203C36.0818 20.4915 35.9735 20.5905 35.8869 20.7173C35.8034 20.841 35.7399 20.9864 35.6966 21.1534C35.6533 21.3205 35.6317 21.4999 35.6317 21.6917ZM42.7029 23.246V21.0096C42.7029 20.8487 42.6766 20.7111 42.624 20.5966C42.5714 20.4791 42.4895 20.3878 42.3781 20.3229C42.2698 20.2579 42.1291 20.2255 41.9559 20.2255C41.8074 20.2255 41.679 20.2517 41.5708 20.3043C41.4625 20.3538 41.379 20.4265 41.3202 20.5224C41.2614 20.6152 41.2321 20.725 41.2321 20.8518H39.8958C39.8958 20.6384 39.9453 20.4358 40.0442 20.244C40.1432 20.0522 40.2871 19.8836 40.4758 19.7383C40.6644 19.5898 40.8887 19.4738 41.1485 19.3903C41.4115 19.3068 41.7053 19.265 42.0301 19.265C42.4199 19.265 42.7663 19.33 43.0695 19.4599C43.3726 19.5898 43.6108 19.7847 43.784 20.0445C43.9603 20.3043 44.0485 20.6291 44.0485 21.0189V23.1672C44.0485 23.4425 44.0655 23.6683 44.0995 23.8446C44.1335 24.0178 44.183 24.1694 44.248 24.2993V24.3782H42.8978C42.8328 24.2421 42.7833 24.0719 42.7493 23.8678C42.7184 23.6605 42.7029 23.4533 42.7029 23.246ZM42.8792 21.3205L42.8885 22.0768H42.1415C41.9652 22.0768 41.812 22.0969 41.6821 22.1371C41.5522 22.1773 41.4455 22.2345 41.362 22.3088C41.2785 22.3799 41.2166 22.4634 41.1764 22.5593C41.1393 22.6552 41.1207 22.7604 41.1207 22.8748C41.1207 22.9893 41.147 23.0929 41.1996 23.1857C41.2522 23.2754 41.3279 23.3466 41.4269 23.3992C41.5259 23.4486 41.6419 23.4734 41.7749 23.4734C41.976 23.4734 42.1508 23.4332 42.2992 23.3528C42.4477 23.2723 42.5622 23.1733 42.6426 23.0558C42.7261 22.9383 42.7694 22.8269 42.7725 22.7217L43.1251 23.2878C43.0756 23.4146 43.0076 23.5461 42.921 23.6822C42.8375 23.8183 42.7307 23.9467 42.6008 24.0673C42.4709 24.1848 42.3147 24.2823 42.1322 24.3596C41.9497 24.4339 41.7332 24.471 41.4826 24.471C41.164 24.471 40.8748 24.4076 40.6149 24.2807C40.3582 24.1508 40.1541 23.973 40.0025 23.7471C39.854 23.5182 39.7798 23.2584 39.7798 22.9676C39.7798 22.7047 39.8293 22.4712 39.9282 22.267C40.0272 22.0629 40.1726 21.8912 40.3644 21.752C40.5593 21.6097 40.8021 21.503 41.0929 21.4318C41.3836 21.3576 41.7208 21.3205 42.1044 21.3205H42.8792ZM46.6376 17.2513V24.3782H45.2966V17.2513H46.6376ZM53.1195 22.9908C53.1195 22.8949 53.0917 22.8083 53.036 22.731C52.9803 22.6537 52.8767 22.5825 52.7251 22.5176C52.5766 22.4495 52.3617 22.3877 52.0802 22.332C51.8265 22.2763 51.5899 22.2067 51.3703 22.1232C51.1537 22.0366 50.965 21.9329 50.8042 21.8123C50.6464 21.6917 50.5227 21.5494 50.433 21.3854C50.3433 21.2184 50.2984 21.0282 50.2984 20.8147C50.2984 20.6044 50.3433 20.4064 50.433 20.2208C50.5258 20.0352 50.6573 19.8713 50.8274 19.729C51.0006 19.5836 51.211 19.4707 51.4584 19.3903C51.709 19.3068 51.9905 19.265 52.3029 19.265C52.739 19.265 53.1133 19.3346 53.4257 19.4738C53.7413 19.613 53.9825 19.8048 54.1496 20.0491C54.3197 20.2904 54.4048 20.5657 54.4048 20.875H53.0685C53.0685 20.7451 53.0406 20.6291 52.985 20.527C52.9324 20.4219 52.8488 20.3399 52.7344 20.2811C52.623 20.2193 52.4777 20.1883 52.2982 20.1883C52.1498 20.1883 52.0214 20.2146 51.9131 20.2672C51.8049 20.3167 51.7214 20.3848 51.6626 20.4714C51.6069 20.5549 51.5791 20.6477 51.5791 20.7498C51.5791 20.8271 51.5945 20.8967 51.6255 20.9586C51.6595 21.0173 51.7136 21.0715 51.7879 21.121C51.8621 21.1704 51.958 21.2168 52.0755 21.2602C52.1962 21.3004 52.3446 21.3375 52.521 21.3715C52.8829 21.4457 53.2061 21.5432 53.4907 21.6638C53.7753 21.7814 54.0011 21.9422 54.1681 22.1464C54.3352 22.3474 54.4187 22.6119 54.4187 22.9398C54.4187 23.1625 54.3692 23.3667 54.2702 23.5523C54.1712 23.7379 54.0289 23.9003 53.8433 24.0395C53.6577 24.1756 53.435 24.2823 53.1752 24.3596C52.9184 24.4339 52.6292 24.471 52.3075 24.471C51.8404 24.471 51.4445 24.3875 51.1197 24.2204C50.798 24.0534 50.5536 23.8415 50.3866 23.5847C50.2227 23.3249 50.1407 23.0589 50.1407 22.7867H51.4074C51.4136 22.9692 51.46 23.1161 51.5466 23.2275C51.6363 23.3388 51.7492 23.4193 51.8853 23.4688C52.0245 23.5182 52.1745 23.543 52.3354 23.543C52.5086 23.543 52.6524 23.5198 52.7669 23.4734C52.8813 23.4239 52.9679 23.3589 53.0267 23.2785C53.0886 23.195 53.1195 23.0991 53.1195 22.9908ZM57.894 19.3578V20.3043H54.9708V19.3578H57.894ZM55.6947 18.1189H57.031V22.8656C57.031 23.0109 57.0495 23.1223 57.0866 23.1996C57.1268 23.277 57.1856 23.3311 57.263 23.362C57.3403 23.3899 57.4377 23.4038 57.5553 23.4038C57.6388 23.4038 57.713 23.4007 57.778 23.3945C57.846 23.3852 57.9033 23.376 57.9497 23.3667L57.9543 24.3503C57.8398 24.3875 57.7161 24.4168 57.5831 24.4385C57.4501 24.4601 57.3032 24.471 57.1423 24.471C56.8485 24.471 56.5917 24.423 56.3721 24.3271C56.1556 24.2282 55.9885 24.0704 55.871 23.8539C55.7534 23.6373 55.6947 23.3528 55.6947 23.0001V18.1189ZM60.1397 20.4528V24.3782H58.8034V19.3578H60.0608L60.1397 20.4528ZM61.6523 19.3253L61.6291 20.5642C61.5641 20.5549 61.4853 20.5472 61.3925 20.541C61.3028 20.5317 61.2208 20.527 61.1466 20.527C60.9579 20.527 60.7939 20.5518 60.6547 20.6013C60.5186 20.6477 60.4042 20.7173 60.3114 20.8101C60.2217 20.9029 60.1536 21.0158 60.1072 21.1488C60.0639 21.2818 60.0392 21.4334 60.033 21.6035L59.7639 21.52C59.7639 21.1952 59.7963 20.8967 59.8613 20.6245C59.9263 20.3492 60.0206 20.1095 60.1443 19.9053C60.2712 19.7011 60.4258 19.5434 60.6083 19.432C60.7908 19.3207 60.9996 19.265 61.2347 19.265C61.309 19.265 61.3847 19.2712 61.4621 19.2836C61.5394 19.2928 61.6028 19.3068 61.6523 19.3253ZM64.6497 24.471C64.2599 24.471 63.9104 24.4091 63.6011 24.2854C63.2917 24.1586 63.0288 23.9838 62.8123 23.7611C62.5988 23.5383 62.4349 23.2801 62.3205 22.9862C62.206 22.6892 62.1488 22.3737 62.1488 22.0397V21.8541C62.1488 21.4736 62.2029 21.1256 62.3112 20.8101C62.4194 20.4946 62.5741 20.2208 62.7752 19.9888C62.9793 19.7568 63.2268 19.579 63.5176 19.4552C63.8083 19.3284 64.1362 19.265 64.5012 19.265C64.8569 19.265 65.1725 19.3238 65.4478 19.4413C65.7231 19.5589 65.9535 19.7259 66.1391 19.9424C66.3278 20.1589 66.4701 20.4188 66.566 20.7219C66.6619 21.022 66.7098 21.356 66.7098 21.7241V22.2809H62.7195V21.3901H65.3967V21.288C65.3967 21.1024 65.3627 20.9369 65.2946 20.7915C65.2297 20.643 65.1307 20.5255 64.9977 20.4389C64.8647 20.3523 64.6945 20.309 64.4873 20.309C64.311 20.309 64.1594 20.3476 64.0326 20.425C63.9058 20.5023 63.8021 20.6106 63.7217 20.7498C63.6444 20.889 63.5856 21.0529 63.5454 21.2416C63.5083 21.4272 63.4897 21.6313 63.4897 21.8541V22.0397C63.4897 22.2407 63.5176 22.4263 63.5732 22.5964C63.632 22.7666 63.714 22.9135 63.8191 23.0372C63.9274 23.161 64.0573 23.2569 64.2089 23.3249C64.3636 23.393 64.5383 23.427 64.7332 23.427C64.9745 23.427 65.1987 23.3806 65.406 23.2878C65.6163 23.1919 65.7973 23.0481 65.9489 22.8563L66.5985 23.5615C66.4933 23.7131 66.3494 23.8585 66.1669 23.9977C65.9875 24.1369 65.771 24.2513 65.5174 24.3411C65.2637 24.4277 64.9745 24.471 64.6497 24.471ZM68.9277 20.4296V24.3782H67.5914V19.3578H68.8442L68.9277 20.4296ZM68.7328 21.6917H68.3709C68.3709 21.3205 68.4188 20.9864 68.5147 20.6894C68.6106 20.3894 68.7452 20.1342 68.9184 19.9239C69.0916 19.7104 69.2973 19.548 69.5355 19.4367C69.7768 19.3222 70.0459 19.265 70.3429 19.265C70.578 19.265 70.7929 19.299 70.9878 19.3671C71.1827 19.4351 71.3497 19.5434 71.4889 19.6919C71.6312 19.8403 71.7395 20.0368 71.8137 20.2811C71.891 20.5255 71.9297 20.824 71.9297 21.1766V24.3782H70.5841V21.172C70.5841 20.9493 70.5532 20.7761 70.4913 20.6523C70.4295 20.5286 70.3382 20.442 70.2176 20.3925C70.1 20.3399 69.9547 20.3136 69.7814 20.3136C69.602 20.3136 69.4458 20.3492 69.3128 20.4203C69.1829 20.4915 69.0746 20.5905 68.988 20.7173C68.9045 20.841 68.8411 20.9864 68.7978 21.1534C68.7545 21.3205 68.7328 21.4999 68.7328 21.6917ZM76.2727 19.3578H77.4837V24.2111C77.4837 24.6689 77.3816 25.0571 77.1774 25.3758C76.9764 25.6975 76.6949 25.9403 76.333 26.1042C75.9711 26.2713 75.5504 26.3548 75.0709 26.3548C74.8606 26.3548 74.6379 26.3269 74.4028 26.2713C74.1708 26.2156 73.9481 26.129 73.7346 26.0114C73.5243 25.8939 73.348 25.7454 73.2057 25.566L73.795 24.7772C73.9496 24.9566 74.129 25.0958 74.3332 25.1948C74.5373 25.2969 74.7631 25.3479 75.0106 25.3479C75.2519 25.3479 75.456 25.3031 75.6231 25.2134C75.7901 25.1267 75.9185 24.9984 76.0082 24.8282C76.0979 24.6612 76.1427 24.4586 76.1427 24.2204V20.5178L76.2727 19.3578ZM72.8948 21.9283V21.8309C72.8948 21.4473 72.9412 21.0993 73.034 20.7869C73.1299 20.4714 73.2645 20.2007 73.4377 19.9749C73.614 19.7491 73.8274 19.5743 74.078 19.4506C74.3285 19.3269 74.6116 19.265 74.9271 19.265C75.2612 19.265 75.5411 19.3269 75.7669 19.4506C75.9927 19.5743 76.1783 19.7506 76.3237 19.9795C76.4691 20.2053 76.582 20.4729 76.6624 20.7822C76.7459 21.0885 76.8109 21.4241 76.8573 21.7891V22.0025C76.8109 22.3521 76.7413 22.6769 76.6485 22.9769C76.5557 23.277 76.4335 23.5399 76.2819 23.7657C76.1304 23.9884 75.9417 24.1616 75.7159 24.2854C75.4932 24.4091 75.2271 24.471 74.9178 24.471C74.6085 24.471 74.3285 24.4076 74.078 24.2807C73.8305 24.1539 73.6186 23.976 73.4423 23.7471C73.266 23.5182 73.1299 23.2491 73.034 22.9398C72.9412 22.6305 72.8948 22.2933 72.8948 21.9283ZM74.2311 21.8309V21.9283C74.2311 22.1355 74.2512 22.3289 74.2914 22.5083C74.3316 22.6877 74.3935 22.847 74.477 22.9862C74.5636 23.1223 74.6704 23.229 74.7972 23.3064C74.9271 23.3806 75.0802 23.4177 75.2565 23.4177C75.5009 23.4177 75.7004 23.3667 75.8551 23.2646C76.0097 23.1594 76.1257 23.0156 76.2031 22.8331C76.2804 22.6506 76.3253 22.4402 76.3376 22.2021V21.5942C76.3314 21.3994 76.3051 21.2246 76.2587 21.0699C76.2123 20.9122 76.1474 20.7776 76.0639 20.6662C75.9804 20.5549 75.8721 20.4683 75.7391 20.4064C75.6061 20.3445 75.4483 20.3136 75.2658 20.3136C75.0895 20.3136 74.9364 20.3538 74.8065 20.4342C74.6796 20.5116 74.5729 20.6183 74.4863 20.7544C74.4028 20.8905 74.3394 21.0514 74.2961 21.237C74.2528 21.4195 74.2311 21.6174 74.2311 21.8309ZM81.1307 19.3578V20.3043H78.2075V19.3578H81.1307ZM78.9313 18.1189H80.2676V22.8656C80.2676 23.0109 80.2862 23.1223 80.3233 23.1996C80.3635 23.277 80.4223 23.3311 80.4996 23.362C80.577 23.3899 80.6744 23.4038 80.7919 23.4038C80.8755 23.4038 80.9497 23.4007 81.0147 23.3945C81.0827 23.3852 81.1399 23.376 81.1863 23.3667L81.191 24.3503C81.0765 24.3875 80.9528 24.4168 80.8198 24.4385C80.6868 24.4601 80.5398 24.471 80.379 24.471C80.0851 24.471 79.8284 24.423 79.6088 24.3271C79.3922 24.2282 79.2252 24.0704 79.1077 23.8539C78.9901 23.6373 78.9313 23.3528 78.9313 23.0001V18.1189ZM83.3439 17.2513V24.3782H82.0076V17.2513H83.3439ZM83.1537 21.6917H82.7871C82.7902 21.3421 82.8366 21.0204 82.9263 20.7266C83.016 20.4296 83.1444 20.1729 83.3114 19.9563C83.4785 19.7367 83.678 19.5666 83.91 19.4459C84.1451 19.3253 84.4049 19.265 84.6895 19.265C84.9369 19.265 85.1612 19.3006 85.3623 19.3717C85.5664 19.4398 85.7412 19.5511 85.8866 19.7058C86.035 19.8574 86.1495 20.0569 86.2299 20.3043C86.3103 20.5518 86.3506 20.8518 86.3506 21.2045V24.3782H85.005V21.1952C85.005 20.9725 84.9725 20.7977 84.9075 20.6709C84.8457 20.541 84.7544 20.4497 84.6338 20.3971C84.5162 20.3415 84.3709 20.3136 84.1976 20.3136C84.0059 20.3136 83.8419 20.3492 83.7058 20.4203C83.5728 20.4915 83.4661 20.5905 83.3857 20.7173C83.3052 20.841 83.2465 20.9864 83.2093 21.1534C83.1722 21.3205 83.1537 21.4999 83.1537 21.6917Z" fill="black" fill-opacity="0.87"/>
<rect x="31.0381" y="83.0508" width="10.6904" height="21.9746" rx="2.37563" fill="#5CDF90"/>
<rect x="49.4492" y="68.2031" width="10.6904" height="36.2284" rx="2.37563" fill="#5CDF90"/>
<rect x="67.2666" y="53.9493" width="10.6904" height="51.0761" rx="2.37563" fill="#5CDF90"/>
<rect x="85.6777" y="39.1016" width="10.6904" height="65.9239" rx="2.37563" fill="#5CDF90"/>
</g>
<defs>
<filter id="filter0_d_3195_68011" x="0.748731" y="0.124365" width="126.503" height="126.503" filterUnits="userSpaceOnUse" color-interpolation-filters="sRGB">
<feFlood flood-opacity="0" result="BackgroundImageFix"/>
<feColorMatrix in="SourceAlpha" type="matrix" values="0 0 0 0 0 0 0 0 0 0 0 0 0 0 0 0 0 0 127 0" result="hardAlpha"/>
<feOffset dy="2.37563"/>
<feGaussianBlur stdDeviation="2.37563"/>
<feComposite in2="hardAlpha" operator="out"/>
<feColorMatrix type="matrix" values="0 0 0 0 0 0 0 0 0 0 0 0 0 0 0 0 0 0 0.04 0"/>
<feBlend mode="normal" in2="BackgroundImageFix" result="effect1_dropShadow_3195_68011"/>
<feBlend mode="normal" in="SourceGraphic" in2="effect1_dropShadow_3195_68011" result="shape"/>
</filter>
<filter id="filter1_b_3195_68011" x="9.0635" y="6.0635" width="109.873" height="109.873" filterUnits="userSpaceOnUse" color-interpolation-filters="sRGB">
<feFlood flood-opacity="0" result="BackgroundImageFix"/>
<feGaussianBlur in="BackgroundImageFix" stdDeviation="1.78173"/>
<feComposite in2="SourceAlpha" operator="in" result="effect1_backgroundBlur_3195_68011"/>
<feBlend mode="normal" in="SourceGraphic" in2="effect1_backgroundBlur_3195_68011" result="shape"/>
</filter>
</defs>
</svg>
