<svg width="134" height="133" viewBox="0 0 134 133" fill="none" xmlns="http://www.w3.org/2000/svg">
<g filter="url(#filter0_d_3195_68028)">
<rect x="8.5" y="4.5" width="117" height="117" rx="2.37563" fill="white" shape-rendering="crispEdges"/>
<g filter="url(#filter1_b_3195_68028)">
<rect x="15.627" y="11.627" width="102.746" height="102.746" rx="2.37563" fill="white" fill-opacity="0.76"/>
</g>
<path d="M26.9948 24.6382C26.9948 24.499 26.9731 24.3753 26.9298 24.267C26.8896 24.1587 26.8169 24.0598 26.7118 23.9701C26.6066 23.8804 26.4581 23.7937 26.2663 23.7102C26.0776 23.6236 25.8364 23.5355 25.5425 23.4458C25.2208 23.3468 24.9238 23.237 24.6516 23.1163C24.3825 22.9926 24.1474 22.8503 23.9464 22.6894C23.7453 22.5255 23.5891 22.3384 23.4777 22.128C23.3664 21.9146 23.3107 21.6687 23.3107 21.3903C23.3107 21.115 23.3679 20.8644 23.4824 20.6386C23.5999 20.4128 23.7654 20.2179 23.9788 20.054C24.1954 19.8869 24.4506 19.7586 24.7444 19.6689C25.0383 19.5761 25.3631 19.5297 25.7188 19.5297C26.2199 19.5297 26.6514 19.6225 27.0133 19.8081C27.3784 19.9937 27.6583 20.2427 27.8532 20.5551C28.0511 20.8675 28.1501 21.2124 28.1501 21.5898H26.9948C26.9948 21.3671 26.9468 21.1706 26.8509 21.0005C26.7581 20.8273 26.6159 20.6912 26.4241 20.5922C26.2354 20.4932 25.9957 20.4437 25.7049 20.4437C25.4296 20.4437 25.2007 20.4855 25.0182 20.569C24.8357 20.6525 24.6996 20.7654 24.6099 20.9077C24.5202 21.05 24.4753 21.2109 24.4753 21.3903C24.4753 21.5171 24.5047 21.6331 24.5635 21.7383C24.6222 21.8403 24.7119 21.9362 24.8326 22.0259C24.9532 22.1125 25.1048 22.1945 25.2873 22.2719C25.4698 22.3492 25.6848 22.4234 25.9322 22.4946C26.3065 22.6059 26.6329 22.7297 26.9113 22.8658C27.1897 22.9988 27.4217 23.1503 27.6073 23.3205C27.7928 23.4906 27.932 23.6839 28.0248 23.9005C28.1176 24.1139 28.164 24.3567 28.164 24.6289C28.164 24.9135 28.1068 25.1703 27.9924 25.3992C27.8779 25.625 27.714 25.8183 27.5005 25.9791C27.2902 26.1369 27.0365 26.2591 26.7396 26.3457C26.4457 26.4292 26.1178 26.471 25.7559 26.471C25.4311 26.471 25.111 26.4277 24.7955 26.3411C24.483 26.2544 24.1985 26.123 23.9417 25.9467C23.685 25.7673 23.4808 25.5445 23.3293 25.2785C23.1777 25.0094 23.1019 24.6954 23.1019 24.3366H24.2665C24.2665 24.5562 24.3036 24.7434 24.3779 24.898C24.4552 25.0527 24.5619 25.1795 24.698 25.2785C24.8341 25.3744 24.9919 25.4456 25.1713 25.492C25.3538 25.5383 25.5487 25.5615 25.7559 25.5615C26.0281 25.5615 26.2555 25.5229 26.438 25.4456C26.6236 25.3682 26.7628 25.26 26.8556 25.1208C26.9484 24.9816 26.9948 24.8207 26.9948 24.6382ZM30.4283 21.3578V26.3782H29.3055V21.3578H30.4283ZM29.2312 20.0401C29.2312 19.8699 29.2869 19.7292 29.3983 19.6178C29.5127 19.5034 29.6705 19.4461 29.8715 19.4461C30.0695 19.4461 30.2257 19.5034 30.3402 19.6178C30.4546 19.7292 30.5118 19.8699 30.5118 20.0401C30.5118 20.2071 30.4546 20.3463 30.3402 20.4576C30.2257 20.569 30.0695 20.6247 29.8715 20.6247C29.6705 20.6247 29.5127 20.569 29.3983 20.4576C29.2869 20.3463 29.2312 20.2071 29.2312 20.0401ZM35.0172 21.3578H36.0333V26.239C36.0333 26.6906 35.9374 27.0742 35.7457 27.3897C35.5539 27.7052 35.2863 27.9449 34.943 28.1089C34.5996 28.2759 34.2021 28.3594 33.7505 28.3594C33.5587 28.3594 33.3453 28.3316 33.1102 28.2759C32.8782 28.2202 32.6524 28.1305 32.4328 28.0068C32.2162 27.8861 32.0353 27.7268 31.8899 27.5289L32.4142 26.87C32.5936 27.0834 32.7916 27.2397 33.0081 27.3386C33.2246 27.4376 33.452 27.4871 33.6902 27.4871C33.9469 27.4871 34.165 27.4392 34.3444 27.3433C34.5269 27.2505 34.6677 27.1128 34.7666 26.9303C34.8656 26.7478 34.9151 26.5251 34.9151 26.2622V22.4946L35.0172 21.3578ZM31.6069 23.9237V23.8262C31.6069 23.4458 31.6533 23.0993 31.7461 22.7869C31.8389 22.4714 31.9719 22.2007 32.1451 21.9749C32.3183 21.746 32.5287 21.5712 32.7761 21.4506C33.0236 21.3269 33.3035 21.265 33.6159 21.265C33.9407 21.265 34.2176 21.3238 34.4465 21.4413C34.6785 21.5589 34.8718 21.7274 35.0265 21.9471C35.1811 22.1636 35.3018 22.4234 35.3884 22.7266C35.4781 23.0266 35.5446 23.3607 35.5879 23.7288V24.0397C35.5477 24.3985 35.4796 24.7264 35.3837 25.0233C35.2879 25.3203 35.161 25.577 35.0033 25.7935C34.8455 26.0101 34.6506 26.1771 34.4186 26.2947C34.1897 26.4122 33.9191 26.471 33.6067 26.471C33.3004 26.471 33.0236 26.4076 32.7761 26.2807C32.5317 26.1539 32.3214 25.976 32.1451 25.7471C31.9719 25.5182 31.8389 25.2491 31.7461 24.9398C31.6533 24.6274 31.6069 24.2887 31.6069 23.9237ZM32.7251 23.8262V23.9237C32.7251 24.1526 32.7467 24.366 32.79 24.564C32.8364 24.7619 32.906 24.9367 32.9988 25.0883C33.0947 25.2368 33.2154 25.3543 33.3607 25.4409C33.5092 25.5244 33.684 25.5662 33.8851 25.5662C34.148 25.5662 34.363 25.5105 34.53 25.3992C34.7001 25.2878 34.83 25.1378 34.9198 24.9491C35.0126 24.7573 35.0775 24.5439 35.1146 24.3088V23.4689C35.0961 23.2864 35.0574 23.1163 34.9986 22.9586C34.943 22.8008 34.8672 22.6632 34.7713 22.5456C34.6754 22.425 34.5547 22.3322 34.4094 22.2672C34.264 22.1992 34.0923 22.1651 33.8943 22.1651C33.6933 22.1651 33.5185 22.2084 33.37 22.2951C33.2215 22.3817 33.0994 22.5008 33.0035 22.6523C32.9107 22.8039 32.8411 22.9802 32.7947 23.1813C32.7483 23.3823 32.7251 23.5973 32.7251 23.8262ZM38.4507 22.4296V26.3782H37.3325V21.3578H38.3858L38.4507 22.4296ZM38.2512 23.6824L37.8893 23.6777C37.8924 23.322 37.9419 22.9957 38.0378 22.6987C38.1368 22.4018 38.2729 22.1466 38.4461 21.9331C38.6224 21.7197 38.8327 21.5558 39.0771 21.4413C39.3215 21.3238 39.5937 21.265 39.8937 21.265C40.135 21.265 40.3531 21.299 40.548 21.3671C40.7459 21.432 40.9145 21.5387 41.0537 21.6872C41.196 21.8357 41.3043 22.029 41.3785 22.2672C41.4527 22.5023 41.4899 22.7915 41.4899 23.1349V26.3782H40.367V23.1302C40.367 22.889 40.3314 22.6987 40.2603 22.5595C40.1922 22.4172 40.0917 22.3167 39.9587 22.2579C39.8288 22.1961 39.6664 22.1651 39.4715 22.1651C39.2797 22.1651 39.108 22.2053 38.9565 22.2858C38.8049 22.3662 38.6765 22.476 38.5714 22.6152C38.4693 22.7544 38.3904 22.9153 38.3347 23.0978C38.279 23.2803 38.2512 23.4751 38.2512 23.6824ZM45.6101 25.3713V22.9771C45.6101 22.7977 45.5776 22.643 45.5127 22.5131C45.4477 22.3832 45.3487 22.2827 45.2157 22.2115C45.0858 22.1404 44.9219 22.1048 44.7239 22.1048C44.5414 22.1048 44.3836 22.1357 44.2506 22.1976C44.1176 22.2595 44.014 22.343 43.9397 22.4482C43.8655 22.5533 43.8284 22.6724 43.8284 22.8054H42.7148C42.7148 22.6075 42.7627 22.4157 42.8586 22.2301C42.9545 22.0445 43.0937 21.879 43.2762 21.7336C43.4587 21.5882 43.6768 21.4738 43.9305 21.3903C44.1841 21.3068 44.4687 21.265 44.7842 21.265C45.1616 21.265 45.4957 21.3284 45.7864 21.4552C46.0803 21.5821 46.3107 21.7738 46.4778 22.0306C46.6479 22.2842 46.733 22.6028 46.733 22.9864V25.2182C46.733 25.4471 46.7484 25.6528 46.7794 25.8353C46.8134 26.0147 46.8613 26.1709 46.9232 26.3039V26.3782H45.7771C45.7246 26.2575 45.6828 26.1044 45.6519 25.9188C45.624 25.7301 45.6101 25.5476 45.6101 25.3713ZM45.7725 23.3251L45.7818 24.0165H44.9791C44.7718 24.0165 44.5893 24.0366 44.4316 24.0768C44.2738 24.1139 44.1423 24.1696 44.0372 24.2438C43.932 24.3181 43.8531 24.4078 43.8005 24.5129C43.748 24.6181 43.7217 24.7372 43.7217 24.8702C43.7217 25.0032 43.7526 25.1254 43.8145 25.2368C43.8763 25.345 43.966 25.4301 44.0836 25.492C44.2042 25.5538 44.3496 25.5847 44.5197 25.5847C44.7486 25.5847 44.9481 25.5383 45.1183 25.4456C45.2915 25.3497 45.4276 25.2337 45.5266 25.0976C45.6256 24.9584 45.6782 24.8269 45.6843 24.7032L46.0463 25.1996C46.0091 25.3265 45.9457 25.4626 45.856 25.6079C45.7663 25.7533 45.6488 25.8925 45.5034 26.0255C45.3611 26.1555 45.1894 26.2622 44.9884 26.3457C44.7904 26.4292 44.5615 26.471 44.3017 26.471C43.9738 26.471 43.6815 26.406 43.4247 26.2761C43.168 26.1431 42.9669 25.9652 42.8215 25.7425C42.6761 25.5167 42.6034 25.2615 42.6034 24.9769C42.6034 24.7109 42.6529 24.4758 42.7519 24.2717C42.854 24.0644 43.0025 23.8912 43.1974 23.752C43.3953 23.6128 43.6366 23.5076 43.9212 23.4365C44.2058 23.3622 44.5306 23.3251 44.8956 23.3251H45.7725ZM49.2478 19.2513V26.3782H48.1249V19.2513H49.2478ZM55.9525 25.0187C55.9525 24.9073 55.9246 24.8068 55.869 24.7171C55.8133 24.6243 55.7066 24.5408 55.5488 24.4665C55.3941 24.3923 55.1652 24.3242 54.8621 24.2624C54.5961 24.2036 54.3517 24.134 54.129 24.0536C53.9094 23.9701 53.7207 23.8695 53.5629 23.752C53.4052 23.6344 53.283 23.4952 53.1964 23.3344C53.1097 23.1735 53.0664 22.9879 53.0664 22.7776C53.0664 22.5734 53.1113 22.3801 53.201 22.1976C53.2907 22.0151 53.4191 21.8543 53.5861 21.7151C53.7532 21.5759 53.9558 21.4661 54.1939 21.3856C54.4352 21.3052 54.7043 21.265 55.0013 21.265C55.422 21.265 55.7823 21.3361 56.0824 21.4784C56.3855 21.6176 56.6175 21.8079 56.7784 22.0491C56.9392 22.2873 57.0196 22.5564 57.0196 22.8565H55.9014C55.9014 22.7235 55.8674 22.5997 55.7994 22.4853C55.7344 22.3677 55.6354 22.2734 55.5024 22.2023C55.3694 22.128 55.2023 22.0909 55.0013 22.0909C54.8095 22.0909 54.6502 22.1218 54.5234 22.1837C54.3996 22.2425 54.3068 22.3198 54.245 22.4157C54.1862 22.5116 54.1568 22.6168 54.1568 22.7312C54.1568 22.8147 54.1723 22.8905 54.2032 22.9586C54.2372 23.0235 54.2929 23.0838 54.3703 23.1395C54.4476 23.1921 54.5528 23.2416 54.6858 23.288C54.8219 23.3344 54.992 23.3792 55.1962 23.4226C55.5797 23.503 55.9092 23.6066 56.1845 23.7334C56.4629 23.8572 56.6763 24.018 56.8248 24.216C56.9732 24.4109 57.0475 24.6583 57.0475 24.9584C57.0475 25.1811 56.9995 25.3852 56.9037 25.5708C56.8109 25.7533 56.6747 25.9126 56.4953 26.0487C56.3159 26.1818 56.1009 26.2854 55.8504 26.3596C55.6029 26.4339 55.3245 26.471 55.0152 26.471C54.5605 26.471 54.1754 26.3905 53.8599 26.2297C53.5444 26.0658 53.3046 25.857 53.1407 25.6033C52.9798 25.3466 52.8994 25.0805 52.8994 24.8052H53.9805C53.9929 25.0125 54.0501 25.178 54.1522 25.3017C54.2574 25.4224 54.3873 25.5105 54.5419 25.5662C54.6997 25.6188 54.8621 25.6451 55.0291 25.6451C55.2302 25.6451 55.3988 25.6188 55.5349 25.5662C55.671 25.5105 55.7746 25.4363 55.8458 25.3435C55.9169 25.2476 55.9525 25.1393 55.9525 25.0187ZM60.4764 21.3578V22.1744H57.646V21.3578H60.4764ZM58.4627 20.1282H59.5809V24.9908C59.5809 25.1455 59.6025 25.2646 59.6458 25.3481C59.6922 25.4285 59.7556 25.4827 59.8361 25.5105C59.9165 25.5383 60.0108 25.5523 60.1191 25.5523C60.1964 25.5523 60.2707 25.5476 60.3418 25.5383C60.413 25.5291 60.4702 25.5198 60.5135 25.5105L60.5181 26.3643C60.4253 26.3921 60.3171 26.4168 60.1933 26.4385C60.0727 26.4601 59.9335 26.471 59.7758 26.471C59.519 26.471 59.2917 26.4261 59.0937 26.3364C58.8957 26.2436 58.7411 26.0936 58.6297 25.8863C58.5183 25.6791 58.4627 25.4038 58.4627 25.0604V20.1282ZM62.6107 22.3136V26.3782H61.4925V21.3578H62.5597L62.6107 22.3136ZM64.1466 21.3253L64.1373 22.3647C64.0692 22.3523 63.995 22.343 63.9146 22.3368C63.8372 22.3306 63.7599 22.3275 63.6826 22.3275C63.4908 22.3275 63.3222 22.3554 63.1768 22.411C63.0314 22.4636 62.9092 22.541 62.8103 22.643C62.7144 22.742 62.6401 22.8627 62.5875 23.005C62.535 23.1472 62.504 23.3066 62.4947 23.4829L62.2395 23.5014C62.2395 23.1859 62.2705 22.8936 62.3323 22.6245C62.3942 22.3554 62.487 22.1187 62.6107 21.9146C62.7376 21.7104 62.8953 21.5511 63.084 21.4367C63.2758 21.3222 63.497 21.265 63.7475 21.265C63.8156 21.265 63.8883 21.2712 63.9656 21.2836C64.046 21.2959 64.1063 21.3098 64.1466 21.3253ZM67.1161 26.471C66.7449 26.471 66.4093 26.4107 66.1092 26.29C65.8123 26.1663 65.5586 25.9946 65.3483 25.775C65.141 25.5554 64.9817 25.2971 64.8704 25.0001C64.759 24.7032 64.7033 24.383 64.7033 24.0397V23.8541C64.7033 23.4612 64.7606 23.1055 64.875 22.7869C64.9895 22.4683 65.1488 22.1961 65.3529 21.9703C65.5571 21.7414 65.7984 21.5666 66.0768 21.4459C66.3552 21.3253 66.6567 21.265 66.9815 21.265C67.3404 21.265 67.6543 21.3253 67.9234 21.4459C68.1926 21.5666 68.4153 21.7367 68.5916 21.9563C68.771 22.1729 68.904 22.4312 68.9906 22.7312C69.0803 23.0313 69.1252 23.3622 69.1252 23.7241V24.2021H65.2462V23.3994H68.0209V23.3112C68.0147 23.1101 67.9745 22.9214 67.9002 22.7451C67.8291 22.5688 67.7193 22.4265 67.5708 22.3183C67.4223 22.21 67.2244 22.1559 66.9769 22.1559C66.7913 22.1559 66.6258 22.1961 66.4804 22.2765C66.3381 22.3538 66.219 22.4667 66.1232 22.6152C66.0273 22.7637 65.953 22.9431 65.9004 23.1534C65.8509 23.3607 65.8262 23.5942 65.8262 23.8541V24.0397C65.8262 24.2593 65.8556 24.4634 65.9144 24.6521C65.9762 24.8377 66.0659 25.0001 66.1835 25.1393C66.301 25.2785 66.4433 25.3883 66.6103 25.4688C66.7774 25.5461 66.9676 25.5847 67.1811 25.5847C67.4502 25.5847 67.6899 25.5306 67.9002 25.4224C68.1106 25.3141 68.2931 25.161 68.4478 24.963L69.037 25.5337C68.9288 25.6915 68.788 25.843 68.6148 25.9884C68.4416 26.1307 68.2297 26.2467 67.9791 26.3364C67.7317 26.4261 67.444 26.471 67.1161 26.471ZM71.2549 22.4296V26.3782H70.1367V21.3578H71.1899L71.2549 22.4296ZM71.0554 23.6824L70.6935 23.6777C70.6966 23.322 70.7461 22.9957 70.8419 22.6987C70.9409 22.4018 71.077 22.1466 71.2503 21.9331C71.4266 21.7197 71.6369 21.5558 71.8813 21.4413C72.1257 21.3238 72.3979 21.265 72.6979 21.265C72.9392 21.265 73.1573 21.299 73.3521 21.3671C73.5501 21.432 73.7187 21.5387 73.8579 21.6872C74.0002 21.8357 74.1084 22.029 74.1827 22.2672C74.2569 22.5023 74.294 22.7915 74.294 23.1349V26.3782H73.1712V23.1302C73.1712 22.889 73.1356 22.6987 73.0645 22.5595C72.9964 22.4172 72.8959 22.3167 72.7629 22.2579C72.633 22.1961 72.4706 22.1651 72.2757 22.1651C72.0839 22.1651 71.9122 22.2053 71.7606 22.2858C71.6091 22.3662 71.4807 22.476 71.3755 22.6152C71.2735 22.7544 71.1946 22.9153 71.1389 23.0978C71.0832 23.2803 71.0554 23.4751 71.0554 23.6824ZM78.7994 21.3578H79.8155V26.239C79.8155 26.6906 79.7196 27.0742 79.5279 27.3897C79.3361 27.7052 79.0685 27.9449 78.7252 28.1089C78.3818 28.2759 77.9843 28.3594 77.5327 28.3594C77.3409 28.3594 77.1275 28.3316 76.8924 28.2759C76.6604 28.2202 76.4346 28.1305 76.215 28.0068C75.9984 27.8861 75.8175 27.7268 75.6721 27.5289L76.1964 26.87C76.3758 27.0834 76.5738 27.2397 76.7903 27.3386C77.0068 27.4376 77.2342 27.4871 77.4724 27.4871C77.7291 27.4871 77.9472 27.4392 78.1266 27.3433C78.3091 27.2505 78.4499 27.1128 78.5488 26.9303C78.6478 26.7478 78.6973 26.5251 78.6973 26.2622V22.4946L78.7994 21.3578ZM75.3891 23.9237V23.8262C75.3891 23.4458 75.4355 23.0993 75.5283 22.7869C75.6211 22.4714 75.7541 22.2007 75.9273 21.9749C76.1005 21.746 76.3109 21.5712 76.5583 21.4506C76.8058 21.3269 77.0857 21.265 77.3981 21.265C77.7229 21.265 77.9998 21.3238 78.2287 21.4413C78.4607 21.5589 78.654 21.7274 78.8087 21.9471C78.9633 22.1636 79.084 22.4234 79.1706 22.7266C79.2603 23.0266 79.3268 23.3607 79.3701 23.7288V24.0397C79.3299 24.3985 79.2618 24.7264 79.1659 25.0233C79.0701 25.3203 78.9432 25.577 78.7855 25.7935C78.6277 26.0101 78.4328 26.1771 78.2008 26.2947C77.9719 26.4122 77.7013 26.471 77.3889 26.471C77.0826 26.471 76.8058 26.4076 76.5583 26.2807C76.3139 26.1539 76.1036 25.976 75.9273 25.7471C75.7541 25.5182 75.6211 25.2491 75.5283 24.9398C75.4355 24.6274 75.3891 24.2887 75.3891 23.9237ZM76.5073 23.8262V23.9237C76.5073 24.1526 76.5289 24.366 76.5722 24.564C76.6186 24.7619 76.6882 24.9367 76.781 25.0883C76.8769 25.2368 76.9976 25.3543 77.1429 25.4409C77.2914 25.5244 77.4662 25.5662 77.6673 25.5662C77.9302 25.5662 78.1452 25.5105 78.3122 25.3992C78.4823 25.2878 78.6122 25.1378 78.702 24.9491C78.7948 24.7573 78.8597 24.5439 78.8968 24.3088V23.4689C78.8783 23.2864 78.8396 23.1163 78.7808 22.9586C78.7252 22.8008 78.6494 22.6632 78.5535 22.5456C78.4576 22.425 78.3369 22.3322 78.1916 22.2672C78.0462 22.1992 77.8745 22.1651 77.6765 22.1651C77.4755 22.1651 77.3007 22.2084 77.1522 22.2951C77.0037 22.3817 76.8816 22.5008 76.7857 22.6523C76.6929 22.8039 76.6233 22.9802 76.5769 23.1813C76.5305 23.3823 76.5073 23.5973 76.5073 23.8262ZM83.4254 21.3578V22.1744H80.595V21.3578H83.4254ZM81.4117 20.1282H82.5299V24.9908C82.5299 25.1455 82.5515 25.2646 82.5948 25.3481C82.6412 25.4285 82.7046 25.4827 82.7851 25.5105C82.8655 25.5383 82.9598 25.5523 83.0681 25.5523C83.1454 25.5523 83.2197 25.5476 83.2908 25.5383C83.362 25.5291 83.4192 25.5198 83.4625 25.5105L83.4671 26.3643C83.3743 26.3921 83.2661 26.4168 83.1423 26.4385C83.0217 26.4601 82.8825 26.471 82.7248 26.471C82.468 26.471 82.2407 26.4261 82.0427 26.3364C81.8447 26.2436 81.6901 26.0936 81.5787 25.8863C81.4673 25.6791 81.4117 25.4038 81.4117 25.0604V20.1282ZM85.5412 19.2513V26.3782H84.4276V19.2513H85.5412ZM85.3463 23.6824L84.9844 23.6777C84.9875 23.3313 85.0354 23.0111 85.1282 22.7173C85.2241 22.4234 85.3571 22.1682 85.5273 21.9517C85.7005 21.7321 85.9077 21.5635 86.149 21.4459C86.3903 21.3253 86.6579 21.265 86.9517 21.265C87.1992 21.265 87.4219 21.299 87.6199 21.3671C87.8209 21.4351 87.9941 21.5449 88.1395 21.6965C88.2849 21.845 88.3947 22.0399 88.469 22.2811C88.5463 22.5193 88.585 22.8101 88.585 23.1534V26.3782H87.4621V23.1442C87.4621 22.9029 87.4265 22.7111 87.3554 22.5688C87.2873 22.4265 87.1868 22.3244 87.0538 22.2626C86.9208 22.1976 86.7584 22.1651 86.5666 22.1651C86.3655 22.1651 86.1877 22.2053 86.033 22.2858C85.8814 22.3662 85.7546 22.476 85.6525 22.6152C85.5505 22.7544 85.4731 22.9153 85.4205 23.0978C85.3711 23.2803 85.3463 23.4751 85.3463 23.6824Z" fill="black" fill-opacity="0.87"/>
<g clip-path="url(#clip0_3195_68028)">
<path d="M82.4271 81.5737C78.1814 77.8836 72.6984 75.8452 67.0178 75.8452C61.3372 75.8452 55.8542 77.8836 51.6085 81.5737C51.2498 81.8772 50.9563 82.2474 50.7451 82.6627C50.5339 83.0781 50.4092 83.5304 50.3782 83.9933C50.3473 84.4561 50.4107 84.9204 50.5648 85.3591C50.7189 85.7978 50.9606 86.2022 51.2759 86.5489C51.5912 86.8955 51.9738 87.1774 52.4015 87.3782C52.8291 87.579 53.2933 87.6948 53.7671 87.7187C54.2409 87.7427 54.7148 87.6743 55.1614 87.5177C55.6079 87.361 56.0182 87.1192 56.3683 86.8062C59.3027 84.2563 63.092 82.8478 67.0178 82.8478C70.9436 82.8478 74.7329 84.2563 77.6673 86.8062C78.3774 87.4234 79.3092 87.7395 80.2576 87.6849C81.206 87.6303 82.0935 87.2096 82.7247 86.5153C83.3559 85.8209 83.6791 84.9099 83.6233 83.9825C83.5675 83.0552 83.1372 82.1875 82.4271 81.5703V81.5737Z" fill="#5CDF90"/>
<path d="M67 61.5915C57.2993 61.5786 47.9587 65.1373 40.8825 71.542C40.5243 71.8518 40.2337 72.2275 40.0278 72.647C39.822 73.0666 39.705 73.5216 39.6837 73.9854C39.6624 74.4492 39.7373 74.9125 39.904 75.348C40.0707 75.7834 40.3257 76.1824 40.6542 76.5215C40.9828 76.8606 41.3781 77.133 41.8171 77.3226C42.2562 77.5123 42.73 77.6155 43.2108 77.6261C43.6917 77.6366 44.1699 77.5545 44.6174 77.3843C45.065 77.2142 45.4728 76.9595 45.817 76.6352C51.5626 71.4505 59.1344 68.5662 67 68.5662C74.8655 68.5662 82.4373 71.4505 88.183 76.6352C88.5272 76.9595 88.935 77.2142 89.3825 77.3843C89.83 77.5545 90.3082 77.6366 90.7891 77.6261C91.27 77.6155 91.7438 77.5123 92.1828 77.3226C92.6218 77.133 93.0172 76.8606 93.3457 76.5215C93.6742 76.1824 93.9293 75.7834 94.096 75.348C94.2626 74.9125 94.3375 74.4492 94.3162 73.9854C94.295 73.5216 94.178 73.0666 93.9721 72.647C93.7663 72.2275 93.4757 71.8518 93.1174 71.542C86.0413 65.1373 76.7007 61.5786 67 61.5915Z" fill="#5CDF90"/>
<path d="M102.613 60.6584C92.8206 52.0791 80.1557 47.3376 67.0319 47.3376C53.9082 47.3376 41.2433 52.0791 31.4508 60.6584C31.0828 60.9671 30.7813 61.3449 30.5641 61.7696C30.3468 62.1943 30.2183 62.6574 30.1859 63.1316C30.1535 63.6058 30.218 64.0815 30.3755 64.5309C30.533 64.9803 30.7804 65.3943 31.1032 65.7484C31.426 66.1026 31.8176 66.3899 32.255 66.5933C32.6924 66.7968 33.1669 66.9123 33.6504 66.9332C34.134 66.9541 34.6169 66.8798 35.0708 66.7148C35.5247 66.5498 35.9405 66.2974 36.2936 65.9724C44.7542 58.5633 55.6946 54.4688 67.0311 54.4688C78.3676 54.4688 89.308 58.5633 97.7685 65.9724C98.4866 66.603 99.4304 66.9276 100.392 66.8749C101.354 66.8222 102.255 66.3965 102.898 65.6913C103.54 64.9862 103.87 64.0594 103.817 63.1149C103.763 62.1704 103.329 61.2856 102.611 60.655L102.613 60.6584Z" fill="#5CDF90"/>
<path d="M67 100.789C69.952 100.789 72.3451 98.3962 72.3451 95.4442C72.3451 92.4921 69.952 90.099 67 90.099C64.0479 90.099 61.6548 92.4921 61.6548 95.4442C61.6548 98.3962 64.0479 100.789 67 100.789Z" fill="#5CDF90"/>
</g>
</g>
<defs>
<filter id="filter0_d_3195_68028" x="0.5" y="0.5" width="133" height="133" filterUnits="userSpaceOnUse" color-interpolation-filters="sRGB">
<feFlood flood-opacity="0" result="BackgroundImageFix"/>
<feColorMatrix in="SourceAlpha" type="matrix" values="0 0 0 0 0 0 0 0 0 0 0 0 0 0 0 0 0 0 127 0" result="hardAlpha"/>
<feOffset dy="4"/>
<feGaussianBlur stdDeviation="4"/>
<feComposite in2="hardAlpha" operator="out"/>
<feColorMatrix type="matrix" values="0 0 0 0 0 0 0 0 0 0 0 0 0 0 0 0 0 0 0.04 0"/>
<feBlend mode="normal" in2="BackgroundImageFix" result="effect1_dropShadow_3195_68028"/>
<feBlend mode="normal" in="SourceGraphic" in2="effect1_dropShadow_3195_68028" result="shape"/>
</filter>
<filter id="filter1_b_3195_68028" x="9.62695" y="5.62695" width="114.746" height="114.746" filterUnits="userSpaceOnUse" color-interpolation-filters="sRGB">
<feFlood flood-opacity="0" result="BackgroundImageFix"/>
<feGaussianBlur in="BackgroundImageFix" stdDeviation="3"/>
<feComposite in2="SourceAlpha" operator="in" result="effect1_backgroundBlur_3195_68028"/>
<feBlend mode="normal" in="SourceGraphic" in2="effect1_backgroundBlur_3195_68028" result="shape"/>
</filter>
<clipPath id="clip0_3195_68028">
<rect width="73.6447" height="53.4518" fill="white" transform="translate(30.1777 47.3376)"/>
</clipPath>
</defs>
</svg>
