<svg width="387" height="148" viewBox="0 0 387 148" fill="none" xmlns="http://www.w3.org/2000/svg">
<g clip-path="url(#clip0_17063_68013)">
<g filter="url(#filter0_dddd_17063_68013)">
<rect x="28" width="77" height="51" rx="5.85799" fill="white"/>
<g clip-path="url(#clip1_17063_68013)">
<path d="M44.1343 31.0677V17.4609H47.4659V28.2088H52.676V31.0677H44.1343Z" fill="#4B8A79"/>
<path d="M69.6183 19.976V23.6491H72.6664C73.8537 23.6491 74.4562 23.0339 74.4562 21.8216C74.4562 20.5912 73.8714 19.9941 72.6664 19.9941H69.6183V19.976ZM66.2866 31.0677V17.4609H72.9499C76.1752 17.4609 77.7879 18.9447 77.7879 21.9302C77.7879 22.8168 77.5398 23.5767 77.0436 24.2281C76.5474 24.8795 75.8739 25.35 75.041 25.6033L78.0891 31.0677H74.3676L71.7448 26.1642H69.6183V31.0677H66.2866Z" fill="#4B8A79"/>
<path d="M85.3189 26.8347V26.129L83.3518 26.708C82.4126 26.9794 81.9518 27.4137 81.9518 28.0289C81.9518 28.7888 82.4126 29.1688 83.3164 29.1688C83.9189 29.1688 84.3974 28.9698 84.7696 28.5717C85.124 28.1555 85.3189 27.5765 85.3189 26.8347ZM88.1189 23.5777V28.9517C88.1189 29.9107 88.2075 30.6163 88.3847 31.0687H85.6911C85.5847 30.743 85.5316 30.3992 85.5139 30.0192H85.4784C85.248 30.3992 84.805 30.7249 84.1848 30.9782C83.6177 31.2134 83.0506 31.3401 82.4835 31.3401C81.4911 31.3401 80.7113 31.0868 80.1088 30.562C79.4708 30.0192 79.1519 29.2593 79.1519 28.3184C79.1519 27.1604 79.6126 26.2737 80.5164 25.6766C81.2962 25.17 82.5367 24.79 84.2556 24.5548L85.3189 24.4101V23.5596C85.3189 22.8359 84.8582 22.474 83.9367 22.474C83.4582 22.474 83.1037 22.5826 82.8734 22.7816C82.643 22.9806 82.4835 23.3425 82.4126 23.831H79.5772C79.6303 21.6959 81.0126 20.6465 83.6886 20.6465C85.1417 20.6465 86.2227 20.8455 86.9316 21.2617C87.729 21.714 88.1189 22.4921 88.1189 23.5777Z" fill="#4B8A79"/>
<path d="M59.0204 22.9068C58.2229 22.9068 57.6204 23.1963 57.2128 23.7934C56.8407 24.3362 56.6457 25.06 56.6457 25.9828C56.6457 26.9056 56.8407 27.6294 57.2128 28.1722C57.6204 28.7693 58.2229 29.0588 59.0204 29.0588C60.6153 29.0588 61.3951 27.9912 61.3951 25.8561C61.3951 24.9876 61.2001 24.282 60.828 23.7572C60.4204 23.1963 59.8179 22.9068 59.0204 22.9068ZM59.0204 20.627C60.6153 20.627 61.8913 21.0974 62.866 22.0383C63.8406 22.9792 64.3191 24.3001 64.3191 25.9828C64.3191 27.6656 63.8406 28.9864 62.866 29.9273C61.8913 30.8682 60.6153 31.3387 59.0204 31.3387C57.4255 31.3387 56.1495 30.8682 55.1748 29.9273C54.2002 28.9864 53.7217 27.6656 53.7217 25.9828C53.7217 24.3001 54.2002 22.9792 55.1748 22.0383C56.1672 21.0974 57.4432 20.627 59.0204 20.627Z" fill="#4B8A79"/>
<path d="M58.9313 18.6012C60.3844 18.6012 61.749 19.0354 62.8832 19.7954L63.4502 18.963C62.1388 18.0945 60.5971 17.5879 58.9313 17.5879C57.3363 17.5879 55.8477 18.0583 54.5718 18.8545L55.1389 19.6868C56.2553 18.9811 57.549 18.6012 58.9313 18.6012Z" fill="#4B8A79"/>
<path d="M52.7998 16.2479L53.5618 17.3517C55.1213 16.3384 56.9644 15.7594 58.9314 15.7594C60.9871 15.7594 62.8833 16.3927 64.4783 17.4602L65.2403 16.3565C63.4327 15.1261 61.2529 14.4023 58.9314 14.4023C56.6808 14.4023 54.572 15.0899 52.7998 16.2479Z" fill="#4B8A79"/>
<path d="M58.9316 12.8649C61.5898 12.8649 64.0531 13.6791 66.1265 15.0905L67.0834 13.6972C64.7619 12.0869 61.9442 11.1641 58.9316 11.1641C56.0075 11.1641 53.2607 12.0507 50.9746 13.5706L51.9316 14.9638C53.9518 13.643 56.3442 12.8649 58.9316 12.8649Z" fill="#4B8A79"/>
<path d="M59.1269 33.4012C57.6737 33.4012 56.3092 32.967 55.175 32.207L54.6079 33.0394C55.9193 33.9079 57.4611 34.4145 59.1446 34.4145C60.7395 34.4145 62.2281 33.9441 63.5041 33.1479L62.937 32.3156C61.8028 33.0213 60.5092 33.4012 59.1269 33.4012Z" fill="#4B8A79"/>
<path d="M65.2579 35.7533L64.4958 34.6496C62.9363 35.6628 61.0933 36.2419 59.1262 36.2419C57.0705 36.2419 55.1743 35.6086 53.5794 34.541L52.8174 35.6448C54.625 36.8752 56.787 37.5989 59.1262 37.5989C61.3769 37.5989 63.4857 36.9113 65.2579 35.7533Z" fill="#4B8A79"/>
<path d="M59.1265 39.1377C56.4683 39.1377 54.005 38.3234 51.9316 36.9121L50.9746 38.3054C53.2961 39.8976 56.1138 40.8385 59.1265 40.8385C62.0505 40.8385 64.7974 39.9519 67.0834 38.432L66.1265 37.0388C64.1062 38.3596 61.6961 39.1377 59.1265 39.1377Z" fill="#4B8A79"/>
</g>
<rect x="28" y="120" width="77.1302" height="40" rx="5.85799" fill="url(#paint0_linear_17063_68013)"/>
<rect x="28" y="60" width="59" height="50" rx="5.85799" fill="white"/>
<path d="M41.7041 81.0303L44.5996 83.9258C51.7948 76.7305 63.4636 76.7305 70.6589 83.9258L73.5543 81.0303C64.7666 72.2425 50.5063 72.2425 41.7041 81.0303ZM53.286 92.6122L57.6292 96.9554L61.9724 92.6122C59.5837 90.2089 55.6892 90.2089 53.286 92.6122ZM47.4951 86.8212L50.3905 89.7167C54.3863 85.7209 60.8721 85.7209 64.8679 89.7167L67.7634 86.8212C62.1751 81.233 53.0978 81.233 47.4951 86.8212Z" fill="#4B8A79"/>
<rect x="115" width="64" height="51" rx="5.85799" fill="white"/>
<path d="M165.655 27.4551H162.473V25.0732H165.655C166.088 25.0732 166.44 25 166.709 24.8535C166.979 24.707 167.175 24.5049 167.298 24.2471C167.427 23.9834 167.492 23.6875 167.492 23.3594C167.492 23.0078 167.427 22.6826 167.298 22.3838C167.175 22.085 166.979 21.8447 166.709 21.6631C166.44 21.4756 166.088 21.3818 165.655 21.3818H163.633V31.7969H160.548V19H165.655C166.68 19 167.562 19.1875 168.3 19.5625C169.044 19.9375 169.616 20.4531 170.014 21.1094C170.413 21.7598 170.612 22.5039 170.612 23.3418C170.612 24.168 170.413 24.8887 170.014 25.5039C169.616 26.1191 169.044 26.5996 168.3 26.9453C167.562 27.2852 166.68 27.4551 165.655 27.4551Z" fill="#4B8A79"/>
<path d="M155.239 19V31.7969H152.154V19H155.239ZM159.088 19V21.3818H148.392V19H159.088Z" fill="#4B8A79"/>
<path d="M143.593 19V31.7969H140.508V19H143.593ZM147.442 19V21.3818H136.746V19H147.442Z" fill="#4B8A79"/>
<path d="M133.476 24.0801V26.4531H126.911V24.0801H133.476ZM127.939 19V31.7969H124.854V19H127.939ZM135.55 19V31.7969H132.474V19H135.55Z" fill="#4B8A79"/>
<rect x="114.894" y="120" width="64.4379" height="40" rx="5.85799" fill="url(#paint1_linear_17063_68013)"/>
<rect x="189" width="102" height="51" rx="5.85799" fill="white"/>
<path d="M230.034 27.1094C230.159 27.3778 230.276 27.6534 230.387 27.9363C230.494 27.6509 230.614 27.3702 230.746 27.0949C230.871 26.8266 231.003 26.5582 231.135 26.3044L234.831 19.095C234.897 18.9717 234.963 18.8774 235.036 18.8049C235.102 18.7396 235.183 18.6888 235.271 18.6526C235.359 18.6163 235.454 18.6018 235.564 18.6018H238.498V32.861H235.549V24.6507C235.549 24.2518 235.571 23.8239 235.608 23.3597L231.787 30.6924C231.67 30.9244 231.509 31.0913 231.311 31.2146C231.113 31.3306 230.878 31.3886 230.621 31.3886H230.166C229.91 31.3886 229.682 31.3306 229.477 31.2146C229.279 31.0985 229.118 30.9244 229 30.6924L225.15 23.3524C225.18 23.5845 225.194 23.8094 225.209 24.0342C225.224 24.2591 225.231 24.4694 225.231 24.658V32.861H222.283V18.6018H225.216C225.326 18.6018 225.422 18.6163 225.51 18.6526C225.598 18.6888 225.671 18.7324 225.744 18.8049C225.81 18.8702 225.884 18.9717 225.95 19.095L229.66 26.3406C229.785 26.5872 229.917 26.8411 230.034 27.1094ZM254.317 25.7241C254.317 26.3406 254.251 26.9281 254.126 27.4938C253.994 28.0596 253.81 28.589 253.568 29.0822C253.326 29.5754 253.033 30.0396 252.674 30.4603C252.322 30.8882 251.918 31.2581 251.471 31.5845L255.123 35.53H252.373C251.977 35.53 251.618 35.4793 251.295 35.385C250.972 35.2907 250.686 35.1021 250.437 34.812L248.648 32.8247C248.354 32.8827 248.061 32.9262 247.76 32.9625C247.459 32.9915 247.151 33.0133 246.836 33.0133C245.714 33.0133 244.687 32.8247 243.763 32.4548C242.839 32.0849 242.047 31.57 241.394 30.9099C240.734 30.2572 240.228 29.4811 239.869 28.5963C239.51 27.7114 239.326 26.7468 239.326 25.7169C239.326 24.687 239.51 23.7296 239.869 22.8375C240.228 21.9526 240.734 21.1766 241.394 20.5238C242.054 19.8711 242.839 19.3561 243.763 18.9862C244.687 18.6163 245.707 18.4277 246.836 18.4277C247.958 18.4277 248.978 18.6163 249.902 18.9935C250.826 19.3706 251.61 19.8856 252.263 20.5383C252.916 21.1911 253.422 21.9599 253.781 22.852C254.141 23.7368 254.317 24.6942 254.317 25.7241ZM250.892 25.7241C250.892 25.0206 250.796 24.3823 250.613 23.8166C250.43 23.2509 250.166 22.7722 249.814 22.3806C249.469 21.9889 249.044 21.6915 248.545 21.4812C248.046 21.2709 247.474 21.1693 246.829 21.1693C246.183 21.1693 245.604 21.2709 245.098 21.4812C244.592 21.6915 244.167 21.9889 243.822 22.3806C243.477 22.7722 243.213 23.2509 243.023 23.8166C242.839 24.3823 242.744 25.0134 242.744 25.7241C242.744 26.4349 242.839 27.0732 243.023 27.6389C243.206 28.2046 243.47 28.6833 243.822 29.075C244.167 29.4666 244.592 29.764 245.098 29.9743C245.604 30.1774 246.176 30.2862 246.829 30.2862C247.467 30.2862 248.039 30.1847 248.545 29.9743C249.044 29.7712 249.469 29.4666 249.814 29.075C250.158 28.6833 250.422 28.2046 250.613 27.6389C250.804 27.0732 250.892 26.4349 250.892 25.7241ZM265.06 18.5946V21.2201H261.152V32.861H257.807V21.2201H253.898V18.5946H265.06ZM277.865 18.5946V21.2201H273.81V32.861H270.465V21.2201H266.557V18.5946H277.865Z" fill="#4B8A79"/>
<path d="M204.368 26.4816H204.325V32.2049C204.325 32.6179 204.655 32.9571 205.056 32.9571H210.78C210.73 29.3801 207.879 26.4816 204.368 26.4816ZM204.368 21.7614H204.325V24.1953C209.047 24.2174 212.887 28.1263 212.937 32.9571H215.387C215.344 26.7766 210.422 21.7614 204.368 21.7614ZM218.862 32.2122V27.0421C217.2 22.853 213.854 19.5414 209.691 18H205.056C204.655 18 204.325 18.3393 204.325 18.7523V19.4824C211.59 19.5046 217.501 25.5302 217.544 32.9645H218.131C218.54 32.9571 218.862 32.6252 218.862 32.2122ZM216.949 20.0872C217.623 20.7805 218.31 21.6582 218.862 22.4326V18.7449C218.862 18.647 218.844 18.55 218.808 18.4595C218.771 18.369 218.718 18.2868 218.651 18.2175C218.584 18.1483 218.504 18.0934 218.416 18.0561C218.328 18.0188 218.234 17.9997 218.139 18H214.449C215.309 18.6122 216.197 19.3128 216.949 20.0872Z" fill="#4B8A79"/>
<rect x="189.095" y="120" width="101.538" height="40" rx="5.85799" fill="url(#paint2_linear_17063_68013)"/>
<path d="M257 65.858C257 62.6227 259.623 60 262.858 60H352.142C355.377 60 358 62.6227 358 65.858V104.142C358 107.377 355.377 110 352.142 110H262.858C259.623 110 257 107.377 257 104.142V65.858Z" fill="white"/>
<path d="M292.432 86.0178L294.876 86.7841C294.501 88.1317 293.877 89.134 293.002 89.7909C292.134 90.4421 291.029 90.7678 289.689 90.7678C288.031 90.7678 286.669 90.2091 285.601 89.0917C284.534 87.9688 284 86.436 284 84.4934C284 82.4385 284.537 80.8439 285.61 79.7097C286.683 78.5699 288.094 78 289.843 78C291.37 78 292.611 78.4465 293.565 79.3392C294.132 79.867 294.558 80.625 294.842 81.6131L292.347 82.2027C292.199 81.5626 291.89 81.0572 291.418 80.6868C290.953 80.3161 290.385 80.1309 289.715 80.1309C288.789 80.1309 288.037 80.4593 287.458 81.1162C286.884 81.7731 286.598 82.837 286.598 84.3082C286.598 85.869 286.882 86.9807 287.449 87.6433C288.017 88.3057 288.755 88.6371 289.664 88.6371C290.334 88.6371 290.91 88.4265 291.393 88.0054C291.875 87.5843 292.222 86.9217 292.432 86.0178ZM296.789 85.9589C296.789 85.1728 296.985 84.4121 297.376 83.6765C297.768 82.9409 298.322 82.3795 299.037 81.992C299.758 81.6047 300.562 81.411 301.448 81.411C302.816 81.411 303.937 81.8517 304.812 82.7333C305.686 83.6092 306.123 84.718 306.123 86.0599C306.123 87.4129 305.681 88.536 304.795 89.4286C303.915 90.3158 302.805 90.7593 301.465 90.7593C300.636 90.7593 299.844 90.574 299.088 90.2034C298.339 89.833 297.768 89.2911 297.376 88.5781C296.985 87.8594 296.789 86.9864 296.789 85.9589ZM299.242 86.0851C299.242 86.9724 299.455 87.6516 299.88 88.1233C300.306 88.5948 300.832 88.8306 301.456 88.8306C302.081 88.8306 302.603 88.5948 303.023 88.1233C303.449 87.6516 303.662 86.9667 303.662 86.0682C303.662 85.1924 303.449 84.5186 303.023 84.0471C302.603 83.5754 302.081 83.3396 301.456 83.3396C300.832 83.3396 300.306 83.5754 299.88 84.0471C299.455 84.5186 299.242 85.1981 299.242 86.0851ZM319.593 90.5572H316.851L315.761 87.7527H310.77L309.739 90.5572H307.065L311.928 78.2106H314.594L319.593 90.5572ZM314.952 85.6724L313.231 81.0909L311.545 85.6724H314.952ZM321.251 90.5572V78.2106H325.296C326.829 78.2106 327.829 78.2724 328.294 78.3958C329.01 78.5813 329.609 78.9854 330.091 79.6086C330.574 80.2263 330.815 81.0263 330.815 82.0089C330.815 82.7669 330.676 83.4042 330.398 83.9207C330.12 84.4373 329.765 84.8443 329.333 85.1419C328.907 85.4339 328.473 85.6277 328.03 85.723C327.428 85.8409 326.557 85.8999 325.415 85.8999H323.772V90.5572H321.251ZM323.772 80.2993V83.8027H325.151C326.145 83.8027 326.809 83.7383 327.144 83.6092C327.479 83.4801 327.741 83.2778 327.928 83.0027C328.121 82.7276 328.217 82.4076 328.217 82.0427C328.217 81.5935 328.084 81.2229 327.817 80.9309C327.55 80.639 327.212 80.4564 326.804 80.3834C326.503 80.3273 325.898 80.2993 324.99 80.2993H323.772Z" fill="#4B8A79"/>
<path d="M96 65.858C96 62.6227 98.6227 60 101.858 60H173.142C176.377 60 179 62.6227 179 65.858V104.142C179 107.377 176.377 110 173.142 110H101.858C98.6227 110 96 107.377 96 104.142V65.858Z" fill="white"/>
<path d="M127.044 79H130.154V87.2264C130.154 88.2067 129.945 89.0371 129.525 89.7177C129.106 90.3924 128.518 90.9027 127.762 91.2488C127.006 91.5947 126.117 91.7678 125.095 91.7678C124.085 91.7678 123.196 91.5947 122.428 91.2488C121.666 90.9027 121.069 90.3924 120.638 89.7177C120.213 89.0371 120 88.2067 120 87.2264V79H123.119V87.2264C123.119 87.7454 123.196 88.1692 123.349 88.4979C123.503 88.8208 123.727 89.0573 124.023 89.2073C124.318 89.3572 124.675 89.4322 125.095 89.4322C125.52 89.4322 125.878 89.3572 126.167 89.2073C126.456 89.0573 126.675 88.8208 126.823 88.4979C126.97 88.1692 127.044 87.7454 127.044 87.2264V79ZM136.628 91.5947H133.766L133.783 89.2591H136.628C137.218 89.2591 137.718 89.1208 138.125 88.8439C138.539 88.5672 138.852 88.1549 139.064 87.6069C139.283 87.0533 139.392 86.3729 139.392 85.5656V85.0206C139.392 84.4151 139.33 83.8845 139.206 83.4289C139.088 82.9675 138.911 82.584 138.674 82.2785C138.438 81.967 138.143 81.7335 137.788 81.5778C137.44 81.4221 137.038 81.3443 136.583 81.3443H133.713V79H136.583C137.458 79 138.258 79.147 138.985 79.4412C139.717 79.7295 140.349 80.1447 140.881 80.6868C141.418 81.2231 141.832 81.8604 142.121 82.5985C142.417 83.3309 142.564 84.144 142.564 85.0378V85.5656C142.564 86.4537 142.417 87.2667 142.121 88.0049C141.832 88.743 141.421 89.3803 140.89 89.9166C140.358 90.4528 139.729 90.8682 139.002 91.1622C138.282 91.4506 137.49 91.5947 136.628 91.5947ZM135.547 79V91.5947H132.437V79H135.547ZM149.658 87.3216H146.45V84.9773H149.658C150.095 84.9773 150.45 84.9052 150.721 84.761C150.993 84.6169 151.191 84.418 151.315 84.1642C151.445 83.9047 151.51 83.6135 151.51 83.2906C151.51 82.9444 151.445 82.6245 151.315 82.3303C151.191 82.0362 150.993 81.7998 150.721 81.621C150.45 81.4364 150.095 81.3443 149.658 81.3443H147.62V91.5947H144.51V79H149.658C150.692 79 151.581 79.1845 152.325 79.5536C153.075 79.9227 153.651 80.4302 154.053 81.076C154.455 81.7162 154.655 82.4485 154.655 83.2732C154.655 84.0863 154.455 84.7957 154.053 85.4011C153.651 86.0066 153.075 86.4795 152.325 86.8198C151.581 87.1542 150.692 87.3216 149.658 87.3216Z" fill="#4B8A79"/>
<rect x="189" y="60" width="58" height="50" rx="5.85799" fill="white"/>
<path fill-rule="evenodd" clip-rule="evenodd" d="M217.767 80.0992C222.988 75.2953 228.279 72.8314 229.992 74.5434C231.759 76.3111 229.078 81.888 223.968 87.2686C226.244 90.7343 227.1 93.6975 225.898 94.8994C224.637 96.1598 221.439 95.1558 217.755 92.6228V92.6405C214.082 95.1606 210.895 96.1567 209.637 94.8994C208.435 93.6976 209.289 90.7339 211.565 87.2686C206.54 81.9769 203.865 76.4954 205.46 74.6348L205.543 74.5445C207.256 72.8319 212.545 75.2959 217.767 80.0992ZM217.755 89.2033C219.206 90.3414 220.583 91.2303 221.78 91.8331C222.5 92.1954 223.092 92.4201 223.549 92.548C223.421 92.0911 223.195 91.4999 222.833 90.7806C221.849 88.8263 220.101 86.395 217.755 83.9457V89.2033ZM207.895 76.8948C208.022 77.3516 208.247 77.9431 208.609 78.6622C209.526 80.482 211.104 82.7163 213.211 84.9931C213.983 84.0142 214.849 83.0188 215.795 82.0308C213.587 80.0139 211.429 78.4993 209.662 77.6096C208.943 77.2478 208.351 77.0228 207.895 76.8948Z" fill="#4B8A79"/>
<rect x="300" width="58" height="51" rx="5.85799" fill="white"/>
<g clip-path="url(#clip2_17063_68013)">
<path d="M330.115 12H328.6C324.403 12 321 15.4707 321 19.752V30.248C321 34.5293 324.403 38 328.6 38H330.115C334.312 38 337.714 34.5293 337.714 30.248V19.752C337.714 15.4707 334.312 12 330.115 12Z" fill="#4B8A79"/>
<path d="M334.015 21.3373L330.262 25.0894L333.999 28.9258L328.535 35.6748V26.817L325.585 29.7667L324.616 28.7585L328.298 25.0762L324.609 21.2888L325.591 20.2937L328.535 23.3157V14.873L334.015 21.3373ZM329.919 31.7479L332.133 29.0133L329.919 26.7401V31.7479ZM329.919 23.4557L332.117 21.2575L329.919 18.6644V23.4557Z" fill="white"/>
</g>
<rect x="300.396" y="120" width="57.6035" height="40" rx="5.85799" fill="url(#paint3_linear_17063_68013)"/>
</g>
</g>
<defs>
<filter id="filter0_dddd_17063_68013" x="0.569185" y="-4.5718" width="384.862" height="260.58" filterUnits="userSpaceOnUse" color-interpolation-filters="sRGB">
<feFlood flood-opacity="0" result="BackgroundImageFix"/>
<feColorMatrix in="SourceAlpha" type="matrix" values="0 0 0 0 0 0 0 0 0 0 0 0 0 0 0 0 0 0 127 0" result="hardAlpha"/>
<feOffset dy="4.5718"/>
<feGaussianBlur stdDeviation="4.5718"/>
<feColorMatrix type="matrix" values="0 0 0 0 0 0 0 0 0 0 0 0 0 0 0 0 0 0 0.06 0"/>
<feBlend mode="normal" in2="BackgroundImageFix" result="effect1_dropShadow_17063_68013"/>
<feColorMatrix in="SourceAlpha" type="matrix" values="0 0 0 0 0 0 0 0 0 0 0 0 0 0 0 0 0 0 127 0" result="hardAlpha"/>
<feOffset dy="17.3729"/>
<feGaussianBlur stdDeviation="8.68643"/>
<feColorMatrix type="matrix" values="0 0 0 0 0 0 0 0 0 0 0 0 0 0 0 0 0 0 0.05 0"/>
<feBlend mode="normal" in2="effect1_dropShadow_17063_68013" result="effect2_dropShadow_17063_68013"/>
<feColorMatrix in="SourceAlpha" type="matrix" values="0 0 0 0 0 0 0 0 0 0 0 0 0 0 0 0 0 0 127 0" result="hardAlpha"/>
<feOffset dy="38.4031"/>
<feGaussianBlur stdDeviation="11.4295"/>
<feColorMatrix type="matrix" values="0 0 0 0 0 0 0 0 0 0 0 0 0 0 0 0 0 0 0.03 0"/>
<feBlend mode="normal" in2="effect2_dropShadow_17063_68013" result="effect3_dropShadow_17063_68013"/>
<feColorMatrix in="SourceAlpha" type="matrix" values="0 0 0 0 0 0 0 0 0 0 0 0 0 0 0 0 0 0 127 0" result="hardAlpha"/>
<feOffset dy="68.577"/>
<feGaussianBlur stdDeviation="13.7154"/>
<feColorMatrix type="matrix" values="0 0 0 0 0 0 0 0 0 0 0 0 0 0 0 0 0 0 0.01 0"/>
<feBlend mode="normal" in2="effect3_dropShadow_17063_68013" result="effect4_dropShadow_17063_68013"/>
<feBlend mode="normal" in="SourceGraphic" in2="effect4_dropShadow_17063_68013" result="shape"/>
</filter>
<linearGradient id="paint0_linear_17063_68013" x1="66.5651" y1="120" x2="66.5651" y2="148" gradientUnits="userSpaceOnUse">
<stop stop-color="white"/>
<stop offset="1" stop-color="white" stop-opacity="0"/>
</linearGradient>
<linearGradient id="paint1_linear_17063_68013" x1="147.112" y1="120" x2="147.112" y2="148" gradientUnits="userSpaceOnUse">
<stop stop-color="white"/>
<stop offset="1" stop-color="white" stop-opacity="0"/>
</linearGradient>
<linearGradient id="paint2_linear_17063_68013" x1="239.864" y1="120" x2="239.864" y2="148" gradientUnits="userSpaceOnUse">
<stop stop-color="white"/>
<stop offset="1" stop-color="white" stop-opacity="0"/>
</linearGradient>
<linearGradient id="paint3_linear_17063_68013" x1="329.198" y1="120" x2="329.198" y2="148" gradientUnits="userSpaceOnUse">
<stop stop-color="white"/>
<stop offset="1" stop-color="white" stop-opacity="0"/>
</linearGradient>
<clipPath id="clip0_17063_68013">
<rect width="387" height="148" fill="white"/>
</clipPath>
<clipPath id="clip1_17063_68013">
<rect width="44.5714" height="30" fill="white" transform="translate(44.1328 11)"/>
</clipPath>
<clipPath id="clip2_17063_68013">
<rect width="16.7143" height="26" fill="white" transform="translate(321 12)"/>
</clipPath>
</defs>
</svg>
