<svg width="387" height="148" viewBox="0 0 387 148" fill="none" xmlns="http://www.w3.org/2000/svg">
<g clip-path="url(#clip0_16822_62175)">
<g filter="url(#filter0_dddd_16822_62175)">
<rect x="63.1523" y="0.375" width="76" height="76" rx="6" fill="white"/>
<g clip-path="url(#clip1_16822_62175)">
<path opacity="0.16" d="M82.3995 36.4004H96.2177C97.003 36.4004 97.7562 36.0884 98.3115 35.5331C98.8668 34.9778 99.1787 34.2247 99.1787 33.4394V19.6212C99.1787 18.8359 98.8668 18.0827 98.3115 17.5274C97.7562 16.9721 97.003 16.6602 96.2177 16.6602H82.3995C81.6142 16.6602 80.861 16.9721 80.3057 17.5274C79.7504 18.0827 79.4385 18.8359 79.4385 19.6212V33.4394C79.4385 34.2247 79.7504 34.9778 80.3057 35.5331C80.861 36.0884 81.6142 36.4004 82.3995 36.4004Z" fill="#006D92"/>
<path d="M84.3737 25.543H94.2439C94.5056 25.543 94.7567 25.647 94.9418 25.8321C95.1269 26.0172 95.2309 26.2682 95.2309 26.53C95.2309 26.7918 95.1269 27.0428 94.9418 27.2279C94.7567 27.413 94.5056 27.517 94.2439 27.517H84.3737C84.112 27.517 83.8609 27.413 83.6758 27.2279C83.4907 27.0428 83.3867 26.7918 83.3867 26.53C83.3867 26.2682 83.4907 26.0172 83.6758 25.8321C83.8609 25.647 84.112 25.543 84.3737 25.543Z" fill="#006D92"/>
<path opacity="0.16" d="M119.906 16.6602H106.088C105.303 16.6602 104.55 16.9721 103.994 17.5274C103.439 18.0827 103.127 18.8359 103.127 19.6212V33.4394C103.127 34.2247 103.439 34.9778 103.994 35.5331C104.55 36.0884 105.303 36.4004 106.088 36.4004H119.906C120.691 36.4004 121.445 36.0884 122 35.5331C122.555 34.9778 122.867 34.2247 122.867 33.4394V19.6212C122.867 18.8359 122.555 18.0827 122 17.5274C121.445 16.9721 120.691 16.6602 119.906 16.6602Z" fill="#006D92"/>
<path d="M117.932 27.5165H113.984V31.4646C113.984 31.7263 113.88 31.9774 113.695 32.1625C113.51 32.3476 113.259 32.4516 112.997 32.4516C112.735 32.4516 112.484 32.3476 112.299 32.1625C112.114 31.9774 112.01 31.7263 112.01 31.4646V27.5165H108.062C107.8 27.5165 107.549 27.4125 107.364 27.2274C107.179 27.0423 107.075 26.7913 107.075 26.5295C107.075 26.2677 107.179 26.0167 107.364 25.8316C107.549 25.6465 107.8 25.5425 108.062 25.5425H112.01V21.5944C112.01 21.3327 112.114 21.0816 112.299 20.8965C112.484 20.7114 112.735 20.6074 112.997 20.6074C113.259 20.6074 113.51 20.7114 113.695 20.8965C113.88 21.0816 113.984 21.3327 113.984 21.5944V25.5425H117.932C118.194 25.5425 118.445 25.6465 118.63 25.8316C118.815 26.0167 118.919 26.2677 118.919 26.5295C118.919 26.7913 118.815 27.0423 118.63 27.2274C118.445 27.4125 118.194 27.5165 117.932 27.5165Z" fill="#006D92"/>
<path opacity="0.16" d="M96.2177 60.0879C97.003 60.0879 97.7562 59.7759 98.3115 59.2206C98.8668 58.6653 99.1787 57.9122 99.1787 57.1269V43.3087C99.1787 42.5234 98.8668 41.7702 98.3115 41.2149C97.7562 40.6596 97.003 40.3477 96.2177 40.3477H82.3995C81.6142 40.3477 80.861 40.6596 80.3057 41.2149C79.7504 41.7702 79.4385 42.5234 79.4385 43.3087V57.1269C79.4385 57.9122 79.7504 58.6653 80.3057 59.2206C80.861 59.7759 81.6142 60.0879 82.3995 60.0879H96.2177Z" fill="#006D92"/>
<path d="M85.1234 47.4259C84.9617 47.2371 84.8772 46.9942 84.8868 46.7458C84.8964 46.4974 84.9994 46.2617 85.1752 46.086C85.351 45.9102 85.5866 45.8072 85.835 45.7976C86.0834 45.788 86.3263 45.8725 86.5151 46.0342L89.3084 48.8275L92.1016 46.0342C92.2904 45.8725 92.5333 45.788 92.7817 45.7976C93.0301 45.8072 93.2658 45.9102 93.4416 46.086C93.6173 46.2617 93.7203 46.4974 93.7299 46.7458C93.7395 46.9942 93.655 47.2371 93.4933 47.4259L90.7001 50.2191L93.4933 53.0124C93.6771 53.1973 93.7803 53.4475 93.7803 53.7082C93.7803 53.969 93.6771 54.2192 93.4933 54.4041C93.3084 54.5879 93.0582 54.6911 92.7975 54.6911C92.5367 54.6911 92.2866 54.5879 92.1016 54.4041L89.3084 51.6108L86.5151 54.4041C86.3302 54.5879 86.08 54.6911 85.8193 54.6911C85.5585 54.6911 85.3084 54.5879 85.1234 54.4041C84.9396 54.2192 84.8364 53.969 84.8364 53.7082C84.8364 53.4475 84.9396 53.1973 85.1234 53.0124L87.9167 50.2191L85.1234 47.4259Z" fill="#006D92"/>
<path opacity="0.16" d="M119.906 40.3477H106.088C105.303 40.3477 104.55 40.6596 103.994 41.2149C103.439 41.7702 103.127 42.5234 103.127 43.3087V57.1269C103.127 57.9122 103.439 58.6653 103.994 59.2206C104.55 59.7759 105.303 60.0879 106.088 60.0879H119.906C120.691 60.0879 121.445 59.7759 122 59.2206C122.555 58.6653 122.867 57.9122 122.867 57.1269V43.3087C122.867 42.5234 122.555 41.7702 122 41.2149C121.445 40.6596 120.691 40.3477 119.906 40.3477Z" fill="#006D92"/>
<path fill-rule="evenodd" clip-rule="evenodd" d="M108.062 51.2053H117.932C118.194 51.2053 118.445 51.1013 118.63 50.9162C118.815 50.7311 118.919 50.48 118.919 50.2183C118.919 49.9565 118.815 49.7054 118.63 49.5203C118.445 49.3352 118.194 49.2313 117.932 49.2313H108.062C107.8 49.2313 107.549 49.3352 107.364 49.5203C107.179 49.7054 107.075 49.9565 107.075 50.2183C107.075 50.48 107.179 50.7311 107.364 50.9162C107.549 51.1013 107.8 51.2053 108.062 51.2053Z" fill="#006D92"/>
<path fill-rule="evenodd" clip-rule="evenodd" d="M113.545 45.4495C113.383 45.3411 113.192 45.2832 112.997 45.2832C112.735 45.2832 112.484 45.3872 112.299 45.5723C112.114 45.7574 112.01 46.0084 112.01 46.2702C112.01 46.4654 112.068 46.6563 112.176 46.8186C112.285 46.9809 112.439 47.1074 112.619 47.1821C112.799 47.2568 112.998 47.2763 113.189 47.2383C113.381 47.2002 113.557 47.1062 113.695 46.9681C113.833 46.8301 113.927 46.6542 113.965 46.4628C114.003 46.2713 113.983 46.0729 113.909 45.8925C113.834 45.7122 113.707 45.558 113.545 45.4495Z" fill="#006D92"/>
<path fill-rule="evenodd" clip-rule="evenodd" d="M112.299 54.8642C112.484 55.0493 112.735 55.1533 112.997 55.1533C113.259 55.1533 113.51 55.0493 113.695 54.8642C113.88 54.6791 113.984 54.4281 113.984 54.1663C113.984 53.9045 113.88 53.6535 113.695 53.4684C113.51 53.2833 113.259 53.1793 112.997 53.1793C112.735 53.1793 112.484 53.2833 112.299 53.4684C112.114 53.6535 112.01 53.9045 112.01 54.1663C112.01 54.4281 112.114 54.6791 112.299 54.8642Z" fill="#006D92"/>
</g>
</g>
<g filter="url(#filter1_dddd_16822_62175)">
<rect x="155.152" y="0.375" width="76" height="76" rx="6" fill="white"/>
<g clip-path="url(#clip2_16822_62175)">
<rect opacity="0.16" x="171.438" y="16.6602" width="43.4286" height="43.4286" rx="21.7143" fill="#006D92"/>
<path d="M184.707 33.5488L179.882 38.3742L184.707 43.1996" stroke="#006D92" stroke-width="2.4127" stroke-miterlimit="10" stroke-linecap="round" stroke-linejoin="round"/>
<path d="M201.596 33.5488L206.422 38.3742L201.596 43.1996" stroke="#006D92" stroke-width="2.4127" stroke-miterlimit="10" stroke-linecap="round" stroke-linejoin="round"/>
<path d="M195.565 28.7246L190.739 48.0262" stroke="#006D92" stroke-width="2.4127" stroke-miterlimit="10" stroke-linecap="round" stroke-linejoin="round"/>
</g>
</g>
<g filter="url(#filter2_dddd_16822_62175)">
<rect x="247.152" y="0.375" width="76" height="76" rx="6" fill="white"/>
<path opacity="0.16" d="M295.349 21.7891C295.258 22.1425 295.21 22.513 295.21 22.8949C295.21 25.3378 297.19 27.3182 299.633 27.3182C300.015 27.3182 300.386 27.2698 300.739 27.1789V49.5739C300.386 49.4829 300.015 49.4346 299.633 49.4346C297.19 49.4346 295.21 51.4149 295.21 53.8578C295.21 54.2397 295.258 54.6102 295.349 54.9637H272.954C273.045 54.6102 273.094 54.2397 273.094 53.8578C273.094 51.4149 271.113 49.4346 268.67 49.4346C268.288 49.4346 267.918 49.4829 267.564 49.5739V27.1789C267.918 27.2698 268.288 27.3182 268.67 27.3182C271.113 27.3182 273.094 25.3378 273.094 22.8949C273.094 22.513 273.045 22.1425 272.954 21.7891H295.349Z" fill="#006D92"/>
<path opacity="0.4" d="M295.246 53.3049C295.223 53.4861 295.21 53.6705 295.21 53.8578C295.21 54.2397 295.258 54.6102 295.349 54.9637H272.954C273.045 54.6102 273.094 54.2397 273.094 53.8578C273.094 53.6705 273.081 53.4861 273.058 53.3049H295.246ZM267.564 27.1789C267.918 27.2698 268.288 27.3182 268.67 27.3182C268.858 27.3182 269.042 27.3051 269.223 27.2825V49.4691C269.042 49.4465 268.858 49.4346 268.67 49.4346C268.288 49.4346 267.918 49.4829 267.564 49.5739V27.1789ZM300.739 49.5739C300.386 49.4829 300.015 49.4346 299.633 49.4346C299.446 49.4346 299.261 49.4465 299.08 49.4691V27.2825C299.262 27.3051 299.446 27.3182 299.633 27.3182C300.015 27.3182 300.386 27.2698 300.739 27.1789V49.5739ZM295.349 21.7891C295.258 22.1425 295.21 22.513 295.21 22.8949C295.21 23.0822 295.223 23.2666 295.246 23.4478H273.058C273.081 23.2666 273.094 23.0822 273.094 22.8949C273.094 22.513 273.045 22.1425 272.954 21.7891H295.349Z" fill="#006D92"/>
<path d="M302.951 22.8936C302.951 21.0614 301.466 19.5762 299.633 19.5762C297.801 19.5762 296.316 21.0614 296.316 22.8936C296.316 24.7258 297.801 26.2111 299.633 26.2111C301.466 26.2111 302.951 24.7258 302.951 22.8936Z" fill="#006D92"/>
<path d="M302.951 53.8565C302.951 52.0243 301.466 50.5391 299.633 50.5391C297.801 50.5391 296.316 52.0243 296.316 53.8565C296.316 55.6887 297.801 57.174 299.633 57.174C301.466 57.174 302.951 55.6887 302.951 53.8565Z" fill="#006D92"/>
<path d="M271.988 53.8565C271.988 52.0243 270.503 50.5391 268.67 50.5391C266.838 50.5391 265.353 52.0243 265.353 53.8565C265.353 55.6887 266.838 57.174 268.67 57.174C270.503 57.174 271.988 55.6887 271.988 53.8565Z" fill="#006D92"/>
<path d="M271.988 22.8936C271.988 21.0614 270.503 19.5762 268.67 19.5762C266.838 19.5762 265.353 21.0614 265.353 22.8936C265.353 24.7258 266.838 26.2111 268.67 26.2111C270.503 26.2111 271.988 24.7258 271.988 22.8936Z" fill="#006D92"/>
</g>
<g filter="url(#filter3_dddd_16822_62175)">
<rect x="247" y="88.375" width="76" height="76" rx="6" fill="white"/>
<g clip-path="url(#clip3_16822_62175)">
<rect x="275.248" y="103.646" width="17.6931" height="13.2698" rx="1.10582" fill="#006D92"/>
<path opacity="0.16" fill-rule="evenodd" clip-rule="evenodd" d="M283.314 117.338C283.622 117.031 284.085 116.974 284.45 117.166C284.506 117.195 284.56 117.23 284.61 117.271C284.636 117.292 284.661 117.314 284.685 117.338L288.002 120.655C288.38 121.033 288.379 121.646 288.002 122.024C287.624 122.402 287.011 122.402 286.633 122.024L285.002 120.393C285.175 123.376 285.966 125.176 286.973 126.324C288.123 127.636 289.684 128.25 291.42 128.68C292.311 128.901 293.14 129.051 294.036 129.251C294.891 129.441 295.761 129.668 296.533 130.023C297.317 130.384 298.043 130.897 298.563 131.68C299.085 132.466 299.343 133.436 299.343 134.61C299.343 135.144 298.909 135.578 298.375 135.578C297.841 135.578 297.407 135.144 297.407 134.61C297.407 133.722 297.215 133.148 296.951 132.751C296.686 132.351 296.288 132.041 295.724 131.781C295.148 131.516 294.446 131.324 293.616 131.139C292.828 130.964 291.86 130.783 290.954 130.558C289.097 130.098 287.063 129.362 285.518 127.599C285.324 127.379 285.14 127.144 284.967 126.894V139.033C284.967 139.567 284.533 140.001 283.999 140.001C283.465 140.001 283.031 139.567 283.031 139.033V126.896C282.858 127.145 282.675 127.379 282.481 127.599C280.936 129.362 278.902 130.098 277.045 130.558C276.139 130.783 275.171 130.964 274.383 131.139C273.553 131.324 272.851 131.516 272.275 131.781C271.711 132.041 271.313 132.351 271.048 132.751C270.784 133.148 270.592 133.722 270.592 134.61C270.592 135.144 270.158 135.578 269.624 135.578C269.09 135.578 268.656 135.144 268.656 134.61C268.656 133.436 268.914 132.466 269.436 131.68C269.956 130.897 270.682 130.384 271.466 130.023C272.238 129.668 273.108 129.441 273.963 129.251C274.859 129.051 275.688 128.901 276.579 128.68C278.315 128.25 279.876 127.636 281.026 126.324C282.033 125.176 282.822 123.376 282.995 120.394L281.366 122.024C280.988 122.402 280.375 122.402 279.997 122.024C279.62 121.646 279.619 121.033 279.997 120.655L283.314 117.338Z" fill="#006D92"/>
<path d="M283.444 132.707C283.856 132.295 284.524 132.295 284.935 132.707L289.41 137.182C289.822 137.594 289.822 138.261 289.41 138.673L284.935 143.148C284.524 143.56 283.856 143.56 283.444 143.148L278.97 138.673C278.558 138.261 278.558 137.594 278.97 137.182L283.444 132.707Z" fill="#006D92"/>
<path d="M269.069 132.707C269.48 132.295 270.148 132.295 270.56 132.707L275.034 137.182C275.446 137.594 275.446 138.261 275.034 138.673L270.56 143.148C270.148 143.56 269.48 143.56 269.069 143.148L264.594 138.673C264.182 138.261 264.182 137.594 264.594 137.182L269.069 132.707Z" fill="#006D92"/>
<path d="M297.82 132.707C298.232 132.295 298.9 132.295 299.311 132.707L303.786 137.182C304.198 137.594 304.198 138.261 303.786 138.673L299.311 143.148C298.9 143.56 298.232 143.56 297.82 143.148L293.346 138.673C292.934 138.261 292.934 137.594 293.346 137.182L297.82 132.707Z" fill="#006D92"/>
</g>
</g>
<g filter="url(#filter4_dddd_16822_62175)">
<rect x="63" y="88.375" width="76" height="76" rx="6" fill="white"/>
<g clip-path="url(#clip4_16822_62175)">
<path opacity="0.16" d="M97.5557 110.105L86.5557 121.105" stroke="#006D92" stroke-width="2.44444" stroke-linecap="round"/>
<path opacity="0.16" d="M102.444 110.105L113.444 121.105" stroke="#006D92" stroke-width="2.44444" stroke-linecap="round"/>
<path d="M83.2869 117.781C83.7421 117.326 84.4801 117.326 84.9354 117.781L89.8808 122.726C90.336 123.182 90.336 123.92 89.8808 124.375L84.9354 129.32C84.4801 129.775 83.7421 129.775 83.2869 129.32L78.3414 124.375C77.8862 123.92 77.8862 123.182 78.3414 122.726L83.2869 117.781Z" fill="#006D92"/>
<path d="M115.065 117.781C115.52 117.326 116.258 117.326 116.713 117.781L121.659 122.726C122.114 123.182 122.114 123.92 121.659 124.375L116.713 129.32C116.258 129.775 115.52 129.775 115.065 129.32L110.119 124.375C109.664 123.92 109.664 123.182 110.119 122.726L115.065 117.781Z" fill="#006D92"/>
<path d="M99.1755 101.892C99.6308 101.437 100.369 101.437 100.824 101.892L105.769 106.838C106.225 107.293 106.225 108.031 105.769 108.486L100.824 113.432C100.369 113.887 99.6308 113.887 99.1755 113.432L94.2301 108.486C93.7749 108.031 93.7749 107.293 94.2301 106.838L99.1755 101.892Z" fill="#006D92"/>
<path d="M100.978 125.996C101.222 125.996 101.467 126.159 101.548 126.403L101.915 127.504C101.955 127.707 102.118 127.87 102.322 127.911C102.892 128.074 103.422 128.277 103.911 128.562C104.074 128.644 104.318 128.644 104.481 128.562L105.5 128.074C105.744 127.952 105.989 127.993 106.193 128.196L107.578 129.581C107.781 129.744 107.822 130.029 107.7 130.273L107.211 131.292C107.089 131.496 107.13 131.699 107.211 131.862C107.497 132.351 107.7 132.881 107.863 133.451C107.944 133.655 108.066 133.778 108.27 133.859L109.371 134.226C109.615 134.307 109.778 134.552 109.778 134.796V136.752C109.778 136.996 109.615 137.241 109.371 137.322L108.27 137.688C108.067 137.729 107.904 137.892 107.863 138.096C107.7 138.666 107.496 139.196 107.211 139.685C107.13 139.847 107.13 140.092 107.211 140.255L107.66 141.273C107.782 141.518 107.74 141.763 107.537 141.967L106.152 143.352C105.989 143.555 105.704 143.596 105.459 143.474L104.441 142.985C104.237 142.863 104.034 142.904 103.871 142.985C103.382 143.27 102.852 143.474 102.282 143.637C102.078 143.718 101.955 143.84 101.874 144.044L101.507 145.145C101.426 145.389 101.181 145.552 100.937 145.552H98.981C98.7367 145.552 98.4921 145.389 98.4106 145.145L98.0444 144.044C98.0036 143.84 97.8407 143.678 97.6372 143.637C97.067 143.474 96.5371 143.27 96.0483 142.985C95.8854 142.904 95.641 142.904 95.478 142.985L94.4595 143.474C94.2151 143.596 93.9708 143.555 93.7671 143.352L92.3813 141.967C92.1776 141.804 92.1371 141.518 92.2593 141.273L92.7886 140.255C92.9106 140.051 92.87 139.847 92.7886 139.685C92.5035 139.196 92.3001 138.666 92.1372 138.096C92.0558 137.892 91.9334 137.77 91.73 137.688L90.6294 137.322C90.3851 137.241 90.2223 136.996 90.2222 136.752V134.796C90.2223 134.552 90.3851 134.307 90.6294 134.226L91.73 133.859C91.9335 133.819 92.0965 133.655 92.1372 133.451C92.3001 132.881 92.5035 132.351 92.7886 131.862C92.8699 131.699 92.87 131.455 92.7886 131.292L92.2593 130.273C92.178 130.029 92.2187 129.745 92.3813 129.541L93.7671 128.155C93.9707 127.993 94.2553 127.952 94.4995 128.033L95.5181 128.562C95.7217 128.685 95.9255 128.644 96.0884 128.562C96.5771 128.277 97.1071 128.074 97.6772 127.911C97.8809 127.83 98.004 127.707 98.0854 127.504L98.4517 126.403C98.5332 126.159 98.7776 125.996 99.022 125.996H100.978ZM98.2632 141.379V141.378V141.379ZM101.737 141.379V141.378V141.379ZM99.9995 130.885C97.2998 130.885 95.1111 133.074 95.1108 135.773C95.1108 138.473 97.2996 140.663 99.9995 140.663C102.7 140.663 104.889 138.473 104.889 135.773C104.889 133.074 102.699 130.885 99.9995 130.885Z" fill="#006D92"/>
</g>
</g>
<g filter="url(#filter5_dddd_16822_62175)">
<rect x="155" y="88.375" width="76" height="76" rx="6" fill="white"/>
<g clip-path="url(#clip5_16822_62175)">
<path d="M192.587 113.383C192.832 113.383 193.076 113.546 193.158 113.79L193.524 114.891C193.565 115.094 193.728 115.257 193.931 115.298C194.501 115.461 195.031 115.664 195.52 115.949C195.683 116.031 195.927 116.031 196.09 115.949L197.109 115.461C197.353 115.339 197.599 115.379 197.802 115.583L199.187 116.968C199.391 117.131 199.431 117.416 199.309 117.66L198.821 118.679C198.699 118.882 198.739 119.086 198.821 119.249C199.106 119.738 199.309 120.268 199.472 120.838C199.554 121.042 199.676 121.165 199.879 121.246L200.98 121.612C201.224 121.694 201.387 121.938 201.387 122.183V124.139C201.387 124.383 201.224 124.627 200.98 124.709L199.879 125.075C199.676 125.116 199.513 125.279 199.472 125.482C199.309 126.053 199.106 126.583 198.821 127.071C198.739 127.234 198.739 127.479 198.821 127.642L199.269 128.66C199.391 128.905 199.35 129.15 199.146 129.354L197.761 130.738C197.598 130.942 197.313 130.983 197.069 130.86L196.05 130.372C195.847 130.25 195.643 130.291 195.48 130.372C194.991 130.657 194.461 130.86 193.891 131.023C193.687 131.105 193.564 131.227 193.483 131.431L193.117 132.531C193.035 132.776 192.791 132.938 192.546 132.938H190.59C190.346 132.938 190.101 132.775 190.02 132.531L189.654 131.431C189.613 131.227 189.45 131.064 189.247 131.023C188.676 130.861 188.147 130.657 187.658 130.372C187.495 130.291 187.25 130.291 187.087 130.372L186.069 130.86C185.824 130.983 185.58 130.942 185.376 130.738L183.991 129.354C183.787 129.191 183.746 128.905 183.869 128.66L184.398 127.642C184.52 127.438 184.479 127.234 184.398 127.071C184.113 126.583 183.909 126.053 183.747 125.482C183.665 125.279 183.543 125.157 183.339 125.075L182.239 124.709C181.994 124.628 181.832 124.383 181.832 124.139V122.183C181.832 121.938 181.994 121.694 182.239 121.612L183.339 121.246C183.543 121.205 183.706 121.041 183.747 120.838C183.91 120.268 184.113 119.738 184.398 119.249C184.479 119.086 184.479 118.842 184.398 118.679L183.869 117.66C183.787 117.416 183.828 117.131 183.991 116.928L185.376 115.542C185.58 115.379 185.865 115.339 186.109 115.42L187.127 115.949C187.331 116.071 187.535 116.031 187.698 115.949C188.187 115.664 188.716 115.461 189.287 115.298C189.49 115.216 189.613 115.094 189.695 114.891L190.061 113.79C190.143 113.546 190.387 113.383 190.631 113.383H192.587ZM189.873 128.766V128.765V128.766ZM193.346 128.766V128.765V128.766ZM191.609 118.271C188.909 118.272 186.72 120.46 186.72 123.16C186.72 125.86 188.909 128.05 191.609 128.05C194.309 128.05 196.499 125.86 196.499 123.16C196.498 120.46 194.309 118.271 191.609 118.271Z" fill="#006D92"/>
<circle opacity="0.16" cx="191.609" cy="123.16" r="18.3333" stroke="#006D92" stroke-width="2.44444"/>
<circle cx="191.61" cy="104.827" r="3.66667" fill="#006D92"/>
<circle cx="173.276" cy="123.161" r="3.66667" fill="#006D92"/>
<circle cx="191.61" cy="141.493" r="3.66667" fill="#006D92"/>
<circle cx="209.943" cy="123.161" r="3.66667" fill="#006D92"/>
</g>
</g>
</g>
<defs>
<filter id="filter0_dddd_16822_62175" x="30.4251" y="-5.07955" width="141.455" height="196" filterUnits="userSpaceOnUse" color-interpolation-filters="sRGB">
<feFlood flood-opacity="0" result="BackgroundImageFix"/>
<feColorMatrix in="SourceAlpha" type="matrix" values="0 0 0 0 0 0 0 0 0 0 0 0 0 0 0 0 0 0 127 0" result="hardAlpha"/>
<feOffset dy="5.45455"/>
<feGaussianBlur stdDeviation="5.45455"/>
<feColorMatrix type="matrix" values="0 0 0 0 0 0 0 0 0 0 0 0 0 0 0 0 0 0 0.06 0"/>
<feBlend mode="normal" in2="BackgroundImageFix" result="effect1_dropShadow_16822_62175"/>
<feColorMatrix in="SourceAlpha" type="matrix" values="0 0 0 0 0 0 0 0 0 0 0 0 0 0 0 0 0 0 127 0" result="hardAlpha"/>
<feOffset dy="20.7273"/>
<feGaussianBlur stdDeviation="10.3636"/>
<feColorMatrix type="matrix" values="0 0 0 0 0 0 0 0 0 0 0 0 0 0 0 0 0 0 0.05 0"/>
<feBlend mode="normal" in2="effect1_dropShadow_16822_62175" result="effect2_dropShadow_16822_62175"/>
<feColorMatrix in="SourceAlpha" type="matrix" values="0 0 0 0 0 0 0 0 0 0 0 0 0 0 0 0 0 0 127 0" result="hardAlpha"/>
<feOffset dy="45.8182"/>
<feGaussianBlur stdDeviation="13.6364"/>
<feColorMatrix type="matrix" values="0 0 0 0 0 0 0 0 0 0 0 0 0 0 0 0 0 0 0.03 0"/>
<feBlend mode="normal" in2="effect2_dropShadow_16822_62175" result="effect3_dropShadow_16822_62175"/>
<feColorMatrix in="SourceAlpha" type="matrix" values="0 0 0 0 0 0 0 0 0 0 0 0 0 0 0 0 0 0 127 0" result="hardAlpha"/>
<feOffset dy="81.8182"/>
<feGaussianBlur stdDeviation="16.3636"/>
<feColorMatrix type="matrix" values="0 0 0 0 0 0 0 0 0 0 0 0 0 0 0 0 0 0 0.01 0"/>
<feBlend mode="normal" in2="effect3_dropShadow_16822_62175" result="effect4_dropShadow_16822_62175"/>
<feBlend mode="normal" in="SourceGraphic" in2="effect4_dropShadow_16822_62175" result="shape"/>
</filter>
<filter id="filter1_dddd_16822_62175" x="122.425" y="-5.07955" width="141.455" height="196" filterUnits="userSpaceOnUse" color-interpolation-filters="sRGB">
<feFlood flood-opacity="0" result="BackgroundImageFix"/>
<feColorMatrix in="SourceAlpha" type="matrix" values="0 0 0 0 0 0 0 0 0 0 0 0 0 0 0 0 0 0 127 0" result="hardAlpha"/>
<feOffset dy="5.45455"/>
<feGaussianBlur stdDeviation="5.45455"/>
<feColorMatrix type="matrix" values="0 0 0 0 0 0 0 0 0 0 0 0 0 0 0 0 0 0 0.06 0"/>
<feBlend mode="normal" in2="BackgroundImageFix" result="effect1_dropShadow_16822_62175"/>
<feColorMatrix in="SourceAlpha" type="matrix" values="0 0 0 0 0 0 0 0 0 0 0 0 0 0 0 0 0 0 127 0" result="hardAlpha"/>
<feOffset dy="20.7273"/>
<feGaussianBlur stdDeviation="10.3636"/>
<feColorMatrix type="matrix" values="0 0 0 0 0 0 0 0 0 0 0 0 0 0 0 0 0 0 0.05 0"/>
<feBlend mode="normal" in2="effect1_dropShadow_16822_62175" result="effect2_dropShadow_16822_62175"/>
<feColorMatrix in="SourceAlpha" type="matrix" values="0 0 0 0 0 0 0 0 0 0 0 0 0 0 0 0 0 0 127 0" result="hardAlpha"/>
<feOffset dy="45.8182"/>
<feGaussianBlur stdDeviation="13.6364"/>
<feColorMatrix type="matrix" values="0 0 0 0 0 0 0 0 0 0 0 0 0 0 0 0 0 0 0.03 0"/>
<feBlend mode="normal" in2="effect2_dropShadow_16822_62175" result="effect3_dropShadow_16822_62175"/>
<feColorMatrix in="SourceAlpha" type="matrix" values="0 0 0 0 0 0 0 0 0 0 0 0 0 0 0 0 0 0 127 0" result="hardAlpha"/>
<feOffset dy="81.8182"/>
<feGaussianBlur stdDeviation="16.3636"/>
<feColorMatrix type="matrix" values="0 0 0 0 0 0 0 0 0 0 0 0 0 0 0 0 0 0 0.01 0"/>
<feBlend mode="normal" in2="effect3_dropShadow_16822_62175" result="effect4_dropShadow_16822_62175"/>
<feBlend mode="normal" in="SourceGraphic" in2="effect4_dropShadow_16822_62175" result="shape"/>
</filter>
<filter id="filter2_dddd_16822_62175" x="214.425" y="-5.07955" width="141.455" height="196" filterUnits="userSpaceOnUse" color-interpolation-filters="sRGB">
<feFlood flood-opacity="0" result="BackgroundImageFix"/>
<feColorMatrix in="SourceAlpha" type="matrix" values="0 0 0 0 0 0 0 0 0 0 0 0 0 0 0 0 0 0 127 0" result="hardAlpha"/>
<feOffset dy="5.45455"/>
<feGaussianBlur stdDeviation="5.45455"/>
<feColorMatrix type="matrix" values="0 0 0 0 0 0 0 0 0 0 0 0 0 0 0 0 0 0 0.06 0"/>
<feBlend mode="normal" in2="BackgroundImageFix" result="effect1_dropShadow_16822_62175"/>
<feColorMatrix in="SourceAlpha" type="matrix" values="0 0 0 0 0 0 0 0 0 0 0 0 0 0 0 0 0 0 127 0" result="hardAlpha"/>
<feOffset dy="20.7273"/>
<feGaussianBlur stdDeviation="10.3636"/>
<feColorMatrix type="matrix" values="0 0 0 0 0 0 0 0 0 0 0 0 0 0 0 0 0 0 0.05 0"/>
<feBlend mode="normal" in2="effect1_dropShadow_16822_62175" result="effect2_dropShadow_16822_62175"/>
<feColorMatrix in="SourceAlpha" type="matrix" values="0 0 0 0 0 0 0 0 0 0 0 0 0 0 0 0 0 0 127 0" result="hardAlpha"/>
<feOffset dy="45.8182"/>
<feGaussianBlur stdDeviation="13.6364"/>
<feColorMatrix type="matrix" values="0 0 0 0 0 0 0 0 0 0 0 0 0 0 0 0 0 0 0.03 0"/>
<feBlend mode="normal" in2="effect2_dropShadow_16822_62175" result="effect3_dropShadow_16822_62175"/>
<feColorMatrix in="SourceAlpha" type="matrix" values="0 0 0 0 0 0 0 0 0 0 0 0 0 0 0 0 0 0 127 0" result="hardAlpha"/>
<feOffset dy="81.8182"/>
<feGaussianBlur stdDeviation="16.3636"/>
<feColorMatrix type="matrix" values="0 0 0 0 0 0 0 0 0 0 0 0 0 0 0 0 0 0 0.01 0"/>
<feBlend mode="normal" in2="effect3_dropShadow_16822_62175" result="effect4_dropShadow_16822_62175"/>
<feBlend mode="normal" in="SourceGraphic" in2="effect4_dropShadow_16822_62175" result="shape"/>
</filter>
<filter id="filter3_dddd_16822_62175" x="214.273" y="82.9205" width="141.455" height="196" filterUnits="userSpaceOnUse" color-interpolation-filters="sRGB">
<feFlood flood-opacity="0" result="BackgroundImageFix"/>
<feColorMatrix in="SourceAlpha" type="matrix" values="0 0 0 0 0 0 0 0 0 0 0 0 0 0 0 0 0 0 127 0" result="hardAlpha"/>
<feOffset dy="5.45455"/>
<feGaussianBlur stdDeviation="5.45455"/>
<feColorMatrix type="matrix" values="0 0 0 0 0 0 0 0 0 0 0 0 0 0 0 0 0 0 0.06 0"/>
<feBlend mode="normal" in2="BackgroundImageFix" result="effect1_dropShadow_16822_62175"/>
<feColorMatrix in="SourceAlpha" type="matrix" values="0 0 0 0 0 0 0 0 0 0 0 0 0 0 0 0 0 0 127 0" result="hardAlpha"/>
<feOffset dy="20.7273"/>
<feGaussianBlur stdDeviation="10.3636"/>
<feColorMatrix type="matrix" values="0 0 0 0 0 0 0 0 0 0 0 0 0 0 0 0 0 0 0.05 0"/>
<feBlend mode="normal" in2="effect1_dropShadow_16822_62175" result="effect2_dropShadow_16822_62175"/>
<feColorMatrix in="SourceAlpha" type="matrix" values="0 0 0 0 0 0 0 0 0 0 0 0 0 0 0 0 0 0 127 0" result="hardAlpha"/>
<feOffset dy="45.8182"/>
<feGaussianBlur stdDeviation="13.6364"/>
<feColorMatrix type="matrix" values="0 0 0 0 0 0 0 0 0 0 0 0 0 0 0 0 0 0 0.03 0"/>
<feBlend mode="normal" in2="effect2_dropShadow_16822_62175" result="effect3_dropShadow_16822_62175"/>
<feColorMatrix in="SourceAlpha" type="matrix" values="0 0 0 0 0 0 0 0 0 0 0 0 0 0 0 0 0 0 127 0" result="hardAlpha"/>
<feOffset dy="81.8182"/>
<feGaussianBlur stdDeviation="16.3636"/>
<feColorMatrix type="matrix" values="0 0 0 0 0 0 0 0 0 0 0 0 0 0 0 0 0 0 0.01 0"/>
<feBlend mode="normal" in2="effect3_dropShadow_16822_62175" result="effect4_dropShadow_16822_62175"/>
<feBlend mode="normal" in="SourceGraphic" in2="effect4_dropShadow_16822_62175" result="shape"/>
</filter>
<filter id="filter4_dddd_16822_62175" x="30.2727" y="82.9205" width="141.455" height="196" filterUnits="userSpaceOnUse" color-interpolation-filters="sRGB">
<feFlood flood-opacity="0" result="BackgroundImageFix"/>
<feColorMatrix in="SourceAlpha" type="matrix" values="0 0 0 0 0 0 0 0 0 0 0 0 0 0 0 0 0 0 127 0" result="hardAlpha"/>
<feOffset dy="5.45455"/>
<feGaussianBlur stdDeviation="5.45455"/>
<feColorMatrix type="matrix" values="0 0 0 0 0 0 0 0 0 0 0 0 0 0 0 0 0 0 0.06 0"/>
<feBlend mode="normal" in2="BackgroundImageFix" result="effect1_dropShadow_16822_62175"/>
<feColorMatrix in="SourceAlpha" type="matrix" values="0 0 0 0 0 0 0 0 0 0 0 0 0 0 0 0 0 0 127 0" result="hardAlpha"/>
<feOffset dy="20.7273"/>
<feGaussianBlur stdDeviation="10.3636"/>
<feColorMatrix type="matrix" values="0 0 0 0 0 0 0 0 0 0 0 0 0 0 0 0 0 0 0.05 0"/>
<feBlend mode="normal" in2="effect1_dropShadow_16822_62175" result="effect2_dropShadow_16822_62175"/>
<feColorMatrix in="SourceAlpha" type="matrix" values="0 0 0 0 0 0 0 0 0 0 0 0 0 0 0 0 0 0 127 0" result="hardAlpha"/>
<feOffset dy="45.8182"/>
<feGaussianBlur stdDeviation="13.6364"/>
<feColorMatrix type="matrix" values="0 0 0 0 0 0 0 0 0 0 0 0 0 0 0 0 0 0 0.03 0"/>
<feBlend mode="normal" in2="effect2_dropShadow_16822_62175" result="effect3_dropShadow_16822_62175"/>
<feColorMatrix in="SourceAlpha" type="matrix" values="0 0 0 0 0 0 0 0 0 0 0 0 0 0 0 0 0 0 127 0" result="hardAlpha"/>
<feOffset dy="81.8182"/>
<feGaussianBlur stdDeviation="16.3636"/>
<feColorMatrix type="matrix" values="0 0 0 0 0 0 0 0 0 0 0 0 0 0 0 0 0 0 0.01 0"/>
<feBlend mode="normal" in2="effect3_dropShadow_16822_62175" result="effect4_dropShadow_16822_62175"/>
<feBlend mode="normal" in="SourceGraphic" in2="effect4_dropShadow_16822_62175" result="shape"/>
</filter>
<filter id="filter5_dddd_16822_62175" x="122.273" y="82.9205" width="141.455" height="196" filterUnits="userSpaceOnUse" color-interpolation-filters="sRGB">
<feFlood flood-opacity="0" result="BackgroundImageFix"/>
<feColorMatrix in="SourceAlpha" type="matrix" values="0 0 0 0 0 0 0 0 0 0 0 0 0 0 0 0 0 0 127 0" result="hardAlpha"/>
<feOffset dy="5.45455"/>
<feGaussianBlur stdDeviation="5.45455"/>
<feColorMatrix type="matrix" values="0 0 0 0 0 0 0 0 0 0 0 0 0 0 0 0 0 0 0.06 0"/>
<feBlend mode="normal" in2="BackgroundImageFix" result="effect1_dropShadow_16822_62175"/>
<feColorMatrix in="SourceAlpha" type="matrix" values="0 0 0 0 0 0 0 0 0 0 0 0 0 0 0 0 0 0 127 0" result="hardAlpha"/>
<feOffset dy="20.7273"/>
<feGaussianBlur stdDeviation="10.3636"/>
<feColorMatrix type="matrix" values="0 0 0 0 0 0 0 0 0 0 0 0 0 0 0 0 0 0 0.05 0"/>
<feBlend mode="normal" in2="effect1_dropShadow_16822_62175" result="effect2_dropShadow_16822_62175"/>
<feColorMatrix in="SourceAlpha" type="matrix" values="0 0 0 0 0 0 0 0 0 0 0 0 0 0 0 0 0 0 127 0" result="hardAlpha"/>
<feOffset dy="45.8182"/>
<feGaussianBlur stdDeviation="13.6364"/>
<feColorMatrix type="matrix" values="0 0 0 0 0 0 0 0 0 0 0 0 0 0 0 0 0 0 0.03 0"/>
<feBlend mode="normal" in2="effect2_dropShadow_16822_62175" result="effect3_dropShadow_16822_62175"/>
<feColorMatrix in="SourceAlpha" type="matrix" values="0 0 0 0 0 0 0 0 0 0 0 0 0 0 0 0 0 0 127 0" result="hardAlpha"/>
<feOffset dy="81.8182"/>
<feGaussianBlur stdDeviation="16.3636"/>
<feColorMatrix type="matrix" values="0 0 0 0 0 0 0 0 0 0 0 0 0 0 0 0 0 0 0.01 0"/>
<feBlend mode="normal" in2="effect3_dropShadow_16822_62175" result="effect4_dropShadow_16822_62175"/>
<feBlend mode="normal" in="SourceGraphic" in2="effect4_dropShadow_16822_62175" result="shape"/>
</filter>
<clipPath id="clip0_16822_62175">
<rect width="386.667" height="148" fill="white"/>
</clipPath>
<clipPath id="clip1_16822_62175">
<rect width="43.4286" height="43.4286" fill="white" transform="translate(79.4385 16.6602)"/>
</clipPath>
<clipPath id="clip2_16822_62175">
<rect width="43.4286" height="43.4286" fill="white" transform="translate(171.438 16.6602)"/>
</clipPath>
<clipPath id="clip3_16822_62175">
<rect width="39.8095" height="39.8095" fill="white" transform="translate(264.095 103.646)"/>
</clipPath>
<clipPath id="clip4_16822_62175">
<rect width="44" height="44" fill="white" transform="translate(78 101.551)"/>
</clipPath>
<clipPath id="clip5_16822_62175">
<rect width="44" height="44" fill="white" transform="translate(169.609 101.16)"/>
</clipPath>
</defs>
</svg>
