<svg width="387" height="148" viewBox="0 0 387 148" fill="none" xmlns="http://www.w3.org/2000/svg">
<g clip-path="url(#clip0_17024_54355)">
<g filter="url(#filter0_dddd_17024_54355)">
<rect x="32.3335" y="47" width="100" height="37.7808" rx="3.97692" fill="white"/>
<rect x="-0.5" y="0.5" width="8.94231" height="8.94231" rx="2.48269" transform="matrix(-1 0 0 1 136.324 60.9199)" fill="#95694B" stroke="#583217"/>
<path d="M51.79 70.366H54.7727V68.8747H51.79V70.366ZM46.5703 61.418V62.9093H59.9924V61.418H46.5703ZM48.8073 66.6377H57.7554V65.1463H48.8073V66.6377Z" fill="#583217"/>
<path d="M71.5311 67.706C71.5311 67.5313 71.5039 67.3759 71.4496 67.24C71.3991 67.1041 71.3078 66.9798 71.1758 66.8672C71.0437 66.7545 70.8573 66.6458 70.6165 66.5409C70.3796 66.4322 70.0767 66.3215 69.7077 66.2089C69.3038 66.0846 68.931 65.9467 68.5892 65.7952C68.2513 65.6399 67.9562 65.4613 67.7037 65.2593C67.4513 65.0535 67.2551 64.8185 67.1153 64.5544C66.9755 64.2864 66.9056 63.9777 66.9056 63.6281C66.9056 63.2825 66.9775 62.9679 67.1212 62.6844C67.2687 62.4009 67.4765 62.1562 67.7445 61.9504C68.0164 61.7407 68.3368 61.5795 68.7057 61.4669C69.0747 61.3503 69.4825 61.2921 69.9291 61.2921C70.5582 61.2921 71.1 61.4086 71.5544 61.6416C72.0127 61.8746 72.3642 62.1873 72.6088 62.5795C72.8574 62.9718 72.9817 63.4048 72.9817 63.8786H71.5311C71.5311 63.599 71.4709 63.3524 71.3505 63.1388C71.234 62.9213 71.0554 62.7504 70.8146 62.6261C70.5777 62.5019 70.2767 62.4397 69.9116 62.4397C69.566 62.4397 69.2786 62.4922 69.0494 62.597C68.8203 62.7019 68.6494 62.8436 68.5368 63.0223C68.4241 63.2009 68.3678 63.4029 68.3678 63.6281C68.3678 63.7874 68.4047 63.933 68.4785 64.0651C68.5523 64.1932 68.6649 64.3136 68.8164 64.4262C68.9679 64.535 69.1582 64.6379 69.3873 64.735C69.6164 64.8321 69.8864 64.9253 70.1971 65.0146C70.667 65.1544 71.0767 65.3098 71.4263 65.4807C71.7758 65.6477 72.0671 65.838 72.3001 66.0516C72.5331 66.2652 72.7079 66.5079 72.8244 66.7798C72.9409 67.0477 72.9992 67.3526 72.9992 67.6944C72.9992 68.0517 72.9273 68.374 72.7836 68.6614C72.6399 68.9449 72.4341 69.1877 72.1661 69.3896C71.902 69.5877 71.5835 69.7411 71.2107 69.8498C70.8418 69.9547 70.4301 70.0071 69.9757 70.0071C69.5679 70.0071 69.1659 69.9528 68.7698 69.844C68.3775 69.7353 68.0202 69.5702 67.6979 69.3488C67.3755 69.1236 67.1192 68.844 66.9289 68.51C66.7386 68.1721 66.6435 67.7779 66.6435 67.3274H68.1057C68.1057 67.6031 68.1523 67.8381 68.2455 68.0323C68.3426 68.2265 68.4766 68.3857 68.6475 68.51C68.8183 68.6304 69.0164 68.7197 69.2417 68.7779C69.4708 68.8362 69.7155 68.8653 69.9757 68.8653C70.3175 68.8653 70.6029 68.8168 70.832 68.7197C71.0651 68.6226 71.2398 68.4867 71.3563 68.3119C71.4729 68.1371 71.5311 67.9352 71.5311 67.706ZM76.7275 68.8886C76.9567 68.8886 77.1625 68.844 77.345 68.7546C77.5315 68.6614 77.681 68.5333 77.7936 68.3702C77.9101 68.207 77.9742 68.0187 77.9858 67.8051H79.3082C79.3005 68.2129 79.1801 68.5838 78.9471 68.9178C78.714 69.2518 78.4053 69.5178 78.0208 69.7159C77.6363 69.91 77.211 70.0071 76.745 70.0071C76.2634 70.0071 75.844 69.9256 75.4867 69.7625C75.1294 69.5955 74.8323 69.3663 74.5954 69.075C74.3585 68.7838 74.1798 68.4478 74.0594 68.0672C73.9429 67.6866 73.8846 67.2788 73.8846 66.8439V66.64C73.8846 66.205 73.9429 65.7972 74.0594 65.4166C74.1798 65.0321 74.3585 64.6942 74.5954 64.4029C74.8323 64.1117 75.1294 63.8845 75.4867 63.7213C75.844 63.5543 76.2615 63.4708 76.7392 63.4708C77.2441 63.4708 77.6868 63.5718 78.0674 63.7738C78.448 63.9718 78.7471 64.2495 78.9645 64.6068C79.1859 64.9603 79.3005 65.3719 79.3082 65.8419H77.9858C77.9742 65.6088 77.9159 65.3991 77.8111 65.2127C77.7101 65.0224 77.5664 64.8709 77.38 64.7583C77.1975 64.6457 76.978 64.5894 76.7217 64.5894C76.4382 64.5894 76.2032 64.6476 76.0168 64.7641C75.8304 64.8768 75.6847 65.0321 75.5799 65.2302C75.475 65.4244 75.3993 65.6438 75.3527 65.8885C75.31 66.1292 75.2886 66.3797 75.2886 66.64V66.8439C75.2886 67.1041 75.31 67.3565 75.3527 67.6012C75.3954 67.8459 75.4692 68.0653 75.5741 68.2595C75.6828 68.4498 75.8304 68.6032 76.0168 68.7197C76.2032 68.8323 76.4401 68.8886 76.7275 68.8886ZM81.7958 64.7874V69.8906H80.3918V63.5874H81.7317L81.7958 64.7874ZM83.724 63.5466L83.7124 64.8515C83.6269 64.836 83.5337 64.8243 83.4328 64.8166C83.3357 64.8088 83.2386 64.8049 83.1415 64.8049C82.9007 64.8049 82.689 64.8399 82.5065 64.9098C82.324 64.9758 82.1705 65.0729 82.0463 65.201C81.9259 65.3253 81.8327 65.4768 81.7666 65.6554C81.7006 65.8341 81.6618 66.0341 81.6501 66.2555L81.3297 66.2788C81.3297 65.8826 81.3686 65.5156 81.4462 65.1777C81.5239 64.8399 81.6404 64.5428 81.7958 64.2864C81.955 64.0301 82.1531 63.8301 82.39 63.6864C82.6308 63.5427 82.9085 63.4708 83.223 63.4708C83.3085 63.4708 83.3997 63.4786 83.4968 63.4941C83.5978 63.5097 83.6735 63.5272 83.724 63.5466ZM86.1067 63.5874V69.8906H84.6969V63.5874H86.1067ZM84.6037 61.9329C84.6037 61.7193 84.6736 61.5426 84.8134 61.4028C84.9571 61.2591 85.1552 61.1872 85.4076 61.1872C85.6562 61.1872 85.8523 61.2591 85.996 61.4028C86.1397 61.5426 86.2115 61.7193 86.2115 61.9329C86.2115 62.1426 86.1397 62.3174 85.996 62.4572C85.8523 62.597 85.6562 62.6669 85.4076 62.6669C85.1552 62.6669 84.9571 62.597 84.8134 62.4572C84.6736 62.3174 84.6037 62.1426 84.6037 61.9329ZM89.0544 64.7991V72.3141H87.6505V63.5874H88.9437L89.0544 64.7991ZM93.1615 66.6807V66.8031C93.1615 67.2614 93.1071 67.6866 92.9983 68.0789C92.8935 68.4672 92.7362 68.8071 92.5265 69.0983C92.3206 69.3857 92.0662 69.6091 91.7633 69.7683C91.4604 69.9275 91.1109 70.0071 90.7147 70.0071C90.3225 70.0071 89.9787 69.9353 89.6836 69.7916C89.3923 69.644 89.1457 69.4362 88.9437 69.1683C88.7418 68.9003 88.5787 68.5857 88.4544 68.2245C88.334 67.8594 88.2486 67.4594 88.1981 67.0244V66.5526C88.2486 66.0904 88.334 65.671 88.4544 65.2943C88.5787 64.9175 88.7418 64.5932 88.9437 64.3214C89.1457 64.0495 89.3923 63.8398 89.6836 63.6922C89.9749 63.5446 90.3147 63.4708 90.7031 63.4708C91.0992 63.4708 91.4507 63.5485 91.7575 63.7039C92.0643 63.8553 92.3226 64.0728 92.5323 64.3563C92.742 64.636 92.8993 64.9738 93.0042 65.37C93.109 65.7622 93.1615 66.1992 93.1615 66.6807ZM91.7575 66.8031V66.6807C91.7575 66.3895 91.7303 66.1195 91.6759 65.871C91.6216 65.6185 91.5361 65.3972 91.4196 65.2069C91.3031 65.0166 91.1536 64.869 90.971 64.7641C90.7924 64.6554 90.5768 64.601 90.3244 64.601C90.0758 64.601 89.8622 64.6437 89.6836 64.7292C89.5049 64.8107 89.3554 64.9253 89.235 65.0729C89.1146 65.2205 89.0214 65.3933 88.9554 65.5914C88.8894 65.7855 88.8428 65.9972 88.8156 66.2263V67.3565C88.8622 67.6361 88.9418 67.8925 89.0544 68.1255C89.1671 68.3585 89.3263 68.5449 89.5321 68.6847C89.7418 68.8207 90.0098 68.8886 90.3361 68.8886C90.5885 68.8886 90.804 68.8343 90.9827 68.7255C91.1613 68.6168 91.307 68.4672 91.4196 68.2769C91.5361 68.0828 91.6216 67.8594 91.6759 67.607C91.7303 67.3546 91.7575 67.0866 91.7575 66.8031ZM97.2452 63.5874V64.6127H93.6916V63.5874H97.2452ZM94.7169 62.0436H96.1208V68.1488C96.1208 68.343 96.148 68.4925 96.2024 68.5973C96.2607 68.6983 96.3403 68.7663 96.4412 68.8012C96.5422 68.8362 96.6607 68.8537 96.7966 68.8537C96.8937 68.8537 96.9869 68.8478 97.0762 68.8362C97.1656 68.8245 97.2374 68.8129 97.2918 68.8012L97.2976 69.8731C97.1811 69.9081 97.0452 69.9392 96.8898 69.9664C96.7384 69.9935 96.5636 70.0071 96.3655 70.0071C96.0432 70.0071 95.7577 69.9508 95.5092 69.8382C95.2606 69.7217 95.0664 69.5333 94.9266 69.2731C94.7868 69.0129 94.7169 68.6673 94.7169 68.2362V62.0436Z" fill="#583217"/>
<rect x="27.8628" y="61.4199" width="8.94231" height="8.94231" rx="2.48269" fill="#95694B" stroke="#583217"/>
</g>
<g filter="url(#filter1_dddd_17024_54355)">
<rect x="226.621" y="94.1191" width="128" height="37.7808" rx="3.97692" fill="white"/>
<path d="M243.095 108.535V110.027H249.5L242.349 117.178L243.401 118.229L250.552 111.078V117.483H252.043V108.535H243.095Z" fill="#583217"/>
<path d="M261.356 108.526H264.356C265.001 108.526 265.55 108.623 266.005 108.817C266.459 109.011 266.807 109.299 267.047 109.679C267.292 110.056 267.414 110.522 267.414 111.077C267.414 111.501 267.337 111.874 267.181 112.196C267.026 112.518 266.807 112.79 266.523 113.011C266.24 113.229 265.902 113.398 265.509 113.518L265.067 113.734H262.369L262.358 112.575H264.379C264.729 112.575 265.02 112.512 265.253 112.388C265.486 112.264 265.661 112.095 265.777 111.881C265.898 111.664 265.958 111.419 265.958 111.147C265.958 110.852 265.9 110.596 265.783 110.378C265.671 110.157 265.496 109.988 265.259 109.871C265.022 109.751 264.721 109.691 264.356 109.691H262.818V117.008H261.356V108.526ZM266.197 117.008L264.205 113.198L265.737 113.192L267.758 116.932V117.008H266.197ZM272.092 113.845H269.884V112.685H272.092C272.477 112.685 272.788 112.623 273.024 112.499C273.261 112.375 273.434 112.204 273.543 111.986C273.656 111.765 273.712 111.512 273.712 111.229C273.712 110.961 273.656 110.71 273.543 110.477C273.434 110.24 273.261 110.05 273.024 109.906C272.788 109.763 272.477 109.691 272.092 109.691H270.333V117.008H268.871V108.526H272.092C272.749 108.526 273.306 108.642 273.764 108.875C274.226 109.104 274.578 109.423 274.819 109.831C275.06 110.235 275.18 110.697 275.18 111.217C275.18 111.765 275.06 112.235 274.819 112.627C274.578 113.019 274.226 113.32 273.764 113.53C273.306 113.74 272.749 113.845 272.092 113.845ZM281.501 114.246H282.957C282.91 114.802 282.755 115.297 282.491 115.732C282.227 116.163 281.856 116.503 281.378 116.751C280.901 117 280.32 117.124 279.636 117.124C279.112 117.124 278.64 117.031 278.221 116.845C277.801 116.654 277.442 116.386 277.143 116.041C276.844 115.691 276.615 115.27 276.456 114.777C276.3 114.283 276.223 113.732 276.223 113.122V112.417C276.223 111.808 276.302 111.256 276.462 110.763C276.625 110.27 276.858 109.848 277.161 109.499C277.464 109.145 277.827 108.875 278.25 108.689C278.677 108.502 279.157 108.409 279.689 108.409C280.365 108.409 280.936 108.534 281.402 108.782C281.868 109.031 282.229 109.374 282.485 109.813C282.745 110.252 282.905 110.755 282.963 111.322H281.506C281.468 110.957 281.382 110.644 281.25 110.384C281.122 110.124 280.932 109.926 280.679 109.79C280.427 109.65 280.097 109.58 279.689 109.58C279.355 109.58 279.064 109.642 278.815 109.767C278.567 109.891 278.359 110.073 278.192 110.314C278.025 110.555 277.899 110.852 277.813 111.206C277.732 111.555 277.691 111.955 277.691 112.406V113.122C277.691 113.549 277.728 113.938 277.801 114.287C277.879 114.633 277.996 114.93 278.151 115.179C278.31 115.427 278.512 115.619 278.757 115.755C279.001 115.891 279.295 115.959 279.636 115.959C280.052 115.959 280.388 115.893 280.644 115.761C280.905 115.629 281.101 115.437 281.233 115.184C281.369 114.928 281.458 114.615 281.501 114.246ZM292.266 114.246H293.723C293.676 114.802 293.521 115.297 293.257 115.732C292.993 116.163 292.622 116.503 292.144 116.751C291.666 117 291.086 117.124 290.402 117.124C289.878 117.124 289.406 117.031 288.987 116.845C288.567 116.654 288.208 116.386 287.909 116.041C287.61 115.691 287.381 115.27 287.221 114.777C287.066 114.283 286.988 113.732 286.988 113.122V112.417C286.988 111.808 287.068 111.256 287.227 110.763C287.39 110.27 287.623 109.848 287.926 109.499C288.229 109.145 288.592 108.875 289.016 108.689C289.443 108.502 289.922 108.409 290.455 108.409C291.13 108.409 291.701 108.534 292.167 108.782C292.633 109.031 292.995 109.374 293.251 109.813C293.511 110.252 293.67 110.755 293.729 111.322H292.272C292.233 110.957 292.148 110.644 292.016 110.384C291.888 110.124 291.697 109.926 291.445 109.79C291.192 109.65 290.862 109.58 290.455 109.58C290.121 109.58 289.829 109.642 289.581 109.767C289.332 109.891 289.124 110.073 288.957 110.314C288.79 110.555 288.664 110.852 288.579 111.206C288.497 111.555 288.456 111.955 288.456 112.406V113.122C288.456 113.549 288.493 113.938 288.567 114.287C288.645 114.633 288.761 114.93 288.917 115.179C289.076 115.427 289.278 115.619 289.522 115.755C289.767 115.891 290.06 115.959 290.402 115.959C290.818 115.959 291.154 115.893 291.41 115.761C291.67 115.629 291.866 115.437 291.998 115.184C292.134 114.928 292.224 114.615 292.266 114.246ZM298.465 115.744V112.738C298.465 112.512 298.424 112.318 298.342 112.155C298.261 111.992 298.137 111.866 297.97 111.776C297.806 111.687 297.601 111.642 297.352 111.642C297.123 111.642 296.925 111.681 296.758 111.759C296.591 111.837 296.461 111.942 296.368 112.074C296.274 112.206 296.228 112.355 296.228 112.522H294.83C294.83 112.274 294.89 112.033 295.01 111.8C295.131 111.567 295.305 111.359 295.534 111.176C295.764 110.994 296.037 110.85 296.356 110.745C296.674 110.64 297.032 110.588 297.428 110.588C297.902 110.588 298.321 110.668 298.686 110.827C299.055 110.986 299.344 111.227 299.554 111.549C299.768 111.868 299.875 112.268 299.875 112.749V115.551C299.875 115.839 299.894 116.097 299.933 116.326C299.975 116.551 300.036 116.748 300.113 116.915V117.008H298.674C298.608 116.856 298.556 116.664 298.517 116.431C298.482 116.194 298.465 115.965 298.465 115.744ZM298.669 113.175L298.68 114.043H297.672C297.412 114.043 297.183 114.068 296.985 114.118C296.787 114.165 296.622 114.235 296.49 114.328C296.358 114.421 296.259 114.534 296.193 114.666C296.127 114.798 296.094 114.948 296.094 115.115C296.094 115.282 296.133 115.435 296.21 115.575C296.288 115.711 296.401 115.817 296.548 115.895C296.7 115.973 296.882 116.012 297.096 116.012C297.383 116.012 297.634 115.953 297.847 115.837C298.065 115.716 298.236 115.571 298.36 115.4C298.484 115.225 298.55 115.06 298.558 114.905L299.012 115.528C298.966 115.687 298.886 115.858 298.773 116.041C298.661 116.223 298.513 116.398 298.331 116.565C298.152 116.728 297.937 116.862 297.684 116.967C297.436 117.072 297.148 117.124 296.822 117.124C296.41 117.124 296.043 117.043 295.721 116.88C295.399 116.713 295.146 116.489 294.964 116.21C294.781 115.926 294.69 115.606 294.69 115.248C294.69 114.914 294.752 114.619 294.876 114.363C295.004 114.103 295.191 113.885 295.435 113.711C295.684 113.536 295.987 113.404 296.344 113.314C296.702 113.221 297.109 113.175 297.568 113.175H298.669ZM302.846 108.06V117.008H301.436V108.06H302.846ZM305.886 108.06V117.008H304.477V108.06H305.886Z" fill="#583217"/>
<rect x="222.15" y="108.539" width="8.94231" height="8.94231" rx="2.48269" fill="#95694B" stroke="#583217"/>
</g>
<g filter="url(#filter2_dddd_17024_54355)">
<rect x="226.333" width="127.873" height="37.7808" rx="3.97692" fill="white"/>
<path d="M242.062 24.8542H252.501V23.3628H242.062V24.8542ZM242.062 17.3974H245.045V21.8715H249.519V17.3974H252.501L247.282 12.1777L242.062 17.3974Z" fill="#583217"/>
<path d="M265.531 20.7041C265.531 20.5293 265.504 20.374 265.45 20.238C265.399 20.1021 265.308 19.9778 265.176 19.8652C265.044 19.7526 264.857 19.6438 264.616 19.539C264.38 19.4302 264.077 19.3195 263.708 19.2069C263.304 19.0826 262.931 18.9448 262.589 18.7933C262.251 18.6379 261.956 18.4593 261.704 18.2573C261.451 18.0515 261.255 17.8165 261.115 17.5525C260.976 17.2845 260.906 16.9757 260.906 16.6262C260.906 16.2805 260.977 15.966 261.121 15.6824C261.269 15.3989 261.477 15.1543 261.744 14.9484C262.016 14.7387 262.337 14.5775 262.706 14.4649C263.075 14.3484 263.482 14.2901 263.929 14.2901C264.558 14.2901 265.1 14.4066 265.554 14.6397C266.013 14.8727 266.364 15.1853 266.609 15.5776C266.857 15.9698 266.982 16.4029 266.982 16.8767H265.531C265.531 16.5971 265.471 16.3504 265.351 16.1368C265.234 15.9193 265.055 15.7485 264.815 15.6242C264.578 15.4999 264.277 15.4378 263.912 15.4378C263.566 15.4378 263.279 15.4902 263.049 15.5951C262.82 15.6999 262.649 15.8417 262.537 16.0203C262.424 16.199 262.368 16.4009 262.368 16.6262C262.368 16.7854 262.405 16.9311 262.479 17.0631C262.552 17.1913 262.665 17.3117 262.816 17.4243C262.968 17.533 263.158 17.636 263.387 17.733C263.616 17.8301 263.886 17.9233 264.197 18.0127C264.667 18.1525 265.077 18.3078 265.426 18.4787C265.776 18.6457 266.067 18.836 266.3 19.0496C266.533 19.2632 266.708 19.506 266.824 19.7778C266.941 20.0458 266.999 20.3507 266.999 20.6924C266.999 21.0497 266.927 21.3721 266.784 21.6595C266.64 21.943 266.434 22.1857 266.166 22.3877C265.902 22.5857 265.584 22.7391 265.211 22.8479C264.842 22.9528 264.43 23.0052 263.976 23.0052C263.568 23.0052 263.166 22.9508 262.77 22.8421C262.378 22.7333 262.02 22.5683 261.698 22.3469C261.376 22.1216 261.119 21.842 260.929 21.508C260.739 21.1701 260.643 20.7759 260.643 20.3254H262.106C262.106 20.6012 262.152 20.8361 262.245 21.0303C262.343 21.2245 262.477 21.3837 262.647 21.508C262.818 21.6284 263.016 21.7177 263.242 21.776C263.471 21.8342 263.715 21.8634 263.976 21.8634C264.317 21.8634 264.603 21.8148 264.832 21.7177C265.065 21.6206 265.24 21.4847 265.356 21.3099C265.473 21.1352 265.531 20.9332 265.531 20.7041ZM271.706 21.6245V18.6185C271.706 18.3933 271.665 18.1991 271.584 18.036C271.502 17.8729 271.378 17.7466 271.211 17.6573C271.048 17.568 270.842 17.5233 270.594 17.5233C270.364 17.5233 270.166 17.5622 269.999 17.6398C269.832 17.7175 269.702 17.8224 269.609 17.9544C269.516 18.0865 269.469 18.236 269.469 18.403H268.071C268.071 18.1544 268.131 17.9136 268.252 17.6806C268.372 17.4476 268.547 17.2398 268.776 17.0573C269.005 16.8747 269.279 16.731 269.597 16.6262C269.916 16.5213 270.273 16.4689 270.669 16.4689C271.143 16.4689 271.563 16.5485 271.928 16.7077C272.297 16.867 272.586 17.1078 272.796 17.4301C273.009 17.7486 273.116 18.1486 273.116 18.6302V21.4323C273.116 21.7197 273.135 21.9779 273.174 22.2071C273.217 22.4323 273.277 22.6285 273.355 22.7955V22.8887H271.916C271.85 22.7372 271.797 22.545 271.759 22.3119C271.724 22.075 271.706 21.8459 271.706 21.6245ZM271.91 19.0554L271.922 19.9235H270.914C270.654 19.9235 270.425 19.9487 270.227 19.9992C270.028 20.0458 269.863 20.1157 269.731 20.2089C269.599 20.3021 269.5 20.4147 269.434 20.5468C269.368 20.6788 269.335 20.8284 269.335 20.9954C269.335 21.1624 269.374 21.3158 269.452 21.4556C269.529 21.5915 269.642 21.6983 269.79 21.776C269.941 21.8537 270.124 21.8925 270.337 21.8925C270.625 21.8925 270.875 21.8342 271.089 21.7177C271.306 21.5973 271.477 21.4517 271.601 21.2808C271.726 21.106 271.792 20.941 271.799 20.7856L272.254 21.409C272.207 21.5682 272.128 21.7391 272.015 21.9216C271.902 22.1042 271.755 22.2789 271.572 22.4459C271.394 22.609 271.178 22.743 270.926 22.8479C270.677 22.9528 270.39 23.0052 270.063 23.0052C269.652 23.0052 269.285 22.9236 268.962 22.7605C268.64 22.5935 268.388 22.3702 268.205 22.0906C268.023 21.8071 267.931 21.4867 267.931 21.1293C267.931 20.7954 267.993 20.5002 268.118 20.2439C268.246 19.9837 268.432 19.7662 268.677 19.5914C268.925 19.4166 269.228 19.2846 269.586 19.1953C269.943 19.1021 270.351 19.0554 270.809 19.0554H271.91ZM276.541 21.776L278.085 16.5854H279.542L277.351 22.8887H276.442L276.541 21.776ZM275.359 16.5854L276.932 21.7993L277.007 22.8887H276.099L273.897 16.5854H275.359ZM283.107 23.0052C282.641 23.0052 282.219 22.9295 281.843 22.778C281.47 22.6226 281.151 22.4071 280.887 22.1313C280.627 21.8556 280.427 21.5313 280.287 21.1585C280.147 20.7856 280.078 20.3837 280.078 19.9526V19.7196C280.078 19.2263 280.149 18.7797 280.293 18.3797C280.437 17.9797 280.637 17.6379 280.893 17.3544C281.149 17.067 281.452 16.8476 281.802 16.6961C282.151 16.5446 282.53 16.4689 282.938 16.4689C283.388 16.4689 283.783 16.5446 284.121 16.6961C284.458 16.8476 284.738 17.0612 284.959 17.3369C285.185 17.6088 285.352 17.9331 285.46 18.3098C285.573 18.6865 285.629 19.1021 285.629 19.5564V20.1565H280.759V19.1487H284.243V19.038C284.235 18.7855 284.185 18.5486 284.091 18.3273C284.002 18.1059 283.864 17.9272 283.678 17.7913C283.491 17.6554 283.243 17.5874 282.932 17.5874C282.699 17.5874 282.491 17.6379 282.309 17.7389C282.13 17.836 281.981 17.9777 281.86 18.1641C281.74 18.3506 281.647 18.5758 281.581 18.8399C281.518 19.1001 281.487 19.3933 281.487 19.7196V19.9526C281.487 20.2283 281.524 20.4847 281.598 20.7216C281.676 20.9546 281.788 21.1585 281.936 21.3332C282.083 21.508 282.262 21.6459 282.472 21.7469C282.682 21.844 282.92 21.8925 283.188 21.8925C283.526 21.8925 283.827 21.8245 284.091 21.6886C284.355 21.5527 284.585 21.3604 284.779 21.1119L285.519 21.8284C285.383 22.0265 285.206 22.2168 284.989 22.3993C284.771 22.578 284.505 22.7236 284.19 22.8362C283.88 22.9489 283.519 23.0052 283.107 23.0052ZM293.138 15.5368L290.604 22.8887H289.072L292.265 14.4066H293.243L293.138 15.5368ZM295.259 22.8887L292.719 15.5368L292.608 14.4066H293.593L296.797 22.8887H295.259ZM295.137 19.7429V20.9022H290.523V19.7429H295.137ZM300.391 16.5854V17.6107H296.838V16.5854H300.391ZM297.863 15.0416H299.267V21.1468C299.267 21.341 299.294 21.4905 299.349 21.5954C299.407 21.6964 299.486 21.7643 299.587 21.7993C299.688 21.8342 299.807 21.8517 299.943 21.8517C300.04 21.8517 300.133 21.8459 300.222 21.8342C300.312 21.8226 300.384 21.8109 300.438 21.7993L300.444 22.8712C300.327 22.9061 300.191 22.9372 300.036 22.9644C299.884 22.9916 299.71 23.0052 299.512 23.0052C299.189 23.0052 298.904 22.9489 298.655 22.8362C298.407 22.7197 298.213 22.5314 298.073 22.2712C297.933 22.011 297.863 21.6653 297.863 21.2342V15.0416ZM304.364 16.5854V17.6107H300.811V16.5854H304.364ZM301.836 15.0416H303.24V21.1468C303.24 21.341 303.267 21.4905 303.322 21.5954C303.38 21.6964 303.459 21.7643 303.56 21.7993C303.661 21.8342 303.78 21.8517 303.916 21.8517C304.013 21.8517 304.106 21.8459 304.195 21.8342C304.285 21.8226 304.357 21.8109 304.411 21.7993L304.417 22.8712C304.3 22.9061 304.164 22.9372 304.009 22.9644C303.858 22.9916 303.683 23.0052 303.485 23.0052C303.162 23.0052 302.877 22.9489 302.628 22.8362C302.38 22.7197 302.186 22.5314 302.046 22.2712C301.906 22.011 301.836 21.6653 301.836 21.2342V15.0416ZM306.858 17.7855V22.8887H305.454V16.5854H306.794L306.858 17.7855ZM308.786 16.5446L308.774 17.8496C308.689 17.834 308.596 17.8224 308.495 17.8146C308.398 17.8068 308.301 17.8029 308.203 17.8029C307.963 17.8029 307.751 17.8379 307.568 17.9078C307.386 17.9738 307.232 18.0709 307.108 18.1991C306.988 18.3234 306.895 18.4748 306.829 18.6535C306.763 18.8321 306.724 19.0321 306.712 19.2535L306.392 19.2768C306.392 18.8807 306.43 18.5137 306.508 18.1758C306.586 17.8379 306.702 17.5408 306.858 17.2845C307.017 17.0281 307.215 16.8281 307.452 16.6844C307.693 16.5407 307.97 16.4689 308.285 16.4689C308.37 16.4689 308.462 16.4767 308.559 16.4922C308.66 16.5077 308.735 16.5252 308.786 16.5446ZM311.169 16.5854V22.8887H309.759V16.5854H311.169ZM309.666 14.9309C309.666 14.7173 309.736 14.5406 309.875 14.4008C310.019 14.2571 310.217 14.1853 310.47 14.1853C310.718 14.1853 310.914 14.2571 311.058 14.4008C311.202 14.5406 311.273 14.7173 311.273 14.9309C311.273 15.1407 311.202 15.3154 311.058 15.4552C310.914 15.5951 310.718 15.665 310.47 15.665C310.217 15.665 310.019 15.5951 309.875 15.4552C309.736 15.3154 309.666 15.1407 309.666 14.9309ZM312.712 13.9406H314.116V21.543L313.982 22.8887H312.712V13.9406ZM318.229 19.6788V19.8011C318.229 20.2672 318.177 20.6963 318.072 21.0886C317.971 21.4769 317.816 21.8148 317.606 22.1022C317.4 22.3896 317.144 22.6129 316.837 22.7722C316.534 22.9275 316.182 23.0052 315.782 23.0052C315.39 23.0052 315.048 22.9314 314.757 22.7838C314.466 22.6362 314.221 22.4265 314.023 22.1547C313.829 21.8828 313.672 21.5585 313.551 21.1818C313.431 20.8051 313.345 20.3895 313.295 19.9351V19.5448C313.345 19.0865 313.431 18.671 313.551 18.2981C313.672 17.9214 313.829 17.5971 314.023 17.3253C314.221 17.0495 314.464 16.8378 314.751 16.6903C315.043 16.5427 315.382 16.4689 315.771 16.4689C316.175 16.4689 316.53 16.5466 316.837 16.7019C317.148 16.8573 317.406 17.0786 317.612 17.366C317.818 17.6495 317.971 17.9874 318.072 18.3797C318.177 18.7719 318.229 19.205 318.229 19.6788ZM316.825 19.8011V19.6788C316.825 19.3953 316.802 19.1292 316.755 18.8807C316.709 18.6282 316.631 18.4069 316.522 18.2166C316.417 18.0263 316.274 17.8767 316.091 17.768C315.913 17.6554 315.689 17.5991 315.421 17.5991C315.173 17.5991 314.959 17.6418 314.78 17.7272C314.602 17.8127 314.452 17.9292 314.332 18.0768C314.212 18.2243 314.116 18.3952 314.046 18.5894C313.98 18.7836 313.936 18.9933 313.912 19.2186V20.273C313.947 20.5643 314.021 20.8322 314.134 21.0769C314.25 21.3177 314.413 21.5119 314.623 21.6595C314.833 21.8032 315.103 21.875 315.433 21.875C315.693 21.875 315.913 21.8226 316.091 21.7177C316.27 21.6129 316.412 21.4672 316.516 21.2808C316.625 21.0905 316.703 20.8691 316.75 20.6167C316.8 20.3643 316.825 20.0924 316.825 19.8011ZM323.21 21.4032V16.5854H324.62V22.8887H323.292L323.21 21.4032ZM323.408 20.0924L323.88 20.0807C323.88 20.5041 323.833 20.8944 323.74 21.2517C323.647 21.6051 323.503 21.9139 323.309 22.178C323.115 22.4382 322.866 22.6421 322.563 22.7896C322.261 22.9333 321.897 23.0052 321.474 23.0052C321.167 23.0052 320.886 22.9605 320.629 22.8712C320.373 22.7819 320.152 22.644 319.965 22.4576C319.783 22.2712 319.641 22.0284 319.54 21.7294C319.439 21.4303 319.389 21.073 319.389 20.6575V16.5854H320.792V20.6691C320.792 20.8983 320.82 21.0905 320.874 21.2459C320.928 21.3973 321.002 21.5197 321.095 21.6129C321.189 21.7061 321.297 21.7721 321.422 21.8109C321.546 21.8498 321.678 21.8692 321.818 21.8692C322.218 21.8692 322.532 21.7915 322.762 21.6362C322.995 21.4769 323.16 21.2633 323.257 20.9954C323.358 20.7274 323.408 20.4264 323.408 20.0924ZM328.948 16.5854V17.6107H325.395V16.5854H328.948ZM326.42 15.0416H327.824V21.1468C327.824 21.341 327.851 21.4905 327.905 21.5954C327.964 21.6964 328.043 21.7643 328.144 21.7993C328.245 21.8342 328.364 21.8517 328.5 21.8517C328.597 21.8517 328.69 21.8459 328.779 21.8342C328.869 21.8226 328.94 21.8109 328.995 21.7993L329.001 22.8712C328.884 22.9061 328.748 22.9372 328.593 22.9644C328.441 22.9916 328.267 23.0052 328.069 23.0052C327.746 23.0052 327.461 22.9489 327.212 22.8362C326.964 22.7197 326.77 22.5314 326.63 22.2712C326.49 22.011 326.42 21.6653 326.42 21.2342V15.0416ZM332.811 23.0052C332.345 23.0052 331.923 22.9295 331.546 22.778C331.174 22.6226 330.855 22.4071 330.591 22.1313C330.331 21.8556 330.131 21.5313 329.991 21.1585C329.851 20.7856 329.781 20.3837 329.781 19.9526V19.7196C329.781 19.2263 329.853 18.7797 329.997 18.3797C330.141 17.9797 330.341 17.6379 330.597 17.3544C330.853 17.067 331.156 16.8476 331.506 16.6961C331.855 16.5446 332.234 16.4689 332.642 16.4689C333.092 16.4689 333.486 16.5446 333.824 16.6961C334.162 16.8476 334.442 17.0612 334.663 17.3369C334.888 17.6088 335.055 17.9331 335.164 18.3098C335.277 18.6865 335.333 19.1021 335.333 19.5564V20.1565H330.463V19.1487H333.947V19.038C333.939 18.7855 333.888 18.5486 333.795 18.3273C333.706 18.1059 333.568 17.9272 333.382 17.7913C333.195 17.6554 332.947 17.5874 332.636 17.5874C332.403 17.5874 332.195 17.6379 332.013 17.7389C331.834 17.836 331.684 17.9777 331.564 18.1641C331.444 18.3506 331.35 18.5758 331.284 18.8399C331.222 19.1001 331.191 19.3933 331.191 19.7196V19.9526C331.191 20.2283 331.228 20.4847 331.302 20.7216C331.379 20.9546 331.492 21.1585 331.64 21.3332C331.787 21.508 331.966 21.6459 332.176 21.7469C332.385 21.844 332.624 21.8925 332.892 21.8925C333.23 21.8925 333.531 21.8245 333.795 21.6886C334.059 21.5527 334.288 21.3604 334.483 21.1119L335.222 21.8284C335.086 22.0265 334.91 22.2168 334.692 22.3993C334.475 22.578 334.209 22.7236 333.894 22.8362C333.583 22.9489 333.222 23.0052 332.811 23.0052ZM339.964 21.1818C339.964 21.042 339.929 20.9157 339.86 20.8031C339.79 20.6866 339.656 20.5817 339.458 20.4885C339.263 20.3953 338.976 20.3099 338.595 20.2322C338.261 20.1584 337.955 20.071 337.675 19.9701C337.399 19.8652 337.162 19.739 336.964 19.5914C336.766 19.4438 336.613 19.2691 336.504 19.0671C336.395 18.8651 336.341 18.6321 336.341 18.368C336.341 18.1117 336.397 17.869 336.51 17.6398C336.622 17.4107 336.784 17.2087 336.993 17.034C337.203 16.8592 337.457 16.7213 337.757 16.6204C338.059 16.5194 338.397 16.4689 338.77 16.4689C339.298 16.4689 339.751 16.5582 340.128 16.7369C340.508 16.9116 340.799 17.1505 341.001 17.4534C341.203 17.7525 341.304 18.0903 341.304 18.4671H339.9C339.9 18.3001 339.858 18.1447 339.772 18.001C339.691 17.8534 339.566 17.735 339.399 17.6457C339.232 17.5525 339.023 17.5058 338.77 17.5058C338.529 17.5058 338.329 17.5447 338.17 17.6224C338.015 17.6961 337.898 17.7932 337.821 17.9136C337.747 18.034 337.71 18.1661 337.71 18.3098C337.71 18.4146 337.729 18.5098 337.768 18.5952C337.811 18.6768 337.881 18.7525 337.978 18.8224C338.075 18.8884 338.207 18.9506 338.374 19.0088C338.545 19.0671 338.759 19.1234 339.015 19.1778C339.496 19.2788 339.91 19.4089 340.256 19.5681C340.605 19.7234 340.873 19.9254 341.06 20.174C341.246 20.4186 341.339 20.7293 341.339 21.106C341.339 21.3857 341.279 21.642 341.159 21.875C341.042 22.1042 340.871 22.3042 340.646 22.4751C340.421 22.6421 340.151 22.7722 339.836 22.8654C339.526 22.9586 339.176 23.0052 338.788 23.0052C338.217 23.0052 337.733 22.9042 337.337 22.7023C336.941 22.4964 336.64 22.2343 336.434 21.9158C336.232 21.5935 336.131 21.2595 336.131 20.9138H337.489C337.504 21.174 337.576 21.3818 337.704 21.5371C337.836 21.6886 337.999 21.7993 338.193 21.8692C338.392 21.9352 338.595 21.9682 338.805 21.9682C339.058 21.9682 339.269 21.9352 339.44 21.8692C339.611 21.7993 339.741 21.7061 339.83 21.5896C339.92 21.4692 339.964 21.3332 339.964 21.1818Z" fill="#583217"/>
<rect x="221.863" y="14.4199" width="8.94231" height="8.94231" rx="2.48269" fill="#95694B" stroke="#583217"/>
</g>
<path d="M24.0335 65.5129C24.5002 65.7823 24.5002 66.4559 24.0335 66.7254L18.6335 69.843C18.1668 70.1124 17.5835 69.7756 17.5835 69.2368L17.5835 66.8691L0.333497 66.8691L0.333496 65.3691L17.5835 65.3691L17.5835 63.0015C17.5835 62.4626 18.1668 62.1258 18.6335 62.3953L24.0335 65.5129Z" fill="url(#paint0_linear_17024_54355)"/>
<path d="M140.75 65.1483C140.336 65.1483 140 65.4841 140 65.8983C140 66.3125 140.336 66.6483 140.75 66.6483V65.8983V65.1483ZM210.789 22.2284C210.789 22.6426 211.296 22.9355 211.655 22.7284L217.423 19.3983C217.782 19.1912 217.782 18.6054 217.423 18.3983L211.655 15.0682C211.296 14.8611 210.789 15.154 210.789 15.5682V22.2284ZM140.75 65.8983V66.6483H156.02V65.8983V65.1483H140.75V65.8983ZM203.02 18.8983V19.6483H211.539V18.8983V18.1483H203.02V18.8983ZM179.52 42.3983H180.27C180.27 29.8338 190.455 19.6483 203.02 19.6483V18.8983V18.1483C189.627 18.1483 178.77 29.0054 178.77 42.3983H179.52ZM156.02 65.8983V66.6483C169.412 66.6483 180.27 55.7912 180.27 42.3983H179.52H178.77C178.77 54.9628 168.584 65.1483 156.02 65.1483V65.8983Z" fill="#95694B"/>
<path d="M140.75 66.5001C140.336 66.5001 140 66.1643 140 65.7501C140 65.3359 140.336 65.0001 140.75 65.0001V65.7501V66.5001ZM210.789 109.42C210.789 109.006 211.296 108.713 211.655 108.92L217.423 112.25C217.782 112.457 217.782 113.043 217.423 113.25L211.655 116.58C211.296 116.787 210.789 116.494 210.789 116.08V109.42ZM140.75 65.7501V65.0001H156.02V65.7501V66.5001H140.75V65.7501ZM203.02 112.75V112H211.539V112.75V113.5H203.02V112.75ZM179.52 89.2502H180.27C180.27 101.815 190.455 112 203.02 112V112.75V113.5C189.627 113.5 178.77 102.643 178.77 89.2502H179.52ZM156.02 65.7501V65.0001C169.412 65.0001 180.27 75.8573 180.27 89.2502H179.52H178.77C178.77 76.6856 168.584 66.5001 156.02 66.5001V65.7501Z" fill="#95694B"/>
</g>
<defs>
<filter id="filter0_dddd_17024_54355" x="-0.0680218" y="42.4282" width="164.823" height="138.361" filterUnits="userSpaceOnUse" color-interpolation-filters="sRGB">
<feFlood flood-opacity="0" result="BackgroundImageFix"/>
<feColorMatrix in="SourceAlpha" type="matrix" values="0 0 0 0 0 0 0 0 0 0 0 0 0 0 0 0 0 0 127 0" result="hardAlpha"/>
<feOffset dy="4.5718"/>
<feGaussianBlur stdDeviation="4.5718"/>
<feColorMatrix type="matrix" values="0 0 0 0 0 0 0 0 0 0 0 0 0 0 0 0 0 0 0.06 0"/>
<feBlend mode="normal" in2="BackgroundImageFix" result="effect1_dropShadow_17024_54355"/>
<feColorMatrix in="SourceAlpha" type="matrix" values="0 0 0 0 0 0 0 0 0 0 0 0 0 0 0 0 0 0 127 0" result="hardAlpha"/>
<feOffset dy="17.3729"/>
<feGaussianBlur stdDeviation="8.68643"/>
<feColorMatrix type="matrix" values="0 0 0 0 0 0 0 0 0 0 0 0 0 0 0 0 0 0 0.05 0"/>
<feBlend mode="normal" in2="effect1_dropShadow_17024_54355" result="effect2_dropShadow_17024_54355"/>
<feColorMatrix in="SourceAlpha" type="matrix" values="0 0 0 0 0 0 0 0 0 0 0 0 0 0 0 0 0 0 127 0" result="hardAlpha"/>
<feOffset dy="38.4031"/>
<feGaussianBlur stdDeviation="11.4295"/>
<feColorMatrix type="matrix" values="0 0 0 0 0 0 0 0 0 0 0 0 0 0 0 0 0 0 0.03 0"/>
<feBlend mode="normal" in2="effect2_dropShadow_17024_54355" result="effect3_dropShadow_17024_54355"/>
<feColorMatrix in="SourceAlpha" type="matrix" values="0 0 0 0 0 0 0 0 0 0 0 0 0 0 0 0 0 0 127 0" result="hardAlpha"/>
<feOffset dy="68.577"/>
<feGaussianBlur stdDeviation="13.7154"/>
<feColorMatrix type="matrix" values="0 0 0 0 0 0 0 0 0 0 0 0 0 0 0 0 0 0 0.01 0"/>
<feBlend mode="normal" in2="effect3_dropShadow_17024_54355" result="effect4_dropShadow_17024_54355"/>
<feBlend mode="normal" in="SourceGraphic" in2="effect4_dropShadow_17024_54355" result="shape"/>
</filter>
<filter id="filter1_dddd_17024_54355" x="194.22" y="89.5473" width="187.832" height="138.361" filterUnits="userSpaceOnUse" color-interpolation-filters="sRGB">
<feFlood flood-opacity="0" result="BackgroundImageFix"/>
<feColorMatrix in="SourceAlpha" type="matrix" values="0 0 0 0 0 0 0 0 0 0 0 0 0 0 0 0 0 0 127 0" result="hardAlpha"/>
<feOffset dy="4.5718"/>
<feGaussianBlur stdDeviation="4.5718"/>
<feColorMatrix type="matrix" values="0 0 0 0 0 0 0 0 0 0 0 0 0 0 0 0 0 0 0.06 0"/>
<feBlend mode="normal" in2="BackgroundImageFix" result="effect1_dropShadow_17024_54355"/>
<feColorMatrix in="SourceAlpha" type="matrix" values="0 0 0 0 0 0 0 0 0 0 0 0 0 0 0 0 0 0 127 0" result="hardAlpha"/>
<feOffset dy="17.3729"/>
<feGaussianBlur stdDeviation="8.68643"/>
<feColorMatrix type="matrix" values="0 0 0 0 0 0 0 0 0 0 0 0 0 0 0 0 0 0 0.05 0"/>
<feBlend mode="normal" in2="effect1_dropShadow_17024_54355" result="effect2_dropShadow_17024_54355"/>
<feColorMatrix in="SourceAlpha" type="matrix" values="0 0 0 0 0 0 0 0 0 0 0 0 0 0 0 0 0 0 127 0" result="hardAlpha"/>
<feOffset dy="38.4031"/>
<feGaussianBlur stdDeviation="11.4295"/>
<feColorMatrix type="matrix" values="0 0 0 0 0 0 0 0 0 0 0 0 0 0 0 0 0 0 0.03 0"/>
<feBlend mode="normal" in2="effect2_dropShadow_17024_54355" result="effect3_dropShadow_17024_54355"/>
<feColorMatrix in="SourceAlpha" type="matrix" values="0 0 0 0 0 0 0 0 0 0 0 0 0 0 0 0 0 0 127 0" result="hardAlpha"/>
<feOffset dy="68.577"/>
<feGaussianBlur stdDeviation="13.7154"/>
<feColorMatrix type="matrix" values="0 0 0 0 0 0 0 0 0 0 0 0 0 0 0 0 0 0 0.01 0"/>
<feBlend mode="normal" in2="effect3_dropShadow_17024_54355" result="effect4_dropShadow_17024_54355"/>
<feBlend mode="normal" in="SourceGraphic" in2="effect4_dropShadow_17024_54355" result="shape"/>
</filter>
<filter id="filter2_dddd_17024_54355" x="193.932" y="-4.5718" width="187.705" height="138.361" filterUnits="userSpaceOnUse" color-interpolation-filters="sRGB">
<feFlood flood-opacity="0" result="BackgroundImageFix"/>
<feColorMatrix in="SourceAlpha" type="matrix" values="0 0 0 0 0 0 0 0 0 0 0 0 0 0 0 0 0 0 127 0" result="hardAlpha"/>
<feOffset dy="4.5718"/>
<feGaussianBlur stdDeviation="4.5718"/>
<feColorMatrix type="matrix" values="0 0 0 0 0 0 0 0 0 0 0 0 0 0 0 0 0 0 0.06 0"/>
<feBlend mode="normal" in2="BackgroundImageFix" result="effect1_dropShadow_17024_54355"/>
<feColorMatrix in="SourceAlpha" type="matrix" values="0 0 0 0 0 0 0 0 0 0 0 0 0 0 0 0 0 0 127 0" result="hardAlpha"/>
<feOffset dy="17.3729"/>
<feGaussianBlur stdDeviation="8.68643"/>
<feColorMatrix type="matrix" values="0 0 0 0 0 0 0 0 0 0 0 0 0 0 0 0 0 0 0.05 0"/>
<feBlend mode="normal" in2="effect1_dropShadow_17024_54355" result="effect2_dropShadow_17024_54355"/>
<feColorMatrix in="SourceAlpha" type="matrix" values="0 0 0 0 0 0 0 0 0 0 0 0 0 0 0 0 0 0 127 0" result="hardAlpha"/>
<feOffset dy="38.4031"/>
<feGaussianBlur stdDeviation="11.4295"/>
<feColorMatrix type="matrix" values="0 0 0 0 0 0 0 0 0 0 0 0 0 0 0 0 0 0 0.03 0"/>
<feBlend mode="normal" in2="effect2_dropShadow_17024_54355" result="effect3_dropShadow_17024_54355"/>
<feColorMatrix in="SourceAlpha" type="matrix" values="0 0 0 0 0 0 0 0 0 0 0 0 0 0 0 0 0 0 127 0" result="hardAlpha"/>
<feOffset dy="68.577"/>
<feGaussianBlur stdDeviation="13.7154"/>
<feColorMatrix type="matrix" values="0 0 0 0 0 0 0 0 0 0 0 0 0 0 0 0 0 0 0.01 0"/>
<feBlend mode="normal" in2="effect3_dropShadow_17024_54355" result="effect4_dropShadow_17024_54355"/>
<feBlend mode="normal" in="SourceGraphic" in2="effect4_dropShadow_17024_54355" result="shape"/>
</filter>
<linearGradient id="paint0_linear_17024_54355" x1="2.3335" y1="66.6191" x2="25.0835" y2="66.6191" gradientUnits="userSpaceOnUse">
<stop stop-color="#95694B" stop-opacity="0"/>
<stop offset="1" stop-color="#95694B"/>
</linearGradient>
<clipPath id="clip0_17024_54355">
<rect width="387" height="148" fill="white"/>
</clipPath>
</defs>
</svg>
