<svg width="387" height="148" viewBox="0 0 387 148" fill="none" xmlns="http://www.w3.org/2000/svg">
<g clip-path="url(#clip0_16954_27728)">
<g filter="url(#filter0_dddd_16954_27728)">
<rect x="143" width="220" height="156" rx="6" fill="white"/>
<path d="M158.474 29.359V33.6367H157.933V30.034L156.843 30.4314V29.9434L158.389 29.359H158.474ZM162.933 31.1706V31.8193C162.933 32.168 162.902 32.4621 162.84 32.7017C162.778 32.9413 162.688 33.1341 162.571 33.2802C162.454 33.4263 162.313 33.5325 162.147 33.5987C161.984 33.663 161.799 33.6952 161.592 33.6952C161.429 33.6952 161.278 33.6747 161.139 33.6338C161.001 33.5929 160.876 33.5276 160.765 33.438C160.656 33.3465 160.563 33.2276 160.485 33.0816C160.407 32.9355 160.348 32.7582 160.307 32.5498C160.266 32.3413 160.245 32.0978 160.245 31.8193V31.1706C160.245 30.8219 160.276 30.5297 160.339 30.294C160.403 30.0583 160.494 29.8694 160.611 29.7272C160.727 29.583 160.868 29.4798 161.031 29.4175C161.197 29.3551 161.382 29.324 161.586 29.324C161.752 29.324 161.904 29.3444 162.042 29.3853C162.183 29.4243 162.307 29.4876 162.416 29.5752C162.525 29.661 162.618 29.7759 162.694 29.92C162.772 30.0622 162.831 30.2366 162.872 30.4431C162.913 30.6495 162.933 30.8921 162.933 31.1706ZM162.39 31.9069V31.08C162.39 30.8891 162.378 30.7216 162.355 30.5775C162.334 30.4314 162.301 30.3067 162.259 30.2035C162.216 30.1002 162.161 30.0165 162.095 29.9522C162.031 29.8879 161.956 29.8411 161.87 29.8119C161.786 29.7807 161.692 29.7652 161.586 29.7652C161.458 29.7652 161.344 29.7895 161.245 29.8382C161.145 29.885 161.061 29.96 160.993 30.0632C160.927 30.1664 160.876 30.3018 160.841 30.4694C160.806 30.6369 160.789 30.8404 160.789 31.08V31.9069C160.789 32.0978 160.799 32.2663 160.821 32.4124C160.844 32.5585 160.878 32.6851 160.923 32.7923C160.968 32.8975 161.023 32.9842 161.087 33.0523C161.151 33.1205 161.225 33.1712 161.309 33.2043C161.395 33.2354 161.489 33.251 161.592 33.251C161.725 33.251 161.841 33.2257 161.94 33.1751C162.039 33.1244 162.122 33.0455 162.188 32.9384C162.257 32.8293 162.307 32.69 162.34 32.5205C162.373 32.3491 162.39 32.1446 162.39 31.9069ZM166.499 31.1706V31.8193C166.499 32.168 166.468 32.4621 166.406 32.7017C166.343 32.9413 166.254 33.1341 166.137 33.2802C166.02 33.4263 165.879 33.5325 165.713 33.5987C165.549 33.663 165.364 33.6952 165.158 33.6952C164.994 33.6952 164.843 33.6747 164.705 33.6338C164.567 33.5929 164.442 33.5276 164.331 33.438C164.222 33.3465 164.128 33.2276 164.05 33.0816C163.973 32.9355 163.913 32.7582 163.872 32.5498C163.831 32.3413 163.811 32.0978 163.811 31.8193V31.1706C163.811 30.8219 163.842 30.5297 163.904 30.294C163.969 30.0583 164.059 29.8694 164.176 29.7272C164.293 29.583 164.433 29.4798 164.597 29.4175C164.762 29.3551 164.947 29.324 165.152 29.324C165.318 29.324 165.47 29.3444 165.608 29.3853C165.748 29.4243 165.873 29.4876 165.982 29.5752C166.091 29.661 166.183 29.7759 166.259 29.92C166.337 30.0622 166.397 30.2366 166.438 30.4431C166.479 30.6495 166.499 30.8921 166.499 31.1706ZM165.956 31.9069V31.08C165.956 30.8891 165.944 30.7216 165.92 30.5775C165.899 30.4314 165.867 30.3067 165.824 30.2035C165.781 30.1002 165.727 30.0165 165.66 29.9522C165.596 29.8879 165.521 29.8411 165.435 29.8119C165.352 29.7807 165.257 29.7652 165.152 29.7652C165.023 29.7652 164.909 29.7895 164.81 29.8382C164.711 29.885 164.627 29.96 164.559 30.0632C164.493 30.1664 164.442 30.3018 164.407 30.4694C164.372 30.6369 164.354 30.8404 164.354 31.08V31.9069C164.354 32.0978 164.365 32.2663 164.386 32.4124C164.41 32.5585 164.444 32.6851 164.489 32.7923C164.534 32.8975 164.588 32.9842 164.652 33.0523C164.717 33.1205 164.791 33.1712 164.874 33.2043C164.96 33.2354 165.055 33.251 165.158 33.251C165.29 33.251 165.406 33.2257 165.506 33.1751C165.605 33.1244 165.688 33.0455 165.754 32.9384C165.822 32.8293 165.873 32.69 165.906 32.5205C165.939 32.3491 165.956 32.1446 165.956 31.9069ZM167.347 30.4255V30.2005C167.347 30.0389 167.382 29.8918 167.452 29.7593C167.522 29.6269 167.623 29.5207 167.753 29.4408C167.884 29.361 168.039 29.321 168.218 29.321C168.401 29.321 168.557 29.361 168.685 29.4408C168.816 29.5207 168.916 29.6269 168.986 29.7593C169.056 29.8918 169.092 30.0389 169.092 30.2005V30.4255C169.092 30.5833 169.056 30.7284 168.986 30.8609C168.918 30.9933 168.819 31.0995 168.688 31.1794C168.56 31.2592 168.405 31.2992 168.224 31.2992C168.043 31.2992 167.886 31.2592 167.753 31.1794C167.623 31.0995 167.522 30.9933 167.452 30.8609C167.382 30.7284 167.347 30.5833 167.347 30.4255ZM167.753 30.2005V30.4255C167.753 30.5151 167.77 30.5999 167.803 30.6797C167.838 30.7596 167.891 30.8249 167.961 30.8755C168.031 30.9242 168.119 30.9485 168.224 30.9485C168.329 30.9485 168.416 30.9242 168.484 30.8755C168.552 30.8249 168.603 30.7596 168.636 30.6797C168.669 30.5999 168.685 30.5151 168.685 30.4255V30.2005C168.685 30.109 168.668 30.0233 168.633 29.9434C168.6 29.8616 168.548 29.7963 168.478 29.7476C168.41 29.697 168.323 29.6717 168.218 29.6717C168.115 29.6717 168.028 29.697 167.958 29.7476C167.89 29.7963 167.838 29.8616 167.803 29.9434C167.77 30.0233 167.753 30.109 167.753 30.2005ZM169.419 32.8215V32.5936C169.419 32.4339 169.454 32.2878 169.524 32.1553C169.594 32.0228 169.694 31.9167 169.825 31.8368C169.955 31.7569 170.11 31.717 170.29 31.717C170.473 31.717 170.628 31.7569 170.757 31.8368C170.888 31.9167 170.988 32.0228 171.058 32.1553C171.128 32.2878 171.163 32.4339 171.163 32.5936V32.8215C171.163 32.9812 171.128 33.1273 171.058 33.2598C170.99 33.3923 170.89 33.4984 170.76 33.5783C170.631 33.6581 170.477 33.6981 170.295 33.6981C170.114 33.6981 169.958 33.6581 169.828 33.5783C169.697 33.4984 169.596 33.3923 169.524 33.2598C169.454 33.1273 169.419 32.9812 169.419 32.8215ZM169.825 32.5936V32.8215C169.825 32.9111 169.841 32.9968 169.875 33.0786C169.91 33.1585 169.962 33.2238 170.032 33.2744C170.103 33.3231 170.19 33.3474 170.295 33.3474C170.401 33.3474 170.487 33.3231 170.555 33.2744C170.626 33.2238 170.677 33.1585 170.71 33.0786C170.743 32.9988 170.76 32.9131 170.76 32.8215V32.5936C170.76 32.502 170.742 32.4163 170.707 32.3365C170.674 32.2566 170.623 32.1923 170.552 32.1436C170.484 32.093 170.397 32.0676 170.29 32.0676C170.186 32.0676 170.1 32.093 170.029 32.1436C169.961 32.1923 169.91 32.2566 169.875 32.3365C169.841 32.4163 169.825 32.502 169.825 32.5936ZM170.424 29.9872L168.346 33.3124L168.043 33.1195L170.12 29.7944L170.424 29.9872Z" fill="black" fill-opacity="0.54"/>
<path d="M162.969 54.1925C162.969 54.4516 162.909 54.6717 162.788 54.8529C162.669 55.0321 162.508 55.1684 162.303 55.2619C162.101 55.3554 161.872 55.4022 161.617 55.4022C161.361 55.4022 161.132 55.3554 160.927 55.2619C160.723 55.1684 160.561 55.0321 160.442 54.8529C160.323 54.6717 160.264 54.4516 160.264 54.1925C160.264 54.023 160.296 53.8682 160.36 53.7279C160.426 53.5857 160.519 53.462 160.638 53.3568C160.759 53.2517 160.901 53.1708 161.064 53.1143C161.23 53.0559 161.412 53.0267 161.611 53.0267C161.872 53.0267 162.105 53.0773 162.309 53.1786C162.514 53.2779 162.674 53.4153 162.791 53.5906C162.91 53.7659 162.969 53.9665 162.969 54.1925ZM162.426 54.1808C162.426 54.023 162.392 53.8838 162.324 53.763C162.256 53.6403 162.16 53.5448 162.037 53.4766C161.915 53.4085 161.772 53.3744 161.611 53.3744C161.445 53.3744 161.302 53.4085 161.181 53.4766C161.062 53.5448 160.97 53.6403 160.904 53.763C160.837 53.8838 160.804 54.023 160.804 54.1808C160.804 54.3445 160.836 54.4847 160.901 54.6016C160.967 54.7165 161.06 54.8051 161.181 54.8675C161.304 54.9279 161.449 54.9581 161.617 54.9581C161.784 54.9581 161.928 54.9279 162.049 54.8675C162.17 54.8051 162.262 54.7165 162.327 54.6016C162.393 54.4847 162.426 54.3445 162.426 54.1808ZM162.87 52.1968C162.87 52.4033 162.816 52.5893 162.707 52.7549C162.597 52.9205 162.448 53.051 162.259 53.1465C162.07 53.2419 161.856 53.2896 161.617 53.2896C161.373 53.2896 161.156 53.2419 160.965 53.1465C160.776 53.051 160.628 52.9205 160.521 52.7549C160.414 52.5893 160.36 52.4033 160.36 52.1968C160.36 51.9494 160.414 51.7391 160.521 51.5657C160.63 51.3923 160.779 51.2599 160.968 51.1683C161.157 51.0768 161.372 51.031 161.614 51.031C161.857 51.031 162.073 51.0768 162.262 51.1683C162.451 51.2599 162.599 51.3923 162.707 51.5657C162.816 51.7391 162.87 51.9494 162.87 52.1968ZM162.33 52.2056C162.33 52.0634 162.299 51.9378 162.239 51.8287C162.179 51.7196 162.095 51.6339 161.988 51.5715C161.881 51.5073 161.756 51.4751 161.614 51.4751C161.472 51.4751 161.347 51.5053 161.24 51.5657C161.135 51.6241 161.052 51.7079 160.991 51.817C160.933 51.9261 160.904 52.0556 160.904 52.2056C160.904 52.3517 160.933 52.4793 160.991 52.5884C161.052 52.6975 161.135 52.7822 161.243 52.8426C161.35 52.903 161.474 52.9332 161.617 52.9332C161.759 52.9332 161.883 52.903 161.988 52.8426C162.095 52.7822 162.179 52.6975 162.239 52.5884C162.299 52.4793 162.33 52.3517 162.33 52.2056ZM166.523 52.8776V53.5263C166.523 53.875 166.492 54.1691 166.43 54.4087C166.367 54.6483 166.278 54.8412 166.161 54.9873C166.044 55.1334 165.903 55.2395 165.737 55.3058C165.574 55.37 165.389 55.4022 165.182 55.4022C165.019 55.4022 164.868 55.3817 164.729 55.3408C164.591 55.2999 164.466 55.2347 164.355 55.1451C164.246 55.0535 164.153 54.9347 164.075 54.7886C163.997 54.6425 163.937 54.4652 163.897 54.2568C163.856 54.0484 163.835 53.8049 163.835 53.5263V52.8776C163.835 52.529 163.866 52.2368 163.929 52.0011C163.993 51.7654 164.084 51.5764 164.2 51.4342C164.317 51.2901 164.458 51.1868 164.621 51.1245C164.787 51.0622 164.972 51.031 165.176 51.031C165.342 51.031 165.494 51.0514 165.632 51.0923C165.772 51.1313 165.897 51.1946 166.006 51.2823C166.115 51.368 166.208 51.4829 166.284 51.6271C166.362 51.7693 166.421 51.9436 166.462 52.1501C166.503 52.3566 166.523 52.5991 166.523 52.8776ZM165.98 53.614V52.7871C165.98 52.5962 165.968 52.4286 165.945 52.2845C165.923 52.1384 165.891 52.0137 165.848 51.9105C165.805 51.8072 165.751 51.7235 165.685 51.6592C165.62 51.5949 165.545 51.5482 165.46 51.5189C165.376 51.4878 165.281 51.4722 165.176 51.4722C165.048 51.4722 164.934 51.4965 164.834 51.5452C164.735 51.592 164.651 51.667 164.583 51.7702C164.517 51.8735 164.466 52.0089 164.431 52.1764C164.396 52.3439 164.379 52.5475 164.379 52.7871V53.614C164.379 53.8049 164.389 53.9734 164.411 54.1195C164.434 54.2656 164.468 54.3922 164.513 54.4993C164.558 54.6045 164.612 54.6912 164.677 54.7594C164.741 54.8275 164.815 54.8782 164.899 54.9113C164.984 54.9425 165.079 54.9581 165.182 54.9581C165.315 54.9581 165.431 54.9327 165.53 54.8821C165.629 54.8314 165.712 54.7525 165.778 54.6454C165.846 54.5363 165.897 54.397 165.93 54.2276C165.963 54.0562 165.98 53.8516 165.98 53.614ZM167.371 52.1326V51.9076C167.371 51.7459 167.407 51.5988 167.477 51.4664C167.547 51.3339 167.647 51.2277 167.778 51.1479C167.908 51.068 168.063 51.0281 168.242 51.0281C168.425 51.0281 168.581 51.068 168.71 51.1479C168.84 51.2277 168.941 51.3339 169.011 51.4664C169.081 51.5988 169.116 51.7459 169.116 51.9076V52.1326C169.116 52.2903 169.081 52.4355 169.011 52.5679C168.942 52.7004 168.843 52.8065 168.713 52.8864C168.584 52.9663 168.429 53.0062 168.248 53.0062C168.067 53.0062 167.91 52.9663 167.778 52.8864C167.647 52.8065 167.547 52.7004 167.477 52.5679C167.407 52.4355 167.371 52.2903 167.371 52.1326ZM167.778 51.9076V52.1326C167.778 52.2222 167.794 52.3069 167.827 52.3868C167.862 52.4666 167.915 52.5319 167.985 52.5825C168.055 52.6312 168.143 52.6556 168.248 52.6556C168.353 52.6556 168.44 52.6312 168.508 52.5825C168.576 52.5319 168.627 52.4666 168.66 52.3868C168.693 52.3069 168.71 52.2222 168.71 52.1326V51.9076C168.71 51.816 168.692 51.7303 168.657 51.6504C168.624 51.5686 168.572 51.5034 168.502 51.4547C168.434 51.404 168.347 51.3787 168.242 51.3787C168.139 51.3787 168.052 51.404 167.982 51.4547C167.914 51.5034 167.862 51.5686 167.827 51.6504C167.794 51.7303 167.778 51.816 167.778 51.9076ZM169.443 54.5285V54.3006C169.443 54.1409 169.478 53.9948 169.548 53.8623C169.618 53.7299 169.719 53.6237 169.849 53.5438C169.98 53.464 170.135 53.424 170.314 53.424C170.497 53.424 170.653 53.464 170.781 53.5438C170.912 53.6237 171.012 53.7299 171.082 53.8623C171.152 53.9948 171.187 54.1409 171.187 54.3006V54.5285C171.187 54.6883 171.152 54.8344 171.082 54.9668C171.014 55.0993 170.915 55.2054 170.784 55.2853C170.656 55.3652 170.501 55.4051 170.32 55.4051C170.139 55.4051 169.983 55.3652 169.852 55.2853C169.722 55.2054 169.62 55.0993 169.548 54.9668C169.478 54.8344 169.443 54.6883 169.443 54.5285ZM169.849 54.3006V54.5285C169.849 54.6181 169.866 54.7038 169.899 54.7857C169.934 54.8655 169.987 54.9308 170.057 54.9814C170.127 55.0301 170.214 55.0545 170.32 55.0545C170.425 55.0545 170.512 55.0301 170.58 54.9814C170.65 54.9308 170.701 54.8655 170.735 54.7857C170.768 54.7058 170.784 54.6201 170.784 54.5285V54.3006C170.784 54.2091 170.767 54.1234 170.732 54.0435C170.699 53.9636 170.647 53.8993 170.577 53.8506C170.509 53.8 170.421 53.7747 170.314 53.7747C170.211 53.7747 170.124 53.8 170.054 53.8506C169.986 53.8993 169.934 53.9636 169.899 54.0435C169.866 54.1234 169.849 54.2091 169.849 54.3006ZM170.448 51.6943L168.371 55.0194L168.067 54.8266L170.144 51.5014L170.448 51.6943Z" fill="black" fill-opacity="0.54"/>
<path d="M162.362 75.6226H162.408V76.0814H162.362C162.075 76.0814 161.836 76.1281 161.643 76.2216C161.45 76.3132 161.297 76.4369 161.184 76.5927C161.071 76.7466 160.989 76.92 160.939 77.1128C160.89 77.3057 160.866 77.5014 160.866 77.7001V78.3254C160.866 78.5144 160.888 78.6819 160.933 78.828C160.978 78.9721 161.039 79.0939 161.117 79.1932C161.195 79.2926 161.283 79.3676 161.38 79.4182C161.479 79.4689 161.583 79.4942 161.69 79.4942C161.814 79.4942 161.925 79.4708 162.023 79.4241C162.12 79.3754 162.202 79.3082 162.268 79.2225C162.336 79.1348 162.388 79.0316 162.423 78.9127C162.458 78.7939 162.476 78.6634 162.476 78.5212C162.476 78.3946 162.46 78.2728 162.429 78.156C162.398 78.0371 162.35 77.9319 162.286 77.8404C162.221 77.7469 162.141 77.6738 162.043 77.6212C161.948 77.5667 161.834 77.5394 161.701 77.5394C161.551 77.5394 161.411 77.5764 161.281 77.6505C161.152 77.7225 161.046 77.818 160.962 77.9368C160.88 78.0537 160.834 78.1813 160.822 78.3196L160.536 78.3167C160.563 78.0985 160.613 77.9125 160.687 77.7586C160.763 77.6027 160.857 77.4761 160.968 77.3787C161.081 77.2794 161.207 77.2073 161.345 77.1625C161.485 77.1157 161.633 77.0924 161.789 77.0924C162.001 77.0924 162.184 77.1323 162.338 77.2122C162.492 77.292 162.619 77.3992 162.718 77.5336C162.818 77.666 162.891 77.816 162.937 77.9836C162.986 78.1491 163.01 78.3196 163.01 78.4949C163.01 78.6955 162.982 78.8835 162.926 79.0588C162.869 79.2341 162.784 79.388 162.671 79.5205C162.56 79.653 162.423 79.7562 162.259 79.8302C162.096 79.9042 161.906 79.9413 161.69 79.9413C161.46 79.9413 161.259 79.8945 161.088 79.801C160.916 79.7055 160.774 79.5789 160.661 79.4211C160.548 79.2634 160.463 79.088 160.407 78.8952C160.35 78.7024 160.322 78.5066 160.322 78.3079V78.0537C160.322 77.7537 160.352 77.4596 160.413 77.1713C160.473 76.883 160.577 76.6219 160.725 76.3882C160.875 76.1544 161.083 75.9684 161.348 75.8301C161.613 75.6918 161.951 75.6226 162.362 75.6226ZM166.523 77.4167V78.0654C166.523 78.4141 166.492 78.7082 166.43 78.9478C166.367 79.1874 166.278 79.3802 166.161 79.5263C166.044 79.6724 165.903 79.7786 165.737 79.8448C165.574 79.9091 165.389 79.9413 165.182 79.9413C165.019 79.9413 164.868 79.9208 164.729 79.8799C164.591 79.839 164.466 79.7737 164.355 79.6841C164.246 79.5926 164.153 79.4737 164.075 79.3276C163.997 79.1816 163.937 79.0043 163.897 78.7959C163.856 78.5874 163.835 78.3439 163.835 78.0654V77.4167C163.835 77.068 163.866 76.7758 163.929 76.5401C163.993 76.3044 164.084 76.1155 164.2 75.9733C164.317 75.8291 164.458 75.7259 164.621 75.6636C164.787 75.6012 164.972 75.57 165.176 75.57C165.342 75.57 165.494 75.5905 165.632 75.6314C165.772 75.6704 165.897 75.7337 166.006 75.8213C166.115 75.907 166.208 76.022 166.284 76.1661C166.362 76.3083 166.421 76.4827 166.462 76.6891C166.503 76.8956 166.523 77.1381 166.523 77.4167ZM165.98 78.153V77.3261C165.98 77.1352 165.968 76.9677 165.945 76.8236C165.923 76.6775 165.891 76.5528 165.848 76.4495C165.805 76.3463 165.751 76.2625 165.685 76.1983C165.62 76.134 165.545 76.0872 165.46 76.058C165.376 76.0268 165.281 76.0113 165.176 76.0113C165.048 76.0113 164.934 76.0356 164.834 76.0843C164.735 76.1311 164.651 76.2061 164.583 76.3093C164.517 76.4125 164.466 76.5479 164.431 76.7154C164.396 76.883 164.379 77.0865 164.379 77.3261V78.153C164.379 78.3439 164.389 78.5124 164.411 78.6585C164.434 78.8046 164.468 78.9312 164.513 79.0384C164.558 79.1436 164.612 79.2302 164.677 79.2984C164.741 79.3666 164.815 79.4173 164.899 79.4504C164.984 79.4815 165.079 79.4971 165.182 79.4971C165.315 79.4971 165.431 79.4718 165.53 79.4211C165.629 79.3705 165.712 79.2916 165.778 79.1845C165.846 79.0754 165.897 78.9361 165.93 78.7666C165.963 78.5952 165.98 78.3907 165.98 78.153ZM167.371 76.6716V76.4466C167.371 76.2849 167.407 76.1379 167.477 76.0054C167.547 75.873 167.647 75.7668 167.778 75.6869C167.908 75.6071 168.063 75.5671 168.242 75.5671C168.425 75.5671 168.581 75.6071 168.71 75.6869C168.84 75.7668 168.941 75.873 169.011 76.0054C169.081 76.1379 169.116 76.2849 169.116 76.4466V76.6716C169.116 76.8294 169.081 76.9745 169.011 77.107C168.942 77.2394 168.843 77.3456 168.713 77.4255C168.584 77.5053 168.429 77.5453 168.248 77.5453C168.067 77.5453 167.91 77.5053 167.778 77.4255C167.647 77.3456 167.547 77.2394 167.477 77.107C167.407 76.9745 167.371 76.8294 167.371 76.6716ZM167.778 76.4466V76.6716C167.778 76.7612 167.794 76.846 167.827 76.9258C167.862 77.0057 167.915 77.0709 167.985 77.1216C168.055 77.1703 168.143 77.1946 168.248 77.1946C168.353 77.1946 168.44 77.1703 168.508 77.1216C168.576 77.0709 168.627 77.0057 168.66 76.9258C168.693 76.846 168.71 76.7612 168.71 76.6716V76.4466C168.71 76.3551 168.692 76.2694 168.657 76.1895C168.624 76.1077 168.572 76.0424 168.502 75.9937C168.434 75.9431 168.347 75.9178 168.242 75.9178C168.139 75.9178 168.052 75.9431 167.982 75.9937C167.914 76.0424 167.862 76.1077 167.827 76.1895C167.794 76.2694 167.778 76.3551 167.778 76.4466ZM169.443 79.0676V78.8397C169.443 78.68 169.478 78.5339 169.548 78.4014C169.618 78.2689 169.719 78.1628 169.849 78.0829C169.98 78.003 170.135 77.9631 170.314 77.9631C170.497 77.9631 170.653 78.003 170.781 78.0829C170.912 78.1628 171.012 78.2689 171.082 78.4014C171.152 78.5339 171.187 78.68 171.187 78.8397V79.0676C171.187 79.2273 171.152 79.3734 171.082 79.5059C171.014 79.6383 170.915 79.7445 170.784 79.8244C170.656 79.9042 170.501 79.9442 170.32 79.9442C170.139 79.9442 169.983 79.9042 169.852 79.8244C169.722 79.7445 169.62 79.6383 169.548 79.5059C169.478 79.3734 169.443 79.2273 169.443 79.0676ZM169.849 78.8397V79.0676C169.849 79.1572 169.866 79.2429 169.899 79.3247C169.934 79.4046 169.987 79.4698 170.057 79.5205C170.127 79.5692 170.214 79.5935 170.32 79.5935C170.425 79.5935 170.512 79.5692 170.58 79.5205C170.65 79.4698 170.701 79.4046 170.735 79.3247C170.768 79.2449 170.784 79.1591 170.784 79.0676V78.8397C170.784 78.7481 170.767 78.6624 170.732 78.5826C170.699 78.5027 170.647 78.4384 170.577 78.3897C170.509 78.3391 170.421 78.3137 170.314 78.3137C170.211 78.3137 170.124 78.3391 170.054 78.3897C169.986 78.4384 169.934 78.5027 169.899 78.5826C169.866 78.6624 169.849 78.7481 169.849 78.8397ZM170.448 76.2333L168.371 79.5585L168.067 79.3656L170.144 76.0405L170.448 76.2333Z" fill="black" fill-opacity="0.54"/>
<path d="M163.162 102.99V103.434H160.088V103.116L161.994 100.168H162.435L161.961 101.021L160.702 102.99H163.162ZM162.569 100.168V104.422H162.029V100.168H162.569ZM166.523 101.956V102.604C166.523 102.953 166.492 103.247 166.43 103.487C166.367 103.726 166.278 103.919 166.161 104.065C166.044 104.211 165.903 104.318 165.737 104.384C165.574 104.448 165.389 104.48 165.182 104.48C165.019 104.48 164.868 104.46 164.729 104.419C164.591 104.378 164.466 104.313 164.355 104.223C164.246 104.132 164.153 104.013 164.075 103.867C163.997 103.721 163.937 103.543 163.897 103.335C163.856 103.126 163.835 102.883 163.835 102.604V101.956C163.835 101.607 163.866 101.315 163.929 101.079C163.993 100.843 164.084 100.655 164.2 100.512C164.317 100.368 164.458 100.265 164.621 100.203C164.787 100.14 164.972 100.109 165.176 100.109C165.342 100.109 165.494 100.13 165.632 100.17C165.772 100.209 165.897 100.273 166.006 100.36C166.115 100.446 166.208 100.561 166.284 100.705C166.362 100.847 166.421 101.022 166.462 101.228C166.503 101.435 166.523 101.677 166.523 101.956ZM165.98 102.692V101.865C165.98 101.674 165.968 101.507 165.945 101.363C165.923 101.217 165.891 101.092 165.848 100.989C165.805 100.885 165.751 100.802 165.685 100.737C165.62 100.673 165.545 100.626 165.46 100.597C165.376 100.566 165.281 100.55 165.176 100.55C165.048 100.55 164.934 100.575 164.834 100.623C164.735 100.67 164.651 100.745 164.583 100.848C164.517 100.952 164.466 101.087 164.431 101.255C164.396 101.422 164.379 101.626 164.379 101.865V102.692C164.379 102.883 164.389 103.051 164.411 103.198C164.434 103.344 164.468 103.47 164.513 103.577C164.558 103.683 164.612 103.769 164.677 103.837C164.741 103.906 164.815 103.956 164.899 103.989C164.984 104.021 165.079 104.036 165.182 104.036C165.315 104.036 165.431 104.011 165.53 103.96C165.629 103.91 165.712 103.831 165.778 103.724C165.846 103.614 165.897 103.475 165.93 103.306C165.963 103.134 165.98 102.93 165.98 102.692ZM167.371 101.211V100.986C167.371 100.824 167.407 100.677 167.477 100.544C167.547 100.412 167.647 100.306 167.778 100.226C167.908 100.146 168.063 100.106 168.242 100.106C168.425 100.106 168.581 100.146 168.71 100.226C168.84 100.306 168.941 100.412 169.011 100.544C169.081 100.677 169.116 100.824 169.116 100.986V101.211C169.116 101.368 169.081 101.514 169.011 101.646C168.942 101.779 168.843 101.885 168.713 101.965C168.584 102.044 168.429 102.084 168.248 102.084C168.067 102.084 167.91 102.044 167.778 101.965C167.647 101.885 167.547 101.779 167.477 101.646C167.407 101.514 167.371 101.368 167.371 101.211ZM167.778 100.986V101.211C167.778 101.3 167.794 101.385 167.827 101.465C167.862 101.545 167.915 101.61 167.985 101.661C168.055 101.709 168.143 101.734 168.248 101.734C168.353 101.734 168.44 101.709 168.508 101.661C168.576 101.61 168.627 101.545 168.66 101.465C168.693 101.385 168.71 101.3 168.71 101.211V100.986C168.71 100.894 168.692 100.808 168.657 100.729C168.624 100.647 168.572 100.581 168.502 100.533C168.434 100.482 168.347 100.457 168.242 100.457C168.139 100.457 168.052 100.482 167.982 100.533C167.914 100.581 167.862 100.647 167.827 100.729C167.794 100.808 167.778 100.894 167.778 100.986ZM169.443 103.607V103.379C169.443 103.219 169.478 103.073 169.548 102.94C169.618 102.808 169.719 102.702 169.849 102.622C169.98 102.542 170.135 102.502 170.314 102.502C170.497 102.502 170.653 102.542 170.781 102.622C170.912 102.702 171.012 102.808 171.082 102.94C171.152 103.073 171.187 103.219 171.187 103.379V103.607C171.187 103.766 171.152 103.912 171.082 104.045C171.014 104.177 170.915 104.284 170.784 104.363C170.656 104.443 170.501 104.483 170.32 104.483C170.139 104.483 169.983 104.443 169.852 104.363C169.722 104.284 169.62 104.177 169.548 104.045C169.478 103.912 169.443 103.766 169.443 103.607ZM169.849 103.379V103.607C169.849 103.696 169.866 103.782 169.899 103.864C169.934 103.944 169.987 104.009 170.057 104.06C170.127 104.108 170.214 104.133 170.32 104.133C170.425 104.133 170.512 104.108 170.58 104.06C170.65 104.009 170.701 103.944 170.735 103.864C170.768 103.784 170.784 103.698 170.784 103.607V103.379C170.784 103.287 170.767 103.201 170.732 103.122C170.699 103.042 170.647 102.977 170.577 102.929C170.509 102.878 170.421 102.853 170.314 102.853C170.211 102.853 170.124 102.878 170.054 102.929C169.986 102.977 169.934 103.042 169.899 103.122C169.866 103.201 169.849 103.287 169.849 103.379ZM170.448 100.772L168.371 104.098L168.067 103.905L170.144 100.58L170.448 100.772Z" fill="black" fill-opacity="0.54"/>
<path d="M163.075 129.517V129.961H160.29V129.572L161.684 128.021C161.855 127.83 161.988 127.668 162.081 127.536C162.177 127.401 162.243 127.282 162.28 127.176C162.319 127.069 162.338 126.96 162.338 126.849C162.338 126.709 162.309 126.582 162.251 126.469C162.194 126.354 162.11 126.263 161.999 126.195C161.888 126.126 161.754 126.092 161.596 126.092C161.407 126.092 161.249 126.129 161.123 126.203C160.998 126.275 160.905 126.377 160.842 126.507C160.78 126.638 160.749 126.788 160.749 126.957H160.208C160.208 126.718 160.261 126.498 160.366 126.3C160.471 126.101 160.627 125.943 160.834 125.826C161.04 125.708 161.294 125.648 161.596 125.648C161.865 125.648 162.095 125.696 162.286 125.791C162.477 125.885 162.623 126.017 162.724 126.189C162.827 126.358 162.879 126.557 162.879 126.785C162.879 126.909 162.857 127.036 162.815 127.165C162.774 127.291 162.716 127.418 162.642 127.545C162.57 127.671 162.485 127.796 162.388 127.919C162.293 128.041 162.19 128.162 162.081 128.281L160.942 129.517H163.075ZM166.523 127.495V128.143C166.523 128.492 166.492 128.786 166.43 129.026C166.367 129.266 166.278 129.458 166.161 129.604C166.044 129.751 165.903 129.857 165.737 129.923C165.574 129.987 165.389 130.019 165.182 130.019C165.019 130.019 164.868 129.999 164.729 129.958C164.591 129.917 164.466 129.852 164.355 129.762C164.246 129.671 164.153 129.552 164.075 129.406C163.997 129.26 163.937 129.082 163.897 128.874C163.856 128.666 163.835 128.422 163.835 128.143V127.495C163.835 127.146 163.866 126.854 163.929 126.618C163.993 126.383 164.084 126.194 164.2 126.051C164.317 125.907 164.458 125.804 164.621 125.742C164.787 125.679 164.972 125.648 165.176 125.648C165.342 125.648 165.494 125.669 165.632 125.71C165.772 125.748 165.897 125.812 166.006 125.899C166.115 125.985 166.208 126.1 166.284 126.244C166.362 126.386 166.421 126.561 166.462 126.767C166.503 126.974 166.523 127.216 166.523 127.495ZM165.98 128.231V127.404C165.98 127.213 165.968 127.046 165.945 126.902C165.923 126.756 165.891 126.631 165.848 126.528C165.805 126.424 165.751 126.341 165.685 126.276C165.62 126.212 165.545 126.165 165.46 126.136C165.376 126.105 165.281 126.089 165.176 126.089C165.048 126.089 164.934 126.114 164.834 126.162C164.735 126.209 164.651 126.284 164.583 126.387C164.517 126.491 164.466 126.626 164.431 126.794C164.396 126.961 164.379 127.165 164.379 127.404V128.231C164.379 128.422 164.389 128.591 164.411 128.737C164.434 128.883 164.468 129.009 164.513 129.117C164.558 129.222 164.612 129.308 164.677 129.377C164.741 129.445 164.815 129.495 164.899 129.528C164.984 129.56 165.079 129.575 165.182 129.575C165.315 129.575 165.431 129.55 165.53 129.499C165.629 129.449 165.712 129.37 165.778 129.263C165.846 129.154 165.897 129.014 165.93 128.845C165.963 128.673 165.98 128.469 165.98 128.231ZM167.371 126.75V126.525C167.371 126.363 167.407 126.216 167.477 126.084C167.547 125.951 167.647 125.845 167.778 125.765C167.908 125.685 168.063 125.645 168.242 125.645C168.425 125.645 168.581 125.685 168.71 125.765C168.84 125.845 168.941 125.951 169.011 126.084C169.081 126.216 169.116 126.363 169.116 126.525V126.75C169.116 126.908 169.081 127.053 169.011 127.185C168.942 127.318 168.843 127.424 168.713 127.504C168.584 127.583 168.429 127.623 168.248 127.623C168.067 127.623 167.91 127.583 167.778 127.504C167.647 127.424 167.547 127.318 167.477 127.185C167.407 127.053 167.371 126.908 167.371 126.75ZM167.778 126.525V126.75C167.778 126.839 167.794 126.924 167.827 127.004C167.862 127.084 167.915 127.149 167.985 127.2C168.055 127.248 168.143 127.273 168.248 127.273C168.353 127.273 168.44 127.248 168.508 127.2C168.576 127.149 168.627 127.084 168.66 127.004C168.693 126.924 168.71 126.839 168.71 126.75V126.525C168.71 126.433 168.692 126.347 168.657 126.268C168.624 126.186 168.572 126.121 168.502 126.072C168.434 126.021 168.347 125.996 168.242 125.996C168.139 125.996 168.052 126.021 167.982 126.072C167.914 126.121 167.862 126.186 167.827 126.268C167.794 126.347 167.778 126.433 167.778 126.525ZM169.443 129.146V128.918C169.443 128.758 169.478 128.612 169.548 128.48C169.618 128.347 169.719 128.241 169.849 128.161C169.98 128.081 170.135 128.041 170.314 128.041C170.497 128.041 170.653 128.081 170.781 128.161C170.912 128.241 171.012 128.347 171.082 128.48C171.152 128.612 171.187 128.758 171.187 128.918V129.146C171.187 129.305 171.152 129.452 171.082 129.584C171.014 129.716 170.915 129.823 170.784 129.902C170.656 129.982 170.501 130.022 170.32 130.022C170.139 130.022 169.983 129.982 169.852 129.902C169.722 129.823 169.62 129.716 169.548 129.584C169.478 129.452 169.443 129.305 169.443 129.146ZM169.849 128.918V129.146C169.849 129.235 169.866 129.321 169.899 129.403C169.934 129.483 169.987 129.548 170.057 129.599C170.127 129.647 170.214 129.672 170.32 129.672C170.425 129.672 170.512 129.647 170.58 129.599C170.65 129.548 170.701 129.483 170.735 129.403C170.768 129.323 170.784 129.237 170.784 129.146V128.918C170.784 128.826 170.767 128.741 170.732 128.661C170.699 128.581 170.647 128.517 170.577 128.468C170.509 128.417 170.421 128.392 170.314 128.392C170.211 128.392 170.124 128.417 170.054 128.468C169.986 128.517 169.934 128.581 169.899 128.661C169.866 128.741 169.849 128.826 169.849 128.918ZM170.448 126.311L168.371 129.637L168.067 129.444L170.144 126.119L170.448 126.311Z" fill="black" fill-opacity="0.54"/>
<line x1="176.697" y1="31.069" x2="350.198" y2="31.069" stroke="black" stroke-opacity="0.05" stroke-width="0.498675" stroke-linecap="square"/>
<line x1="176.697" y1="53.069" x2="350.198" y2="53.069" stroke="black" stroke-opacity="0.05" stroke-width="0.498675" stroke-linecap="square"/>
<line x1="176.697" y1="77.069" x2="350.198" y2="77.069" stroke="black" stroke-opacity="0.05" stroke-width="0.498675" stroke-linecap="square"/>
<line x1="176.697" y1="103.069" x2="350.198" y2="103.069" stroke="black" stroke-opacity="0.05" stroke-width="0.498675" stroke-linecap="square"/>
<line x1="176.697" y1="128.069" x2="350.198" y2="128.069" stroke="black" stroke-opacity="0.05" stroke-width="0.498675" stroke-linecap="square"/>
<g clip-path="url(#clip1_16954_27728)">
<path d="M186.5 75.1758H196.552V148.915H186.5V75.1758Z" fill="#44C66B"/>
</g>
<g clip-path="url(#clip2_16954_27728)">
<path d="M242.145 36.7695H252.196V148.915H242.145V36.7695Z" fill="#44C66B"/>
</g>
<g clip-path="url(#clip3_16954_27728)">
<path d="M297.43 50.5957H307.481V148.915H297.43V50.5957Z" fill="#44C66B"/>
</g>
<g clip-path="url(#clip4_16954_27728)">
<path d="M196.191 42.998H206.243V148.999H196.191V42.998Z" fill="#217039"/>
</g>
<g clip-path="url(#clip5_16954_27728)">
<path d="M252.195 66.8105H261.529V148.999H252.195V66.8105Z" fill="#217039"/>
</g>
<g clip-path="url(#clip6_16954_27728)">
<path d="M307.479 42.9141H317.53V148.915H307.479V42.9141Z" fill="#217039"/>
</g>
<g clip-path="url(#clip7_16954_27728)">
<path d="M206.416 58.0117H216.416V149.012H206.416V58.0117Z" fill="#B6F1C8"/>
</g>
<g clip-path="url(#clip8_16954_27728)">
<path d="M261.416 78.0117H271.416V149.012H261.416V78.0117Z" fill="#B6F1C8"/>
</g>
<g clip-path="url(#clip9_16954_27728)">
<path d="M317.416 61.0117H327.416V149.012H317.416V61.0117Z" fill="#B6F1C8"/>
</g>
<g clip-path="url(#clip10_16954_27728)">
<path d="M216.295 59.1289H225.629V148.999H216.295V59.1289Z" fill="#008B29"/>
</g>
<g clip-path="url(#clip11_16954_27728)">
<path d="M271.58 87.4648H281.632V148.914H271.58V87.4648Z" fill="#008B29"/>
</g>
<g clip-path="url(#clip12_16954_27728)">
<path d="M327.582 72.1016H337.634V148.914H327.582V72.1016Z" fill="#008B29"/>
</g>
<path d="M153.711 12.4297H152.262L152.254 11.7148H153.52C153.733 11.7148 153.914 11.6836 154.062 11.6211C154.214 11.556 154.328 11.4635 154.406 11.3438C154.484 11.2214 154.523 11.0742 154.523 10.9023C154.523 10.7122 154.487 10.5573 154.414 10.4375C154.341 10.3177 154.229 10.2305 154.078 10.1758C153.93 10.1211 153.74 10.0938 153.508 10.0938H152.559V15H151.578V9.3125H153.508C153.82 9.3125 154.099 9.34245 154.344 9.40234C154.591 9.46224 154.801 9.55599 154.973 9.68359C155.147 9.80859 155.279 9.96745 155.367 10.1602C155.458 10.3529 155.504 10.582 155.504 10.8477C155.504 11.082 155.448 11.2969 155.336 11.4922C155.224 11.6849 155.059 11.8424 154.84 11.9648C154.621 12.0872 154.349 12.1602 154.023 12.1836L153.711 12.4297ZM153.668 15H151.953L152.395 14.2227H153.668C153.889 14.2227 154.074 14.1862 154.223 14.1133C154.371 14.0378 154.482 13.9349 154.555 13.8047C154.63 13.6719 154.668 13.5169 154.668 13.3398C154.668 13.1549 154.635 12.9948 154.57 12.8594C154.505 12.7214 154.402 12.6159 154.262 12.543C154.121 12.4674 153.938 12.4297 153.711 12.4297H152.609L152.617 11.7148H154.051L154.273 11.9844C154.586 11.9948 154.842 12.0638 155.043 12.1914C155.246 12.319 155.397 12.4844 155.496 12.6875C155.595 12.8906 155.645 13.1094 155.645 13.3438C155.645 13.7057 155.565 14.0091 155.406 14.2539C155.25 14.4987 155.025 14.6849 154.73 14.8125C154.436 14.9375 154.082 15 153.668 15ZM158.922 14.1523V12.1367C158.922 11.9857 158.895 11.8555 158.84 11.7461C158.785 11.6367 158.702 11.5521 158.59 11.4922C158.48 11.4323 158.342 11.4023 158.176 11.4023C158.022 11.4023 157.889 11.4284 157.777 11.4805C157.665 11.5326 157.578 11.6029 157.516 11.6914C157.453 11.7799 157.422 11.8802 157.422 11.9922H156.484C156.484 11.8255 156.525 11.6641 156.605 11.5078C156.686 11.3516 156.803 11.2122 156.957 11.0898C157.111 10.9674 157.294 10.8711 157.508 10.8008C157.721 10.7305 157.961 10.6953 158.227 10.6953C158.544 10.6953 158.826 10.7487 159.07 10.8555C159.318 10.9622 159.512 11.1237 159.652 11.3398C159.796 11.5534 159.867 11.8216 159.867 12.1445V14.0234C159.867 14.2161 159.88 14.3893 159.906 14.543C159.935 14.694 159.975 14.8255 160.027 14.9375V15H159.062C159.018 14.8984 158.983 14.7695 158.957 14.6133C158.934 14.4544 158.922 14.3008 158.922 14.1523ZM159.059 12.4297L159.066 13.0117H158.391C158.216 13.0117 158.062 13.0286 157.93 13.0625C157.797 13.0938 157.686 13.1406 157.598 13.2031C157.509 13.2656 157.443 13.3411 157.398 13.4297C157.354 13.5182 157.332 13.6185 157.332 13.7305C157.332 13.8424 157.358 13.9453 157.41 14.0391C157.462 14.1302 157.538 14.2018 157.637 14.2539C157.738 14.306 157.861 14.332 158.004 14.332C158.197 14.332 158.365 14.293 158.508 14.2148C158.654 14.1341 158.768 14.0365 158.852 13.9219C158.935 13.8047 158.979 13.694 158.984 13.5898L159.289 14.0078C159.258 14.1146 159.204 14.2292 159.129 14.3516C159.053 14.474 158.954 14.5911 158.832 14.7031C158.712 14.8125 158.568 14.9023 158.398 14.9727C158.232 15.043 158.039 15.0781 157.82 15.0781C157.544 15.0781 157.298 15.0234 157.082 14.9141C156.866 14.8021 156.697 14.6523 156.574 14.4648C156.452 14.2747 156.391 14.0599 156.391 13.8203C156.391 13.5964 156.432 13.3984 156.516 13.2266C156.602 13.0521 156.727 12.9062 156.891 12.7891C157.057 12.6719 157.26 12.5833 157.5 12.5234C157.74 12.4609 158.013 12.4297 158.32 12.4297H159.059ZM161.797 11.5781V15H160.855V10.7734H161.754L161.797 11.5781ZM163.09 10.7461L163.082 11.6211C163.025 11.6107 162.962 11.6029 162.895 11.5977C162.829 11.5924 162.764 11.5898 162.699 11.5898C162.538 11.5898 162.396 11.6133 162.273 11.6602C162.151 11.7044 162.048 11.7695 161.965 11.8555C161.884 11.9388 161.822 12.0404 161.777 12.1602C161.733 12.2799 161.707 12.4141 161.699 12.5625L161.484 12.5781C161.484 12.3125 161.51 12.0664 161.562 11.8398C161.615 11.6133 161.693 11.4141 161.797 11.2422C161.904 11.0703 162.036 10.9362 162.195 10.8398C162.357 10.7435 162.543 10.6953 162.754 10.6953C162.811 10.6953 162.872 10.7005 162.938 10.7109C163.005 10.7214 163.056 10.7331 163.09 10.7461ZM169.125 13.1484H170.102C170.07 13.5208 169.966 13.8529 169.789 14.1445C169.612 14.4336 169.363 14.6615 169.043 14.8281C168.723 14.9948 168.333 15.0781 167.875 15.0781C167.523 15.0781 167.207 15.0156 166.926 14.8906C166.645 14.763 166.404 14.5833 166.203 14.3516C166.003 14.1172 165.849 13.8346 165.742 13.5039C165.638 13.1732 165.586 12.8034 165.586 12.3945V11.9219C165.586 11.513 165.639 11.1432 165.746 10.8125C165.855 10.4818 166.012 10.1992 166.215 9.96484C166.418 9.72786 166.661 9.54688 166.945 9.42188C167.232 9.29688 167.553 9.23438 167.91 9.23438C168.363 9.23438 168.746 9.31771 169.059 9.48438C169.371 9.65104 169.613 9.88151 169.785 10.1758C169.96 10.4701 170.066 10.8073 170.105 11.1875H169.129C169.103 10.9427 169.046 10.7331 168.957 10.5586C168.871 10.3841 168.743 10.2513 168.574 10.1602C168.405 10.0664 168.184 10.0195 167.91 10.0195C167.686 10.0195 167.491 10.0612 167.324 10.1445C167.158 10.2279 167.018 10.3503 166.906 10.5117C166.794 10.6732 166.71 10.8724 166.652 11.1094C166.598 11.3438 166.57 11.612 166.57 11.9141V12.3945C166.57 12.681 166.595 12.9414 166.645 13.1758C166.697 13.4076 166.775 13.6068 166.879 13.7734C166.986 13.9401 167.121 14.069 167.285 14.1602C167.449 14.2513 167.646 14.2969 167.875 14.2969C168.154 14.2969 168.379 14.2526 168.551 14.1641C168.725 14.0755 168.857 13.9466 168.945 13.7773C169.036 13.6055 169.096 13.3958 169.125 13.1484ZM171.828 9V15H170.891V9H171.828ZM171.664 12.7305L171.359 12.7266C171.362 12.4349 171.402 12.1654 171.48 11.918C171.561 11.6706 171.673 11.4557 171.816 11.2734C171.962 11.0885 172.137 10.9466 172.34 10.8477C172.543 10.7461 172.768 10.6953 173.016 10.6953C173.224 10.6953 173.411 10.724 173.578 10.7812C173.747 10.8385 173.893 10.931 174.016 11.0586C174.138 11.1836 174.23 11.3477 174.293 11.5508C174.358 11.7513 174.391 11.9961 174.391 12.2852V15H173.445V12.2773C173.445 12.0742 173.415 11.9128 173.355 11.793C173.298 11.6732 173.214 11.5872 173.102 11.5352C172.99 11.4805 172.853 11.4531 172.691 11.4531C172.522 11.4531 172.372 11.487 172.242 11.5547C172.115 11.6224 172.008 11.7148 171.922 11.832C171.836 11.9492 171.771 12.0846 171.727 12.2383C171.685 12.3919 171.664 12.556 171.664 12.7305ZM177.727 14.1523V12.1367C177.727 11.9857 177.699 11.8555 177.645 11.7461C177.59 11.6367 177.507 11.5521 177.395 11.4922C177.285 11.4323 177.147 11.4023 176.98 11.4023C176.827 11.4023 176.694 11.4284 176.582 11.4805C176.47 11.5326 176.383 11.6029 176.32 11.6914C176.258 11.7799 176.227 11.8802 176.227 11.9922H175.289C175.289 11.8255 175.329 11.6641 175.41 11.5078C175.491 11.3516 175.608 11.2122 175.762 11.0898C175.915 10.9674 176.099 10.8711 176.312 10.8008C176.526 10.7305 176.766 10.6953 177.031 10.6953C177.349 10.6953 177.63 10.7487 177.875 10.8555C178.122 10.9622 178.316 11.1237 178.457 11.3398C178.6 11.5534 178.672 11.8216 178.672 12.1445V14.0234C178.672 14.2161 178.685 14.3893 178.711 14.543C178.74 14.694 178.78 14.8255 178.832 14.9375V15H177.867C177.823 14.8984 177.788 14.7695 177.762 14.6133C177.738 14.4544 177.727 14.3008 177.727 14.1523ZM177.863 12.4297L177.871 13.0117H177.195C177.021 13.0117 176.867 13.0286 176.734 13.0625C176.602 13.0938 176.491 13.1406 176.402 13.2031C176.314 13.2656 176.247 13.3411 176.203 13.4297C176.159 13.5182 176.137 13.6185 176.137 13.7305C176.137 13.8424 176.163 13.9453 176.215 14.0391C176.267 14.1302 176.342 14.2018 176.441 14.2539C176.543 14.306 176.665 14.332 176.809 14.332C177.001 14.332 177.169 14.293 177.312 14.2148C177.458 14.1341 177.573 14.0365 177.656 13.9219C177.74 13.8047 177.784 13.694 177.789 13.5898L178.094 14.0078C178.062 14.1146 178.009 14.2292 177.934 14.3516C177.858 14.474 177.759 14.5911 177.637 14.7031C177.517 14.8125 177.372 14.9023 177.203 14.9727C177.036 15.043 176.844 15.0781 176.625 15.0781C176.349 15.0781 176.103 15.0234 175.887 14.9141C175.671 14.8021 175.501 14.6523 175.379 14.4648C175.257 14.2747 175.195 14.0599 175.195 13.8203C175.195 13.5964 175.237 13.3984 175.32 13.2266C175.406 13.0521 175.531 12.9062 175.695 12.7891C175.862 12.6719 176.065 12.5833 176.305 12.5234C176.544 12.4609 176.818 12.4297 177.125 12.4297H177.863ZM180.602 11.5781V15H179.66V10.7734H180.559L180.602 11.5781ZM181.895 10.7461L181.887 11.6211C181.829 11.6107 181.767 11.6029 181.699 11.5977C181.634 11.5924 181.569 11.5898 181.504 11.5898C181.342 11.5898 181.201 11.6133 181.078 11.6602C180.956 11.7044 180.853 11.7695 180.77 11.8555C180.689 11.9388 180.626 12.0404 180.582 12.1602C180.538 12.2799 180.512 12.4141 180.504 12.5625L180.289 12.5781C180.289 12.3125 180.315 12.0664 180.367 11.8398C180.419 11.6133 180.497 11.4141 180.602 11.2422C180.708 11.0703 180.841 10.9362 181 10.8398C181.161 10.7435 181.348 10.6953 181.559 10.6953C181.616 10.6953 181.677 10.7005 181.742 10.7109C181.81 10.7214 181.861 10.7331 181.895 10.7461ZM184.617 10.7734V11.4609H182.234V10.7734H184.617ZM182.922 9.73828H183.863V13.832C183.863 13.9622 183.882 14.0625 183.918 14.1328C183.957 14.2005 184.01 14.2461 184.078 14.2695C184.146 14.293 184.225 14.3047 184.316 14.3047C184.382 14.3047 184.444 14.3008 184.504 14.293C184.564 14.2852 184.612 14.2773 184.648 14.2695L184.652 14.9883C184.574 15.0117 184.483 15.0326 184.379 15.0508C184.277 15.069 184.16 15.0781 184.027 15.0781C183.811 15.0781 183.62 15.0404 183.453 14.9648C183.286 14.8867 183.156 14.7604 183.062 14.5859C182.969 14.4115 182.922 14.1797 182.922 13.8906V9.73828Z" fill="black" fill-opacity="0.76"/>
</g>
<g filter="url(#filter1_dddd_16954_27728)">
<path d="M34 6C34 2.6863 36.6863 0 40 0H128C131.314 0 134 2.68629 134 6V23.9492C134 27.2629 131.314 29.9492 128 29.9492H40C36.6863 29.9492 34 27.2629 34 23.9492V6Z" fill="white"/>
<rect x="40" y="5.83789" width="18.2741" height="18.2741" rx="2.03046" fill="#217039"/>
<path d="M45.3148 19.0356H52.9594C53.7411 19.0356 54.2285 18.1879 53.8376 17.5128L50.0153 10.9087C49.6244 10.2336 48.6498 10.2336 48.2589 10.9087L44.4366 17.5128C44.0457 18.1879 44.533 19.0356 45.3148 19.0356ZM49.1371 15.4823C48.8579 15.4823 48.6295 15.2539 48.6295 14.9747V13.9595C48.6295 13.6803 48.8579 13.4518 49.1371 13.4518C49.4163 13.4518 49.6447 13.6803 49.6447 13.9595V14.9747C49.6447 15.2539 49.4163 15.4823 49.1371 15.4823ZM49.6447 17.5128H48.6295V16.4975H49.6447V17.5128Z" fill="white"/>
<path d="M65.0396 12.291L63.1567 17.4746H62.3872L64.5552 11.7871H65.0513L65.0396 12.291ZM66.6177 17.4746L64.731 12.291L64.7192 11.7871H65.2153L67.3911 17.4746H66.6177ZM66.52 15.3691V15.9863H63.3247V15.3691H66.52ZM68.8286 11.4746V17.4746H68.1021V11.4746H68.8286ZM72.481 16.752V14.5762C72.481 14.4095 72.4471 14.265 72.3794 14.1426C72.3143 14.0176 72.2153 13.9212 72.0825 13.8535C71.9497 13.7858 71.7856 13.752 71.5903 13.752C71.408 13.752 71.2479 13.7832 71.1099 13.8457C70.9744 13.9082 70.8677 13.9902 70.7896 14.0918C70.714 14.1934 70.6763 14.3027 70.6763 14.4199H69.9536C69.9536 14.2689 69.9927 14.1191 70.0708 13.9707C70.1489 13.8223 70.2609 13.6882 70.4067 13.5684C70.5552 13.446 70.7323 13.3496 70.938 13.2793C71.1463 13.2064 71.3781 13.1699 71.6333 13.1699C71.9406 13.1699 72.2114 13.222 72.4458 13.3262C72.6828 13.4303 72.8677 13.5879 73.0005 13.7988C73.1359 14.0072 73.2036 14.2689 73.2036 14.584V16.5527C73.2036 16.6934 73.2153 16.8431 73.2388 17.002C73.2648 17.1608 73.3026 17.2975 73.3521 17.4121V17.4746H72.5981C72.5617 17.3913 72.533 17.2806 72.5122 17.1426C72.4914 17.002 72.481 16.8717 72.481 16.752ZM72.606 14.9121L72.6138 15.4199H71.8833C71.6776 15.4199 71.494 15.4368 71.3325 15.4707C71.1711 15.502 71.0356 15.5501 70.9263 15.6152C70.8169 15.6803 70.7336 15.7624 70.6763 15.8613C70.619 15.9577 70.5903 16.071 70.5903 16.2012C70.5903 16.334 70.6203 16.4551 70.6802 16.5645C70.7401 16.6738 70.8299 16.7611 70.9497 16.8262C71.0721 16.8887 71.2218 16.9199 71.3989 16.9199C71.6203 16.9199 71.8156 16.873 71.9849 16.7793C72.1541 16.6855 72.2882 16.571 72.3872 16.4355C72.4888 16.3001 72.5435 16.1686 72.5513 16.041L72.8599 16.3887C72.8416 16.498 72.7922 16.6191 72.7114 16.752C72.6307 16.8848 72.5226 17.0124 72.3872 17.1348C72.2544 17.2546 72.0955 17.3548 71.9106 17.4355C71.7284 17.5137 71.5226 17.5527 71.2935 17.5527C71.007 17.5527 70.7557 17.4967 70.5396 17.3848C70.326 17.2728 70.1593 17.123 70.0396 16.9355C69.9224 16.7454 69.8638 16.5332 69.8638 16.2988C69.8638 16.0723 69.908 15.873 69.9966 15.7012C70.0851 15.5267 70.2127 15.3822 70.3794 15.2676C70.5461 15.1504 70.7466 15.0618 70.981 15.002C71.2153 14.9421 71.4771 14.9121 71.7661 14.9121H72.606ZM75.063 13.9121V17.4746H74.3403V13.248H75.0435L75.063 13.9121ZM76.3833 13.2246L76.3794 13.8965C76.3195 13.8835 76.2622 13.8757 76.2075 13.873C76.1554 13.8678 76.0955 13.8652 76.0278 13.8652C75.8612 13.8652 75.714 13.8913 75.5864 13.9434C75.4588 13.9954 75.3507 14.0684 75.2622 14.1621C75.1737 14.2559 75.1034 14.3678 75.0513 14.498C75.0018 14.6257 74.9692 14.7663 74.9536 14.9199L74.7505 15.0371C74.7505 14.7819 74.7752 14.5423 74.8247 14.3184C74.8768 14.0944 74.9562 13.8965 75.063 13.7246C75.1698 13.5501 75.3052 13.4147 75.4692 13.3184C75.6359 13.2194 75.8338 13.1699 76.063 13.1699C76.1151 13.1699 76.175 13.1764 76.2427 13.1895C76.3104 13.1999 76.3573 13.2116 76.3833 13.2246ZM77.77 14.0879V17.4746H77.0435V13.248H77.731L77.77 14.0879ZM77.6216 15.2012L77.2856 15.1895C77.2882 14.9004 77.326 14.6335 77.3989 14.3887C77.4718 14.1413 77.5799 13.9264 77.7231 13.7441C77.8664 13.5618 78.0448 13.4212 78.2583 13.3223C78.4718 13.2207 78.7192 13.1699 79.0005 13.1699C79.1984 13.1699 79.3807 13.1986 79.5474 13.2559C79.714 13.3105 79.8586 13.3978 79.981 13.5176C80.1034 13.6374 80.1984 13.791 80.2661 13.9785C80.3338 14.166 80.3677 14.3926 80.3677 14.6582V17.4746H79.645V14.6934C79.645 14.472 79.6073 14.2949 79.5317 14.1621C79.4588 14.0293 79.3547 13.9329 79.2192 13.873C79.0838 13.8105 78.925 13.7793 78.7427 13.7793C78.5291 13.7793 78.3507 13.8171 78.2075 13.8926C78.0643 13.9681 77.9497 14.0723 77.8638 14.2051C77.7778 14.3379 77.7153 14.4902 77.6763 14.6621C77.6398 14.8314 77.6216 15.0111 77.6216 15.2012ZM80.3599 14.8027L79.8755 14.9512C79.8781 14.7194 79.9159 14.4967 79.9888 14.2832C80.0643 14.0697 80.1724 13.8796 80.313 13.7129C80.4562 13.5462 80.632 13.4147 80.8403 13.3184C81.0487 13.2194 81.2869 13.1699 81.5552 13.1699C81.7817 13.1699 81.9823 13.1999 82.1567 13.2598C82.3338 13.3197 82.4823 13.4121 82.6021 13.5371C82.7244 13.6595 82.8169 13.8171 82.8794 14.0098C82.9419 14.2025 82.9731 14.4316 82.9731 14.6973V17.4746H82.2466V14.6895C82.2466 14.4525 82.2088 14.2689 82.1333 14.1387C82.0604 14.0059 81.9562 13.9134 81.8208 13.8613C81.688 13.8066 81.5291 13.7793 81.3442 13.7793C81.1854 13.7793 81.0448 13.8066 80.9224 13.8613C80.8 13.916 80.6971 13.9915 80.6138 14.0879C80.5304 14.1816 80.4666 14.2897 80.4224 14.4121C80.3807 14.5345 80.3599 14.6647 80.3599 14.8027ZM86.5278 16.3535C86.5278 16.2493 86.5044 16.153 86.4575 16.0645C86.4132 15.9733 86.3208 15.8913 86.1802 15.8184C86.0422 15.7428 85.8338 15.6777 85.5552 15.623C85.3208 15.5736 85.1086 15.515 84.9185 15.4473C84.731 15.3796 84.5708 15.2975 84.438 15.2012C84.3078 15.1048 84.2075 14.9915 84.1372 14.8613C84.0669 14.7311 84.0317 14.5788 84.0317 14.4043C84.0317 14.2376 84.0682 14.0801 84.1411 13.9316C84.2166 13.7832 84.3221 13.6517 84.4575 13.5371C84.5955 13.4225 84.7609 13.3327 84.9536 13.2676C85.1463 13.2025 85.3612 13.1699 85.5981 13.1699C85.9367 13.1699 86.2257 13.2298 86.4653 13.3496C86.7049 13.4694 86.8885 13.6296 87.0161 13.8301C87.1437 14.028 87.2075 14.248 87.2075 14.4902H86.4849C86.4849 14.373 86.4497 14.2598 86.3794 14.1504C86.3117 14.0384 86.2114 13.946 86.0786 13.873C85.9484 13.8001 85.7882 13.7637 85.5981 13.7637C85.3976 13.7637 85.2349 13.7949 85.1099 13.8574C84.9875 13.9173 84.8976 13.9941 84.8403 14.0879C84.7856 14.1816 84.7583 14.2806 84.7583 14.3848C84.7583 14.4629 84.7713 14.5332 84.7974 14.5957C84.826 14.6556 84.8755 14.7116 84.9458 14.7637C85.0161 14.8132 85.1151 14.86 85.2427 14.9043C85.3703 14.9486 85.533 14.9928 85.731 15.0371C86.0773 15.1152 86.3625 15.209 86.5864 15.3184C86.8104 15.4277 86.9771 15.5618 87.0864 15.7207C87.1958 15.8796 87.2505 16.0723 87.2505 16.2988C87.2505 16.4837 87.2114 16.653 87.1333 16.8066C87.0578 16.9603 86.9471 17.0931 86.8013 17.2051C86.658 17.3145 86.4862 17.4004 86.2856 17.4629C86.0877 17.5228 85.8651 17.5527 85.6177 17.5527C85.2453 17.5527 84.9302 17.4863 84.6724 17.3535C84.4146 17.2207 84.2192 17.0488 84.0864 16.8379C83.9536 16.627 83.8872 16.4043 83.8872 16.1699H84.6138C84.6242 16.3678 84.6815 16.5254 84.7856 16.6426C84.8898 16.7572 85.0174 16.8392 85.1685 16.8887C85.3195 16.9355 85.4692 16.959 85.6177 16.959C85.8156 16.959 85.981 16.9329 86.1138 16.8809C86.2492 16.8288 86.3521 16.7572 86.4224 16.666C86.4927 16.5749 86.5278 16.4707 86.5278 16.3535ZM93.7271 15.666H94.4771C94.438 16.0254 94.3351 16.347 94.1685 16.6309C94.0018 16.9147 93.7661 17.14 93.4614 17.3066C93.1567 17.4707 92.7765 17.5527 92.3208 17.5527C91.9875 17.5527 91.6841 17.4902 91.4106 17.3652C91.1398 17.2402 90.9067 17.0632 90.7114 16.834C90.5161 16.6022 90.3651 16.3249 90.2583 16.002C90.1541 15.6764 90.1021 15.3145 90.1021 14.916V14.3496C90.1021 13.9512 90.1541 13.5905 90.2583 13.2676C90.3651 12.9421 90.5174 12.6634 90.7153 12.4316C90.9159 12.1999 91.1567 12.0215 91.438 11.8965C91.7192 11.7715 92.0356 11.709 92.3872 11.709C92.8169 11.709 93.1802 11.7897 93.4771 11.9512C93.7739 12.1126 94.0044 12.3366 94.1685 12.623C94.3351 12.9069 94.438 13.2363 94.4771 13.6113H93.7271C93.6906 13.3457 93.6229 13.1178 93.5239 12.9277C93.425 12.735 93.2843 12.5866 93.1021 12.4824C92.9198 12.3783 92.6815 12.3262 92.3872 12.3262C92.1346 12.3262 91.9119 12.3743 91.7192 12.4707C91.5291 12.5671 91.369 12.7038 91.2388 12.8809C91.1112 13.0579 91.0148 13.2702 90.9497 13.5176C90.8846 13.765 90.8521 14.0397 90.8521 14.3418V14.916C90.8521 15.1947 90.8807 15.4564 90.938 15.7012C90.9979 15.946 91.0877 16.1608 91.2075 16.3457C91.3273 16.5306 91.4797 16.6764 91.6646 16.7832C91.8494 16.8874 92.0682 16.9395 92.3208 16.9395C92.6411 16.9395 92.8963 16.8887 93.0864 16.7871C93.2765 16.6855 93.4198 16.5397 93.5161 16.3496C93.6151 16.1595 93.6854 15.9316 93.7271 15.666ZM95.2036 15.4082V15.3184C95.2036 15.0137 95.2479 14.7311 95.3364 14.4707C95.425 14.2077 95.5526 13.9798 95.7192 13.7871C95.8859 13.5918 96.0877 13.4408 96.3247 13.334C96.5617 13.2246 96.8273 13.1699 97.1216 13.1699C97.4185 13.1699 97.6854 13.2246 97.9224 13.334C98.1619 13.4408 98.3651 13.5918 98.5317 13.7871C98.701 13.9798 98.8299 14.2077 98.9185 14.4707C99.007 14.7311 99.0513 15.0137 99.0513 15.3184V15.4082C99.0513 15.7129 99.007 15.9954 98.9185 16.2559C98.8299 16.5163 98.701 16.7441 98.5317 16.9395C98.3651 17.1322 98.1632 17.2832 97.9263 17.3926C97.6919 17.4993 97.4263 17.5527 97.1294 17.5527C96.8325 17.5527 96.5656 17.4993 96.3286 17.3926C96.0916 17.2832 95.8885 17.1322 95.7192 16.9395C95.5526 16.7441 95.425 16.5163 95.3364 16.2559C95.2479 15.9954 95.2036 15.7129 95.2036 15.4082ZM95.9263 15.3184V15.4082C95.9263 15.6191 95.951 15.8184 96.0005 16.0059C96.05 16.1908 96.1242 16.3548 96.2231 16.498C96.3247 16.6413 96.451 16.7546 96.6021 16.8379C96.7531 16.9186 96.9289 16.959 97.1294 16.959C97.3273 16.959 97.5005 16.9186 97.6489 16.8379C97.8 16.7546 97.925 16.6413 98.0239 16.498C98.1229 16.3548 98.1971 16.1908 98.2466 16.0059C98.2987 15.8184 98.3247 15.6191 98.3247 15.4082V15.3184C98.3247 15.11 98.2987 14.9134 98.2466 14.7285C98.1971 14.541 98.1216 14.3757 98.02 14.2324C97.9211 14.0866 97.7961 13.972 97.645 13.8887C97.4966 13.8053 97.3221 13.7637 97.1216 13.7637C96.9237 13.7637 96.7492 13.8053 96.5981 13.8887C96.4497 13.972 96.3247 14.0866 96.2231 14.2324C96.1242 14.3757 96.05 14.541 96.0005 14.7285C95.951 14.9134 95.9263 15.11 95.9263 15.3184ZM102.543 16.498V13.248H103.27V17.4746H102.579L102.543 16.498ZM102.68 15.6074L102.981 15.5996C102.981 15.8809 102.951 16.1413 102.891 16.3809C102.834 16.6178 102.74 16.8236 102.61 16.998C102.48 17.1725 102.309 17.3092 102.098 17.4082C101.887 17.5046 101.631 17.5527 101.329 17.5527C101.123 17.5527 100.934 17.5228 100.762 17.4629C100.593 17.403 100.447 17.3105 100.325 17.1855C100.202 17.0605 100.107 16.8978 100.04 16.6973C99.9744 16.4967 99.9419 16.2559 99.9419 15.9746V13.248H100.665V15.9824C100.665 16.1725 100.685 16.3301 100.727 16.4551C100.771 16.5775 100.83 16.6751 100.903 16.748C100.978 16.8184 101.062 16.8678 101.153 16.8965C101.247 16.9251 101.343 16.9395 101.442 16.9395C101.749 16.9395 101.993 16.8809 102.172 16.7637C102.352 16.6439 102.481 16.4837 102.559 16.2832C102.64 16.0801 102.68 15.8548 102.68 15.6074ZM105.094 14.1504V17.4746H104.372V13.248H105.055L105.094 14.1504ZM104.922 15.2012L104.622 15.1895C104.624 14.9004 104.667 14.6335 104.75 14.3887C104.834 14.1413 104.951 13.9264 105.102 13.7441C105.253 13.5618 105.433 13.4212 105.641 13.3223C105.852 13.2207 106.085 13.1699 106.34 13.1699C106.549 13.1699 106.736 13.1986 106.903 13.2559C107.069 13.3105 107.211 13.3991 107.329 13.5215C107.448 13.6439 107.54 13.8027 107.602 13.998C107.665 14.1908 107.696 14.4264 107.696 14.7051V17.4746H106.969V14.6973C106.969 14.4759 106.937 14.2988 106.872 14.166C106.806 14.0306 106.711 13.9329 106.586 13.873C106.461 13.8105 106.308 13.7793 106.125 13.7793C105.946 13.7793 105.782 13.8171 105.633 13.8926C105.487 13.9681 105.361 14.0723 105.254 14.2051C105.15 14.3379 105.068 14.4902 105.008 14.6621C104.951 14.8314 104.922 15.0111 104.922 15.2012ZM110.563 13.248V13.8027H108.278V13.248H110.563ZM109.051 12.2207H109.774V16.4277C109.774 16.571 109.796 16.679 109.84 16.752C109.885 16.8249 109.942 16.873 110.012 16.8965C110.083 16.9199 110.158 16.9316 110.239 16.9316C110.299 16.9316 110.361 16.9264 110.426 16.916C110.494 16.903 110.545 16.8926 110.579 16.8848L110.583 17.4746C110.525 17.4928 110.45 17.5098 110.356 17.5254C110.265 17.5436 110.154 17.5527 110.024 17.5527C109.847 17.5527 109.684 17.5176 109.536 17.4473C109.387 17.377 109.269 17.2598 109.18 17.0957C109.094 16.929 109.051 16.7051 109.051 16.4238V12.2207Z" fill="black" fill-opacity="0.76"/>
<path d="M121.919 13.8877H122.622C122.896 13.8877 123.122 13.8405 123.301 13.7461C123.483 13.6517 123.618 13.5215 123.706 13.3555C123.794 13.1895 123.838 12.999 123.838 12.7842C123.838 12.5596 123.797 12.3675 123.716 12.208C123.638 12.0452 123.517 11.9199 123.354 11.832C123.195 11.7441 122.992 11.7002 122.744 11.7002C122.536 11.7002 122.347 11.7425 122.178 11.8271C122.012 11.9085 121.88 12.0257 121.782 12.1787C121.685 12.3285 121.636 12.5075 121.636 12.7158H120.454C120.454 12.3382 120.553 12.0029 120.752 11.71C120.951 11.417 121.221 11.1875 121.562 11.0215C121.908 10.8522 122.295 10.7676 122.725 10.7676C123.184 10.7676 123.584 10.8441 123.926 10.9971C124.271 11.1468 124.539 11.3714 124.731 11.6709C124.924 11.9704 125.02 12.3415 125.02 12.7842C125.02 12.986 124.972 13.1911 124.878 13.3994C124.784 13.6077 124.644 13.7982 124.458 13.9707C124.272 14.14 124.041 14.2783 123.765 14.3857C123.488 14.4899 123.167 14.542 122.803 14.542H121.919V13.8877ZM121.919 14.8057V14.1611H122.803C123.219 14.1611 123.574 14.21 123.867 14.3076C124.163 14.4053 124.404 14.5404 124.59 14.7129C124.775 14.8822 124.91 15.0758 124.995 15.2939C125.083 15.512 125.127 15.7432 125.127 15.9873C125.127 16.3193 125.067 16.6156 124.946 16.876C124.829 17.1331 124.661 17.3512 124.443 17.5303C124.225 17.7093 123.97 17.8444 123.677 17.9355C123.387 18.0267 123.071 18.0723 122.729 18.0723C122.424 18.0723 122.131 18.0299 121.851 17.9453C121.571 17.8607 121.32 17.7354 121.099 17.5693C120.877 17.4001 120.701 17.1901 120.571 16.9395C120.444 16.6855 120.381 16.3926 120.381 16.0605H121.558C121.558 16.2721 121.606 16.4593 121.704 16.6221C121.805 16.7816 121.945 16.9069 122.124 16.998C122.306 17.0892 122.515 17.1348 122.749 17.1348C122.996 17.1348 123.21 17.0908 123.389 17.0029C123.568 16.915 123.704 16.7848 123.799 16.6123C123.896 16.4398 123.945 16.2314 123.945 15.9873C123.945 15.7106 123.892 15.486 123.784 15.3135C123.677 15.141 123.524 15.014 123.325 14.9326C123.127 14.848 122.892 14.8057 122.622 14.8057H121.919Z" fill="#217039"/>
</g>
<g filter="url(#filter2_dddd_16954_27728)">
<path d="M34 44.9492C34 41.6355 36.6863 38.9492 40 38.9492H128C131.314 38.9492 134 41.6355 134 44.9492V147.949H34V44.9492Z" fill="white"/>
<path d="M84 65.9492C103.882 65.9492 120 82.067 120 101.949C120 121.831 103.882 137.949 84 137.949C64.1177 137.949 48 121.831 48 101.949C48 82.067 64.1177 65.9492 84 65.9492ZM84 128.949C98.9117 128.949 111 116.861 111 101.949C111 87.0375 98.9117 74.9492 84 74.9492C69.0883 74.9492 57 87.0375 57 101.949C57 116.861 69.0883 128.949 84 128.949Z" fill="black" fill-opacity="0.06"/>
<path d="M85.0993 70.4684C85.1861 67.9846 87.2786 66.0128 89.7322 66.4085C94.2063 67.1301 98.5177 68.6924 102.434 71.0267C107.642 74.1316 111.982 78.5019 115.05 83.732C118.119 88.9621 119.817 94.8826 119.986 100.944C120.113 105.501 119.374 110.027 117.821 114.284C116.969 116.619 114.227 117.484 112.017 116.348C109.806 115.212 108.975 112.504 109.729 110.136C110.645 107.258 111.074 104.236 110.989 101.195C110.862 96.6493 109.589 92.2089 107.288 88.2863C104.986 84.3637 101.732 81.086 97.8252 78.7573C95.2125 77.1998 92.365 76.1006 89.4058 75.4959C86.9708 74.9983 85.0126 72.9522 85.0993 70.4684Z" fill="#44C66B"/>
<path d="M82.9007 70.4684C82.8139 67.9846 80.7214 66.0128 78.2678 66.4085C73.6071 67.1602 69.1246 68.8239 65.083 71.32C59.7609 74.6071 55.387 79.2242 52.3926 84.7163C49.3982 90.2084 47.8865 96.3861 48.0066 102.64C48.1267 108.895 49.8744 115.01 53.0774 120.383C56.2805 125.756 60.8283 130.202 66.2727 133.282C71.7172 136.362 77.8703 137.971 84.1256 137.949C90.381 137.927 96.5228 136.276 101.946 133.158C106.063 130.79 109.659 127.638 112.537 123.896C114.052 121.926 113.313 119.147 111.169 117.889C109.026 116.632 106.294 117.381 104.699 119.286C102.668 121.71 100.22 123.768 97.4592 125.355C93.3921 127.694 88.7858 128.933 84.0942 128.949C79.4027 128.965 74.7879 127.759 70.7046 125.449C66.6212 123.139 63.2104 119.804 60.8081 115.774C58.4058 111.745 57.095 107.158 57.005 102.468C56.9149 97.7768 58.0487 93.1436 60.2945 89.0245C62.5403 84.9054 65.8206 81.4426 69.8123 78.9773C72.5222 77.3036 75.4964 76.1289 78.5942 75.4959C81.0292 74.9983 82.9874 72.9522 82.9007 70.4684Z" fill="#217039"/>
<path d="M44.2305 53.9492H43.0156L43.0234 53.1719H44.2305C44.582 53.1719 44.8763 53.0951 45.1133 52.9414C45.3529 52.7878 45.5326 52.5677 45.6523 52.2812C45.7747 51.9948 45.8359 51.6536 45.8359 51.2578V50.9492C45.8359 50.6419 45.8008 50.3698 45.7305 50.1328C45.6628 49.8958 45.5612 49.6966 45.4258 49.5352C45.293 49.3737 45.1289 49.2513 44.9336 49.168C44.7409 49.0846 44.5182 49.043 44.2656 49.043H42.9922V48.2617H44.2656C44.6432 48.2617 44.9883 48.3255 45.3008 48.4531C45.6133 48.5781 45.8828 48.7591 46.1094 48.9961C46.3385 49.2331 46.5143 49.5169 46.6367 49.8477C46.7591 50.1784 46.8203 50.5482 46.8203 50.957V51.2578C46.8203 51.6667 46.7591 52.0365 46.6367 52.3672C46.5143 52.6979 46.3385 52.9818 46.1094 53.2188C45.8802 53.4531 45.6068 53.6341 45.2891 53.7617C44.974 53.8867 44.6211 53.9492 44.2305 53.9492ZM43.5586 48.2617V53.9492H42.5781V48.2617H43.5586ZM47.5312 51.8828V51.793C47.5312 51.4883 47.5755 51.2057 47.6641 50.9453C47.7526 50.6823 47.8802 50.4544 48.0469 50.2617C48.2161 50.0664 48.4219 49.9154 48.6641 49.8086C48.9089 49.6992 49.1849 49.6445 49.4922 49.6445C49.8021 49.6445 50.0781 49.6992 50.3203 49.8086C50.5651 49.9154 50.7721 50.0664 50.9414 50.2617C51.1107 50.4544 51.2396 50.6823 51.3281 50.9453C51.4167 51.2057 51.4609 51.4883 51.4609 51.793V51.8828C51.4609 52.1875 51.4167 52.4701 51.3281 52.7305C51.2396 52.9909 51.1107 53.2188 50.9414 53.4141C50.7721 53.6068 50.5664 53.7578 50.3242 53.8672C50.082 53.974 49.8073 54.0273 49.5 54.0273C49.1901 54.0273 48.9128 53.974 48.668 53.8672C48.4258 53.7578 48.2201 53.6068 48.0508 53.4141C47.8815 53.2188 47.7526 52.9909 47.6641 52.7305C47.5755 52.4701 47.5312 52.1875 47.5312 51.8828ZM48.4727 51.793V51.8828C48.4727 52.0729 48.4922 52.2526 48.5312 52.4219C48.5703 52.5911 48.6315 52.7396 48.7148 52.8672C48.7982 52.9948 48.9049 53.0951 49.0352 53.168C49.1654 53.2409 49.3203 53.2773 49.5 53.2773C49.6745 53.2773 49.8255 53.2409 49.9531 53.168C50.0833 53.0951 50.1901 52.9948 50.2734 52.8672C50.3568 52.7396 50.418 52.5911 50.457 52.4219C50.4987 52.2526 50.5195 52.0729 50.5195 51.8828V51.793C50.5195 51.6055 50.4987 51.4284 50.457 51.2617C50.418 51.0924 50.3555 50.9427 50.2695 50.8125C50.1862 50.6823 50.0794 50.5807 49.9492 50.5078C49.8216 50.4323 49.6693 50.3945 49.4922 50.3945C49.3151 50.3945 49.1615 50.4323 49.0312 50.5078C48.9036 50.5807 48.7982 50.6823 48.7148 50.8125C48.6315 50.9427 48.5703 51.0924 48.5312 51.2617C48.4922 51.4284 48.4727 51.6055 48.4727 51.793ZM53.1836 50.625V53.9492H52.2422V49.7227H53.1289L53.1836 50.625ZM53.0156 51.6797L52.7109 51.6758C52.7135 51.3763 52.7552 51.1016 52.8359 50.8516C52.9193 50.6016 53.0339 50.3867 53.1797 50.207C53.3281 50.0273 53.5052 49.8893 53.7109 49.793C53.9167 49.694 54.1458 49.6445 54.3984 49.6445C54.6016 49.6445 54.7852 49.6732 54.9492 49.7305C55.1159 49.7852 55.2578 49.875 55.375 50C55.4948 50.125 55.5859 50.2878 55.6484 50.4883C55.7109 50.6862 55.7422 50.9297 55.7422 51.2188V53.9492H54.7969V51.2148C54.7969 51.0117 54.7669 50.8516 54.707 50.7344C54.6497 50.6146 54.5651 50.5299 54.4531 50.4805C54.3438 50.4284 54.207 50.4023 54.043 50.4023C53.8815 50.4023 53.737 50.4362 53.6094 50.5039C53.4818 50.5716 53.3737 50.6641 53.2852 50.7812C53.1992 50.8984 53.1328 51.0339 53.0859 51.1875C53.0391 51.3411 53.0156 51.5052 53.0156 51.6797ZM59.2461 52.9531V49.7227H60.1914V53.9492H59.3008L59.2461 52.9531ZM59.3789 52.0742L59.6953 52.0664C59.6953 52.3503 59.6641 52.612 59.6016 52.8516C59.5391 53.0885 59.4427 53.2956 59.3125 53.4727C59.1823 53.6471 59.0156 53.7839 58.8125 53.8828C58.6094 53.9792 58.3659 54.0273 58.082 54.0273C57.8763 54.0273 57.6875 53.9974 57.5156 53.9375C57.3438 53.8776 57.1953 53.7852 57.0703 53.6602C56.9479 53.5352 56.8529 53.3724 56.7852 53.1719C56.7174 52.9714 56.6836 52.7318 56.6836 52.4531V49.7227H57.625V52.4609C57.625 52.6146 57.6432 52.7435 57.6797 52.8477C57.7161 52.9492 57.7656 53.0312 57.8281 53.0938C57.8906 53.1562 57.9635 53.2005 58.0469 53.2266C58.1302 53.2526 58.2188 53.2656 58.3125 53.2656C58.5807 53.2656 58.7917 53.2135 58.9453 53.1094C59.1016 53.0026 59.2122 52.8594 59.2773 52.6797C59.3451 52.5 59.3789 52.2982 59.3789 52.0742ZM63.0938 49.7227V50.4102H60.7109V49.7227H63.0938ZM61.3984 48.6875H62.3398V52.7812C62.3398 52.9115 62.3581 53.0117 62.3945 53.082C62.4336 53.1497 62.487 53.1953 62.5547 53.2188C62.6224 53.2422 62.7018 53.2539 62.793 53.2539C62.8581 53.2539 62.9206 53.25 62.9805 53.2422C63.0404 53.2344 63.0885 53.2266 63.125 53.2188L63.1289 53.9375C63.0508 53.9609 62.9596 53.9818 62.8555 54C62.7539 54.0182 62.6367 54.0273 62.5039 54.0273C62.2878 54.0273 62.0964 53.9896 61.9297 53.9141C61.763 53.8359 61.6328 53.7096 61.5391 53.5352C61.4453 53.3607 61.3984 53.1289 61.3984 52.8398V48.6875ZM69.2656 52.0977H70.2422C70.2109 52.4701 70.1068 52.8021 69.9297 53.0938C69.7526 53.3828 69.5039 53.6107 69.1836 53.7773C68.8633 53.944 68.474 54.0273 68.0156 54.0273C67.6641 54.0273 67.3477 53.9648 67.0664 53.8398C66.7852 53.7122 66.5443 53.5326 66.3438 53.3008C66.1432 53.0664 65.9896 52.7839 65.8828 52.4531C65.7786 52.1224 65.7266 51.7526 65.7266 51.3438V50.8711C65.7266 50.4622 65.7799 50.0924 65.8867 49.7617C65.9961 49.431 66.1523 49.1484 66.3555 48.9141C66.5586 48.6771 66.8021 48.4961 67.0859 48.3711C67.3724 48.2461 67.694 48.1836 68.0508 48.1836C68.5039 48.1836 68.8867 48.2669 69.1992 48.4336C69.5117 48.6003 69.7539 48.8307 69.9258 49.125C70.1003 49.4193 70.207 49.7565 70.2461 50.1367H69.2695C69.2435 49.8919 69.1862 49.6823 69.0977 49.5078C69.0117 49.3333 68.8841 49.2005 68.7148 49.1094C68.5456 49.0156 68.3242 48.9688 68.0508 48.9688C67.8268 48.9688 67.6315 49.0104 67.4648 49.0938C67.2982 49.1771 67.1589 49.2995 67.0469 49.4609C66.9349 49.6224 66.8503 49.8216 66.793 50.0586C66.7383 50.293 66.7109 50.5612 66.7109 50.8633V51.3438C66.7109 51.6302 66.7357 51.8906 66.7852 52.125C66.8372 52.3568 66.9154 52.556 67.0195 52.7227C67.1263 52.8893 67.2617 53.0182 67.4258 53.1094C67.5898 53.2005 67.7865 53.2461 68.0156 53.2461C68.2943 53.2461 68.5195 53.2018 68.6914 53.1133C68.8659 53.0247 68.9974 52.8958 69.0859 52.7266C69.1771 52.5547 69.237 52.3451 69.2656 52.0977ZM71.9688 47.9492V53.9492H71.0312V47.9492H71.9688ZM71.8047 51.6797L71.5 51.6758C71.5026 51.3841 71.543 51.1146 71.6211 50.8672C71.7018 50.6198 71.8138 50.4049 71.957 50.2227C72.1029 50.0378 72.2773 49.8958 72.4805 49.7969C72.6836 49.6953 72.9089 49.6445 73.1562 49.6445C73.3646 49.6445 73.5521 49.6732 73.7188 49.7305C73.888 49.7878 74.0339 49.8802 74.1562 50.0078C74.2786 50.1328 74.3711 50.2969 74.4336 50.5C74.4987 50.7005 74.5312 50.9453 74.5312 51.2344V53.9492H73.5859V51.2266C73.5859 51.0234 73.556 50.862 73.4961 50.7422C73.4388 50.6224 73.3542 50.5365 73.2422 50.4844C73.1302 50.4297 72.9935 50.4023 72.832 50.4023C72.6628 50.4023 72.513 50.4362 72.3828 50.5039C72.2552 50.5716 72.1484 50.6641 72.0625 50.7812C71.9766 50.8984 71.9115 51.0339 71.8672 51.1875C71.8255 51.3411 71.8047 51.5052 71.8047 51.6797ZM77.8672 53.1016V51.0859C77.8672 50.9349 77.8398 50.8047 77.7852 50.6953C77.7305 50.5859 77.6471 50.5013 77.5352 50.4414C77.4258 50.3815 77.2878 50.3516 77.1211 50.3516C76.9674 50.3516 76.8346 50.3776 76.7227 50.4297C76.6107 50.4818 76.5234 50.5521 76.4609 50.6406C76.3984 50.7292 76.3672 50.8294 76.3672 50.9414H75.4297C75.4297 50.7747 75.4701 50.6133 75.5508 50.457C75.6315 50.3008 75.7487 50.1615 75.9023 50.0391C76.056 49.9167 76.2396 49.8203 76.4531 49.75C76.6667 49.6797 76.9062 49.6445 77.1719 49.6445C77.4896 49.6445 77.7708 49.6979 78.0156 49.8047C78.263 49.9115 78.457 50.0729 78.5977 50.2891C78.7409 50.5026 78.8125 50.7708 78.8125 51.0938V52.9727C78.8125 53.1654 78.8255 53.3385 78.8516 53.4922C78.8802 53.6432 78.9206 53.7747 78.9727 53.8867V53.9492H78.0078C77.9635 53.8477 77.9284 53.7188 77.9023 53.5625C77.8789 53.4036 77.8672 53.25 77.8672 53.1016ZM78.0039 51.3789L78.0117 51.9609H77.3359C77.1615 51.9609 77.0078 51.9779 76.875 52.0117C76.7422 52.043 76.6315 52.0898 76.543 52.1523C76.4544 52.2148 76.388 52.2904 76.3438 52.3789C76.2995 52.4674 76.2773 52.5677 76.2773 52.6797C76.2773 52.7917 76.3034 52.8945 76.3555 52.9883C76.4076 53.0794 76.4831 53.151 76.582 53.2031C76.6836 53.2552 76.806 53.2812 76.9492 53.2812C77.1419 53.2812 77.3099 53.2422 77.4531 53.1641C77.599 53.0833 77.7135 52.9857 77.7969 52.8711C77.8802 52.7539 77.9245 52.6432 77.9297 52.5391L78.2344 52.957C78.2031 53.0638 78.1497 53.1784 78.0742 53.3008C77.9987 53.4232 77.8997 53.5404 77.7773 53.6523C77.6576 53.7617 77.513 53.8516 77.3438 53.9219C77.1771 53.9922 76.9844 54.0273 76.7656 54.0273C76.4896 54.0273 76.2435 53.9727 76.0273 53.8633C75.8112 53.7513 75.6419 53.6016 75.5195 53.4141C75.3971 53.224 75.3359 53.0091 75.3359 52.7695C75.3359 52.5456 75.3776 52.3477 75.4609 52.1758C75.5469 52.0013 75.6719 51.8555 75.8359 51.7383C76.0026 51.6211 76.2057 51.5326 76.4453 51.4727C76.6849 51.4102 76.9583 51.3789 77.2656 51.3789H78.0039ZM80.7422 50.5273V53.9492H79.8008V49.7227H80.6992L80.7422 50.5273ZM82.0352 49.6953L82.0273 50.5703C81.9701 50.5599 81.9076 50.5521 81.8398 50.5469C81.7747 50.5417 81.7096 50.5391 81.6445 50.5391C81.4831 50.5391 81.3411 50.5625 81.2188 50.6094C81.0964 50.6536 80.9935 50.7188 80.9102 50.8047C80.8294 50.888 80.7669 50.9896 80.7227 51.1094C80.6784 51.2292 80.6523 51.3633 80.6445 51.5117L80.4297 51.5273C80.4297 51.2617 80.4557 51.0156 80.5078 50.7891C80.5599 50.5625 80.638 50.3633 80.7422 50.1914C80.849 50.0195 80.9818 49.8854 81.1406 49.7891C81.3021 49.6927 81.4883 49.6445 81.6992 49.6445C81.7565 49.6445 81.8177 49.6497 81.8828 49.6602C81.9505 49.6706 82.0013 49.6823 82.0352 49.6953ZM84.7578 49.7227V50.4102H82.375V49.7227H84.7578ZM83.0625 48.6875H84.0039V52.7812C84.0039 52.9115 84.0221 53.0117 84.0586 53.082C84.0977 53.1497 84.151 53.1953 84.2188 53.2188C84.2865 53.2422 84.3659 53.2539 84.457 53.2539C84.5221 53.2539 84.5846 53.25 84.6445 53.2422C84.7044 53.2344 84.7526 53.2266 84.7891 53.2188L84.793 53.9375C84.7148 53.9609 84.6237 53.9818 84.5195 54C84.418 54.0182 84.3008 54.0273 84.168 54.0273C83.9518 54.0273 83.7604 53.9896 83.5938 53.9141C83.4271 53.8359 83.2969 53.7096 83.2031 53.5352C83.1094 53.3607 83.0625 53.1289 83.0625 52.8398V48.6875Z" fill="black" fill-opacity="0.76"/>
</g>
</g>
<defs>
<filter id="filter0_dddd_16954_27728" x="110.273" y="-5.45455" width="316.451" height="276" filterUnits="userSpaceOnUse" color-interpolation-filters="sRGB">
<feFlood flood-opacity="0" result="BackgroundImageFix"/>
<feColorMatrix in="SourceAlpha" type="matrix" values="0 0 0 0 0 0 0 0 0 0 0 0 0 0 0 0 0 0 127 0" result="hardAlpha"/>
<feOffset dy="5.45455"/>
<feGaussianBlur stdDeviation="5.45455"/>
<feColorMatrix type="matrix" values="0 0 0 0 0 0 0 0 0 0 0 0 0 0 0 0 0 0 0.06 0"/>
<feBlend mode="normal" in2="BackgroundImageFix" result="effect1_dropShadow_16954_27728"/>
<feColorMatrix in="SourceAlpha" type="matrix" values="0 0 0 0 0 0 0 0 0 0 0 0 0 0 0 0 0 0 127 0" result="hardAlpha"/>
<feOffset dy="20.7273"/>
<feGaussianBlur stdDeviation="10.3636"/>
<feColorMatrix type="matrix" values="0 0 0 0 0 0 0 0 0 0 0 0 0 0 0 0 0 0 0.05 0"/>
<feBlend mode="normal" in2="effect1_dropShadow_16954_27728" result="effect2_dropShadow_16954_27728"/>
<feColorMatrix in="SourceAlpha" type="matrix" values="0 0 0 0 0 0 0 0 0 0 0 0 0 0 0 0 0 0 127 0" result="hardAlpha"/>
<feOffset dy="45.8182"/>
<feGaussianBlur stdDeviation="13.6364"/>
<feColorMatrix type="matrix" values="0 0 0 0 0 0 0 0 0 0 0 0 0 0 0 0 0 0 0.03 0"/>
<feBlend mode="normal" in2="effect2_dropShadow_16954_27728" result="effect3_dropShadow_16954_27728"/>
<feColorMatrix in="SourceAlpha" type="matrix" values="0 0 0 0 0 0 0 0 0 0 0 0 0 0 0 0 0 0 127 0" result="hardAlpha"/>
<feOffset dy="81.8182"/>
<feGaussianBlur stdDeviation="16.3636"/>
<feColorMatrix type="matrix" values="0 0 0 0 0 0 0 0 0 0 0 0 0 0 0 0 0 0 0.01 0"/>
<feBlend mode="normal" in2="effect3_dropShadow_16954_27728" result="effect4_dropShadow_16954_27728"/>
<feBlend mode="normal" in="SourceGraphic" in2="effect4_dropShadow_16954_27728" result="shape"/>
</filter>
<filter id="filter1_dddd_16954_27728" x="1.27273" y="-5.45455" width="165.455" height="149.949" filterUnits="userSpaceOnUse" color-interpolation-filters="sRGB">
<feFlood flood-opacity="0" result="BackgroundImageFix"/>
<feColorMatrix in="SourceAlpha" type="matrix" values="0 0 0 0 0 0 0 0 0 0 0 0 0 0 0 0 0 0 127 0" result="hardAlpha"/>
<feOffset dy="5.45455"/>
<feGaussianBlur stdDeviation="5.45455"/>
<feColorMatrix type="matrix" values="0 0 0 0 0 0 0 0 0 0 0 0 0 0 0 0 0 0 0.06 0"/>
<feBlend mode="normal" in2="BackgroundImageFix" result="effect1_dropShadow_16954_27728"/>
<feColorMatrix in="SourceAlpha" type="matrix" values="0 0 0 0 0 0 0 0 0 0 0 0 0 0 0 0 0 0 127 0" result="hardAlpha"/>
<feOffset dy="20.7273"/>
<feGaussianBlur stdDeviation="10.3636"/>
<feColorMatrix type="matrix" values="0 0 0 0 0 0 0 0 0 0 0 0 0 0 0 0 0 0 0.05 0"/>
<feBlend mode="normal" in2="effect1_dropShadow_16954_27728" result="effect2_dropShadow_16954_27728"/>
<feColorMatrix in="SourceAlpha" type="matrix" values="0 0 0 0 0 0 0 0 0 0 0 0 0 0 0 0 0 0 127 0" result="hardAlpha"/>
<feOffset dy="45.8182"/>
<feGaussianBlur stdDeviation="13.6364"/>
<feColorMatrix type="matrix" values="0 0 0 0 0 0 0 0 0 0 0 0 0 0 0 0 0 0 0.03 0"/>
<feBlend mode="normal" in2="effect2_dropShadow_16954_27728" result="effect3_dropShadow_16954_27728"/>
<feColorMatrix in="SourceAlpha" type="matrix" values="0 0 0 0 0 0 0 0 0 0 0 0 0 0 0 0 0 0 127 0" result="hardAlpha"/>
<feOffset dy="81.8182"/>
<feGaussianBlur stdDeviation="16.3636"/>
<feColorMatrix type="matrix" values="0 0 0 0 0 0 0 0 0 0 0 0 0 0 0 0 0 0 0.01 0"/>
<feBlend mode="normal" in2="effect3_dropShadow_16954_27728" result="effect4_dropShadow_16954_27728"/>
<feBlend mode="normal" in="SourceGraphic" in2="effect4_dropShadow_16954_27728" result="shape"/>
</filter>
<filter id="filter2_dddd_16954_27728" x="1.27273" y="33.4947" width="165.455" height="229" filterUnits="userSpaceOnUse" color-interpolation-filters="sRGB">
<feFlood flood-opacity="0" result="BackgroundImageFix"/>
<feColorMatrix in="SourceAlpha" type="matrix" values="0 0 0 0 0 0 0 0 0 0 0 0 0 0 0 0 0 0 127 0" result="hardAlpha"/>
<feOffset dy="5.45455"/>
<feGaussianBlur stdDeviation="5.45455"/>
<feColorMatrix type="matrix" values="0 0 0 0 0 0 0 0 0 0 0 0 0 0 0 0 0 0 0.06 0"/>
<feBlend mode="normal" in2="BackgroundImageFix" result="effect1_dropShadow_16954_27728"/>
<feColorMatrix in="SourceAlpha" type="matrix" values="0 0 0 0 0 0 0 0 0 0 0 0 0 0 0 0 0 0 127 0" result="hardAlpha"/>
<feOffset dy="20.7273"/>
<feGaussianBlur stdDeviation="10.3636"/>
<feColorMatrix type="matrix" values="0 0 0 0 0 0 0 0 0 0 0 0 0 0 0 0 0 0 0.05 0"/>
<feBlend mode="normal" in2="effect1_dropShadow_16954_27728" result="effect2_dropShadow_16954_27728"/>
<feColorMatrix in="SourceAlpha" type="matrix" values="0 0 0 0 0 0 0 0 0 0 0 0 0 0 0 0 0 0 127 0" result="hardAlpha"/>
<feOffset dy="45.8182"/>
<feGaussianBlur stdDeviation="13.6364"/>
<feColorMatrix type="matrix" values="0 0 0 0 0 0 0 0 0 0 0 0 0 0 0 0 0 0 0.03 0"/>
<feBlend mode="normal" in2="effect2_dropShadow_16954_27728" result="effect3_dropShadow_16954_27728"/>
<feColorMatrix in="SourceAlpha" type="matrix" values="0 0 0 0 0 0 0 0 0 0 0 0 0 0 0 0 0 0 127 0" result="hardAlpha"/>
<feOffset dy="81.8182"/>
<feGaussianBlur stdDeviation="16.3636"/>
<feColorMatrix type="matrix" values="0 0 0 0 0 0 0 0 0 0 0 0 0 0 0 0 0 0 0.01 0"/>
<feBlend mode="normal" in2="effect3_dropShadow_16954_27728" result="effect4_dropShadow_16954_27728"/>
<feBlend mode="normal" in="SourceGraphic" in2="effect4_dropShadow_16954_27728" result="shape"/>
</filter>
<clipPath id="clip0_16954_27728">
<rect width="387" height="148" fill="white"/>
</clipPath>
<clipPath id="clip1_16954_27728">
<path d="M186.5 75.1758H196.552V148.915H186.5V75.1758Z" fill="white"/>
</clipPath>
<clipPath id="clip2_16954_27728">
<path d="M242.145 36.7695H252.196V148.915H242.145V36.7695Z" fill="white"/>
</clipPath>
<clipPath id="clip3_16954_27728">
<path d="M297.43 50.5957H307.481V148.915H297.43V50.5957Z" fill="white"/>
</clipPath>
<clipPath id="clip4_16954_27728">
<path d="M196.191 42.998H206.243V148.999H196.191V42.998Z" fill="white"/>
</clipPath>
<clipPath id="clip5_16954_27728">
<path d="M252.195 66.8105H261.529V148.999H252.195V66.8105Z" fill="white"/>
</clipPath>
<clipPath id="clip6_16954_27728">
<path d="M307.479 42.9141H317.53V148.915H307.479V42.9141Z" fill="white"/>
</clipPath>
<clipPath id="clip7_16954_27728">
<path d="M206.416 58.0117H216.416V149.012H206.416V58.0117Z" fill="white"/>
</clipPath>
<clipPath id="clip8_16954_27728">
<path d="M261.416 78.0117H271.416V149.012H261.416V78.0117Z" fill="white"/>
</clipPath>
<clipPath id="clip9_16954_27728">
<path d="M317.416 61.0117H327.416V149.012H317.416V61.0117Z" fill="white"/>
</clipPath>
<clipPath id="clip10_16954_27728">
<path d="M216.295 59.1289H225.629V148.999H216.295V59.1289Z" fill="white"/>
</clipPath>
<clipPath id="clip11_16954_27728">
<path d="M271.58 87.4648H281.632V148.914H271.58V87.4648Z" fill="white"/>
</clipPath>
<clipPath id="clip12_16954_27728">
<path d="M327.582 72.1016H337.634V148.914H327.582V72.1016Z" fill="white"/>
</clipPath>
</defs>
</svg>
