<svg width="387" height="148" viewBox="0 0 387 148" fill="none" xmlns="http://www.w3.org/2000/svg">
<g clip-path="url(#clip0_16822_62925)">
<g filter="url(#filter0_dddd_16822_62925)">
<path d="M33.5 6C33.5 2.68629 36.1863 0 39.5 0H347.5C350.814 0 353.5 2.68629 353.5 6V148H33.5V6Z" fill="white"/>
</g>
<rect x="34.1665" y="24" width="320" height="124" fill="#F5F5F5"/>
<path d="M57.4673 14.2227V15H54.4478V14.2227H57.4673ZM54.7251 9.3125V15H53.7446V9.3125H54.7251ZM57.0728 11.6875V12.4531H54.4478V11.6875H57.0728ZM57.4478 9.3125V10.0938H54.4478V9.3125H57.4478ZM59.1079 11.6758V15H58.1665V10.7734H59.0532L59.1079 11.6758ZM58.9399 12.7305L58.6353 12.7266C58.6379 12.4271 58.6795 12.1523 58.7603 11.9023C58.8436 11.6523 58.9582 11.4375 59.104 11.2578C59.2524 11.0781 59.4295 10.9401 59.6353 10.8438C59.841 10.7448 60.0701 10.6953 60.3228 10.6953C60.5259 10.6953 60.7095 10.724 60.8735 10.7812C61.0402 10.8359 61.1821 10.9258 61.2993 11.0508C61.4191 11.1758 61.5103 11.3385 61.5728 11.5391C61.6353 11.737 61.6665 11.9805 61.6665 12.2695V15H60.7212V12.2656C60.7212 12.0625 60.6912 11.9023 60.6313 11.7852C60.5741 11.6654 60.4894 11.5807 60.3774 11.5312C60.2681 11.4792 60.1313 11.4531 59.9673 11.4531C59.8058 11.4531 59.6613 11.487 59.5337 11.5547C59.4061 11.6224 59.298 11.7148 59.2095 11.832C59.1235 11.9492 59.0571 12.0846 59.0103 12.2383C58.9634 12.3919 58.9399 12.556 58.9399 12.7305ZM64.4907 15.0781C64.1782 15.0781 63.8957 15.0273 63.6431 14.9258C63.3931 14.8216 63.1795 14.6771 63.0024 14.4922C62.828 14.3073 62.6938 14.0898 62.6001 13.8398C62.5063 13.5898 62.4595 13.3203 62.4595 13.0312V12.875C62.4595 12.5443 62.5076 12.2448 62.604 11.9766C62.7004 11.7083 62.8345 11.4792 63.0063 11.2891C63.1782 11.0964 63.3813 10.9492 63.6157 10.8477C63.8501 10.7461 64.104 10.6953 64.3774 10.6953C64.6795 10.6953 64.9438 10.7461 65.1704 10.8477C65.397 10.9492 65.5845 11.0924 65.7329 11.2773C65.884 11.4596 65.9959 11.6771 66.0688 11.9297C66.1444 12.1823 66.1821 12.4609 66.1821 12.7656V13.168H62.9165V12.4922H65.2524V12.418C65.2472 12.2487 65.2134 12.0898 65.1509 11.9414C65.091 11.793 64.9985 11.6732 64.8735 11.582C64.7485 11.4909 64.5819 11.4453 64.3735 11.4453C64.2173 11.4453 64.078 11.4792 63.9556 11.5469C63.8358 11.612 63.7355 11.707 63.6548 11.832C63.5741 11.957 63.5116 12.1081 63.4673 12.2852C63.4256 12.4596 63.4048 12.6562 63.4048 12.875V13.0312C63.4048 13.2161 63.4295 13.388 63.479 13.5469C63.5311 13.7031 63.6066 13.8398 63.7056 13.957C63.8045 14.0742 63.9243 14.1667 64.0649 14.2344C64.2056 14.2995 64.3657 14.332 64.5454 14.332C64.772 14.332 64.9738 14.2865 65.1509 14.1953C65.328 14.1042 65.4816 13.9753 65.6118 13.8086L66.1079 14.2891C66.0168 14.4219 65.8983 14.5495 65.7524 14.6719C65.6066 14.7917 65.4282 14.8893 65.2173 14.9648C65.009 15.0404 64.7668 15.0781 64.4907 15.0781ZM67.8618 11.5781V15H66.9204V10.7734H67.8188L67.8618 11.5781ZM69.1548 10.7461L69.147 11.6211C69.0897 11.6107 69.0272 11.6029 68.9595 11.5977C68.8944 11.5924 68.8293 11.5898 68.7642 11.5898C68.6027 11.5898 68.4608 11.6133 68.3384 11.6602C68.216 11.7044 68.1131 11.7695 68.0298 11.8555C67.9491 11.9388 67.8866 12.0404 67.8423 12.1602C67.798 12.2799 67.772 12.4141 67.7642 12.5625L67.5493 12.5781C67.5493 12.3125 67.5754 12.0664 67.6274 11.8398C67.6795 11.6133 67.7576 11.4141 67.8618 11.2422C67.9686 11.0703 68.1014 10.9362 68.2603 10.8398C68.4217 10.7435 68.6079 10.6953 68.8188 10.6953C68.8761 10.6953 68.9373 10.7005 69.0024 10.7109C69.0701 10.7214 69.1209 10.7331 69.1548 10.7461ZM72.3735 10.7734H73.229V14.8828C73.229 15.263 73.1483 15.5859 72.9868 15.8516C72.8254 16.1172 72.6001 16.319 72.311 16.457C72.022 16.5977 71.6873 16.668 71.3071 16.668C71.1457 16.668 70.966 16.6445 70.7681 16.5977C70.5728 16.5508 70.3826 16.4753 70.1978 16.3711C70.0155 16.2695 69.8631 16.1354 69.7407 15.9688L70.1821 15.4141C70.3332 15.5938 70.4998 15.7253 70.6821 15.8086C70.8644 15.8919 71.0558 15.9336 71.2563 15.9336C71.4725 15.9336 71.6561 15.8932 71.8071 15.8125C71.9608 15.7344 72.0793 15.6185 72.1626 15.4648C72.2459 15.3112 72.2876 15.1237 72.2876 14.9023V11.7305L72.3735 10.7734ZM69.5024 12.9336V12.8516C69.5024 12.5312 69.5415 12.2396 69.6196 11.9766C69.6978 11.7109 69.8097 11.4831 69.9556 11.293C70.1014 11.1003 70.2785 10.9531 70.4868 10.8516C70.6951 10.7474 70.9308 10.6953 71.1938 10.6953C71.4673 10.6953 71.7004 10.7448 71.8931 10.8438C72.0884 10.9427 72.2511 11.0846 72.3813 11.2695C72.5116 11.4518 72.6131 11.6706 72.686 11.9258C72.7616 12.1784 72.8175 12.4596 72.854 12.7695V13.0312C72.8201 13.3333 72.7629 13.6094 72.6821 13.8594C72.6014 14.1094 72.4946 14.3255 72.3618 14.5078C72.229 14.6901 72.0649 14.8307 71.8696 14.9297C71.6769 15.0286 71.4491 15.0781 71.186 15.0781C70.9282 15.0781 70.6951 15.0247 70.4868 14.918C70.2811 14.8112 70.104 14.6615 69.9556 14.4688C69.8097 14.276 69.6978 14.0495 69.6196 13.7891C69.5415 13.526 69.5024 13.2409 69.5024 12.9336ZM70.4438 12.8516V12.9336C70.4438 13.1263 70.4621 13.306 70.4985 13.4727C70.5376 13.6393 70.5962 13.7865 70.6743 13.9141C70.755 14.0391 70.8566 14.138 70.979 14.2109C71.104 14.2812 71.2511 14.3164 71.4204 14.3164C71.6418 14.3164 71.8228 14.2695 71.9634 14.1758C72.1066 14.082 72.216 13.9557 72.2915 13.7969C72.3696 13.6354 72.4243 13.4557 72.4556 13.2578V12.5508C72.4399 12.3971 72.4074 12.2539 72.3579 12.1211C72.311 11.9883 72.2472 11.8724 72.1665 11.7734C72.0858 11.6719 71.9842 11.5938 71.8618 11.5391C71.7394 11.4818 71.5949 11.4531 71.4282 11.4531C71.259 11.4531 71.1118 11.4896 70.9868 11.5625C70.8618 11.6354 70.759 11.7357 70.6782 11.8633C70.6001 11.9909 70.5415 12.1393 70.5024 12.3086C70.4634 12.4779 70.4438 12.6589 70.4438 12.8516ZM75.4321 14.5391L76.5806 10.7734H77.5884L75.8931 15.6445C75.854 15.7487 75.8032 15.862 75.7407 15.9844C75.6782 16.1068 75.5962 16.2227 75.4946 16.332C75.3957 16.444 75.272 16.5339 75.1235 16.6016C74.9751 16.6719 74.7954 16.707 74.5845 16.707C74.5011 16.707 74.4204 16.6992 74.3423 16.6836C74.2668 16.6706 74.1951 16.6562 74.1274 16.6406L74.1235 15.9219C74.1496 15.9245 74.1808 15.9271 74.2173 15.9297C74.2563 15.9323 74.2876 15.9336 74.311 15.9336C74.4673 15.9336 74.5975 15.9141 74.7017 15.875C74.8058 15.8385 74.8905 15.7786 74.9556 15.6953C75.0233 15.612 75.0806 15.5 75.1274 15.3594L75.4321 14.5391ZM74.7837 10.7734L75.7876 13.9375L75.9556 14.9297L75.3032 15.0977L73.7681 10.7734H74.7837ZM80.6118 9.3125H81.4868L83.1313 13.6992L84.772 9.3125H85.647L83.4751 15H82.7798L80.6118 9.3125ZM80.2134 9.3125H81.0454L81.1899 13.1094V15H80.2134V9.3125ZM85.2134 9.3125H86.0493V15H85.0688V13.1094L85.2134 9.3125ZM86.9399 12.9336V12.8438C86.9399 12.5391 86.9842 12.2565 87.0728 11.9961C87.1613 11.7331 87.2889 11.5052 87.4556 11.3125C87.6248 11.1172 87.8306 10.9661 88.0728 10.8594C88.3175 10.75 88.5936 10.6953 88.9009 10.6953C89.2108 10.6953 89.4868 10.75 89.729 10.8594C89.9738 10.9661 90.1808 11.1172 90.3501 11.3125C90.5194 11.5052 90.6483 11.7331 90.7368 11.9961C90.8254 12.2565 90.8696 12.5391 90.8696 12.8438V12.9336C90.8696 13.2383 90.8254 13.5208 90.7368 13.7812C90.6483 14.0417 90.5194 14.2695 90.3501 14.4648C90.1808 14.6576 89.9751 14.8086 89.7329 14.918C89.4907 15.0247 89.216 15.0781 88.9087 15.0781C88.5988 15.0781 88.3215 15.0247 88.0767 14.918C87.8345 14.8086 87.6287 14.6576 87.4595 14.4648C87.2902 14.2695 87.1613 14.0417 87.0728 13.7812C86.9842 13.5208 86.9399 13.2383 86.9399 12.9336ZM87.8813 12.8438V12.9336C87.8813 13.1237 87.9009 13.3034 87.9399 13.4727C87.979 13.6419 88.0402 13.7904 88.1235 13.918C88.2069 14.0456 88.3136 14.1458 88.4438 14.2188C88.5741 14.2917 88.729 14.3281 88.9087 14.3281C89.0832 14.3281 89.2342 14.2917 89.3618 14.2188C89.492 14.1458 89.5988 14.0456 89.6821 13.918C89.7655 13.7904 89.8267 13.6419 89.8657 13.4727C89.9074 13.3034 89.9282 13.1237 89.9282 12.9336V12.8438C89.9282 12.6562 89.9074 12.4792 89.8657 12.3125C89.8267 12.1432 89.7642 11.9935 89.6782 11.8633C89.5949 11.7331 89.4881 11.6315 89.3579 11.5586C89.2303 11.4831 89.078 11.4453 88.9009 11.4453C88.7238 11.4453 88.5701 11.4831 88.4399 11.5586C88.3123 11.6315 88.2069 11.7331 88.1235 11.8633C88.0402 11.9935 87.979 12.1432 87.9399 12.3125C87.9009 12.4792 87.8813 12.6562 87.8813 12.8438ZM92.5923 11.6758V15H91.6509V10.7734H92.5376L92.5923 11.6758ZM92.4243 12.7305L92.1196 12.7266C92.1222 12.4271 92.1639 12.1523 92.2446 11.9023C92.328 11.6523 92.4425 11.4375 92.5884 11.2578C92.7368 11.0781 92.9139 10.9401 93.1196 10.8438C93.3254 10.7448 93.5545 10.6953 93.8071 10.6953C94.0103 10.6953 94.1938 10.724 94.3579 10.7812C94.5246 10.8359 94.6665 10.9258 94.7837 11.0508C94.9035 11.1758 94.9946 11.3385 95.0571 11.5391C95.1196 11.737 95.1509 11.9805 95.1509 12.2695V15H94.2056V12.2656C94.2056 12.0625 94.1756 11.9023 94.1157 11.7852C94.0584 11.6654 93.9738 11.5807 93.8618 11.5312C93.7524 11.4792 93.6157 11.4531 93.4517 11.4531C93.2902 11.4531 93.1457 11.487 93.0181 11.5547C92.8905 11.6224 92.7824 11.7148 92.6938 11.832C92.6079 11.9492 92.5415 12.0846 92.4946 12.2383C92.4478 12.3919 92.4243 12.556 92.4243 12.7305ZM97.1196 10.7734V15H96.1743V10.7734H97.1196ZM96.1118 9.66406C96.1118 9.52083 96.1587 9.40234 96.2524 9.30859C96.3488 9.21224 96.4816 9.16406 96.6509 9.16406C96.8175 9.16406 96.9491 9.21224 97.0454 9.30859C97.1418 9.40234 97.1899 9.52083 97.1899 9.66406C97.1899 9.80469 97.1418 9.92188 97.0454 10.0156C96.9491 10.1094 96.8175 10.1562 96.6509 10.1562C96.4816 10.1562 96.3488 10.1094 96.2524 10.0156C96.1587 9.92188 96.1118 9.80469 96.1118 9.66406ZM100.088 10.7734V11.4609H97.7056V10.7734H100.088ZM98.3931 9.73828H99.3345V13.832C99.3345 13.9622 99.3527 14.0625 99.3892 14.1328C99.4282 14.2005 99.4816 14.2461 99.5493 14.2695C99.617 14.293 99.6965 14.3047 99.7876 14.3047C99.8527 14.3047 99.9152 14.3008 99.9751 14.293C100.035 14.2852 100.083 14.2773 100.12 14.2695L100.124 14.9883C100.045 15.0117 99.9543 15.0326 99.8501 15.0508C99.7485 15.069 99.6313 15.0781 99.4985 15.0781C99.2824 15.0781 99.091 15.0404 98.9243 14.9648C98.7576 14.8867 98.6274 14.7604 98.5337 14.5859C98.4399 14.4115 98.3931 14.1797 98.3931 13.8906V9.73828ZM100.542 12.9336V12.8438C100.542 12.5391 100.586 12.2565 100.674 11.9961C100.763 11.7331 100.89 11.5052 101.057 11.3125C101.226 11.1172 101.432 10.9661 101.674 10.8594C101.919 10.75 102.195 10.6953 102.502 10.6953C102.812 10.6953 103.088 10.75 103.331 10.8594C103.575 10.9661 103.782 11.1172 103.952 11.3125C104.121 11.5052 104.25 11.7331 104.338 11.9961C104.427 12.2565 104.471 12.5391 104.471 12.8438V12.9336C104.471 13.2383 104.427 13.5208 104.338 13.7812C104.25 14.0417 104.121 14.2695 103.952 14.4648C103.782 14.6576 103.577 14.8086 103.334 14.918C103.092 15.0247 102.818 15.0781 102.51 15.0781C102.2 15.0781 101.923 15.0247 101.678 14.918C101.436 14.8086 101.23 14.6576 101.061 14.4648C100.892 14.2695 100.763 14.0417 100.674 13.7812C100.586 13.5208 100.542 13.2383 100.542 12.9336ZM101.483 12.8438V12.9336C101.483 13.1237 101.502 13.3034 101.542 13.4727C101.581 13.6419 101.642 13.7904 101.725 13.918C101.808 14.0456 101.915 14.1458 102.045 14.2188C102.176 14.2917 102.331 14.3281 102.51 14.3281C102.685 14.3281 102.836 14.2917 102.963 14.2188C103.094 14.1458 103.2 14.0456 103.284 13.918C103.367 13.7904 103.428 13.6419 103.467 13.4727C103.509 13.3034 103.53 13.1237 103.53 12.9336V12.8438C103.53 12.6562 103.509 12.4792 103.467 12.3125C103.428 12.1432 103.366 11.9935 103.28 11.8633C103.196 11.7331 103.09 11.6315 102.959 11.5586C102.832 11.4831 102.68 11.4453 102.502 11.4453C102.325 11.4453 102.172 11.4831 102.042 11.5586C101.914 11.6315 101.808 11.7331 101.725 11.8633C101.642 11.9935 101.581 12.1432 101.542 12.3125C101.502 12.4792 101.483 12.6562 101.483 12.8438ZM106.206 11.5781V15H105.264V10.7734H106.163L106.206 11.5781ZM107.499 10.7461L107.491 11.6211C107.433 11.6107 107.371 11.6029 107.303 11.5977C107.238 11.5924 107.173 11.5898 107.108 11.5898C106.946 11.5898 106.805 11.6133 106.682 11.6602C106.56 11.7044 106.457 11.7695 106.374 11.8555C106.293 11.9388 106.23 12.0404 106.186 12.1602C106.142 12.2799 106.116 12.4141 106.108 12.5625L105.893 12.5781C105.893 12.3125 105.919 12.0664 105.971 11.8398C106.023 11.6133 106.101 11.4141 106.206 11.2422C106.312 11.0703 106.445 10.9362 106.604 10.8398C106.765 10.7435 106.952 10.6953 107.163 10.6953C107.22 10.6953 107.281 10.7005 107.346 10.7109C107.414 10.7214 107.465 10.7331 107.499 10.7461ZM109.096 10.7734V15H108.151V10.7734H109.096ZM108.088 9.66406C108.088 9.52083 108.135 9.40234 108.229 9.30859C108.325 9.21224 108.458 9.16406 108.627 9.16406C108.794 9.16406 108.926 9.21224 109.022 9.30859C109.118 9.40234 109.167 9.52083 109.167 9.66406C109.167 9.80469 109.118 9.92188 109.022 10.0156C108.926 10.1094 108.794 10.1562 108.627 10.1562C108.458 10.1562 108.325 10.1094 108.229 10.0156C108.135 9.92188 108.088 9.80469 108.088 9.66406ZM111.061 11.6758V15H110.12V10.7734H111.006L111.061 11.6758ZM110.893 12.7305L110.588 12.7266C110.591 12.4271 110.633 12.1523 110.713 11.9023C110.797 11.6523 110.911 11.4375 111.057 11.2578C111.206 11.0781 111.383 10.9401 111.588 10.8438C111.794 10.7448 112.023 10.6953 112.276 10.6953C112.479 10.6953 112.663 10.724 112.827 10.7812C112.993 10.8359 113.135 10.9258 113.252 11.0508C113.372 11.1758 113.463 11.3385 113.526 11.5391C113.588 11.737 113.62 11.9805 113.62 12.2695V15H112.674V12.2656C112.674 12.0625 112.644 11.9023 112.584 11.7852C112.527 11.6654 112.443 11.5807 112.331 11.5312C112.221 11.4792 112.084 11.4531 111.92 11.4531C111.759 11.4531 111.614 11.487 111.487 11.5547C111.359 11.6224 111.251 11.7148 111.163 11.832C111.077 11.9492 111.01 12.0846 110.963 12.2383C110.917 12.3919 110.893 12.556 110.893 12.7305ZM117.288 10.7734H118.143V14.8828C118.143 15.263 118.062 15.5859 117.901 15.8516C117.739 16.1172 117.514 16.319 117.225 16.457C116.936 16.5977 116.601 16.668 116.221 16.668C116.06 16.668 115.88 16.6445 115.682 16.5977C115.487 16.5508 115.297 16.4753 115.112 16.3711C114.93 16.2695 114.777 16.1354 114.655 15.9688L115.096 15.4141C115.247 15.5938 115.414 15.7253 115.596 15.8086C115.778 15.8919 115.97 15.9336 116.17 15.9336C116.387 15.9336 116.57 15.8932 116.721 15.8125C116.875 15.7344 116.993 15.6185 117.077 15.4648C117.16 15.3112 117.202 15.1237 117.202 14.9023V11.7305L117.288 10.7734ZM114.417 12.9336V12.8516C114.417 12.5312 114.456 12.2396 114.534 11.9766C114.612 11.7109 114.724 11.4831 114.87 11.293C115.015 11.1003 115.193 10.9531 115.401 10.8516C115.609 10.7474 115.845 10.6953 116.108 10.6953C116.381 10.6953 116.614 10.7448 116.807 10.8438C117.002 10.9427 117.165 11.0846 117.295 11.2695C117.426 11.4518 117.527 11.6706 117.6 11.9258C117.676 12.1784 117.732 12.4596 117.768 12.7695V13.0312C117.734 13.3333 117.677 13.6094 117.596 13.8594C117.515 14.1094 117.409 14.3255 117.276 14.5078C117.143 14.6901 116.979 14.8307 116.784 14.9297C116.591 15.0286 116.363 15.0781 116.1 15.0781C115.842 15.0781 115.609 15.0247 115.401 14.918C115.195 14.8112 115.018 14.6615 114.87 14.4688C114.724 14.276 114.612 14.0495 114.534 13.7891C114.456 13.526 114.417 13.2409 114.417 12.9336ZM115.358 12.8516V12.9336C115.358 13.1263 115.376 13.306 115.413 13.4727C115.452 13.6393 115.51 13.7865 115.588 13.9141C115.669 14.0391 115.771 14.138 115.893 14.2109C116.018 14.2812 116.165 14.3164 116.334 14.3164C116.556 14.3164 116.737 14.2695 116.877 14.1758C117.021 14.082 117.13 13.9557 117.206 13.7969C117.284 13.6354 117.338 13.4557 117.37 13.2578V12.5508C117.354 12.3971 117.321 12.2539 117.272 12.1211C117.225 11.9883 117.161 11.8724 117.081 11.7734C117 11.6719 116.898 11.5938 116.776 11.5391C116.653 11.4818 116.509 11.4531 116.342 11.4531C116.173 11.4531 116.026 11.4896 115.901 11.5625C115.776 11.6354 115.673 11.7357 115.592 11.8633C115.514 11.9909 115.456 12.1393 115.417 12.3086C115.377 12.4779 115.358 12.6589 115.358 12.8516Z" fill="black" fill-opacity="0.87"/>
<rect x="33.1665" y="24" width="321" height="1" fill="black" fill-opacity="0.05"/>
<path d="M45.6666 16.5H45.1666L45.6666 13H43.9166C43.6266 13 43.6316 12.84 43.7266 12.67C43.8216 12.5 43.7516 12.63 43.7616 12.61C44.4066 11.47 45.3766 9.77 46.6666 7.5H47.1666L46.6666 11H48.4166C48.6616 11 48.6966 11.165 48.6516 11.255L48.6166 11.33C46.6466 14.775 45.6666 16.5 45.6666 16.5Z" fill="#4B63CC"/>
<g filter="url(#filter1_d_16822_62925)">
<rect x="39.9995" y="31" width="125" height="120" rx="2" fill="white"/>
</g>
<path d="M51.604 44.1484H52.5806C52.5493 44.5208 52.4451 44.8529 52.2681 45.1445C52.091 45.4336 51.8423 45.6615 51.522 45.8281C51.2017 45.9948 50.8123 46.0781 50.354 46.0781C50.0024 46.0781 49.686 46.0156 49.4048 45.8906C49.1235 45.763 48.8826 45.5833 48.6821 45.3516C48.4816 45.1172 48.328 44.8346 48.2212 44.5039C48.117 44.1732 48.0649 43.8034 48.0649 43.3945V42.9219C48.0649 42.513 48.1183 42.1432 48.2251 41.8125C48.3345 41.4818 48.4907 41.1992 48.6938 40.9648C48.897 40.7279 49.1405 40.5469 49.4243 40.4219C49.7108 40.2969 50.0324 40.2344 50.3892 40.2344C50.8423 40.2344 51.2251 40.3177 51.5376 40.4844C51.8501 40.651 52.0923 40.8815 52.2642 41.1758C52.4386 41.4701 52.5454 41.8073 52.5845 42.1875H51.6079C51.5819 41.9427 51.5246 41.7331 51.436 41.5586C51.3501 41.3841 51.2225 41.2513 51.0532 41.1602C50.884 41.0664 50.6626 41.0195 50.3892 41.0195C50.1652 41.0195 49.9699 41.0612 49.8032 41.1445C49.6366 41.2279 49.4972 41.3503 49.3853 41.5117C49.2733 41.6732 49.1886 41.8724 49.1313 42.1094C49.0767 42.3438 49.0493 42.612 49.0493 42.9141V43.3945C49.0493 43.681 49.0741 43.9414 49.1235 44.1758C49.1756 44.4076 49.2537 44.6068 49.3579 44.7734C49.4647 44.9401 49.6001 45.069 49.7642 45.1602C49.9282 45.2513 50.1248 45.2969 50.354 45.2969C50.6326 45.2969 50.8579 45.2526 51.0298 45.1641C51.2043 45.0755 51.3358 44.9466 51.4243 44.7773C51.5155 44.6055 51.5754 44.3958 51.604 44.1484ZM53.1978 43.9336V43.8438C53.1978 43.5391 53.242 43.2565 53.3306 42.9961C53.4191 42.7331 53.5467 42.5052 53.7134 42.3125C53.8826 42.1172 54.0884 41.9661 54.3306 41.8594C54.5754 41.75 54.8514 41.6953 55.1587 41.6953C55.4686 41.6953 55.7446 41.75 55.9868 41.8594C56.2316 41.9661 56.4386 42.1172 56.6079 42.3125C56.7772 42.5052 56.9061 42.7331 56.9946 42.9961C57.0832 43.2565 57.1274 43.5391 57.1274 43.8438V43.9336C57.1274 44.2383 57.0832 44.5208 56.9946 44.7812C56.9061 45.0417 56.7772 45.2695 56.6079 45.4648C56.4386 45.6576 56.2329 45.8086 55.9907 45.918C55.7485 46.0247 55.4738 46.0781 55.1665 46.0781C54.8566 46.0781 54.5793 46.0247 54.3345 45.918C54.0923 45.8086 53.8866 45.6576 53.7173 45.4648C53.548 45.2695 53.4191 45.0417 53.3306 44.7812C53.242 44.5208 53.1978 44.2383 53.1978 43.9336ZM54.1392 43.8438V43.9336C54.1392 44.1237 54.1587 44.3034 54.1978 44.4727C54.2368 44.6419 54.298 44.7904 54.3813 44.918C54.4647 45.0456 54.5715 45.1458 54.7017 45.2188C54.8319 45.2917 54.9868 45.3281 55.1665 45.3281C55.341 45.3281 55.492 45.2917 55.6196 45.2188C55.7498 45.1458 55.8566 45.0456 55.9399 44.918C56.0233 44.7904 56.0845 44.6419 56.1235 44.4727C56.1652 44.3034 56.186 44.1237 56.186 43.9336V43.8438C56.186 43.6562 56.1652 43.4792 56.1235 43.3125C56.0845 43.1432 56.022 42.9935 55.936 42.8633C55.8527 42.7331 55.7459 42.6315 55.6157 42.5586C55.4881 42.4831 55.3358 42.4453 55.1587 42.4453C54.9816 42.4453 54.828 42.4831 54.6978 42.5586C54.5701 42.6315 54.4647 42.7331 54.3813 42.8633C54.298 42.9935 54.2368 43.1432 54.1978 43.3125C54.1587 43.4792 54.1392 43.6562 54.1392 43.8438ZM58.8501 42.6758V46H57.9087V41.7734H58.7954L58.8501 42.6758ZM58.6821 43.7305L58.3774 43.7266C58.38 43.4271 58.4217 43.1523 58.5024 42.9023C58.5858 42.6523 58.7004 42.4375 58.8462 42.2578C58.9946 42.0781 59.1717 41.9401 59.3774 41.8438C59.5832 41.7448 59.8123 41.6953 60.0649 41.6953C60.2681 41.6953 60.4517 41.724 60.6157 41.7812C60.7824 41.8359 60.9243 41.9258 61.0415 42.0508C61.1613 42.1758 61.2524 42.3385 61.3149 42.5391C61.3774 42.737 61.4087 42.9805 61.4087 43.2695V46H60.4634V43.2656C60.4634 43.0625 60.4334 42.9023 60.3735 42.7852C60.3162 42.6654 60.2316 42.5807 60.1196 42.5312C60.0103 42.4792 59.8735 42.4531 59.7095 42.4531C59.548 42.4531 59.4035 42.487 59.2759 42.5547C59.1483 42.6224 59.0402 42.7148 58.9517 42.832C58.8657 42.9492 58.7993 43.0846 58.7524 43.2383C58.7056 43.3919 58.6821 43.556 58.6821 43.7305ZM64.7407 44.8555C64.7407 44.7617 64.7173 44.6771 64.6704 44.6016C64.6235 44.5234 64.5337 44.4531 64.4009 44.3906C64.2707 44.3281 64.078 44.2708 63.8228 44.2188C63.5988 44.1693 63.3931 44.1107 63.2056 44.043C63.0207 43.9727 62.8618 43.888 62.729 43.7891C62.5962 43.6901 62.4933 43.5729 62.4204 43.4375C62.3475 43.3021 62.311 43.1458 62.311 42.9688C62.311 42.7969 62.3488 42.6341 62.4243 42.4805C62.4998 42.3268 62.6079 42.1914 62.7485 42.0742C62.8892 41.957 63.0597 41.8646 63.2603 41.7969C63.4634 41.7292 63.6899 41.6953 63.9399 41.6953C64.2941 41.6953 64.5975 41.7552 64.8501 41.875C65.1053 41.9922 65.3006 42.1523 65.436 42.3555C65.5715 42.556 65.6392 42.7826 65.6392 43.0352H64.6978C64.6978 42.9232 64.6691 42.819 64.6118 42.7227C64.5571 42.6237 64.4738 42.5443 64.3618 42.4844C64.2498 42.4219 64.1092 42.3906 63.9399 42.3906C63.7785 42.3906 63.6444 42.4167 63.5376 42.4688C63.4334 42.5182 63.3553 42.5833 63.3032 42.6641C63.2537 42.7448 63.229 42.8333 63.229 42.9297C63.229 43 63.242 43.0638 63.2681 43.1211C63.2967 43.1758 63.3436 43.2266 63.4087 43.2734C63.4738 43.3177 63.5623 43.3594 63.6743 43.3984C63.7889 43.4375 63.9321 43.4753 64.104 43.5117C64.4269 43.5794 64.7043 43.6667 64.936 43.7734C65.1704 43.8776 65.3501 44.013 65.4751 44.1797C65.6001 44.3438 65.6626 44.5521 65.6626 44.8047C65.6626 44.9922 65.6222 45.1641 65.5415 45.3203C65.4634 45.474 65.3488 45.6081 65.1978 45.7227C65.0467 45.8346 64.8657 45.9219 64.6548 45.9844C64.4465 46.0469 64.2121 46.0781 63.9517 46.0781C63.5688 46.0781 63.2446 46.0104 62.979 45.875C62.7134 45.737 62.5116 45.5612 62.3735 45.3477C62.2381 45.1315 62.1704 44.9076 62.1704 44.6758H63.0806C63.091 44.8503 63.1392 44.9896 63.2251 45.0938C63.3136 45.1953 63.423 45.2695 63.5532 45.3164C63.686 45.3607 63.8228 45.3828 63.9634 45.3828C64.1326 45.3828 64.2746 45.3607 64.3892 45.3164C64.5037 45.2695 64.591 45.207 64.6509 45.1289C64.7108 45.0482 64.7407 44.957 64.7407 44.8555ZM69.0298 45.0039V41.7734H69.9751V46H69.0845L69.0298 45.0039ZM69.1626 44.125L69.479 44.1172C69.479 44.401 69.4478 44.6628 69.3853 44.9023C69.3228 45.1393 69.2264 45.3464 69.0962 45.5234C68.966 45.6979 68.7993 45.8346 68.5962 45.9336C68.3931 46.0299 68.1496 46.0781 67.8657 46.0781C67.66 46.0781 67.4712 46.0482 67.2993 45.9883C67.1274 45.9284 66.979 45.8359 66.854 45.7109C66.7316 45.5859 66.6366 45.4232 66.5688 45.2227C66.5011 45.0221 66.4673 44.7826 66.4673 44.5039V41.7734H67.4087V44.5117C67.4087 44.6654 67.4269 44.7943 67.4634 44.8984C67.4998 45 67.5493 45.082 67.6118 45.1445C67.6743 45.207 67.7472 45.2513 67.8306 45.2773C67.9139 45.3034 68.0024 45.3164 68.0962 45.3164C68.3644 45.3164 68.5754 45.2643 68.729 45.1602C68.8853 45.0534 68.9959 44.9102 69.061 44.7305C69.1287 44.5508 69.1626 44.349 69.1626 44.125ZM71.8813 42.6328V46H70.9399V41.7734H71.8267L71.8813 42.6328ZM71.729 43.7305L71.4087 43.7266C71.4087 43.4349 71.4451 43.1654 71.5181 42.918C71.591 42.6706 71.6978 42.4557 71.8384 42.2734C71.979 42.0885 72.1535 41.9466 72.3618 41.8477C72.5728 41.7461 72.8162 41.6953 73.0923 41.6953C73.285 41.6953 73.4608 41.724 73.6196 41.7812C73.7811 41.8359 73.9204 41.9232 74.0376 42.043C74.1574 42.1628 74.2485 42.3164 74.311 42.5039C74.3761 42.6914 74.4087 42.918 74.4087 43.1836V46H73.4673V43.2656C73.4673 43.0599 73.436 42.8984 73.3735 42.7812C73.3136 42.6641 73.2264 42.5807 73.1118 42.5312C72.9998 42.4792 72.8657 42.4531 72.7095 42.4531C72.5324 42.4531 72.3813 42.487 72.2563 42.5547C72.134 42.6224 72.0337 42.7148 71.9556 42.832C71.8774 42.9492 71.8201 43.0846 71.7837 43.2383C71.7472 43.3919 71.729 43.556 71.729 43.7305ZM74.3501 43.4805L73.9087 43.5781C73.9087 43.3229 73.9438 43.082 74.0142 42.8555C74.0871 42.6263 74.1925 42.4258 74.3306 42.2539C74.4712 42.0794 74.6444 41.9427 74.8501 41.8438C75.0558 41.7448 75.2915 41.6953 75.5571 41.6953C75.7733 41.6953 75.966 41.7253 76.1353 41.7852C76.3071 41.8424 76.453 41.9336 76.5728 42.0586C76.6925 42.1836 76.7837 42.3464 76.8462 42.5469C76.9087 42.7448 76.9399 42.9844 76.9399 43.2656V46H75.9946V43.2617C75.9946 43.0482 75.9634 42.8828 75.9009 42.7656C75.841 42.6484 75.755 42.5677 75.6431 42.5234C75.5311 42.4766 75.397 42.4531 75.2407 42.4531C75.0949 42.4531 74.966 42.4805 74.854 42.5352C74.7446 42.5872 74.6522 42.6615 74.5767 42.7578C74.5011 42.8516 74.4438 42.9596 74.4048 43.082C74.3683 43.2044 74.3501 43.3372 74.3501 43.4805ZM78.854 42.5859V47.625H77.9126V41.7734H78.7798L78.854 42.5859ZM81.6079 43.8477V43.9297C81.6079 44.237 81.5715 44.5221 81.4985 44.7852C81.4282 45.0456 81.3228 45.2734 81.1821 45.4688C81.0441 45.6615 80.8735 45.8112 80.6704 45.918C80.4673 46.0247 80.2329 46.0781 79.9673 46.0781C79.7043 46.0781 79.4738 46.0299 79.2759 45.9336C79.0806 45.8346 78.9152 45.6953 78.7798 45.5156C78.6444 45.3359 78.535 45.125 78.4517 44.8828C78.3709 44.638 78.3136 44.3698 78.2798 44.0781V43.7617C78.3136 43.4518 78.3709 43.1706 78.4517 42.918C78.535 42.6654 78.6444 42.4479 78.7798 42.2656C78.9152 42.0833 79.0806 41.9427 79.2759 41.8438C79.4712 41.7448 79.6991 41.6953 79.9595 41.6953C80.2251 41.6953 80.4608 41.7474 80.6665 41.8516C80.8722 41.9531 81.0454 42.099 81.186 42.2891C81.3267 42.4766 81.4321 42.7031 81.5024 42.9688C81.5728 43.2318 81.6079 43.5247 81.6079 43.8477ZM80.6665 43.9297V43.8477C80.6665 43.6523 80.6483 43.4714 80.6118 43.3047C80.5754 43.1354 80.5181 42.987 80.4399 42.8594C80.3618 42.7318 80.2616 42.6328 80.1392 42.5625C80.0194 42.4896 79.8748 42.4531 79.7056 42.4531C79.5389 42.4531 79.3957 42.4818 79.2759 42.5391C79.1561 42.5938 79.0558 42.6706 78.9751 42.7695C78.8944 42.8685 78.8319 42.9844 78.7876 43.1172C78.7433 43.2474 78.7121 43.3893 78.6938 43.543V44.3008C78.7251 44.4883 78.7785 44.6602 78.854 44.8164C78.9295 44.9727 79.0363 45.0977 79.1743 45.1914C79.3149 45.2826 79.4946 45.3281 79.7134 45.3281C79.8826 45.3281 80.0272 45.2917 80.147 45.2188C80.2668 45.1458 80.3644 45.0456 80.4399 44.918C80.5181 44.7878 80.5754 44.638 80.6118 44.4688C80.6483 44.2995 80.6665 44.1198 80.6665 43.9297ZM84.3462 41.7734V42.4609H81.9634V41.7734H84.3462ZM82.6509 40.7383H83.5923V44.832C83.5923 44.9622 83.6105 45.0625 83.647 45.1328C83.686 45.2005 83.7394 45.2461 83.8071 45.2695C83.8748 45.293 83.9543 45.3047 84.0454 45.3047C84.1105 45.3047 84.173 45.3008 84.2329 45.293C84.2928 45.2852 84.341 45.2773 84.3774 45.2695L84.3813 45.9883C84.3032 46.0117 84.2121 46.0326 84.1079 46.0508C84.0063 46.069 83.8892 46.0781 83.7563 46.0781C83.5402 46.0781 83.3488 46.0404 83.1821 45.9648C83.0155 45.8867 82.8853 45.7604 82.7915 45.5859C82.6978 45.4115 82.6509 45.1797 82.6509 44.8906V40.7383ZM86.0806 41.7734V46H85.1353V41.7734H86.0806ZM85.0728 40.6641C85.0728 40.5208 85.1196 40.4023 85.2134 40.3086C85.3097 40.2122 85.4425 40.1641 85.6118 40.1641C85.7785 40.1641 85.91 40.2122 86.0063 40.3086C86.1027 40.4023 86.1509 40.5208 86.1509 40.6641C86.1509 40.8047 86.1027 40.9219 86.0063 41.0156C85.91 41.1094 85.7785 41.1562 85.6118 41.1562C85.4425 41.1562 85.3097 41.1094 85.2134 41.0156C85.1196 40.9219 85.0728 40.8047 85.0728 40.6641ZM86.9321 43.9336V43.8438C86.9321 43.5391 86.9764 43.2565 87.0649 42.9961C87.1535 42.7331 87.2811 42.5052 87.4478 42.3125C87.617 42.1172 87.8228 41.9661 88.0649 41.8594C88.3097 41.75 88.5858 41.6953 88.8931 41.6953C89.203 41.6953 89.479 41.75 89.7212 41.8594C89.966 41.9661 90.173 42.1172 90.3423 42.3125C90.5116 42.5052 90.6405 42.7331 90.729 42.9961C90.8175 43.2565 90.8618 43.5391 90.8618 43.8438V43.9336C90.8618 44.2383 90.8175 44.5208 90.729 44.7812C90.6405 45.0417 90.5116 45.2695 90.3423 45.4648C90.173 45.6576 89.9673 45.8086 89.7251 45.918C89.4829 46.0247 89.2082 46.0781 88.9009 46.0781C88.591 46.0781 88.3136 46.0247 88.0688 45.918C87.8267 45.8086 87.6209 45.6576 87.4517 45.4648C87.2824 45.2695 87.1535 45.0417 87.0649 44.7812C86.9764 44.5208 86.9321 44.2383 86.9321 43.9336ZM87.8735 43.8438V43.9336C87.8735 44.1237 87.8931 44.3034 87.9321 44.4727C87.9712 44.6419 88.0324 44.7904 88.1157 44.918C88.1991 45.0456 88.3058 45.1458 88.436 45.2188C88.5662 45.2917 88.7212 45.3281 88.9009 45.3281C89.0754 45.3281 89.2264 45.2917 89.354 45.2188C89.4842 45.1458 89.591 45.0456 89.6743 44.918C89.7576 44.7904 89.8188 44.6419 89.8579 44.4727C89.8996 44.3034 89.9204 44.1237 89.9204 43.9336V43.8438C89.9204 43.6562 89.8996 43.4792 89.8579 43.3125C89.8188 43.1432 89.7563 42.9935 89.6704 42.8633C89.5871 42.7331 89.4803 42.6315 89.3501 42.5586C89.2225 42.4831 89.0701 42.4453 88.8931 42.4453C88.716 42.4453 88.5623 42.4831 88.4321 42.5586C88.3045 42.6315 88.1991 42.7331 88.1157 42.8633C88.0324 42.9935 87.9712 43.1432 87.9321 43.3125C87.8931 43.4792 87.8735 43.6562 87.8735 43.8438ZM92.5845 42.6758V46H91.6431V41.7734H92.5298L92.5845 42.6758ZM92.4165 43.7305L92.1118 43.7266C92.1144 43.4271 92.1561 43.1523 92.2368 42.9023C92.3201 42.6523 92.4347 42.4375 92.5806 42.2578C92.729 42.0781 92.9061 41.9401 93.1118 41.8438C93.3175 41.7448 93.5467 41.6953 93.7993 41.6953C94.0024 41.6953 94.186 41.724 94.3501 41.7812C94.5168 41.8359 94.6587 41.9258 94.7759 42.0508C94.8957 42.1758 94.9868 42.3385 95.0493 42.5391C95.1118 42.737 95.1431 42.9805 95.1431 43.2695V46H94.1978V43.2656C94.1978 43.0625 94.1678 42.9023 94.1079 42.7852C94.0506 42.6654 93.966 42.5807 93.854 42.5312C93.7446 42.4792 93.6079 42.4531 93.4438 42.4531C93.2824 42.4531 93.1379 42.487 93.0103 42.5547C92.8826 42.6224 92.7746 42.7148 92.686 42.832C92.6001 42.9492 92.5337 43.0846 92.4868 43.2383C92.4399 43.3919 92.4165 43.556 92.4165 43.7305Z" fill="black" fill-opacity="0.76"/>
<path d="M81.4995 139.716C76.6092 136.892 72.3229 133.133 68.8853 128.653C65.4477 124.173 62.9262 119.06 61.4647 113.606C60.0032 108.151 59.6303 102.462 60.3674 96.8639C61.1044 91.2654 62.937 85.8669 65.7604 80.9766L103 102.477L81.4995 139.716Z" fill="#5791FB" stroke="white" stroke-width="1.03671"/>
<path d="M65.7604 80.9766C69.5345 74.4397 74.9627 69.0115 81.4995 65.2375C88.0363 61.4634 95.4514 59.4766 103 59.4766V102.477L65.7604 80.9766Z" fill="#A384FF" stroke="white" stroke-width="1.03671"/>
<path d="M103 59.4766C109.595 59.4766 116.102 60.9938 122.018 63.911C127.933 66.8282 133.099 71.0671 137.114 76.2998C141.129 81.5325 143.887 87.6187 145.173 94.0877C146.46 100.557 146.241 107.235 144.534 113.606C142.827 119.977 139.677 125.87 135.329 130.828C130.98 135.787 125.549 139.679 119.455 142.203C113.361 144.727 106.769 145.816 100.187 145.384C93.6056 144.953 87.2115 143.013 81.4995 139.716L103 102.477V59.4766Z" fill="#4B63CC" stroke="white" stroke-width="1.03671"/>
<path d="M117.468 104.123L116.614 103.916L116.942 100.94H120.185V101.827H117.829L117.675 103.203C117.758 103.152 117.88 103.101 118.039 103.05C118.201 102.996 118.383 102.969 118.586 102.969C118.867 102.969 119.118 103.014 119.339 103.106C119.56 103.195 119.748 103.325 119.902 103.495C120.059 103.665 120.176 103.873 120.254 104.119C120.335 104.362 120.376 104.637 120.376 104.945C120.376 105.215 120.335 105.469 120.254 105.706C120.176 105.941 120.056 106.15 119.894 106.334C119.732 106.515 119.528 106.658 119.282 106.763C119.037 106.866 118.748 106.917 118.416 106.917C118.165 106.917 117.923 106.88 117.691 106.808C117.461 106.732 117.255 106.623 117.071 106.48C116.888 106.334 116.741 106.156 116.63 105.945C116.522 105.734 116.462 105.493 116.452 105.22H117.509C117.528 105.401 117.576 105.555 117.654 105.682C117.733 105.809 117.835 105.906 117.962 105.973C118.092 106.041 118.242 106.075 118.412 106.075C118.566 106.075 118.698 106.046 118.809 105.99C118.922 105.93 119.015 105.848 119.088 105.743C119.161 105.637 119.215 105.513 119.25 105.37C119.285 105.227 119.303 105.07 119.303 104.9C119.303 104.736 119.282 104.586 119.242 104.451C119.201 104.313 119.139 104.194 119.056 104.094C118.972 103.994 118.867 103.918 118.74 103.864C118.616 103.81 118.47 103.783 118.302 103.783C118.078 103.783 117.906 103.816 117.784 103.884C117.665 103.951 117.56 104.031 117.468 104.123ZM125.057 105.224C125.057 105.591 124.971 105.902 124.798 106.156C124.628 106.407 124.394 106.597 124.097 106.727C123.803 106.853 123.468 106.917 123.093 106.917C122.721 106.917 122.384 106.853 122.085 106.727C121.788 106.597 121.552 106.407 121.376 106.156C121.203 105.902 121.117 105.591 121.117 105.224C121.117 104.979 121.165 104.756 121.263 104.556C121.363 104.356 121.5 104.185 121.676 104.042C121.851 103.896 122.059 103.785 122.299 103.71C122.54 103.631 122.802 103.592 123.085 103.592C123.463 103.592 123.8 103.661 124.097 103.799C124.397 103.934 124.632 104.124 124.802 104.37C124.972 104.613 125.057 104.898 125.057 105.224ZM123.98 105.159C123.98 104.97 123.942 104.807 123.867 104.669C123.794 104.529 123.69 104.421 123.555 104.345C123.42 104.27 123.263 104.232 123.085 104.232C122.904 104.232 122.746 104.27 122.611 104.345C122.479 104.421 122.375 104.529 122.299 104.669C122.226 104.807 122.19 104.97 122.19 105.159C122.19 105.351 122.226 105.516 122.299 105.653C122.375 105.788 122.48 105.892 122.615 105.965C122.75 106.038 122.91 106.075 123.093 106.075C123.277 106.075 123.435 106.038 123.567 105.965C123.699 105.892 123.8 105.788 123.871 105.653C123.944 105.516 123.98 105.351 123.98 105.159ZM124.928 102.495C124.928 102.792 124.849 103.056 124.693 103.288C124.536 103.518 124.319 103.697 124.041 103.827C123.765 103.957 123.449 104.021 123.093 104.021C122.737 104.021 122.418 103.957 122.137 103.827C121.859 103.697 121.641 103.518 121.481 103.288C121.325 103.056 121.246 102.792 121.246 102.495C121.246 102.144 121.326 101.847 121.485 101.604C121.645 101.358 121.862 101.172 122.137 101.045C122.415 100.918 122.731 100.855 123.085 100.855C123.444 100.855 123.763 100.918 124.041 101.045C124.319 101.172 124.536 101.358 124.693 101.604C124.849 101.847 124.928 102.144 124.928 102.495ZM123.858 102.539C123.858 102.372 123.827 102.226 123.765 102.102C123.703 101.975 123.614 101.876 123.498 101.806C123.385 101.736 123.247 101.701 123.085 101.701C122.928 101.701 122.793 101.735 122.68 101.802C122.567 101.87 122.479 101.967 122.417 102.094C122.355 102.218 122.324 102.366 122.324 102.539C122.324 102.709 122.355 102.858 122.417 102.985C122.479 103.112 122.567 103.212 122.68 103.284C122.796 103.355 122.934 103.39 123.093 103.39C123.252 103.39 123.389 103.355 123.502 103.284C123.615 103.212 123.703 103.112 123.765 102.985C123.827 102.858 123.858 102.709 123.858 102.539ZM125.855 102.385V102.074C125.855 101.849 125.904 101.646 126.001 101.462C126.098 101.278 126.24 101.131 126.426 101.021C126.615 100.91 126.844 100.855 127.114 100.855C127.39 100.855 127.621 100.91 127.807 101.021C127.996 101.131 128.138 101.278 128.232 101.462C128.329 101.646 128.378 101.849 128.378 102.074V102.385C128.378 102.604 128.329 102.805 128.232 102.989C128.138 103.172 127.997 103.32 127.811 103.43C127.625 103.541 127.395 103.596 127.122 103.596C126.85 103.596 126.619 103.541 126.43 103.43C126.241 103.32 126.098 103.172 126.001 102.989C125.904 102.805 125.855 102.604 125.855 102.385ZM126.58 102.074V102.385C126.58 102.488 126.599 102.585 126.637 102.677C126.677 102.766 126.738 102.839 126.819 102.896C126.9 102.952 127.001 102.981 127.122 102.981C127.244 102.981 127.343 102.952 127.418 102.896C127.496 102.839 127.554 102.766 127.592 102.677C127.633 102.585 127.653 102.488 127.653 102.385V102.074C127.653 101.968 127.633 101.87 127.592 101.778C127.554 101.686 127.495 101.612 127.414 101.555C127.336 101.499 127.236 101.47 127.114 101.47C126.996 101.47 126.896 101.499 126.815 101.555C126.736 101.612 126.677 101.686 126.637 101.778C126.599 101.87 126.58 101.968 126.58 102.074ZM128.686 105.702V105.39C128.686 105.169 128.734 104.966 128.831 104.783C128.931 104.599 129.076 104.452 129.265 104.341C129.454 104.231 129.682 104.175 129.949 104.175C130.227 104.175 130.459 104.231 130.646 104.341C130.832 104.452 130.972 104.599 131.067 104.783C131.164 104.966 131.213 105.169 131.213 105.39V105.702C131.213 105.923 131.164 106.126 131.067 106.309C130.972 106.493 130.832 106.64 130.646 106.751C130.462 106.862 130.233 106.917 129.957 106.917C129.687 106.917 129.456 106.862 129.265 106.751C129.076 106.64 128.931 106.493 128.831 106.309C128.734 106.126 128.686 105.923 128.686 105.702ZM129.415 105.39V105.702C129.415 105.807 129.436 105.906 129.479 105.998C129.523 106.087 129.585 106.16 129.666 106.216C129.749 106.273 129.847 106.301 129.957 106.301C130.092 106.301 130.199 106.273 130.277 106.216C130.355 106.16 130.411 106.087 130.443 105.998C130.476 105.906 130.492 105.807 130.492 105.702V105.39C130.492 105.285 130.472 105.188 130.431 105.099C130.391 105.007 130.33 104.933 130.249 104.876C130.17 104.819 130.071 104.791 129.949 104.791C129.83 104.791 129.73 104.819 129.649 104.876C129.571 104.933 129.512 105.007 129.471 105.099C129.433 105.188 129.415 105.285 129.415 105.39ZM130.216 101.782L127.337 106.39L126.807 106.095L129.686 101.486L130.216 101.782Z" fill="white"/>
<path d="M75.822 109.103V109.945H71.829V109.224L73.7445 107.155C73.9443 106.928 74.1022 106.731 74.2183 106.564C74.3344 106.396 74.4167 106.245 74.4653 106.11C74.5166 105.973 74.5423 105.842 74.5423 105.717C74.5423 105.537 74.5099 105.379 74.4451 105.244C74.3803 105.106 74.2858 104.999 74.1616 104.924C74.0401 104.848 73.8903 104.81 73.7121 104.81C73.515 104.81 73.3463 104.856 73.2059 104.948C73.0682 105.037 72.9629 105.161 72.89 105.321C72.8198 105.48 72.7847 105.662 72.7847 105.867H71.7116C71.7116 105.519 71.7926 105.202 71.9546 104.916C72.1165 104.627 72.3487 104.396 72.6511 104.223C72.9535 104.05 73.3125 103.964 73.7283 103.964C74.1333 103.964 74.4761 104.031 74.7569 104.166C75.0377 104.299 75.251 104.488 75.3967 104.733C75.5425 104.979 75.6154 105.272 75.6154 105.612C75.6154 105.801 75.5844 105.987 75.5223 106.171C75.4602 106.355 75.3724 106.537 75.2591 106.718C75.1484 106.896 75.0161 107.077 74.8622 107.26C74.7083 107.444 74.5369 107.632 74.3479 107.823L73.1978 109.103H75.822ZM80.479 108.334C80.479 108.701 80.3926 109.011 80.2199 109.265C80.0498 109.516 79.8162 109.706 79.5193 109.836C79.225 109.963 78.8902 110.026 78.515 110.026C78.1424 110.026 77.8063 109.963 77.5066 109.836C77.2096 109.706 76.9734 109.516 76.7979 109.265C76.6251 109.011 76.5387 108.701 76.5387 108.334C76.5387 108.088 76.5873 107.865 76.6845 107.665C76.7844 107.466 76.9221 107.294 77.0976 107.151C77.2731 107.005 77.481 106.895 77.7212 106.819C77.9615 106.741 78.2234 106.702 78.5069 106.702C78.8848 106.702 79.2223 106.77 79.5193 106.908C79.8189 107.043 80.0538 107.233 80.2239 107.479C80.394 107.722 80.479 108.007 80.479 108.334ZM79.4018 108.269C79.4018 108.08 79.364 107.916 79.2884 107.779C79.2156 107.638 79.1116 107.53 78.9766 107.455C78.8416 107.379 78.685 107.341 78.5069 107.341C78.326 107.341 78.168 107.379 78.0331 107.455C77.9008 107.53 77.7968 107.638 77.7212 107.779C77.6483 107.916 77.6119 108.08 77.6119 108.269C77.6119 108.46 77.6483 108.625 77.7212 108.763C77.7968 108.898 77.9021 109.002 78.0371 109.075C78.1721 109.148 78.3314 109.184 78.515 109.184C78.6985 109.184 78.8565 109.148 78.9888 109.075C79.1211 109.002 79.2223 108.898 79.2925 108.763C79.3654 108.625 79.4018 108.46 79.4018 108.269ZM80.3494 105.604C80.3494 105.901 80.2712 106.166 80.1146 106.398C79.958 106.627 79.7407 106.807 79.4626 106.936C79.1872 107.066 78.8713 107.131 78.515 107.131C78.1586 107.131 77.84 107.066 77.5593 106.936C77.2812 106.807 77.0625 106.627 76.9032 106.398C76.7466 106.166 76.6683 105.901 76.6683 105.604C76.6683 105.253 76.748 104.956 76.9073 104.713C77.0665 104.468 77.2839 104.281 77.5593 104.154C77.8373 104.027 78.1532 103.964 78.5069 103.964C78.8659 103.964 79.1845 104.027 79.4626 104.154C79.7407 104.281 79.958 104.468 80.1146 104.713C80.2712 104.956 80.3494 105.253 80.3494 105.604ZM79.2803 105.649C79.2803 105.481 79.2493 105.335 79.1872 105.211C79.1251 105.084 79.036 104.986 78.9199 104.916C78.8065 104.845 78.6688 104.81 78.5069 104.81C78.3503 104.81 78.2153 104.844 78.1019 104.912C77.9885 104.979 77.9008 105.076 77.8387 105.203C77.7766 105.327 77.7455 105.476 77.7455 105.649C77.7455 105.819 77.7766 105.967 77.8387 106.094C77.9008 106.221 77.9885 106.321 78.1019 106.394C78.218 106.464 78.3557 106.499 78.515 106.499C78.6742 106.499 78.8106 106.464 78.924 106.394C79.0374 106.321 79.1251 106.221 79.1872 106.094C79.2493 105.967 79.2803 105.819 79.2803 105.649ZM81.2768 105.495V105.183C81.2768 104.959 81.3254 104.755 81.4226 104.571C81.5198 104.388 81.6615 104.241 81.8478 104.13C82.0368 104.019 82.2663 103.964 82.5362 103.964C82.8116 103.964 83.0425 104.019 83.2287 104.13C83.4177 104.241 83.5595 104.388 83.6539 104.571C83.7511 104.755 83.7997 104.959 83.7997 105.183V105.495C83.7997 105.713 83.7511 105.915 83.6539 106.098C83.5595 106.282 83.4191 106.429 83.2328 106.54C83.0465 106.65 82.817 106.706 82.5443 106.706C82.2717 106.706 82.0408 106.65 81.8519 106.54C81.6629 106.429 81.5198 106.282 81.4226 106.098C81.3254 105.915 81.2768 105.713 81.2768 105.495ZM82.0017 105.183V105.495C82.0017 105.597 82.0206 105.695 82.0584 105.786C82.0989 105.875 82.1596 105.948 82.2406 106.005C82.3216 106.062 82.4229 106.09 82.5443 106.09C82.6658 106.09 82.7644 106.062 82.84 106.005C82.9183 105.948 82.9763 105.875 83.0141 105.786C83.0546 105.695 83.0749 105.597 83.0749 105.495V105.183C83.0749 105.078 83.0546 104.979 83.0141 104.887C82.9763 104.796 82.9169 104.721 82.8359 104.665C82.7576 104.608 82.6577 104.58 82.5362 104.58C82.4175 104.58 82.3176 104.608 82.2366 104.665C82.1583 104.721 82.0989 104.796 82.0584 104.887C82.0206 104.979 82.0017 105.078 82.0017 105.183ZM84.1075 108.811V108.5C84.1075 108.278 84.1561 108.076 84.2533 107.892C84.3532 107.709 84.4976 107.561 84.6866 107.451C84.8756 107.34 85.1037 107.285 85.371 107.285C85.6491 107.285 85.8812 107.34 86.0675 107.451C86.2538 107.561 86.3942 107.709 86.4887 107.892C86.5859 108.076 86.6345 108.278 86.6345 108.5V108.811C86.6345 109.033 86.5859 109.235 86.4887 109.419C86.3942 109.602 86.2538 109.75 86.0675 109.86C85.8839 109.971 85.6545 110.026 85.3791 110.026C85.1091 110.026 84.8783 109.971 84.6866 109.86C84.4976 109.75 84.3532 109.602 84.2533 109.419C84.1561 109.235 84.1075 109.033 84.1075 108.811ZM84.8364 108.5V108.811C84.8364 108.917 84.858 109.015 84.9012 109.107C84.9444 109.196 85.0065 109.269 85.0875 109.326C85.1712 109.382 85.2684 109.411 85.3791 109.411C85.5141 109.411 85.6207 109.382 85.699 109.326C85.7773 109.269 85.8327 109.196 85.865 109.107C85.8974 109.015 85.9136 108.917 85.9136 108.811V108.5C85.9136 108.394 85.8934 108.297 85.8529 108.208C85.8124 108.116 85.7517 108.042 85.6707 107.985C85.5924 107.929 85.4925 107.9 85.371 107.9C85.2522 107.9 85.1523 107.929 85.0713 107.985C84.993 108.042 84.9336 108.116 84.8931 108.208C84.8553 108.297 84.8364 108.394 84.8364 108.5ZM85.6383 104.891L82.759 109.5L82.2285 109.204L85.1078 104.596L85.6383 104.891Z" fill="white"/>
<path d="M83.9128 75.0055V80.918H82.8397V76.2568L81.4183 76.7266V75.86L83.7914 75.0055H83.9128ZM89.9913 78.7676V79.6099H85.7433L85.6987 78.962L88.1974 75.0217H89.0518L88.1285 76.5889L86.7881 78.7676H89.9913ZM89.2908 75.0217V80.918H88.2176V75.0217H89.2908ZM90.6069 76.4674V76.1556C90.6069 75.9315 90.6555 75.7277 90.7527 75.5441C90.8499 75.3605 90.9916 75.2134 91.1779 75.1027C91.3669 74.992 91.5964 74.9367 91.8663 74.9367C92.1417 74.9367 92.3725 74.992 92.5588 75.1027C92.7478 75.2134 92.8895 75.3605 92.984 75.5441C93.0812 75.7277 93.1298 75.9315 93.1298 76.1556V76.4674C93.1298 76.6861 93.0812 76.8872 92.984 77.0708C92.8895 77.2544 92.7491 77.4015 92.5629 77.5122C92.3766 77.6229 92.1471 77.6783 91.8744 77.6783C91.6018 77.6783 91.3709 77.6229 91.1819 77.5122C90.993 77.4015 90.8499 77.2544 90.7527 77.0708C90.6555 76.8872 90.6069 76.6861 90.6069 76.4674ZM91.3318 76.1556V76.4674C91.3318 76.57 91.3507 76.6672 91.3885 76.759C91.429 76.8481 91.4897 76.921 91.5707 76.9777C91.6517 77.0344 91.7529 77.0627 91.8744 77.0627C91.9959 77.0627 92.0945 77.0344 92.17 76.9777C92.2483 76.921 92.3064 76.8481 92.3442 76.759C92.3847 76.6672 92.4049 76.57 92.4049 76.4674V76.1556C92.4049 76.0503 92.3847 75.9518 92.3442 75.86C92.3064 75.7682 92.247 75.6939 92.166 75.6372C92.0877 75.5806 91.9878 75.5522 91.8663 75.5522C91.7475 75.5522 91.6476 75.5806 91.5667 75.6372C91.4884 75.6939 91.429 75.7682 91.3885 75.86C91.3507 75.9518 91.3318 76.0503 91.3318 76.1556ZM93.4376 79.7841V79.4722C93.4376 79.2509 93.4862 79.0484 93.5834 78.8648C93.6833 78.6812 93.8277 78.5341 94.0167 78.4234C94.2057 78.3127 94.4338 78.2574 94.7011 78.2574C94.9791 78.2574 95.2113 78.3127 95.3976 78.4234C95.5839 78.5341 95.7243 78.6812 95.8188 78.8648C95.916 79.0484 95.9646 79.2509 95.9646 79.4722V79.7841C95.9646 80.0055 95.916 80.2079 95.8188 80.3915C95.7243 80.5751 95.5839 80.7222 95.3976 80.8329C95.214 80.9436 94.9845 80.999 94.7092 80.999C94.4392 80.999 94.2084 80.9436 94.0167 80.8329C93.8277 80.7222 93.6833 80.5751 93.5834 80.3915C93.4862 80.2079 93.4376 80.0055 93.4376 79.7841ZM94.1665 79.4722V79.7841C94.1665 79.8894 94.1881 79.9879 94.2313 80.0797C94.2745 80.1688 94.3366 80.2417 94.4176 80.2984C94.5013 80.3551 94.5985 80.3834 94.7092 80.3834C94.8442 80.3834 94.9508 80.3551 95.0291 80.2984C95.1074 80.2417 95.1627 80.1688 95.1951 80.0797C95.2275 79.9879 95.2437 79.8894 95.2437 79.7841V79.4722C95.2437 79.367 95.2235 79.2698 95.183 79.1807C95.1425 79.0889 95.0817 79.0146 95.0007 78.9579C94.9225 78.9013 94.8226 78.8729 94.7011 78.8729C94.5823 78.8729 94.4824 78.9013 94.4014 78.9579C94.3231 79.0146 94.2637 79.0889 94.2232 79.1807C94.1854 79.2698 94.1665 79.367 94.1665 79.4722ZM94.9683 75.864L92.0891 80.4725L91.5586 80.1769L94.4378 75.5684L94.9683 75.864Z" fill="white"/>
<g filter="url(#filter2_d_16822_62925)">
<rect x="170" y="31" width="179" height="120" rx="2" fill="white"/>
</g>
<path d="M178 59L341 59" stroke="black" stroke-opacity="0.12" stroke-width="0.5"/>
<path d="M178 81L341 81" stroke="black" stroke-opacity="0.12" stroke-width="0.5"/>
<path d="M178 103L341 103" stroke="black" stroke-opacity="0.12" stroke-width="0.5"/>
<path d="M178 125L341 125" stroke="black" stroke-opacity="0.12" stroke-width="0.5"/>
<path opacity="0.24" d="M304.721 73.3562L289.347 66.8829C285.032 65.0663 280.117 65.3682 276.057 67.6992L273.174 69.3545C270.732 70.7565 267.945 71.4429 265.131 71.3352L258.912 71.0971C257.232 71.0328 255.554 71.2514 253.946 71.7435L245.131 74.4429C243.923 74.8128 242.767 75.3339 241.689 75.9938L236.013 79.4701C232.348 81.7147 227.896 82.2794 223.787 81.0211L208.517 76.3449C205.654 75.4684 202.595 75.4684 199.733 76.3449L178 83V155.5H341V67L322.758 72.6672C322.045 72.8887 321.316 73.0568 320.578 73.1698L312.812 74.3589C310.074 74.7781 307.273 74.4311 304.721 73.3562Z" fill="#5791FB"/>
<path d="M181.792 41.0703L180.093 46H179.066L181.207 40.3125H181.863L181.792 41.0703ZM183.214 46L181.511 41.0703L181.437 40.3125H182.097L184.246 46H183.214ZM183.132 43.8906V44.668H180.039V43.8906H183.132ZM185.66 42.6328V46H184.718V41.7734H185.605L185.66 42.6328ZM185.507 43.7305L185.187 43.7266C185.187 43.4349 185.223 43.1654 185.296 42.918C185.369 42.6706 185.476 42.4557 185.617 42.2734C185.757 42.0885 185.932 41.9466 186.14 41.8477C186.351 41.7461 186.595 41.6953 186.871 41.6953C187.063 41.6953 187.239 41.724 187.398 41.7812C187.559 41.8359 187.699 41.9232 187.816 42.043C187.936 42.1628 188.027 42.3164 188.089 42.5039C188.154 42.6914 188.187 42.918 188.187 43.1836V46H187.246V43.2656C187.246 43.0599 187.214 42.8984 187.152 42.7812C187.092 42.6641 187.005 42.5807 186.89 42.5312C186.778 42.4792 186.644 42.4531 186.488 42.4531C186.311 42.4531 186.16 42.487 186.035 42.5547C185.912 42.6224 185.812 42.7148 185.734 42.832C185.656 42.9492 185.598 43.0846 185.562 43.2383C185.526 43.3919 185.507 43.556 185.507 43.7305ZM188.128 43.4805L187.687 43.5781C187.687 43.3229 187.722 43.082 187.792 42.8555C187.865 42.6263 187.971 42.4258 188.109 42.2539C188.25 42.0794 188.423 41.9427 188.628 41.8438C188.834 41.7448 189.07 41.6953 189.335 41.6953C189.552 41.6953 189.744 41.7253 189.914 41.7852C190.085 41.8424 190.231 41.9336 190.351 42.0586C190.471 42.1836 190.562 42.3464 190.625 42.5469C190.687 42.7448 190.718 42.9844 190.718 43.2656V46H189.773V43.2617C189.773 43.0482 189.742 42.8828 189.679 42.7656C189.619 42.6484 189.533 42.5677 189.421 42.5234C189.309 42.4766 189.175 42.4531 189.019 42.4531C188.873 42.4531 188.744 42.4805 188.632 42.5352C188.523 42.5872 188.431 42.6615 188.355 42.7578C188.279 42.8516 188.222 42.9596 188.183 43.082C188.147 43.2044 188.128 43.3372 188.128 43.4805ZM192.632 42.5859V47.625H191.691V41.7734H192.558L192.632 42.5859ZM195.386 43.8477V43.9297C195.386 44.237 195.35 44.5221 195.277 44.7852C195.207 45.0456 195.101 45.2734 194.96 45.4688C194.822 45.6615 194.652 45.8112 194.449 45.918C194.246 46.0247 194.011 46.0781 193.746 46.0781C193.483 46.0781 193.252 46.0299 193.054 45.9336C192.859 45.8346 192.694 45.6953 192.558 45.5156C192.423 45.3359 192.313 45.125 192.23 44.8828C192.149 44.638 192.092 44.3698 192.058 44.0781V43.7617C192.092 43.4518 192.149 43.1706 192.23 42.918C192.313 42.6654 192.423 42.4479 192.558 42.2656C192.694 42.0833 192.859 41.9427 193.054 41.8438C193.25 41.7448 193.477 41.6953 193.738 41.6953C194.003 41.6953 194.239 41.7474 194.445 41.8516C194.651 41.9531 194.824 42.099 194.964 42.2891C195.105 42.4766 195.21 42.7031 195.281 42.9688C195.351 43.2318 195.386 43.5247 195.386 43.8477ZM194.445 43.9297V43.8477C194.445 43.6523 194.427 43.4714 194.39 43.3047C194.354 43.1354 194.296 42.987 194.218 42.8594C194.14 42.7318 194.04 42.6328 193.917 42.5625C193.798 42.4896 193.653 42.4531 193.484 42.4531C193.317 42.4531 193.174 42.4818 193.054 42.5391C192.934 42.5938 192.834 42.6706 192.753 42.7695C192.673 42.8685 192.61 42.9844 192.566 43.1172C192.522 43.2474 192.49 43.3893 192.472 43.543V44.3008C192.503 44.4883 192.557 44.6602 192.632 44.8164C192.708 44.9727 192.815 45.0977 192.953 45.1914C193.093 45.2826 193.273 45.3281 193.492 45.3281C193.661 45.3281 193.806 45.2917 193.925 45.2188C194.045 45.1458 194.143 45.0456 194.218 44.918C194.296 44.7878 194.354 44.638 194.39 44.4688C194.427 44.2995 194.445 44.1198 194.445 43.9297ZM198.05 46.0781C197.738 46.0781 197.455 46.0273 197.203 45.9258C196.953 45.8216 196.739 45.6771 196.562 45.4922C196.388 45.3073 196.253 45.0898 196.16 44.8398C196.066 44.5898 196.019 44.3203 196.019 44.0312V43.875C196.019 43.5443 196.067 43.2448 196.164 42.9766C196.26 42.7083 196.394 42.4792 196.566 42.2891C196.738 42.0964 196.941 41.9492 197.175 41.8477C197.41 41.7461 197.664 41.6953 197.937 41.6953C198.239 41.6953 198.503 41.7461 198.73 41.8477C198.957 41.9492 199.144 42.0924 199.292 42.2773C199.444 42.4596 199.556 42.6771 199.628 42.9297C199.704 43.1823 199.742 43.4609 199.742 43.7656V44.168H196.476V43.4922H198.812V43.418C198.807 43.2487 198.773 43.0898 198.71 42.9414C198.651 42.793 198.558 42.6732 198.433 42.582C198.308 42.4909 198.141 42.4453 197.933 42.4453C197.777 42.4453 197.638 42.4792 197.515 42.5469C197.395 42.612 197.295 42.707 197.214 42.832C197.134 42.957 197.071 43.1081 197.027 43.2852C196.985 43.4596 196.964 43.6562 196.964 43.875V44.0312C196.964 44.2161 196.989 44.388 197.039 44.5469C197.091 44.7031 197.166 44.8398 197.265 44.957C197.364 45.0742 197.484 45.1667 197.625 45.2344C197.765 45.2995 197.925 45.332 198.105 45.332C198.332 45.332 198.533 45.2865 198.71 45.1953C198.888 45.1042 199.041 44.9753 199.171 44.8086L199.667 45.2891C199.576 45.4219 199.458 45.5495 199.312 45.6719C199.166 45.7917 198.988 45.8893 198.777 45.9648C198.569 46.0404 198.326 46.0781 198.05 46.0781ZM201.421 42.5781V46H200.48V41.7734H201.378L201.421 42.5781ZM202.714 41.7461L202.707 42.6211C202.649 42.6107 202.587 42.6029 202.519 42.5977C202.454 42.5924 202.389 42.5898 202.324 42.5898C202.162 42.5898 202.02 42.6133 201.898 42.6602C201.776 42.7044 201.673 42.7695 201.589 42.8555C201.509 42.9388 201.446 43.0404 201.402 43.1602C201.358 43.2799 201.332 43.4141 201.324 43.5625L201.109 43.5781C201.109 43.3125 201.135 43.0664 201.187 42.8398C201.239 42.6133 201.317 42.4141 201.421 42.2422C201.528 42.0703 201.661 41.9362 201.82 41.8398C201.981 41.7435 202.167 41.6953 202.378 41.6953C202.436 41.6953 202.497 41.7005 202.562 41.7109C202.63 41.7214 202.681 41.7331 202.714 41.7461ZM205.546 45.1523V43.1367C205.546 42.9857 205.519 42.8555 205.464 42.7461C205.41 42.6367 205.326 42.5521 205.214 42.4922C205.105 42.4323 204.967 42.4023 204.8 42.4023C204.647 42.4023 204.514 42.4284 204.402 42.4805C204.29 42.5326 204.203 42.6029 204.14 42.6914C204.078 42.7799 204.046 42.8802 204.046 42.9922H203.109C203.109 42.8255 203.149 42.6641 203.23 42.5078C203.311 42.3516 203.428 42.2122 203.582 42.0898C203.735 41.9674 203.919 41.8711 204.132 41.8008C204.346 41.7305 204.585 41.6953 204.851 41.6953C205.169 41.6953 205.45 41.7487 205.695 41.8555C205.942 41.9622 206.136 42.1237 206.277 42.3398C206.42 42.5534 206.492 42.8216 206.492 43.1445V45.0234C206.492 45.2161 206.505 45.3893 206.531 45.543C206.559 45.694 206.6 45.8255 206.652 45.9375V46H205.687C205.643 45.8984 205.608 45.7695 205.582 45.6133C205.558 45.4544 205.546 45.3008 205.546 45.1523ZM205.683 43.4297L205.691 44.0117H205.015C204.841 44.0117 204.687 44.0286 204.554 44.0625C204.421 44.0938 204.311 44.1406 204.222 44.2031C204.134 44.2656 204.067 44.3411 204.023 44.4297C203.979 44.5182 203.957 44.6185 203.957 44.7305C203.957 44.8424 203.983 44.9453 204.035 45.0391C204.087 45.1302 204.162 45.2018 204.261 45.2539C204.363 45.306 204.485 45.332 204.628 45.332C204.821 45.332 204.989 45.293 205.132 45.2148C205.278 45.1341 205.393 45.0365 205.476 44.9219C205.559 44.8047 205.604 44.694 205.609 44.5898L205.914 45.0078C205.882 45.1146 205.829 45.2292 205.753 45.3516C205.678 45.474 205.579 45.5911 205.457 45.7031C205.337 45.8125 205.192 45.9023 205.023 45.9727C204.856 46.043 204.664 46.0781 204.445 46.0781C204.169 46.0781 203.923 46.0234 203.707 45.9141C203.49 45.8021 203.321 45.6523 203.199 45.4648C203.076 45.2747 203.015 45.0599 203.015 44.8203C203.015 44.5964 203.057 44.3984 203.14 44.2266C203.226 44.0521 203.351 43.9062 203.515 43.7891C203.682 43.6719 203.885 43.5833 204.125 43.5234C204.364 43.4609 204.638 43.4297 204.945 43.4297H205.683ZM210.183 41.7734H211.039V45.8828C211.039 46.263 210.958 46.5859 210.796 46.8516C210.635 47.1172 210.41 47.319 210.121 47.457C209.832 47.5977 209.497 47.668 209.117 47.668C208.955 47.668 208.776 47.6445 208.578 47.5977C208.382 47.5508 208.192 47.4753 208.007 47.3711C207.825 47.2695 207.673 47.1354 207.55 46.9688L207.992 46.4141C208.143 46.5938 208.309 46.7253 208.492 46.8086C208.674 46.8919 208.865 46.9336 209.066 46.9336C209.282 46.9336 209.466 46.8932 209.617 46.8125C209.77 46.7344 209.889 46.6185 209.972 46.4648C210.056 46.3112 210.097 46.1237 210.097 45.9023V42.7305L210.183 41.7734ZM207.312 43.9336V43.8516C207.312 43.5312 207.351 43.2396 207.429 42.9766C207.507 42.7109 207.619 42.4831 207.765 42.293C207.911 42.1003 208.088 41.9531 208.296 41.8516C208.505 41.7474 208.74 41.6953 209.003 41.6953C209.277 41.6953 209.51 41.7448 209.703 41.8438C209.898 41.9427 210.061 42.0846 210.191 42.2695C210.321 42.4518 210.423 42.6706 210.496 42.9258C210.571 43.1784 210.627 43.4596 210.664 43.7695V44.0312C210.63 44.3333 210.572 44.6094 210.492 44.8594C210.411 45.1094 210.304 45.3255 210.171 45.5078C210.039 45.6901 209.875 45.8307 209.679 45.9297C209.486 46.0286 209.259 46.0781 208.996 46.0781C208.738 46.0781 208.505 46.0247 208.296 45.918C208.091 45.8112 207.914 45.6615 207.765 45.4688C207.619 45.276 207.507 45.0495 207.429 44.7891C207.351 44.526 207.312 44.2409 207.312 43.9336ZM208.253 43.8516V43.9336C208.253 44.1263 208.272 44.306 208.308 44.4727C208.347 44.6393 208.406 44.7865 208.484 44.9141C208.565 45.0391 208.666 45.138 208.789 45.2109C208.914 45.2812 209.061 45.3164 209.23 45.3164C209.451 45.3164 209.632 45.2695 209.773 45.1758C209.916 45.082 210.026 44.9557 210.101 44.7969C210.179 44.6354 210.234 44.4557 210.265 44.2578V43.5508C210.25 43.3971 210.217 43.2539 210.167 43.1211C210.121 42.9883 210.057 42.8724 209.976 42.7734C209.895 42.6719 209.794 42.5938 209.671 42.5391C209.549 42.4818 209.404 42.4531 209.238 42.4531C209.069 42.4531 208.921 42.4896 208.796 42.5625C208.671 42.6354 208.569 42.7357 208.488 42.8633C208.41 42.9909 208.351 43.1393 208.312 43.3086C208.273 43.4779 208.253 43.6589 208.253 43.8516ZM213.878 46.0781C213.566 46.0781 213.283 46.0273 213.031 45.9258C212.781 45.8216 212.567 45.6771 212.39 45.4922C212.216 45.3073 212.082 45.0898 211.988 44.8398C211.894 44.5898 211.847 44.3203 211.847 44.0312V43.875C211.847 43.5443 211.895 43.2448 211.992 42.9766C212.088 42.7083 212.222 42.4792 212.394 42.2891C212.566 42.0964 212.769 41.9492 213.003 41.8477C213.238 41.7461 213.492 41.6953 213.765 41.6953C214.067 41.6953 214.332 41.7461 214.558 41.8477C214.785 41.9492 214.972 42.0924 215.121 42.2773C215.272 42.4596 215.384 42.6771 215.457 42.9297C215.532 43.1823 215.57 43.4609 215.57 43.7656V44.168H212.304V43.4922H214.64V43.418C214.635 43.2487 214.601 43.0898 214.539 42.9414C214.479 42.793 214.386 42.6732 214.261 42.582C214.136 42.4909 213.97 42.4453 213.761 42.4453C213.605 42.4453 213.466 42.4792 213.343 42.5469C213.223 42.612 213.123 42.707 213.042 42.832C212.962 42.957 212.899 43.1081 212.855 43.2852C212.813 43.4596 212.792 43.6562 212.792 43.875V44.0312C212.792 44.2161 212.817 44.388 212.867 44.5469C212.919 44.7031 212.994 44.8398 213.093 44.957C213.192 45.0742 213.312 45.1667 213.453 45.2344C213.593 45.2995 213.753 45.332 213.933 45.332C214.16 45.332 214.361 45.2865 214.539 45.1953C214.716 45.1042 214.869 44.9753 215 44.8086L215.496 45.2891C215.404 45.4219 215.286 45.5495 215.14 45.6719C214.994 45.7917 214.816 45.8893 214.605 45.9648C214.397 46.0404 214.154 46.0781 213.878 46.0781Z" fill="black" fill-opacity="0.76"/>
<path opacity="0.24" d="M305.663 90.0774L285.47 88.0485C283.509 87.8514 281.528 88.0428 279.641 88.6116L271.801 90.975C270.235 91.4468 268.604 91.6596 266.97 91.6049L258.604 91.3247C257.126 91.2752 255.648 91.4446 254.22 91.8274L244.987 94.3013C243.874 94.5994 242.799 95.0248 241.784 95.5689L235.482 98.9458C232.121 100.747 228.199 101.201 224.515 100.213L208.007 95.7902C205.463 95.1088 202.786 95.1088 200.242 95.7902L178 101.75V154H341V92.125L327.446 95.8094C323.748 96.8148 319.805 96.3663 316.426 94.5559L311.248 91.781C309.516 90.8527 307.618 90.2739 305.663 90.0774Z" fill="#4B63CC"/>
<path opacity="0.4" d="M224.105 120.709L212.708 116.819C207.43 115.018 201.589 116.293 197.543 120.129L194.259 123.242C192.172 125.221 189.559 126.558 186.733 127.094L178 128.75V164H341V118.689L340.545 118.223C337.036 114.625 331.706 113.491 327.037 115.351C323.643 116.702 319.827 116.493 316.601 114.781L310.977 111.795C309.421 110.968 307.731 110.423 305.986 110.183L298.917 109.211C296.708 108.908 294.459 109.1 292.334 109.775L282.5 112.899L275.854 115.891C271.788 117.722 267.12 117.65 263.113 115.693L261.399 114.857C258.158 113.274 254.456 112.913 250.97 113.838L244.976 115.429C243.87 115.723 242.802 116.142 241.791 116.678L235.984 119.761C232.325 121.704 228.026 122.047 224.105 120.709Z" fill="#CBB8FF"/>
<path d="M178 83L199.733 76.3449C202.595 75.4684 205.654 75.4684 208.517 76.3449L223.787 81.0211C227.896 82.2794 232.348 81.7147 236.013 79.4701L241.689 75.9938C242.767 75.3339 243.923 74.8128 245.131 74.4429L253.946 71.7435C255.554 71.2514 257.232 71.0328 258.912 71.0971L265.131 71.3352C267.945 71.4429 270.732 70.7565 273.174 69.3545L276.057 67.6992C280.117 65.3682 285.032 65.0663 289.347 66.8829L304.721 73.3562C307.273 74.4311 310.074 74.7781 312.812 74.3589L320.578 73.1698C321.316 73.0568 322.045 72.8887 322.758 72.6672L341 67" stroke="#5791FB"/>
<path d="M178 101.75L200.242 95.7902C202.786 95.1088 205.463 95.1088 208.007 95.7902L224.515 100.213C228.199 101.201 232.121 100.747 235.482 98.9458L241.784 95.5689C242.799 95.0248 243.874 94.5994 244.987 94.3013L254.22 91.8274C255.648 91.4446 257.126 91.2752 258.604 91.3247L266.97 91.6049C268.604 91.6596 270.235 91.4468 271.801 90.975L279.641 88.6116C281.528 88.0428 283.509 87.8514 285.47 88.0485L305.663 90.0774C307.618 90.2739 309.516 90.8527 311.248 91.781L316.426 94.5559C319.805 96.3663 323.748 96.8148 327.446 95.8094L341 92.125" stroke="#4B63CC"/>
<path d="M178 128.75L186.733 127.094C189.559 126.558 192.172 125.221 194.259 123.242L197.543 120.129C201.589 116.293 207.43 115.018 212.708 116.819L224.105 120.709C228.026 122.047 232.325 121.704 235.984 119.761L241.791 116.678C242.802 116.142 243.87 115.723 244.976 115.429L250.97 113.838C254.456 112.913 258.158 113.274 261.399 114.857L263.113 115.693C267.12 117.65 271.788 117.722 275.854 115.891L282.5 112.899L292.334 109.775C294.459 109.1 296.708 108.908 298.917 109.211L305.986 110.183C307.731 110.423 309.421 110.968 310.977 111.795L316.601 114.781C319.827 116.493 323.643 116.702 327.037 115.351C331.706 113.491 337.036 114.625 340.545 118.223L341 118.689" stroke="#A384FF"/>
</g>
<defs>
<filter id="filter0_dddd_16822_62925" x="0.772728" y="-5.45455" width="385.455" height="268" filterUnits="userSpaceOnUse" color-interpolation-filters="sRGB">
<feFlood flood-opacity="0" result="BackgroundImageFix"/>
<feColorMatrix in="SourceAlpha" type="matrix" values="0 0 0 0 0 0 0 0 0 0 0 0 0 0 0 0 0 0 127 0" result="hardAlpha"/>
<feOffset dy="5.45455"/>
<feGaussianBlur stdDeviation="5.45455"/>
<feColorMatrix type="matrix" values="0 0 0 0 0 0 0 0 0 0 0 0 0 0 0 0 0 0 0.06 0"/>
<feBlend mode="normal" in2="BackgroundImageFix" result="effect1_dropShadow_16822_62925"/>
<feColorMatrix in="SourceAlpha" type="matrix" values="0 0 0 0 0 0 0 0 0 0 0 0 0 0 0 0 0 0 127 0" result="hardAlpha"/>
<feOffset dy="20.7273"/>
<feGaussianBlur stdDeviation="10.3636"/>
<feColorMatrix type="matrix" values="0 0 0 0 0 0 0 0 0 0 0 0 0 0 0 0 0 0 0.05 0"/>
<feBlend mode="normal" in2="effect1_dropShadow_16822_62925" result="effect2_dropShadow_16822_62925"/>
<feColorMatrix in="SourceAlpha" type="matrix" values="0 0 0 0 0 0 0 0 0 0 0 0 0 0 0 0 0 0 127 0" result="hardAlpha"/>
<feOffset dy="45.8182"/>
<feGaussianBlur stdDeviation="13.6364"/>
<feColorMatrix type="matrix" values="0 0 0 0 0 0 0 0 0 0 0 0 0 0 0 0 0 0 0.03 0"/>
<feBlend mode="normal" in2="effect2_dropShadow_16822_62925" result="effect3_dropShadow_16822_62925"/>
<feColorMatrix in="SourceAlpha" type="matrix" values="0 0 0 0 0 0 0 0 0 0 0 0 0 0 0 0 0 0 127 0" result="hardAlpha"/>
<feOffset dy="81.8182"/>
<feGaussianBlur stdDeviation="16.3636"/>
<feColorMatrix type="matrix" values="0 0 0 0 0 0 0 0 0 0 0 0 0 0 0 0 0 0 0.01 0"/>
<feBlend mode="normal" in2="effect3_dropShadow_16822_62925" result="effect4_dropShadow_16822_62925"/>
<feBlend mode="normal" in="SourceGraphic" in2="effect4_dropShadow_16822_62925" result="shape"/>
</filter>
<filter id="filter1_d_16822_62925" x="35.9995" y="29" width="133" height="128" filterUnits="userSpaceOnUse" color-interpolation-filters="sRGB">
<feFlood flood-opacity="0" result="BackgroundImageFix"/>
<feColorMatrix in="SourceAlpha" type="matrix" values="0 0 0 0 0 0 0 0 0 0 0 0 0 0 0 0 0 0 127 0" result="hardAlpha"/>
<feOffset dy="2"/>
<feGaussianBlur stdDeviation="2"/>
<feComposite in2="hardAlpha" operator="out"/>
<feColorMatrix type="matrix" values="0 0 0 0 0 0 0 0 0 0 0 0 0 0 0 0 0 0 0.08 0"/>
<feBlend mode="normal" in2="BackgroundImageFix" result="effect1_dropShadow_16822_62925"/>
<feBlend mode="normal" in="SourceGraphic" in2="effect1_dropShadow_16822_62925" result="shape"/>
</filter>
<filter id="filter2_d_16822_62925" x="166" y="29" width="187" height="128" filterUnits="userSpaceOnUse" color-interpolation-filters="sRGB">
<feFlood flood-opacity="0" result="BackgroundImageFix"/>
<feColorMatrix in="SourceAlpha" type="matrix" values="0 0 0 0 0 0 0 0 0 0 0 0 0 0 0 0 0 0 127 0" result="hardAlpha"/>
<feOffset dy="2"/>
<feGaussianBlur stdDeviation="2"/>
<feComposite in2="hardAlpha" operator="out"/>
<feColorMatrix type="matrix" values="0 0 0 0 0 0 0 0 0 0 0 0 0 0 0 0 0 0 0.08 0"/>
<feBlend mode="normal" in2="BackgroundImageFix" result="effect1_dropShadow_16822_62925"/>
<feBlend mode="normal" in="SourceGraphic" in2="effect1_dropShadow_16822_62925" result="shape"/>
</filter>
<clipPath id="clip0_16822_62925">
<rect width="386.667" height="148" fill="white"/>
</clipPath>
</defs>
</svg>
