<svg width="1028" height="297" viewBox="0 0 1028 297" fill="none" xmlns="http://www.w3.org/2000/svg">
<g opacity="0.8" clip-path="url(#clip0_18326_154129)">
<path d="M31.143 134.974C31.433 134.897 31.775 135.012 31.9493 135.276L32.7327 136.465C32.8457 136.694 33.091 136.835 33.3455 136.819C34.0739 136.831 34.7674 136.906 35.438 137.089C35.6572 137.134 35.9474 137.056 36.1149 136.908L37.168 136.004C37.4192 135.781 37.722 135.752 38.0283 135.929L40.1118 137.133C40.4052 137.262 40.5444 137.587 40.477 137.915L40.2198 139.279C40.1396 139.56 40.2526 139.789 40.401 139.956C40.8946 140.446 41.3052 141.009 41.6797 141.634C41.8409 141.85 42.025 141.956 42.2924 141.988L43.7134 142.074C44.0292 142.093 44.3002 142.331 44.3779 142.621L44.9989 144.942C45.0764 145.232 44.9608 145.574 44.6967 145.748L43.5082 146.531C43.2795 146.644 43.138 146.89 43.1541 147.144C43.1419 147.873 43.0676 148.566 42.8845 149.237C42.8396 149.456 42.9173 149.746 43.0656 149.914L43.9215 150.98C44.144 151.231 44.1728 151.534 43.9959 151.84L42.7921 153.923C42.6635 154.217 42.3384 154.356 42.0096 154.289L40.6458 154.031C40.3654 153.951 40.1363 154.064 39.9689 154.213C39.4794 154.706 38.9157 155.117 38.2907 155.491C38.075 155.653 37.9686 155.837 37.9367 156.104L37.8506 157.525C37.8315 157.841 37.5938 158.112 37.304 158.189L34.9833 158.81C34.6933 158.888 34.3514 158.772 34.1771 158.508L33.3927 157.32C33.2797 157.091 33.0346 156.95 32.7799 156.966C32.0516 156.954 31.3588 156.879 30.6883 156.696C30.4692 156.651 30.1789 156.729 30.0114 156.877L28.9583 157.781C28.7071 158.004 28.4035 158.033 28.0971 157.856L26.0145 156.652C25.7211 156.523 25.5819 156.198 25.6493 155.869L25.9547 154.493C26.0349 154.212 25.9219 153.983 25.7735 153.816C25.2799 153.326 24.8693 152.762 24.4948 152.137C24.3336 151.922 24.1495 151.815 23.8821 151.783L22.4611 151.698C22.1453 151.679 21.8743 151.441 21.7966 151.151L21.1756 148.83C21.0981 148.54 21.2137 148.198 21.4778 148.024L22.6664 147.24C22.895 147.127 23.0365 146.882 23.0204 146.628C23.0326 145.899 23.1069 145.206 23.29 144.535C23.3349 144.316 23.2572 144.026 23.1089 143.858L22.1567 142.818C21.9824 142.554 21.9405 142.202 22.0691 141.909L23.2723 139.826C23.4622 139.568 23.7879 139.429 24.1038 139.448L25.4805 139.753C25.761 139.834 25.99 139.721 26.1575 139.572C26.647 139.079 27.2107 138.668 27.8357 138.294C28.0512 138.132 28.1577 137.948 28.1897 137.681L28.2748 136.26C28.2939 135.944 28.5325 135.673 28.8224 135.595L31.143 134.974ZM39.4483 143.5C39.6992 143.973 39.9021 144.481 40.0467 145.022C41.0815 148.888 38.768 152.823 34.9495 153.845C31.9591 154.645 28.8758 153.437 27.182 151.019C28.8756 153.438 31.9591 154.647 34.95 153.847C38.7687 152.825 41.083 148.89 40.0481 145.023C39.9034 144.482 39.6996 143.973 39.4483 143.5ZM31.5345 141.083C28.331 141.941 26.4291 145.233 27.2862 148.436C28.1435 151.64 31.4354 153.542 34.639 152.685C37.8424 151.827 39.7446 148.535 38.8873 145.332C38.0299 142.129 34.7378 140.226 31.5345 141.083ZM26.538 149.89C26.6736 150.187 26.8266 150.471 26.9975 150.741C26.8265 150.471 26.6736 150.187 26.538 149.89Z" fill="#006D92"/>
<circle opacity="0.16" cx="33.0873" cy="146.885" r="22.5176" transform="rotate(-14.9817 33.0873 146.885)" stroke="#006D92" stroke-width="3"/>
<circle cx="27.266" cy="125.133" r="4.50352" transform="rotate(-14.9817 27.266 125.133)" fill="#006D92"/>
<circle cx="11.3356" cy="152.705" r="4.50352" transform="rotate(-14.9817 11.3356 152.705)" fill="#006D92"/>
<circle cx="38.9079" cy="168.636" r="4.50352" transform="rotate(-14.9817 38.9079 168.636)" fill="#006D92"/>
<circle cx="54.8403" cy="141.063" r="4.50352" transform="rotate(-14.9817 54.8403 141.063)" fill="#006D92"/>
</g>
<g opacity="0.8" clip-path="url(#clip1_18326_154129)">
<rect opacity="0.16" x="906.708" y="5.05864" width="50.0391" height="50.0391" rx="25" transform="rotate(-5.802 906.708 5.05864)" fill="#006D92"/>
<path d="M923.887 22.8742L918.918 28.9677L925.011 33.937" stroke="#006D92" stroke-width="2.77778" stroke-miterlimit="10" stroke-linecap="round" stroke-linejoin="round"/>
<path d="M943.246 20.907L949.34 25.8763L944.37 31.9698" stroke="#006D92" stroke-width="2.77778" stroke-miterlimit="10" stroke-linecap="round" stroke-linejoin="round"/>
<path d="M935.77 16.0759L932.486 38.7637" stroke="#006D92" stroke-width="2.77778" stroke-miterlimit="10" stroke-linecap="round" stroke-linejoin="round"/>
</g>
<g opacity="0.8" clip-path="url(#clip2_18326_154129)">
<path opacity="0.16" d="M124.309 10.1822C124.141 10.5892 124.021 11.0239 123.957 11.4801C123.547 14.3993 125.581 17.0983 128.5 17.5085C128.956 17.5727 129.407 17.5771 129.845 17.5278L126.084 44.2885C125.677 44.1204 125.242 44.0005 124.786 43.9363C121.867 43.5261 119.168 45.5599 118.757 48.479C118.693 48.9353 118.689 49.3862 118.738 49.8238L91.9775 46.0629C92.1455 45.6558 92.2655 45.2211 92.3296 44.7649C92.7399 41.8457 90.706 39.1467 87.7869 38.7365C87.3306 38.6723 86.8797 38.6679 86.4421 38.7172L90.2031 11.9565C90.6102 12.1246 91.0448 12.2446 91.5011 12.3087C94.4202 12.7189 97.1192 10.6851 97.5295 7.76596C97.5936 7.30969 97.5981 6.85879 97.5487 6.42118L124.309 10.1822Z" fill="#006D92"/>
<path opacity="0.4" d="M118.893 47.8243C118.835 48.037 118.789 48.2552 118.757 48.479C118.693 48.9353 118.689 49.3862 118.738 49.8238L91.9775 46.0629C92.1455 45.6558 92.2655 45.2211 92.3296 44.7649C92.3611 44.541 92.3765 44.3185 92.3799 44.0982L118.893 47.8243ZM90.2031 11.9565C90.6102 12.1246 91.0448 12.2446 91.5011 12.3087C91.7249 12.3401 91.9475 12.3555 92.1678 12.359L88.4418 38.8706C88.2291 38.8132 88.0107 38.7679 87.7869 38.7365C87.3306 38.6723 86.8797 38.6679 86.4421 38.7172L90.2031 11.9565ZM126.084 44.2885C125.677 44.1204 125.242 44.0005 124.786 43.9363C124.562 43.9049 124.34 43.8882 124.119 43.8848L127.845 17.3731C128.058 17.4305 128.276 17.4771 128.5 17.5085C128.956 17.5727 129.407 17.5771 129.845 17.5278L126.084 44.2885ZM124.309 10.1822C124.141 10.5892 124.021 11.0239 123.957 11.4801C123.926 11.704 123.91 11.9265 123.907 12.1468L97.3941 8.42067C97.4515 8.20796 97.498 7.98978 97.5295 7.76596C97.5936 7.30969 97.5981 6.85879 97.5487 6.42118L124.309 10.1822Z" fill="#006D92"/>
<path d="M133.208 12.7758C133.515 10.5865 131.99 8.56224 129.801 8.25454C127.611 7.94685 125.587 9.47224 125.279 11.6616C124.972 13.8509 126.497 15.8752 128.686 16.1829C130.876 16.4906 132.9 14.9652 133.208 12.7758Z" fill="#006D92"/>
<path d="M128.006 49.7774C128.314 47.588 126.789 45.5638 124.599 45.2561C122.41 44.9484 120.386 46.4738 120.078 48.6631C119.77 50.8525 121.296 52.8767 123.485 53.1844C125.674 53.4921 127.699 51.9667 128.006 49.7774Z" fill="#006D92"/>
<path d="M91.0088 44.5741C91.3165 42.3848 89.7911 40.3605 87.6017 40.0528C85.4124 39.7451 83.3881 41.2705 83.0804 43.4599C82.7728 45.6492 84.2981 47.6735 86.4875 47.9811C88.6768 48.2888 90.7011 46.7635 91.0088 44.5741Z" fill="#006D92"/>
<path d="M96.2082 7.57647C96.5158 5.38712 94.9905 3.36286 92.8011 3.05517C90.6118 2.74748 88.5875 4.27286 88.2798 6.46221C87.9721 8.65156 89.4975 10.6758 91.6869 10.9835C93.8762 11.2912 95.9005 9.76582 96.2082 7.57647Z" fill="#006D92"/>
</g>
<g opacity="0.8" clip-path="url(#clip3_18326_154129)">
<rect x="994.063" y="125.172" width="21.35" height="16.0125" rx="1.33333" transform="rotate(12 994.063 125.172)" fill="#006D92"/>
<path opacity="0.16" fill-rule="evenodd" clip-rule="evenodd" d="M1000.27 143.379C1000.81 143.028 1001.53 143.182 1001.88 143.723C1001.89 143.73 1001.89 143.738 1001.89 143.745L1004.96 148.471C1005.31 149.012 1005.16 149.736 1004.62 150.087C1004.08 150.438 1003.36 150.284 1003 149.743L1001.49 147.411C1000.95 150.973 1001.43 153.294 1002.33 154.901C1003.36 156.738 1005.05 157.854 1006.99 158.798C1007.98 159.282 1008.92 159.667 1009.93 160.127C1010.89 160.566 1011.86 161.053 1012.69 161.666C1013.52 162.288 1014.25 163.076 1014.67 164.131C1015.08 165.189 1015.15 166.399 1014.85 167.785C1014.72 168.416 1014.1 168.818 1013.47 168.684C1012.84 168.55 1012.43 167.93 1012.57 167.3C1012.79 166.252 1012.71 165.526 1012.49 164.99C1012.28 164.452 1011.89 163.986 1011.29 163.538C1010.68 163.081 1009.9 162.678 1008.96 162.252C1008.08 161.848 1006.98 161.39 1005.97 160.898C1003.89 159.888 1001.67 158.51 1000.29 156.042C1000.12 155.733 999.961 155.409 999.818 155.071L996.772 169.402C996.638 170.032 996.018 170.435 995.387 170.301C994.757 170.166 994.354 169.547 994.487 168.916L997.533 154.585C997.266 154.836 996.989 155.068 996.705 155.281C994.439 156.973 991.854 157.331 989.547 157.409C988.421 157.447 987.232 157.418 986.258 157.427C985.233 157.437 984.356 157.487 983.61 157.656C982.879 157.821 982.332 158.087 981.918 158.492C981.507 158.895 981.136 159.525 980.914 160.573C980.779 161.203 980.159 161.605 979.529 161.471C978.898 161.337 978.495 160.718 978.629 160.087C978.924 158.701 979.472 157.62 980.285 156.824C981.096 156.03 982.081 155.607 983.096 155.377C984.096 155.152 985.181 155.102 986.237 155.092C987.345 155.081 988.361 155.112 989.468 155.075C991.625 155.003 993.622 154.67 995.308 153.41C996.784 152.308 998.168 150.382 999.121 146.908L996.79 148.422C996.25 148.773 995.526 148.619 995.175 148.078C994.824 147.537 994.977 146.814 995.518 146.463L1000.27 143.379Z" fill="#006D92"/>
<path d="M996.334 161.502C996.924 161.119 997.712 161.287 998.095 161.876L1002.25 168.28C1002.64 168.87 1002.47 169.658 1001.88 170.041L995.475 174.199C994.886 174.582 994.098 174.414 993.715 173.825L989.556 167.421C989.173 166.832 989.341 166.044 989.93 165.661L996.334 161.502Z" fill="#006D92"/>
<path d="M979.368 157.898C979.957 157.515 980.745 157.682 981.128 158.272L985.287 164.676C985.67 165.265 985.502 166.053 984.913 166.436L978.509 170.595C977.919 170.978 977.131 170.81 976.749 170.221L972.59 163.817C972.207 163.227 972.375 162.439 972.964 162.056L979.368 157.898Z" fill="#006D92"/>
<path d="M1013.3 165.11C1013.89 164.728 1014.68 164.895 1015.06 165.485L1019.22 171.888C1019.6 172.478 1019.44 173.266 1018.85 173.649L1012.44 177.807C1011.85 178.19 1011.07 178.023 1010.68 177.433L1006.52 171.029C1006.14 170.44 1006.31 169.652 1006.9 169.269L1013.3 165.11Z" fill="#006D92"/>
</g>
<g opacity="0.8" clip-path="url(#clip4_18326_154129)">
<path opacity="0.16" d="M936.524 251.63L925.971 266.702" stroke="#006D92" stroke-width="2.88889" stroke-linecap="round"/>
<path opacity="0.16" d="M942.218 250.625L957.29 261.178" stroke="#006D92" stroke-width="2.88889" stroke-linecap="round"/>
<path d="M921.48 263.499C921.917 262.875 922.776 262.723 923.4 263.16L930.176 267.905C930.8 268.341 930.951 269.201 930.515 269.825L925.77 276.601C925.333 277.225 924.474 277.376 923.85 276.939L917.074 272.195C916.45 271.758 916.299 270.898 916.735 270.275L921.48 263.499Z" fill="#006D92"/>
<path d="M958.495 256.974C958.932 256.35 959.792 256.199 960.415 256.635L967.191 261.38C967.815 261.817 967.967 262.676 967.53 263.3L962.785 270.076C962.349 270.7 961.489 270.851 960.865 270.415L954.089 265.67C953.465 265.233 953.314 264.374 953.751 263.75L958.495 256.974Z" fill="#006D92"/>
<path d="M936.724 241.728C937.161 241.104 938.021 240.952 938.644 241.389L945.42 246.134C946.044 246.571 946.196 247.43 945.759 248.054L941.014 254.83C940.578 255.454 939.718 255.605 939.094 255.168L932.318 250.424C931.694 249.987 931.543 249.127 931.98 248.504L936.724 241.728Z" fill="#006D92"/>
<path d="M943.774 269.433C944.059 269.383 944.377 269.522 944.522 269.79L945.175 270.996C945.265 271.225 945.488 271.381 945.733 271.387C946.431 271.459 947.09 271.588 947.718 271.82C947.925 271.881 948.209 271.831 948.382 271.703L949.469 270.924C949.728 270.731 950.021 270.729 950.3 270.924L952.198 272.254C952.469 272.402 952.575 272.725 952.483 273.035L952.123 274.321C952.022 274.583 952.112 274.813 952.24 274.986C952.673 275.497 953.019 276.072 953.326 276.703C953.463 276.923 953.63 277.041 953.884 277.094L955.24 277.294C955.542 277.339 955.782 277.591 955.832 277.876L956.234 280.153C956.284 280.438 956.144 280.756 955.876 280.901L954.671 281.554C954.442 281.643 954.285 281.867 954.28 282.112C954.207 282.81 954.078 283.469 953.847 284.097C953.785 284.303 953.835 284.588 953.964 284.761L954.695 285.856C954.887 286.115 954.89 286.408 954.694 286.687L953.366 288.585C953.218 288.856 952.894 288.962 952.584 288.87L951.297 288.51C951.035 288.41 950.806 288.499 950.633 288.627C950.122 289.06 949.547 289.406 948.916 289.713C948.696 289.85 948.579 290.017 948.525 290.271L948.324 291.628C948.279 291.929 948.028 292.169 947.744 292.219L945.465 292.621C945.181 292.671 944.863 292.531 944.718 292.263L944.064 291.058C943.975 290.829 943.752 290.673 943.506 290.667C942.808 290.594 942.149 290.466 941.521 290.234C941.315 290.173 941.03 290.223 940.857 290.351L939.772 291.129C939.512 291.321 939.218 291.324 938.939 291.129L937.042 289.8C936.771 289.652 936.665 289.328 936.757 289.019L937.165 287.723C937.265 287.461 937.176 287.232 937.048 287.059C936.615 286.548 936.269 285.973 935.962 285.342C935.825 285.122 935.658 285.004 935.404 284.951L934.047 284.75C933.746 284.705 933.506 284.454 933.456 284.169L933.054 281.892C933.004 281.607 933.143 281.289 933.411 281.143L934.617 280.491C934.846 280.402 935.002 280.178 935.008 279.933C935.081 279.235 935.209 278.576 935.441 277.948C935.503 277.742 935.452 277.456 935.324 277.283L934.498 276.206C934.353 275.938 934.342 275.597 934.49 275.326L935.818 273.429C936.022 273.197 936.346 273.091 936.648 273.136L937.942 273.544C938.205 273.644 938.434 273.555 938.607 273.426C939.118 272.994 939.694 272.647 940.324 272.341C940.545 272.204 940.662 272.036 940.715 271.782L940.916 270.426C940.96 270.125 941.212 269.885 941.497 269.834L943.774 269.433ZM944.015 287.931C944.069 287.936 944.122 287.941 944.175 287.945C944.122 287.941 944.069 287.936 944.015 287.931ZM943.641 275.328C940.496 275.883 938.396 278.883 938.95 282.028C939.505 285.172 942.504 287.272 945.649 286.717C948.794 286.163 950.893 283.164 950.339 280.019C949.785 276.875 946.786 274.774 943.641 275.328ZM939.898 286.085C940.023 286.202 940.153 286.312 940.286 286.419C940.154 286.312 940.023 286.202 939.899 286.086L939.898 286.085ZM939.118 285.218C939.287 285.44 939.467 285.652 939.66 285.851L939.433 285.605C939.323 285.481 939.219 285.351 939.118 285.218ZM943.439 274.189C939.69 274.85 937.141 278.431 937.81 282.228C937.969 283.126 938.295 283.95 938.747 284.678C938.295 283.951 937.97 283.127 937.811 282.228C937.142 278.432 939.691 274.851 943.44 274.19C943.665 274.15 943.889 274.121 944.113 274.104C943.889 274.121 943.664 274.149 943.439 274.189ZM949.157 275.752C949.449 276.001 949.718 276.276 949.966 276.572C949.718 276.276 949.448 276.001 949.157 275.752ZM947.523 274.711C947.667 274.778 947.809 274.849 947.949 274.925C947.809 274.849 947.667 274.778 947.523 274.711ZM944.183 274.099C945.215 274.03 946.222 274.193 947.145 274.551C946.222 274.193 945.215 274.03 944.183 274.099Z" fill="#006D92"/>
</g>
<g opacity="0.8" clip-path="url(#clip5_18326_154129)">
<path opacity="0.16" d="M96.5152 259.631L111.363 263.258C112.207 263.464 113.098 263.327 113.841 262.876C114.583 262.425 115.116 261.697 115.322 260.853L118.949 246.005C119.155 245.161 119.018 244.27 118.567 243.528C118.116 242.785 117.388 242.253 116.544 242.046L101.696 238.42C100.852 238.214 99.9612 238.351 99.2187 238.802C98.4763 239.253 97.9434 239.98 97.7373 240.824L94.1106 255.673C93.9045 256.516 94.0421 257.408 94.493 258.15C94.944 258.892 95.6714 259.425 96.5152 259.631Z" fill="#006D92"/>
<path d="M101.487 248.484L112.093 251.075C112.374 251.143 112.616 251.321 112.767 251.568C112.917 251.816 112.963 252.113 112.894 252.394C112.825 252.676 112.648 252.918 112.4 253.068C112.153 253.219 111.856 253.264 111.574 253.196L100.969 250.605C100.687 250.537 100.445 250.359 100.294 250.111C100.144 249.864 100.098 249.567 100.167 249.286C100.236 249.004 100.413 248.762 100.661 248.612C100.908 248.461 101.205 248.415 101.487 248.484Z" fill="#006D92"/>
<path opacity="0.16" d="M141.998 248.262L127.15 244.636C126.306 244.429 125.415 244.567 124.672 245.018C123.93 245.469 123.397 246.196 123.191 247.04L119.564 261.888C119.358 262.732 119.496 263.623 119.946 264.366C120.397 265.108 121.125 265.641 121.969 265.847L136.817 269.474C137.661 269.68 138.552 269.542 139.294 269.091C140.037 268.641 140.57 267.913 140.776 267.069L144.402 252.221C144.609 251.377 144.471 250.486 144.02 249.744C143.569 249.001 142.842 248.468 141.998 248.262Z" fill="#006D92"/>
<path d="M137.029 259.413L132.786 258.377L131.75 262.62C131.681 262.901 131.504 263.143 131.256 263.294C131.009 263.444 130.712 263.49 130.43 263.421C130.149 263.352 129.907 263.175 129.756 262.927C129.606 262.68 129.56 262.383 129.629 262.102L130.665 257.859L126.423 256.823C126.141 256.754 125.899 256.577 125.749 256.329C125.598 256.082 125.552 255.785 125.621 255.503C125.69 255.222 125.868 254.98 126.115 254.829C126.362 254.679 126.66 254.633 126.941 254.702L131.183 255.738L132.219 251.496C132.288 251.214 132.466 250.972 132.713 250.822C132.961 250.671 133.258 250.625 133.539 250.694C133.82 250.763 134.063 250.94 134.213 251.188C134.363 251.435 134.409 251.732 134.341 252.014L133.304 256.256L137.547 257.292C137.828 257.361 138.07 257.539 138.221 257.786C138.371 258.034 138.417 258.331 138.348 258.612C138.28 258.893 138.102 259.136 137.854 259.286C137.607 259.436 137.31 259.482 137.029 259.413Z" fill="#006D92"/>
<path opacity="0.16" d="M105.146 288.712C105.99 288.918 106.881 288.78 107.623 288.329C108.366 287.878 108.898 287.151 109.105 286.307L112.731 271.459C112.937 270.615 112.8 269.724 112.349 268.981C111.898 268.239 111.17 267.706 110.327 267.5L95.4784 263.873C94.6346 263.667 93.7434 263.805 93.001 264.256C92.2585 264.707 91.7257 265.434 91.5195 266.278L87.8929 281.126C87.6868 281.97 87.8243 282.861 88.2753 283.603C88.7262 284.346 89.4536 284.879 90.2975 285.085L105.146 288.712Z" fill="#006D92"/>
<path d="M96.5481 272.193C96.424 271.948 96.3969 271.665 96.4724 271.4C96.5479 271.136 96.7204 270.91 96.9554 270.767C97.1905 270.624 97.4707 270.575 97.7401 270.63C98.0096 270.685 98.2484 270.84 98.4088 271.063L100.677 274.798L104.412 272.529C104.657 272.405 104.94 272.378 105.205 272.453C105.469 272.529 105.695 272.701 105.838 272.936C105.981 273.171 106.03 273.452 105.975 273.721C105.92 273.991 105.765 274.229 105.542 274.39L101.807 276.658L104.076 280.393C104.225 280.64 104.27 280.936 104.201 281.216C104.133 281.496 103.957 281.738 103.71 281.888C103.463 282.037 103.168 282.082 102.887 282.014C102.607 281.946 102.365 281.769 102.215 281.523L99.9467 277.788L96.2121 280.057C95.9651 280.206 95.6693 280.251 95.3891 280.183C95.1089 280.114 94.8672 279.938 94.7167 279.691C94.5677 279.445 94.5225 279.149 94.5909 278.868C94.6593 278.588 94.8359 278.347 95.0819 278.196L98.8165 275.928L96.5481 272.193Z" fill="#006D92"/>
<path opacity="0.16" d="M135.782 273.716L120.934 270.089C120.09 269.883 119.199 270.02 118.456 270.471C117.714 270.922 117.181 271.65 116.975 272.494L113.348 287.342C113.142 288.186 113.28 289.077 113.731 289.819C114.182 290.562 114.909 291.095 115.753 291.301L130.601 294.927C131.445 295.133 132.336 294.996 133.079 294.545C133.821 294.094 134.354 293.367 134.56 292.523L138.187 277.675C138.393 276.831 138.255 275.94 137.804 275.197C137.353 274.455 136.626 273.922 135.782 273.716Z" fill="#006D92"/>
<path fill-rule="evenodd" clip-rule="evenodd" d="M120.204 282.275L130.81 284.866C131.091 284.934 131.388 284.889 131.636 284.738C131.883 284.588 132.061 284.346 132.13 284.064C132.198 283.783 132.152 283.486 132.002 283.238C131.852 282.991 131.609 282.813 131.328 282.745L120.722 280.154C120.441 280.085 120.144 280.131 119.896 280.282C119.649 280.432 119.471 280.674 119.403 280.956C119.334 281.237 119.38 281.534 119.53 281.781C119.68 282.029 119.923 282.207 120.204 282.275Z" fill="#006D92"/>
<path fill-rule="evenodd" clip-rule="evenodd" d="M127.607 277.53C127.461 277.371 127.271 277.258 127.061 277.207C126.78 277.138 126.483 277.184 126.235 277.334C125.988 277.485 125.81 277.727 125.742 278.009C125.69 278.218 125.703 278.439 125.776 278.641C125.85 278.844 125.983 279.021 126.157 279.148C126.331 279.276 126.539 279.349 126.755 279.358C126.971 279.368 127.184 279.313 127.369 279.201C127.554 279.089 127.701 278.924 127.792 278.729C127.883 278.533 127.914 278.314 127.881 278.101C127.848 277.888 127.753 277.689 127.607 277.53Z" fill="#006D92"/>
<path fill-rule="evenodd" clip-rule="evenodd" d="M123.797 287.319C123.947 287.567 124.19 287.744 124.471 287.813C124.752 287.882 125.049 287.836 125.297 287.685C125.544 287.535 125.722 287.293 125.79 287.011C125.859 286.73 125.813 286.433 125.663 286.186C125.513 285.938 125.27 285.76 124.989 285.692C124.708 285.623 124.411 285.669 124.163 285.819C123.916 285.969 123.738 286.212 123.669 286.493C123.601 286.775 123.646 287.072 123.797 287.319Z" fill="#006D92"/>
</g>
<defs>
<clipPath id="clip0_18326_154129">
<rect width="54" height="54" fill="white" transform="translate(0 127.768) scale(1.00078) rotate(-14.9817)"/>
</clipPath>
<clipPath id="clip1_18326_154129">
<rect width="50" height="50" fill="white" transform="translate(906.708 5.05864) scale(1.00078) rotate(-5.802)"/>
</clipPath>
<clipPath id="clip2_18326_154129">
<rect width="48" height="48" fill="white" transform="translate(87.7013 0.992963) scale(1.00078) rotate(8)"/>
</clipPath>
<clipPath id="clip3_18326_154129">
<rect width="48" height="48" fill="white" transform="translate(981.012 122.396) scale(1.00078) rotate(12)"/>
</clipPath>
<clipPath id="clip4_18326_154129">
<rect width="52" height="52" fill="white" transform="translate(911.989 245.68) scale(1.00078) rotate(-10)"/>
</clipPath>
<clipPath id="clip5_18326_154129">
<rect width="48" height="48" fill="white" transform="translate(98.5144 237.643) scale(1.00078) rotate(13.7257)"/>
</clipPath>
</defs>
</svg>
