<svg width="76" height="76" viewBox="0 0 76 76" fill="none" xmlns="http://www.w3.org/2000/svg">
<g filter="url(#filter0_ii_17168_73621)">
<rect x="13.3225" width="64.0777" height="64.0777" rx="5.99735" transform="rotate(12 13.3225 0)" fill="#3DB5E0"/>
<rect x="13.7075" y="0.592768" width="63.0782" height="63.0782" rx="5.49758" transform="rotate(12 13.7075 0.592768)" stroke="white" stroke-opacity="0.12" stroke-width="0.999559"/>
<path d="M38.2146 39.8171C38.4213 39.8611 38.5992 40.0431 38.6245 40.2644L38.7366 41.2609C38.7344 41.4404 38.8429 41.6083 39.0077 41.6795C39.4608 41.9199 39.8726 42.1876 40.2349 42.5167C40.3581 42.6149 40.5654 42.659 40.7179 42.6194L41.6673 42.3887C41.8958 42.3293 42.0957 42.4079 42.2314 42.6163L43.1544 44.0375C43.2974 44.2119 43.2808 44.4609 43.1337 44.6457L42.5367 45.42C42.3969 45.5701 42.3947 45.7498 42.4342 45.9021C42.5875 46.3669 42.6645 46.8522 42.6998 47.3638C42.7321 47.5506 42.8136 47.6769 42.971 47.7824L43.8357 48.2901C44.0278 48.403 44.1222 48.6399 44.0784 48.8466L43.7268 50.5009C43.6828 50.7078 43.5002 50.8856 43.2787 50.9106L42.2822 51.0227C42.1029 51.0207 41.9356 51.1294 41.8645 51.294C41.624 51.7472 41.3564 52.1589 41.0272 52.5212C40.9291 52.6443 40.8852 52.8517 40.9246 53.0042L41.1207 53.9462C41.1801 54.175 41.1012 54.3744 40.8922 54.5102L39.4709 55.4332C39.2965 55.5761 39.0484 55.5598 38.8636 55.4127L38.0894 54.8156C37.9391 54.6759 37.7587 54.6733 37.6063 54.7129C37.1415 54.8662 36.6565 54.9433 36.1447 54.9786C35.9581 55.0109 35.8324 55.0925 35.7269 55.2499L35.2192 56.1146C35.1063 56.3068 34.8696 56.4013 34.6627 56.3574L33.0084 56.0057C32.8017 55.9616 32.6237 55.779 32.5987 55.5577L32.4866 54.5612C32.4885 54.3818 32.38 54.2145 32.2153 54.1434C31.7623 53.903 31.3503 53.6352 30.9881 53.3062C30.8649 53.2081 30.6575 53.1639 30.5051 53.2035L29.5558 53.4342C29.327 53.4936 29.1275 53.4147 28.9918 53.2058L28.0688 51.7845C27.9261 51.61 27.9422 51.361 28.0895 51.1763L28.721 50.4103C28.8609 50.2599 28.8633 50.0797 28.8237 49.9272C28.6704 49.4624 28.5933 48.9773 28.558 48.4656C28.5256 48.2789 28.4434 48.1531 28.2858 48.0477L27.4211 47.5399C27.2292 47.4269 27.1353 47.1903 27.1792 46.9836L27.5308 45.3293C27.5749 45.1228 27.7569 44.9446 27.9781 44.9195L28.9746 44.8074C29.1542 44.8096 29.3223 44.7004 29.3934 44.5354C29.6338 44.0823 29.9015 43.6704 30.2306 43.3082C30.3285 43.1849 30.3726 42.9783 30.3331 42.826L30.0679 41.8685C30.0432 41.6472 30.1293 41.4136 30.3036 41.2707L31.7248 40.3477C31.9263 40.2466 32.1747 40.2631 32.3668 40.3756L33.1337 41.0073C33.2839 41.1471 33.4635 41.1493 33.6158 41.1098C34.0806 40.9565 34.5658 40.8794 35.0775 40.8441C35.2645 40.8118 35.3907 40.7298 35.4963 40.5721L36.004 39.7074C36.117 39.5156 36.3537 39.4217 36.5603 39.4655L38.2146 39.8171ZM36.5077 43.7783C34.2234 43.2932 31.9781 44.7513 31.4922 47.0354C31.0066 49.3199 32.4648 51.5658 34.7491 52.0517C37.0338 52.5373 39.28 51.0787 39.7656 48.794C40.2508 46.5095 38.7922 44.2639 36.5077 43.7783ZM41.0261 19.0986C41.4931 18.7953 42.1174 18.928 42.4207 19.395L45.7159 24.4692C46.0191 24.9363 45.8865 25.5606 45.4195 25.8639L43.7685 26.9353L49.9615 36.4717L51.6125 35.4003C52.0794 35.0973 52.7038 35.2301 53.0072 35.6968L56.3024 40.771C56.6057 41.2381 56.4728 41.8632 56.0058 42.1665L50.9316 45.4617C50.4646 45.7647 49.8402 45.6321 49.5369 45.1653L46.2417 40.0911C45.9384 39.624 46.0712 38.9989 46.5383 38.6956L48.1876 37.6238L41.9945 28.0873L40.3453 29.1591C39.8783 29.4624 39.254 29.3296 38.9506 28.8627L37.879 27.2125L28.3426 33.4056L29.4142 35.0557C29.7174 35.5228 29.5846 36.1479 29.1176 36.4512L24.0433 39.7464C23.5763 40.0497 22.9512 39.9168 22.6478 39.4498L19.3526 34.3756C19.0493 33.9085 19.1822 33.2834 19.6492 32.9801L24.7235 29.6849C25.1905 29.3816 25.8156 29.5144 26.1189 29.9815L27.1905 31.6316L36.727 25.4386L35.6554 23.7884C35.3521 23.3214 35.4848 22.6971 35.9518 22.3938L41.0261 19.0986Z" fill="white"/>
</g>
<defs>
<filter id="filter0_ii_17168_73621" x="-0.00030061" y="-2.00243" width="76.0007" height="80.0048" filterUnits="userSpaceOnUse" color-interpolation-filters="sRGB">
<feFlood flood-opacity="0" result="BackgroundImageFix"/>
<feBlend mode="normal" in="SourceGraphic" in2="BackgroundImageFix" result="shape"/>
<feColorMatrix in="SourceAlpha" type="matrix" values="0 0 0 0 0 0 0 0 0 0 0 0 0 0 0 0 0 0 127 0" result="hardAlpha"/>
<feOffset dy="-1.99912"/>
<feGaussianBlur stdDeviation="3.99824"/>
<feComposite in2="hardAlpha" operator="arithmetic" k2="-1" k3="1"/>
<feColorMatrix type="matrix" values="0 0 0 0 0 0 0 0 0 0 0 0 0 0 0 0 0 0 0.16 0"/>
<feBlend mode="normal" in2="shape" result="effect1_innerShadow_17168_73621"/>
<feColorMatrix in="SourceAlpha" type="matrix" values="0 0 0 0 0 0 0 0 0 0 0 0 0 0 0 0 0 0 127 0" result="hardAlpha"/>
<feOffset dy="1.99912"/>
<feGaussianBlur stdDeviation="3.99824"/>
<feComposite in2="hardAlpha" operator="arithmetic" k2="-1" k3="1"/>
<feColorMatrix type="matrix" values="0 0 0 0 1 0 0 0 0 1 0 0 0 0 1 0 0 0 0.16 0"/>
<feBlend mode="normal" in2="effect1_innerShadow_17168_73621" result="effect2_innerShadow_17168_73621"/>
</filter>
</defs>
</svg>
