<svg width="906" height="207" viewBox="0 0 906 207" fill="none" xmlns="http://www.w3.org/2000/svg">
<g opacity="0.8" clip-path="url(#clip0_18447_177232)">
<path d="M830.233 71.7761L837.336 72.2728L835.871 93.228L828.768 92.7313L830.233 71.7761Z" stroke="#D7702F" stroke-width="3.53684" stroke-miterlimit="10" stroke-linecap="round"/>
<path d="M802.531 69.8385L795.427 69.3418L793.962 90.297L801.066 90.7937L802.531 69.8385Z" stroke="#D7702F" stroke-width="3.53684" stroke-miterlimit="10" stroke-linecap="round"/>
<path d="M802.296 73.2142L801.302 87.4211L811.602 88.1414L812.099 81.0379L818.706 88.6381L829.006 89.3583L829.999 75.1514L802.296 73.2142Z" stroke="#D7702F" stroke-width="3.53684" stroke-miterlimit="10" stroke-linecap="round"/>
<path d="M819.491 107.469C819.273 110.586 816.57 112.936 813.453 112.718C810.337 112.5 807.987 109.797 808.205 106.68C808.423 103.564 814.658 95.4919 814.658 95.4919C814.658 95.4919 819.709 104.353 819.491 107.469Z" stroke="#D7702F" stroke-width="3.53684" stroke-miterlimit="10" stroke-linecap="round"/>
</g>
<g opacity="0.8" clip-path="url(#clip1_18447_177232)">
<path d="M177.821 50.5582C176.919 50.6166 175.993 50.5893 175.05 50.4679C174.902 50.4488 174.753 50.4274 174.604 50.4039C168.699 49.4686 164.124 45.2653 162.431 39.9301C161.484 36.9444 161.624 33.7191 162.699 30.7769L166.707 19.8029L170.82 25.7295C172.44 15.5059 178.342 12.6604 184.965 9.51631C183.842 16.6031 189.303 23.3791 190.763 32.5063C191.383 34.9647 191.34 37.3975 190.769 39.6435" stroke="#D7702F" stroke-width="4.52113" stroke-miterlimit="10"/>
<path d="M181.264 44.055C182.004 37.5885 176.886 33.5617 176.886 33.5617C176.886 33.5617 170.576 37.1199 169.659 44.0651C169.184 47.0628 171.229 49.8778 174.227 50.3526C175.635 50.5756 177.004 50.2424 178.108 49.5155" stroke="#D7702F" stroke-width="4.52113" stroke-miterlimit="10"/>
</g>
<g opacity="0.8">
<path d="M85.6588 110.96C83.3006 109.05 81.9624 106.581 81.6442 103.554C81.4602 101.803 81.6716 100.13 82.2785 98.536C82.8854 96.9417 83.8263 95.5428 85.1013 94.3393L83.261 76.8304C83.0693 75.0066 83.5447 73.3892 84.6872 71.9783C85.8297 70.5674 87.3129 69.7662 89.1368 69.5745C90.9606 69.3828 92.578 69.8582 93.9888 71.0007C95.3997 72.1432 96.201 73.6264 96.3927 75.4502L98.233 92.9591C99.7303 93.8713 100.941 95.044 101.867 96.4772C102.792 97.9105 103.346 99.5026 103.53 101.253C103.849 104.281 103.053 106.974 101.143 109.332C99.2336 111.69 96.765 113.029 93.7374 113.347C90.7098 113.665 88.0169 112.869 85.6588 110.96ZM89.0184 89.502L93.3957 89.0419L93.1656 86.8533L90.977 87.0834L90.747 84.8948L92.9356 84.6647L92.4755 80.2875L90.2869 80.5175L90.0569 78.3289L92.2455 78.0989L92.0155 75.9103C91.9503 75.2902 91.6859 74.7924 91.2223 74.417C90.7588 74.0416 90.2169 73.8865 89.5968 73.9517C88.9767 74.0169 88.479 74.2812 88.1036 74.7448C87.7282 75.2084 87.5731 75.7502 87.6382 76.3703L89.0184 89.502Z" fill="#D7702F"/>
</g>
<g opacity="0.8" clip-path="url(#clip2_18447_177232)">
<path d="M15.5243 159.232L20.0558 182.545L26.1754 181.355L29.5741 198.84L39.3216 172.751L31.1621 174.338L35.9229 155.267L15.5243 159.232Z" stroke="#D7702F" stroke-width="3.8"/>
</g>
<g opacity="0.8" clip-path="url(#clip3_18447_177232)">
<g clip-path="url(#clip4_18447_177232)">
<path d="M730.138 38.0198C730.355 39.3866 730.911 40.6904 731.808 41.9311C732.705 43.1717 734.129 44.5962 736.08 46.2046L733.449 49.4974C731.015 47.6337 729.206 45.8737 728.022 44.2176C726.838 42.5615 726.092 40.7623 725.785 38.8199C725.568 37.453 725.547 35.9814 725.722 34.4051C725.896 32.8289 726.271 30.8336 726.848 28.4193C727.375 26.1603 727.707 24.4761 727.845 23.3665C727.983 22.2569 727.98 21.2525 727.838 20.3533C727.621 18.9864 727.047 17.7499 726.116 16.6436C725.185 15.5374 723.731 14.3297 721.754 13.0205L724.28 9.41249C726.751 11.049 728.6 12.6551 729.827 14.2307C731.054 15.8063 731.827 17.6013 732.146 19.6157C732.345 20.8746 732.375 22.225 732.234 23.6669C732.094 25.1087 731.733 27.0188 731.151 29.3971C730.593 31.6977 730.244 33.4492 730.102 34.6515C729.961 35.8539 729.973 36.9766 730.138 38.0198ZM719.617 39.6862C719.833 41.0531 720.399 42.3554 721.314 43.5932C722.229 44.831 723.662 46.2541 725.613 47.8625L722.982 51.1553C720.548 49.2915 718.73 47.533 717.528 45.8798C716.326 44.2265 715.571 42.4287 715.263 40.4863C715.047 39.1194 715.026 37.6478 715.2 36.0716C715.375 34.4953 715.75 32.5 716.326 30.0857C716.853 27.8268 717.186 26.1425 717.323 25.0329C717.461 23.9234 717.459 22.919 717.316 22.0197C717.1 20.6528 716.535 19.4148 715.622 18.3058C714.709 17.1967 713.264 15.9876 711.286 14.6784L713.758 11.0789C716.23 12.7155 718.079 14.3215 719.306 15.8971C720.532 17.4728 721.305 19.2677 721.624 21.2821C721.824 22.541 721.853 23.8914 721.713 25.3333C721.572 26.7751 721.211 28.6852 720.629 31.0635C720.072 33.3641 719.722 35.1156 719.581 36.318C719.44 37.5203 719.451 38.643 719.617 39.6862ZM740.659 36.3533C740.876 37.7202 741.442 39.0226 742.357 40.2604C743.272 41.4982 744.705 42.9213 746.656 44.5297L744.016 47.7685C741.582 45.9047 739.766 44.1552 738.566 42.52C737.367 40.8847 736.614 39.0959 736.306 37.1535C736.09 35.7866 736.069 34.315 736.243 32.7387C736.417 31.1624 736.793 29.1672 737.369 26.7529C737.896 24.4939 738.229 22.8096 738.366 21.7001C738.504 20.5905 738.502 19.5861 738.359 18.6869C738.143 17.32 737.578 16.082 736.665 14.973C735.752 13.8639 734.306 12.6548 732.329 11.3455L734.801 7.74606C737.273 9.38261 739.122 10.9887 740.348 12.5643C741.575 14.1399 742.348 15.9349 742.667 17.9492C742.866 19.2082 742.896 20.5586 742.756 22.0004C742.615 23.4423 742.254 25.3523 741.672 27.7306C741.115 30.0313 740.765 31.7828 740.624 32.9851C740.482 34.1875 740.494 35.3102 740.659 36.3533Z" fill="#D7702F"/>
</g>
</g>
<g opacity="0.8" clip-path="url(#clip5_18447_177232)">
<path d="M853.158 193.922L852.795 195.788L850.929 195.425L851.292 193.56L853.158 193.922ZM860.337 156.989L858.471 156.626L858.778 155.048L860.385 155.089L860.337 156.989ZM881.257 157.489L881.281 155.588L883.557 155.617L883.123 157.851L881.257 157.489ZM875.456 197.293C875.256 198.324 874.258 198.997 873.228 198.796C872.197 198.596 871.524 197.598 871.725 196.568L873.59 196.931L875.456 197.293ZM892.987 201.664L892.624 203.53L852.795 195.788L853.158 193.922L853.52 192.057L893.35 199.799L892.987 201.664ZM853.158 193.922L851.292 193.56L858.471 156.626L860.337 156.989L862.203 157.351L855.023 194.285L853.158 193.922ZM881.257 157.489L883.123 157.851L875.456 197.293L873.59 196.931L871.725 196.568L879.391 157.126L881.257 157.489ZM860.337 156.989C860.385 155.089 860.385 155.089 860.385 155.089C860.386 155.089 860.386 155.089 860.386 155.089C860.387 155.089 860.387 155.089 860.389 155.089C860.391 155.089 860.394 155.089 860.399 155.089C860.407 155.089 860.421 155.09 860.438 155.09C860.473 155.091 860.525 155.092 860.593 155.094C860.729 155.098 860.928 155.103 861.183 155.109C861.692 155.122 862.423 155.14 863.307 155.163C865.075 155.207 867.459 155.267 869.919 155.327C874.85 155.448 880.063 155.573 881.281 155.588L881.257 157.489L881.233 159.389C879.986 159.373 874.739 159.248 869.826 159.127C867.364 159.067 864.98 159.007 863.211 158.963C862.327 158.94 861.596 158.922 861.087 158.909C860.832 158.903 860.632 158.897 860.497 158.894C860.429 158.892 860.377 158.891 860.342 158.89C860.324 158.89 860.311 158.889 860.302 158.889C860.298 158.889 860.294 158.889 860.292 158.889C860.291 158.889 860.29 158.889 860.289 158.889C860.289 158.889 860.289 158.889 860.289 158.889C860.289 158.889 860.289 158.889 860.337 156.989Z" fill="#D7702F"/>
<path d="M870.34 174.915L869.237 180.59" stroke="#D7702F" stroke-width="3.8" stroke-miterlimit="10"/>
<path d="M880.225 161.87L888.571 163.492L881.7 198.841" stroke="#D7702F" stroke-width="3.8"/>
</g>
<defs>
<clipPath id="clip0_18447_177232">
<rect width="50" height="50" fill="white" transform="translate(791.453 64.7697) scale(1.0003) rotate(4)"/>
</clipPath>
<clipPath id="clip1_18447_177232">
<rect width="50" height="50" fill="white" transform="translate(156.677 0.832284) scale(1.0003) rotate(9)"/>
</clipPath>
<clipPath id="clip2_18447_177232">
<rect width="50" height="50" fill="white" transform="translate(0.0996397 157.712) scale(1.0003) rotate(-11)"/>
</clipPath>
<clipPath id="clip3_18447_177232">
<rect width="50" height="50" fill="white" transform="translate(700.019 8.65497) scale(1.0003) rotate(-9)"/>
</clipPath>
<clipPath id="clip4_18447_177232">
<rect width="44" height="44" fill="white" transform="translate(703.452 11.1479) scale(1.0003) rotate(-9)"/>
</clipPath>
<clipPath id="clip5_18447_177232">
<rect width="50" height="50" fill="white" transform="translate(856.903 148.166) scale(1.0003) rotate(11)"/>
</clipPath>
</defs>
</svg>
