<svg width="88" height="88" viewBox="0 0 88 88" fill="none" xmlns="http://www.w3.org/2000/svg">
<g filter="url(#filter0_ii_16977_25497)">
<g clip-path="url(#clip0_16977_25497)">
<rect x="32.2102" width="64.4205" height="64.4205" rx="5.99735" transform="rotate(30 32.2102 0)" fill="#2C9755"/>
<g clip-path="url(#clip1_16977_25497)">
<path d="M40.3142 24.9296C40.7543 24.1673 40.4931 23.1926 39.7309 22.7525C38.9686 22.3124 37.9939 22.5736 37.5538 23.3359L27.9915 39.8982L24.8039 45.4193C23.4836 47.7062 24.2671 50.6303 26.5539 51.9506L48.6374 64.7005C49.3997 65.1406 50.3744 64.8794 50.8145 64.1171C51.2546 63.3548 50.9934 62.3801 50.2311 61.94L28.1477 49.1901C27.3854 48.75 27.1242 47.7753 27.5643 47.0131L30.4217 42.0639L36.953 40.3138L38.2905 45.3057C38.5184 46.1558 39.3923 46.6604 40.2425 46.4326L56.1197 42.1783L57.4573 47.1702C57.6851 48.0203 58.559 48.5249 59.4092 48.2971C60.2593 48.0692 60.7639 47.1953 60.5361 46.3452L58.7861 39.8139C58.5583 38.9637 57.6843 38.4591 56.8342 38.687L40.9569 42.9413L39.6194 37.9495C39.3915 37.0992 38.5176 36.5947 37.6674 36.8225L32.6756 38.1601L40.3142 24.9296Z" fill="white"/>
</g>
</g>
<rect x="32.3932" y="0.682712" width="63.4209" height="63.4209" rx="5.49758" transform="rotate(30 32.3932 0.682712)" stroke="white" stroke-opacity="0.12" stroke-width="0.999559"/>
</g>
<defs>
<filter id="filter0_ii_16977_25497" x="-0.000439846" y="-2.01314" width="87.9996" height="92.0259" filterUnits="userSpaceOnUse" color-interpolation-filters="sRGB">
<feFlood flood-opacity="0" result="BackgroundImageFix"/>
<feBlend mode="normal" in="SourceGraphic" in2="BackgroundImageFix" result="shape"/>
<feColorMatrix in="SourceAlpha" type="matrix" values="0 0 0 0 0 0 0 0 0 0 0 0 0 0 0 0 0 0 127 0" result="hardAlpha"/>
<feOffset dy="-1.99912"/>
<feGaussianBlur stdDeviation="3.99824"/>
<feComposite in2="hardAlpha" operator="arithmetic" k2="-1" k3="1"/>
<feColorMatrix type="matrix" values="0 0 0 0 0 0 0 0 0 0 0 0 0 0 0 0 0 0 0.16 0"/>
<feBlend mode="normal" in2="shape" result="effect1_innerShadow_16977_25497"/>
<feColorMatrix in="SourceAlpha" type="matrix" values="0 0 0 0 0 0 0 0 0 0 0 0 0 0 0 0 0 0 127 0" result="hardAlpha"/>
<feOffset dy="1.99912"/>
<feGaussianBlur stdDeviation="3.99824"/>
<feComposite in2="hardAlpha" operator="arithmetic" k2="-1" k3="1"/>
<feColorMatrix type="matrix" values="0 0 0 0 1 0 0 0 0 1 0 0 0 0 1 0 0 0 0.16 0"/>
<feBlend mode="normal" in2="effect1_innerShadow_16977_25497" result="effect2_innerShadow_16977_25497"/>
</filter>
<clipPath id="clip0_16977_25497">
<rect x="32.2102" width="64.4205" height="64.4205" rx="5.99735" transform="rotate(30 32.2102 0)" fill="white"/>
</clipPath>
<clipPath id="clip1_16977_25497">
<rect width="37.9832" height="37.9832" fill="white" transform="translate(37.1843 17.6011) scale(1.00701) rotate(30)"/>
</clipPath>
</defs>
</svg>
