<svg width="76" height="76" viewBox="0 0 76 76" fill="none" xmlns="http://www.w3.org/2000/svg">
<g filter="url(#filter0_ii_17179_74555)">
<rect x="13.3225" width="64.0777" height="64.0777" rx="5.99735" transform="rotate(12 13.3225 0)" fill="#35B690"/>
<rect x="13.7075" y="0.592768" width="63.0782" height="63.0782" rx="5.49758" transform="rotate(12 13.7075 0.592768)" stroke="white" stroke-opacity="0.12" stroke-width="0.999559"/>
<g clip-path="url(#clip0_17179_74555)">
<path d="M34.367 43.9365C34.8566 44.7548 35.6056 45.2634 36.614 45.4623C37.6221 45.6623 38.446 45.4285 39.0856 44.7609L48.0885 35.3802C48.4113 35.0322 48.4551 34.6624 48.2198 34.2707C47.9859 33.8781 47.6565 33.7706 47.2316 33.9482L35.6582 39.0325C34.835 39.3933 34.2918 40.0962 34.0287 41.1415C33.7646 42.1865 33.8773 43.1182 34.367 43.9365ZM24.2411 49.8197C23.6856 49.7016 23.1868 49.4468 22.7447 49.0552C22.3026 48.6636 21.9905 48.1806 21.8085 47.6062C21.3931 46.1787 21.1529 44.7068 21.0881 43.1907C21.0235 41.6735 21.1607 40.1176 21.4996 38.523C22.002 36.1596 22.8895 34.034 24.1623 32.1463C25.4337 30.2595 26.9556 28.6931 28.7278 27.4473C30.4987 26.2023 32.4452 25.3363 34.567 24.8493C36.6887 24.3634 38.8341 24.351 41.0033 24.812C42.1938 25.0651 43.3158 25.4446 44.3695 25.9507C45.4229 26.458 46.408 27.0917 47.3247 27.8521C47.8136 28.2834 48.0466 28.7793 48.0237 29.3399C48.0018 29.9007 47.7543 30.3838 47.281 30.7891C47.0149 31.0004 46.6906 31.0952 46.3082 31.0734C45.9257 31.0516 45.6041 30.9386 45.3434 30.7344C44.5937 30.0989 43.7934 29.5716 42.9424 29.1526C42.0914 28.7337 41.2029 28.4258 40.277 28.229C36.7587 27.4811 33.4802 28.1753 30.4415 30.3114C27.4015 32.4485 25.4791 35.4106 24.6741 39.1977C24.4199 40.3937 24.3205 41.6076 24.3761 42.8396C24.4327 44.0719 24.6298 45.2596 24.9674 46.4027L46.8711 51.0585C47.7096 50.1058 48.392 49.0753 48.9184 47.967C49.4438 46.8585 49.8397 45.6778 50.106 44.4249C50.3178 43.4283 50.4129 42.4295 50.3912 41.4285C50.3687 40.4261 50.2396 39.4386 50.004 38.4659C49.8975 38.0564 49.9263 37.6607 50.0904 37.2789C50.2545 36.8972 50.5093 36.6091 50.8547 36.4146C51.3627 36.106 51.8499 36.0905 52.3162 36.3681C52.7825 36.6458 53.0741 37.0947 53.1912 37.7148C53.4374 38.8981 53.5701 40.0947 53.5894 41.3047C53.6089 42.5136 53.512 43.7501 53.2986 45.0142C52.9536 46.6373 52.4454 48.1512 51.7741 49.5561C51.1017 50.9607 50.2662 52.2563 49.2675 53.4428C48.8675 53.8935 48.386 54.2078 47.8228 54.3857C47.2597 54.5636 46.7004 54.5935 46.1448 54.4754L24.2411 49.8197Z" fill="white"/>
</g>
</g>
<defs>
<filter id="filter0_ii_17179_74555" x="-0.00030061" y="-2.00243" width="76.0007" height="80.0048" filterUnits="userSpaceOnUse" color-interpolation-filters="sRGB">
<feFlood flood-opacity="0" result="BackgroundImageFix"/>
<feBlend mode="normal" in="SourceGraphic" in2="BackgroundImageFix" result="shape"/>
<feColorMatrix in="SourceAlpha" type="matrix" values="0 0 0 0 0 0 0 0 0 0 0 0 0 0 0 0 0 0 127 0" result="hardAlpha"/>
<feOffset dy="-1.99912"/>
<feGaussianBlur stdDeviation="3.99824"/>
<feComposite in2="hardAlpha" operator="arithmetic" k2="-1" k3="1"/>
<feColorMatrix type="matrix" values="0 0 0 0 0 0 0 0 0 0 0 0 0 0 0 0 0 0 0.16 0"/>
<feBlend mode="normal" in2="shape" result="effect1_innerShadow_17179_74555"/>
<feColorMatrix in="SourceAlpha" type="matrix" values="0 0 0 0 0 0 0 0 0 0 0 0 0 0 0 0 0 0 127 0" result="hardAlpha"/>
<feOffset dy="1.99912"/>
<feGaussianBlur stdDeviation="3.99824"/>
<feComposite in2="hardAlpha" operator="arithmetic" k2="-1" k3="1"/>
<feColorMatrix type="matrix" values="0 0 0 0 1 0 0 0 0 1 0 0 0 0 1 0 0 0 0.16 0"/>
<feBlend mode="normal" in2="effect1_innerShadow_17179_74555" result="effect2_innerShadow_17179_74555"/>
</filter>
<clipPath id="clip0_17179_74555">
<rect width="36" height="36" fill="white" transform="translate(24.3055 16.6545) scale(1.00166) rotate(12)"/>
</clipPath>
</defs>
</svg>
