<svg width="1011" height="231" viewBox="0 0 1011 231" fill="none" xmlns="http://www.w3.org/2000/svg">
<g opacity="0.8" clip-path="url(#clip0_18326_153917)">
<path opacity="0.08" d="M152.513 38.2815C154.954 49.7635 147.624 61.0499 136.142 63.4905C124.66 65.9311 113.374 58.6016 110.933 47.1196C108.493 35.6376 115.822 24.3512 127.304 21.9106C138.786 19.4701 150.073 26.7996 152.513 38.2815ZM117.17 45.7939C118.879 53.8313 126.779 58.9619 134.817 57.2535C142.854 55.5451 147.985 47.6446 146.276 39.6072C144.568 31.5699 136.667 26.4392 128.63 28.1476C120.592 29.856 115.462 37.7565 117.17 45.7939Z" fill="#2C9755"/>
<path d="M127.967 25.0282C127.601 23.3059 128.703 21.5873 130.46 21.4827C134.03 21.2703 137.614 21.9614 140.873 23.5157C145.096 25.53 148.537 28.8814 150.661 33.0503C152.785 37.2192 153.474 41.9724 152.621 46.5729C151.769 51.1734 149.422 55.3639 145.945 58.4947C142.468 61.6254 138.055 63.5214 133.39 63.8885C128.726 64.2556 124.071 63.0733 120.147 60.525C116.223 57.9768 113.249 54.2049 111.688 49.7945C110.482 46.3911 110.17 42.7543 110.754 39.2262C111.042 37.4891 112.866 36.5727 114.541 37.1168C116.215 37.6609 117.094 39.4642 116.919 41.2162C116.702 43.3845 116.962 45.5875 117.698 47.666C118.791 50.7533 120.873 53.3936 123.62 55.1774C126.366 56.9612 129.625 57.7888 132.89 57.5318C136.155 57.2748 139.244 55.9477 141.678 53.7562C144.112 51.5646 145.755 48.6312 146.352 45.4109C146.949 42.1906 146.466 38.8633 144.979 35.9451C143.492 33.0269 141.084 30.6809 138.128 29.2709C136.138 28.3216 133.974 27.8323 131.795 27.8217C130.034 27.8131 128.333 26.7504 127.967 25.0282Z" fill="#2C9755"/>
<path d="M95.172 18.9727L155.463 6.15746L168.278 66.4483L107.987 79.2635L95.172 18.9727Z" stroke="#2C9755" stroke-opacity="0.2" stroke-width="1.59375" stroke-dasharray="5.31 5.31"/>
<rect x="91.39" y="16.5151" width="6.37632" height="6.37632" rx="0.53125" transform="rotate(-12 91.39 16.5151)" fill="#2C9755"/>
<rect x="151.68" y="3.69998" width="6.37632" height="6.37632" rx="0.53125" transform="rotate(-12 151.68 3.69998)" fill="#2C9755"/>
<rect x="104.205" y="76.801" width="6.37632" height="6.37632" rx="0.53125" transform="rotate(-12 104.205 76.801)" fill="#2C9755"/>
<rect x="164.495" y="63.982" width="6.37632" height="6.37632" rx="0.53125" transform="rotate(-12 164.495 63.982)" fill="#2C9755"/>
</g>
<g opacity="0.8" clip-path="url(#clip1_18326_153917)">
<path d="M855.138 6.15752L915.429 18.9727L902.613 79.2635L842.322 66.4483L855.138 6.15752Z" stroke="#2C9755" stroke-opacity="0.2" stroke-width="1.59375" stroke-dasharray="5.31 5.31"/>
<rect x="852.684" y="2.37549" width="6.37632" height="6.37632" rx="0.53125" transform="rotate(12 852.684 2.37549)" fill="#2C9755"/>
<rect x="912.974" y="15.1906" width="6.37632" height="6.37632" rx="0.53125" transform="rotate(12 912.974 15.1906)" fill="#2C9755"/>
<rect x="839.869" y="62.6614" width="6.37632" height="6.37632" rx="0.53125" transform="rotate(12 839.869 62.6614)" fill="#2C9755"/>
<rect x="900.163" y="75.4726" width="6.37632" height="6.37632" rx="0.53125" transform="rotate(12 900.163 75.4726)" fill="#2C9755"/>
<path opacity="0.25" d="M860.4 35.7402L854.235 40.3178L849.648 61.8986L898.715 72.3282L906.768 34.4461L903.355 38.0892C900.749 40.8708 896.337 40.8792 893.721 38.1075L893.165 37.5186C891.078 35.3078 887.752 34.805 885.105 36.3L878.873 39.8194C875.962 41.4632 872.282 40.676 870.298 37.9852L869.665 37.1256C867.493 34.1788 863.339 33.5577 860.4 35.7402Z" fill="url(#paint0_linear_18326_153917)"/>
<path d="M854.237 40.3161L860.402 35.7385C863.341 33.556 867.494 34.1771 869.666 37.1239L870.3 37.9835C872.284 40.6744 875.964 41.4615 878.874 39.8177L885.106 36.2983C887.754 34.8033 891.079 35.3061 893.166 37.5169L893.722 38.1059C896.339 40.8775 900.751 40.8691 903.356 38.0875L906.769 34.4445" stroke="#2C9755" stroke-width="2.09877" stroke-linecap="round"/>
</g>
<g opacity="0.8" clip-path="url(#clip2_18326_153917)">
<path d="M915.736 164.034L976.027 151.219L988.842 211.51L928.551 224.325L915.736 164.034Z" stroke="#2C9755" stroke-opacity="0.2" stroke-width="1.59375" stroke-dasharray="5.31 5.31"/>
<rect x="911.954" y="161.576" width="6.37632" height="6.37632" rx="0.53125" transform="rotate(-12 911.954 161.576)" fill="#2C9755"/>
<rect x="972.244" y="148.761" width="6.37632" height="6.37632" rx="0.53125" transform="rotate(-12 972.244 148.761)" fill="#2C9755"/>
<rect x="924.769" y="221.862" width="6.37632" height="6.37632" rx="0.53125" transform="rotate(-12 924.769 221.862)" fill="#2C9755"/>
<rect x="985.059" y="209.043" width="6.37632" height="6.37632" rx="0.53125" transform="rotate(-12 985.059 209.043)" fill="#2C9755"/>
<path opacity="0.08" d="M930.855 203.239C930.396 203.337 929.943 203.043 929.86 202.581C928.729 196.222 930.051 189.657 933.581 184.222C937.265 178.549 943.052 174.571 949.668 173.165C956.285 171.759 963.189 173.038 968.862 176.722C974.297 180.252 978.176 185.711 979.729 191.981C979.841 192.437 979.547 192.889 979.088 192.987L970.772 194.754C970.312 194.852 969.863 194.558 969.74 194.105C968.757 190.481 966.471 187.334 963.306 185.279C959.902 183.068 955.759 182.3 951.79 183.144C947.82 183.988 944.347 186.374 942.137 189.778C940.081 192.944 939.273 196.748 939.849 200.458C939.921 200.922 939.63 201.374 939.171 201.471L930.855 203.239Z" fill="#2C9755"/>
<path d="M930.855 203.239C930.396 203.337 929.943 203.044 929.86 202.581C929.028 197.905 929.518 193.083 931.282 188.662C933.151 183.976 936.368 179.951 940.525 177.093C944.682 174.236 949.593 172.676 954.637 172.61C959.398 172.547 964.075 173.819 968.142 176.271C968.544 176.514 968.655 177.042 968.399 177.435L963.769 184.566C963.513 184.959 962.988 185.069 962.58 184.836C960.21 183.477 957.513 182.775 954.771 182.811C951.744 182.851 948.798 183.787 946.303 185.501C943.809 187.215 941.879 189.631 940.758 192.442C939.741 194.99 939.43 197.758 939.849 200.458C939.921 200.922 939.63 201.374 939.171 201.471L930.855 203.239Z" fill="#2C9755"/>
</g>
<g opacity="0.8" clip-path="url(#clip3_18326_153917)">
<path d="M34.9682 151.188L95.259 164.003L82.4438 224.294L22.153 211.478L34.9682 151.188Z" stroke="#2C9755" stroke-opacity="0.2" stroke-width="1.59375" stroke-dasharray="5.31 5.31"/>
<rect x="32.5145" y="147.405" width="6.37632" height="6.37632" rx="0.53125" transform="rotate(12 32.5145 147.405)" fill="#2C9755"/>
<rect x="92.8043" y="160.221" width="6.37632" height="6.37632" rx="0.53125" transform="rotate(12 92.8043 160.221)" fill="#2C9755"/>
<rect x="19.6994" y="207.691" width="6.37632" height="6.37632" rx="0.53125" transform="rotate(12 19.6994 207.691)" fill="#2C9755"/>
<rect x="79.9931" y="220.503" width="6.37632" height="6.37632" rx="0.53125" transform="rotate(12 79.9931 220.503)" fill="#2C9755"/>
<rect x="59.7467" y="166.038" width="7.55712" height="43.4534" rx="0.944444" transform="rotate(12 59.7467 166.038)" fill="#2C9755"/>
<rect x="41.7606" y="182.499" width="7.55712" height="23.616" rx="0.944444" transform="rotate(12 41.7606 182.499)" fill="#2C9755"/>
<rect x="70.8564" y="181.92" width="7.55712" height="30.2285" rx="0.944444" transform="rotate(12 70.8564 181.92)" fill="#2C9755"/>
</g>
<defs>
<linearGradient id="paint0_linear_18326_153917" x1="882.274" y1="29.238" x2="874.211" y2="67.1731" gradientUnits="userSpaceOnUse">
<stop stop-color="#2C9755"/>
<stop offset="1" stop-color="#2C9755" stop-opacity="0.25"/>
</linearGradient>
<clipPath id="clip0_18326_153917">
<rect width="68" height="68" fill="white" transform="translate(91.3919 16.5151) rotate(-12)"/>
</clipPath>
<clipPath id="clip1_18326_153917">
<rect width="68" height="68" fill="white" transform="translate(852.686 2.37549) rotate(12)"/>
</clipPath>
<clipPath id="clip2_18326_153917">
<rect width="68" height="68" fill="white" transform="translate(911.956 161.576) rotate(-12)"/>
</clipPath>
<clipPath id="clip3_18326_153917">
<rect width="68" height="68" fill="white" transform="translate(32.5165 147.405) rotate(12)"/>
</clipPath>
</defs>
</svg>
