<svg width="72" height="72" viewBox="0 0 72 72" fill="none" xmlns="http://www.w3.org/2000/svg">
<g filter="url(#filter0_ii_17179_74550)">
<rect x="7.87372" width="64.6079" height="64.6079" rx="5.99735" transform="rotate(7 7.87372 0)" fill="#35B690"/>
<rect x="8.30886" y="0.556962" width="63.6083" height="63.6083" rx="5.49758" transform="rotate(7 8.30886 0.556962)" stroke="white" stroke-opacity="0.12" stroke-width="0.999559"/>
<path d="M21.5115 49.0439C20.8767 48.9659 20.3504 48.6596 19.9327 48.125C19.515 47.5904 19.3452 47.0057 19.4231 46.3708L20.4316 38.1573C20.5096 37.5224 20.8159 36.9961 21.3505 36.5784C21.8851 36.1608 22.4698 35.9909 23.1047 36.0688L41.4363 38.3197L42.2987 31.2965L44.6794 31.5888L43.8171 38.612L47.9437 39.1187C48.5785 39.1966 49.1048 39.5029 49.5225 40.0375C49.9402 40.5721 50.1101 41.1569 50.0321 41.7917L49.0236 50.0053C48.9457 50.6401 48.6394 51.1664 48.1048 51.5841C47.5702 52.0018 46.9854 52.1717 46.3506 52.0937L21.5115 49.0439ZM27.7819 43.2444C27.84 42.771 27.7284 42.3559 27.4472 41.9992C27.166 41.6424 26.7887 41.435 26.3153 41.3769C25.8419 41.3187 25.4269 41.4303 25.0701 41.7115C24.7134 41.9928 24.5059 42.3701 24.4478 42.8434C24.3897 43.3168 24.5013 43.7319 24.7825 44.0886C25.0638 44.4454 25.4411 44.6528 25.9144 44.7109C26.3878 44.769 26.8028 44.6575 27.1596 44.3763C27.5163 44.095 27.7238 43.7177 27.7819 43.2444ZM33.6544 43.9654C33.7125 43.492 33.6009 43.077 33.3197 42.7202C33.0384 42.3635 32.6611 42.156 32.1878 42.0979C31.7144 42.0398 31.2994 42.1514 30.9426 42.4326C30.5859 42.7138 30.3784 43.0911 30.3203 43.5645C30.2622 44.0379 30.3737 44.4529 30.655 44.8097C30.9362 45.1664 31.3135 45.3739 31.7869 45.432C32.2602 45.4901 32.6753 45.3785 33.0321 45.0973C33.3888 44.8161 33.5962 44.4387 33.6544 43.9654ZM37.6594 46.153C38.1327 46.2111 38.5478 46.0996 38.9045 45.8184C39.2613 45.5371 39.4687 45.1598 39.5268 44.6865C39.585 44.2131 39.4734 43.798 39.1922 43.4413C38.9109 43.0845 38.5336 42.8771 38.0603 42.819C37.5869 42.7608 37.1718 42.8724 36.8151 43.1536C36.4583 43.4349 36.2509 43.8122 36.1928 44.2855C36.1347 44.7589 36.2462 45.174 36.5275 45.5307C36.8087 45.8875 37.186 46.0949 37.6594 46.153ZM40.5242 29.3467L39.0971 27.5201C39.81 26.9632 40.5916 26.549 41.442 26.2775C42.2925 26.006 43.1957 25.929 44.1516 26.0463C45.1076 26.1637 45.9653 26.457 46.7248 26.9262C47.4843 27.3953 48.1425 27.9863 48.6994 28.6992L46.8729 30.1262C46.548 29.7104 46.1232 29.3428 45.5986 29.0233C45.0739 28.7038 44.5008 28.5058 43.8792 28.4295C43.2575 28.3532 42.6469 28.4058 42.0473 28.5872C41.4477 28.7687 40.94 29.0219 40.5242 29.3467ZM37.5656 25.5599L36.0341 23.5997C37.0142 22.8339 38.2732 22.2031 39.8109 21.7072C41.3486 21.2113 42.9904 21.0705 44.7363 21.2849C46.4821 21.4992 48.0411 22.033 49.4132 22.8862C50.7853 23.7394 51.8542 24.656 52.6199 25.6361L50.6597 27.1677C50.0661 26.3161 49.2389 25.5634 48.178 24.9095C47.1171 24.2556 45.8724 23.841 44.444 23.6656C43.0155 23.4902 41.7075 23.5914 40.5199 23.9692C39.3324 24.347 38.3476 24.8772 37.5656 25.5599Z" fill="white"/>
</g>
<defs>
<filter id="filter0_ii_17179_74550" x="-0.000682753" y="-2.019" width="72.0018" height="76.038" filterUnits="userSpaceOnUse" color-interpolation-filters="sRGB">
<feFlood flood-opacity="0" result="BackgroundImageFix"/>
<feBlend mode="normal" in="SourceGraphic" in2="BackgroundImageFix" result="shape"/>
<feColorMatrix in="SourceAlpha" type="matrix" values="0 0 0 0 0 0 0 0 0 0 0 0 0 0 0 0 0 0 127 0" result="hardAlpha"/>
<feOffset dy="-1.99912"/>
<feGaussianBlur stdDeviation="3.99824"/>
<feComposite in2="hardAlpha" operator="arithmetic" k2="-1" k3="1"/>
<feColorMatrix type="matrix" values="0 0 0 0 0 0 0 0 0 0 0 0 0 0 0 0 0 0 0.16 0"/>
<feBlend mode="normal" in2="shape" result="effect1_innerShadow_17179_74550"/>
<feColorMatrix in="SourceAlpha" type="matrix" values="0 0 0 0 0 0 0 0 0 0 0 0 0 0 0 0 0 0 127 0" result="hardAlpha"/>
<feOffset dy="1.99912"/>
<feGaussianBlur stdDeviation="3.99824"/>
<feComposite in2="hardAlpha" operator="arithmetic" k2="-1" k3="1"/>
<feColorMatrix type="matrix" values="0 0 0 0 1 0 0 0 0 1 0 0 0 0 1 0 0 0 0.16 0"/>
<feBlend mode="normal" in2="effect1_innerShadow_17179_74550" result="effect2_innerShadow_17179_74550"/>
</filter>
</defs>
</svg>
