<svg width="806" height="184" viewBox="0 0 806 184" fill="none" xmlns="http://www.w3.org/2000/svg">
<g clip-path="url(#clip0_18332_158483)">
<g opacity="0.8">
<path d="M253.541 40.9957L262.457 42.2487L263.084 37.7908L254.168 36.5378L253.541 40.9957ZM241.698 12.0554L241.071 16.5133L281.192 22.152L281.819 17.6941L241.698 12.0554ZM246.192 28.5978L272.939 32.357L273.566 27.899L246.818 24.1399L246.192 28.5978Z" fill="#AA5BE3"/>
</g>
</g>
<g clip-path="url(#clip1_18332_158483)">
<g opacity="0.8" clip-path="url(#clip2_18332_158483)">
<path d="M767.05 113.259L770.912 119.08L763.59 123.937L765.985 127.546L773.306 122.69L777.168 128.511L779.735 115.826L767.05 113.259ZM758.593 111.547L745.908 108.979L743.34 121.664L749.162 117.803L757.108 129.755L753.86 145.802L758.089 146.658L761.688 128.877L752.772 115.408L758.593 111.547Z" fill="#AA5BE3"/>
</g>
</g>
<g clip-path="url(#clip3_18332_158483)">
<g opacity="0.8">
<path d="M516.231 49.453L543.599 46.0927L543.119 42.1831L515.751 45.5434L516.231 49.453ZM513.831 29.9048L521.65 28.9447L523.09 40.6736L534.819 39.2335L533.379 27.5046L541.198 26.5445L525.835 14.5409L513.831 29.9048Z" fill="#AA5BE3"/>
</g>
</g>
<g clip-path="url(#clip4_18332_158483)">
<g opacity="0.8">
<path fill-rule="evenodd" clip-rule="evenodd" d="M143.943 50.8903C145.672 50.7971 147.372 51.3734 148.667 52.5009C149.964 53.6294 150.749 55.2185 150.841 56.9207L151.584 70.6926C151.636 71.6635 151.557 72.4661 151.305 73.2216C151.057 73.966 150.667 74.586 150.227 75.2049C149.621 76.0561 148.737 76.5861 147.893 76.9096C147.043 77.2358 146.142 77.3886 145.375 77.43L136.832 77.8908L128.515 83.3506C128.148 83.592 127.677 83.6205 127.283 83.4243C126.889 83.2276 126.632 82.836 126.608 82.399L126.395 78.4538L124.073 78.579C122.344 78.6721 120.644 78.0959 119.349 76.9684C118.052 75.84 117.267 74.2507 117.175 72.5486L116.432 58.7768C116.398 58.138 116.462 57.5042 116.617 56.8953L119.128 57.4299L120.366 61.1454C121.349 64.0986 125.634 63.8674 126.294 60.8257L127.124 56.9986L130.869 55.7683C132.848 55.1181 133.408 53.0231 132.663 51.4987L143.943 50.8903ZM126.774 67.7147C126.096 67.7514 125.575 68.327 125.611 69.0003C125.647 69.6736 126.227 70.1899 126.906 70.1535L140.423 69.4243C141.102 69.3877 141.623 68.812 141.586 68.1386C141.55 67.4652 140.971 66.9489 140.292 66.9855L126.774 67.7147ZM128.837 60.2657C128.159 60.3025 127.638 60.878 127.674 61.5514C127.711 62.2247 128.29 62.7409 128.969 62.7045L143.715 61.9091C144.394 61.8725 144.915 61.2967 144.879 60.6234C144.842 59.9499 144.263 59.4337 143.584 59.4703L128.837 60.2657Z" fill="#AA5BE3"/>
<path d="M121.314 45.7537C121.563 44.5125 123.316 44.4179 123.697 45.6252L125.062 49.9561C125.194 50.3759 125.543 50.6934 125.976 50.7857L130.164 51.6765C131.39 51.9375 131.481 53.6383 130.291 54.0296L126.212 55.3698C125.797 55.506 125.486 55.8494 125.394 56.2726L124.49 60.4417C124.225 61.658 122.512 61.7505 122.118 60.5696L120.771 56.522C120.634 56.1113 120.288 55.8032 119.862 55.7123L115.662 54.8187C114.436 54.5574 114.344 52.8572 115.535 52.4656L119.602 51.1296C120.023 50.9912 120.337 50.6379 120.423 50.2063L121.314 45.7537Z" fill="#AA5BE3"/>
<path d="M111.228 41.5994C111.468 40.3443 113.242 40.2486 113.615 41.4707L114.354 43.8923C114.482 44.3128 114.829 44.6318 115.26 44.7283L117.67 45.2659C118.881 45.5362 118.972 47.2141 117.797 47.613L115.447 48.411C115.034 48.5511 114.727 48.8977 114.639 49.3216L114.159 51.6441C113.904 52.8756 112.168 52.9693 111.782 51.7723L111.053 49.515C110.92 49.1031 110.578 48.7915 110.152 48.6966L107.73 48.156C106.52 47.8855 106.43 46.2079 107.604 45.8089L109.942 45.0152C110.361 44.8729 110.671 44.5184 110.753 44.0865L111.228 41.5994Z" fill="#AA5BE3"/>
<path d="M129.035 40.3189C129.289 39.0872 131.026 38.9935 131.412 40.1906L131.661 40.9619C131.796 41.3807 132.147 41.6945 132.581 41.7841L133.212 41.9149C134.447 42.1698 134.54 43.8852 133.339 44.2715L132.713 44.4724C132.298 44.606 131.985 44.9481 131.89 45.3707L131.726 46.1057C131.456 47.3125 129.757 47.4041 129.359 46.2334L129.115 45.5204C128.976 45.1103 128.628 44.8039 128.201 44.7158L127.558 44.5833C126.322 44.3286 126.229 42.6129 127.431 42.2267L128.042 42.0289C128.464 41.8932 128.781 41.5434 128.87 41.1124L129.035 40.3189Z" fill="#AA5BE3"/>
</g>
</g>
<g clip-path="url(#clip5_18332_158483)">
<g opacity="0.8" clip-path="url(#clip6_18332_158483)">
<path d="M653.981 49.8189L673.563 51.9209L672.932 57.7957L681.606 50.8035L674.614 42.1296L673.983 48.0044L650.484 45.482L649.223 57.2315L653.14 57.6519L653.981 49.8189ZM671.461 71.5034L651.879 69.4014L652.509 63.5267L643.835 70.5189L650.828 79.1927L651.458 73.318L674.957 75.8404L676.218 64.0908L672.302 63.6704L671.461 71.5034Z" fill="#AA5BE3"/>
</g>
</g>
<g clip-path="url(#clip7_18332_158483)">
<g opacity="0.8" clip-path="url(#clip8_18332_158483)">
<path d="M31.2921 117.355C34.0616 118.016 36.3019 119.739 37.6969 121.981L31.3824 125.862L43.4236 128.737L46.2986 116.696L41.2022 119.827C39.262 116.67 36.1237 114.266 32.2504 113.341C25.1661 111.65 18.0956 115.498 15.4879 122.067L19.5418 123.035C21.5574 118.68 26.4355 116.196 31.2921 117.355ZM38.2314 138.401C39.9872 136.911 41.4231 134.984 42.3048 132.712L38.2509 131.744C36.2352 136.1 31.3572 138.584 26.5005 137.424C23.731 136.763 21.4908 135.04 20.0958 132.798L26.4103 128.917L14.369 126.042L11.4941 138.084L16.5904 134.952C18.5306 138.109 21.6689 140.513 25.5422 141.438C28.6529 142.18 31.7671 141.842 34.5024 140.692L41.9319 152.754L45.6361 150.478L38.2314 138.401Z" fill="#AA5BE3"/>
</g>
</g>
<g clip-path="url(#clip9_18332_158483)">
<g opacity="0.8">
<path d="M411.168 66.7027L411.594 62.7869L384.183 59.8004L386.743 36.3054L390.659 36.7321L385.425 30.2184L378.912 35.4522L382.827 35.8788L382.401 39.7946L374.569 38.9413L374.143 42.8572L381.974 43.7105L380.268 59.3738C380.033 61.5275 381.603 63.4816 383.757 63.7163L399.42 65.4228L398.994 69.3386L395.078 68.912L400.311 75.4257L406.825 70.1919L402.909 69.7653L403.336 65.8494L411.168 66.7027ZM389.806 44.5637L401.553 45.8436L400.273 57.5911L404.189 58.0178L405.469 46.2703C405.704 44.1166 404.134 42.1625 401.98 41.9278L390.232 40.6479L389.806 44.5637Z" fill="#AA5BE3"/>
</g>
</g>
<defs>
<clipPath id="clip0_18332_158483">
<rect width="50" height="50" fill="white" transform="translate(238.593) scale(1.00038) rotate(8)"/>
</clipPath>
<clipPath id="clip1_18332_158483">
<rect width="50" height="50" fill="white" transform="translate(739.851 99.8428) scale(1.00038) rotate(11.4429)"/>
</clipPath>
<clipPath id="clip2_18332_158483">
<rect width="51.75" height="51.75" fill="white" transform="translate(739.165 98.8112) scale(1.00038) rotate(11.4429)"/>
</clipPath>
<clipPath id="clip3_18332_158483">
<rect width="50" height="50" fill="white" transform="translate(500.125 10.3555) scale(1.00038) rotate(-7)"/>
</clipPath>
<clipPath id="clip4_18332_158483">
<rect width="50" height="50" fill="white" transform="translate(102.83 37.2017) scale(1.00038) rotate(-3.08756)"/>
</clipPath>
<clipPath id="clip5_18332_158483">
<rect width="50" height="50" fill="white" transform="translate(640.526 33.1298) scale(1.00038) rotate(6.12669)"/>
</clipPath>
<clipPath id="clip6_18332_158483">
<rect width="47.25" height="47.25" fill="white" transform="translate(641.745 34.6421) scale(1.00038) rotate(6.12669)"/>
</clipPath>
<clipPath id="clip7_18332_158483">
<rect width="50" height="50" fill="white" transform="translate(11.9069 99.7373) scale(1.00038) rotate(13.4284)"/>
</clipPath>
<clipPath id="clip8_18332_158483">
<rect width="49.5" height="49.5" fill="white" transform="translate(12.0925 100.042) scale(1.00038) rotate(13.4284)"/>
</clipPath>
<clipPath id="clip9_18332_158483">
<rect width="50" height="50" fill="white" transform="translate(370.716 25.2518) scale(1.00038) rotate(6.21795)"/>
</clipPath>
</defs>
</svg>
