<svg width="79" height="79" viewBox="0 0 79 79" fill="none" xmlns="http://www.w3.org/2000/svg">
<g filter="url(#filter0_ii_16977_25487)">
<rect y="16.6947" width="64.5032" height="64.5032" rx="5.99735" transform="rotate(-15 0 16.6947)" fill="#2C9755"/>
<rect x="0.612102" y="17.0481" width="63.5037" height="63.5037" rx="5.49758" transform="rotate(-15 0.612102 17.0481)" stroke="white" stroke-opacity="0.12" stroke-width="0.999559"/>
<path d="M28.3433 35.2655C27.6302 37.1086 27.3918 39.1005 27.6498 41.0585C27.6734 41.2131 27.6393 41.3711 27.5539 41.5024C27.4685 41.6337 27.3379 41.7291 27.1867 41.7707L21.3652 43.3306C21.2799 43.3537 21.1908 43.3589 21.1034 43.346C21.0161 43.333 20.9324 43.3021 20.8576 43.2553C20.7829 43.2084 20.7186 43.1466 20.669 43.0737C20.6194 43.0008 20.5855 42.9184 20.5693 42.8318C19.9008 39.0834 20.3754 35.2198 21.9317 31.7414C21.9691 31.6605 22.0231 31.5883 22.0901 31.5294C22.1571 31.4705 22.2357 31.4262 22.3208 31.3995C22.4059 31.3727 22.4957 31.364 22.5844 31.3739C22.673 31.3838 22.7586 31.4122 22.8356 31.4571L28.0734 34.4746C28.2062 34.5519 28.3065 34.6744 28.3561 34.8197C28.4056 34.9649 28.4011 35.1232 28.3433 35.2655Z" fill="white"/>
<path d="M47.5436 22.9031L44.5157 28.1362C44.4375 28.2686 44.3144 28.3688 44.1687 28.4184C44.023 28.4681 43.8644 28.464 43.7216 28.4068C41.3786 27.5104 38.8107 27.3776 36.3858 28.0273C33.9609 28.677 31.8035 30.0761 30.2226 32.0239C30.128 32.1454 29.9926 32.2288 29.8414 32.2587C29.6902 32.2886 29.5333 32.263 29.3996 32.1866L24.1608 29.1685C24.0835 29.1245 24.0163 29.0648 23.9635 28.9933C23.9107 28.9219 23.8734 28.8401 23.8541 28.7534C23.8347 28.6667 23.8337 28.5769 23.8512 28.4897C23.8686 28.4025 23.9041 28.32 23.9553 28.2472C26.5406 24.7024 30.2647 22.1487 34.5061 21.0122C38.7475 19.8758 43.2495 20.2253 47.2609 22.0025C47.3416 22.0399 47.4136 22.0937 47.4723 22.1604C47.531 22.2272 47.575 22.3055 47.6017 22.3903C47.6283 22.475 47.6369 22.5644 47.6269 22.6528C47.6169 22.7411 47.5885 22.8264 47.5436 22.9031Z" fill="white"/>
<path d="M57.9959 34.541C60.7271 44.7344 54.6571 55.2647 44.417 58.0044C35.005 60.5263 25.2718 55.6215 21.6826 46.7121C21.6501 46.6282 21.6357 46.5384 21.6404 46.4486C21.6451 46.3588 21.6688 46.271 21.7098 46.1909C21.7509 46.1108 21.8084 46.0402 21.8787 45.9838C21.9489 45.9274 22.0303 45.8865 22.1175 45.8637L27.9769 44.2937C28.1226 44.2556 28.2771 44.2701 28.4131 44.3346C28.5491 44.3991 28.6579 44.5095 28.7203 44.6463C29.997 47.3108 32.2229 49.4041 34.9636 50.5177C37.7044 51.6312 40.7634 51.6853 43.5442 50.6693C48.807 48.7635 52.0798 43.2921 51.2455 37.7689C50.8129 34.8229 49.2858 32.1483 46.9674 30.2765C46.8461 30.1821 46.7629 30.0471 46.7333 29.8963C46.7037 29.7455 46.7296 29.589 46.8062 29.4557L49.8341 24.2226C49.8783 24.1454 49.9382 24.0782 50.0099 24.0254C50.0815 23.9727 50.1634 23.9354 50.2503 23.916C50.3372 23.8966 50.4272 23.8955 50.5145 23.9128C50.6018 23.9301 50.6845 23.9654 50.7573 24.0165C54.3134 26.5864 56.8703 30.304 57.9959 34.541Z" fill="white"/>
</g>
<defs>
<filter id="filter0_ii_16977_25487" x="0" y="-2.01525" width="79.0005" height="83.032" filterUnits="userSpaceOnUse" color-interpolation-filters="sRGB">
<feFlood flood-opacity="0" result="BackgroundImageFix"/>
<feBlend mode="normal" in="SourceGraphic" in2="BackgroundImageFix" result="shape"/>
<feColorMatrix in="SourceAlpha" type="matrix" values="0 0 0 0 0 0 0 0 0 0 0 0 0 0 0 0 0 0 127 0" result="hardAlpha"/>
<feOffset dy="-1.99912"/>
<feGaussianBlur stdDeviation="3.99824"/>
<feComposite in2="hardAlpha" operator="arithmetic" k2="-1" k3="1"/>
<feColorMatrix type="matrix" values="0 0 0 0 0 0 0 0 0 0 0 0 0 0 0 0 0 0 0.16 0"/>
<feBlend mode="normal" in2="shape" result="effect1_innerShadow_16977_25487"/>
<feColorMatrix in="SourceAlpha" type="matrix" values="0 0 0 0 0 0 0 0 0 0 0 0 0 0 0 0 0 0 127 0" result="hardAlpha"/>
<feOffset dy="1.99912"/>
<feGaussianBlur stdDeviation="3.99824"/>
<feComposite in2="hardAlpha" operator="arithmetic" k2="-1" k3="1"/>
<feColorMatrix type="matrix" values="0 0 0 0 1 0 0 0 0 1 0 0 0 0 1 0 0 0 0.16 0"/>
<feBlend mode="normal" in2="effect1_innerShadow_16977_25487" result="effect2_innerShadow_16977_25487"/>
</filter>
</defs>
</svg>
