<svg width="990" height="260" viewBox="0 0 990 260" fill="none" xmlns="http://www.w3.org/2000/svg">
<g opacity="0.8" clip-path="url(#clip0_18368_189992)">
<path d="M39.5189 205.251C37.5147 206.408 36.8356 208.943 37.9927 210.947L45.0396 223.152C44.4782 224.849 44.683 226.705 45.5691 228.239C47.2996 231.237 51.1159 232.259 54.1131 230.529C57.1104 228.798 58.133 224.982 56.4025 221.985C55.5164 220.45 54.0116 219.345 52.2723 219.001L45.2149 206.777C44.0578 204.773 41.5231 204.094 39.5189 205.251ZM40.5614 207.056C41.5544 206.483 42.836 206.826 43.4094 207.819L44.4518 209.625L40.8407 211.71L39.7982 209.904C39.2249 208.911 39.5683 207.63 40.5614 207.056ZM18.1357 214.082L17.6572 216.38C17.6572 216.38 16.8576 220.332 16.4882 225.072C16.1188 229.811 15.9546 235.322 18.2063 239.222C21.6568 245.199 29.3179 247.252 35.2943 243.801C41.2708 240.351 43.3236 232.69 39.8731 226.713C37.6214 222.813 32.7662 220.2 28.4772 218.15C24.1882 216.1 20.3655 214.816 20.3655 214.816L18.1357 214.082ZM21.3986 219.733C22.7351 220.213 23.9056 220.573 26.694 221.9C30.7135 223.816 35.0527 226.704 36.2619 228.798C38.5762 232.806 37.2178 237.876 33.2095 240.19C29.2011 242.504 24.1316 241.146 21.8174 237.138C20.6082 235.043 20.2773 229.841 20.6273 225.402C20.8722 222.324 21.1462 221.131 21.3986 219.733Z" fill="#2C6CB4"/>
</g>
<g opacity="0.8">
<path d="M210.655 46.6853L208.582 46.9032L209.13 32.171L201.873 32.9338C200.048 33.1256 201.025 31.4506 201.06 31.3841C203.238 26.3754 206.519 18.9028 210.9 8.92487L212.974 8.70694L212.426 23.4391L219.704 22.6742C220.533 22.587 221.031 22.933 220.677 23.9555C213.988 39.1025 210.655 46.6853 210.655 46.6853Z" stroke="#2C6CB4" stroke-width="3.25"/>
</g>
<g opacity="0.8">
<path d="M795.224 47.2939L759.393 43.5279L761.653 22.0295L774.758 17.9729L774.382 21.556L783.716 18.9144L783.151 24.289L788.526 24.8539L791.824 10.7099L797.198 11.2748L797.483 25.7954L795.224 47.2939ZM779.577 23.8229L770.243 26.4645L770.61 22.971L764.987 24.7709L763.353 40.3215L792.017 43.3342L793.524 29.0019L779.191 27.4955L779.577 23.8229ZM776.27 38.0565L779.853 38.4331L780.606 31.2669L777.023 30.8903L776.27 38.0565ZM769.104 37.3033L772.687 37.6799L773.44 30.5137L769.857 30.1371L769.104 37.3033ZM787.772 32.0201L784.189 31.6435L783.436 38.8097L787.019 39.1863L787.772 32.0201Z" fill="#2C6CB4"/>
</g>
<g opacity="0.8" clip-path="url(#clip1_18368_189992)">
<path d="M76.3577 90.376C78.5415 86.5934 83.3853 85.2955 87.1677 87.4795" stroke="#2C6CB4" stroke-width="3.5" stroke-miterlimit="10"/>
<path d="M71.7879 87.7334C75.4275 81.4292 83.5009 79.266 89.805 82.9057" stroke="#2C6CB4" stroke-width="3.5" stroke-miterlimit="10"/>
<path d="M80.9275 93.0108C81.6555 91.7499 83.2696 91.3175 84.5306 92.0453" stroke="#2C6CB4" stroke-width="3.5" stroke-miterlimit="10"/>
<path d="M86.966 108.344C84.7036 99.9009 76.025 94.8903 67.5815 97.1527L67.5795 97.1532L67.5801 97.1552C69.8425 105.599 78.5211 110.609 86.9646 108.347L86.9665 108.346L86.966 108.344Z" stroke="#2C6CB4" stroke-width="3.5" stroke-miterlimit="10"/>
<path d="M88.673 114.716C86.4106 106.273 91.4212 97.5943 99.8647 95.3318L99.8666 95.3313L99.8671 95.3333C102.13 103.777 97.119 112.455 88.6755 114.718L88.6735 114.718L88.673 114.716Z" stroke="#2C6CB4" stroke-width="3.5" stroke-miterlimit="10"/>
<path d="M78.2048 123.326L101.404 117.11" stroke="#2C6CB4" stroke-width="3.5" stroke-miterlimit="10"/>
<path d="M86.9655 108.35L90.0378 119.816" stroke="#2C6CB4" stroke-width="3.5" stroke-miterlimit="10"/>
</g>
<g opacity="0.8" clip-path="url(#clip2_18368_189992)">
<path d="M898.697 101.071C897.818 104.354 899.804 107.735 903.147 108.631C906.49 109.527 909.901 107.592 910.78 104.309C911.487 101.671 910.625 100.62 907.194 93.5272C900.646 97.9889 899.399 98.4534 898.697 101.071Z" fill="#2C6CB4"/>
<path d="M920.876 106.905C921.983 107.202 923.132 106.538 923.429 105.431C923.726 104.323 923.062 103.174 921.955 102.877L919.941 102.338L923.179 90.2545L925.193 90.7941C926.3 91.0908 927.449 90.4274 927.746 89.3198C928.043 88.2122 927.379 87.0632 926.272 86.7664L894.05 78.1326C892.943 77.8358 891.793 78.4993 891.497 79.6069C891.2 80.7145 891.863 81.8635 892.971 82.1603L894.985 82.6999L891.747 94.783L889.733 94.2434C888.626 93.9466 887.477 94.61 887.18 95.7176C886.883 96.8253 887.546 97.9743 888.654 98.2711L890.668 98.8107L887.43 110.894L885.416 110.354C884.309 110.057 883.16 110.721 882.863 111.828C882.566 112.936 883.23 114.085 884.337 114.382L916.559 123.016C917.666 123.312 918.815 122.649 919.112 121.541C919.409 120.434 918.746 119.285 917.638 118.988L915.624 118.448L918.862 106.365L920.876 106.905ZM911.596 117.369L891.458 111.973L894.696 99.8899C895.803 100.187 896.952 99.5233 897.249 98.4157C897.546 97.3081 896.882 96.159 895.775 95.8622L899.012 83.7791L919.151 89.1752L915.913 101.258C914.806 100.962 913.657 101.625 913.36 102.733C913.063 103.84 913.726 104.989 914.834 105.286L911.596 117.369Z" fill="#2C6CB4"/>
</g>
<g opacity="0.8" clip-path="url(#clip3_18368_189992)">
<path d="M954.742 247.505L936.542 236.997L950.115 213.489L968.315 223.996L954.742 247.505Z" stroke="#2C6CB4" stroke-width="3.5" stroke-miterlimit="10"/>
<path d="M963.841 252.759L954.741 247.505L965.249 229.305L974.349 234.559L963.841 252.759Z" stroke="#2C6CB4" stroke-width="3.5" stroke-miterlimit="10"/>
<path d="M936.542 236.997L927.442 231.743L937.949 213.543L947.05 218.797L936.542 236.997Z" stroke="#2C6CB4" stroke-width="3.5" stroke-miterlimit="10"/>
<path d="M948.707 236.943L944.157 234.316L941.092 239.624L945.642 242.251L948.707 236.943Z" stroke="#2C6CB4" stroke-width="3.5" stroke-miterlimit="10"/>
<path d="M953.258 239.57L948.707 236.943L945.643 242.251L950.193 244.878L953.258 239.57Z" stroke="#2C6CB4" stroke-width="3.5" stroke-miterlimit="10"/>
<path d="M947.924 230.418C947.561 231.046 946.758 231.261 946.129 230.899C945.501 230.536 945.286 229.733 945.649 229.105C946.011 228.476 946.815 228.261 947.443 228.624C948.071 228.986 948.286 229.79 947.924 230.418Z" fill="#2C6CB4"/>
<path d="M954.749 234.358C954.386 234.987 954.602 235.79 955.23 236.153C955.858 236.515 956.661 236.3 957.024 235.672C957.387 235.044 957.172 234.24 956.543 233.878C955.915 233.515 955.112 233.73 954.749 234.358Z" fill="#2C6CB4"/>
<path d="M952.474 233.045C952.111 233.673 951.308 233.888 950.68 233.526C950.051 233.163 949.836 232.36 950.199 231.731C950.562 231.103 951.365 230.888 951.993 231.251C952.621 231.613 952.837 232.417 952.474 233.045Z" fill="#2C6CB4"/>
<path d="M950.551 225.868C950.188 226.496 949.384 226.711 948.756 226.348C948.128 225.986 947.913 225.182 948.276 224.554C948.638 223.926 949.442 223.711 950.07 224.073C950.698 224.436 950.913 225.24 950.551 225.868Z" fill="#2C6CB4"/>
<path d="M957.376 229.808C957.013 230.436 957.229 231.24 957.857 231.602C958.485 231.965 959.288 231.75 959.651 231.122C960.014 230.493 959.799 229.69 959.17 229.327C958.542 228.965 957.739 229.18 957.376 229.808Z" fill="#2C6CB4"/>
<path d="M955.101 228.495C954.738 229.123 953.935 229.338 953.307 228.975C952.678 228.613 952.463 227.809 952.826 227.181C953.188 226.553 953.992 226.338 954.62 226.7C955.248 227.063 955.464 227.866 955.101 228.495Z" fill="#2C6CB4"/>
<path d="M953.177 221.317C952.815 221.946 952.011 222.161 951.383 221.798C950.755 221.436 950.54 220.632 950.902 220.004C951.265 219.376 952.069 219.161 952.697 219.523C953.325 219.886 953.54 220.689 953.177 221.317Z" fill="#2C6CB4"/>
<path d="M960.003 225.258C959.64 225.886 959.856 226.689 960.484 227.052C961.112 227.415 961.915 227.2 962.278 226.571C962.641 225.943 962.425 225.14 961.797 224.777C961.169 224.414 960.366 224.63 960.003 225.258Z" fill="#2C6CB4"/>
<path d="M957.728 223.944C957.365 224.573 956.562 224.788 955.934 224.425C955.305 224.062 955.09 223.259 955.453 222.631C955.815 222.003 956.619 221.787 957.247 222.15C957.875 222.513 958.09 223.316 957.728 223.944Z" fill="#2C6CB4"/>
<path d="M958.013 209.305C962.232 208.174 966.575 210.681 967.705 214.9" stroke="#2C6CB4" stroke-width="3.5" stroke-miterlimit="10"/>
<path d="M956.651 204.203C963.682 202.319 970.921 206.498 972.805 213.529" stroke="#2C6CB4" stroke-width="3.5" stroke-miterlimit="10"/>
<path d="M959.383 214.398C960.79 214.021 962.237 214.857 962.614 216.263" stroke="#2C6CB4" stroke-width="3.5" stroke-miterlimit="10"/>
</g>
<defs>
<clipPath id="clip0_18368_189992">
<rect width="50" height="50" fill="white" transform="translate(0 216.028) scale(1.00075) rotate(-30)"/>
</clipPath>
<clipPath id="clip1_18368_189992">
<rect width="50" height="50" fill="white" transform="translate(54.054 82.8782) scale(1.00075) rotate(-15)"/>
</clipPath>
<clipPath id="clip2_18368_189992">
<rect width="50" height="50" fill="white" transform="translate(887.613 69.9311) scale(1.00075) rotate(15)"/>
</clipPath>
<clipPath id="clip3_18368_189992">
<rect width="50" height="50" fill="white" transform="translate(946.667 191.01) scale(1.00075) rotate(30)"/>
</clipPath>
</defs>
</svg>
