<svg width="858" height="195" viewBox="0 0 858 195" fill="none" xmlns="http://www.w3.org/2000/svg">
<g opacity="0.8" clip-path="url(#clip0_18309_235561)">
<mask id="mask0_18309_235561" style="mask-type:luminance" maskUnits="userSpaceOnUse" x="-1" y="149" width="45" height="44">
<path d="M-0.00116042 152.818L39.8824 149.487L43.2136 189.371L3.32999 192.702L-0.00116042 152.818Z" fill="white"/>
</mask>
<g mask="url(#mask0_18309_235561)">
<path d="M39.3302 156.986L31.5798 159.987L32.1003 166.219L40.241 167.892L39.3302 156.986Z" stroke="#4B63CC" stroke-width="2.75" stroke-miterlimit="10" stroke-linecap="round" stroke-linejoin="round"/>
</g>
<path d="M22.6885 166.218L27.3624 165.828" stroke="#4B63CC" stroke-width="2.75" stroke-miterlimit="10" stroke-linecap="round" stroke-linejoin="round"/>
<mask id="mask1_18309_235561" style="mask-type:luminance" maskUnits="userSpaceOnUse" x="-1" y="149" width="45" height="44">
<path d="M-0.00116042 152.818L39.8824 149.487L43.2136 189.371L3.32999 192.702L-0.00116042 152.818Z" fill="white"/>
</mask>
<g mask="url(#mask1_18309_235561)">
<path d="M5.82697 180.335L3.49004 180.53L4.40091 191.436L6.73783 191.24C8.02844 191.133 8.98737 189.999 8.87958 188.708L8.35909 182.476C8.25129 181.186 7.11758 180.227 5.82697 180.335Z" stroke="#4B63CC" stroke-width="2.75" stroke-miterlimit="10" stroke-linecap="round" stroke-linejoin="round"/>
<path d="M25.6134 173.035L25.4182 170.698L14.5125 171.609L14.7077 173.946C14.8155 175.236 15.9492 176.195 17.2398 176.087L23.4716 175.567C24.7622 175.459 25.7212 174.325 25.6134 173.035Z" stroke="#4B63CC" stroke-width="2.75" stroke-miterlimit="10" stroke-linecap="round" stroke-linejoin="round"/>
<path d="M18.0164 176.022L18.5499 182.41L8.42317 183.256L8.81354 187.93L18.9402 187.084C21.5215 186.868 23.4393 184.601 23.2237 182.02L22.6902 175.632L18.0164 176.022Z" stroke="#4B63CC" stroke-width="2.75" stroke-miterlimit="10" stroke-linecap="round" stroke-linejoin="round"/>
<path d="M5.29022 164.533L5.74565 169.986C5.85345 171.277 6.98715 172.236 8.27776 172.128L30.0891 170.306C31.3797 170.199 32.3386 169.065 32.2308 167.774L31.32 156.869" stroke="#4B63CC" stroke-width="2.75" stroke-miterlimit="10" stroke-linecap="round" stroke-linejoin="round"/>
<path d="M35.5411 151.027L3.60307 153.695C2.31246 153.803 1.35353 154.936 1.46132 156.227L1.98182 162.459C2.08961 163.749 3.22332 164.708 4.51393 164.6L14.2886 163.784C15.4592 163.686 16.474 162.935 16.91 161.845C17.2784 160.924 18.0652 160.234 19.0269 159.99L31.3227 156.87L35.5411 151.027Z" stroke="#4B63CC" stroke-width="2.75" stroke-miterlimit="10" stroke-linecap="round" stroke-linejoin="round"/>
</g>
</g>
<g opacity="0.8" clip-path="url(#clip1_18309_235561)">
<path d="M845.874 154.861L825.33 152.902L823.371 173.446L843.915 175.404L845.874 154.861Z" stroke="#4B63CC" stroke-width="3" stroke-miterlimit="10" stroke-linecap="round"/>
<path d="M838.373 161.056L834.949 160.729L831.525 160.403L832.178 153.555L839.026 154.208L838.373 161.056Z" stroke="#4B63CC" stroke-width="3" stroke-miterlimit="10" stroke-linecap="round"/>
<circle cx="832.992" cy="181.273" r="1.71971" transform="rotate(5.44694 832.992 181.273)" fill="#4B63CC"/>
<path d="M853.19 183.199C852.829 186.981 849.471 189.755 845.689 189.394L818.982 186.848C815.201 186.487 812.427 183.129 812.788 179.347C813.148 175.565 816.506 172.791 820.288 173.152L846.995 175.699C850.777 176.059 853.55 179.417 853.19 183.199Z" stroke="#4B63CC" stroke-width="3" stroke-miterlimit="10"/>
<circle cx="843.263" cy="182.254" r="1.71971" transform="rotate(5.44694 843.263 182.254)" fill="#4B63CC"/>
<circle cx="822.72" cy="180.292" r="1.71971" transform="rotate(5.44694 822.72 180.292)" fill="#4B63CC"/>
</g>
<g opacity="0.8" clip-path="url(#clip2_18309_235561)">
<path d="M216.812 41.3481C217.117 42.4868 216.442 43.6572 215.303 43.9623L192.043 50.1948C190.905 50.4999 189.734 49.8241 189.429 48.6854L183.197 25.4258C182.892 24.2871 183.567 23.1166 184.706 22.8115L207.966 16.5791C209.104 16.274 210.275 16.9497 210.58 18.0884L216.812 41.3481Z" stroke="#4B63CC" stroke-width="3" stroke-miterlimit="10"/>
<path d="M193.921 20.3434L192.065 13.4171" stroke="#4B63CC" stroke-width="3" stroke-miterlimit="10"/>
<path d="M189.09 21.6371L187.235 14.7108" stroke="#4B63CC" stroke-width="3" stroke-miterlimit="10"/>
<path d="M198.752 19.0497L196.896 12.1234" stroke="#4B63CC" stroke-width="3" stroke-miterlimit="10"/>
<path d="M203.583 17.7521L201.727 10.8258" stroke="#4B63CC" stroke-width="3" stroke-miterlimit="10"/>
<path d="M186.961 39.472L180.035 41.3279" stroke="#4B63CC" stroke-width="3" stroke-miterlimit="10"/>
<path d="M188.259 44.3067L181.332 46.1626" stroke="#4B63CC" stroke-width="3" stroke-miterlimit="10"/>
<path d="M185.667 34.6411L178.741 36.497" stroke="#4B63CC" stroke-width="3" stroke-miterlimit="10"/>
<path d="M184.37 29.8064L177.443 31.6623" stroke="#4B63CC" stroke-width="3" stroke-miterlimit="10"/>
<path d="M206.089 46.4317L207.945 53.3581" stroke="#4B63CC" stroke-width="3" stroke-miterlimit="10"/>
<path d="M210.92 45.138L212.776 52.0644" stroke="#4B63CC" stroke-width="3" stroke-miterlimit="10"/>
<path d="M201.258 47.7254L203.114 54.6517" stroke="#4B63CC" stroke-width="3" stroke-miterlimit="10"/>
<path d="M196.427 49.023L198.283 55.9494" stroke="#4B63CC" stroke-width="3" stroke-miterlimit="10"/>
<path d="M213.049 27.3044L219.976 25.4485" stroke="#4B63CC" stroke-width="3" stroke-miterlimit="10"/>
<path d="M211.755 22.4696L218.682 20.6137" stroke="#4B63CC" stroke-width="3" stroke-miterlimit="10"/>
<path d="M214.347 32.1352L221.273 30.2793" stroke="#4B63CC" stroke-width="3" stroke-miterlimit="10"/>
<path d="M215.64 36.966L222.567 35.1101" stroke="#4B63CC" stroke-width="3" stroke-miterlimit="10"/>
<path d="M207.807 36.7311C208.011 37.4902 207.56 38.2705 206.801 38.4739L196.664 41.1902C195.905 41.3936 195.124 40.9431 194.921 40.1839L192.205 30.0468C192.001 29.2876 192.452 28.5073 193.211 28.3039L203.348 25.5877C204.107 25.3843 204.888 25.8348 205.091 26.5939L207.807 36.7311Z" stroke="#4B63CC" stroke-width="3" stroke-miterlimit="10"/>
</g>
<g opacity="0.8" clip-path="url(#clip3_18309_235561)">
<path d="M452.287 32.5333C452.393 34.5541 450.81 36.2799 448.751 36.3878L412.211 38.3028C410.152 38.4107 408.397 36.8599 408.291 34.839L407.908 27.5207C407.802 25.4999 409.385 23.7741 411.444 23.6662L447.983 21.7513C450.043 21.6433 451.798 23.1941 451.904 25.215L452.287 32.5333Z" stroke="#4B63CC" stroke-width="3.5" stroke-miterlimit="10"/>
<path d="M439.42 29.5396C439.473 30.5501 438.681 31.4129 437.652 31.4669C436.622 31.5208 435.744 30.7455 435.692 29.735C435.639 28.7245 436.43 27.8617 437.46 27.8077C438.489 27.7538 439.367 28.5291 439.42 29.5396Z" fill="#4B63CC"/>
<path d="M446.877 29.1488C446.93 30.1592 446.139 31.0221 445.109 31.076C444.079 31.13 443.202 30.3546 443.149 29.3442C443.096 28.3337 443.888 27.4709 444.917 27.4169C445.947 27.3629 446.824 28.1383 446.877 29.1488Z" fill="#4B63CC"/>
<path d="M410.695 6.79647L411.579 23.6578" stroke="#4B63CC" stroke-width="3.5" stroke-miterlimit="10"/>
<path d="M446.965 4.89697L447.849 21.7583" stroke="#4B63CC" stroke-width="3.5" stroke-miterlimit="10"/>
<path d="M414.479 31.1737L423.53 30.6994" stroke="#4B63CC" stroke-width="3.5" stroke-miterlimit="10"/>
</g>
<g opacity="0.8" clip-path="url(#clip4_18309_235561)">
<path d="M312.531 75.8375C322.471 78.0727 332.341 71.8265 334.576 61.8863C336.812 51.946 330.565 42.0758 320.625 39.8407C310.685 37.6055 300.815 43.8517 298.58 53.7919C296.344 63.7322 302.591 73.6024 312.531 75.8375Z" stroke="#4B63CC" stroke-width="3" stroke-miterlimit="10"/>
<path d="M306.355 50.6344L301.548 47.1006" stroke="#4B63CC" stroke-width="3" stroke-miterlimit="10"/>
<path d="M323.784 47.6171L327.318 42.8105" stroke="#4B63CC" stroke-width="3" stroke-miterlimit="10"/>
<path d="M314.445 45.5156L313.309 39.659" stroke="#4B63CC" stroke-width="3" stroke-miterlimit="10"/>
<path d="M298.398 61.1092L304.254 59.9732C303.98 58.3996 304.004 56.7479 304.376 55.0948C305.889 48.3665 312.594 44.1233 319.322 45.6363C326.05 47.1492 330.293 53.8541 328.78 60.5824C328.409 62.2355 327.723 63.7387 326.802 65.0433L331.608 68.5769" stroke="#4B63CC" stroke-width="3" stroke-miterlimit="10"/>
<path d="M328.902 55.7046L334.759 54.5687" stroke="#4B63CC" stroke-width="3" stroke-miterlimit="10"/>
<path d="M319.629 58.5252C319.25 60.2099 317.577 61.2686 315.892 60.8898C314.207 60.5109 313.149 58.838 313.527 57.1532C313.906 55.4685 317.95 51.738 317.95 51.738C317.95 51.738 320.007 56.8404 319.629 58.5252Z" stroke="#4B63CC" stroke-width="3" stroke-miterlimit="10"/>
<path d="M311.468 66.3067L317.569 67.6786" stroke="#4B63CC" stroke-width="3" stroke-miterlimit="10"/>
</g>
<g opacity="0.8" clip-path="url(#clip5_18309_235561)">
<path d="M533.221 42.3089L569.668 48.0439" stroke="#4B63CC" stroke-width="3" stroke-miterlimit="10" stroke-linejoin="round"/>
<path d="M566.578 47.5604L561.741 57.2522C561.148 58.4391 559.837 59.1606 558.457 58.9434L540.542 56.1245C539.162 55.9073 538.135 54.818 537.936 53.5065L536.309 42.7974" stroke="#4B63CC" stroke-width="3" stroke-miterlimit="10" stroke-linejoin="round"/>
<path d="M542.093 56.3676C542.25 60.1643 544.756 63.2737 548.51 63.8644C552.264 64.4551 555.604 62.2655 556.919 58.7005" stroke="#4B63CC" stroke-width="3" stroke-miterlimit="10" stroke-linejoin="round"/>
<path d="M556.027 74.3848C561.136 75.1888 565.947 71.6863 566.751 66.5766" stroke="#4B63CC" stroke-width="3" stroke-miterlimit="10" stroke-linejoin="round"/>
<path d="M556.999 68.2073C558.704 68.4757 560.305 67.3104 560.573 65.6046" stroke="#4B63CC" stroke-width="3" stroke-miterlimit="10" stroke-linejoin="round"/>
<path d="M538.113 71.567C533.004 70.763 529.501 65.9524 530.305 60.8427" stroke="#4B63CC" stroke-width="3" stroke-miterlimit="10" stroke-linejoin="round"/>
<path d="M539.083 65.3907C537.377 65.1223 536.212 63.5218 536.481 61.8159" stroke="#4B63CC" stroke-width="3" stroke-miterlimit="10" stroke-linejoin="round"/>
<path d="M537.294 49.2815L557.167 52.4087" stroke="#4B63CC" stroke-width="3" stroke-miterlimit="10" stroke-linejoin="round"/>
<path d="M550.361 72.1828C548.965 73.1992 548.658 75.1549 549.674 76.5509C550.69 77.947 550.383 79.9027 548.987 80.9191" stroke="#4B63CC" stroke-width="3" stroke-miterlimit="10" stroke-linejoin="round"/>
<path d="M544.178 71.2096C542.782 72.226 542.474 74.1817 543.491 75.5777C544.507 76.9738 544.199 78.9295 542.803 79.9459" stroke="#4B63CC" stroke-width="3" stroke-miterlimit="10" stroke-linejoin="round"/>
</g>
<g opacity="0.8" clip-path="url(#clip6_18309_235561)">
<path d="M656.531 15.8424L643.306 16.7672L642.917 11.1987L656.843 10.225" stroke="#4B63CC" stroke-width="3" stroke-miterlimit="10"/>
<path d="M670.753 9.25234L684.679 8.27854L685.068 13.847L671.843 14.7718" stroke="#4B63CC" stroke-width="3" stroke-miterlimit="10"/>
<path d="M667.872 8.05422L659.519 8.63829C657.605 8.77214 656.149 10.4478 656.283 12.3618L656.623 17.2342L659.699 21.2158L669.444 20.5344L671.936 16.1634L671.595 11.291C671.462 9.37705 669.786 7.92037 667.872 8.05422Z" stroke="#4B63CC" stroke-width="3" stroke-miterlimit="10"/>
<path d="M675.995 35.9326L673.138 31.698C672.066 30.1073 669.621 28.9152 667.707 29.0491L662.612 29.4054C660.698 29.5392 658.444 31.0598 657.602 32.7844L655.363 37.3753C654.522 39.1 654.712 41.8125 655.785 43.4032L660.592 50.5301L663.771 44.0127L661.068 40.0051L663.187 35.6603L668.009 35.3231L670.712 39.3307L668.593 43.6755L672.648 49.6871L676.416 41.9605C677.258 40.236 677.068 37.5235 675.995 35.9326Z" stroke="#4B63CC" stroke-width="3" stroke-miterlimit="10"/>
<path d="M667.94 29.0334L662.372 29.4228L661.787 21.0702L667.356 20.6808L667.94 29.0334Z" stroke="#4B63CC" stroke-width="3" stroke-miterlimit="10"/>
<path d="M659.717 30.5267L663.163 35.6372" stroke="#4B63CC" stroke-width="3" stroke-miterlimit="10"/>
<path d="M670.725 29.7567L668.023 35.2971" stroke="#4B63CC" stroke-width="3" stroke-miterlimit="10"/>
<path d="M671.518 16.1926L657.04 17.205" stroke="#4B63CC" stroke-width="3" stroke-miterlimit="10"/>
</g>
<g opacity="0.8" clip-path="url(#clip7_18309_235561)">
<path d="M757.964 102.346L773.098 88.8141" stroke="#4B63CC" stroke-width="3" stroke-miterlimit="10" stroke-linejoin="round"/>
<path d="M758.045 95.7535L764.913 96.1354L764.531 103.004" stroke="#4B63CC" stroke-width="3" stroke-miterlimit="10" stroke-linejoin="round"/>
<path d="M788.231 75.2791L773.098 88.8115" stroke="#4B63CC" stroke-width="3" stroke-miterlimit="10" stroke-linejoin="round"/>
<path d="M781.667 74.6233L781.285 81.4916L788.153 81.8734" stroke="#4B63CC" stroke-width="3" stroke-miterlimit="10" stroke-linejoin="round"/>
<path d="M777.256 108.674L773.1 88.8117" stroke="#4B63CC" stroke-width="3" stroke-miterlimit="10" stroke-linejoin="round"/>
<path d="M771.581 105.317L775.346 99.5598L781.103 103.325" stroke="#4B63CC" stroke-width="3" stroke-miterlimit="10" stroke-linejoin="round"/>
<path d="M768.942 68.949L773.098 88.8115" stroke="#4B63CC" stroke-width="3" stroke-miterlimit="10" stroke-linejoin="round"/>
<path d="M765.09 74.299L770.847 78.0638L774.612 72.3067" stroke="#4B63CC" stroke-width="3" stroke-miterlimit="10" stroke-linejoin="round"/>
<path d="M792.388 95.1417L773.099 88.8116" stroke="#4B63CC" stroke-width="3" stroke-miterlimit="10" stroke-linejoin="round"/>
<path d="M786.636 98.3783L783.533 92.2393L789.672 89.1359" stroke="#4B63CC" stroke-width="3" stroke-miterlimit="10" stroke-linejoin="round"/>
<path d="M753.807 82.4839L773.096 88.814" stroke="#4B63CC" stroke-width="3" stroke-miterlimit="10" stroke-linejoin="round"/>
<path d="M756.526 88.491L762.665 85.3876L759.561 79.2487" stroke="#4B63CC" stroke-width="3" stroke-miterlimit="10" stroke-linejoin="round"/>
</g>
<g opacity="0.8" clip-path="url(#clip8_18309_235561)">
<path d="M93.6535 101.442L75.2613 98.8574C72.9527 98.533 71.3443 96.3985 71.6687 94.0899L74.4624 74.2115C74.7869 71.9029 76.9214 70.2945 79.2299 70.6189L97.6221 73.2038C99.9307 73.5282 101.539 75.6627 101.215 77.9713L98.421 97.8497C98.0965 100.158 95.962 101.767 93.6535 101.442Z" stroke="#4B63CC" stroke-width="3" stroke-miterlimit="10"/>
<path d="M78.0232 70.4505L82.1575 62.6011L97.0199 64.6898L98.8305 73.3748" stroke="#4B63CC" stroke-width="3" stroke-miterlimit="10"/>
<path d="M74.0533 98.6882L75.8638 107.373L90.7262 109.462L94.8606 101.612" stroke="#4B63CC" stroke-width="3" stroke-miterlimit="10"/>
<path d="M94.2692 84.2591C94.1468 85.1302 93.7992 85.9543 93.2606 86.65C91.3655 89.0981 88.9265 91.0713 86.1365 92.4133L85.5024 92.7183L84.9769 92.2503C82.665 90.1913 80.8643 87.6222 79.7173 84.7466C79.3914 83.9294 79.2844 83.0415 79.4069 82.1703C79.7074 80.0316 81.6849 78.5415 83.8236 78.8421C85.1184 79.024 86.2365 79.841 86.8033 81.0193L87.069 81.5716L87.4766 81.1139C88.3462 80.1375 89.6462 79.6604 90.941 79.8423C93.0797 80.1429 94.5698 82.1204 94.2692 84.2591Z" stroke="#4B63CC" stroke-width="3" stroke-miterlimit="10"/>
</g>
<defs>
<clipPath id="clip0_18309_235561">
<rect width="40" height="40" fill="white" transform="translate(0 152.82) scale(1.00056) rotate(-4.77437)"/>
</clipPath>
<clipPath id="clip1_18309_235561">
<rect width="44" height="44" fill="white" transform="translate(814.144 146.997) scale(1.00056) rotate(5.44694)"/>
</clipPath>
<clipPath id="clip2_18309_235561">
<rect width="48" height="48" fill="white" transform="translate(170.596 16.4076) scale(1.00056) rotate(-15)"/>
</clipPath>
<clipPath id="clip3_18309_235561">
<rect width="47.7631" height="41.25" fill="white" transform="translate(404.727 2.5014) scale(1.00056) rotate(-3)"/>
</clipPath>
<clipPath id="clip4_18309_235561">
<rect width="40" height="40" fill="white" transform="translate(301.443 33.9253) scale(1.00056) rotate(12.6728)"/>
</clipPath>
<clipPath id="clip5_18309_235561">
<rect width="40" height="40" fill="white" transform="matrix(0.9884 0.155527 -0.155527 0.9884 532.017 39.9286)"/>
</clipPath>
<clipPath id="clip6_18309_235561">
<rect width="44.4454" height="44.4454" fill="white" transform="translate(641.422 8.59857) scale(1.00056) rotate(-4)"/>
</clipPath>
<clipPath id="clip7_18309_235561">
<rect width="44" height="44" fill="white" transform="translate(747.044 71.7746) scale(1.00056) rotate(-11.8175)"/>
</clipPath>
<clipPath id="clip8_18309_235561">
<rect width="48" height="48" fill="white" transform="translate(66.2168 58.9393) scale(1.00056) rotate(8)"/>
</clipPath>
</defs>
</svg>
