<svg width="83" height="83" viewBox="0 0 83 83" fill="none" xmlns="http://www.w3.org/2000/svg">
<g filter="url(#filter0_ii_16977_25533)">
<rect x="20.3547" width="65.8692" height="65.8692" rx="6.15549" transform="rotate(18 20.3547 0)" fill="#4D5FD0"/>
<rect x="20.684" y="0.646365" width="64.8433" height="64.8433" rx="5.64254" transform="rotate(18 20.684 0.646365)" stroke="white" stroke-opacity="0.12" stroke-width="1.02592"/>
<g clip-path="url(#clip0_16977_25533)">
<path d="M59.3828 28.4347L57.8721 33.0842L62.5216 34.5949L61.5145 37.6945L56.865 36.1838L55.3543 40.8333L52.2547 39.8261L53.7654 35.1767L49.1159 33.666L50.123 30.5663L54.7725 32.077L56.2832 27.4276L59.3828 28.4347ZM40.9415 43.004C39.2367 42.4501 38.2951 40.602 38.849 38.8972C39.4029 37.1924 41.251 36.2508 42.9558 36.8047C44.6606 37.3587 45.6022 39.2067 45.0483 40.9115C44.4943 42.6163 42.6463 43.5579 40.9415 43.004ZM47.4968 28.1024L46.4796 31.233C45.9932 30.9854 45.4885 30.7756 44.97 30.6055C39.7781 28.9185 34.3769 31.5671 32.549 37.1929C31.3706 40.8195 32.8317 46.6059 37.2453 54.3797C45.3853 50.6848 49.9634 46.8778 51.1468 43.2357L51.2475 42.9258L54.3472 43.9329L54.2465 44.2429C52.5746 49.3883 46.4576 54.1345 35.9058 58.5022C29.9365 48.7665 27.7775 41.3312 29.4494 36.1858C31.9571 28.4677 39.4679 25.3908 45.9772 27.5058C46.5041 27.677 47.0055 27.8742 47.4968 28.1024Z" fill="white"/>
</g>
</g>
<defs>
<filter id="filter0_ii_16977_25533" x="0.000561057" y="-2.05841" width="82.9997" height="87.1165" filterUnits="userSpaceOnUse" color-interpolation-filters="sRGB">
<feFlood flood-opacity="0" result="BackgroundImageFix"/>
<feBlend mode="normal" in="SourceGraphic" in2="BackgroundImageFix" result="shape"/>
<feColorMatrix in="SourceAlpha" type="matrix" values="0 0 0 0 0 0 0 0 0 0 0 0 0 0 0 0 0 0 127 0" result="hardAlpha"/>
<feOffset dy="-2.05183"/>
<feGaussianBlur stdDeviation="4.10366"/>
<feComposite in2="hardAlpha" operator="arithmetic" k2="-1" k3="1"/>
<feColorMatrix type="matrix" values="0 0 0 0 0 0 0 0 0 0 0 0 0 0 0 0 0 0 0.16 0"/>
<feBlend mode="normal" in2="shape" result="effect1_innerShadow_16977_25533"/>
<feColorMatrix in="SourceAlpha" type="matrix" values="0 0 0 0 0 0 0 0 0 0 0 0 0 0 0 0 0 0 127 0" result="hardAlpha"/>
<feOffset dy="2.05183"/>
<feGaussianBlur stdDeviation="4.10366"/>
<feComposite in2="hardAlpha" operator="arithmetic" k2="-1" k3="1"/>
<feColorMatrix type="matrix" values="0 0 0 0 1 0 0 0 0 1 0 0 0 0 1 0 0 0 0.16 0"/>
<feBlend mode="normal" in2="effect1_innerShadow_16977_25533" result="effect2_innerShadow_16977_25533"/>
</filter>
<clipPath id="clip0_16977_25533">
<rect width="38.9848" height="38.9848" fill="white" transform="translate(28.8898 16.8135) scale(1.00321) rotate(18)"/>
</clipPath>
</defs>
</svg>
