<svg width="79" height="79" viewBox="0 0 79 79" fill="none" xmlns="http://www.w3.org/2000/svg">
<g filter="url(#filter0_ii_17177_74098)">
<rect x="16.6947" width="64.5032" height="64.5032" rx="5.99735" transform="rotate(15 16.6947 0)" fill="#D99424"/>
<rect x="17.0481" y="0.612102" width="63.5037" height="63.5037" rx="5.49758" transform="rotate(15 17.0481 0.612102)" stroke="white" stroke-opacity="0.12" stroke-width="0.999559"/>
<path d="M35.3003 29.65L33.4544 27.0398L22.4176 34.8588L28.0662 47.1486L30.9699 45.811L26.427 35.9331L35.3003 29.65ZM31.5345 38.9544L34.6187 39.7808L35.4451 36.6967L32.3609 35.8703L31.5345 38.9544ZM47.7818 40.0023L44.6976 39.1759L43.8712 42.26L46.9554 43.0864L47.7818 40.0023ZM37.7029 40.6072L40.787 41.4336L41.6134 38.3495L38.5293 37.5231L37.7029 40.6072ZM51.2501 31.8081L48.3463 33.1456L52.8893 43.0236L44.016 49.3067L45.8619 51.9169L56.8987 44.0979L51.2501 31.8081Z" fill="white"/>
</g>
<defs>
<filter id="filter0_ii_17177_74098" x="-0.00149042" y="-2.01573" width="79.0025" height="83.0315" filterUnits="userSpaceOnUse" color-interpolation-filters="sRGB">
<feFlood flood-opacity="0" result="BackgroundImageFix"/>
<feBlend mode="normal" in="SourceGraphic" in2="BackgroundImageFix" result="shape"/>
<feColorMatrix in="SourceAlpha" type="matrix" values="0 0 0 0 0 0 0 0 0 0 0 0 0 0 0 0 0 0 127 0" result="hardAlpha"/>
<feOffset dy="-1.99912"/>
<feGaussianBlur stdDeviation="3.99824"/>
<feComposite in2="hardAlpha" operator="arithmetic" k2="-1" k3="1"/>
<feColorMatrix type="matrix" values="0 0 0 0 0 0 0 0 0 0 0 0 0 0 0 0 0 0 0.16 0"/>
<feBlend mode="normal" in2="shape" result="effect1_innerShadow_17177_74098"/>
<feColorMatrix in="SourceAlpha" type="matrix" values="0 0 0 0 0 0 0 0 0 0 0 0 0 0 0 0 0 0 127 0" result="hardAlpha"/>
<feOffset dy="1.99912"/>
<feGaussianBlur stdDeviation="3.99824"/>
<feComposite in2="hardAlpha" operator="arithmetic" k2="-1" k3="1"/>
<feColorMatrix type="matrix" values="0 0 0 0 1 0 0 0 0 1 0 0 0 0 1 0 0 0 0.16 0"/>
<feBlend mode="normal" in2="effect1_innerShadow_17177_74098" result="effect2_innerShadow_17177_74098"/>
</filter>
</defs>
</svg>
