<svg width="501" height="276" viewBox="0 0 501 276" fill="none" xmlns="http://www.w3.org/2000/svg">
<g clip-path="url(#clip0_17714_456039)">
<mask id="mask0_17714_456039" style="mask-type:alpha" maskUnits="userSpaceOnUse" x="-19" y="0" width="520" height="276">
<rect x="-19" width="520" height="276" fill="url(#paint0_linear_17714_456039)"/>
</mask>
<g mask="url(#mask0_17714_456039)">
<g filter="url(#filter0_ddd_17714_456039)">
<rect x="15" y="13" width="112.693" height="74.6406" rx="8.5734" fill="white"/>
<rect x="15.5" y="13.5" width="111.693" height="73.6406" rx="8.0734" stroke="black" stroke-opacity="0.12"/>
<g clip-path="url(#clip1_17714_456039)">
<path d="M38.6152 58.4765V38.5625H43.4912V54.2925H51.1164V58.4765H38.6152Z" fill="#4B63CC"/>
<path d="M75.9131 42.2434V47.6191H80.3741C82.1118 47.6191 82.9936 46.7188 82.9936 44.9445C82.9936 43.1438 82.1378 42.2699 80.3741 42.2699H75.9131V42.2434ZM71.0371 58.4765V38.5625H80.7891C85.5094 38.5625 87.8696 40.734 87.8696 45.1034C87.8696 46.401 87.5065 47.5132 86.7803 48.4666C86.0541 49.4199 85.0685 50.1084 83.8495 50.4791L88.3105 58.4765H82.864L79.0254 51.3001H75.9131V58.4765H71.0371Z" fill="#4B63CC"/>
<path d="M98.891 52.2793V51.2465L96.0121 52.0939C94.6375 52.4912 93.9631 53.1267 93.9631 54.0271C93.9631 55.1393 94.6375 55.6954 95.9602 55.6954C96.842 55.6954 97.5423 55.4041 98.087 54.8215C98.6057 54.2124 98.891 53.365 98.891 52.2793ZM102.989 47.5126V55.3776C102.989 56.7811 103.119 57.8139 103.378 58.476H99.4356C99.28 57.9993 99.2022 57.4961 99.1763 56.94H99.1244C98.7872 57.4961 98.1388 57.9728 97.2311 58.3436C96.4011 58.6878 95.5712 58.8732 94.7412 58.8732C93.2888 58.8732 92.1476 58.5024 91.2658 57.7345C90.3321 56.94 89.8652 55.8278 89.8652 54.4508C89.8652 52.756 90.5396 51.4584 91.8623 50.5845C93.0035 49.843 94.819 49.2869 97.3348 48.9426L98.891 48.7308V47.4862C98.891 46.4269 98.2167 45.8973 96.868 45.8973C96.1677 45.8973 95.649 46.0562 95.3118 46.3475C94.9746 46.6388 94.7412 47.1684 94.6375 47.8834H90.4877C90.5655 44.7586 92.5885 43.2227 96.5049 43.2227C98.6316 43.2227 100.214 43.514 101.251 44.123C102.418 44.7851 102.989 45.9238 102.989 47.5126Z" fill="#4B63CC"/>
<path d="M60.4033 46.532C59.2362 46.532 58.3544 46.9557 57.7578 47.8296C57.2132 48.624 56.9279 49.6833 56.9279 51.0338C56.9279 52.3844 57.2132 53.4436 57.7578 54.2381C58.3544 55.112 59.2362 55.5357 60.4033 55.5357C62.7376 55.5357 63.8788 53.9733 63.8788 50.8484C63.8788 49.5773 63.5935 48.5446 63.0488 47.7766C62.4523 46.9557 61.5705 46.532 60.4033 46.532ZM60.4033 43.1953C62.7376 43.1953 64.605 43.8838 66.0315 45.2609C67.4579 46.6379 68.1582 48.571 68.1582 51.0338C68.1582 53.4966 67.4579 55.4297 66.0315 56.8068C64.605 58.1838 62.7376 58.8723 60.4033 58.8723C58.0691 58.8723 56.2017 58.1838 54.7752 56.8068C53.3487 55.4297 52.6484 53.4966 52.6484 51.0338C52.6484 48.571 53.3487 46.6379 54.7752 45.2609C56.2276 43.8838 58.095 43.1953 60.4033 43.1953Z" fill="#4B63CC"/>
<path d="M60.2729 40.233C62.3996 40.233 64.3967 40.8685 66.0566 41.9807L66.8866 40.7626C64.9673 39.4915 62.7108 38.75 60.2729 38.75C57.9386 38.75 55.76 39.4385 53.8926 40.6037L54.7225 41.8218C56.3565 40.7891 58.2498 40.233 60.2729 40.233Z" fill="#4B63CC"/>
<path d="M51.2969 36.787L52.4121 38.4024C54.6945 36.9194 57.3919 36.072 60.2708 36.072C63.2793 36.072 66.0545 36.9989 68.3888 38.5613L69.504 36.9459C66.8585 35.1452 63.6684 34.0859 60.2708 34.0859C56.9769 34.0859 53.8905 35.0922 51.2969 36.787Z" fill="#4B63CC"/>
<path d="M60.2723 31.833C64.1627 31.833 67.7678 33.0247 70.8023 35.0902L72.2029 33.0512C68.8052 30.6943 64.6814 29.3438 60.2723 29.3438C55.9928 29.3438 51.9727 30.6413 48.627 32.8658L50.0275 34.9049C52.9842 32.9717 56.4856 31.833 60.2723 31.833Z" fill="#4B63CC"/>
<path d="M60.559 61.8884C58.4323 61.8884 56.4352 61.2528 54.7753 60.1406L53.9453 61.3588C55.8646 62.6299 58.121 63.3714 60.585 63.3714C62.9192 63.3714 65.0978 62.6828 66.9652 61.5177L66.1353 60.2995C64.4754 61.3323 62.582 61.8884 60.559 61.8884Z" fill="#4B63CC"/>
<path d="M69.5314 65.3289L68.4161 63.7136C66.1337 65.1965 63.4364 66.0439 60.5575 66.0439C57.5489 66.0439 54.7737 65.1171 52.4395 63.5547L51.3242 65.1701C53.9697 66.9708 57.1339 68.03 60.5575 68.03C63.8513 68.03 66.9377 67.0238 69.5314 65.3289Z" fill="#4B63CC"/>
<path d="M60.5576 70.2885C56.6671 70.2885 53.062 69.0968 50.0275 67.0312L48.627 69.0703C52.0246 71.4007 56.1484 72.7777 60.5576 72.7777C64.837 72.7777 68.8571 71.4801 72.2029 69.2557L70.8023 67.2166C67.8456 69.1498 64.3183 70.2885 60.5576 70.2885Z" fill="#4B63CC"/>
</g>
<rect x="177.516" y="100.82" width="86.3489" height="73.177" rx="8.5734" fill="white"/>
<rect x="178.016" y="101.32" width="85.3489" height="72.177" rx="8.0734" stroke="black" stroke-opacity="0.12"/>
<path d="M223.982 128.905C225.812 128.905 227.296 130.389 227.296 132.219C227.296 132.987 227.031 133.692 226.591 134.255L230.017 139.049C230.434 138.9 230.882 138.815 231.35 138.815C233.534 138.815 235.305 140.586 235.305 142.77C235.305 143.838 234.878 144.804 234.19 145.515L237.455 151.147C237.616 151.121 237.78 151.104 237.948 151.104C239.633 151.104 241 152.47 241 154.154C241 155.839 239.633 157.204 237.948 157.204C236.264 157.204 234.898 155.839 234.898 154.154C234.899 153.303 235.248 152.532 235.811 151.978L232.636 146.505C232.233 146.644 231.801 146.725 231.35 146.725C230.926 146.725 230.516 146.655 230.133 146.531L227.692 150.331C228.137 150.78 228.412 151.4 228.413 152.083C228.413 153.455 227.3 154.568 225.927 154.568C224.555 154.567 223.442 153.455 223.442 152.083C223.442 150.711 224.556 149.598 225.927 149.597C225.942 149.597 225.958 149.599 225.973 149.599L228.559 145.571C228.107 145.121 227.762 144.562 227.57 143.937L217.83 144.708C217.53 145.742 216.579 146.499 215.448 146.499C214.075 146.498 212.962 145.386 212.962 144.013C212.963 142.641 214.076 141.528 215.448 141.528C216.409 141.528 217.241 142.077 217.655 142.876L227.454 142.099C227.588 141.315 227.953 140.611 228.476 140.057L225.101 135.334C224.751 135.459 224.375 135.532 223.982 135.532C222.153 135.532 220.671 134.048 220.67 132.219C220.671 130.389 222.153 128.905 223.982 128.905ZM204.582 141.915C204.887 141.915 205.134 142.162 205.134 142.467V146.557C205.134 146.862 205.382 147.11 205.687 147.11H209.725C210.03 147.111 210.277 147.358 210.277 147.662V150.641C210.277 150.945 210.03 151.192 209.725 151.192H201.552C201.247 151.192 201 150.945 201 150.641V142.467C201 142.162 201.247 141.915 201.552 141.915H204.582ZM233.531 118.109C233.836 118.109 234.083 118.356 234.083 118.661V126.835C234.083 127.139 233.836 127.386 233.531 127.386H230.501C230.196 127.386 229.949 127.14 229.949 126.835V122.743C229.949 122.438 229.7 122.191 229.396 122.191H225.358C225.053 122.191 224.806 121.944 224.806 121.64V118.661C224.806 118.357 225.053 118.11 225.358 118.109H233.531Z" fill="#4B63CC"/>
<rect x="142.33" y="13" width="93.6666" height="74.6406" rx="8.5734" fill="white"/>
<rect x="142.83" y="13.5" width="92.6666" height="73.6406" rx="8.0734" stroke="black" stroke-opacity="0.12"/>
<path fill-rule="evenodd" clip-rule="evenodd" d="M203.318 55.25C200.687 55.25 198.545 53.109 198.545 50.4773C198.545 47.8456 200.687 45.7045 203.318 45.7045C205.95 45.7045 208.091 47.8456 208.091 50.4773C208.091 53.109 205.95 55.25 203.318 55.25ZM194.727 65.6221V51.9091H196.795C197.452 54.9073 200.126 57.1591 203.318 57.1591C203.375 57.1591 203.428 57.1524 203.483 57.1505C201.799 61.0975 198.61 64.1101 194.727 65.6221ZM189.955 66.6664V42.2873C192.862 41.8682 195.165 39.5754 195.6 36.6726C198.799 38.155 201.43 40.6779 203.03 43.8098C199.639 43.9549 196.9 46.6343 196.66 50H193.773C193.245 50 192.818 50.4276 192.818 50.9545V66.2349C191.889 66.4659 190.931 66.6081 189.955 66.6664ZM185.182 66.2349V50.9545C185.182 50.4276 184.755 50 184.227 50H181.34C181.1 46.6343 178.361 43.9549 174.97 43.8098C176.57 40.6779 179.201 38.155 182.4 36.6726C182.835 39.5754 185.138 41.8682 188.045 42.2873V66.6664C187.069 66.6081 186.111 66.4659 185.182 66.2349ZM174.517 57.1505C174.572 57.1524 174.625 57.1591 174.682 57.1591C177.874 57.1591 180.547 54.9073 181.205 51.9091H183.273V65.6221C179.39 64.1101 176.201 61.0975 174.517 57.1505ZM169.909 50.4773C169.909 47.8456 172.05 45.7045 174.682 45.7045C177.313 45.7045 179.455 47.8456 179.455 50.4773C179.455 53.109 177.313 55.25 174.682 55.25C172.05 55.25 169.909 53.109 169.909 50.4773ZM189 30.9091C191.632 30.9091 193.773 33.0501 193.773 35.6818C193.773 38.3135 191.632 40.4545 189 40.4545C186.368 40.4545 184.227 38.3135 184.227 35.6818C184.227 33.0501 186.368 30.9091 189 30.9091ZM205.257 44.0847C203.433 39.773 199.931 36.3118 195.581 34.564C195.046 31.4112 192.303 29 189 29C185.697 29 182.954 31.4112 182.419 34.564C178.069 36.3118 174.567 39.773 172.743 44.0847C170.002 44.918 168 47.4676 168 50.4773C168 53.3256 169.795 55.7569 172.311 56.7162C174.121 61.9633 178.217 65.9295 183.273 67.6572V71H185.182V68.1889C186.114 68.3941 187.071 68.5239 188.045 68.5755V71H189.955V68.5755C190.929 68.5239 191.886 68.3941 192.818 68.1889V71H194.727V67.6572C199.783 65.9295 203.879 61.9633 205.689 56.7162C208.205 55.7569 210 53.3256 210 50.4773C210 47.4676 207.998 44.918 205.257 44.0847Z" fill="#4B63CC"/>
<rect x="250.633" y="13" width="149.281" height="74.6406" rx="8.5734" fill="white"/>
<rect x="251.133" y="13.5" width="148.281" height="73.6406" rx="8.0734" stroke="black" stroke-opacity="0.12"/>
<path d="M310.689 52.6826C310.871 53.0753 311.043 53.4787 311.204 53.8927C311.362 53.4751 311.537 53.0643 311.73 52.6613C311.912 52.2686 312.106 51.8758 312.299 51.5043L317.708 40.9531C317.805 40.7727 317.902 40.6347 318.009 40.5285C318.105 40.433 318.224 40.3587 318.352 40.3056C318.481 40.2525 318.621 40.2313 318.782 40.2313H323.075V61.1002H318.76V49.0841C318.76 48.5003 318.792 47.874 318.846 47.1947L313.254 57.9263C313.082 58.266 312.846 58.5102 312.556 58.6906C312.267 58.8604 311.923 58.9454 311.547 58.9454H310.882C310.506 58.9454 310.174 58.8604 309.873 58.6906C309.583 58.5208 309.347 58.266 309.175 57.9263L303.54 47.1841C303.583 47.5237 303.605 47.8528 303.626 48.1819C303.648 48.5109 303.659 48.8188 303.659 49.0947V61.1002H299.344V40.2313H303.637C303.798 40.2313 303.938 40.2525 304.066 40.3056C304.195 40.3587 304.303 40.4224 304.41 40.5285C304.506 40.6241 304.614 40.7727 304.71 40.9531L310.141 51.5574C310.324 51.9183 310.517 52.2898 310.689 52.6826ZM346.227 50.6551C346.227 51.5574 346.13 52.4172 345.947 53.2452C345.754 54.0731 345.486 54.848 345.132 55.5698C344.778 56.2916 344.348 56.971 343.822 57.5867C343.307 58.2129 342.717 58.7543 342.062 59.232L347.407 65.0065H343.382C342.803 65.0065 342.277 64.9322 341.804 64.7942C341.332 64.6562 340.914 64.3802 340.549 63.9556L337.93 61.0471C337.5 61.132 337.071 61.1957 336.631 61.2488C336.191 61.2912 335.74 61.3231 335.279 61.3231C333.636 61.3231 332.134 61.0471 330.781 60.5057C329.429 59.9644 328.27 59.2107 327.315 58.2448C326.349 57.2894 325.608 56.1536 325.082 54.8586C324.556 53.5636 324.288 52.1518 324.288 50.6445C324.288 49.1372 324.556 47.736 325.082 46.4304C325.608 45.1354 326.349 43.9996 327.315 43.0443C328.281 42.0889 329.429 41.3353 330.781 40.7939C332.134 40.2525 333.626 39.9766 335.279 39.9766C336.921 39.9766 338.413 40.2525 339.765 40.8045C341.117 41.3565 342.266 42.1102 343.221 43.0655C344.176 44.0208 344.917 45.146 345.443 46.4516C345.969 47.7467 346.227 49.1478 346.227 50.6551ZM341.214 50.6551C341.214 49.6255 341.075 48.6914 340.806 47.8634C340.538 47.0355 340.151 46.3349 339.636 45.7617C339.132 45.1885 338.509 44.7533 337.779 44.4454C337.05 44.1376 336.212 43.989 335.268 43.989C334.323 43.989 333.475 44.1376 332.735 44.4454C331.994 44.7533 331.372 45.1885 330.867 45.7617C330.363 46.3349 329.976 47.0355 329.697 47.8634C329.429 48.6914 329.289 49.6149 329.289 50.6551C329.289 51.6954 329.429 52.6295 329.697 53.4575C329.966 54.2854 330.352 54.986 330.867 55.5592C331.372 56.1324 331.994 56.5676 332.735 56.8755C333.475 57.1727 334.313 57.3319 335.268 57.3319C336.202 57.3319 337.039 57.1833 337.779 56.8755C338.509 56.5782 339.132 56.1324 339.636 55.5592C340.141 54.986 340.527 54.2854 340.806 53.4575C341.085 52.6295 341.214 51.6954 341.214 50.6551ZM361.951 40.2207V44.0633H356.23V61.1002H351.336V44.0633H345.615V40.2207H361.951ZM380.691 40.2207V44.0633H374.755V61.1002H369.861V44.0633H364.14V40.2207H380.691Z" fill="#4B63CC"/>
<path d="M273.123 51.7569H273.061V60.1331C273.061 60.7376 273.543 61.2341 274.13 61.2341H282.508C282.435 55.999 278.261 51.7569 273.123 51.7569ZM273.123 44.8487H273.061V48.4108C279.971 48.4431 285.591 54.164 285.664 61.2341H289.25C289.187 52.1887 281.984 44.8487 273.123 44.8487ZM294.336 60.1439V52.5773C291.903 46.4462 287.006 41.5997 280.914 39.3438H274.13C273.543 39.3438 273.061 39.8403 273.061 40.4447V41.5134C283.693 41.5457 292.344 50.3645 292.407 61.2449H293.266C293.864 61.2341 294.336 60.7484 294.336 60.1439ZM291.536 42.3985C292.522 43.4131 293.529 44.6976 294.336 45.831V40.434C294.336 40.2907 294.309 40.1487 294.256 40.0162C294.203 39.8838 294.125 39.7634 294.027 39.6621C293.928 39.5608 293.811 39.4805 293.683 39.4259C293.554 39.3712 293.416 39.3433 293.277 39.3438H287.877C289.135 40.2397 290.435 41.2651 291.536 42.3985Z" fill="#4B63CC"/>
<path d="M378.672 196.3C378.672 191.565 382.51 187.727 387.245 187.727H486.583C491.318 187.727 495.156 191.565 495.156 196.3V252.426C495.156 257.161 491.318 260.999 486.583 260.999H387.245C382.51 260.999 378.672 257.161 378.672 252.426V196.3Z" fill="white"/>
<path d="M387.245 188.227H486.583C491.042 188.227 494.656 191.841 494.656 196.3V252.426C494.656 256.885 491.042 260.499 486.583 260.499H387.245C382.786 260.499 379.172 256.885 379.172 252.426V196.3C379.172 191.841 382.786 188.227 387.245 188.227Z" stroke="black" stroke-opacity="0.12"/>
<path d="M437.234 220.556C437.289 220.141 437.167 219.841 437.423 219.426C437.99 218.506 439.214 219.102 439.974 218.891C441.17 219.227 442.264 220.152 442.893 221.215C443.321 221.938 443.627 223.371 443.427 224.189C443.257 224.882 442.505 225.317 441.836 225.081C441.522 224.971 441.184 224.795 441.015 224.469C440.639 223.593 440.957 222.698 440.059 222.04C439.726 221.797 439.643 221.689 439.206 221.555C438.499 221.338 437.479 221.434 437.234 220.556Z" fill="#4B63CC"/>
<path d="M437.309 220.976C437.221 220.698 437.211 220.214 437.278 219.935C437.613 218.531 439.351 218.862 440.362 219.122C439.515 219.357 438.151 218.693 437.519 219.717C437.234 220.18 437.37 220.514 437.309 220.976Z" fill="#4B63CC"/>
<path d="M418.334 220.172C418.426 219.659 418.388 219.096 418.433 218.575C419.433 207.019 434.333 203.357 441.029 212.798C441.161 212.984 442.561 213.242 442.902 213.351C445.313 214.113 447.356 215.714 448.647 217.85C449.6 219.415 449.641 220.216 450.048 221.906C452.173 222.663 454.275 225.102 455.149 227.112C456.2 229.538 456.291 232.687 455.346 235.163C454.439 237.543 452.423 239.603 450.117 240.742C447.936 241.821 446.172 241.824 443.803 241.824L439.345 241.821C438.596 241.821 437.688 241.797 436.954 241.874C436.586 242.267 436.399 242.731 435.976 243.053C435.711 243.254 435.371 243.445 435.076 243.607C434.886 243.712 434.525 243.767 434.381 243.911H433.063C432.943 243.797 432.877 243.756 432.715 243.704C431.185 243.213 430.218 242.02 430.219 240.419C430.22 240.063 430.322 239.221 430.536 238.925C430.719 238.862 430.851 238.58 430.945 238.402L430.974 238.451C430.97 238.452 431.509 237.965 431.578 237.902C432.441 237.127 433.494 237.134 434.586 237.207C434.808 237.222 435.047 237.314 435.253 237.289C436.243 237.747 436.263 238.064 436.925 238.861C436.968 238.871 437.012 238.88 437.055 238.887C437.453 238.96 438.052 238.94 438.476 238.94L440.417 238.936L443.66 238.938C446.242 238.939 447.915 238.928 450.089 237.344C451.189 236.616 452.182 235.29 452.678 234.05C454.02 230.692 452.472 226.459 449.252 224.715C447.226 223.618 447.312 224.207 447.062 221.848C446.719 218.617 443.367 215.889 440.126 215.731C439.134 215.679 439.019 215.043 438.582 214.423C437.082 212.294 434.92 210.841 432.289 210.435C429.317 209.991 426.388 210.804 424.206 212.845C422.512 214.402 421.482 216.529 421.322 218.8C421.249 219.861 421.307 220.99 421.194 222.02C420.95 223.459 419.686 223.182 418.692 223.108C414.385 222.787 410.519 225.723 409.973 229.97C409.066 237.028 417.302 241.575 423.045 237.242C423.759 236.703 424.25 236.138 424.867 235.532L428.741 231.693C429.733 230.718 431.386 229.257 432.343 228.144C432.421 228.054 432.266 227.274 432.254 227.025C432.243 226.812 432.255 226.599 432.292 226.389C432.437 225.538 432.932 224.62 433.662 224.111C434.45 223.552 435.436 223.331 436.394 223.497C440.726 224.219 440.092 231.323 434.54 230.263L434.504 230.256C433.797 230.742 433.026 231.617 432.385 232.239C430.649 233.921 428.931 235.639 427.189 237.315C426.043 238.417 425.081 239.491 423.687 240.319C422.897 240.739 421.905 241.219 421.031 241.447C418.305 242.158 415.193 241.847 412.734 240.509C409.721 238.871 407.979 236.251 407.132 233.055C407.109 232.967 407.08 232.911 407 232.87V229.108C407.006 229.102 407.012 229.095 407.018 229.089C407.159 228.939 407.916 226.688 408.106 226.251C408.308 225.783 408.615 225.349 408.901 224.928C410.762 222.19 413.807 220.446 417.153 220.199C417.568 220.168 417.919 220.167 418.334 220.172ZM433.983 241.708C434.464 241.615 434.857 241.275 435.012 240.819C435.167 240.363 435.06 239.861 434.732 239.503C434.404 239.146 433.906 238.988 433.427 239.091C432.697 239.248 432.232 239.952 432.384 240.67C432.537 241.387 433.25 241.85 433.983 241.708ZM435.811 228.222C436.297 228.211 436.74 227.945 436.971 227.525C437.201 227.105 437.183 226.596 436.924 226.192C436.665 225.788 436.205 225.552 435.719 225.574C434.979 225.608 434.405 226.218 434.43 226.943C434.455 227.668 435.071 228.238 435.811 228.222Z" fill="#4B63CC"/>
<path d="M441.241 207.422H442.932C443.069 207.503 443.194 207.532 443.345 207.575C444.437 207.889 445.531 208.223 446.589 208.642C446.954 208.787 447.384 209.051 447.734 209.247C450.946 211.051 453.342 214.05 454.417 217.612C454.609 218.272 455.281 221.233 454.768 221.627C454.672 221.653 454.637 221.706 454.524 221.759C454.047 221.98 453.534 222.153 453.037 221.87C452.908 221.796 452.826 221.647 452.652 221.602C452.607 221.591 452.604 221.569 452.573 221.525C452.565 221.415 452.295 220.436 452.246 220.387C452.187 220.191 452.196 219.897 452.149 219.69C451.923 218.678 451.484 217.364 451.018 216.45C449.557 213.646 447.039 211.563 444.039 210.677C443.718 210.58 443.392 210.498 443.064 210.431C442.484 210.32 441.866 210.258 441.307 210.081C440.883 209.947 440.422 209.494 440.369 209.034C440.317 208.582 440.543 208.124 440.853 207.811C440.988 207.675 441.128 207.578 441.241 207.422Z" fill="#4B63CC"/>
<path d="M429.936 239.741C429.951 239.676 429.967 239.638 429.996 239.578C430.856 237.798 433.351 237.207 435.148 238.005C434.921 238.031 434.657 237.933 434.411 237.917C433.205 237.84 432.041 237.833 431.087 238.656C431.01 238.722 430.415 239.239 430.419 239.238L430.388 239.186C430.284 239.375 430.138 239.675 429.936 239.741Z" fill="#4B63CC"/>
<path d="M452.873 220.977C452.914 221.031 453.137 222.121 453.143 222.244C453.169 222.293 453.171 222.317 453.208 222.33C453.352 222.38 453.42 222.546 453.527 222.628C453.938 222.944 454.362 222.75 454.757 222.504C454.85 222.446 454.879 222.386 454.958 222.357C454.689 223.218 453.738 223.245 453.274 222.682C452.913 222.243 452.911 221.579 452.873 220.977Z" fill="#4B63CC"/>
<path d="M113.854 196.398C113.854 191.663 117.692 187.824 122.427 187.824H253.098C257.833 187.824 261.671 191.663 261.671 196.398V252.428C261.671 257.163 257.833 261.001 253.098 261.001H122.427C117.692 261.001 113.854 257.163 113.854 252.428V196.398Z" fill="white"/>
<path d="M122.427 188.324H253.098C257.556 188.324 261.171 191.939 261.171 196.397V252.428C261.171 256.887 257.556 260.501 253.098 260.501H122.427C117.968 260.501 114.354 256.886 114.354 252.428V196.397C114.354 191.939 117.968 188.324 122.427 188.324Z" stroke="black" stroke-opacity="0.12"/>
<path d="M138.876 215.548H142.219L146.552 228.436L150.873 215.548H154.216L147.902 233.574H145.19L138.876 215.548ZM136.945 215.548H140.349L140.981 228.907V233.574H136.945V215.548ZM152.742 215.548H156.159V233.574H152.111V228.907L152.742 215.548ZM173.932 224.165V224.97C173.932 226.34 173.742 227.57 173.363 228.659C172.991 229.749 172.459 230.677 171.766 231.445C171.08 232.212 170.263 232.802 169.314 233.215C168.373 233.62 167.329 233.822 166.182 233.822C165.035 233.822 163.986 233.62 163.037 233.215C162.088 232.802 161.263 232.212 160.561 231.445C159.868 230.677 159.331 229.749 158.952 228.659C158.572 227.57 158.382 226.34 158.382 224.97V224.165C158.382 222.795 158.572 221.565 158.952 220.475C159.331 219.378 159.864 218.445 160.549 217.677C161.242 216.91 162.063 216.324 163.012 215.919C163.962 215.507 165.01 215.3 166.157 215.3C167.304 215.3 168.353 215.507 169.302 215.919C170.251 216.324 171.068 216.91 171.753 217.677C172.446 218.445 172.983 219.378 173.363 220.475C173.742 221.565 173.932 222.795 173.932 224.165ZM169.859 224.97V224.14C169.859 223.224 169.776 222.415 169.611 221.714C169.446 221.004 169.207 220.409 168.893 219.931C168.58 219.452 168.192 219.093 167.729 218.854C167.267 218.606 166.743 218.482 166.157 218.482C165.546 218.482 165.014 218.606 164.56 218.854C164.106 219.093 163.722 219.452 163.409 219.931C163.103 220.409 162.868 221.004 162.703 221.714C162.546 222.415 162.468 223.224 162.468 224.14V224.97C162.468 225.878 162.546 226.686 162.703 227.396C162.868 228.098 163.107 228.692 163.421 229.179C163.735 229.666 164.118 230.033 164.572 230.281C165.035 230.529 165.571 230.652 166.182 230.652C166.768 230.652 167.288 230.529 167.742 230.281C168.204 230.033 168.592 229.666 168.906 229.179C169.219 228.692 169.454 228.098 169.611 227.396C169.776 226.686 169.859 225.878 169.859 224.97ZM181.862 233.574H177.9L177.925 230.454H181.862C182.762 230.454 183.521 230.248 184.14 229.835C184.759 229.414 185.23 228.795 185.552 227.978C185.874 227.153 186.035 226.15 186.035 224.97V224.14C186.035 223.249 185.944 222.465 185.762 221.788C185.581 221.103 185.312 220.529 184.957 220.067C184.602 219.605 184.161 219.258 183.633 219.027C183.113 218.796 182.514 218.68 181.837 218.68H177.826V215.548H181.837C183.059 215.548 184.173 215.754 185.18 216.167C186.195 216.58 187.07 217.17 187.805 217.937C188.548 218.705 189.121 219.613 189.526 220.661C189.93 221.709 190.133 222.877 190.133 224.165V224.97C190.133 226.249 189.93 227.417 189.526 228.473C189.121 229.522 188.548 230.43 187.805 231.197C187.07 231.956 186.2 232.542 185.193 232.955C184.186 233.368 183.076 233.574 181.862 233.574ZM180.191 215.548V233.574H176.155V215.548H180.191ZM199.548 225.787H194.918L194.893 223.088H198.719C199.396 223.088 199.944 223.005 200.365 222.84C200.795 222.675 201.108 222.436 201.306 222.122C201.504 221.8 201.603 221.404 201.603 220.934C201.603 220.397 201.504 219.964 201.306 219.634C201.108 219.303 200.795 219.064 200.365 218.916C199.944 218.759 199.4 218.68 198.731 218.68H196.379V233.574H192.343V215.548H198.731C199.812 215.548 200.778 215.647 201.628 215.845C202.478 216.043 203.201 216.349 203.795 216.761C204.397 217.174 204.855 217.69 205.169 218.309C205.483 218.928 205.64 219.658 205.64 220.5C205.64 221.235 205.474 221.92 205.144 222.555C204.822 223.191 204.302 223.707 203.584 224.103C202.866 224.499 201.905 224.714 200.7 224.747L199.548 225.787ZM199.387 233.574H193.89L195.351 230.454H199.387C200.006 230.454 200.51 230.355 200.898 230.157C201.286 229.959 201.57 229.691 201.752 229.352C201.934 229.014 202.024 228.634 202.024 228.213C202.024 227.718 201.938 227.289 201.764 226.926C201.599 226.563 201.335 226.282 200.972 226.084C200.617 225.886 200.143 225.787 199.548 225.787H195.933L195.958 223.088H200.378L201.319 224.153C202.466 224.128 203.382 224.313 204.067 224.71C204.761 225.098 205.26 225.609 205.565 226.245C205.871 226.88 206.023 227.553 206.023 228.263C206.023 229.435 205.772 230.417 205.268 231.21C204.765 231.994 204.018 232.584 203.027 232.98C202.045 233.376 200.832 233.574 199.387 233.574ZM218.25 215.548H222.286V227.384C222.286 228.787 221.988 229.967 221.394 230.925C220.808 231.882 219.991 232.604 218.943 233.091C217.895 233.578 216.681 233.822 215.303 233.822C213.916 233.822 212.695 233.578 211.638 233.091C210.59 232.604 209.765 231.882 209.162 230.925C208.568 229.967 208.271 228.787 208.271 227.384V215.548H212.319V227.384C212.319 228.16 212.435 228.795 212.666 229.291C212.905 229.777 213.248 230.137 213.693 230.368C214.139 230.59 214.676 230.702 215.303 230.702C215.93 230.702 216.463 230.59 216.9 230.368C217.346 230.137 217.68 229.777 217.903 229.291C218.134 228.795 218.25 228.16 218.25 227.384V215.548ZM234.264 228.82C234.264 228.515 234.219 228.242 234.128 228.003C234.037 227.755 233.872 227.528 233.633 227.322C233.393 227.116 233.055 226.909 232.618 226.703C232.18 226.488 231.606 226.27 230.897 226.047C230.088 225.783 229.316 225.486 228.581 225.155C227.855 224.817 227.207 224.425 226.638 223.979C226.068 223.533 225.618 223.014 225.288 222.419C224.966 221.825 224.805 221.132 224.805 220.339C224.805 219.572 224.975 218.878 225.313 218.259C225.651 217.64 226.126 217.112 226.737 216.675C227.347 216.229 228.066 215.89 228.891 215.659C229.716 215.42 230.624 215.3 231.615 215.3C232.935 215.3 234.095 215.536 235.094 216.006C236.101 216.468 236.885 217.12 237.446 217.962C238.007 218.796 238.288 219.766 238.288 220.872H234.277C234.277 220.385 234.173 219.955 233.967 219.584C233.769 219.204 233.464 218.907 233.051 218.693C232.646 218.478 232.139 218.371 231.528 218.371C230.934 218.371 230.434 218.462 230.03 218.643C229.634 218.816 229.333 219.056 229.126 219.361C228.928 219.667 228.829 220.001 228.829 220.364C228.829 220.653 228.903 220.917 229.052 221.156C229.209 221.388 229.432 221.606 229.72 221.813C230.018 222.011 230.381 222.201 230.81 222.382C231.239 222.564 231.73 222.737 232.283 222.902C233.249 223.207 234.103 223.546 234.846 223.917C235.597 224.289 236.229 224.71 236.74 225.18C237.252 225.651 237.636 226.183 237.892 226.777C238.156 227.372 238.288 228.044 238.288 228.795C238.288 229.596 238.131 230.306 237.817 230.925C237.512 231.544 237.066 232.072 236.48 232.509C235.903 232.939 235.209 233.265 234.4 233.488C233.591 233.71 232.688 233.822 231.689 233.822C230.781 233.822 229.886 233.706 229.002 233.475C228.119 233.236 227.319 232.873 226.601 232.386C225.891 231.899 225.321 231.28 224.892 230.529C224.471 229.769 224.261 228.87 224.261 227.83H228.297C228.297 228.374 228.375 228.837 228.532 229.216C228.689 229.588 228.912 229.889 229.2 230.12C229.498 230.351 229.857 230.516 230.278 230.615C230.699 230.714 231.169 230.764 231.689 230.764C232.292 230.764 232.778 230.681 233.15 230.516C233.53 230.343 233.81 230.108 233.992 229.81C234.173 229.513 234.264 229.183 234.264 228.82Z" fill="#4B63CC"/>
<path d="M412.363 21.5734C412.363 16.8384 416.202 13 420.937 13H492.093C496.828 13 500.666 16.8384 500.666 21.5734V78.6385C500.666 83.3735 496.828 87.2119 492.093 87.2119H420.937C416.202 87.2119 412.363 83.3735 412.363 78.6385V21.5734Z" fill="white"/>
<path d="M420.937 13.5H492.093C496.551 13.5001 500.166 17.1145 500.166 21.5732V78.6387C500.166 83.0974 496.551 86.7119 492.093 86.7119H420.937C416.478 86.7118 412.863 83.0974 412.863 78.6387V21.5732L412.874 21.1582C413.09 16.8924 416.617 13.5001 420.937 13.5Z" stroke="black" stroke-opacity="0.12"/>
<path fill-rule="evenodd" clip-rule="evenodd" d="M454.998 43.6711C463.178 36.0539 471.465 32.147 474.149 34.8617C476.917 37.6646 472.717 46.5075 464.712 55.0391C468.278 60.5345 469.619 65.2329 467.736 67.1387C465.761 69.1372 460.751 67.5452 454.98 63.5289V63.5569C449.227 67.5529 444.235 69.1323 442.264 67.1387C440.381 65.2331 441.719 60.5338 445.285 55.0391C437.413 46.6483 433.223 37.9568 435.721 35.0066L435.851 34.8633C438.534 32.1478 446.818 36.0548 454.998 43.6711ZM454.98 58.1068C457.252 59.9114 459.41 61.321 461.286 62.2768C462.413 62.8512 463.34 63.2075 464.056 63.4103C463.855 62.6858 463.502 61.7483 462.934 60.6078C461.393 57.5091 458.656 53.654 454.98 49.7703V58.1068ZM439.534 38.59C439.735 39.3144 440.087 40.2523 440.654 41.3925C442.089 44.2781 444.562 47.8208 447.863 51.431C449.071 49.8789 450.427 48.3005 451.911 46.7339C448.451 43.5358 445.071 41.1343 442.303 39.7236C441.177 39.1498 440.25 38.793 439.534 38.59Z" fill="#4B63CC"/>
<path d="M274 196.3C274 191.565 277.838 187.727 282.573 187.727H356.548C361.283 187.727 365.121 191.565 365.121 196.3V252.426C365.121 257.161 361.283 260.999 356.548 260.999H282.573C277.838 260.999 274 257.161 274 252.426V196.3Z" fill="white"/>
<path d="M282.573 188.227H356.548C361.006 188.227 364.621 191.841 364.621 196.3V252.426C364.621 256.884 361.007 260.499 356.548 260.499H282.573C278.115 260.499 274.5 256.885 274.5 252.426V196.3C274.5 191.841 278.115 188.227 282.573 188.227Z" stroke="black" stroke-opacity="0.12"/>
<path fill-rule="evenodd" clip-rule="evenodd" d="M303.829 214.964H307.701C307.993 214.964 308.229 214.728 308.229 214.436V212.207C308.229 211.915 308.466 211.679 308.757 211.679H330.701C330.993 211.679 331.229 211.915 331.229 212.207V214.436C331.229 214.728 331.466 214.964 331.757 214.964H335.63C335.921 214.964 336.158 214.728 336.158 214.436V207.278C336.158 206.986 335.921 206.75 335.63 206.75H303.829C303.537 206.75 303.301 206.986 303.301 207.278V214.436C303.301 214.728 303.537 214.964 303.829 214.964ZM303.829 233.036H307.701C307.993 233.036 308.229 233.272 308.229 233.564V235.793C308.229 236.085 308.466 236.321 308.757 236.321H330.701C330.993 236.321 331.229 236.085 331.229 235.793V233.564C331.229 233.272 331.466 233.036 331.757 233.036H335.63C335.921 233.036 336.158 233.272 336.158 233.564V240.722C336.158 241.013 335.921 241.25 335.63 241.25H303.829C303.537 241.25 303.301 241.013 303.301 240.722V233.564C303.301 233.272 303.537 233.036 303.829 233.036Z" fill="#4B63CC"/>
<path opacity="0.6" d="M311.516 232.214V221.5L319.73 227.214L311.516 232.214Z" fill="#4B63CC"/>
<path opacity="0.6" d="M327.945 232.214V221.5L319.73 227.214L327.945 232.214Z" fill="#4B63CC"/>
<path d="M319.73 227.214L311.516 221.5L319.73 215.785L327.944 221.5L319.73 227.214Z" fill="#4B63CC"/>
<path opacity="0.8" d="M327.944 232.215H311.516L319.73 227.215L327.944 232.215Z" fill="#4B63CC"/>
<path d="M16.8789 108.937C16.8789 104.202 20.7173 100.363 25.4523 100.363H156.123C160.858 100.363 164.696 104.202 164.696 108.937V164.967C164.696 169.702 160.858 173.54 156.123 173.54H25.4523C20.7174 173.54 16.8789 169.702 16.8789 164.967V108.937Z" fill="white"/>
<path d="M25.4521 100.863H156.123C160.582 100.863 164.196 104.478 164.196 108.937V164.967C164.196 169.426 160.582 173.04 156.123 173.04H25.4521C20.9934 173.04 17.3789 169.426 17.3789 164.967V108.937C17.379 104.478 20.9935 100.863 25.4521 100.863Z" stroke="black" stroke-opacity="0.12"/>
<path d="M109.755 137.003H108.888V132.795H109.704C111.132 132.795 112.917 132.897 112.917 134.784C112.917 136.748 111.259 137.003 109.755 137.003ZM100.498 130.934H98.1008C96.3667 128.792 93.8676 127.312 90.986 126.649H100.498V130.934ZM100.498 135.677H100.396C100.039 134.07 99.3503 132.642 98.4578 131.393H100.498V135.677ZM100.498 145.189H98.8403C99.6308 143.965 100.217 142.562 100.498 140.981V145.189ZM100.498 149.932H92.414C94.9131 149.116 97.0297 147.662 98.5088 145.648H100.498V149.932ZM92.0315 145.648L90.8075 146.872L89.5834 145.648L89.1244 145.189L87.9258 143.99L88.9204 143.021C88.4614 143.149 87.9768 143.225 87.4668 143.225C85.6307 143.225 84.2027 142.333 83.4886 140.905H91.445C91.343 141.083 91.241 141.262 91.139 141.44L93.6891 143.99L92.261 145.418L92.0315 145.648ZM82.3156 149.065L78.9495 145.699L79.0005 145.648L79.4595 145.189L82.3156 142.333L85.6817 145.699L82.3156 149.065ZM78.6944 143.276C78.6944 143.047 78.873 142.843 79.128 142.843C79.383 142.843 79.587 143.047 79.587 143.276C79.587 143.531 79.383 143.71 79.128 143.71C78.873 143.71 78.6944 143.506 78.6944 143.276ZM79.587 141.619C79.587 141.874 79.383 142.052 79.128 142.052C78.873 142.052 78.6944 141.848 78.6944 141.619C78.6944 141.389 78.873 141.185 79.128 141.185C79.383 141.185 79.587 141.389 79.587 141.619ZM76.9859 140.905L76.5269 140.446L74.8183 138.762L77.4449 136.161L77.8529 135.753L78.2609 136.161L80.862 138.762L79.179 140.446L78.7199 140.905L77.8529 141.772L76.9859 140.905ZM81.5506 140.012C81.8056 140.012 82.0096 140.216 82.0096 140.446C82.0096 140.701 81.8056 140.879 81.5506 140.879C81.2956 140.879 81.1171 140.675 81.1171 140.446C81.1171 140.216 81.2956 140.012 81.5506 140.012ZM81.5506 138.38C81.8056 138.38 82.0096 138.584 82.0096 138.813C82.0096 139.068 81.8056 139.247 81.5506 139.247C81.2956 139.247 81.1171 139.043 81.1171 138.813C81.1171 138.558 81.2956 138.38 81.5506 138.38ZM82.8766 135.014C83.1316 135.014 83.3356 135.218 83.3356 135.447C83.3356 135.524 83.3101 135.6 83.2591 135.677C83.2336 135.728 83.1826 135.753 83.1571 135.804C83.1316 135.804 83.1316 135.83 83.1061 135.83C83.0806 135.83 83.0806 135.855 83.0551 135.855C83.0296 135.855 83.0296 135.855 83.0041 135.881C83.0041 135.881 83.0041 135.881 82.9786 135.881C82.9531 135.881 82.9531 135.881 82.9276 135.881C82.9276 135.881 82.9276 135.881 82.9021 135.881C82.8766 135.881 82.8766 135.881 82.8511 135.881C82.8256 135.881 82.8256 135.881 82.8001 135.881C82.8001 135.881 82.8001 135.881 82.7746 135.881C82.7491 135.881 82.7491 135.881 82.7236 135.881C82.7236 135.881 82.7236 135.881 82.6981 135.881C82.6726 135.881 82.6726 135.881 82.6471 135.855C82.6216 135.855 82.6216 135.83 82.5961 135.83C82.5706 135.83 82.5706 135.804 82.5451 135.804C82.4941 135.779 82.4686 135.728 82.4431 135.677C82.3921 135.6 82.3666 135.524 82.3666 135.447C82.4176 135.218 82.6216 135.014 82.8766 135.014ZM82.8766 133.356C83.1316 133.356 83.3356 133.56 83.3356 133.79C83.3356 134.045 83.1316 134.223 82.8766 134.223C82.6216 134.223 82.4431 134.019 82.4431 133.79C82.4176 133.56 82.6216 133.356 82.8766 133.356ZM89.5069 136.136L89.9659 135.677H83.9477C84.7127 134.682 85.9368 134.045 87.4668 134.045C88.6909 134.045 89.7364 134.478 90.4759 135.167L92.6945 132.948L95.4487 135.677L95.9077 136.136L96.0607 136.289L92.6945 139.655L91.9295 138.89C91.904 139.451 91.802 139.961 91.6235 140.446H83.2591C83.0551 139.91 82.9531 139.324 82.9531 138.686C82.9531 137.768 83.1826 136.901 83.6162 136.161H89.5069V136.136ZM128.192 138.329C128.192 135.728 130.309 133.662 132.935 133.662C134.899 133.662 136.658 134.784 138.061 136.085L137.806 126.955C135.97 126.318 133.93 125.961 131.966 125.961C127.172 125.961 123.092 128.562 120.975 132.464C119.93 128.231 116.258 126.19 111.54 126.19H43.2989V126.649H83.9477C81.066 127.312 78.5924 128.817 76.8329 130.934H43.2734V131.393H76.4758C75.5578 132.642 74.8948 134.07 74.5378 135.677H43.2734V136.136H74.4103C74.2573 136.901 74.1807 137.691 74.1807 138.533C74.1807 139.196 74.2318 139.808 74.3083 140.42H43.2734V140.879H74.4103C74.6908 142.486 75.2773 143.914 76.0933 145.163H43.2734V145.622H76.3993C77.8784 147.637 79.995 149.09 82.4941 149.906H43.2734V150.365H84.7382L83.4632 149.09L86.8293 145.724L90.1954 149.09L88.9204 150.365H90.629H108.888V143.072H113.325C116.028 143.072 118.17 142.103 119.547 140.42C120.414 146.311 125.387 150.671 131.584 150.671C133.139 150.671 136.378 150.391 137.78 149.728L138.035 140.777C136.633 142.154 135.052 142.996 133.037 142.996C130.436 143.021 128.192 140.981 128.192 138.329Z" fill="#4B63CC"/>
<mask id="mask1_17714_456039" style="mask-type:luminance" maskUnits="userSpaceOnUse" x="46" y="124" width="4" height="4">
<path d="M47.9924 124.827L46.4062 126.414L47.9937 128L49.5799 126.413L47.9924 124.827Z" fill="white"/>
</mask>
<g mask="url(#mask1_17714_456039)">
<path d="M47.9668 123.234L51.1545 126.422L47.9668 129.584L44.8047 126.422L47.9668 123.234Z" fill="#4B63CC"/>
</g>
<mask id="mask2_17714_456039" style="mask-type:luminance" maskUnits="userSpaceOnUse" x="52" y="125" width="4" height="4">
<path d="M54.181 125.562L52.5938 127.148L54.1801 128.736L55.7674 127.149L54.181 125.562Z" fill="white"/>
</mask>
<g mask="url(#mask2_17714_456039)">
<path d="M54.1895 123.977L57.3516 127.139L54.1895 130.301L51.0273 127.139L54.1895 123.977Z" fill="#4B63CC"/>
</g>
<mask id="mask3_17714_456039" style="mask-type:luminance" maskUnits="userSpaceOnUse" x="50" y="129" width="4" height="5">
<path d="M52.0013 129.89L50.4141 131.477L52.0004 133.064L53.5877 131.477L52.0013 129.89Z" fill="white"/>
</mask>
<g mask="url(#mask3_17714_456039)">
<path d="M51.9961 128.285L55.1583 131.473L51.9961 134.635L48.834 131.473L51.9961 128.285Z" fill="#4B63CC"/>
</g>
<mask id="mask4_17714_456039" style="mask-type:luminance" maskUnits="userSpaceOnUse" x="59" y="139" width="4" height="4">
<path d="M60.6435 139.292L59.0566 140.879L60.6435 142.466L62.2303 140.879L60.6435 139.292Z" fill="white"/>
</mask>
<g mask="url(#mask4_17714_456039)">
<path d="M60.6407 137.719L63.8028 140.881L60.6407 144.043L57.4785 140.881L60.6407 137.719Z" fill="#4B63CC"/>
</g>
<mask id="mask5_17714_456039" style="mask-type:luminance" maskUnits="userSpaceOnUse" x="50" y="134" width="4" height="4">
<path d="M51.7118 134.108L50.125 135.695L51.7118 137.282L53.2986 135.695L51.7118 134.108Z" fill="white"/>
</mask>
<g mask="url(#mask5_17714_456039)">
<path d="M51.7149 132.543L54.877 135.705L51.7149 138.867L48.5527 135.705L51.7149 132.543Z" fill="#4B63CC"/>
</g>
<mask id="mask6_17714_456039" style="mask-type:luminance" maskUnits="userSpaceOnUse" x="54" y="131" width="4" height="4">
<path d="M55.5966 131.558L54.0098 133.145L55.5966 134.731L57.1834 133.145L55.5966 131.558Z" fill="white"/>
</mask>
<g mask="url(#mask6_17714_456039)">
<path d="M55.5918 129.969L58.754 133.156L55.5918 136.319L52.4297 133.156L55.5918 129.969Z" fill="#4B63CC"/>
</g>
<mask id="mask7_17714_456039" style="mask-type:luminance" maskUnits="userSpaceOnUse" x="58" y="127" width="4" height="4">
<path d="M59.9729 127.389L58.3867 128.977L59.9742 130.563L61.5603 128.975L59.9729 127.389Z" fill="white"/>
</mask>
<g mask="url(#mask7_17714_456039)">
<path d="M59.9766 125.812L63.1387 128.975L59.9766 132.137L56.8145 128.975L59.9766 125.812Z" fill="#4B63CC"/>
</g>
<mask id="mask8_17714_456039" style="mask-type:luminance" maskUnits="userSpaceOnUse" x="61" y="140" width="7" height="7">
<path d="M64.6888 140.842L61.75 143.781L64.6896 146.72L67.6284 143.78L64.6888 140.842Z" fill="white"/>
</mask>
<g mask="url(#mask8_17714_456039)">
<path d="M64.6934 137.902L70.5586 143.768L64.6934 149.633L58.8281 143.768L64.6934 137.902Z" fill="#4B63CC"/>
</g>
<mask id="mask9_17714_456039" style="mask-type:luminance" maskUnits="userSpaceOnUse" x="54" y="135" width="5" height="6">
<path d="M56.787 135.769L54.6406 137.914L56.7858 140.06L58.9322 137.915L56.787 135.769Z" fill="white"/>
</mask>
<g mask="url(#mask9_17714_456039)">
<path d="M56.79 133.617L61.0742 137.901L56.79 142.186L52.5059 137.901L56.79 133.617Z" fill="#4B63CC"/>
</g>
<mask id="mask10_17714_456039" style="mask-type:luminance" maskUnits="userSpaceOnUse" x="65" y="125" width="6" height="6">
<path d="M68.2032 125.937L65.9492 128.191L68.2032 130.445L70.4572 128.191L68.2032 125.937Z" fill="white"/>
</mask>
<g mask="url(#mask10_17714_456039)">
<path d="M68.1895 123.664L72.7287 128.178L68.1895 132.691L63.6758 128.178L68.1895 123.664Z" fill="#4B63CC"/>
</g>
<mask id="mask11_17714_456039" style="mask-type:luminance" maskUnits="userSpaceOnUse" x="62" y="129" width="6" height="6">
<path d="M65.0366 129.609L62.7832 131.863L65.0378 134.117L67.2912 131.862L65.0366 129.609Z" fill="white"/>
</mask>
<g mask="url(#mask11_17714_456039)">
<path d="M65.0528 127.344L69.5664 131.857L65.0528 136.371L60.5391 131.857L65.0528 127.344Z" fill="#4B63CC"/>
</g>
<mask id="mask12_17714_456039" style="mask-type:luminance" maskUnits="userSpaceOnUse" x="71" y="127" width="6" height="5">
<path d="M71.9395 129.738L74.209 131.982L76.4531 129.738L74.209 127.469L71.9395 129.738Z" fill="white"/>
</mask>
<g mask="url(#mask12_17714_456039)">
<path d="M74.2071 125.203L78.7207 129.742L74.2071 134.256L69.6934 129.742L74.2071 125.203Z" fill="#4B63CC"/>
</g>
<mask id="mask13_17714_456039" style="mask-type:luminance" maskUnits="userSpaceOnUse" x="48" y="122" width="4" height="4">
<path d="M49.9496 122.427L48.6152 123.762L49.9496 125.096L51.284 123.762L49.9496 122.427Z" fill="white"/>
</mask>
<g mask="url(#mask13_17714_456039)">
<path d="M49.9548 121.117L52.607 123.769L49.9548 126.421L47.3027 123.769L49.9548 121.117Z" fill="#4B63CC"/>
</g>
<path d="M49.3185 134.43C49.5735 134.43 49.7775 134.634 49.7775 134.863C49.7775 135.118 49.5735 135.322 49.3185 135.322C49.0635 135.322 48.885 135.118 48.885 134.863C48.8595 134.634 49.0635 134.43 49.3185 134.43ZM49.3185 136.113C49.5735 136.113 49.7775 136.317 49.7775 136.572C49.7775 136.827 49.5735 137.005 49.3185 137.005C49.0635 137.005 48.885 136.801 48.885 136.572C48.8595 136.317 49.0635 136.113 49.3185 136.113Z" fill="#4B63CC"/>
<path d="M54.1622 137.086C54.4172 137.086 54.6213 137.29 54.6213 137.519C54.6213 137.774 54.4172 137.978 54.1622 137.978C53.9072 137.978 53.7287 137.774 53.7287 137.519C53.7032 137.29 53.9072 137.086 54.1622 137.086ZM54.1622 138.744C54.4172 138.744 54.6213 138.948 54.6213 139.203C54.6213 139.458 54.4172 139.636 54.1622 139.636C53.9072 139.636 53.7287 139.432 53.7287 139.203C53.7032 138.948 53.9072 138.744 54.1622 138.744Z" fill="#4B63CC"/>
<path d="M62.4257 130.578C62.6807 130.578 62.8847 130.782 62.8847 131.012C62.8847 131.267 62.6807 131.471 62.4257 131.471C62.1707 131.471 61.9922 131.267 61.9922 131.012C61.9922 130.808 62.1707 130.578 62.4257 130.578ZM62.4257 132.261C62.6807 132.261 62.8847 132.465 62.8847 132.72C62.8847 132.975 62.6807 133.154 62.4257 133.154C62.1707 133.154 61.9922 132.95 61.9922 132.72C61.9922 132.465 62.1707 132.261 62.4257 132.261Z" fill="#4B63CC"/>
<path d="M71.8613 128.387C72.1163 128.387 72.3203 128.591 72.3203 128.82C72.3203 129.075 72.1163 129.279 71.8613 129.279C71.6062 129.279 71.4277 129.075 71.4277 128.82C71.4277 128.591 71.6062 128.387 71.8613 128.387ZM71.8613 130.044C72.1163 130.044 72.3203 130.248 72.3203 130.503C72.3203 130.758 72.1163 130.937 71.8613 130.937C71.6062 130.937 71.4277 130.733 71.4277 130.503C71.4277 130.248 71.6062 130.044 71.8613 130.044Z" fill="#4B63CC"/>
<path d="M66.4804 131.754C66.7354 131.754 66.9394 131.958 66.9394 132.187C66.9394 132.442 66.7354 132.646 66.4804 132.646C66.2254 132.646 66.0469 132.442 66.0469 132.187C66.0469 131.958 66.2254 131.754 66.4804 131.754ZM66.4804 133.411C66.7354 133.411 66.9394 133.615 66.9394 133.871C66.9394 134.126 66.7354 134.304 66.4804 134.304C66.2254 134.304 66.0469 134.1 66.0469 133.871C66.0469 133.615 66.2254 133.411 66.4804 133.411Z" fill="#4B63CC"/>
<path d="M57.7323 134.812C57.9874 134.812 58.1914 135.017 58.1914 135.246C58.1914 135.501 57.9874 135.705 57.7323 135.705C57.4773 135.705 57.2988 135.501 57.2988 135.246C57.2988 135.017 57.4773 134.812 57.7323 134.812ZM57.7323 136.47C57.9874 136.47 58.1914 136.674 58.1914 136.929C58.1914 137.184 57.9874 137.363 57.7323 137.363C57.4773 137.363 57.2988 137.159 57.2988 136.929C57.2988 136.674 57.4773 136.47 57.7323 136.47Z" fill="#4B63CC"/>
<mask id="mask14_17714_456039" style="mask-type:luminance" maskUnits="userSpaceOnUse" x="58" y="133" width="7" height="7">
<path d="M60.3607 136.93C60.3607 136.7 60.5392 136.471 60.7942 136.471C61.0493 136.471 61.2533 136.675 61.2533 136.93C61.2533 137.185 61.0493 137.363 60.7942 137.363C60.5392 137.363 60.3607 137.159 60.3607 136.93ZM60.3607 135.247C60.3607 135.017 60.5392 134.813 60.7942 134.813C61.0493 134.813 61.2533 135.017 61.2533 135.247C61.2533 135.502 61.0493 135.706 60.7942 135.706C60.5392 135.706 60.3607 135.502 60.3607 135.247ZM58.2441 136.241L61.1768 139.174L64.1094 136.241L61.1768 133.309L58.2441 136.241Z" fill="white"/>
</mask>
<g mask="url(#mask14_17714_456039)">
<path d="M61.1758 130.375L67.041 136.24L61.1758 142.105L55.3105 136.24L61.1758 130.375Z" fill="#4B63CC"/>
</g>
<mask id="mask15_17714_456039" style="mask-type:luminance" maskUnits="userSpaceOnUse" x="63" y="135" width="7" height="6">
<path d="M65.6145 138.513C65.6145 138.284 65.793 138.054 66.048 138.054C66.3031 138.054 66.5071 138.258 66.5071 138.513C66.5071 138.768 66.3031 138.947 66.048 138.947C65.8185 138.947 65.6145 138.743 65.6145 138.513ZM65.6145 136.83C65.6145 136.601 65.793 136.397 66.048 136.397C66.3031 136.397 66.5071 136.601 66.5071 136.83C66.5071 137.085 66.3031 137.289 66.048 137.289C65.8185 137.289 65.6145 137.085 65.6145 136.83ZM63.5234 137.952L66.4561 140.885L69.3887 137.952L66.4561 135.02L63.5234 137.952Z" fill="white"/>
</mask>
<g mask="url(#mask15_17714_456039)">
<path d="M66.4531 132.086L72.3184 137.977L66.4531 143.842L60.5879 137.977L66.4531 132.086Z" fill="#4B63CC"/>
</g>
<mask id="mask16_17714_456039" style="mask-type:luminance" maskUnits="userSpaceOnUse" x="67" y="130" width="6" height="7">
<path d="M69.9993 134.813C69.9993 134.583 70.1778 134.354 70.4328 134.354C70.6878 134.354 70.8918 134.558 70.8918 134.813C70.8918 135.068 70.6878 135.246 70.4328 135.246C70.1778 135.246 69.9993 135.068 69.9993 134.813ZM69.9993 133.155C69.9993 132.926 70.1778 132.722 70.4328 132.722C70.6878 132.722 70.8918 132.926 70.8918 133.155C70.8918 133.41 70.6878 133.614 70.4328 133.614C70.1778 133.589 69.9993 133.385 69.9993 133.155ZM67.0156 133.232L69.9482 136.164L72.8809 133.232L69.9482 130.273L67.0156 133.232Z" fill="white"/>
</mask>
<g mask="url(#mask16_17714_456039)">
<path d="M69.9473 127.344L75.838 133.235L69.9473 139.1L64.082 133.235L69.9473 127.344Z" fill="#4B63CC"/>
</g>
<path d="M77.2911 137.438C77.5462 137.438 77.7502 137.642 77.7502 137.871C77.7502 138.126 77.5462 138.33 77.2911 138.33C77.0361 138.33 76.8576 138.126 76.8576 137.871C76.8321 137.642 77.0361 137.438 77.2911 137.438ZM77.2911 139.095C77.5462 139.095 77.7502 139.299 77.7502 139.554C77.7502 139.809 77.5462 139.988 77.2911 139.988C77.0361 139.988 76.8576 139.784 76.8576 139.554C76.8321 139.325 77.0361 139.095 77.2911 139.095Z" fill="#4B63CC"/>
<path d="M81.2443 144.656C81.4993 144.656 81.7033 144.86 81.7033 145.09C81.7033 145.345 81.4993 145.549 81.2443 145.549C80.9893 145.549 80.8108 145.345 80.8108 145.09C80.7852 144.86 80.9893 144.656 81.2443 144.656ZM81.2443 146.314C81.4993 146.314 81.7033 146.518 81.7033 146.773C81.7033 147.028 81.4993 147.206 81.2443 147.206C80.9893 147.206 80.8108 147.002 80.8108 146.773C80.7852 146.543 80.9893 146.314 81.2443 146.314Z" fill="#4B63CC"/>
<path d="M90.1954 142.234C90.4505 142.234 90.6545 142.438 90.6545 142.668C90.6545 142.923 90.4505 143.127 90.1954 143.127C89.9404 143.127 89.7619 142.923 89.7619 142.668C89.7364 142.438 89.9404 142.234 90.1954 142.234ZM90.1954 143.892C90.4505 143.892 90.6545 144.096 90.6545 144.351C90.6545 144.606 90.4505 144.784 90.1954 144.784C89.9404 144.784 89.7619 144.58 89.7619 144.351C89.7364 144.121 89.9404 143.892 90.1954 143.892Z" fill="#4B63CC"/>
<path d="M57.6835 128.055C57.9385 128.055 58.1425 128.259 58.1425 128.488C58.1425 128.743 57.9385 128.947 57.6835 128.947C57.4285 128.947 57.25 128.743 57.25 128.488C57.25 128.259 57.4285 128.055 57.6835 128.055ZM57.6835 129.738C57.9385 129.738 58.1425 129.942 58.1425 130.197C58.1425 130.452 57.9385 130.63 57.6835 130.63C57.4285 130.63 57.25 130.426 57.25 130.197C57.25 129.942 57.4285 129.738 57.6835 129.738Z" fill="#4B63CC"/>
<path d="M65.4863 141.75C65.7413 141.75 65.9453 141.954 65.9453 142.184C65.9453 142.439 65.7413 142.643 65.4863 142.643C65.2312 142.643 65.0527 142.439 65.0527 142.184C65.0527 141.98 65.2312 141.75 65.4863 141.75ZM65.4863 143.433C65.7413 143.433 65.9453 143.637 65.9453 143.892C65.9453 144.147 65.7413 144.326 65.4863 144.326C65.2312 144.326 65.0527 144.122 65.0527 143.892C65.0527 143.637 65.2312 143.433 65.4863 143.433Z" fill="#4B63CC"/>
<mask id="mask17_17714_456039" style="mask-type:luminance" maskUnits="userSpaceOnUse" x="66" y="140" width="7" height="7">
<path d="M68.4687 143.411C68.4687 143.181 68.6472 142.951 68.9022 142.951C69.1572 142.951 69.3612 143.156 69.3612 143.411C69.3612 143.666 69.1572 143.844 68.9022 143.844C68.6472 143.844 68.4687 143.64 68.4687 143.411ZM68.4687 141.727C68.4687 141.498 68.6472 141.294 68.9022 141.294C69.1572 141.294 69.3612 141.498 69.3612 141.727C69.3612 141.982 69.1572 142.186 68.9022 142.186C68.6472 142.186 68.4687 141.982 68.4687 141.727ZM66.2246 143.104L69.1572 146.037L72.0899 143.104L69.1572 140.172L66.2246 143.104Z" fill="white"/>
</mask>
<g mask="url(#mask17_17714_456039)">
<path d="M69.1582 137.234L75.0235 143.1L69.1582 148.965L63.293 143.1L69.1582 137.234Z" fill="#4B63CC"/>
</g>
<path d="M63.1895 128.642C63.1895 128.514 63.2915 128.412 63.419 128.412C63.5465 128.412 63.6485 128.514 63.6485 128.642C63.6485 128.795 63.521 128.846 63.419 128.846C63.317 128.846 63.1895 128.795 63.1895 128.642ZM63.1895 127.214C63.1895 127.086 63.2915 126.984 63.419 126.984C63.5465 126.984 63.6485 127.086 63.6485 127.214C63.6485 127.367 63.521 127.418 63.419 127.418C63.317 127.443 63.1895 127.367 63.1895 127.214Z" fill="#4B63CC"/>
<path d="M65.7909 126.758C66.046 126.758 66.25 126.962 66.25 127.191C66.25 127.446 66.046 127.65 65.7909 127.65C65.5359 127.65 65.3574 127.446 65.3574 127.191C65.3574 126.962 65.5359 126.758 65.7909 126.758ZM65.7909 128.415C66.046 128.415 66.25 128.619 66.25 128.874C66.25 129.129 66.046 129.308 65.7909 129.308C65.5359 129.308 65.3574 129.104 65.3574 128.874C65.3574 128.619 65.5359 128.415 65.7909 128.415Z" fill="#4B63CC"/>
<path d="M58.5996 141.522C58.5996 141.394 58.7016 141.267 58.8291 141.267C58.9566 141.267 59.0841 141.369 59.0841 141.522C59.0841 141.675 58.9311 141.751 58.8291 141.751C58.7271 141.777 58.5996 141.7 58.5996 141.522ZM58.5996 139.966C58.5996 139.838 58.7016 139.711 58.8291 139.711C58.9566 139.711 59.0841 139.813 59.0841 139.966C59.0841 140.119 58.9311 140.195 58.8291 140.195C58.7271 140.195 58.5996 140.119 58.5996 139.966Z" fill="#4B63CC"/>
<path d="M61.3283 143.078C61.5833 143.078 61.7873 143.282 61.7873 143.512C61.7873 143.767 61.5833 143.971 61.3283 143.971C61.0732 143.971 60.8947 143.767 60.8947 143.512C60.8692 143.282 61.0732 143.078 61.3283 143.078ZM61.3283 144.736C61.5833 144.736 61.7873 144.94 61.7873 145.195C61.7873 145.45 61.5833 145.628 61.3283 145.628C61.0732 145.628 60.8947 145.424 60.8947 145.195C60.8692 144.965 61.0732 144.736 61.3283 144.736Z" fill="#4B63CC"/>
<path d="M52.2773 127.193C52.2773 127.066 52.3793 126.938 52.5069 126.938C52.6344 126.938 52.7619 127.04 52.7619 127.193C52.7619 127.346 52.6089 127.423 52.5069 127.423C52.4304 127.448 52.2773 127.372 52.2773 127.193ZM52.2773 125.638C52.2773 125.51 52.3793 125.383 52.5069 125.383C52.6344 125.383 52.7619 125.485 52.7619 125.638C52.7619 125.791 52.6089 125.867 52.5069 125.867C52.4304 125.867 52.2773 125.791 52.2773 125.638Z" fill="#4B63CC"/>
<path d="M48.043 124.079C48.043 123.977 48.1195 123.875 48.247 123.875C48.3745 123.875 48.451 123.977 48.451 124.079C48.451 124.206 48.3235 124.257 48.247 124.257C48.1705 124.257 48.043 124.206 48.043 124.079ZM48.043 122.829C48.043 122.727 48.1195 122.625 48.247 122.625C48.3745 122.625 48.451 122.727 48.451 122.829C48.451 122.957 48.3235 123.008 48.247 123.008C48.1705 123.008 48.043 122.957 48.043 122.829Z" fill="#4B63CC"/>
<path d="M54.2402 132.007C54.2402 131.88 54.3422 131.778 54.4697 131.778C54.5972 131.778 54.6993 131.88 54.6993 132.007C54.6993 132.16 54.5717 132.211 54.4697 132.211C54.3677 132.237 54.2402 132.16 54.2402 132.007ZM54.2402 130.605C54.2402 130.477 54.3422 130.375 54.4697 130.375C54.5972 130.375 54.6993 130.477 54.6993 130.605C54.6993 130.758 54.5717 130.809 54.4697 130.809C54.3677 130.809 54.2402 130.732 54.2402 130.605Z" fill="#4B63CC"/>
<path d="M49.6992 131.96C49.6992 131.833 49.8012 131.731 49.9287 131.731C50.0562 131.731 50.1582 131.833 50.1582 131.96C50.1582 132.113 50.0307 132.164 49.9287 132.164C49.8267 132.164 49.6992 132.113 49.6992 131.96ZM49.6992 130.558C49.6992 130.43 49.8012 130.328 49.9287 130.328C50.0562 130.328 50.1582 130.43 50.1582 130.558C50.1582 130.711 50.0307 130.762 49.9287 130.762C49.8267 130.762 49.6992 130.685 49.6992 130.558Z" fill="#4B63CC"/>
<path d="M46.1797 127.218C46.1797 127.09 46.2817 126.988 46.3837 126.988C46.5112 126.988 46.6132 127.09 46.6132 127.218C46.6132 127.371 46.4857 127.422 46.3837 127.422C46.3072 127.448 46.1797 127.371 46.1797 127.218ZM46.1797 125.815C46.1797 125.688 46.2817 125.586 46.3837 125.586C46.5112 125.586 46.6132 125.688 46.6132 125.815C46.6132 125.968 46.4857 126.019 46.3837 126.019C46.3072 126.019 46.1797 125.943 46.1797 125.815Z" fill="#4B63CC"/>
<path d="M91.7265 134.844C91.9815 134.844 92.1855 135.048 92.1855 135.277C92.1855 135.532 91.9815 135.736 91.7265 135.736C91.4715 135.736 91.293 135.532 91.293 135.277C91.293 135.048 91.4715 134.844 91.7265 134.844ZM91.7265 136.527C91.9815 136.527 92.1855 136.731 92.1855 136.986C92.1855 137.241 91.9815 137.419 91.7265 137.419C91.4715 137.419 91.293 137.215 91.293 136.986C91.293 136.731 91.4715 136.527 91.7265 136.527Z" fill="#4B63CC"/>
<mask id="mask18_17714_456039" style="mask-type:luminance" maskUnits="userSpaceOnUse" x="69" y="136" width="7" height="7">
<path d="M72.6013 138.842C72.6013 138.613 72.7798 138.383 73.0348 138.383C73.2898 138.383 73.4938 138.587 73.4938 138.842C73.4938 139.097 73.2898 139.276 73.0348 139.276C72.7798 139.276 72.6013 139.097 72.6013 138.842ZM69.5156 139.454L72.4483 142.387L75.3809 139.454L73.5193 137.593L72.6013 137.669L72.4483 136.496L69.5156 139.454Z" fill="white"/>
</mask>
<g mask="url(#mask18_17714_456039)">
<path d="M72.4453 133.586L78.3106 139.451L72.4453 145.316L66.5801 139.451L72.4453 133.586Z" fill="#4B63CC"/>
</g>
<mask id="mask19_17714_456039" style="mask-type:luminance" maskUnits="userSpaceOnUse" x="70" y="133" width="6" height="6">
<path d="M72.6008 137.186C72.6008 136.956 72.7793 136.752 73.0343 136.752C73.2893 136.752 73.4934 136.956 73.4934 137.186C73.4934 137.441 73.2893 137.645 73.0343 137.645C72.7793 137.619 72.6008 137.415 72.6008 137.186ZM70.9688 136.242L73.2383 138.512L75.5079 136.242L73.2383 133.973L70.9688 136.242Z" fill="white"/>
</mask>
<g mask="url(#mask19_17714_456039)">
<path d="M73.211 131.727L77.7246 136.24L73.211 140.754L68.6973 136.24L73.211 131.727Z" fill="#4B63CC"/>
</g>
<mask id="mask20_17714_456039" style="mask-type:luminance" maskUnits="userSpaceOnUse" x="71" y="141" width="7" height="7">
<path d="M74.5755 141.779L71.6367 144.719L74.5763 147.658L77.5151 144.718L74.5755 141.779Z" fill="white"/>
</mask>
<g mask="url(#mask20_17714_456039)">
<path d="M74.5625 138.844L80.4278 144.735L74.5625 150.6L68.6973 144.735L74.5625 138.844Z" fill="#4B63CC"/>
</g>
<path d="M277.037 109.394C277.037 104.659 280.876 100.82 285.611 100.82H389.938C394.673 100.82 398.511 104.659 398.511 109.394V165.424C398.511 170.159 394.673 173.997 389.938 173.997H285.611C280.876 173.997 277.037 170.159 277.037 165.424V109.394Z" fill="white"/>
<path d="M285.61 101.32H389.938C394.396 101.32 398.011 104.935 398.011 109.394V165.424C398.011 169.883 394.396 173.497 389.938 173.497H285.61C281.152 173.497 277.537 169.883 277.537 165.424V109.394C277.537 104.935 281.152 101.32 285.61 101.32Z" stroke="black" stroke-opacity="0.12"/>
<path d="M363.71 141.187H359.053V137.701H363.71C364.344 137.701 364.859 137.594 365.253 137.379C365.648 137.165 365.935 136.869 366.115 136.492C366.304 136.106 366.398 135.673 366.398 135.193C366.398 134.678 366.304 134.202 366.115 133.765C365.935 133.327 365.648 132.976 365.253 132.71C364.859 132.436 364.344 132.298 363.71 132.298H360.751V147.541H356.236V128.812H363.71C365.211 128.812 366.501 129.087 367.582 129.636C368.671 130.185 369.507 130.939 370.09 131.9C370.673 132.852 370.965 133.941 370.965 135.167C370.965 136.376 370.673 137.431 370.09 138.331C369.507 139.232 368.671 139.935 367.582 140.441C366.501 140.938 365.211 141.187 363.71 141.187Z" fill="#4B63CC"/>
<path d="M348.466 128.812V147.541H343.951V128.812H348.466ZM354.1 128.812V132.298H338.445V128.812H354.1Z" fill="#4B63CC"/>
<path d="M331.423 128.812V147.541H326.908V128.812H331.423ZM337.057 128.812V132.298H321.402V128.812H337.057Z" fill="#4B63CC"/>
<path d="M316.619 136.247V139.72H307.01V136.247H316.619ZM308.515 128.812V147.541H304V128.812H308.515ZM319.654 128.812V147.541H315.152V128.812H319.654Z" fill="#4B63CC"/>
<rect x="412.203" y="100.82" width="84.8853" height="73.177" rx="8.5734" fill="white"/>
<rect x="412.703" y="101.32" width="83.8853" height="72.177" rx="8.0734" stroke="black" stroke-opacity="0.12"/>
<path fill-rule="evenodd" clip-rule="evenodd" d="M456 117L465.801 126.8L444.8 147.8L435 138L456 117ZM456 139.4L465.801 149.2L456 159L446.2 149.2L456 139.4ZM477 138L467.2 128.2L457.4 138L467.2 147.8L477 138Z" fill="#4B63CC"/>
<rect x="15.9395" y="187.727" width="84.5452" height="73.2725" rx="8.5734" fill="white"/>
<rect x="16.4395" y="188.227" width="83.5452" height="72.2725" rx="8.0734" stroke="black" stroke-opacity="0.12"/>
<path d="M45.9703 233.52C46.2618 233.52 46.4994 233.756 46.4997 234.047V236.278C46.4997 236.569 46.7355 236.805 47.0272 236.805H68.971C69.2625 236.805 69.4984 236.569 69.4984 236.278V234.047C69.4987 233.756 69.7348 233.521 70.0258 233.52H73.8984C74.1898 233.52 74.4275 233.756 74.4278 234.047V241.207C74.4274 241.498 74.1898 241.734 73.8984 241.734H42.0977C41.8067 241.734 41.5708 241.498 41.5703 241.207V234.047C41.5706 233.756 41.8066 233.52 42.0977 233.52H45.9703ZM53.579 228.593C53.8705 228.593 54.1062 228.829 54.1065 229.12V232.499C54.1065 232.791 53.8706 233.029 53.579 233.029H48.9464C48.6548 233.029 48.417 232.791 48.417 232.499V229.12C48.4172 228.829 48.6549 228.593 48.9464 228.593H53.579ZM61.5167 225.231C61.8079 225.232 62.0439 225.468 62.0441 225.759V229.138C62.0441 229.429 61.808 229.667 61.5167 229.667H56.882C56.5908 229.667 56.3546 229.429 56.3546 229.138V225.759C56.3548 225.468 56.5909 225.232 56.882 225.231H61.5167ZM53.579 221.946C53.8706 221.947 54.1065 222.182 54.1065 222.474V225.853C54.1065 226.145 53.8706 226.38 53.579 226.381H48.9464C48.6548 226.381 48.417 226.145 48.417 225.853V222.474C48.417 222.182 48.6548 221.946 48.9464 221.946H53.579ZM69.4543 221.946C69.7459 221.946 69.9837 222.182 69.9837 222.474V225.853C69.9837 226.145 69.7459 226.381 69.4543 226.381H64.8217C64.5301 226.38 64.2942 226.145 64.2942 225.853V222.474C64.2942 222.182 64.5301 221.947 64.8217 221.946H69.4543ZM61.5167 218.66C61.8077 218.66 62.0436 218.896 62.0441 219.187V222.568C62.0437 222.859 61.8077 223.095 61.5167 223.096H56.882C56.591 223.095 56.355 222.859 56.3546 222.568V219.187C56.3551 218.896 56.5911 218.66 56.882 218.66H61.5167ZM53.579 215.084C53.8706 215.084 54.1064 215.32 54.1065 215.611V218.99C54.1065 219.282 53.8707 219.52 53.579 219.52H48.9464C48.6548 219.52 48.419 219.282 48.419 218.99V215.611C48.419 215.32 48.6548 215.084 48.9464 215.084H53.579ZM73.8984 207.234C74.1898 207.234 74.4275 207.47 74.4278 207.762V214.921C74.4274 215.213 74.1898 215.449 73.8984 215.449H70.0258C69.7349 215.448 69.4988 215.212 69.4984 214.921V212.691C69.4984 212.4 69.2625 212.164 68.971 212.164H47.0272C46.7355 212.164 46.4997 212.4 46.4997 212.691V214.921C46.4993 215.213 46.2617 215.449 45.9703 215.449H42.0977C41.8067 215.448 41.5707 215.212 41.5703 214.921V207.762C41.5707 207.471 41.8066 207.235 42.0977 207.234H73.8984Z" fill="#4B63CC"/>
</g>
</g>
</g>
<defs>
<filter id="filter0_ddd_17714_456039" x="8" y="11" width="499.666" height="269" filterUnits="userSpaceOnUse" color-interpolation-filters="sRGB">
<feFlood flood-opacity="0" result="BackgroundImageFix"/>
<feColorMatrix in="SourceAlpha" type="matrix" values="0 0 0 0 0 0 0 0 0 0 0 0 0 0 0 0 0 0 127 0" result="hardAlpha"/>
<feOffset dy="1"/>
<feGaussianBlur stdDeviation="1.5"/>
<feColorMatrix type="matrix" values="0 0 0 0 0 0 0 0 0 0 0 0 0 0 0 0 0 0 0.03 0"/>
<feBlend mode="normal" in2="BackgroundImageFix" result="effect1_dropShadow_17714_456039"/>
<feColorMatrix in="SourceAlpha" type="matrix" values="0 0 0 0 0 0 0 0 0 0 0 0 0 0 0 0 0 0 127 0" result="hardAlpha"/>
<feOffset dy="5"/>
<feGaussianBlur stdDeviation="2.5"/>
<feColorMatrix type="matrix" values="0 0 0 0 0 0 0 0 0 0 0 0 0 0 0 0 0 0 0.03 0"/>
<feBlend mode="normal" in2="effect1_dropShadow_17714_456039" result="effect2_dropShadow_17714_456039"/>
<feColorMatrix in="SourceAlpha" type="matrix" values="0 0 0 0 0 0 0 0 0 0 0 0 0 0 0 0 0 0 127 0" result="hardAlpha"/>
<feOffset dy="12"/>
<feGaussianBlur stdDeviation="3.5"/>
<feColorMatrix type="matrix" values="0 0 0 0 0 0 0 0 0 0 0 0 0 0 0 0 0 0 0.02 0"/>
<feBlend mode="normal" in2="effect2_dropShadow_17714_456039" result="effect3_dropShadow_17714_456039"/>
<feBlend mode="normal" in="SourceGraphic" in2="effect3_dropShadow_17714_456039" result="shape"/>
</filter>
<linearGradient id="paint0_linear_17714_456039" x1="483.261" y1="132.5" x2="-18.9997" y2="132.141" gradientUnits="userSpaceOnUse">
<stop stop-color="#737373" stop-opacity="0"/>
<stop offset="0.1" stop-color="#949494"/>
</linearGradient>
<clipPath id="clip0_17714_456039">
<rect width="501" height="276" fill="white"/>
</clipPath>
<clipPath id="clip1_17714_456039">
<rect width="65.2321" height="43.9062" fill="white" transform="translate(38.6133 29.1016)"/>
</clipPath>
</defs>
</svg>
