<svg width="397" height="276" viewBox="0 0 397 276" fill="none" xmlns="http://www.w3.org/2000/svg">
<g clip-path="url(#clip0_17521_103112)">
<g filter="url(#filter0_ddd_17521_103112)">
<rect x="4.22656" y="15.6602" width="113.588" height="113.588" rx="10" fill="white"/>
<rect x="4.72656" y="16.1602" width="112.588" height="112.588" rx="9.5" stroke="black" stroke-opacity="0.05"/>
<g clip-path="url(#clip1_17521_103112)">
<path opacity="0.16" d="M32.9958 69.5033H53.6482C54.8219 69.5033 55.9475 69.0371 56.7775 68.2071C57.6074 67.3772 58.0737 66.2516 58.0737 65.0778V44.4255C58.0737 43.2518 57.6074 42.1261 56.7775 41.2962C55.9475 40.4663 54.8219 40 53.6482 40H32.9958C31.8221 40 30.6965 40.4663 29.8665 41.2962C29.0366 42.1261 28.5703 43.2518 28.5703 44.4255V65.0778C28.5703 66.2516 29.0366 67.3772 29.8665 68.2071C30.6965 69.0371 31.8221 69.5033 32.9958 69.5033Z" fill="#006D92"/>
<path d="M35.9478 53.2773H50.6995C51.0907 53.2773 51.466 53.4328 51.7426 53.7094C52.0192 53.9861 52.1747 54.3613 52.1747 54.7525C52.1747 55.1437 52.0192 55.519 51.7426 55.7956C51.466 56.0723 51.0907 56.2277 50.6995 56.2277H35.9478C35.5566 56.2277 35.1814 56.0723 34.9047 55.7956C34.6281 55.519 34.4727 55.1437 34.4727 54.7525C34.4727 54.3613 34.6281 53.9861 34.9047 53.7094C35.1814 53.4328 35.5566 53.2773 35.9478 53.2773Z" fill="#006D92"/>
<path opacity="0.16" d="M89.0505 40H68.3982C67.2244 40 66.0988 40.4663 65.2689 41.2962C64.4389 42.1261 63.9727 43.2518 63.9727 44.4255V65.0778C63.9727 66.2516 64.4389 67.3772 65.2689 68.2071C66.0988 69.0371 67.2244 69.5033 68.3982 69.5033H89.0505C90.2242 69.5033 91.3499 69.0371 92.1798 68.2071C93.0097 67.3772 93.476 66.2516 93.476 65.0778V44.4255C93.476 43.2518 93.0097 42.1261 92.1798 41.2962C91.3499 40.4663 90.2242 40 89.0505 40Z" fill="#006D92"/>
<path d="M86.1018 56.2266H80.2012V62.1272C80.2012 62.5185 80.0458 62.8937 79.7691 63.1703C79.4925 63.447 79.1172 63.6024 78.726 63.6024C78.3348 63.6024 77.9596 63.447 77.6829 63.1703C77.4063 62.8937 77.2508 62.5185 77.2508 62.1272V56.2266H71.3502C70.9589 56.2266 70.5837 56.0711 70.3071 55.7945C70.0304 55.5178 69.875 55.1426 69.875 54.7514C69.875 54.3602 70.0304 53.9849 70.3071 53.7083C70.5837 53.4316 70.9589 53.2762 71.3502 53.2762H77.2508V47.3756C77.2508 46.9843 77.4063 46.6091 77.6829 46.3325C77.9596 46.0558 78.3348 45.9004 78.726 45.9004C79.1172 45.9004 79.4925 46.0558 79.7691 46.3325C80.0458 46.6091 80.2012 46.9843 80.2012 47.3756V53.2762H86.1018C86.4931 53.2762 86.8683 53.4316 87.1449 53.7083C87.4216 53.9849 87.577 54.3602 87.577 54.7514C87.577 55.1426 87.4216 55.5178 87.1449 55.7945C86.8683 56.0711 86.4931 56.2266 86.1018 56.2266Z" fill="#006D92"/>
<path opacity="0.16" d="M53.6482 104.908C54.8219 104.908 55.9475 104.441 56.7775 103.611C57.6074 102.781 58.0737 101.656 58.0737 100.482V79.8298C58.0737 78.6561 57.6074 77.5304 56.7775 76.7005C55.9475 75.8706 54.8219 75.4043 53.6482 75.4043H32.9958C31.8221 75.4043 30.6965 75.8706 29.8665 76.7005C29.0366 77.5304 28.5703 78.6561 28.5703 79.8298V100.482C28.5703 101.656 29.0366 102.781 29.8665 103.611C30.6965 104.441 31.8221 104.908 32.9958 104.908H53.6482Z" fill="#006D92"/>
<path d="M37.0657 85.9816C36.824 85.6994 36.6977 85.3364 36.7121 84.9651C36.7264 84.5938 36.8803 84.2417 37.143 83.9789C37.4058 83.7162 37.7579 83.5623 38.1292 83.548C38.5005 83.5336 38.8635 83.6599 39.1457 83.9016L43.3204 88.0763L47.4951 83.9016C47.7773 83.6599 48.1403 83.5336 48.5116 83.548C48.8829 83.5623 49.235 83.7162 49.4978 83.9789C49.7605 84.2417 49.9144 84.5938 49.9287 84.9651C49.9431 85.3364 49.8168 85.6994 49.5751 85.9816L45.4004 90.1563L49.5751 94.331C49.8499 94.6074 50.0041 94.9813 50.0041 95.371C50.0041 95.7607 49.8499 96.1346 49.5751 96.411C49.2987 96.6858 48.9248 96.84 48.5351 96.84C48.1454 96.84 47.7715 96.6858 47.4951 96.411L43.3204 92.2363L39.1457 96.411C38.8693 96.6858 38.4954 96.84 38.1057 96.84C37.716 96.84 37.3421 96.6858 37.0657 96.411C36.7909 96.1346 36.6367 95.7607 36.6367 95.371C36.6367 94.9813 36.7909 94.6074 37.0657 94.331L41.2404 90.1563L37.0657 85.9816Z" fill="#006D92"/>
<path opacity="0.16" d="M89.0505 75.4043H68.3982C67.2244 75.4043 66.0988 75.8706 65.2689 76.7005C64.4389 77.5304 63.9727 78.6561 63.9727 79.8298V100.482C63.9727 101.656 64.4389 102.781 65.2689 103.611C66.0988 104.441 67.2244 104.908 68.3982 104.908H89.0505C90.2242 104.908 91.3499 104.441 92.1798 103.611C93.0097 102.781 93.476 101.656 93.476 100.482V79.8298C93.476 78.6561 93.0097 77.5304 92.1798 76.7005C91.3499 75.8706 90.2242 75.4043 89.0505 75.4043Z" fill="#006D92"/>
<path fill-rule="evenodd" clip-rule="evenodd" d="M71.3502 91.6303H86.1018C86.4931 91.6303 86.8683 91.4749 87.1449 91.1982C87.4216 90.9216 87.577 90.5464 87.577 90.1551C87.577 89.7639 87.4216 89.3887 87.1449 89.112C86.8683 88.8354 86.4931 88.68 86.1018 88.68H71.3502C70.9589 88.68 70.5837 88.8354 70.3071 89.112C70.0304 89.3887 69.875 89.7639 69.875 90.1551C69.875 90.5464 70.0304 90.9216 70.3071 91.1982C70.5837 91.4749 70.9589 91.6303 71.3502 91.6303Z" fill="#006D92"/>
<path fill-rule="evenodd" clip-rule="evenodd" d="M79.5456 83.0279C79.303 82.8658 79.0178 82.7793 78.726 82.7793C78.3348 82.7793 77.9596 82.9347 77.6829 83.2114C77.4063 83.488 77.2508 83.8632 77.2508 84.2545C77.2508 84.5462 77.3374 84.8314 77.4994 85.074C77.6615 85.3166 77.8919 85.5057 78.1615 85.6173C78.431 85.729 78.7276 85.7582 79.0138 85.7013C79.3 85.6444 79.5628 85.5039 79.7691 85.2976C79.9754 85.0913 80.1159 84.8284 80.1728 84.5423C80.2297 84.2561 80.2005 83.9595 80.0889 83.6899C79.9772 83.4204 79.7882 83.19 79.5456 83.0279Z" fill="#006D92"/>
<path fill-rule="evenodd" clip-rule="evenodd" d="M77.6829 97.0989C77.9596 97.3756 78.3348 97.531 78.726 97.531C79.1172 97.531 79.4925 97.3756 79.7691 97.0989C80.0458 96.8223 80.2012 96.447 80.2012 96.0558C80.2012 95.6646 80.0458 95.2894 79.7691 95.0127C79.4925 94.7361 79.1172 94.5806 78.726 94.5806C78.3348 94.5806 77.9596 94.7361 77.6829 95.0127C77.4063 95.2894 77.2508 95.6646 77.2508 96.0558C77.2508 96.447 77.4063 96.8223 77.6829 97.0989Z" fill="#006D92"/>
</g>
<rect x="141.727" y="15.6602" width="113.588" height="113.588" rx="10" fill="white"/>
<rect x="142.227" y="16.1602" width="112.588" height="112.588" rx="9.5" stroke="black" stroke-opacity="0.05"/>
<g clip-path="url(#clip2_17521_103112)">
<rect opacity="0.16" x="166.062" y="40" width="64.9074" height="64.9074" rx="32.4537" fill="#006D92"/>
<path d="M185.896 65.2422L178.684 72.4541L185.896 79.6661" stroke="#006D92" stroke-width="3.60596" stroke-miterlimit="10" stroke-linecap="round" stroke-linejoin="round"/>
<path d="M211.137 65.2422L218.349 72.4541L211.137 79.6661" stroke="#006D92" stroke-width="3.60596" stroke-miterlimit="10" stroke-linecap="round" stroke-linejoin="round"/>
<path d="M202.122 58.0293L194.91 86.877" stroke="#006D92" stroke-width="3.60596" stroke-miterlimit="10" stroke-linecap="round" stroke-linejoin="round"/>
</g>
<rect x="279.227" y="15.6602" width="113.588" height="113.588" rx="10" fill="white"/>
<rect x="279.727" y="16.1602" width="112.588" height="112.588" rx="9.5" stroke="black" stroke-opacity="0.05"/>
<path opacity="0.16" d="M351.257 47.6641C351.121 48.1923 351.049 48.7461 351.049 49.3168C351.049 52.9679 354.009 55.9277 357.66 55.9277C358.23 55.9277 358.784 55.8555 359.312 55.7195V89.1906C358.784 89.0547 358.23 88.9824 357.66 88.9824C354.009 88.9824 351.049 91.9422 351.049 95.5933C351.049 96.164 351.121 96.7178 351.257 97.2461H317.786C317.922 96.7178 317.994 96.164 317.994 95.5933C317.994 91.9422 315.034 88.9824 311.383 88.9824C310.813 88.9824 310.259 89.0547 309.73 89.1906V55.7195C310.259 55.8555 310.813 55.9277 311.383 55.9277C315.034 55.9277 317.994 52.9679 317.994 49.3168C317.994 48.7461 317.922 48.1923 317.786 47.6641H351.257Z" fill="#006D92"/>
<path opacity="0.4" d="M351.102 94.767C351.068 95.0378 351.049 95.3134 351.049 95.5933C351.049 96.164 351.121 96.7178 351.257 97.2461H317.786C317.922 96.7178 317.994 96.164 317.994 95.5933C317.994 95.3134 317.975 95.0378 317.941 94.767H351.102ZM309.73 55.7195C310.259 55.8555 310.813 55.9277 311.383 55.9277C311.663 55.9277 311.939 55.9082 312.21 55.8745V89.0341C311.939 89.0003 311.663 88.9824 311.383 88.9824C310.813 88.9824 310.259 89.0547 309.73 89.1906V55.7195ZM359.312 89.1906C358.784 89.0547 358.23 88.9824 357.66 88.9824C357.38 88.9824 357.104 89.0003 356.833 89.0341V55.8745C357.104 55.9082 357.38 55.9277 357.66 55.9277C358.23 55.9277 358.784 55.8555 359.312 55.7195V89.1906ZM351.257 47.6641C351.121 48.1923 351.049 48.7461 351.049 49.3168C351.049 49.5967 351.068 49.8724 351.102 50.1432H317.941C317.975 49.8724 317.994 49.5967 317.994 49.3168C317.994 48.7461 317.922 48.1923 317.786 47.6641H351.257Z" fill="#006D92"/>
<path d="M362.62 49.3156C362.62 46.5773 360.4 44.3574 357.661 44.3574C354.923 44.3574 352.703 46.5773 352.703 49.3156C352.703 52.054 354.923 54.2738 357.661 54.2738C360.4 54.2738 362.62 52.054 362.62 49.3156Z" fill="#006D92"/>
<path d="M362.62 95.593C362.62 92.8546 360.4 90.6348 357.661 90.6348C354.923 90.6348 352.703 92.8546 352.703 95.593C352.703 98.3313 354.923 100.551 357.661 100.551C360.4 100.551 362.62 98.3313 362.62 95.593Z" fill="#006D92"/>
<path d="M316.342 95.593C316.342 92.8546 314.122 90.6348 311.384 90.6348C308.646 90.6348 306.426 92.8546 306.426 95.593C306.426 98.3313 308.646 100.551 311.384 100.551C314.122 100.551 316.342 98.3313 316.342 95.593Z" fill="#006D92"/>
<path d="M316.342 49.3156C316.342 46.5773 314.122 44.3574 311.384 44.3574C308.646 44.3574 306.426 46.5773 306.426 49.3156C306.426 52.054 308.646 54.2738 311.384 54.2738C314.122 54.2738 316.342 52.054 316.342 49.3156Z" fill="#006D92"/>
<rect x="279" y="147.184" width="113.588" height="113.588" rx="10" fill="white"/>
<rect x="279.5" y="147.684" width="112.588" height="112.588" rx="9.5" stroke="black" stroke-opacity="0.05"/>
<g clip-path="url(#clip3_17521_103112)">
<rect x="323.465" y="174.281" width="26.4437" height="19.8328" rx="1.65273" fill="#006D92"/>
<path opacity="0.16" fill-rule="evenodd" clip-rule="evenodd" d="M336.436 194.32C336.667 194.32 336.899 194.375 337.108 194.485C337.192 194.529 337.273 194.583 337.349 194.645C337.386 194.675 337.423 194.709 337.458 194.744L342.416 199.702C342.981 200.267 342.98 201.182 342.416 201.747C341.851 202.312 340.936 202.312 340.371 201.747L337.935 199.311C338.193 203.768 339.376 206.457 340.88 208.173C342.599 210.134 344.931 211.051 347.526 211.694C348.858 212.025 350.097 212.249 351.437 212.547C352.714 212.831 354.015 213.171 355.169 213.702C356.34 214.241 357.424 215.007 358.202 216.178C358.982 217.352 359.367 218.802 359.367 220.558C359.367 221.356 358.719 222.003 357.921 222.003C357.122 222.003 356.475 221.356 356.475 220.558C356.475 219.231 356.188 218.373 355.793 217.778C355.396 217.181 354.802 216.717 353.959 216.329C353.099 215.933 352.049 215.646 350.809 215.37C349.631 215.108 348.183 214.838 346.83 214.502C344.054 213.813 341.014 212.713 338.705 210.079C338.416 209.749 338.141 209.399 337.882 209.026V227.168C337.882 227.966 337.234 228.614 336.436 228.614C335.637 228.614 334.989 227.967 334.989 227.168V209.026C334.73 209.399 334.455 209.749 334.166 210.079C331.857 212.713 328.817 213.813 326.041 214.502C324.688 214.838 323.24 215.108 322.062 215.37C320.822 215.646 319.772 215.933 318.912 216.329C318.069 216.717 317.475 217.181 317.078 217.778C316.683 218.373 316.397 219.231 316.396 220.558C316.396 221.356 315.749 222.003 314.95 222.003C314.152 222.003 313.504 221.356 313.504 220.558C313.504 218.802 313.889 217.352 314.669 216.178C315.447 215.007 316.531 214.241 317.702 213.702C318.856 213.171 320.157 212.831 321.435 212.547C322.774 212.249 324.013 212.025 325.345 211.694C327.94 211.051 330.272 210.134 331.991 208.173C333.495 206.457 334.677 203.767 334.936 199.311L332.5 201.747C331.935 202.312 331.02 202.311 330.455 201.747C329.89 201.182 329.89 200.267 330.455 199.702L335.413 194.744C335.695 194.462 336.066 194.32 336.436 194.32Z" fill="#006D92"/>
<path d="M334.825 217.714C335.44 217.098 336.438 217.098 337.054 217.714L343.741 224.401C344.357 225.017 344.357 226.015 343.741 226.63L337.054 233.318C336.438 233.933 335.44 233.933 334.825 233.318L328.137 226.63C327.522 226.015 327.522 225.017 328.137 224.401L334.825 217.714Z" fill="#006D92"/>
<path d="M313.337 217.714C313.952 217.098 314.95 217.098 315.566 217.714L322.253 224.401C322.869 225.017 322.869 226.015 322.253 226.63L315.566 233.318C314.95 233.933 313.952 233.933 313.337 233.318L306.649 226.63C306.034 226.015 306.034 225.017 306.649 224.401L313.337 217.714Z" fill="#006D92"/>
<path d="M356.309 217.714C356.925 217.098 357.923 217.098 358.538 217.714L365.226 224.401C365.841 225.017 365.841 226.015 365.226 226.63L358.538 233.318C357.923 233.933 356.925 233.933 356.309 233.318L349.622 226.63C349.006 226.015 349.006 225.017 349.622 224.401L356.309 217.714Z" fill="#006D92"/>
</g>
<rect x="4" y="147.184" width="113.588" height="113.588" rx="10" fill="white"/>
<rect x="4.5" y="147.684" width="112.588" height="112.588" rx="9.5" stroke="black" stroke-opacity="0.05"/>
<g clip-path="url(#clip4_17521_103112)">
<path opacity="0.16" d="M57.1005 184.74L40.6602 201.181" stroke="#006D92" stroke-width="3.65341" stroke-linecap="round"/>
<path opacity="0.16" d="M64.4073 184.74L80.8477 201.181" stroke="#006D92" stroke-width="3.65341" stroke-linecap="round"/>
<path d="M36.0149 196.211C36.6953 195.531 37.7983 195.531 38.4787 196.211L45.8701 203.603C46.5504 204.283 46.5504 205.386 45.8701 206.067L38.4787 213.458C37.7983 214.138 36.6953 214.138 36.0149 213.458L28.6235 206.067C27.9432 205.386 27.9432 204.283 28.6235 203.603L36.0149 196.211Z" fill="#006D92"/>
<path d="M83.511 196.211C84.1914 195.531 85.2944 195.531 85.9748 196.211L93.3662 203.603C94.0465 204.283 94.0465 205.386 93.3662 206.067L85.9748 213.458C85.2944 214.138 84.1914 214.138 83.511 213.458L76.1196 206.067C75.4393 205.386 75.4393 204.283 76.1196 203.603L83.511 196.211Z" fill="#006D92"/>
<path d="M59.761 172.463C60.4414 171.783 61.5444 171.783 62.2248 172.463L69.6162 179.855C70.2965 180.535 70.2965 181.638 69.6162 182.319L62.2248 189.71C61.5444 190.39 60.4414 190.39 59.761 189.71L52.3696 182.319C51.6893 181.638 51.6893 180.535 52.3696 179.855L59.761 172.463Z" fill="#006D92"/>
<path fill-rule="evenodd" clip-rule="evenodd" d="M62.3369 208.605C62.7022 208.605 63.0677 208.85 63.1895 209.215L63.7373 210.858C63.7982 211.163 64.0422 211.407 64.3467 211.468C65.1988 211.711 65.9902 212.015 66.7207 212.441C66.9643 212.563 67.3297 212.563 67.5732 212.441L69.0957 211.711C69.461 211.528 69.8264 211.589 70.1309 211.894L72.2012 213.964C72.5056 214.207 72.5664 214.634 72.3838 214.999L71.6533 216.521C71.4706 216.826 71.5315 217.13 71.6533 217.374C72.0794 218.104 72.3834 218.896 72.627 219.748C72.7487 220.052 72.9319 220.236 73.2363 220.357L74.8799 220.905C75.2452 221.027 75.4892 221.393 75.4893 221.758V224.681C75.4892 225.046 75.2452 225.411 74.8799 225.533L73.2363 226.081C72.9319 226.142 72.6878 226.386 72.627 226.69C72.3835 227.543 72.0794 228.334 71.6533 229.064C71.5315 229.308 71.5316 229.673 71.6533 229.917L72.3232 231.439C72.5058 231.805 72.4449 232.17 72.1406 232.475L70.0703 234.545C69.8268 234.849 69.4004 234.91 69.0352 234.728L67.5127 233.997C67.2082 233.814 66.9037 233.875 66.6602 233.997C65.9295 234.423 65.1376 234.727 64.2852 234.971C63.9807 235.092 63.7985 235.276 63.6768 235.58L63.1289 237.224C63.0072 237.589 62.6416 237.833 62.2764 237.833H59.3535C58.9882 237.833 58.6228 237.589 58.501 237.224L57.9531 235.58C57.8922 235.276 57.6482 235.032 57.3438 234.971C56.4914 234.727 55.6994 234.423 54.9688 233.997C54.7253 233.875 54.3607 233.875 54.1172 233.997L52.5947 234.728C52.2294 234.91 51.864 234.849 51.5596 234.545L49.4893 232.475C49.1848 232.231 49.124 231.805 49.3066 231.439L50.0977 229.917C50.2803 229.613 50.2194 229.308 50.0977 229.064C49.6716 228.334 49.3675 227.543 49.124 226.69C49.0022 226.386 48.8191 226.203 48.5146 226.081L46.8711 225.533C46.5058 225.411 46.2617 225.046 46.2617 224.681V221.758C46.2618 221.393 46.5058 221.027 46.8711 220.905L48.5146 220.357C48.8191 220.297 49.0631 220.052 49.124 219.748C49.3675 218.896 49.6716 218.104 50.0977 217.374C50.2194 217.13 50.2194 216.765 50.0977 216.521L49.3066 214.999C49.1849 214.634 49.2457 214.208 49.4893 213.903L51.5596 211.833C51.864 211.589 52.29 211.529 52.6553 211.65L54.1777 212.441C54.4822 212.624 54.7867 212.563 55.0303 212.441C55.7607 212.015 56.5521 211.711 57.4043 211.468C57.7087 211.346 57.8919 211.163 58.0137 210.858L58.5615 209.215C58.6833 208.85 59.0488 208.606 59.4141 208.605H62.3369ZM64.2744 231.303H64.2754H64.2744ZM60.876 215.912C56.8405 215.912 53.5684 219.184 53.5684 223.22C53.5686 227.255 56.8407 230.526 60.876 230.526C64.9111 230.526 68.1824 227.255 68.1826 223.22C68.1826 219.184 64.9112 215.912 60.876 215.912Z" fill="#006D92"/>
</g>
<rect x="141.5" y="147.184" width="113.588" height="113.588" rx="10" fill="white"/>
<rect x="142" y="147.684" width="112.588" height="112.588" rx="9.5" stroke="black" stroke-opacity="0.05"/>
<g clip-path="url(#clip5_17521_103112)">
<path fill-rule="evenodd" clip-rule="evenodd" d="M199.251 189.758C199.616 189.758 199.982 190.002 200.104 190.367L200.651 192.011C200.712 192.315 200.956 192.559 201.261 192.62C202.113 192.864 202.904 193.168 203.635 193.594C203.878 193.716 204.244 193.715 204.487 193.594L206.01 192.863C206.375 192.681 206.74 192.741 207.045 193.046L209.115 195.116C209.42 195.36 209.481 195.786 209.298 196.151L208.567 197.674C208.385 197.978 208.446 198.283 208.567 198.526C208.993 199.257 209.298 200.048 209.541 200.9C209.663 201.205 209.846 201.388 210.15 201.51L211.794 202.058C212.159 202.179 212.403 202.545 212.403 202.91V205.833C212.403 206.198 212.159 206.564 211.794 206.686L210.15 207.233C209.846 207.294 209.602 207.537 209.541 207.842C209.297 208.694 208.994 209.486 208.567 210.217C208.446 210.46 208.446 210.826 208.567 211.069L209.237 212.592C209.42 212.957 209.359 213.323 209.055 213.627L206.984 215.697C206.741 216.002 206.314 216.062 205.949 215.88L204.427 215.149C204.122 214.967 203.818 215.028 203.574 215.149C202.844 215.576 202.052 215.879 201.199 216.123C200.895 216.245 200.713 216.428 200.591 216.732L200.043 218.376C199.921 218.741 199.556 218.985 199.19 218.985H196.268C195.902 218.985 195.537 218.741 195.415 218.376L194.867 216.732C194.806 216.428 194.562 216.184 194.258 216.123C193.405 215.879 192.613 215.576 191.883 215.149C191.639 215.028 191.275 215.028 191.031 215.149L189.509 215.88C189.144 216.063 188.778 216.002 188.474 215.697L186.403 213.627C186.099 213.383 186.038 212.957 186.221 212.592L187.012 211.069C187.194 210.765 187.133 210.46 187.012 210.217C186.586 209.486 186.282 208.694 186.038 207.842C185.916 207.537 185.733 207.355 185.429 207.233L183.785 206.686C183.42 206.564 183.176 206.198 183.176 205.833V202.91C183.176 202.545 183.42 202.179 183.785 202.058L185.429 201.51C185.733 201.449 185.977 201.205 186.038 200.9C186.282 200.048 186.586 199.257 187.012 198.526C187.133 198.283 187.133 197.917 187.012 197.674L186.221 196.151C186.099 195.786 186.16 195.36 186.403 195.056L188.474 192.985C188.778 192.742 189.204 192.681 189.569 192.803L191.092 193.594C191.396 193.776 191.701 193.716 191.944 193.594C192.675 193.168 193.466 192.864 194.318 192.62C194.623 192.498 194.806 192.315 194.928 192.011L195.476 190.367C195.597 190.002 195.963 189.758 196.328 189.758H199.251ZM197.79 197.064C193.755 197.064 190.483 200.336 190.482 204.371C190.482 208.407 193.755 211.679 197.79 211.679C201.825 211.678 205.097 208.406 205.097 204.371C205.096 200.336 201.825 197.065 197.79 197.064Z" fill="#006D92"/>
<circle opacity="0.16" cx="197.67" cy="204.252" r="27.4006" stroke="#006D92" stroke-width="3.65341"/>
<circle cx="197.672" cy="176.851" r="5.48012" fill="#006D92"/>
<circle cx="170.269" cy="204.252" r="5.48012" fill="#006D92"/>
<circle cx="197.672" cy="231.652" r="5.48012" fill="#006D92"/>
<circle cx="225.07" cy="204.252" r="5.48012" fill="#006D92"/>
</g>
</g>
</g>
<defs>
<filter id="filter0_ddd_17521_103112" x="-3" y="13.6602" width="402.812" height="266.111" filterUnits="userSpaceOnUse" color-interpolation-filters="sRGB">
<feFlood flood-opacity="0" result="BackgroundImageFix"/>
<feColorMatrix in="SourceAlpha" type="matrix" values="0 0 0 0 0 0 0 0 0 0 0 0 0 0 0 0 0 0 127 0" result="hardAlpha"/>
<feOffset dy="1"/>
<feGaussianBlur stdDeviation="1.5"/>
<feColorMatrix type="matrix" values="0 0 0 0 0 0 0 0 0 0 0 0 0 0 0 0 0 0 0.03 0"/>
<feBlend mode="normal" in2="BackgroundImageFix" result="effect1_dropShadow_17521_103112"/>
<feColorMatrix in="SourceAlpha" type="matrix" values="0 0 0 0 0 0 0 0 0 0 0 0 0 0 0 0 0 0 127 0" result="hardAlpha"/>
<feOffset dy="5"/>
<feGaussianBlur stdDeviation="2.5"/>
<feColorMatrix type="matrix" values="0 0 0 0 0 0 0 0 0 0 0 0 0 0 0 0 0 0 0.03 0"/>
<feBlend mode="normal" in2="effect1_dropShadow_17521_103112" result="effect2_dropShadow_17521_103112"/>
<feColorMatrix in="SourceAlpha" type="matrix" values="0 0 0 0 0 0 0 0 0 0 0 0 0 0 0 0 0 0 127 0" result="hardAlpha"/>
<feOffset dy="12"/>
<feGaussianBlur stdDeviation="3.5"/>
<feColorMatrix type="matrix" values="0 0 0 0 0 0 0 0 0 0 0 0 0 0 0 0 0 0 0.02 0"/>
<feBlend mode="normal" in2="effect2_dropShadow_17521_103112" result="effect3_dropShadow_17521_103112"/>
<feBlend mode="normal" in="SourceGraphic" in2="effect3_dropShadow_17521_103112" result="shape"/>
</filter>
<clipPath id="clip0_17521_103112">
<rect width="397" height="276" fill="white"/>
</clipPath>
<clipPath id="clip1_17521_103112">
<rect width="64.9074" height="64.9074" fill="white" transform="translate(28.5703 40)"/>
</clipPath>
<clipPath id="clip2_17521_103112">
<rect width="64.9074" height="64.9074" fill="white" transform="translate(166.062 40)"/>
</clipPath>
<clipPath id="clip3_17521_103112">
<rect width="59.4984" height="59.4984" fill="white" transform="translate(306.688 174.281)"/>
</clipPath>
<clipPath id="clip4_17521_103112">
<rect width="65.7614" height="65.7614" fill="white" transform="translate(27.875 171.953)"/>
</clipPath>
<clipPath id="clip5_17521_103112">
<rect width="65.7614" height="65.7614" fill="white" transform="translate(164.789 171.371)"/>
</clipPath>
</defs>
</svg>
