<svg width="510" height="276" viewBox="0 0 510 276" fill="none" xmlns="http://www.w3.org/2000/svg">
<g clip-path="url(#clip0_17223_45963)">
<mask id="mask0_17223_45963" style="mask-type:alpha" maskUnits="userSpaceOnUse" x="0" y="0" width="510" height="276">
<rect width="510" height="276" fill="url(#paint0_linear_17223_45963)"/>
</mask>
<g mask="url(#mask0_17223_45963)">
<g filter="url(#filter0_ddd_17223_45963)">
<rect x="176.83" y="14" width="332.683" height="248" rx="9.07317" fill="white"/>
<rect x="176.33" y="13.5" width="333.683" height="249" rx="9.57317" stroke="black" stroke-opacity="0.05"/>
<path d="M200.229 58.3223V64.791H199.411V59.343L197.763 59.9439V59.206L200.101 58.3223H200.229ZM206.973 61.0618V62.0427C206.973 62.57 206.926 63.0148 206.831 63.3771C206.737 63.7394 206.602 64.031 206.425 64.252C206.248 64.4729 206.035 64.6334 205.784 64.7336C205.537 64.8308 205.257 64.8794 204.945 64.8794C204.697 64.8794 204.469 64.8485 204.26 64.7866C204.051 64.7247 203.862 64.6261 203.694 64.4906C203.529 64.3521 203.388 64.1724 203.27 63.9515C203.152 63.7306 203.062 63.4625 203.001 63.1473C202.939 62.8321 202.908 62.4639 202.908 62.0427V61.0618C202.908 60.5345 202.955 60.0927 203.049 59.7362C203.146 59.3798 203.283 59.0941 203.46 58.879C203.637 58.6611 203.849 58.5049 204.096 58.4107C204.347 58.3164 204.627 58.2693 204.936 58.2693C205.186 58.2693 205.416 58.3002 205.625 58.3621C205.837 58.421 206.026 58.5167 206.191 58.6493C206.356 58.7789 206.496 58.9527 206.61 59.1707C206.728 59.3857 206.818 59.6493 206.88 59.9616C206.942 60.2738 206.973 60.6406 206.973 61.0618ZM206.151 62.1753V60.9248C206.151 60.6361 206.133 60.3828 206.098 60.1648C206.065 59.9439 206.017 59.7554 205.952 59.5993C205.887 59.4431 205.805 59.3165 205.705 59.2193C205.607 59.1221 205.494 59.0514 205.364 59.0072C205.238 58.96 205.095 58.9365 204.936 58.9365C204.741 58.9365 204.569 58.9733 204.419 59.0469C204.269 59.1176 204.142 59.231 204.039 59.3872C203.939 59.5433 203.862 59.748 203.809 60.0013C203.756 60.2547 203.73 60.5625 203.73 60.9248V62.1753C203.73 62.4639 203.746 62.7187 203.778 62.9397C203.814 63.1606 203.865 63.3521 203.933 63.5141C204.001 63.6731 204.083 63.8042 204.18 63.9073C204.277 64.0104 204.389 64.087 204.516 64.1371C204.646 64.1842 204.789 64.2078 204.945 64.2078C205.145 64.2078 205.32 64.1695 205.47 64.0929C205.621 64.0163 205.746 63.897 205.846 63.735C205.949 63.57 206.026 63.3594 206.076 63.1031C206.126 62.8439 206.151 62.5346 206.151 62.1753ZM212.365 61.0618V62.0427C212.365 62.57 212.317 63.0148 212.223 63.3771C212.129 63.7394 211.993 64.031 211.817 64.252C211.64 64.4729 211.426 64.6334 211.176 64.7336C210.929 64.8308 210.649 64.8794 210.336 64.8794C210.089 64.8794 209.861 64.8485 209.652 64.7866C209.442 64.7247 209.254 64.6261 209.086 64.4906C208.921 64.3521 208.78 64.1724 208.662 63.9515C208.544 63.7306 208.454 63.4625 208.392 63.1473C208.33 62.8321 208.299 62.4639 208.299 62.0427V61.0618C208.299 60.5345 208.347 60.0927 208.441 59.7362C208.538 59.3798 208.675 59.0941 208.852 58.879C209.029 58.6611 209.241 58.5049 209.488 58.4107C209.738 58.3164 210.018 58.2693 210.328 58.2693C210.578 58.2693 210.808 58.3002 211.017 58.3621C211.229 58.421 211.417 58.5167 211.582 58.6493C211.747 58.7789 211.887 58.9527 212.002 59.1707C212.12 59.3857 212.21 59.6493 212.272 59.9616C212.334 60.2738 212.365 60.6406 212.365 61.0618ZM211.543 62.1753V60.9248C211.543 60.6361 211.525 60.3828 211.49 60.1648C211.457 59.9439 211.409 59.7554 211.344 59.5993C211.279 59.4431 211.197 59.3165 211.096 59.2193C210.999 59.1221 210.886 59.0514 210.756 59.0072C210.63 58.96 210.487 58.9365 210.328 58.9365C210.133 58.9365 209.961 58.9733 209.811 59.0469C209.66 59.1176 209.534 59.231 209.431 59.3872C209.33 59.5433 209.254 59.748 209.201 60.0013C209.148 60.2547 209.121 60.5625 209.121 60.9248V62.1753C209.121 62.4639 209.138 62.7187 209.17 62.9397C209.205 63.1606 209.257 63.3521 209.325 63.5141C209.392 63.6731 209.475 63.8042 209.572 63.9073C209.669 64.0104 209.781 64.087 209.908 64.1371C210.037 64.1842 210.18 64.2078 210.336 64.2078C210.537 64.2078 210.712 64.1695 210.862 64.0929C211.012 64.0163 211.138 63.897 211.238 63.735C211.341 63.57 211.417 63.3594 211.468 63.1031C211.518 62.8439 211.543 62.5346 211.543 62.1753ZM213.647 59.9351V59.5948C213.647 59.3503 213.7 59.1279 213.806 58.9276C213.912 58.7273 214.064 58.5668 214.261 58.446C214.459 58.3252 214.693 58.2649 214.964 58.2649C215.241 58.2649 215.476 58.3252 215.671 58.446C215.868 58.5668 216.02 58.7273 216.126 58.9276C216.232 59.1279 216.285 59.3503 216.285 59.5948V59.9351C216.285 60.1737 216.232 60.3931 216.126 60.5934C216.023 60.7937 215.873 60.9543 215.675 61.075C215.481 61.1958 215.247 61.2562 214.973 61.2562C214.699 61.2562 214.462 61.1958 214.261 61.075C214.064 60.9543 213.912 60.7937 213.806 60.5934C213.7 60.3931 213.647 60.1737 213.647 59.9351ZM214.261 59.5948V59.9351C214.261 60.0706 214.286 60.1987 214.336 60.3195C214.389 60.4402 214.469 60.5389 214.575 60.6155C214.681 60.6892 214.814 60.726 214.973 60.726C215.132 60.726 215.263 60.6892 215.366 60.6155C215.469 60.5389 215.546 60.4402 215.596 60.3195C215.646 60.1987 215.671 60.0706 215.671 59.9351V59.5948C215.671 59.4564 215.644 59.3268 215.591 59.206C215.541 59.0823 215.463 58.9836 215.357 58.91C215.254 58.8334 215.123 58.7951 214.964 58.7951C214.808 58.7951 214.677 58.8334 214.571 58.91C214.467 58.9836 214.389 59.0823 214.336 59.206C214.286 59.3268 214.261 59.4564 214.261 59.5948ZM216.78 63.5582V63.2136C216.78 62.9721 216.833 62.7511 216.939 62.5508C217.045 62.3505 217.197 62.19 217.394 62.0692C217.591 61.9484 217.826 61.888 218.097 61.888C218.373 61.888 218.609 61.9484 218.803 62.0692C219.001 62.19 219.153 62.3505 219.259 62.5508C219.365 62.7511 219.418 62.9721 219.418 63.2136V63.5582C219.418 63.7998 219.365 64.0207 219.259 64.221C219.156 64.4213 219.005 64.5819 218.808 64.7026C218.613 64.8234 218.379 64.8838 218.105 64.8838C217.831 64.8838 217.596 64.8234 217.398 64.7026C217.201 64.5819 217.048 64.4213 216.939 64.221C216.833 64.0207 216.78 63.7998 216.78 63.5582ZM217.394 63.2136V63.5582C217.394 63.6937 217.419 63.8234 217.469 63.9471C217.522 64.0679 217.602 64.1665 217.708 64.2431C217.814 64.3168 217.946 64.3536 218.105 64.3536C218.264 64.3536 218.396 64.3168 218.499 64.2431C218.605 64.1665 218.683 64.0679 218.733 63.9471C218.783 63.8263 218.808 63.6967 218.808 63.5582V63.2136C218.808 63.0752 218.781 62.9455 218.728 62.8248C218.678 62.704 218.6 62.6068 218.494 62.5332C218.391 62.4566 218.259 62.4183 218.097 62.4183C217.94 62.4183 217.809 62.4566 217.703 62.5332C217.6 62.6068 217.522 62.704 217.469 62.8248C217.419 62.9455 217.394 63.0752 217.394 63.2136ZM218.3 59.2723L215.158 64.3006L214.699 64.0089L217.84 58.9807L218.3 59.2723Z" fill="black" fill-opacity="0.54"/>
<path d="M207.028 95.8743C207.028 96.2661 206.937 96.599 206.754 96.8729C206.575 97.1439 206.33 97.3501 206.021 97.4915C205.715 97.6329 205.368 97.7036 204.983 97.7036C204.597 97.7036 204.249 97.6329 203.94 97.4915C203.631 97.3501 203.386 97.1439 203.206 96.8729C203.027 96.599 202.937 96.2661 202.937 95.8743C202.937 95.6181 202.985 95.3839 203.083 95.1718C203.183 94.9568 203.323 94.7697 203.502 94.6106C203.685 94.4516 203.9 94.3293 204.147 94.2439C204.398 94.1555 204.673 94.1113 204.974 94.1113C205.368 94.1113 205.72 94.1879 206.03 94.3411C206.339 94.4913 206.582 94.699 206.759 94.9641C206.939 95.2292 207.028 95.5326 207.028 95.8743ZM206.206 95.8567C206.206 95.6181 206.155 95.4074 206.052 95.2248C205.949 95.0392 205.804 94.8949 205.619 94.7918C205.433 94.6887 205.218 94.6372 204.974 94.6372C204.723 94.6372 204.507 94.6887 204.324 94.7918C204.145 94.8949 204.005 95.0392 203.904 95.2248C203.804 95.4074 203.754 95.6181 203.754 95.8567C203.754 96.1041 203.803 96.3162 203.9 96.4929C204 96.6667 204.142 96.8008 204.324 96.895C204.51 96.9863 204.729 97.032 204.983 97.032C205.236 97.032 205.454 96.9863 205.637 96.895C205.819 96.8008 205.959 96.6667 206.056 96.4929C206.156 96.3162 206.206 96.1041 206.206 95.8567ZM206.878 92.8565C206.878 93.1687 206.796 93.45 206.631 93.7004C206.466 93.9508 206.24 94.1482 205.955 94.2925C205.669 94.4368 205.345 94.509 204.983 94.509C204.614 94.509 204.286 94.4368 203.997 94.2925C203.712 94.1482 203.488 93.9508 203.326 93.7004C203.164 93.45 203.083 93.1687 203.083 92.8565C203.083 92.4824 203.164 92.1643 203.326 91.9021C203.491 91.6399 203.716 91.4396 204.002 91.3012C204.287 91.1627 204.613 91.0935 204.978 91.0935C205.346 91.0935 205.673 91.1627 205.959 91.3012C206.245 91.4396 206.469 91.6399 206.631 91.9021C206.796 92.1643 206.878 92.4824 206.878 92.8565ZM206.061 92.8697C206.061 92.6547 206.015 92.4647 205.924 92.2998C205.832 92.1348 205.706 92.0052 205.544 91.9109C205.382 91.8137 205.193 91.7651 204.978 91.7651C204.763 91.7651 204.575 91.8108 204.413 91.9021C204.254 91.9905 204.128 92.1171 204.037 92.2821C203.949 92.447 203.904 92.6429 203.904 92.8697C203.904 93.0907 203.949 93.2836 204.037 93.4486C204.128 93.6135 204.255 93.7417 204.417 93.833C204.579 93.9243 204.768 93.97 204.983 93.97C205.198 93.97 205.385 93.9243 205.544 93.833C205.706 93.7417 205.832 93.6135 205.924 93.4486C206.015 93.2836 206.061 93.0907 206.061 92.8697ZM212.402 93.886V94.8669C212.402 95.3942 212.355 95.839 212.261 96.2013C212.167 96.5636 212.031 96.8552 211.855 97.0762C211.678 97.2971 211.464 97.4576 211.214 97.5578C210.966 97.655 210.687 97.7036 210.374 97.7036C210.127 97.7036 209.899 97.6727 209.689 97.6108C209.48 97.549 209.292 97.4503 209.124 97.3148C208.959 97.1763 208.818 96.9966 208.7 96.7757C208.582 96.5548 208.492 96.2867 208.43 95.9715C208.368 95.6564 208.337 95.2881 208.337 94.8669V93.886C208.337 93.3587 208.385 92.9169 208.479 92.5604C208.576 92.204 208.713 91.9183 208.89 91.7033C209.066 91.4853 209.279 91.3292 209.526 91.2349C209.776 91.1406 210.056 91.0935 210.366 91.0935C210.616 91.0935 210.846 91.1244 211.055 91.1863C211.267 91.2452 211.455 91.3409 211.62 91.4735C211.785 91.6031 211.925 91.7769 212.04 91.9949C212.158 92.2099 212.248 92.4735 212.31 92.7858C212.372 93.098 212.402 93.4648 212.402 93.886ZM211.581 94.9995V93.749C211.581 93.4604 211.563 93.207 211.528 92.989C211.495 92.7681 211.447 92.5796 211.382 92.4235C211.317 92.2674 211.234 92.1407 211.134 92.0435C211.037 91.9463 210.924 91.8756 210.794 91.8314C210.667 91.7843 210.525 91.7607 210.366 91.7607C210.171 91.7607 209.999 91.7975 209.849 91.8712C209.698 91.9419 209.572 92.0553 209.469 92.2114C209.368 92.3675 209.292 92.5722 209.239 92.8256C209.186 93.0789 209.159 93.3867 209.159 93.749V94.9995C209.159 95.2881 209.175 95.5429 209.208 95.7639C209.243 95.9848 209.295 96.1763 209.363 96.3383C209.43 96.4973 209.513 96.6284 209.61 96.7315C209.707 96.8346 209.819 96.9112 209.946 96.9613C210.075 97.0084 210.218 97.032 210.374 97.032C210.575 97.032 210.75 96.9937 210.9 96.9171C211.05 96.8405 211.176 96.7212 211.276 96.5592C211.379 96.3942 211.455 96.1836 211.505 95.9274C211.556 95.6681 211.581 95.3588 211.581 94.9995ZM213.685 92.7593V92.4191C213.685 92.1746 213.738 91.9522 213.844 91.7519C213.95 91.5515 214.102 91.391 214.299 91.2702C214.497 91.1495 214.731 91.0891 215.002 91.0891C215.279 91.0891 215.514 91.1495 215.709 91.2702C215.906 91.391 216.058 91.5515 216.164 91.7519C216.27 91.9522 216.323 92.1746 216.323 92.4191V92.7593C216.323 92.9979 216.27 93.2173 216.164 93.4176C216.061 93.6179 215.91 93.7785 215.713 93.8993C215.519 94.02 215.284 94.0804 215.011 94.0804C214.737 94.0804 214.499 94.02 214.299 93.8993C214.102 93.7785 213.95 93.6179 213.844 93.4176C213.738 93.2173 213.685 92.9979 213.685 92.7593ZM214.299 92.4191V92.7593C214.299 92.8948 214.324 93.0229 214.374 93.1437C214.427 93.2645 214.507 93.3631 214.613 93.4397C214.719 93.5134 214.851 93.5502 215.011 93.5502C215.17 93.5502 215.301 93.5134 215.404 93.4397C215.507 93.3631 215.583 93.2645 215.634 93.1437C215.684 93.0229 215.709 92.8948 215.709 92.7593V92.4191C215.709 92.2806 215.682 92.151 215.629 92.0302C215.579 91.9065 215.501 91.8078 215.395 91.7342C215.292 91.6576 215.161 91.6193 215.002 91.6193C214.846 91.6193 214.715 91.6576 214.608 91.7342C214.505 91.8078 214.427 91.9065 214.374 92.0302C214.324 92.151 214.299 92.2806 214.299 92.4191ZM216.818 96.3825V96.0378C216.818 95.7963 216.871 95.5754 216.977 95.375C217.083 95.1747 217.235 95.0142 217.432 94.8934C217.629 94.7727 217.863 94.7123 218.134 94.7123C218.411 94.7123 218.647 94.7727 218.841 94.8934C219.039 95.0142 219.19 95.1747 219.297 95.375C219.403 95.5754 219.456 95.7963 219.456 96.0378V96.3825C219.456 96.624 219.403 96.8449 219.297 97.0452C219.193 97.2456 219.043 97.4061 218.846 97.5269C218.651 97.6476 218.417 97.708 218.143 97.708C217.869 97.708 217.634 97.6476 217.436 97.5269C217.239 97.4061 217.086 97.2456 216.977 97.0452C216.871 96.8449 216.818 96.624 216.818 96.3825ZM217.432 96.0378V96.3825C217.432 96.518 217.457 96.6476 217.507 96.7713C217.56 96.8921 217.64 96.9907 217.746 97.0673C217.852 97.141 217.984 97.1778 218.143 97.1778C218.302 97.1778 218.433 97.141 218.537 97.0673C218.643 96.9907 218.721 96.8921 218.771 96.7713C218.821 96.6505 218.846 96.5209 218.846 96.3825V96.0378C218.846 95.8994 218.819 95.7698 218.766 95.649C218.716 95.5282 218.638 95.431 218.532 95.3574C218.429 95.2808 218.296 95.2425 218.134 95.2425C217.978 95.2425 217.847 95.2808 217.741 95.3574C217.638 95.431 217.56 95.5282 217.507 95.649C217.457 95.7698 217.432 95.8994 217.432 96.0378ZM218.338 92.0965L215.196 97.1248L214.737 96.8332L217.878 91.8049L218.338 92.0965Z" fill="black" fill-opacity="0.54"/>
<path d="M206.109 128.281H206.18V128.975H206.109C205.676 128.975 205.314 129.046 205.022 129.187C204.731 129.326 204.499 129.513 204.329 129.748C204.158 129.981 204.034 130.243 203.957 130.535C203.884 130.826 203.847 131.123 203.847 131.423V132.369C203.847 132.654 203.881 132.908 203.949 133.129C204.016 133.347 204.109 133.531 204.227 133.681C204.345 133.831 204.477 133.945 204.625 134.021C204.775 134.098 204.931 134.136 205.093 134.136C205.282 134.136 205.449 134.101 205.597 134.03C205.744 133.956 205.868 133.855 205.968 133.725C206.071 133.592 206.149 133.436 206.202 133.257C206.255 133.077 206.282 132.88 206.282 132.665C206.282 132.473 206.258 132.289 206.211 132.112C206.164 131.933 206.092 131.774 205.994 131.635C205.897 131.494 205.775 131.383 205.628 131.304C205.483 131.221 205.311 131.18 205.111 131.18C204.884 131.18 204.672 131.236 204.474 131.348C204.28 131.457 204.119 131.601 203.993 131.781C203.869 131.958 203.798 132.151 203.781 132.36L203.348 132.355C203.389 132.025 203.466 131.744 203.577 131.511C203.692 131.276 203.834 131.084 204.002 130.937C204.173 130.787 204.363 130.678 204.572 130.61C204.784 130.539 205.008 130.504 205.243 130.504C205.564 130.504 205.841 130.564 206.074 130.685C206.307 130.806 206.498 130.968 206.648 131.171C206.799 131.371 206.909 131.598 206.98 131.852C207.053 132.102 207.09 132.36 207.09 132.625C207.09 132.928 207.047 133.212 206.962 133.478C206.877 133.743 206.749 133.975 206.578 134.176C206.41 134.376 206.202 134.532 205.955 134.644C205.707 134.756 205.42 134.812 205.093 134.812C204.745 134.812 204.442 134.741 204.183 134.6C203.924 134.456 203.709 134.264 203.538 134.026C203.367 133.787 203.239 133.522 203.153 133.23C203.068 132.939 203.025 132.643 203.025 132.342V131.958C203.025 131.504 203.071 131.059 203.162 130.623C203.253 130.187 203.411 129.793 203.635 129.439C203.862 129.086 204.175 128.804 204.576 128.595C204.977 128.386 205.488 128.281 206.109 128.281ZM212.402 130.994V131.975C212.402 132.503 212.355 132.947 212.261 133.31C212.167 133.672 212.031 133.964 211.855 134.185C211.678 134.405 211.464 134.566 211.214 134.666C210.966 134.763 210.687 134.812 210.374 134.812C210.127 134.812 209.899 134.781 209.689 134.719C209.48 134.657 209.292 134.559 209.124 134.423C208.959 134.285 208.818 134.105 208.7 133.884C208.582 133.663 208.492 133.395 208.43 133.08C208.368 132.765 208.337 132.397 208.337 131.975V130.994C208.337 130.467 208.385 130.025 208.479 129.669C208.576 129.312 208.713 129.027 208.89 128.812C209.066 128.594 209.279 128.438 209.526 128.343C209.776 128.249 210.056 128.202 210.366 128.202C210.616 128.202 210.846 128.233 211.055 128.295C211.267 128.354 211.455 128.449 211.62 128.582C211.785 128.711 211.925 128.885 212.04 129.103C212.158 129.318 212.248 129.582 212.31 129.894C212.372 130.206 212.402 130.573 212.402 130.994ZM211.581 132.108V130.857C211.581 130.569 211.563 130.315 211.528 130.097C211.495 129.877 211.447 129.688 211.382 129.532C211.317 129.376 211.234 129.249 211.134 129.152C211.037 129.055 210.924 128.984 210.794 128.94C210.667 128.893 210.525 128.869 210.366 128.869C210.171 128.869 209.999 128.906 209.849 128.98C209.698 129.05 209.572 129.164 209.469 129.32C209.368 129.476 209.292 129.681 209.239 129.934C209.186 130.187 209.159 130.495 209.159 130.857V132.108C209.159 132.397 209.175 132.651 209.208 132.872C209.243 133.093 209.295 133.285 209.363 133.447C209.43 133.606 209.513 133.737 209.61 133.84C209.707 133.943 209.819 134.02 209.946 134.07C210.075 134.117 210.218 134.14 210.374 134.14C210.575 134.14 210.75 134.102 210.9 134.026C211.05 133.949 211.176 133.83 211.276 133.668C211.379 133.503 211.455 133.292 211.505 133.036C211.556 132.777 211.581 132.467 211.581 132.108ZM213.685 129.868V129.527C213.685 129.283 213.738 129.061 213.844 128.86C213.95 128.66 214.102 128.499 214.299 128.379C214.497 128.258 214.731 128.197 215.002 128.197C215.279 128.197 215.514 128.258 215.709 128.379C215.906 128.499 216.058 128.66 216.164 128.86C216.27 129.061 216.323 129.283 216.323 129.527V129.868C216.323 130.106 216.27 130.326 216.164 130.526C216.061 130.726 215.91 130.887 215.713 131.008C215.519 131.128 215.284 131.189 215.011 131.189C214.737 131.189 214.499 131.128 214.299 131.008C214.102 130.887 213.95 130.726 213.844 130.526C213.738 130.326 213.685 130.106 213.685 129.868ZM214.299 129.527V129.868C214.299 130.003 214.324 130.131 214.374 130.252C214.427 130.373 214.507 130.472 214.613 130.548C214.719 130.622 214.851 130.659 215.011 130.659C215.17 130.659 215.301 130.622 215.404 130.548C215.507 130.472 215.583 130.373 215.634 130.252C215.684 130.131 215.709 130.003 215.709 129.868V129.527C215.709 129.389 215.682 129.259 215.629 129.139C215.579 129.015 215.501 128.916 215.395 128.843C215.292 128.766 215.161 128.728 215.002 128.728C214.846 128.728 214.715 128.766 214.608 128.843C214.505 128.916 214.427 129.015 214.374 129.139C214.324 129.259 214.299 129.389 214.299 129.527ZM216.818 133.491V133.146C216.818 132.905 216.871 132.684 216.977 132.483C217.083 132.283 217.235 132.123 217.432 132.002C217.629 131.881 217.863 131.821 218.134 131.821C218.411 131.821 218.647 131.881 218.841 132.002C219.039 132.123 219.19 132.283 219.297 132.483C219.403 132.684 219.456 132.905 219.456 133.146V133.491C219.456 133.732 219.403 133.953 219.297 134.154C219.193 134.354 219.043 134.514 218.846 134.635C218.651 134.756 218.417 134.816 218.143 134.816C217.869 134.816 217.634 134.756 217.436 134.635C217.239 134.514 217.086 134.354 216.977 134.154C216.871 133.953 216.818 133.732 216.818 133.491ZM217.432 133.146V133.491C217.432 133.626 217.457 133.756 217.507 133.88C217.56 134 217.64 134.099 217.746 134.176C217.852 134.249 217.984 134.286 218.143 134.286C218.302 134.286 218.433 134.249 218.537 134.176C218.643 134.099 218.721 134 218.771 133.88C218.821 133.759 218.846 133.629 218.846 133.491V133.146C218.846 133.008 218.819 132.878 218.766 132.757C218.716 132.637 218.638 132.539 218.532 132.466C218.429 132.389 218.296 132.351 218.134 132.351C217.978 132.351 217.847 132.389 217.741 132.466C217.638 132.539 217.56 132.637 217.507 132.757C217.457 132.878 217.432 133.008 217.432 133.146ZM218.338 129.205L215.196 134.233L214.737 133.942L217.878 128.913L218.338 129.205Z" fill="black" fill-opacity="0.54"/>
<path d="M207.32 169.668V170.34H202.672V169.858L205.553 165.4H206.22L205.504 166.69L203.6 169.668H207.32ZM206.423 165.4V171.833H205.606V165.4H206.423ZM212.402 168.104V169.085C212.402 169.612 212.355 170.057 212.261 170.419C212.167 170.781 212.031 171.073 211.855 171.294C211.678 171.515 211.464 171.675 211.214 171.776C210.966 171.873 210.687 171.921 210.374 171.921C210.127 171.921 209.899 171.89 209.689 171.829C209.48 171.767 209.292 171.668 209.124 171.533C208.959 171.394 208.818 171.214 208.7 170.993C208.582 170.773 208.492 170.505 208.43 170.189C208.368 169.874 208.337 169.506 208.337 169.085V168.104C208.337 167.576 208.385 167.135 208.479 166.778C208.576 166.422 208.713 166.136 208.89 165.921C209.066 165.703 209.279 165.547 209.526 165.453C209.776 165.358 210.056 165.311 210.366 165.311C210.616 165.311 210.846 165.342 211.055 165.404C211.267 165.463 211.455 165.559 211.62 165.691C211.785 165.821 211.925 165.995 212.04 166.213C212.158 166.428 212.248 166.691 212.31 167.004C212.372 167.316 212.402 167.683 212.402 168.104ZM211.581 169.217V167.967C211.581 167.678 211.563 167.425 211.528 167.207C211.495 166.986 211.447 166.797 211.382 166.641C211.317 166.485 211.234 166.358 211.134 166.261C211.037 166.164 210.924 166.093 210.794 166.049C210.667 166.002 210.525 165.978 210.366 165.978C210.171 165.978 209.999 166.015 209.849 166.089C209.698 166.16 209.572 166.273 209.469 166.429C209.368 166.585 209.292 166.79 209.239 167.043C209.186 167.297 209.159 167.604 209.159 167.967V169.217C209.159 169.506 209.175 169.761 209.208 169.982C209.243 170.203 209.295 170.394 209.363 170.556C209.43 170.715 209.513 170.846 209.61 170.949C209.707 171.052 209.819 171.129 209.946 171.179C210.075 171.226 210.218 171.25 210.374 171.25C210.575 171.25 210.75 171.211 210.9 171.135C211.05 171.058 211.176 170.939 211.276 170.777C211.379 170.612 211.455 170.401 211.505 170.145C211.556 169.886 211.581 169.577 211.581 169.217ZM213.685 166.977V166.637C213.685 166.392 213.738 166.17 213.844 165.97C213.95 165.769 214.102 165.609 214.299 165.488C214.497 165.367 214.731 165.307 215.002 165.307C215.279 165.307 215.514 165.367 215.709 165.488C215.906 165.609 216.058 165.769 216.164 165.97C216.27 166.17 216.323 166.392 216.323 166.637V166.977C216.323 167.216 216.27 167.435 216.164 167.635C216.061 167.836 215.91 167.996 215.713 168.117C215.519 168.238 215.284 168.298 215.011 168.298C214.737 168.298 214.499 168.238 214.299 168.117C214.102 167.996 213.95 167.836 213.844 167.635C213.738 167.435 213.685 167.216 213.685 166.977ZM214.299 166.637V166.977C214.299 167.113 214.324 167.241 214.374 167.361C214.427 167.482 214.507 167.581 214.613 167.658C214.719 167.731 214.851 167.768 215.011 167.768C215.17 167.768 215.301 167.731 215.404 167.658C215.507 167.581 215.583 167.482 215.634 167.361C215.684 167.241 215.709 167.113 215.709 166.977V166.637C215.709 166.498 215.682 166.369 215.629 166.248C215.579 166.124 215.501 166.026 215.395 165.952C215.292 165.875 215.161 165.837 215.002 165.837C214.846 165.837 214.715 165.875 214.608 165.952C214.505 166.026 214.427 166.124 214.374 166.248C214.324 166.369 214.299 166.498 214.299 166.637ZM216.818 170.6V170.256C216.818 170.014 216.871 169.793 216.977 169.593C217.083 169.393 217.235 169.232 217.432 169.111C217.629 168.99 217.863 168.93 218.134 168.93C218.411 168.93 218.647 168.99 218.841 169.111C219.039 169.232 219.19 169.393 219.297 169.593C219.403 169.793 219.456 170.014 219.456 170.256V170.6C219.456 170.842 219.403 171.063 219.297 171.263C219.193 171.463 219.043 171.624 218.846 171.745C218.651 171.865 218.417 171.926 218.143 171.926C217.869 171.926 217.634 171.865 217.436 171.745C217.239 171.624 217.086 171.463 216.977 171.263C216.871 171.063 216.818 170.842 216.818 170.6ZM217.432 170.256V170.6C217.432 170.736 217.457 170.865 217.507 170.989C217.56 171.11 217.64 171.209 217.746 171.285C217.852 171.359 217.984 171.396 218.143 171.396C218.302 171.396 218.433 171.359 218.537 171.285C218.643 171.209 218.721 171.11 218.771 170.989C218.821 170.868 218.846 170.739 218.846 170.6V170.256C218.846 170.117 218.819 169.988 218.766 169.867C218.716 169.746 218.638 169.649 218.532 169.575C218.429 169.499 218.296 169.46 218.134 169.46C217.978 169.46 217.847 169.499 217.741 169.575C217.638 169.649 217.56 169.746 217.507 169.867C217.457 169.988 217.432 170.117 217.432 170.256ZM218.338 166.314L215.196 171.343L214.737 171.051L217.878 166.023L218.338 166.314Z" fill="black" fill-opacity="0.54"/>
<path d="M207.187 209.782V210.453H202.977V209.865L205.084 207.519C205.343 207.231 205.544 206.986 205.685 206.786C205.829 206.583 205.93 206.401 205.986 206.242C206.044 206.08 206.074 205.915 206.074 205.747C206.074 205.535 206.03 205.344 205.941 205.173C205.856 204.999 205.729 204.861 205.561 204.758C205.393 204.655 205.19 204.603 204.952 204.603C204.666 204.603 204.427 204.659 204.236 204.771C204.047 204.88 203.906 205.033 203.812 205.23C203.717 205.428 203.67 205.655 203.67 205.911H202.853C202.853 205.549 202.932 205.217 203.091 204.917C203.251 204.616 203.486 204.378 203.798 204.201C204.111 204.021 204.495 203.931 204.952 203.931C205.358 203.931 205.706 204.004 205.994 204.148C206.283 204.289 206.504 204.49 206.657 204.749C206.813 205.005 206.891 205.306 206.891 205.65C206.891 205.839 206.859 206.03 206.794 206.225C206.732 206.416 206.645 206.608 206.533 206.799C206.424 206.99 206.296 207.179 206.149 207.365C206.005 207.55 205.85 207.733 205.685 207.912L203.962 209.782H207.187ZM212.402 206.724V207.705C212.402 208.232 212.355 208.677 212.261 209.039C212.167 209.402 212.031 209.693 211.855 209.914C211.678 210.135 211.464 210.296 211.214 210.396C210.966 210.493 210.687 210.541 210.374 210.541C210.127 210.541 209.899 210.511 209.689 210.449C209.48 210.387 209.292 210.288 209.124 210.153C208.959 210.014 208.818 209.835 208.7 209.614C208.582 209.393 208.492 209.125 208.43 208.809C208.368 208.494 208.337 208.126 208.337 207.705V206.724C208.337 206.197 208.385 205.755 208.479 205.398C208.576 205.042 208.713 204.756 208.89 204.541C209.066 204.323 209.279 204.167 209.526 204.073C209.776 203.979 210.056 203.931 210.366 203.931C210.616 203.931 210.846 203.962 211.055 204.024C211.267 204.083 211.455 204.179 211.62 204.311C211.785 204.441 211.925 204.615 212.04 204.833C212.158 205.048 212.248 205.311 212.31 205.624C212.372 205.936 212.402 206.303 212.402 206.724ZM211.581 207.837V206.587C211.581 206.298 211.563 206.045 211.528 205.827C211.495 205.606 211.447 205.417 211.382 205.261C211.317 205.105 211.234 204.979 211.134 204.881C211.037 204.784 210.924 204.713 210.794 204.669C210.667 204.622 210.525 204.599 210.366 204.599C210.171 204.599 209.999 204.635 209.849 204.709C209.698 204.78 209.572 204.893 209.469 205.049C209.368 205.205 209.292 205.41 209.239 205.663C209.186 205.917 209.159 206.225 209.159 206.587V207.837C209.159 208.126 209.175 208.381 209.208 208.602C209.243 208.823 209.295 209.014 209.363 209.176C209.43 209.335 209.513 209.466 209.61 209.569C209.707 209.673 209.819 209.749 209.946 209.799C210.075 209.846 210.218 209.87 210.374 209.87C210.575 209.87 210.75 209.832 210.9 209.755C211.05 209.678 211.176 209.559 211.276 209.397C211.379 209.232 211.455 209.022 211.505 208.765C211.556 208.506 211.581 208.197 211.581 207.837ZM213.685 205.597V205.257C213.685 205.012 213.738 204.79 213.844 204.59C213.95 204.389 214.102 204.229 214.299 204.108C214.497 203.987 214.731 203.927 215.002 203.927C215.279 203.927 215.514 203.987 215.709 204.108C215.906 204.229 216.058 204.389 216.164 204.59C216.27 204.79 216.323 205.012 216.323 205.257V205.597C216.323 205.836 216.27 206.055 216.164 206.256C216.061 206.456 215.91 206.616 215.713 206.737C215.519 206.858 215.284 206.918 215.011 206.918C214.737 206.918 214.499 206.858 214.299 206.737C214.102 206.616 213.95 206.456 213.844 206.256C213.738 206.055 213.685 205.836 213.685 205.597ZM214.299 205.257V205.597C214.299 205.733 214.324 205.861 214.374 205.982C214.427 206.102 214.507 206.201 214.613 206.278C214.719 206.351 214.851 206.388 215.011 206.388C215.17 206.388 215.301 206.351 215.404 206.278C215.507 206.201 215.583 206.102 215.634 205.982C215.684 205.861 215.709 205.733 215.709 205.597V205.257C215.709 205.118 215.682 204.989 215.629 204.868C215.579 204.744 215.501 204.646 215.395 204.572C215.292 204.495 215.161 204.457 215.002 204.457C214.846 204.457 214.715 204.495 214.608 204.572C214.505 204.646 214.427 204.744 214.374 204.868C214.324 204.989 214.299 205.118 214.299 205.257ZM216.818 209.22V208.876C216.818 208.634 216.871 208.413 216.977 208.213C217.083 208.013 217.235 207.852 217.432 207.731C217.629 207.611 217.863 207.55 218.134 207.55C218.411 207.55 218.647 207.611 218.841 207.731C219.039 207.852 219.19 208.013 219.297 208.213C219.403 208.413 219.456 208.634 219.456 208.876V209.22C219.456 209.462 219.403 209.683 219.297 209.883C219.193 210.083 219.043 210.244 218.846 210.365C218.651 210.486 218.417 210.546 218.143 210.546C217.869 210.546 217.634 210.486 217.436 210.365C217.239 210.244 217.086 210.083 216.977 209.883C216.871 209.683 216.818 209.462 216.818 209.22ZM217.432 208.876V209.22C217.432 209.356 217.457 209.485 217.507 209.609C217.56 209.73 217.64 209.829 217.746 209.905C217.852 209.979 217.984 210.016 218.143 210.016C218.302 210.016 218.433 209.979 218.537 209.905C218.643 209.829 218.721 209.73 218.771 209.609C218.821 209.488 218.846 209.359 218.846 209.22V208.876C218.846 208.737 218.819 208.608 218.766 208.487C218.716 208.366 218.638 208.269 218.532 208.195C218.429 208.119 218.296 208.08 218.134 208.08C217.978 208.08 217.847 208.119 217.741 208.195C217.638 208.269 217.56 208.366 217.507 208.487C217.457 208.608 217.432 208.737 217.432 208.876ZM218.338 204.934L215.196 209.963L214.737 209.671L217.878 204.643L218.338 204.934Z" fill="black" fill-opacity="0.54"/>
<path d="M212.438 238.539V239.52C212.438 240.048 212.391 240.492 212.297 240.855C212.203 241.217 212.067 241.509 211.891 241.729C211.714 241.95 211.5 242.111 211.25 242.211C211.002 242.308 210.723 242.357 210.41 242.357C210.163 242.357 209.935 242.326 209.725 242.264C209.516 242.202 209.328 242.104 209.16 241.968C208.995 241.83 208.854 241.65 208.736 241.429C208.618 241.208 208.528 240.94 208.466 240.625C208.404 240.31 208.373 239.941 208.373 239.52V238.539C208.373 238.012 208.42 237.57 208.515 237.214C208.612 236.857 208.749 236.572 208.926 236.357C209.102 236.139 209.315 235.982 209.562 235.888C209.812 235.794 210.092 235.747 210.401 235.747C210.652 235.747 210.882 235.778 211.091 235.84C211.303 235.899 211.491 235.994 211.656 236.127C211.821 236.256 211.961 236.43 212.076 236.648C212.194 236.863 212.284 237.127 212.346 237.439C212.407 237.751 212.438 238.118 212.438 238.539ZM211.617 239.653V238.402C211.617 238.114 211.599 237.86 211.564 237.642C211.531 237.421 211.483 237.233 211.418 237.077C211.353 236.921 211.27 236.794 211.17 236.697C211.073 236.6 210.96 236.529 210.83 236.485C210.703 236.438 210.561 236.414 210.401 236.414C210.207 236.414 210.035 236.451 209.884 236.524C209.734 236.595 209.608 236.709 209.505 236.865C209.404 237.021 209.328 237.226 209.275 237.479C209.222 237.732 209.195 238.04 209.195 238.402V239.653C209.195 239.941 209.211 240.196 209.244 240.417C209.279 240.638 209.331 240.83 209.398 240.992C209.466 241.151 209.549 241.282 209.646 241.385C209.743 241.488 209.855 241.565 209.982 241.615C210.111 241.662 210.254 241.685 210.41 241.685C210.611 241.685 210.786 241.647 210.936 241.57C211.086 241.494 211.212 241.375 211.312 241.213C211.415 241.048 211.491 240.837 211.541 240.581C211.592 240.321 211.617 240.012 211.617 239.653ZM213.721 237.413V237.072C213.721 236.828 213.774 236.605 213.88 236.405C213.986 236.205 214.138 236.044 214.335 235.924C214.532 235.803 214.767 235.742 215.038 235.742C215.315 235.742 215.55 235.803 215.745 235.924C215.942 236.044 216.094 236.205 216.2 236.405C216.306 236.605 216.359 236.828 216.359 237.072V237.413C216.359 237.651 216.306 237.871 216.2 238.071C216.097 238.271 215.946 238.432 215.749 238.553C215.555 238.673 215.32 238.734 215.047 238.734C214.773 238.734 214.535 238.673 214.335 238.553C214.138 238.432 213.986 238.271 213.88 238.071C213.774 237.871 213.721 237.651 213.721 237.413ZM214.335 237.072V237.413C214.335 237.548 214.36 237.676 214.41 237.797C214.463 237.918 214.543 238.016 214.649 238.093C214.755 238.167 214.887 238.204 215.047 238.204C215.206 238.204 215.337 238.167 215.44 238.093C215.543 238.016 215.619 237.918 215.67 237.797C215.72 237.676 215.745 237.548 215.745 237.413V237.072C215.745 236.934 215.718 236.804 215.665 236.684C215.615 236.56 215.537 236.461 215.431 236.388C215.328 236.311 215.197 236.273 215.038 236.273C214.882 236.273 214.75 236.311 214.644 236.388C214.541 236.461 214.463 236.56 214.41 236.684C214.36 236.804 214.335 236.934 214.335 237.072ZM216.854 241.036V240.691C216.854 240.45 216.907 240.229 217.013 240.028C217.119 239.828 217.27 239.668 217.468 239.547C217.665 239.426 217.899 239.366 218.17 239.366C218.447 239.366 218.683 239.426 218.877 239.547C219.075 239.668 219.226 239.828 219.332 240.028C219.439 240.229 219.492 240.45 219.492 240.691V241.036C219.492 241.277 219.439 241.498 219.332 241.699C219.229 241.899 219.079 242.059 218.882 242.18C218.687 242.301 218.453 242.361 218.179 242.361C217.905 242.361 217.67 242.301 217.472 242.18C217.275 242.059 217.122 241.899 217.013 241.699C216.907 241.498 216.854 241.277 216.854 241.036ZM217.468 240.691V241.036C217.468 241.171 217.493 241.301 217.543 241.425C217.596 241.545 217.676 241.644 217.782 241.721C217.888 241.794 218.02 241.831 218.179 241.831C218.338 241.831 218.469 241.794 218.572 241.721C218.679 241.644 218.757 241.545 218.807 241.425C218.857 241.304 218.882 241.174 218.882 241.036V240.691C218.882 240.553 218.855 240.423 218.802 240.302C218.752 240.182 218.674 240.084 218.568 240.011C218.465 239.934 218.332 239.896 218.17 239.896C218.014 239.896 217.883 239.934 217.777 240.011C217.674 240.084 217.596 240.182 217.543 240.302C217.493 240.423 217.468 240.553 217.468 240.691ZM218.374 236.75L215.232 241.778L214.773 241.486L217.914 236.458L218.374 236.75Z" fill="black" fill-opacity="0.54"/>
<line x1="227.785" y1="60.9833" x2="490.153" y2="60.9833" stroke="black" stroke-opacity="0.05" stroke-width="0.754094" stroke-linecap="square"/>
<line x1="227.785" y1="94.2509" x2="490.153" y2="94.2509" stroke="black" stroke-opacity="0.05" stroke-width="0.754094" stroke-linecap="square"/>
<line x1="227.785" y1="130.543" x2="490.153" y2="130.543" stroke="black" stroke-opacity="0.05" stroke-width="0.754094" stroke-linecap="square"/>
<line x1="227.785" y1="169.861" x2="490.153" y2="169.861" stroke="black" stroke-opacity="0.05" stroke-width="0.754094" stroke-linecap="square"/>
<line x1="227.785" y1="207.665" x2="490.153" y2="207.665" stroke="black" stroke-opacity="0.05" stroke-width="0.754094" stroke-linecap="square"/>
<line x1="227.785" y1="239.422" x2="490.153" y2="239.422" stroke="black" stroke-opacity="0.38" stroke-width="0.754094" stroke-linecap="square"/>
<g clip-path="url(#clip1_17223_45963)">
<path d="M242.611 127.681H257.812V239.189H242.611V127.681Z" fill="#44C66B"/>
</g>
<g clip-path="url(#clip2_17223_45963)">
<path d="M326.756 69.6025H341.956V239.188H326.756V69.6025Z" fill="#44C66B"/>
</g>
<g clip-path="url(#clip3_17223_45963)">
<path d="M410.357 90.5117H425.558V239.19H410.357V90.5117Z" fill="#44C66B"/>
</g>
<g clip-path="url(#clip4_17223_45963)">
<path d="M257.266 79.0234H272.466V239.317H257.266V79.0234Z" fill="#217039"/>
</g>
<g clip-path="url(#clip5_17223_45963)">
<path d="M341.953 115.031H356.068V239.317H341.953V115.031Z" fill="#217039"/>
</g>
<g clip-path="url(#clip6_17223_45963)">
<path d="M425.555 78.8955H440.755V239.189H425.555V78.8955Z" fill="#217039"/>
</g>
<g clip-path="url(#clip7_17223_45963)">
<path d="M272.725 101.726H287.847V239.335H272.725V101.726Z" fill="#B6F1C8"/>
</g>
<g clip-path="url(#clip8_17223_45963)">
<path d="M355.898 131.969H371.02V239.335H355.898V131.969Z" fill="#B6F1C8"/>
</g>
<g clip-path="url(#clip9_17223_45963)">
<path d="M440.58 106.261H455.702V239.334H440.58V106.261Z" fill="#B6F1C8"/>
</g>
<g clip-path="url(#clip10_17223_45963)">
<path d="M287.666 103.415H301.781V239.316H287.666V103.415Z" fill="#008B29"/>
</g>
<g clip-path="url(#clip11_17223_45963)">
<path d="M371.268 146.265H386.468V239.188H371.268V146.265Z" fill="#008B29"/>
</g>
<g clip-path="url(#clip12_17223_45963)">
<path d="M455.953 123.033H471.153V239.188H455.953V123.033Z" fill="#008B29"/>
</g>
<path d="M193.025 32.2108H190.834L190.822 31.1299H192.736C193.059 31.1299 193.332 31.0826 193.557 30.9881C193.785 30.8896 193.959 30.7498 194.077 30.5687C194.195 30.3836 194.254 30.1611 194.254 29.9012C194.254 29.6137 194.199 29.3794 194.089 29.1983C193.978 29.0171 193.809 28.8852 193.581 28.8025C193.356 28.7198 193.069 28.6785 192.718 28.6785H191.283V36.0977H189.8V27.497H192.718C193.191 27.497 193.612 27.5423 193.982 27.6329C194.356 27.7235 194.673 27.8653 194.933 28.0582C195.197 28.2472 195.396 28.4875 195.53 28.7789C195.668 29.0703 195.737 29.4168 195.737 29.8185C195.737 30.1729 195.652 30.4978 195.483 30.7932C195.313 31.0846 195.063 31.3228 194.732 31.5079C194.402 31.693 193.99 31.8033 193.498 31.8387L193.025 32.2108ZM192.96 36.0977H190.367L191.035 34.9222H192.96C193.295 34.9222 193.575 34.867 193.799 34.7568C194.024 34.6426 194.191 34.487 194.301 34.2901C194.415 34.0893 194.472 33.855 194.472 33.5872C194.472 33.3076 194.423 33.0654 194.325 32.8606C194.226 32.6519 194.071 32.4924 193.858 32.3821C193.645 32.2679 193.368 32.2108 193.025 32.2108H191.359L191.371 31.1299H193.539L193.876 31.5374C194.348 31.5532 194.736 31.6576 195.04 31.8505C195.347 32.0435 195.575 32.2935 195.725 32.6007C195.874 32.9079 195.949 33.2387 195.949 33.5931C195.949 34.1405 195.829 34.5992 195.589 34.9694C195.353 35.3396 195.012 35.6212 194.567 35.8141C194.122 36.0031 193.586 36.0977 192.96 36.0977ZM200.905 34.8158V31.7678C200.905 31.5394 200.864 31.3425 200.781 31.1771C200.698 31.0117 200.572 30.8837 200.403 30.7932C200.238 30.7026 200.029 30.6573 199.777 30.6573C199.545 30.6573 199.344 30.6967 199.174 30.7754C199.005 30.8542 198.873 30.9605 198.779 31.0944C198.684 31.2283 198.637 31.3799 198.637 31.5493H197.219C197.219 31.2972 197.28 31.0531 197.402 30.8168C197.524 30.5805 197.702 30.3698 197.934 30.1847C198.166 29.9997 198.444 29.8539 198.767 29.7476C199.09 29.6413 199.452 29.5881 199.854 29.5881C200.334 29.5881 200.759 29.6689 201.13 29.8303C201.504 29.9918 201.797 30.2359 202.01 30.5628C202.226 30.8857 202.335 31.2913 202.335 31.7796V34.6209C202.335 34.9123 202.354 35.1742 202.394 35.4065C202.437 35.6349 202.498 35.8338 202.577 36.0031V36.0977H201.118C201.051 35.9441 200.998 35.7491 200.958 35.5129C200.923 35.2726 200.905 35.0403 200.905 34.8158ZM201.112 32.2108L201.124 33.091H200.102C199.838 33.091 199.606 33.1166 199.405 33.1678C199.204 33.215 199.037 33.2859 198.903 33.3804C198.769 33.4749 198.668 33.5891 198.601 33.723C198.535 33.8569 198.501 34.0085 198.501 34.1779C198.501 34.3472 198.54 34.5028 198.619 34.6445C198.698 34.7824 198.812 34.8907 198.962 34.9694C199.115 35.0482 199.3 35.0876 199.517 35.0876C199.808 35.0876 200.062 35.0285 200.279 34.9103C200.5 34.7883 200.673 34.6406 200.799 34.4673C200.925 34.2901 200.992 34.1227 201 33.9652L201.46 34.5973C201.413 34.7587 201.332 34.932 201.218 35.1171C201.104 35.3022 200.954 35.4794 200.769 35.6487C200.588 35.8141 200.37 35.95 200.114 36.0563C199.862 36.1626 199.57 36.2158 199.239 36.2158C198.822 36.2158 198.45 36.1331 198.123 35.9677C197.796 35.7984 197.54 35.5719 197.355 35.2884C197.17 35.0009 197.077 34.676 197.077 34.3137C197.077 33.9751 197.14 33.6758 197.266 33.4159C197.396 33.152 197.585 32.9315 197.834 32.7543C198.086 32.5771 198.393 32.4432 198.755 32.3526C199.117 32.2581 199.531 32.2108 199.996 32.2108H201.112ZM205.253 30.9231V36.0977H203.829V29.7063H205.188L205.253 30.9231ZM207.208 29.6649L207.196 30.9881C207.11 30.9723 207.015 30.9605 206.913 30.9526C206.814 30.9448 206.716 30.9408 206.617 30.9408C206.373 30.9408 206.159 30.9763 205.973 31.0472C205.788 31.1141 205.633 31.2126 205.507 31.3425C205.385 31.4685 205.29 31.6221 205.223 31.8033C205.156 31.9844 205.117 32.1872 205.105 32.4117L204.78 32.4353C204.78 32.0336 204.82 31.6615 204.898 31.3189C204.977 30.9763 205.095 30.675 205.253 30.4151C205.414 30.1552 205.615 29.9524 205.855 29.8067C206.099 29.661 206.381 29.5881 206.7 29.5881C206.787 29.5881 206.879 29.596 206.978 29.6118C207.08 29.6275 207.157 29.6452 207.208 29.6649ZM216.334 33.2977H217.811C217.764 33.8609 217.606 34.363 217.339 34.804C217.071 35.2411 216.695 35.5857 216.21 35.8377C215.726 36.0898 215.137 36.2158 214.444 36.2158C213.912 36.2158 213.434 36.1213 213.009 35.9323C212.583 35.7393 212.219 35.4676 211.916 35.1171C211.613 34.7627 211.38 34.3354 211.219 33.8353C211.061 33.3351 210.983 32.7759 210.983 32.1577V31.4429C210.983 30.8247 211.063 30.2655 211.225 29.7653C211.39 29.2652 211.626 28.8379 211.934 28.4835C212.241 28.1252 212.609 27.8515 213.038 27.6624C213.471 27.4734 213.958 27.3789 214.497 27.3789C215.182 27.3789 215.761 27.5049 216.234 27.757C216.706 28.009 217.073 28.3575 217.333 28.8025C217.596 29.2475 217.758 29.7575 217.817 30.3324H216.34C216.301 29.9622 216.214 29.6452 216.08 29.3814C215.95 29.1175 215.757 28.9167 215.501 28.7789C215.245 28.6371 214.911 28.5662 214.497 28.5662C214.159 28.5662 213.863 28.6292 213.611 28.7552C213.359 28.8813 213.148 29.0663 212.979 29.3105C212.81 29.5547 212.682 29.8559 212.595 30.2143C212.512 30.5687 212.471 30.9743 212.471 31.4311V32.1577C212.471 32.5909 212.509 32.9847 212.583 33.3391C212.662 33.6896 212.78 33.9908 212.938 34.2429C213.099 34.4949 213.304 34.6898 213.552 34.8276C213.8 34.9655 214.098 35.0344 214.444 35.0344C214.865 35.0344 215.206 34.9674 215.466 34.8336C215.73 34.6997 215.929 34.5047 216.063 34.2488C216.2 33.9889 216.291 33.6718 216.334 33.2977ZM220.422 27.0245V36.0977H219.004V27.0245H220.422ZM220.174 32.6657L219.713 32.6598C219.717 32.2187 219.778 31.8111 219.896 31.437C220.018 31.0629 220.188 30.738 220.404 30.4624C220.625 30.1828 220.889 29.9681 221.196 29.8185C221.503 29.6649 221.844 29.5881 222.218 29.5881C222.533 29.5881 222.816 29.6314 223.068 29.7181C223.324 29.8047 223.545 29.9445 223.73 30.1375C223.915 30.3265 224.055 30.5746 224.149 30.8818C224.248 31.185 224.297 31.5552 224.297 31.9923V36.0977H222.867V31.9805C222.867 31.6733 222.822 31.4291 222.732 31.248C222.645 31.0669 222.517 30.9369 222.348 30.8581C222.178 30.7754 221.972 30.7341 221.727 30.7341C221.471 30.7341 221.245 30.7853 221.048 30.8877C220.855 30.9901 220.694 31.1299 220.564 31.3071C220.434 31.4843 220.335 31.6891 220.268 31.9214C220.205 32.1537 220.174 32.4018 220.174 32.6657ZM229.342 34.8158V31.7678C229.342 31.5394 229.3 31.3425 229.218 31.1771C229.135 31.0117 229.009 30.8837 228.839 30.7932C228.674 30.7026 228.465 30.6573 228.213 30.6573C227.981 30.6573 227.78 30.6967 227.611 30.7754C227.441 30.8542 227.31 30.9605 227.215 31.0944C227.121 31.2283 227.073 31.3799 227.073 31.5493H225.656C225.656 31.2972 225.717 31.0531 225.839 30.8168C225.961 30.5805 226.138 30.3698 226.37 30.1847C226.603 29.9997 226.88 29.8539 227.203 29.7476C227.526 29.6413 227.888 29.5881 228.29 29.5881C228.771 29.5881 229.196 29.6689 229.566 29.8303C229.94 29.9918 230.234 30.2359 230.446 30.5628C230.663 30.8857 230.771 31.2913 230.771 31.7796V34.6209C230.771 34.9123 230.791 35.1742 230.83 35.4065C230.873 35.6349 230.934 35.8338 231.013 36.0031V36.0977H229.554C229.487 35.9441 229.434 35.7491 229.395 35.5129C229.359 35.2726 229.342 35.0403 229.342 34.8158ZM229.548 32.2108L229.56 33.091H228.538C228.274 33.091 228.042 33.1166 227.841 33.1678C227.64 33.215 227.473 33.2859 227.339 33.3804C227.205 33.4749 227.105 33.5891 227.038 33.723C226.971 33.8569 226.937 34.0085 226.937 34.1779C226.937 34.3472 226.977 34.5028 227.056 34.6445C227.134 34.7824 227.248 34.8907 227.398 34.9694C227.552 35.0482 227.737 35.0876 227.953 35.0876C228.245 35.0876 228.499 35.0285 228.715 34.9103C228.936 34.7883 229.109 34.6406 229.235 34.4673C229.361 34.2901 229.428 34.1227 229.436 33.9652L229.897 34.5973C229.85 34.7587 229.769 34.932 229.655 35.1171C229.54 35.3022 229.391 35.4794 229.206 35.6487C229.025 35.8141 228.806 35.95 228.55 36.0563C228.298 36.1626 228.007 36.2158 227.676 36.2158C227.258 36.2158 226.886 36.1331 226.559 35.9677C226.232 35.7984 225.977 35.5719 225.791 35.2884C225.606 35.0009 225.514 34.676 225.514 34.3137C225.514 33.9751 225.577 33.6758 225.703 33.4159C225.833 33.152 226.022 32.9315 226.27 32.7543C226.522 32.5771 226.829 32.4432 227.191 32.3526C227.554 32.2581 227.967 32.2108 228.432 32.2108H229.548ZM233.689 30.9231V36.0977H232.266V29.7063H233.624L233.689 30.9231ZM235.644 29.6649L235.633 30.9881C235.546 30.9723 235.451 30.9605 235.349 30.9526C235.251 30.9448 235.152 30.9408 235.054 30.9408C234.809 30.9408 234.595 30.9763 234.41 31.0472C234.225 31.1141 234.069 31.2126 233.943 31.3425C233.821 31.4685 233.727 31.6221 233.66 31.8033C233.593 31.9844 233.553 32.1872 233.541 32.4117L233.217 32.4353C233.217 32.0336 233.256 31.6615 233.335 31.3189C233.413 30.9763 233.532 30.675 233.689 30.4151C233.851 30.1552 234.051 29.9524 234.292 29.8067C234.536 29.661 234.817 29.5881 235.136 29.5881C235.223 29.5881 235.316 29.596 235.414 29.6118C235.516 29.6275 235.593 29.6452 235.644 29.6649ZM239.762 29.7063V30.7459H236.158V29.7063H239.762ZM237.198 28.1409H238.621V34.3315C238.621 34.5284 238.649 34.68 238.704 34.7863C238.763 34.8887 238.844 34.9576 238.946 34.993C239.049 35.0285 239.169 35.0462 239.307 35.0462C239.405 35.0462 239.5 35.0403 239.59 35.0285C239.681 35.0167 239.754 35.0049 239.809 34.993L239.815 36.0799C239.697 36.1154 239.559 36.1469 239.401 36.1744C239.248 36.202 239.07 36.2158 238.87 36.2158C238.543 36.2158 238.253 36.1587 238.001 36.0445C237.749 35.9264 237.552 35.7354 237.411 35.4715C237.269 35.2077 237.198 34.8572 237.198 34.4201V28.1409Z" fill="black" fill-opacity="0.76"/>
<rect x="12" y="14" width="151.219" height="51.4146" rx="9.07317" fill="white"/>
<rect x="12.5" y="14.5" width="150.219" height="50.4146" rx="8.57317" stroke="black" stroke-opacity="0.05"/>
<rect x="21.0723" y="25.8901" width="27.634" height="27.634" rx="3.07045" fill="#217039"/>
<path d="M29.1085 45.8476H40.6688C41.8509 45.8476 42.5878 44.5657 41.9967 43.5448L36.2166 33.5582C35.6256 32.5372 34.1517 32.5372 33.5607 33.5582L27.7806 43.5448C27.1895 44.5657 27.9264 45.8476 29.1085 45.8476ZM34.8887 40.4744C34.4665 40.4744 34.121 40.1289 34.121 39.7067V38.1715C34.121 37.7493 34.4665 37.4039 34.8887 37.4039C35.3108 37.4039 35.6563 37.7493 35.6563 38.1715V39.7067C35.6563 40.1289 35.3108 40.4744 34.8887 40.4744ZM35.6563 43.5448H34.121V42.0096H35.6563V43.5448Z" fill="white"/>
<path d="M58.938 36.3684L56.0908 44.207H54.9272L58.2056 35.6064H58.9557L58.938 36.3684ZM61.3245 44.207L58.4714 36.3684L58.4536 35.6064H59.2038L62.494 44.207H61.3245ZM61.1768 41.0232V41.9565H56.3448V41.0232H61.1768ZM64.6678 35.1339V44.207H63.5691V35.1339H64.6678ZM70.1909 43.1142V39.824C70.1909 39.572 70.1397 39.3534 70.0373 39.1684C69.9388 38.9793 69.7892 38.8336 69.5884 38.7312C69.3875 38.6288 69.1394 38.5777 68.8441 38.5777C68.5684 38.5777 68.3262 38.6249 68.1175 38.7194C67.9127 38.8139 67.7513 38.938 67.6331 39.0916C67.5189 39.2451 67.4618 39.4105 67.4618 39.5877H66.369C66.369 39.3593 66.4281 39.1329 66.5463 38.9084C66.6644 38.684 66.8337 38.4812 67.0543 38.3C67.2787 38.1149 67.5465 37.9692 67.8576 37.8629C68.1727 37.7526 68.5231 37.6975 68.9091 37.6975C69.3737 37.6975 69.7833 37.7763 70.1377 37.9338C70.4961 38.0913 70.7757 38.3296 70.9765 38.6485C71.1813 38.9636 71.2837 39.3593 71.2837 39.8358V42.813C71.2837 43.0256 71.3014 43.2521 71.3368 43.4923C71.3762 43.7325 71.4333 43.9392 71.5081 44.1125V44.207H70.3681C70.313 44.081 70.2696 43.9136 70.2381 43.7049C70.2066 43.4923 70.1909 43.2954 70.1909 43.1142ZM70.3799 40.332L70.3917 41.0999H69.2871C68.976 41.0999 68.6984 41.1255 68.4542 41.1767C68.2101 41.224 68.0053 41.2968 67.8399 41.3953C67.6745 41.4937 67.5485 41.6178 67.4618 41.7674C67.3752 41.9131 67.3319 42.0844 67.3319 42.2813C67.3319 42.4822 67.3772 42.6653 67.4677 42.8307C67.5583 42.9961 67.6942 43.128 67.8753 43.2265C68.0604 43.321 68.2869 43.3682 68.5546 43.3682C68.8894 43.3682 69.1847 43.2974 69.4407 43.1556C69.6967 43.0138 69.8995 42.8405 70.0491 42.6358C70.2027 42.431 70.2854 42.2321 70.2972 42.0392L70.7639 42.5649C70.7363 42.7303 70.6615 42.9134 70.5394 43.1142C70.4173 43.3151 70.2539 43.508 70.0491 43.6931C69.8483 43.8743 69.6081 44.0259 69.3285 44.148C69.0528 44.2661 68.7417 44.3252 68.3951 44.3252C67.962 44.3252 67.5819 44.2405 67.2551 44.0712C66.9322 43.9018 66.6801 43.6754 66.499 43.3919C66.3218 43.1044 66.2332 42.7834 66.2332 42.429C66.2332 42.0864 66.3001 41.7852 66.434 41.5252C66.5679 41.2614 66.7609 41.0428 67.0129 40.8696C67.2649 40.6924 67.5682 40.5585 67.9226 40.4679C68.277 40.3773 68.6728 40.332 69.1099 40.332H70.3799ZM74.0954 38.8198V44.207H73.0026V37.8156H74.0659L74.0954 38.8198ZM76.092 37.7802L76.0861 38.7962C75.9955 38.7765 75.9089 38.7647 75.8262 38.7608C75.7474 38.7529 75.6568 38.749 75.5544 38.749C75.3024 38.749 75.0799 38.7883 74.887 38.8671C74.694 38.9459 74.5306 39.0561 74.3967 39.1979C74.2628 39.3397 74.1565 39.509 74.0777 39.7059C74.0029 39.8989 73.9536 40.1115 73.93 40.3438L73.6229 40.5211C73.6229 40.1351 73.6603 39.7728 73.7351 39.4342C73.8138 39.0955 73.934 38.7962 74.0954 38.5363C74.2569 38.2725 74.4616 38.0677 74.7097 37.922C74.9618 37.7723 75.2611 37.6975 75.6076 37.6975C75.6864 37.6975 75.7769 37.7074 75.8793 37.727C75.9817 37.7428 76.0526 37.7605 76.092 37.7802ZM78.189 39.0857V44.207H77.0903V37.8156H78.1299L78.189 39.0857ZM77.9645 40.7692L77.4565 40.7514C77.4604 40.3143 77.5175 39.9107 77.6278 39.5405C77.7381 39.1664 77.9015 38.8415 78.1181 38.5658C78.3347 38.2902 78.6044 38.0775 78.9273 37.9279C79.2503 37.7743 79.6244 37.6975 80.0497 37.6975C80.349 37.6975 80.6246 37.7408 80.8767 37.8275C81.1287 37.9102 81.3473 38.0421 81.5323 38.2232C81.7174 38.4044 81.8612 38.6367 81.9636 38.9203C82.0659 39.2038 82.1171 39.5464 82.1171 39.9481V44.207H81.0243V40.0012C81.0243 39.6665 80.9672 39.3987 80.853 39.1979C80.7428 38.997 80.5852 38.8513 80.3805 38.7608C80.1757 38.6663 79.9355 38.619 79.6598 38.619C79.3369 38.619 79.0671 38.6761 78.8506 38.7903C78.634 38.9045 78.4607 39.062 78.3307 39.2629C78.2008 39.4637 78.1063 39.6941 78.0472 39.954C77.9921 40.21 77.9645 40.4817 77.9645 40.7692ZM82.1053 40.1666L81.3728 40.3911C81.3768 40.0406 81.4339 39.7039 81.5442 39.381C81.6584 39.0581 81.8218 38.7706 82.0344 38.5186C82.251 38.2665 82.5168 38.0677 82.8319 37.922C83.1469 37.7723 83.5072 37.6975 83.9129 37.6975C84.2555 37.6975 84.5587 37.7428 84.8225 37.8334C85.0903 37.9239 85.3148 38.0637 85.4959 38.2528C85.681 38.4379 85.8208 38.6761 85.9153 38.9675C86.0099 39.2589 86.0571 39.6055 86.0571 40.0071V44.207H84.9584V39.9953C84.9584 39.637 84.9013 39.3593 84.7871 39.1624C84.6768 38.9616 84.5193 38.8218 84.3145 38.743C84.1137 38.6603 83.8735 38.619 83.5939 38.619C83.3537 38.619 83.141 38.6603 82.9559 38.743C82.7708 38.8257 82.6153 38.9399 82.4893 39.0857C82.3633 39.2274 82.2668 39.3908 82.1998 39.5759C82.1368 39.761 82.1053 39.9579 82.1053 40.1666ZM91.4325 42.5117C91.4325 42.3542 91.397 42.2085 91.3262 42.0746C91.2592 41.9368 91.1194 41.8127 90.9068 41.7025C90.6981 41.5883 90.383 41.4898 89.9616 41.4071C89.6072 41.3323 89.2863 41.2437 88.9988 41.1413C88.7153 41.0389 88.4731 40.9149 88.2722 40.7692C88.0753 40.6234 87.9237 40.4521 87.8174 40.2552C87.7111 40.0583 87.6579 39.828 87.6579 39.5641C87.6579 39.3121 87.713 39.0738 87.8233 38.8494C87.9375 38.6249 88.097 38.426 88.3018 38.2528C88.5105 38.0795 88.7606 37.9436 89.052 37.8452C89.3434 37.7467 89.6683 37.6975 90.0266 37.6975C90.5386 37.6975 90.9757 37.7881 91.338 37.9692C91.7003 38.1504 91.9779 38.3926 92.1709 38.6958C92.3638 38.9951 92.4603 39.3278 92.4603 39.6941H91.3675C91.3675 39.5169 91.3144 39.3456 91.208 39.1802C91.1056 39.0108 90.954 38.871 90.7532 38.7608C90.5563 38.6505 90.3141 38.5954 90.0266 38.5954C89.7234 38.5954 89.4773 38.6426 89.2882 38.7371C89.1032 38.8277 88.9673 38.9439 88.8807 39.0857C88.798 39.2274 88.7566 39.3771 88.7566 39.5346C88.7566 39.6527 88.7763 39.7591 88.8157 39.8536C88.859 39.9441 88.9338 40.0288 89.0402 40.1076C89.1465 40.1824 89.2961 40.2533 89.4891 40.3202C89.682 40.3872 89.9282 40.4541 90.2275 40.5211C90.7512 40.6392 91.1824 40.781 91.5211 40.9464C91.8598 41.1118 92.1118 41.3146 92.2772 41.5548C92.4426 41.795 92.5253 42.0864 92.5253 42.429C92.5253 42.7086 92.4662 42.9646 92.3481 43.1969C92.2339 43.4293 92.0665 43.6301 91.846 43.7994C91.6294 43.9648 91.3695 44.0948 91.0663 44.1893C90.767 44.2799 90.4303 44.3252 90.0562 44.3252C89.493 44.3252 89.0165 44.2248 88.6267 44.0239C88.2368 43.8231 87.9414 43.5632 87.7406 43.2442C87.5398 42.9252 87.4394 42.5885 87.4394 42.2341H88.5381C88.5538 42.5334 88.6404 42.7716 88.798 42.9488C88.9555 43.1221 89.1484 43.2462 89.3769 43.321C89.6053 43.3919 89.8317 43.4273 90.0562 43.4273C90.3554 43.4273 90.6055 43.3879 90.8063 43.3092C91.0111 43.2304 91.1667 43.1221 91.273 42.9843C91.3793 42.8464 91.4325 42.6889 91.4325 42.5117ZM102.319 41.4721H103.453C103.394 42.0155 103.239 42.5019 102.987 42.9311C102.735 43.3604 102.378 43.701 101.917 43.953C101.457 44.2011 100.882 44.3252 100.193 44.3252C99.6885 44.3252 99.2297 44.2307 98.8163 44.0416C98.4067 43.8526 98.0542 43.5848 97.7589 43.2383C97.4635 42.8878 97.2351 42.4684 97.0737 41.9801C96.9162 41.4878 96.8374 40.9405 96.8374 40.3379V39.4814C96.8374 38.8789 96.9162 38.3335 97.0737 37.8452C97.2351 37.3529 97.4655 36.9316 97.7648 36.5811C98.068 36.2306 98.4323 35.9608 98.8576 35.7718C99.2829 35.5828 99.7614 35.4883 100.293 35.4883C100.943 35.4883 101.492 35.6104 101.941 35.8545C102.39 36.0987 102.739 36.4373 102.987 36.8705C103.239 37.2998 103.394 37.7979 103.453 38.365H102.319C102.264 37.9633 102.162 37.6187 102.012 37.3313C101.862 37.0399 101.65 36.8154 101.374 36.6579C101.098 36.5004 100.738 36.4216 100.293 36.4216C99.911 36.4216 99.5743 36.4944 99.2829 36.6402C98.9954 36.7859 98.7532 36.9926 98.5563 37.2604C98.3634 37.5282 98.2177 37.8491 98.1192 38.2232C98.0208 38.5973 97.9716 39.0128 97.9716 39.4696V40.3379C97.9716 40.7593 98.0149 41.1551 98.1015 41.5252C98.1921 41.8954 98.3279 42.2203 98.5091 42.4999C98.6902 42.7795 98.9206 43 99.2002 43.1615C99.4798 43.319 99.8106 43.3978 100.193 43.3978C100.677 43.3978 101.063 43.321 101.35 43.1674C101.638 43.0138 101.854 42.7933 102 42.5058C102.15 42.2183 102.256 41.8738 102.319 41.4721ZM104.552 41.0822V40.9464C104.552 40.4856 104.619 40.0583 104.753 39.6645C104.887 39.2668 105.08 38.9222 105.332 38.6308C105.584 38.3355 105.889 38.1071 106.247 37.9456C106.606 37.7802 107.007 37.6975 107.452 37.6975C107.901 37.6975 108.305 37.7802 108.663 37.9456C109.026 38.1071 109.333 38.3355 109.585 38.6308C109.841 38.9222 110.036 39.2668 110.17 39.6645C110.303 40.0583 110.37 40.4856 110.37 40.9464V41.0822C110.37 41.543 110.303 41.9702 110.17 42.364C110.036 42.7578 109.841 43.1024 109.585 43.3978C109.333 43.6892 109.028 43.9176 108.669 44.083C108.315 44.2444 107.913 44.3252 107.464 44.3252C107.015 44.3252 106.612 44.2444 106.253 44.083C105.895 43.9176 105.588 43.6892 105.332 43.3978C105.08 43.1024 104.887 42.7578 104.753 42.364C104.619 41.9702 104.552 41.543 104.552 41.0822ZM105.645 40.9464V41.0822C105.645 41.4012 105.682 41.7025 105.757 41.986C105.832 42.2656 105.944 42.5137 106.094 42.7303C106.247 42.9469 106.438 43.1182 106.667 43.2442C106.895 43.3663 107.161 43.4273 107.464 43.4273C107.763 43.4273 108.025 43.3663 108.25 43.2442C108.478 43.1182 108.667 42.9469 108.817 42.7303C108.966 42.5137 109.079 42.2656 109.154 41.986C109.232 41.7025 109.272 41.4012 109.272 41.0822V40.9464C109.272 40.6313 109.232 40.334 109.154 40.0544C109.079 39.7709 108.964 39.5208 108.811 39.3042C108.661 39.0837 108.472 38.9104 108.244 38.7844C108.019 38.6584 107.756 38.5954 107.452 38.5954C107.153 38.5954 106.889 38.6584 106.661 38.7844C106.436 38.9104 106.247 39.0837 106.094 39.3042C105.944 39.5208 105.832 39.7709 105.757 40.0544C105.682 40.334 105.645 40.6313 105.645 40.9464ZM115.651 42.7303V37.8156H116.75V44.207H115.704L115.651 42.7303ZM115.858 41.3835L116.313 41.3717C116.313 41.797 116.268 42.1908 116.177 42.5531C116.09 42.9114 115.949 43.2225 115.752 43.4864C115.555 43.7502 115.297 43.957 114.978 44.1066C114.659 44.2523 114.271 44.3252 113.814 44.3252C113.503 44.3252 113.218 44.2799 112.958 44.1893C112.702 44.0987 112.481 43.9589 112.296 43.7699C112.111 43.5809 111.967 43.3348 111.865 43.0315C111.766 42.7283 111.717 42.364 111.717 41.9387V37.8156H112.81V41.9506C112.81 42.238 112.841 42.4763 112.904 42.6653C112.971 42.8504 113.06 42.9981 113.17 43.1083C113.284 43.2147 113.411 43.2895 113.548 43.3328C113.69 43.3761 113.836 43.3978 113.985 43.3978C114.45 43.3978 114.818 43.3092 115.09 43.132C115.362 42.9508 115.557 42.7086 115.675 42.4054C115.797 42.0982 115.858 41.7576 115.858 41.3835ZM119.509 39.1802V44.207H118.416V37.8156H119.449L119.509 39.1802ZM119.249 40.7692L118.794 40.7514C118.798 40.3143 118.863 39.9107 118.989 39.5405C119.115 39.1664 119.292 38.8415 119.52 38.5658C119.749 38.2902 120.02 38.0775 120.335 37.9279C120.654 37.7743 121.007 37.6975 121.393 37.6975C121.708 37.6975 121.991 37.7408 122.243 37.8275C122.495 37.9102 122.71 38.0441 122.887 38.2291C123.068 38.4142 123.206 38.6544 123.301 38.9498C123.395 39.2412 123.443 39.5976 123.443 40.019V44.207H122.344V40.0071C122.344 39.6724 122.295 39.4046 122.196 39.2038C122.098 38.999 121.954 38.8513 121.765 38.7608C121.576 38.6663 121.344 38.619 121.068 38.619C120.796 38.619 120.548 38.6761 120.324 38.7903C120.103 38.9045 119.912 39.062 119.751 39.2629C119.593 39.4637 119.469 39.6941 119.379 39.954C119.292 40.21 119.249 40.4817 119.249 40.7692ZM127.778 37.8156V38.6544H124.323V37.8156H127.778ZM125.492 36.2621H126.585V42.624C126.585 42.8405 126.619 43.004 126.686 43.1142C126.752 43.2245 126.839 43.2974 126.945 43.3328C127.052 43.3682 127.166 43.386 127.288 43.386C127.379 43.386 127.473 43.3781 127.572 43.3623C127.674 43.3426 127.751 43.3269 127.802 43.3151L127.808 44.207C127.721 44.2346 127.607 44.2602 127.465 44.2838C127.327 44.3114 127.16 44.3252 126.963 44.3252C126.695 44.3252 126.449 44.272 126.225 44.1657C126 44.0594 125.821 43.8821 125.687 43.6341C125.557 43.382 125.492 43.0434 125.492 42.618V36.2621Z" fill="black" fill-opacity="0.76"/>
<path d="M145.023 39.0273H146.086C146.5 39.0273 146.842 38.9559 147.113 38.8132C147.388 38.6704 147.592 38.4735 147.725 38.2225C147.858 37.9714 147.925 37.6835 147.925 37.3586C147.925 37.0189 147.863 36.7285 147.74 36.4873C147.622 36.2412 147.44 36.0517 147.194 35.9187C146.953 35.7858 146.645 35.7194 146.271 35.7194C145.956 35.7194 145.67 35.7834 145.414 35.9114C145.163 36.0344 144.964 36.2116 144.816 36.443C144.668 36.6694 144.595 36.9402 144.595 37.2552H142.808C142.808 36.6842 142.958 36.1772 143.258 35.7342C143.558 35.2911 143.967 34.9441 144.484 34.693C145.006 34.4371 145.591 34.3091 146.241 34.3091C146.935 34.3091 147.541 34.4248 148.058 34.6561C148.579 34.8826 148.986 35.2222 149.276 35.6751C149.566 36.128 149.712 36.6891 149.712 37.3586C149.712 37.6638 149.64 37.9739 149.497 38.2889C149.355 38.604 149.143 38.8919 148.862 39.1528C148.582 39.4088 148.232 39.618 147.814 39.7805C147.396 39.938 146.911 40.0167 146.359 40.0167H145.023V39.0273ZM145.023 40.4155V39.4408H146.359C146.989 39.4408 147.526 39.5146 147.969 39.6623C148.417 39.81 148.781 40.0143 149.062 40.2752C149.342 40.5311 149.547 40.824 149.675 41.1538C149.808 41.4836 149.874 41.8331 149.874 42.2023C149.874 42.7044 149.783 43.1524 149.601 43.5462C149.424 43.9351 149.17 44.2649 148.84 44.5356C148.511 44.8063 148.124 45.0106 147.681 45.1484C147.243 45.2863 146.765 45.3552 146.249 45.3552C145.786 45.3552 145.343 45.2912 144.92 45.1632C144.496 45.0352 144.117 44.8457 143.782 44.5947C143.448 44.3387 143.182 44.0212 142.985 43.6422C142.793 43.2582 142.697 42.8152 142.697 42.3131H144.477C144.477 42.633 144.55 42.9161 144.698 43.1622C144.851 43.4034 145.062 43.5929 145.333 43.7308C145.609 43.8686 145.924 43.9375 146.278 43.9375C146.652 43.9375 146.975 43.8711 147.245 43.7382C147.516 43.6052 147.723 43.4083 147.866 43.1474C148.013 42.8866 148.087 42.5715 148.087 42.2023C148.087 41.7839 148.006 41.4443 147.844 41.1834C147.681 40.9225 147.45 40.7305 147.149 40.6074C146.849 40.4794 146.495 40.4155 146.086 40.4155H145.023Z" fill="#217039"/>
<rect x="12" y="80.5371" width="151.219" height="181.463" rx="9.07317" fill="white"/>
<rect x="11.5" y="80.0371" width="152.219" height="182.463" rx="9.57317" stroke="black" stroke-opacity="0.05"/>
<path d="M87.6089 127.415C117.675 127.415 142.048 151.788 142.048 181.854C142.048 211.92 117.675 236.293 87.6089 236.293C57.5431 236.293 33.1699 211.92 33.1699 181.854C33.1699 151.788 57.5431 127.415 87.6089 127.415ZM87.6089 222.683C110.158 222.683 128.438 204.403 128.438 181.854C128.438 159.305 110.158 141.025 87.6089 141.025C65.0596 141.025 46.7797 159.305 46.7797 181.854C46.7797 204.403 65.0596 222.683 87.6089 222.683Z" fill="black" fill-opacity="0.06"/>
<path d="M89.2713 134.249C89.4025 130.493 92.5668 127.511 96.2771 128.109C103.043 129.201 109.563 131.563 115.484 135.093C123.36 139.788 129.923 146.397 134.563 154.306C139.203 162.215 141.771 171.168 142.027 180.334C142.219 187.225 141.101 194.069 138.753 200.507C137.465 204.038 133.318 205.345 129.976 203.627C126.633 201.91 125.377 197.815 126.516 194.234C127.901 189.881 128.551 185.312 128.422 180.714C128.23 173.839 126.305 167.125 122.825 161.193C119.345 155.261 114.423 150.305 108.515 146.783C104.564 144.428 100.258 142.766 95.7835 141.851C92.1014 141.099 89.1402 138.005 89.2713 134.249Z" fill="#44C66B"/>
<path d="M85.9465 134.249C85.8154 130.493 82.651 127.511 78.9407 128.11C71.8928 129.246 65.1144 131.762 59.0028 135.537C50.9546 140.507 44.3406 147.489 39.8124 155.795C35.2843 164.1 32.9984 173.441 33.18 182.899C33.3615 192.357 36.0044 201.604 40.848 209.729C45.6916 217.854 52.5688 224.577 60.8019 229.235C69.0349 233.893 78.3396 236.326 87.7989 236.293C97.2583 236.26 106.546 233.762 114.746 229.047C120.973 225.466 126.41 220.7 130.762 215.041C133.053 212.062 131.936 207.86 128.694 205.959C125.452 204.057 121.322 205.19 118.909 208.071C115.839 211.736 112.137 214.848 107.962 217.249C101.812 220.785 94.8459 222.658 87.7514 222.683C80.6569 222.708 73.6784 220.884 67.5036 217.39C61.3289 213.896 56.1709 208.854 52.5382 202.76C48.9055 196.666 46.9234 189.731 46.7872 182.638C46.651 175.545 48.3654 168.538 51.7615 162.309C55.1576 156.081 60.1182 150.844 66.1543 147.116C70.2523 144.585 74.7499 142.809 79.4344 141.851C83.1165 141.099 86.0777 138.005 85.9465 134.249Z" fill="#217039"/>
<path d="M27.4706 102.635H25.6335L25.6453 101.459H27.4706C28.0022 101.459 28.4472 101.343 28.8055 101.111C29.1678 100.878 29.4396 100.546 29.6207 100.112C29.8058 99.6793 29.8983 99.1634 29.8983 98.5648V98.0982C29.8983 97.6335 29.8452 97.222 29.7389 96.8636C29.6365 96.5053 29.4829 96.204 29.2781 95.9598C29.0773 95.7157 28.8292 95.5306 28.5338 95.4046C28.2424 95.2786 27.9057 95.2156 27.5237 95.2156H25.598V94.0342H27.5237C28.0947 94.0342 28.6165 94.1306 29.0891 94.3236C29.5616 94.5126 29.9692 94.7863 30.3118 95.1447C30.6584 95.503 30.9242 95.9323 31.1093 96.4324C31.2944 96.9325 31.3869 97.4917 31.3869 98.11V98.5648C31.3869 99.1831 31.2944 99.7423 31.1093 100.242C30.9242 100.743 30.6584 101.172 30.3118 101.53C29.9653 101.885 29.5518 102.158 29.0714 102.351C28.5949 102.54 28.0613 102.635 27.4706 102.635ZM26.4546 94.0342V102.635H24.9719V94.0342H26.4546ZM32.462 99.51V99.3741C32.462 98.9133 32.5289 98.4861 32.6628 98.0923C32.7967 97.6945 32.9897 97.35 33.2417 97.0585C33.4977 96.7632 33.8088 96.5348 34.175 96.3733C34.5452 96.2079 34.9626 96.1252 35.4273 96.1252C35.8959 96.1252 36.3134 96.2079 36.6796 96.3733C37.0498 96.5348 37.3628 96.7632 37.6188 97.0585C37.8748 97.35 38.0697 97.6945 38.2036 98.0923C38.3375 98.4861 38.4044 98.9133 38.4044 99.3741V99.51C38.4044 99.9707 38.3375 100.398 38.2036 100.792C38.0697 101.186 37.8748 101.53 37.6188 101.826C37.3628 102.117 37.0517 102.345 36.6855 102.511C36.3193 102.672 35.9038 102.753 35.4391 102.753C34.9705 102.753 34.5511 102.672 34.1809 102.511C33.8147 102.345 33.5036 102.117 33.2476 101.826C32.9916 101.53 32.7967 101.186 32.6628 100.792C32.5289 100.398 32.462 99.9707 32.462 99.51ZM33.8856 99.3741V99.51C33.8856 99.7974 33.9151 100.069 33.9742 100.325C34.0332 100.581 34.1258 100.806 34.2518 100.999C34.3778 101.191 34.5393 101.343 34.7362 101.453C34.9331 101.564 35.1674 101.619 35.4391 101.619C35.703 101.619 35.9314 101.564 36.1243 101.453C36.3212 101.343 36.4827 101.191 36.6087 100.999C36.7347 100.806 36.8273 100.581 36.8863 100.325C36.9493 100.069 36.9808 99.7974 36.9808 99.51V99.3741C36.9808 99.0906 36.9493 98.8228 36.8863 98.5707C36.8273 98.3148 36.7328 98.0883 36.6028 97.8914C36.4768 97.6945 36.3153 97.541 36.1184 97.4307C35.9255 97.3165 35.6951 97.2594 35.4273 97.2594C35.1595 97.2594 34.9272 97.3165 34.7303 97.4307C34.5373 97.541 34.3778 97.6945 34.2518 97.8914C34.1258 98.0883 34.0332 98.3148 33.9742 98.5707C33.9151 98.8228 33.8856 99.0906 33.8856 99.3741ZM41.0094 97.6079V102.635H39.5858V96.2434H40.9267L41.0094 97.6079ZM40.7554 99.2028L40.2947 99.1969C40.2986 98.744 40.3616 98.3286 40.4837 97.9505C40.6097 97.5725 40.783 97.2476 41.0035 96.9758C41.228 96.7041 41.4958 96.4954 41.8069 96.3497C42.118 96.2001 42.4645 96.1252 42.8465 96.1252C43.1537 96.1252 43.4313 96.1686 43.6794 96.2552C43.9314 96.3379 44.1461 96.4738 44.3233 96.6628C44.5044 96.8518 44.6422 97.0979 44.7368 97.4012C44.8313 97.7004 44.8785 98.0686 44.8785 98.5058V102.635H43.449V98.4999C43.449 98.1927 43.4037 97.9505 43.3132 97.7733C43.2265 97.5921 43.0985 97.4642 42.9292 97.3893C42.7638 97.3106 42.5571 97.2712 42.309 97.2712C42.0648 97.2712 41.8463 97.3224 41.6533 97.4248C41.4603 97.5272 41.2969 97.667 41.163 97.8442C41.0331 98.0214 40.9326 98.2262 40.8618 98.4585C40.7909 98.6909 40.7554 98.9389 40.7554 99.2028ZM50.1771 101.128V96.2434H51.6066V102.635H50.2598L50.1771 101.128ZM50.3779 99.7994L50.8564 99.7876C50.8564 100.217 50.8092 100.613 50.7146 100.975C50.6201 101.333 50.4744 101.646 50.2775 101.914C50.0806 102.178 49.8286 102.385 49.5214 102.534C49.2143 102.68 48.8461 102.753 48.4168 102.753C48.1057 102.753 47.8202 102.708 47.5603 102.617C47.3004 102.526 47.0759 102.387 46.8869 102.198C46.7018 102.009 46.5581 101.762 46.4557 101.459C46.3533 101.156 46.3021 100.794 46.3021 100.372V96.2434H47.7257V100.384C47.7257 100.617 47.7533 100.811 47.8084 100.969C47.8635 101.123 47.9384 101.247 48.0329 101.341C48.1274 101.436 48.2376 101.503 48.3637 101.542C48.4897 101.581 48.6236 101.601 48.7653 101.601C49.1709 101.601 49.4899 101.522 49.7223 101.365C49.9585 101.203 50.1259 100.987 50.2244 100.715C50.3268 100.443 50.3779 100.138 50.3779 99.7994ZM55.9955 96.2434V97.283H52.3922V96.2434H55.9955ZM53.4319 94.678H54.8555V100.869C54.8555 101.065 54.883 101.217 54.9382 101.323C54.9972 101.426 55.078 101.495 55.1803 101.53C55.2827 101.566 55.4028 101.583 55.5407 101.583C55.6391 101.583 55.7336 101.577 55.8242 101.566C55.9148 101.554 55.9876 101.542 56.0428 101.53L56.0487 102.617C55.9305 102.652 55.7927 102.684 55.6352 102.712C55.4816 102.739 55.3044 102.753 55.1036 102.753C54.7767 102.753 54.4873 102.696 54.2352 102.582C53.9832 102.463 53.7863 102.272 53.6445 102.009C53.5028 101.745 53.4319 101.394 53.4319 100.957V94.678ZM65.3286 99.8348H66.8053C66.7581 100.398 66.6006 100.9 66.3328 101.341C66.065 101.778 65.6889 102.123 65.2045 102.375C64.7202 102.627 64.1314 102.753 63.4383 102.753C62.9067 102.753 62.4282 102.658 62.0029 102.469C61.5776 102.276 61.2134 102.005 60.9101 101.654C60.6069 101.3 60.3746 100.873 60.2131 100.372C60.0556 99.8723 59.9768 99.3131 59.9768 98.6948V97.98C59.9768 97.3618 60.0576 96.8026 60.219 96.3025C60.3844 95.8023 60.6207 95.375 60.9279 95.0206C61.235 94.6623 61.6032 94.3886 62.0325 94.1996C62.4657 94.0105 62.952 93.916 63.4915 93.916C64.1767 93.916 64.7556 94.042 65.2282 94.2941C65.7007 94.5461 66.067 94.8946 66.3269 95.3396C66.5907 95.7846 66.7522 96.2946 66.8113 96.8695H65.3345C65.2951 96.4994 65.2085 96.1823 65.0746 95.9185C64.9446 95.6546 64.7517 95.4538 64.4957 95.316C64.2397 95.1742 63.905 95.1033 63.4915 95.1033C63.1528 95.1033 62.8575 95.1663 62.6055 95.2924C62.3534 95.4184 62.1427 95.6035 61.9734 95.8476C61.8041 96.0918 61.6761 96.393 61.5895 96.7514C61.5068 97.1058 61.4654 97.5114 61.4654 97.9682V98.6948C61.4654 99.128 61.5028 99.5218 61.5776 99.8762C61.6564 100.227 61.7745 100.528 61.9321 100.78C62.0935 101.032 62.2983 101.227 62.5464 101.365C62.7945 101.503 63.0918 101.572 63.4383 101.572C63.8597 101.572 64.2004 101.505 64.4603 101.371C64.7241 101.237 64.923 101.042 65.0569 100.786C65.1947 100.526 65.2853 100.209 65.3286 99.8348ZM69.4162 93.5616V102.635H67.9986V93.5616H69.4162ZM69.1681 99.2028L68.7074 99.1969C68.7113 98.7558 68.7724 98.3482 68.8905 97.9741C69.0126 97.6 69.1819 97.2751 69.3985 96.9995C69.619 96.7199 69.8829 96.5053 70.1901 96.3556C70.4972 96.202 70.8379 96.1252 71.212 96.1252C71.527 96.1252 71.8106 96.1686 72.0626 96.2552C72.3186 96.3418 72.5391 96.4816 72.7242 96.6746C72.9093 96.8636 73.0491 97.1117 73.1436 97.4189C73.242 97.7221 73.2912 98.0923 73.2912 98.5294V102.635H71.8617V98.5176C71.8617 98.2104 71.8165 97.9663 71.7259 97.7851C71.6392 97.604 71.5113 97.474 71.3419 97.3952C71.1726 97.3125 70.9658 97.2712 70.7217 97.2712C70.4657 97.2712 70.2393 97.3224 70.0424 97.4248C69.8494 97.5272 69.688 97.667 69.558 97.8442C69.4281 98.0214 69.3296 98.2262 69.2627 98.4585C69.1997 98.6909 69.1681 98.9389 69.1681 99.2028ZM78.3358 101.353V98.3049C78.3358 98.0765 78.2945 97.8796 78.2118 97.7142C78.1291 97.5488 78.0031 97.4208 77.8337 97.3303C77.6683 97.2397 77.4596 97.1944 77.2076 97.1944C76.9752 97.1944 76.7744 97.2338 76.6051 97.3125C76.4357 97.3913 76.3038 97.4976 76.2093 97.6315C76.1148 97.7654 76.0675 97.917 76.0675 98.0864H74.6499C74.6499 97.8343 74.7109 97.5902 74.833 97.3539C74.9551 97.1176 75.1323 96.9069 75.3646 96.7218C75.5969 96.5368 75.8746 96.3911 76.1975 96.2847C76.5204 96.1784 76.8827 96.1252 77.2844 96.1252C77.7648 96.1252 78.1901 96.206 78.5603 96.3674C78.9344 96.5289 79.2278 96.773 79.4404 97.0999C79.657 97.4228 79.7653 97.8284 79.7653 98.3167V101.158C79.7653 101.449 79.785 101.711 79.8244 101.944C79.8677 102.172 79.9288 102.371 80.0075 102.54V102.635H78.5485C78.4815 102.481 78.4284 102.286 78.389 102.05C78.3536 101.81 78.3358 101.577 78.3358 101.353ZM78.5426 98.748L78.5544 99.6281H77.5325C77.2686 99.6281 77.0363 99.6537 76.8354 99.7049C76.6346 99.7521 76.4672 99.823 76.3334 99.9175C76.1995 100.012 76.099 100.126 76.0321 100.26C75.9651 100.394 75.9317 100.546 75.9317 100.715C75.9317 100.884 75.9711 101.04 76.0498 101.182C76.1286 101.319 76.2428 101.428 76.3924 101.507C76.546 101.585 76.7311 101.625 76.9477 101.625C77.2391 101.625 77.4931 101.566 77.7097 101.447C77.9302 101.325 78.1035 101.178 78.2295 101.004C78.3555 100.827 78.4225 100.66 78.4303 100.502L78.8911 101.134C78.8438 101.296 78.7631 101.469 78.6489 101.654C78.5347 101.839 78.3851 102.016 78.2 102.186C78.0188 102.351 77.8003 102.487 77.5443 102.593C77.2923 102.7 77.0008 102.753 76.6701 102.753C76.2526 102.753 75.8805 102.67 75.5536 102.505C75.2268 102.335 74.9708 102.109 74.7857 101.826C74.6006 101.538 74.5081 101.213 74.5081 100.851C74.5081 100.512 74.5711 100.213 74.6971 99.953C74.8271 99.6891 75.0161 99.4686 75.2642 99.2914C75.5162 99.1142 75.8234 98.9803 76.1857 98.8897C76.548 98.7952 76.9615 98.748 77.4262 98.748H78.5426ZM82.6834 97.4602V102.635H81.2598V96.2434H82.6184L82.6834 97.4602ZM84.6386 96.202L84.6268 97.5252C84.5402 97.5094 84.4456 97.4976 84.3433 97.4898C84.2448 97.4819 84.1464 97.4779 84.0479 97.4779C83.8038 97.4779 83.5891 97.5134 83.404 97.5843C83.219 97.6512 83.0634 97.7497 82.9374 97.8796C82.8153 98.0056 82.7208 98.1592 82.6539 98.3404C82.5869 98.5215 82.5475 98.7243 82.5357 98.9488L82.2108 98.9724C82.2108 98.5707 82.2502 98.1986 82.329 97.856C82.4077 97.5134 82.5259 97.2121 82.6834 96.9522C82.8448 96.6923 83.0457 96.4895 83.2859 96.3438C83.5301 96.1981 83.8116 96.1252 84.1306 96.1252C84.2172 96.1252 84.3098 96.1331 84.4082 96.1489C84.5106 96.1646 84.5874 96.1823 84.6386 96.202ZM88.7558 96.2434V97.283H85.1525V96.2434H88.7558ZM86.1922 94.678H87.6157V100.869C87.6157 101.065 87.6433 101.217 87.6984 101.323C87.7575 101.426 87.8382 101.495 87.9406 101.53C88.043 101.566 88.1631 101.583 88.301 101.583C88.3994 101.583 88.4939 101.577 88.5845 101.566C88.6751 101.554 88.7479 101.542 88.8031 101.53L88.809 102.617C88.6908 102.652 88.553 102.684 88.3955 102.712C88.2419 102.739 88.0647 102.753 87.8638 102.753C87.537 102.753 87.2475 102.696 86.9955 102.582C86.7435 102.463 86.5466 102.272 86.4048 102.009C86.263 101.745 86.1922 101.394 86.1922 100.957V94.678Z" fill="black" fill-opacity="0.76"/>
</g>
</g>
</g>
<defs>
<filter id="filter0_ddd_17223_45963" x="4" y="11" width="559.383" height="271.001" filterUnits="userSpaceOnUse" color-interpolation-filters="sRGB">
<feFlood flood-opacity="0" result="BackgroundImageFix"/>
<feColorMatrix in="SourceAlpha" type="matrix" values="0 0 0 0 0 0 0 0 0 0 0 0 0 0 0 0 0 0 127 0" result="hardAlpha"/>
<feOffset dy="1"/>
<feGaussianBlur stdDeviation="1.5"/>
<feColorMatrix type="matrix" values="0 0 0 0 0 0 0 0 0 0 0 0 0 0 0 0 0 0 0.03 0"/>
<feBlend mode="normal" in2="BackgroundImageFix" result="effect1_dropShadow_17223_45963"/>
<feColorMatrix in="SourceAlpha" type="matrix" values="0 0 0 0 0 0 0 0 0 0 0 0 0 0 0 0 0 0 127 0" result="hardAlpha"/>
<feOffset dy="5"/>
<feGaussianBlur stdDeviation="2.5"/>
<feColorMatrix type="matrix" values="0 0 0 0 0 0 0 0 0 0 0 0 0 0 0 0 0 0 0.03 0"/>
<feBlend mode="normal" in2="effect1_dropShadow_17223_45963" result="effect2_dropShadow_17223_45963"/>
<feColorMatrix in="SourceAlpha" type="matrix" values="0 0 0 0 0 0 0 0 0 0 0 0 0 0 0 0 0 0 127 0" result="hardAlpha"/>
<feOffset dy="12"/>
<feGaussianBlur stdDeviation="3.5"/>
<feColorMatrix type="matrix" values="0 0 0 0 0 0 0 0 0 0 0 0 0 0 0 0 0 0 0.02 0"/>
<feBlend mode="normal" in2="effect2_dropShadow_17223_45963" result="effect3_dropShadow_17223_45963"/>
<feBlend mode="normal" in="SourceGraphic" in2="effect3_dropShadow_17223_45963" result="shape"/>
</filter>
<linearGradient id="paint0_linear_17223_45963" x1="492.602" y1="132.5" x2="0.000236603" y2="132.155" gradientUnits="userSpaceOnUse">
<stop stop-color="#737373" stop-opacity="0"/>
<stop offset="0.1" stop-color="#949494"/>
</linearGradient>
<clipPath id="clip0_17223_45963">
<rect width="510" height="276" fill="white"/>
</clipPath>
<clipPath id="clip1_17223_45963">
<path d="M242.611 127.681H257.812V239.189H242.611V127.681Z" fill="white"/>
</clipPath>
<clipPath id="clip2_17223_45963">
<path d="M326.756 69.6025H341.956V239.188H326.756V69.6025Z" fill="white"/>
</clipPath>
<clipPath id="clip3_17223_45963">
<path d="M410.357 90.5117H425.558V239.19H410.357V90.5117Z" fill="white"/>
</clipPath>
<clipPath id="clip4_17223_45963">
<path d="M257.266 79.0234H272.466V239.317H257.266V79.0234Z" fill="white"/>
</clipPath>
<clipPath id="clip5_17223_45963">
<path d="M341.953 115.031H356.068V239.317H341.953V115.031Z" fill="white"/>
</clipPath>
<clipPath id="clip6_17223_45963">
<path d="M425.555 78.8955H440.755V239.189H425.555V78.8955Z" fill="white"/>
</clipPath>
<clipPath id="clip7_17223_45963">
<path d="M272.725 101.726H287.847V239.335H272.725V101.726Z" fill="white"/>
</clipPath>
<clipPath id="clip8_17223_45963">
<path d="M355.898 131.969H371.02V239.335H355.898V131.969Z" fill="white"/>
</clipPath>
<clipPath id="clip9_17223_45963">
<path d="M440.58 106.261H455.702V239.334H440.58V106.261Z" fill="white"/>
</clipPath>
<clipPath id="clip10_17223_45963">
<path d="M287.666 103.415H301.781V239.316H287.666V103.415Z" fill="white"/>
</clipPath>
<clipPath id="clip11_17223_45963">
<path d="M371.268 146.265H386.468V239.188H371.268V146.265Z" fill="white"/>
</clipPath>
<clipPath id="clip12_17223_45963">
<path d="M455.953 123.033H471.153V239.188H455.953V123.033Z" fill="white"/>
</clipPath>
</defs>
</svg>
