<svg width="513" height="276" viewBox="0 0 513 276" fill="none" xmlns="http://www.w3.org/2000/svg">
<g clip-path="url(#clip0_17223_44714)">
<mask id="mask0_17223_44714" style="mask-type:alpha" maskUnits="userSpaceOnUse" x="0" y="0" width="513" height="276">
<rect width="513" height="276" fill="url(#paint0_linear_17223_44714)"/>
</mask>
<g mask="url(#mask0_17223_44714)">
<g filter="url(#filter0_ddd_17223_44714)">
<path d="M18 23.7638C18 18.3714 22.3714 14 27.7638 14H503.26C508.652 14 513.024 18.3714 513.024 23.7638V252.236C513.024 257.629 508.652 262 503.26 262H27.7638C22.3714 262 18 257.629 18 252.236V23.7638Z" fill="white"/>
<path d="M18 51.1016H513.024V252.235C513.024 257.628 508.652 261.999 503.26 261.999H27.7638C22.3714 261.999 18 257.628 18 252.235V51.1016Z" fill="#F5F5F5"/>
<path d="M55.0166 35.3924V36.5957H50.3426V35.3924H55.0166ZM50.7719 27.7919V36.5957H49.2543V27.7919H50.7719ZM54.4059 31.4682V32.6534H50.3426V31.4682H54.4059ZM54.9864 27.7919V29.0012H50.3426V27.7919H54.9864ZM57.5562 31.4501V36.5957H56.099V30.0533H57.4715L57.5562 31.4501ZM57.2962 33.0827L56.8245 33.0766C56.8286 32.613 56.8931 32.1878 57.018 31.8008C57.147 31.4138 57.3244 31.0813 57.5501 30.8031C57.7799 30.525 58.054 30.3113 58.3725 30.1622C58.6909 30.009 59.0456 29.9324 59.4366 29.9324C59.7511 29.9324 60.0353 29.9768 60.2892 30.0654C60.5472 30.1501 60.7669 30.2892 60.9483 30.4826C61.1337 30.6761 61.2748 30.9281 61.3715 31.2385C61.4683 31.5448 61.5167 31.9217 61.5167 32.3692V36.5957H60.0534V32.3631C60.0534 32.0487 60.007 31.8008 59.9143 31.6194C59.8256 31.434 59.6946 31.303 59.5213 31.2264C59.352 31.1457 59.1404 31.1054 58.8864 31.1054C58.6365 31.1054 58.4128 31.1578 58.2152 31.2626C58.0177 31.3675 57.8504 31.5106 57.7134 31.692C57.5804 31.8734 57.4776 32.083 57.405 32.3208C57.3324 32.5586 57.2962 32.8126 57.2962 33.0827ZM65.8883 36.7166C65.4046 36.7166 64.9672 36.638 64.5762 36.4808C64.1892 36.3196 63.8587 36.0959 63.5846 35.8097C63.3145 35.5234 63.1069 35.1869 62.9618 34.7999C62.8167 34.4129 62.7441 33.9957 62.7441 33.5482V33.3064C62.7441 32.7944 62.8187 32.3309 62.9678 31.9157C63.117 31.5005 63.3246 31.1457 63.5906 30.8515C63.8567 30.5532 64.1711 30.3254 64.5339 30.1682C64.8967 30.011 65.2897 29.9324 65.713 29.9324C66.1806 29.9324 66.5897 30.011 66.9404 30.1682C67.2911 30.3254 67.5813 30.5471 67.8111 30.8333C68.0449 31.1155 68.2182 31.4521 68.3311 31.8431C68.448 32.2341 68.5065 32.6654 68.5065 33.1371V33.7599H63.4516V32.7138H67.0674V32.5989C67.0593 32.3369 67.0069 32.091 66.9102 31.8613C66.8175 31.6315 66.6744 31.4461 66.4809 31.305C66.2874 31.1639 66.0294 31.0933 65.7069 31.0933C65.4651 31.0933 65.2494 31.1457 65.0599 31.2506C64.8745 31.3513 64.7193 31.4985 64.5944 31.692C64.4694 31.8854 64.3726 32.1192 64.3041 32.3934C64.2396 32.6634 64.2074 32.9678 64.2074 33.3064V33.5482C64.2074 33.8344 64.2457 34.1005 64.3223 34.3464C64.4029 34.5882 64.5198 34.7999 64.673 34.9813C64.8261 35.1627 65.0116 35.3058 65.2292 35.4106C65.4469 35.5114 65.6948 35.5617 65.973 35.5617C66.3237 35.5617 66.6361 35.4912 66.9102 35.3501C67.1843 35.209 67.4221 35.0095 67.6237 34.7515L68.3916 35.4952C68.2505 35.7008 68.0671 35.8983 67.8413 36.0878C67.6156 36.2732 67.3395 36.4244 67.013 36.5413C66.6905 36.6582 66.3156 36.7166 65.8883 36.7166ZM71.1065 31.2989V36.5957H69.6493V30.0533H71.04L71.1065 31.2989ZM73.1079 30.011L73.0958 31.3654C73.0071 31.3493 72.9104 31.3372 72.8056 31.3292C72.7048 31.3211 72.604 31.3171 72.5032 31.3171C72.2533 31.3171 72.0336 31.3533 71.8442 31.4259C71.6547 31.4944 71.4955 31.5952 71.3665 31.7282C71.2415 31.8572 71.1448 32.0144 71.0762 32.1999C71.0077 32.3853 70.9674 32.5929 70.9553 32.8227L70.6228 32.8468C70.6228 32.4357 70.6631 32.0547 70.7437 31.704C70.8243 31.3533 70.9452 31.045 71.1065 30.7789C71.2718 30.5129 71.4773 30.3053 71.7232 30.1561C71.9732 30.007 72.2614 29.9324 72.5879 29.9324C72.6766 29.9324 72.7713 29.9405 72.8721 29.9566C72.9769 29.9727 73.0555 29.9909 73.1079 30.011ZM78.0902 30.0533H79.4144V36.4143C79.4144 37.0028 79.2895 37.5027 79.0396 37.9139C78.7896 38.325 78.4409 38.6374 77.9935 38.8511C77.5461 39.0687 77.0281 39.1776 76.4395 39.1776C76.1896 39.1776 75.9115 39.1413 75.6051 39.0687C75.3028 38.9962 75.0085 38.8793 74.7223 38.718C74.4401 38.5608 74.2043 38.3532 74.0149 38.0952L74.6981 37.2366C74.9319 37.5148 75.1899 37.7183 75.4721 37.8473C75.7543 37.9763 76.0505 38.0408 76.3609 38.0408C76.6955 38.0408 76.9797 37.9783 77.2135 37.8534C77.4513 37.7325 77.6347 37.5531 77.7637 37.3152C77.8927 37.0774 77.9572 36.7872 77.9572 36.4445V31.5347L78.0902 30.0533ZM73.646 33.3971V33.2701C73.646 32.7743 73.7065 32.3228 73.8274 31.9157C73.9484 31.5045 74.1217 31.1518 74.3474 30.8575C74.5732 30.5592 74.8473 30.3315 75.1698 30.1743C75.4922 30.013 75.8571 29.9324 76.2642 29.9324C76.6874 29.9324 77.0482 30.009 77.3465 30.1622C77.6488 30.3154 77.9008 30.535 78.1023 30.8213C78.3039 31.1034 78.4611 31.442 78.574 31.8371C78.6909 32.2281 78.7775 32.6634 78.834 33.1431V33.5482C78.7816 34.0158 78.6929 34.4431 78.5679 34.8301C78.443 35.2171 78.2777 35.5517 78.0721 35.8338C77.8665 36.116 77.6126 36.3337 77.3102 36.4869C77.0119 36.64 76.6592 36.7166 76.2521 36.7166C75.853 36.7166 75.4922 36.634 75.1698 36.4687C74.8513 36.3035 74.5772 36.0717 74.3474 35.7734C74.1217 35.4751 73.9484 35.1244 73.8274 34.7213C73.7065 34.3141 73.646 33.8727 73.646 33.3971ZM75.1032 33.2701V33.3971C75.1032 33.6954 75.1315 33.9735 75.1879 34.2315C75.2484 34.4895 75.3391 34.7172 75.46 34.9148C75.585 35.1083 75.7422 35.2614 75.9316 35.3743C76.1251 35.4831 76.3529 35.5376 76.6149 35.5376C76.9575 35.5376 77.2377 35.465 77.4554 35.3199C77.6771 35.1748 77.8464 34.9793 77.9633 34.7334C78.0842 34.4834 78.1688 34.2053 78.2172 33.8989V32.8045C78.193 32.5667 78.1426 32.345 78.0661 32.1394C77.9935 31.9338 77.8947 31.7544 77.7698 31.6013C77.6448 31.444 77.4876 31.3231 77.2981 31.2385C77.1087 31.1498 76.885 31.1054 76.627 31.1054C76.365 31.1054 76.1372 31.1619 75.9437 31.2747C75.7502 31.3876 75.591 31.5428 75.466 31.7403C75.3451 31.9378 75.2544 32.1676 75.1939 32.4296C75.1335 32.6916 75.1032 32.9718 75.1032 33.2701ZM82.8247 35.8822L84.6024 30.0533H86.1624L83.5382 37.5934C83.4777 37.7546 83.3991 37.93 83.3024 38.1194C83.2056 38.3089 83.0786 38.4883 82.9214 38.6576C82.7683 38.8309 82.5768 38.97 82.347 39.0748C82.1172 39.1836 81.8391 39.238 81.5126 39.238C81.3836 39.238 81.2586 39.226 81.1377 39.2018C81.0208 39.1816 80.9099 39.1594 80.8051 39.1353L80.7991 38.0227C80.8394 38.0267 80.8878 38.0308 80.9442 38.0348C81.0047 38.0388 81.0531 38.0408 81.0893 38.0408C81.3312 38.0408 81.5327 38.0106 81.694 37.9501C81.8552 37.8937 81.9862 37.801 82.087 37.672C82.1918 37.543 82.2805 37.3697 82.3531 37.152L82.8247 35.8822ZM81.821 30.0533L83.3749 34.951L83.6349 36.4869L82.6252 36.7469L80.2489 30.0533H81.821ZM90.8424 27.7919H92.1968L94.7424 34.5822L97.282 27.7919H98.6364L95.2745 36.5957H94.1982L90.8424 27.7919ZM90.2257 27.7919H91.5136L91.7373 33.6692V36.5957H90.2257V27.7919ZM97.9652 27.7919H99.2592V36.5957H97.7415V33.6692L97.9652 27.7919ZM100.638 33.3971V33.258C100.638 32.7864 100.706 32.349 100.843 31.9459C100.98 31.5388 101.178 31.1861 101.436 30.8878C101.698 30.5854 102.016 30.3516 102.391 30.1864C102.77 30.0171 103.198 29.9324 103.673 29.9324C104.153 29.9324 104.58 30.0171 104.955 30.1864C105.334 30.3516 105.654 30.5854 105.916 30.8878C106.178 31.1861 106.378 31.5388 106.515 31.9459C106.652 32.349 106.721 32.7864 106.721 33.258V33.3971C106.721 33.8687 106.652 34.3061 106.515 34.7092C106.378 35.1123 106.178 35.465 105.916 35.7673C105.654 36.0656 105.336 36.2994 104.961 36.4687C104.586 36.634 104.161 36.7166 103.685 36.7166C103.206 36.7166 102.776 36.634 102.397 36.4687C102.022 36.2994 101.704 36.0656 101.442 35.7673C101.18 35.465 100.98 35.1123 100.843 34.7092C100.706 34.3061 100.638 33.8687 100.638 33.3971ZM102.095 33.258V33.3971C102.095 33.6913 102.125 33.9695 102.186 34.2315C102.246 34.4935 102.341 34.7233 102.47 34.9208C102.599 35.1183 102.764 35.2735 102.966 35.3864C103.167 35.4993 103.407 35.5557 103.685 35.5557C103.955 35.5557 104.189 35.4993 104.387 35.3864C104.588 35.2735 104.753 35.1183 104.882 34.9208C105.011 34.7233 105.106 34.4935 105.167 34.2315C105.231 33.9695 105.263 33.6913 105.263 33.3971V33.258C105.263 32.9678 105.231 32.6937 105.167 32.4357C105.106 32.1737 105.009 31.9419 104.876 31.7403C104.747 31.5388 104.582 31.3816 104.381 31.2687C104.183 31.1518 103.947 31.0933 103.673 31.0933C103.399 31.0933 103.161 31.1518 102.96 31.2687C102.762 31.3816 102.599 31.5388 102.47 31.7403C102.341 31.9419 102.246 32.1737 102.186 32.4357C102.125 32.6937 102.095 32.9678 102.095 33.258ZM109.387 31.4501V36.5957H107.93V30.0533H109.303L109.387 31.4501ZM109.127 33.0827L108.656 33.0766C108.66 32.613 108.724 32.1878 108.849 31.8008C108.978 31.4138 109.155 31.0813 109.381 30.8031C109.611 30.525 109.885 30.3113 110.203 30.1622C110.522 30.009 110.877 29.9324 111.268 29.9324C111.582 29.9324 111.866 29.9768 112.12 30.0654C112.378 30.1501 112.598 30.2892 112.779 30.4826C112.965 30.6761 113.106 30.9281 113.203 31.2385C113.299 31.5448 113.348 31.9217 113.348 32.3692V36.5957H111.884V32.3631C111.884 32.0487 111.838 31.8008 111.745 31.6194C111.657 31.434 111.526 31.303 111.352 31.2264C111.183 31.1457 110.971 31.1054 110.717 31.1054C110.467 31.1054 110.244 31.1578 110.046 31.2626C109.849 31.3675 109.681 31.5106 109.544 31.692C109.411 31.8734 109.309 32.083 109.236 32.3208C109.163 32.5586 109.127 32.8126 109.127 33.0827ZM116.395 30.0533V36.5957H114.932V30.0533H116.395ZM114.835 28.3361C114.835 28.1144 114.908 27.931 115.053 27.7859C115.202 27.6367 115.408 27.5622 115.67 27.5622C115.928 27.5622 116.131 27.6367 116.28 27.7859C116.429 27.931 116.504 28.1144 116.504 28.3361C116.504 28.5538 116.429 28.7352 116.28 28.8803C116.131 29.0254 115.928 29.098 115.67 29.098C115.408 29.098 115.202 29.0254 115.053 28.8803C114.908 28.7352 114.835 28.5538 114.835 28.3361ZM120.99 30.0533V31.1175H117.302V30.0533H120.99ZM118.366 28.451H119.824V34.7878C119.824 34.9893 119.852 35.1445 119.908 35.2534C119.969 35.3582 120.051 35.4287 120.156 35.465C120.261 35.5013 120.384 35.5194 120.525 35.5194C120.626 35.5194 120.722 35.5134 120.815 35.5013C120.908 35.4892 120.982 35.4771 121.039 35.465L121.045 36.5776C120.924 36.6138 120.783 36.6461 120.622 36.6743C120.464 36.7025 120.283 36.7166 120.077 36.7166C119.743 36.7166 119.447 36.6582 119.189 36.5413C118.931 36.4204 118.729 36.2248 118.584 35.9548C118.439 35.6847 118.366 35.3259 118.366 34.8785V28.451ZM121.692 33.3971V33.258C121.692 32.7864 121.76 32.349 121.897 31.9459C122.035 31.5388 122.232 31.1861 122.49 30.8878C122.752 30.5854 123.071 30.3516 123.445 30.1864C123.824 30.0171 124.252 29.9324 124.727 29.9324C125.207 29.9324 125.634 30.0171 126.009 30.1864C126.388 30.3516 126.709 30.5854 126.971 30.8878C127.233 31.1861 127.432 31.5388 127.569 31.9459C127.706 32.349 127.775 32.7864 127.775 33.258V33.3971C127.775 33.8687 127.706 34.3061 127.569 34.7092C127.432 35.1123 127.233 35.465 126.971 35.7673C126.709 36.0656 126.39 36.2994 126.015 36.4687C125.64 36.634 125.215 36.7166 124.739 36.7166C124.26 36.7166 123.83 36.634 123.451 36.4687C123.077 36.2994 122.758 36.0656 122.496 35.7673C122.234 35.465 122.035 35.1123 121.897 34.7092C121.76 34.3061 121.692 33.8687 121.692 33.3971ZM123.149 33.258V33.3971C123.149 33.6913 123.179 33.9695 123.24 34.2315C123.3 34.4935 123.395 34.7233 123.524 34.9208C123.653 35.1183 123.818 35.2735 124.02 35.3864C124.221 35.4993 124.461 35.5557 124.739 35.5557C125.009 35.5557 125.243 35.4993 125.441 35.3864C125.642 35.2735 125.808 35.1183 125.937 34.9208C126.066 34.7233 126.16 34.4935 126.221 34.2315C126.285 33.9695 126.317 33.6913 126.317 33.3971V33.258C126.317 32.9678 126.285 32.6937 126.221 32.4357C126.16 32.1737 126.064 31.9419 125.931 31.7403C125.802 31.5388 125.636 31.3816 125.435 31.2687C125.237 31.1518 125.001 31.0933 124.727 31.0933C124.453 31.0933 124.215 31.1518 124.014 31.2687C123.816 31.3816 123.653 31.5388 123.524 31.7403C123.395 31.9419 123.3 32.1737 123.24 32.4357C123.179 32.6937 123.149 32.9678 123.149 33.258ZM130.459 31.2989V36.5957H129.002V30.0533H130.393L130.459 31.2989ZM132.461 30.011L132.449 31.3654C132.36 31.3493 132.263 31.3372 132.158 31.3292C132.058 31.3211 131.957 31.3171 131.856 31.3171C131.606 31.3171 131.387 31.3533 131.197 31.4259C131.008 31.4944 130.848 31.5952 130.719 31.7282C130.594 31.8572 130.498 32.0144 130.429 32.1999C130.361 32.3853 130.32 32.5929 130.308 32.8227L129.976 32.8468C129.976 32.4357 130.016 32.0547 130.097 31.704C130.177 31.3533 130.298 31.045 130.459 30.7789C130.625 30.5129 130.83 30.3053 131.076 30.1561C131.326 30.007 131.614 29.9324 131.941 29.9324C132.029 29.9324 132.124 29.9405 132.225 29.9566C132.33 29.9727 132.408 29.9909 132.461 30.011ZM134.934 30.0533V36.5957H133.471V30.0533H134.934ZM133.374 28.3361C133.374 28.1144 133.446 27.931 133.591 27.7859C133.741 27.6367 133.946 27.5622 134.208 27.5622C134.466 27.5622 134.67 27.6367 134.819 27.7859C134.968 27.931 135.043 28.1144 135.043 28.3361C135.043 28.5538 134.968 28.7352 134.819 28.8803C134.67 29.0254 134.466 29.098 134.208 29.098C133.946 29.098 133.741 29.0254 133.591 28.8803C133.446 28.7352 133.374 28.5538 133.374 28.3361ZM137.975 31.4501V36.5957H136.518V30.0533H137.891L137.975 31.4501ZM137.715 33.0827L137.244 33.0766C137.248 32.613 137.312 32.1878 137.437 31.8008C137.566 31.4138 137.743 31.0813 137.969 30.8031C138.199 30.525 138.473 30.3113 138.792 30.1622C139.11 30.009 139.465 29.9324 139.856 29.9324C140.17 29.9324 140.454 29.9768 140.708 30.0654C140.966 30.1501 141.186 30.2892 141.367 30.4826C141.553 30.6761 141.694 30.9281 141.791 31.2385C141.887 31.5448 141.936 31.9217 141.936 32.3692V36.5957H140.472V32.3631C140.472 32.0487 140.426 31.8008 140.333 31.6194C140.245 31.434 140.114 31.303 139.94 31.2264C139.771 31.1457 139.559 31.1054 139.305 31.1054C139.056 31.1054 138.832 31.1578 138.634 31.2626C138.437 31.3675 138.27 31.5106 138.132 31.692C137.999 31.8734 137.897 32.083 137.824 32.3208C137.752 32.5586 137.715 32.8126 137.715 33.0827ZM147.613 30.0533H148.938V36.4143C148.938 37.0028 148.813 37.5027 148.563 37.9139C148.313 38.325 147.964 38.6374 147.517 38.8511C147.069 39.0687 146.551 39.1776 145.963 39.1776C145.713 39.1776 145.435 39.1413 145.128 39.0687C144.826 38.9962 144.532 38.8793 144.246 38.718C143.963 38.5608 143.728 38.3532 143.538 38.0952L144.221 37.2366C144.455 37.5148 144.713 37.7183 144.995 37.8473C145.277 37.9763 145.574 38.0408 145.884 38.0408C146.219 38.0408 146.503 37.9783 146.737 37.8534C146.975 37.7325 147.158 37.5531 147.287 37.3152C147.416 37.0774 147.48 36.7872 147.48 36.4445V31.5347L147.613 30.0533ZM143.169 33.3971V33.2701C143.169 32.7743 143.23 32.3228 143.351 31.9157C143.472 31.5045 143.645 31.1518 143.871 30.8575C144.096 30.5592 144.37 30.3315 144.693 30.1743C145.015 30.013 145.38 29.9324 145.787 29.9324C146.211 29.9324 146.571 30.009 146.87 30.1622C147.172 30.3154 147.424 30.535 147.626 30.8213C147.827 31.1034 147.984 31.442 148.097 31.8371C148.214 32.2281 148.301 32.6634 148.357 33.1431V33.5482C148.305 34.0158 148.216 34.4431 148.091 34.8301C147.966 35.2171 147.801 35.5517 147.595 35.8338C147.39 36.116 147.136 36.3337 146.833 36.4869C146.535 36.64 146.182 36.7166 145.775 36.7166C145.376 36.7166 145.015 36.634 144.693 36.4687C144.374 36.3035 144.1 36.0717 143.871 35.7734C143.645 35.4751 143.472 35.1244 143.351 34.7213C143.23 34.3141 143.169 33.8727 143.169 33.3971ZM144.626 33.2701V33.3971C144.626 33.6954 144.655 33.9735 144.711 34.2315C144.772 34.4895 144.862 34.7172 144.983 34.9148C145.108 35.1083 145.265 35.2614 145.455 35.3743C145.648 35.4831 145.876 35.5376 146.138 35.5376C146.481 35.5376 146.761 35.465 146.979 35.3199C147.2 35.1748 147.37 34.9793 147.486 34.7334C147.607 34.4834 147.692 34.2053 147.74 33.8989V32.8045C147.716 32.5667 147.666 32.345 147.589 32.1394C147.517 31.9338 147.418 31.7544 147.293 31.6013C147.168 31.444 147.011 31.3231 146.821 31.2385C146.632 31.1498 146.408 31.1054 146.15 31.1054C145.888 31.1054 145.66 31.1619 145.467 31.2747C145.273 31.3876 145.114 31.5428 144.989 31.7403C144.868 31.9378 144.778 32.1676 144.717 32.4296C144.657 32.6916 144.626 32.9718 144.626 33.2701Z" fill="black" fill-opacity="0.87"/>
<rect x="18.9766" y="51.1016" width="493.071" height="1.95276" fill="black" fill-opacity="0.05"/>
<path d="M36.7511 39.7535H35.9771L36.7511 34.3358H34.0422C33.5934 34.3358 33.6011 34.0881 33.7481 33.825C33.8952 33.5618 33.7868 33.7631 33.8023 33.7321C34.8007 31.9675 36.3022 29.336 38.299 25.8223H39.073L38.299 31.24H41.0079C41.3871 31.24 41.4413 31.4954 41.3716 31.6347L41.3175 31.7508C38.2681 37.0834 36.7511 39.7535 36.7511 39.7535Z" fill="#4B63CC"/>
<g filter="url(#filter1_d_17223_44714)">
<rect x="27.918" y="61.2207" width="193.323" height="190.394" rx="3.09583" fill="white"/>
</g>
<path d="M65.8521 234.462H66.6545L68.7011 239.555L70.7435 234.462H71.5502L69.0101 240.709H68.3836L65.8521 234.462ZM65.5904 234.462H66.2983L66.4142 238.272V240.709H65.5904V234.462ZM71.0997 234.462H71.8076V240.709H70.9838V238.272L71.0997 234.462ZM75.0686 240.795C74.7453 240.795 74.4521 240.74 74.189 240.632C73.9287 240.52 73.7041 240.364 73.5153 240.164C73.3294 239.964 73.1864 239.726 73.0863 239.452C72.9861 239.177 72.9361 238.877 72.9361 238.551V238.371C72.9361 237.993 72.9919 237.657 73.1034 237.362C73.215 237.065 73.3666 236.813 73.5582 236.607C73.7499 236.401 73.9673 236.245 74.2104 236.139C74.4536 236.034 74.7053 235.981 74.9656 235.981C75.2974 235.981 75.5835 236.038 75.8237 236.152C76.0669 236.267 76.2657 236.427 76.4202 236.633C76.5746 236.836 76.689 237.076 76.7634 237.354C76.8378 237.628 76.875 237.929 76.875 238.255V238.611H73.4081V237.963H76.0812V237.903C76.0697 237.697 76.0268 237.497 75.9525 237.302C75.881 237.108 75.7665 236.947 75.6092 236.822C75.4519 236.696 75.2373 236.633 74.9656 236.633C74.7854 236.633 74.6195 236.671 74.4679 236.749C74.3163 236.823 74.1861 236.935 74.0774 237.083C73.9687 237.232 73.8843 237.414 73.8243 237.628C73.7642 237.843 73.7342 238.09 73.7342 238.371V238.551C73.7342 238.771 73.7642 238.978 73.8243 239.173C73.8872 239.365 73.9773 239.533 74.0946 239.679C74.2147 239.825 74.3592 239.94 74.5279 240.022C74.6996 240.105 74.8941 240.147 75.1115 240.147C75.3918 240.147 75.6292 240.09 75.8237 239.975C76.0183 239.861 76.1885 239.708 76.3343 239.516L76.8149 239.898C76.7148 240.05 76.5875 240.194 76.433 240.331C76.2786 240.469 76.0883 240.58 75.8624 240.666C75.6392 240.752 75.3746 240.795 75.0686 240.795ZM79.7455 236.066V236.676H77.2354V236.066H79.7455ZM78.085 234.938H78.8787V239.559C78.8787 239.716 78.9031 239.835 78.9517 239.915C79.0003 239.995 79.0632 240.048 79.1405 240.074C79.2177 240.1 79.3007 240.113 79.3893 240.113C79.4551 240.113 79.5238 240.107 79.5953 240.095C79.6697 240.081 79.7254 240.07 79.7626 240.061L79.7669 240.709C79.704 240.729 79.621 240.748 79.5181 240.765C79.4179 240.785 79.2964 240.795 79.1533 240.795C78.9588 240.795 78.7801 240.756 78.617 240.679C78.454 240.602 78.3238 240.473 78.2265 240.293C78.1322 240.11 78.085 239.864 78.085 239.555V234.938ZM82.6031 240.795C82.2799 240.795 81.9867 240.74 81.7235 240.632C81.4632 240.52 81.2386 240.364 81.0498 240.164C80.8639 239.964 80.7209 239.726 80.6208 239.452C80.5207 239.177 80.4706 238.877 80.4706 238.551V238.371C80.4706 237.993 80.5264 237.657 80.6379 237.362C80.7495 237.065 80.9011 236.813 81.0928 236.607C81.2844 236.401 81.5018 236.245 81.7449 236.139C81.9881 236.034 82.2398 235.981 82.5001 235.981C82.8319 235.981 83.118 236.038 83.3583 236.152C83.6014 236.267 83.8002 236.427 83.9547 236.633C84.1091 236.836 84.2235 237.076 84.2979 237.354C84.3723 237.628 84.4095 237.929 84.4095 238.255V238.611H80.9426V237.963H83.6157V237.903C83.6043 237.697 83.5613 237.497 83.487 237.302C83.4155 237.108 83.301 236.947 83.1437 236.822C82.9864 236.696 82.7719 236.633 82.5001 236.633C82.3199 236.633 82.154 236.671 82.0024 236.749C81.8508 236.823 81.7206 236.935 81.6119 237.083C81.5032 237.232 81.4188 237.414 81.3588 237.628C81.2987 237.843 81.2687 238.09 81.2687 238.371V238.551C81.2687 238.771 81.2987 238.978 81.3588 239.173C81.4217 239.365 81.5118 239.533 81.6291 239.679C81.7492 239.825 81.8937 239.94 82.0625 240.022C82.2341 240.105 82.4286 240.147 82.646 240.147C82.9263 240.147 83.1637 240.09 83.3583 239.975C83.5528 239.861 83.723 239.708 83.8688 239.516L84.3494 239.898C84.2493 240.05 84.122 240.194 83.9675 240.331C83.8131 240.469 83.6228 240.58 83.3969 240.666C83.1738 240.752 82.9092 240.795 82.6031 240.795ZM86.1301 236.796V240.709H85.3363V236.066H86.1086L86.1301 236.796ZM87.5803 236.041L87.576 236.779C87.5102 236.764 87.4473 236.756 87.3872 236.753C87.33 236.747 87.2642 236.744 87.1899 236.744C87.0068 236.744 86.8452 236.773 86.705 236.83C86.5649 236.887 86.4461 236.967 86.3489 237.07C86.2516 237.173 86.1744 237.296 86.1172 237.439C86.0628 237.58 86.0271 237.734 86.0099 237.903L85.7868 238.032C85.7868 237.751 85.814 237.488 85.8683 237.242C85.9255 236.996 86.0128 236.779 86.1301 236.59C86.2473 236.398 86.3961 236.249 86.5763 236.144C86.7594 236.035 86.9768 235.981 87.2285 235.981C87.2857 235.981 87.3515 235.988 87.4259 236.002C87.5002 236.014 87.5517 236.026 87.5803 236.041ZM92.9266 235.015L90.8584 240.709H90.0132L92.3945 234.462H92.9394L92.9266 235.015ZM94.66 240.709L92.5876 235.015L92.5747 234.462H93.1196L95.5096 240.709H94.66ZM94.5527 238.396V239.074H91.0429V238.396H94.5527Z" fill="black" fill-opacity="0.76"/>
<path d="M113.696 234.462H114.498L116.545 239.555L118.587 234.462H119.394L116.854 240.709H116.227L113.696 234.462ZM113.434 234.462H114.142L114.258 238.272V240.709H113.434V234.462ZM118.943 234.462H119.651V240.709H118.828V238.272L118.943 234.462ZM122.912 240.795C122.589 240.795 122.296 240.74 122.033 240.632C121.772 240.52 121.548 240.364 121.359 240.164C121.173 239.964 121.03 239.726 120.93 239.452C120.83 239.177 120.78 238.877 120.78 238.551V238.371C120.78 237.993 120.836 237.657 120.947 237.362C121.059 237.065 121.21 236.813 121.402 236.607C121.594 236.401 121.811 236.245 122.054 236.139C122.297 236.034 122.549 235.981 122.809 235.981C123.141 235.981 123.427 236.038 123.667 236.152C123.911 236.267 124.109 236.427 124.264 236.633C124.418 236.836 124.533 237.076 124.607 237.354C124.682 237.628 124.719 237.929 124.719 238.255V238.611H121.252V237.963H123.925V237.903C123.913 237.697 123.871 237.497 123.796 237.302C123.725 237.108 123.61 236.947 123.453 236.822C123.296 236.696 123.081 236.633 122.809 236.633C122.629 236.633 122.463 236.671 122.312 236.749C122.16 236.823 122.03 236.935 121.921 237.083C121.812 237.232 121.728 237.414 121.668 237.628C121.608 237.843 121.578 238.09 121.578 238.371V238.551C121.578 238.771 121.608 238.978 121.668 239.173C121.731 239.365 121.821 239.533 121.938 239.679C122.058 239.825 122.203 239.94 122.372 240.022C122.543 240.105 122.738 240.147 122.955 240.147C123.236 240.147 123.473 240.09 123.667 239.975C123.862 239.861 124.032 239.708 124.178 239.516L124.659 239.898C124.559 240.05 124.431 240.194 124.277 240.331C124.122 240.469 123.932 240.58 123.706 240.666C123.483 240.752 123.218 240.795 122.912 240.795ZM127.589 236.066V236.676H125.079V236.066H127.589ZM125.929 234.938H126.722V239.559C126.722 239.716 126.747 239.835 126.795 239.915C126.844 239.995 126.907 240.048 126.984 240.074C127.061 240.1 127.144 240.113 127.233 240.113C127.299 240.113 127.368 240.107 127.439 240.095C127.513 240.081 127.569 240.07 127.606 240.061L127.611 240.709C127.548 240.729 127.465 240.748 127.362 240.765C127.262 240.785 127.14 240.795 126.997 240.795C126.803 240.795 126.624 240.756 126.461 240.679C126.298 240.602 126.168 240.473 126.07 240.293C125.976 240.11 125.929 239.864 125.929 239.555V234.938ZM130.447 240.795C130.124 240.795 129.83 240.74 129.567 240.632C129.307 240.52 129.082 240.364 128.894 240.164C128.708 239.964 128.565 239.726 128.465 239.452C128.364 239.177 128.314 238.877 128.314 238.551V238.371C128.314 237.993 128.37 237.657 128.482 237.362C128.593 237.065 128.745 236.813 128.937 236.607C129.128 236.401 129.346 236.245 129.589 236.139C129.832 236.034 130.084 235.981 130.344 235.981C130.676 235.981 130.962 236.038 131.202 236.152C131.445 236.267 131.644 236.427 131.798 236.633C131.953 236.836 132.067 237.076 132.142 237.354C132.216 237.628 132.253 237.929 132.253 238.255V238.611H128.786V237.963H131.459V237.903C131.448 237.697 131.405 237.497 131.331 237.302C131.259 237.108 131.145 236.947 130.987 236.822C130.83 236.696 130.616 236.633 130.344 236.633C130.164 236.633 129.998 236.671 129.846 236.749C129.695 236.823 129.564 236.935 129.456 237.083C129.347 237.232 129.263 237.414 129.203 237.628C129.142 237.843 129.112 238.09 129.112 238.371V238.551C129.112 238.771 129.142 238.978 129.203 239.173C129.265 239.365 129.356 239.533 129.473 239.679C129.593 239.825 129.737 239.94 129.906 240.022C130.078 240.105 130.272 240.147 130.49 240.147C130.77 240.147 131.007 240.09 131.202 239.975C131.397 239.861 131.567 239.708 131.713 239.516L132.193 239.898C132.093 240.05 131.966 240.194 131.811 240.331C131.657 240.469 131.467 240.58 131.241 240.666C131.018 240.752 130.753 240.795 130.447 240.795ZM133.974 236.796V240.709H133.18V236.066H133.952L133.974 236.796ZM135.424 236.041L135.42 236.779C135.354 236.764 135.291 236.756 135.231 236.753C135.174 236.747 135.108 236.744 135.034 236.744C134.851 236.744 134.689 236.773 134.549 236.83C134.409 236.887 134.29 236.967 134.193 237.07C134.095 237.173 134.018 237.296 133.961 237.439C133.907 237.58 133.871 237.734 133.854 237.903L133.631 238.032C133.631 237.751 133.658 237.488 133.712 237.242C133.769 236.996 133.857 236.779 133.974 236.59C134.091 236.398 134.24 236.249 134.42 236.144C134.603 236.035 134.821 235.981 135.072 235.981C135.129 235.981 135.195 235.988 135.27 236.002C135.344 236.014 135.395 236.026 135.424 236.041ZM140.685 237.787H139.101L139.093 237.122H140.53C140.767 237.122 140.975 237.082 141.152 237.002C141.33 236.922 141.467 236.807 141.564 236.659C141.664 236.507 141.714 236.327 141.714 236.118C141.714 235.889 141.67 235.703 141.581 235.56C141.495 235.414 141.362 235.308 141.182 235.243C141.005 235.174 140.779 235.14 140.504 235.14H139.286V240.709H138.458V234.462H140.504C140.825 234.462 141.111 234.495 141.362 234.56C141.614 234.623 141.827 234.723 142.002 234.861C142.179 234.995 142.314 235.167 142.405 235.376C142.497 235.584 142.542 235.835 142.542 236.126C142.542 236.384 142.477 236.617 142.345 236.826C142.213 237.032 142.03 237.201 141.796 237.332C141.564 237.464 141.292 237.548 140.981 237.585L140.685 237.787ZM140.646 240.709H138.775L139.243 240.035H140.646C140.909 240.035 141.132 239.99 141.315 239.898C141.501 239.807 141.643 239.678 141.74 239.512C141.837 239.343 141.886 239.144 141.886 238.915C141.886 238.684 141.844 238.484 141.761 238.315C141.679 238.146 141.548 238.016 141.371 237.924C141.194 237.833 140.965 237.787 140.685 237.787H139.505L139.513 237.122H141.126L141.302 237.362C141.603 237.388 141.857 237.474 142.066 237.62C142.275 237.763 142.434 237.946 142.542 238.169C142.654 238.392 142.71 238.638 142.71 238.907C142.71 239.296 142.624 239.625 142.452 239.894C142.284 240.16 142.045 240.363 141.736 240.503C141.427 240.64 141.064 240.709 140.646 240.709Z" fill="black" fill-opacity="0.76"/>
<path d="M161.538 234.462H162.34L164.387 239.555L166.429 234.462H167.236L164.696 240.709H164.069L161.538 234.462ZM161.276 234.462H161.984L162.1 238.272V240.709H161.276V234.462ZM166.785 234.462H167.493V240.709H166.669V238.272L166.785 234.462ZM170.754 240.795C170.431 240.795 170.138 240.74 169.875 240.632C169.614 240.52 169.39 240.364 169.201 240.164C169.015 239.964 168.872 239.726 168.772 239.452C168.672 239.177 168.622 238.877 168.622 238.551V238.371C168.622 237.993 168.677 237.657 168.789 237.362C168.901 237.065 169.052 236.813 169.244 236.607C169.435 236.401 169.653 236.245 169.896 236.139C170.139 236.034 170.391 235.981 170.651 235.981C170.983 235.981 171.269 236.038 171.509 236.152C171.752 236.267 171.951 236.427 172.106 236.633C172.26 236.836 172.375 237.076 172.449 237.354C172.523 237.628 172.561 237.929 172.561 238.255V238.611H169.094V237.963H171.767V237.903C171.755 237.697 171.712 237.497 171.638 237.302C171.566 237.108 171.452 236.947 171.295 236.822C171.137 236.696 170.923 236.633 170.651 236.633C170.471 236.633 170.305 236.671 170.153 236.749C170.002 236.823 169.872 236.935 169.763 237.083C169.654 237.232 169.57 237.414 169.51 237.628C169.45 237.843 169.42 238.09 169.42 238.371V238.551C169.42 238.771 169.45 238.978 169.51 239.173C169.573 239.365 169.663 239.533 169.78 239.679C169.9 239.825 170.045 239.94 170.213 240.022C170.385 240.105 170.58 240.147 170.797 240.147C171.077 240.147 171.315 240.09 171.509 239.975C171.704 239.861 171.874 239.708 172.02 239.516L172.5 239.898C172.4 240.05 172.273 240.194 172.119 240.331C171.964 240.469 171.774 240.58 171.548 240.666C171.325 240.752 171.06 240.795 170.754 240.795ZM175.431 236.066V236.676H172.921V236.066H175.431ZM173.771 234.938H174.564V239.559C174.564 239.716 174.589 239.835 174.637 239.915C174.686 239.995 174.749 240.048 174.826 240.074C174.903 240.1 174.986 240.113 175.075 240.113C175.141 240.113 175.209 240.107 175.281 240.095C175.355 240.081 175.411 240.07 175.448 240.061L175.452 240.709C175.39 240.729 175.307 240.748 175.204 240.765C175.103 240.785 174.982 240.795 174.839 240.795C174.644 240.795 174.466 240.756 174.303 240.679C174.14 240.602 174.009 240.473 173.912 240.293C173.818 240.11 173.771 239.864 173.771 239.555V234.938ZM178.289 240.795C177.965 240.795 177.672 240.74 177.409 240.632C177.149 240.52 176.924 240.364 176.735 240.164C176.549 239.964 176.406 239.726 176.306 239.452C176.206 239.177 176.156 238.877 176.156 238.551V238.371C176.156 237.993 176.212 237.657 176.323 237.362C176.435 237.065 176.587 236.813 176.778 236.607C176.97 236.401 177.187 236.245 177.43 236.139C177.674 236.034 177.925 235.981 178.186 235.981C178.517 235.981 178.804 236.038 179.044 236.152C179.287 236.267 179.486 236.427 179.64 236.633C179.795 236.836 179.909 237.076 179.983 237.354C180.058 237.628 180.095 237.929 180.095 238.255V238.611H176.628V237.963H179.301V237.903C179.29 237.697 179.247 237.497 179.173 237.302C179.101 237.108 178.987 236.947 178.829 236.822C178.672 236.696 178.457 236.633 178.186 236.633C178.005 236.633 177.84 236.671 177.688 236.749C177.536 236.823 177.406 236.935 177.297 237.083C177.189 237.232 177.104 237.414 177.044 237.628C176.984 237.843 176.954 238.09 176.954 238.371V238.551C176.954 238.771 176.984 238.978 177.044 239.173C177.107 239.365 177.197 239.533 177.315 239.679C177.435 239.825 177.579 239.94 177.748 240.022C177.92 240.105 178.114 240.147 178.332 240.147C178.612 240.147 178.849 240.09 179.044 239.975C179.238 239.861 179.409 239.708 179.554 239.516L180.035 239.898C179.935 240.05 179.808 240.194 179.653 240.331C179.499 240.469 179.308 240.58 179.082 240.666C178.859 240.752 178.595 240.795 178.289 240.795ZM181.816 236.796V240.709H181.022V236.066H181.794L181.816 236.796ZM183.266 236.041L183.262 236.779C183.196 236.764 183.133 236.756 183.073 236.753C183.016 236.747 182.95 236.744 182.875 236.744C182.692 236.744 182.531 236.773 182.391 236.83C182.25 236.887 182.132 236.967 182.034 237.07C181.937 237.173 181.86 237.296 181.803 237.439C181.748 237.58 181.713 237.734 181.695 237.903L181.472 238.032C181.472 237.751 181.5 237.488 181.554 237.242C181.611 236.996 181.698 236.779 181.816 236.59C181.933 236.398 182.082 236.249 182.262 236.144C182.445 236.035 182.662 235.981 182.914 235.981C182.971 235.981 183.037 235.988 183.111 236.002C183.186 236.014 183.237 236.026 183.266 236.041ZM190.071 238.722H190.895C190.852 239.117 190.739 239.47 190.556 239.782C190.373 240.094 190.114 240.341 189.779 240.524C189.445 240.705 189.027 240.795 188.526 240.795C188.16 240.795 187.827 240.726 187.527 240.589C187.229 240.452 186.973 240.257 186.759 240.005C186.544 239.751 186.378 239.446 186.261 239.091C186.146 238.734 186.089 238.336 186.089 237.899V237.276C186.089 236.839 186.146 236.443 186.261 236.088C186.378 235.73 186.545 235.424 186.763 235.17C186.983 234.915 187.248 234.719 187.557 234.582C187.866 234.445 188.213 234.376 188.599 234.376C189.071 234.376 189.47 234.465 189.796 234.642C190.122 234.819 190.376 235.065 190.556 235.38C190.739 235.692 190.852 236.054 190.895 236.465H190.071C190.031 236.174 189.957 235.923 189.848 235.715C189.739 235.503 189.585 235.34 189.384 235.225C189.184 235.111 188.922 235.054 188.599 235.054C188.322 235.054 188.077 235.107 187.866 235.213C187.657 235.318 187.481 235.469 187.338 235.663C187.198 235.858 187.092 236.091 187.02 236.362C186.949 236.634 186.913 236.936 186.913 237.268V237.899C186.913 238.205 186.944 238.492 187.007 238.761C187.073 239.03 187.172 239.266 187.303 239.469C187.435 239.672 187.602 239.832 187.805 239.95C188.009 240.064 188.249 240.121 188.526 240.121C188.878 240.121 189.158 240.065 189.367 239.954C189.576 239.842 189.733 239.682 189.839 239.473C189.948 239.264 190.025 239.014 190.071 238.722Z" fill="black" fill-opacity="0.76"/>
<rect x="58.0312" y="235.639" width="3.90551" height="3.90551" rx="1.95276" fill="#4B63CC"/>
<rect x="105.873" y="235.639" width="3.90551" height="3.90551" rx="1.95276" fill="#5791FB"/>
<rect x="153.717" y="235.639" width="3.90551" height="3.90551" rx="1.95276" fill="#A384FF"/>
<path d="M45.9406 80.7394H47.4523C47.4039 81.3158 47.2426 81.8298 46.9685 82.2813C46.6944 82.7287 46.3095 83.0814 45.8136 83.3394C45.3178 83.5974 44.7152 83.7264 44.0057 83.7264C43.4615 83.7264 42.9718 83.6297 42.5364 83.4362C42.1011 83.2386 41.7282 82.9605 41.4178 82.6017C41.1074 82.2389 40.8696 81.8016 40.7043 81.2896C40.5431 80.7777 40.4625 80.2053 40.4625 79.5724V78.8408C40.4625 78.2079 40.5451 77.6355 40.7104 77.1236C40.8797 76.6116 41.1215 76.1743 41.4359 75.8115C41.7504 75.4446 42.1273 75.1645 42.5666 74.971C43.0101 74.7775 43.5079 74.6808 44.0601 74.6808C44.7615 74.6808 45.3541 74.8098 45.8378 75.0677C46.3216 75.3257 46.6964 75.6825 46.9625 76.138C47.2326 76.5935 47.3978 77.1155 47.4583 77.704H45.9467C45.9064 77.3251 45.8177 77.0006 45.6806 76.7305C45.5476 76.4605 45.3501 76.2549 45.0881 76.1138C44.826 75.9687 44.4834 75.8961 44.0601 75.8961C43.7135 75.8961 43.4111 75.9606 43.1532 76.0896C42.8952 76.2186 42.6795 76.4081 42.5062 76.658C42.3328 76.9079 42.2018 77.2163 42.1132 77.5831C42.0285 77.9459 41.9862 78.3611 41.9862 78.8287V79.5724C41.9862 80.0158 42.0245 80.4189 42.1011 80.7817C42.1817 81.1405 42.3026 81.4489 42.4639 81.7069C42.6291 81.9648 42.8387 82.1644 43.0927 82.3055C43.3467 82.4465 43.651 82.5171 44.0057 82.5171C44.437 82.5171 44.7857 82.4486 45.0518 82.3115C45.3219 82.1745 45.5254 81.9749 45.6625 81.7129C45.8036 81.4469 45.8963 81.1224 45.9406 80.7394ZM48.4076 80.4068V80.2678C48.4076 79.7961 48.4761 79.3588 48.6132 78.9557C48.7502 78.5485 48.9478 78.1958 49.2058 77.8975C49.4678 77.5952 49.7862 77.3614 50.1611 77.1961C50.54 77.0268 50.9673 76.9422 51.443 76.9422C51.9227 76.9422 52.35 77.0268 52.7248 77.1961C53.1038 77.3614 53.4242 77.5952 53.6862 77.8975C53.9483 78.1958 54.1478 78.5485 54.2849 78.9557C54.4219 79.3588 54.4904 79.7961 54.4904 80.2678V80.4068C54.4904 80.8785 54.4219 81.3158 54.2849 81.7189C54.1478 82.122 53.9483 82.4748 53.6862 82.7771C53.4242 83.0754 53.1058 83.3092 52.7309 83.4785C52.356 83.6438 51.9307 83.7264 51.4551 83.7264C50.9754 83.7264 50.5461 83.6438 50.1672 83.4785C49.7923 83.3092 49.4738 83.0754 49.2118 82.7771C48.9498 82.4748 48.7502 82.122 48.6132 81.7189C48.4761 81.3158 48.4076 80.8785 48.4076 80.4068ZM49.8648 80.2678V80.4068C49.8648 80.7011 49.8951 80.9793 49.9555 81.2413C50.016 81.5033 50.1107 81.7331 50.2397 81.9306C50.3687 82.1281 50.534 82.2833 50.7355 82.3962C50.9371 82.509 51.1769 82.5655 51.4551 82.5655C51.7252 82.5655 51.959 82.509 52.1565 82.3962C52.358 82.2833 52.5233 82.1281 52.6523 81.9306C52.7813 81.7331 52.876 81.5033 52.9365 81.2413C53.001 80.9793 53.0332 80.7011 53.0332 80.4068V80.2678C53.0332 79.9775 53.001 79.7034 52.9365 79.4454C52.876 79.1834 52.7793 78.9516 52.6462 78.7501C52.5172 78.5485 52.352 78.3913 52.1504 78.2785C51.9529 78.1616 51.7171 78.1031 51.443 78.1031C51.1689 78.1031 50.931 78.1616 50.7295 78.2785C50.532 78.3913 50.3687 78.5485 50.2397 78.7501C50.1107 78.9516 50.016 79.1834 49.9555 79.4454C49.8951 79.7034 49.8648 79.9775 49.8648 80.2678ZM57.157 78.4599V83.6055H55.6997V77.0631H57.0723L57.157 78.4599ZM56.897 80.0924L56.4253 80.0864C56.4294 79.6228 56.4939 79.1975 56.6188 78.8106C56.7478 78.4236 56.9252 78.091 57.1509 77.8129C57.3807 77.5347 57.6548 77.3211 57.9732 77.1719C58.2917 77.0188 58.6464 76.9422 59.0374 76.9422C59.3519 76.9422 59.636 76.9865 59.89 77.0752C60.148 77.1599 60.3677 77.2989 60.5491 77.4924C60.7345 77.6859 60.8756 77.9378 60.9723 78.2482C61.0691 78.5546 61.1175 78.9315 61.1175 79.3789V83.6055H59.6542V79.3729C59.6542 79.0585 59.6078 78.8106 59.5151 78.6292C59.4264 78.4437 59.2954 78.3127 59.1221 78.2361C58.9528 78.1555 58.7412 78.1152 58.4872 78.1152C58.2373 78.1152 58.0136 78.1676 57.816 78.2724C57.6185 78.3772 57.4512 78.5203 57.3142 78.7017C57.1812 78.8831 57.0784 79.0927 57.0058 79.3306C56.9332 79.5684 56.897 79.8223 56.897 80.0924ZM66.2752 81.8338C66.2752 81.6887 66.2389 81.5577 66.1663 81.4408C66.0938 81.3199 65.9547 81.211 65.7491 81.1143C65.5476 81.0175 65.2493 80.9289 64.8542 80.8482C64.5075 80.7717 64.1891 80.681 63.8989 80.5761C63.6127 80.4673 63.3668 80.3363 63.1612 80.1831C62.9556 80.0299 62.7964 79.8485 62.6835 79.6389C62.5706 79.4293 62.5142 79.1875 62.5142 78.9133C62.5142 78.6473 62.5727 78.3954 62.6896 78.1575C62.8065 77.9197 62.9737 77.7101 63.1914 77.5287C63.4091 77.3473 63.6731 77.2042 63.9835 77.0994C64.2979 76.9946 64.6486 76.9422 65.0356 76.9422C65.5838 76.9422 66.0534 77.0349 66.4445 77.2203C66.8395 77.4017 67.1418 77.6496 67.3514 77.964C67.5611 78.2744 67.6659 78.6251 67.6659 79.0161H66.2086C66.2086 78.8428 66.1643 78.6816 66.0756 78.5324C65.991 78.3792 65.862 78.2563 65.6886 78.1636C65.5153 78.0668 65.2976 78.0185 65.0356 78.0185C64.7857 78.0185 64.5781 78.0588 64.4128 78.1394C64.2516 78.216 64.1306 78.3168 64.05 78.4417C63.9734 78.5667 63.9351 78.7037 63.9351 78.8529C63.9351 78.9617 63.9553 79.0605 63.9956 79.1492C64.0399 79.2338 64.1125 79.3124 64.2133 79.385C64.3141 79.4535 64.4511 79.518 64.6244 79.5785C64.8018 79.6389 65.0235 79.6974 65.2896 79.7538C65.7894 79.8586 66.2187 79.9937 66.5775 80.1589C66.9403 80.3202 67.2184 80.5298 67.4119 80.7878C67.6054 81.0417 67.7021 81.3642 67.7021 81.7552C67.7021 82.0455 67.6397 82.3115 67.5147 82.5534C67.3938 82.7912 67.2164 82.9988 66.9826 83.1762C66.7488 83.3495 66.4686 83.4845 66.1421 83.5813C65.8196 83.678 65.4569 83.7264 65.0538 83.7264C64.4612 83.7264 63.9593 83.6216 63.5482 83.412C63.137 83.1983 62.8246 82.9262 62.6109 82.5957C62.4013 82.2611 62.2965 81.9145 62.2965 81.5557H63.7054C63.7215 81.8258 63.7961 82.0414 63.9291 82.2027C64.0662 82.3599 64.2355 82.4748 64.437 82.5473C64.6426 82.6159 64.8542 82.6501 65.0719 82.6501C65.3339 82.6501 65.5536 82.6159 65.731 82.5473C65.9083 82.4748 66.0434 82.378 66.1361 82.2571C66.2288 82.1321 66.2752 81.991 66.2752 81.8338ZM72.9143 82.0636V77.0631H74.3775V83.6055H72.9989L72.9143 82.0636ZM73.1198 80.7031L73.6096 80.691C73.6096 81.1304 73.5612 81.5355 73.4645 81.9064C73.3678 82.2732 73.2186 82.5937 73.0171 82.8678C72.8155 83.1379 72.5575 83.3495 72.2431 83.5027C71.9287 83.6518 71.5518 83.7264 71.1124 83.7264C70.7939 83.7264 70.5017 83.68 70.2356 83.5873C69.9696 83.4946 69.7398 83.3515 69.5463 83.158C69.3569 82.9645 69.2097 82.7126 69.1049 82.4022C69.0001 82.0918 68.9477 81.721 68.9477 81.2896V77.0631H70.4049V81.3017C70.4049 81.5396 70.4332 81.7391 70.4896 81.9003C70.546 82.0576 70.6226 82.1845 70.7194 82.2813C70.8161 82.378 70.929 82.4465 71.058 82.4869C71.187 82.5272 71.324 82.5473 71.4691 82.5473C71.8843 82.5473 72.2108 82.4667 72.4487 82.3055C72.6905 82.1402 72.8619 81.9185 72.9626 81.6403C73.0674 81.3622 73.1198 81.0498 73.1198 80.7031ZM77.3282 78.3933V83.6055H75.871V77.0631H77.2436L77.3282 78.3933ZM77.0924 80.0924L76.5966 80.0864C76.5966 79.6349 76.653 79.2177 76.7659 78.8347C76.8788 78.4518 77.0441 78.1192 77.2617 77.8371C77.4794 77.5509 77.7495 77.3312 78.072 77.178C78.3985 77.0208 78.7754 76.9422 79.2027 76.9422C79.501 76.9422 79.7731 76.9865 80.019 77.0752C80.2689 77.1599 80.4845 77.2949 80.6659 77.4803C80.8514 77.6657 80.9925 77.9036 81.0892 78.1938C81.19 78.484 81.2404 78.8347 81.2404 79.2459V83.6055H79.7831V79.3729C79.7831 79.0544 79.7348 78.8045 79.638 78.6231C79.5453 78.4417 79.4103 78.3127 79.2329 78.2361C79.0596 78.1555 78.852 78.1152 78.6101 78.1152C78.336 78.1152 78.1022 78.1676 77.9087 78.2724C77.7193 78.3772 77.5641 78.5203 77.4431 78.7017C77.3222 78.8831 77.2335 79.0927 77.1771 79.3306C77.1206 79.5684 77.0924 79.8223 77.0924 80.0924ZM81.1497 79.7054L80.4664 79.8566C80.4664 79.4616 80.5208 79.0887 80.6297 78.738C80.7425 78.3833 80.9058 78.0729 81.1194 77.8068C81.3371 77.5368 81.6052 77.3251 81.9236 77.1719C82.2421 77.0188 82.6069 76.9422 83.018 76.9422C83.3526 76.9422 83.6509 76.9885 83.9129 77.0812C84.179 77.1699 84.4047 77.311 84.5901 77.5045C84.7756 77.698 84.9167 77.9499 85.0134 78.2603C85.1101 78.5667 85.1585 78.9375 85.1585 79.3729V83.6055H83.6953V79.3668C83.6953 79.0363 83.6469 78.7803 83.5501 78.5989C83.4574 78.4175 83.3244 78.2926 83.1511 78.224C82.9777 78.1515 82.7701 78.1152 82.5283 78.1152C82.3025 78.1152 82.103 78.1575 81.9297 78.2422C81.7604 78.3228 81.6173 78.4377 81.5004 78.5868C81.3835 78.732 81.2948 78.8992 81.2343 79.0887C81.1779 79.2782 81.1497 79.4837 81.1497 79.7054ZM88.1213 78.3208V86.1208H86.6641V77.0631H88.0064L88.1213 78.3208ZM92.3841 80.2738V80.4008C92.3841 80.8765 92.3277 81.3179 92.2148 81.725C92.106 82.1281 91.9427 82.4808 91.7251 82.7831C91.5114 83.0814 91.2474 83.3132 90.933 83.4785C90.6186 83.6438 90.2558 83.7264 89.8446 83.7264C89.4375 83.7264 89.0807 83.6518 88.7744 83.5027C88.472 83.3495 88.2161 83.1338 88.0064 82.8557C87.7968 82.5776 87.6275 82.251 87.4985 81.8762C87.3736 81.4972 87.2849 81.082 87.2325 80.6306V80.1408C87.2849 79.6611 87.3736 79.2258 87.4985 78.8347C87.6275 78.4437 87.7968 78.1071 88.0064 77.825C88.2161 77.5428 88.472 77.3251 88.7744 77.1719C89.0767 77.0188 89.4294 76.9422 89.8325 76.9422C90.2437 76.9422 90.6085 77.0228 90.9269 77.184C91.2454 77.3412 91.5134 77.567 91.7311 77.8612C91.9488 78.1515 92.112 78.5022 92.2209 78.9133C92.3297 79.3205 92.3841 79.774 92.3841 80.2738ZM90.9269 80.4008V80.2738C90.9269 79.9715 90.8987 79.6913 90.8423 79.4334C90.7858 79.1713 90.6972 78.9416 90.5762 78.744C90.4553 78.5465 90.3001 78.3933 90.1106 78.2845C89.9252 78.1716 89.7015 78.1152 89.4395 78.1152C89.1815 78.1152 88.9598 78.1595 88.7744 78.2482C88.5889 78.3329 88.4337 78.4518 88.3088 78.605C88.1838 78.7582 88.0871 78.9375 88.0185 79.1431C87.95 79.3447 87.9016 79.5644 87.8734 79.8022V80.9752C87.9218 81.2655 88.0044 81.5315 88.1213 81.7734C88.2382 82.0152 88.4035 82.2087 88.6171 82.3538C88.8348 82.4949 89.113 82.5655 89.4516 82.5655C89.7136 82.5655 89.9373 82.509 90.1227 82.3962C90.3082 82.2833 90.4593 82.1281 90.5762 81.9306C90.6972 81.729 90.7858 81.4972 90.8423 81.2352C90.8987 80.9732 90.9269 80.6951 90.9269 80.4008ZM96.6228 77.0631V78.1273H92.9344V77.0631H96.6228ZM93.9986 75.4608H95.4558V81.7976C95.4558 81.9991 95.484 82.1543 95.5404 82.2631C95.6009 82.3679 95.6835 82.4385 95.7883 82.4748C95.8932 82.511 96.0161 82.5292 96.1572 82.5292C96.258 82.5292 96.3547 82.5231 96.4474 82.511C96.5401 82.499 96.6147 82.4869 96.6711 82.4748L96.6772 83.5873C96.5563 83.6236 96.4152 83.6559 96.2539 83.6841C96.0967 83.7123 95.9153 83.7264 95.7097 83.7264C95.3752 83.7264 95.0789 83.6679 94.8209 83.551C94.5629 83.4301 94.3614 83.2346 94.2162 82.9645C94.0711 82.6945 93.9986 82.3357 93.9986 81.8882V75.4608ZM99.3074 77.0631V83.6055H97.8442V77.0631H99.3074ZM97.7474 75.3459C97.7474 75.1242 97.82 74.9408 97.9651 74.7957C98.1143 74.6465 98.3198 74.5719 98.5819 74.5719C98.8398 74.5719 99.0434 74.6465 99.1926 74.7957C99.3417 74.9408 99.4163 75.1242 99.4163 75.3459C99.4163 75.5636 99.3417 75.745 99.1926 75.8901C99.0434 76.0352 98.8398 76.1078 98.5819 76.1078C98.3198 76.1078 98.1143 76.0352 97.9651 75.8901C97.82 75.745 97.7474 75.5636 97.7474 75.3459ZM100.626 80.4068V80.2678C100.626 79.7961 100.694 79.3588 100.831 78.9557C100.968 78.5485 101.166 78.1958 101.424 77.8975C101.686 77.5952 102.004 77.3614 102.379 77.1961C102.758 77.0268 103.185 76.9422 103.661 76.9422C104.141 76.9422 104.568 77.0268 104.943 77.1961C105.322 77.3614 105.642 77.5952 105.904 77.8975C106.166 78.1958 106.366 78.5485 106.503 78.9557C106.64 79.3588 106.708 79.7961 106.708 80.2678V80.4068C106.708 80.8785 106.64 81.3158 106.503 81.7189C106.366 82.122 106.166 82.4748 105.904 82.7771C105.642 83.0754 105.324 83.3092 104.949 83.4785C104.574 83.6438 104.149 83.7264 103.673 83.7264C103.193 83.7264 102.764 83.6438 102.385 83.4785C102.01 83.3092 101.692 83.0754 101.43 82.7771C101.168 82.4748 100.968 82.122 100.831 81.7189C100.694 81.3158 100.626 80.8785 100.626 80.4068ZM102.083 80.2678V80.4068C102.083 80.7011 102.113 80.9793 102.173 81.2413C102.234 81.5033 102.329 81.7331 102.458 81.9306C102.587 82.1281 102.752 82.2833 102.954 82.3962C103.155 82.509 103.395 82.5655 103.673 82.5655C103.943 82.5655 104.177 82.509 104.374 82.3962C104.576 82.2833 104.741 82.1281 104.87 81.9306C104.999 81.7331 105.094 81.5033 105.154 81.2413C105.219 80.9793 105.251 80.7011 105.251 80.4068V80.2678C105.251 79.9775 105.219 79.7034 105.154 79.4454C105.094 79.1834 104.997 78.9516 104.864 78.7501C104.735 78.5485 104.57 78.3913 104.368 78.2785C104.171 78.1616 103.935 78.1031 103.661 78.1031C103.387 78.1031 103.149 78.1616 102.947 78.2785C102.75 78.3913 102.587 78.5485 102.458 78.7501C102.329 78.9516 102.234 79.1834 102.173 79.4454C102.113 79.7034 102.083 79.9775 102.083 80.2678ZM109.375 78.4599V83.6055H107.918V77.0631H109.29L109.375 78.4599ZM109.115 80.0924L108.643 80.0864C108.647 79.6228 108.712 79.1975 108.837 78.8106C108.966 78.4236 109.143 78.091 109.369 77.8129C109.599 77.5347 109.873 77.3211 110.191 77.1719C110.51 77.0188 110.864 76.9422 111.255 76.9422C111.57 76.9422 111.854 76.9865 112.108 77.0752C112.366 77.1599 112.586 77.2989 112.767 77.4924C112.952 77.6859 113.094 77.9378 113.19 78.2482C113.287 78.5546 113.335 78.9315 113.335 79.3789V83.6055H111.872V79.3729C111.872 79.0585 111.826 78.8106 111.733 78.6292C111.644 78.4437 111.513 78.3127 111.34 78.2361C111.171 78.1555 110.959 78.1152 110.705 78.1152C110.455 78.1152 110.232 78.1676 110.034 78.2724C109.836 78.3772 109.669 78.5203 109.532 78.7017C109.399 78.8831 109.296 79.0927 109.224 79.3306C109.151 79.5684 109.115 79.8223 109.115 80.0924Z" fill="black" fill-opacity="0.76"/>
<path d="M94.6591 214.038C87.6446 209.988 81.4965 204.596 76.5657 198.17C71.635 191.744 68.0182 184.41 65.9218 176.586C63.8255 168.763 63.2906 160.603 64.3479 152.573C65.4051 144.542 68.0336 136.799 72.0835 129.784L125.498 160.623L94.6591 214.038Z" fill="#5791FB" stroke="white" stroke-width="1.48702"/>
<path d="M72.0835 129.784C77.4968 120.408 85.2829 112.622 94.6591 107.209C104.035 101.795 114.671 98.9453 125.498 98.9453V160.623L72.0835 129.784Z" fill="#A384FF" stroke="white" stroke-width="1.48702"/>
<path d="M125.498 98.9453C134.959 98.9453 144.292 101.122 152.777 105.306C161.262 109.49 168.671 115.57 174.43 123.076C180.19 130.582 184.145 139.312 185.991 148.59C187.836 157.869 187.523 167.448 185.074 176.586C182.626 185.725 178.108 194.177 171.87 201.29C165.632 208.403 157.842 213.986 149.101 217.606C140.361 221.226 130.904 222.788 121.464 222.169C112.024 221.55 102.852 218.768 94.6591 214.038L125.498 160.623V98.9453Z" fill="#4B63CC" stroke="white" stroke-width="1.48702"/>
<path d="M146.249 163.075L145.023 162.779L145.494 158.509H150.147V159.781H146.766L146.545 161.756C146.665 161.683 146.84 161.609 147.068 161.536C147.3 161.458 147.562 161.42 147.852 161.42C148.255 161.42 148.615 161.485 148.933 161.617C149.25 161.745 149.519 161.931 149.74 162.175C149.965 162.419 150.133 162.717 150.245 163.069C150.361 163.418 150.42 163.813 150.42 164.254C150.42 164.641 150.361 165.005 150.245 165.346C150.133 165.683 149.961 165.983 149.728 166.247C149.496 166.506 149.204 166.711 148.851 166.862C148.499 167.009 148.085 167.083 147.608 167.083C147.248 167.083 146.901 167.031 146.568 166.926C146.239 166.818 145.943 166.661 145.68 166.456C145.416 166.247 145.205 165.991 145.047 165.689C144.892 165.387 144.806 165.04 144.791 164.649H146.307C146.334 164.909 146.404 165.129 146.516 165.311C146.628 165.493 146.776 165.633 146.958 165.73C147.143 165.826 147.358 165.875 147.602 165.875C147.823 165.875 148.013 165.834 148.172 165.753C148.334 165.668 148.468 165.549 148.572 165.398C148.677 165.247 148.754 165.069 148.805 164.864C148.855 164.659 148.88 164.434 148.88 164.19C148.88 163.954 148.851 163.739 148.793 163.545C148.735 163.348 148.646 163.178 148.526 163.034C148.406 162.891 148.255 162.781 148.073 162.703C147.895 162.626 147.686 162.587 147.446 162.587C147.124 162.587 146.876 162.635 146.702 162.732C146.532 162.829 146.381 162.943 146.249 163.075ZM157.134 164.655C157.134 165.182 157.01 165.627 156.763 165.991C156.519 166.351 156.184 166.624 155.758 166.81C155.336 166.992 154.855 167.083 154.317 167.083C153.783 167.083 153.301 166.992 152.871 166.81C152.445 166.624 152.106 166.351 151.854 165.991C151.606 165.627 151.483 165.182 151.483 164.655C151.483 164.303 151.552 163.983 151.692 163.697C151.835 163.41 152.032 163.164 152.284 162.959C152.536 162.75 152.834 162.591 153.179 162.483C153.523 162.37 153.899 162.314 154.306 162.314C154.848 162.314 155.332 162.413 155.758 162.61C156.188 162.804 156.524 163.077 156.768 163.429C157.012 163.778 157.134 164.186 157.134 164.655ZM155.589 164.562C155.589 164.291 155.535 164.057 155.427 163.859C155.322 163.658 155.173 163.503 154.979 163.394C154.786 163.286 154.561 163.232 154.306 163.232C154.046 163.232 153.82 163.286 153.626 163.394C153.436 163.503 153.287 163.658 153.179 163.859C153.074 164.057 153.022 164.291 153.022 164.562C153.022 164.837 153.074 165.073 153.179 165.271C153.287 165.464 153.438 165.613 153.632 165.718C153.825 165.822 154.054 165.875 154.317 165.875C154.581 165.875 154.807 165.822 154.997 165.718C155.187 165.613 155.332 165.464 155.432 165.271C155.537 165.073 155.589 164.837 155.589 164.562ZM156.949 160.74C156.949 161.166 156.836 161.545 156.612 161.878C156.387 162.208 156.075 162.465 155.676 162.651C155.281 162.837 154.828 162.93 154.317 162.93C153.806 162.93 153.349 162.837 152.946 162.651C152.547 162.465 152.234 162.208 152.005 161.878C151.781 161.545 151.668 161.166 151.668 160.74C151.668 160.236 151.783 159.811 152.011 159.462C152.24 159.11 152.551 158.842 152.946 158.66C153.345 158.478 153.798 158.387 154.306 158.387C154.821 158.387 155.278 158.478 155.676 158.66C156.075 158.842 156.387 159.11 156.612 159.462C156.836 159.811 156.949 160.236 156.949 160.74ZM155.415 160.804C155.415 160.564 155.37 160.355 155.281 160.176C155.192 159.994 155.065 159.853 154.898 159.752C154.735 159.652 154.538 159.601 154.306 159.601C154.081 159.601 153.887 159.65 153.725 159.747C153.562 159.843 153.436 159.983 153.347 160.165C153.258 160.343 153.214 160.556 153.214 160.804C153.214 161.048 153.258 161.261 153.347 161.443C153.436 161.625 153.562 161.768 153.725 161.873C153.891 161.973 154.089 162.024 154.317 162.024C154.546 162.024 154.741 161.973 154.904 161.873C155.067 161.768 155.192 161.625 155.281 161.443C155.37 161.261 155.415 161.048 155.415 160.804ZM158.279 160.583V160.136C158.279 159.814 158.348 159.522 158.488 159.259C158.627 158.995 158.831 158.784 159.098 158.626C159.369 158.467 159.698 158.387 160.085 158.387C160.48 158.387 160.811 158.467 161.078 158.626C161.35 158.784 161.553 158.995 161.688 159.259C161.828 159.522 161.897 159.814 161.897 160.136V160.583C161.897 160.897 161.828 161.185 161.688 161.449C161.553 161.712 161.351 161.923 161.084 162.082C160.817 162.24 160.488 162.32 160.097 162.32C159.706 162.32 159.375 162.24 159.104 162.082C158.832 161.923 158.627 161.712 158.488 161.449C158.348 161.185 158.279 160.897 158.279 160.583ZM159.318 160.136V160.583C159.318 160.73 159.346 160.87 159.4 161.001C159.458 161.129 159.545 161.234 159.661 161.315C159.777 161.396 159.923 161.437 160.097 161.437C160.271 161.437 160.412 161.396 160.521 161.315C160.633 161.234 160.716 161.129 160.771 161.001C160.829 160.87 160.858 160.73 160.858 160.583V160.136C160.858 159.985 160.829 159.843 160.771 159.712C160.716 159.58 160.631 159.474 160.515 159.392C160.403 159.311 160.259 159.27 160.085 159.27C159.915 159.27 159.772 159.311 159.655 159.392C159.543 159.474 159.458 159.58 159.4 159.712C159.346 159.843 159.318 159.985 159.318 160.136ZM162.339 165.34V164.893C162.339 164.576 162.409 164.285 162.548 164.022C162.691 163.758 162.899 163.547 163.17 163.389C163.441 163.23 163.768 163.151 164.151 163.151C164.55 163.151 164.883 163.23 165.15 163.389C165.418 163.547 165.619 163.758 165.754 164.022C165.894 164.285 165.964 164.576 165.964 164.893V165.34C165.964 165.658 165.894 165.948 165.754 166.212C165.619 166.475 165.418 166.686 165.15 166.845C164.887 167.004 164.558 167.083 164.163 167.083C163.776 167.083 163.445 167.004 163.17 166.845C162.899 166.686 162.691 166.475 162.548 166.212C162.409 165.948 162.339 165.658 162.339 165.34ZM163.385 164.893V165.34C163.385 165.491 163.415 165.633 163.477 165.764C163.539 165.892 163.628 165.997 163.745 166.078C163.865 166.159 164.004 166.2 164.163 166.2C164.356 166.2 164.509 166.159 164.622 166.078C164.734 165.997 164.813 165.892 164.86 165.764C164.906 165.633 164.93 165.491 164.93 165.34V164.893C164.93 164.742 164.901 164.603 164.842 164.475C164.784 164.343 164.697 164.237 164.581 164.155C164.469 164.074 164.326 164.033 164.151 164.033C163.981 164.033 163.838 164.074 163.721 164.155C163.609 164.237 163.524 164.343 163.466 164.475C163.412 164.603 163.385 164.742 163.385 164.893ZM164.535 159.718L160.405 166.328L159.644 165.904L163.774 159.294L164.535 159.718Z" fill="white"/>
<path d="M86.515 170.22V171.428H80.7876V170.394L83.5351 167.426C83.8217 167.1 84.0482 166.818 84.2148 166.578C84.3813 166.337 84.4994 166.121 84.5691 165.927C84.6427 165.729 84.6794 165.542 84.6794 165.363C84.6794 165.104 84.633 164.878 84.54 164.684C84.4471 164.486 84.3116 164.333 84.1334 164.225C83.9592 164.117 83.7443 164.062 83.4887 164.062C83.206 164.062 82.964 164.128 82.7626 164.26C82.5651 164.388 82.4141 164.566 82.3095 164.794C82.2088 165.023 82.1585 165.284 82.1585 165.578H80.6192C80.6192 165.079 80.7354 164.624 80.9677 164.213C81.2001 163.799 81.5331 163.468 81.9668 163.22C82.4005 162.972 82.9155 162.848 83.5119 162.848C84.0928 162.848 84.5846 162.945 84.9873 163.139C85.39 163.329 85.696 163.6 85.9051 163.952C86.1142 164.304 86.2187 164.725 86.2187 165.212C86.2187 165.484 86.1742 165.751 86.0851 166.014C85.9961 166.277 85.8702 166.539 85.7076 166.798C85.5488 167.054 85.3591 167.313 85.1383 167.577C84.9176 167.84 84.6717 168.109 84.4006 168.384L82.751 170.22H86.515ZM93.1949 169.116C93.1949 169.643 93.071 170.088 92.8232 170.452C92.5792 170.812 92.2443 171.085 91.8183 171.271C91.3962 171.453 90.916 171.544 90.3777 171.544C89.8433 171.544 89.3612 171.453 88.9314 171.271C88.5054 171.085 88.1666 170.812 87.9149 170.452C87.667 170.088 87.5431 169.643 87.5431 169.116C87.5431 168.763 87.6128 168.444 87.7522 168.157C87.8955 167.871 88.093 167.625 88.3447 167.42C88.5964 167.211 88.8946 167.052 89.2392 166.943C89.5839 166.831 89.9595 166.775 90.3661 166.775C90.9083 166.775 91.3923 166.874 91.8183 167.071C92.2481 167.265 92.585 167.538 92.829 167.89C93.073 168.239 93.1949 168.647 93.1949 169.116ZM91.6498 169.023C91.6498 168.752 91.5956 168.518 91.4872 168.32C91.3826 168.119 91.2336 167.964 91.0399 167.855C90.8463 167.747 90.6217 167.693 90.3661 167.693C90.1067 167.693 89.8801 167.747 89.6865 167.855C89.4968 167.964 89.3477 168.119 89.2392 168.32C89.1347 168.518 89.0824 168.752 89.0824 169.023C89.0824 169.298 89.1347 169.534 89.2392 169.732C89.3477 169.925 89.4987 170.074 89.6923 170.179C89.8859 170.283 90.1144 170.336 90.3777 170.336C90.6411 170.336 90.8676 170.283 91.0574 170.179C91.2471 170.074 91.3923 169.925 91.493 169.732C91.5976 169.534 91.6498 169.298 91.6498 169.023ZM93.0091 165.201C93.0091 165.627 92.8968 166.006 92.6722 166.339C92.4476 166.669 92.1358 166.926 91.737 167.112C91.342 167.298 90.8889 167.391 90.3777 167.391C89.8666 167.391 89.4096 167.298 89.0069 167.112C88.608 166.926 88.2944 166.669 88.0659 166.339C87.8413 166.006 87.729 165.627 87.729 165.201C87.729 164.697 87.8432 164.271 88.0717 163.923C88.3002 163.571 88.6119 163.303 89.0069 163.121C89.4058 162.939 89.8588 162.848 90.3661 162.848C90.8812 162.848 91.3381 162.939 91.737 163.121C92.1358 163.303 92.4476 163.571 92.6722 163.923C92.8968 164.271 93.0091 164.697 93.0091 165.201ZM91.4756 165.265C91.4756 165.025 91.431 164.816 91.342 164.637C91.2529 164.455 91.1251 164.314 90.9586 164.213C90.796 164.113 90.5985 164.062 90.3661 164.062C90.1415 164.062 89.9479 164.111 89.7853 164.208C89.6226 164.304 89.4968 164.444 89.4077 164.626C89.3186 164.804 89.2741 165.017 89.2741 165.265C89.2741 165.509 89.3186 165.722 89.4077 165.904C89.4968 166.086 89.6226 166.229 89.7853 166.334C89.9518 166.434 90.1493 166.485 90.3777 166.485C90.6062 166.485 90.8018 166.434 90.9644 166.334C91.1271 166.229 91.2529 166.086 91.342 165.904C91.431 165.722 91.4756 165.509 91.4756 165.265ZM94.3392 165.044V164.597C94.3392 164.275 94.409 163.983 94.5484 163.72C94.6878 163.456 94.8911 163.245 95.1583 163.086C95.4293 162.928 95.7585 162.848 96.1457 162.848C96.5407 162.848 96.8718 162.928 97.139 163.086C97.4101 163.245 97.6134 163.456 97.7489 163.72C97.8883 163.983 97.958 164.275 97.958 164.597V165.044C97.958 165.358 97.8883 165.646 97.7489 165.91C97.6134 166.173 97.412 166.384 97.1448 166.543C96.8776 166.701 96.5485 166.781 96.1574 166.781C95.7662 166.781 95.4351 166.701 95.1641 166.543C94.893 166.384 94.6878 166.173 94.5484 165.91C94.409 165.646 94.3392 165.358 94.3392 165.044ZM95.379 164.597V165.044C95.379 165.191 95.4061 165.331 95.4603 165.462C95.5184 165.59 95.6055 165.695 95.7217 165.776C95.8379 165.857 95.9831 165.898 96.1574 165.898C96.3316 165.898 96.473 165.857 96.5814 165.776C96.6937 165.695 96.777 165.59 96.8312 165.462C96.8893 165.331 96.9183 165.191 96.9183 165.044V164.597C96.9183 164.446 96.8893 164.304 96.8312 164.173C96.777 164.041 96.6918 163.935 96.5756 163.853C96.4633 163.772 96.32 163.731 96.1457 163.731C95.9754 163.731 95.8321 163.772 95.7159 163.853C95.6036 163.935 95.5184 164.041 95.4603 164.173C95.4061 164.304 95.379 164.446 95.379 164.597ZM98.3995 169.801V169.354C98.3995 169.037 98.4692 168.746 98.6086 168.483C98.7519 168.219 98.9591 168.008 99.2301 167.85C99.5012 167.691 99.8284 167.611 100.212 167.611C100.611 167.611 100.944 167.691 101.211 167.85C101.478 168.008 101.679 168.219 101.815 168.483C101.954 168.746 102.024 169.037 102.024 169.354V169.801C102.024 170.119 101.954 170.409 101.815 170.673C101.679 170.936 101.478 171.147 101.211 171.306C100.948 171.465 100.618 171.544 100.223 171.544C99.8362 171.544 99.5051 171.465 99.2301 171.306C98.9591 171.147 98.7519 170.936 98.6086 170.673C98.4692 170.409 98.3995 170.119 98.3995 169.801ZM99.4451 169.354V169.801C99.4451 169.952 99.476 170.094 99.538 170.225C99.6 170.353 99.689 170.458 99.8052 170.539C99.9252 170.62 100.065 170.661 100.223 170.661C100.417 170.661 100.57 170.62 100.682 170.539C100.795 170.458 100.874 170.353 100.92 170.225C100.967 170.094 100.99 169.952 100.99 169.801V169.354C100.99 169.203 100.961 169.064 100.903 168.936C100.845 168.804 100.758 168.698 100.642 168.616C100.529 168.535 100.386 168.494 100.212 168.494C100.041 168.494 99.8981 168.535 99.782 168.616C99.6697 168.698 99.5845 168.804 99.5264 168.936C99.4722 169.064 99.4451 169.203 99.4451 169.354ZM100.595 164.179L96.4652 170.789L95.7043 170.365L99.8342 163.754L100.595 164.179Z" fill="white"/>
<path d="M98.1203 121.312V129.793H96.5811V123.107L94.5422 123.781V122.538L97.9461 121.312H98.1203ZM106.839 126.709V127.917H100.746L100.682 126.987L104.266 121.336H105.492L104.167 123.584L102.244 126.709H106.839ZM105.834 121.336V129.793H104.295V121.336H105.834ZM107.722 123.409V122.962C107.722 122.641 107.792 122.348 107.931 122.085C108.071 121.822 108.274 121.611 108.541 121.452C108.812 121.293 109.141 121.214 109.529 121.214C109.924 121.214 110.255 121.293 110.522 121.452C110.793 121.611 110.996 121.822 111.132 122.085C111.271 122.348 111.341 122.641 111.341 122.962V123.409C111.341 123.723 111.271 124.011 111.132 124.275C110.996 124.538 110.795 124.749 110.528 124.908C110.26 125.067 109.931 125.146 109.54 125.146C109.149 125.146 108.818 125.067 108.547 124.908C108.276 124.749 108.071 124.538 107.931 124.275C107.792 124.011 107.722 123.723 107.722 123.409ZM108.762 122.962V123.409C108.762 123.556 108.789 123.696 108.843 123.827C108.901 123.955 108.988 124.06 109.105 124.141C109.221 124.222 109.366 124.263 109.54 124.263C109.714 124.263 109.856 124.222 109.964 124.141C110.077 124.06 110.16 123.955 110.214 123.827C110.272 123.696 110.301 123.556 110.301 123.409V122.962C110.301 122.811 110.272 122.67 110.214 122.538C110.16 122.406 110.075 122.3 109.958 122.218C109.846 122.137 109.703 122.096 109.529 122.096C109.358 122.096 109.215 122.137 109.099 122.218C108.986 122.3 108.901 122.406 108.843 122.538C108.789 122.67 108.762 122.811 108.762 122.962ZM111.782 128.167V127.719C111.782 127.402 111.852 127.111 111.991 126.848C112.135 126.585 112.342 126.374 112.613 126.215C112.884 126.056 113.211 125.977 113.595 125.977C113.993 125.977 114.327 126.056 114.594 126.215C114.861 126.374 115.062 126.585 115.198 126.848C115.337 127.111 115.407 127.402 115.407 127.719V128.167C115.407 128.484 115.337 128.775 115.198 129.038C115.062 129.301 114.861 129.512 114.594 129.671C114.33 129.83 114.001 129.909 113.606 129.909C113.219 129.909 112.888 129.83 112.613 129.671C112.342 129.512 112.135 129.301 111.991 129.038C111.852 128.775 111.782 128.484 111.782 128.167ZM112.828 127.719V128.167C112.828 128.318 112.859 128.459 112.921 128.591C112.983 128.718 113.072 128.823 113.188 128.904C113.308 128.986 113.447 129.026 113.606 129.026C113.8 129.026 113.953 128.986 114.065 128.904C114.177 128.823 114.257 128.718 114.303 128.591C114.35 128.459 114.373 128.318 114.373 128.167V127.719C114.373 127.568 114.344 127.429 114.286 127.301C114.228 127.169 114.141 127.063 114.024 126.982C113.912 126.9 113.769 126.86 113.595 126.86C113.424 126.86 113.281 126.9 113.165 126.982C113.052 127.063 112.967 127.169 112.909 127.301C112.855 127.429 112.828 127.568 112.828 127.719ZM113.978 122.544L109.848 129.154L109.087 128.73L113.217 122.12L113.978 122.544Z" fill="white"/>
<g filter="url(#filter2_d_17223_44714)">
<rect x="229.053" y="61.2207" width="277.291" height="190.394" rx="3.09583" fill="white"/>
</g>
<path d="M241.59 136.781L493.9 136.781" stroke="black" stroke-opacity="0.04" stroke-width="0.976378"/>
<path d="M241.59 104.803L493.9 104.803" stroke="black" stroke-opacity="0.04" stroke-width="0.976378"/>
<path d="M241.59 164.119L493.9 164.119" stroke="black" stroke-opacity="0.04" stroke-width="0.976378"/>
<path d="M241.59 191.459L493.9 191.459" stroke="black" stroke-opacity="0.04" stroke-width="0.976378"/>
<path d="M241.59 218.551L493.9 218.551" stroke="black" stroke-opacity="0.04" stroke-width="0.976378"/>
<path opacity="0.24" d="M437.743 121.239L413.946 111.218C407.267 108.406 399.659 108.874 393.374 112.482L388.912 115.044C385.132 117.214 380.818 118.277 376.462 118.11L366.836 117.742C364.236 117.642 361.637 117.98 359.149 118.742L345.504 122.921C343.634 123.493 341.844 124.3 340.176 125.321L331.39 130.702C325.717 134.177 318.826 135.051 312.465 133.103L288.828 125.865C284.397 124.508 279.661 124.508 275.231 125.865L241.59 136.166V219.039H493.9V111.4L465.664 120.172C464.56 120.515 463.432 120.775 462.29 120.95L450.268 122.791C446.03 123.439 441.695 122.902 437.743 121.239Z" fill="#5791FB"/>
<path d="M247.462 75.9747L244.832 83.6055H243.241L246.555 74.8017H247.571L247.462 75.9747ZM249.663 83.6055L247.027 75.9747L246.912 74.8017H247.934L251.259 83.6055H249.663ZM249.536 80.3403V81.5436H244.747V80.3403H249.536ZM253.448 78.3933V83.6055H251.991V77.0631H253.363L253.448 78.3933ZM253.212 80.0924L252.716 80.0864C252.716 79.6349 252.773 79.2177 252.886 78.8347C252.999 78.4518 253.164 78.1192 253.382 77.8371C253.599 77.5509 253.869 77.3312 254.192 77.178C254.518 77.0208 254.895 76.9422 255.322 76.9422C255.621 76.9422 255.893 76.9865 256.139 77.0752C256.389 77.1599 256.604 77.2949 256.786 77.4803C256.971 77.6657 257.112 77.9036 257.209 78.1938C257.31 78.484 257.36 78.8347 257.36 79.2459V83.6055H255.903V79.3729C255.903 79.0544 255.855 78.8045 255.758 78.6231C255.665 78.4417 255.53 78.3127 255.353 78.2361C255.179 78.1555 254.972 78.1152 254.73 78.1152C254.456 78.1152 254.222 78.1676 254.029 78.2724C253.839 78.3772 253.684 78.5203 253.563 78.7017C253.442 78.8831 253.353 79.0927 253.297 79.3306C253.24 79.5684 253.212 79.8223 253.212 80.0924ZM257.269 79.7054L256.586 79.8566C256.586 79.4616 256.641 79.0887 256.749 78.738C256.862 78.3833 257.026 78.0729 257.239 77.8068C257.457 77.5368 257.725 77.3251 258.043 77.1719C258.362 77.0188 258.727 76.9422 259.138 76.9422C259.472 76.9422 259.771 76.9885 260.033 77.0812C260.299 77.1699 260.525 77.311 260.71 77.5045C260.895 77.698 261.036 77.9499 261.133 78.2603C261.23 78.5667 261.278 78.9375 261.278 79.3729V83.6055H259.815V79.3668C259.815 79.0363 259.767 78.7803 259.67 78.5989C259.577 78.4175 259.444 78.2926 259.271 78.224C259.098 78.1515 258.89 78.1152 258.648 78.1152C258.422 78.1152 258.223 78.1575 258.049 78.2422C257.88 78.3228 257.737 78.4377 257.62 78.5868C257.503 78.732 257.415 78.8992 257.354 79.0887C257.298 79.2782 257.269 79.4837 257.269 79.7054ZM264.241 78.3208V86.1208H262.784V77.0631H264.126L264.241 78.3208ZM268.504 80.2738V80.4008C268.504 80.8765 268.448 81.3179 268.335 81.725C268.226 82.1281 268.063 82.4808 267.845 82.7831C267.631 83.0814 267.367 83.3132 267.053 83.4785C266.738 83.6438 266.376 83.7264 265.964 83.7264C265.557 83.7264 265.201 83.6518 264.894 83.5027C264.592 83.3495 264.336 83.1338 264.126 82.8557C263.917 82.5776 263.747 82.251 263.618 81.8762C263.493 81.4972 263.405 81.082 263.352 80.6306V80.1408C263.405 79.6611 263.493 79.2258 263.618 78.8347C263.747 78.4437 263.917 78.1071 264.126 77.825C264.336 77.5428 264.592 77.3251 264.894 77.1719C265.196 77.0188 265.549 76.9422 265.952 76.9422C266.363 76.9422 266.728 77.0228 267.047 77.184C267.365 77.3412 267.633 77.567 267.851 77.8612C268.069 78.1515 268.232 78.5022 268.341 78.9133C268.45 79.3205 268.504 79.774 268.504 80.2738ZM267.047 80.4008V80.2738C267.047 79.9715 267.018 79.6913 266.962 79.4334C266.906 79.1713 266.817 78.9416 266.696 78.744C266.575 78.5465 266.42 78.3933 266.23 78.2845C266.045 78.1716 265.821 78.1152 265.559 78.1152C265.301 78.1152 265.08 78.1595 264.894 78.2482C264.709 78.3329 264.554 78.4518 264.429 78.605C264.304 78.7582 264.207 78.9375 264.138 79.1431C264.07 79.3447 264.021 79.5644 263.993 79.8022V80.9752C264.042 81.2655 264.124 81.5315 264.241 81.7734C264.358 82.0152 264.523 82.2087 264.737 82.3538C264.955 82.4949 265.233 82.5655 265.571 82.5655C265.833 82.5655 266.057 82.509 266.243 82.3962C266.428 82.2833 266.579 82.1281 266.696 81.9306C266.817 81.729 266.906 81.4972 266.962 81.2352C267.018 80.9732 267.047 80.6951 267.047 80.4008ZM272.628 83.7264C272.144 83.7264 271.707 83.6478 271.316 83.4906C270.929 83.3293 270.598 83.1056 270.324 82.8194C270.054 82.5332 269.846 82.1966 269.701 81.8096C269.556 81.4227 269.483 81.0055 269.483 80.558V80.3161C269.483 79.8042 269.558 79.3406 269.707 78.9254C269.856 78.5102 270.064 78.1555 270.33 77.8612C270.596 77.563 270.91 77.3352 271.273 77.178C271.636 77.0208 272.029 76.9422 272.452 76.9422C272.92 76.9422 273.329 77.0208 273.68 77.178C274.03 77.3352 274.321 77.5569 274.55 77.8431C274.784 78.1253 274.958 78.4619 275.07 78.8529C275.187 79.2439 275.246 79.6752 275.246 80.1468V80.7696H270.191V79.7236H273.807V79.6087C273.799 79.3467 273.746 79.1008 273.65 78.871C273.557 78.6413 273.414 78.4558 273.22 78.3147C273.027 78.1737 272.769 78.1031 272.446 78.1031C272.204 78.1031 271.989 78.1555 271.799 78.2603C271.614 78.3611 271.459 78.5082 271.334 78.7017C271.209 78.8952 271.112 79.129 271.043 79.4031C270.979 79.6732 270.947 79.9775 270.947 80.3161V80.558C270.947 80.8442 270.985 81.1103 271.062 81.3562C271.142 81.598 271.259 81.8096 271.412 81.991C271.566 82.1724 271.751 82.3155 271.969 82.4203C272.186 82.5211 272.434 82.5715 272.712 82.5715C273.063 82.5715 273.375 82.501 273.65 82.3599C273.924 82.2188 274.161 82.0193 274.363 81.7613L275.131 82.505C274.99 82.7106 274.806 82.9081 274.581 83.0976C274.355 83.283 274.079 83.4341 273.752 83.551C273.43 83.6679 273.055 83.7264 272.628 83.7264ZM277.846 78.3087V83.6055H276.389V77.0631H277.779L277.846 78.3087ZM279.847 77.0208L279.835 78.3752C279.746 78.3591 279.65 78.347 279.545 78.3389C279.444 78.3309 279.343 78.3268 279.243 78.3268C278.993 78.3268 278.773 78.3631 278.584 78.4357C278.394 78.5042 278.235 78.605 278.106 78.738C277.981 78.867 277.884 79.0242 277.816 79.2096C277.747 79.3951 277.707 79.6027 277.695 79.8324L277.362 79.8566C277.362 79.4454 277.402 79.0645 277.483 78.7138C277.564 78.3631 277.685 78.0547 277.846 77.7887C278.011 77.5226 278.217 77.315 278.463 77.1659C278.713 77.0167 279.001 76.9422 279.327 76.9422C279.416 76.9422 279.511 76.9502 279.611 76.9664C279.716 76.9825 279.795 77.0006 279.847 77.0208ZM284.231 82.2934V79.1734C284.231 78.9396 284.189 78.738 284.104 78.5687C284.019 78.3994 283.89 78.2684 283.717 78.1757C283.548 78.083 283.334 78.0366 283.076 78.0366C282.838 78.0366 282.633 78.0769 282.459 78.1575C282.286 78.2382 282.151 78.347 282.054 78.484C281.957 78.6211 281.909 78.7763 281.909 78.9496H280.458C280.458 78.6916 280.52 78.4417 280.645 78.1999C280.77 77.958 280.952 77.7423 281.19 77.5529C281.427 77.3634 281.712 77.2143 282.042 77.1054C282.373 76.9966 282.744 76.9422 283.155 76.9422C283.647 76.9422 284.082 77.0248 284.461 77.1901C284.844 77.3554 285.144 77.6053 285.362 77.9399C285.583 78.2704 285.694 78.6856 285.694 79.1854V82.0938C285.694 82.3921 285.714 82.6602 285.755 82.898C285.799 83.1318 285.862 83.3354 285.942 83.5087V83.6055H284.449C284.38 83.4483 284.326 83.2487 284.285 83.0069C284.249 82.761 284.231 82.5231 284.231 82.2934ZM284.443 79.6268L284.455 80.5278H283.409C283.139 80.5278 282.901 80.554 282.695 80.6064C282.49 80.6548 282.318 80.7273 282.181 80.8241C282.044 80.9208 281.941 81.0377 281.873 81.1748C281.804 81.3118 281.77 81.467 281.77 81.6403C281.77 81.8137 281.81 81.9729 281.891 82.118C281.972 82.2591 282.089 82.37 282.242 82.4506C282.399 82.5312 282.588 82.5715 282.81 82.5715C283.108 82.5715 283.368 82.511 283.59 82.3901C283.816 82.2652 283.993 82.114 284.122 81.9366C284.251 81.7552 284.32 81.5839 284.328 81.4227L284.799 82.0696C284.751 82.2349 284.668 82.4123 284.551 82.6017C284.435 82.7912 284.281 82.9726 284.092 83.1459C283.907 83.3152 283.683 83.4543 283.421 83.5631C283.163 83.672 282.864 83.7264 282.526 83.7264C282.099 83.7264 281.718 83.6417 281.383 83.4724C281.049 83.2991 280.786 83.0673 280.597 82.7771C280.408 82.4828 280.313 82.1503 280.313 81.7794C280.313 81.4327 280.377 81.1264 280.506 80.8603C280.639 80.5903 280.833 80.3645 281.087 80.1831C281.345 80.0017 281.659 79.8647 282.03 79.772C282.401 79.6752 282.824 79.6268 283.3 79.6268H284.443ZM291.408 77.0631H292.732V83.4241C292.732 84.0126 292.607 84.5125 292.358 84.9236C292.108 85.3348 291.759 85.6472 291.312 85.8608C290.864 86.0785 290.346 86.1873 289.758 86.1873C289.508 86.1873 289.229 86.1511 288.923 86.0785C288.621 86.0059 288.327 85.889 288.04 85.7278C287.758 85.5706 287.522 85.363 287.333 85.105L288.016 84.2464C288.25 84.5245 288.508 84.7281 288.79 84.8571C289.072 84.9861 289.369 85.0506 289.679 85.0506C290.014 85.0506 290.298 84.9881 290.532 84.8632C290.769 84.7422 290.953 84.5628 291.082 84.325C291.211 84.0872 291.275 83.7969 291.275 83.4543V78.5445L291.408 77.0631ZM286.964 80.4068V80.2799C286.964 79.7841 287.025 79.3326 287.145 78.9254C287.266 78.5143 287.44 78.1616 287.665 77.8673C287.891 77.569 288.165 77.3412 288.488 77.184C288.81 77.0228 289.175 76.9422 289.582 76.9422C290.005 76.9422 290.366 77.0188 290.665 77.1719C290.967 77.3251 291.219 77.5448 291.42 77.831C291.622 78.1132 291.779 78.4518 291.892 78.8468C292.009 79.2378 292.096 79.6732 292.152 80.1529V80.558C292.1 81.0256 292.011 81.4529 291.886 81.8399C291.761 82.2269 291.596 82.5614 291.39 82.8436C291.185 83.1258 290.931 83.3435 290.628 83.4966C290.33 83.6498 289.977 83.7264 289.57 83.7264C289.171 83.7264 288.81 83.6438 288.488 83.4785C288.169 83.3132 287.895 83.0814 287.665 82.7831C287.44 82.4848 287.266 82.1341 287.145 81.731C287.025 81.3239 286.964 80.8825 286.964 80.4068ZM288.421 80.2799V80.4068C288.421 80.7051 288.449 80.9833 288.506 81.2413C288.566 81.4993 288.657 81.727 288.778 81.9245C288.903 82.118 289.06 82.2712 289.25 82.3841C289.443 82.4929 289.671 82.5473 289.933 82.5473C290.276 82.5473 290.556 82.4748 290.773 82.3296C290.995 82.1845 291.164 81.989 291.281 81.7431C291.402 81.4932 291.487 81.2151 291.535 80.9087V79.8143C291.511 79.5765 291.461 79.3547 291.384 79.1492C291.312 78.9436 291.213 78.7642 291.088 78.611C290.963 78.4538 290.806 78.3329 290.616 78.2482C290.427 78.1595 290.203 78.1152 289.945 78.1152C289.683 78.1152 289.455 78.1716 289.262 78.2845C289.068 78.3974 288.909 78.5526 288.784 78.7501C288.663 78.9476 288.572 79.1774 288.512 79.4394C288.451 79.7014 288.421 79.9816 288.421 80.2799ZM297.128 83.7264C296.645 83.7264 296.207 83.6478 295.816 83.4906C295.429 83.3293 295.099 83.1056 294.825 82.8194C294.554 82.5332 294.347 82.1966 294.202 81.8096C294.057 81.4227 293.984 81.0055 293.984 80.558V80.3161C293.984 79.8042 294.059 79.3406 294.208 78.9254C294.357 78.5102 294.565 78.1555 294.831 77.8612C295.097 77.563 295.411 77.3352 295.774 77.178C296.137 77.0208 296.53 76.9422 296.953 76.9422C297.421 76.9422 297.83 77.0208 298.18 77.178C298.531 77.3352 298.821 77.5569 299.051 77.8431C299.285 78.1253 299.458 78.4619 299.571 78.8529C299.688 79.2439 299.746 79.6752 299.746 80.1468V80.7696H294.692V79.7236H298.307V79.6087C298.299 79.3467 298.247 79.1008 298.15 78.871C298.057 78.6413 297.914 78.4558 297.721 78.3147C297.527 78.1737 297.269 78.1031 296.947 78.1031C296.705 78.1031 296.489 78.1555 296.3 78.2603C296.114 78.3611 295.959 78.5082 295.834 78.7017C295.709 78.8952 295.613 79.129 295.544 79.4031C295.48 79.6732 295.447 79.9775 295.447 80.3161V80.558C295.447 80.8442 295.486 81.1103 295.562 81.3562C295.643 81.598 295.76 81.8096 295.913 81.991C296.066 82.1724 296.252 82.3155 296.469 82.4203C296.687 82.5211 296.935 82.5715 297.213 82.5715C297.564 82.5715 297.876 82.501 298.15 82.3599C298.424 82.2188 298.662 82.0193 298.864 81.7613L299.632 82.505C299.49 82.7106 299.307 82.9081 299.081 83.0976C298.856 83.283 298.579 83.4341 298.253 83.551C297.93 83.6679 297.556 83.7264 297.128 83.7264Z" fill="black" fill-opacity="0.76"/>
<path d="M307.995 234.462H308.797L310.844 239.555L312.886 234.462H313.693L311.153 240.709H310.526L307.995 234.462ZM307.733 234.462H308.441L308.557 238.272V240.709H307.733V234.462ZM313.242 234.462H313.95V240.709H313.126V238.272L313.242 234.462ZM317.211 240.795C316.888 240.795 316.595 240.74 316.332 240.632C316.071 240.52 315.847 240.364 315.658 240.164C315.472 239.964 315.329 239.726 315.229 239.452C315.129 239.177 315.079 238.877 315.079 238.551V238.371C315.079 237.993 315.134 237.657 315.246 237.362C315.358 237.065 315.509 236.813 315.701 236.607C315.892 236.401 316.11 236.245 316.353 236.139C316.596 236.034 316.848 235.981 317.108 235.981C317.44 235.981 317.726 236.038 317.966 236.152C318.209 236.267 318.408 236.427 318.563 236.633C318.717 236.836 318.832 237.076 318.906 237.354C318.98 237.628 319.018 237.929 319.018 238.255V238.611H315.551V237.963H318.224V237.903C318.212 237.697 318.169 237.497 318.095 237.302C318.024 237.108 317.909 236.947 317.752 236.822C317.594 236.696 317.38 236.633 317.108 236.633C316.928 236.633 316.762 236.671 316.61 236.749C316.459 236.823 316.329 236.935 316.22 237.083C316.111 237.232 316.027 237.414 315.967 237.628C315.907 237.843 315.877 238.09 315.877 238.371V238.551C315.877 238.771 315.907 238.978 315.967 239.173C316.03 239.365 316.12 239.533 316.237 239.679C316.357 239.825 316.502 239.94 316.671 240.022C316.842 240.105 317.037 240.147 317.254 240.147C317.534 240.147 317.772 240.09 317.966 239.975C318.161 239.861 318.331 239.708 318.477 239.516L318.957 239.898C318.857 240.05 318.73 240.194 318.576 240.331C318.421 240.469 318.231 240.58 318.005 240.666C317.782 240.752 317.517 240.795 317.211 240.795ZM321.888 236.066V236.676H319.378V236.066H321.888ZM320.228 234.938H321.021V239.559C321.021 239.716 321.046 239.835 321.094 239.915C321.143 239.995 321.206 240.048 321.283 240.074C321.36 240.1 321.443 240.113 321.532 240.113C321.598 240.113 321.666 240.107 321.738 240.095C321.812 240.081 321.868 240.07 321.905 240.061L321.909 240.709C321.847 240.729 321.764 240.748 321.661 240.765C321.561 240.785 321.439 240.795 321.296 240.795C321.101 240.795 320.923 240.756 320.76 240.679C320.597 240.602 320.466 240.473 320.369 240.293C320.275 240.11 320.228 239.864 320.228 239.555V234.938ZM324.746 240.795C324.422 240.795 324.129 240.74 323.866 240.632C323.606 240.52 323.381 240.364 323.192 240.164C323.006 239.964 322.863 239.726 322.763 239.452C322.663 239.177 322.613 238.877 322.613 238.551V238.371C322.613 237.993 322.669 237.657 322.781 237.362C322.892 237.065 323.044 236.813 323.235 236.607C323.427 236.401 323.644 236.245 323.888 236.139C324.131 236.034 324.382 235.981 324.643 235.981C324.975 235.981 325.261 236.038 325.501 236.152C325.744 236.267 325.943 236.427 326.097 236.633C326.252 236.836 326.366 237.076 326.44 237.354C326.515 237.628 326.552 237.929 326.552 238.255V238.611H323.085V237.963H325.758V237.903C325.747 237.697 325.704 237.497 325.63 237.302C325.558 237.108 325.444 236.947 325.286 236.822C325.129 236.696 324.914 236.633 324.643 236.633C324.462 236.633 324.297 236.671 324.145 236.749C323.993 236.823 323.863 236.935 323.755 237.083C323.646 237.232 323.561 237.414 323.501 237.628C323.441 237.843 323.411 238.09 323.411 238.371V238.551C323.411 238.771 323.441 238.978 323.501 239.173C323.564 239.365 323.654 239.533 323.772 239.679C323.892 239.825 324.036 239.94 324.205 240.022C324.377 240.105 324.571 240.147 324.789 240.147C325.069 240.147 325.306 240.09 325.501 239.975C325.695 239.861 325.866 239.708 326.011 239.516L326.492 239.898C326.392 240.05 326.265 240.194 326.11 240.331C325.956 240.469 325.765 240.58 325.539 240.666C325.316 240.752 325.052 240.795 324.746 240.795ZM328.273 236.796V240.709H327.479V236.066H328.251L328.273 236.796ZM329.723 236.041L329.719 236.779C329.653 236.764 329.59 236.756 329.53 236.753C329.473 236.747 329.407 236.744 329.332 236.744C329.149 236.744 328.988 236.773 328.848 236.83C328.707 236.887 328.589 236.967 328.491 237.07C328.394 237.173 328.317 237.296 328.26 237.439C328.205 237.58 328.17 237.734 328.152 237.903L327.929 238.032C327.929 237.751 327.957 237.488 328.011 237.242C328.068 236.996 328.155 236.779 328.273 236.59C328.39 236.398 328.539 236.249 328.719 236.144C328.902 236.035 329.119 235.981 329.371 235.981C329.428 235.981 329.494 235.988 329.568 236.002C329.643 236.014 329.694 236.026 329.723 236.041ZM335.069 235.015L333.001 240.709H332.156L334.537 234.462H335.082L335.069 235.015ZM336.803 240.709L334.73 235.015L334.717 234.462H335.262L337.652 240.709H336.803ZM336.695 238.396V239.074H333.186V238.396H336.695Z" fill="black" fill-opacity="0.76"/>
<path d="M355.836 234.462H356.639L358.686 239.555L360.728 234.462H361.535L358.994 240.709H358.368L355.836 234.462ZM355.575 234.462H356.283L356.399 238.272V240.709H355.575V234.462ZM361.084 234.462H361.792V240.709H360.968V238.272L361.084 234.462ZM365.053 240.795C364.73 240.795 364.437 240.74 364.173 240.632C363.913 240.52 363.688 240.364 363.5 240.164C363.314 239.964 363.171 239.726 363.071 239.452C362.971 239.177 362.92 238.877 362.92 238.551V238.371C362.92 237.993 362.976 237.657 363.088 237.362C363.199 237.065 363.351 236.813 363.543 236.607C363.734 236.401 363.952 236.245 364.195 236.139C364.438 236.034 364.69 235.981 364.95 235.981C365.282 235.981 365.568 236.038 365.808 236.152C366.051 236.267 366.25 236.427 366.405 236.633C366.559 236.836 366.673 237.076 366.748 237.354C366.822 237.628 366.859 237.929 366.859 238.255V238.611H363.392V237.963H366.066V237.903C366.054 237.697 366.011 237.497 365.937 237.302C365.865 237.108 365.751 236.947 365.594 236.822C365.436 236.696 365.222 236.633 364.95 236.633C364.77 236.633 364.604 236.671 364.452 236.749C364.301 236.823 364.17 236.935 364.062 237.083C363.953 237.232 363.869 237.414 363.809 237.628C363.749 237.843 363.719 238.09 363.719 238.371V238.551C363.719 238.771 363.749 238.978 363.809 239.173C363.872 239.365 363.962 239.533 364.079 239.679C364.199 239.825 364.344 239.94 364.512 240.022C364.684 240.105 364.878 240.147 365.096 240.147C365.376 240.147 365.614 240.09 365.808 239.975C366.003 239.861 366.173 239.708 366.319 239.516L366.799 239.898C366.699 240.05 366.572 240.194 366.417 240.331C366.263 240.469 366.073 240.58 365.847 240.666C365.624 240.752 365.359 240.795 365.053 240.795ZM369.73 236.066V236.676H367.22V236.066H369.73ZM368.069 234.938H368.863V239.559C368.863 239.716 368.887 239.835 368.936 239.915C368.985 239.995 369.048 240.048 369.125 240.074C369.202 240.1 369.285 240.113 369.374 240.113C369.439 240.113 369.508 240.107 369.58 240.095C369.654 240.081 369.71 240.07 369.747 240.061L369.751 240.709C369.688 240.729 369.605 240.748 369.502 240.765C369.402 240.785 369.281 240.795 369.138 240.795C368.943 240.795 368.764 240.756 368.601 240.679C368.438 240.602 368.308 240.473 368.211 240.293C368.117 240.11 368.069 239.864 368.069 239.555V234.938ZM372.587 240.795C372.264 240.795 371.971 240.74 371.708 240.632C371.448 240.52 371.223 240.364 371.034 240.164C370.848 239.964 370.705 239.726 370.605 239.452C370.505 239.177 370.455 238.877 370.455 238.551V238.371C370.455 237.993 370.511 237.657 370.622 237.362C370.734 237.065 370.885 236.813 371.077 236.607C371.269 236.401 371.486 236.245 371.729 236.139C371.972 236.034 372.224 235.981 372.484 235.981C372.816 235.981 373.102 236.038 373.343 236.152C373.586 236.267 373.785 236.427 373.939 236.633C374.094 236.836 374.208 237.076 374.282 237.354C374.357 237.628 374.394 237.929 374.394 238.255V238.611H370.927V237.963H373.6V237.903C373.589 237.697 373.546 237.497 373.471 237.302C373.4 237.108 373.285 236.947 373.128 236.822C372.971 236.696 372.756 236.633 372.484 236.633C372.304 236.633 372.138 236.671 371.987 236.749C371.835 236.823 371.705 236.935 371.596 237.083C371.488 237.232 371.403 237.414 371.343 237.628C371.283 237.843 371.253 238.09 371.253 238.371V238.551C371.253 238.771 371.283 238.978 371.343 239.173C371.406 239.365 371.496 239.533 371.613 239.679C371.734 239.825 371.878 239.94 372.047 240.022C372.218 240.105 372.413 240.147 372.63 240.147C372.911 240.147 373.148 240.09 373.343 239.975C373.537 239.861 373.707 239.708 373.853 239.516L374.334 239.898C374.234 240.05 374.106 240.194 373.952 240.331C373.797 240.469 373.607 240.58 373.381 240.666C373.158 240.752 372.894 240.795 372.587 240.795ZM376.114 236.796V240.709H375.321V236.066H376.093L376.114 236.796ZM377.565 236.041L377.56 236.779C377.495 236.764 377.432 236.756 377.372 236.753C377.314 236.747 377.249 236.744 377.174 236.744C376.991 236.744 376.83 236.773 376.689 236.83C376.549 236.887 376.431 236.967 376.333 237.07C376.236 237.173 376.159 237.296 376.102 237.439C376.047 237.58 376.011 237.734 375.994 237.903L375.771 238.032C375.771 237.751 375.798 237.488 375.853 237.242C375.91 236.996 375.997 236.779 376.114 236.59C376.232 236.398 376.38 236.249 376.561 236.144C376.744 236.035 376.961 235.981 377.213 235.981C377.27 235.981 377.336 235.988 377.41 236.002C377.485 236.014 377.536 236.026 377.565 236.041ZM382.825 237.787H381.242L381.233 237.122H382.671C382.908 237.122 383.115 237.082 383.293 237.002C383.47 236.922 383.607 236.807 383.705 236.659C383.805 236.507 383.855 236.327 383.855 236.118C383.855 235.889 383.811 235.703 383.722 235.56C383.636 235.414 383.503 235.308 383.323 235.243C383.145 235.174 382.92 235.14 382.645 235.14H381.426V240.709H380.598V234.462H382.645C382.965 234.462 383.251 234.495 383.503 234.56C383.755 234.623 383.968 234.723 384.142 234.861C384.32 234.995 384.454 235.167 384.546 235.376C384.637 235.584 384.683 235.835 384.683 236.126C384.683 236.384 384.617 236.617 384.486 236.826C384.354 237.032 384.171 237.201 383.936 237.332C383.705 237.464 383.433 237.548 383.121 237.585L382.825 237.787ZM382.787 240.709H380.916L381.383 240.035H382.787C383.05 240.035 383.273 239.99 383.456 239.898C383.642 239.807 383.783 239.678 383.881 239.512C383.978 239.343 384.027 239.144 384.027 238.915C384.027 238.684 383.985 238.484 383.902 238.315C383.819 238.146 383.689 238.016 383.512 237.924C383.334 237.833 383.105 237.787 382.825 237.787H381.645L381.654 237.122H383.267L383.443 237.362C383.743 237.388 383.998 237.474 384.207 237.62C384.416 237.763 384.574 237.946 384.683 238.169C384.795 238.392 384.85 238.638 384.85 238.907C384.85 239.296 384.765 239.625 384.593 239.894C384.424 240.16 384.185 240.363 383.876 240.503C383.567 240.64 383.204 240.709 382.787 240.709Z" fill="black" fill-opacity="0.76"/>
<path d="M403.68 234.462H404.483L406.529 239.555L408.572 234.462H409.378L406.838 240.709H406.212L403.68 234.462ZM403.418 234.462H404.126L404.242 238.272V240.709H403.418V234.462ZM408.928 234.462H409.636V240.709H408.812V238.272L408.928 234.462ZM412.897 240.795C412.573 240.795 412.28 240.74 412.017 240.632C411.757 240.52 411.532 240.364 411.343 240.164C411.158 239.964 411.015 239.726 410.914 239.452C410.814 239.177 410.764 238.877 410.764 238.551V238.371C410.764 237.993 410.82 237.657 410.932 237.362C411.043 237.065 411.195 236.813 411.386 236.607C411.578 236.401 411.795 236.245 412.039 236.139C412.282 236.034 412.533 235.981 412.794 235.981C413.126 235.981 413.412 236.038 413.652 236.152C413.895 236.267 414.094 236.427 414.248 236.633C414.403 236.836 414.517 237.076 414.592 237.354C414.666 237.628 414.703 237.929 414.703 238.255V238.611H411.236V237.963H413.909V237.903C413.898 237.697 413.855 237.497 413.781 237.302C413.709 237.108 413.595 236.947 413.437 236.822C413.28 236.696 413.065 236.633 412.794 236.633C412.614 236.633 412.448 236.671 412.296 236.749C412.144 236.823 412.014 236.935 411.906 237.083C411.797 237.232 411.712 237.414 411.652 237.628C411.592 237.843 411.562 238.09 411.562 238.371V238.551C411.562 238.771 411.592 238.978 411.652 239.173C411.715 239.365 411.805 239.533 411.923 239.679C412.043 239.825 412.187 239.94 412.356 240.022C412.528 240.105 412.722 240.147 412.94 240.147C413.22 240.147 413.457 240.09 413.652 239.975C413.846 239.861 414.017 239.708 414.162 239.516L414.643 239.898C414.543 240.05 414.416 240.194 414.261 240.331C414.107 240.469 413.916 240.58 413.69 240.666C413.467 240.752 413.203 240.795 412.897 240.795ZM417.574 236.066V236.676H415.064V236.066H417.574ZM415.913 234.938H416.707V239.559C416.707 239.716 416.731 239.835 416.78 239.915C416.828 239.995 416.891 240.048 416.969 240.074C417.046 240.1 417.129 240.113 417.217 240.113C417.283 240.113 417.352 240.107 417.423 240.095C417.498 240.081 417.554 240.07 417.591 240.061L417.595 240.709C417.532 240.729 417.449 240.748 417.346 240.765C417.246 240.785 417.124 240.795 416.981 240.795C416.787 240.795 416.608 240.756 416.445 240.679C416.282 240.602 416.152 240.473 416.055 240.293C415.96 240.11 415.913 239.864 415.913 239.555V234.938ZM420.431 240.795C420.108 240.795 419.815 240.74 419.552 240.632C419.291 240.52 419.067 240.364 418.878 240.164C418.692 239.964 418.549 239.726 418.449 239.452C418.349 239.177 418.299 238.877 418.299 238.551V238.371C418.299 237.993 418.354 237.657 418.466 237.362C418.578 237.065 418.729 236.813 418.921 236.607C419.113 236.401 419.33 236.245 419.573 236.139C419.816 236.034 420.068 235.981 420.328 235.981C420.66 235.981 420.946 236.038 421.186 236.152C421.43 236.267 421.628 236.427 421.783 236.633C421.937 236.836 422.052 237.076 422.126 237.354C422.2 237.628 422.238 237.929 422.238 238.255V238.611H418.771V237.963H421.444V237.903C421.432 237.697 421.389 237.497 421.315 237.302C421.244 237.108 421.129 236.947 420.972 236.822C420.815 236.696 420.6 236.633 420.328 236.633C420.148 236.633 419.982 236.671 419.831 236.749C419.679 236.823 419.549 236.935 419.44 237.083C419.331 237.232 419.247 237.414 419.187 237.628C419.127 237.843 419.097 238.09 419.097 238.371V238.551C419.097 238.771 419.127 238.978 419.187 239.173C419.25 239.365 419.34 239.533 419.457 239.679C419.577 239.825 419.722 239.94 419.891 240.022C420.062 240.105 420.257 240.147 420.474 240.147C420.754 240.147 420.992 240.09 421.186 239.975C421.381 239.861 421.551 239.708 421.697 239.516L422.178 239.898C422.077 240.05 421.95 240.194 421.796 240.331C421.641 240.469 421.451 240.58 421.225 240.666C421.002 240.752 420.737 240.795 420.431 240.795ZM423.958 236.796V240.709H423.164V236.066H423.937L423.958 236.796ZM425.408 236.041L425.404 236.779C425.338 236.764 425.275 236.756 425.215 236.753C425.158 236.747 425.092 236.744 425.018 236.744C424.835 236.744 424.673 236.773 424.533 236.83C424.393 236.887 424.274 236.967 424.177 237.07C424.08 237.173 424.003 237.296 423.945 237.439C423.891 237.58 423.855 237.734 423.838 237.903L423.615 238.032C423.615 237.751 423.642 237.488 423.696 237.242C423.754 236.996 423.841 236.779 423.958 236.59C424.075 236.398 424.224 236.249 424.404 236.144C424.587 236.035 424.805 235.981 425.057 235.981C425.114 235.981 425.18 235.988 425.254 236.002C425.328 236.014 425.38 236.026 425.408 236.041ZM432.214 238.722H433.037C432.994 239.117 432.881 239.47 432.698 239.782C432.515 240.094 432.256 240.341 431.922 240.524C431.587 240.705 431.169 240.795 430.669 240.795C430.303 240.795 429.969 240.726 429.669 240.589C429.372 240.452 429.116 240.257 428.901 240.005C428.687 239.751 428.521 239.446 428.403 239.091C428.289 238.734 428.232 238.336 428.232 237.899V237.276C428.232 236.839 428.289 236.443 428.403 236.088C428.521 235.73 428.688 235.424 428.905 235.17C429.126 234.915 429.39 234.719 429.699 234.582C430.008 234.445 430.356 234.376 430.742 234.376C431.214 234.376 431.613 234.465 431.939 234.642C432.265 234.819 432.518 235.065 432.698 235.38C432.881 235.692 432.994 236.054 433.037 236.465H432.214C432.173 236.174 432.099 235.923 431.99 235.715C431.882 235.503 431.727 235.34 431.527 235.225C431.327 235.111 431.065 235.054 430.742 235.054C430.464 235.054 430.22 235.107 430.008 235.213C429.799 235.318 429.623 235.469 429.48 235.663C429.34 235.858 429.234 236.091 429.163 236.362C429.091 236.634 429.056 236.936 429.056 237.268V237.899C429.056 238.205 429.087 238.492 429.15 238.761C429.216 239.03 429.314 239.266 429.446 239.469C429.578 239.672 429.745 239.832 429.948 239.95C430.151 240.064 430.391 240.121 430.669 240.121C431.021 240.121 431.301 240.065 431.51 239.954C431.719 239.842 431.876 239.682 431.982 239.473C432.091 239.264 432.168 239.014 432.214 238.722Z" fill="black" fill-opacity="0.76"/>
<path opacity="0.24" d="M439.202 147.12L407.945 143.98C404.91 143.675 401.844 143.971 398.923 144.851L386.786 148.51C384.363 149.24 381.837 149.569 379.308 149.485L366.359 149.051C364.071 148.974 361.784 149.236 359.572 149.829L345.28 153.658C343.558 154.12 341.894 154.778 340.323 155.621L330.568 160.848C325.365 163.636 319.294 164.338 313.592 162.81L288.038 155.963C284.102 154.908 279.957 154.908 276.02 155.963L241.59 165.188V219.04H493.9V150.29L472.921 155.993C467.196 157.549 461.092 156.855 455.863 154.053L447.848 149.757C445.166 148.32 442.229 147.424 439.202 147.12Z" fill="#4B63CC"/>
<path opacity="0.4" d="M312.957 194.534L295.315 188.513C287.146 185.725 278.105 187.699 271.841 193.637L266.758 198.456C263.527 201.519 259.484 203.589 255.109 204.418L241.59 206.982V219.039H493.9V191.409L493.197 190.687C487.765 185.117 479.515 183.362 472.287 186.241C467.034 188.332 461.127 188.009 456.134 185.358L447.428 180.736C445.019 179.457 442.404 178.613 439.702 178.242L428.76 176.737C425.341 176.267 421.86 176.566 418.57 177.61L403.347 182.445L393.06 187.078C386.767 189.911 379.54 189.799 373.339 186.771L370.686 185.476C365.669 183.027 359.938 182.467 354.542 183.899L345.264 186.362C343.552 186.816 341.898 187.465 340.334 188.296L331.345 193.068C325.681 196.075 319.026 196.606 312.957 194.534Z" fill="#CBB8FF"/>
<path d="M241.59 136.166L275.231 125.865C279.661 124.508 284.397 124.508 288.828 125.865L312.465 133.103C318.826 135.051 325.717 134.177 331.39 130.702L340.176 125.321C341.844 124.3 343.634 123.493 345.504 122.921L359.149 118.742C361.637 117.98 364.236 117.642 366.836 117.742L376.462 118.11C380.818 118.277 385.132 117.214 388.912 115.044L393.374 112.482C399.659 108.874 407.267 108.406 413.946 111.218L437.743 121.239C441.695 122.902 446.03 123.439 450.268 122.791L462.29 120.95C463.432 120.775 464.56 120.515 465.664 120.172L493.9 111.4" stroke="#5791FB" stroke-width="1.54792"/>
<path d="M241.59 165.188L276.02 155.963C279.957 154.908 284.102 154.908 288.038 155.963L313.592 162.81C319.294 164.338 325.365 163.636 330.568 160.848L340.323 155.621C341.894 154.778 343.558 154.12 345.28 153.658L359.572 149.829C361.784 149.236 364.071 148.974 366.359 149.051L379.308 149.485C381.837 149.569 384.363 149.24 386.786 148.51L398.923 144.851C401.844 143.971 404.909 143.675 407.945 143.98L439.202 147.12C442.229 147.424 445.166 148.32 447.848 149.757L455.863 154.053C461.092 156.855 467.196 157.549 472.921 155.993L493.9 150.29" stroke="#4B63CC" stroke-width="1.54792"/>
<path d="M241.59 206.982L255.109 204.418C259.484 203.589 263.527 201.519 266.758 198.456L271.841 193.637C278.105 187.699 287.146 185.725 295.315 188.513L312.957 194.534C319.026 196.606 325.681 196.075 331.345 193.068L340.334 188.296C341.898 187.465 343.552 186.816 345.264 186.362L354.542 183.899C359.938 182.467 365.669 183.027 370.686 185.476L373.339 186.771C379.54 189.799 386.767 189.911 393.06 187.078L403.347 182.445L418.57 177.61C421.86 176.566 425.341 176.267 428.76 176.737L439.702 178.242C442.404 178.613 445.019 179.457 447.428 180.736L456.134 185.358C461.127 188.009 467.034 188.332 472.287 186.241C479.515 183.362 487.765 185.117 493.197 190.687L493.9 191.409" stroke="#A384FF" stroke-width="1.54792"/>
<rect x="300.174" y="235.639" width="3.90551" height="3.90551" rx="1.95276" fill="#4B63CC"/>
<rect x="348.016" y="235.639" width="3.90551" height="3.90551" rx="1.95276" fill="#5791FB"/>
<rect x="395.857" y="235.639" width="3.90551" height="3.90551" rx="1.95276" fill="#A384FF"/>
<path d="M27.7637 14.4883H503.26C508.383 14.4883 512.535 18.641 512.535 23.7637V252.236C512.535 257.359 508.383 261.512 503.26 261.512H27.7637C22.641 261.512 18.4883 257.359 18.4883 252.236V23.7637C18.4883 18.641 22.641 14.4883 27.7637 14.4883Z" stroke="black" stroke-opacity="0.05" stroke-width="0.976378"/>
</g>
</g>
</g>
<defs>
<filter id="filter0_ddd_17223_44714" x="11" y="12" width="509.023" height="269" filterUnits="userSpaceOnUse" color-interpolation-filters="sRGB">
<feFlood flood-opacity="0" result="BackgroundImageFix"/>
<feColorMatrix in="SourceAlpha" type="matrix" values="0 0 0 0 0 0 0 0 0 0 0 0 0 0 0 0 0 0 127 0" result="hardAlpha"/>
<feOffset dy="1"/>
<feGaussianBlur stdDeviation="1.5"/>
<feColorMatrix type="matrix" values="0 0 0 0 0 0 0 0 0 0 0 0 0 0 0 0 0 0 0.03 0"/>
<feBlend mode="normal" in2="BackgroundImageFix" result="effect1_dropShadow_17223_44714"/>
<feColorMatrix in="SourceAlpha" type="matrix" values="0 0 0 0 0 0 0 0 0 0 0 0 0 0 0 0 0 0 127 0" result="hardAlpha"/>
<feOffset dy="5"/>
<feGaussianBlur stdDeviation="2.5"/>
<feColorMatrix type="matrix" values="0 0 0 0 0 0 0 0 0 0 0 0 0 0 0 0 0 0 0.03 0"/>
<feBlend mode="normal" in2="effect1_dropShadow_17223_44714" result="effect2_dropShadow_17223_44714"/>
<feColorMatrix in="SourceAlpha" type="matrix" values="0 0 0 0 0 0 0 0 0 0 0 0 0 0 0 0 0 0 127 0" result="hardAlpha"/>
<feOffset dy="12"/>
<feGaussianBlur stdDeviation="3.5"/>
<feColorMatrix type="matrix" values="0 0 0 0 0 0 0 0 0 0 0 0 0 0 0 0 0 0 0.02 0"/>
<feBlend mode="normal" in2="effect2_dropShadow_17223_44714" result="effect3_dropShadow_17223_44714"/>
<feBlend mode="normal" in="SourceGraphic" in2="effect3_dropShadow_17223_44714" result="shape"/>
</filter>
<filter id="filter1_d_17223_44714" x="21.7263" y="58.1249" width="205.706" height="202.777" filterUnits="userSpaceOnUse" color-interpolation-filters="sRGB">
<feFlood flood-opacity="0" result="BackgroundImageFix"/>
<feColorMatrix in="SourceAlpha" type="matrix" values="0 0 0 0 0 0 0 0 0 0 0 0 0 0 0 0 0 0 127 0" result="hardAlpha"/>
<feOffset dy="3.09583"/>
<feGaussianBlur stdDeviation="3.09583"/>
<feComposite in2="hardAlpha" operator="out"/>
<feColorMatrix type="matrix" values="0 0 0 0 0 0 0 0 0 0 0 0 0 0 0 0 0 0 0.08 0"/>
<feBlend mode="normal" in2="BackgroundImageFix" result="effect1_dropShadow_17223_44714"/>
<feBlend mode="normal" in="SourceGraphic" in2="effect1_dropShadow_17223_44714" result="shape"/>
</filter>
<filter id="filter2_d_17223_44714" x="222.861" y="58.1249" width="289.674" height="202.777" filterUnits="userSpaceOnUse" color-interpolation-filters="sRGB">
<feFlood flood-opacity="0" result="BackgroundImageFix"/>
<feColorMatrix in="SourceAlpha" type="matrix" values="0 0 0 0 0 0 0 0 0 0 0 0 0 0 0 0 0 0 127 0" result="hardAlpha"/>
<feOffset dy="3.09583"/>
<feGaussianBlur stdDeviation="3.09583"/>
<feComposite in2="hardAlpha" operator="out"/>
<feColorMatrix type="matrix" values="0 0 0 0 0 0 0 0 0 0 0 0 0 0 0 0 0 0 0.08 0"/>
<feBlend mode="normal" in2="BackgroundImageFix" result="effect1_dropShadow_17223_44714"/>
<feBlend mode="normal" in="SourceGraphic" in2="effect1_dropShadow_17223_44714" result="shape"/>
</filter>
<linearGradient id="paint0_linear_17223_44714" x1="495.5" y1="132.5" x2="0.000240869" y2="132.15" gradientUnits="userSpaceOnUse">
<stop stop-color="#737373" stop-opacity="0"/>
<stop offset="0.1" stop-color="#949494"/>
</linearGradient>
<clipPath id="clip0_17223_44714">
<rect width="513" height="276" fill="white"/>
</clipPath>
</defs>
</svg>
