<svg width="397" height="276" viewBox="0 0 397 276" fill="none" xmlns="http://www.w3.org/2000/svg">
<g clip-path="url(#clip0_17199_45631)">
<g filter="url(#filter0_ddd_17199_45631)">
<rect x="4.22656" y="15.6602" width="113.588" height="113.588" rx="10" fill="white"/>
<rect x="4.72656" y="16.1602" width="112.588" height="112.588" rx="9.5" stroke="black" stroke-opacity="0.05"/>
<g clip-path="url(#clip1_17199_45631)">
<path opacity="0.16" d="M32.9939 69.5033H53.6462C54.8199 69.5033 55.9456 69.0371 56.7755 68.2071C57.6055 67.3772 58.0717 66.2516 58.0717 65.0778V44.4255C58.0717 43.2518 57.6055 42.1261 56.7755 41.2962C55.9456 40.4663 54.8199 40 53.6462 40H32.9939C31.8201 40 30.6945 40.4663 29.8646 41.2962C29.0346 42.1261 28.5684 43.2518 28.5684 44.4255V65.0778C28.5684 66.2516 29.0346 67.3772 29.8646 68.2071C30.6945 69.0371 31.8201 69.5033 32.9939 69.5033Z" fill="#006D92"/>
<path d="M35.9439 53.2773H50.6956C51.0868 53.2773 51.462 53.4328 51.7387 53.7094C52.0153 53.9861 52.1708 54.3613 52.1708 54.7525C52.1708 55.1437 52.0153 55.519 51.7387 55.7956C51.462 56.0723 51.0868 56.2277 50.6956 56.2277H35.9439C35.5527 56.2277 35.1775 56.0723 34.9008 55.7956C34.6242 55.519 34.4688 55.1437 34.4688 54.7525C34.4688 54.3613 34.6242 53.9861 34.9008 53.7094C35.1775 53.4328 35.5527 53.2773 35.9439 53.2773Z" fill="#006D92"/>
<path opacity="0.16" d="M89.0505 40H68.3982C67.2244 40 66.0988 40.4663 65.2689 41.2962C64.4389 42.1261 63.9727 43.2518 63.9727 44.4255V65.0778C63.9727 66.2516 64.4389 67.3772 65.2689 68.2071C66.0988 69.0371 67.2244 69.5033 68.3982 69.5033H89.0505C90.2242 69.5033 91.3499 69.0371 92.1798 68.2071C93.0097 67.3772 93.476 66.2516 93.476 65.0778V44.4255C93.476 43.2518 93.0097 42.1261 92.1798 41.2962C91.3499 40.4663 90.2242 40 89.0505 40Z" fill="#006D92"/>
<path d="M86.0999 56.2266H80.1992V62.1272C80.1992 62.5185 80.0438 62.8937 79.7672 63.1703C79.4905 63.447 79.1153 63.6024 78.7241 63.6024C78.3328 63.6024 77.9576 63.447 77.6809 63.1703C77.4043 62.8937 77.2489 62.5185 77.2489 62.1272V56.2266H71.3482C70.957 56.2266 70.5818 56.0711 70.3051 55.7945C70.0285 55.5178 69.873 55.1426 69.873 54.7514C69.873 54.3602 70.0285 53.9849 70.3051 53.7083C70.5818 53.4316 70.957 53.2762 71.3482 53.2762H77.2489V47.3756C77.2489 46.9843 77.4043 46.6091 77.6809 46.3325C77.9576 46.0558 78.3328 45.9004 78.7241 45.9004C79.1153 45.9004 79.4905 46.0558 79.7672 46.3325C80.0438 46.6091 80.1992 46.9843 80.1992 47.3756V53.2762H86.0999C86.4911 53.2762 86.8663 53.4316 87.143 53.7083C87.4196 53.9849 87.5751 54.3602 87.5751 54.7514C87.5751 55.1426 87.4196 55.5178 87.143 55.7945C86.8663 56.0711 86.4911 56.2266 86.0999 56.2266Z" fill="#006D92"/>
<path opacity="0.16" d="M53.6462 104.908C54.8199 104.908 55.9456 104.441 56.7755 103.611C57.6055 102.781 58.0717 101.656 58.0717 100.482V79.8298C58.0717 78.6561 57.6055 77.5304 56.7755 76.7005C55.9456 75.8706 54.8199 75.4043 53.6462 75.4043H32.9939C31.8201 75.4043 30.6945 75.8706 29.8646 76.7005C29.0346 77.5304 28.5684 78.6561 28.5684 79.8298V100.482C28.5684 101.656 29.0346 102.781 29.8646 103.611C30.6945 104.441 31.8201 104.908 32.9939 104.908H53.6462Z" fill="#006D92"/>
<path d="M37.0657 85.9816C36.824 85.6994 36.6977 85.3364 36.7121 84.9651C36.7264 84.5938 36.8803 84.2417 37.143 83.9789C37.4058 83.7162 37.7579 83.5623 38.1292 83.548C38.5005 83.5336 38.8635 83.6599 39.1457 83.9016L43.3204 88.0763L47.4951 83.9016C47.7773 83.6599 48.1403 83.5336 48.5116 83.548C48.8829 83.5623 49.235 83.7162 49.4978 83.9789C49.7605 84.2417 49.9144 84.5938 49.9287 84.9651C49.9431 85.3364 49.8168 85.6994 49.5751 85.9816L45.4004 90.1563L49.5751 94.331C49.8499 94.6074 50.0041 94.9813 50.0041 95.371C50.0041 95.7607 49.8499 96.1346 49.5751 96.411C49.2987 96.6858 48.9248 96.84 48.5351 96.84C48.1454 96.84 47.7715 96.6858 47.4951 96.411L43.3204 92.2363L39.1457 96.411C38.8693 96.6858 38.4954 96.84 38.1057 96.84C37.716 96.84 37.3421 96.6858 37.0657 96.411C36.7909 96.1346 36.6367 95.7607 36.6367 95.371C36.6367 94.9813 36.7909 94.6074 37.0657 94.331L41.2404 90.1563L37.0657 85.9816Z" fill="#006D92"/>
<path opacity="0.16" d="M89.0505 75.4043H68.3982C67.2244 75.4043 66.0988 75.8706 65.2689 76.7005C64.4389 77.5304 63.9727 78.6561 63.9727 79.8298V100.482C63.9727 101.656 64.4389 102.781 65.2689 103.611C66.0988 104.441 67.2244 104.908 68.3982 104.908H89.0505C90.2242 104.908 91.3499 104.441 92.1798 103.611C93.0097 102.781 93.476 101.656 93.476 100.482V79.8298C93.476 78.6561 93.0097 77.5304 92.1798 76.7005C91.3499 75.8706 90.2242 75.4043 89.0505 75.4043Z" fill="#006D92"/>
<path fill-rule="evenodd" clip-rule="evenodd" d="M71.3482 91.6303H86.0999C86.4911 91.6303 86.8663 91.4749 87.143 91.1982C87.4196 90.9216 87.5751 90.5464 87.5751 90.1551C87.5751 89.7639 87.4196 89.3887 87.143 89.112C86.8663 88.8354 86.4911 88.68 86.0999 88.68H71.3482C70.957 88.68 70.5818 88.8354 70.3051 89.112C70.0285 89.3887 69.873 89.7639 69.873 90.1551C69.873 90.5464 70.0285 90.9216 70.3051 91.1982C70.5818 91.4749 70.957 91.6303 71.3482 91.6303Z" fill="#006D92"/>
<path fill-rule="evenodd" clip-rule="evenodd" d="M79.5436 83.0279C79.301 82.8658 79.0158 82.7793 78.7241 82.7793C78.3328 82.7793 77.9576 82.9347 77.6809 83.2114C77.4043 83.488 77.2489 83.8632 77.2489 84.2545C77.2489 84.5462 77.3354 84.8314 77.4975 85.074C77.6596 85.3166 77.89 85.5057 78.1595 85.6173C78.4291 85.729 78.7257 85.7582 79.0118 85.7013C79.298 85.6444 79.5608 85.5039 79.7672 85.2976C79.9735 85.0913 80.114 84.8284 80.1709 84.5423C80.2278 84.2561 80.1986 83.9595 80.0869 83.6899C79.9753 83.4204 79.7862 83.19 79.5436 83.0279Z" fill="#006D92"/>
<path fill-rule="evenodd" clip-rule="evenodd" d="M77.6809 97.0989C77.9576 97.3756 78.3328 97.531 78.7241 97.531C79.1153 97.531 79.4905 97.3756 79.7672 97.0989C80.0438 96.8223 80.1992 96.447 80.1992 96.0558C80.1992 95.6646 80.0438 95.2894 79.7672 95.0127C79.4905 94.7361 79.1153 94.5806 78.7241 94.5806C78.3328 94.5806 77.9576 94.7361 77.6809 95.0127C77.4043 95.2894 77.2489 95.6646 77.2489 96.0558C77.2489 96.447 77.4043 96.8223 77.6809 97.0989Z" fill="#006D92"/>
</g>
<rect x="141.729" y="15.6602" width="113.588" height="113.588" rx="10" fill="white"/>
<rect x="142.229" y="16.1602" width="112.588" height="112.588" rx="9.5" stroke="black" stroke-opacity="0.05"/>
<g clip-path="url(#clip2_17199_45631)">
<rect opacity="0.16" x="166.066" y="40" width="64.9074" height="64.9074" rx="32.4537" fill="#006D92"/>
<path d="M185.899 65.2422L178.688 72.4541L185.899 79.6661" stroke="#006D92" stroke-width="3.60596" stroke-miterlimit="10" stroke-linecap="round" stroke-linejoin="round"/>
<path d="M211.141 65.2422L218.353 72.4541L211.141 79.6661" stroke="#006D92" stroke-width="3.60596" stroke-miterlimit="10" stroke-linecap="round" stroke-linejoin="round"/>
<path d="M202.126 58.0293L194.914 86.877" stroke="#006D92" stroke-width="3.60596" stroke-miterlimit="10" stroke-linecap="round" stroke-linejoin="round"/>
</g>
<rect x="279.229" y="15.6602" width="113.588" height="113.588" rx="10" fill="white"/>
<rect x="279.729" y="16.1602" width="112.588" height="112.588" rx="9.5" stroke="black" stroke-opacity="0.05"/>
<path opacity="0.16" d="M351.263 47.6641C351.127 48.1923 351.055 48.7461 351.055 49.3168C351.055 52.9679 354.014 55.9277 357.666 55.9277C358.236 55.9277 358.79 55.8555 359.318 55.7195V89.1906C358.79 89.0547 358.236 88.9824 357.666 88.9824C354.014 88.9824 351.055 91.9422 351.055 95.5933C351.055 96.164 351.127 96.7178 351.263 97.2461H317.792C317.928 96.7178 318 96.164 318 95.5933C318 91.9422 315.04 88.9824 311.389 88.9824C310.818 88.9824 310.265 89.0547 309.736 89.1906V55.7195C310.265 55.8555 310.818 55.9277 311.389 55.9277C315.04 55.9277 318 52.9679 318 49.3168C318 48.7461 317.928 48.1923 317.792 47.6641H351.263Z" fill="#006D92"/>
<path opacity="0.4" d="M351.108 94.767C351.074 95.0378 351.055 95.3134 351.055 95.5933C351.055 96.164 351.127 96.7178 351.263 97.2461H317.792C317.928 96.7178 318 96.164 318 95.5933C318 95.3134 317.981 95.0378 317.947 94.767H351.108ZM309.736 55.7195C310.265 55.8555 310.818 55.9277 311.389 55.9277C311.669 55.9277 311.945 55.9082 312.215 55.8745V89.0341C311.945 89.0003 311.669 88.9824 311.389 88.9824C310.818 88.9824 310.265 89.0547 309.736 89.1906V55.7195ZM359.318 89.1906C358.79 89.0547 358.236 88.9824 357.666 88.9824C357.386 88.9824 357.11 89.0003 356.839 89.0341V55.8745C357.11 55.9082 357.386 55.9277 357.666 55.9277C358.236 55.9277 358.79 55.8555 359.318 55.7195V89.1906ZM351.263 47.6641C351.127 48.1923 351.055 48.7461 351.055 49.3168C351.055 49.5967 351.074 49.8724 351.108 50.1432H317.947C317.981 49.8724 318 49.5967 318 49.3168C318 48.7461 317.928 48.1923 317.792 47.6641H351.263Z" fill="#006D92"/>
<path d="M362.623 49.3156C362.623 46.5773 360.404 44.3574 357.665 44.3574C354.927 44.3574 352.707 46.5773 352.707 49.3156C352.707 52.054 354.927 54.2738 357.665 54.2738C360.404 54.2738 362.623 52.054 362.623 49.3156Z" fill="#006D92"/>
<path d="M362.623 95.593C362.623 92.8546 360.404 90.6348 357.665 90.6348C354.927 90.6348 352.707 92.8546 352.707 95.593C352.707 98.3313 354.927 100.551 357.665 100.551C360.404 100.551 362.623 98.3313 362.623 95.593Z" fill="#006D92"/>
<path d="M316.346 95.593C316.346 92.8546 314.126 90.6348 311.388 90.6348C308.65 90.6348 306.43 92.8546 306.43 95.593C306.43 98.3313 308.65 100.551 311.388 100.551C314.126 100.551 316.346 98.3313 316.346 95.593Z" fill="#006D92"/>
<path d="M316.346 49.3156C316.346 46.5773 314.126 44.3574 311.388 44.3574C308.65 44.3574 306.43 46.5773 306.43 49.3156C306.43 52.054 308.65 54.2738 311.388 54.2738C314.126 54.2738 316.346 52.054 316.346 49.3156Z" fill="#006D92"/>
<rect x="279.002" y="147.184" width="113.588" height="113.588" rx="10" fill="white"/>
<rect x="279.502" y="147.684" width="112.588" height="112.588" rx="9.5" stroke="black" stroke-opacity="0.05"/>
<g clip-path="url(#clip3_17199_45631)">
<rect x="323.469" y="174.281" width="26.4437" height="19.8328" rx="1.65273" fill="#006D92"/>
<path opacity="0.16" fill-rule="evenodd" clip-rule="evenodd" d="M336.441 194.32C336.673 194.32 336.904 194.375 337.114 194.485C337.198 194.529 337.279 194.583 337.354 194.645C337.392 194.675 337.429 194.709 337.464 194.744L342.422 199.702C342.986 200.267 342.986 201.182 342.422 201.747C341.857 202.312 340.942 202.312 340.377 201.747L337.94 199.311C338.199 203.768 339.382 206.457 340.886 208.173C342.605 210.134 344.937 211.051 347.532 211.694C348.864 212.025 350.102 212.249 351.442 212.547C352.72 212.831 354.021 213.171 355.175 213.702C356.345 214.241 357.43 215.007 358.208 216.178C358.988 217.352 359.373 218.802 359.373 220.558C359.373 221.356 358.725 222.003 357.927 222.003C357.128 222.003 356.481 221.356 356.48 220.558C356.48 219.231 356.194 218.373 355.799 217.778C355.402 217.181 354.808 216.717 353.965 216.329C353.105 215.933 352.055 215.646 350.814 215.37C349.637 215.108 348.189 214.838 346.836 214.502C344.06 213.813 341.02 212.713 338.711 210.079C338.422 209.749 338.147 209.399 337.888 209.026V227.168C337.888 227.966 337.24 228.614 336.441 228.614C335.643 228.614 334.995 227.967 334.995 227.168V209.026C334.736 209.399 334.461 209.749 334.172 210.079C331.863 212.713 328.823 213.813 326.047 214.502C324.694 214.838 323.246 215.108 322.068 215.37C320.828 215.646 319.778 215.933 318.918 216.329C318.075 216.717 317.481 217.181 317.084 217.778C316.689 218.373 316.402 219.231 316.402 220.558C316.402 221.356 315.754 222.003 314.956 222.003C314.158 222.003 313.51 221.356 313.51 220.558C313.51 218.802 313.895 217.352 314.675 216.178C315.453 215.007 316.537 214.241 317.708 213.702C318.862 213.171 320.163 212.831 321.44 212.547C322.78 212.249 324.019 212.025 325.351 211.694C327.945 211.051 330.278 210.134 331.997 208.173C333.501 206.457 334.683 203.767 334.941 199.311L332.506 201.747C331.941 202.312 331.026 202.311 330.461 201.747C329.896 201.182 329.896 200.267 330.461 199.702L335.419 194.744C335.701 194.462 336.071 194.32 336.441 194.32Z" fill="#006D92"/>
<path d="M334.827 217.714C335.442 217.098 336.44 217.098 337.056 217.714L343.743 224.401C344.359 225.017 344.359 226.015 343.743 226.63L337.056 233.318C336.44 233.933 335.442 233.933 334.827 233.318L328.139 226.63C327.524 226.015 327.524 225.017 328.139 224.401L334.827 217.714Z" fill="#006D92"/>
<path d="M313.342 217.714C313.958 217.098 314.956 217.098 315.572 217.714L322.259 224.401C322.875 225.017 322.875 226.015 322.259 226.63L315.572 233.318C314.956 233.933 313.958 233.933 313.342 233.318L306.655 226.63C306.039 226.015 306.039 225.017 306.655 224.401L313.342 217.714Z" fill="#006D92"/>
<path d="M356.313 217.714C356.929 217.098 357.927 217.098 358.542 217.714L365.23 224.401C365.845 225.017 365.845 226.015 365.23 226.63L358.542 233.318C357.927 233.933 356.929 233.933 356.313 233.318L349.626 226.63C349.01 226.015 349.01 225.017 349.626 224.401L356.313 217.714Z" fill="#006D92"/>
</g>
<rect x="4" y="147.184" width="113.588" height="113.588" rx="10" fill="white"/>
<rect x="4.5" y="147.684" width="112.588" height="112.588" rx="9.5" stroke="black" stroke-opacity="0.05"/>
<g clip-path="url(#clip4_17199_45631)">
<path opacity="0.16" d="M57.1025 184.74L40.6621 201.181" stroke="#006D92" stroke-width="3.65341" stroke-linecap="round"/>
<path opacity="0.16" d="M64.4093 184.74L80.8496 201.181" stroke="#006D92" stroke-width="3.65341" stroke-linecap="round"/>
<path d="M36.0149 196.211C36.6953 195.531 37.7983 195.531 38.4787 196.211L45.8701 203.603C46.5504 204.283 46.5504 205.386 45.8701 206.067L38.4787 213.458C37.7983 214.138 36.6953 214.138 36.0149 213.458L28.6235 206.067C27.9432 205.386 27.9432 204.283 28.6235 203.603L36.0149 196.211Z" fill="#006D92"/>
<path d="M83.5091 196.211C84.1894 195.531 85.2925 195.531 85.9728 196.211L93.3642 203.603C94.0446 204.283 94.0446 205.386 93.3642 206.067L85.9728 213.458C85.2925 214.138 84.1894 214.138 83.5091 213.458L76.1177 206.067C75.4373 205.386 75.4373 204.283 76.1177 203.603L83.5091 196.211Z" fill="#006D92"/>
<path d="M59.763 172.463C60.4433 171.783 61.5464 171.783 62.2268 172.463L69.6181 179.855C70.2985 180.535 70.2985 181.638 69.6181 182.319L62.2268 189.71C61.5464 190.39 60.4433 190.39 59.763 189.71L52.3716 182.319C51.6912 181.638 51.6912 180.535 52.3716 179.855L59.763 172.463Z" fill="#006D92"/>
<path fill-rule="evenodd" clip-rule="evenodd" d="M62.3369 208.605C62.7022 208.605 63.0677 208.85 63.1895 209.215L63.7373 210.858C63.7982 211.163 64.0422 211.407 64.3467 211.468C65.1988 211.711 65.9902 212.015 66.7207 212.441C66.9643 212.563 67.3297 212.563 67.5732 212.441L69.0957 211.711C69.461 211.528 69.8264 211.589 70.1309 211.894L72.2012 213.964C72.5056 214.207 72.5664 214.634 72.3838 214.999L71.6533 216.521C71.4706 216.826 71.5315 217.13 71.6533 217.374C72.0794 218.104 72.3834 218.896 72.627 219.748C72.7487 220.052 72.9319 220.236 73.2363 220.357L74.8799 220.905C75.2452 221.027 75.4892 221.393 75.4893 221.758V224.681C75.4892 225.046 75.2452 225.411 74.8799 225.533L73.2363 226.081C72.9319 226.142 72.6878 226.386 72.627 226.69C72.3835 227.543 72.0794 228.334 71.6533 229.064C71.5316 229.308 71.5316 229.673 71.6533 229.917L72.3232 231.439C72.5058 231.805 72.4449 232.17 72.1406 232.475L70.0703 234.545C69.8268 234.849 69.4004 234.91 69.0352 234.728L67.5127 233.997C67.2082 233.814 66.9037 233.875 66.6602 233.997C65.9295 234.423 65.1376 234.727 64.2852 234.971C63.9807 235.092 63.7985 235.276 63.6768 235.58L63.1289 237.224C63.0072 237.589 62.6416 237.833 62.2764 237.833H59.3535C58.9882 237.833 58.6228 237.589 58.501 237.224L57.9531 235.58C57.8922 235.276 57.6482 235.032 57.3438 234.971C56.4914 234.727 55.6994 234.423 54.9688 233.997C54.7253 233.875 54.3607 233.875 54.1172 233.997L52.5947 234.728C52.2295 234.91 51.864 234.849 51.5596 234.545L49.4893 232.475C49.1848 232.231 49.124 231.805 49.3066 231.439L50.0977 229.917C50.2803 229.613 50.2194 229.308 50.0977 229.064C49.6716 228.334 49.3675 227.543 49.124 226.69C49.0022 226.386 48.8191 226.203 48.5146 226.081L46.8711 225.533C46.5058 225.411 46.2617 225.046 46.2617 224.681V221.758C46.2618 221.393 46.5058 221.027 46.8711 220.905L48.5146 220.357C48.8191 220.297 49.0631 220.052 49.124 219.748C49.3675 218.896 49.6716 218.104 50.0977 217.374C50.2194 217.13 50.2194 216.765 50.0977 216.521L49.3066 214.999C49.1849 214.634 49.2457 214.208 49.4893 213.903L51.5596 211.833C51.864 211.589 52.29 211.529 52.6553 211.65L54.1777 212.441C54.4822 212.624 54.7867 212.563 55.0303 212.441C55.7607 212.015 56.5521 211.711 57.4043 211.468C57.7087 211.346 57.8919 211.163 58.0137 210.858L58.5615 209.215C58.6833 208.85 59.0488 208.606 59.4141 208.605H62.3369ZM60.876 215.912C56.8405 215.912 53.5684 219.184 53.5684 223.22C53.5686 227.255 56.8407 230.526 60.876 230.526C64.9111 230.526 68.1824 227.255 68.1826 223.22C68.1826 219.184 64.9112 215.912 60.876 215.912Z" fill="#006D92"/>
</g>
<rect x="141.5" y="147.184" width="113.588" height="113.588" rx="10" fill="white"/>
<rect x="142" y="147.684" width="112.588" height="112.588" rx="9.5" stroke="black" stroke-opacity="0.05"/>
<g clip-path="url(#clip5_17199_45631)">
<path fill-rule="evenodd" clip-rule="evenodd" d="M199.251 189.758C199.616 189.758 199.982 190.002 200.104 190.367L200.651 192.011C200.712 192.315 200.956 192.559 201.261 192.62C202.113 192.864 202.904 193.168 203.635 193.594C203.878 193.716 204.244 193.715 204.487 193.594L206.01 192.863C206.375 192.681 206.74 192.741 207.045 193.046L209.115 195.116C209.42 195.36 209.481 195.786 209.298 196.151L208.567 197.674C208.385 197.978 208.446 198.283 208.567 198.526C208.993 199.257 209.298 200.048 209.541 200.9C209.663 201.205 209.846 201.388 210.15 201.51L211.794 202.058C212.159 202.179 212.403 202.545 212.403 202.91V205.833C212.403 206.198 212.159 206.564 211.794 206.686L210.15 207.233C209.846 207.294 209.602 207.537 209.541 207.842C209.297 208.694 208.994 209.486 208.567 210.217C208.446 210.46 208.446 210.826 208.567 211.069L209.237 212.592C209.42 212.957 209.359 213.323 209.055 213.627L206.984 215.697C206.741 216.002 206.314 216.062 205.949 215.88L204.427 215.149C204.122 214.967 203.818 215.028 203.574 215.149C202.844 215.576 202.052 215.879 201.199 216.123C200.895 216.245 200.713 216.428 200.591 216.732L200.043 218.376C199.921 218.741 199.556 218.985 199.19 218.985H196.268C195.902 218.985 195.537 218.741 195.415 218.376L194.867 216.732C194.806 216.428 194.562 216.184 194.258 216.123C193.405 215.879 192.613 215.576 191.883 215.149C191.639 215.028 191.275 215.028 191.031 215.149L189.509 215.88C189.144 216.063 188.778 216.002 188.474 215.697L186.403 213.627C186.099 213.383 186.038 212.957 186.221 212.592L187.012 211.069C187.194 210.765 187.133 210.46 187.012 210.217C186.586 209.486 186.282 208.694 186.038 207.842C185.916 207.537 185.733 207.355 185.429 207.233L183.785 206.686C183.42 206.564 183.176 206.198 183.176 205.833V202.91C183.176 202.545 183.42 202.179 183.785 202.058L185.429 201.51C185.733 201.449 185.977 201.205 186.038 200.9C186.282 200.048 186.586 199.257 187.012 198.526C187.133 198.283 187.133 197.917 187.012 197.674L186.221 196.151C186.099 195.786 186.16 195.36 186.403 195.056L188.474 192.985C188.778 192.742 189.204 192.681 189.569 192.803L191.092 193.594C191.396 193.776 191.701 193.716 191.944 193.594C192.675 193.168 193.466 192.864 194.318 192.62C194.623 192.498 194.806 192.315 194.928 192.011L195.476 190.367C195.597 190.002 195.963 189.758 196.328 189.758H199.251ZM197.79 197.064C193.755 197.064 190.483 200.336 190.482 204.371C190.482 208.407 193.755 211.679 197.79 211.679C201.825 211.678 205.097 208.406 205.097 204.371C205.096 200.336 201.825 197.065 197.79 197.064Z" fill="#006D92"/>
<circle opacity="0.16" cx="197.67" cy="204.252" r="27.4006" stroke="#006D92" stroke-width="3.65341"/>
<circle cx="197.67" cy="176.851" r="5.48012" fill="#006D92"/>
<circle cx="170.269" cy="204.252" r="5.48012" fill="#006D92"/>
<circle cx="197.67" cy="231.652" r="5.48012" fill="#006D92"/>
<circle cx="225.07" cy="204.252" r="5.48012" fill="#006D92"/>
</g>
</g>
</g>
<defs>
<filter id="filter0_ddd_17199_45631" x="-3" y="13.6602" width="402.816" height="266.111" filterUnits="userSpaceOnUse" color-interpolation-filters="sRGB">
<feFlood flood-opacity="0" result="BackgroundImageFix"/>
<feColorMatrix in="SourceAlpha" type="matrix" values="0 0 0 0 0 0 0 0 0 0 0 0 0 0 0 0 0 0 127 0" result="hardAlpha"/>
<feOffset dy="1"/>
<feGaussianBlur stdDeviation="1.5"/>
<feColorMatrix type="matrix" values="0 0 0 0 0 0 0 0 0 0 0 0 0 0 0 0 0 0 0.03 0"/>
<feBlend mode="normal" in2="BackgroundImageFix" result="effect1_dropShadow_17199_45631"/>
<feColorMatrix in="SourceAlpha" type="matrix" values="0 0 0 0 0 0 0 0 0 0 0 0 0 0 0 0 0 0 127 0" result="hardAlpha"/>
<feOffset dy="5"/>
<feGaussianBlur stdDeviation="2.5"/>
<feColorMatrix type="matrix" values="0 0 0 0 0 0 0 0 0 0 0 0 0 0 0 0 0 0 0.03 0"/>
<feBlend mode="normal" in2="effect1_dropShadow_17199_45631" result="effect2_dropShadow_17199_45631"/>
<feColorMatrix in="SourceAlpha" type="matrix" values="0 0 0 0 0 0 0 0 0 0 0 0 0 0 0 0 0 0 127 0" result="hardAlpha"/>
<feOffset dy="12"/>
<feGaussianBlur stdDeviation="3.5"/>
<feColorMatrix type="matrix" values="0 0 0 0 0 0 0 0 0 0 0 0 0 0 0 0 0 0 0.02 0"/>
<feBlend mode="normal" in2="effect2_dropShadow_17199_45631" result="effect3_dropShadow_17199_45631"/>
<feBlend mode="normal" in="SourceGraphic" in2="effect3_dropShadow_17199_45631" result="shape"/>
</filter>
<clipPath id="clip0_17199_45631">
<rect width="397" height="276" fill="white"/>
</clipPath>
<clipPath id="clip1_17199_45631">
<rect width="64.9074" height="64.9074" fill="white" transform="translate(28.5684 40)"/>
</clipPath>
<clipPath id="clip2_17199_45631">
<rect width="64.9074" height="64.9074" fill="white" transform="translate(166.066 40)"/>
</clipPath>
<clipPath id="clip3_17199_45631">
<rect width="59.4984" height="59.4984" fill="white" transform="translate(306.691 174.281)"/>
</clipPath>
<clipPath id="clip4_17199_45631">
<rect width="65.7614" height="65.7614" fill="white" transform="translate(27.875 171.953)"/>
</clipPath>
<clipPath id="clip5_17199_45631">
<rect width="65.7614" height="65.7614" fill="white" transform="translate(164.789 171.371)"/>
</clipPath>
</defs>
</svg>
