<svg width="140" height="140" viewBox="0 0 140 140" fill="none" xmlns="http://www.w3.org/2000/svg">
<g clip-path="url(#clip0_18482_172138)">
<path opacity="0.04" fill-rule="evenodd" clip-rule="evenodd" d="M97.9697 136.873C92.8275 138.388 87.6647 138.657 82.5083 138.082C71.3004 136.832 60.1233 131.595 49.2561 126.503C48.9051 126.339 48.5543 126.175 48.204 126.011C48.0427 125.935 47.8816 125.86 47.7205 125.784C46.297 125.119 44.858 124.456 43.4123 123.791C42.2906 123.275 41.1648 122.757 40.0389 122.234C37.0541 120.847 34.0689 119.424 31.1584 117.908C30.5197 117.575 29.8841 117.238 29.2535 116.895C27.8303 116.123 26.4294 115.324 25.06 114.492C16.6081 109.355 9.35424 102.948 5.43998 93.5933C-1.90573 76.0387 0.63314 54.2748 11.692 39.6842C17.6764 31.7887 27.4008 31.0838 37.4386 30.3563C39.5751 30.2014 41.726 30.0455 43.8579 29.819C43.8836 30.4095 43.9736 31.0061 44.1328 31.6002L45.2709 35.8478L43.9435 36.2035C41.9182 36.7461 40.7173 38.8275 41.26 40.8528L46.2498 59.4752C46.7923 61.4996 48.8731 62.7017 50.8983 62.159L69.5207 57.1692C71.546 56.6265 72.7469 54.5451 72.2045 52.5207L67.2146 33.8983C66.6719 31.873 64.5911 30.671 62.5658 31.2136L61.2385 31.5693L60.1003 27.3217C59.927 26.6749 59.6811 26.0665 59.3738 25.5029C63.6066 23.1617 67.5385 19.8673 71.4041 16.6284C79.5176 9.83034 87.3394 3.2767 97.0392 6.29387C109.371 10.1296 114.268 23.8133 119.032 37.1226C120.389 40.9131 121.735 44.6733 123.239 48.167C123.247 48.1857 123.255 48.2044 123.263 48.2231C124.08 50.1189 124.952 52.0156 125.849 53.9135C126.58 55.4607 127.327 57.0088 128.075 58.5579C134.586 72.0397 141.137 85.6065 137.196 99.4163C131.906 117.958 115.87 131.598 97.9697 136.873ZM47.8103 30.6148C47.6944 30.1823 47.6465 29.7474 47.6601 29.3213C50.4497 28.8745 53.171 28.2292 55.7462 27.2217C55.8072 27.1978 55.8682 27.1737 55.9291 27.1493C56.1429 27.5016 56.3109 27.8895 56.4228 28.3071L57.5609 32.5547L48.9484 34.8624L47.8103 30.6148Z" fill="#305680"/>
<path opacity="0.16" d="M88.2 21.807C88.2 22.9668 87.2598 23.907 86.1 23.907C84.9402 23.907 84 22.9668 84 21.807C84 20.6472 84.9402 19.707 86.1 19.707C87.2598 19.707 88.2 20.6472 88.2 21.807Z" fill="#305680"/>
<path opacity="0.16" d="M86.2 119.1C86.2 120.26 85.2598 121.2 84.1 121.2C82.9402 121.2 82 120.26 82 119.1C82 117.94 82.9402 117 84.1 117C85.2598 117 86.2 117.94 86.2 119.1Z" fill="#305680"/>
<path opacity="0.16" d="M25.1 58.05C25.1 58.6299 24.6299 59.1 24.05 59.1C23.4701 59.1 23 58.6299 23 58.05C23 57.4701 23.4701 57 24.05 57C24.6299 57 25.1 57.4701 25.1 58.05Z" fill="#305680"/>
<path opacity="0.16" d="M82.6 87.257C82.6 87.8369 82.1299 88.307 81.55 88.307C80.9701 88.307 80.5 87.8369 80.5 87.257C80.5 86.6771 80.9701 86.207 81.55 86.207C82.1299 86.207 82.6 86.6771 82.6 87.257Z" fill="#305680"/>
<path opacity="0.16" d="M29.4 87.7C29.4 88.0866 29.0866 88.4 28.7 88.4C28.3134 88.4 28 88.0866 28 87.7C28 87.3134 28.3134 87 28.7 87C29.0866 87 29.4 87.3134 29.4 87.7Z" fill="#305680"/>
<path opacity="0.16" d="M129.499 82.5992C129.499 83.3724 128.872 83.9992 128.099 83.9992C127.326 83.9992 126.699 83.3724 126.699 82.5992C126.699 81.826 127.326 81.1992 128.099 81.1992C128.872 81.1992 129.499 81.826 129.499 82.5992Z" fill="#305680"/>
<path opacity="0.16" d="M122.8 117.4C122.8 118.173 122.173 118.8 121.4 118.8C120.627 118.8 120 118.173 120 117.4C120 116.627 120.627 116 121.4 116C122.173 116 122.8 116.627 122.8 117.4Z" fill="#305680"/>
<path opacity="0.16" d="M102.8 35.4078C102.8 36.181 102.173 36.8078 101.4 36.8078C100.627 36.8078 100 36.181 100 35.4078C100 34.6346 100.627 34.0078 101.4 34.0078C102.173 34.0078 102.8 34.6346 102.8 35.4078Z" fill="#305680"/>
<path opacity="0.16" d="M40.8 63.4C40.8 64.1732 40.1732 64.8 39.4 64.8C38.6268 64.8 38 64.1732 38 63.4C38 62.6268 38.6268 62 39.4 62C40.1732 62 40.8 62.6268 40.8 63.4Z" fill="#305680"/>
<path opacity="0.16" d="M16.0992 75.0086C16.0992 75.3952 15.7858 75.7086 15.3992 75.7086C15.0126 75.7086 14.6992 75.3952 14.6992 75.0086C14.6992 74.622 15.0126 74.3086 15.3992 74.3086C15.7858 74.3086 16.0992 74.622 16.0992 75.0086Z" fill="#305680"/>
<path opacity="0.16" d="M28 42.0078C28 42.5601 27.5523 43.0078 27 43.0078C26.4477 43.0078 26 42.5601 26 42.0078C26 41.4555 26.4477 41.0078 27 41.0078C27.5523 41.0078 28 41.4555 28 42.0078Z" fill="#305680"/>
<path opacity="0.16" d="M79.1008 41.4078C79.1008 42.181 78.474 42.8078 77.7008 42.8078C76.9276 42.8078 76.3008 42.181 76.3008 41.4078C76.3008 40.6346 76.9276 40.0078 77.7008 40.0078C78.474 40.0078 79.1008 40.6346 79.1008 41.4078Z" fill="#305680"/>
<g opacity="0.5">
<path d="M72.6342 74.1059C72.0393 73.2158 70.8361 72.9748 69.9461 73.5705L57.7671 81.7057L59.9204 84.9297L72.0994 76.7941C72.99 76.2 73.2294 74.9959 72.6342 74.1059Z" fill="#305680"/>
<path d="M84.0421 91.1759C83.4474 90.2859 82.2438 90.0455 81.3533 90.6407L69.1761 98.7747L71.329 101.998L83.5073 93.8644C84.3972 93.2694 84.6372 92.0656 84.0421 91.1759Z" fill="#305680"/>
</g>
<path opacity="0.9" d="M32.493 117.016L31.1603 117.906C30.5217 117.574 29.8855 117.236 29.2548 116.894C27.8318 116.121 26.4313 115.322 25.062 114.49L29.0343 111.837L32.493 117.016ZM43.1227 112.232L33.1886 118.045L28.3464 110.796L37.5188 103.844L43.1227 112.232ZM74.6317 106.949L69.3779 110.458L67.6895 107.929L57.8015 114.534L41.0122 89.4009L50.9029 82.793L49.2249 80.2816L54.4787 76.7734L74.6317 106.949Z" fill="#305680"/>
<path d="M32.4954 117.011L31.1594 117.905C30.5209 117.573 29.8858 117.235 29.2553 116.893L29.0366 111.832L32.4954 117.011ZM57.8059 114.532L43.12 112.232L37.5169 103.845L41.0171 89.3978L57.8059 114.532ZM67.6939 107.927L65.0279 109.708L59.2988 95.3599L67.6939 107.927Z" fill="#305680"/>
<path opacity="0.9" d="M110.396 78.663L100.507 85.2683L102.187 87.7848L96.9353 91.2939L76.7803 61.1213L82.0324 57.6122L83.7186 60.135L93.6074 53.5306L110.396 78.663ZM123.262 48.224C124.079 50.1197 124.952 52.0164 125.848 53.9143L122.382 56.2294L123.07 57.2608L113.899 64.2129L108.296 55.8258L118.229 50.0124L118.922 51.0498L123.237 48.167L123.262 48.224Z" fill="#305680"/>
<path d="M108.297 55.8247L113.901 64.2123L110.399 78.6587L93.6111 53.5257L108.297 55.8247Z" fill="#305680"/>
<path d="M92.115 72.6983L83.7201 60.1314L86.3861 58.3496L92.115 72.6983Z" fill="#305680"/>
<g opacity="0.8" filter="url(#filter0_d_18482_172138)">
<path fill-rule="evenodd" clip-rule="evenodd" d="M49.9773 21.4759C53.7329 20.4695 57.5893 22.2295 59.3738 25.5016C59.6811 26.0651 59.927 26.6735 60.1003 27.3204L61.2384 31.5679L62.5658 31.2123C64.5911 30.6696 66.6718 31.8716 67.2146 33.8969L72.2045 52.5193C72.7469 54.5437 71.546 56.6251 69.5207 57.1678L50.8983 62.1577C48.8731 62.7003 46.7922 61.4983 46.2498 59.4739L41.2599 40.8515C40.7173 38.8262 41.9182 36.7448 43.9435 36.2021L45.2709 35.8464L44.1327 31.5989C43.9735 31.0048 43.8836 30.4082 43.8579 29.8177C43.6931 26.032 46.1689 22.4963 49.9773 21.4759ZM47.6601 29.32C47.6465 29.746 47.6944 30.181 47.8103 30.6135L48.9484 34.861L57.5609 32.5533L56.4227 28.3058C56.3108 27.8881 56.1429 27.5002 55.9291 27.148C54.9273 25.4971 52.9197 24.6289 50.9627 25.1533C49.0205 25.6737 47.7209 27.4068 47.6601 29.32ZM59.0143 47.5463L59.7032 50.1171C59.9863 51.174 59.3595 52.2597 58.3017 52.5432C57.2448 52.8264 56.159 52.1995 55.8758 51.1426L55.1872 48.5727C53.9454 48.211 52.9171 47.228 52.5581 45.8883C52.0113 43.8473 53.2229 41.7498 55.2631 41.2032C57.3042 40.6563 59.4014 41.8671 59.9483 43.9081C60.3073 45.2478 59.9089 46.6121 59.0143 47.5463Z" fill="#305680"/>
</g>
</g>
<defs>
<filter id="filter0_d_18482_172138" x="29.1289" y="13.1914" width="55.2051" height="65.0977" filterUnits="userSpaceOnUse" color-interpolation-filters="sRGB">
<feFlood flood-opacity="0" result="BackgroundImageFix"/>
<feColorMatrix in="SourceAlpha" type="matrix" values="0 0 0 0 0 0 0 0 0 0 0 0 0 0 0 0 0 0 127 0" result="hardAlpha"/>
<feOffset dy="4"/>
<feGaussianBlur stdDeviation="6"/>
<feComposite in2="hardAlpha" operator="out"/>
<feColorMatrix type="matrix" values="0 0 0 0 0 0 0 0 0 0 0 0 0 0 0 0 0 0 0.12 0"/>
<feBlend mode="normal" in2="BackgroundImageFix" result="effect1_dropShadow_18482_172138"/>
<feBlend mode="normal" in="SourceGraphic" in2="effect1_dropShadow_18482_172138" result="shape"/>
</filter>
<clipPath id="clip0_18482_172138">
<rect width="140" height="140" fill="white"/>
</clipPath>
</defs>
</svg>
