<?xml version="1.0" encoding="UTF-8"?>
<svg width="18px" height="18px" viewBox="0 0 18 18" version="1.1" xmlns="http://www.w3.org/2000/svg" xmlns:xlink="http://www.w3.org/1999/xlink">
    <title>adit_usage_unselected</title>
    <g id="Page-1" stroke="none" stroke-width="1" fill="none" fill-rule="evenodd">
        <g id="adit_usage_unselected" transform="translate(1.643146, 1.000000)" fill="#2F3842" fill-rule="nonzero" stroke="#2F3842" stroke-width="0.35">
            <path d="M6.01882353,0 L9.49882353,0 C9.53647059,0.324705882 9.57647059,0.647058824 9.60705882,0.971764706 C9.60381829,1.0599279 9.66789485,1.13620952 9.75529412,1.14823529 C10.8446634,1.45971498 11.8403594,2.03514966 12.6541176,2.82352941 C12.7110272,2.89540279 12.8139192,2.91083659 12.8894118,2.85882353 C13.1811765,2.72470588 13.4752941,2.6 13.7811765,2.46588235 C14.3529412,3.47529412 14.9341176,4.47058824 15.5294118,5.48470588 C15.2541176,5.68705882 14.9952941,5.88235294 14.7294118,6.07058824 C14.6600954,6.10626801 14.6294714,6.18895284 14.6588235,6.26117647 C14.9230112,7.31505993 14.9334941,8.41657354 14.6894118,9.47529412 C14.6151018,9.65725215 14.6983481,9.8653679 14.8776471,9.94588235 C15.1129412,10.0847059 15.3105882,10.2588235 15.5294118,10.4164706 L13.7741176,13.4352941 C13.4588235,13.2964706 13.1576471,13.1623529 12.8517647,13.0376471 C12.7935561,13.019663 12.7303244,13.029191 12.68,13.0635294 C11.8489816,13.8644336 10.8342568,14.4493546 9.72470588,14.7670588 C9.6590022,14.7775595 9.61093089,14.8346442 9.61176471,14.9011765 C9.57882353,15.2376471 9.53647059,15.5694118 9.49882353,15.9035294 L6.01882353,15.9035294 C5.98117647,15.5764706 5.93882353,15.2470588 5.90588235,14.9176471 C5.91031504,14.839437 5.85404547,14.7708904 5.77647059,14.76 C4.68205153,14.448204 3.68149092,13.871144 2.86352941,13.08 C2.83805715,13.0427321 2.79821874,13.017752 2.75357694,13.0110557 C2.70893514,13.0043594 2.66352086,13.0165517 2.62823529,13.0447059 C2.5782237,13.0712486 2.5263174,13.0940559 2.47294118,13.1129412 L1.74117647,13.4352941 L0,10.4188235 C0.256470588,10.2305882 0.498823529,10.0447059 0.750588235,9.87294118 C0.855011136,9.81683578 0.901391409,9.6918107 0.858823529,9.58117647 C0.601189757,8.52080046 0.598770588,7.41443372 0.851764706,6.35294118 C0.905003823,6.22476258 0.850691684,6.07719753 0.727058824,6.01411765 C0.470588235,5.84941176 0.235294118,5.66352941 0,5.48235294 L1.74352941,2.46823529 C2.04941176,2.60235294 2.34588235,2.72705882 2.63529412,2.86117647 C2.71078666,2.91318953 2.81367866,2.89775573 2.87058824,2.82588235 C3.68494523,2.03361667 4.68353561,1.45629397 5.77647059,1.14588235 C5.85382521,1.13288561 5.90934351,1.0642448 5.90588235,0.985882353 C5.93882353,0.656470588 5.98117647,0.329411765 6.01882353,0 Z M13.3858824,3.65647059 C13.1505882,3.76470588 12.9152941,3.85882353 12.68,3.96941176 C12.636367,3.99904997 12.5825023,4.0095322 12.530939,3.99841943 C12.4793758,3.98730666 12.4346104,3.95556794 12.4070588,3.91058824 C11.5058073,2.86758648 10.2787231,2.15952569 8.92470588,1.90117647 C8.87427496,1.89944198 8.82678296,1.87701992 8.79339704,1.83918254 C8.76001112,1.80134517 8.74367695,1.7514309 8.74823529,1.70117647 C8.73176471,1.44470588 8.70588235,1.19058824 8.66588235,0.941176471 L6.86117647,0.941176471 C6.85141826,0.967054499 6.84432278,0.993859653 6.84,1.02117647 C6.81411765,1.25647059 6.78117647,1.47294118 6.76705882,1.69882353 C6.76705882,1.82117647 6.72470588,1.87764706 6.59529412,1.90352941 C5.47067721,2.11806501 4.42882973,2.64388005 3.58823529,3.42117647 C3.37882353,3.61176471 3.17176471,3.80705882 2.94823529,4.01176471 L2.13176471,3.65882353 L1.22588235,5.22823529 C1.44,5.38823529 1.64,5.54352941 1.84941176,5.68470588 C1.89536631,5.7054162 1.93061574,5.7443347 1.94668931,5.79210893 C1.96276288,5.83988316 1.95820742,5.89219396 1.93411765,5.93647059 C1.74775163,6.4745535 1.6376628,7.0360857 1.60705882,7.60470588 C1.56215962,8.41262205 1.67566144,9.22152234 1.94117647,9.98588235 C1.96163344,10.0234844 1.96591981,10.0677888 1.95305065,10.1086151 C1.94018149,10.1494414 1.91126338,10.1832791 1.87294118,10.2023529 C1.65411765,10.3505882 1.44705882,10.5129412 1.22588235,10.6729412 L2.13411765,12.2447059 C2.38823529,12.1317647 2.62588235,12.0329412 2.85882353,11.9247059 C2.89604901,11.8990317 2.94209248,11.8895452 2.98643491,11.8984137 C3.03077735,11.9072822 3.06963036,11.9337479 3.09411765,11.9717647 C4.00530869,13.0304527 5.25030292,13.7467393 6.62352941,14.0023529 C6.66666646,14.0041094 6.70719569,14.02348 6.73565664,14.0559433 C6.76411759,14.0884065 6.77801961,14.1311215 6.77411765,14.1741176 C6.79529412,14.4352941 6.83058824,14.6964706 6.85882353,14.9576471 L8.67764706,14.9576471 C8.70588235,14.6941176 8.74117647,14.4376471 8.76,14.1788235 C8.76,14.0658824 8.81176471,14.0235294 8.92235294,14 C9.14588235,13.9552941 9.36705882,13.9011765 9.58352941,13.8352941 C10.648811,13.5090137 11.6047657,12.8980163 12.3482353,12.0682353 C12.5317647,11.8682353 12.5317647,11.8682353 12.7905882,11.9788235 L13.3952941,12.2423529 L14.3011765,10.6705882 C14.0917647,10.5152941 13.8917647,10.36 13.6823529,10.2188235 C13.6347999,10.19654 13.5983847,10.1558356 13.5815117,10.1061047 C13.5646387,10.0563739 13.5687661,10.001914 13.5929412,9.95529412 C13.9221748,9.01327648 14.011928,8.00415998 13.8541176,7.01882353 C13.7858824,6.60235294 13.6682353,6.19529412 13.5717647,5.76470588 L14.3011765,5.22352941 L13.3858824,3.65647059 Z" id="Shape"></path>
            <path d="M7.96941176,4.70588235 L8.88,4.89647059 C8.43764706,6.99529412 8,9.08235294 7.55529412,11.1905882 L6.64235294,11.0023529 L7.96941176,4.70588235 Z" id="Path"></path>
            <polygon id="Path" points="5.88235294 6.95764706 4.85176471 7.92235294 5.88470588 9.01647059 5.23529412 9.64705882 3.52941176 7.97411765 5.21882353 6.24705882"></polygon>
            <polygon id="Path" points="10.2564706 9.65882353 9.60470588 9.03529412 10.6588235 7.93176471 9.60705882 6.94588235 10.28 6.24 11.9788235 7.97647059"></polygon>
        </g>
    </g>
</svg>