<?xml version="1.0" encoding="UTF-8"?>
<svg width="16px" height="18px" viewBox="0 0 16 18" version="1.1" xmlns="http://www.w3.org/2000/svg" xmlns:xlink="http://www.w3.org/1999/xlink">
    <title>api_usage_unselected</title>
    <g id="Page-1" stroke="none" stroke-width="1" fill="none" fill-rule="evenodd">
        <g id="api_usage_unselected" transform="translate(1.843146, 1.500000)" fill="#2F3842" fill-rule="nonzero" stroke="#2F3842" stroke-width="0.2">
            <path d="M13.5942737,6.78317895 C13.5942737,5.30346316 12.4954175,4.07558596 11.0708175,3.87292807 C10.8600772,1.70220702 9.02512105,0 6.80002982,0 C4.57502807,0 2.74019123,1.70223684 2.52927193,3.87289825 C1.10461228,4.07555614 0.00575614035,5.30343333 0.00575614035,6.78314912 C0.00575614035,7.89059474 0.621424561,8.85679123 1.52835965,9.35793333 C1.50709474,9.5606807 1.49620877,9.76426316 1.49620877,9.96632456 C1.49620877,10.3590246 1.53572632,10.7522018 1.61368772,11.1348509 C1.65615789,11.3432351 1.8394,11.4929246 2.05204912,11.4929246 L2.86107018,11.4929246 C2.88448246,11.5532 2.90926667,11.6129088 2.93542281,11.6720509 L2.36320877,12.2442649 C2.21280351,12.3946404 2.18906316,12.6301351 2.30648246,12.8075018 C2.52211404,13.1333649 2.77216316,13.4392754 3.04965088,13.7167632 C3.32743684,13.9945193 3.63337719,14.2445684 3.95900175,14.4599614 C4.13624912,14.5772316 4.37171404,14.5535211 4.5221193,14.4031456 L5.09430351,13.8309614 C5.15344561,13.8571175 5.21318421,13.8819316 5.2735193,13.9053439 L5.2735193,14.7143351 C5.2735193,14.9269842 5.42320877,15.1102263 5.63156316,15.1526965 C6.01412281,15.2306281 6.40727018,15.2701754 6.80008947,15.2701754 C7.19287895,15.2701754 7.58602632,15.2306579 7.96861579,15.1526965 C8.17702982,15.1102263 8.3267193,14.9269842 8.3267193,14.7143351 L8.32668947,13.9053439 C8.38699474,13.8819316 8.44673333,13.8571175 8.50587544,13.8309912 L9.07794035,14.4030561 C9.22828596,14.5534018 9.46369123,14.5771421 9.64102807,14.4599018 C9.96656316,14.2446281 10.2725632,13.9945491 10.5504982,13.7166439 C10.8282544,13.4388877 11.0782439,13.1329474 11.2936368,12.8073526 C11.4109667,12.6300158 11.3872263,12.3945807 11.2368509,12.2442053 L10.6647561,11.6721105 C10.6909123,11.6129982 10.7157263,11.5532298 10.7391386,11.4928947 L11.5479807,11.4928947 C11.7606298,11.4928947 11.9438719,11.3432053 11.9863421,11.1348211 C12.0643035,10.7520526 12.1038509,10.3589053 12.1038509,9.96623509 C12.1037912,9.76408421 12.0929351,9.56053158 12.0717,9.35796316 C12.9786053,8.85685088 13.5942737,7.89059474 13.5942737,6.78317895 Z M11.2090842,9.96635439 C11.2090842,10.1776316 11.1955737,10.3890281 11.1688211,10.5981877 L10.419986,10.5981877 C10.2222491,10.5981877 10.0479544,10.728014 9.99134737,10.9174596 C9.92591228,11.1364912 9.83769123,11.3489614 9.7291,11.5489947 C9.63461579,11.7231404 9.66587193,11.9386526 9.80595789,12.0787386 L10.336,12.6088105 C10.2070982,12.7755298 10.0671316,12.9345544 9.91771053,13.0840053 C9.7682,13.2335158 9.60920526,13.3734526 9.44248596,13.5023246 L8.91241404,12.9722526 C8.77238772,12.8321667 8.55675614,12.8009105 8.38267018,12.8953947 C8.18254737,13.0040158 7.97013684,13.0922368 7.75125439,13.1575825 C7.5617193,13.2141596 7.43189298,13.3884842 7.43189298,13.5862509 L7.43192281,14.3352351 C7.01372281,14.3887105 6.58633684,14.3887105 6.16822632,14.3352351 L6.16822632,13.5862509 C6.16822632,13.3884842 6.03837018,13.2141596 5.84886491,13.1575825 C5.63007193,13.0922667 5.41763158,13.0040456 5.21738947,12.8953947 C5.04324386,12.8008509 4.8277614,12.8321965 4.68767544,12.9722526 L4.15748421,13.502414 C3.99076491,13.3735123 3.83177018,13.2335456 3.6823193,13.0841246 C3.53295789,12.9347632 3.39299123,12.7757088 3.264,12.6088702 L3.79413158,12.0787088 C3.93421754,11.9386526 3.96547368,11.7231105 3.87098947,11.5489947 C3.7623386,11.3487825 3.67414737,11.1363719 3.60883158,10.9176088 C3.55225439,10.7281035 3.37792982,10.5982474 3.18016316,10.5982474 L2.43114912,10.5982474 C2.40439649,10.3891175 2.39088596,10.1776912 2.39088596,9.96638421 C2.39088596,9.86852982 2.39392807,9.77022807 2.39986316,9.67186667 C2.57666316,9.7051807 2.7589807,9.72280702 2.94532456,9.72280702 L4.74839825,9.72280702 C4.73897368,9.80312456 4.73387368,9.88430702 4.73387368,9.96638421 C4.73387368,11.1056825 5.6607614,12.0325702 6.80002982,12.0325702 C7.93935789,12.0325702 8.86624561,11.1056825 8.86624561,9.96638421 C8.86624561,9.88433684 8.86114561,9.80312456 8.85172105,9.72280702 L10.6546456,9.72280702 C10.8409895,9.72280702 11.0232474,9.7051807 11.2000772,9.67186667 C11.2059825,9.77016842 11.2090842,9.86847018 11.2090842,9.96635439 Z M7.9458,9.72277719 C7.96274035,9.8022 7.9715386,9.88353158 7.9715386,9.96635439 C7.9715386,10.6122947 7.446,11.1378035 6.80005965,11.1378035 C6.15414912,11.1378035 5.62864035,10.6122947 5.62864035,9.96635439 C5.62864035,9.88353158 5.6374386,9.8022 5.65434912,9.72277719 L7.9458,9.72277719 Z M10.6546754,8.82804035 L7.24736842,8.82804035 L7.24736842,6.44839825 L7.83944561,7.04044561 C7.92680175,7.12780175 8.04129825,7.17149474 8.15576491,7.17149474 C8.27023158,7.17149474 8.38472807,7.12780175 8.47211404,7.04044561 C8.64682632,6.86576316 8.64682632,6.58248947 8.47211404,6.40777719 L7.11640877,5.05210175 C6.94172632,4.8774193 6.65845263,4.8774193 6.48374035,5.05210175 L5.12806491,6.40777719 C4.95335263,6.58245965 4.95335263,6.86573333 5.12806491,7.04044561 C5.30274737,7.21512807 5.58602105,7.21512807 5.76073333,7.04044561 L6.35263158,6.44851754 L6.35263158,8.82804035 L2.94535439,8.82804035 C1.81780702,8.82804035 0.900492982,7.91069649 0.900492982,6.78317895 C0.900492982,5.65727193 1.81521228,4.74097193 2.94049298,4.73831754 C2.94771053,4.73852632 2.95615088,4.73855614 2.96330877,4.73846667 C3.2076614,4.73470877 3.40381754,4.53533158 3.40381754,4.29094912 C3.40378772,2.41826491 4.92734561,0.894736842 6.80002982,0.894736842 C8.67271404,0.894736842 10.1962421,2.41826491 10.1962421,4.29121754 C10.1962421,4.41048596 10.2438719,4.52483333 10.3285439,4.6088193 C10.4123807,4.69197018 10.5256246,4.73858596 10.6436105,4.73858596 L10.6472193,4.73858596 C10.6515737,4.73852632 10.6558684,4.73843684 10.6604018,4.73828772 C11.7852947,4.7414193 12.699507,5.65754035 12.699507,6.78314912 C12.699507,7.91069649 11.7822228,8.82804035 10.6546754,8.82804035 L10.6546754,8.82804035 Z" id="Shape"></path>
        </g>
    </g>
</svg>