<?xml version="1.0" encoding="UTF-8"?>
<svg width="19px" height="17px" viewBox="0 0 19 17" version="1.1" xmlns="http://www.w3.org/2000/svg" xmlns:xlink="http://www.w3.org/1999/xlink">
    <title>assets_unselected</title>
    <g id="Page-1" stroke="none" stroke-width="1" fill="none" fill-rule="evenodd">
        <g id="assets_unselected" transform="translate(1.643146, 1.000000)">
            <rect id="Rectangle-Copy-4" x="0" y="0" width="16" height="16"></rect>
            <g id="assets" fill="#2F3842" fill-rule="nonzero" stroke="#2D3843">
                <path d="M15.4417778,14.5844444 C15.5017778,14.6004444 15.5546667,14.6115556 15.6057778,14.6288889 C15.8475053,14.7064415 16.0004496,14.9443342 15.9706667,15.1964444 C15.9378282,15.4475894 15.7341978,15.6417788 15.4817778,15.6626667 C15.3928889,15.6693333 15.304,15.6657778 15.2151111,15.6657778 C10.3517037,15.6657778 5.488,15.6657778 0.624,15.6657778 C0.375555556,15.6657778 0.174222222,15.5951111 0.0582222222,15.3657778 C-0.0233308275,15.2038 -0.0160499788,15.0113031 0.0775055884,14.8559485 C0.171061156,14.7005939 0.337798798,14.6041229 0.519111111,14.6004444 C0.696888889,14.5933333 0.871555556,14.6004444 1.06577778,14.6004444 L1.06577778,14.4075556 C1.06637037,11.1011852 1.06666667,7.79496296 1.06666667,4.48888889 C1.06666667,3.84577778 1.30177778,3.49555556 1.89822222,3.24977778 C4.44192593,2.20207407 6.98592593,1.15451852 9.53022222,0.107111111 C10.3795556,-0.241777778 11.1795556,0.297333333 11.1822222,1.21822222 C11.1853333,2.41822222 11.1822222,3.61466667 11.1822222,4.81288889 L11.1822222,5.01288889 L11.3702222,5.01288889 C12.3183704,5.01288889 13.2665185,5.01288889 14.2146667,5.01288889 C14.956,5.01288889 15.4408889,5.50177778 15.4408889,6.24444444 C15.4408889,8.95674074 15.4408889,11.6691852 15.4408889,14.3817778 L15.4417778,14.5844444 Z M10.1164444,14.5915556 L10.1164444,14.4724444 C10.1164444,10.0641481 10.1164444,5.65555556 10.1164444,1.24666667 C10.1164444,1.04177778 10.092,1.028 9.88933333,1.11111111 C7.36192593,2.15288889 4.83392593,3.19333333 2.30533333,4.23244444 C2.16844444,4.28844444 2.12755556,4.35866667 2.12755556,4.49911111 C2.13140741,7.80518519 2.13333333,11.1108148 2.13333333,14.416 L2.13333333,14.5915556 L10.1164444,14.5915556 Z M14.3768889,14.5915556 L14.3768889,14.4551111 C14.3768889,11.7271111 14.3779259,8.99925926 14.38,6.27155556 C14.38,6.11333333 14.3244444,6.07511111 14.176,6.07598497 C13.228,6.08133333 12.28,6.07866667 11.3315556,6.07911111 C11.284,6.07911111 11.2364444,6.08488889 11.1937778,6.088 L11.1937778,14.5915556 L14.3768889,14.5915556 Z" id="Shape" stroke-width="0.4"></path>
                <path d="M6.10755556,6.93333333 C5.69155556,6.93333333 5.27555556,6.93333333 4.85955556,6.93333333 C4.504,6.93333333 4.26177778,6.71688889 4.26043895,6.40488889 C4.25911111,6.09288889 4.50044444,5.868 4.85066667,5.86755556 C5.70488889,5.86755556 6.55896296,5.86755556 7.41288889,5.86755556 C7.75022222,5.86755556 7.99066667,6.09333333 7.98711111,6.40088889 C7.98355556,6.70844444 7.74488889,6.93333333 7.40533333,6.93333333 C6.97244444,6.936 6.54,6.93333333 6.10755556,6.93333333 Z" id="Path" stroke-width="0.3"></path>
                <path d="M6.13333333,8.90266667 C6.55466667,8.90266667 6.97614815,8.90266667 7.39777778,8.90266667 C7.748,8.90266667 7.98888889,9.12488889 7.98800245,9.44 C7.98800245,9.74666667 7.74577778,9.96666667 7.40622222,9.96711111 C6.55792593,9.96711111 5.70933333,9.96711111 4.86044444,9.96711111 C4.50755556,9.96711111 4.26444444,9.75066667 4.26220695,9.43777778 C4.26,9.12488889 4.50044444,8.90444444 4.85244444,8.90177778 C5.27881481,8.90177778 5.70577778,8.90207407 6.13333333,8.90266667 Z" id="Path" stroke-width="0.3"></path>
                <path d="M6.13333333,11.9368889 C6.55466667,11.9368889 6.97777778,11.9368889 7.39733333,11.9368889 C7.748,11.9368889 7.99066667,12.1591111 7.98845958,12.4728889 C7.98622222,12.7866667 7.74622222,13.0008889 7.40666667,13.0013333 C6.55244444,13.0013333 5.69851852,13.0013333 4.84488889,13.0013333 C4.50533333,13.0013333 4.26711111,12.7791111 4.26264475,12.4733333 C4.26,12.1577778 4.50088889,11.94 4.85244444,11.9368889 C5.27777778,11.936 5.70488889,11.9368889 6.13333333,11.9368889 Z" id="Path" stroke-width="0.3"></path>
            </g>
        </g>
    </g>
</svg>