<?xml version="1.0" encoding="UTF-8"?>
<svg width="18px" height="18px" viewBox="0 0 18 18" version="1.1" xmlns="http://www.w3.org/2000/svg" xmlns:xlink="http://www.w3.org/1999/xlink">
    <title>collaboration</title>
    <g id="Pre-Login" stroke="none" stroke-width="1" fill="none" fill-rule="evenodd">
        <path d="M13.4600267,1.19011491 C14.5879186,1.19413028 15.531688,1.61991612 16.2678274,2.47573709 C16.8507587,3.15347806 17.1346809,3.95093962 17.1362792,4.84422444 C17.1397878,6.7689932 17.1438032,8.69376195 17.1366691,10.6185307 C17.1310554,12.131392 16.2470488,13.4389233 14.8660322,14.006222 C14.4067589,14.1948667 13.9272917,14.2748234 13.4318411,14.2740437 L9.49766876,14.2704571 L9.49766876,14.2704571 C9.4058219,14.2702622 9.32929584,14.2920934 9.25288673,14.3431627 C7.91888511,15.2349661 6.58375294,16.1250932 5.24858179,17.0151424 C4.93752656,17.2224995 4.63649028,17.2369237 4.36765498,17.0515926 C4.18435109,16.9252057 4.07176462,16.7482173 4.06174567,16.523902 C4.05032328,16.2679315 4.05476749,16.0112593 4.05402679,15.7548989 C4.05274031,15.2842422 4.04919274,14.8135855 4.05480647,14.3430068 C4.05605397,14.236112 4.02428181,14.1914361 3.91976507,14.1665252 C3.26366036,14.0103543 2.69640072,13.6892411 2.21950654,13.2144911 C1.66791856,12.6654371 1.32142666,12.0055509 1.19804155,11.2354953 C1.16432018,11.0249804 1.14576369,10.8097484 1.14525689,10.5966216 C1.14085167,8.69134493 1.13874652,6.78606829 1.1427619,4.88079165 C1.14517892,3.75024877 1.56835282,2.80219109 2.42577214,2.0616855 C3.01186117,1.55555315 3.69720406,1.26519855 4.47279547,1.21011382 C4.77005028,1.18898436 5.06929328,1.19019287 5.36763965,1.18972506 C6.62710341,1.18769788 7.88656718,1.18886741 9.14603094,1.18890639 C10.5840425,1.18890639 12.0220151,1.18504695 13.4600267,1.19011491 Z M9.10946372,2.64551344 C7.67815744,2.64551344 6.24685116,2.64633211 4.81554488,2.6447711 C4.55988625,2.64449985 4.31015323,2.67818223 4.07047814,2.7650781 C3.1591826,3.09554748 2.60003168,3.89542607 2.59960285,4.86710819 C2.5987452,6.77538661 2.60034356,8.68366504 2.5985879,10.5919435 C2.59816044,11.0279432 2.69877875,11.4344318 2.93915556,11.7997141 C3.31656197,12.3731723 3.84109488,12.7188065 4.52912769,12.8009073 C4.67387616,12.8181773 4.82412141,12.8104195 4.963646,12.84609 C5.3027309,12.932752 5.50100473,13.2035365 5.50377261,13.5643356 C5.50728119,14.0251293 5.50482519,14.485962 5.50494214,14.9468336 L5.50494214,15.0878007 C5.55768781,15.0567302 5.58563951,15.0420332 5.61179793,15.0246072 C6.61770821,14.3535715 7.62509989,13.6847579 8.62777448,13.0088882 C8.8216431,12.8782131 9.02163223,12.8172807 9.25553766,12.8181383 C10.6478987,12.8233232 12.0402987,12.8246097 13.4325818,12.8167349 C13.656936,12.8154484 13.887021,12.784417 14.1042022,12.7277339 C14.9946802,12.4954268 15.6737856,11.6291971 15.6773721,10.7065571 C15.685091,8.72370185 15.6834537,6.74072962 15.6744873,4.75783537 C15.6734737,4.54190168 15.6266536,4.3165338 15.5541429,4.11213944 C15.2313924,3.20216937 14.4276544,2.64629313 13.4618199,2.64574735 C12.0110215,2.6447711 10.5602621,2.64551344 9.10946372,2.64551344 Z M7.05720871,8.45900278 L9.14052636,8.45872989 L9.14052636,8.45872989 L9.14052636,8.46044519 C10.0913129,8.46044519 11.0421385,8.46223847 11.9929251,8.45939262 C12.2853458,8.45849598 12.5183546,8.56266186 12.6728491,8.81527972 C12.9474541,9.26430017 12.6423245,9.86344892 12.1179085,9.9050451 C11.9920284,9.91506405 11.8649788,9.91249109 11.7384749,9.91249109 C9.92446039,9.91241312 8.11048484,9.91046391 6.2964703,9.91260804 C6.00065791,9.9129589 5.76308796,9.81269144 5.60683914,9.55613617 C5.33005105,9.10161895 5.64075543,8.49685647 6.1715648,8.46738439 C6.46605173,8.45104999 6.7619421,8.45939262 7.05720871,8.45900278 Z M13.5064296,5.55106714 C13.8576386,5.56096914 14.1592207,5.8121056 14.2140325,6.13544086 C14.274653,6.49304327 14.0985612,6.82460421 13.7657527,6.95118603 C13.6656412,6.98923465 13.5509106,7.00346389 13.4428463,7.00373678 L11.2864186,7.00607096 L11.2864186,7.00607096 L9.13002011,7.0059199 C7.685927,7.00588092 6.24183389,7.00650466 4.79774078,7.00541311 C4.47175459,7.00514022 4.19816321,6.8159887 4.097272,6.52871385 C3.92640409,6.04215158 4.26930944,5.5558622 4.79321861,5.55106714 L5.65479462,5.54769013 L5.65479462,5.54769013 L12.9807272,5.54826028 C13.1559613,5.54826028 13.3313124,5.54615513 13.5064296,5.55106714 Z" id="collaboration" stroke="#526488" stroke-width="0.5" fill="#556485"></path>
    </g>
</svg>