<?xml version="1.0" encoding="UTF-8"?>
<svg width="27px" height="27px" viewBox="0 0 27 27" version="1.1" xmlns="http://www.w3.org/2000/svg" xmlns:xlink="http://www.w3.org/1999/xlink">
    <title>contact support</title>
    <g id="Page-1" stroke="none" stroke-width="1" fill="none" fill-rule="evenodd">
        <g id="contact-support" transform="translate(0.186292, 0.500000)" fill="#E91E63">
            <rect id="Mask" opacity="0.12" x="0" y="0" width="26" height="26" rx="13"></rect>
            <path d="M13.0009065,18.1313877 L13.0009065,18.1320241 C12.6814508,18.1320241 12.3619951,18.1256604 12.0425395,18.1332968 C11.6804473,18.1428423 11.4768102,18.5392983 11.6702654,18.846663 C11.7701749,19.0057544 11.9222663,19.0604819 12.0998124,19.0611183 C12.4841774,19.0630274 12.867906,19.062391 13.252271,19.0630274 C13.4775445,19.0630274 13.7034544,19.0668456 13.9293643,19.0611183 C14.2844564,19.0528455 14.4989117,18.7181171 14.3544567,18.3961159 C14.2742746,18.2160244 14.1266377,18.1313877 13.9293643,18.1313877 C13.6200904,18.1313877 13.3101803,18.1313877 13.0009065,18.1313877 M8.79834629,15.7971977 C8.79834629,15.1894683 8.79834629,14.5823753 8.79770993,13.9752823 C8.79770993,13.9154639 8.79770993,13.8531 8.78052805,13.7970998 C8.71689146,13.5845536 8.56670912,13.4700078 8.32998101,13.4649168 C8.0207072,13.4585532 7.71079703,13.4585532 7.40088685,13.4668259 C7.10879492,13.4757351 6.93506704,13.6653721 6.93506704,13.9593731 C6.93443067,15.183741 6.93379431,16.4074726 6.93443067,17.6318405 C6.93443067,17.935387 7.12343134,18.1262968 7.42697785,18.1288423 C7.72288798,18.1307514 8.01816174,18.1313877 8.3134355,18.1275695 C8.37898119,18.1269332 8.4496178,18.1173877 8.50943619,18.0925694 C8.70670961,18.0123873 8.79834629,17.8596595 8.79834629,17.6477497 C8.79834629,17.0311112 8.79834629,16.4138363 8.79834629,15.7971977 M19.0642004,15.7991068 L19.0648368,15.7991068 C19.0648368,15.1894683 19.0680186,14.5798298 19.061655,13.9701913 C19.0610186,13.8734637 19.0342912,13.7684634 18.9897456,13.6831903 C18.905109,13.520917 18.7485629,13.4642805 18.572926,13.4630078 C18.2725613,13.461735 17.972833,13.4624121 17.6731046,13.4661896 C17.6113771,13.4668259 17.5464678,13.4763714 17.4904676,13.4986442 C17.2887397,13.5794627 17.2002848,13.7360087 17.2002848,13.9498276 C17.2002848,15.1811956 17.2009212,16.4119272 17.1977378,17.6432951 C17.197103,17.9315689 17.398831,18.130115 17.6877411,18.1294802 C17.9855603,18.1282059 18.2833795,18.130115 18.5811987,18.1262968 C18.6441989,18.1256604 18.7116537,18.116115 18.7701994,18.0932058 C18.9604728,18.0206601 19.0635641,17.8596595 19.0635641,17.6420224 C19.0648368,17.0279293 19.0642004,16.4131999 19.0642004,15.7991068 M19.0406549,12.5841865 C19.0406549,12.5650955 19.0444731,12.5351863 19.0400185,12.5059135 C19.0005638,12.228458 18.9592001,11.9510025 18.9184726,11.6735469 C18.9101999,11.6175467 18.880927,11.5946376 18.8211087,11.5952739 C18.3234706,11.597183 17.8264688,11.5927285 17.3294671,11.5978194 C17.0825571,11.6010012 16.9266475,11.4915463 16.8248289,11.270091 C16.3526455,10.2461783 15.5940974,9.51626666 14.5485482,9.09308336 C13.9917281,8.86844621 13.408817,8.77490043 12.8080876,8.80353689 C12.3110859,8.82708243 11.8306296,8.93526463 11.3711735,9.13062895 C11.2229002,9.19426553 11.0733543,9.23053839 10.9218992,9.14526536 C10.7449895,9.04599229 10.6590801,8.88690082 10.6635346,8.6877183 C10.6679892,8.50189947 10.7710805,8.3727172 10.9390811,8.29953513 C11.3158097,8.13471637 11.7065383,8.01698868 12.1125397,7.94507934 C12.5929959,7.85980631 13.0759976,7.83944261 13.5609084,7.89607917 C14.466457,8.00235227 15.2867326,8.32498976 16.0166443,8.87162804 C16.6396465,9.33808422 17.1290118,9.91844989 17.4987404,10.6012705 C17.5140132,10.6286342 17.5547406,10.6591798 17.5840134,10.6591798 C17.8983782,10.6636343 18.2127429,10.6623616 18.527744,10.6617252 C18.5455622,10.6617252 18.5640168,10.6559979 18.5945624,10.6515434 C18.2496521,9.82808593 17.7577413,9.11981073 17.1041936,8.52544501 C16.0140988,7.53271426 14.7260943,7.0026215 13.2554528,6.94025764 C10.4974431,6.82252996 8.24152616,8.5349905 7.41106871,10.6534525 C7.4409779,10.6559979 7.46770527,10.6604525 7.495069,10.6604525 C7.78843366,10.6617252 8.08116196,10.6598161 8.37389026,10.6636343 C8.43943594,10.664907 8.47061787,10.6394524 8.5017998,10.5853613 C8.62525478,10.3664515 8.74807339,10.1469052 8.88425568,9.93563176 C9.01089249,9.73899471 9.24889332,9.67472176 9.45507586,9.76381298 C9.65807657,9.85163147 9.77198606,10.0711777 9.72362226,10.2977239 C9.71153131,10.3543605 9.68353121,10.4122698 9.64980382,10.4593609 C9.4525304,10.7349073 9.28198435,11.0250901 9.14007476,11.3337276 C9.05416537,11.5208191 8.8931648,11.5978194 8.69016409,11.5965467 C8.29370816,11.5952739 7.89725223,11.5959103 7.50079629,11.5959103 C7.38815954,11.5965467 7.27552278,11.597183 7.16224965,11.5959103 C7.12088587,11.5952739 7.09034031,11.6086376 7.08397665,11.6519105 C7.04070377,11.9535479 6.99806726,12.254549 6.95606711,12.5561864 C6.95415802,12.5670046 6.95861258,12.5790956 6.96115804,12.5969138 C7.04324924,12.5797319 7.12088587,12.5523682 7.19979524,12.5498227 C7.4969781,12.5377318 7.79416096,12.5300954 8.09198018,12.5275499 C8.23579887,12.5262772 8.38089028,12.529459 8.52279987,12.5479136 C8.93898315,12.6026411 9.26162064,12.8145509 9.49580328,13.1594612 C9.64344016,13.376462 9.72807682,13.6170083 9.72871318,13.8811001 C9.72934955,15.1633773 9.73316775,16.4462909 9.72616772,17.7285681 C9.72298589,18.2809337 9.3163481,18.8078446 8.79134627,18.9822089 C8.6303457,19.0356636 8.46489058,19.062391 8.29625362,19.0630274 C8.01052535,19.0649365 7.72479708,19.0687547 7.4390688,19.062391 C6.80843023,19.0496637 6.3597923,18.7543899 6.10333685,18.1772061 C6.03015478,18.0130237 6.00024558,17.8380231 6.00024558,17.6579315 C6.00088195,16.0396531 5.99770012,14.4207384 6.00406378,12.80246 C6.00597288,12.3557311 6.0689731,11.9134569 6.16760981,11.4762735 C6.3858833,10.4981792 6.79315745,9.60663061 7.39388683,8.80544599 C8.0506164,7.93171566 8.86580107,7.24634962 9.84198631,6.75252971 C10.2021694,6.56989271 10.5744434,6.41843763 10.9600811,6.30198268 C11.4411737,6.15689126 11.9318118,6.06143638 12.4345408,6.02261806 C12.8577241,5.98952704 13.2789983,5.9920725 13.7009089,6.03470902 C14.1304559,6.07798189 14.5536392,6.15880036 14.9704588,6.28161897 C15.5457336,6.45216502 16.0917355,6.68762039 16.6046464,6.99753057 C17.237194,7.37998645 17.7978323,7.84962446 18.2833795,8.40962642 C18.7651085,8.96453746 19.1520189,9.57863051 19.4383835,10.2544511 C19.6452025,10.7412709 19.7947484,11.2452727 19.8889306,11.7664564 C20.0015673,12.3894585 20.000931,13.0175516 20.00039,13.6469175 C19.9983855,14.968013 20.0028401,16.2884722 19.9971128,17.6095677 C19.9952037,18.2198426 19.7158391,18.6672078 19.1641099,18.9370269 C18.9662001,19.0331182 18.7523811,19.0636637 18.5341077,19.0636637 C17.4726494,19.0636637 16.4111911,19.0643001 15.3497329,19.062391 C15.2784599,19.062391 15.2415507,19.0802092 15.2103687,19.1502095 C15.0156408,19.5797564 14.6853669,19.852121 14.2271835,19.9609396 C14.1190013,19.9870306 14.0038191,19.9959397 13.8911823,19.9965761 C13.2961802,19.9997579 12.6999054,19.9991215 12.1049033,19.9965761 C11.453901,19.994667 10.9085355,19.6096656 10.7278076,18.9962089 C10.5687161,18.455298 10.7029893,17.9754781 11.107718,17.5802949 C11.3800826,17.3149303 11.7141747,17.1952935 12.0934487,17.1959299 C12.6986327,17.1972026 13.304453,17.1902026 13.9090005,17.1965663 C14.5345482,17.2035663 14.9685497,17.5090219 15.2294597,18.0722057 C15.2415507,18.0976603 15.2810054,18.1262968 15.3083691,18.1269332 C15.6297338,18.1307514 15.951735,18.1288423 16.2737361,18.1294786 C16.3278272,18.1294786 16.3348272,18.1084786 16.3265545,18.0575693 C16.3010998,17.909296 16.264827,17.7603864 16.2641906,17.6108405 C16.2597361,16.403018 16.2635542,15.1951956 16.2622815,13.9873732 C16.2622815,13.4865533 16.4557367,13.0843701 16.8598291,12.7884599 C17.1111936,12.6058229 17.3975582,12.529459 17.7055593,12.5275499 C17.9887421,12.5262772 18.2725613,12.5205499 18.5557441,12.5288227 C18.7148356,12.5339136 18.8732907,12.5638228 19.0406549,12.5841865" id="Fill-1" stroke="#E91E63" stroke-width="0.2"></path>
        </g>
    </g>
</svg>