<?xml version="1.0" encoding="UTF-8"?>
<svg width="19px" height="18px" viewBox="0 0 19 18" version="1.1" xmlns="http://www.w3.org/2000/svg" xmlns:xlink="http://www.w3.org/1999/xlink">
    <title>customer_unselected</title>
    <g id="Page-1" stroke="none" stroke-width="1" fill="none" fill-rule="evenodd">
        <g id="customer_unselected" transform="translate(1.643146, 1.000000)">
            <rect id="Rectangle-Copy-2" x="0" y="0" width="16" height="16"></rect>
            <g id="Customer:user" fill="#2F3842" fill-rule="nonzero" stroke="#2D3843" stroke-width="0.2">
                <path d="M5,8.66666667 C3.34314575,8.66666667 2,7.32352092 2,5.66666667 C2,4.00981242 3.34314575,2.66666667 5,2.66666667 C6.65685425,2.66666667 8,4.00981242 8,5.66666667 C7.99816296,7.32275939 6.65609272,8.66482962 5,8.66666667 L5,8.66666667 Z M5,4 C4.07952542,4 3.33333333,4.74619208 3.33333333,5.66666667 C3.33333333,6.58714125 4.07952542,7.33333333 5,7.33333333 C5.92047458,7.33333333 6.66666667,6.58714125 6.66666667,5.66666667 C6.66666667,5.22463918 6.49107193,4.800716 6.1785113,4.48815536 C5.86595067,4.17559473 5.44202748,4 5,4 Z M10,15.3333333 L10,15 C10,12.2385763 7.76142375,10 5,10 C2.23857625,10 0,12.2385763 0,15 L0,15.3333333 C0,15.7015232 0.298476833,16 0.666666667,16 C1.0348565,16 1.33333333,15.7015232 1.33333333,15.3333333 L1.33333333,15 C1.33333333,12.9749559 2.97495592,11.3333333 5,11.3333333 C7.02504408,11.3333333 8.66666667,12.9749559 8.66666667,15 L8.66666667,15.3333333 C8.66666667,15.7015232 8.9651435,16 9.33333333,16 C9.70152317,16 10,15.7015232 10,15.3333333 Z M16,12 C16,10.1596637 14.9183209,8.49121485 13.238297,7.73997763 C11.5582731,6.9887404 9.5936273,7.2950215 8.222,8.522 C8.04197818,8.68019091 7.96071517,8.9228341 8.00915357,9.15753804 C8.05759198,9.39224198 8.22827756,9.58288779 8.45621817,9.65688305 C8.68415878,9.73087831 8.93427635,9.67683579 9.11133333,9.51533333 C10.0911379,8.63912724 11.4943785,8.42053678 12.6942733,8.95719919 C13.8941681,9.4938616 14.6666461,10.6855594 14.6666667,12 C14.6666667,12.3681898 14.9651435,12.6666667 15.3333333,12.6666667 C15.7015232,12.6666667 16,12.3681898 16,12 Z M11.6666667,6 C10.0098124,6 8.66666667,4.65685425 8.66666667,3 C8.66666667,1.34314575 10.0098124,0 11.6666667,0 C13.3235209,0 14.6666667,1.34314575 14.6666667,3 C14.6648296,4.65609272 13.3227594,5.99816296 11.6666667,6 Z M11.6666667,1.33333333 C10.7461921,1.33333333 10,2.07952542 10,3 C10,3.92047458 10.7461921,4.66666667 11.6666667,4.66666667 C12.5871412,4.66666667 13.3333333,3.92047458 13.3333333,3 C13.3333333,2.55797252 13.1577386,2.13404933 12.845178,1.8214887 C12.5326173,1.50892807 12.1086941,1.33333333 11.6666667,1.33333333 Z" id="Shape"></path>
            </g>
        </g>
    </g>
</svg>