<?xml version="1.0" encoding="UTF-8"?>
<svg width="19px" height="16px" viewBox="0 0 19 16" version="1.1" xmlns="http://www.w3.org/2000/svg" xmlns:xlink="http://www.w3.org/1999/xlink">
    <title>dashboard_unselected</title>
    <g id="Page-1" stroke="none" stroke-width="1" fill="none" fill-rule="evenodd">
        <g id="dashboard_unselected" transform="translate(1.643146, 0.000000)">
            <rect id="Rectangle-Copy-11" x="0" y="0" width="16" height="16"></rect>
            <g id="dashboard-2" transform="translate(0.000000, 1.500000)" fill="#2F3842" fill-rule="nonzero" stroke="#2F3842" stroke-width="0.5">
                <path d="M0.382871537,12.6507137 C0.172292191,12.6507137 0,12.4784215 0,12.2678421 L0,0.398824517 C0,0.188245172 0.172292191,0.0159529807 0.382871537,0.0159529807 L15.4424853,0.0159529807 C15.6530647,0.0159529807 15.8253568,0.188245172 15.8253568,0.398824517 L15.8253568,12.2678421 C15.8253568,12.4784215 15.6530647,12.6507137 15.4424853,12.6507137 L0.382871537,12.6507137 Z M0.765743073,11.8849706 L15.0596138,11.8849706 L15.0596138,5.21662469 L0.765743073,5.21662469 L0.765743073,11.8849706 Z M10.8065491,4.45088161 L15.0596138,4.45088161 L15.0596138,0.781696054 L10.8065491,0.781696054 L10.8065491,4.45088161 Z M5.7845508,4.45088161 L10.0376154,4.45088161 L10.0376154,0.781696054 L5.7845508,0.781696054 L5.7845508,4.45088161 Z M0.765743073,4.45088161 L5.01880772,4.45088161 L5.01880772,0.781696054 L0.765743073,0.781696054 L0.765743073,4.45088161 Z M4.42216625,10.7076406 C4.32006717,10.7076406 4.22434929,10.6693535 4.15096558,10.5959698 C4.00100756,10.4460118 4.00100756,10.2035264 4.15096558,10.0535684 L6.59177162,7.61276238 C6.66515533,7.53937867 6.76087322,7.50109152 6.86297229,7.50109152 C6.96507137,7.50109152 7.06078925,7.53937867 7.13417296,7.61276238 L8.58270361,9.06129303 L11.1351805,6.50881612 C11.2085642,6.43543241 11.3042821,6.39714526 11.4063812,6.39714526 C11.5084803,6.39714526 11.6041982,6.43543241 11.6775819,6.50881612 C11.8275399,6.65877414 11.8275399,6.90125945 11.6775819,7.05121746 L8.85390428,9.87489505 C8.78052057,9.94827876 8.68480269,9.98656591 8.58270361,9.98656591 C8.48060453,9.98656591 8.38488665,9.94827876 8.31150294,9.87489505 L6.86297229,8.4231738 L4.69017632,10.5959698 C4.61998321,10.6693535 4.52426532,10.7076406 4.42216625,10.7076406 Z" id="Shape"></path>
            </g>
        </g>
    </g>
</svg>