<?xml version="1.0" encoding="UTF-8"?>
<svg width="19px" height="17px" viewBox="0 0 19 17" version="1.1" xmlns="http://www.w3.org/2000/svg" xmlns:xlink="http://www.w3.org/1999/xlink">
    <title>device_unselected</title>
    <g id="Page-1" stroke="none" stroke-width="1" fill="none" fill-rule="evenodd">
        <g id="device_unselected" transform="translate(1.643146, 0.562262)">
            <rect id="Rectangle-Copy-5" x="0" y="0" width="16" height="16"></rect>
            <g id="devices-copy" transform="translate(0.000000, 1.411765)" fill="#2E3842" fill-rule="nonzero" stroke="#2C3843" stroke-width="0.2">
                <path d="M14.5603272,4.18650307 L13.8274029,4.18650307 L13.8274029,1.70306748 C13.8274029,0.777096115 13.0748466,0.0245398773 12.1488753,0.0245398773 L1.67852761,0.0245398773 C0.752556237,0.0245398773 0,0.777096115 0,1.70306748 L0,8.48261759 C0,9.40858896 0.752556237,10.1611452 1.67852761,10.1611452 L6.32474438,10.1611452 L6.32474438,11.3128834 L4.90143149,11.3128834 C4.57750511,11.3128834 4.31247444,11.5779141 4.31247444,11.9018405 C4.31247444,12.2257669 4.57750511,12.4907975 4.90143149,12.4907975 L8.92924335,12.4907975 C9.25316973,12.4907975 9.51820041,12.2257669 9.51820041,11.9018405 C9.51820041,11.5779141 9.25316973,11.3128834 8.92924335,11.3128834 L7.50593047,11.3128834 L7.50593047,10.1611452 L8.82126789,10.1611452 C9.14519427,10.1611452 9.41022495,9.89611452 9.41022495,9.57218814 C9.41022495,9.24826176 9.14519427,8.98323108 8.82126789,8.98323108 L1.67852761,8.98323108 C1.40368098,8.98323108 1.17791411,8.7607362 1.17791411,8.48261759 L1.17791411,1.70306748 C1.17791411,1.42822086 1.400409,1.20245399 1.67852761,1.20245399 L12.1488753,1.20245399 C12.4237219,1.20245399 12.6494888,1.42494888 12.6494888,1.70306748 L12.6494888,4.18650307 L11.9165644,4.18650307 C11.1312883,4.18650307 10.4932515,4.82453988 10.4932515,5.60981595 L10.4932515,11.0674847 C10.4932515,11.8527607 11.1312883,12.4907975 11.9165644,12.4907975 L14.5635992,12.4907975 C14.8875256,12.4907975 15.1525562,12.2257669 15.1525562,11.9018405 C15.1525562,11.5779141 14.8875256,11.3128834 14.5635992,11.3128834 L11.9165644,11.3128834 C11.7824131,11.3128834 11.6711656,11.204908 11.6711656,11.0674847 L11.6711656,5.60981595 C11.6711656,5.47566462 11.7791411,5.36441718 11.9165644,5.36441718 L14.5635992,5.36441718 C14.6977505,5.36441718 14.808998,5.47239264 14.808998,5.60981595 L14.808998,9.72924335 C14.808998,10.0531697 15.0740286,10.3182004 15.397955,10.3182004 C15.7218814,10.3182004 15.9836401,10.0531697 15.9836401,9.72924335 L15.9836401,5.60981595 C15.9836401,4.82453988 15.3456033,4.18650307 14.5603272,4.18650307 Z" id="Path"></path>
            </g>
        </g>
    </g>
</svg>