<?xml version="1.0" encoding="UTF-8"?>
<svg width="17px" height="18px" viewBox="0 0 17 18" version="1.1" xmlns="http://www.w3.org/2000/svg" xmlns:xlink="http://www.w3.org/1999/xlink">
    <title>device_profiles_unselected</title>
    <g id="Page-1" stroke="none" stroke-width="1" fill="none" fill-rule="evenodd">
        <g id="device_profiles_unselected" transform="translate(0.643146, 1.500000)">
            <rect id="Rectangle-Copy-7" x="0" y="0" width="16" height="16"></rect>
            <g id="device-_profile--copy" transform="translate(0.800000, 0.000000)" fill="#2E3842" fill-rule="nonzero">
                <g id="Group" transform="translate(5.138931, 2.699237)" stroke="#2C3843" stroke-width="0.6">
                    <path d="M4.23001527,5.07248855 C1.5250687,5.07248855 0.034778626,6.35203053 0.034778626,8.67596947 C0.0350649887,8.85752321 0.182323895,9.00454962 0.363877863,9.00454962 L8.09770992,9.00454962 C8.27917973,9.00454962 8.42629008,8.85743927 8.42629008,8.67596947 C8.42473282,6.35203053 6.93496183,5.07248855 4.23001527,5.07248855 Z M0.704396947,8.34738931 C0.833648855,6.61001527 2.01819847,5.72964885 4.23001527,5.72964885 C6.44183206,5.72964885 7.62638168,6.6120916 7.75615267,8.34738931 L0.704396947,8.34738931 Z" id="Shape"></path>
                    <path d="M4.23001527,0 C2.98732824,0 2.0498626,0.956152672 2.0498626,2.22323664 C2.0498626,3.52821374 3.02781679,4.58922137 4.23001527,4.58922137 C5.43221374,4.58922137 6.41016794,3.52821374 6.41016794,2.22375573 C6.40964885,0.95719084 5.47270229,0 4.23001527,0 Z M4.23001527,3.93206107 C3.39065649,3.93206107 2.70754198,3.16589313 2.70754198,2.22375573 C2.70754198,1.31587786 3.3480916,0.657160305 4.23001527,0.657160305 C5.09792366,0.657160305 5.75248855,1.33196947 5.75248855,2.22375573 C5.75248855,3.16641221 5.06937405,3.93309924 4.23001527,3.93309924 L4.23001527,3.93206107 Z" id="Shape"></path>
                </g>
                <path d="M4.03743511,15.5429313 C3.23735369,15.5429313 2.43744529,15.5429313 1.63770992,15.5429313 C0.645221374,15.5392977 0.00311450382,14.892 0,13.8922443 C0,12.4516132 0,11.0123664 0,9.57450382 L0,7.75148092 C0,7.15695674 0,6.56295165 0,5.96946565 L0,5.94610687 C0,4.52122137 0,3.05429008 0.00311450382,1.61227481 C0.00311450382,0.784854962 0.515450382,0.158839695 1.30082443,0.0212824427 C1.41258732,0.00578506817 1.52543829,-0.000465139114 1.63822901,0.00259541985 L2.55129771,0 L5.00137405,0 C5.76442748,0 6.52730789,0.000865139949 7.29001527,0.00259541985 C8.24928244,0.00570992366 8.89917557,0.654564885 8.9111145,1.61850382 L8.9111145,1.64445802 C8.91597772,1.76937317 8.91146634,1.89447715 8.89761832,2.01871756 C8.87923702,2.16951666 8.74946227,2.28177856 8.59758779,2.27825954 L8.57630534,2.27825954 C8.41647116,2.26518084 8.29269596,2.13286942 8.29029008,1.97251908 C8.28769466,1.90919084 8.29029008,1.84274809 8.29029008,1.77215267 C8.29029008,1.71245802 8.29029008,1.65328244 8.29029008,1.59358779 C8.28094656,1.02259542 7.90616794,0.640030534 7.33621374,0.618229008 C7.27080916,0.615633588 7.20177099,0.61459542 7.11300763,0.61459542 L1.71920611,0.61459542 C0.975877863,0.61459542 0.615114504,0.977954198 0.615114504,1.72699237 L0.615114504,13.8149008 C0.615114504,14.5639389 0.978473282,14.9278168 1.72076336,14.9278168 L7.19969466,14.9278168 C7.9139542,14.9278168 8.28094656,14.564458 8.28977099,13.8491603 L8.28977099,13.7972519 C8.28575053,13.683306 8.29445578,13.5692673 8.31572519,13.4572519 C8.35676346,13.3370613 8.47286929,13.2589499 8.59966412,13.266229 L8.61212214,13.266229 C8.75435115,13.2703817 8.86803053,13.3700458 8.87945038,13.4385649 C8.94537405,13.8221679 9.05957252,15.1032672 7.75719084,15.4837557 C7.59738733,15.5236109 7.43282316,15.5410806 7.26821374,15.5356641 C6.22900763,15.541374 5.1389313,15.5429313 4.03743511,15.5429313 Z" id="Path" stroke="#2C3843" stroke-width="0.7"></path>
                <path d="M4.48798679,12.9479237 C4.29719181,12.9479237 4.10405373,12.94625 3.91392821,12.9429027 C3.80864218,12.9378947 3.72606407,12.8507019 3.72677827,12.7452993 C3.72750179,12.6398966 3.81126149,12.5538383 3.91660603,12.5502668 C3.9758529,12.5485931 4.03945122,12.5479237 4.11744285,12.5479237 L4.12413741,12.5479237 L4.29150143,12.5479237 L4.45886545,12.5479237 L4.62857256,12.5479237 L4.64229641,12.5479237 L4.79359348,12.5479237 C4.86924202,12.5479237 4.93150143,12.5479237 4.98940938,12.549932 C5.1079031,12.5529446 5.18823783,12.6309362 5.1902462,12.7437396 C5.19401771,12.79713 5.17482682,12.8495927 5.13749484,12.8879475 C5.10016286,12.9263023 5.0482379,12.9469038 4.99476503,12.9445764 C4.82304955,12.9465848 4.65367716,12.9479237 4.48798679,12.9479237 Z" id="Path" stroke="#2F3842" stroke-width="0.6"></path>
            </g>
        </g>
    </g>
</svg>