<?xml version="1.0" encoding="UTF-8"?>
<svg width="27px" height="27px" viewBox="0 0 27 27" version="1.1" xmlns="http://www.w3.org/2000/svg" xmlns:xlink="http://www.w3.org/1999/xlink">
    <title>documentation</title>
    <g id="Page-1" stroke="none" stroke-width="1" fill="none" fill-rule="evenodd">
        <g id="documentation" transform="translate(0.186292, 0.500000)" fill="#2196F3">
            <rect id="Mask-Copy-4" opacity="0.12" x="0" y="0" width="26" height="26" rx="13"></rect>
            <path d="M16.2703333,7.00076633 C17.1745,7.00134966 17.8243333,7.65234966 17.8260833,8.55709966 L17.8266667,9.00509966 L17.8266667,9.00509966 C17.983,9.00509966 18.1276667,9.00451633 18.2729167,9.00509966 C19.17825,9.007433 19.8304167,9.65551633 19.831,10.5590997 C19.8327624,12.4170163 19.831,14.2755163 19.8327624,16.133433 C19.8333333,16.213933 19.8135,16.2722663 19.7545833,16.331183 C18.61825,17.468683 17.4848333,18.6090997 16.3473333,19.745433 C16.3035833,19.7897663 16.2283333,19.8265163 16.1676667,19.8265163 C14.2881667,19.8305997 12.4086667,19.831183 10.52975,19.8288497 C9.80175,19.8282663 9.21375,19.363933 9.0475,18.6633497 C9.01891667,18.543183 9.01191667,18.4160163 9.00608333,18.2917663 C8.99966667,18.142433 9.00433333,17.9925163 9.00433333,17.8367663 C8.74766667,17.8250997 8.50383333,17.8320997 8.26583333,17.799433 C7.57516667,17.706683 7.03325,17.0982663 7.00233333,16.4023497 L7.00051042,16.339933 L7.00051042,16.339933 L7,8.54834966 L7,8.54834966 C7.00058333,7.801683 7.4585,7.20959966 8.16783333,7.04276633 C8.29266667,7.01301633 8.42391667,7.00251633 8.55225,7.001933 C11.12475,6.99959966 13.6978333,6.99959966 16.2703333,7.00076633 Z M18.2309167,10.0078497 L10.6131667,10.0078497 L10.6131667,10.0078497 C10.1949167,10.0078497 10.0076667,10.193933 10.0076667,10.608683 L10.0076667,18.224683 C10.0076667,18.6400163 10.1949167,18.826683 10.612,18.8272663 L15.5685833,18.8272663 L15.5685833,18.6785163 C15.5685833,18.1523497 15.568,17.626183 15.5691667,17.1000163 C15.5709167,16.1935163 16.2178333,15.545433 17.122,15.5430997 L17.9053438,15.5421517 L17.9053438,15.5421517 L18.82825,15.5425163 L18.82825,10.6040163 L18.82825,10.6040163 C18.82825,10.1968497 18.6386667,10.0078497 18.2309167,10.0078497 Z M16.9919167,16.5563497 C16.7615,16.5680163 16.5800833,16.7838497 16.5754167,17.017183 C16.5684167,17.367183 16.5736667,17.717183 16.5736667,18.042683 C17.0724167,17.5515163 17.57875,17.053933 18.08975,16.551683 C17.72225,16.551683 17.3559167,16.537683 16.9919167,16.5563497 Z M16.2254167,8.00351633 L8.60766667,8.00351633 C8.19058333,8.00351633 8.00275,8.18959966 8.00275,8.604933 C8.00275,11.1435997 8.00275,13.6822663 8.00333333,16.220933 C8.00333333,16.2670163 8.00216667,16.3130997 8.00566667,16.359183 C8.02608333,16.5942663 8.19933333,16.791433 8.43325,16.8135997 C8.61816667,16.8305163 8.80658333,16.8170997 9.00433333,16.8170997 L9.00433333,16.6630997 C9.00433333,14.6383497 9.00375,12.6130163 9.00608333,10.587683 C9.00608333,10.4505997 9.01483333,10.3105997 9.04516667,10.178183 C9.20908333,9.46884966 9.80408333,9.005683 10.54725,9.005683 C12.5854167,9.003933 14.623,9.00509966 16.6611667,9.00509966 L16.8239167,9.00509966 L16.8239167,8.59909966 C16.8233333,8.191933 16.6343333,8.00351633 16.2254167,8.00351633 Z M14.5625083,15.5282247 L14.5625083,16.515808 L11.520425,16.515808 L11.520425,15.5282247 L14.5625083,15.5282247 Z M17.3152583,13.521558 L17.3152583,14.5091413 L11.516925,14.5091413 L11.516925,13.521558 L17.3152583,13.521558 Z M17.3187583,11.516058 L17.3187583,12.5036413 L11.5198417,12.5036413 L11.5198417,11.516058 L17.3187583,11.516058 Z" id="Combined-Shape" fill-rule="nonzero"></path>
        </g>
    </g>
</svg>