<?xml version="1.0" encoding="UTF-8"?>
<svg width="19px" height="18px" viewBox="0 0 19 18" version="1.1" xmlns="http://www.w3.org/2000/svg" xmlns:xlink="http://www.w3.org/1999/xlink">
    <title>entity_views_unselected</title>
    <g id="Page-1" stroke="none" stroke-width="1" fill="none" fill-rule="evenodd">
        <g id="entity_views_unselected" transform="translate(1.643146, 1.500000)">
            <rect id="Rectangle-Copy-10" x="0" y="0" width="16" height="16"></rect>
            <g id="entity-view-copy" transform="translate(0.444444, 0.000000)" fill="#2F3842" fill-rule="nonzero" stroke="#2F3842" stroke-width="0.6">
                <path d="M8.15906433,8.61333333 L8.15906433,10.1169591 C8.2605848,10.1239766 8.35695906,10.1328655 8.45333333,10.1366082 C9.10416933,10.1621201 9.75119508,10.2484215 10.3859649,10.394386 C11.1597661,10.5754386 11.9050292,10.8290058 12.5501754,11.314152 C12.779003,11.478914 12.9720528,11.6883564 13.1176608,11.9298246 C13.4166082,12.4444444 13.382924,12.9487719 13.0437427,13.4320468 C12.7461988,13.8563743 12.3232749,14.1253801 11.8680702,14.3480702 C11.2940351,14.6287719 10.6849123,14.7985965 10.0603509,14.9225731 C9.06339181,15.12 8.05614035,15.1630409 7.04561404,15.1097076 C5.94760234,15.0530994 4.87017544,14.8757895 3.85356725,14.4299415 C3.37497076,14.2212865 2.92865497,13.9597661 2.59040936,13.5508772 C2.08374269,12.9394152 2.10479532,12.2245614 2.64187135,11.6374269 C3.01614035,11.2280702 3.48725146,10.9670175 3.99157895,10.7602339 C4.67863869,10.4840026 5.40067779,10.3043588 6.13707602,10.2264327 C6.51134503,10.1838596 6.88935673,10.157193 7.26643275,10.1328655 C7.36,10.1263158 7.39321637,10.0987135 7.39181287,10.0018713 C7.3871345,9.5845614 7.38619883,9.1677193 7.39181287,8.75040936 C7.39181287,8.64140351 7.36093567,8.61426901 7.25426901,8.61426901 C5.54666667,8.61754386 3.83906433,8.61192982 2.13146199,8.62081871 C1.79976608,8.62081871 1.64631579,8.4219883 1.64959064,8.13380117 C1.6594152,7.11251462 1.64959064,6.09076023 1.65567251,5.06947368 C1.65567251,4.95953216 1.62900585,4.92023392 1.51532164,4.9225731 C1.15274854,4.92959064 0.790175439,4.9225731 0.427602339,4.92538012 C0.257777778,4.92538012 0.120233918,4.86690058 0.0425730994,4.7097076 C-0.0175431271,4.59435497 -0.0127680995,4.45592666 0.0551538605,4.34499065 C0.12307582,4.23405464 0.244195966,4.16686009 0.374269006,4.16795322 C0.740584795,4.16233918 1.10690058,4.16795322 1.47368421,4.16795322 C1.65239766,4.16795322 1.65239766,4.16795322 1.65239766,3.99391813 L1.65239766,0.459883041 C1.6528655,0.140350877 1.78947368,0 2.10526316,0 L8.99461988,0 C9.22479532,0 9.34783626,0.0739181287 9.41239766,0.247017544 C9.45316254,0.352577419 9.44358843,0.470962285 9.38639044,0.568599634 C9.32919244,0.666236982 9.23060874,0.732478174 9.11859649,0.748538012 C9.05644967,0.755118578 8.99392712,0.757463173 8.93146199,0.755555556 L2.58105263,0.755555556 C2.41403509,0.755555556 2.41356725,0.755555556 2.41356725,0.919298246 L2.41356725,7.70292398 C2.41356725,7.85403509 2.41356725,7.85450292 2.56608187,7.85450292 L12.7298246,7.85450292 C12.882807,7.85450292 12.882807,7.85450292 12.882807,7.70245614 L12.882807,0.918830409 C12.882807,0.753216374 12.882807,0.753216374 12.7162573,0.753216374 C12.217076,0.753216374 11.7183626,0.753216374 11.2191813,0.753216374 C10.9852632,0.753216374 10.8252632,0.612865497 10.8140351,0.40374269 C10.8048954,0.301320305 10.8389488,0.1997352 10.9079733,0.123515118 C10.9769978,0.0472950356 11.0747196,0.00336763015 11.1775439,0.00233918129 C11.2865497,-0.00187134503 11.3955556,0.00233918129 11.5050292,0.00233918129 C12.0739181,0.00233918129 12.6432749,0.00233918129 13.2126316,0.00233918129 C13.5022222,0.00233918129 13.6425731,0.142690058 13.6425731,0.433216374 C13.6425731,1.62619883 13.6425731,2.81918129 13.6425731,4.01216374 C13.6425731,4.16654971 13.6425731,4.16654971 13.7932164,4.16701754 C14.085614,4.16701754 14.3784795,4.17450292 14.6704094,4.16701754 C14.77616,4.15823279 14.8808626,4.19337465 14.9598997,4.26418062 C15.0389369,4.3349866 15.0853358,4.43521002 15.0882462,4.54128655 C15.0919298,4.75883041 14.9174269,4.91929825 14.6722807,4.92163743 C14.3723977,4.92491228 14.0720468,4.92678363 13.7716959,4.92163743 C13.6678363,4.92163743 13.6402339,4.95251462 13.6402339,5.05450292 C13.6439766,6.09122807 13.6425731,7.12842105 13.6425731,8.16561404 C13.6425731,8.4748538 13.5022222,8.61520468 13.1925146,8.61520468 L8.15906433,8.61520468 L8.15906433,8.61333333 Z M7.87415205,14.3677193 C8.51114721,14.3641911 9.14664736,14.30565 9.77356725,14.1927485 C10.3817544,14.0804678 10.9721637,13.922807 11.5312281,13.6575439 C11.8638596,13.499883 12.180117,13.3155556 12.4098246,13.0166082 C12.6035088,12.7644444 12.6100585,12.5118129 12.428538,12.2526316 C12.3768941,12.1794878 12.3177849,12.111912 12.2521637,12.0509942 C12.0018713,11.817076 11.7047953,11.654269 11.3922807,11.5204678 C10.3747368,11.085848 9.3005848,10.9230409 8.20584795,10.8804678 C7.21998606,10.8354725 6.23264711,10.9274205 5.27204678,11.1536842 C4.7405848,11.2842105 4.2245614,11.4526316 3.74736842,11.7239766 C3.50923977,11.8591813 3.2851462,12.0140351 3.12187135,12.2385965 C2.93239766,12.5005848 2.92912281,12.7588304 3.13169591,13.011462 C3.23188837,13.1348343 3.34744536,13.2448886 3.47555556,13.3389474 C3.93637427,13.68 4.46783626,13.8699415 5.01333333,14.020117 C5.91625731,14.2727485 6.83976608,14.3681871 7.87415205,14.3695906 L7.87415205,14.3677193 Z" id="Shape"></path>
            </g>
        </g>
    </g>
</svg>