<?xml version="1.0" encoding="UTF-8"?>
<svg width="18px" height="15px" viewBox="0 0 18 15" version="1.1" xmlns="http://www.w3.org/2000/svg" xmlns:xlink="http://www.w3.org/1999/xlink">
    <title>files</title>
    <g id="Pre-Login" stroke="none" stroke-width="1" fill="none" fill-rule="evenodd">
        <path d="M14.0253629,13.030461 L4.75263566,13.030461 C3.4723392,13.030461 2.43445384,11.9857921 2.43445384,10.6971277 L2.43445384,4.47490546 C2.43445384,4.04535066 2.08849206,3.69712768 1.66172657,3.69712768 C1.23496108,3.69712768 0.888999298,4.04535066 0.888999298,4.47490546 L0.888999298,10.6971277 C0.888999298,11.7285251 1.29605982,12.7176792 2.02063219,13.4469874 C2.74520456,14.1762955 3.72793559,14.5860166 4.75263566,14.5860166 L14.0253629,14.5860166 C14.4521284,14.5860166 14.7980902,14.2377936 14.7980902,13.8082388 C14.7980902,13.378684 14.4521284,13.030461 14.0253629,13.030461 Z M10.9344538,6.80823879 L7.84354475,6.80823879 C7.41677926,6.80823879 7.07081748,7.15646177 7.07081748,7.58601657 C7.07081748,8.01557138 7.41677926,8.36379435 7.84354475,8.36379435 L10.9344538,8.36379435 C11.3612193,8.36379435 11.7071811,8.01557138 11.7071811,7.58601657 C11.7071811,7.15646177 11.3612193,6.80823879 10.9344538,6.80823879 Z M17.8889993,5.98379435 C17.8809503,5.91234371 17.8654092,5.84195147 17.8426357,5.77379435 L17.8426357,5.70379435 C17.8054821,5.62382305 17.7559231,5.55031144 17.6958175,5.48601657 L13.0594538,0.819349905 C12.9955765,0.758851398 12.9225422,0.708968524 12.8430902,0.671572128 L12.7735448,0.671572128 C12.6950471,0.626259848 12.6083537,0.597173175 12.5185448,0.586016572 L6.29809021,0.586016572 C5.01779374,0.586016572 3.97990839,1.63068549 3.97990839,2.91934991 L3.97990839,9.14157213 C3.97990839,10.4302365 5.01779374,11.4749055 6.29809021,11.4749055 L15.5708175,11.4749055 C16.8511139,11.4749055 17.8889993,10.4302365 17.8889993,9.14157213 L17.8889993,6.03046102 L17.8889993,5.98379435 L17.8889993,5.98379435 Z M13.2526357,3.23823879 L15.2539993,5.25268324 L14.0253629,5.25268324 C13.5985974,5.25268324 13.2526357,4.90446027 13.2526357,4.47490546 L13.2526357,3.23823879 Z M16.3435448,9.14157213 C16.3435448,9.57112693 15.997583,9.91934991 15.5708175,9.91934991 L6.29809021,9.91934991 C5.87132472,9.91934991 5.52536293,9.57112693 5.52536293,9.14157213 L5.52536293,2.91934991 C5.52536293,2.4897951 5.87132472,2.14157213 6.29809021,2.14157213 L11.7071811,2.14157213 L11.7071811,4.47490546 C11.7071811,5.76356988 12.7450665,6.80823879 14.0253629,6.80823879 L16.3435448,6.80823879 L16.3435448,9.14157213 Z M7.84354475,5.25268324 L9.3889993,5.25268324 C9.81576479,5.25268324 10.1617266,4.90446027 10.1617266,4.47490546 C10.1617266,4.04535066 9.81576479,3.69712768 9.3889993,3.69712768 L7.84354475,3.69712768 C7.41677926,3.69712768 7.07081748,4.04535066 7.07081748,4.47490546 C7.07081748,4.90446027 7.41677926,5.25268324 7.84354475,5.25268324 Z" id="files" stroke="#526488" stroke-width="0.2" fill="#556485" fill-rule="nonzero"></path>
    </g>
</svg>