<?xml version="1.0" encoding="UTF-8"?>
<svg width="18px" height="17px" viewBox="0 0 18 17" version="1.1" xmlns="http://www.w3.org/2000/svg" xmlns:xlink="http://www.w3.org/1999/xlink">
    <title>firmware_unselected</title>
    <g id="Page-1" stroke="none" stroke-width="1" fill="none" fill-rule="evenodd">
        <g id="firmware_unselected" transform="translate(1.643146, 1.000000)">
            <rect id="Rectangle-Copy-8" x="0" y="0" width="16" height="16"></rect>
            <g id="firmware-copy" transform="translate(0.000000, 0.444444)" fill="#2F3842" fill-rule="nonzero" stroke-width="0.4">
                <path d="M11.4108772,11.5780652 L3.68586132,11.5780652 C2.98103592,11.5780652 2.40766583,11.0046951 2.40766583,10.2998697 L2.40766583,3.74465831 C2.40766583,3.03983292 2.98103592,2.46646282 3.68586132,2.46646282 L11.4108204,2.46646282 C12.1156458,2.46646282 12.6890159,3.03983292 12.6890159,3.74465831 L12.6890159,10.2999265 C12.6890159,11.0046951 12.1157026,11.5780652 11.4108772,11.5780652 Z M3.68586132,3.31859315 C3.45095739,3.31859315 3.25979616,3.50969758 3.25979616,3.74465831 L3.25979616,10.2999265 C3.25979616,10.5348872 3.45095739,10.7259916 3.68586132,10.7259916 L11.4108204,10.7259916 C11.6457243,10.7259916 11.8368855,10.5348872 11.8368855,10.2999265 L11.8368855,3.74465831 C11.8368855,3.50969758 11.6457243,3.31859315 11.4108204,3.31859315 L3.68586132,3.31859315 Z" id="Shape" stroke="#2C3843"></path>
                <g id="Group" transform="translate(3.919799, 0.000000)" stroke="#2C3843">
                    <path d="M0.446289056,3.270533 C0.210987469,3.270533 0.0202238931,3.07976942 0.0202238931,2.84446784 L0.0202238931,0.449470343 C0.0202238931,0.214168755 0.210987469,0.0234051796 0.446289056,0.0234051796 C0.681590643,0.0234051796 0.872354219,0.214168755 0.872354219,0.449470343 L0.872354219,2.84446784 C0.872354219,3.07976942 0.681590643,3.270533 0.446289056,3.270533 Z" id="Path"></path>
                    <path d="M2.56780952,3.270533 C2.33250794,3.270533 2.14174436,3.07976942 2.14174436,2.84446784 L2.14174436,0.449470343 C2.14174436,0.214168755 2.33250794,0.0234051796 2.56780952,0.0234051796 C2.80311111,0.0234051796 2.99387469,0.214168755 2.99387469,0.449470343 L2.99387469,2.84446784 C2.99387469,3.07976942 2.80311111,3.270533 2.56780952,3.270533 Z" id="Path"></path>
                    <path d="M4.6893868,3.270533 C4.45408521,3.270533 4.26332164,3.07976942 4.26332164,2.84446784 L4.26332164,0.449470343 C4.26332164,0.214168755 4.45408521,0.0234051796 4.6893868,0.0234051796 C4.92468839,0.0234051796 5.11545196,0.214168755 5.11545196,0.449470343 L5.11545196,2.84446784 C5.11545196,3.07976942 4.92468839,3.270533 4.6893868,3.270533 Z" id="Path"></path>
                    <path d="M6.81085046,3.270533 C6.57554887,3.270533 6.3847853,3.07976942 6.3847853,2.84446784 L6.3847853,0.449470343 C6.3847853,0.214168755 6.57554887,0.0234051796 6.81085046,0.0234051796 C7.04615205,0.0234051796 7.23691562,0.214168755 7.23691562,0.449470343 L7.23691562,2.84446784 C7.23691562,3.07976942 7.04615205,3.270533 6.81085046,3.270533 Z" id="Path"></path>
                </g>
                <g id="Group" transform="translate(11.816207, 3.408521)" stroke="#293843">
                    <path d="M2.84174102,0.857470343 L0.446800334,0.857470343 C0.211498747,0.857470343 0.0207351713,0.666706767 0.0207351713,0.43140518 C0.0207351713,0.196103592 0.211498747,0.00534001671 0.446800334,0.00534001671 L2.84174102,0.00534001671 C3.07704261,0.00534001671 3.26780618,0.196103592 3.26780618,0.43140518 C3.26780618,0.666706767 3.07704261,0.857470343 2.84174102,0.857470343 Z" id="Path"></path>
                    <path d="M2.84174102,2.97904762 L0.446800334,2.97904762 C0.211498747,2.97904762 0.0207351713,2.78828404 0.0207351713,2.55298246 C0.0207351713,2.31768087 0.211498747,2.12691729 0.446800334,2.12691729 L2.84174102,2.12691729 C3.07704261,2.12691729 3.26780618,2.31768087 3.26780618,2.55298246 C3.26780618,2.78828404 3.07704261,2.97904762 2.84174102,2.97904762 Z" id="Path"></path>
                    <path d="M2.84174102,5.10056809 L0.446800334,5.10056809 C0.211498747,5.10056809 0.0207351713,4.90980451 0.0207351713,4.67450292 C0.0207351713,4.43920134 0.211498747,4.24843776 0.446800334,4.24843776 L2.84174102,4.24843776 C3.07704261,4.24843776 3.26780618,4.43920134 3.26780618,4.67450292 C3.26780618,4.90980451 3.07704261,5.10056809 2.84174102,5.10056809 Z" id="Path"></path>
                    <path d="M2.84174102,7.22203175 L0.446800334,7.22203175 C0.211498747,7.22203175 0.0207351713,7.03126817 0.0207351713,6.79596658 C0.0207351713,6.560665 0.211498747,6.36990142 0.446800334,6.36990142 L2.84174102,6.36990142 C3.07704261,6.36990142 3.26780618,6.560665 3.26780618,6.79596658 C3.26780618,7.03126817 3.07704261,7.22203175 2.84174102,7.22203175 Z" id="Path"></path>
                </g>
                <g id="Group" transform="translate(0.000000, 3.408521)" stroke="#293843">
                    <path d="M2.82106266,0.857470343 L0.426065163,0.857470343 C0.190763576,0.857470343 0,0.666706767 0,0.43140518 C0,0.196103592 0.190763576,0.00534001671 0.426065163,0.00534001671 L2.82106266,0.00534001671 C3.05636424,0.00534001671 3.24712782,0.196103592 3.24712782,0.43140518 C3.24712782,0.666706767 3.05636424,0.857470343 2.82106266,0.857470343 Z" id="Path"></path>
                    <path d="M2.82106266,2.97904762 L0.426065163,2.97904762 C0.190763576,2.97904762 0,2.78828404 0,2.55298246 C0,2.31768087 0.190763576,2.12691729 0.426065163,2.12691729 L2.82106266,2.12691729 C3.05636424,2.12691729 3.24712782,2.31768087 3.24712782,2.55298246 C3.24712782,2.78828404 3.05636424,2.97904762 2.82106266,2.97904762 Z" id="Path"></path>
                    <path d="M2.82106266,5.10056809 L0.426065163,5.10056809 C0.190763576,5.10056809 0,4.90980451 0,4.67450292 C0,4.43920134 0.190763576,4.24843776 0.426065163,4.24843776 L2.82106266,4.24843776 C3.05636424,4.24843776 3.24712782,4.43920134 3.24712782,4.67450292 C3.24712782,4.90980451 3.05636424,5.10056809 2.82106266,5.10056809 Z" id="Path"></path>
                    <path d="M2.82106266,7.22203175 L0.426065163,7.22203175 C0.190763576,7.22203175 0,7.03126817 0,6.79596658 C0,6.560665 0.190763576,6.36990142 0.426065163,6.36990142 L2.82106266,6.36990142 C3.05636424,6.36990142 3.24712782,6.560665 3.24712782,6.79596658 C3.24712782,7.03126817 3.05636424,7.22203175 2.82106266,7.22203175 Z" id="Path"></path>
                </g>
                <g id="Group" transform="translate(3.919799, 10.736842)" stroke="#293844">
                    <path d="M0.446289056,3.30120969 C0.210987469,3.30120969 0.0202238931,3.11044612 0.0202238931,2.87514453 L0.0202238931,0.480147034 C0.0202238931,0.244845447 0.210987469,0.0540818713 0.446289056,0.0540818713 C0.681590643,0.0540818713 0.872354219,0.244845447 0.872354219,0.480147034 L0.872354219,2.87514453 C0.872354219,3.11044612 0.681590643,3.30120969 0.446289056,3.30120969 Z" id="Path"></path>
                    <path d="M2.56780952,3.30120969 C2.33250794,3.30120969 2.14174436,3.11044612 2.14174436,2.87514453 L2.14174436,0.480147034 C2.14174436,0.244845447 2.33250794,0.0540818713 2.56780952,0.0540818713 C2.80311111,0.0540818713 2.99387469,0.244845447 2.99387469,0.480147034 L2.99387469,2.87514453 C2.99387469,3.11044612 2.80311111,3.30120969 2.56780952,3.30120969 Z" id="Path"></path>
                    <path d="M4.6893868,3.30120969 C4.45408521,3.30120969 4.26332164,3.11044612 4.26332164,2.87514453 L4.26332164,0.480147034 C4.26332164,0.244845447 4.45408521,0.0540818713 4.6893868,0.0540818713 C4.92468839,0.0540818713 5.11545196,0.244845447 5.11545196,0.480147034 L5.11545196,2.87514453 C5.11545196,3.11044612 4.92468839,3.30120969 4.6893868,3.30120969 Z" id="Path"></path>
                    <path d="M6.81085046,3.30120969 C6.57554887,3.30120969 6.3847853,3.11044612 6.3847853,2.87514453 L6.3847853,0.480147034 C6.3847853,0.244845447 6.57554887,0.0540818713 6.81085046,0.0540818713 C7.04615205,0.0540818713 7.23691562,0.244845447 7.23691562,0.480147034 L7.23691562,2.87514453 C7.23691562,3.11044612 7.04615205,3.30120969 6.81085046,3.30120969 Z" id="Path"></path>
                </g>
            </g>
        </g>
    </g>
</svg>