<?xml version="1.0" encoding="UTF-8"?>
<svg width="17px" height="16px" viewBox="0 0 17 16" version="1.1" xmlns="http://www.w3.org/2000/svg" xmlns:xlink="http://www.w3.org/1999/xlink">
    <title>help</title>
    <g id="Page-1" stroke="none" stroke-width="1" fill="none" fill-rule="evenodd">
        <path d="M8.5,0.5 C12.6455957,0.5 16,3.85496094 16,8 C16,12.1455957 12.6450098,15.5 8.5,15.5 L8.5,15.5 L1.5859375,15.5 C1.26232422,15.5 1,15.2376758 1,14.9140625 L1,14.9140625 L1,8 C1,3.8544043 4.35496094,0.5 8.5,0.5 Z M8.5,1.671875 C5.0021582,1.671875 2.171875,4.50262695 2.171875,8 L2.171875,8 L2.171875,14.328125 L8.5,14.328125 C11.9978418,14.328125 14.828125,11.497373 14.828125,8 C14.828125,4.5021582 11.997373,1.671875 8.5,1.671875 Z M8.27025391,10.5552734 C8.69918945,10.5552734 9.05658203,10.9126953 9.05658203,11.3416016 C9.05658203,11.7603125 8.70935547,12.1279297 8.27025391,12.1279297 C7.83115234,12.1279297 7.49415039,11.7602832 7.49415039,11.3416016 C7.49415039,10.9126953 7.84137695,10.5552734 8.27025391,10.5552734 Z M8.40302734,4.60162109 C9.71016602,4.60162109 10.5782031,5.32668945 10.5782031,6.28663086 C10.5782031,7.24657227 9.71016602,7.94099609 9.43445313,8.15544922 C8.87280273,8.59455078 8.86254883,8.9009082 8.86254883,9.43194336 C8.86254883,9.62597656 8.76044922,9.850625 8.26005859,9.850625 C7.84134766,9.850625 7.6984082,9.69743164 7.6984082,9.16642578 C7.6984082,8.28819336 8.08647461,7.86948242 8.38260742,7.61418945 C8.71960938,7.32825195 9.29148438,7.01169922 9.29148438,6.46021484 C9.29148438,5.99046875 8.88299805,5.76579102 8.37238281,5.76579102 C7.33076172,5.76579102 7.55541016,6.55211914 7.00398438,6.55211914 C6.72824219,6.55211914 6.39126953,6.36831055 6.39126953,5.97001953 C6.39126953,5.41856445 7.0244043,4.60162109 8.40302734,4.60162109 Z" id="help" stroke="#556485" stroke-width="0.4" fill="#556485" fill-rule="nonzero"></path>
    </g>
</svg>