<?xml version="1.0" encoding="UTF-8"?>
<svg width="16px" height="23px" viewBox="0 0 16 23" version="1.1" xmlns="http://www.w3.org/2000/svg" xmlns:xlink="http://www.w3.org/1999/xlink">
    <title>home_settings_unselected</title>
    <g id="Page-1" stroke="none" stroke-width="1" fill="none" fill-rule="evenodd">
        <g id="home_settings_unselected" transform="translate(1.643146, 1.500000)" fill="#2F3842" fill-rule="nonzero" stroke="#2F3842">
            <g id="Group-3" stroke-width="0.7">
                <g id="Fill-1-Clipped">
                    <path d="M8.94669076,15.3222059 C8.73622737,15.3213356 8.58899002,15.2064024 8.56241973,15.0223045 C8.53631018,14.8414832 8.63184039,14.6850819 8.80011895,14.6331188 C8.85018784,14.6176578 8.92063241,14.615354 8.98933634,14.6151493 C9.3446821,14.6141254 9.70002786,14.6139718 10.0553736,14.6139718 L10.5744928,14.614023 C10.7997004,14.614023 11.024908,14.6139206 11.2501156,14.6136134 C11.8630243,14.6127943 12.2145816,14.2621073 12.2145816,13.6515535 L12.2142744,11.6125519 C12.2138649,9.76824544 12.2134553,7.86112253 12.2162198,5.98553586 C12.2167318,5.65824506 12.0962695,5.39295163 11.8479729,5.1743482 C10.6721732,4.13918163 9.4785575,3.0844073 8.32425974,2.06434331 L7.19412611,1.06578129 C7.16458649,1.03967175 7.13458611,1.01386938 7.10458573,0.988067005 C6.8882349,0.802126106 6.67905138,0.71166422 6.46520911,0.71166422 C6.25024054,0.71166422 6.04264408,0.802586862 5.83059364,0.989500471 C4.91153774,1.79966422 3.99340335,2.61080068 3.07526896,3.42198833 L2.16757839,4.22380727 C2.0569968,4.32148767 1.94661999,4.41947525 1.83629437,4.51751402 C1.58379974,4.74180011 1.32270431,4.97371429 1.06314474,5.19713006 C0.8308722,5.39699605 0.714403162,5.65527574 0.716962921,5.96464822 L0.717577263,6.03319857 C0.71942029,6.21274007 0.721109731,6.38234971 0.703140222,6.54704461 C0.68435159,6.71890683 0.554008658,6.84177527 0.378716356,6.85273104 C0.371805007,6.85319179 0.364893657,6.85339657 0.357931112,6.85339657 C0.219243365,6.85339657 0.0647363072,6.76580162 0.0462548466,6.61922981 C-0.019582157,6.09755091 -0.0586440806,5.54914813 0.242434783,5.08235046 C0.33765782,4.93475475 0.459502353,4.79314888 0.594811218,4.6728914 C2.20454131,3.24265161 3.81247958,1.82075663 5.37388142,0.446831545 C5.70608696,0.154507058 6.08339545,0 6.46505552,0 C6.8498897,0 7.231345,0.156759646 7.56826049,0.453435724 C8.27849125,1.07883606 8.9876469,1.70551628 9.69680256,2.33224769 C10.5571888,3.09259853 11.4469098,3.87890533 12.3242417,4.64990476 C12.7312946,5.00765669 12.9284472,5.44670657 12.9269873,5.99208884 C12.924454,6.89445511 12.9249659,7.81171918 12.9254267,8.6987269 C12.9256827,9.07449953 12.9258363,9.45027216 12.9258363,9.8260448 C12.9258363,10.2149746 12.9261434,10.6039556 12.9263994,10.9928854 C12.9269873,11.8791764 12.9277305,12.7956213 12.9247612,13.6967077 C12.9221502,14.4803523 12.4409667,15.10007 11.6988925,15.2754647 C11.5802221,15.3035197 11.4558178,15.3187758 11.339144,15.3195438 C10.8669196,15.3226667 10.3834835,15.3242025 9.90240241,15.3242025 C9.58381479,15.3242025 9.26527837,15.3234858 8.94669076,15.3222059 Z" id="Fill-1"></path>
                </g>
            </g>
            <path d="M2.87840237,17.1360202 C2.97717708,17.1360202 3.09684901,17.1907158 3.27860791,17.3189213 C3.5358253,17.5003443 3.83712174,17.6708818 4.19969881,17.8401427 C4.50025613,17.9804431 4.56086482,18.145202 4.55945375,18.3493364 C4.55925217,18.3752731 4.55831146,18.4015458 4.55743794,18.4277514 C4.55421265,18.5199411 4.55065138,18.6244273 4.57087668,18.7371111 C4.60064348,18.9025419 4.75135889,19.143364 4.99318893,19.1611032 C5.09048538,19.1681585 5.19295573,19.1713166 5.32573043,19.1713166 C5.38284506,19.1713166 5.44069881,19.1707791 5.49935889,19.1701743 C5.557683,19.1696368 5.61688063,19.169032 5.67735494,19.169032 L6.01332332,19.169032 L6.01332332,18.8330636 C6.01332332,18.7628462 6.01285296,18.6974668 6.0124498,18.6353798 C6.01157628,18.5106012 6.01090435,18.4028897 6.01406245,18.2967237 C6.0199083,18.1005854 6.10463953,17.9768146 6.30655652,17.8694391 C6.7116,17.653949 7.06550909,17.4497474 7.38850909,17.2450755 C7.50260395,17.1727079 7.60467115,17.1374984 7.70055652,17.1374984 C7.77420079,17.1374984 7.84945771,17.1581269 7.93076206,17.2003917 C8.02443004,17.2491743 8.11641818,17.3021229 8.22298735,17.3634708 C8.27459209,17.3932375 8.32841423,17.4241466 8.38546166,17.4564668 L8.6739913,17.6195458 L9.39625613,16.3814352 L9.10745771,16.211704 C9.05175415,16.1789806 8.99867115,16.1482731 8.94753676,16.1187079 C8.84573834,16.0597791 8.74958419,16.0041427 8.65941028,15.9477 C8.48793202,15.8403917 8.41724427,15.7002929 8.42295573,15.4792257 C8.43444585,15.0329925 8.43478182,14.5980478 8.42382925,14.1864866 C8.4179834,13.9658897 8.48752885,13.8308976 8.66391225,13.7205656 C8.75354862,13.6645261 8.84896364,13.6094945 8.95002292,13.5512375 C9.00068696,13.5220083 9.05316522,13.4917711 9.10806245,13.4595854 L9.39766719,13.2899213 L8.6751336,12.0540281 L8.38754466,12.2146881 C8.33076601,12.2464036 8.27707826,12.2769095 8.22540632,12.3062731 C8.11816522,12.3672178 8.02563953,12.4198304 7.93096364,12.4688818 C7.84892016,12.5114154 7.7729913,12.5319767 7.69874229,12.5319767 C7.60278972,12.5320439 7.5010585,12.4972375 7.38776996,12.4256091 C7.05442213,12.2148225 6.69728775,12.0088067 6.32631146,11.8132731 C6.10571462,11.6970281 6.01473439,11.5638502 6.012517,11.3537356 C6.01130751,11.2426644 6.01164348,11.1315933 6.01191225,11.0174312 L6.01218103,10.5183166 L4.55622846,10.5183166 L4.55622846,10.854285 C4.55622846,10.9132138 4.55656443,10.9703957 4.5569004,11.026368 C4.55763953,11.142613 4.55837866,11.2523403 4.55562372,11.3598502 C4.55105455,11.5373759 4.49488063,11.6827158 4.23564743,11.8152217 C3.89349723,11.9901269 3.54187273,12.1933877 3.19058419,12.4194273 C3.07319684,12.494953 2.96797154,12.5316407 2.86906245,12.5317079 C2.79273043,12.5317079 2.7144498,12.5099372 2.62985296,12.4653206 C2.53544585,12.4155972 2.43935889,12.3607 2.33769486,12.3025103 C2.2872996,12.2737514 2.2352917,12.2439846 2.18059605,12.2132099 L1.89025217,12.0497277 L1.17719289,13.2921387 L1.46444585,13.4604589 C1.51080949,13.4876051 1.55401502,13.5133403 1.59527194,13.537866 C1.68101107,13.5887988 1.76204664,13.6369767 1.84496364,13.6826684 C2.07812569,13.8112771 2.16097549,13.9727435 2.14054862,14.2585182 C2.10950514,14.6925221 2.12516126,15.1229648 2.14222846,15.4494589 C2.15533123,15.7003601 2.08155257,15.8493957 1.88763162,15.9638937 C1.79349328,16.0193957 1.69962372,16.0754352 1.59950514,16.1351032 L1.17638656,16.3870794 L1.89509012,17.6208897 L2.31410988,17.384368 C2.39420474,17.3392138 2.46240632,17.3008462 2.53040632,17.2620755 C2.68125613,17.1761348 2.79185692,17.1360202 2.87840237,17.1360202 M5.28749723,20.1045024 C4.89918498,20.1045024 4.49857628,20.0596842 4.0967581,19.9711901 C3.74997154,19.8948581 3.63722055,19.7540874 3.63271858,19.3917119 C3.63218103,19.3493798 3.63238261,19.307115 3.63265138,19.2647158 L3.63292016,19.195036 C3.63312174,18.6945103 3.42690435,18.4117593 2.96427589,18.2781783 C2.92288458,18.2661506 2.87867115,18.2601032 2.83318103,18.2601032 C2.71223241,18.2601032 2.60418498,18.3024352 2.53484111,18.3380478 C2.45010988,18.3813206 2.3702166,18.427953 2.29294387,18.4729727 C2.21782134,18.516783 2.14679763,18.5581743 2.0759083,18.5940557 C1.98943004,18.637866 1.90624427,18.6601071 1.82883715,18.6601071 C1.71581739,18.6601071 1.61448933,18.6132059 1.51900711,18.516783 C0.889402372,17.8809292 0.450762055,17.1199609 0.215315415,16.2549767 C0.157999209,16.0444589 0.223916206,15.8735182 0.411319368,15.7469925 L0.426841107,15.7365103 C0.507675099,15.6818146 0.583939921,15.6302771 0.653485375,15.6017198 C1.01821265,15.4521466 1.1887502,15.1710083 1.16046166,14.7660992 C1.14601502,14.559949 1.08627984,14.2680597 0.735058498,14.1149253 C0.652746245,14.0790439 0.567544664,14.0257593 0.477303557,13.9693166 L0.450829249,13.952787 C0.221362846,13.8096644 0.15087668,13.6334826 0.222236364,13.3813047 C0.463125692,12.530364 0.89175415,11.791368 1.49629565,11.1848107 C1.55468696,11.126285 1.66481739,11.074613 1.78146561,11.0199846 C1.80323636,11.0097711 1.8252087,10.9994905 1.8474498,10.9889411 C1.88353281,11.0066802 1.91914545,11.0242178 1.95422055,11.0414866 C2.12926008,11.1274945 2.29448933,11.2087316 2.4530664,11.2935972 C2.56662372,11.3543403 2.69503083,11.3865261 2.82444585,11.3865261 C3.26342213,11.3865261 3.62485692,11.0405458 3.63023241,10.6152771 C3.63050119,10.5977395 3.63050119,10.5839648 3.62989644,10.5701229 C3.59327589,9.79571581 3.72652095,9.74921779 4.44025217,9.63236798 C4.7193747,9.58660909 5.00232727,9.56349447 5.28124822,9.56349447 C5.69495968,9.56349447 6.11384506,9.61449447 6.52627984,9.71501621 C6.80365534,9.78261304 6.91889249,9.92136798 6.93730356,10.2097632 L6.93985692,10.2480636 C6.94402292,10.3080004 6.94825613,10.3700202 6.94180553,10.4079846 C6.89261976,10.6960439 6.93905059,11.0873798 7.43950909,11.3164431 C7.5318332,11.3586407 7.64350909,11.4017119 7.77218498,11.4017119 C7.89528379,11.4017119 8.01119289,11.3641506 8.12656443,11.2868107 C8.3977581,11.1049846 8.61197154,11.0127949 8.7632917,11.0127949 C8.95257628,11.0127949 9.10638261,11.1790992 9.38886482,11.5320004 C9.81930751,12.0695498 10.1361929,12.6701941 10.3307858,13.3172692 C10.426268,13.6345577 10.3593431,13.807447 10.0752482,13.978119 C10.0311692,14.0045261 9.98688854,14.0304628 9.94260791,14.0563324 L9.90524822,14.0781704 C9.43341423,14.3541348 9.34324032,14.5396565 9.42320079,15.0710241 C9.45619289,15.2904115 9.63519684,15.4268146 9.68928775,15.463368 C9.77704269,15.5227 9.8650664,15.5730953 9.95020079,15.6218107 C10.0194103,15.6615221 10.0848569,15.698949 10.1456672,15.7385933 C10.3421415,15.8666644 10.4118885,16.0423759 10.3527581,16.2606881 C10.1234933,17.1080676 9.6897581,17.8633917 9.06371462,18.5057632 C8.96178182,18.6103166 8.85608617,18.661115 8.74058024,18.6611822 C8.65820079,18.6611822 8.56795968,18.6355814 8.47247747,18.585119 L8.4201336,18.5579055 C8.35885296,18.5261901 8.30099921,18.4962889 8.26135494,18.4655142 C8.09619289,18.3372415 7.93224032,18.2748858 7.76009012,18.2748858 C7.59909407,18.2748858 7.44253281,18.3295142 7.28146957,18.4418621 C7.11032727,18.5611308 6.93528775,18.729451 6.9358253,19.0724747 C6.93696759,19.8704668 6.90626008,19.9064826 6.11545771,20.0368383 C5.84298735,20.0817237 5.56440237,20.1045024 5.28749723,20.1045024" id="Fill-4" stroke-width="0.3"></path>
        </g>
    </g>
</svg>