<?xml version="1.0" encoding="UTF-8"?>
<svg width="27px" height="27px" viewBox="0 0 27 27" version="1.1" xmlns="http://www.w3.org/2000/svg" xmlns:xlink="http://www.w3.org/1999/xlink">
    <title>online chat</title>
    <g id="Page-1" stroke="none" stroke-width="1" fill="none" fill-rule="evenodd">
        <g id="online-chat" transform="translate(0.186292, 0.500000)" fill="#673AB7">
            <rect opacity="0.12" x="0" y="0" width="26" height="26" rx="13"></rect>
            <path d="M14.6767914,5.00914068 C15.2079281,5.07118617 15.587701,5.3582318 15.7820193,5.86345938 C16.034974,6.5207325 15.7179284,7.22027838 15.1247462,7.50186946 C15.0108825,7.55641495 14.9829279,7.61573316 14.986337,7.73096051 C14.9952007,7.98459702 14.9890643,8.23891536 14.9890643,8.49323369 L14.9890643,8.57641556 C15.0415643,8.57641556 15.087928,8.57505192 15.1336099,8.57641556 C15.644292,8.59073375 16.0315649,8.81573389 16.2879287,9.25891597 C16.3929288,9.43891608 16.4454288,9.63596166 16.452247,9.84391633 C16.4563379,9.98164368 16.4563379,10.1200529 16.4529288,10.2577802 C16.4515652,10.3164166 16.467247,10.3368712 16.5272471,10.3341439 C16.6970199,10.3280075 16.8640654,10.3436894 17.0304292,10.3852803 C17.3331566,10.4609622 17.5881568,10.6150532 17.8002024,10.8400533 C18.0886116,11.1468717 18.2317935,11.5136901 18.2406572,11.9336903 C18.2433845,12.0584631 18.2440663,12.1832359 18.2399754,12.3080087 C18.2379299,12.3652815 18.2522481,12.385736 18.3136118,12.3843724 C18.5277028,12.3809633 18.741112,12.3795997 18.9552031,12.3836906 C19.4147488,12.3932361 19.7427036,12.6093725 19.9227037,13.0327819 C19.9677037,13.1384638 19.9942946,13.2605093 19.9949764,13.3757366 C20.0011128,14.1775553 20.0011128,14.979374 19.9970219,15.7818745 C19.9949764,16.2448293 19.6377035,16.6655114 19.1822487,16.7507387 C19.0956577,16.7671023 19.0056577,16.7746023 18.9170212,16.7766478 C18.7145211,16.7793751 18.5113392,16.7780114 18.308839,16.775966 C18.2577027,16.7752842 18.2379299,16.7882387 18.2392936,16.8427842 C18.2433845,16.9566479 18.2433845,17.0698298 18.241339,17.1836935 C18.2256572,17.8907394 17.8983843,18.3973306 17.2588384,18.6973308 C17.0870201,18.7784672 16.9015655,18.8193763 16.7106563,18.824149 C16.5497471,18.8282399 16.3895197,18.8275581 16.2292923,18.8255127 C16.1767923,18.8248308 16.159065,18.839149 16.1597468,18.8936945 C16.1631559,19.1071037 16.1563377,19.3211948 16.1631559,19.534604 C16.1720196,19.7923314 15.9504285,20.0261952 15.6749738,19.9955134 C15.606792,19.9880134 15.5379283,19.9580134 15.4772464,19.9232406 L13.629518,18.8698309 L13.629518,18.8698309 C13.584518,18.8439218 13.5258816,18.8282399 13.4733816,18.8282399 C11.7933806,18.8261945 10.1133795,18.8248308 8.43337853,18.8275581 C8.03860557,18.8282399 7.68201444,18.7239217 7.37178698,18.4771034 C7.09360499,18.2561941 6.90883216,17.9739212 6.81405937,17.6296029 C6.74383206,17.3746027 6.7601957,17.1168753 6.76087752,16.8591478 C6.76155934,16.7896023 6.74042296,16.7739205 6.67428656,16.7752842 C6.46224098,16.7786932 6.25087721,16.7780114 6.03883163,16.7766478 C5.56496771,16.7732387 5.17496747,16.482784 5.04064921,16.0286928 C5.01678556,15.94892 5.003831,15.8630109 5.00314919,15.779829 C5.00042191,14.979374 4.99769464,14.1796008 5.00314919,13.3798276 C5.00655828,12.9059636 5.36110395,12.4961907 5.81451331,12.4089179 C5.89905882,12.3925542 5.9863316,12.385736 6.07292256,12.3843724 C6.28019541,12.3809633 6.48678645,12.3816451 6.6940593,12.3843724 C6.74315024,12.3843724 6.76155934,12.370736 6.7601957,12.3202815 C6.75678661,12.1955087 6.75610479,12.0707359 6.75951388,11.9459631 C6.77655935,11.3186899 7.05678679,10.8455078 7.60019621,10.5318713 C7.81565089,10.4077803 8.0508783,10.3464166 8.29974209,10.3355075 C8.35769667,10.3327803 8.41633307,10.3307348 8.47360583,10.3341439 C8.5274695,10.337553 8.54860587,10.3205075 8.54656042,10.2632348 C8.54246951,10.1473256 8.54519678,10.0314164 8.5458786,9.9161891 C8.54656042,9.51323431 8.69451505,9.17437047 8.99451523,8.90573394 C9.22292446,8.70187018 9.4956519,8.5961883 9.80110663,8.57846102 C9.86315212,8.57437011 9.92519762,8.57573374 9.98724311,8.57368829 C9.99133402,8.57368829 9.99542493,8.57027919 10.0070158,8.56618828 C10.0083795,8.54709736 10.0097431,8.52937008 10.0097431,8.5116428 C10.0097431,8.21777898 10.0090613,7.92323335 10.0104249,7.62936953 C10.0104249,7.58368769 9.99883402,7.55914222 9.95247036,7.54073312 C9.61837925,7.40232394 9.38315183,7.1623238 9.2351972,6.83300542 C9.00133342,6.31414147 9.17860626,5.63232287 9.63337926,5.28732266 C9.91428852,5.07527708 10.2286069,4.97095884 10.5756526,5.00777704 C10.9963346,5.05277707 11.333153,5.25664083 11.5622441,5.61732286 C11.7572442,5.92482305 11.8186079,6.26232325 11.7333805,6.6161871 C11.6317896,7.03686918 11.3801985,7.34368754 10.9833801,7.52232402 C10.9124709,7.55436949 10.88588,7.58914224 10.8872437,7.66823319 C10.8920164,7.94641518 10.8899709,8.22527899 10.8886073,8.50346097 C10.8879255,8.55732464 10.90088,8.57641556 10.9581528,8.57641556 C11.9829261,8.57437011 13.0083813,8.57437011 14.0331546,8.57641556 C14.095882,8.57641556 14.1115638,8.55732464 14.110882,8.4973246 C14.1081547,8.21641534 14.1074729,7.93550608 14.1122456,7.65527864 C14.1129274,7.58641496 14.0904274,7.55436949 14.0283819,7.52777856 C13.6670181,7.37164211 13.4161088,7.10436922 13.298836,6.73141445 C13.137245,6.2200505 13.2531542,5.76186841 13.6315635,5.38141363 C13.9172455,5.09368618 14.2765639,4.96277701 14.6767914,5.00914068 Z M16.2234969,11.2124115 L8.38974214,11.2123262 L8.38974214,11.2123262 C8.24587842,11.2123262 8.11087834,11.2443717 7.99019645,11.3214172 C7.75428721,11.4693719 7.63974169,11.6861902 7.63905987,11.9636903 L7.63846328,13.5606799 L7.63846328,13.5606799 L7.63837805,17.1898299 L7.63837805,17.1898299 C7.63837805,17.3105118 7.65815079,17.4257391 7.71269628,17.5321028 C7.85178727,17.8061939 8.07883286,17.9452849 8.38428759,17.9459667 L9.95826582,17.9476712 L9.95826582,17.9476712 L11.532244,17.9473303 C12.2345172,17.9473303 12.9361085,17.9480121 13.6383781,17.9466485 C13.7392908,17.9459667 13.8306545,17.971194 13.9179273,18.0209667 L14.8956552,18.580058 L14.8956552,18.580058 C15.0190643,18.6496035 15.1417917,18.7198308 15.2815645,18.7996036 C15.2815645,18.7409672 15.2842918,18.7014217 15.2815645,18.6618762 C15.2440645,18.0843759 15.4165646,17.9132394 15.9995195,17.9452849 C16.2102014,17.9568758 16.4236106,17.9555121 16.6342926,17.9439212 C16.7406563,17.9384667 16.8538382,17.9159667 16.9479291,17.869603 C17.2254293,17.7339211 17.3604294,17.5000573 17.3611112,17.1911935 L17.3611112,13.2618729 C17.3611112,12.8316454 17.3638385,12.4020997 17.3597476,11.9718722 C17.3583839,11.8818721 17.3481566,11.7870993 17.3174748,11.7039175 C17.200202,11.38619 16.9438382,11.2143717 16.6042926,11.2130081 L16.2234969,11.2124115 L16.2234969,11.2124115 Z M11.129562,15.6074653 C11.234562,15.6170107 11.3252439,15.6633744 11.4009258,15.736329 C11.5604713,15.8890563 11.7404714,16.0104201 11.9484261,16.0861019 C12.1979717,16.1774656 12.4543355,16.2108747 12.7216084,16.1713292 C13.0495631,16.1215565 13.3311542,15.9851928 13.5718362,15.7595108 C13.6563817,15.679738 13.7497908,15.6183744 13.8684273,15.6074653 C14.057291,15.5904198 14.2318366,15.6906471 14.3102457,15.8563291 C14.3893367,16.0233746 14.3532003,16.2258747 14.2175184,16.3615566 C14.0068364,16.5708749 13.7668363,16.7372387 13.4954725,16.8572387 C13.177745,16.999057 12.8443357,17.0658752 12.4522901,17.0699662 C11.8379715,17.0542843 11.2645621,16.829966 10.7893345,16.3670112 C10.6482324,16.2299656 10.6093344,16.0274655 10.6891072,15.8583745 C10.7681981,15.6892835 10.9393346,15.5904198 11.129562,15.6074653 Z M18.3211118,13.2605093 C18.256339,13.2591457 18.2386117,13.2782366 18.2392936,13.3430094 L18.2409981,13.960737 L18.2409981,13.960737 L18.2406572,14.5784646 C18.2406572,14.9930104 18.241339,15.4075561 18.2392936,15.8214199 C18.2392936,15.8773291 18.2502026,15.8998291 18.3122481,15.8984654 C18.5222483,15.8950564 18.7308848,15.8977836 18.9408849,15.8971018 C19.0595213,15.8971018 19.1181577,15.839829 19.1181577,15.7232381 L19.1181577,13.438464 L19.1181577,13.438464 C19.1181577,13.3205093 19.0602031,13.2625548 18.9422485,13.2625548 C18.7349757,13.2618729 18.5283846,13.2646002 18.3211118,13.2605093 Z M6.68042293,13.2611911 C6.47383189,13.2659639 6.26587722,13.2618729 6.05928619,13.2625548 C5.93792248,13.2625548 5.88133153,13.3198275 5.88133153,13.4425549 C5.88064972,14.201419 5.88064972,14.9602831 5.88133153,15.719829 C5.88133153,15.8405109 5.93928611,15.8971018 6.06201346,15.8971018 C6.26655904,15.8971018 6.47178644,15.8943745 6.67633201,15.8977836 C6.74042296,15.8991473 6.7601957,15.8827836 6.75951388,15.8166472 L6.75780934,15.1989196 L6.75780934,15.1989196 L6.75883206,14.5811919 C6.75883206,14.1693735 6.75746843,13.7575551 6.7601957,13.3457366 C6.76087752,13.284373 6.74792297,13.2598275 6.68042293,13.2611911 Z M10.3549479,12.0901667 C11.0026755,12.0894859 11.4922213,12.4338043 11.6865396,12.96085 C11.7404033,13.1067592 11.7690396,13.2553957 11.767676,13.4108503 C11.7663124,13.6215322 11.6040395,13.810396 11.3940394,13.8451687 C11.1854029,13.8792597 10.974721,13.7490323 10.9140391,13.5403958 C10.88813,13.4517594 10.8847209,13.3563048 10.8601755,13.2676684 C10.81313,13.0958501 10.6358571,12.9710773 10.4524479,12.9697137 C10.2656296,12.9690319 10.0869932,13.0938047 10.0379022,13.269032 C10.0126749,13.3597139 10.0072204,13.4565321 9.98267492,13.5478958 C9.93699308,13.7176687 9.7617657,13.8444869 9.58244741,13.8472142 C9.39426548,13.8506233 9.21835628,13.7265323 9.15903806,13.5588049 C9.10381076,13.4026685 9.1310835,13.2478957 9.16858352,13.0985774 C9.26131085,12.7290317 9.47744734,12.4474406 9.809493,12.2585769 C10.0065386,12.1460768 10.2206296,12.0915313 10.3549479,12.0901667 Z M14.5483368,12.082804 C15.1033371,12.090304 15.599701,12.4387134 15.7851557,12.9555318 C15.8369739,13.0993956 15.8669739,13.2466684 15.8676629,13.3993958 C15.8690194,13.6421232 15.6760647,13.8439415 15.4401555,13.8473506 C15.1953826,13.8507597 14.9969734,13.6605323 14.9887916,13.4150776 C14.9806098,13.1614411 14.7910642,12.9705319 14.5497004,12.9705319 C14.3124275,12.9705319 14.1201547,13.1600774 14.1112911,13.402123 C14.1058365,13.5814413 14.0260637,13.7164414 13.8658364,13.8009869 C13.5903816,13.9455324 13.2392451,13.7382596 13.2317451,13.4266685 C13.2194723,12.8750773 13.5781089,12.3555315 14.0997001,12.1734859 C14.1583365,12.1530314 14.2176548,12.131895 14.2783366,12.1209859 C14.366973,12.1039404 14.4583367,12.0950768 14.5483368,12.082804 Z M9.87133395,9.45527973 C9.62110652,9.45596155 9.42747004,9.64959803 9.42542459,9.89914363 C9.42406095,10.0150528 9.42542459,10.1302801 9.42542459,10.2461893 C9.4261064,10.3320984 9.4261064,10.3320984 9.51474282,10.3320984 L13.5579271,10.3327803 C14.2063366,10.3327803 14.8540642,10.3327803 15.5024737,10.3341439 C15.5556556,10.3341439 15.5774738,10.3218712 15.5761701,10.2639166 C15.5720192,10.1439165 15.5761701,10.0232346 15.5747465,9.90323455 C15.5720192,9.65027985 15.3777009,9.45527973 15.1240644,9.45527973 C13.3731542,9.45459791 11.6229259,9.45459791 9.87133395,9.45527973 Z M14.5540641,5.88254854 C14.3147457,5.88186848 14.1129274,6.07959587 14.1115638,6.3155051 C14.1095183,6.5575507 14.3092912,6.75937075 14.5499731,6.75937075 C14.787246,6.76005083 14.9877007,6.56027798 14.9883842,6.32300511 C14.9890643,6.0843686 14.7906551,5.88391393 14.5540641,5.88254854 Z M10.4488343,5.8825503 C10.2101978,5.8825503 10.0104249,6.08300496 10.011105,6.32164147 C10.011105,6.55959616 10.2108796,6.75868719 10.4495161,6.75868719 C10.6881526,6.75868719 10.8879255,6.55891434 10.8872454,6.32027783 C10.8872454,6.08164133 10.6874708,5.8825503 10.4488343,5.8825503 Z" id="Combined-Shape" stroke="#673AB7" stroke-width="0.3"></path>
        </g>
    </g>
</svg>