<?xml version="1.0" encoding="UTF-8"?>
<svg width="18px" height="18px" viewBox="0 0 18 18" version="1.1" xmlns="http://www.w3.org/2000/svg" xmlns:xlink="http://www.w3.org/1999/xlink">
    <title>planner</title>
    <g id="Pre-Login" stroke="none" stroke-width="1" fill="none" fill-rule="evenodd">
        <path d="M13.140625,0.916475483 C13.4562191,0.916475483 13.712056,1.17231236 13.712056,1.48791482 L13.712056,1.48791482 L13.712056,2.63076 L15.4263405,2.63076 C16.3731144,2.63076 17.140625,3.39827063 17.140625,4.34504452 L17.140625,4.34504452 L17.140625,15.202191 C17.140625,16.1489649 16.3731144,16.9164755 15.4263405,16.9164755 L15.4263405,16.9164755 L2.85490952,16.9164755 C1.90813563,16.9164755 1.140625,16.1489649 1.140625,15.202191 L1.140625,15.202191 L1.140625,4.34504452 C1.140625,3.39827063 1.90813563,2.63076 2.85490952,2.63076 L2.85490952,2.63076 L4.56919404,2.63076 L4.56919404,1.48791482 C4.56919404,1.17231236 4.82506439,0.916475483 5.140625,0.916475483 C5.45620235,0.916475483 5.71203922,1.17231236 5.71203922,1.48791482 L5.71203922,1.48791482 L5.71203922,2.63076 L12.5691773,2.63076 L12.5691773,1.48791482 C12.5691773,1.17231236 12.8250142,0.916475483 13.140625,0.916475483 Z M15.9977463,7.77361356 L2.28347018,7.77361356 L2.28347018,15.202191 C2.28347018,15.5177934 2.53930706,15.7736303 2.85490952,15.7736303 L2.85490952,15.7736303 L15.426307,15.7736303 C15.7419095,15.7736303 15.9977463,15.5177934 15.9977463,15.202191 L15.9977463,15.202191 L15.9977463,7.77361356 Z M11.5776934,9.607038 C11.756101,9.43470053 12.0389686,9.43470053 12.2174032,9.607038 C12.4002892,9.78369201 12.4053611,10.0751657 12.2287071,10.2580787 L12.2287071,10.2580787 L8.54527687,13.9415089 C8.36549338,14.1212384 8.07404665,14.1212384 7.89423619,13.9415089 L7.89423619,13.9415089 L6.05250759,12.0997803 C5.88017012,11.9213457 5.88017012,11.6384781 6.05250759,11.4600435 C6.22916159,11.2771575 6.5206353,11.2720856 6.70354828,11.4487396 L6.70354828,11.4487396 L8.21975653,12.9649479 Z M4.56919404,3.77360519 L2.85490952,3.77360519 C2.53930706,3.77360519 2.28347018,4.02944206 2.28347018,4.34504452 L2.28347018,4.34504452 L2.28347018,6.63076837 L15.9978133,6.63076837 L15.9978133,4.34504452 C15.9978133,4.02944206 15.7419764,3.77360519 15.426374,3.77360519 L15.426374,3.77360519 L13.7120894,3.77360519 L13.7120894,4.91645037 C13.7120894,5.23205283 13.4562526,5.4878897 13.1406501,5.4878897 C12.8250477,5.4878897 12.5692108,5.23205283 12.5692108,4.91645037 L12.5692108,4.91645037 L12.5692108,3.77360519 L5.7120727,3.77360519 L5.7120727,4.91645037 C5.7120727,5.23205283 5.45623583,5.4878897 5.14063337,5.4878897 C4.82503091,5.4878897 4.56919404,5.23205283 4.56919404,4.91645037 L4.56919404,4.91645037 L4.56919404,3.77360519 Z" id="planner" stroke="#556485" stroke-width="0.7" fill="#556485" fill-rule="nonzero"></path>
    </g>
</svg>