<?xml version="1.0" encoding="UTF-8"?>
<svg width="19px" height="15px" viewBox="0 0 19 15" version="1.1" xmlns="http://www.w3.org/2000/svg" xmlns:xlink="http://www.w3.org/1999/xlink">
    <title>resources_library_unselected</title>
    <g id="Page-1" stroke="none" stroke-width="1" fill="none" fill-rule="evenodd">
        <g id="resources_library_unselected" transform="translate(1.143146, 1.500000)" fill="#2F3842" fill-rule="nonzero" stroke="#2F3842" stroke-width="0.2">
            <path d="M15.8137207,5.64038087 C15.5708008,5.24804688 15.1411133,5.013916 14.6643066,5.013916 L13.4741211,5.013916 L13.4741211,2.83068847 C13.4741211,2.30371094 13.029541,1.87512206 12.4831543,1.87512206 L6.65686034,1.87512206 C6.64831544,1.87512206 6.64257813,1.87268066 6.64025878,1.87121581 L5.59753419,0.412841812 C5.41259766,0.154296875 5.107666,-5.55111512e-17 4.78173828,-5.55111512e-17 L0.990966813,-5.55111512e-17 C0.444458,-5.55111512e-17 0,0.428710937 0,0.955566406 L0,11.4289551 C0,11.9682617 0.45532225,12.4071045 1.01513672,12.4071045 L12.8077393,12.4071045 C12.9914551,12.4071045 13.1501465,12.3010254 13.2269287,12.1470947 L13.2272949,12.1472168 L15.8698731,6.83972169 C16.0615234,6.45507813 16.0404053,6.00671388 15.8137207,5.64038087 Z M0.990966812,0.9375 L4.78173828,0.9375 C4.80981444,0.9375 4.82885744,0.949829094 4.83483887,0.958251938 L5.87915038,2.41870119 C6.05541994,2.66528319 6.34619141,2.81262206 6.65686034,2.81262206 L12.4831543,2.81262206 C12.5158691,2.81262206 12.5324707,2.82800294 12.5366211,2.83349609 L12.5366211,5.013916 L4.05310059,5.013916 C3.52697753,5.013916 3.04846191,5.31042481 2.83398438,5.76940919 L0.9375,9.82788088 L0.9375,0.958374031 C0.941650375,0.952880875 0.958251938,0.9375 0.990966812,0.9375 Z M15.0306397,6.421875 L12.5174561,11.4694824 L1.20520019,11.4694824 L3.68334962,6.16638184 C3.74340819,6.03784181 3.89208984,5.951416 4.05310059,5.951416 L14.6643066,5.951416 C14.8140869,5.951416 14.9458008,6.01965331 15.0166016,6.13391113 C15.0563965,6.19824219 15.0910644,6.30041503 15.0306397,6.421875 Z" id="Shape"></path>
        </g>
    </g>
</svg>