<?xml version="1.0" encoding="UTF-8"?>
<svg width="18px" height="16px" viewBox="0 0 18 16" version="1.1" xmlns="http://www.w3.org/2000/svg" xmlns:xlink="http://www.w3.org/1999/xlink">
    <title>rule_chains_unselected</title>
    <g id="Page-1" stroke="none" stroke-width="1" fill="none" fill-rule="evenodd">
        <g id="rule_chains_unselected" transform="translate(1.643146, 0.000000)">
            <rect id="Rectangle" x="0" y="0" width="16" height="16"></rect>
            <g id="coding" transform="translate(0.000000, 1.882353)" fill="#2F3842" fill-rule="nonzero" stroke="#2F3842" stroke-width="0.4">
                <path d="M15.0801102,5.67900326 L11.5565498,1.94593385 C11.3399877,1.71624771 10.9784954,1.70577226 10.7488093,1.92251289 C10.5194803,2.13907496 10.5088263,2.50074582 10.7255669,2.7302534 L13.8790642,6.07096959 L10.7255669,9.41207266 C10.5088263,9.64158025 10.5194803,10.0030725 10.7488093,10.2198132 C10.8592777,10.3240022 11.0003986,10.3756057 11.1409839,10.3756057 C11.2927887,10.3756057 11.4443851,10.3154314 11.5565796,10.1967493 L15.08014,6.46350136 C15.2878931,6.2431598 15.2878931,5.89916626 15.0801102,5.67900326 Z" id="Path"></path>
                <path d="M4.51057396,9.4118941 L1.35728499,6.07096959 L4.51057396,2.73007484 C4.72713603,2.50056726 4.71666058,2.13886664 4.487153,1.92233433 C4.25782397,1.70577226 3.89594479,1.71624771 3.67941248,1.94575529 L0.155852077,5.6788247 C-0.0519308523,5.8989877 -0.0519308523,6.2431598 0.155852077,6.46335256 L3.67959104,10.1966005 C3.79196405,10.3156397 3.94338192,10.3756355 4.09518666,10.3756355 C4.2357422,10.3756355 4.37689293,10.3238237 4.487153,10.2196346 C4.7168689,10.0030725 4.72713603,9.64140169 4.51057396,9.4118941 Z" id="Path"></path>
                <path d="M8.54238784,0.0207425811 C8.23059441,-0.0264862227 7.93879957,0.187576024 7.89118389,0.499369456 L6.21511191,11.4700224 C6.16749623,11.7819944 6.38176679,12.0736107 6.69373878,12.1212264 C6.72308195,12.1256011 6.75200847,12.127714 6.7807862,12.127714 C7.05829634,12.127714 7.30170175,11.9252581 7.34494274,11.6425995 L9.02101472,0.671946541 C9.0686304,0.35994479 8.85435984,0.0683582623 8.54238784,0.0207425811 Z" id="Path"></path>
            </g>
        </g>
    </g>
</svg>