<?xml version="1.0" encoding="UTF-8"?>
<svg width="16px" height="20px" viewBox="0 0 16 20" version="1.1" xmlns="http://www.w3.org/2000/svg" xmlns:xlink="http://www.w3.org/1999/xlink">
    <title>task</title>
    <g id="Pre-Login" stroke="none" stroke-width="1" fill="none" fill-rule="evenodd">
        <path d="M3.77567361,3.7741278 C4.11662608,3.79349201 4.33706019,4.10525578 4.31739722,4.45162867 C4.29895231,4.77712342 4.04364687,5.0277315 3.69796136,5.04667322 C3.5129206,5.05677781 3.32690539,5.04860964 3.14134261,5.04899692 C2.65679822,5.04998274 2.41210731,5.29295075 2.41168969,5.78106965 L2.4109806,7.95048162 L2.4109806,7.95048162 L2.41123727,10.11992 C2.41120246,12.4562294 2.40841833,14.7925741 2.41694475,17.1288131 C2.41757118,17.3006969 2.46817288,17.4908182 2.55249746,17.6395353 C2.67096252,17.8484576 2.89320632,17.8951781 3.12783954,17.8945444 C4.53125381,17.8909884 5.93466808,17.89296 7.33808235,17.8927136 L13.1141243,17.8911644 L13.1141243,17.8911644 C13.6363241,17.8910236 13.867512,17.6588995 13.8676512,17.1316297 C13.868556,13.3607493 13.8652846,9.58986877 13.8739503,5.81898829 C13.8750639,5.34533974 13.6043065,5.00745189 13.1062939,5.04804631 C12.9450227,5.06117877 12.7815938,5.05294018 12.6193482,5.04779986 C12.2306477,5.03551239 11.961352,4.76775819 11.9625353,4.39959176 C11.9637533,4.03195345 12.2383737,3.75405944 12.6251253,3.76155867 C12.9944063,3.76870582 13.3734319,3.75817874 13.7300452,3.83802969 C14.5305196,4.01720144 15.1253854,4.78328476 15.1329722,5.61231937 C15.145118,6.94140828 15.1391321,8.27063801 15.1392713,9.59979733 C15.1395497,12.0883799 15.1387493,14.5769272 15.1384013,17.0654746 C15.1382621,18.2255315 14.6151922,18.8928926 13.4944375,19.1633578 C13.4837882,19.1658927 13.4747397,19.1751171 13.4649604,19.1812433 L2.81563328,19.1812433 C2.45091123,19.0992446 2.10414686,18.9781303 1.81689345,18.7231565 C1.3635314,18.3207682 1.14017395,17.8159961 1.14062568,17.2061995 C1.14219245,15.0162835 1.14146161,12.8263675 1.14167042,10.6364163 C1.14180963,8.99690148 1.13888628,7.35735149 1.14351491,5.71787192 C1.14619465,4.77039876 1.73152482,4.00100592 2.6342467,3.81792612 C3.00342338,3.74303944 3.39636963,3.75258072 3.77567361,3.7741278 Z M8.74222049,12.7536355 C9.1888658,12.7560296 9.48690776,13.1242665 9.39374354,13.5473569 C9.32869912,13.8428899 9.07582981,14.0399119 8.73919274,14.0431862 L7.98256414,14.0462141 L7.98256414,14.0462141 L7.22590943,14.0456508 C6.29242283,14.045862 5.35893622,14.0475168 4.42544961,14.0434679 C4.31171758,14.0429398 4.19140803,14.0291032 4.0858196,13.9896354 C3.80176794,13.8834491 3.63858266,13.5748188 3.69471784,13.2831586 C3.75471601,12.9713949 4.00929061,12.756769 4.34150786,12.7549382 C5.0778427,12.7508893 5.81421235,12.7536707 6.5505472,12.7536707 L6.5505472,12.7526145 C7.28110497,12.7526145 8.01169753,12.7497627 8.74222049,12.7536355 Z M11.8473798,9.54687319 C11.9504973,9.5469436 12.0587307,9.5492321 12.1557579,9.57933464 C12.4529298,9.67147307 12.6341424,9.97270975 12.5893526,10.2758476 C12.5417786,10.5977864 12.2846287,10.8226577 11.9458687,10.8233619 C10.6763019,10.8258616 9.40676983,10.8243477 8.13723779,10.8243477 L8.13723779,10.8256151 C6.87348283,10.8256151 5.60976267,10.827798 4.34600772,10.8244533 C3.87315671,10.823221 3.56717997,10.389498 3.72646745,9.95954209 C3.82053651,9.7056245 4.04566885,9.54898565 4.33452315,9.54775338 C4.96057134,9.5450776 5.58665433,9.54687319 6.21273732,9.54676757 C8.09095149,9.54638028 9.96916567,9.54550009 11.8473798,9.54687319 Z M9.17028864,1.23255774 C10.3092446,1.35592536 11.2448193,2.38722793 11.3067316,3.54510202 C11.3348514,4.07043541 11.3299443,4.59904311 11.3110818,5.12508066 C11.287173,5.79173757 10.7506349,6.31277563 10.0904462,6.32316189 C9.43537336,6.33347773 8.78002212,6.32541518 8.12481009,6.32541518 L8.12481009,6.32671786 C7.51014206,6.32671786 6.89547404,6.32851345 6.28084081,6.32622495 C5.50942583,6.32337313 4.96801543,5.79860306 4.96415244,5.02410511 C4.96122909,4.4397989 4.9351626,3.84718368 5.01785149,3.27270041 C5.18086276,2.14028145 6.19077395,1.25037281 7.32976474,1.2006244 C7.94217065,1.17390179 8.56230255,1.16671943 9.17028864,1.23255774 Z M7.44735976,2.48327441 C6.84435031,2.50098386 6.32810155,2.93671377 6.26291793,3.54056023 C6.21047173,4.02632022 6.2422109,4.52137503 6.23772148,5.01234575 C6.23765188,5.02093642 6.25143336,5.02963271 6.25975097,5.03952606 L10.0470832,5.03952606 C10.0470832,4.56784913 10.0687299,4.11606453 10.0420022,3.66723737 C10.0019802,2.99554576 9.46982707,2.49608999 8.80410492,2.48147882 C8.35203054,2.47158547 7.89929493,2.47003633 7.44735976,2.48327441 Z" id="task" stroke="#556485" stroke-width="0.5" fill="#556485"></path>
    </g>
</svg>