<?xml version="1.0" encoding="UTF-8"?>
<svg width="21px" height="21px" viewBox="0 0 21 21" version="1.1" xmlns="http://www.w3.org/2000/svg" xmlns:xlink="http://www.w3.org/1999/xlink">
    <title>thingsboard_unselected</title>
    <g id="Page-1" stroke="none" stroke-width="1" fill="none" fill-rule="evenodd">
        <g id="thingsboard_unselected" transform="translate(1.000000, 1.000000)" fill="#FFF" fill-rule="nonzero" stroke="#FFF" stroke-width="0.2">
            <path d="M15.0664062,9.5 C15.0664062,6.43068359 12.5693164,3.93359375 9.5,3.93359375 C6.43068359,3.93359375 3.93359375,6.43068359 3.93359375,9.5 C3.93359375,12.5693164 6.43068359,15.0664062 9.5,15.0664062 C12.5693164,15.0664062 15.0664062,12.5693164 15.0664062,9.5 Z M8.43421875,12.8163906 C8.10257227,12.0702324 7.89832227,11.1055 7.84473633,10.0566406 L11.1551895,10.0566406 C11.1016035,11.1054629 10.8973906,12.0701953 10.565707,12.8163906 C10.2540996,13.5175723 9.84571094,13.953125 9.5,13.953125 C9.15425195,13.953125 8.74586328,13.5175723 8.43421875,12.8163906 Z M9.5,5.046875 C9.84571094,5.046875 10.2540996,5.48242773 10.5657441,6.18364648 C10.8974277,6.92980469 11.1016035,7.89457422 11.1552266,8.94335938 L7.84477344,8.94335938 C7.89835937,7.89453711 8.10260938,6.92980469 8.43425586,6.18364648 C8.74586328,5.48242773 9.15425195,5.046875 9.5,5.046875 L9.5,5.046875 Z M11.4796367,13.4880703 C11.5150391,13.4170801 11.5495879,13.3439746 11.5830977,13.2685312 C11.9748242,12.3870723 12.2135488,11.2626953 12.2699551,10.0566406 L13.9184277,10.0566406 C13.7297637,11.5625762 12.7861465,12.8369121 11.4796367,13.4880703 L11.4796367,13.4880703 Z M13.9184277,8.94335938 L12.2699551,8.94335938 C12.2135488,7.7373418 11.9748613,6.61292773 11.5830977,5.73146875 C11.5495879,5.65602539 11.5150391,5.58291992 11.4796367,5.51192969 C12.7861465,6.16308789 13.7297637,7.43742383 13.9184277,8.94335938 Z M7.52032617,5.51192969 C7.48492383,5.58291992 7.45041211,5.65602539 7.41686523,5.73146875 C7.02513867,6.61292773 6.78637695,7.7373418 6.73000781,8.94335938 L5.08157227,8.94335938 C5.27023633,7.43742383 6.21385352,6.163125 7.52032617,5.51192969 L7.52032617,5.51192969 Z M5.08160937,10.0566406 L6.73004492,10.0566406 C6.78645117,11.2626953 7.02517578,12.3870723 7.41690234,13.2685312 C7.45044922,13.3439746 7.48496094,13.4170801 7.52036328,13.4880703 C6.21385352,12.836875 5.27023633,11.5625762 5.08160937,10.0566406 Z" id="Shape"></path>
            <path d="M1.85546875,3.7109375 C2.16470117,3.7109375 2.45626953,3.63445508 2.71291797,3.50011914 L3.99192969,4.77913086 C4.10062305,4.88782422 4.24304883,4.94215234 4.38551172,4.94215234 C4.52797461,4.94215234 4.6704375,4.88778711 4.77909375,4.77913086 C6.04229687,3.51596484 7.71886133,2.8203125 9.5,2.8203125 C9.80741406,2.8203125 10.0566406,2.57108594 10.0566406,2.26367187 C10.0566406,1.95625781 9.80741406,1.70703125 9.5,1.70703125 C7.60775586,1.70703125 5.8167832,2.37971289 4.39924219,3.61204102 L3.50011914,2.71291797 C3.63449219,2.45623242 3.7109375,2.16470117 3.7109375,1.85546875 C3.7109375,0.832363281 2.87857422,0 1.85546875,0 C0.832363281,0 0,0.832363281 0,1.85546875 C0,2.87857422 0.832363281,3.7109375 1.85546875,3.7109375 Z M1.85546875,1.11328125 C2.26471094,1.11328125 2.59765625,1.44622656 2.59765625,1.85546875 C2.59765625,2.26471094 2.26471094,2.59765625 1.85546875,2.59765625 C1.44622656,2.59765625 1.11328125,2.26471094 1.11328125,1.85546875 C1.11328125,1.44622656 1.44622656,1.11328125 1.85546875,1.11328125 Z" id="Shape"></path>
            <path d="M17.1445312,15.2890625 C16.8352988,15.2890625 16.5437305,15.3655078 16.287082,15.4998809 L15.0080703,14.2208691 C14.7907207,14.0035195 14.4382559,14.0035195 14.2208691,14.2208691 C12.9577031,15.4840352 11.2811016,16.1796875 9.5,16.1796875 C9.19258594,16.1796875 8.94335938,16.4289141 8.94335938,16.7363281 C8.94335938,17.0437422 9.19258594,17.2929688 9.5,17.2929688 C11.3922441,17.2929688 13.1832168,16.6202871 14.6007578,15.387959 L15.4998809,16.287082 C15.3655078,16.5437305 15.2890625,16.8352988 15.2890625,17.1445313 C15.2890625,18.1676367 16.1214258,19 17.1445312,19 C18.1676367,19 19,18.1676367 19,17.1445313 C19,16.1214258 18.1676367,15.2890625 17.1445312,15.2890625 Z M17.1445312,17.8867188 C16.7352891,17.8867188 16.4023438,17.5537734 16.4023438,17.1445313 C16.4023438,16.7352891 16.7352891,16.4023438 17.1445312,16.4023438 C17.5537734,16.4023438 17.8867188,16.7352891 17.8867188,17.1445313 C17.8867188,17.5537734 17.5537734,17.8867188 17.1445312,17.8867188 Z" id="Shape"></path>
            <path d="M2.8203125,9.5 C2.8203125,9.19258594 2.57108594,8.94335938 2.26367187,8.94335938 C1.95625781,8.94335938 1.70703125,9.19258594 1.70703125,9.5 C1.70703125,11.3922441 2.37971289,13.1832168 3.61204102,14.6007578 L2.71291797,15.4998809 C2.45626953,15.3655078 2.16470117,15.2890625 1.85546875,15.2890625 C0.832363281,15.2890625 0,16.1214258 0,17.1445312 C0,18.1676367 0.832363281,19 1.85546875,19 C2.87857422,19 3.7109375,18.1676367 3.7109375,17.1445312 C3.7109375,16.8352988 3.63449219,16.5437305 3.50011914,16.287082 L4.77913086,15.0080703 C4.99651758,14.7907207 4.99651758,14.4382559 4.77913086,14.2208691 C3.51596484,12.9577031 2.8203125,11.2811016 2.8203125,9.5 Z M1.85546875,17.8867188 C1.44622656,17.8867188 1.11328125,17.5537734 1.11328125,17.1445312 C1.11328125,16.7352891 1.44622656,16.4023438 1.85546875,16.4023438 C2.26471094,16.4023438 2.59765625,16.7352891 2.59765625,17.1445312 C2.59765625,17.5537734 2.26471094,17.8867188 1.85546875,17.8867188 Z" id="Shape"></path>
            <path d="M16.1796875,9.5 C16.1796875,9.80741406 16.4289141,10.0566406 16.7363281,10.0566406 C17.0437422,10.0566406 17.2929688,9.80741406 17.2929688,9.5 C17.2929688,7.60775586 16.6202871,5.8167832 15.387959,4.39924219 L16.287082,3.50011914 C16.5437305,3.63445508 16.8352988,3.7109375 17.1445312,3.7109375 C18.1676367,3.7109375 19,2.87857422 19,1.85546875 C19,0.832363281 18.1676367,0 17.1445312,0 C16.1214258,0 15.2890625,0.832363281 15.2890625,1.85546875 C15.2890625,2.16470117 15.3655078,2.45623242 15.4998809,2.71291797 L14.2208691,3.99192969 C14.0034824,4.2092793 14.0034824,4.56174414 14.2208691,4.77913086 C15.4840352,6.04229688 16.1796875,7.71889844 16.1796875,9.5 Z M17.1445312,1.11328125 C17.5537734,1.11328125 17.8867188,1.44622656 17.8867188,1.85546875 C17.8867188,2.26471094 17.5537734,2.59765625 17.1445312,2.59765625 C16.7352891,2.59765625 16.4023438,2.26471094 16.4023438,1.85546875 C16.4023438,1.44622656 16.7352891,1.11328125 17.1445312,1.11328125 Z" id="Shape"></path>
        </g>
    </g>
</svg>
