<?xml version="1.0" encoding="UTF-8"?>
<svg width="20px" height="20px" viewBox="0 0 20 20" version="1.1" xmlns="http://www.w3.org/2000/svg" xmlns:xlink="http://www.w3.org/1999/xlink">
    <title>venue</title>
    <g id="Pre-Login" stroke="none" stroke-width="1" fill="none" fill-rule="evenodd">
        <path d="M17.190889,14.0595956 C17.9897132,13.4134817 18.5015141,12.4258444 18.5015141,11.3209079 C18.5015141,9.37910788 16.9218477,7.79944152 14.980186,7.79944152 C14.5790448,7.79944152 14.1935343,7.8669439 13.8341671,7.99102101 C13.4276313,7.62847238 12.9712986,7.32913805 12.4820447,7.1011792 C13.2093551,6.45561855 13.6685926,5.51431997 13.6685926,4.46761809 C13.6685926,2.52581808 12.0889263,0.946151728 10.1472646,0.946151728 C8.20546454,0.946151728 6.62579822,2.52581808 6.62579822,4.46761809 C6.62579822,5.51210677 7.08309916,6.45174543 7.80778148,7.09716779 C7.31562272,7.32540332 6.85666188,7.62598255 6.44791283,7.99019108 C6.08813068,7.86666727 5.70234349,7.79944152 5.30106398,7.79944152 C3.3493046,7.79944152 1.76133878,9.38726903 1.76133878,11.3391668 C1.76133878,12.4417517 2.26815993,13.4281441 3.06103624,14.0778545 C1.86937024,14.8259137 1.07538733,16.1514778 1.07538733,17.6593537 L1.07538733,18.2715782 C1.07538733,18.6605468 1.39062898,18.9757885 1.77973593,18.9757885 L18.5015141,18.9757885 C18.890621,18.9757885 19.2058627,18.6605468 19.2058627,18.2715782 L19.2058627,17.6593537 C19.2058627,16.1393053 18.3988773,14.8041967 17.190889,14.0595956 Z M17.0929552,11.3209079 C17.0929552,12.4858773 16.1451554,13.4336771 14.980186,13.4336771 C13.8150783,13.4336771 12.8672785,12.4858773 12.8672785,11.3209079 C12.8672785,10.1558002 13.8150783,9.20800042 14.980186,9.20800042 C16.1451554,9.20800042 17.0929552,10.1558002 17.0929552,11.3209079 Z M10.1472646,2.35471062 C11.312234,2.35471062 12.2601721,3.30251044 12.2601721,4.46761809 C12.2601721,5.63258746 11.312234,6.58038728 10.1472646,6.58038728 C8.98229521,6.58038728 8.03435708,5.63258746 8.03435708,4.46761809 C8.03435708,3.30251044 8.98229521,2.35471062 10.1472646,2.35471062 Z M12.5579848,8.76716007 C11.8813011,9.40926265 11.4587196,10.3166717 11.4587196,11.3209079 C11.4587196,12.4258444 11.9705205,13.4134817 12.7693447,14.0595956 C11.5858399,14.7891193 10.7874306,16.0853587 10.755616,17.5672296 L9.52563404,17.5672296 C9.49395772,16.0976696 8.70841263,14.8105597 7.54109175,14.0778545 C8.33396807,13.4281441 8.84078922,12.4417517 8.84078922,11.3391668 C8.84078922,10.3255245 8.41239806,9.41023093 7.72741489,8.76425526 C9.1596273,7.72848104 11.1266024,7.72944932 12.5579848,8.76716007 Z M3.16989767,11.3391668 C3.16989767,10.1639614 4.12599696,9.20800042 5.30106398,9.20800042 C6.47626935,9.20800042 7.43223032,10.1639614 7.43223032,11.3391668 C7.43223032,12.4046808 6.6461319,13.2900962 5.62349851,13.4458496 C5.51698863,13.4378268 5.40951043,13.4336771 5.30106398,13.4336771 C5.19261753,13.4336771 5.08513937,13.4378268 4.9787678,13.4458496 C3.95599606,13.2900962 3.16989767,12.4046808 3.16989767,11.3391668 Z M2.48546777,17.5672296 C2.53056159,16.1689067 3.600087,15.025516 4.96618025,14.8628463 C5.07642491,14.8732207 5.18805283,14.878892 5.30106398,14.878892 C5.41407516,14.878892 5.52570305,14.8732207 5.63608606,14.8628463 C7.00217931,15.0256543 8.07156637,16.1689067 8.11679851,17.5672296 L2.48546777,17.5672296 Z M12.1644515,17.5672296 C12.21328,16.0563105 13.4576477,14.842236 14.980186,14.842236 C16.5027243,14.842236 17.747092,16.0563105 17.7957822,17.5672296 L12.1644515,17.5672296 Z" id="venue" stroke="#526488" stroke-width="0.4" fill="#556485" fill-rule="nonzero"></path>
    </g>
</svg>