<?xml version="1.0" encoding="UTF-8"?>
<svg width="19px" height="19px" viewBox="0 0 19 19" version="1.1" xmlns="http://www.w3.org/2000/svg" xmlns:xlink="http://www.w3.org/1999/xlink">
    <title>widgets_library_unselected</title>
    <g id="Page-1" stroke="none" stroke-width="1" fill="none" fill-rule="evenodd">
        <g id="widgets_library_unselected" transform="translate(1.643146, 1.280164)">
            <rect id="Rectangle-Copy-12" x="0" y="0" width="16" height="16"></rect>
            <g id="Widget-Copy" fill="#2F3842" fill-rule="nonzero" stroke="#2F3842" stroke-width="0.4">
                <path d="M5.4375,7.5 L2.0625,7.5 C0.92521875,7.5 0,6.57478125 0,5.4375 L0,2.0625 C0,0.92521875 0.92521875,0 2.0625,0 L5.4375,0 C6.57478125,0 7.5,0.92521875 7.5,2.0625 L7.5,5.4375 C7.5,6.57478125 6.57478125,7.5 5.4375,7.5 Z M2.0625,1 C1.476625,1 1,1.476625 1,2.0625 L1,5.4375 C1,6.023375 1.476625,6.5 2.0625,6.5 L5.4375,6.5 C6.023375,6.5 6.5,6.023375 6.5,5.4375 L6.5,2.0625 C6.5,1.476625 6.023375,1 5.4375,1 L2.0625,1 Z" id="Shape"></path>
                <path d="M13.9375,7.5 L10.5625,7.5 C9.42521875,7.5 8.5,6.57478125 8.5,5.4375 L8.5,2.0625 C8.5,0.92521875 9.42521875,0 10.5625,0 L13.9375,0 C15.0747813,0 16,0.92521875 16,2.0625 L16,5.4375 C16,6.57478125 15.0747813,7.5 13.9375,7.5 Z M10.5625,1 C9.976625,1 9.5,1.476625 9.5,2.0625 L9.5,5.4375 C9.5,6.023375 9.976625,6.5 10.5625,6.5 L13.9375,6.5 C14.523375,6.5 15,6.023375 15,5.4375 L15,2.0625 C15,1.476625 14.523375,1 13.9375,1 L10.5625,1 Z" id="Shape"></path>
                <path d="M12.25,16 C10.18225,16 8.5,14.31775 8.5,12.25 C8.5,10.18225 10.18225,8.5 12.25,8.5 C14.31775,8.5 16,10.18225 16,12.25 C16,14.31775 14.31775,16 12.25,16 Z M12.25,9.5 C10.7336562,9.5 9.5,10.7336562 9.5,12.25 C9.5,13.7663438 10.7336562,15 12.25,15 C13.7663438,15 15,13.7663438 15,12.25 C15,10.7336562 13.7663438,9.5 12.25,9.5 Z" id="Shape"></path>
                <path d="M5.4375,16 L2.0625,16 C0.92521875,16 0,15.0747813 0,13.9375 L0,10.5625 C0,9.42521875 0.92521875,8.5 2.0625,8.5 L5.4375,8.5 C6.57478125,8.5 7.5,9.42521875 7.5,10.5625 L7.5,13.9375 C7.5,15.0747813 6.57478125,16 5.4375,16 Z M2.0625,9.5 C1.476625,9.5 1,9.976625 1,10.5625 L1,13.9375 C1,14.523375 1.476625,15 2.0625,15 L5.4375,15 C6.023375,15 6.5,14.523375 6.5,13.9375 L6.5,10.5625 C6.5,9.976625 6.023375,9.5 5.4375,9.5 L2.0625,9.5 Z" id="Shape"></path>
            </g>
        </g>
    </g>
</svg>