<svg version="1.1" id="svg4408" xmlns="http://www.w3.org/2000/svg" x="0" y="0" viewBox="0 0 150 150" xml:space="preserve"><style>.st2{fill:#f44336}</style><g id="layer1"><g id="path6881-3-5-5-1-8-4-4-7-8" transform="translate(-146.438 -276.028)" opacity=".892"><radialGradient id="SVGID_1_" cx="3085.215" cy="3178.458" r="49.901" gradientTransform="matrix(.6793 .0076 -.509 .5612 -232.629 -1411.725)" gradientUnits="userSpaceOnUse"><stop offset="0"/><stop offset="1" stop-opacity=".188"/></radialGradient><path d="M285.6 388.5c10.3-12.4 4.4-22.4-14.4-22.4-18.9 0-42.4 10-53.9 22.4-16.8 18 .4 23.5-.2 35-.1 1.8 3.9 1.8 7 0 19.8-11.5 46.5-17 61.5-35" fill="url(#SVGID_1_)"/></g><path id="path6881-3-5-5-1-8-4-4" class="st2" d="M124.7 69.1c-.9-27.5-22.3-49.8-49.8-49.8s-49 22.3-49.8 49.8c-1.3 40.1 30.7 52.2 44.7 78 2.2 4 8 4 10.1 0 14.1-25.8 46.1-37.9 44.8-78"/></g><g id="g4928"><circle id="path4978" class="st2" cx="74.9" cy="69.1" r="49.9"/><g id="g4915"><path id="path6883-2-3-5-2-4-9-4-9" d="M74.8 106.4c-20.6 0-37.4-16.7-37.4-37.4 0-20.6 16.7-37.4 37.4-37.4 20.6 0 37.4 16.7 37.4 37.4s-16.7 37.4-37.4 37.4" fill="#fff"/></g></g><path class="st2" d="M95.9 46.6V49h-10v-2.5l10 .1zm-2 5.3h-8v2.5h8v-2.5zm-8 7.9h6v-2.5h-6v2.5zm4 2.9h-4v2.5h4v-2.5zm-4 7.8h2V68h-2v2.5zm1.5 14c0 6.9-5.5 12.5-12.3 12.5s-12.3-5.6-12.3-12.5c0-4.5 2.3-8.5 6.1-10.7V45.5c0-3.5 2.8-6.3 6.2-6.3s6.2 2.8 6.2 6.3v28.3c3.8 2.2 6.1 6.3 6.1 10.7zm-2.4 0c0-3.8-2.1-7.2-5.4-8.9l-.7-.3V45.5c0-2.1-1.7-3.8-3.8-3.8-2.1 0-3.8 1.7-3.8 3.8v29.8l-.7.3c-3.3 1.7-5.4 5.1-5.4 8.9 0 5.5 4.4 10 9.9 10S85 90 85 84.5zm-2.1 0c0 4.4-3.5 8-7.8 8s-7.8-3.6-7.8-8c0-3.6 2.4-6.8 5.8-7.7l.5-.1V61.5h3.1v15.2l.5.1c3.3 1 5.7 4.1 5.7 7.7zm-7.4-5.3c-.2-.8-1-1.4-1.9-1.2-3 .7-5 3.3-5 6.4 0 .9.7 1.6 1.6 1.6s1.6-.7 1.6-1.6c0-1.6 1.1-3 2.6-3.3.7-.2 1.3-1 1.1-1.9z"/></svg>