<?xml version="1.0" encoding="UTF-8"?>
<svg width="134" height="133" fill="none" version="1.1" viewBox="0 0 134 133" xmlns="http://www.w3.org/2000/svg">
 <rect x="8.8335" y="4.5" width="117" height="117" rx="1.7594" fill="#fff" filter="url(#filter0_d_3060_521241)"/>
 <defs>
  <filter id="filter0_d_3060_521241" x=".8335" y=".5" width="133" height="133" color-interpolation-filters="sRGB" filterUnits="userSpaceOnUse">
   <feFlood flood-opacity="0" result="BackgroundImageFix"/>
   <feColorMatrix in="SourceAlpha" result="hardAlpha" values="0 0 0 0 0 0 0 0 0 0 0 0 0 0 0 0 0 0 127 0"/>
   <feOffset dy="4"/>
   <feGaussianBlur stdDeviation="4"/>
   <feComposite in2="hardAlpha" operator="out"/>
   <feColorMatrix values="0 0 0 0 0 0 0 0 0 0 0 0 0 0 0 0 0 0 0.04 0"/>
   <feBlend in2="BackgroundImageFix" result="effect1_dropShadow_3060_521241"/>
   <feBlend in="SourceGraphic" in2="effect1_dropShadow_3060_521241" result="shape"/>
  </filter>
 </defs>
 <g transform="matrix(.44244 0 0 .44244 -18.017 33.104)" fill="#000" stroke="#000" stroke-opacity=".11765" stroke-width="2">
  <line x1="242.4" x2="236.74" y1="16.763" y2="22.42"/>
  <line x1="242.4" x2="236.74" y1="115.76" y2="110.1"/>
  <line x1="143.4" x2="149.06" y1="115.76" y2="110.1"/>
  <line x1="143.4" x2="149.06" y1="16.763" y2="22.42"/>
 </g>
 <g transform="matrix(.44244 0 0 .44244 27.511 22.601)" fill="#000" stroke="#000" stroke-opacity=".12" stroke-width="1.2">
  <line transform="rotate(3,90,90)" x1="90" x2="90" y1="20" y2="23"/>
  <line transform="rotate(6,90,90)" x1="90" x2="90" y1="20" y2="23"/>
  <line transform="rotate(9,90,90)" x1="90" x2="90" y1="20" y2="23"/>
  <line transform="rotate(12,90,90)" x1="90" x2="90" y1="20" y2="23"/>
  <line transform="rotate(15,90,90)" x1="90" x2="90" y1="20" y2="23"/>
  <line transform="rotate(18,90,90)" x1="90" x2="90" y1="20" y2="23"/>
  <line transform="rotate(21,90,90)" x1="90" x2="90" y1="20" y2="23"/>
  <line transform="rotate(24,90,90)" x1="90" x2="90" y1="20" y2="23"/>
  <line transform="rotate(27,90,90)" x1="90" x2="90" y1="20" y2="23"/>
  <line transform="rotate(30,90,90)" x1="90" x2="90" y1="20" y2="23"/>
  <line transform="rotate(33,90,90)" x1="90" x2="90" y1="20" y2="23"/>
  <line transform="rotate(36,90,90)" x1="90" x2="90" y1="20" y2="23"/>
  <line transform="rotate(39,90,90)" x1="90" x2="90" y1="20" y2="23"/>
  <line transform="rotate(42,90,90)" x1="90" x2="90" y1="20" y2="23"/>
  <line transform="rotate(48,90,90)" x1="90" x2="90" y1="20" y2="23"/>
  <line transform="rotate(51,90,90)" x1="90" x2="90" y1="20" y2="23"/>
  <line transform="rotate(54,90,90)" x1="90" x2="90" y1="20" y2="23"/>
  <line transform="rotate(57,90,90)" x1="90" x2="90" y1="20" y2="23"/>
  <line transform="rotate(60,90,90)" x1="90" x2="90" y1="20" y2="23"/>
  <line transform="rotate(63,90,90)" x1="90" x2="90" y1="20" y2="23"/>
  <line transform="rotate(66,90,90)" x1="90" x2="90" y1="20" y2="23"/>
  <line transform="rotate(69,90,90)" x1="90" x2="90" y1="20" y2="23"/>
  <line transform="rotate(72,90,90)" x1="90" x2="90" y1="20" y2="23"/>
  <line transform="rotate(75,90,90)" x1="90" x2="90" y1="20" y2="23"/>
  <line transform="rotate(78,90,90)" x1="90" x2="90" y1="20" y2="23"/>
  <line transform="rotate(81,90,90)" x1="90" x2="90" y1="20" y2="23"/>
  <line transform="rotate(84,90,90)" x1="90" x2="90" y1="20" y2="23"/>
  <line transform="rotate(87,90,90)" x1="90" x2="90" y1="20" y2="23"/>
  <line transform="rotate(93,90,90)" x1="90" x2="90" y1="20" y2="23"/>
  <line transform="rotate(96,90,90)" x1="90" x2="90" y1="20" y2="23"/>
  <line transform="rotate(99,90,90)" x1="90" x2="90" y1="20" y2="23"/>
  <line transform="rotate(102,90,90)" x1="90" x2="90" y1="20" y2="23"/>
  <line transform="rotate(105,90,90)" x1="90" x2="90" y1="20" y2="23"/>
  <line transform="rotate(108,90,90)" x1="90" x2="90" y1="20" y2="23"/>
  <line transform="rotate(111,90,90)" x1="90" x2="90" y1="20" y2="23"/>
  <line transform="rotate(114,90,90)" x1="90" x2="90" y1="20" y2="23"/>
  <line transform="rotate(117,90,90)" x1="90" x2="90" y1="20" y2="23"/>
  <line transform="rotate(120,90,90)" x1="90" x2="90" y1="20" y2="23"/>
  <line transform="rotate(123,90,90)" x1="90" x2="90" y1="20" y2="23"/>
  <line transform="rotate(126,90,90)" x1="90" x2="90" y1="20" y2="23"/>
  <line transform="rotate(129,90,90)" x1="90" x2="90" y1="20" y2="23"/>
  <line transform="rotate(132,90,90)" x1="90" x2="90" y1="20" y2="23"/>
  <line transform="rotate(138,90,90)" x1="90" x2="90" y1="20" y2="23"/>
  <line transform="rotate(141,90,90)" x1="90" x2="90" y1="20" y2="23"/>
  <line transform="rotate(144,90,90)" x1="90" x2="90" y1="20" y2="23"/>
  <line transform="rotate(147,90,90)" x1="90" x2="90" y1="20" y2="23"/>
  <line transform="rotate(150,90,90)" x1="90" x2="90" y1="20" y2="23"/>
  <line transform="rotate(153,90,90)" x1="90" x2="90" y1="20" y2="23"/>
  <line transform="rotate(156,90,90)" x1="90" x2="90" y1="20" y2="23"/>
  <line transform="rotate(159,90,90)" x1="90" x2="90" y1="20" y2="23"/>
  <line transform="rotate(162,90,90)" x1="90" x2="90" y1="20" y2="23"/>
  <line transform="rotate(165,90,90)" x1="90" x2="90" y1="20" y2="23"/>
  <line transform="rotate(168,90,90)" x1="90" x2="90" y1="20" y2="23"/>
  <line transform="rotate(171,90,90)" x1="90" x2="90" y1="20" y2="23"/>
  <line transform="rotate(174,90,90)" x1="90" x2="90" y1="20" y2="23"/>
  <line transform="rotate(177,90,90)" x1="90" x2="90" y1="20" y2="23"/>
  <line transform="rotate(183 90 90)" x1="90" x2="90" y1="20" y2="23"/>
  <line transform="rotate(186 90 90)" x1="90" x2="90" y1="20" y2="23"/>
  <line transform="rotate(189 90 90)" x1="90" x2="90" y1="20" y2="23"/>
  <line transform="rotate(192 90 90)" x1="90" x2="90" y1="20" y2="23"/>
  <line transform="rotate(195 90 90)" x1="90" x2="90" y1="20" y2="23"/>
  <line transform="rotate(198 90 90)" x1="90" x2="90" y1="20" y2="23"/>
  <line transform="rotate(201 90 90)" x1="90" x2="90" y1="20" y2="23"/>
  <line transform="rotate(204 90 90)" x1="90" x2="90" y1="20" y2="23"/>
  <line transform="rotate(207 90 90)" x1="90" x2="90" y1="20" y2="23"/>
  <line transform="rotate(210 90 90)" x1="90" x2="90" y1="20" y2="23"/>
  <line transform="rotate(213 90 90)" x1="90" x2="90" y1="20" y2="23"/>
  <line transform="rotate(216 90 90)" x1="90" x2="90" y1="20" y2="23"/>
  <line transform="rotate(219 90 90)" x1="90" x2="90" y1="20" y2="23"/>
  <line transform="rotate(222 90 90)" x1="90" x2="90" y1="20" y2="23"/>
  <line transform="rotate(228 90 90)" x1="90" x2="90" y1="20" y2="23"/>
  <line transform="rotate(231 90 90)" x1="90" x2="90" y1="20" y2="23"/>
  <line transform="rotate(234 90 90)" x1="90" x2="90" y1="20" y2="23"/>
  <line transform="rotate(237 90 90)" x1="90" x2="90" y1="20" y2="23"/>
  <line transform="rotate(240 90 90)" x1="90" x2="90" y1="20" y2="23"/>
  <line transform="rotate(243 90 90)" x1="90" x2="90" y1="20" y2="23"/>
  <line transform="rotate(246 90 90)" x1="90" x2="90" y1="20" y2="23"/>
  <line transform="rotate(249 90 90)" x1="90" x2="90" y1="20" y2="23"/>
  <line transform="rotate(252 90 90)" x1="90" x2="90" y1="20" y2="23"/>
  <line transform="rotate(255 90 90)" x1="90" x2="90" y1="20" y2="23"/>
  <line transform="rotate(258 90 90)" x1="90" x2="90" y1="20" y2="23"/>
  <line transform="rotate(-99,90,90)" x1="90" x2="90" y1="20" y2="23"/>
  <line transform="rotate(-96,90,90)" x1="90" x2="90" y1="20" y2="23"/>
  <line transform="rotate(-93,90,90)" x1="90" x2="90" y1="20" y2="23"/>
  <line transform="rotate(-87,90,90)" x1="90" x2="90" y1="20" y2="23"/>
  <line transform="rotate(-84,90,90)" x1="90" x2="90" y1="20" y2="23"/>
  <line transform="rotate(-81,90,90)" x1="90" x2="90" y1="20" y2="23"/>
  <line transform="rotate(-78,90,90)" x1="90" x2="90" y1="20" y2="23"/>
  <line transform="rotate(-75,90,90)" x1="90" x2="90" y1="20" y2="23"/>
  <line transform="rotate(-72,90,90)" x1="90" x2="90" y1="20" y2="23"/>
  <line transform="rotate(-69,90,90)" x1="90" x2="90" y1="20" y2="23"/>
  <line transform="rotate(-66,90,90)" x1="90" x2="90" y1="20" y2="23"/>
  <line transform="rotate(-63,90,90)" x1="90" x2="90" y1="20" y2="23"/>
  <line transform="rotate(-60,90,90)" x1="90" x2="90" y1="20" y2="23"/>
  <line transform="rotate(-57,90,90)" x1="90" x2="90" y1="20" y2="23"/>
  <line transform="rotate(-54,90,90)" x1="90" x2="90" y1="20" y2="23"/>
  <line transform="rotate(-51,90,90)" x1="90" x2="90" y1="20" y2="23"/>
  <line transform="rotate(-48,90,90)" x1="90" x2="90" y1="20" y2="23"/>
  <line transform="rotate(-42,90,90)" x1="90" x2="90" y1="20" y2="23"/>
  <line transform="rotate(-39,90,90)" x1="90" x2="90" y1="20" y2="23"/>
  <line transform="rotate(-36,90,90)" x1="90" x2="90" y1="20" y2="23"/>
  <line transform="rotate(-33,90,90)" x1="90" x2="90" y1="20" y2="23"/>
  <line transform="rotate(-30,90,90)" x1="90" x2="90" y1="20" y2="23"/>
  <line transform="rotate(-27,90,90)" x1="90" x2="90" y1="20" y2="23"/>
  <line transform="rotate(-24,90,90)" x1="90" x2="90" y1="20" y2="23"/>
  <line transform="rotate(-21,90,90)" x1="90" x2="90" y1="20" y2="23"/>
  <line transform="rotate(-18,90,90)" x1="90" x2="90" y1="20" y2="23"/>
  <line transform="rotate(-15,90,90)" x1="90" x2="90" y1="20" y2="23"/>
  <line transform="rotate(-12,90,90)" x1="90" x2="90" y1="20" y2="23"/>
  <line transform="rotate(-9,90,90)" x1="90" x2="90" y1="20" y2="23"/>
  <line transform="rotate(-6,90,90)" x1="90" x2="90" y1="20" y2="23"/>
  <line transform="rotate(-3,90,90)" x1="90" x2="90" y1="20" y2="23"/>
 </g>
 <g fill="#9e9e9e" stroke="#9e9e9e" stroke-width=".88487">
  <line x1="98.301" x2="94.762" y1="62.42" y2="62.42"/>
  <line x1="67.331" x2="67.331" y1="93.391" y2="89.851"/>
  <line x1="36.36" x2="39.9" y1="62.42" y2="62.42"/>
 </g>
 <g>
  <path d="m66.955 31.658c0.1733-0.27726 0.57707-0.27726 0.75037 0l1.4139 2.2623c0.18414 0.29468-0.0277 0.67693-0.37519 0.67693h-2.8279c-0.34749 0-0.55933-0.38224-0.37519-0.67693z" fill="#9d9d9d" stroke-width=".44244"/>
  <path d="m89.681 43.241c0.24352 0.0203 0.42239 0.23594 0.40232 0.47946l-0.3482 3.9826c-0.02004 0.24348-0.23435 0.42473-0.4779 0.40442-0.24352-0.02032-0.42063-0.23745-0.40012-0.48098l0.25494-2.9147-9.6313 8.0816-0.56879-0.67785 9.6313-8.0816-2.9037-0.242c-0.24348-0.0203-0.4245-0.2341-0.40422-0.4776 0.02031-0.24351 0.23442-0.42466 0.47796-0.40435zm-44.62 37.279-0.6305-0.7514-0.67785 0.56878 1.8298 2.1807 0.67785-0.56878-0.6305-0.7514 10.147-8.5144-0.56878-0.67785z" fill="#000" stroke-width=".44244"/>
  <g transform="matrix(.44244 0 0 .44244 27.511 22.601)" fill="#000" aria-label="8.1m/s">
   <path d="m85.406 85.348q0 2.3789-1.6055 3.6328-1.5938 1.2539-3.9727 1.2539t-3.9961-1.2539q-1.6055-1.2656-1.6055-3.6328 0-1.418 0.73828-2.4961 0.75-1.0781 2.0156-1.6523-1.1016-0.5625-1.7461-1.5469-0.63281-0.98438-0.63281-2.2266 0-2.2617 1.4648-3.4922 1.4766-1.2305 3.75-1.2305 2.2734 0 3.7383 1.2305 1.4766 1.2305 1.4766 3.4922 0 1.2422-0.64453 2.2266-0.64453 0.98438-1.7461 1.5469 1.2656 0.58594 2.0156 1.6641 0.75 1.0664 0.75 2.4844zm-3.2227-7.8164q0-1.125-0.64453-1.8281-0.63281-0.71484-1.7227-0.71484-1.0781 0-1.7227 0.69141-0.64453 0.67969-0.64453 1.8516 0 1.1484 0.63281 1.8516 0.64453 0.70312 1.7461 0.70312 1.0898 0 1.7227-0.70312 0.63281-0.70312 0.63281-1.8516zm0.375 7.6641q0-1.2656-0.76172-2.0391-0.75-0.78516-1.9922-0.78516-1.2539 0-1.9922 0.78516-0.73828 0.77344-0.73828 2.0391 0 1.2891 0.73828 2.0273 0.73828 0.72656 2.0156 0.72656t2.0039-0.72656q0.72656-0.73828 0.72656-2.0273z"/>
   <path d="m88.242 88.57q0-0.66797 0.43359-1.125 0.43359-0.45703 1.2188-0.45703t1.2188 0.45703q0.44531 0.45703 0.44531 1.125 0 0.66797-0.44531 1.125-0.43359 0.44531-1.2188 0.44531t-1.2188-0.44531q-0.43359-0.45703-0.43359-1.125z"/>
   <path d="m102.35 72.879v17.121h-2.8477v-13.711l-4.1836 1.4297v-2.4023l6.668-2.4375z"/>
   <path d="m81.448 102.02q-1.0049 0-1.4219 0.82032v5.3594h-1.6543v-7.3965h1.5586l0.04785 0.77246q0.78613-0.90918 2.1396-0.90918 1.4697 0 2.0234 1.1279 0.81348-1.1279 2.2764-1.1279 1.1279 0 1.7773 0.6289 0.64942 0.62891 0.65625 2.0781v4.8262h-1.6611v-4.7988q0-0.82031-0.3623-1.1006-0.35547-0.28028-0.9707-0.28028-0.56738 0-0.92969 0.30762-0.35547 0.30762-0.49219 0.79981v5.0723h-1.6611v-4.7852q0-0.77929-0.35547-1.0869-0.35547-0.30762-0.9707-0.30762z"/>
   <path d="m94.949 98.247-3.917 10.808h-1.3125l3.9238-10.808z"/>
   <path d="m100.25 106.19q0-0.35547-0.29395-0.61524-0.28711-0.2666-1.2578-0.47168-1.2031-0.25293-1.9482-0.75195-0.73828-0.50586-0.73828-1.4424 0-0.90918 0.76562-1.5723 0.76562-0.66992 2.085-0.66992 1.3877 0 2.1738 0.67676 0.79297 0.67675 0.79297 1.6748h-1.6611q0-0.43066-0.32813-0.76562-0.32812-0.3418-0.97754-0.3418-0.62891 0-0.92969 0.28027-0.30078 0.28028-0.30078 0.64942 0 0.35546 0.30078 0.57421 0.30078 0.21875 1.2168 0.417 1.2852 0.28027 2.0029 0.77929 0.72461 0.49219 0.72461 1.4834 0 0.98438-0.81348 1.6133-0.81347 0.62891-2.1738 0.62891-1.5244 0-2.3242-0.7793-0.7998-0.77929-0.7998-1.6953h1.6133q0.02734 0.68359 0.49902 0.95703 0.47852 0.27344 1.0254 0.27344 0.65625 0 0.99805-0.25293 0.34864-0.25293 0.34864-0.64941z"/>
  </g>
 </g>
</svg>
