<svg width="28" height="28" viewBox="0 0 28 28" fill="none" xmlns="http://www.w3.org/2000/svg">
<path d="M5.03108 5.15625C5.77143 5.17248 6.5173 5.15128 7.25174 5.16071C7.8239 5.18265 8.48748 5.09836 9.0409 5.26438C9.69918 5.46187 10.2375 6.14944 10.1955 6.85059C10.1558 7.51533 9.84958 7.88778 9.29536 8.21486C9.51778 8.28748 9.67941 8.34404 9.87084 8.48101C10.9144 9.22763 10.6273 10.9457 9.50743 11.4669C8.97602 11.7143 8.23107 11.6871 7.64823 11.6837C7.50846 11.6824 7.36342 11.6854 7.22314 11.6864C6.51749 11.6831 5.70358 11.7059 5.00781 11.6833C5.04453 11.1248 5.02394 10.4019 5.02375 9.83127L5.02278 6.62094C5.02271 6.19477 5.00453 5.56916 5.03108 5.15625ZM6.37765 10.5552C7.03342 10.5561 8.34287 10.6711 8.86123 10.3405C9.16456 10.0017 9.27074 9.42381 8.90056 9.13989C8.35943 8.72488 7.04133 8.87945 6.36974 8.86385C6.37011 9.37 6.35026 10.0656 6.37765 10.5552ZM6.37269 7.72923C7.00051 7.73049 8.1624 7.8392 8.66618 7.52362C8.80778 7.33173 8.92204 7.15753 8.88356 6.90631C8.85349 6.70993 8.75568 6.53503 8.59188 6.42015C8.22605 6.16357 6.84587 6.26264 6.36991 6.26657L6.37269 7.72923Z" fill="#979797"/>
<path d="M13.5375 10.2103C13.6682 10.2044 13.8321 10.1916 13.9597 10.2053C13.9563 11.074 13.9423 12.0085 13.9609 12.8751C15.955 12.8842 18.0418 12.9059 20.0308 12.874C20.032 12.5218 20.041 12.1337 20.0282 11.7845L20.4672 11.7838C20.4668 12.124 20.4559 12.5423 20.4764 12.8756L22.0821 12.8793C22.3254 12.8797 22.7697 12.8908 23 12.8665L22.9978 14.2484C22.2463 14.2218 21.4013 14.2406 20.6391 14.2406L16.3198 14.241L5.44799 14.2426L5.4438 18.9914C5.44394 20.016 5.42817 21.0908 5.44609 22.1113C7.14587 22.1152 8.99155 22.147 10.6829 22.1083C10.6864 21.8298 10.6699 21.177 10.6957 20.9426C10.8276 20.9393 10.9838 20.9313 11.1137 20.937C11.1109 21.3283 11.1105 21.7196 11.1125 22.1109C12.22 22.1146 13.4774 22.1414 14.5754 22.1081C14.5742 21.7554 14.5795 21.3733 14.5651 21.0233L15.0135 21.0422C15.0048 21.3984 15.0036 21.7547 15.0099 22.1109L18.7511 22.1146L18.7516 20.9533C18.8844 20.9805 19.0464 21.0089 19.1759 21.0409C19.1602 21.4903 19.1609 22.1066 19.18 22.552C17.5121 22.5087 15.6985 22.5441 14.0224 22.5441L5.03916 22.5464C5.05929 21.4304 5.0441 20.2688 5.04415 19.1497L5.04236 13.8019C7.10028 13.8274 9.21124 13.8043 11.2728 13.8043L22.5455 13.8024C22.552 13.6387 22.5501 13.4603 22.5516 13.2953C21.8283 13.2686 20.9868 13.2876 20.2572 13.2876L16.0657 13.2874L5 13.2913L5.00424 12.8724C5.68996 12.8981 6.52865 12.882 7.22276 12.8733C7.22647 12.4771 7.22625 12.0809 7.22208 11.6848C7.36236 11.6838 7.5074 11.6808 7.64717 11.6821C7.6429 12.08 7.64261 12.478 7.64625 12.8759C9.57108 12.8889 11.6112 12.9055 13.5312 12.8728C13.5472 11.9949 13.5373 11.09 13.5375 10.2103Z" fill="#979797"/>
<path d="M13.1904 5.15234C13.652 5.17144 14.1405 5.16201 14.6044 5.16018C14.7734 5.51964 14.946 6.00061 15.0955 6.37687L16.0326 8.7191L16.8408 10.7403C16.9293 10.96 17.1755 11.5061 17.2244 11.6972C16.7822 11.6929 16.1816 11.7082 15.7609 11.687C15.5651 11.2502 15.3725 10.6687 15.2004 10.2142C14.8127 10.2124 14.3423 10.2235 13.9606 10.2078C13.8331 10.1942 13.6691 10.207 13.5384 10.2129L12.6113 10.2091C12.4506 10.6663 12.2338 11.2328 12.0951 11.6879C11.6226 11.6897 11.1221 11.6917 10.6504 11.6818C11.3321 9.81435 12.1177 7.94832 12.8294 6.08847C12.9457 5.78439 13.0487 5.44157 13.1904 5.15234ZM13.0159 9.10281L13.9206 9.1051L14.7796 9.1024C14.5421 8.5544 14.3452 7.91119 14.1238 7.35056C14.0718 7.21841 13.9435 6.8061 13.8837 6.70508C13.7381 7.17181 13.5601 7.63359 13.3916 8.093C13.2685 8.429 13.1545 8.77399 13.0159 9.10281Z" fill="#979797"/>
<path d="M20.0275 11.7872C17.2968 11.5826 16.7218 8.43961 17.7828 6.39546C18.6137 4.79447 21.335 4.54891 22.472 5.92275C22.7355 6.24127 22.8426 6.58296 22.9786 6.96383C22.5482 7.08283 22.0865 7.18313 21.6501 7.28493C21.5305 6.88041 21.3519 6.55147 20.9632 6.34208C20.638 6.16689 20.1324 6.14244 19.7828 6.25771C18.6057 6.64577 18.6077 8.18956 18.7311 9.19326C18.7661 9.47665 18.883 9.78169 19.0298 10.0226C19.3476 10.5492 20.1068 10.7635 20.6777 10.5853C21.0445 10.4709 21.3683 10.0926 21.5308 9.74999C21.6258 9.56162 21.6371 9.44056 21.7036 9.26762C22.1154 9.40608 22.594 9.52671 22.9873 9.68106C22.7134 10.9396 21.7793 11.7894 20.4665 11.7865L20.0275 11.7872Z" fill="#979797"/>
<path d="M14.5653 21.0266C14.0171 20.9553 13.4863 20.756 13.1374 20.2901C12.3829 19.2824 12.4669 17.3165 13.4861 16.5128C14.3064 15.8659 15.8827 15.9615 16.5108 16.8448C16.9862 17.4799 17.0344 18.1772 17.0853 18.9345C16.0327 18.9216 14.9798 18.9204 13.9271 18.9307C13.9643 19.2753 14.0479 19.6678 14.3437 19.8763C14.9706 20.3181 15.4832 20.0455 15.7404 19.4171C16.1076 19.4819 16.6299 19.5851 16.9968 19.6163C16.7094 20.563 15.9828 21.0195 15.0138 21.0455L14.5653 21.0266ZM15.1254 18.1457L15.813 18.1439C15.6884 17.4403 15.4991 16.9925 14.6644 17.0921C14.2914 17.2195 14.1205 17.4233 13.9913 17.7982C13.9512 17.9142 13.9184 18.0312 13.9997 18.1361C14.2635 18.1644 14.8382 18.1468 15.1254 18.1457Z" fill="#979797"/>
<path d="M8.57712 16.8989C8.84566 16.5169 9.17365 16.2329 9.63329 16.1586C11.8914 15.7933 11.7548 17.529 11.713 19.1504C11.6978 19.7389 11.7351 20.4002 11.7209 20.9615C11.5474 20.9308 11.2951 20.9353 11.114 20.9394C10.9841 20.9337 10.828 20.9417 10.6961 20.945C10.6167 20.9452 10.5151 20.9563 10.4531 20.9148C10.4199 20.7059 10.4514 20.4254 10.4434 20.2232C10.4187 19.5974 10.5274 17.9987 10.3277 17.4609C10.2892 17.3561 10.2209 17.2649 10.1313 17.1985C9.95709 17.0717 9.72249 17.0582 9.51691 17.0942C9.26939 17.1374 9.0166 17.2725 8.87049 17.4814C8.55118 17.938 8.65909 20.2582 8.66073 20.9603C8.27712 20.927 7.77416 20.9371 7.38384 20.9479L7.38167 17.9187C7.38174 17.3796 7.3654 16.7435 7.38362 16.2111C7.70817 16.2129 8.27384 16.231 8.57876 16.2026C8.58421 16.4346 8.58365 16.6668 8.57712 16.8989Z" fill="#979797"/>
<path d="M18.1019 15.2677C18.3602 15.0776 19.0639 14.6569 19.3598 14.5273C19.3788 15.0912 19.353 15.6493 19.3634 16.2078L20.2251 16.2083L20.2272 17.2283C19.9394 17.2216 19.6513 17.2214 19.3634 17.2278C19.3627 17.6405 19.2959 19.7203 19.4837 19.9201C19.5403 19.9804 19.6394 19.9935 19.7178 19.991C19.8868 19.9857 20.0517 19.9242 20.2077 19.8636C20.254 20.0639 20.3172 20.6518 20.3297 20.8678C19.8506 21.008 19.6698 21.0435 19.1765 21.0404C19.0471 21.0084 18.885 20.9799 18.7522 20.9528C18.4867 20.8174 18.2948 20.6912 18.1974 20.3919C18.005 19.8014 18.1128 17.9709 18.0913 17.2282C17.8982 17.2243 17.7051 17.2227 17.5117 17.2234L17.5202 16.2115C17.6995 16.2087 17.9127 16.2109 18.0889 16.2007C18.0961 15.8897 18.1005 15.5787 18.1019 15.2677Z" fill="#979797"/>
</svg>
