<svg width="28" height="28" viewBox="0 0 28 28" fill="none" xmlns="http://www.w3.org/2000/svg">
<path fill-rule="evenodd" clip-rule="evenodd" d="M14.4609 4C17.7541 4.00012 20.4237 6.66973 20.4238 9.96289V18.0371C20.4237 21.3303 17.7541 23.9999 14.4609 24H13.2725C9.9792 24 7.30871 21.3303 7.30859 18.0371V9.96289C7.30871 6.66966 9.9792 4 13.2725 4H14.4609ZM13.2207 12.7031L10.9111 10.3789L10.1416 11.1436L13.0352 14.0576L10.1465 16.8896L10.9062 17.665L13.2207 15.3965V22.21L17.5088 17.0186L14.5762 14.0674L17.5205 11.1816L13.2207 6.20898V12.7031ZM16.0439 17.0859L14.3066 19.1895V15.3369L16.0439 17.0859ZM16.0322 11.1201L14.3066 12.8105V9.125L16.0322 11.1201Z" fill="#979797"/>
</svg>
