<svg width="28" height="28" viewBox="0 0 28 28" fill="none" xmlns="http://www.w3.org/2000/svg">
<path fill-rule="evenodd" clip-rule="evenodd" d="M19.585 9.42195C20.3059 9.355 21.0527 9.71338 21.458 10.5216L23.0069 13.6085L22.9883 9.63192L25.9629 9.61238L25.9991 17.8429C26.0034 18.8757 25.2451 19.223 24.5616 19.3751C23.9582 19.5094 23.1455 19.2852 22.8389 18.6876L21.1114 15.3214L21.1524 19.2179H18.044L18.1338 10.6847C18.1374 10.0405 18.9465 9.48126 19.585 9.42195ZM8.3848 12.4972H6.8721C5.86435 12.4973 5.27658 13.5936 5.2764 14.4288C5.2764 15.2641 5.8642 16.3612 6.8721 16.3614H8.3848V19.2179H6.78812C4.76288 19.2177 2.01065 17.564 2.00003 14.4288C1.9899 11.3773 4.35217 9.64081 6.78812 9.6407H8.3848V12.4972ZM13.0049 9.47274C14.6097 9.42349 16.6908 10.6063 16.6905 12.5743L16.7012 19.2179H13.7608L13.7735 16.2784L12.8369 16.2774V13.7569H13.7608V12.9171C13.7608 12.4131 13.4261 12.1612 13.0889 12.1612C12.7518 12.1613 12.417 12.4131 12.417 12.9171V19.2179H9.30863L9.37503 12.9288C9.39903 10.652 11.3351 9.52406 13.0049 9.47274Z" fill="#979797"/>
</svg>
