<svg width="28" height="28" viewBox="0 0 28 28" fill="none" xmlns="http://www.w3.org/2000/svg">
<path d="M5.91235 17V10.4875H10.3769V11.5892H7.22729V13.1307H9.94602V14.2324H7.22729V17H5.91235ZM13.0938 17V11.5892H11.1613V10.4875H16.3367V11.5892H14.4087V17H13.0938ZM17.3521 17V10.4875H19.4622C20.2618 10.4875 20.7831 10.5201 21.0259 10.5852C21.3991 10.6829 21.7115 10.8962 21.9633 11.2249C22.215 11.5507 22.3409 11.9727 22.3409 12.491C22.3409 12.8908 22.2683 13.2269 22.1232 13.4994C21.9781 13.7719 21.793 13.9866 21.5679 14.1436C21.3458 14.2976 21.1192 14.3997 20.8882 14.4501C20.5743 14.5123 20.1197 14.5434 19.5244 14.5434H18.667V17H17.3521ZM18.667 11.5892V13.4372H19.3867C19.905 13.4372 20.2515 13.4032 20.4262 13.335C20.6009 13.2669 20.7372 13.1603 20.8349 13.0152C20.9356 12.8701 20.9859 12.7013 20.9859 12.5088C20.9859 12.2718 20.9163 12.0764 20.7772 11.9224C20.638 11.7684 20.4617 11.6721 20.2485 11.6336C20.0915 11.604 19.7761 11.5892 19.3023 11.5892H18.667Z" fill="#979797"/>
</svg>
