<svg width="28" height="28" viewBox="0 0 28 28" fill="none" xmlns="http://www.w3.org/2000/svg">
<path opacity="0.64" d="M16.0239 17.9602C17.4326 17.9602 18.5837 19.1014 18.5837 20.52C18.5833 21.9283 17.4423 23.0786 16.0239 23.0786C14.6155 23.0786 13.4646 21.9383 13.4641 20.52C13.4641 19.4668 14.102 18.5571 15.0168 18.1653L15.4868 19.5691L14.7532 19.2212L14.9509 19.8071L15.9531 20.2429L16.4988 19.2908L16.301 18.7061L15.9238 19.4202L15.4587 18.0225C15.6405 17.9815 15.8296 17.9602 16.0239 17.9602ZM8.6228 16.1841C9.29512 16.1841 9.90692 16.4477 10.3647 16.875L9.2771 17.9517L9.26611 17.1375L8.82056 17.5745L8.86938 18.6755L9.97046 18.7451L10.4172 18.2983L9.60425 18.2788L10.676 17.2229C10.9927 17.649 11.1826 18.1749 11.1826 18.7439C11.1823 20.1524 10.0413 21.3037 8.6228 21.3037C7.21429 21.3037 6.06327 20.1623 6.06299 18.7439C6.06305 17.3352 7.20423 16.1841 8.6228 16.1841ZM21.4402 13.02C22.8587 13.0299 23.9997 14.1701 24 15.5786C23.9997 16.9871 22.8587 18.1384 21.4402 18.1384C20.0318 18.1383 18.8819 16.9969 18.8816 15.5786C18.8816 15.5358 18.8856 15.4928 18.8877 15.4504L19.6836 15.6799L18.989 16.0864L19.5847 16.2646L20.5063 15.6799L20.04 14.6973L19.4456 14.519L19.8118 15.2429L18.95 14.9927C19.2144 13.8646 20.2246 13.0202 21.4402 13.02ZM6.55981 9.21021C7.96842 9.21036 9.11963 10.3614 9.11963 11.77C9.11958 11.9157 9.10407 12.0581 9.08057 12.1973L7.59009 11.7407L8.31396 11.3647L7.70972 11.1755L6.71729 11.7114L7.24341 12.7136L7.84766 12.9016L7.46069 12.1875L8.96094 12.6477C8.60271 13.626 7.66743 14.3297 6.55981 14.3298C5.15136 14.3298 4.00045 13.1883 4 11.77C4 10.3613 5.14116 9.21021 6.55981 9.21021ZM19 6.27319C20.4186 6.27319 21.5598 7.42429 21.5598 8.83301C21.5595 10.2415 20.4185 11.3928 19 11.3928C18.4116 11.3928 17.8697 11.191 17.4363 10.8557L18.4629 9.90601V10.6799L18.8792 10.293L18.8596 9.21143L17.7878 9.11255L17.3716 9.50928L18.1455 9.55811L17.092 10.5347C16.6885 10.0829 16.4403 9.48858 16.4402 8.83301C16.4402 7.42431 17.5814 6.27323 19 6.27319ZM11.8967 4.10156C13.3053 4.10156 14.4563 5.25161 14.4565 6.66016C14.4563 7.7808 13.7328 8.73503 12.7231 9.07959L12.2532 7.45483L12.9673 7.87231L12.7891 7.24731L11.7966 6.70166L11.2412 7.69287L11.4292 8.31787L11.8064 7.58423L12.2739 9.18823C12.1507 9.20643 12.0251 9.21997 11.8967 9.21997C10.4882 9.21997 9.3372 8.07857 9.33691 6.66016C9.33714 5.25161 10.4782 4.10156 11.8967 4.10156Z" fill="#979797"/>
<path d="M7.24146 12.7097L7.8457 12.8977L7.45874 12.1836L12.2415 13.6521L11.4968 14.0293L12.1316 14.2271L13.124 13.6814L12.6077 12.6694L11.9729 12.4717L12.3794 13.2053L9.07983 12.1934C9.10325 12.0546 9.11881 11.9126 9.1189 11.7673C9.1189 10.9951 8.77131 10.3015 8.22656 9.8313C8.69649 9.23056 9.27225 8.71014 9.927 8.29321C10.3974 8.85833 11.1064 9.21729 11.896 9.21729C12.024 9.21728 12.1492 9.20365 12.272 9.18555L13.2327 12.4814L12.499 12.0542L12.687 12.7097L13.6892 13.2456L14.2544 12.2532L14.0664 11.5989L13.6697 12.3521L12.2512 7.45093L12.9653 7.86841L12.7896 7.25562L12.7908 7.25439L12.9666 7.86963L12.2524 7.45215L12.7224 9.0769C13.5569 8.79213 14.1943 8.09007 14.3911 7.22266C15.1927 7.29472 15.9535 7.49798 16.6506 7.80981C16.5146 8.12265 16.4395 8.4683 16.4395 8.83032C16.4397 9.48521 16.6871 10.0792 17.0901 10.5308L14.8098 12.6499L14.8208 11.8467L14.374 12.2629L14.4033 13.3445L15.4019 13.4446L14.5522 13.9597L14.9697 14.7947L13.9871 14.3662L13.4609 15.3086L13.6501 15.864L14.0164 15.1792L15.0149 18.1626C14.1637 18.5277 13.5521 19.3411 13.4719 20.3013C12.5848 20.2689 11.7415 20.0766 10.9719 19.7532C11.1061 19.4423 11.1817 19.1004 11.1819 18.7412C11.1819 18.1724 10.9919 17.6462 10.6753 17.2202L9.60352 18.2749H9.60229L12.9458 14.9814L12.9556 15.7749L13.3816 15.3586L13.3523 14.2563L12.2512 14.2075L11.8337 14.6238L12.6174 14.6433L10.3628 16.8711C9.90507 16.4444 9.2939 16.1814 8.62207 16.1814C8.20903 16.1814 7.82052 16.2805 7.47583 16.4536C7.15947 15.7883 6.95537 15.0644 6.88867 14.3027C7.84923 14.1788 8.63805 13.5243 8.96021 12.645L7.45996 12.1848L7.84692 12.8989L7.24268 12.7109L7.24146 12.7097ZM15.5605 20.0681H15.5569L14.9502 19.8044L14.949 19.8032L15.5605 20.0681ZM16.498 19.2881L16.155 19.8838L16.1526 19.8862L16.4968 19.2869L16.2991 18.7034H16.3003L16.498 19.2881ZM19.6816 15.676H19.6804L18.887 15.4478C18.8849 15.4899 18.8809 15.5333 18.8809 15.5759C18.8811 16.2296 19.1276 16.8226 19.5291 17.2739C19.1157 17.8901 18.5981 18.4352 17.9983 18.8877C17.5279 18.3185 16.8162 17.9575 16.0232 17.9575C15.8288 17.9575 15.6397 17.9789 15.458 18.0198L15.9219 19.415V19.4163L14.4631 15.0315L15.1772 15.3586L15.021 14.8972L15.0381 14.9314L15.5935 15.0999L15.2371 14.3955L19.6816 15.676ZM10.4165 18.2957L9.96973 18.7424L9.2251 18.6948L9.22388 18.6936L9.96851 18.7412L10.4141 18.2944L10.4165 18.2957ZM9.27515 17.9465V17.9478L9.26416 17.1348H9.26538L9.27515 17.9465ZM20.2542 15.8359L19.584 16.262L18.9883 16.0837V16.0825L19.5828 16.2607L20.2566 15.8323C20.2561 15.8335 20.2546 15.8347 20.2542 15.8359ZM20.0393 14.6946L20.386 15.4246V15.427L20.0381 14.6934L20.0393 14.6946ZM18.4609 9.90332L17.4355 10.853C17.8689 11.1882 18.4109 11.3901 18.9993 11.3901C19.3763 11.3901 19.7323 11.3053 20.054 11.1594C20.3359 11.7833 20.5204 12.4564 20.5862 13.1626C19.7715 13.4506 19.1486 14.139 18.9492 14.9888L15.3665 13.95L16.0403 13.5532L15.5325 13.408L15.9219 13.0466L15.1272 12.9868L18.4609 9.9021V9.90332ZM8.31323 11.3621L7.58936 11.7368H7.58813L8.31079 11.3608L8.31323 11.3621ZM18.8613 9.3772L18.8784 10.2903L18.4622 10.6772V10.6748L18.8772 10.2891L18.8601 9.37598L18.8613 9.3772ZM18.1436 9.5542L17.3708 9.50659V9.50537L18.1436 9.5542ZM11.8044 7.58154L11.4285 8.31519L11.4272 8.31274L11.8044 7.58032V7.58154Z" fill="#979797"/>
</svg>
