<svg width="28" height="28" viewBox="0 0 28 28" fill="none" xmlns="http://www.w3.org/2000/svg">
<path d="M10.5483 5.76397C11.8897 5.78344 13.2088 6.00596 14.5044 6.35577C16.776 6.96723 18.9055 7.90439 20.8697 9.20735C21.7805 9.81077 22.6454 10.4768 23.3834 11.2874C24.1212 12.0986 24.7673 12.9783 25.025 14.0814C25.2981 15.2574 25.0436 16.3308 24.3629 17.307C23.6633 18.3139 22.7063 19.0333 21.6421 19.6097C20.4778 20.24 19.24 20.6701 17.9527 20.9701C17.9103 20.9816 17.8671 20.9976 17.8247 21.0131C17.5982 21.0514 17.3716 21.0939 17.145 21.1322C16.7992 21.1935 16.4567 21.251 16.1109 21.3129C16.0801 21.3095 16.0499 21.3084 16.0191 21.309L16.0181 21.307C15.5068 21.3225 14.9991 21.388 14.4878 21.392C13.869 21.392 13.2501 21.3764 12.6352 21.3226C12.6083 21.3186 12.585 21.3183 12.5581 21.3148C12.5451 21.3154 12.5325 21.3143 12.52 21.3109C12.4817 21.3069 12.4431 21.3065 12.4048 21.3031C12.0322 21.2379 11.6596 21.173 11.2905 21.1078C11.2676 21.1038 11.244 21.0962 11.2212 21.0922C11.1829 21.0847 11.1403 21.0772 11.102 21.0658C11.0946 21.0544 11.0804 21.0496 11.0679 21.0541C11.0295 21.0466 10.991 21.0342 10.9487 21.0267C10.9218 21.0227 10.8947 21.0151 10.8638 21.0111C10.8524 21.0072 10.8409 21.0076 10.8257 21.0043C10.781 20.9728 10.7258 20.9593 10.6714 20.9662C10.3755 20.87 10.0835 20.7704 9.78758 20.6742C9.72985 20.6548 9.66856 20.6316 9.61082 20.6127C9.57933 20.5921 9.54515 20.5739 9.51023 20.559C8.70357 20.2469 7.93588 19.842 7.22311 19.3519C5.92408 18.4525 4.88614 17.3182 4.15961 15.9076C3.98676 15.5733 3.84102 15.2274 3.68305 14.8851H3.68696C3.42188 14.0859 3.23279 13.2705 3.16352 12.433C3.16409 12.4072 3.16304 12.381 3.15961 12.3558C3.16706 12.2752 3.18308 12.1986 3.14887 12.1214C3.11452 11.9176 3.14476 11.7177 3.15277 11.5179C3.18362 11.391 3.17574 11.2606 3.1723 11.1302L3.18305 11.015C3.22139 10.7729 3.25701 10.5266 3.29535 10.2845C3.30276 10.2617 3.3104 10.2346 3.31781 10.2113C3.45236 9.6771 3.6179 9.15715 3.87153 8.66535C4.21501 7.99163 4.70629 7.40438 5.30903 6.94757C6.24282 6.35558 7.27743 6.03264 8.36179 5.87921C8.73836 5.82544 9.12272 5.79878 9.5073 5.76788C9.85699 5.74101 10.2066 5.76054 10.5483 5.76397ZM7.57272 17.2777C7.53092 17.2777 7.47294 17.2703 7.45748 17.3207C7.44242 17.3708 7.48086 17.4052 7.5151 17.432C7.67239 17.563 7.83028 17.6939 7.99557 17.8129C8.64923 18.293 9.36836 18.6663 10.1216 18.9662C10.4443 19.0973 10.7704 19.2281 11.1245 19.2845L11.2778 19.3041C11.1663 19.2006 11.0507 19.1063 10.9546 18.9926C10.4973 18.4855 10.0554 17.9657 9.72117 17.3666C9.69434 17.3203 9.66686 17.2818 9.60593 17.2816C8.92547 17.2816 8.24917 17.2777 7.57272 17.2777ZM5.769 14.8187C5.55815 14.7994 5.52347 14.857 5.61958 15.0453C5.90176 15.5815 6.23795 16.0879 6.62252 16.556C6.78043 16.7515 6.95005 16.8445 7.20748 16.8216C7.50724 16.7983 7.81106 16.8177 8.11081 16.8177C8.49459 16.8177 8.87937 16.8174 9.26316 16.8099C9.30917 16.8101 9.42462 16.839 9.36765 16.725C9.0718 16.1562 8.85184 15.5607 8.66355 14.9496C8.6407 14.873 8.58671 14.8526 8.50632 14.8451C8.27974 14.8262 8.04833 14.8382 7.82174 14.8382C7.13781 14.8457 6.45294 14.8839 5.769 14.8187ZM16.7075 11.8665C16.6001 11.8625 16.604 11.9271 16.604 12.0042C16.6103 12.477 16.606 12.951 16.606 13.4232H16.6079C16.6039 13.815 16.604 14.2033 16.604 14.5951C16.6042 14.8845 16.7531 15.0218 17.0503 15.0062C17.157 15.002 17.1996 14.9595 17.1958 14.8607C17.1918 14.7841 17.1958 14.7058 17.1958 14.6292C17.1958 13.938 17.1999 13.2458 17.1919 12.558C17.1919 12.4234 17.2302 12.3771 17.3648 12.3851C17.5759 12.3965 17.7884 12.3805 17.9995 12.3919C18.2297 12.4037 18.3452 12.5345 18.3452 12.765C18.3451 12.9531 18.2485 13.0922 18.0952 13.1917C17.9648 13.2729 17.8194 13.3287 17.6685 13.3568C17.588 13.3722 17.5574 13.3993 17.5767 13.4837C17.5995 13.5912 17.619 13.6996 17.6304 13.8031C17.6379 13.8639 17.6619 13.8907 17.731 13.8792C18.1074 13.81 18.4726 13.7061 18.7261 13.3949C18.9909 13.0722 19.003 12.699 18.8687 12.3265C18.7496 12.0001 18.4645 11.9042 18.146 11.8812H18.145C17.6649 11.8429 17.1843 11.8745 16.7075 11.8665ZM15.854 11.9349C15.4432 11.8388 15.0314 11.8123 14.6206 11.8929C14.0597 12.0005 13.6605 12.2965 13.5259 12.8802C13.4653 13.1435 13.4513 13.4161 13.4868 13.6839C13.5791 14.3638 13.9105 14.7754 14.4829 14.9173C14.9327 15.0288 15.3827 15.0136 15.8325 14.9134C15.9972 14.8791 16.0585 14.8015 16.0513 14.6253C16.0358 14.3255 16.0471 14.325 15.771 14.4056C15.5051 14.4794 15.2266 14.5008 14.9526 14.4671C14.3591 14.4059 14.0954 14.0591 14.0952 13.3753C14.0992 12.7027 14.4105 12.3838 15.0825 12.3529L15.0815 12.3548C15.3116 12.3469 15.543 12.3708 15.7661 12.4281C16.0455 12.5011 16.0388 12.4959 16.0542 12.1966C16.0615 12.0356 16.0035 11.9698 15.854 11.9349ZM12.0522 11.9046C11.7198 11.8337 11.3756 11.8304 11.0415 11.8939C10.5646 11.986 10.2229 12.2474 10.0688 12.7162C9.90233 13.2061 9.92334 13.7407 10.1294 14.2152C10.2588 14.5418 10.5312 14.7912 10.8677 14.8919C11.2408 15.0109 11.6399 15.026 12.021 14.9378C12.5702 14.8147 12.9046 14.4725 13.0083 13.9193C13.0454 13.7415 13.0585 13.5585 13.0454 13.3773H13.0483C13.0483 13.3464 13.0523 13.2616 13.0483 13.181C13.0059 12.5085 12.6325 12.0279 12.0522 11.9046ZM19.398 11.8665C19.2749 11.8625 19.3013 11.9395 19.3013 12.0277C19.315 12.4808 19.3081 12.9343 19.3081 13.388H19.3013C19.3013 13.772 19.2973 14.1574 19.3013 14.5414C19.3087 15.0561 19.1985 14.9526 19.7554 14.972C19.8663 14.9758 19.9014 14.9286 19.8941 14.8255V12.558C19.894 12.4773 19.871 12.3851 20.0054 12.3851C20.2474 12.3891 20.4939 12.3815 20.7359 12.3929C20.9124 12.4005 21.009 12.5081 21.0279 12.6888C21.0585 12.9958 20.893 13.2232 20.5015 13.308C20.2788 13.3543 20.2477 13.4576 20.2935 13.6419C20.2979 13.6537 20.3003 13.6672 20.3003 13.68C20.3427 13.8874 20.4125 13.934 20.6275 13.8802C20.835 13.8265 21.027 13.7573 21.1997 13.6156C21.4304 13.4273 21.5924 13.2151 21.6382 12.9193C21.7262 12.3854 21.4718 11.9663 20.9878 11.8968H20.9898C20.4633 11.8201 19.9285 11.8779 19.398 11.8665ZM11.7212 12.3705C12.0932 12.4171 12.2973 12.659 12.4009 13.0003C12.4505 13.1386 12.4547 13.2892 12.4507 13.4349L12.4468 13.5697C12.4284 13.8804 12.347 14.1683 12.0513 14.35C11.5864 14.6384 10.7017 14.5489 10.5903 13.7347C10.5549 13.5144 10.5565 13.2894 10.5942 13.0697C10.671 12.6662 10.9374 12.4089 11.3403 12.3665C11.4667 12.3523 11.5948 12.3539 11.7212 12.3705ZM6.56197 12.389C6.05085 12.393 5.53891 12.393 5.02778 12.389C4.93574 12.389 4.86683 12.3895 4.88227 12.5199C4.9527 13.0835 5.07696 13.6404 5.25435 14.18C5.29672 14.3108 5.36305 14.3647 5.50142 14.3607C5.93165 14.3527 6.3583 14.3568 6.78854 14.3568C7.31511 14.3568 7.83813 14.3569 8.36472 14.3529C8.41857 14.3531 8.52582 14.3943 8.49558 14.2611C8.37824 13.6916 8.30078 13.1143 8.26413 12.5345C8.25265 12.4005 8.19161 12.3852 8.08053 12.3851L6.56197 12.389ZM5.42915 9.93196C5.31784 9.93202 5.25663 9.97036 5.21431 10.0736C5.00826 10.6048 4.88803 11.1667 4.85884 11.7357C4.851 11.8932 4.90532 11.9281 5.05513 11.9281C6.05454 11.9201 7.05378 11.9242 8.05319 11.9242C8.11017 11.9242 8.16856 11.9357 8.22214 11.9017C8.21358 11.8698 8.22489 11.8358 8.25046 11.8158C8.27335 11.2393 8.32018 10.6658 8.45065 10.1048C8.48492 9.95165 8.44615 9.932 8.31198 9.93196C7.35146 9.93597 6.38967 9.93597 5.42915 9.93196ZM9.98094 7.42707C9.46064 7.38815 8.93772 7.41543 8.42429 7.50812C7.24443 7.71593 6.26832 8.25335 5.62251 9.29915C5.59559 9.34147 5.54602 9.38415 5.5649 9.43391C5.58793 9.49429 5.65248 9.47211 5.69869 9.472L8.48581 9.47591C8.60023 9.4757 8.64003 9.42515 8.67429 9.33333C8.82828 8.89215 9.04998 8.47694 9.33152 8.10383C9.51982 7.85261 9.73771 7.62565 9.98094 7.42707Z" fill="#979797"/>
</svg>
