<svg width="28" height="28" viewBox="0 0 28 28" fill="none" xmlns="http://www.w3.org/2000/svg">
<path d="M25.5464 14.6041L26.8213 15.0084C26.6259 15.7192 26.3001 16.2478 25.844 16.5943C25.3909 16.9379 24.8149 17.1096 24.1159 17.1096C23.2512 17.1096 22.5404 16.815 21.9836 16.2256C21.4268 15.6333 21.1484 14.8248 21.1484 13.8001C21.1484 12.7161 21.4283 11.875 21.988 11.2768C22.5478 10.6756 23.2837 10.375 24.1959 10.375C24.9926 10.375 25.6397 10.6104 26.1372 11.0813C26.4334 11.3597 26.6555 11.7595 26.8036 12.2808L25.502 12.5917C25.425 12.2541 25.2636 11.9876 25.0177 11.7921C24.7749 11.5967 24.4787 11.4989 24.1293 11.4989C23.6465 11.4989 23.2541 11.6722 22.952 12.0187C22.6529 12.3652 22.5034 12.9264 22.5034 13.7023C22.5034 14.5257 22.6514 15.112 22.9476 15.4615C23.2438 15.811 23.6288 15.9857 24.1026 15.9857C24.4521 15.9857 24.7527 15.8747 25.0044 15.6525C25.2561 15.4304 25.4368 15.081 25.5464 14.6041Z" fill="#979797"/>
<path d="M14.6465 10.4883H17.2497C17.765 10.4883 18.1486 10.5105 18.4003 10.5549C18.655 10.5964 18.8815 10.6852 19.08 10.8215C19.2814 10.9577 19.4487 11.1398 19.582 11.3679C19.7152 11.593 19.7819 11.8462 19.7819 12.1275C19.7819 12.4326 19.6989 12.7124 19.5331 12.9671C19.3702 13.2218 19.1481 13.4128 18.8667 13.5402C19.2636 13.6557 19.5686 13.8526 19.7819 14.131C19.9951 14.4094 20.1017 14.7367 20.1017 15.1128C20.1017 15.4089 20.0321 15.6977 19.8929 15.9791C19.7567 16.2574 19.5686 16.481 19.3287 16.6498C19.0918 16.8157 18.7986 16.9179 18.4492 16.9564C18.23 16.9801 17.7014 16.9949 16.8632 17.0008H14.6465V10.4883ZM15.9614 11.5722V13.0782H16.8232C17.3356 13.0782 17.654 13.0708 17.7784 13.056C18.0034 13.0293 18.1797 12.9523 18.307 12.825C18.4373 12.6947 18.5025 12.5244 18.5025 12.3141C18.5025 12.1127 18.4462 11.9498 18.3337 11.8254C18.2241 11.6981 18.0597 11.6211 17.8405 11.5944C17.7102 11.5796 17.3356 11.5722 16.7166 11.5722H15.9614ZM15.9614 14.1621V15.9035H17.1786C17.6525 15.9035 17.9531 15.8902 18.0804 15.8635C18.2759 15.828 18.4343 15.7421 18.5558 15.6059C18.6802 15.4667 18.7424 15.2816 18.7424 15.0506C18.7424 14.8551 18.695 14.6893 18.6002 14.5531C18.5054 14.4168 18.3677 14.3176 18.1871 14.2554C18.0094 14.1932 17.6214 14.1621 17.0232 14.1621H15.9614Z" fill="#979797"/>
<path d="M7.90039 10.4883H10.3037C10.8457 10.4883 11.2588 10.5297 11.5431 10.6127C11.9252 10.7252 12.2524 10.9251 12.5249 11.2124C12.7974 11.4997 13.0047 11.8521 13.1468 12.2697C13.289 12.6843 13.3601 13.1966 13.3601 13.8067C13.3601 14.3428 13.2934 14.8048 13.1602 15.1928C12.9973 15.6666 12.7648 16.0501 12.4627 16.3433C12.2347 16.5654 11.9267 16.7387 11.5387 16.8631C11.2485 16.9549 10.8605 17.0008 10.3748 17.0008H7.90039V10.4883ZM9.21533 11.59V15.9035H10.1971C10.5643 15.9035 10.8294 15.8828 10.9923 15.8413C11.2055 15.788 11.3817 15.6977 11.5209 15.5704C11.6631 15.443 11.7786 15.2342 11.8674 14.944C11.9563 14.6508 12.0007 14.2524 12.0007 13.749C12.0007 13.2455 11.9563 12.859 11.8674 12.5895C11.7786 12.32 11.6542 12.1097 11.4943 11.9587C11.3343 11.8077 11.1315 11.7055 10.8857 11.6522C10.702 11.6107 10.3422 11.59 9.80617 11.59H9.21533Z" fill="#979797"/>
<path d="M0.394531 13.7823C0.394531 13.1189 0.493744 12.5621 0.69217 12.112C0.840249 11.7803 1.04164 11.4826 1.29633 11.2191C1.55399 10.9555 1.83534 10.76 2.14038 10.6327C2.54612 10.4609 3.01405 10.375 3.54417 10.375C4.50372 10.375 5.27077 10.6726 5.84532 11.2679C6.42283 11.8632 6.71158 12.691 6.71158 13.7512C6.71158 14.8026 6.42579 15.6259 5.8542 16.2212C5.28262 16.8135 4.51853 17.1096 3.56194 17.1096C2.5935 17.1096 1.82349 16.815 1.25191 16.2256C0.680324 15.6333 0.394531 14.8189 0.394531 13.7823ZM1.74945 13.7379C1.74945 14.4753 1.91975 15.035 2.26033 15.4171C2.60091 15.7962 3.0333 15.9857 3.5575 15.9857C4.0817 15.9857 4.51113 15.7977 4.84579 15.4215C5.18341 15.0425 5.35222 14.4753 5.35222 13.7201C5.35222 12.9738 5.18785 12.417 4.85911 12.0498C4.53334 11.6825 4.09947 11.4989 3.5575 11.4989C3.01553 11.4989 2.5787 11.6855 2.247 12.0587C1.9153 12.4289 1.74945 12.9886 1.74945 13.7379Z" fill="#979797"/>
</svg>
