<svg width="28" height="28" viewBox="0 0 28 28" fill="none" xmlns="http://www.w3.org/2000/svg">
<path d="M3.8456 10.7552L3.81029 10.7905H4.7535L4.95513 10.5878L5.1579 10.7905H8.335L8.36462 10.7609L8.39423 10.7905H19.7254C21.0192 10.7905 22.0266 11.3508 22.3135 12.5106C22.6069 11.968 23.0425 11.5158 23.5734 11.2018C24.1044 10.8877 24.7108 10.7235 25.3277 10.7279C25.8729 10.73 26.414 10.8223 26.9294 11.0001L27 13.504C26.6151 13.1471 26.1329 12.84 25.5931 12.8399C24.8734 12.8399 24.2935 13.4064 24.2934 14.1191L24.2922 14.1203C24.2922 14.8471 24.9078 15.4075 25.6216 15.4007C26.1735 15.4007 26.6082 15.1692 26.9932 14.7912L26.9225 17.2472C26.5375 17.4281 25.6498 17.5047 25.2229 17.5047C23.5232 17.5047 22.1596 16.309 21.9217 14.6933C21.5448 15.1551 20.9569 15.4211 20.2152 15.4212H18.9975V17.4215H13.5204L13.8701 17.0718L12.9474 16.148L12.0236 17.0707L12.3744 17.4204H1V17.2951H11.7593C11.187 17.1091 10.6895 16.7986 10.3046 16.3803L9.94348 16.7392L9.32492 16.1206H8.63346L8.59928 16.1548L8.56511 16.1206H7.79048L7.48519 16.4236L7.18218 16.1206H6.70829C6.7062 16.1207 6.70357 16.1218 6.70145 16.1218C6.69954 16.1218 6.69766 16.1207 6.69576 16.1206H1V15.9942H6.58412C6.58199 15.9339 6.63441 15.876 6.70145 15.8757C6.76896 15.8757 6.82299 15.9277 6.82676 15.9942H7.05573L6.75499 15.6934L7.48519 14.9553L7.91009 15.3802L8.46828 14.8197H6.84043L6.89397 14.8732L6.51919 15.2469L6.14669 14.8732L6.20023 14.8197H1V14.6933H6.32553L6.51919 14.4973L6.71398 14.6933H7.852L7.24255 14.0815L7.7996 13.5188H7.35647L7.43962 13.602L6.70373 14.3321L5.9724 13.6031L6.05556 13.5188H5.64318L5.75938 13.635C5.73886 13.6577 5.72636 13.6884 5.72634 13.7227C5.72621 13.7383 5.72954 13.7538 5.73545 13.7683C5.74145 13.7828 5.75047 13.7971 5.76165 13.8081C5.77273 13.819 5.78599 13.8274 5.80039 13.8332C5.81487 13.839 5.83034 13.8425 5.84595 13.8423C5.88064 13.8423 5.91199 13.8301 5.93481 13.8093L6.14669 14.0212L5.61698 14.5452L5.09297 14.0212L5.59078 13.5188H4.64301L4.3605 13.799L4.08141 13.5188H3.83193C3.88536 13.5332 3.9242 13.5799 3.9242 13.6384C3.92391 13.7081 3.8687 13.7569 3.7989 13.7569C3.78325 13.7571 3.76784 13.7536 3.75333 13.7478C3.73868 13.7418 3.72464 13.7339 3.71346 13.7227C3.70229 13.7115 3.69432 13.6975 3.6884 13.6828C3.68254 13.6683 3.67907 13.6529 3.67928 13.6373C3.67441 13.5803 3.71114 13.5344 3.76244 13.5188H1V13.3923H4.02103L4.3605 13.0495L4.70338 13.3923H6.18086L6.70259 12.8649L7.23002 13.3923H7.92376L7.97161 13.3445L8.01945 13.3923H8.82369L8.10489 12.6747L8.55827 12.2179H8.06616L8.1664 12.3181L8.10147 12.3819C8.10194 12.386 8.10489 12.3903 8.10489 12.3945C8.10467 12.4642 8.0483 12.5186 7.97844 12.5186C7.97412 12.5186 7.97008 12.5168 7.96591 12.5163L7.61619 12.8649L7.06826 12.3181L7.16737 12.2179H4.74553L4.39581 12.5653L4.04837 12.2179H1V12.0914H4.12128L4.39581 11.8158L4.67149 12.0914H6.87916C6.87892 12.088 6.87689 12.0847 6.87688 12.0812C6.87688 12.0253 6.92675 11.9619 6.99649 11.9616V11.9627C7.06624 11.963 7.1218 12.0184 7.1218 12.0812C7.1218 12.0847 7.1198 12.088 7.11952 12.0914H7.29267L7.61505 11.7656L7.93971 12.0914H8.68358L8.83623 11.9377L8.99001 12.0914H9.64616L9.24746 11.6939L9.82843 11.1106L10.4083 11.6939L10.0107 12.0914H10.2066C10.71 11.4961 11.3953 11.0828 12.1569 10.9158H8.51954L8.9171 11.3123L8.36462 11.8602L7.8782 11.3726C7.88659 11.3895 7.89301 11.4082 7.89301 11.4285C7.89286 11.4983 7.83646 11.5469 7.76656 11.5469C7.75102 11.547 7.73539 11.5448 7.721 11.5389C7.7065 11.533 7.69334 11.5238 7.68226 11.5127C7.67127 11.5018 7.66313 11.4884 7.6572 11.474C7.6513 11.4596 7.64799 11.444 7.64809 11.4285C7.64809 11.3586 7.69672 11.3022 7.76656 11.302C7.78629 11.302 7.80468 11.3077 7.82124 11.3157L7.81782 11.3123L8.21083 10.9158H7.87934C7.88749 10.9317 7.89298 10.9489 7.89301 10.9671C7.89301 11.0371 7.83655 11.0924 7.76656 11.0924C7.69672 11.0922 7.64809 11.0358 7.64809 10.966C7.64813 10.9482 7.65232 10.9313 7.65948 10.9158H5.28321L5.33106 10.9637L4.95513 11.3362L4.58263 10.9625L4.62934 10.9158H3.68384L3.46968 11.1277L3.2578 10.9158H1.00911V10.7905H3.13249L3.09718 10.7552L3.46968 10.3793L3.8456 10.7552ZM16.1519 16.1275C15.746 16.6801 15.1654 17.079 14.4807 17.3019H16.6987V16.1275H16.1519ZM10.9266 16.001L10.7865 16.1411L11.7103 17.065L12.633 16.1411L11.7103 15.2184L10.9266 16.001ZM11.5315 16.3097C11.6014 16.3097 11.6567 16.3651 11.6568 16.435C11.6568 16.505 11.6003 16.5546 11.5303 16.5546C11.5148 16.5546 11.4991 16.5515 11.4848 16.5455C11.4705 16.5395 11.4569 16.5315 11.446 16.5205C11.435 16.5093 11.4268 16.4951 11.421 16.4806C11.4152 16.4662 11.4127 16.4506 11.413 16.435C11.4061 16.3721 11.4616 16.3098 11.5315 16.3097ZM12.0304 14.8265C12.2264 15.2185 12.6189 15.4633 13.1229 15.4633C13.2573 15.4628 13.3911 15.4441 13.5204 15.4075L13.2493 15.6718L13.5762 16.001L14.0387 16.4635L14.3748 16.1275L14.4374 16.0637L14.8293 15.6729L14.1299 14.9735L14.213 14.8265H12.0304ZM11.5315 15.8541C11.6014 15.8541 11.6568 15.9108 11.6568 15.9748C11.6565 16.0445 11.6001 16.099 11.5303 16.099C11.4607 16.0988 11.4132 16.0434 11.413 15.9737C11.406 15.9107 11.4616 15.8542 11.5315 15.8541ZM16.6964 14.847C16.6238 15.2582 16.4688 15.6506 16.2419 16.001H16.6964V14.847ZM7.91807 15.9942H8.43866L8.17893 15.7344L7.91807 15.9942ZM9.33517 15.4246L8.76104 15.9942H9.22809L9.73388 15.4816C9.66765 15.3213 9.61666 15.1524 9.57667 14.9758L9.24518 15.305L8.75876 14.8197H8.73142L9.33517 15.4246ZM13.7494 15.6445C13.8192 15.6445 13.8756 15.7001 13.8758 15.7709C13.8758 15.8409 13.8194 15.8893 13.7494 15.8894C13.7337 15.8896 13.7184 15.8861 13.7038 15.8803C13.6892 15.8744 13.6751 15.8663 13.6639 15.8552C13.6528 15.8441 13.6437 15.831 13.6377 15.8165C13.6318 15.8019 13.6296 15.7855 13.6298 15.7698C13.6241 15.7069 13.6796 15.6445 13.7494 15.6445ZM8.52979 15.5191C8.45999 15.5191 8.41157 15.5747 8.41132 15.6445C8.41132 15.6599 8.41344 15.6758 8.4193 15.69C8.42527 15.7044 8.43448 15.7178 8.4455 15.7287C8.4565 15.7397 8.46988 15.7479 8.48423 15.7538C8.49866 15.7597 8.51422 15.7631 8.52979 15.7629C8.59976 15.7629 8.65624 15.7144 8.65624 15.6445C8.65595 15.5747 8.59958 15.5192 8.52979 15.5191ZM6.70145 15.4212C6.77144 15.4212 6.8279 15.4778 6.8279 15.5408C6.82778 15.6107 6.77137 15.6661 6.70145 15.6661C6.63184 15.6658 6.58309 15.6105 6.58298 15.5408C6.576 15.478 6.63172 15.4215 6.70145 15.4212ZM10.8366 15.3574C10.7671 15.3574 10.7166 15.4134 10.7158 15.4759C10.7156 15.4916 10.7191 15.508 10.7249 15.5226C10.7308 15.5369 10.7391 15.5502 10.75 15.5613C10.761 15.5724 10.7743 15.5815 10.7887 15.5875C10.8033 15.5935 10.8197 15.5967 10.8354 15.5966C10.9053 15.5964 10.9607 15.5469 10.9607 15.477C10.9606 15.4142 10.9062 15.3576 10.8366 15.3574ZM13.7494 15.1899C13.8194 15.19 13.8758 15.2466 13.8758 15.3095C13.8757 15.3794 13.8193 15.4348 13.7494 15.4348C13.6795 15.4348 13.6299 15.3795 13.6298 15.3095C13.6238 15.2466 13.6794 15.1899 13.7494 15.1899ZM8.52979 15.0566C8.45981 15.0567 8.41132 15.1203 8.41132 15.1763C8.41141 15.2462 8.45987 15.3016 8.52979 15.3016C8.59969 15.3015 8.65613 15.2461 8.65624 15.1763C8.65624 15.129 8.62411 15.0856 8.57878 15.0669L8.52979 15.0566ZM10.8366 14.9029C10.7666 14.9029 10.7158 14.9593 10.7158 15.0213C10.7156 15.037 10.7191 15.0524 10.7249 15.0669C10.7308 15.0815 10.7389 15.0956 10.75 15.1068C10.761 15.1179 10.7743 15.127 10.7887 15.133C10.8033 15.139 10.8197 15.1411 10.8354 15.1409C10.9052 15.1408 10.9607 15.0923 10.9607 15.0225C10.9607 14.9596 10.9063 14.9031 10.8366 14.9029ZM10.3809 13.5165L10.3843 13.5199L9.65414 14.241L10.1223 14.7001L10.2476 14.8265L10.4846 15.0646L11.3105 14.2387L10.5974 13.5256L10.4846 13.414L10.3809 13.5165ZM6.07606 14.9256C6.09449 14.9256 6.11195 14.9332 6.12504 14.9462C6.13805 14.9592 6.14541 14.9768 6.14555 14.9951C6.14555 15.0371 6.10406 15.0589 6.07606 15.0589C6.04808 15.0658 6.01341 15.0441 6.01341 14.9951C6.01368 14.9603 6.04126 14.9257 6.07606 14.9256ZM11.4996 14.5816C11.4299 14.5819 11.3801 14.6373 11.38 14.7001C11.3798 14.7158 11.3831 14.7322 11.3891 14.7468C11.3951 14.7612 11.4042 14.7746 11.4153 14.7855C11.4263 14.7964 11.4396 14.8048 11.454 14.8106C11.4685 14.8164 11.484 14.8199 11.4996 14.8197C11.5696 14.8197 11.626 14.7702 11.626 14.7012C11.6259 14.6373 11.5695 14.5816 11.4996 14.5816ZM13.9476 13.2522C13.7447 13.0644 13.4577 12.9447 13.1229 12.9447C12.703 12.9447 12.368 13.1195 12.158 13.3923H13.8075L13.6822 13.5188V13.5256H12.0657C11.9478 13.7275 11.8847 13.9653 11.8846 14.2171C11.8825 14.3817 11.9109 14.5456 11.9678 14.7001H14.2631C14.3131 14.5632 14.3408 14.4186 14.3463 14.2729L14.557 14.4837L15.4798 13.5609L15.3112 13.3923L14.557 12.6439L13.9476 13.2522ZM8.70864 14.0815L8.09236 14.6933H8.59359L8.59928 14.6876L8.60498 14.6933H8.63232L8.51498 14.5759L9.23948 13.8423L8.91597 13.5199L8.9171 13.5188H8.1459L8.70864 14.0815ZM6.07606 14.4973C6.0944 14.4973 6.11197 14.505 6.12504 14.5178C6.13817 14.531 6.14555 14.5494 6.14555 14.568C6.14539 14.6108 6.104 14.6317 6.07606 14.6317C6.05945 14.6317 6.04342 14.6252 6.03163 14.6135C6.01988 14.6018 6.01347 14.5846 6.01341 14.568C6.01341 14.534 6.04108 14.4974 6.07606 14.4973ZM10.6156 14.331C10.6855 14.331 10.7419 14.3864 10.742 14.4563C10.742 14.5263 10.6856 14.5759 10.6156 14.5759C10.6 14.576 10.5844 14.5739 10.57 14.568C10.5555 14.562 10.5423 14.5528 10.5313 14.5418C10.5203 14.5307 10.511 14.5175 10.5051 14.503C10.4992 14.4884 10.4968 14.4721 10.4971 14.4563C10.4902 14.3934 10.5458 14.3311 10.6156 14.331ZM4.96994 14.2524C5.03993 14.2524 5.09639 14.3089 5.09639 14.3789C5.09633 14.4488 5.0399 14.4985 4.96994 14.4985C4.95439 14.4984 4.93872 14.4954 4.92438 14.4894C4.91005 14.4833 4.89655 14.4742 4.88565 14.4632C4.87485 14.4521 4.86633 14.4388 4.86059 14.4244C4.85482 14.4099 4.85236 14.3944 4.85261 14.3789C4.85121 14.3627 4.85303 14.3463 4.85831 14.331C4.8636 14.3157 4.87233 14.3018 4.88337 14.29C4.8945 14.2781 4.90823 14.2678 4.92324 14.2615C4.93801 14.2554 4.95395 14.2521 4.96994 14.2524ZM7.76656 14.1829C7.69671 14.183 7.64815 14.2394 7.64809 14.3082C7.64783 14.3238 7.65034 14.3393 7.65606 14.3538C7.66194 14.3684 7.67118 14.3825 7.68226 14.3937C7.6933 14.4047 7.70655 14.4139 7.721 14.4199C7.73542 14.4258 7.75098 14.4279 7.76656 14.4278C7.83655 14.4278 7.89301 14.3794 7.89301 14.3094C7.89301 14.2394 7.83655 14.1829 7.76656 14.1829ZM11.4996 14.1339C11.4298 14.1341 11.38 14.1826 11.38 14.2524C11.3798 14.2681 11.3831 14.2835 11.3891 14.298C11.395 14.3125 11.4041 14.3256 11.4153 14.3367C11.4264 14.3478 11.4394 14.357 11.454 14.3629C11.4685 14.3687 11.484 14.3711 11.4996 14.3709C11.5695 14.3709 11.6259 14.3235 11.626 14.2535C11.626 14.1896 11.5696 14.1339 11.4996 14.1339ZM10.6156 13.8765C10.6856 13.8765 10.742 13.933 10.742 13.995C10.7418 14.0648 10.6854 14.1214 10.6156 14.1214C10.5458 14.1213 10.4973 14.0657 10.4971 13.995C10.4901 13.933 10.5457 13.8766 10.6156 13.8765ZM4.96994 13.799C5.03982 13.799 5.09621 13.8546 5.09639 13.9175C5.09639 13.9875 5.03993 14.0439 4.96994 14.0439C4.90013 14.0438 4.85261 13.9874 4.85261 13.9175C4.84581 13.8547 4.90021 13.7981 4.96994 13.7979V13.799ZM7.76656 13.7284C7.69688 13.7285 7.64838 13.7842 7.64809 13.8469C7.64809 13.9168 7.69667 13.9732 7.76656 13.9733C7.83655 13.9733 7.89301 13.918 7.89301 13.848C7.89276 13.7842 7.8364 13.7284 7.76656 13.7284ZM6.49641 13.7033C6.4267 13.7036 6.37794 13.76 6.37794 13.8298C6.37785 13.8453 6.38116 13.861 6.38705 13.8753C6.39296 13.8897 6.40115 13.9031 6.41211 13.9141C6.42305 13.925 6.43655 13.9332 6.45084 13.9391C6.46518 13.945 6.48092 13.9483 6.49641 13.9483C6.56628 13.9483 6.62267 13.8996 6.62285 13.8298C6.62285 13.7598 6.5664 13.7033 6.49641 13.7033ZM14.2905 13.6236C14.3605 13.6236 14.4181 13.6801 14.4181 13.75C14.418 13.8199 14.3615 13.8685 14.2916 13.8685C14.276 13.8687 14.2605 13.8663 14.2461 13.8605C14.2314 13.8546 14.2174 13.8455 14.2062 13.8343C14.1951 13.8232 14.1859 13.8101 14.18 13.7956C14.1741 13.781 14.1718 13.7647 14.172 13.7489C14.172 13.679 14.2207 13.6238 14.2905 13.6236ZM18.9975 13.7569H19.2355C19.6485 13.7569 20.1024 13.6864 20.1024 13.1474C20.1023 12.6297 19.6138 12.6018 19.2219 12.6018H18.9975V13.7569ZM6.49641 13.2488C6.42678 13.2491 6.37805 13.3045 6.37794 13.3673C6.37794 13.4371 6.4267 13.4935 6.49641 13.4937C6.5664 13.4937 6.62285 13.4384 6.62285 13.3684C6.62281 13.3045 6.56637 13.2488 6.49641 13.2488ZM11.8641 13.2101C11.7941 13.2101 11.738 13.2667 11.724 13.3297C11.7245 13.3521 11.7315 13.374 11.7445 13.3923C11.7515 13.4063 11.759 13.4207 11.773 13.4277C11.7798 13.4277 11.78 13.4343 11.7866 13.4345C11.7936 13.4345 11.7944 13.4413 11.8014 13.4413C11.8073 13.4482 11.8072 13.4482 11.8151 13.4482H11.8983L11.9256 13.4345C11.9326 13.4345 11.9334 13.4277 11.9404 13.4277C11.9474 13.4127 11.9609 13.4063 11.9689 13.3923C11.9816 13.3739 11.9891 13.3521 11.9894 13.3297C11.9894 13.2668 11.934 13.2102 11.8641 13.2101ZM14.2905 13.1634C14.3604 13.1634 14.418 13.2178 14.4181 13.2807C14.4181 13.3507 14.3616 13.4072 14.2916 13.4072C14.2218 13.407 14.172 13.3506 14.172 13.2807C14.1721 13.2179 14.2218 13.1624 14.2916 13.1622L14.2905 13.1634ZM9.57212 12.6747L8.84876 13.3923H9.04241L9.6473 12.7829L9.74071 12.8763C9.8366 12.6435 9.95865 12.4217 10.1087 12.2179H9.88424L9.82843 12.2737L9.77261 12.2179H9.11646L9.57212 12.6747ZM16.137 12.2179C16.3917 12.5692 16.5727 12.9682 16.669 13.3912H16.6964L16.6975 13.3923V12.2179H16.137ZM3.7989 13.0495C3.86889 13.0495 3.9242 13.1062 3.9242 13.1702C3.92405 13.2401 3.86879 13.2944 3.7989 13.2944C3.72925 13.2941 3.67936 13.2388 3.67928 13.1691C3.6733 13.1062 3.72916 13.0498 3.7989 13.0495ZM8.91141 12.9697C8.8422 12.9703 8.79318 13.0257 8.79294 13.095C8.7928 13.1108 8.79492 13.1272 8.80091 13.1417C8.80688 13.1562 8.816 13.1694 8.82711 13.1805C8.83829 13.1916 8.85237 13.1997 8.86698 13.2055C8.88153 13.2113 8.89688 13.2149 8.91255 13.2146C8.98254 13.2146 9.03899 13.165 9.03899 13.095C9.03872 13.0253 8.98123 12.9697 8.91141 12.9697ZM5.6523 12.677L5.27638 13.0495L4.90387 12.677L5.27638 12.3022L5.6523 12.677ZM11.863 12.7556C11.794 12.7556 11.7375 12.8122 11.7445 12.8752C11.7444 12.8904 11.7479 12.9055 11.7536 12.9196C11.7594 12.9338 11.7679 12.9474 11.7787 12.9583C11.7896 12.9694 11.8031 12.9785 11.8174 12.9845C11.8318 12.9905 11.8474 12.9936 11.863 12.9936C11.9329 12.9936 11.9894 12.9452 11.9894 12.8752C11.9891 12.8114 11.9338 12.7556 11.8641 12.7556H11.863ZM7.97844 12.7294C8.04833 12.7294 8.10473 12.7848 8.10489 12.8547C8.10489 12.9247 8.04843 12.9743 7.97844 12.9743C7.96283 12.9745 7.94737 12.971 7.93288 12.9652C7.91845 12.9594 7.90524 12.951 7.89415 12.9401C7.88309 12.9291 7.87394 12.9157 7.86795 12.9014C7.86195 12.8868 7.8587 12.8704 7.85883 12.8547C7.85897 12.7849 7.90875 12.7296 7.97844 12.7294ZM8.91141 12.5152C8.84203 12.5158 8.79294 12.571 8.79294 12.6337C8.79296 12.7036 8.84259 12.7601 8.91255 12.7601C8.98247 12.7601 9.03889 12.7047 9.03899 12.6348C9.03899 12.5708 8.9814 12.5152 8.91141 12.5152ZM6.99649 12.4241C7.06624 12.4244 7.1218 12.4807 7.1218 12.5505C7.12154 12.6201 7.06607 12.6687 6.99649 12.669C6.98083 12.6691 6.96429 12.6658 6.94979 12.6599C6.9355 12.6539 6.922 12.6458 6.91106 12.6348C6.90011 12.6239 6.89192 12.6104 6.886 12.5961C6.88013 12.5817 6.87682 12.566 6.87688 12.5505C6.87688 12.4805 6.92651 12.4241 6.99649 12.4241ZM5.03374 12.3227C5.06873 12.3227 5.09753 12.3515 5.09753 12.3865C5.09729 12.4291 5.06164 12.4434 5.03374 12.4434C5.00594 12.45 4.97132 12.4289 4.97108 12.3865C4.97108 12.3517 4.99898 12.323 5.03374 12.3227ZM3.92534 12.309C3.96026 12.309 3.98787 12.3369 3.988 12.3728C3.988 12.4148 3.95334 12.4286 3.92534 12.4286C3.89736 12.4286 3.86269 12.4148 3.86269 12.3728C3.86281 12.337 3.89046 12.3091 3.92534 12.309ZM14.0877 10.9158C14.8784 11.0978 15.5632 11.5037 16.0391 12.0914H16.6964L16.6975 10.9158H14.0877ZM5.03374 11.9377C5.06873 11.9377 5.09753 11.9664 5.09753 12.0014C5.09734 12.0432 5.06166 12.0573 5.03374 12.0573C5.00592 12.057 4.97131 12.036 4.97108 12.0014C4.97108 11.9666 4.99898 11.9379 5.03374 11.9377ZM3.92534 11.924C3.96018 11.924 3.98775 11.9519 3.988 11.9866C3.988 12.0286 3.95334 12.0436 3.92534 12.0436C3.89736 12.0436 3.86269 12.0226 3.86269 11.9866C3.86294 11.9519 3.89054 11.924 3.92534 11.924ZM9.20987 11.7907C9.27975 11.7908 9.33517 11.8472 9.33517 11.9171C9.33515 11.987 9.27973 12.0355 9.20987 12.0356C9.19436 12.0358 9.17867 12.0335 9.1643 12.0276C9.14987 12.0217 9.13662 12.0125 9.12557 12.0014C9.11449 11.9904 9.1053 11.9772 9.09937 11.9627C9.09347 11.9483 9.09013 11.9328 9.09026 11.9171C9.09026 11.8472 9.13988 11.7907 9.20987 11.7907ZM5.77191 11.7634C5.84165 11.7636 5.8971 11.8189 5.89721 11.8887C5.89721 11.9585 5.84172 12.0081 5.77191 12.0083C5.75608 12.0085 5.73988 12.0051 5.7252 11.9992C5.71058 11.9932 5.69763 11.9841 5.68647 11.973C5.67531 11.9618 5.6662 11.9489 5.66027 11.9342C5.65434 11.9196 5.65089 11.9034 5.65116 11.8875C5.65133 11.8187 5.70204 11.7634 5.77191 11.7634ZM6.75499 11.4877L6.37907 11.8602L6.00657 11.4877L6.37907 11.1106L6.75499 11.4877ZM9.20987 11.3362C9.2796 11.3363 9.33495 11.392 9.33517 11.4558C9.33517 11.5257 9.27975 11.581 9.20987 11.5811C9.13988 11.5811 9.09026 11.5246 9.09026 11.4547C9.09053 11.3919 9.14007 11.3362 9.20987 11.3362ZM5.77191 11.3009C5.84155 11.3011 5.89693 11.3568 5.89721 11.4205C5.89721 11.4903 5.84172 11.5456 5.77191 11.5458C5.70209 11.5458 5.6514 11.4902 5.65116 11.4205C5.65116 11.3575 5.70192 11.3009 5.77191 11.3009ZM7.18445 11.3339C7.21945 11.3339 7.24825 11.3627 7.24825 11.3977C7.24797 11.4393 7.21234 11.4535 7.18445 11.4535C7.15665 11.4534 7.12208 11.4391 7.1218 11.3977C7.1218 11.3629 7.14968 11.3342 7.18445 11.3339ZM3.03339 11.0081C3.06822 11.0081 3.09578 11.036 3.09604 11.0708C3.09604 11.1128 3.06138 11.1277 3.03339 11.1277C3.01236 11.1344 2.97757 11.1126 2.97757 11.0708C2.97782 11.0361 3.00558 11.0082 3.03339 11.0081ZM4.56099 11.0001C4.56948 11.0036 4.57727 11.0096 4.58377 11.0161C4.5902 11.0225 4.59509 11.0304 4.59858 11.0389C4.60202 11.0472 4.60425 11.056 4.60428 11.0651C4.60428 11.1068 4.56278 11.1275 4.53479 11.1277C4.51379 11.1347 4.471 11.1141 4.471 11.0651C4.47109 11.0291 4.49985 10.9956 4.53479 10.9956C4.54373 10.9956 4.55271 10.9967 4.56099 11.0001ZM7.18445 10.942C7.21926 10.942 7.24795 10.97 7.24825 11.0047C7.24825 11.0467 7.21245 11.0616 7.18445 11.0616C7.15655 11.0682 7.1218 11.0464 7.1218 11.0047C7.1221 10.9701 7.14987 10.9423 7.18445 10.942ZM3.03339 10.6231C3.06838 10.6231 3.09604 10.6519 3.09604 10.6869C3.09572 10.7284 3.06125 10.7427 3.03339 10.7427C3.01249 10.7426 2.97794 10.7214 2.97757 10.6869C2.97757 10.6519 3.00545 10.6232 3.03339 10.6231ZM4.53479 10.5673C4.55316 10.5674 4.57076 10.5748 4.58377 10.5878C4.59676 10.6008 4.60413 10.6184 4.60428 10.6367C4.60428 10.6785 4.56278 10.7003 4.53479 10.7005C4.51379 10.7005 4.471 10.6787 4.471 10.6367C4.47129 10.6019 4.49998 10.5673 4.53479 10.5673ZM4.26025 10.0353L3.92534 10.3713L3.59043 10.0353L3.92534 9.69922L4.26025 10.0353ZM3.47082 10.1549C3.50662 10.155 3.52778 10.1839 3.52778 10.2118C3.52746 10.2463 3.49177 10.2607 3.47082 10.2608C3.45089 10.2608 3.41522 10.2464 3.415 10.2107C3.41534 10.1829 3.43611 10.1549 3.47082 10.1549ZM3.47082 9.81199C3.50661 9.81217 3.52778 9.8399 3.52778 9.86781C3.52751 9.90235 3.49178 9.91778 3.47082 9.91794C3.4509 9.91794 3.41527 9.90252 3.415 9.86781C3.415 9.83982 3.43583 9.81199 3.47082 9.81199Z" fill="#979797"/>
</svg>
