<svg width="28" height="28" viewBox="0 0 28 28" fill="none" xmlns="http://www.w3.org/2000/svg">
<path d="M23.3042 13.5208C21.7578 1.66325 4.81749 3.14757 5.36248 15.0898C5.49457 16.6043 6.00782 18.0607 6.85442 19.3233C6.72313 20.0857 6.50902 20.8315 6.21588 21.5475C6.17928 21.6413 6.16888 21.7432 6.1858 21.8425C6.20271 21.9417 6.24632 22.0345 6.31193 22.1109C6.37754 22.1872 6.4627 22.2443 6.55826 22.276C6.65383 22.3076 6.75621 22.3127 6.85444 22.2906C7.73249 22.0817 8.62834 21.9564 9.53001 21.9163C15.661 25.94 24.0406 20.808 23.3042 13.5208ZM10.4934 16.8019L8.39038 14.6989C8.28724 14.5949 8.22937 14.4544 8.22937 14.308C8.22937 14.1616 8.28724 14.0211 8.39038 13.9171L10.4934 11.8141C10.597 11.7136 10.7359 11.6578 10.8802 11.6586C11.0245 11.6595 11.1628 11.7169 11.2652 11.8186C11.3676 11.9203 11.426 12.0581 11.4279 12.2025C11.4297 12.3468 11.3749 12.4861 11.2751 12.5904L9.56303 14.308L11.2752 16.0201C11.3754 16.1245 11.4308 16.264 11.4293 16.4087C11.4278 16.5534 11.3697 16.6918 11.2673 16.7941C11.165 16.8964 11.0266 16.9546 10.8819 16.956C10.7372 16.9575 10.5977 16.9021 10.4934 16.8019ZM15.3931 12.3371L14.3416 16.5431C14.3045 16.6825 14.2141 16.8017 14.0899 16.8751C13.9658 16.9485 13.8178 16.9702 13.6778 16.9356C13.5378 16.9009 13.417 16.8127 13.3414 16.6899C13.2658 16.5671 13.2414 16.4195 13.2736 16.2789L14.3251 12.0674C14.3637 11.9288 14.4549 11.8109 14.5793 11.7387C14.7036 11.6665 14.8513 11.6458 14.9908 11.681C15.1302 11.7162 15.2503 11.8045 15.3255 11.9271C15.4007 12.0497 15.425 12.1969 15.3931 12.3371ZM20.2708 14.6989L18.1678 16.8019C18.0631 16.9037 17.923 16.9609 17.7769 16.9615C17.6686 16.9598 17.5632 16.9264 17.4737 16.8653C17.3842 16.8042 17.3147 16.7182 17.2736 16.618C17.2326 16.5177 17.2219 16.4076 17.2429 16.3013C17.2638 16.1951 17.3155 16.0973 17.3916 16.0201L19.1037 14.308L17.3915 12.5903C17.2915 12.4868 17.2361 12.3481 17.2374 12.2042C17.2386 12.0602 17.2963 11.9225 17.3981 11.8207C17.4999 11.7189 17.6377 11.6611 17.7816 11.6599C17.9256 11.6587 18.0643 11.7141 18.1678 11.8141L20.2708 13.9171C20.374 14.021 20.4318 14.1616 20.4318 14.308C20.4318 14.4544 20.374 14.595 20.2708 14.6989Z" fill="#979797"/>
</svg>
