<svg width="28" height="28" viewBox="0 0 28 28" fill="none" xmlns="http://www.w3.org/2000/svg">
<path d="M2.7861 17V10.4875H5.5537C6.24967 10.4875 6.75462 10.5467 7.06855 10.6652C7.38544 10.7807 7.63865 10.988 7.82819 11.2871C8.01774 11.5862 8.11251 11.9283 8.11251 12.3133C8.11251 12.802 7.96887 13.2062 7.6816 13.5261C7.39432 13.843 6.96489 14.0429 6.39331 14.1258C6.67762 14.2916 6.91159 14.4738 7.0952 14.6722C7.28178 14.8706 7.53204 15.2231 7.84596 15.7295L8.64115 17H7.06855L6.11788 15.5829C5.78026 15.0765 5.54926 14.7581 5.42487 14.6278C5.30049 14.4945 5.1687 14.4042 5.0295 14.3568C4.89031 14.3064 4.66967 14.2813 4.36759 14.2813H4.10105V17H2.7861ZM4.10105 13.2418H5.07392C5.70474 13.2418 6.09863 13.2151 6.2556 13.1618C6.41256 13.1085 6.53546 13.0167 6.62431 12.8864C6.71316 12.7561 6.75758 12.5932 6.75758 12.3977C6.75758 12.1785 6.69835 12.0023 6.57989 11.8691C6.46439 11.7328 6.30002 11.6469 6.08678 11.6114C5.98017 11.5966 5.66032 11.5892 5.12723 11.5892H4.10105V13.2418ZM9.51883 17V10.4875H14.3477V11.5892H10.8338V13.033H14.1034V14.1302H10.8338V15.9027H14.4721V17H9.51883ZM15.4164 14.881L16.6958 14.7566C16.7728 15.186 16.9283 15.5014 17.1622 15.7028C17.3992 15.9042 17.7175 16.0049 18.1174 16.0049C18.5409 16.0049 18.8592 15.9161 19.0725 15.7384C19.2887 15.5577 19.3968 15.3474 19.3968 15.1076C19.3968 14.9535 19.3509 14.8232 19.259 14.7166C19.1702 14.607 19.0132 14.5123 18.7882 14.4323C18.6342 14.379 18.2832 14.2842 17.7353 14.148C17.0305 13.9733 16.5359 13.7586 16.2516 13.5039C15.8518 13.1455 15.6518 12.7087 15.6518 12.1934C15.6518 11.8617 15.7451 11.5522 15.9317 11.2649C16.1213 10.9747 16.3922 10.754 16.7447 10.603C17.1001 10.4519 17.528 10.3764 18.0285 10.3764C18.8459 10.3764 19.4604 10.5556 19.8721 10.914C20.2867 11.2723 20.5044 11.7506 20.5251 12.3488L19.2102 12.4066C19.1539 12.0719 19.0325 11.832 18.8459 11.6869C18.6623 11.5388 18.3854 11.4648 18.0152 11.4648C17.6331 11.4648 17.334 11.5433 17.1178 11.7003C16.9786 11.8009 16.909 11.9357 16.909 12.1045C16.909 12.2585 16.9742 12.3903 17.1045 12.4999C17.2703 12.6391 17.6731 12.7842 18.3128 12.9352C18.9525 13.0863 19.4249 13.2432 19.7299 13.4061C20.0379 13.566 20.2778 13.7867 20.4496 14.068C20.6243 14.3464 20.7117 14.6914 20.7117 15.1031C20.7117 15.4763 20.608 15.8257 20.4007 16.1515C20.1934 16.4773 19.9002 16.7201 19.5211 16.8801C19.1421 17.037 18.6697 17.1155 18.104 17.1155C17.2807 17.1155 16.6484 16.926 16.2071 16.5469C15.7659 16.1648 15.5023 15.6095 15.4164 14.881ZM23.4463 17V11.5892H21.5139V10.4875H26.6892V11.5892H24.7612V17H23.4463Z" fill="#979797"/>
</svg>
