<svg width="28" height="28" viewBox="0 0 28 28" fill="none" xmlns="http://www.w3.org/2000/svg">
<g clip-path="url(#clip0_18614_178254)">
<path d="M25.6503 16.2114V12.2905H24.25V11.4922H28.0003V12.2905H26.6032V16.2114H25.6503Z" fill="#979797"/>
<path d="M20.0137 16.2114V11.4922H23.5129V12.2905H20.9665V13.3368H23.3358V14.1319H20.9665V15.4163H23.603V16.2114H20.0137Z" fill="#979797"/>
<path d="M15.084 16.2114V11.4922H16.0369V13.5878L17.9619 11.4922H19.2431L17.4661 13.3303L19.3397 16.2114H18.1068L16.8094 13.9967L16.0369 14.7854V16.2114H15.084Z" fill="#979797"/>
<path d="M13.1459 14.4787L14.0698 14.7716C13.9282 15.2867 13.6921 15.6698 13.3616 15.9209C13.0333 16.1698 12.6158 16.2943 12.1094 16.2943C11.4827 16.2943 10.9676 16.0807 10.5642 15.6537C10.1607 15.2245 9.95898 14.6386 9.95898 13.896C9.95898 13.1106 10.1618 12.5011 10.5674 12.0675C10.973 11.6319 11.5063 11.4141 12.1673 11.4141C12.7446 11.4141 13.2135 11.5847 13.5741 11.9259C13.7887 12.1276 13.9496 12.4174 14.057 12.7951L13.1137 13.0204C13.0579 12.7758 12.941 12.5826 12.7629 12.441C12.5869 12.2993 12.3723 12.2285 12.119 12.2285C11.7692 12.2285 11.4849 12.3541 11.266 12.6051C11.0492 12.8562 10.9408 13.2629 10.9408 13.8252C10.9408 14.4218 11.0481 14.8467 11.2627 15.1C11.4773 15.3532 11.7563 15.4798 12.0997 15.4798C12.353 15.4798 12.5708 15.3994 12.7532 15.2384C12.9356 15.0774 13.0665 14.8242 13.1459 14.4787Z" fill="#979797"/>
<path d="M4.625 13.8831C4.625 13.4024 4.69689 12.999 4.84068 12.6727C4.94799 12.4324 5.09392 12.2167 5.27849 12.0257C5.4652 11.8347 5.66907 11.6931 5.89012 11.6008C6.18414 11.4763 6.52322 11.4141 6.90737 11.4141C7.60271 11.4141 8.15854 11.6297 8.57489 12.0611C8.99337 12.4925 9.20262 13.0923 9.20262 13.8606C9.20262 14.6225 8.99552 15.2191 8.58132 15.6505C8.16713 16.0797 7.61344 16.2943 6.92025 16.2943C6.21848 16.2943 5.66049 16.0807 5.24629 15.6537C4.8321 15.2245 4.625 14.6343 4.625 13.8831ZM5.60684 13.851C5.60684 14.3853 5.73024 14.7909 5.97704 15.0678C6.22384 15.3425 6.53717 15.4798 6.91703 15.4798C7.29689 15.4798 7.60807 15.3436 7.85058 15.071C8.09523 14.7963 8.21756 14.3853 8.21756 13.8381C8.21756 13.2973 8.09845 12.8938 7.86024 12.6277C7.62417 12.3616 7.30976 12.2285 6.91703 12.2285C6.52429 12.2285 6.20774 12.3637 5.96738 12.6341C5.72702 12.9024 5.60684 13.308 5.60684 13.851Z" fill="#979797"/>
<path d="M0 14.6783L0.927113 14.5881C0.982911 14.8993 1.09558 15.1279 1.26512 15.2738C1.43681 15.4197 1.66752 15.4927 1.95724 15.4927C2.26413 15.4927 2.49483 15.4283 2.64935 15.2996C2.80602 15.1687 2.88435 15.0163 2.88435 14.8424C2.88435 14.7309 2.85109 14.6364 2.78456 14.5592C2.72017 14.4798 2.60643 14.4111 2.44333 14.3531C2.33173 14.3145 2.07742 14.2458 1.68039 14.1471C1.16962 14.0205 0.811224 13.8649 0.605199 13.6803C0.315476 13.4207 0.170614 13.1041 0.170614 12.7307C0.170614 12.4903 0.238216 12.2661 0.37342 12.0579C0.51077 11.8476 0.707138 11.6877 0.962523 11.5782C1.22005 11.4688 1.53017 11.4141 1.89286 11.4141C2.48518 11.4141 2.93049 11.5439 3.2288 11.8036C3.52925 12.0633 3.68699 12.4099 3.70201 12.8434L2.74915 12.8852C2.70837 12.6427 2.62038 12.4689 2.48518 12.3637C2.35212 12.2564 2.15146 12.2028 1.8832 12.2028C1.60635 12.2028 1.3896 12.2596 1.23293 12.3734C1.13206 12.4463 1.08163 12.544 1.08163 12.6663C1.08163 12.7779 1.12885 12.8734 1.22327 12.9528C1.34346 13.0537 1.63532 13.1588 2.09888 13.2683C2.56244 13.3777 2.90474 13.4915 3.12579 13.6095C3.34898 13.7254 3.52281 13.8853 3.64729 14.0892C3.77391 14.2909 3.83722 14.5409 3.83722 14.8392C3.83722 15.1096 3.7621 15.3629 3.61188 15.5989C3.46165 15.835 3.24919 16.011 2.97449 16.1269C2.69979 16.2406 2.35748 16.2975 1.94758 16.2975C1.35097 16.2975 0.892775 16.1602 0.573007 15.8854C0.253239 15.6086 0.0622367 15.2062 0 14.6783Z" fill="#979797"/>
</g>
<defs>
<clipPath id="clip0_18614_178254">
<rect width="28.0001" height="28.0001" fill="white"/>
</clipPath>
</defs>
</svg>
