<svg width="28" height="28" viewBox="0 0 28 28" fill="none" xmlns="http://www.w3.org/2000/svg">
<path d="M4 6.72657C4.12152 11.4789 8.0453 16.4142 12.7488 19.1388C11.6631 19.9955 10.4334 20.647 9.09197 20.9848V21.0792C9.09083 21.0795 9.08954 21.0795 9.0884 21.0799V21.2672C10.5201 21.1452 11.8703 20.7674 13.1129 20.1994C13.4101 20.0764 13.7059 19.9437 14 19.8021C14.294 19.9436 14.59 20.0762 14.8871 20.1992C16.1297 20.7672 17.4799 21.1452 18.9116 21.2672V21.0799C18.9105 21.0795 18.9092 21.0793 18.908 21.079V20.9848C17.5667 20.647 16.3368 19.9955 15.2512 19.1388C19.9546 16.4141 23.8785 11.4788 24 6.72656L21.1763 7.8213L21.1663 7.8251L20.3106 8.13115L17.7452 8.89015L17.745 8.89038C17.7537 9.04045 17.7586 9.19098 17.7586 9.34265C17.7586 12.1367 16.3477 15.5466 14 17.9988C11.6523 15.5466 10.2414 12.1368 10.2414 9.34265C10.2414 9.19098 10.2463 9.04045 10.255 8.89038L10.2548 8.89015L7.6876 8.13026L6.83462 7.82554L4 6.72657Z" fill="#979797"/>
</svg>
