<?xml version="1.0" encoding="UTF-8" standalone="no"?>
<!-- Created with Inkscape (http://www.inkscape.org/) -->

<svg
   xmlns:dc="http://purl.org/dc/elements/1.1/"
   xmlns:cc="http://creativecommons.org/ns#"
   xmlns:rdf="http://www.w3.org/1999/02/22-rdf-syntax-ns#"
   xmlns:svg="http://www.w3.org/2000/svg"
   xmlns="http://www.w3.org/2000/svg"
   xmlns:sodipodi="http://sodipodi.sourceforge.net/DTD/sodipodi-0.dtd"
   xmlns:inkscape="http://www.inkscape.org/namespaces/inkscape"
   width="21"
   height="34"
   viewBox="0 0 5.5562499 8.9958336"
   version="1.1"
   id="svg8"
   inkscape:export-filename="D:\thingsboard-windows-2.1\wangf\thingsboard\ui\src\images\leaflet\marker.png"
   inkscape:export-xdpi="96"
   inkscape:export-ydpi="96"
   sodipodi:docname="marker.svg"
   inkscape:version="0.92.3 (2405546, 2018-03-11)">
  <defs
     id="defs2" />
  <sodipodi:namedview
     id="base"
     pagecolor="#ffffff"
     bordercolor="#666666"
     borderopacity="1.0"
     inkscape:pageopacity="0.0"
     inkscape:pageshadow="2"
     inkscape:zoom="7.9195959"
     inkscape:cx="13.418763"
     inkscape:cy="17.156612"
     inkscape:document-units="mm"
     inkscape:current-layer="g831"
     showgrid="false"
     units="mm"
     inkscape:window-width="1920"
     inkscape:window-height="1027"
     inkscape:window-x="1912"
     inkscape:window-y="-8"
     inkscape:window-maximized="1" />
  <metadata
     id="metadata5">
    <rdf:RDF>
      <cc:Work
         rdf:about="">
        <dc:format>image/svg+xml</dc:format>
        <dc:type
           rdf:resource="http://purl.org/dc/dcmitype/StillImage" />
        <dc:title></dc:title>
      </cc:Work>
    </rdf:RDF>
  </metadata>
  <g
     inkscape:label="Layer 1"
     inkscape:groupmode="layer"
     id="layer1"
     transform="translate(0,-288.00415)">
    <g
       id="g831"
       transform="matrix(0.26458333,0,0,0.26458333,73.554167,148.15298)">
      <path
         id="path819"
         d="m -272.73645,539.80952 c 0,3.14941 2.42761,5.71215 5.41096,5.71215 2.98333,0 5.41094,-2.56274 5.41094,-5.71215 0,-3.14939 -2.42761,-5.71213 -5.41094,-5.71213 -2.98335,0 -5.41096,2.56274 -5.41096,5.71213 z m 5.41096,-10.83761 c 7.54607,0 12.72303,8.61452 8.74526,16.05573 -3.15883,5.92828 -5.11847,10.34363 -7.10736,15.77784 -0.23399,0.6793 -0.81895,1.23508 -1.6379,1.23508 -0.81896,0 -1.40393,-0.58667 -1.63791,-1.23508 -1.98889,-5.43421 -3.94854,-9.84956 -7.10736,-15.77784 -3.97778,-7.44121 1.19919,-16.05573 8.74527,-16.05573 z"
         inkscape:connector-curvature="0"
         style="fill:#ff6600;stroke-width:0.30051363" />
      <rect
         width="84"
         id="_x3C_Slice_x3E__100_"
         height="148"
         class="st2"
         x="0"
         y="0"
         style="fill:none" />
    </g>
  </g>
  <style
     id="style815"
     type="text/css">
<![CDATA[
	.st0{fill:#EF3E42;}
	.st1{fill:#FFFFFF;}
	.st2{fill:none;}
	.st3{fill-rule:evenodd;clip-rule:evenodd;fill:#FFFFFF;}
]]>
</style>
</svg>
