<svg width="28" height="28" viewBox="0 0 28 28" fill="none" xmlns="http://www.w3.org/2000/svg">
<path d="M20.8613 17.0008V10.4883H22.9715C23.7711 10.4883 24.2923 10.5209 24.5352 10.586C24.9083 10.6837 25.2208 10.897 25.4725 11.2257C25.7242 11.5515 25.8501 11.9735 25.8501 12.4918C25.8501 12.8916 25.7776 13.2277 25.6324 13.5002C25.4873 13.7727 25.3022 13.9874 25.0771 14.1444C24.855 14.2984 24.6285 14.4005 24.3975 14.4509C24.0835 14.5131 23.6289 14.5442 23.0336 14.5442H22.1763V17.0008H20.8613ZM22.1763 11.59V13.438H22.8959C23.4142 13.438 23.7607 13.404 23.9354 13.3358C24.1102 13.2677 24.2464 13.1611 24.3441 13.016C24.4448 12.8709 24.4952 12.7021 24.4952 12.5096C24.4952 12.2726 24.4256 12.0772 24.2864 11.9232C24.1472 11.7692 23.971 11.6729 23.7578 11.6344C23.6008 11.6048 23.2854 11.59 22.8115 11.59H22.1763Z" fill="#979797"/>
<path d="M19.9957 17.0008H18.5652L17.9966 15.5215H15.3934L14.8558 17.0008H13.4609L15.9975 10.4883H17.388L19.9957 17.0008ZM17.5746 14.4242L16.6772 12.0076L15.7976 14.4242H17.5746Z" fill="#979797"/>
<path d="M8.10156 14.5747C8.10156 14.16 8.20374 13.7587 8.40809 13.3708C8.61243 12.9828 8.90119 12.6867 9.27435 12.4823C9.65047 12.278 10.0695 12.1758 10.5315 12.1758C11.2453 12.1758 11.8302 12.4083 12.2863 12.8732C12.7424 13.3352 12.9704 13.9202 12.9704 14.628C12.9704 15.3417 12.7394 15.934 12.2774 16.4049C11.8183 16.8728 11.2394 17.1068 10.5404 17.1068C10.108 17.1068 9.69489 17.0091 9.301 16.8136C8.91007 16.6182 8.61243 16.3324 8.40809 15.9562C8.20374 15.5772 8.10156 15.1166 8.10156 14.5747ZM9.38096 14.6413C9.38096 15.1092 9.49202 15.4676 9.71414 15.7164C9.93626 15.9651 10.2102 16.0895 10.536 16.0895C10.8618 16.0895 11.1342 15.9651 11.3534 15.7164C11.5755 15.4676 11.6866 15.1063 11.6866 14.6324C11.6866 14.1704 11.5755 13.815 11.3534 13.5662C11.1342 13.3175 10.8618 13.1931 10.536 13.1931C10.2102 13.1931 9.93626 13.3175 9.71414 13.5662C9.49202 13.815 9.38096 14.1734 9.38096 14.6413Z" fill="#979797"/>
<path d="M5.82959 14.6041L7.10455 15.0084C6.90908 15.7192 6.58331 16.2478 6.12723 16.5943C5.6741 16.9379 5.09808 17.1096 4.39914 17.1096C3.53436 17.1096 2.82358 16.815 2.26681 16.2256C1.71003 15.6333 1.43164 14.8248 1.43164 13.8001C1.43164 12.7161 1.71151 11.875 2.27125 11.2768C2.83099 10.6756 3.56694 10.375 4.47911 10.375C5.27577 10.375 5.92288 10.6104 6.42042 11.0813C6.71658 11.3597 6.9387 11.7595 7.08678 12.2808L5.78516 12.5917C5.70816 12.2541 5.54676 11.9876 5.30095 11.7921C5.0581 11.5967 4.76194 11.4989 4.41247 11.4989C3.92973 11.4989 3.53732 11.6722 3.23524 12.0187C2.93612 12.3652 2.78656 12.9264 2.78656 13.7023C2.78656 14.5257 2.93464 15.112 3.2308 15.4615C3.52696 15.811 3.91196 15.9857 4.38582 15.9857C4.73528 15.9857 5.03588 15.8747 5.28762 15.6525C5.53935 15.4304 5.72001 15.081 5.82959 14.6041Z" fill="#979797"/>
</svg>
