<svg width="28" height="28" viewBox="0 0 28 28" fill="none" xmlns="http://www.w3.org/2000/svg">
<path d="M26.4925 10.5312L24.0492 17.5546H23.1562L25.5996 10.5312H26.4925Z" fill="#979797"/>
<path d="M23.9124 10.5312L21.4691 17.5546H20.5762L23.0195 10.5312H23.9124Z" fill="#979797"/>
<path d="M18.5176 16.4283C18.5176 16.2506 18.5783 16.101 18.6997 15.9796C18.8211 15.8582 18.9855 15.7975 19.1928 15.7975C19.4001 15.7975 19.5645 15.8582 19.6859 15.9796C19.8073 16.101 19.8681 16.2506 19.8681 16.4283C19.8681 16.603 19.8073 16.7511 19.6859 16.8725C19.5645 16.991 19.4001 17.0502 19.1928 17.0502C18.9855 17.0502 18.8211 16.991 18.6997 16.8725C18.5783 16.7511 18.5176 16.603 18.5176 16.4283ZM18.522 12.7011C18.522 12.5234 18.5827 12.3739 18.7042 12.2524C18.8256 12.131 18.99 12.0703 19.1973 12.0703C19.4046 12.0703 19.5689 12.131 19.6904 12.2524C19.8118 12.3739 19.8725 12.5234 19.8725 12.7011C19.8725 12.8759 19.8118 13.0239 19.6904 13.1454C19.5689 13.2638 19.4046 13.3231 19.1973 13.3231C18.99 13.3231 18.8256 13.2638 18.7042 13.1454C18.5827 13.0239 18.522 12.8759 18.522 12.7011Z" fill="#979797"/>
<path d="M14.3843 13.1183V18.849H13.207V12.1943H14.2954L14.3843 13.1183ZM17.4717 14.5488V14.6421C17.4717 14.9915 17.4302 15.3158 17.3473 15.6149C17.2674 15.9111 17.1489 16.1702 16.9919 16.3924C16.835 16.6115 16.6395 16.7833 16.4055 16.9077C16.1745 17.0291 15.908 17.0898 15.6059 17.0898C15.3098 17.0898 15.0521 17.0335 14.8329 16.921C14.6138 16.8055 14.4287 16.6426 14.2776 16.4323C14.1266 16.2221 14.0052 15.9777 13.9134 15.6993C13.8245 15.418 13.7579 15.1115 13.7135 14.7798V14.4821C13.7579 14.1297 13.8245 13.8099 13.9134 13.5226C14.0052 13.2324 14.1266 12.9821 14.2776 12.7718C14.4287 12.5586 14.6123 12.3942 14.8285 12.2787C15.0477 12.1632 15.3038 12.1055 15.597 12.1055C15.9021 12.1055 16.1701 12.1632 16.4011 12.2787C16.6351 12.3942 16.832 12.5601 16.9919 12.7763C17.1519 12.9925 17.2718 13.2501 17.3518 13.5492C17.4317 13.8484 17.4717 14.1815 17.4717 14.5488ZM16.2945 14.6421V14.5488C16.2945 14.3355 16.2752 14.1386 16.2367 13.9579C16.1982 13.7743 16.139 13.6144 16.059 13.4782C15.9791 13.339 15.8754 13.2309 15.7481 13.1539C15.6207 13.0769 15.4667 13.0384 15.2861 13.0384C15.1054 13.0384 14.9499 13.068 14.8196 13.1272C14.6893 13.1864 14.5827 13.2709 14.4998 13.3804C14.4168 13.49 14.3517 13.6203 14.3043 13.7714C14.2599 13.9194 14.2303 14.0838 14.2154 14.2645V15.0019C14.2421 15.2211 14.2939 15.418 14.3709 15.5927C14.4479 15.7675 14.5605 15.9067 14.7086 16.0103C14.8596 16.114 15.0551 16.1658 15.2949 16.1658C15.4756 16.1658 15.6296 16.1258 15.757 16.0459C15.8843 15.9659 15.988 15.8563 16.0679 15.7171C16.1479 15.575 16.2056 15.4121 16.2412 15.2285C16.2767 15.0448 16.2945 14.8494 16.2945 14.6421Z" fill="#979797"/>
<path d="M12.266 12.1934V13.0374H9.51172V12.1934H12.266ZM10.2492 11.0117H11.4264V15.614C11.4264 15.7562 11.4456 15.8657 11.4841 15.9427C11.5226 16.0198 11.5804 16.0716 11.6574 16.0982C11.7344 16.1249 11.8262 16.1382 11.9328 16.1382C12.0098 16.1382 12.0809 16.1338 12.146 16.1249C12.2112 16.116 12.266 16.1071 12.3104 16.0982L12.3149 16.9778C12.2171 17.0104 12.1061 17.0371 11.9817 17.0578C11.8603 17.0785 11.7225 17.0889 11.5685 17.0889C11.305 17.0889 11.074 17.0445 10.8755 16.9556C10.6771 16.8638 10.5231 16.7172 10.4135 16.5158C10.3039 16.3115 10.2492 16.042 10.2492 15.7073V11.0117Z" fill="#979797"/>
<path d="M9.04724 12.1934V13.0374H6.29297V12.1934H9.04724ZM7.0304 11.0117H8.20763V15.614C8.20763 15.7562 8.22688 15.8657 8.26538 15.9427C8.30388 16.0198 8.36163 16.0716 8.43863 16.0982C8.51563 16.1249 8.60744 16.1382 8.71406 16.1382C8.79106 16.1382 8.86214 16.1338 8.92729 16.1249C8.99245 16.116 9.04724 16.1071 9.09166 16.0982L9.0961 16.9778C8.99837 17.0104 8.88731 17.0371 8.76293 17.0578C8.6415 17.0785 8.50379 17.0889 8.34979 17.0889C8.08621 17.0889 7.8552 17.0445 7.65678 16.9556C7.45835 16.8638 7.30435 16.7172 7.19477 16.5158C7.08519 16.3115 7.0304 16.042 7.0304 15.7073V11.0117Z" fill="#979797"/>
<path d="M2.67918 10.1758V16.9993H1.50195V10.1758H2.67918ZM2.4926 14.4227H2.1461C2.1461 14.088 2.19052 13.78 2.27937 13.4987C2.36822 13.2173 2.49408 12.973 2.65697 12.7657C2.81986 12.5554 3.01384 12.3925 3.23892 12.277C3.46696 12.1615 3.7187 12.1038 3.99412 12.1038C4.23105 12.1038 4.44576 12.1378 4.63827 12.2059C4.83373 12.2711 5.00106 12.3762 5.14025 12.5214C5.27945 12.6665 5.38607 12.856 5.4601 13.09C5.53711 13.321 5.57561 13.6023 5.57561 13.934V16.9993H4.39394V13.9251C4.39394 13.703 4.36136 13.5283 4.2962 13.4009C4.23105 13.2706 4.13776 13.1773 4.01633 13.1211C3.89787 13.0648 3.75127 13.0367 3.57654 13.0367C3.387 13.0367 3.22411 13.0737 3.08788 13.1477C2.95165 13.2188 2.83911 13.318 2.75026 13.4454C2.66437 13.5727 2.59922 13.7193 2.5548 13.8852C2.51333 14.051 2.4926 14.2302 2.4926 14.4227Z" fill="#979797"/>
</svg>
