<svg width="28" height="28" viewBox="0 0 28 28" fill="none" xmlns="http://www.w3.org/2000/svg">
<g clip-path="url(#clip0_18618_178389)">
<path d="M22.6934 16.518V11.0234H24.3537L25.3507 14.7714L26.3364 11.0234H28.0005V16.518H26.9698V12.1928L25.8792 16.518H24.811L23.7241 12.1928V16.518H22.6934Z" fill="#979797"/>
<path d="M21.6215 15.5388V16.5171H17.9297C17.9697 16.1473 18.0896 15.7974 18.2895 15.4676C18.4894 15.1353 18.8842 14.6955 19.4739 14.1483C19.9486 13.7061 20.2397 13.4062 20.3471 13.2488C20.4921 13.0314 20.5645 12.8165 20.5645 12.6041C20.5645 12.3693 20.5008 12.1894 20.3734 12.0644C20.2485 11.937 20.0748 11.8733 19.8524 11.8733C19.6325 11.8733 19.4576 11.9395 19.3277 12.0719C19.1978 12.2044 19.1228 12.4242 19.1028 12.7316L18.0534 12.6266C18.1158 12.0469 18.312 11.6309 18.6418 11.3785C18.9716 11.1262 19.3839 11 19.8786 11C20.4209 11 20.8469 11.1462 21.1567 11.4385C21.4666 11.7309 21.6215 12.0944 21.6215 12.5292C21.6215 12.7766 21.5765 13.0127 21.4865 13.2376C21.3991 13.4599 21.2592 13.6936 21.0668 13.9384C20.9393 14.1008 20.7095 14.3345 20.3771 14.6393C20.0448 14.9441 19.8337 15.1465 19.7437 15.2465C19.6563 15.3464 19.5851 15.4439 19.5301 15.5388H21.6215Z" fill="#979797"/>
<path d="M11.75 16.518V11.0234H13.4104L14.4073 14.7714L15.3931 11.0234H17.0572V16.518H16.0265V12.1928L14.9358 16.518H13.8676L12.7807 12.1928V16.518H11.75Z" fill="#979797"/>
<path d="M5.15946 16.518L3.84766 11.0234H4.9833L5.81161 14.7977L6.81608 11.0234H8.13537L9.09861 14.8614L9.94191 11.0234H11.0588L9.72453 16.518H8.54765L7.45324 12.4102L6.36257 16.518H5.15946Z" fill="#979797"/>
<path d="M0 16.516V11.0664H1.10941V15.5902H3.86794V16.516H0Z" fill="#979797"/>
</g>
<defs>
<clipPath id="clip0_18618_178389">
<rect width="28.0001" height="28.0001" fill="white"/>
</clipPath>
</defs>
</svg>
