<svg width="28" height="28" viewBox="0 0 28 28" fill="none" xmlns="http://www.w3.org/2000/svg">
<g clip-path="url(#clip0_18614_176944)">
<path d="M5.5 -1C18.4787 -1 29 9.52131 29 22.5C29 35.4787 18.4787 46 5.5 46C-7.47869 46 -18 35.4787 -18 22.5C-18 9.52131 -7.47869 -1 5.5 -1ZM5.42871 2.25391C-5.79229 2.25391 -14.8886 11.3503 -14.8887 22.5713C-14.8887 33.7923 -5.79231 42.8887 5.42871 42.8887C16.6496 42.8886 25.7461 33.7922 25.7461 22.5713C25.7461 11.3504 16.6496 2.25402 5.42871 2.25391ZM5.42871 4.79395C15.2469 4.79402 23.2068 12.7531 23.207 22.5713C23.2069 32.3895 15.2469 40.3495 5.42871 40.3496C-4.38939 40.3494 -12.3485 32.3894 -12.3486 22.5713C-12.3484 12.7532 -4.38934 4.79418 5.42871 4.79395ZM5.42871 7.33398C-2.98694 7.33398 -9.80939 14.1557 -9.80957 22.5713C-9.80942 30.9869 -2.98696 37.8096 5.42871 37.8096C13.8442 37.8093 20.6659 30.9868 20.666 22.5713C20.6658 14.1558 13.8442 7.33424 5.42871 7.33398ZM5.42773 9.87305C12.4408 9.87305 18.1259 15.5582 18.126 22.5713C18.1259 29.5844 12.4408 35.2695 5.42773 35.2695C-1.58509 35.2692 -7.27043 29.5842 -7.27051 22.5713C-7.27041 15.5584 -1.58508 9.87337 5.42773 9.87305ZM5.42871 12.4131C-0.181484 12.4133 -4.73027 16.9611 -4.73047 22.5713C-4.73039 28.1816 -0.181561 32.7302 5.42871 32.7305C11.039 32.7303 15.5868 28.1816 15.5869 22.5713C15.5867 16.9611 11.0389 12.4133 5.42871 12.4131ZM5.42871 14.9521C9.63653 14.9521 13.0478 18.3635 13.0479 22.5713C13.0479 26.7792 9.63659 30.1904 5.42871 30.1904C1.22085 30.1904 -2.19043 26.7792 -2.19043 22.5713C-2.19033 18.3635 1.22091 14.9522 5.42871 14.9521Z" fill="#979797"/>
</g>
<defs>
<clipPath id="clip0_18614_176944">
<rect x="6" y="6" width="16" height="16" rx="2" fill="white"/>
</clipPath>
</defs>
</svg>
