<svg width="28" height="28" viewBox="0 0 28 28" fill="none" xmlns="http://www.w3.org/2000/svg">
<path d="M1.44007 14.881L2.71947 14.7566C2.79647 15.186 2.95195 15.5014 3.18592 15.7028C3.42284 15.9042 3.74121 16.0049 4.14103 16.0049C4.56453 16.0049 4.8829 15.9161 5.09614 15.7384C5.31233 15.5577 5.42043 15.3474 5.42043 15.1076C5.42043 14.9535 5.37452 14.8232 5.28272 14.7166C5.19387 14.607 5.0369 14.5123 4.81182 14.4323C4.65782 14.379 4.30688 14.2842 3.75898 14.148C3.05413 13.9733 2.55954 13.7586 2.27523 13.5039C1.87542 13.1455 1.67551 12.7087 1.67551 12.1934C1.67551 11.8617 1.7688 11.5522 1.95538 11.2649C2.14492 10.9747 2.41591 10.754 2.76833 10.603C3.12372 10.4519 3.55167 10.3764 4.05218 10.3764C4.86958 10.3764 5.4841 10.5556 5.89576 10.914C6.31038 11.2723 6.52806 11.7506 6.54879 12.3488L5.23385 12.4066C5.17758 12.0719 5.05616 11.832 4.86958 11.6869C4.68596 11.5388 4.40905 11.4648 4.03885 11.4648C3.65681 11.4648 3.35769 11.5433 3.14149 11.7003C3.0023 11.8009 2.9327 11.9357 2.9327 12.1045C2.9327 12.2585 2.99786 12.3903 3.12817 12.4999C3.29401 12.6391 3.69679 12.7842 4.33649 12.9352C4.97619 13.0863 5.44856 13.2432 5.75361 13.4061C6.06161 13.566 6.3015 13.7867 6.47327 14.068C6.648 14.3464 6.73537 14.6914 6.73537 15.1031C6.73537 15.4763 6.63172 15.8257 6.42441 16.1515C6.21709 16.4773 5.9239 16.7201 5.54482 16.8801C5.16573 17.037 4.69336 17.1155 4.1277 17.1155C3.30438 17.1155 2.67208 16.926 2.23081 16.5469C1.78953 16.1648 1.52595 15.6095 1.44007 14.881ZM8.01731 17V10.4875H9.29672L11.9621 14.8366V10.4875H13.1838V17H11.8644L9.23896 12.7531V17H8.01731ZM14.7234 17V10.4875H16.6914L17.873 14.9299L19.0414 10.4875H21.0138V17H19.7921V11.8735L18.4994 17H17.2333L15.945 11.8735V17H14.7234ZM22.4823 17V10.4875H24.5924C25.3921 10.4875 25.9133 10.5201 26.1561 10.5852C26.5293 10.6829 26.8418 10.8962 27.0935 11.2249C27.3452 11.5507 27.4711 11.9727 27.4711 12.491C27.4711 12.8908 27.3985 13.2269 27.2534 13.4994C27.1083 13.7719 26.9232 13.9866 26.6981 14.1436C26.476 14.2976 26.2494 14.3997 26.0184 14.4501C25.7045 14.5123 25.2499 14.5434 24.6546 14.5434H23.7972V17H22.4823ZM23.7972 11.5892V13.4372H24.5169C25.0352 13.4372 25.3817 13.4032 25.5564 13.335C25.7312 13.2669 25.8674 13.1603 25.9651 13.0152C26.0658 12.8701 26.1162 12.7013 26.1162 12.5088C26.1162 12.2718 26.0466 12.0764 25.9074 11.9224C25.7682 11.7684 25.592 11.6721 25.3787 11.6336C25.2218 11.604 24.9064 11.5892 24.4325 11.5892H23.7972Z" fill="#979797"/>
</svg>
