<svg xmlns="http://www.w3.org/2000/svg" width="34" height="34" viewBox="0 0 34 34" class="marker-color" fill="#307FE5">
  <circle cx="17" cy="13" r="13" fill="white"/>
  <g class="marker-icon-container" transform="translate(17,13)">
  </g>
  <path fill-rule="evenodd" clip-rule="evenodd" d="M 30,12.9625 C 30,6.39011 25.6157,0 17,0 8.38434,0 4,6.39011 4,12.9625 4,23 17,31 17,31 17,31 30,23 30,12.9625 Z M 26,13 c 0,4.9706 -4.0294,9 -9,9 -4.9706,0 -9,-4.0294 -9,-9 0,-4.97056 4.0294,-9 9,-9 4.9706,0 9,4.02944 9,9 z" />
  <path fill-rule="evenodd" clip-rule="evenodd" d="M 25.9405,4.72663 C 23.9805,2.54472 21.024,1.0625 17,1.0625 12.976,1.0625 10.0195,2.54472 8.05955,4.72663 6.08332,6.92661 5.0625,9.90415 5.0625,12.9625 c 0,4.5792 2.98827,8.8264 6.1893,12.0321 1.5789,1.5811 3.1617,2.8611 4.3512,3.7461 0.575,0.4279 1.0559,0.7618 1.397,0.9912 0.3411,-0.2294 0.822,-0.5633 1.397,-0.9912 1.1895,-0.885 2.7723,-2.165 4.3512,-3.7461 3.201,-3.2057 6.1893,-7.4529 6.1893,-12.0321 0,-3.05835 -1.0208,-6.03589 -2.997,-8.23587 z M 17,31 C 17,31 4,23 4,12.9625 4,6.39011 8.38434,0 17,0 25.6157,0 30,6.39011 30,12.9625 30,23 17,31 17,31 Z M 27.0625,13 C 27.0625,18.5574 22.5574,23.0625 17,23.0625 11.4426,23.0625 6.9375,18.5574 6.9375,13 6.9375,7.44263 11.4426,2.9375 17,2.9375 22.5574,2.9375 27.0625,7.44263 27.0625,13 Z M 17,22 c 4.9706,0 9,-4.0294 9,-9 0,-4.97056 -4.0294,-9 -9,-9 -4.9706,0 -9,4.02944 -9,9 0,4.9706 4.0294,9 9,9 z" style="filter:url(#stroke-filter)" />
  <path d="m 22.8354,28.0406 c 1.4074,0.4506 2.4115,1.0531 2.8759,1.7258 0.4644,0.6727 0.3667,1.3828 -0.28,2.0338 -0.6467,0.651 -1.811,1.2114 -3.3345,1.605 -1.5236,0.3935 -3.3325,0.6011 -5.181,0.5947 C 15.0674,33.9934 13.2691,33.773 11.7654,33.3688 10.2617,32.9646 9.12552,32.3962 8.51132,31.7407 7.89712,31.0852 7.83469,30.3746 8.3325,29.7053 8.83031,29.036 9.86422,28.4406 11.2937,28 L 12.5,29 c -0.5,0 -1.4662,0.4623 -1.8298,0.9511 -0.3635,0.4887 -0.3179,1.0077 0.1306,1.4864 0.4486,0.4787 1.2783,0.8938 2.3764,1.189 1.0982,0.2952 2.4114,0.4561 3.7613,0.4608 1.3499,0.0048 2.671,-0.1469 3.7836,-0.4343 1.1126,-0.2874 1.9629,-0.6966 2.4352,-1.1721 0.4722,-0.4754 0.5436,-0.994 0.2045,-1.4852 C 23.0226,29.5044 22,29 21.5,29 Z" style="filter:url(#stroke-filter)" />
  <defs>
    <filter
      id="stroke-filter"
      style="color-interpolation-filters:sRGB"
      x="0" y="0" width="1" height="1">
        <feColorMatrix values="0.6 0 0 0 0 0 0.6 0 0 0 0 0 0.6 0 0 0 0 0 1 0" />
    </filter>
  </defs>
</svg>
