<svg xmlns="http://www.w3.org/2000/svg" width="34" height="34" viewBox="0 0 34 34" class="marker-color" fill="#307FE5">
  <path d="m17 0a17 17 0 0 0-17 17 17 17 0 0 0 17 17 17 17 0 0 0 17-17 17 17 0 0 0-17-17zm0 3a14 14 0 0 1 14 14 14 14 0 0 1-14 14 14 14 0 0 1-14-14 14 14 0 0 1 14-14z" />
  <circle cx="17" cy="17" r="14" mask="url(#icon-mask)" fill="#fff"/>
  <circle cx="17" cy="17" r="14" mask="url(#icon-mask-2)"/>
  <mask id="icon-mask" class="icon-mask-exclude">
    <g class="marker-icon-container" transform="translate(17,17)">
      <rect width="100%" height="100%" fill="#fff" transform="translate(-17,-17)"></rect>
    </g>
  </mask>
  <mask id="icon-mask-2" class="icon-mask-overlay">
    <g class="marker-icon-container" transform="translate(17,17)">
      <rect width="100%" height="100%" fill="#000" transform="translate(-17,-17)"></rect>
    </g>
  </mask>
</svg>
