<svg xmlns="http://www.w3.org/2000/svg" width="34" height="34" viewBox="0 0 34 34" class="marker-color" fill="#307FE5">
  <g filter="url(#shadow-filter)">
    <path class="marker-opacity" d="M19 24.5C17.4075 27.4125 17 33 17 33C17 33 27.0858 32.1955 30.9992 27.4998C34 23.8992 31.9992 19 27.9992 19C23.9993 19 21.1929 20.4894 19 24.5Z" fill="black" fill-opacity="0.24"/>
  </g>
  <path fill-rule="evenodd" clip-rule="evenodd" d="M30 12.9625C30 6.39011 25.6157 0 17 0C8.38434 0 4 6.39011 4 12.9625C4 20.1875 17 34 17 34C17 34 30 20.1875 30 12.9625ZM24 13C24 16.866 20.866 20 17 20C13.134 20 10 16.866 10 13C10 9.13401 13.134 6 17 6C20.866 6 24 9.13401 24 13Z" />
  <path fill-rule="evenodd" clip-rule="evenodd" d="M 25.9404,4.72663 C 23.9804,2.54472 21.024,1.0625 17,1.0625 12.976,1.0625 10.0195,2.54472 8.05955,4.72663 6.08332,6.92661 5.0625,9.90415 5.0625,12.9625 c 0,1.5374 0.70869,3.5644 1.90856,5.8395 1.18295,2.2431 2.77245,4.5978 4.38054,6.7533 1.6052,2.1516 3.2128,4.0832 4.4204,5.4782 0.4826,0.5574 0.9006,1.0283 1.228,1.3922 0.3274,-0.3639 0.7454,-0.8348 1.2279,-1.3922 1.2076,-1.395 2.8153,-3.3266 4.4205,-5.4782 1.6081,-2.1555 3.1976,-4.5102 4.3805,-6.7533 1.1999,-2.2751 1.9086,-4.3021 1.9086,-5.8395 0,-3.05835 -1.0208,-6.03589 -2.9971,-8.23587 z M 17.7198,33.2141 C 20.4483,30.1888 30,19.1556 30,12.9625 30,6.39011 25.6157,0 17,0 8.38434,0 4,6.39011 4,12.9625 4,19.1556 13.5517,30.1888 16.2802,33.2141 16.7348,33.7182 17,34 17,34 c 0,0 0.2652,-0.2818 0.7198,-0.7859 z M 25.0625,13 c 0,4.4528 -3.6097,8.0625 -8.0625,8.0625 -4.4528,0 -8.0625,-3.6097 -8.0625,-8.0625 0,-4.4528 3.6097,-8.0625 8.0625,-8.0625 4.4528,0 8.0625,3.6097 8.0625,8.0625 z M 17,20 c 3.866,0 7,-3.134 7,-7 0,-3.86599 -3.134,-7 -7,-7 -3.866,0 -7,3.13401 -7,7 0,3.866 3.134,7 7,7 z" style="filter:url(#stroke-filter)" />
  <path d="M17 19C20.3137 19 23 16.3137 23 13C23 9.68629 20.3137 7 17 7C13.6863 7 11 9.68629 11 13C11 16.3137 13.6863 19 17 19Z" />
  <path fill-rule="evenodd" clip-rule="evenodd" d="m 17,18 c 2.7614,0 5,-2.2386 5,-5 0,-2.7614 -2.2386,-5 -5,-5 -2.7614,0 -5,2.2386 -5,5 0,2.7614 2.2386,5 5,5 z m 6,-5 c 0,3.3137 -2.6863,6 -6,6 -3.3137,0 -6,-2.6863 -6,-6 0,-3.31371 2.6863,-6 6,-6 3.3137,0 6,2.68629 6,6 z" style="filter:url(#stroke-filter)" />
  <defs>
    <filter id="shadow-filter" x="12.75" y="14.75" width="23.9434" height="22.5" filterUnits="userSpaceOnUse" color-interpolation-filters="sRGB">
      <feFlood flood-opacity="0" result="BackgroundImageFix"/>
      <feGaussianBlur in="BackgroundImageFix" stdDeviation="2.125"/>
      <feComposite in2="SourceAlpha" operator="in" result="effect1_backgroundBlur_8817_262071"/>
      <feBlend mode="normal" in="SourceGraphic" in2="effect1_backgroundBlur_8817_262071" result="shape"/>
      <feGaussianBlur stdDeviation="0.5" result="effect2_foregroundBlur_8817_262071"/>
    </filter>
    <filter
      id="stroke-filter"
      style="color-interpolation-filters:sRGB"
      x="0" y="0" width="1" height="1">
      <feColorMatrix values="0.6 0 0 0 0 0 0.6 0 0 0 0 0 0.6 0 0 0 0 0 1 0" />
    </filter>
  </defs>
</svg>
