<svg xmlns="http://www.w3.org/2000/svg" width="34" height="34" viewBox="0 0 34 34" fill="none">
  <g filter="url(#filter0_bf_8816_263884)">
    <path d="M19 24.5C17.4075 27.4125 17 33 17 33C17 33 27.0858 32.1955 30.9992 27.4998C34 23.8992 31.9992 19 27.9992 19C23.9993 19 21.1929 20.4894 19 24.5Z" fill="black" fill-opacity="0.24"/>
  </g>
  <mask id="path-2-inside-1_8816_263884" fill="white">
    <path fill-rule="evenodd" clip-rule="evenodd" d="M30 12.9625C30 6.39011 25.6157 0 17 0C8.38434 0 4 6.39011 4 12.9625C4 20.1875 17 34 17 34C17 34 30 20.1875 30 12.9625ZM21.25 12.75C21.25 15.0972 19.3472 17 17 17C14.6528 17 12.75 15.0972 12.75 12.75C12.75 10.4028 14.6528 8.5 17 8.5C19.3472 8.5 21.25 10.4028 21.25 12.75Z"/>
  </mask>
  <path class="marker-color" fill-rule="evenodd" clip-rule="evenodd" d="M30 12.9625C30 6.39011 25.6157 0 17 0C8.38434 0 4 6.39011 4 12.9625C4 20.1875 17 34 17 34C17 34 30 20.1875 30 12.9625ZM21.25 12.75C21.25 15.0972 19.3472 17 17 17C14.6528 17 12.75 15.0972 12.75 12.75C12.75 10.4028 14.6528 8.5 17 8.5C19.3472 8.5 21.25 10.4028 21.25 12.75Z" fill="#307FE5"/>
  <path d="M17 34L16.2263 34.7282L17 35.5503L17.7737 34.7282L17 34ZM17 1.0625C21.024 1.0625 23.9804 2.54472 25.9404 4.72663C27.9167 6.92661 28.9375 9.90415 28.9375 12.9625H31.0625C31.0625 9.44846 29.8911 5.94475 27.5213 3.30657C25.1352 0.650333 21.5917 -1.0625 17 -1.0625V1.0625ZM5.0625 12.9625C5.0625 9.90415 6.08332 6.92661 8.05955 4.72663C10.0195 2.54472 12.976 1.0625 17 1.0625V-1.0625C12.4083 -1.0625 8.86479 0.650333 6.47871 3.30657C4.10885 5.94475 2.9375 9.44846 2.9375 12.9625H5.0625ZM17 34C17.7737 33.2718 17.7738 33.2718 17.7737 33.2718C17.7737 33.2718 17.7736 33.2717 17.7735 33.2716C17.7732 33.2713 17.7728 33.2708 17.7721 33.2701C17.7708 33.2687 17.7687 33.2664 17.7658 33.2634C17.76 33.2572 17.7512 33.2478 17.7395 33.2352C17.7159 33.21 17.6805 33.1719 17.634 33.1216C17.5409 33.021 17.4036 32.8717 17.2283 32.6784C16.8776 32.292 16.3754 31.7304 15.772 31.0335C14.5644 29.6385 12.9568 27.7069 11.3516 25.5553C9.74351 23.3998 8.15401 21.0451 6.97106 18.802C5.77119 16.5269 5.0625 14.4999 5.0625 12.9625H2.9375C2.9375 15.0376 3.85381 17.4466 5.09144 19.7933C6.34599 22.1721 8.00649 24.6252 9.64839 26.826C11.2932 29.0306 12.9355 31.0036 14.1654 32.4243C14.7809 33.1352 15.2942 33.7092 15.6545 34.1063C15.8347 34.3049 15.9766 34.4593 16.074 34.5646C16.1227 34.6173 16.1603 34.6576 16.1859 34.6851C16.1988 34.6988 16.2086 34.7094 16.2154 34.7166C16.2187 34.7202 16.2213 34.7229 16.2232 34.7249C16.2241 34.7259 16.2248 34.7266 16.2253 34.7272C16.2256 34.7274 16.2258 34.7277 16.226 34.7278C16.2261 34.7281 16.2263 34.7282 17 34ZM28.9375 12.9625C28.9375 14.4999 28.2288 16.5269 27.0289 18.802C25.846 21.0451 24.2565 23.3998 22.6484 25.5553C21.0432 27.7069 19.4355 29.6385 18.2279 31.0335C17.6246 31.7304 17.1224 32.292 16.7717 32.6784C16.5964 32.8717 16.4591 33.021 16.366 33.1216C16.3195 33.1719 16.2841 33.21 16.2605 33.2352C16.2488 33.2478 16.2399 33.2572 16.2342 33.2634C16.2313 33.2664 16.2292 33.2687 16.2279 33.2701C16.2272 33.2708 16.2268 33.2713 16.2265 33.2716C16.2264 33.2717 16.2263 33.2718 16.2262 33.2718C16.2262 33.2718 16.2263 33.2718 17 34C17.7737 34.7282 17.7739 34.7281 17.774 34.7278C17.7742 34.7277 17.7744 34.7274 17.7747 34.7272C17.7752 34.7266 17.7759 34.7259 17.7768 34.7249C17.7787 34.7229 17.7813 34.7202 17.7846 34.7166C17.7914 34.7094 17.8012 34.6988 17.814 34.6851C17.8397 34.6576 17.8773 34.6173 17.926 34.5646C18.0234 34.4593 18.1653 34.3049 18.3455 34.1063C18.7058 33.7092 19.2191 33.1352 19.8345 32.4243C21.0644 31.0036 22.7068 29.0306 24.3516 26.826C25.9935 24.6252 27.654 22.1721 28.9086 19.7933C30.1462 17.4466 31.0625 15.0376 31.0625 12.9625H28.9375ZM17 18.0625C19.934 18.0625 22.3125 15.684 22.3125 12.75H20.1875C20.1875 14.5104 18.7604 15.9375 17 15.9375V18.0625ZM11.6875 12.75C11.6875 15.684 14.066 18.0625 17 18.0625V15.9375C15.2396 15.9375 13.8125 14.5104 13.8125 12.75H11.6875ZM17 7.4375C14.066 7.4375 11.6875 9.81599 11.6875 12.75H13.8125C13.8125 10.9896 15.2396 9.5625 17 9.5625V7.4375ZM22.3125 12.75C22.3125 9.81599 19.934 7.4375 17 7.4375V9.5625C18.7604 9.5625 20.1875 10.9896 20.1875 12.75H22.3125Z" fill="black" fill-opacity="0.38" mask="url(#path-2-inside-1_8816_263884)"/>
  <defs>
    <filter id="filter0_bf_8816_263884" x="12.75" y="14.75" width="23.9434" height="22.5" filterUnits="userSpaceOnUse" color-interpolation-filters="sRGB">
      <feFlood flood-opacity="0" result="BackgroundImageFix"/>
      <feGaussianBlur in="BackgroundImageFix" stdDeviation="2.125"/>
      <feComposite in2="SourceAlpha" operator="in" result="effect1_backgroundBlur_8816_263884"/>
      <feBlend mode="normal" in="SourceGraphic" in2="effect1_backgroundBlur_8816_263884" result="shape"/>
      <feGaussianBlur stdDeviation="0.5" result="effect2_foregroundBlur_8816_263884"/>
    </filter>
  </defs>
</svg>
