<svg xmlns="http://www.w3.org/2000/svg" width="34" height="34" viewBox="0 0 34 34" fill="none">
  <g filter="url(#filter0_bf_8817_262071)">
    <path d="M19 24.5C17.4075 27.4125 17 33 17 33C17 33 27.0858 32.1955 30.9992 27.4998C34 23.8992 31.9992 19 27.9992 19C23.9993 19 21.1929 20.4894 19 24.5Z" fill="black" fill-opacity="0.24"/>
  </g>
  <mask id="path-2-inside-1_8817_262071" fill="white">
    <path fill-rule="evenodd" clip-rule="evenodd" d="M30 12.9625C30 6.39011 25.6157 0 17 0C8.38434 0 4 6.39011 4 12.9625C4 25 17 34 17 34C17 34 30 25 30 12.9625ZM26 13C26 17.9706 21.9706 22 17 22C12.0294 22 8 17.9706 8 13C8 8.02944 12.0294 4 17 4C21.9706 4 26 8.02944 26 13Z"/>
  </mask>
  <path class="marker-color" fill-rule="evenodd" clip-rule="evenodd" d="M30 12.9625C30 6.39011 25.6157 0 17 0C8.38434 0 4 6.39011 4 12.9625C4 25 17 34 17 34C17 34 30 25 30 12.9625ZM26 13C26 17.9706 21.9706 22 17 22C12.0294 22 8 17.9706 8 13C8 8.02944 12.0294 4 17 4C21.9706 4 26 8.02944 26 13Z" fill="#307FE5"/>
  <path d="M17 34L16.3952 34.8736L17 35.2923L17.6048 34.8736L17 34ZM17 1.0625C21.024 1.0625 23.9805 2.54472 25.9405 4.72663C27.9167 6.92661 28.9375 9.90415 28.9375 12.9625H31.0625C31.0625 9.44846 29.8911 5.94475 27.5213 3.30657C25.1352 0.650333 21.5917 -1.0625 17 -1.0625V1.0625ZM5.0625 12.9625C5.0625 9.90415 6.08332 6.92661 8.05955 4.72663C10.0195 2.54472 12.976 1.0625 17 1.0625V-1.0625C12.4083 -1.0625 8.86479 0.650333 6.47871 3.30657C4.10885 5.94475 2.9375 9.44846 2.9375 12.9625H5.0625ZM17 34C17.6048 33.1264 17.605 33.1266 17.6052 33.1267C17.6052 33.1267 17.6053 33.1268 17.6053 33.1268C17.6052 33.1267 17.605 33.1266 17.6046 33.1263C17.6037 33.1257 17.6021 33.1245 17.5997 33.1229C17.5949 33.1195 17.587 33.114 17.5762 33.1063C17.5546 33.091 17.5211 33.0672 17.4766 33.035C17.3876 32.9706 17.2545 32.8729 17.0835 32.7432C16.7414 32.4838 16.2486 32.0971 15.6553 31.5948C14.4672 30.5889 12.884 29.126 11.3033 27.2999C8.11939 23.6215 5.0625 18.605 5.0625 12.9625H2.9375C2.9375 19.3575 6.38061 24.8597 9.69665 28.6907C11.366 30.6193 13.0328 32.1588 14.2822 33.2166C14.9077 33.7461 15.4305 34.1565 15.7993 34.4363C15.9838 34.5763 16.13 34.6836 16.2314 34.7569C16.2821 34.7936 16.3216 34.8218 16.3492 34.8413C16.363 34.851 16.3738 34.8586 16.3815 34.864C16.3853 34.8667 16.3884 34.8688 16.3907 34.8704C16.3918 34.8712 16.3928 34.8719 16.3935 34.8724C16.3939 34.8727 16.3943 34.873 16.3945 34.8731C16.3949 34.8734 16.3952 34.8736 17 34ZM28.9375 12.9625C28.9375 18.605 25.8806 23.6215 22.6966 27.2999C21.116 29.126 19.5328 30.5889 18.3447 31.5948C17.7514 32.0971 17.2586 32.4838 16.9165 32.7432C16.7455 32.8729 16.6124 32.9706 16.5234 33.035C16.4789 33.0672 16.4454 33.091 16.4238 33.1063C16.413 33.114 16.4051 33.1195 16.4003 33.1229C16.3979 33.1245 16.3963 33.1257 16.3954 33.1263C16.395 33.1266 16.3948 33.1267 16.3947 33.1268C16.3947 33.1268 16.3948 33.1267 16.3948 33.1267C16.395 33.1266 16.3952 33.1264 17 34C17.6048 34.8736 17.6051 34.8734 17.6055 34.8731C17.6057 34.873 17.6061 34.8727 17.6065 34.8724C17.6072 34.8719 17.6082 34.8712 17.6093 34.8704C17.6116 34.8688 17.6147 34.8667 17.6185 34.864C17.6262 34.8586 17.637 34.851 17.6508 34.8413C17.6784 34.8218 17.7179 34.7936 17.7686 34.7569C17.87 34.6836 18.0162 34.5763 18.2007 34.4363C18.5695 34.1565 19.0923 33.7461 19.7178 33.2166C20.9672 32.1588 22.634 30.6193 24.3034 28.6907C27.6194 24.8597 31.0625 19.3575 31.0625 12.9625H28.9375ZM17 23.0625C22.5574 23.0625 27.0625 18.5574 27.0625 13H24.9375C24.9375 17.3838 21.3838 20.9375 17 20.9375V23.0625ZM6.9375 13C6.9375 18.5574 11.4426 23.0625 17 23.0625V20.9375C12.6162 20.9375 9.0625 17.3838 9.0625 13H6.9375ZM17 2.9375C11.4426 2.9375 6.9375 7.44263 6.9375 13H9.0625C9.0625 8.61624 12.6162 5.0625 17 5.0625V2.9375ZM27.0625 13C27.0625 7.44263 22.5574 2.9375 17 2.9375V5.0625C21.3838 5.0625 24.9375 8.61624 24.9375 13H27.0625Z" fill="black" fill-opacity="0.38" mask="url(#path-2-inside-1_8817_262071)"/>
  <circle class="marker-icon-background" style="display: none;" cx="17" cy="13" r="9" fill="#fff"></circle>
  <g class="marker-icon-container" transform="translate(17,13)">
  </g>
  <defs>
    <filter id="filter0_bf_8817_262071" x="12.75" y="14.75" width="23.9434" height="22.5" filterUnits="userSpaceOnUse" color-interpolation-filters="sRGB">
      <feFlood flood-opacity="0" result="BackgroundImageFix"/>
      <feGaussianBlur in="BackgroundImageFix" stdDeviation="2.125"/>
      <feComposite in2="SourceAlpha" operator="in" result="effect1_backgroundBlur_8817_262071"/>
      <feBlend mode="normal" in="SourceGraphic" in2="effect1_backgroundBlur_8817_262071" result="shape"/>
      <feGaussianBlur stdDeviation="0.5" result="effect2_foregroundBlur_8817_262071"/>
    </filter>
  </defs>
</svg>
