<svg xmlns="http://www.w3.org/2000/svg" width="34" height="34" viewBox="0 0 34 34" class="marker-color" fill="#307FE5">
  <g filter="url(#filter0_bf_8816_263887)">
    <path d="M19 24.5C17.4075 27.4125 17 33 17 33C17 33 27.0858 32.1955 30.9992 27.4998C34 23.8992 31.9992 19 27.9992 19C23.9993 19 21.1929 20.4894 19 24.5Z" fill="black" fill-opacity="0.24"/>
  </g>
  <mask id="path-2-inside-1_8816_263887" fill="white">
    <path fill-rule="evenodd" clip-rule="evenodd" d="M28 11.9C28.0037 5.32761 24.2902 0 17 0C9.70983 0 5.9963 5.32761 6 11.9C6.00473 20.2937 17 34 17 34C17 34 27.9953 20.2937 28 11.9ZM21.25 10.625C21.25 12.9722 19.3472 14.875 17 14.875C14.6528 14.875 12.75 12.9722 12.75 10.625C12.75 8.27779 14.6528 6.375 17 6.375C19.3472 6.375 21.25 8.27779 21.25 10.625Z"/>
  </mask>
  <path fill-rule="evenodd" clip-rule="evenodd" d="M28 11.9C28.0037 5.32761 24.2902 0 17 0C9.70983 0 5.9963 5.32761 6 11.9C6.00473 20.2937 17 34 17 34C17 34 27.9953 20.2937 28 11.9ZM21.25 10.625C21.25 12.9722 19.3472 14.875 17 14.875C14.6528 14.875 12.75 12.9722 12.75 10.625C12.75 8.27779 14.6528 6.375 17 6.375C19.3472 6.375 21.25 8.27779 21.25 10.625Z"/>
  <path d="M28 11.9L29.0625 11.9006L28 11.9ZM6 11.9L7.0625 11.8994L6 11.9ZM17 34L16.1712 34.6649L17 35.698L17.8288 34.6649L17 34ZM17 1.0625C20.3641 1.0625 22.8085 2.28006 24.4273 4.17539C26.0652 6.09323 26.9392 8.80331 26.9375 11.8994L29.0625 11.9006C29.0644 8.4243 28.0835 5.18438 26.0431 2.79532C23.9835 0.383742 20.9261 -1.0625 17 -1.0625V1.0625ZM7.0625 11.8994C7.06076 8.80331 7.93477 6.09323 9.57274 4.17539C11.1915 2.28006 13.6359 1.0625 17 1.0625V-1.0625C13.0739 -1.0625 10.0165 0.383741 7.95686 2.79532C5.91645 5.18438 4.93555 8.4243 4.9375 11.9006L7.0625 11.8994ZM17 34C17.8288 33.3351 17.8288 33.3352 17.8288 33.3352C17.8288 33.3352 17.8288 33.3351 17.8287 33.335C17.8285 33.3348 17.8281 33.3343 17.8276 33.3336C17.8265 33.3323 17.8248 33.3301 17.8224 33.3271C17.8176 33.3212 17.8103 33.312 17.8004 33.2995C17.7807 33.2747 17.7509 33.2371 17.7118 33.1874C17.6335 33.0878 17.5178 32.9395 17.37 32.7472C17.0742 32.3624 16.6503 31.8017 16.1409 31.1019C15.1214 29.7014 13.7634 27.7495 12.4071 25.5415C11.049 23.3306 9.70388 20.8813 8.70091 18.4841C7.69109 16.0706 7.06357 13.7921 7.0625 11.8994L4.9375 11.9006C4.9388 14.2048 5.68746 16.7873 6.74058 19.3043C7.80055 21.8378 9.20516 24.3889 10.5964 26.6538C11.9895 28.9216 13.3807 30.9209 14.4229 32.3526C14.9444 33.0689 15.3795 33.6446 15.6851 34.0422C15.8379 34.241 15.9584 34.3954 16.0412 34.5007C16.0826 34.5534 16.1146 34.5938 16.1365 34.6213C16.1474 34.6351 16.1559 34.6456 16.1617 34.6529C16.1646 34.6566 16.1668 34.6594 16.1684 34.6614C16.1692 34.6624 16.1699 34.6632 16.1703 34.6637C16.1706 34.664 16.1708 34.6643 16.1709 34.6645C16.1711 34.6647 16.1712 34.6649 17 34ZM26.9375 11.8994C26.9364 13.7921 26.3089 16.0706 25.2991 18.4841C24.2961 20.8813 22.951 23.3306 21.5929 25.5415C20.2366 27.7495 18.8786 29.7014 17.8591 31.1019C17.3497 31.8017 16.9258 32.3624 16.63 32.7472C16.4822 32.9395 16.3665 33.0878 16.2882 33.1874C16.2491 33.2371 16.2193 33.2747 16.1996 33.2995C16.1897 33.312 16.1824 33.3212 16.1776 33.3271C16.1752 33.3301 16.1735 33.3323 16.1724 33.3336C16.1719 33.3343 16.1715 33.3348 16.1713 33.335C16.1712 33.3351 16.1712 33.3352 16.1712 33.3352C16.1712 33.3352 16.1712 33.3351 17 34C17.8288 34.6649 17.8289 34.6647 17.8291 34.6645C17.8292 34.6643 17.8294 34.664 17.8297 34.6637C17.8301 34.6632 17.8308 34.6624 17.8316 34.6614C17.8332 34.6594 17.8354 34.6566 17.8383 34.6529C17.8441 34.6456 17.8526 34.6351 17.8635 34.6213C17.8854 34.5938 17.9174 34.5534 17.9588 34.5007C18.0416 34.3954 18.1621 34.241 18.3149 34.0422C18.6205 33.6446 19.0556 33.0689 19.5771 32.3526C20.6193 30.9209 22.0105 28.9216 23.4036 26.6538C24.7948 24.3889 26.1995 21.8378 27.2594 19.3043C28.3125 16.7873 29.0612 14.2048 29.0625 11.9006L26.9375 11.8994ZM17 15.9375C19.934 15.9375 22.3125 13.559 22.3125 10.625H20.1875C20.1875 12.3854 18.7604 13.8125 17 13.8125V15.9375ZM11.6875 10.625C11.6875 13.559 14.066 15.9375 17 15.9375V13.8125C15.2396 13.8125 13.8125 12.3854 13.8125 10.625H11.6875ZM17 5.3125C14.066 5.3125 11.6875 7.69099 11.6875 10.625H13.8125C13.8125 8.86459 15.2396 7.4375 17 7.4375V5.3125ZM22.3125 10.625C22.3125 7.69099 19.934 5.3125 17 5.3125V7.4375C18.7604 7.4375 20.1875 8.86459 20.1875 10.625H22.3125Z" fill="black" fill-opacity="0.38" mask="url(#path-2-inside-1_8816_263887)"/>
  <defs>
    <filter id="filter0_bf_8816_263887" x="12.75" y="14.75" width="23.9434" height="22.5" filterUnits="userSpaceOnUse" color-interpolation-filters="sRGB">
      <feFlood flood-opacity="0" result="BackgroundImageFix"/>
      <feGaussianBlur in="BackgroundImageFix" stdDeviation="2.125"/>
      <feComposite in2="SourceAlpha" operator="in" result="effect1_backgroundBlur_8816_263887"/>
      <feBlend mode="normal" in="SourceGraphic" in2="effect1_backgroundBlur_8816_263887" result="shape"/>
      <feGaussianBlur stdDeviation="0.5" result="effect2_foregroundBlur_8816_263887"/>
    </filter>
  </defs>
</svg>
