<svg xmlns="http://www.w3.org/2000/svg" width="34" height="34" viewBox="0 0 34 34" class="marker-color" fill="#307FE5">
  <g filter="url(#shadow-filter)">
    <path class="marker-opacity" d="M19 24.5C17.4075 27.4125 17 33 17 33C17 33 27.0858 32.1955 30.9992 27.4998C34 23.8992 31.9992 19 27.9992 19C23.9993 19 21.1929 20.4894 19 24.5Z" fill="black" fill-opacity="0.24"/>
  </g>
  <path fill-rule="evenodd" clip-rule="evenodd" d="M30 12.9625C30 6.39011 25.6157 0 17 0C8.38434 0 4 6.39011 4 12.9625C4 20.1875 17 34 17 34C17 34 30 20.1875 30 12.9625ZM21.25 12.75C21.25 15.0972 19.3472 17 17 17C14.6528 17 12.75 15.0972 12.75 12.75C12.75 10.4028 14.6528 8.5 17 8.5C19.3472 8.5 21.25 10.4028 21.25 12.75Z"/>
  <path fill-rule="evenodd" clip-rule="evenodd" d="M 25.9404,4.72663 C 23.9804,2.54472 21.024,1.0625 17,1.0625 12.976,1.0625 10.0195,2.54472 8.05955,4.72663 6.08332,6.92661 5.0625,9.90415 5.0625,12.9625 c 0,1.5374 0.70869,3.5644 1.90856,5.8395 1.18295,2.2431 2.77245,4.5978 4.38054,6.7533 1.6052,2.1516 3.2128,4.0832 4.4204,5.4782 0.4826,0.5574 0.9006,1.0283 1.228,1.3922 0.3274,-0.3639 0.7454,-0.8348 1.2279,-1.3922 1.2076,-1.395 2.8153,-3.3266 4.4205,-5.4782 1.6081,-2.1555 3.1976,-4.5102 4.3805,-6.7533 1.1999,-2.2751 1.9086,-4.3021 1.9086,-5.8395 0,-3.05835 -1.0208,-6.03589 -2.9971,-8.23587 z M 17.7198,33.2141 C 20.4483,30.1888 30,19.1556 30,12.9625 30,6.39011 25.6157,0 17,0 8.38434,0 4,6.39011 4,12.9625 4,19.1556 13.5517,30.1888 16.2802,33.2141 16.7348,33.7182 17,34 17,34 c 0,0 0.2652,-0.2818 0.7198,-0.7859 z M 22.3125,12.75 c 0,2.934 -2.3785,5.3125 -5.3125,5.3125 -2.934,0 -5.3125,-2.3785 -5.3125,-5.3125 0,-2.93401 2.3785,-5.3125 5.3125,-5.3125 2.934,0 5.3125,2.37849 5.3125,5.3125 z M 17,17 c 2.3472,0 4.25,-1.9028 4.25,-4.25 0,-2.3472 -1.9028,-4.25 -4.25,-4.25 -2.3472,0 -4.25,1.9028 -4.25,4.25 0,2.3472 1.9028,4.25 4.25,4.25 z" style="filter:url(#stroke-filter)" />
  <defs>
    <filter id="shadow-filter" x="12.75" y="14.75" width="23.9434" height="22.5" filterUnits="userSpaceOnUse" color-interpolation-filters="sRGB">
      <feFlood flood-opacity="0" result="BackgroundImageFix"/>
      <feGaussianBlur in="BackgroundImageFix" stdDeviation="2.125"/>
      <feComposite in2="SourceAlpha" operator="in" result="effect1_backgroundBlur_8817_262071"/>
      <feBlend mode="normal" in="SourceGraphic" in2="effect1_backgroundBlur_8817_262071" result="shape"/>
      <feGaussianBlur stdDeviation="0.5" result="effect2_foregroundBlur_8817_262071"/>
    </filter>
    <filter
      id="stroke-filter"
      style="color-interpolation-filters:sRGB"
      x="0" y="0" width="1" height="1">
      <feColorMatrix values="0.6 0 0 0 0 0 0.6 0 0 0 0 0 0.6 0 0 0 0 0 1 0" />
    </filter>
  </defs>
</svg>
