<svg xmlns="http://www.w3.org/2000/svg" width="34" height="34" viewBox="0 0 34 34" fill="none">
  <g filter="url(#filter0_bf_8816_263882)">
    <path d="M19 24.5C17.4075 27.4125 17 33 17 33C17 33 27.0858 32.1955 30.9992 27.4998C34 23.8992 31.9992 19 27.9992 19C23.9993 19 21.1929 20.4894 19 24.5Z" fill="black" fill-opacity="0.24"/>
  </g>
  <path class="marker-color" d="M16.8812 33.8865C16.8452 33.7872 16.6641 33.1184 16.4788 32.4005C15.8927 30.1293 14.8789 27.6872 13.5032 25.2321C12.7133 23.8226 12.5705 23.598 10.2629 20.135C6.53418 14.5396 5.8789 12.9684 6.01669 9.95493C6.14303 7.19334 7.10838 5.12431 9.20388 3.12359C10.9433 1.46297 12.8739 0.5051 15.2223 0.13773C21.0423 -0.772682 26.6886 2.92621 27.8326 8.39854C28.0993 9.67434 28.0401 11.87 27.7068 13.0629C27.3412 14.3714 25.8745 17.0188 23.8016 20.1115C20.0603 25.6936 18.6436 28.4817 17.5828 32.3508C17.1722 33.8487 17.0023 34.2205 16.8812 33.8865Z" fill="#307FE5"/>
  <path d="M10.2663 20.1328L10.705 19.8404C13.012 23.3025 13.1655 23.5428 13.9666 24.9724L13.5032 25.2321L13.9666 24.9724C15.3604 27.4598 16.3936 29.9445 16.9932 32.2677C17.0031 32.3062 17.013 32.3445 17.0229 32.3826C17.0383 32.3272 17.0542 32.2698 17.0705 32.2103C18.1532 28.2612 19.6055 25.4179 23.3603 19.8157L23.8016 20.1115L23.3604 19.8157C24.3907 18.2785 25.2672 16.8565 25.9298 15.6607C26.5985 14.4537 27.0302 13.5105 27.1952 12.9199C27.3454 12.3823 27.4411 11.5835 27.4636 10.7475C27.4861 9.91291 27.4344 9.08999 27.3126 8.50725C26.2313 3.33526 20.8692 -0.207891 15.3044 0.662597C13.0643 1.01301 11.2327 1.92108 9.57073 3.50784M10.2663 20.1328L6.54738 9.97919C6.66715 7.36131 7.56888 5.41915 9.57073 3.50784M10.2663 20.1328L10.705 19.8404C8.83761 17.0382 7.77024 15.287 7.18016 13.8723M10.2663 20.1328L7.18016 13.8723M9.57073 3.50784L9.20388 3.12359L9.57073 3.50784ZM7.18016 13.8723C6.60389 12.4906 6.48125 11.4256 6.54738 9.97921L7.18016 13.8723Z" stroke="black" stroke-opacity="0.38" stroke-width="1.0625"/>
  <path d="M20 11C20 12.6568 18.6569 14 17 14C15.3432 14 14 12.6568 14 11C14 9.3431 15.3431 8 17 8C18.6569 8 20 9.3431 20 11Z" fill="black" fill-opacity="0.38"/>
  <defs>
    <filter id="filter0_bf_8816_263882" x="12.75" y="14.75" width="23.9434" height="22.5" filterUnits="userSpaceOnUse" color-interpolation-filters="sRGB">
      <feFlood flood-opacity="0" result="BackgroundImageFix"/>
      <feGaussianBlur in="BackgroundImageFix" stdDeviation="2.125"/>
      <feComposite in2="SourceAlpha" operator="in" result="effect1_backgroundBlur_8816_263882"/>
      <feBlend mode="normal" in="SourceGraphic" in2="effect1_backgroundBlur_8816_263882" result="shape"/>
      <feGaussianBlur stdDeviation="0.5" result="effect2_foregroundBlur_8816_263882"/>
    </filter>
  </defs>
</svg>
