<svg xmlns="http://www.w3.org/2000/svg" width="34" height="34" viewBox="0 0 34 34" class="marker-color" fill="#307FE5">
  <g filter="url(#shadow-filter)">
    <path class="marker-opacity" d="M19 24.5C17.4075 27.4125 17 33 17 33C17 33 27.0858 32.1955 30.9992 27.4998C34 23.8992 31.9992 19 27.9992 19C23.9993 19 21.1929 20.4894 19 24.5Z" fill="black" fill-opacity="0.24"/>
  </g>
  <path fill-rule="evenodd" clip-rule="evenodd" d="M28 11.9C28.0037 5.32761 24.2902 0 17 0C9.70983 0 5.9963 5.32761 6 11.9C6.00473 20.2937 17 34 17 34C17 34 27.9953 20.2937 28 11.9ZM21.25 10.625C21.25 12.9722 19.3472 14.875 17 14.875C14.6528 14.875 12.75 12.9722 12.75 10.625C12.75 8.27779 14.6528 6.375 17 6.375C19.3472 6.375 21.25 8.27779 21.25 10.625Z"/>
  <path fill-rule="evenodd" clip-rule="evenodd" d="M 24.4273,4.17539 C 22.8085,2.28006 20.3641,1.0625 17,1.0625 c -3.3641,0 -5.8085,1.21756 -7.42726,3.11289 -1.63797,1.91784 -2.51198,4.62792 -2.51024,7.72401 0.00107,1.8927 0.62859,4.1712 1.63841,6.5847 1.00297,2.3972 2.34809,4.8465 3.70619,7.0574 1.3563,2.208 2.7143,4.1599 3.7338,5.5604 0.3248,0.4462 0.6149,0.8359 0.8591,1.1594 0.2442,-0.3235 0.5343,-0.7132 0.8591,-1.1594 1.0195,-1.4005 2.3775,-3.3524 3.7338,-5.5604 1.3581,-2.2109 2.7032,-4.6602 3.7062,-7.0574 1.0098,-2.4135 1.6373,-4.692 1.6384,-6.5847 C 26.9392,8.80331 26.0652,6.09323 24.4273,4.17539 Z M 17.6709,33.1352 C 20.0577,29.9988 27.996,19.0318 28,11.9 28.0037,5.32761 24.2902,0 17,0 9.70983,0 5.9963,5.32761 6,11.9 6.00402,19.0318 13.9423,29.9988 16.3291,33.1352 16.7515,33.6902 17,34 17,34 c 0,0 0.2485,-0.3098 0.6709,-0.8648 z M 22.3125,10.625 c 0,2.934 -2.3785,5.3125 -5.3125,5.3125 -2.934,0 -5.3125,-2.3785 -5.3125,-5.3125 0,-2.93401 2.3785,-5.3125 5.3125,-5.3125 2.934,0 5.3125,2.37849 5.3125,5.3125 z M 17,14.875 c 2.3472,0 4.25,-1.9028 4.25,-4.25 0,-2.34721 -1.9028,-4.25 -4.25,-4.25 -2.3472,0 -4.25,1.90279 -4.25,4.25 0,2.3472 1.9028,4.25 4.25,4.25 z" style="filter:url(#stroke-filter)" />
  <defs>
    <filter id="shadow-filter" x="12.75" y="14.75" width="23.9434" height="22.5" filterUnits="userSpaceOnUse" color-interpolation-filters="sRGB">
      <feFlood flood-opacity="0" result="BackgroundImageFix"/>
      <feGaussianBlur in="BackgroundImageFix" stdDeviation="2.125"/>
      <feComposite in2="SourceAlpha" operator="in" result="effect1_backgroundBlur_8817_262071"/>
      <feBlend mode="normal" in="SourceGraphic" in2="effect1_backgroundBlur_8817_262071" result="shape"/>
      <feGaussianBlur stdDeviation="0.5" result="effect2_foregroundBlur_8817_262071"/>
    </filter>
    <filter
      id="stroke-filter"
      style="color-interpolation-filters:sRGB"
      x="0" y="0" width="1" height="1">
      <feColorMatrix values="0.6 0 0 0 0 0 0.6 0 0 0 0 0 0.6 0 0 0 0 0 1 0" />
    </filter>
  </defs>
</svg>
