<svg xmlns="http://www.w3.org/2000/svg" width="34" height="34" viewBox="0 0 34 34" class="marker-color" fill="#307FE5">
  <path d="M 17,0.0858536 C 16.0112,0.279907 15.4367,1.00295 15.2798,1.98651 15.2639,2.09816 15.2533,3.49641 15.2533,5.96593 v 3.8093 L 8.57642,9.78055 1.89691,9.78852 1.67098,9.86295 C 0.793849,10.1554 0.185171,10.8439 0.0363239,11.7078 0.00177019,11.9151 -0.00354577,12.577 0.00177019,17.112 l 0.00797394,5.1704 0.05847557,0.1993 c 0.2604823,0.8932 0.9356103,1.5285 1.8180603,1.7146 0.16214,0.0346 1.05256,0.0399 6.77785,0.0399 h 6.58917 v 3.8066 c 0,2.4722 0.0106,3.8705 0.0265,3.9821 0.1436,0.9065 0.7841,1.6269 1.6932,1.906 C 17.183,33.9947 17.2494,34 17.6056,34 17.6836,34 17.79,33.9947 18,33.9309 18.3641,33.8192 19.2342,33.2339 19.5,33 19.5664,32.9389 24.3845,27.7274 27,25 28.9555,22.9588 33.5,18 34,17.0057 33.5,16 29.7561,11.8752 27,9 25.5992,7.53795 19.1037,0.590381 19,0.5 18.7661,0.297972 18.2694,0.178893 17.9531,0.0858536 17.6581,-0.00186917 17.2897,0.03003 17,0.0858536 Z" />
  <path fill-rule="evenodd" clip-rule="evenodd" d="M 0.00974413,22.2588 0.00177019,17.102 c -0.00531596,-4.523 0,-5.1832 0.03455371,-5.39 C 0.210358,10.7045 1,10.0087 1.89691,9.79777 L 15.2533,9.78452 c 0,-2.5257 0,-5.26136 0.0265,-7.76824 C 15.2905,1.01395 16.0112,0.228478 17,0.0349352 17.6746,-0.0946972 18.6108,0.146463 19.1286,0.592552 22.3114,3.84368 34,15.9927 34,17.102 34,18.1435 23.8254,28.5757 20,32.5015 19.5,33.001 18.759,34 17.5,34 c -1.259,0 -2.2202,-1.2932 -2.2202,-2.0243 -0.0265,-2.5183 -0.0265,-5.2425 -0.0265,-7.7683 -4.2262,0 -9.07008,0 -13.36702,-0.0397 C 1,24.1677 0,22.9745 0.00974413,22.2588 Z M 16.2789,31.8814 c 0.0981,0.467 0.4594,0.8714 1.0131,1.0415 0.708,0.2175 1.3331,-0.4318 1.8148,-0.9262 1.7887,-1.8356 4.9957,-5.1269 7.9052,-8.2189 1.6588,-1.7629 3.212,-3.4516 4.3474,-4.7643 0.5694,-0.6583 1.0215,-1.208 1.3267,-1.6184 0.0857,-0.1153 0.1554,-0.2137 0.2106,-0.2959 -0.0556,-0.0842 -0.1259,-0.185 -0.2126,-0.3033 -0.3043,-0.4154 -0.755,-0.972 -1.3225,-1.6388 C 30.2299,13.8276 28.6807,12.1156 27.0235,10.3275 23.7364,6.78063 20.0561,2.96839 18.4493,1.32633 18.1247,1.072 17.5966,0.937045 17.191,1.01395 16.7497,1.101 16.4027,1.4472 16.279,2.10661 16.2533,4.58546 16.2533,7.28455 16.2533,9.78452 V 10.7809 L 2.02778,10.795 c -0.51455,0.1558 -0.91043,0.557 -1.00424,1.0765 -6.4e-4,0.0073 -0.00469,0.0504 -0.00847,0.1663 -0.00482,0.1479 -0.00851,0.3802 -0.011,0.7572 -0.004948,0.7515 -0.00496,2.0428 -0.0023,4.3055 l 0.00797,5.1567 v 0.0027 c 0,0 0.0079,0.051 0.05941,0.1541 0.05987,0.1197 0.15509,0.2589 0.27701,0.3904 0.12224,0.1318 0.25063,0.2336 0.36376,0.2974 0.05521,0.0312 0.09971,0.0492 0.13189,0.059 0.02872,0.0087 0.04447,0.0095 0.04447,0.0095 H 1.89556 C 6.187,23.2101 11.026,23.2101 15.2533,23.2101 h 1 v 0.9973 c 0,2.4988 0,5.1853 0.0256,7.674 z" style="filter:url(#stroke-filter)" />
  <defs>
    <filter
      id="stroke-filter"
      style="color-interpolation-filters:sRGB"
      x="0" y="0" width="1" height="1">
      <feColorMatrix values="0.6 0 0 0 0 0 0.6 0 0 0 0 0 0.6 0 0 0 0 0 1 0" />
    </filter>
  </defs>
</svg>
