<svg xmlns="http://www.w3.org/2000/svg" width="34" height="34" viewBox="0 0 34 34" class="marker-color" fill="#307FE5">
  <circle cx="17" cy="17" r="17" mask="url(#icon-mask)"/>
  <circle cx="17" cy="17" r="17" mask="url(#icon-mask-2)" fill="#fff"/>
  <path fill-rule="evenodd" clip-rule="evenodd" d="M 17,33 C 25.8366,33 33,25.8366 33,17 33,8.16344 25.8366,1 17,1 8.16344,1 1,8.16344 1,17 1,25.8366 8.16344,33 17,33 Z m 0,1 C 26.3888,34 34,26.3888 34,17 34,7.61116 26.3888,0 17,0 7.61116,0 0,7.61116 0,17 0,26.3888 7.61116,34 17,34 Z" style="filter:url(#stroke-filter)" />
  <mask id="icon-mask" class="icon-mask-exclude">
    <g class="marker-icon-container" transform="translate(17,17)">
      <rect width="100%" height="100%" fill="#fff" transform="translate(-17,-17)"></rect>
      <g transform="translate(-17,-17)">
        <path fill="#000" d="m 16.5942,12.0051 c -0.4157,-0.4527 -0.6417,-1.054 -0.6296,-1.6751 0.0121,-0.62116 0.2613,-1.21277 0.6942,-1.64824 0.433,-0.43547 1.0153,-0.68018 1.6223,-0.68175 0.6071,-0.00158 1.1906,0.24011 1.6257,0.67333 l 6.4281,6.69026 C 26.7612,15.8083 27,16.4065 27,17.0295 c 0,0.623 -0.2388,1.2211 -0.6651,1.6659 l -6.2979,6.5553 c -0.2119,0.2307 -0.4667,0.4159 -0.7495,0.5444 -0.2827,0.1286 -0.5877,0.1981 -0.8971,0.2044 -0.3093,0.0063 -0.6168,-0.0507 -0.9043,-0.1677 -0.2876,-0.117 -0.5494,-0.2916 -0.7701,-0.5136 -0.2206,-0.2219 -0.3958,-0.4868 -0.5151,-0.779 -0.1192,-0.2922 -0.1803,-0.6058 -0.1795,-0.9225 8e-4,-0.3166 0.0634,-0.6299 0.1841,-0.9215 0.1207,-0.2916 0.2972,-0.5555 0.519,-0.7763 L 19.1792,19.3567 9.3034,19.3084 C 8.68734,19.3031 8.09857,19.0476 7.66662,18.598 7.23466,18.1484 6.9949,17.5417 7.00008,16.9112 7.00526,16.2807 7.25496,15.6782 7.69424,15.2361 8.13352,14.794 8.72641,14.5486 9.34246,14.554 l 9.74224,0.0466 z" />
      </g>
    </g>
  </mask>
  <mask id="icon-mask-2" class="icon-mask-overlay">
    <g class="marker-icon-container" transform="translate(17,17)">
      <rect width="100%" height="100%" fill="#000" transform="translate(-17,-17)"></rect>
      <g transform="translate(-17,-17)">
        <path fill="#fff" d="m 16.5942,12.0051 c -0.4157,-0.4527 -0.6417,-1.054 -0.6296,-1.6751 0.0121,-0.62116 0.2613,-1.21277 0.6942,-1.64824 0.433,-0.43547 1.0153,-0.68018 1.6223,-0.68175 0.6071,-0.00158 1.1906,0.24011 1.6257,0.67333 l 6.4281,6.69026 C 26.7612,15.8083 27,16.4065 27,17.0295 c 0,0.623 -0.2388,1.2211 -0.6651,1.6659 l -6.2979,6.5553 c -0.2119,0.2307 -0.4667,0.4159 -0.7495,0.5444 -0.2827,0.1286 -0.5877,0.1981 -0.8971,0.2044 -0.3093,0.0063 -0.6168,-0.0507 -0.9043,-0.1677 -0.2876,-0.117 -0.5494,-0.2916 -0.7701,-0.5136 -0.2206,-0.2219 -0.3958,-0.4868 -0.5151,-0.779 -0.1192,-0.2922 -0.1803,-0.6058 -0.1795,-0.9225 8e-4,-0.3166 0.0634,-0.6299 0.1841,-0.9215 0.1207,-0.2916 0.2972,-0.5555 0.519,-0.7763 L 19.1792,19.3567 9.3034,19.3084 C 8.68734,19.3031 8.09857,19.0476 7.66662,18.598 7.23466,18.1484 6.9949,17.5417 7.00008,16.9112 7.00526,16.2807 7.25496,15.6782 7.69424,15.2361 8.13352,14.794 8.72641,14.5486 9.34246,14.554 l 9.74224,0.0466 z" />
      </g>
    </g>
  </mask>
  <defs>
    <filter
      id="stroke-filter"
      style="color-interpolation-filters:sRGB"
      x="0" y="0" width="1" height="1">
      <feColorMatrix values="0.6 0 0 0 0 0 0.6 0 0 0 0 0 0.6 0 0 0 0 0 1 0" />
    </filter>
  </defs>
</svg>
