<svg xmlns="http://www.w3.org/2000/svg" width="34" height="34" viewBox="0 0 34 34" class="marker-color" fill="#307FE5">
  <path fill-rule="evenodd" clip-rule="evenodd" d="M 3.03511,11.1037 0.975008,11.3 c -0.565732,0.0362 -0.8856091,0.3379 -0.8993192,1.0023 -0.06708141,3.163 -0.06704708,6.3758 0,9.5389 0.0137101,0.6644 0.3335872,0.9661 0.8993192,1.0022 H 3.03511 c 0.68089,0.0434 1.18081,0.0837 1.5144,0.1416 8.32419,1.4476 22.42079,2.4591 29.26439,-5.6302 0.2148,-0.2541 0.2148,-0.5062 0,-0.7604 C 26.9694,8.5051 12.8737,9.51665 4.54951,10.9642 4.21684,11.0221 3.716,11.0624 3.03511,11.1058 Z" fill="#ffffff" />
  <path fill-rule="evenodd" clip-rule="evenodd" d="m 3.03511,11.1042 -2.060102,0.1963 c -0.565732,0.0362 -0.8856091,0.3379 -0.8993192,1.0023 -0.06708141,3.163 -0.06704708,6.3758 0,9.5389 0.0137101,0.6644 0.3335872,0.9661 0.8993192,1.0022 H 3.03511 c 0.68089,0.0434 1.18081,0.0837 1.5144,0.1416 8.32419,1.4476 22.42079,2.4591 29.26439,-5.6302 0.2148,-0.2541 0.2148,-0.5063 0,-0.7604 C 26.9694,8.50559 12.8737,9.51714 4.54951,10.9647 4.21684,11.0226 3.716,11.0629 3.03511,11.1063 Z m 9.89889,0.8709 h 3.6631 c 3.1074,0.0909 4.5615,0.5849 4.5615,4.999 0,4.414 -1.4541,4.9101 -4.5615,5.001 H 12.934 c 0.0073,0.2407 0.4113,0.3007 0.6032,0.3234 0.6407,0.0744 2.6925,0.3316 4.6684,0.1766 3.8834,-0.3048 5.279,-1.3877 5.279,-5.501 0,-4.1134 -1.3956,-5.1942 -5.279,-5.499 -1.9759,-0.155 -4.0286,0.1022 -4.6684,0.1766 -0.1928,0.0227 -0.5959,0.0827 -0.6032,0.3234 z" />
  <path fill-rule="evenodd" clip-rule="evenodd" d="m 9.55575,16.0347 1.99985,-0.0279 c 0.2761,-0.0039 0.4968,-0.2308 0.4929,-0.5069 l -0.0349,-2.4998 c -0.0039,-0.2761 -0.2308,-0.4968 -0.507,-0.493 L 9.61037,12.5336 C 9.54408,12.5346 9.48013,12.5091 9.43259,12.4629 9.27291,12.3076 9.00521,12.4229 9.00833,12.6456 l 0.04048,2.8962 c 0.00386,0.2761 0.23082,0.4968 0.50694,0.4929 z m 0.02784,1.9999 1.99981,-0.028 c 0.2761,-0.0039 0.5031,0.2168 0.5069,0.493 l 0.035,2.4997 c 0.0038,0.2761 -0.2169,0.5031 -0.493,0.507 l -1.89625,0.0265 c -0.0663,9e-4 -0.12951,0.0281 -0.17574,0.0757 -0.15527,0.1596 -0.42609,0.0519 -0.4292,-0.1708 L 9.09062,18.5415 C 9.08676,18.2654 9.30747,18.0384 9.58359,18.0346 Z m 8.76411,-2.1225 -2.2927,0.0321 c -0.2761,0.0038 -0.5031,-0.2169 -0.5069,-0.493 l -0.028,-1.9998 c -0.0038,-0.2761 0.2169,-0.5031 0.493,-0.5069 l 2.2926,-0.0321 c 0.261,-0.0036 0.396,0.31 0.2141,0.4971 0,0 0.5078,0.5563 0.5139,0.9929 0.0062,0.4366 -0.4859,1.0069 -0.4859,1.0069 0.187,0.1819 0.0608,0.4992 -0.2001,0.5028 z m -2.2224,5.0316 2.2927,-0.0321 c 0.2609,-0.0036 0.3872,-0.3209 0.2001,-0.5028 0,0 0.4921,-0.5703 0.486,-1.0069 -0.0061,-0.4366 -0.514,-0.9929 -0.514,-0.9929 0.1819,-0.1871 0.0469,-0.5007 -0.214,-0.4971 l -2.2927,0.0321 c -0.2761,0.0038 -0.4968,0.2308 -0.493,0.5069 l 0.028,1.9998 c 0.0038,0.2761 0.2308,0.4968 0.5069,0.493 z" style="filter:url(#stroke-filter)" />
  <path fill-rule="evenodd" clip-rule="evenodd" d="m 3.04579,23.005 c 0.69564,0 1.63358,0.1207 2.85604,0.2781 C 8.18884,23.5774 11.4716,24 16.0266,24 c 6.6603,0 13.6073,-1.6373 17.8126,-6.6195 0.2144,-0.2543 0.2144,-0.5067 0,-0.7611 C 29.6334,11.6373 22.6858,10.1045 16.0266,10 11.4716,10 8.18884,10.4225 5.90183,10.7169 4.67937,10.8742 3.74143,10.995 3.04579,10.995 H 1.04875 c -0.564898,0.0362 -0.9848352,0.3359 -0.9985262,1.0008 -0.0669822,3.1657 -0.0669479,6.8426 0,10.0084 0.013691,0.6649 0.4336282,0.975 0.9985262,1.0112 z M 1.08578,22.0144 3.04579,22.0041 c 0.76299,0 1.80277,0.1338 3.06781,0.2967 0.51876,0.0667 1.0754,0.1383 1.66636,0.2076 2.09575,0.2457 4.80134,0.4908 8.24664,0.4908 6.4258,0 12.8746,-1.557 16.82,-5.9991 -3.9405,-4.4322 -10.3798,-5.897 -16.8278,-5.9993 -3.4416,4e-4 -6.14468,0.2452 -8.23884,0.4907 -0.59097,0.0693 -1.1476,0.141 -1.66636,0.2077 -1.26504,0.1628 -2.30482,0.2966 -3.06781,0.2966 H 1.08737 c -0.01454,0.0015 -0.02728,0.0032 -0.0383,0.0051 -2.4e-4,0.0048 -4.2e-4,0.01 -5.4e-4,0.0156 -0.066677,3.1515 -0.066658,6.8148 -1e-5,9.9665 2e-4,0.0095 6.2e-4,0.0186 0.00115,0.0263 0.0103,0.0018 0.0223,0.0036 0.03611,0.0051 z" style="filter:url(#stroke-filter)" />
  <defs>
    <filter
      id="stroke-filter"
      style="color-interpolation-filters:sRGB"
      x="0" y="0" width="1" height="1">
      <feColorMatrix values="0.6 0 0 0 0 0 0.6 0 0 0 0 0 0.6 0 0 0 0 0 1 0" />
    </filter>
  </defs>
</svg>
