<svg xmlns="http://www.w3.org/2000/svg" width="34" height="34" viewBox="0 0 34 34" class="marker-color" fill="#307FE5">
  <path d="M 28,10 V 24 H 6 V 10 Z" fill="#ffffff" />
  <path fill-rule="evenodd" clip-rule="evenodd" d="M 26.4077,9.6619 C 24.8513,9.80398 23.111,9.82062 21.2596,9.78542 21.2563,8.90478 21.1666,8.24046 20.8277,7.67661 20.6366,7.35917 20.4223,7.14029 20.0434,7.00973 19.7658,6.92205 19.565,6.98669 19.496,7.15757 c -0.1182,0.28928 0.0174,1.44833 0.0994,1.81889 0.0348,0.15808 0.0826,0.28992 0.1504,0.34816 0.0406,0.0352 0.0904,0.064 0.1491,0.0864 0.2537,0.09536 0.5448,0.01472 0.7798,0.20608 0.0568,0.04672 0.0884,0.0992 0.1039,0.15808 C 16.7627,9.68174 12.264,9.37774 8.00473,9.59086 c -2.80228,0 -4.60075,0.064 -6.32305,2.78274 -1.680973923,2.6534 -1.6280412,7.5475 0.5429,9.936 1.88691,2.0761 3.27417,1.9443 5.78015,1.9443 4.54197,0.3482 8.68507,0.0775 12.76167,-0.0505 -0.0181,0.0441 -0.0472,0.0844 -0.0917,0.1209 -0.235,0.1914 -0.5261,0.1107 -0.7798,0.2061 -0.0587,0.0224 -0.1085,0.0512 -0.1491,0.0864 -0.0678,0.0582 -0.1156,0.1901 -0.1504,0.3482 -0.082,0.3705 -0.2176,1.5295 -0.0994,1.8188 0.069,0.1709 0.2698,0.2356 0.5474,0.1479 0.3789,-0.1306 0.5932,-0.3495 0.7843,-0.6669 0.3344,-0.5568 0.4261,-1.2115 0.4319,-2.0762 1.6777,-0.048 3.3458,-0.0653 5.0281,-6e-4 9.8535,0.777 9.3373,-14.86338 0.12,-14.5261 z m 5.2142,4.7306 c 0.0746,0.0478 0.1617,-0.026 0.1267,-0.1074 -0.5438,-1.2635 -1.5228,-2.3006 -2.7228,-2.9597 -0.3969,-0.218 -0.6938,0.2041 -0.3811,0.5316 0.9466,0.9913 2.1257,1.9907 2.9772,2.5355 z m -0.0018,5.5198 c 0.0758,-0.0459 0.1632,0.0292 0.1276,0.1103 -0.5411,1.2334 -1.5124,2.0781 -2.7032,2.6412 -0.4093,0.1936 -0.6991,-0.2379 -0.3693,-0.5482 0.9406,-0.8852 2.1026,-1.6933 2.9449,-2.2033 z M 8.50825,11.5173 10.0666,12.0574 C 9.52691,15.5 9.56822,19.0808 10.0763,21.9365 l -1.47187,0.487 C 6.7356,18.572 6.53226,15.5518 8.50825,11.5173 Z m 2.72115,11.4448 c -0.1088,0.026 -0.0882,0.1839 0.0237,0.1824 1.8141,-0.0247 3.4012,-0.0245 5.2181,5e-4 0.1113,0.0015 0.1315,-0.1542 0.0233,-0.1806 -2.2118,-0.5387 -3.1412,-0.5083 -5.2651,-0.0023 z m 6.9225,-11.5159 3.047,-0.6617 c 3.7105,2.9036 3.4543,9.4963 0,12.3724 l -3.047,-0.8275 c 0.9277,-3.6851 0.8528,-7.3081 0,-10.8832 z M 11.0993,10.948 c -0.1063,-0.0257 -0.091,-0.1788 0.0183,-0.1814 1.9127,-0.0458 3.5639,-0.0456 5.4787,6e-4 0.1088,0.0026 0.1246,0.1539 0.019,0.18 -2.3452,0.5803 -3.2598,0.5461 -5.516,8e-4 z" />
  <path fill-rule="evenodd" clip-rule="evenodd" d="m 25.9937,25.0214 c 2.531,0.2123 4.4414,-0.7152 5.7022,-2.255 1.249,-1.5254 1.8285,-3.6102 1.8033,-5.6772 C 33.474,15.0214 32.8436,12.9191 31.6086,11.346 30.3633,9.75985 28.5142,8.72928 26.1209,8.8237 l -0.0132,5.2e-4 -0.0132,0.0013 C 24.7347,8.95935 23.2203,8.9856 21.599,8.9609 21.5667,8.22273 21.4511,7.57249 21.1258,6.98911 21.0575,6.86669 20.9402,6.72233 20.8196,6.59545 20.6934,6.46276 20.5328,6.31678 20.3592,6.20069 20.1999,6.09413 19.9639,5.96766 19.7029,5.97076 19.5594,5.97246 19.4045,6.01379 19.2654,6.12028 19.1289,6.22474 19.0405,6.36682 18.9853,6.51392 l 0.4393,0.18 -0.4387,-0.1816 c -0.0667,0.17623 -0.1001,0.40828 -0.1163,0.6252 -0.0172,0.22961 -0.0184,0.49068 -9e-4,0.74882 0.0174,0.2563 0.0543,0.52485 0.1195,0.76424 0.0208,0.07615 0.0467,0.15846 0.08,0.24127 C 18.5187,8.87214 17.9611,8.8502 17.3973,8.82803 14.4181,8.71084 11.2679,8.58693 8.24979,8.74895 6.90996,8.74902 5.71112,8.76184 4.637,9.16773 3.52739,9.58704 2.59586,10.4037 1.71768,11.8982 0.839723,13.3923 0.433839,15.472 0.50876,17.4824 c 0.074806,2.0073 0.63298,4.0399 1.78435,5.4056 0.96299,1.1423 1.83508,1.7169 2.81681,1.9845 0.8335,0.2273 1.72911,0.2238 2.74146,0.2198 0.12875,-5e-4 0.25939,-0.001 0.39203,-0.001 3.63619,0.299 7.01619,0.1618 10.28259,0.0292 0.1746,-0.0071 0.349,-0.0142 0.523,-0.0212 -0.0243,0.0658 -0.0442,0.1306 -0.0608,0.1915 -0.0652,0.2394 -0.1021,0.508 -0.1195,0.7643 -0.0175,0.2581 -0.0163,0.5192 9e-4,0.7488 0.0162,0.2166 0.0495,0.4482 0.116,0.6244 0.0552,0.1468 0.1436,0.2886 0.2798,0.3928 0.1391,0.1065 0.294,0.1478 0.4375,0.1495 0.261,0.0032 0.497,-0.1233 0.6563,-0.2299 0.1736,-0.1161 0.3342,-0.2621 0.4604,-0.3947 0.1206,-0.1269 0.2377,-0.271 0.3061,-0.3934 0.3207,-0.5758 0.4376,-1.2169 0.4719,-1.9428 1.4699,-0.0397 2.9287,-0.0489 4.3961,0.0116 z M 21.362,24.0295 c 1.5556,-0.0449 3.1094,-0.0583 4.6787,0.0067 l 0.0098,4e-4 0.0098,8e-4 c 2.25,0.1913 3.863,-0.6231 4.9188,-1.9125 1.0692,-1.3058 1.5995,-3.1412 1.5766,-5.0232 -0.0229,-1.8812 -0.5984,-3.7567 -1.6765,-5.1299 -1.0657,-1.3573 -2.6327,-2.24089 -4.7097,-2.16287 -1.4914,0.14592 -3.145,0.16594 -4.8883,0.13312 l 4e-4,0.00183 L 20.9107,9.93458 20.6676,9.9296 V 9.92848 L 20.6593,9.92827 C 19.5723,9.90101 18.4552,9.85706 17.3206,9.81244 14.3513,9.69564 11.2628,9.57416 8.28624,9.73473 L 8.27409,9.73538 H 8.26192 c -1.37742,0 -2.40918,0.02185 -3.30415,0.36002 -0.86271,0.326 -1.64122,0.9664 -2.43609,2.3191 -0.75496,1.2848 -1.13982,3.1571 -1.07005,5.0295 0.0699,1.8753 0.59187,3.656 1.54936,4.7917 0.86997,1.032 1.58816,1.4754 2.34704,1.6823 0.70654,0.1926 1.46867,0.1905 2.50552,0.1876 0.13155,-4e-4 0.26753,-8e-4 0.40837,-8e-4 h 0.01862 l 0.01856,0.0015 c 3.5826,0.2961 6.9029,0.1615 10.172,0.029 0.7258,-0.0294 1.4492,-0.0587 2.1723,-0.0832 l 0.7193,-0.0243 z m -1.0883,0.2695 c 0,0 -4e-4,3e-4 -0.0015,7e-4 z m 0.3654,0.9095 c -0.1458,0.0643 -0.2859,0.0849 -0.3676,0.0968 -0.0458,0.0067 -0.0835,0.0117 -0.1151,0.0158 -0.058,0.0076 -0.0984,0.0129 -0.144,0.0233 -0.0173,0.004 -0.0291,0.0075 -0.0366,0.0101 -0.0121,0.0194 -0.0452,0.0784 -0.0801,0.2065 -0.0419,0.154 -0.0713,0.3509 -0.0858,0.5639 -0.0143,0.2111 -0.0129,0.4231 4e-4,0.6021 0.0059,0.0783 0.0136,0.1432 0.0215,0.1951 0.0061,-0.0038 0.0124,-0.008 0.019,-0.0124 0.0997,-0.0666 0.2069,-0.1617 0.2996,-0.2592 0.0453,-0.0477 0.0839,-0.0925 0.1135,-0.13 0.0147,-0.0187 0.0262,-0.0344 0.0347,-0.0466 0.0089,-0.0129 0.0123,-0.0189 0.0122,-0.0186 0.1865,-0.335 0.2853,-0.7263 0.3283,-1.2468 z m -0.3283,1.2468 c -10e-5,10e-5 0,-10e-5 0,0 z M 20.6393,8.73439 C 20.5132,8.67949 20.3881,8.65576 20.3003,8.64128 20.2396,8.63129 20.1949,8.6251 20.1572,8.61988 20.1052,8.61267 20.0665,8.60731 20.0174,8.59634 19.9972,8.59183 19.9834,8.58777 19.9745,8.58481 19.9614,8.56343 19.9294,8.50422 19.8957,8.38043 19.8538,8.22643 19.8244,8.0295 19.8099,7.81653 19.7956,7.60541 19.797,7.3934 19.8103,7.21441 c 0.0059,-0.07826 0.0136,-0.14325 0.0215,-0.19515 0.0061,0.00389 0.0124,0.00801 0.019,0.0124 0.0997,0.0667 0.2069,0.16176 0.2996,0.25922 0.0453,0.04771 0.0839,0.09252 0.1135,0.13004 0.0147,0.01869 0.0262,0.03435 0.0347,0.04661 0.0089,0.01284 0.0123,0.01888 0.0122,0.01858 0,9e-5 -10e-5,-9e-5 0,0 0.187,0.33549 0.2857,0.72728 0.3285,1.24828 z M 30.9458,19.6371 c 0.4541,-0.2967 1.0349,0.1816 0.8132,0.7255 -0.5761,1.4138 -1.6052,2.3728 -2.8306,3.0026 -0.3781,0.1943 -0.8205,0.1148 -1.0579,-0.2441 -0.2356,-0.356 -0.1551,-0.8149 0.1454,-1.1196 0.9418,-0.9548 2.0947,-1.8187 2.9299,-2.3644 z m 0.8154,-5.6715 c 0.2135,0.5341 -0.3595,1.0332 -0.8236,0.7124 -0.8655,-0.5983 -2.0348,-1.6698 -2.9699,-2.7251 -0.2791,-0.315 -0.346,-0.772 -0.1038,-1.1182 0.2518,-0.3601 0.7034,-0.4125 1.0705,-0.1933 1.2432,0.742 2.2594,1.9047 2.8268,3.3242 z m -10.8071,-2.9388 -2.2724,0.5321 c 0.7143,3.505 0.7731,7.0618 -4e-4,10.6762 l 2.2753,0.6662 c 1.4348,-1.4076 2.2318,-3.6451 2.2604,-5.9263 0.0288,-2.2923 -0.7189,-4.5353 -2.2629,-5.9482 z m 3.2064,5.9612 c -0.0324,2.5878 -0.9701,5.2159 -2.7743,6.8354 l -0.1916,0.172 -3.6421,-1.0665 0.1082,-0.4632 c 0.8819,-3.7773 0.812,-7.493 -0.0014,-11.1694 l -0.107,-0.4838 3.6456,-0.85366 0.1772,0.14946 c 1.9443,1.6403 2.8179,4.2901 2.7854,6.8797 z M 16.6191,9.981 c 0.6757,0.01756 0.742,0.9946 0.1245,1.1593 -1.1529,0.3076 -1.9905,0.4627 -2.8314,0.4579 -0.8397,-0.0047 -1.6548,-0.1687 -2.759,-0.4564 -0.6113,-0.1592 -0.5659,-1.14364 0.1214,-1.16138 1.8655,-0.04816 3.477,-0.04797 5.3445,5.8e-4 z m 0.0053,12.7884 c 0.6641,0.1744 0.5118,1.1702 -0.1457,1.1604 -1.7598,-0.026 -3.2967,-0.0262 -5.0538,-4e-4 -0.6402,0.0093 -0.8293,-0.9869 -0.1436,-1.163 1.0418,-0.2677 1.8269,-0.4196 2.6361,-0.4235 0.8102,-0.004 1.6174,0.1404 2.707,0.4265 z M 10.8076,22.502 8.59731,23.2905 8.41758,22.8911 C 7.49282,20.8365 6.96369,18.9675 6.92549,17.0525 6.88723,15.1347 7.34205,13.2114 8.32487,11.048 l 0.1831,-0.403 2.28173,0.8526 -0.0584,0.4018 c -0.5173,3.5571 -0.4764,7.2535 0.0079,10.1878 z M 9.74221,12.1538 8.99859,11.8759 c -0.80975,1.8907 -1.16192,3.5419 -1.12971,5.1561 0.03218,1.6133 0.44894,3.2249 1.22641,5.0385 L 9.74423,21.839 C 9.32101,18.9802 9.29268,15.5177 9.74221,12.1538 Z" style="filter:url(#stroke-filter)" />
  <defs>
    <filter
      id="stroke-filter"
      style="color-interpolation-filters:sRGB"
      x="0" y="0" width="1" height="1">
      <feColorMatrix values="0.6 0 0 0 0 0 0.6 0 0 0 0 0 0.6 0 0 0 0 0 1 0" />
    </filter>
  </defs>
</svg>
