<svg xmlns="http://www.w3.org/2000/svg" width="34" height="34" viewBox="0 0 34 34" class="marker-color" fill="#307FE5">
  <path fill-rule="evenodd" clip-rule="evenodd" d="M 34,20 V 14 C 34,11.2695 33,10.0174 31.5632,10.0174 31.5632,9.5 31,9 30.2511,9 v 1.0174 H 1 C 1,10.0174 0,10 0,11 c 0,4.5 0,7.5 0,12 0,1 0,1 1,1 3.72696,-2e-4 26.602,-0.0013 29.2511,0 v 1 C 31,25 31.5632,24.5 31.5632,24 33,24 34,22.7617 34,20 Z m -1.3219,-6.6831 c -0.173,-0.6832 -0.3749,-0.9593 -0.5479,-1.0611 -0.0989,-0.0581 -0.0467,-0.0581 -0.2884,-0.0581 -0.2417,0 -1.5331,1.2209 -1.5331,1.2209 0.7329,0.8554 0.709,6.603 0,7.468 l 1.5331,1.221 c 0.1026,0.0344 0.1977,0.0021 0.2884,-0.0436 0.173,-0.1018 0.3749,-0.378 0.5479,-1.0611 C 32.8223,20.3924 32.9712,19.468 33,18 v -2 c -0.0144,-1.468 -0.1633,-2.0581 -0.3219,-2.6831 z m -7.1709,8.2864 v 1.0029 h 4.1383 c 0,-0.5524 -0.4759,-1.0029 -1.067,-1.0029 z m 0.0144,-0.9202 h 0.3749 v -7.3808 h -0.3749 z m 4.1239,-8.2238 c 0,-0.5523 -0.4759,-1.0029 -1.067,-1.0029 h -3.0713 v 1.0029 z" />
  <path d="m 34.0002,14 v 6 c 0,2.7617 -1,4.0145 -2.4368,4.0145 C 31.4481,24.407 30.8731,25 30.2513,25 V 24.0145 H 24.6577 V 24 C 24.4125,23.9419 24.2251,23.7238 24.2251,23.4622 V 10.5698 c 0,-0.2617 0.1874,-0.5262 0.4326,-0.58434 l 5.5936,0.03194 V 9 c 0.7489,0 1.3121,0.5 1.3121,1.0174 C 33.0002,10 34.0002,11.2695 34.0002,14 Z" fill="#ffffff" />
  <path fill-rule="evenodd" clip-rule="evenodd" d="M 31.5632,24 C 33,24 34,22.7617 34,20 V 14 C 34,11.2695 33,10.0174 31.5632,10.0174 31.5632,9.5 31,9 30.2511,9 v 1.0174 H 3.60475 L 1,10 C 0.497025,10.0088 0.247034,10.0131 0.122782,10.1403 0,10.266 0,10.5116 0,11 v 12 c 0,0.5 0,0.75 0.125,0.875 C 0.25,24 0.5,24 1,24 h 29.2511 v 1 C 31,25 31.5632,24.5 31.5632,24 Z m 0.567,-11.7442 c 0.173,0.1018 0.3749,0.3779 0.5479,1.0611 C 32.8367,13.9419 32.9856,14.532 33,16 v 2 c -0.0288,1.468 -0.1777,2.3924 -0.3219,3.0029 -0.173,0.6831 -0.3749,0.9593 -0.5479,1.0611 -0.0907,0.0457 -0.1858,0.078 -0.2884,0.0436 l -1.5331,-1.221 c 0.709,-0.865 0.7329,-6.6126 0,-7.468 0,0 1.2914,-1.2209 1.5331,-1.2209 0.1505,0 0.1871,0 0.2171,0.014 0.0096,0.0045 0.0186,0.0105 0.0304,0.0183 0.0105,0.007 0.0233,0.0155 0.0409,0.0258 z m -2.4847,10.34 h -4.1383 v -1.0029 h 3.0713 c 0.5911,0 1.067,0.4506 1.067,1.0029 z m -3.749,-1.9127 h -0.3749 v -7.3808 h 0.3749 z m 2.682,-9.2267 c 0.5911,0 1.067,0.4506 1.067,1.0029 H 25.5072 V 11.4564 Z M 2,23 C 1.42324,23 1.22562,22.9651 1.22562,22.4273 V 11.907 C 1.22562,11.3692 1.42324,11 2,11 h 3.00022 v 0.0144 c 0,0.4612 0.37471,0.8359 0.83588,0.8359 h 2.1041 c 0.46117,0 0.85028,-0.3747 0.85028,-0.8359 V 11 H 16 c 0.0432,0.4323 0.4035,0.7782 0.8359,0.7782 H 18.94 c 0.4467,0 0.807,-0.3459 0.8358,-0.7782 H 22 c 1.0526,0 1.3876,0.3692 1.3876,0.907 V 22.1076 C 23.3876,22.6453 23.0526,23 22,23 h -2.2096 v -0.1007 c 0,-0.4611 -0.3747,-0.8503 -0.8503,-0.8503 H 16.836 c -0.4611,0 -0.8502,0.3747 -0.8502,0.8503 v 0 c 0,0.0288 0,0.0719 0.0143,0.1007 H 8.77878 c 0.02607,-9e-4 0.02607,-0.0144 0.02607,-0.0144 0,-0.4611 -0.3747,-0.8503 -0.85029,-0.8503 h -2.1041 c -0.46117,0 -0.85028,0.3747 -0.85028,0.8503 V 23 Z" style="filter:url(#stroke-filter)" />
  <defs>
    <filter
      id="stroke-filter"
      style="color-interpolation-filters:sRGB"
      x="0" y="0" width="1" height="1">
      <feColorMatrix values="0.6 0 0 0 0 0 0.6 0 0 0 0 0 0.6 0 0 0 0 0 1 0" />
    </filter>
  </defs>
</svg>
