<svg xmlns="http://www.w3.org/2000/svg" width="34" height="34" viewBox="0 0 34 34" class="marker-color" fill="#307FE5">
  <circle cx="17" cy="17" r="17" mask="url(#icon-mask)"/>
  <circle cx="17" cy="17" r="17" mask="url(#icon-mask-2)" fill="#fff"/>
  <path fill-rule="evenodd" clip-rule="evenodd" d="M 17,31 C 24.732,31 31,24.732 31,17 31,9.26801 24.732,3 17,3 9.26801,3 3,9.26801 3,17 3,24.732 9.26801,31 17,31 Z m 0,3 C 26.3888,34 34,26.3888 34,17 34,7.61116 26.3888,0 17,0 7.61116,0 0,7.61116 0,17 0,26.3888 7.61116,34 17,34 Z" style="filter:url(#stroke-filter)" />
  <path fill-rule="evenodd" clip-rule="evenodd" d="M 17,29 C 23.6274,29 29,23.6274 29,17 29,10.3726 23.6274,5 17,5 10.3726,5 5,10.3726 5,17 c 0,6.6274 5.3726,12 12,12 z m 0,1 C 24.1797,30 30,24.1797 30,17 30,9.8203 24.1797,4 17,4 9.8203,4 4,9.8203 4,17 4,24.1797 9.8203,30 17,30 Z" style="filter:url(#stroke-filter)" />
  <mask id="icon-mask" class="icon-mask-exclude">
    <g class="marker-icon-container" transform="translate(17,17)">
      <rect width="100%" height="100%" fill="#fff" transform="translate(-17,-17)"></rect>
    </g>
  </mask>
  <mask id="icon-mask-2" class="icon-mask-overlay">
    <g class="marker-icon-container" transform="translate(17,17)">
      <rect width="100%" height="100%" fill="#000" transform="translate(-17,-17)"></rect>
    </g>
  </mask>
  <defs>
    <filter
      id="stroke-filter"
      style="color-interpolation-filters:sRGB"
      x="0" y="0" width="1" height="1">
      <feColorMatrix values="0.6 0 0 0 0 0 0.6 0 0 0 0 0 0.6 0 0 0 0 0 1 0" />
    </filter>
  </defs>
</svg>
