<svg xmlns="http://www.w3.org/2000/svg" width="34" height="34" viewBox="0 0 34 34" class="marker-color" fill="#307FE5">
  <path d="m 13.049,19.8425 c 0.4838,0.0271 0.3225,0.5961 0.3225,0.5961 L 12.4711,23.8688 9.01739,34 C 10.5,34 12,34 13,33 14,32 20,21 20.5,20.5 21,20 24.7138,19.9373 28.4632,19.9373 30.1968,19.9373 34,18.0974 34,17 34,15.9026 30.1431,14.0627 28.4632,14.0627 24.9154,14.0627 21,14 20.5,13.5 20,13 14,2 13,1 12,0 10.5,0 9.01739,0 l 3.45371,10.1312 0.887,3.4166 c 0,0 0.1747,0.569 -0.3225,0.5961 C 12.5518,14.171 6,15 5.5,14.5 5,14 3.39082,12.0198 2.95652,11.5131 2.55733,11.1509 1.60519,11.2938 1.12885,11.2693 1.12885,11.2693 2,15.5 2,16 c 0,0.5 -2,0 -2,1 0,1 2,0.5 2,1 0,0.5 -0.87115,4.6765 -0.87115,4.6765 0.48128,-0.0247 1.42563,0.121 1.82767,-0.2438 C 3.72338,21.5381 5,20 5.5,19.5 6,19 12.5518,19.8154 13.049,19.8425 Z" />
  <path fill-rule="evenodd" clip-rule="evenodd" d="M 13.3715,20.4386 12.4711,23.8688 9.01739,34 C 9.37249,34 9.7286,34 10.0786,33.9863 11.1899,33.9426 12.2395,33.7605 13,33 13.5858,32.4142 15.8873,28.397 17.7939,25.069 19.1421,22.7157 20.2929,20.7071 20.5,20.5 21,20 24.7138,19.9373 28.4632,19.9373 30.1968,19.9373 34,18.0974 34,17 34,15.9026 30.1431,14.0627 28.4632,14.0627 24.9154,14.0627 21,14 20.5,13.5 20.2929,13.2929 19.1421,11.2843 17.7939,8.93102 15.8873,5.60303 13.5858,1.58579 13,1 12.2395,0.239512 11.1899,0.0573662 10.0786,0.0137399 9.7286,0 9.37249,0 9.01739,0 l 3.45371,10.1312 0.887,3.4166 c 0,0 0.1747,0.569 -0.3225,0.5961 -0.0853,0.0048 -0.359,0.0345 -0.7548,0.0774 C 10.4306,14.4219 5.91189,14.9119 5.5,14.5 5.14369,14.1437 4.22409,13.0356 3.56781,12.2449 3.30316,11.926 3.08133,11.6587 2.95652,11.5131 2.77185,11.3456 2.46886,11.2861 2.14937,11.2681 c -0.2055,-0.0115 -0.41781,-0.0059 -0.60985,-8e-4 -0.1548,0.0041 -0.29642,0.0078 -0.41067,0.002 0,0 0.08567,0.416 0.20328,1.0026 C 1.58956,13.5559 2,15.6568 2,16 2,16.2071 1.65685,16.2426 1.25483,16.2843 0.686291,16.3431 0,16.4142 0,17 0,17.5858 0.686291,17.6569 1.25483,17.7157 1.65685,17.7574 2,17.7929 2,18 c 0,0.3421 -0.40773,2.4049 -0.66531,3.6739 -0.11892,0.5859 -0.20584,1.0026 -0.20584,1.0026 0.11616,-0.0059 0.2593,-0.002 0.41528,0.0023 0.19124,0.0053 0.40178,0.0111 0.60557,-2e-4 C 2.46835,22.661 2.77049,22.6015 2.95652,22.4327 3.15289,22.2036 3.38269,21.9323 3.62431,21.6471 4.32627,20.8184 5.12804,19.872 5.5,19.5 c 0.41129,-0.4113 4.9174,0.0675 6.7802,0.2654 0.4018,0.0427 0.6806,0.0723 0.7688,0.0771 0.4838,0.0271 0.3225,0.5961 0.3225,0.5961 z M 2.37527,21.5734 c 0.13794,-0.162 0.28997,-0.3415 0.44934,-0.5297 0.70932,-0.8374 1.56405,-1.8466 1.96828,-2.2508 0.21757,-0.2176 0.47804,-0.3003 0.59535,-0.3336 0.14952,-0.0425 0.30604,-0.0672 0.44812,-0.0831 0.287,-0.0321 0.63234,-0.0408 0.99366,-0.0374 0.72928,0.0069 1.63953,0.0652 2.52737,0.1381 0.89241,0.0733 1.78231,0.1631 2.47671,0.2358 0.1989,0.0208 0.3887,0.041 0.5558,0.0587 0.1188,0.0126 0.2261,0.024 0.3169,0.0336 0.1134,0.0119 0.2064,0.0215 0.2778,0.0284 0.0202,0.002 0.0381,0.0037 0.0538,0.0051 0.012,0.0011 0.0228,0.0021 0.0323,0.0029 0.0237,0.002 0.0327,0.0026 0.0327,0.0026 l 0.0015,10e-5 c 0.3335,0.0186 0.6743,0.1448 0.9324,0.4236 0.2389,0.258 0.3181,0.5516 0.345,0.7459 0.0272,0.1969 0.0121,0.3687 -0.0029,0.4749 -0.008,0.057 -0.0174,0.1054 -0.0256,0.1423 -0.0042,0.0186 -0.0081,0.0348 -0.0115,0.0482 l -0.0035,0.0135 -0.9095,3.4649 -3.0025,8.8073 c 0.2027,-0.016 0.3968,-0.0394 0.5834,-0.0735 0.5599,-0.1021 0.9719,-0.2875 1.2827,-0.5983 -0.0022,0.0021 0.01,-0.0101 0.0386,-0.0454 0.0271,-0.0333 0.0617,-0.0784 0.1043,-0.1368 0.0856,-0.1171 0.1915,-0.2718 0.3169,-0.4629 0.2505,-0.3819 0.5614,-0.8831 0.9142,-1.4687 0.705,-1.1698 1.5598,-2.6461 2.4035,-4.1147 0.288,-0.5014 0.5749,-1.0022 0.8538,-1.489 0.5355,-0.9347 1.0415,-1.8178 1.4687,-2.554 0.325,-0.5599 0.6088,-1.0422 0.8286,-1.4025 0.1095,-0.1795 0.2074,-0.3357 0.2889,-0.459 0.0602,-0.0909 0.1673,-0.2518 0.2825,-0.367 0.241,-0.241 0.55,-0.3548 0.7375,-0.4141 0.2226,-0.0704 0.477,-0.1232 0.7398,-0.1651 0.5286,-0.0844 1.1975,-0.1414 1.9394,-0.1811 1.4893,-0.0798 3.3793,-0.0953 5.2536,-0.0953 0.2853,0 0.736,-0.0815 1.2953,-0.2582 0.544,-0.1718 1.1305,-0.4144 1.6678,-0.6892 0.5433,-0.2779 0.9997,-0.5701 1.3039,-0.8292 0.07,-0.0597 0.1261,-0.1126 0.1703,-0.1582 -0.0451,-0.046 -0.1023,-0.0995 -0.1738,-0.1597 -0.3088,-0.2602 -0.7709,-0.5531 -1.3185,-0.8316 -0.5416,-0.2755 -1.1308,-0.5185 -1.6735,-0.6907 -0.5597,-0.1775 -1.002,-0.2578 -1.2715,-0.2578 -1.7744,0 -3.6634,-0.0156 -5.1771,-0.0953 C 22.5321,14.9278 21.8458,14.871 21.3035,14.7871 21.0339,14.7454 20.7737,14.6932 20.5474,14.6239 20.3612,14.5669 20.04,14.4542 19.7929,14.2071 19.6777,14.0919 19.5706,13.931 19.5104,13.8401 19.4289,13.7168 19.331,13.5606 19.2215,13.3811 19.0017,13.0208 18.7179,12.5385 18.3929,11.9786 17.9657,11.2424 17.4597,10.3592 16.9242,9.42448 16.6453,8.93769 16.3584,8.43691 16.0704,7.93562 15.2267,6.467 14.3719,4.99069 13.6669,3.82085 13.3141,3.23531 13.0032,2.7341 12.7527,2.35223 12.6273,2.16106 12.5214,2.00645 12.4358,1.88928 12.3932,1.83088 12.3586,1.78582 12.3315,1.75249 12.3075,1.72283 12.2951,1.70946 12.293,1.70722 11.9822,1.39645 11.5701,1.21088 11.0102,1.10877 10.8236,1.07473 10.6295,1.05133 10.4268,1.03525 l 3.0029,8.80862 0.8934,3.44153 4e-4,0.0015 c 0.0038,0.0135 0.0081,0.0298 0.0127,0.0486 0.009,0.0371 0.0196,0.086 0.0289,0.1436 0.0171,0.1069 0.0357,0.2816 0.0102,0.4825 -0.0253,0.1995 -0.1044,0.4995 -0.3498,0.7615 -0.2623,0.28 -0.6055,0.4011 -0.9339,0.4193 m -10.71633,6.431 c 0.05402,-0.2679 0.11216,-0.5589 0.17034,-0.8545 0.10932,-0.5555 0.21966,-1.1318 0.303,-1.6031 0.04156,-0.2351 0.07748,-0.45 0.10333,-0.6259 C 2.97397,18.34 3,18.1478 3,18 3,17.5246 2.72908,17.1944 2.46532,17.0202 2.45485,17.0132 2.44434,17.0065 2.43382,17 2.44434,16.9935 2.45485,16.9868 2.46532,16.9798 2.72908,16.8056 3,16.4754 3,16 3,15.8528 2.97412,15.6601 2.95213,15.509 2.92633,15.332 2.89047,15.1151 2.84893,14.8776 2.76564,14.4014 2.65535,13.8185 2.54605,13.2563 2.48639,12.9495 2.42677,12.6475 2.3716,12.3705 c 0.11389,0.1361 0.25631,0.3077 0.41644,0.5007 0.19618,0.2364 0.41894,0.5048 0.64838,0.7793 0.50612,0.6053 1.06723,1.2674 1.35647,1.5566 0.218,0.218 0.47905,0.3006 0.5965,0.3338 0.14973,0.0424 0.3064,0.0668 0.44853,0.0824 0.2871,0.0317 0.63249,0.0398 0.99372,0.0357 0.72915,-0.0082 1.63903,-0.0683 2.52605,-0.1429 0.89161,-0.075 1.78031,-0.1665 2.47291,-0.2404 0.2024,-0.0217 0.3934,-0.0424 0.5611,-0.0605 0.115,-0.0125 0.2191,-0.0238 0.3083,-0.0334 0.1128,-0.0121 0.2051,-0.0218 0.2758,-0.0288 0.0354,-0.0035 0.0635,-0.0062 0.0849,-0.0081 0.0214,-0.0019 0.0309,-0.0025 0.0309,-0.0025" style="filter:url(#stroke-filter)" />
  <defs>
    <filter
      id="stroke-filter"
      style="color-interpolation-filters:sRGB"
      x="0" y="0" width="1" height="1">
      <feColorMatrix values="0.6 0 0 0 0 0 0.6 0 0 0 0 0 0.6 0 0 0 0 0 1 0" />
    </filter>
  </defs>
</svg>
