<svg width="28" height="28" viewBox="0 0 28 28" fill="none" xmlns="http://www.w3.org/2000/svg">
<path fill-rule="evenodd" clip-rule="evenodd" d="M9.5571 14.1243C8.93293 15.0719 8.169 16.0016 7.16281 16.5766C5.3279 17.6251 3.832 17.625 3.01392 17.625H3V15.625H3.01621C3.72906 15.625 4.79674 15.6251 6.17053 14.8401C6.7685 14.4984 7.32228 13.8813 7.88691 13.0241C7.98183 12.88 8.0747 12.733 8.16622 12.5833H3V10.5833H9.29365C9.36724 10.4495 9.4418 10.3146 9.51768 10.1788C10.0626 9.20374 10.6754 8.18343 11.4267 7.40732C12.1978 6.61085 13.1855 6 14.4583 6C15.8319 6 16.8617 6.86456 17.6208 7.80365C18.2683 8.60464 18.839 9.60995 19.3579 10.5833H25V12.5833H20.4194C20.7429 13.1707 21.0584 13.6989 21.3846 14.1387C21.9892 14.9538 22.4155 15.1667 22.7083 15.1667V15.2042C23.4281 15.1796 24.1907 15.1667 25 15.1667V17.1667C17.5654 17.1667 14.3855 18.2878 12.0076 19.3687C11.6952 19.5107 11.3841 19.6586 11.0705 19.8076C10.1943 20.2241 9.29864 20.6499 8.3006 20.9826C6.8997 21.4495 5.27364 21.75 3 21.75V19.75C5.08053 19.75 6.49092 19.4776 7.66815 19.0852C8.54192 18.7939 9.27805 18.444 10.1143 18.0466L10.1143 18.0465L10.1144 18.0465C10.4485 17.8877 10.7987 17.7213 11.1799 17.548C13.1541 16.6506 15.5688 15.7754 19.8173 15.3824L19.7782 15.3301C19.1345 14.4622 18.548 13.3426 17.9996 12.2958L17.8698 12.0482C17.2598 10.8863 16.6875 9.8306 16.0654 9.06093C15.4352 8.28127 14.9181 8 14.4583 8C13.8979 8 13.396 8.24853 12.8637 8.79841C12.3116 9.36865 11.8072 10.1817 11.2636 11.1545C11.1361 11.3825 11.006 11.6205 10.8729 11.8638C10.4631 12.6132 10.026 13.4125 9.5571 14.1243Z" fill="#979797"/>
</svg>
