<svg width="28" height="28" viewBox="0 0 28 28" fill="none" xmlns="http://www.w3.org/2000/svg">
<path d="M22.9994 10.1341L22.7099 10.1288L14.0062 7.52053L14.001 7.39997V3L23.0002 7.55661L22.9994 10.1341Z" fill="white"/>
<path d="M22.9994 10.1341L22.7099 10.1288L14.0062 7.52053L14.001 7.39997V3L23.0002 7.55661L22.9994 10.1341Z" fill="#979797" fill-opacity="0.6"/>
<path d="M14.0001 7.66309L14.001 3L5.00087 7.55485L5 20.4415L5.00435 20.4441L13.9992 24.9981L14.0288 24.9559L14.0175 20.6228L14.0001 20.599L13.4378 20.1933L6.4767 18.0928L6.51146 9.9414L14.0001 7.66309Z" fill="#979797"/>
<path d="M15.3451 16.904L6.14941 18.2134L6.15028 9.78308L15.3468 11.0943L15.3451 16.904Z" fill="white"/>
<path d="M15.3451 16.904L6.14941 18.2134L6.15028 9.78308L15.3468 11.0943L15.3451 16.904Z" fill="#979797" fill-opacity="0.8"/>
<path d="M10.6856 16.3709L13.9997 16.7976L14.0006 11.1982L10.6865 11.625L10.6856 16.3709ZM7.34717 15.9405L9.49746 16.2177L9.49833 11.7782L7.34717 12.0554V15.9405Z" fill="#979797"/>
<path d="M6.14941 9.78308L14.0005 7.39917L22.9989 10.1342L15.3512 11.0951L6.14941 9.78308Z" fill="#979797"/>
<path d="M22.9952 15.6281L14.0003 16.7774L14.0011 11.1982L22.996 12.3581V15.6281M22.9943 17.8677L22.8005 17.8765L14.0272 20.5658L13.9994 20.6001L13.9985 25.0001L22.9934 20.447V17.8677" fill="white"/>
<path d="M22.9952 15.6281L14.0003 16.7774L14.0011 11.1982L22.996 12.3581V15.6281M22.9943 17.8677L22.8005 17.8765L14.0272 20.5658L13.9994 20.6001L13.9985 25.0001L22.9934 20.447V17.8677" fill="#979797" fill-opacity="0.6"/>
<path d="M6.14941 18.2134L13.9996 20.599L22.9945 17.8675L15.346 16.9039L6.14941 18.2134Z" fill="white"/>
<path d="M6.14941 18.2134L13.9996 20.599L22.9945 17.8675L15.346 16.9039L6.14941 18.2134Z" fill="#979797" fill-opacity="0.4"/>
</svg>
