<svg width="28" height="28" fill="none" xmlns="http://www.w3.org/2000/svg"><circle cx="13.994" cy="14.056" r="7.426" stroke="#979797" stroke-width="1.2"/><mask id="a" fill="#fff"><path fill-rule="evenodd" clip-rule="evenodd" d="M14.593 8.41a.6.6 0 0 0-1.2 0v14.997a.6.6 0 1 0 1.2 0V8.411Zm-2.823 5.046H7.406a.6.6 0 1 0 0 1.2h3.164v8.745a.6.6 0 1 0 1.2 0v-9.945Zm4.446 0h4.364a.6.6 0 1 1 0 1.2h-3.164v8.745a.6.6 0 0 1-1.2 0v-9.945Z"/></mask><path fill-rule="evenodd" clip-rule="evenodd" d="M14.593 8.41a.6.6 0 0 0-1.2 0v14.997a.6.6 0 1 0 1.2 0V8.411Zm-2.823 5.046H7.406a.6.6 0 1 0 0 1.2h3.164v8.745a.6.6 0 1 0 1.2 0v-9.945Zm4.446 0h4.364a.6.6 0 1 1 0 1.2h-3.164v8.745a.6.6 0 0 1-1.2 0v-9.945Z" fill="#fff"/><path d="M14.593 8.41h1-1Zm-1.2 0h1-1Zm0 14.997h-1 1Zm1.2 0h-1 1Zm-2.823-9.95h1v-1h-1v1Zm-1.2 1.2h1v-1h-1v1Zm5.646-1.2v-1h-1v1h1Zm1.2 1.2v-1h-1v1h1ZM13.993 8.81a.4.4 0 0 1-.4-.4h2a1.6 1.6 0 0 0-1.6-1.6v2Zm.4-.4a.4.4 0 0 1-.4.4v-2a1.6 1.6 0 0 0-1.6 1.6h2Zm0 14.996V8.411h-2v14.996h2Zm-.4-.4c.22 0 .4.18.4.4h-2a1.6 1.6 0 0 0 1.6 1.6v-2Zm-.4.4c0-.22.179-.4.4-.4v2a1.6 1.6 0 0 0 1.6-1.6h-2Zm0-14.996v14.996h2V8.411h-2Zm-2.423 6.045h.6v-2h-.6v2Zm-3.764 0h3.764v-2H7.406v2Zm.4-.4a.4.4 0 0 1-.4.4v-2a1.6 1.6 0 0 0-1.6 1.6h2Zm-.4-.4c.221 0 .4.18.4.4h-2a1.6 1.6 0 0 0 1.6 1.6v-2Zm3.164 0H7.406v2h3.164v-2Zm1 9.745v-8.745h-2v8.745h2Zm-.4-.4c.22 0 .4.18.4.4h-2a1.6 1.6 0 0 0 1.6 1.6v-2Zm-.4.4a.4.4 0 0 1 .4-.4v2a1.6 1.6 0 0 0 1.6-1.6h-2Zm0-9.345v9.345h2v-9.345h-2Zm0-.6v.6h2v-.6h-2Zm6.046-1h-.6v2h.6v-2Zm3.764 0h-3.764v2h3.764v-2Zm1.6 1.6a1.6 1.6 0 0 0-1.6-1.6v2a.4.4 0 0 1-.4-.4h2Zm-1.6 1.6a1.6 1.6 0 0 0 1.6-1.6h-2c0-.22.179-.4.4-.4v2Zm-3.164 0h3.163v-2h-3.163v2Zm1 7.745v-8.745h-2v8.745h2Zm-1.6 1.6a1.6 1.6 0 0 0 1.6-1.6h-2c0-.22.179-.4.4-.4v2Zm-1.6-1.6a1.6 1.6 0 0 0 1.6 1.6v-2c.22 0 .4.18.4.4h-2Zm0-9.345v9.345h2v-9.345h-2Zm0-.6v.6h2v-.6h-2Z" fill="#979797" mask="url(#a)"/><circle cx="21.412" cy="13.941" r="1.988" fill="#fff" stroke="#979797" stroke-width="1.2" stroke-linecap="round"/><circle cx="6.357" cy="13.941" r="1.988" fill="#fff" stroke="#979797" stroke-width="1.2" stroke-linecap="round"/><circle cx="13.885" cy="6.588" r="1.988" fill="#fff" stroke="#979797" stroke-width="1.2" stroke-linecap="round"/></svg>