<svg width="28" height="28" viewBox="0 0 28 28" fill="none" xmlns="http://www.w3.org/2000/svg">
<path d="M5 15.2827L13.983 19.4801L22.9656 15.2827L13.9828 14.9048L5 15.2827Z" fill="white"/>
<path d="M5 15.2827L13.983 19.4801L22.9656 15.2827L13.9828 14.9048L5 15.2827Z" fill="#979797" fill-opacity="0.4"/>
<path d="M14.0097 3.00012L5.00342 7.55962V13.993H15.8029V3.90991L14.0097 3.00012Z" fill="#979797"/>
<path d="M5.00342 18.5284L14.0151 25.0001L22.9993 18.5284L13.9953 17.1984L5.00342 18.5284Z" fill="white"/>
<path d="M5.00342 18.5284L14.0151 25.0001L22.9993 18.5284L13.9953 17.1984L5.00342 18.5284Z" fill="#979797" fill-opacity="0.4"/>
<path d="M14.0103 13.9932H18.7619V7.12823L17.3743 6.56494L14.0105 7.5609L14.0103 13.9932Z" fill="#979797"/>
<path d="M17.374 13.993H21.0467V9.54025L19.9962 9.22034L17.374 9.67225V13.993Z" fill="#979797"/>
<path d="M19.9966 8.87135V13.993H22.9653L23.0003 8.84866L22.0984 8.48291L19.9966 8.87135Z" fill="#979797"/>
<path d="M14.0102 3.00012V13.993H15.8034V3.90991L14.0102 3.00012ZM18.7618 7.1281L17.3743 6.56481V13.993H18.7618V7.1281ZM21.047 9.54031L19.9965 9.22039V13.9932H21.047V9.54031ZM22.0984 13.993H23V8.84846L22.0984 8.48271V13.993ZM13.9829 16.1946V19.4802L22.9655 17.2073V15.2828L13.9829 16.1946ZM13.9829 21.756V25.0001L22.9998 20.4237V18.5285L13.9829 21.756Z" fill="white"/>
<path d="M14.0102 3.00012V13.993H15.8034V3.90991L14.0102 3.00012ZM18.7618 7.1281L17.3743 6.56481V13.993H18.7618V7.1281ZM21.047 9.54031L19.9965 9.22039V13.9932H21.047V9.54031ZM22.0984 13.993H23V8.84846L22.0984 8.48271V13.993ZM13.9829 16.1946V19.4802L22.9655 17.2073V15.2828L13.9829 16.1946ZM13.9829 21.756V25.0001L22.9998 20.4237V18.5285L13.9829 21.756Z" fill="#979797" fill-opacity="0.6"/>
<path d="M5.00406 20.4433L13.983 25.0001V21.7321L5.00452 18.5282L5.00406 20.4433ZM5 17.2072L13.983 19.4801V16.1946L5 15.2825V17.2072Z" fill="#979797"/>
</svg>
