<svg width="28" height="28" viewBox="0 0 28 28" fill="none" xmlns="http://www.w3.org/2000/svg">
<path fill-rule="evenodd" clip-rule="evenodd" d="M22.6998 10.0477H21.0509C20.885 10.0477 20.7505 9.91317 20.7505 9.74723V7.52146C20.7505 7.35552 20.6159 7.221 20.45 7.221H18.253C18.0871 7.221 17.9526 7.08648 17.9526 6.92055V5.30046C17.9526 5.13452 18.0871 5 18.253 5H22.6998C22.8657 5 23.0003 5.13452 23.0003 5.30046V9.74723C23.0003 9.91317 22.8657 10.0477 22.6998 10.0477ZM13.9256 8.78699C14.1652 8.48094 14.308 8.09551 14.308 7.67671C14.308 6.68108 13.5009 5.87396 12.5052 5.87396C11.5096 5.87396 10.7025 6.68108 10.7025 7.67671C10.7025 8.67235 11.5096 9.47947 12.5052 9.47947C12.7189 9.47947 12.9239 9.44228 13.1142 9.37403L14.9482 11.9405C14.6632 12.2425 14.4645 12.627 14.3919 13.0543L9.06334 13.4758C8.8388 13.0403 8.3846 12.7425 7.86084 12.7425C7.11411 12.7425 6.50877 13.3478 6.50877 14.0946C6.50877 14.8413 7.11411 15.4466 7.86084 15.4466C8.47623 15.4466 8.99561 15.0355 9.15925 14.4729L14.457 14.0538C14.5622 14.3942 14.7496 14.6985 14.9961 14.9435L13.5895 17.1329L13.5632 17.1326C12.8165 17.1326 12.2111 17.738 12.2111 18.4847C12.2111 19.2314 12.8165 19.8368 13.5632 19.8368C14.3099 19.8368 14.9152 19.2314 14.9152 18.4847C14.9152 18.1133 14.7655 17.7769 14.5231 17.5325L15.8511 15.4655C16.0597 15.5329 16.2822 15.5693 16.5132 15.5693C16.759 15.5693 16.9952 15.5281 17.2153 15.4522L18.9405 18.428C18.634 18.7291 18.4439 19.1483 18.4439 19.612C18.4439 20.5286 19.1869 21.2716 20.1035 21.2716C21.0201 21.2716 21.7632 20.5286 21.7632 19.612C21.7632 18.6954 21.0201 17.9523 20.1035 17.9523C20.0121 17.9523 19.9224 17.9597 19.835 17.974L18.0604 14.9131C18.4347 14.5259 18.6651 13.9986 18.6651 13.4175C18.6651 12.229 17.7017 11.2656 16.5132 11.2656C16.2583 11.2656 16.0137 11.3099 15.7867 11.3913L13.9256 8.78699ZM6.94933 17.9523H5.30046C5.13452 17.9523 5 18.0868 5 18.2528L5 22.6995C5 22.8655 5.13452 23 5.30046 23H9.74723C9.91317 23 10.0477 22.8655 10.0477 22.6995V21.0795C10.0477 20.9135 9.91317 20.779 9.74723 20.779H7.55025C7.38431 20.779 7.24979 20.6445 7.24979 20.4785L7.24979 18.2528C7.24979 18.0868 7.11527 17.9523 6.94933 17.9523Z" fill="#979797"/>
</svg>
