<svg width="28" height="28" viewBox="0 0 28 28" fill="none" xmlns="http://www.w3.org/2000/svg">
<path fill-rule="evenodd" clip-rule="evenodd" d="M6.25763 9.60003H8.1433C8.28532 9.60003 8.40045 9.4849 8.40045 9.34289V8.2572C8.40045 8.11518 8.51557 8.00006 8.65759 8.00006H19.3431C19.4851 8.00006 19.6003 8.11518 19.6003 8.2572V9.34289C19.6003 9.4849 19.7154 9.60003 19.8574 9.60003H21.7431C21.8851 9.60003 22.0002 9.4849 22.0002 9.34289V5.85724C22.0002 5.71522 21.8851 5.6001 21.7431 5.6001H6.25763C6.11562 5.6001 6.00049 5.71522 6.00049 5.85724V9.34289C6.00049 9.4849 6.11562 9.60003 6.25763 9.60003ZM6.25763 18.3999H8.1433C8.28532 18.3999 8.40045 18.515 8.40045 18.657V19.7427C8.40045 19.8847 8.51557 19.9998 8.65759 19.9998H19.3431C19.4851 19.9998 19.6003 19.8847 19.6003 19.7427V18.657C19.6003 18.515 19.7154 18.3999 19.8574 18.3999H21.7431C21.8851 18.3999 22.0002 18.515 22.0002 18.657V22.1427C22.0002 22.2847 21.8851 22.3998 21.7431 22.3998H6.25763C6.11562 22.3998 6.00049 22.2847 6.00049 22.1427V18.657C6.00049 18.515 6.11562 18.3999 6.25763 18.3999ZM9.335 9.67926C9.335 9.53724 9.45013 9.42212 9.59214 9.42212H11.8482C11.9903 9.42212 12.1054 9.53724 12.1054 9.67926V11.3249C12.1054 11.467 11.9903 11.5821 11.8482 11.5821H9.59214C9.45013 11.5821 9.335 11.467 9.335 11.3249V9.67926ZM9.59197 12.7637C9.44996 12.7637 9.33483 12.8789 9.33483 13.0209V14.6666C9.33483 14.8086 9.44996 14.9237 9.59197 14.9237H11.8481C11.9901 14.9237 12.1052 14.8086 12.1052 14.6666V13.0209C12.1052 12.8789 11.9901 12.7637 11.8481 12.7637H9.59197ZM9.33483 16.2575C9.33483 16.1155 9.44996 16.0004 9.59197 16.0004H11.8481C11.9901 16.0004 12.1052 16.1155 12.1052 16.2575V17.9032C12.1052 18.0452 11.9901 18.1603 11.8481 18.1603H9.59197C9.44996 18.1603 9.33483 18.0452 9.33483 17.9032V16.2575ZM13.4569 11.1637C13.3149 11.1637 13.1998 11.2788 13.1998 11.4208V13.0665C13.1998 13.2085 13.3149 13.3237 13.4569 13.3237H15.713C15.8551 13.3237 15.9702 13.2085 15.9702 13.0665V11.4208C15.9702 11.2788 15.8551 11.1637 15.713 11.1637H13.4569ZM13.1998 14.6208C13.1998 14.4788 13.3149 14.3637 13.4569 14.3637H15.713C15.8551 14.3637 15.9702 14.4788 15.9702 14.6208V16.2665C15.9702 16.4085 15.8551 16.5236 15.713 16.5236H13.4569C13.3149 16.5236 13.1998 16.4085 13.1998 16.2665V14.6208ZM17.3228 12.7637C17.1808 12.7637 17.0657 12.8789 17.0657 13.0209V14.6666C17.0657 14.8086 17.1808 14.9237 17.3228 14.9237H19.5789C19.7209 14.9237 19.8361 14.8086 19.8361 14.6666V13.0209C19.8361 12.8789 19.7209 12.7637 19.5789 12.7637H17.3228Z" fill="#979797"/>
</svg>
