<svg width="28" height="28" viewBox="0 0 28 28" fill="none" xmlns="http://www.w3.org/2000/svg">
<path fill-rule="evenodd" clip-rule="evenodd" d="M6.25763 9.60009H8.1433C8.28532 9.60009 8.40045 9.48496 8.40045 9.34295V8.25726C8.40045 8.11524 8.51557 8.00012 8.65759 8.00012H19.3431C19.4851 8.00012 19.6003 8.11524 19.6003 8.25726V9.34295C19.6003 9.48496 19.7154 9.60009 19.8574 9.60009H21.7431C21.8851 9.60009 22.0002 9.48496 22.0002 9.34295V5.8573C22.0002 5.71529 21.8851 5.60016 21.7431 5.60016H6.25763C6.11562 5.60016 6.00049 5.71529 6.00049 5.8573V9.34295C6.00049 9.48496 6.11562 9.60009 6.25763 9.60009ZM6.25763 18.3999H8.1433C8.28532 18.3999 8.40045 18.5151 8.40045 18.6571V19.7428C8.40045 19.8848 8.51557 19.9999 8.65759 19.9999H19.3431C19.4851 19.9999 19.6003 19.8848 19.6003 19.7428V18.6571C19.6003 18.5151 19.7154 18.3999 19.8574 18.3999H21.7431C21.8851 18.3999 22.0002 18.5151 22.0002 18.6571V22.1427C22.0002 22.2847 21.8851 22.3999 21.7431 22.3999H6.25763C6.11562 22.3999 6.00049 22.2847 6.00049 22.1427V18.6571C6.00049 18.5151 6.11562 18.3999 6.25763 18.3999Z" fill="#979797"/>
<path d="M10 18V12.7826L14 15.5652L10 18Z" fill="#C4C4C4"/>
<path d="M18 18V12.7826L14 15.5652L18 18Z" fill="#C4C4C4"/>
<path d="M14 15.5652L10 12.7826L14 10L18 12.7826L14 15.5652Z" fill="#979797"/>
<path d="M18 18H10L14 15.5652L18 18Z" fill="#B2B2B2"/>
</svg>
