<svg width="28" height="28" fill="none" xmlns="http://www.w3.org/2000/svg"><mask id="a" style="mask-type:alpha" maskUnits="userSpaceOnUse" x="2" y="4" width="24" height="19"><path d="M10.66 22.27V17.64h5.186v4.628H26V4.731H2v17.538h8.66Z" fill="#000"/></mask><g mask="url(#a)"><mask id="b" fill="#fff"><path fill-rule="evenodd" clip-rule="evenodd" d="M20.442 20.982a4.5 4.5 0 0 0 1.402-8.604 4.614 4.614 0 0 0-4.212-4.022 4.85 4.85 0 0 0-4.118-2.275c-2.677 0-4.847 2.159-4.847 4.822 0 .358.039.708.113 1.044a4.672 4.672 0 0 0-.695-.052c-2.552 0-4.621 2.058-4.621 4.597 0 2.539 2.069 4.597 4.621 4.597a4.62 4.62 0 0 0 3.445-1.532H12V21h8.442v-.018Z"/></mask><path d="m20.442 20.982-.116-1.295a1.3 1.3 0 0 0-1.184 1.295h1.3Zm1.402-8.604-1.29.158a1.3 1.3 0 0 0 .767 1.032l.523-1.19Zm-4.212-4.022-1.102.69a1.3 1.3 0 0 0 .998.606l.104-1.296Zm-8.852 3.59-.193 1.286a1.3 1.3 0 0 0 1.463-1.567l-1.27.282Zm2.75 7.61v-1.3a1.3 1.3 0 0 0-.967.431l.967.87Zm.47 0h1.3a1.3 1.3 0 0 0-1.3-1.3v1.3ZM12 21h-1.3a1.3 1.3 0 0 0 1.3 1.3V21Zm8.442 0v1.3a1.3 1.3 0 0 0 1.3-1.3h-1.3Zm.116 1.277a5.8 5.8 0 0 0 5.278-5.777h-2.6a3.2 3.2 0 0 1-2.91 3.187l.232 2.59Zm5.278-5.777a5.801 5.801 0 0 0-3.469-5.312l-1.046 2.38a3.201 3.201 0 0 1 1.915 2.932h2.6Zm-2.701-4.28a5.914 5.914 0 0 0-5.4-5.16l-.207 2.592a3.314 3.314 0 0 1 3.026 2.884l2.58-.316Zm-4.402-4.554a6.15 6.15 0 0 0-5.219-2.885v2.6a3.55 3.55 0 0 1 3.016 1.665l2.203-1.38Zm-5.219-2.885c-3.388 0-6.147 2.734-6.147 6.122h2.6c0-1.939 1.582-3.522 3.547-3.522v-2.6Zm-6.147 6.122c0 .454.05.897.144 1.325l2.538-.563a3.514 3.514 0 0 1-.082-.762h-2.6Zm1.606-.242a5.98 5.98 0 0 0-.888-.066v2.6c.172 0 .34.013.502.037l.386-2.571Zm-.888-.066c-3.264 0-5.921 2.634-5.921 5.897h2.6c0-1.815 1.48-3.297 3.321-3.297v-2.6Zm-5.921 5.897c0 3.263 2.657 5.897 5.921 5.897v-2.6c-1.84 0-3.321-1.483-3.321-3.297h-2.6Zm5.921 5.897a5.92 5.92 0 0 0 4.411-1.963l-1.933-1.739a3.32 3.32 0 0 1-2.478 1.102v2.6Zm3.445-1.532H12v-2.6h-.47v2.6ZM13.3 21v-1.444h-2.6V21h2.6Zm7.142-1.3H12v2.6h8.442v-2.6Zm-1.3 1.282V21h2.6v-.018h-2.6Z" fill="#979797" mask="url(#b)"/></g><circle cx="14.856" cy="20.4" r="1" stroke="#979797" stroke-width=".955"/><path d="m14.856 15.464-4.679 4.354" stroke="#979797" stroke-width="1.3"/><circle cx="15.8" cy="14.512" r="1" stroke="#979797" stroke-width=".955"/><mask id="c" fill="#fff"><path d="M19.065 14.206c.348-.038.604-.352.513-.69a4.067 4.067 0 0 0-2.414-2.718c-.325-.13-.668.087-.746.428-.078.341.14.675.455.828a2.798 2.798 0 0 1 1.424 1.603c.114.33.42.586.768.549Z"/></mask><path d="M19.065 14.206c.348-.038.604-.352.513-.69a4.067 4.067 0 0 0-2.414-2.718c-.325-.13-.668.087-.746.428-.078.341.14.675.455.828a2.798 2.798 0 0 1 1.424 1.603c.114.33.42.586.768.549Z" stroke="#979797" stroke-width="4" mask="url(#c)"/><path d="M23.504 12.762c.327.049.636-.177.651-.508a5.716 5.716 0 0 0-1.63-4.27 5.766 5.766 0 0 0-4.254-1.73c-.33.007-.563.31-.522.637.041.328.34.557.671.559a4.59 4.59 0 0 1 3.243 1.37 4.534 4.534 0 0 1 1.295 3.253c-.006.332.217.64.546.689Z" fill="#979797"/></svg>