<svg width="28" height="28" viewBox="0 0 28 28" fill="none" xmlns="http://www.w3.org/2000/svg">
<path d="M5.82886 14.6057L7.10382 15.0099C6.90835 15.7207 6.58258 16.2494 6.1265 16.5959C5.67337 16.9394 5.09735 17.1112 4.39841 17.1112C3.53363 17.1112 2.82285 16.8165 2.26608 16.2271C1.7093 15.6348 1.43091 14.8263 1.43091 13.8016C1.43091 12.7177 1.71078 11.8766 2.27052 11.2783C2.83026 10.6771 3.56621 10.3765 4.47838 10.3765C5.27504 10.3765 5.92215 10.612 6.41969 11.0829C6.71585 11.3613 6.93797 11.7611 7.08605 12.2823L5.78443 12.5933C5.70743 12.2557 5.54603 11.9891 5.30021 11.7937C5.05737 11.5982 4.76121 11.5005 4.41174 11.5005C3.929 11.5005 3.53659 11.6737 3.23451 12.0202C2.93539 12.3667 2.78583 12.9279 2.78583 13.7039C2.78583 14.5272 2.93391 15.1136 3.23007 15.4631C3.52623 15.8125 3.91123 15.9873 4.38509 15.9873C4.73455 15.9873 5.03515 15.8762 5.28689 15.6541C5.53862 15.432 5.71928 15.0825 5.82886 14.6057ZM8.10145 14.5746C8.10145 14.16 8.20362 13.7587 8.40797 13.3707C8.61232 12.9827 8.90107 12.6866 9.27423 12.4822C9.65035 12.2779 10.0694 12.1757 10.5314 12.1757C11.2452 12.1757 11.8301 12.4082 12.2862 12.8732C12.7422 13.3352 12.9703 13.9201 12.9703 14.6279C12.9703 15.3416 12.7393 15.934 12.2773 16.4048C11.8182 16.8728 11.2392 17.1067 10.5403 17.1067C10.1079 17.1067 9.69478 17.009 9.30089 16.8135C8.90996 16.6181 8.61232 16.3323 8.40797 15.9562C8.20362 15.5771 8.10145 15.1166 8.10145 14.5746ZM9.38085 14.6412C9.38085 15.1092 9.49191 15.4675 9.71403 15.7163C9.93615 15.965 10.2101 16.0894 10.5359 16.0894C10.8616 16.0894 11.1341 15.965 11.3533 15.7163C11.5754 15.4675 11.6864 15.1062 11.6864 14.6323C11.6864 14.1703 11.5754 13.8149 11.3533 13.5662C11.1341 13.3174 10.8616 13.193 10.5359 13.193C10.2101 13.193 9.93615 13.3174 9.71403 13.5662C9.49191 13.8149 9.38085 14.1733 9.38085 14.6412ZM19.9962 17.0001H18.5658L17.9971 15.5208H15.3939L14.8564 17.0001H13.4615L15.9981 10.4876H17.3885L19.9962 17.0001ZM17.5751 14.4235L16.6778 12.0069L15.7982 14.4235H17.5751ZM20.8606 17.0001V10.4876H22.9707C23.7703 10.4876 24.2916 10.5202 24.5344 10.5853C24.9076 10.6831 25.22 10.8963 25.4717 11.225C25.7235 11.5508 25.8494 11.9728 25.8494 12.4911C25.8494 12.8909 25.7768 13.2271 25.6317 13.4995C25.4866 13.772 25.3015 13.9867 25.0764 14.1437C24.8543 14.2977 24.6277 14.3999 24.3967 14.4502C24.0828 14.5124 23.6282 14.5435 23.0329 14.5435H22.1755V17.0001H20.8606ZM22.1755 11.5893V13.4373H22.8952C23.4135 13.4373 23.76 13.4033 23.9347 13.3352C24.1094 13.2671 24.2457 13.1604 24.3434 13.0153C24.4441 12.8702 24.4944 12.7014 24.4944 12.5089C24.4944 12.272 24.4248 12.0765 24.2856 11.9225C24.1464 11.7685 23.9702 11.6722 23.757 11.6337C23.6 11.6041 23.2846 11.5893 22.8108 11.5893H22.1755Z" fill="#979797"/>
</svg>
