<svg width="28" height="28" viewBox="0 0 28 28" fill="none" xmlns="http://www.w3.org/2000/svg">
<path fill-rule="evenodd" clip-rule="evenodd" d="M13.8154 7.99994C13.4427 8.91235 12.5465 9.5553 11.5 9.5553C10.4475 9.5553 9.54692 8.90491 9.17823 7.98411C9.12039 7.99451 9.06083 7.99994 9 7.99994H5C4.44772 7.99994 4 7.55223 4 6.99994C4 6.44766 4.44772 5.99994 5 5.99994H9C9.07618 5.99994 9.15038 6.00846 9.22168 6.0246C9.61431 5.15808 10.4868 4.5553 11.5 4.5553C12.5036 4.5553 13.3691 5.14666 13.767 5.99994H23C23.5523 5.99994 24 6.44766 24 6.99994C24 7.55223 23.5523 7.99994 23 7.99994H13.8154ZM5 12.9999C4.44772 12.9999 4 13.4477 4 13.9999C4 14.5522 4.44772 14.9999 5 14.9999H17C17.0608 14.9999 17.1204 14.9945 17.1782 14.9841C17.5469 15.9049 18.4475 16.5553 19.5 16.5553C20.5465 16.5553 21.4427 15.9124 21.8154 14.9999H23C23.5523 14.9999 24 14.5522 24 13.9999C24 13.4477 23.5523 12.9999 23 12.9999H21.767C21.3691 12.1467 20.5036 11.5553 19.5 11.5553C18.4868 11.5553 17.6143 12.1581 17.2217 13.0246C17.1504 13.0085 17.0762 12.9999 17 12.9999H5ZM5 19.9999C4.44772 19.9999 4 20.4477 4 20.9999C4 21.5522 4.44772 21.9999 5 21.9999H6.18463C6.55727 22.9124 7.45355 23.5553 8.5 23.5553C9.5525 23.5553 10.4531 22.9049 10.8218 21.9841C10.8796 21.9945 10.9392 21.9999 11 21.9999H23C23.5523 21.9999 24 21.5522 24 20.9999C24 20.4477 23.5523 19.9999 23 19.9999H11C10.9238 19.9999 10.8496 20.0085 10.7783 20.0246C10.3857 19.1581 9.51324 18.5553 8.5 18.5553C7.4964 18.5553 6.63092 19.1467 6.23302 19.9999H5Z" fill="#979797"/>
</svg>
