<svg width="28" height="28" fill="none" xmlns="http://www.w3.org/2000/svg"><path d="M2.68 10.177V17H1.501v-6.823h1.177Zm-.187 4.246h-.347c0-.334.045-.642.133-.924a2.29 2.29 0 0 1 .378-.733 1.73 1.73 0 0 1 .582-.488c.228-.116.48-.174.755-.174.237 0 .452.035.644.103.196.065.363.17.502.315.14.145.246.335.32.569.077.23.116.512.116.844V17H4.394v-3.074c0-.222-.033-.397-.098-.524a.584.584 0 0 0-.28-.28 1.021 1.021 0 0 0-.44-.085c-.189 0-.352.037-.488.111a.932.932 0 0 0-.338.298 1.451 1.451 0 0 0-.195.44 2.212 2.212 0 0 0-.062.537Zm6.555-2.23v.844H6.293v-.844h2.755ZM7.03 11.012h1.177v4.602c0 .142.02.252.058.329a.298.298 0 0 0 .173.155c.077.027.169.04.275.04.077 0 .149-.004.214-.013s.12-.018.164-.027l.005.88a2.476 2.476 0 0 1-.746.111c-.264 0-.495-.045-.694-.133a.99.99 0 0 1-.462-.44c-.11-.205-.164-.474-.164-.809v-4.695Zm5.236 1.181v.844H9.512v-.844h2.755Zm-2.017-1.181h1.177v4.602c0 .142.02.252.058.329a.298.298 0 0 0 .173.155c.077.027.169.04.275.04.077 0 .148-.004.213-.013a2.75 2.75 0 0 0 .165-.027l.004.88c-.097.032-.208.059-.333.08-.121.02-.259.03-.413.03-.264 0-.495-.044-.693-.132a.99.99 0 0 1-.462-.44c-.11-.205-.164-.474-.164-.809v-4.695Zm4.134 2.105v5.731h-1.178v-6.655h1.089l.089.924Zm3.087 1.43v.094c0 .35-.041.674-.124.973-.08.296-.199.555-.356.777-.157.22-.352.391-.586.516a1.694 1.694 0 0 1-.8.182 1.67 1.67 0 0 1-.773-.169 1.592 1.592 0 0 1-.555-.489 2.69 2.69 0 0 1-.364-.733 5.464 5.464 0 0 1-.2-.92v-.297c.044-.352.11-.672.2-.96.091-.29.213-.54.364-.75.151-.213.335-.378.55-.493.22-.116.476-.174.77-.174.304 0 .572.058.803.174.234.115.431.281.591.497.16.216.28.474.36.773.08.3.12.633.12 1Zm-1.177.094v-.093c0-.213-.02-.41-.058-.591a1.586 1.586 0 0 0-.178-.48.886.886 0 0 0-.31-.324.877.877 0 0 0-.463-.116c-.18 0-.336.03-.466.09a.817.817 0 0 0-.32.252c-.083.11-.148.24-.195.391a2.4 2.4 0 0 0-.09.494V15c.027.22.08.416.156.59a.98.98 0 0 0 .338.418c.15.104.346.156.586.156.18 0 .335-.04.462-.12a.924.924 0 0 0 .311-.329c.08-.142.138-.305.174-.489.035-.183.053-.379.053-.586Zm2.223 1.786a.61.61 0 0 1 .183-.449c.121-.121.285-.182.493-.182.207 0 .371.06.493.182a.61.61 0 0 1 .182.449c0 .175-.06.323-.182.444-.122.119-.286.178-.493.178-.208 0-.372-.06-.493-.178a.604.604 0 0 1-.183-.444Zm.005-3.727a.61.61 0 0 1 .182-.449c.122-.121.286-.182.493-.182.207 0 .372.06.493.182a.61.61 0 0 1 .182.449c0 .175-.06.323-.182.444-.121.118-.286.178-.493.178-.207 0-.371-.06-.493-.178a.604.604 0 0 1-.182-.444Zm5.391-2.168-2.443 7.023h-.893l2.443-7.023h.893Zm2.58 0-2.444 7.023h-.893l2.443-7.023h.893Z" fill="#979797"/></svg>