<svg width="28" height="28" viewBox="0 0 28 28" fill="none" xmlns="http://www.w3.org/2000/svg">
<path fill-rule="evenodd" clip-rule="evenodd" d="M7.00438 11.6521H8.20275C8.20275 9.82606 9.13055 6.17391 13.1251 6.17391V19.4782C13.1251 19.8695 12.5968 21.0434 11.7979 21.4347C11.6997 21.4828 11.6169 21.525 11.5444 21.562L11.5443 21.562C11.3878 21.6418 11.2786 21.6975 11.1637 21.7363C10.8985 21.826 10.6029 21.826 9.62512 21.826V22.9999H13.9997V23H18.3748V21.8261C17.397 21.8261 17.1015 21.8261 16.8363 21.7364C16.7215 21.6976 16.6124 21.6419 16.4559 21.5622C16.3833 21.5252 16.3005 21.4829 16.2022 21.4348C15.4033 21.0435 14.8747 19.8696 14.8747 19.4783V6.17401C18.8693 6.17401 19.7973 9.82617 19.7973 11.6522H20.9957V5.00011H14.0002V5H7.00438V11.6521ZM17.5 13.5714H21V16.4648H17.5V13.5714ZM10.5 13.5714H7V16.4039H10.5V13.5714Z" fill="#979797"/>
</svg>
