<svg width="28" height="28" viewBox="0 0 28 28" fill="none" xmlns="http://www.w3.org/2000/svg">
<g clip-path="url(#clip0_3164_138733)">
<path d="M17.7446 15.1215C16.9235 15.1215 16.1873 15.4835 15.6832 16.0534L14.3914 15.1434C14.5286 14.7678 14.6073 14.3644 14.6073 13.9422C14.6073 13.5272 14.5313 13.1306 14.3987 12.7605L15.6876 11.8602C16.1916 12.4272 16.9258 12.7873 17.7446 12.7873C19.2602 12.7873 20.4934 11.5603 20.4934 10.052C20.4934 8.54369 19.2602 7.31675 17.7446 7.31675C16.229 7.31675 14.9958 8.54369 14.9958 10.052C14.9958 10.322 15.0368 10.5823 15.1103 10.8288L13.8206 11.7296C13.2819 11.0645 12.5061 10.6002 11.6223 10.4584V8.91169C12.8674 8.65146 13.8056 7.55063 13.8056 6.23525C13.8056 4.72694 12.5724 3.5 11.0568 3.5C9.54125 3.5 8.30804 4.72694 8.30804 6.23525C8.30804 7.53301 9.2219 8.62027 10.4421 8.89907V10.4659C8.77684 10.7568 7.50635 12.2029 7.50635 13.9422C7.50635 15.6898 8.78942 17.1413 10.4667 17.4223V19.0768C9.23403 19.3464 8.30804 20.4403 8.30804 21.7469C8.30804 23.2552 9.54125 24.4821 11.0568 24.4821C12.5724 24.4821 13.8056 23.2552 13.8056 21.7469C13.8056 20.4403 12.8796 19.3464 11.6469 19.0768V17.4222C12.4959 17.2799 13.2639 16.8354 13.808 16.1715L15.1084 17.0874C15.0362 17.3317 14.9958 17.5895 14.9958 17.8567C14.9958 19.365 16.229 20.592 17.7446 20.592C19.2602 20.592 20.4934 19.365 20.4934 17.8567C20.4934 16.3484 19.2602 15.1215 17.7446 15.1215ZM17.7446 8.72582C18.4795 8.72582 19.0773 9.32089 19.0773 10.052C19.0773 10.7831 18.4795 11.3781 17.7446 11.3781C17.0096 11.3781 16.4119 10.7831 16.4119 10.052C16.4119 9.32089 17.0096 8.72582 17.7446 8.72582ZM9.72408 6.23525C9.72408 5.50414 10.3219 4.90912 11.0568 4.90912C11.7918 4.90912 12.3895 5.50414 12.3895 6.23525C12.3895 6.96636 11.7918 7.56138 11.0568 7.56138C10.3219 7.56138 9.72408 6.96636 9.72408 6.23525ZM12.3895 21.7469C12.3895 22.478 11.7918 23.073 11.0568 23.073C10.3219 23.073 9.72408 22.478 9.72408 21.7469C9.72408 21.0158 10.3219 20.4207 11.0568 20.4207C11.7918 20.4207 12.3895 21.0158 12.3895 21.7469ZM11.0567 15.7917C10.0317 15.7917 9.19786 14.9621 9.19786 13.9422C9.19786 12.9222 10.0317 12.0924 11.0567 12.0924C12.0817 12.0924 12.9155 12.9222 12.9155 13.9422C12.9155 14.9621 12.0817 15.7917 11.0567 15.7917ZM17.7446 19.1829C17.0096 19.1829 16.4119 18.5878 16.4119 17.8567C16.4119 17.1256 17.0096 16.5306 17.7446 16.5306C18.4795 16.5306 19.0773 17.1256 19.0773 17.8567C19.0773 18.5878 18.4795 19.1829 17.7446 19.1829Z" fill="#979797"/>
</g>
<defs>
<clipPath id="clip0_3164_138733">
<rect width="13" height="21" fill="white" transform="translate(7.5 3.5)"/>
</clipPath>
</defs>
</svg>
