<svg width="72" height="72" version="1.0" viewBox="0 0 72 72" xmlns="http://www.w3.org/2000/svg">
  <g fill="#979797">
    <path d="m18 8c-4.1 4.4-5.7 12.7-3.9 20 0.9 3.6 1.9 5.5 2.9 5.5 0.8 0 1.3-0.7 1.2-1.5-1-4.2-1.4-12.2-0.8-15.5 0.9-4.7 4.6-8.5 8.3-8.5 4.6 0 12.6 4.4 17 9.4 2.2 2.5 4.8 4.6 5.7 4.6 4.5 0-6.1-11.6-13.8-15.1-2.2-1-6.3-1.9-8.9-1.9-4.2 0-5.3 0.5-7.7 3z"/>
    <path d="m34.3 22.6c-0.3 0.8 0.1 2.2 0.9 3 1.3 1.3 1.6 1.3 2.8 0 1-1.3 1-1.9 0-3.1-1.6-1.9-2.9-1.9-3.7 0.1z"/>
    <path d="m48 27c0 1.7 0.7 2 4.1 2 3.1 0 4.7 0.6 7 2.9 1.6 1.6 2.9 3.7 2.9 4.6 0 2.3-6.9 22.5-8.6 25.2-1.6 2.5-4.4 2.9-7.5 1.3-1.1-0.7-2.6-0.7-3.5-0.2-1.3 0.7-1.1 1.1 1.1 2.6 4.9 3.2 10.9 2 13.3-2.6 2.8-5.5 8.2-22.6 8.2-26 0-6.5-6.6-11.8-14.7-11.8-1.6 0-2.3 0.6-2.3 2z"/>
    <path d="m27.8 31.5c-1 2.2-0.8 3.3 1 7 1.5 3.2 2.8 4.5 4.2 4.5 1.9 0 2-0.1 0.5-3-2-3.8-2-8 0-8 0.8 0 1.5-0.7 1.5-1.5 0-1-1-1.5-3-1.5-2.3 0-3.3 0.6-4.2 2.5z"/>
    <path d="m38 30.1c0 0.7 0.8 1.8 1.7 2.5 1.8 1.3 1.8 1.4-1.2 8.6-0.5 1.4-0.2 1.8 1.2 1.8 3.9 0 7-9.9 4.1-12.8-1.5-1.5-5.8-1.6-5.8-0.1z"/>
    <path d="m9.7 34.8c-0.9 1-2.2 3.3-2.8 5-2.4 6.9 5.8 16.5 16.9 19.8 7.2 2.2 17.8 1.6 16.9-1-0.2-0.7-3.2-1.1-7.4-1.2-5.6 0-8.2-0.6-12.7-2.8-9.1-4.4-13.2-12.1-9-16.7 1.1-1.2 1.3-2.3 0.7-3.4-0.8-1.4-1.1-1.4-2.6 0.3z"/>
    <path d="m21.2 35.2c-2.8 2.8 0 8.8 4.1 8.8 2.3 0 2.1-1.3-0.3-3.5-1.4-1.3-1.7-2.2-1-2.9 1.4-1.4 1.3-3.6-0.3-3.6-0.7 0-1.8 0.5-2.5 1.2z"/>
    <path d="m48.4 36.6c0.5 2 0.1 3.3-1.5 5-2.2 2.3-2.2 2.4-0.2 2.4 2.2 0 6.3-3.9 6.3-6.1 0-1.9-2-3.9-3.8-3.9-1 0-1.2 0.7-0.8 2.6z"/>
    <path d="m28.8 46.7c-1 0.2-1.8 1-1.8 1.7 0 0.9 2.6 1.2 9.5 1.3 6.9 0 9.5-0.3 9.5-1.2 0-0.7-1-1.5-2.2-1.9-2.6-0.6-12.4-0.6-15 0.1z"/>
  </g>
</svg>
