<svg width="28" height="28" viewBox="0 0 28 28" fill="none" xmlns="http://www.w3.org/2000/svg">
<g clip-path="url(#clip0_3092_173301)">
<path fill-rule="evenodd" clip-rule="evenodd" d="M29 22.5C29 35.4787 18.4787 46 5.5 46C-7.47869 46 -18 35.4787 -18 22.5C-18 9.52131 -7.47869 -1 5.5 -1C18.4787 -1 29 9.52131 29 22.5ZM25.746 22.5714C25.746 33.7924 16.6495 42.8888 5.42851 42.8888C-5.79251 42.8888 -14.889 33.7924 -14.889 22.5714C-14.889 11.3503 -5.79251 2.25391 5.42851 2.25391C16.6495 2.25391 25.746 11.3503 25.746 22.5714ZM23.2068 22.5714C23.2068 32.3898 15.2474 40.3492 5.429 40.3492C-4.38939 40.3492 -12.3488 32.3898 -12.3488 22.5714C-12.3488 12.753 -4.38939 4.79367 5.429 4.79367C15.2474 4.79367 23.2068 12.753 23.2068 22.5714ZM20.6663 22.5713C20.6663 30.9871 13.844 37.8094 5.42825 37.8094C-2.98752 37.8094 -9.80985 30.9871 -9.80985 22.5713C-9.80985 14.1556 -2.98752 7.33325 5.42825 7.33325C13.844 7.33325 20.6663 14.1556 20.6663 22.5713ZM5.42833 35.2697C12.4415 35.2697 18.1267 29.5845 18.1267 22.5713C18.1267 15.5582 12.4415 9.87291 5.42833 9.87291C-1.58482 9.87291 -7.27009 15.5582 -7.27009 22.5713C-7.27009 29.5845 -1.58482 35.2697 5.42833 35.2697ZM5.42875 32.7302C11.0393 32.7302 15.5875 28.182 15.5875 22.5715C15.5875 16.961 11.0393 12.4128 5.42875 12.4128C-0.181763 12.4128 -4.72998 16.961 -4.72998 22.5715C-4.72998 28.182 -0.181763 32.7302 5.42875 32.7302ZM5.42876 30.1905C9.63664 30.1905 13.0478 26.7794 13.0478 22.5715C13.0478 18.3636 9.63664 14.9524 5.42876 14.9524C1.22087 14.9524 -2.19029 18.3636 -2.19029 22.5715C-2.19029 26.7794 1.22087 30.1905 5.42876 30.1905Z" fill="#979797"/>
</g>
<defs>
<clipPath id="clip0_3092_173301">
<rect x="6" y="6" width="16" height="16" rx="2" fill="white"/>
</clipPath>
</defs>
</svg>
