<svg width="28" height="28" fill="none" xmlns="http://www.w3.org/2000/svg"><path fill-rule="evenodd" clip-rule="evenodd" d="M3 13.437c0-2.08.808-3.417 1.87-4.248 1.082-.846 2.467-1.194 3.63-1.194 2.307 0 4.195 1.39 5.156 2.342l.001.001 4.054 3.997.118.118c.236.237.572.575.954.863.447.337 1.034.667 1.697.667.62 0 1.255-.226 1.735-.718.483-.494.77-1.216.77-2.136 0-1.05-.628-1.738-1.38-2.071-.726-.323-1.614-.342-2.294-.065a.5.5 0 1 0 .378.926c.413-.169 1.018-.166 1.51.053.468.207.785.58.785 1.157 0 .707-.215 1.162-.485 1.438a1.41 1.41 0 0 1-1.02.416c-.337 0-.708-.175-1.095-.466-.32-.24-.597-.52-.834-.758l-.136-.135-4.054-3.997C13.32 8.597 11.193 6.994 8.5 6.994c-1.337 0-2.952.395-4.245 1.406C2.942 9.427 2 11.06 2 13.437c0 2.398 1.212 4.547 3.186 5.693 1.986 1.152 4.673 1.253 7.552-.302a.5.5 0 1 0-.476-.88c-2.62 1.416-4.934 1.27-6.573.317C4.037 17.307 3 15.495 3 13.437ZM16.903 7.79c.811-.402 2.012-.795 3.597-.795 3.244 0 6.5 2.669 6.5 6.442 0 3.877-3.262 6.441-6.5 6.441-1.804 0-3.155-.94-3.584-1.278-.07-.055-.143-.117-.206-.17a12.262 12.262 0 0 0-.074-.063l-5.456-4.546-.017-.014-.015-.015c-.506-.502-.98-.97-1.446-1.315-.471-.35-.864-.52-1.202-.52-.34 0-.719.172-1.023.473-.305.302-.477.676-.477 1.007 0 .42.107.786.32 1.04.2.237.549.44 1.18.44a.5.5 0 0 1 0 1c-.869 0-1.52-.292-1.945-.797C6.143 14.631 6 14.007 6 13.437c0-.66.328-1.276.773-1.717.446-.442 1.066-.764 1.727-.764.662 0 1.27.325 1.798.718.529.392 1.05.908 1.539 1.392l5.439 4.533.097.082c.056.047.106.09.162.133.364.287 1.495 1.064 2.965 1.064 2.762 0 5.5-2.189 5.5-5.441 0-3.16-2.744-5.442-5.5-5.442-1.415 0-2.464.35-3.153.69-.346.172-.601.341-.768.465a3.133 3.133 0 0 0-.221.18l-.007.007a.5.5 0 0 1-.703-.712l.352.356-.351-.356v-.001l.003-.003.006-.006.02-.018.065-.058c.056-.048.136-.114.24-.192.209-.155.515-.357.92-.557Zm2.634 1.25c.362-.079.663-.076.982-.064C23.206 9.079 25 11.2 25 13.436c0 2.797-2.27 4.462-4.5 4.462-.39 0-.807-.112-1.17-.244a8.219 8.219 0 0 1-.999-.45 5.765 5.765 0 0 1-1.15-.828l-4.515-4.053-.01-.008-.008-.008C11.62 11.289 10.262 9.976 8.5 9.976c-1.77 0-3.5 1.306-3.5 3.46 0 1.143.344 2.095 1.074 2.714.73.62 1.946.99 3.865.752a.5.5 0 0 1 .122.992c-2.08.258-3.616-.116-4.635-.981C4.406 16.046 4 14.77 4 13.437c0-2.796 2.27-4.461 4.5-4.461 2.207 0 3.835 1.612 4.811 2.58l.032.031 4.506 4.045c.307.274.616.512.949.687.252.133.561.282.874.395.32.117.608.184.828.184 1.77 0 3.5-1.306 3.5-3.461 0-1.708-1.378-3.38-3.52-3.462-.297-.011-.495-.009-.73.042-.24.053-.545.163-1.028.402a.5.5 0 0 1-.444-.896c.517-.256.904-.406 1.26-.483Z" fill="#979797"/></svg>