<svg width="28" height="28" fill="none" xmlns="http://www.w3.org/2000/svg"><path d="M19.286 13.584h-.238v-1.155h.224c.392 0 .881.028.881.546 0 .539-.454.609-.867.609Zm-2.54-1.665h-.657c-.476-.588-1.161-.994-1.952-1.176h2.61v1.176Zm0 1.3h-.027a3.216 3.216 0 0 0-.532-1.174h.56v1.175Zm0 2.61h-.454a3.12 3.12 0 0 0 .454-1.154v1.154Zm0 1.301H14.53c.685-.223 1.266-.622 1.672-1.175h.546v1.175Zm-2.322-1.175-.336.336-.336-.336-.126-.126-.328-.329.272-.265a1.484 1.484 0 0 1-.398.056c-.504 0-.896-.245-1.092-.637h2.183l-.084.147.7.7-.392.391-.063.063Zm-2.665.938-.924-.924.014-.014.126-.126.784-.783.923.923-.923.924Zm-.994-1.588c0-.063.05-.12.12-.12.07 0 .125.057.125.12 0 .07-.056.119-.126.119a.118.118 0 0 1-.119-.12Zm.245-.455c0 .07-.056.119-.126.119a.118.118 0 0 1-.119-.12c0-.062.05-.118.12-.118.07 0 .125.056.125.119Zm-.713-.196-.126-.126-.47-.462.721-.713.112-.112.112.112.714.713-.462.462-.126.126-.238.238-.238-.238Zm1.252-.245c.07 0 .126.056.126.12 0 .069-.056.118-.126.118a.118.118 0 0 1-.12-.119c0-.063.05-.119.12-.119Zm0-.448c.07 0 .126.056.126.12 0 .07-.056.118-.126.118a.118.118 0 0 1-.12-.119c0-.07.05-.119.12-.119Zm.364-.923c.07 0 .125.056.125.119a.113.113 0 0 1-.02.063c-.008.014-.022.02-.029.035-.007 0-.007.007-.014.007-.006 0-.006.007-.014.007-.007 0-.007 0-.014.007h-.083c-.008 0-.008 0-.014-.007-.007 0-.007-.007-.014-.007s-.007-.007-.014-.007c-.014-.007-.021-.021-.028-.035a.113.113 0 0 1-.021-.063c.014-.063.07-.119.14-.119Zm0-.455c.07 0 .125.056.125.12 0 .07-.056.118-.126.118a.118.118 0 0 1-.118-.119c-.007-.063.049-.119.118-.119Zm1.818.763.126-.126h-1.65c.21-.273.545-.448.965-.448.335 0 .622.12.825.308l.609-.609.755.749.126.126.042.042-.923.923-.21-.21a1.399 1.399 0 0 1-.084.427h-2.295a1.347 1.347 0 0 1-.083-.483c0-.252.063-.49.181-.692h1.616v-.007Zm10.613.601c0-.713.58-1.28 1.3-1.28.54 0 1.022.308 1.407.665l-.07-2.505a4.97 4.97 0 0 0-1.602-.272 3.4 3.4 0 0 0-3.015 1.783c-.287-1.16-1.294-1.72-2.588-1.72H1.056v.125h11.15a3.55 3.55 0 0 0-1.951 1.176H1.048v.126h9.109a3.105 3.105 0 0 0-.532 1.175H1.048v.126H9.59c-.042.21-.063.427-.063.657 0 .182.014.35.035.518H1.048v.126H9.59c.077.44.238.832.462 1.175H1.048v.126h9.088c.405.553.986.952 1.672 1.175H1.048v.126h11.375l-.35-.35.924-.923.923.924-.35.35h5.478v-2.001h1.217c.742 0 1.33-.266 1.707-.728.238 1.616 1.602 2.812 3.302 2.812.427 0 1.315-.077 1.7-.258l.07-2.456c-.385.378-.819.609-1.371.609-.714.007-1.33-.553-1.33-1.28Z" fill="#979797"/><path d="m3.517 10.206.376.376-.376.373-.373-.373.373-.376ZM4.443 11.643l.376.376-.376.373-.373-.373.373-.376ZM5.324 12.129l.376.375-.376.373-.372-.373.372-.375ZM6.567 14.325l.375.376-.375.373-.373-.373.373-.376ZM4.408 12.877l.376.376-.376.373-.372-.373.372-.376ZM5.665 13.32l.529.528-.529.524-.524-.524.524-.529ZM6.427 10.938l.376.376-.376.373-.373-.373.373-.376ZM8.413 10.588l.552.551-.552.548-.547-.548.547-.551ZM7.663 11.593l.552.552-.551.547-.548-.547.548-.552ZM8.884 11.765l.737.737-.737.73-.731-.73.73-.737ZM8.02 13.172l.737.737-.737.731-.73-.731.73-.737ZM8.647 14.515l.737.737-.737.73-.731-.73.731-.737ZM9.992 15.1l.737.736-.737.731-.73-.73.73-.738ZM9.294 13.665l.737.737-.737.731-.731-.73.731-.738Z" fill="#979797"/><path d="m9.695 12.61.737.737-.737.73-.731-.73.73-.737ZM7.533 14.783l.737.737-.737.731-.73-.73.73-.738ZM6.75 12.692l.737.737-.736.731-.731-.73.73-.738ZM5.003 10.415l.376.376-.376.372-.373-.373.373-.375ZM9.876 10.938l.58.583-.58.58-.58-.58.58-.583ZM3.973 9.526l.335.336-.335.336-.336-.336.336-.336ZM10.664 13.704c.07 0 .126.056.126.118 0 .07-.056.127-.126.127s-.119-.056-.119-.127c-.007-.062.049-.118.119-.118Zm0 .454c.07 0 .126.056.126.126s-.056.12-.126.12a.118.118 0 0 1-.119-.12c-.007-.063.049-.126.119-.126ZM11.58 15.682c.07 0 .125.056.125.12 0 .07-.056.125-.126.125s-.118-.056-.118-.126c-.007-.063.048-.119.118-.119Zm0 .455c.07 0 .125.056.125.126s-.056.12-.126.12a.118.118 0 0 1-.118-.12c-.007-.063.048-.126.118-.126ZM13.798 15.018c.07 0 .126.056.126.119 0 .07-.056.126-.126.126s-.12-.056-.12-.126c-.006-.063.05-.12.12-.12Zm0 .454c.07 0 .126.056.126.127 0 .07-.056.118-.126.118a.118.118 0 0 1-.12-.119c-.006-.063.05-.126.12-.126ZM5.819 11.128c.07 0 .126.056.126.12 0 .07-.056.125-.126.125s-.12-.056-.12-.126c0-.063.05-.119.12-.119Zm0 .462c.07 0 .126.056.126.126s-.056.119-.126.119a.118.118 0 0 1-.12-.12c0-.069.05-.125.12-.125Z" fill="#979797"/><path d="M8.578 14.885c.07 0 .126.056.126.119 0 .07-.056.126-.126.126s-.119-.056-.119-.126c0-.056.049-.12.119-.12Zm0 .462c.07 0 .126.056.126.126s-.056.118-.126.118a.118.118 0 0 1-.119-.118c0-.07.049-.126.119-.126Z" fill="#FAFAFA"/><path d="M7.17 11.224c0-.035.028-.063.063-.063s.063.028.063.063c0 .042-.035.056-.063.056-.028 0-.063-.014-.063-.056Zm0-.392c0-.035.028-.063.063-.063s.063.028.063.063c0 .042-.035.056-.063.056-.028.007-.063-.014-.063-.056ZM7.815 10.674c.07 0 .126.056.126.12 0 .07-.056.125-.126.125s-.119-.056-.119-.126c0-.063.05-.119.12-.119Zm0 .455c.07 0 .126.056.126.126s-.056.119-.126.119a.118.118 0 0 1-.119-.119c0-.07.05-.126.12-.126ZM6.061 14.823c0-.035.028-.07.063-.07a.07.07 0 0 1 .07.07c0 .042-.042.063-.07.063-.028.007-.063-.014-.063-.063Zm0-.428c0-.034.028-.07.063-.07a.07.07 0 0 1 .07.07c0 .043-.042.064-.07.064a.063.063 0 0 1-.063-.063ZM6.75 15.249c.07 0 .126.056.126.119 0 .07-.056.126-.126.126s-.119-.056-.119-.126c-.007-.063.049-.12.119-.12Zm0 .454c.07 0 .126.056.126.126s-.056.12-.126.12a.118.118 0 0 1-.119-.12c-.007-.063.049-.126.119-.126ZM4.519 10.892c0-.036.028-.07.063-.07a.07.07 0 0 1 .07.07c0 .042-.042.063-.07.063-.021.007-.063-.014-.063-.063Zm0-.428c0-.035.028-.07.063-.07a.07.07 0 0 1 .07.07c0 .042-.042.063-.07.063-.021 0-.063-.021-.063-.063ZM3.462 10.038c0-.028.021-.056.056-.056.036 0 .057.028.057.056 0 .035-.036.049-.057.049-.02 0-.056-.014-.056-.05Zm0-.344c0-.028.021-.056.056-.056.036 0 .057.028.057.056 0 .035-.036.05-.057.05-.02 0-.056-.015-.056-.05ZM5.019 12.213c0-.035.028-.063.063-.063s.063.028.063.063c0 .043-.035.057-.063.057-.028.007-.063-.014-.063-.057Zm0-.385c0-.035.028-.063.063-.063s.063.028.063.063c0 .042-.035.056-.063.056-.028 0-.063-.021-.063-.056ZM3.91 12.2c0-.036.028-.064.063-.064s.063.028.063.064c0 .042-.035.056-.063.056-.028 0-.063-.014-.063-.056Zm0-.386c0-.035.028-.063.063-.063s.063.028.063.063c0 .042-.035.056-.063.056-.028 0-.063-.02-.063-.056ZM3.025 10.898c0-.035.028-.063.056-.063.035 0 .063.028.063.063 0 .042-.035.056-.063.056-.021.007-.056-.014-.056-.056Zm0-.385c0-.035.028-.063.056-.063.035 0 .063.028.063.063 0 .042-.035.056-.063.056-.021 0-.056-.021-.056-.056ZM14.34 12.99c.07 0 .127.055.127.118 0 .07-.056.126-.126.126s-.12-.056-.12-.126c0-.063.05-.119.12-.119Zm0 .461c.07 0 .127.056.127.126s-.056.119-.126.119a.118.118 0 0 1-.12-.12c0-.07.05-.125.12-.125ZM3.847 12.877c.07 0 .125.056.125.12 0 .07-.055.125-.125.125s-.12-.056-.12-.126c-.006-.063.05-.119.12-.119Zm0 .462c.07 0 .125.056.125.126s-.055.119-.125.119a.118.118 0 0 1-.12-.12c-.006-.07.05-.125.12-.125ZM5.018 13.626c.07 0 .126.056.126.119 0 .07-.056.126-.126.126s-.118-.056-.118-.126c-.007-.063.048-.12.118-.12Zm0 .454c.07 0 .126.056.126.126s-.056.12-.126.12a.118.118 0 0 1-.118-.12.116.116 0 0 1 .118-.126ZM7.044 11.79c.07 0 .126.055.126.118 0 .07-.056.126-.126.126s-.119-.056-.119-.126c0-.056.05-.119.12-.119Zm0 .461c.07 0 .126.056.126.126s-.056.119-.126.119a.118.118 0 0 1-.119-.119c0-.07.05-.126.12-.126ZM9.258 11.163c.07 0 .126.056.126.12 0 .07-.056.125-.126.125s-.119-.056-.119-.126c0-.063.05-.119.12-.119Zm0 .455c.07 0 .126.056.126.126s-.056.119-.126.119a.118.118 0 0 1-.119-.119c0-.07.05-.126.12-.126ZM8.027 12.101c.07 0 .126.056.126.12 0 .07-.056.125-.126.125s-.12-.056-.12-.126c0-.063.05-.119.12-.119Zm0 .455c.07 0 .126.056.126.126s-.056.119-.126.119a.118.118 0 0 1-.12-.119c0-.07.05-.126.12-.126Z" fill="#979797"/><path d="M8.96 12.342c.07 0 .127.056.127.12 0 .07-.056.125-.126.125s-.12-.056-.12-.126c0-.063.05-.119.12-.119Zm0 .455c.07 0 .127.056.127.126s-.056.119-.126.119a.118.118 0 0 1-.12-.119c0-.07.05-.126.12-.126ZM7.815 13.556c.07 0 .126.056.126.12 0 .07-.056.125-.126.125s-.119-.056-.119-.126c0-.063.05-.119.12-.119Zm0 .455c.07 0 .126.056.126.126s-.056.119-.126.119a.118.118 0 0 1-.119-.12c0-.069.05-.125.12-.125ZM6.545 13.076c.07 0 .126.056.126.12 0 .07-.056.125-.126.125s-.119-.056-.119-.126c0-.063.05-.119.12-.119Zm0 .455c.07 0 .126.056.126.126s-.056.119-.126.119a.118.118 0 0 1-.119-.119c0-.07.05-.126.12-.126Z" fill="#FAFAFA"/><path d="M5.894 12.97c.07 0 .126.055.126.118 0 .07-.056.126-.126.126s-.12-.056-.12-.126c0-.063.05-.118.12-.118Zm0 .454c.07 0 .126.056.126.126s-.056.119-.126.119a.118.118 0 0 1-.12-.119c0-.07.05-.126.12-.126Z" fill="#979797"/></svg>