<svg width="28" height="28" viewBox="0 0 28 28" fill="none" xmlns="http://www.w3.org/2000/svg">
<path d="M8.40917 22.9908L3.8012 15.0092C3.62403 14.7024 3.53076 14.3543 3.53076 13.9999C3.53076 13.6456 3.62403 13.2975 3.8012 12.9907L8.40917 5.00931C8.58636 4.70241 8.84122 4.44756 9.14813 4.27037C9.45504 4.09319 9.80318 3.99992 10.1576 3.99995H19.3735C19.7279 3.99996 20.076 4.09324 20.3828 4.27042C20.6897 4.4476 20.9446 4.70243 21.1217 5.00931L25.7297 12.9907C25.9069 13.2975 26.0002 13.6457 26.0002 14C26.0002 14.3544 25.9069 14.7025 25.7297 15.0094L21.1217 22.9908C20.9445 23.2976 20.6897 23.5524 20.3828 23.7296C20.0759 23.9067 19.7278 24 19.3735 23.9999H10.1576C9.80318 24 9.45503 23.9067 9.14811 23.7295C8.8412 23.5524 8.58635 23.2977 8.40917 22.9908Z" fill="#979797"/>
<path d="M24.7807 16.6421L19.1922 11.0539L18.1639 11.267L15.6004 8.70374L14.7801 10.2378L14.3353 12.0123L15.0882 12.7654L13.6421 13.0607L11.6592 11.0778L10.3127 12.372L12.7919 14.8516L10.1641 16.9405L17.1058 23.9999H19.5299C20.1536 23.9999 20.7299 23.667 21.0415 23.1267L24.7807 16.6421Z" fill="white" fill-opacity="0.07"/>
<path d="M18.5435 12.6607C19.0596 12.6607 19.4781 12.2422 19.4781 11.7261C19.4781 11.2099 19.0596 10.7915 18.5435 10.7915C18.0273 10.7915 17.6089 11.2099 17.6089 11.7261C17.6089 12.2422 18.0273 12.6607 18.5435 12.6607Z" fill="white"/>
<path d="M10.9883 12.6607C11.5045 12.6607 11.9229 12.2422 11.9229 11.7261C11.9229 11.2099 11.5045 10.7915 10.9883 10.7915C10.4721 10.7915 10.0537 11.2099 10.0537 11.7261C10.0537 12.2422 10.4721 12.6607 10.9883 12.6607Z" fill="white"/>
<path d="M14.7653 19.2039C15.2816 19.2039 15.7001 18.7854 15.7001 18.2691C15.7001 17.7529 15.2816 17.3344 14.7653 17.3344C14.2491 17.3344 13.8306 17.7529 13.8306 18.2691C13.8306 18.7854 14.2491 19.2039 14.7653 19.2039Z" fill="white"/>
<path d="M14.7659 15.4169C15.5998 15.4169 16.2759 14.7408 16.2759 13.9069C16.2759 13.0729 15.5998 12.3969 14.7659 12.3969C13.9319 12.3969 13.2559 13.0729 13.2559 13.9069C13.2559 14.7408 13.9319 15.4169 14.7659 15.4169Z" fill="white"/>
<path d="M10.9881 17.2742C11.6433 17.2742 12.1744 16.7431 12.1744 16.0879C12.1744 15.4327 11.6433 14.9016 10.9881 14.9016C10.3329 14.9016 9.80176 15.4327 9.80176 16.0879C9.80176 16.7431 10.3329 17.2742 10.9881 17.2742Z" fill="white"/>
<path d="M18.5428 17.2742C19.1979 17.2742 19.7291 16.7431 19.7291 16.0879C19.7291 15.4327 19.1979 14.9016 18.5428 14.9016C17.8876 14.9016 17.3564 15.4327 17.3564 16.0879C17.3564 16.7431 17.8876 17.2742 18.5428 17.2742Z" fill="white"/>
<path d="M14.7656 10.7314C15.4209 10.7314 15.9521 10.2002 15.9521 9.54489C15.9521 8.88961 15.4209 8.3584 14.7656 8.3584C14.1103 8.3584 13.5791 8.88961 13.5791 9.54489C13.5791 10.2002 14.1103 10.7314 14.7656 10.7314Z" fill="white"/>
<path fill-rule="evenodd" clip-rule="evenodd" d="M14.3279 12.0052C14.4736 11.9705 14.6257 11.9521 14.782 11.9521C14.9263 11.9521 15.0668 11.9678 15.2021 11.9974V10.4271H14.3279V12.0052ZM12.9138 14.4848L11.5679 15.3162L12.0273 16.06L13.353 15.2412C13.154 15.0281 13.0021 14.7704 12.9138 14.4848ZM16.2108 15.2415L17.5361 16.06L17.9955 15.3162L16.6501 14.4852C16.5618 14.7708 16.4099 15.0284 16.2108 15.2415Z" fill="white"/>
</svg>
