<svg width="28" height="28" viewBox="0 0 28 28" fill="none" xmlns="http://www.w3.org/2000/svg">
<path d="M21.2988 12.2105H15.6482C15.512 12.2105 15.3814 12.1566 15.2851 12.0607C15.1888 11.9649 15.1347 11.8349 15.1346 11.6994V5.83867C15.1346 5.40466 14.781 5.05261 14.3451 5.05261H12.328C11.8918 5.05261 11.5384 5.40466 11.5384 5.83867V11.6639C11.5384 11.9661 11.2929 12.2118 10.9892 12.2131L9.13751 12.2219C8.83124 12.2235 8.58242 11.9762 8.58302 11.6717L8.5945 5.83999C8.5955 5.40533 8.24175 5.05261 7.805 5.05261H5.78957C5.35335 5.05261 5 5.40466 5 5.83867V22.2495C5 22.635 5.31384 22.9473 5.70092 22.9473H21.2988C21.6862 22.9473 22 22.635 22 22.2495V12.9084C22 12.5228 21.6862 12.2105 21.2988 12.2105V12.2105ZM18.649 18.3721C18.649 18.8774 18.2374 19.287 17.7297 19.287H16.1357C15.6279 19.287 15.2163 18.8774 15.2163 18.3721V16.7857C15.2163 16.2804 15.6279 15.8707 16.1357 15.8707H17.7297C18.2374 15.8707 18.649 16.2804 18.649 16.7857V18.3721V18.3721Z" fill="#979797"/>
</svg>
