<svg width="28" height="28" viewBox="0 0 28 28" fill="none" xmlns="http://www.w3.org/2000/svg">
<path d="M3.6745 5.55174C3.50371 5.72253 3.3593 6.07587 3.44461 6.76952C3.52848 7.45154 3.82322 8.33112 4.34081 9.35934C5.37221 11.4083 7.20984 13.8932 9.6213 16.3046C12.0328 18.7161 14.5177 20.5537 16.5666 21.5851C17.5948 22.1027 18.4744 22.3975 19.1564 22.4813C19.8501 22.5666 20.2034 22.4222 20.3742 22.2514C20.545 22.0806 20.6894 21.7273 20.6041 21.0337C20.5202 20.3516 20.2255 19.4721 19.7079 18.4438C18.6765 16.3949 16.8388 13.91 14.4274 11.4985C12.0159 9.08709 9.53101 7.24946 7.48209 6.21806C6.45387 5.70046 5.5743 5.40572 4.89227 5.32185C4.19863 5.23655 3.84528 5.38096 3.6745 5.55174Z" stroke="#979797" stroke-width="1.5"/>
<path fill-rule="evenodd" clip-rule="evenodd" d="M19.2234 16.1224C23.6806 11.4284 26.0179 6.56299 24.476 5.02111C22.856 3.40105 17.5669 6.06353 12.6625 10.9679C7.75811 15.8723 5.09563 21.1614 6.71569 22.7815C7.8132 23.879 10.5946 23.0111 13.7995 20.8121V9.88831C16.6199 12.5316 18.2996 14.7234 19.2234 16.1224Z" fill="#979797"/>
</svg>
