<svg width="28" height="28" viewBox="0 0 28 28" fill="none" xmlns="http://www.w3.org/2000/svg">
<path d="M6.8333 9.37588V18H4.75427V9.37588H6.8333ZM9.42764 9.37588V10.9811H2.21916V9.37588H9.42764ZM15.2653 15.0799H17.3384C17.3108 15.6801 17.1489 16.2092 16.8527 16.6673C16.5566 17.1253 16.1459 17.4827 15.6207 17.7394C15.0995 17.9921 14.4835 18.1185 13.7727 18.1185C13.1962 18.1185 12.6809 18.0217 12.2268 17.8282C11.7766 17.6347 11.3936 17.3563 11.0777 16.9931C10.7657 16.6298 10.5268 16.1895 10.361 15.6722C10.1991 15.1549 10.1181 14.5725 10.1181 13.9249V13.4569C10.1181 12.8093 10.203 12.2269 10.3728 11.7096C10.5466 11.1884 10.7914 10.7461 11.1073 10.3828C11.4271 10.0156 11.8102 9.73522 12.2564 9.54173C12.7026 9.34824 13.1982 9.25149 13.7431 9.25149C14.4934 9.25149 15.1271 9.38575 15.6444 9.65427C16.1617 9.92278 16.5625 10.292 16.8468 10.7619C17.1311 11.2279 17.299 11.759 17.3503 12.3552H15.2772C15.2693 12.0314 15.214 11.7609 15.1113 11.5438C15.0087 11.3226 14.8468 11.1568 14.6256 11.0462C14.4045 10.9356 14.1103 10.8804 13.7431 10.8804C13.4864 10.8804 13.2633 10.9277 13.0738 11.0225C12.8842 11.1173 12.7263 11.2673 12.5999 11.4727C12.4736 11.678 12.3788 11.9446 12.3156 12.2723C12.2564 12.5961 12.2268 12.987 12.2268 13.4451V13.9249C12.2268 14.3829 12.2544 14.7739 12.3097 15.0977C12.365 15.4215 12.4538 15.686 12.5762 15.8914C12.6986 16.0967 12.8566 16.2487 13.0501 16.3474C13.2475 16.4422 13.4884 16.4896 13.7727 16.4896C14.0886 16.4896 14.3551 16.4402 14.5723 16.3415C14.7895 16.2388 14.9573 16.0848 15.0758 15.8795C15.1943 15.6702 15.2574 15.4037 15.2653 15.0799ZM21.9797 15.074H19.8355V13.4688H21.9797C22.2719 13.4688 22.5088 13.4194 22.6904 13.3207C22.8721 13.222 23.0044 13.0858 23.0873 12.912C23.1742 12.7343 23.2176 12.5349 23.2176 12.3138C23.2176 12.0768 23.1742 11.8577 23.0873 11.6563C23.0044 11.4549 22.8721 11.293 22.6904 11.1706C22.5088 11.0442 22.2719 10.9811 21.9797 10.9811H20.6173V18H18.5383V9.37588H21.9797C22.6707 9.37588 23.265 9.50224 23.7625 9.75496C24.264 10.0077 24.649 10.3552 24.9176 10.7974C25.1861 11.2358 25.3203 11.7372 25.3203 12.3019C25.3203 12.8587 25.1861 13.3444 24.9176 13.759C24.649 14.1736 24.264 14.4974 23.7625 14.7304C23.265 14.9594 22.6707 15.074 21.9797 15.074Z" fill="#979797"/>
</svg>
