<svg width="28" height="28" viewBox="0 0 28 28" fill="none" xmlns="http://www.w3.org/2000/svg">
<path fill-rule="evenodd" clip-rule="evenodd" d="M7.39099 17.6407L5.48864 21.8681L9.28433 17.1372L7.39099 17.6407ZM7.9706 16.3527L10.3789 15.773L13.5257 11.8509L12.8426 5.72071H12.755L7.9706 16.3527ZM11.0299 16.6731L6.73027 22.2794H8.86033L10.4159 19.4923C10.5914 19.1779 10.9233 18.983 11.2834 18.983H14.3204L13.9758 15.8898L11.0299 16.6731ZM13.8691 14.933L12.0238 15.3771L13.6782 13.2199L13.8691 14.933ZM15.3811 15.5161L15.9606 18.983H16.7166C17.0767 18.983 17.4086 19.1779 17.5841 19.4923L19.1397 22.2794H19.2711L21.825 20.3429L19.1965 14.5017L15.3811 15.5161ZM18.851 13.734L15.2289 14.6057L14.7613 11.8077L16.7924 9.15928L18.851 13.734ZM15.2451 5.72071L16.3946 8.27518L14.5542 10.569L13.7438 5.72071H15.2451ZM22.6965 22.2794H20.8747L22.1672 21.1034L22.6965 22.2794ZM11.3017 4.46667C11.4622 4.11015 11.8168 3.88086 12.2077 3.88086H15.7923C16.1832 3.88086 16.5379 4.11015 16.6983 4.46667L24.9114 22.718C25.2072 23.3754 24.7263 24.1192 24.0054 24.1192H18.6428C18.2827 24.1192 17.9508 23.9244 17.7753 23.6099L16.2197 20.8229H11.7803L10.2247 23.6099C10.0492 23.9244 9.71729 24.1192 9.35718 24.1192H3.99466C3.27371 24.1192 2.79279 23.3755 3.08864 22.718L11.3017 4.46667Z" fill="#979797"/>
</svg>
