<svg width="28" height="28" viewBox="0 0 28 28" fill="none" xmlns="http://www.w3.org/2000/svg">
<path fill-rule="evenodd" clip-rule="evenodd" d="M9.08212 7.91011L6.19671 8.97803C5.46902 9.24736 5.04615 10.0068 5.20044 10.7672L6.97361 19.5064L3.70283 20.5593C3.10724 20.751 2.47727 20.3823 2.35285 19.7691L0.505942 10.6664C0.403081 10.1595 0.684998 9.65318 1.17012 9.47363L7.67596 7.06575C8.28253 6.84126 8.94582 7.21361 9.07004 7.84835L9.08212 7.91011ZM9.18422 8.4318L6.37883 9.4701C5.89371 9.64965 5.61179 10.1559 5.71465 10.6629L7.47616 19.3446L10.2047 18.4663C10.7108 18.3034 11.0151 17.7876 10.913 17.2658L9.18422 8.4318Z" fill="#979797"/>
<path fill-rule="evenodd" clip-rule="evenodd" d="M14.285 7.92114L11.3974 8.98986C10.6697 9.25918 10.2468 10.0186 10.4011 10.7791L12.172 19.5071L8.90351 20.5593C8.30792 20.751 7.67795 20.3823 7.55354 19.7691L5.70663 10.6664C5.60376 10.1595 5.88568 9.65318 6.37081 9.47363L12.8766 7.06575C13.4832 6.84126 14.1465 7.21361 14.2707 7.84835L14.285 7.92114ZM14.3871 8.44282L11.5795 9.48192C11.0944 9.66147 10.8125 10.1678 10.9153 10.6747L12.6746 19.3454L15.4054 18.4663C15.9115 18.3034 16.2158 17.7876 16.1137 17.2658L14.3871 8.44282Z" fill="white"/>
<path fill-rule="evenodd" clip-rule="evenodd" d="M14.285 7.92114L11.3974 8.98986C10.6697 9.25918 10.2468 10.0186 10.4011 10.7791L12.172 19.5071L8.90351 20.5593C8.30792 20.751 7.67795 20.3823 7.55354 19.7691L5.70663 10.6664C5.60376 10.1595 5.88568 9.65318 6.37081 9.47363L12.8766 7.06575C13.4832 6.84126 14.1465 7.21361 14.2707 7.84835L14.285 7.92114ZM14.3871 8.44282L11.5795 9.48192C11.0944 9.66147 10.8125 10.1678 10.9153 10.6747L12.6746 19.3454L15.4054 18.4663C15.9115 18.3034 16.2158 17.7876 16.1137 17.2658L14.3871 8.44282Z" fill="#979797" fill-opacity="0.8"/>
<path fill-rule="evenodd" clip-rule="evenodd" d="M19.5536 8.26564L17.0809 9.18082C16.3532 9.45014 15.9303 10.2096 16.0846 10.97L17.7896 19.3731L14.1047 20.5593C13.5091 20.751 12.8791 20.3823 12.7547 19.7691L10.9078 10.6664C10.8049 10.1595 11.0869 9.65318 11.572 9.47363L18.0778 7.06575C18.6844 6.84126 19.3477 7.21361 19.4719 7.84835L19.5536 8.26564ZM19.6556 8.78733L17.263 9.67288C16.7778 9.85243 16.4959 10.3587 16.5988 10.8657L18.2921 19.2113L20.6066 18.4663C21.1127 18.3034 21.417 17.7876 21.3149 17.2658L19.6556 8.78733Z" fill="white"/>
<path fill-rule="evenodd" clip-rule="evenodd" d="M19.5536 8.26564L17.0809 9.18082C16.3532 9.45014 15.9303 10.2096 16.0846 10.97L17.7896 19.3731L14.1047 20.5593C13.5091 20.751 12.8791 20.3823 12.7547 19.7691L10.9078 10.6664C10.8049 10.1595 11.0869 9.65318 11.572 9.47363L18.0778 7.06575C18.6844 6.84126 19.3477 7.21361 19.4719 7.84835L19.5536 8.26564ZM19.6556 8.78733L17.263 9.67288C16.7778 9.85243 16.4959 10.3587 16.5988 10.8657L18.2921 19.2113L20.6066 18.4663C21.1127 18.3034 21.417 17.7876 21.3149 17.2658L19.6556 8.78733Z" fill="#979797" fill-opacity="0.6"/>
<path d="M16.5962 10.8613C16.4934 10.3544 16.7753 9.84807 17.2604 9.66852L23.7662 7.26064C24.3728 7.03615 25.0361 7.4085 25.1603 8.04324L27.0033 17.4607C27.1054 17.9825 26.8011 18.4982 26.295 18.6612L19.7931 20.7542C19.1975 20.9459 18.5675 20.5772 18.4431 19.964L16.5962 10.8613Z" fill="white"/>
<path d="M16.5962 10.8613C16.4934 10.3544 16.7753 9.84807 17.2604 9.66852L23.7662 7.26064C24.3728 7.03615 25.0361 7.4085 25.1603 8.04324L27.0033 17.4607C27.1054 17.9825 26.8011 18.4982 26.295 18.6612L19.7931 20.7542C19.1975 20.9459 18.5675 20.5772 18.4431 19.964L16.5962 10.8613Z" fill="#979797" fill-opacity="0.4"/>
</svg>
