<svg width="28" height="28" viewBox="0 0 28 28" fill="none" xmlns="http://www.w3.org/2000/svg">
<g clip-path="url(#clip0_3092_173824)">
<path d="M21.099 11.4078C21.1606 11.1668 21.4076 11.0185 21.6376 11.1134C22.2412 11.3623 22.7578 11.7919 23.1131 12.3484C23.4683 12.9048 23.6406 13.5542 23.6124 14.2066C23.6016 14.4551 23.3631 14.6168 23.1186 14.5712V14.5712C22.8741 14.5257 22.7175 14.2895 22.7145 14.0408C22.7094 13.6154 22.586 13.1966 22.3539 12.833C22.1218 12.4694 21.7938 12.1813 21.4101 11.9976C21.1857 11.8902 21.0374 11.6488 21.099 11.4078V11.4078Z" fill="#979797"/>
<path d="M21.4133 9.89014C21.5034 9.60901 21.8059 9.4517 22.0764 9.56995C23.016 9.98072 23.8187 10.6597 24.3802 11.5271C24.9416 12.3946 25.2324 13.4049 25.2224 14.4303C25.2195 14.7255 24.9522 14.937 24.6588 14.9042C24.3654 14.8713 24.2397 14.5305 24.2349 14.2353C24.2222 13.4562 23.9918 12.6923 23.5646 12.0323C23.1373 11.3723 22.5348 10.8493 21.8292 10.5187C21.5619 10.3934 21.3232 10.1713 21.4133 9.89014Z" fill="#979797"/>
<path fill-rule="evenodd" clip-rule="evenodd" d="M5.1119 19.2471C5.02559 19.2556 4.93801 19.26 4.84937 19.26C3.43616 19.26 2.29053 18.1528 2.29053 16.7872C2.29053 15.5092 3.29365 14.4577 4.58047 14.3279C4.87823 13.4186 5.67554 12.7355 6.648 12.603C6.81585 11.5149 7.75632 10.6819 8.89137 10.6819C9.74142 10.6819 10.4823 11.1491 10.8713 11.8408C11.2693 10.2859 12.7227 9.13318 14.4546 9.13318C16.3687 9.13318 17.9425 10.5411 18.1275 12.3438C18.5562 12.0307 19.0901 11.845 19.6689 11.845C21.0821 11.845 22.2277 12.9521 22.2277 14.3178C22.2277 14.7981 22.086 15.2464 21.8408 15.6258C22.485 15.9438 22.926 16.5912 22.926 17.3382C22.926 18.3839 22.0617 19.2345 20.9858 19.2593V19.2602H5.1119V19.2471Z" fill="#979797"/>
</g>
<defs>
<clipPath id="clip0_3092_173824">
<rect width="23.4193" height="10.7338" fill="white" transform="translate(2.29053 9.13318)"/>
</clipPath>
</defs>
</svg>
