<svg width="122" height="60" viewBox="0 0 122 60" fill="none" xmlns="http://www.w3.org/2000/svg">
<path d="M0 0H110C116.627 0 122 5.37258 122 12V60H12C5.37258 60 0 54.6274 0 48V0Z" fill="#979797"/>
<path d="M11.9425 17.8851C10.3333 17.8851 9 19.2184 9 20.8276C9 22.4368 10.3333 23.7701 11.9425 23.7701H14.1494V32.5977C14.1494 37.4713 18.1034 41.4253 22.977 41.4253H24.4483C26.0575 41.4253 27.3908 40.092 27.3908 38.4828C27.3908 36.8736 26.0575 35.5402 24.4483 35.5402H22.977C21.3678 35.5402 20.0345 34.2069 20.0345 32.5977V23.7701H24.4483C26.0575 23.7701 27.3908 22.4368 27.3908 20.8276C27.3908 19.2184 26.0575 17.8851 24.4483 17.8851H20.0345V14.9425C20.0345 13.3333 18.7012 12 17.092 12C15.4828 12 14.1494 13.3333 14.1494 14.9425V17.8851H11.9425Z" fill="white"/>
<path d="M68.0038 46.1149C66.4866 46.1149 65.0153 45.5632 63.8199 44.4138C63.2682 43.8621 62.5326 43.5402 61.751 43.5402C60.1877 43.5402 58.8084 44.9195 58.8084 46.4828C58.8084 47.2644 59.1303 48 59.682 48.5517C61.9808 50.8506 65.0153 52 68.0038 52C74.4866 52 78.8937 44.9655 78.8937 38.4828V20.8276C78.8937 19.2184 77.5603 17.8851 75.9511 17.8851C74.342 17.8851 73.0086 19.2184 73.0086 20.8276V29.6552C73.0086 32.9195 70.3879 35.5402 67.1236 35.5402C63.8592 35.5402 61.2385 32.9195 61.2385 29.6552V20.8276C61.2385 19.2184 59.9052 17.8851 58.296 17.8851C56.6868 17.8851 55.3535 19.2184 55.3535 20.8276V29.6552C55.3535 36.1379 60.6408 41.4253 67.1236 41.4253C69.1925 41.4253 71.1236 40.8736 72.8247 39.954C72.181 42.4828 70.7625 46.1149 68.0038 46.1149Z" fill="white"/>
<path d="M51.6973 19.7701C51.6973 18.1609 50.364 16.8276 48.7548 16.8276C47.1456 16.8276 45.8123 18.1609 45.8123 19.7701V28.5977C45.8123 31.8621 43.1916 34.4828 39.9272 34.4828C36.6628 34.4828 34.0421 31.8621 34.0421 28.5977V19.7701C34.0421 18.1609 32.7088 16.8276 31.0996 16.8276C29.4904 16.8276 28.1571 18.1609 28.1571 19.7701V28.5977C28.1571 35.0805 33.4444 40.3678 39.9272 40.3678C42.0421 40.3678 44.0192 39.8161 45.7203 38.8046C45.7203 38.8046 48.892 36.9042 50.1341 34.4368C51.0996 32.6897 51.6973 30.7126 51.6973 28.5977V19.7701Z" fill="white"/>
<path d="M81.4763 29.6552C81.4763 36.1379 86.7636 41.4253 93.2464 41.4253V35.5402C89.982 35.5402 87.3614 32.9195 87.3614 29.6552C87.3614 26.3908 89.982 23.7701 93.2464 23.7701C96.5108 23.7701 99.1315 26.3908 99.1315 29.6552L99.1305 29.7649L99.0395 39.8621C99.5912 41.0115 100.741 41.7931 102.074 41.7931C103.913 41.7931 104.785 40.659 104.785 38.8199V34.9885C104.785 34.0543 104.84 33.2659 104.897 32.4581C104.956 31.6092 105.017 30.7388 105.017 29.6552C105.017 23.1724 99.7292 17.8851 93.2464 17.8851C86.7636 17.8851 81.4763 23.1724 81.4763 29.6552Z" fill="white"/>
<path d="M89.9995 38.7499C89.9995 40.2687 91.7276 41.4253 93.2464 41.4253C94.7652 41.4253 96.2832 40.2687 96.2832 38.7499C96.2832 37.2312 94.7464 35.5402 93.2464 35.5402C90.7464 35.5403 89.9995 37.2312 89.9995 38.7499Z" fill="white"/>
<path d="M97.057 10.057C96.434 9.43399 96.428 8.41151 97.1421 7.89538C98.5296 6.8925 100.159 6.25718 101.878 6.06313C104.129 5.80907 106.398 6.32638 108.317 7.5304C110.235 8.73442 111.687 10.5538 112.437 12.6909C113.009 14.3233 113.145 16.0671 112.845 17.7526C112.691 18.6201 111.767 19.0591 110.935 18.7688V18.7688C110.104 18.4786 109.685 17.566 109.774 16.6894C109.875 15.7012 109.759 14.6963 109.426 13.7468C108.915 12.2916 107.926 11.0527 106.62 10.2328C105.314 9.41295 103.768 9.06069 102.236 9.23369C101.236 9.34657 100.281 9.67871 99.4345 10.1988C98.6838 10.6602 97.68 10.68 97.057 10.057V10.057Z" fill="white"/>
<path d="M99.4543 13.4543C98.9885 12.9885 98.9837 12.2198 99.5388 11.8652C100.242 11.4158 101.043 11.1295 101.883 11.0347C103.121 10.895 104.369 11.1795 105.424 11.8417C106.479 12.5039 107.278 13.5046 107.69 14.68C107.97 15.4775 108.06 16.3233 107.961 17.1521C107.883 17.8062 107.189 18.136 106.567 17.919V17.919C105.945 17.702 105.642 17.0109 105.611 16.3529C105.597 16.0537 105.54 15.756 105.439 15.4694C105.206 14.8038 104.753 14.2371 104.156 13.8621C103.558 13.4871 102.851 13.326 102.151 13.4051C101.849 13.4392 101.556 13.517 101.28 13.6343C100.674 13.8923 99.9201 13.9201 99.4543 13.4543V13.4543Z" fill="white"/>
</svg>
