<svg width="28" height="28" viewBox="0 0 28 28" fill="none" xmlns="http://www.w3.org/2000/svg">
<path d="M7.33677 9.37588H9.4158V15.0088C9.4158 15.6801 9.27562 16.2487 8.99525 16.7147C8.71489 17.1767 8.32199 17.5261 7.81654 17.7631C7.3111 18 6.71681 18.1185 6.03367 18.1185C5.35843 18.1185 4.76414 18 4.2508 17.7631C3.74141 17.5261 3.34258 17.1767 3.05432 16.7147C2.77001 16.2487 2.62786 15.6801 2.62786 15.0088V9.37588H4.71281V15.0088C4.71281 15.3642 4.76414 15.6544 4.86681 15.8795C4.96948 16.1006 5.11953 16.2625 5.31697 16.3652C5.51441 16.4679 5.75331 16.5192 6.03367 16.5192C6.31798 16.5192 6.55689 16.4679 6.75037 16.3652C6.94386 16.2625 7.08997 16.1006 7.18869 15.8795C7.28741 15.6544 7.33677 15.3642 7.33677 15.0088V9.37588ZM13.7431 18H11.8299L11.8418 16.4007H13.7431C14.138 16.4007 14.4716 16.306 14.7441 16.1164C15.0205 15.9269 15.2298 15.6446 15.372 15.2694C15.5181 14.8903 15.5911 14.4244 15.5911 13.8716V13.4984C15.5911 13.0838 15.5497 12.7205 15.4667 12.4085C15.3878 12.0926 15.2693 11.83 15.1113 11.6208C14.9534 11.4075 14.7559 11.2476 14.519 11.141C14.286 11.0344 14.0175 10.9811 13.7135 10.9811H11.7944V9.37588H13.7135C14.2979 9.37588 14.833 9.47657 15.3186 9.67796C15.8083 9.8754 16.2308 10.1597 16.5862 10.5309C16.9455 10.8981 17.222 11.3345 17.4154 11.8399C17.6129 12.3414 17.7116 12.8982 17.7116 13.5102V13.8716C17.7116 14.4797 17.6129 15.0364 17.4154 15.5419C17.222 16.0473 16.9475 16.4837 16.5921 16.8509C16.2367 17.2181 15.8162 17.5025 15.3305 17.7038C14.8487 17.9013 14.3196 18 13.7431 18ZM13.0205 9.37588V18H10.9414V9.37588H13.0205ZM22.4535 15.074H20.3093V13.4688H22.4535C22.7457 13.4688 22.9827 13.4194 23.1643 13.3207C23.3459 13.222 23.4782 13.0858 23.5612 12.912C23.648 12.7343 23.6915 12.5349 23.6915 12.3138C23.6915 12.0768 23.648 11.8577 23.5612 11.6563C23.4782 11.4549 23.3459 11.293 23.1643 11.1706C22.9827 11.0442 22.7457 10.9811 22.4535 10.9811H21.0912V18H19.0122V9.37588H22.4535C23.1446 9.37588 23.7388 9.50224 24.2364 9.75496C24.7379 10.0077 25.1229 10.3552 25.3914 10.7974C25.6599 11.2358 25.7942 11.7372 25.7942 12.3019C25.7942 12.8587 25.6599 13.3444 25.3914 13.759C25.1229 14.1736 24.7379 14.4974 24.2364 14.7304C23.7388 14.9594 23.1446 15.074 22.4535 15.074Z" fill="#979797"/>
</svg>
