<?xml version="1.0" encoding="UTF-8"?>
<svg width="1134.5" height="762.78" version="1.1" xmlns="http://www.w3.org/2000/svg">
 <g transform="translate(-27.071 -307.9)">
  <g fill="none">
   <path d="m906.03 706.13 3.4292 17.796m-880.89 41.121c150.44 6.8334 146.39-26.334 166.43-29.32 36.144-5.3848 114.29-6.5254 148.33-8.6235 43.378-2.6738 141.76-11.231 188.86-19.834 39.811-7.2728 221.37-0.86235 319.07-0.86235 70.827 0 146.92-1.7247 218.18-1.7247-31.62 0 117.86-2.5871 86.236-2.5871m-25.091-68.126c-52.8 34.785-65.895 51.749-95.639 81.493-24.931 24.931-140.4-19.139-178.94 36.65-12.281 17.777-47.003 46.547-65.108 59.071-20.105 13.908-56.037 44.957-67.769 73.078-4.8015 11.509-13.38 35.993-23.449 46.062-10.497 10.497-38.377 6.3857-44.023 17.648-19.005 37.908-25.465 100.92-67.618 102.05m19.282-624.01c34.659-1.8738 84.027 7.3913 109.9-4.2854 13.282-5.9941 41.407-2.4614 66.829-2.3205 35.322 0.19578 64.382 0.63477 101.92 5.0232 25.03 2.9265 44.663 34.287 58.527 50.644 17.099 20.173 62.764-1.7147 66.306 32.134 5.1027 48.766-6.3284 78.637 6.1411 97.342 19.969 29.954 50.486 17.856 44.619 83.971m-472.45-378.79c4.6435 23.729 15.069 72.776 19.061 130.64 0.87206 12.64 5.4472 24.993 4.2223 45.278-2.5172 41.688-15.717 43.677-15.091 60.365 1.432 38.182 30.614 93.837 30.614 139.7 0 24.181-2.6696 115.39 7.33 135.39 0.15911 0.31821 10.065 35.883 10.779 49.154 0.94378 17.525-24.478 39.47-28.027 46.567-5.4777 10.955-36.973 10.882-40.1 24.146-3.8688 16.415-3.8663 43.797 4.0465 59.441m97.337-691.01c-5.0133 35.516-43.659 11.317-58.539 23.781-21.33 17.869-62.5 31.432-70.124 35.367-35.088 18.108-110.47-15.142-125.61 4.2684-15.951 20.447-0.0735 61.466-9.1467 84.149-6.0357 15.089-18.877 23.017-27.44 32.928-19.748 22.856-69.974 69.824-84.759 100-7.4974 15.304-3.2843 44.42-3.4705 63.343-0.12793 12.994-0.81015 23.104 2.4034 28.276 4.9616 7.9858 23.72 28.112 24.239 50.611 0.29411 12.771 0.0133 78.591 3.0489 87.655 2.3126 6.9055 4.22 26.565 10.214 36.587 11.354 18.984 4.3874 40.157 27.897 53.508 19.05 10.819 46.878 12.219 81.926 14.461 33.703 2.1559 61.512-1.4304 76.921 6.1411 11.585 5.6927 8.5815 17.933 14.295 29.361 5.6404 11.281 31.503 11.156 41.804 43.455 7.6059 23.847 3.0859 44.157 6.7076 65.887" stroke="#364e59" stroke-width="3"/>
   <path d="m43.278 517.95s230.85-3.638 250.01-3.6587c7.4822-8e-3 8.6195 5.1519 14.021 11.459 24.596 28.719 93.91 112.94 93.91 112.94" stroke="#336" stroke-width="1px"/>
   <path d="m35.961 577.7s165.52-1.6845 248.78-1.6845c4.9475 0 7.7299-2.8833 10.538-5.7298 9.6611-9.7942 25.632-28.59 25.632-28.59" stroke="#336" stroke-width="1px"/>
  </g>
  <path d="m38.4 641.73 393.31-4.2684" color="#000000" fill="#336" stroke="#336" stroke-width="1px"/>
  <path d="m39.009 704.54 484.16-6.7076" color="#000000" fill="#336" stroke="#336" stroke-width="1px"/>
  <g fill="none" stroke="#336">
   <g stroke-width="1px">
    <path d="m303.96 682.59 146.8 1.8293c10.534 0.13127 14.344-2.6374 25.487-6.3728 10.412-3.4903 31.424-2.699 41.385-2.7738l405.56-3.0489" color="#000000"/>
    <path d="m426.22 314.89c2.0675 9.0527 1.8418 51.728 6.5079 74.835 1.6748 8.2934 8.6751 14.066 10.055 14.859 4.9015 2.8146 10.815 8.1498 13.046 16.088 6.7578 24.046 0.87972 68.452 0.87972 110.69 0 6.0978 1.6601 30.147-2.1559 33.963-2.5408 2.5408-0.28163 12.991-3.4368 16.144l-9.8494 9.8431c-10.367 10.36-11.59 6.5261-17.738 18.823-3.5677 7.1354 5.4024 20.672 7.3543 24.576 1.9321 3.8643-1.8422 4.7777-1.7924 7.4463 0.25286 13.545 2.2975 373.93 2.2975 373.93" color="#000000"/>
    <path d="m365.24 519.78 4.116 502.15" color="#000000"/>
    <path d="m116.53 504.19 3.8806 310.96" color="#000000"/>
    <path d="m317.68 576.49 130.19 1.5244c4.5108 3.2417 20.345 7.9685 27.745 4.2684 3.1555-1.5777 9.419-5.3882 14.025-3.9636 4.267 1.3198 6.0169 3.1163 10.366 3.0489 10.304-0.15975 20.212 0.38741 30.489 0.30489 177.89-1.4283 356.59-2.1325 534.77-3.0489" color="#000000"/>
    <path d="m475.31 582.89c-3.4442 11.351-2.1034 12.434 3.6586 21.037 3.7944 5.6656 50.863 13.038 41.465 27.135-10.537 15.805-22.897-5.4777-33.843-1.8293-5.4524 1.8174-7.349 5.4563-3.6587 9.1466 2.8068 2.8068 4.048 1.804 6.5203 5.1004" color="#000000"/>
    <path d="m432.01 636.85c8.319 13.11 18.846 14.635 35.672 14.635 2.9386 0 7.87-0.93371 10.671 0 11.359 3.7864 27.194 10.276 36.202 21.129 8.28 9.9766 10.253 23.883 7.702 37.104-6.1699 31.98-16.714 56.989-19.044 86.569-1.348 17.119 4.5096 22.535 11.071 33.929 10.67 18.527 8.7245 14.2 8.5714 34.286-0.13963 18.319 0 60.264 0 80.714" color="#000000"/>
    <path d="m528.51 658.96c-10.681 0.90454-7.108-5.6026-10.824-8.0796-4.7845-3.1897-12.227-1.251-16.769-5.7929-0.66612-0.66612-8.8097-4.1088-10.174-2.744-8.3646 8.3646-3.0489 20.552-3.0489 33.538l3.022 339.7" color="#000000"/>
    <path d="m517.99 651.03c-0.22171-2.7018 1.9035-5.5621 3.3538-7.0124 1.7994-1.7994 6.9229 1.0042 8.8418-0.91466 0.28765-0.28766 0.84329-11.164 0.22866-13.568-2.0648-8.0742-2.058-28.657-2.058-38.721v-73.173" color="#000000"/>
    <path d="m528.66 675.42-0.45733-31.556" color="#000000"/>
    <path d="m766.32 579.64 0.43118 13.798c3.1364 4.6692 3.0182 9.6007 3.0182 16.385v157.38" color="#000000"/>
    <path d="m1122.9 765.91c-202.31 4.6905-403.74-1.1138-605.95 3.3539-10.864 0.24002-3.3615-8.5863-28.537-8.5863" color="#000000"/>
    <path d="m860.01 737.07s-97.448 0.85806-147.57 0.85806c-5.2686 0-4.5155-8.3299-7.3009-8.3299-3.9744 0-8.6292 0.0201-10.509 0.0359-2.3348 0.0197-1.8109 8.366-4.1458 8.3669-46.169 0.0188-167.41-1.308-175.05-1.308-4.4296 0-8.5763-6.4397-13.132-6.4397h-14.395" color="#000000"/>
    <path d="m675.01 831.17-0.60978-521.77" color="#000000"/>
    <path d="m799.4 313.06 1.2196 495.87" color="#000000"/>
    <path d="m736.59 312.45-1.2196 716.49" color="#000000"/>
    <path d="m530.03 643.46 392.37-3.0182" color="#000000"/>
    <path d="m859.45 314.9 1.2935 507.98" color="#000000"/>
   </g>
   <path d="m921.54 310.59 1.7247 531.75" color="#000000" stroke-width="1px"/>
   <g stroke-width="1px">
    <path d="m736.29 453.31 185.68-0.30489" color="#000000"/>
    <path d="m1060.8 514.97s-363.28-5.6262-544.65 2.5218c-4.1778 0.18769-12.5 1.0671-12.5 1.0671-1.571 0.1341-2.0009-2.325-2.5916-3.5062-0.0967-0.19343-7.0608-1.9334-7.6222-1.372-2.8931 2.8931-7.6317 4.2487-12.196 4.116l-112.05-3.2578" color="#000000"/>
    <path d="m399.82 479.61 11.642 5.6053c2.9841 1.4368 6.5288-0.47712 9.9171-0.43118l127.2 1.7247" color="#000000"/>
    <path d="m519.25 517.12-0.43119-208.69" color="#000000"/>
    <path d="m432.93 389.71c11.045 0 35.533 0.61927 42.58-1.004 8.4052-1.9362 7.066-6.9538 14.197-6.9538 7.8095 0 6.5429 8.0624 20.142 8.0624 13.991 0 44.977 0.37886 63.94 0.37886 12.084 0 82.003 0.30489 93.601 0.30489 8.7605 0 13.16-2.2883 21.342-7.0124 7.1952-4.1541 2.0546-9.4914 20.428-8.8418 23.145 0.81833 12.643 14.025 32.318 14.025h150.92c14.332 0-4.1191-13.11 29.269-13.415" color="#000000"/>
   </g>
  </g>
  <g fill="#000000" font-family="Verdana" letter-spacing="0px" word-spacing="0px">
   <text x="588.67957" y="735.80463" style="line-height:0%" xml:space="preserve"><tspan x="588.67957" y="735.80463" font-size="9.6584px" style="line-height:1.25">Lincoln</tspan></text>
   <text x="686.3985" y="765.62842" style="line-height:0%" xml:space="preserve"><tspan x="686.3985" y="765.62842" font-size="9.6584px" style="line-height:1.25">Harry</tspan></text>
   <text transform="rotate(90)" x="709.87183" y="-802.37738" style="line-height:0%" xml:space="preserve"><tspan x="709.87183" y="-802.37738" font-size="9.6584px" style="line-height:1.25">Woodlawn</tspan></text>
   <text transform="rotate(90)" x="562.11926" y="-771.96814" style="line-height:0%" xml:space="preserve"><tspan x="562.11926" y="-771.96814" font-size="9.6584px" style="line-height:1.25">Edgemoor</tspan></text>
   <text transform="rotate(90)" x="598.30487" y="-738.36646" style="line-height:0%" xml:space="preserve"><tspan x="598.30487" y="-738.36646" font-size="9.6584px" style="line-height:1.25">Oliver</tspan></text>
   <text transform="rotate(90)" x="592.12286" y="-677.20398" style="line-height:0%" xml:space="preserve"><tspan x="592.12286" y="-677.20398" font-size="9.6584px" style="line-height:1.25">Hillside</tspan></text>
   <text transform="rotate(90)" x="597.32709" y="-862.61407" style="line-height:0%" xml:space="preserve"><tspan x="597.32709" y="-862.61407" font-size="9.6584px" style="line-height:1.25">Rock</tspan></text>
   <text transform="rotate(90)" x="587.37018" y="-926.1366" style="line-height:0%" xml:space="preserve"><tspan x="587.37018" y="-926.1366" font-size="9.6584px" style="line-height:1.25">Webb</tspan></text>
   <text x="871.16101" y="637.5752" style="line-height:0%" xml:space="preserve"><tspan x="871.16101" y="637.5752" font-size="9.6584px" style="line-height:1.25">Central</tspan></text>
   <text x="873.83228" y="577.03247" style="line-height:0%" xml:space="preserve"><tspan x="873.83228" y="577.03247" font-size="9.6584px" style="line-height:1.25">13th</tspan></text>
   <text x="875.96649" y="510.26181" style="line-height:0%" xml:space="preserve"><tspan x="875.96649" y="510.26181" font-size="9.6584px" style="line-height:1.25">21st</tspan></text>
   <text x="881.31659" y="450.19876" style="line-height:0%" xml:space="preserve"><tspan x="881.31659" y="450.19876" font-size="9.6584px" style="line-height:1.25">29th</tspan></text>
   <text x="615.79248" y="387.74716" style="line-height:0%" xml:space="preserve"><tspan x="615.79248" y="387.74716" font-size="9.6584px" style="line-height:1.25">37th</tspan></text>
   <text x="484.69037" y="481.65286" style="line-height:0%" xml:space="preserve"><tspan x="484.69037" y="481.65286" font-size="9.6584px" style="line-height:1.25">25th</tspan></text>
   <text x="563.04675" y="513.36133" style="line-height:0%" xml:space="preserve"><tspan x="563.04675" y="513.36133" font-size="9.6584px" style="line-height:1.25">21st</tspan></text>
   <text x="565.9715" y="577.89484" style="line-height:0%" xml:space="preserve"><tspan x="565.9715" y="577.89484" font-size="9.6584px" style="line-height:1.25">13th</tspan></text>
   <text transform="rotate(90)" x="433.58075" y="-460.73312" style="line-height:0%" xml:space="preserve"><tspan x="433.58075" y="-460.73312" font-size="9.6584px" style="line-height:1.25">Amidon</tspan></text>
   <text transform="rotate(90)" x="405.53098" y="-523.54016" style="line-height:0%" xml:space="preserve"><tspan x="405.53098" y="-523.54016" font-size="9.6584px" style="line-height:1.25">Arkansas</tspan></text>
   <text transform="rotate(90)" x="745.48462" y="-372.58594" style="line-height:0%" xml:space="preserve"><tspan x="745.48462" y="-372.58594" font-size="9.6584px" style="line-height:1.25">West</tspan></text>
   <text transform="rotate(90)" x="596.72833" y="-531.25928" style="line-height:0%" xml:space="preserve"><tspan x="596.72833" y="-531.25928" font-size="9.6584px" style="line-height:1.25">Waco</tspan></text>
   <text transform="rotate(90)" x="595.43481" y="-122.50295" style="line-height:0%" xml:space="preserve"><tspan x="595.43481" y="-122.50295" font-size="9.6584px" style="line-height:1.25">Mazie</tspan></text>
   <text transform="rotate(45)" x="695.77295" y="162.06877" style="line-height:0%" xml:space="preserve"><tspan x="695.77295" y="162.06877" font-size="9.6584px" style="line-height:1.25">Zoo</tspan></text>
   <text x="240.58997" y="574.44543" style="line-height:0%" xml:space="preserve"><tspan x="240.58997" y="574.44543" font-size="9.6584px" style="line-height:1.25">13th</tspan></text>
   <text x="206.03175" y="511.63663" style="line-height:0%" xml:space="preserve"><tspan x="206.03175" y="511.63663" font-size="9.6584px" style="line-height:1.25">21st</tspan></text>
   <text transform="rotate(90)" x="620.44312" y="-506.68219" style="line-height:0%" xml:space="preserve"><tspan x="620.44312" y="-506.68219" font-size="9.6584px" style="line-height:1.25">Nims</tspan></text>
   <text x="370.21686" y="698.84009" style="line-height:0%" xml:space="preserve"><tspan x="370.21686" y="698.84009" font-size="9.6584px" style="line-height:1.25">Maple</tspan></text>
   <text x="384.0842" y="680.85138" style="line-height:0%" xml:space="preserve"><tspan x="384.0842" y="680.85138" font-size="9.6584px" style="line-height:1.25">Douglas</tspan></text>
  </g>
  <path d="m367.91 1010h263.02" color="#000000" fill="none" stroke="#336" stroke-width="1px"/>
  <g fill="#000000" font-family="Verdana" letter-spacing="0px" word-spacing="0px">
   <text transform="rotate(90)" x="736.26746" y="-433.13776" style="line-height:0%" xml:space="preserve"><tspan x="736.26746" y="-433.13776" font-size="9.6584px" style="line-height:1.25">Meridian</tspan></text>
   <text x="572.83215" y="640.20526" style="line-height:0%" xml:space="preserve"><tspan x="572.83215" y="640.20526" font-size="9.6584px" style="line-height:1.25">Central</tspan></text>
   <text x="575.08966" y="670.9035" style="line-height:0%" xml:space="preserve"><tspan x="575.08966" y="670.9035" font-size="9.6584px" style="line-height:1.25">Douglas</tspan></text>
   <text x="499.48962" y="1008.6069" style="line-height:0%" xml:space="preserve"><tspan x="499.48962" y="1008.6069" font-size="9.6584px" style="line-height:1.25">47th</tspan></text>
   <text x="216.64543" y="725.98297" style="line-height:0%" xml:space="preserve"><tspan x="216.64543" y="725.98297" font-size="9.6584px" style="line-height:1.25">Kellogg</tspan></text>
   <text transform="rotate(90)" x="774.87561" y="-508.18973" style="line-height:0%" xml:space="preserve"><tspan x="774.87561" y="-508.18973" font-size="9.6584px" style="line-height:1.25">McClean</tspan></text>
  </g>
  <path transform="translate(0 287.36)" d="m364.16 658.43 299.51-1.0102c6.4987-0.0219 6.9772 9.2541 16.596 9.3925 12.054 0.17339 29.111-0.53572 54.114-0.3011" color="#000000" fill="none" stroke="#336" stroke-width="1px"/>
  <text x="373.99304" y="944.35754" fill="#000000" font-family="Verdana" letter-spacing="0px" word-spacing="0px" style="line-height:0%" xml:space="preserve"><tspan x="373.99304" y="944.35754" font-size="9.6584px" style="line-height:1.25">MacArthur</tspan></text>
  <text transform="rotate(90)" x="780.84607" y="-490.24597" fill="#000000" font-family="Verdana" letter-spacing="0px" word-spacing="0px" style="line-height:0%" xml:space="preserve"><tspan x="780.84607" y="-490.24597" font-size="9.6584px" style="line-height:1.25">Seneca</tspan></text>
  <path transform="translate(0 287.36)" d="m367.7 537.21 141.28-1.0102c6.49-0.0464 12.781 7.2354 19.193 7.3236 55.924 0.7689 158.69-0.17333 236.51-1.0102 7.8396-0.0843 22.631-19.854 30.305-20.456 22.266-1.3518 45.179-0.50507 67.68-0.50507 16.147-0.63241 3.6102 20.708 26.769 20.708l243.45-1.0102" color="#000000" fill="none" stroke="#336" stroke-width="1px"/>
  <text x="685.20813" y="827.53082" fill="#000000" font-family="Verdana" letter-spacing="0px" word-spacing="0px" style="line-height:0%" xml:space="preserve"><tspan x="685.20813" y="827.53082" font-size="9.6584px" style="line-height:1.25">Pawnee</tspan></text>
  <path transform="translate(0 287.36)" d="m554.29 721.43-4.2857-178.21-2.8571-440.71-0.35714-79.286" color="#000000" fill="none" stroke="#336" stroke-width="1px"/>
  <text transform="rotate(90)" x="529.62531" y="-550.84778" fill="#000000" font-family="Verdana" letter-spacing="0px" word-spacing="0px" style="line-height:0%" xml:space="preserve"><tspan x="529.62531" y="-550.84778" font-size="9.6584px" style="line-height:1.25">Broadway</tspan></text>
 </g>
</svg>
