<svg width="248" height="127" viewBox="0 0 248 127" fill="none" xmlns="http://www.w3.org/2000/svg">
<g filter="url(#filter0_d_3287_88377)">
<rect x="7.5" y="4" width="233" height="112" rx="3.50376" fill="white" shape-rendering="crispEdges"/>
<path d="M33.6345 26.555V36.5188H31.9305V26.555H33.6345ZM36.7619 26.555V27.9236H28.8305V26.555H36.7619ZM40.7378 36.6557C40.1904 36.6557 39.6954 36.5667 39.2528 36.3888C38.8149 36.2063 38.4408 35.9531 38.1305 35.6292C37.8249 35.3053 37.5899 34.9243 37.4257 34.4863C37.2615 34.0484 37.1793 33.5762 37.1793 33.0698V32.7961C37.1793 32.2167 37.2637 31.692 37.4325 31.2221C37.6013 30.7522 37.8363 30.3507 38.1374 30.0177C38.4385 29.6801 38.7943 29.4223 39.2049 29.2444C39.6155 29.0665 40.0604 28.9775 40.5394 28.9775C41.0686 28.9775 41.5317 29.0665 41.9286 29.2444C42.3255 29.4223 42.654 29.6732 42.914 29.9972C43.1786 30.3165 43.3748 30.6974 43.5025 31.14C43.6348 31.5825 43.701 32.0707 43.701 32.6044V33.3093H37.98V32.1254H42.0723V31.9954C42.0632 31.6988 42.0038 31.4206 41.8944 31.1605C41.7894 30.9005 41.6275 30.6906 41.4085 30.5309C41.1895 30.3713 40.8975 30.2914 40.5325 30.2914C40.2588 30.2914 40.0147 30.3507 39.8003 30.4693C39.5904 30.5834 39.4148 30.7499 39.2734 30.9689C39.1319 31.1879 39.0225 31.4525 38.9449 31.7627C38.8719 32.0684 38.8354 32.4128 38.8354 32.7961V33.0698C38.8354 33.3937 38.8787 33.6948 38.9654 33.9731C39.0567 34.2468 39.189 34.4863 39.3623 34.6916C39.5357 34.8969 39.7456 35.0589 39.9919 35.1775C40.2383 35.2916 40.5189 35.3486 40.8336 35.3486C41.2306 35.3486 41.5841 35.2688 41.8944 35.1091C42.2046 34.9494 42.4738 34.7236 42.7019 34.4316L43.571 35.2733C43.4113 35.506 43.2037 35.7295 42.9482 35.944C42.6927 36.1538 42.3802 36.3249 42.0107 36.4572C41.6457 36.5895 41.2214 36.6557 40.7378 36.6557ZM46.8557 30.6199V36.5188H45.2065V29.1144H46.7599L46.8557 30.6199ZM46.5888 32.5429L46.0277 32.536C46.0277 32.025 46.0916 31.5529 46.2193 31.1195C46.347 30.686 46.5341 30.3097 46.7805 29.9903C47.0268 29.6664 47.3325 29.4178 47.6975 29.2444C48.067 29.0665 48.4936 28.9775 48.9771 28.9775C49.3147 28.9775 49.6227 29.0277 49.901 29.1281C50.1838 29.2239 50.4279 29.3767 50.6332 29.5866C50.8431 29.7964 51.0028 30.0656 51.1123 30.3941C51.2263 30.7225 51.2833 31.1195 51.2833 31.5848V36.5188H49.6341V31.7285C49.6341 31.3681 49.5794 31.0852 49.4699 30.8799C49.3649 30.6746 49.2121 30.5286 49.0114 30.442C48.8152 30.3507 48.5802 30.3051 48.3065 30.3051C47.9963 30.3051 47.7317 30.3644 47.5127 30.483C47.2983 30.6016 47.1226 30.7636 46.9858 30.9689C46.8489 31.1742 46.7485 31.4114 46.6846 31.6806C46.6208 31.9498 46.5888 32.2372 46.5888 32.5429ZM51.1807 32.1049L50.4074 32.276C50.4074 31.8289 50.469 31.4069 50.5922 31.01C50.7199 30.6085 50.9047 30.2572 51.1465 29.9561C51.3928 29.6504 51.6962 29.4109 52.0566 29.2375C52.417 29.0642 52.8299 28.9775 53.2953 28.9775C53.6739 28.9775 54.0115 29.03 54.3081 29.1349C54.6092 29.2353 54.8646 29.3949 55.0745 29.6139C55.2844 29.8329 55.444 30.1181 55.5535 30.4693C55.663 30.8161 55.7178 31.2358 55.7178 31.7285V36.5188H54.0617V31.7217C54.0617 31.3476 54.007 31.0579 53.8975 30.8526C53.7925 30.6473 53.642 30.5058 53.4458 30.4283C53.2496 30.3462 53.0147 30.3051 52.741 30.3051C52.4855 30.3051 52.2596 30.353 52.0635 30.4488C51.8719 30.5401 51.7099 30.6701 51.5776 30.8389C51.4453 31.0031 51.3449 31.1924 51.2765 31.4069C51.2126 31.6213 51.1807 31.854 51.1807 32.1049ZM59.29 30.5378V39.3656H57.6407V29.1144H59.1599L59.29 30.5378ZM64.1145 32.7482V32.8919C64.1145 33.4302 64.0506 33.9298 63.9229 34.3905C63.7997 34.8468 63.6149 35.2459 63.3686 35.5881C63.1268 35.9257 62.8279 36.188 62.4721 36.3751C62.1162 36.5621 61.7056 36.6557 61.2403 36.6557C60.7795 36.6557 60.3758 36.5713 60.029 36.4025C59.6869 36.2291 59.3972 35.985 59.1599 35.6702C58.9227 35.3554 58.7311 34.9859 58.5851 34.5616C58.4437 34.1328 58.3433 33.6629 58.284 33.1519V32.5976C58.3433 32.0547 58.4437 31.562 58.5851 31.1195C58.7311 30.6769 58.9227 30.296 59.1599 29.9766C59.3972 29.6573 59.6869 29.4109 60.029 29.2375C60.3712 29.0642 60.7704 28.9775 61.2266 28.9775C61.692 28.9775 62.1048 29.0687 62.4653 29.2512C62.8257 29.4292 63.1291 29.6846 63.3754 30.0177C63.6218 30.3462 63.8065 30.7431 63.9297 31.2084C64.0529 31.6692 64.1145 32.1824 64.1145 32.7482ZM62.4653 32.8919V32.7482C62.4653 32.406 62.4333 32.0889 62.3694 31.7969C62.3056 31.5004 62.2052 31.2403 62.0683 31.0168C61.9315 30.7933 61.7558 30.6199 61.5414 30.4967C61.3315 30.369 61.0783 30.3051 60.7818 30.3051C60.4898 30.3051 60.2389 30.3553 60.029 30.4557C59.8192 30.5515 59.6435 30.686 59.5021 30.8594C59.3607 31.0328 59.2512 31.2358 59.1736 31.4685C59.0961 31.6966 59.0413 31.9452 59.0094 32.2144V33.542C59.0641 33.8704 59.1577 34.1716 59.29 34.4453C59.4223 34.719 59.6093 34.938 59.8511 35.1022C60.0975 35.2619 60.4123 35.3418 60.7955 35.3418C61.092 35.3418 61.3452 35.2779 61.5551 35.1501C61.765 35.0224 61.936 34.8468 62.0683 34.6232C62.2052 34.3951 62.3056 34.1328 62.3694 33.8362C62.4333 33.5397 62.4653 33.2249 62.4653 32.8919ZM69.0006 36.6557C68.4531 36.6557 67.9581 36.5667 67.5156 36.3888C67.0776 36.2063 66.7035 35.9531 66.3933 35.6292C66.0876 35.3053 65.8527 34.9243 65.6884 34.4863C65.5242 34.0484 65.4421 33.5762 65.4421 33.0698V32.7961C65.4421 32.2167 65.5265 31.692 65.6953 31.2221C65.8641 30.7522 66.099 30.3507 66.4001 30.0177C66.7012 29.6801 67.0571 29.4223 67.4677 29.2444C67.8783 29.0665 68.3231 28.9775 68.8021 28.9775C69.3313 28.9775 69.7944 29.0665 70.1913 29.2444C70.5882 29.4223 70.9167 29.6732 71.1767 29.9972C71.4414 30.3165 71.6375 30.6974 71.7653 31.14C71.8976 31.5825 71.9637 32.0707 71.9637 32.6044V33.3093H66.2427V32.1254H70.335V31.9954C70.3259 31.6988 70.2666 31.4206 70.1571 31.1605C70.0522 30.9005 69.8902 30.6906 69.6712 30.5309C69.4522 30.3713 69.1603 30.2914 68.7953 30.2914C68.5216 30.2914 68.2775 30.3507 68.0631 30.4693C67.8532 30.5834 67.6775 30.7499 67.5361 30.9689C67.3947 31.1879 67.2852 31.4525 67.2076 31.7627C67.1346 32.0684 67.0982 32.4128 67.0982 32.7961V33.0698C67.0982 33.3937 67.1415 33.6948 67.2282 33.9731C67.3194 34.2468 67.4517 34.4863 67.6251 34.6916C67.7984 34.8969 68.0083 35.0589 68.2547 35.1775C68.501 35.2916 68.7816 35.3486 69.0964 35.3486C69.4933 35.3486 69.8469 35.2688 70.1571 35.1091C70.4673 34.9494 70.7365 34.7236 70.9646 34.4316L71.8337 35.2733C71.674 35.506 71.4664 35.7295 71.211 35.944C70.9555 36.1538 70.643 36.3249 70.2734 36.4572C69.9085 36.5895 69.4842 36.6557 69.0006 36.6557ZM75.1253 30.5241V36.5188H73.4761V29.1144H75.05L75.1253 30.5241ZM77.3904 29.0665L77.3768 30.5994C77.2764 30.5811 77.1669 30.5674 77.0483 30.5583C76.9342 30.5492 76.8202 30.5446 76.7061 30.5446C76.4233 30.5446 76.1746 30.5857 75.9602 30.6678C75.7458 30.7454 75.5656 30.8594 75.4196 31.01C75.2782 31.1559 75.1687 31.3339 75.0911 31.5437C75.0135 31.7536 74.9679 31.9885 74.9542 32.2486L74.5779 32.276C74.5779 31.8106 74.6235 31.3795 74.7147 30.9826C74.806 30.5857 74.9428 30.2367 75.1253 29.9356C75.3124 29.6345 75.545 29.3995 75.8233 29.2307C76.1062 29.0619 76.4324 28.9775 76.8019 28.9775C76.9023 28.9775 77.0095 28.9866 77.1236 29.0049C77.2422 29.0231 77.3311 29.0437 77.3904 29.0665ZM82.5708 35.0338V31.5027C82.5708 31.2381 82.5229 31.01 82.4271 30.8183C82.3313 30.6267 82.1853 30.4785 81.9891 30.3735C81.7975 30.2686 81.5557 30.2161 81.2637 30.2161C80.9946 30.2161 80.7619 30.2618 80.5657 30.353C80.3696 30.4442 80.2167 30.5674 80.1072 30.7225C79.9977 30.8777 79.943 31.0533 79.943 31.2495H78.3006C78.3006 30.9575 78.3713 30.6746 78.5127 30.4009C78.6542 30.1272 78.8595 29.8831 79.1286 29.6687C79.3978 29.4543 79.7194 29.2855 80.0935 29.1623C80.4676 29.0391 80.8874 28.9775 81.3527 28.9775C81.9093 28.9775 82.402 29.071 82.8309 29.2581C83.2643 29.4451 83.6041 29.728 83.8505 30.1066C84.1014 30.4807 84.2269 30.9506 84.2269 31.5164V34.808C84.2269 35.1456 84.2497 35.449 84.2953 35.7181C84.3455 35.9827 84.4162 36.2131 84.5075 36.4093V36.5188H82.8172C82.7396 36.3409 82.678 36.115 82.6324 35.8413C82.5913 35.563 82.5708 35.2939 82.5708 35.0338ZM82.8103 32.0159L82.824 33.0356H81.6401C81.3345 33.0356 81.0653 33.0652 80.8326 33.1245C80.5999 33.1793 80.4061 33.2614 80.2509 33.3709C80.0958 33.4804 79.9795 33.6127 79.9019 33.7678C79.8244 33.9229 79.7856 34.0986 79.7856 34.2947C79.7856 34.4909 79.8312 34.6711 79.9225 34.8354C80.0137 34.995 80.146 35.1205 80.3194 35.2117C80.4973 35.303 80.7117 35.3486 80.9626 35.3486C81.3002 35.3486 81.5945 35.2802 81.8454 35.1433C82.1009 35.0019 82.3016 34.8308 82.4476 34.6301C82.5936 34.4248 82.6712 34.2309 82.6803 34.0484L83.2141 34.7806C83.1593 34.9677 83.0658 35.1684 82.9335 35.3828C82.8012 35.5972 82.6278 35.8025 82.4134 35.9987C82.2036 36.1903 81.9504 36.3477 81.6538 36.4709C81.3618 36.5941 81.0242 36.6557 80.641 36.6557C80.1574 36.6557 79.7263 36.5599 79.3476 36.3682C78.969 36.1721 78.6724 35.9097 78.458 35.5813C78.2436 35.2482 78.1364 34.8718 78.1364 34.4521C78.1364 34.0598 78.2094 33.7131 78.3553 33.4119C78.5059 33.1063 78.7249 32.8508 79.0123 32.6455C79.3043 32.4402 79.6601 32.2851 80.0799 32.1802C80.4996 32.0707 80.9786 32.0159 81.5169 32.0159H82.8103ZM89.5646 29.1144V30.3188H85.3902V29.1144H89.5646ZM86.5947 27.3009H88.2439V34.4727C88.2439 34.7008 88.2758 34.8764 88.3397 34.9996C88.4081 35.1182 88.5017 35.198 88.6203 35.2391C88.7389 35.2802 88.878 35.3007 89.0377 35.3007C89.1518 35.3007 89.2613 35.2939 89.3662 35.2802C89.4711 35.2665 89.5555 35.2528 89.6194 35.2391L89.6262 36.4983C89.4894 36.5393 89.3297 36.5758 89.1472 36.6078C88.9693 36.6397 88.764 36.6557 88.5313 36.6557C88.1526 36.6557 87.8173 36.5895 87.5253 36.4572C87.2334 36.3203 87.0053 36.0991 86.841 35.7934C86.6768 35.4877 86.5947 35.0817 86.5947 34.5753V27.3009ZM95.5115 34.7738V29.1144H97.1675V36.5188H95.6073L95.5115 34.7738ZM95.7441 33.234L96.2984 33.2203C96.2984 33.7176 96.2437 34.1761 96.1342 34.5958C96.0247 35.011 95.8559 35.3737 95.6278 35.6839C95.3997 35.9896 95.1077 36.2291 94.7518 36.4025C94.396 36.5713 93.9694 36.6557 93.4722 36.6557C93.1117 36.6557 92.781 36.6032 92.4799 36.4983C92.1788 36.3933 91.9187 36.2314 91.6997 36.0124C91.4853 35.7934 91.3188 35.5083 91.2002 35.157C91.0816 34.8057 91.0223 34.386 91.0223 33.8978V29.1144H92.6715V33.9115C92.6715 34.1807 92.7034 34.4065 92.7673 34.589C92.8312 34.7669 92.9178 34.9106 93.0273 35.0201C93.1368 35.1296 93.2646 35.2072 93.4106 35.2528C93.5566 35.2984 93.7117 35.3212 93.8759 35.3212C94.3458 35.3212 94.7153 35.23 94.9845 35.0475C95.2582 34.8604 95.4521 34.6095 95.5662 34.2947C95.6848 33.9799 95.7441 33.6264 95.7441 33.234ZM100.733 30.5241V36.5188H99.0836V29.1144H100.658L100.733 30.5241ZM102.998 29.0665L102.984 30.5994C102.884 30.5811 102.774 30.5674 102.656 30.5583C102.542 30.5492 102.428 30.5446 102.314 30.5446C102.031 30.5446 101.782 30.5857 101.568 30.6678C101.353 30.7454 101.173 30.8594 101.027 31.01C100.886 31.1559 100.776 31.3339 100.699 31.5437C100.621 31.7536 100.575 31.9885 100.562 32.2486L100.185 32.276C100.185 31.8106 100.231 31.3795 100.322 30.9826C100.414 30.5857 100.55 30.2367 100.733 29.9356C100.92 29.6345 101.153 29.3995 101.431 29.2307C101.714 29.0619 102.04 28.9775 102.409 28.9775C102.51 28.9775 102.617 28.9866 102.731 29.0049C102.85 29.0231 102.939 29.0437 102.998 29.0665ZM107.378 36.6557C106.83 36.6557 106.335 36.5667 105.893 36.3888C105.455 36.2063 105.081 35.9531 104.77 35.6292C104.465 35.3053 104.23 34.9243 104.066 34.4863C103.901 34.0484 103.819 33.5762 103.819 33.0698V32.7961C103.819 32.2167 103.904 31.692 104.072 31.2221C104.241 30.7522 104.476 30.3507 104.777 30.0177C105.078 29.6801 105.434 29.4223 105.845 29.2444C106.255 29.0665 106.7 28.9775 107.179 28.9775C107.708 28.9775 108.172 29.0665 108.568 29.2444C108.965 29.4223 109.294 29.6732 109.554 29.9972C109.818 30.3165 110.015 30.6974 110.142 31.14C110.275 31.5825 110.341 32.0707 110.341 32.6044V33.3093H104.62V32.1254H108.712V31.9954C108.703 31.6988 108.644 31.4206 108.534 31.1605C108.429 30.9005 108.267 30.6906 108.048 30.5309C107.829 30.3713 107.537 30.2914 107.172 30.2914C106.899 30.2914 106.655 30.3507 106.44 30.4693C106.23 30.5834 106.055 30.7499 105.913 30.9689C105.772 31.1879 105.662 31.4525 105.585 31.7627C105.512 32.0684 105.475 32.4128 105.475 32.7961V33.0698C105.475 33.3937 105.519 33.6948 105.605 33.9731C105.697 34.2468 105.829 34.4863 106.002 34.6916C106.176 34.8969 106.385 35.0589 106.632 35.1775C106.878 35.2916 107.159 35.3486 107.474 35.3486C107.87 35.3486 108.224 35.2688 108.534 35.1091C108.844 34.9494 109.114 34.7236 109.342 34.4316L110.211 35.2733C110.051 35.506 109.844 35.7295 109.588 35.944C109.333 36.1538 109.02 36.3249 108.651 36.4572C108.286 36.5895 107.861 36.6557 107.378 36.6557Z" fill="black" fill-opacity="0.87"/>
<path d="M41.5282 85.6782V87.9775H29.8399V86.0015L35.5164 79.8101C36.1392 79.1075 36.6302 78.5007 36.9894 77.9898C37.3487 77.4788 37.6002 77.0197 37.7439 76.6126C37.8956 76.1974 37.9714 75.7942 37.9714 75.403C37.9714 74.8521 37.8677 74.3691 37.6601 73.9539C37.4605 73.5308 37.1651 73.1995 36.7739 72.96C36.3827 72.7125 35.9076 72.5887 35.3488 72.5887C34.7021 72.5887 34.1592 72.7284 33.7201 73.0079C33.2809 73.2873 32.9496 73.6745 32.7261 74.1695C32.5025 74.6565 32.3907 75.2154 32.3907 75.8461H29.5046C29.5046 74.8322 29.7361 73.906 30.1992 73.0677C30.6622 72.2215 31.3329 71.5508 32.2111 71.0558C33.0893 70.5528 34.1472 70.3013 35.3847 70.3013C36.5503 70.3013 37.5403 70.497 38.3547 70.8882C39.169 71.2794 39.7878 71.8342 40.2109 72.5528C40.642 73.2713 40.8576 74.1216 40.8576 75.1036C40.8576 75.6465 40.7698 76.1854 40.5941 76.7203C40.4185 77.2553 40.167 77.7902 39.8397 78.3251C39.5203 78.852 39.1411 79.3829 38.702 79.9179C38.2629 80.4448 37.7798 80.9797 37.2529 81.5226L33.4805 85.6782H41.5282ZM55.468 85.6782V87.9775H43.7797V86.0015L49.4562 79.8101C50.0789 79.1075 50.5699 78.5007 50.9292 77.9898C51.2885 77.4788 51.54 77.0197 51.6837 76.6126C51.8354 76.1974 51.9112 75.7942 51.9112 75.403C51.9112 74.8521 51.8074 74.3691 51.5998 73.9539C51.4002 73.5308 51.1048 73.1995 50.7136 72.96C50.3224 72.7125 49.8474 72.5887 49.2885 72.5887C48.6418 72.5887 48.0989 72.7284 47.6598 73.0079C47.2207 73.2873 46.8894 73.6745 46.6658 74.1695C46.4423 74.6565 46.3305 75.2154 46.3305 75.8461H43.4444C43.4444 74.8322 43.6759 73.906 44.1389 73.0677C44.602 72.2215 45.2727 71.5508 46.1509 71.0558C47.0291 70.5528 48.087 70.3013 49.3244 70.3013C50.4901 70.3013 51.4801 70.497 52.2944 70.8882C53.1088 71.2794 53.7275 71.8342 54.1507 72.5528C54.5818 73.2713 54.7974 74.1216 54.7974 75.1036C54.7974 75.6465 54.7095 76.1854 54.5339 76.7203C54.3582 77.2553 54.1068 77.7902 53.7794 78.3251C53.4601 78.852 53.0808 79.3829 52.6417 79.9179C52.2026 80.4448 51.7196 80.9797 51.1927 81.5226L47.4203 85.6782H55.468Z" fill="black" fill-opacity="0.87"/>
<path d="M62.2863 71.4482C62.2863 70.7829 62.4503 70.1722 62.7784 69.6162C63.1066 69.0602 63.5441 68.6182 64.0909 68.29C64.6469 67.9528 65.2485 67.7842 65.8956 67.7842C66.5519 67.7842 67.1489 67.9528 67.6866 68.29C68.2244 68.6182 68.6528 69.0602 68.9718 69.6162C69.2999 70.1722 69.464 70.7829 69.464 71.4482C69.464 72.1136 69.2999 72.7243 68.9718 73.2803C68.6528 73.8271 68.2244 74.2601 67.6866 74.5791C67.1489 74.8981 66.5519 75.0576 65.8956 75.0576C65.2485 75.0576 64.6469 74.8981 64.0909 74.5791C63.5441 74.2601 63.1066 73.8271 62.7784 73.2803C62.4503 72.7243 62.2863 72.1136 62.2863 71.4482ZM64.132 71.4482C64.132 71.9404 64.3051 72.3551 64.6515 72.6924C64.9978 73.0205 65.4126 73.1846 65.8956 73.1846C66.3787 73.1846 66.7843 73.0205 67.1124 72.6924C67.4406 72.3643 67.6046 71.9495 67.6046 71.4482C67.6046 70.9378 67.4406 70.514 67.1124 70.1768C66.7843 69.8395 66.3787 69.6709 65.8956 69.6709C65.4126 69.6709 64.9978 69.8395 64.6515 70.1768C64.3051 70.514 64.132 70.9378 64.132 71.4482ZM85.0226 81.4971H88.4406C88.3312 82.8005 87.9666 83.9626 87.3468 84.9834C86.727 85.9951 85.8566 86.7926 84.7355 87.376C83.6144 87.9593 82.2517 88.251 80.6476 88.251C79.4171 88.251 78.3097 88.0322 77.3253 87.5947C76.3409 87.1481 75.4978 86.5192 74.796 85.708C74.0942 84.8877 73.5564 83.8988 73.1827 82.7412C72.8182 81.5837 72.6359 80.2894 72.6359 78.8584V77.2041C72.6359 75.7731 72.8227 74.4788 73.1964 73.3213C73.5792 72.1637 74.1261 71.1748 74.837 70.3545C75.548 69.5251 76.4002 68.8916 77.3937 68.4541C78.3963 68.0166 79.5219 67.7979 80.7706 67.7979C82.3566 67.7979 83.6964 68.0895 84.7902 68.6729C85.8839 69.2562 86.7316 70.0628 87.3331 71.0928C87.9438 72.1227 88.3175 73.3031 88.4542 74.6338H85.0363C84.9451 73.777 84.7446 73.0433 84.4347 72.4326C84.1339 71.8219 83.6873 71.3571 83.0948 71.0381C82.5024 70.71 81.7277 70.5459 80.7706 70.5459C79.9868 70.5459 79.3032 70.6917 78.7198 70.9834C78.1365 71.2751 77.6489 71.7035 77.257 72.2686C76.865 72.8337 76.5688 73.5309 76.3683 74.3604C76.1769 75.1807 76.0812 76.1195 76.0812 77.1768V78.8584C76.0812 79.861 76.1678 80.7725 76.3409 81.5928C76.5232 82.404 76.7967 83.1012 77.1613 83.6846C77.535 84.2679 78.0089 84.7191 78.5831 85.0381C79.1573 85.3571 79.8455 85.5166 80.6476 85.5166C81.6228 85.5166 82.4113 85.3617 83.0128 85.0518C83.6235 84.7419 84.0838 84.2907 84.3937 83.6982C84.7127 83.0967 84.9223 82.363 85.0226 81.4971Z" fill="black" fill-opacity="0.87"/>
<path d="M105.413 90.5716L114.858 84.6195C116.66 83.4836 118.041 81.7894 118.79 79.7953L121.622 72.2615C123.81 66.4391 132.045 66.4391 134.233 72.2615V72.2615C136.166 77.403 143.108 78.1954 146.149 73.6215L149.612 68.4135C151.719 65.2435 156.182 64.7539 158.927 67.3915V67.3915C161.989 70.3337 167.045 69.3295 168.75 65.4405L170.669 61.0639C173.88 53.74 184.173 53.4759 187.755 60.6255L191.215 67.5304C193.631 72.3529 199.306 74.5636 204.348 72.647L204.811 72.4709C207.474 71.4584 210.434 71.5706 213.014 72.7818L219.913 76.0219" stroke="#3F52DD" stroke-width="1.75188" stroke-linecap="round"/>
</g>
<defs>
<filter id="filter0_d_3287_88377" x="0.492481" y="0.496241" width="247.015" height="126.015" filterUnits="userSpaceOnUse" color-interpolation-filters="sRGB">
<feFlood flood-opacity="0" result="BackgroundImageFix"/>
<feColorMatrix in="SourceAlpha" type="matrix" values="0 0 0 0 0 0 0 0 0 0 0 0 0 0 0 0 0 0 127 0" result="hardAlpha"/>
<feOffset dy="3.50376"/>
<feGaussianBlur stdDeviation="3.50376"/>
<feComposite in2="hardAlpha" operator="out"/>
<feColorMatrix type="matrix" values="0 0 0 0 0 0 0 0 0 0 0 0 0 0 0 0 0 0 0.04 0"/>
<feBlend mode="normal" in2="BackgroundImageFix" result="effect1_dropShadow_3287_88377"/>
<feBlend mode="normal" in="SourceGraphic" in2="effect1_dropShadow_3287_88377" result="shape"/>
</filter>
</defs>
</svg>
