<svg width="248" height="127" viewBox="0 0 248 127" fill="none" xmlns="http://www.w3.org/2000/svg">
<g filter="url(#filter0_d_3287_88395)">
<rect x="7.5" y="4" width="233" height="112" rx="3.51008" fill="white" shape-rendering="crispEdges"/>
<g filter="url(#filter1_b_3287_88395)">
<rect x="18.0302" y="14.5303" width="211.939" height="90.9395" rx="3.51008" fill="white" fill-opacity="0.76"/>
</g>
<path d="M34.3964 27.1755V38.5505H32.4511V27.1755H34.3964ZM37.9667 27.1755V28.738H28.912V27.1755H37.9667ZM42.5058 38.7068C41.8808 38.7068 41.3157 38.6052 40.8105 38.4021C40.3105 38.1938 39.8834 37.9047 39.5292 37.5349C39.1803 37.1651 38.912 36.7302 38.7245 36.2302C38.537 35.7302 38.4433 35.1912 38.4433 34.613V34.3005C38.4433 33.6391 38.5397 33.0401 38.7324 32.5037C38.9251 31.9672 39.1933 31.5089 39.537 31.1287C39.8808 30.7432 40.287 30.449 40.7558 30.2458C41.2245 30.0427 41.7324 29.9412 42.2792 29.9412C42.8834 29.9412 43.412 30.0427 43.8652 30.2458C44.3183 30.449 44.6933 30.7354 44.9902 31.1052C45.2923 31.4698 45.5162 31.9047 45.662 32.4099C45.8131 32.9151 45.8886 33.4724 45.8886 34.0818V34.8865H39.3574V33.5349H44.0292V33.3865C44.0188 33.0479 43.9511 32.7302 43.8261 32.4333C43.7063 32.1365 43.5214 31.8969 43.2714 31.7146C43.0214 31.5323 42.6881 31.4412 42.2714 31.4412C41.9589 31.4412 41.6803 31.5089 41.4355 31.6443C41.1959 31.7745 40.9954 31.9646 40.8339 32.2146C40.6725 32.4646 40.5475 32.7667 40.4589 33.1208C40.3756 33.4698 40.3339 33.863 40.3339 34.3005V34.613C40.3339 34.9828 40.3834 35.3266 40.4824 35.6443C40.5865 35.9568 40.7376 36.2302 40.9355 36.4646C41.1334 36.699 41.373 36.8839 41.6542 37.0193C41.9355 37.1495 42.2558 37.2146 42.6152 37.2146C43.0683 37.2146 43.4719 37.1235 43.8261 36.9412C44.1803 36.7589 44.4876 36.5011 44.748 36.1677L45.7402 37.1287C45.5579 37.3943 45.3209 37.6495 45.0292 37.8943C44.7376 38.1339 44.3808 38.3292 43.9589 38.4802C43.5423 38.6313 43.0579 38.7068 42.5058 38.7068ZM49.4902 31.8162V38.5505H47.6074V30.0974H49.3808L49.4902 31.8162ZM49.1855 34.0115L48.5449 34.0037C48.5449 33.4203 48.6178 32.8813 48.7636 32.3865C48.9094 31.8917 49.123 31.462 49.4042 31.0974C49.6855 30.7276 50.0344 30.4438 50.4511 30.2458C50.873 30.0427 51.36 29.9412 51.912 29.9412C52.2975 29.9412 52.649 29.9985 52.9667 30.113C53.2897 30.2224 53.5683 30.3969 53.8027 30.6365C54.0423 30.8761 54.2245 31.1833 54.3495 31.5583C54.4798 31.9333 54.5449 32.3865 54.5449 32.9177V38.5505H52.662V33.0818C52.662 32.6703 52.5995 32.3474 52.4745 32.113C52.3548 31.8787 52.1803 31.712 51.9511 31.613C51.7272 31.5089 51.4589 31.4568 51.1464 31.4568C50.7923 31.4568 50.4902 31.5245 50.2402 31.6599C49.9954 31.7953 49.7949 31.9802 49.6386 32.2146C49.4824 32.449 49.3678 32.7198 49.2949 33.0271C49.2219 33.3344 49.1855 33.6625 49.1855 34.0115ZM54.4277 33.5115L53.5449 33.7068C53.5449 33.1964 53.6152 32.7146 53.7558 32.2615C53.9016 31.8031 54.1126 31.4021 54.3886 31.0583C54.6699 30.7094 55.0162 30.436 55.4277 30.238C55.8391 30.0401 56.3105 29.9412 56.8417 29.9412C57.274 29.9412 57.6594 30.0011 57.998 30.1208C58.3417 30.2354 58.6334 30.4177 58.873 30.6677C59.1126 30.9177 59.2949 31.2432 59.4199 31.6443C59.5449 32.0401 59.6074 32.5193 59.6074 33.0818V38.5505H57.7167V33.074C57.7167 32.6469 57.6542 32.3162 57.5292 32.0818C57.4094 31.8474 57.2376 31.686 57.0136 31.5974C56.7897 31.5037 56.5214 31.4568 56.2089 31.4568C55.9173 31.4568 55.6594 31.5115 55.4355 31.6208C55.2167 31.725 55.0318 31.8735 54.8808 32.0662C54.7298 32.2537 54.6152 32.4698 54.537 32.7146C54.4641 32.9594 54.4277 33.225 54.4277 33.5115ZM63.6855 31.7224V41.8005H61.8027V30.0974H63.537L63.6855 31.7224ZM69.1933 34.2458V34.4099C69.1933 35.0245 69.1204 35.5948 68.9745 36.1208C68.8339 36.6417 68.623 37.0974 68.3417 37.488C68.0657 37.8735 67.7245 38.1729 67.3183 38.3865C66.912 38.6 66.4433 38.7068 65.912 38.7068C65.386 38.7068 64.9251 38.6104 64.5292 38.4177C64.1386 38.2198 63.8079 37.9412 63.537 37.5818C63.2662 37.2224 63.0475 36.8005 62.8808 36.3162C62.7193 35.8266 62.6048 35.2901 62.537 34.7068V34.074C62.6048 33.4542 62.7193 32.8917 62.8808 32.3865C63.0475 31.8813 63.2662 31.4464 63.537 31.0818C63.8079 30.7172 64.1386 30.436 64.5292 30.238C64.9199 30.0401 65.3756 29.9412 65.8964 29.9412C66.4277 29.9412 66.899 30.0453 67.3105 30.2537C67.7219 30.4568 68.0683 30.7485 68.3495 31.1287C68.6308 31.5037 68.8417 31.9568 68.9824 32.488C69.123 33.0141 69.1933 33.6 69.1933 34.2458ZM67.3105 34.4099V34.2458C67.3105 33.8552 67.274 33.4932 67.2011 33.1599C67.1282 32.8214 67.0136 32.5245 66.8574 32.2693C66.7011 32.0141 66.5006 31.8162 66.2558 31.6755C66.0162 31.5297 65.7272 31.4568 65.3886 31.4568C65.0553 31.4568 64.7688 31.5141 64.5292 31.6287C64.2897 31.738 64.0891 31.8917 63.9277 32.0896C63.7662 32.2875 63.6412 32.5193 63.5527 32.7849C63.4641 33.0453 63.4016 33.3292 63.3652 33.6365V35.1521C63.4277 35.5271 63.5344 35.8708 63.6855 36.1833C63.8365 36.4958 64.0501 36.7458 64.3261 36.9333C64.6074 37.1156 64.9667 37.2068 65.4042 37.2068C65.7428 37.2068 66.0318 37.1339 66.2714 36.988C66.511 36.8422 66.7063 36.6417 66.8574 36.3865C67.0136 36.1261 67.1282 35.8266 67.2011 35.488C67.274 35.1495 67.3105 34.7901 67.3105 34.4099ZM74.7714 38.7068C74.1464 38.7068 73.5813 38.6052 73.0761 38.4021C72.5761 38.1938 72.149 37.9047 71.7949 37.5349C71.4459 37.1651 71.1777 36.7302 70.9902 36.2302C70.8027 35.7302 70.7089 35.1912 70.7089 34.613V34.3005C70.7089 33.6391 70.8053 33.0401 70.998 32.5037C71.1907 31.9672 71.4589 31.5089 71.8027 31.1287C72.1464 30.7432 72.5527 30.449 73.0214 30.2458C73.4902 30.0427 73.998 29.9412 74.5449 29.9412C75.149 29.9412 75.6777 30.0427 76.1308 30.2458C76.5839 30.449 76.9589 30.7354 77.2558 31.1052C77.5579 31.4698 77.7818 31.9047 77.9277 32.4099C78.0787 32.9151 78.1542 33.4724 78.1542 34.0818V34.8865H71.623V33.5349H76.2949V33.3865C76.2844 33.0479 76.2167 32.7302 76.0917 32.4333C75.9719 32.1365 75.787 31.8969 75.537 31.7146C75.287 31.5323 74.9537 31.4412 74.537 31.4412C74.2245 31.4412 73.9459 31.5089 73.7011 31.6443C73.4615 31.7745 73.261 31.9646 73.0995 32.2146C72.9381 32.4646 72.8131 32.7667 72.7245 33.1208C72.6412 33.4698 72.5995 33.863 72.5995 34.3005V34.613C72.5995 34.9828 72.649 35.3266 72.748 35.6443C72.8522 35.9568 73.0032 36.2302 73.2011 36.4646C73.399 36.699 73.6386 36.8839 73.9199 37.0193C74.2011 37.1495 74.5214 37.2146 74.8808 37.2146C75.3339 37.2146 75.7376 37.1235 76.0917 36.9412C76.4459 36.7589 76.7532 36.5011 77.0136 36.1677L78.0058 37.1287C77.8235 37.3943 77.5865 37.6495 77.2949 37.8943C77.0032 38.1339 76.6464 38.3292 76.2245 38.4802C75.8079 38.6313 75.3235 38.7068 74.7714 38.7068ZM81.7636 31.7068V38.5505H79.8808V30.0974H81.6777L81.7636 31.7068ZM84.3495 30.0427L84.3339 31.7927C84.2193 31.7719 84.0943 31.7563 83.9589 31.7458C83.8287 31.7354 83.6985 31.7302 83.5683 31.7302C83.2454 31.7302 82.9615 31.7771 82.7167 31.8708C82.4719 31.9594 82.2662 32.0896 82.0995 32.2615C81.9381 32.4281 81.8131 32.6313 81.7245 32.8708C81.636 33.1104 81.5839 33.3787 81.5683 33.6755L81.1386 33.7068C81.1386 33.1755 81.1907 32.6833 81.2949 32.2302C81.399 31.7771 81.5553 31.3787 81.7636 31.0349C81.9772 30.6912 82.2428 30.4229 82.5605 30.2302C82.8834 30.0375 83.2558 29.9412 83.6777 29.9412C83.7923 29.9412 83.9147 29.9516 84.0449 29.9724C84.1803 29.9932 84.2818 30.0167 84.3495 30.0427ZM90.2636 36.8552V32.824C90.2636 32.5219 90.2089 32.2615 90.0995 32.0427C89.9902 31.824 89.8235 31.6547 89.5995 31.5349C89.3808 31.4151 89.1048 31.3552 88.7714 31.3552C88.4641 31.3552 88.1985 31.4073 87.9745 31.5115C87.7506 31.6156 87.5761 31.7563 87.4511 31.9333C87.3261 32.1104 87.2636 32.311 87.2636 32.5349H85.3886C85.3886 32.2016 85.4693 31.8787 85.6308 31.5662C85.7923 31.2537 86.0266 30.975 86.3339 30.7302C86.6412 30.4854 87.0084 30.2927 87.4355 30.1521C87.8626 30.0115 88.3417 29.9412 88.873 29.9412C89.5084 29.9412 90.0709 30.0479 90.5605 30.2615C91.0553 30.475 91.4433 30.7979 91.7245 31.2302C92.011 31.6573 92.1542 32.1938 92.1542 32.8396V36.5974C92.1542 36.9828 92.1803 37.3292 92.2324 37.6365C92.2897 37.9386 92.3704 38.2016 92.4745 38.4255V38.5505H90.5449C90.4563 38.3474 90.386 38.0896 90.3339 37.7771C90.287 37.4594 90.2636 37.1521 90.2636 36.8552ZM90.537 33.4099L90.5527 34.574H89.2011C88.8522 34.574 88.5449 34.6078 88.2792 34.6755C88.0136 34.738 87.7923 34.8318 87.6152 34.9568C87.4381 35.0818 87.3053 35.2328 87.2167 35.4099C87.1282 35.587 87.0839 35.7875 87.0839 36.0115C87.0839 36.2354 87.136 36.4412 87.2402 36.6287C87.3443 36.811 87.4954 36.9542 87.6933 37.0583C87.8964 37.1625 88.1412 37.2146 88.4277 37.2146C88.8131 37.2146 89.149 37.1365 89.4355 36.9802C89.7272 36.8188 89.9563 36.6235 90.123 36.3943C90.2897 36.1599 90.3782 35.9386 90.3886 35.7302L90.998 36.5662C90.9355 36.7797 90.8287 37.0089 90.6777 37.2537C90.5266 37.4985 90.3287 37.7328 90.0839 37.9568C89.8443 38.1755 89.5553 38.3552 89.2167 38.4958C88.8834 38.6365 88.498 38.7068 88.0605 38.7068C87.5084 38.7068 87.0162 38.5974 86.5839 38.3787C86.1516 38.1547 85.8131 37.8552 85.5683 37.4802C85.3235 37.1 85.2011 36.6703 85.2011 36.1912C85.2011 35.7432 85.2844 35.3474 85.4511 35.0037C85.623 34.6547 85.873 34.363 86.2011 34.1287C86.5344 33.8943 86.9407 33.7172 87.4199 33.5974C87.899 33.4724 88.4459 33.4099 89.0605 33.4099H90.537ZM98.248 30.0974V31.4724H93.4824V30.0974H98.248ZM94.8574 28.0271H96.7402V36.2146C96.7402 36.475 96.7766 36.6755 96.8495 36.8162C96.9277 36.9516 97.0344 37.0427 97.1699 37.0896C97.3053 37.1365 97.4641 37.1599 97.6464 37.1599C97.7766 37.1599 97.9016 37.1521 98.0214 37.1365C98.1412 37.1208 98.2376 37.1052 98.3105 37.0896L98.3183 38.5271C98.162 38.574 97.9798 38.6156 97.7714 38.6521C97.5683 38.6886 97.3339 38.7068 97.0683 38.7068C96.636 38.7068 96.2532 38.6313 95.9199 38.4802C95.5865 38.324 95.3261 38.0714 95.1386 37.7224C94.9511 37.3735 94.8574 36.9099 94.8574 36.3318V28.0271ZM105.037 36.5583V30.0974H106.928V38.5505H105.146L105.037 36.5583ZM105.303 34.8005L105.935 34.7849C105.935 35.3526 105.873 35.8761 105.748 36.3552C105.623 36.8292 105.43 37.2432 105.17 37.5974C104.909 37.9464 104.576 38.2198 104.17 38.4177C103.764 38.6104 103.277 38.7068 102.709 38.7068C102.297 38.7068 101.92 38.6469 101.576 38.5271C101.232 38.4073 100.935 38.2224 100.685 37.9724C100.441 37.7224 100.251 37.3969 100.115 36.9958C99.9798 36.5948 99.912 36.1156 99.912 35.5583V30.0974H101.795V35.574C101.795 35.8813 101.831 36.1391 101.904 36.3474C101.977 36.5505 102.076 36.7146 102.201 36.8396C102.326 36.9646 102.472 37.0531 102.639 37.1052C102.805 37.1573 102.982 37.1833 103.17 37.1833C103.706 37.1833 104.128 37.0792 104.435 36.8708C104.748 36.6573 104.969 36.3708 105.1 36.0115C105.235 35.6521 105.303 35.2485 105.303 34.8005ZM110.998 31.7068V38.5505H109.115V30.0974H110.912L110.998 31.7068ZM113.584 30.0427L113.568 31.7927C113.454 31.7719 113.329 31.7563 113.193 31.7458C113.063 31.7354 112.933 31.7302 112.803 31.7302C112.48 31.7302 112.196 31.7771 111.951 31.8708C111.706 31.9594 111.501 32.0896 111.334 32.2615C111.172 32.4281 111.047 32.6313 110.959 32.8708C110.87 33.1104 110.818 33.3787 110.803 33.6755L110.373 33.7068C110.373 33.1755 110.425 32.6833 110.529 32.2302C110.633 31.7771 110.79 31.3787 110.998 31.0349C111.212 30.6912 111.477 30.4229 111.795 30.2302C112.118 30.0375 112.49 29.9412 112.912 29.9412C113.027 29.9412 113.149 29.9516 113.279 29.9724C113.415 29.9932 113.516 30.0167 113.584 30.0427ZM118.584 38.7068C117.959 38.7068 117.394 38.6052 116.889 38.4021C116.389 38.1938 115.962 37.9047 115.607 37.5349C115.258 37.1651 114.99 36.7302 114.803 36.2302C114.615 35.7302 114.521 35.1912 114.521 34.613V34.3005C114.521 33.6391 114.618 33.0401 114.81 32.5037C115.003 31.9672 115.271 31.5089 115.615 31.1287C115.959 30.7432 116.365 30.449 116.834 30.2458C117.303 30.0427 117.81 29.9412 118.357 29.9412C118.962 29.9412 119.49 30.0427 119.943 30.2458C120.396 30.449 120.771 30.7354 121.068 31.1052C121.37 31.4698 121.594 31.9047 121.74 32.4099C121.891 32.9151 121.967 33.4724 121.967 34.0818V34.8865H115.435V33.5349H120.107V33.3865C120.097 33.0479 120.029 32.7302 119.904 32.4333C119.784 32.1365 119.6 31.8969 119.35 31.7146C119.1 31.5323 118.766 31.4412 118.35 31.4412C118.037 31.4412 117.758 31.5089 117.514 31.6443C117.274 31.7745 117.074 31.9646 116.912 32.2146C116.751 32.4646 116.626 32.7667 116.537 33.1208C116.454 33.4698 116.412 33.863 116.412 34.3005V34.613C116.412 34.9828 116.462 35.3266 116.56 35.6443C116.665 35.9568 116.816 36.2302 117.014 36.4646C117.212 36.699 117.451 36.8839 117.732 37.0193C118.014 37.1495 118.334 37.2146 118.693 37.2146C119.146 37.2146 119.55 37.1235 119.904 36.9412C120.258 36.7589 120.566 36.5011 120.826 36.1677L121.818 37.1287C121.636 37.3943 121.399 37.6495 121.107 37.8943C120.816 38.1339 120.459 38.3292 120.037 38.4802C119.62 38.6313 119.136 38.7068 118.584 38.7068Z" fill="black" fill-opacity="0.87"/>
<path d="M29.438 90.6915L38.7741 85.0027C40.5911 83.8956 41.9932 82.2212 42.7641 80.2379L45.5366 73.105C47.7563 67.3941 55.8371 67.3941 58.0568 73.105V73.105C60.0109 78.1323 66.7948 78.9218 69.8511 74.4774L73.3062 69.4531C75.437 66.3545 79.8224 65.8707 82.5775 68.4303V68.4303C85.661 71.295 90.6452 70.294 92.3834 66.4608L94.2514 62.3416C97.4987 55.1806 107.573 54.9166 111.19 61.8976L114.602 68.4813C117.043 73.1908 122.606 75.3497 127.584 73.5198L128.235 73.2808C130.832 72.3262 133.701 72.4324 136.221 73.5763L143.148 76.7216" stroke="#3F52DD" stroke-width="1.75504" stroke-linecap="round"/>
<path d="M170.469 85.636V87.9395H158.759V85.9599L164.446 79.7573C165.07 79.0534 165.562 78.4455 165.922 77.9337C166.282 77.4218 166.533 76.9619 166.677 76.554C166.829 76.1381 166.905 75.7341 166.905 75.3422C166.905 74.7904 166.801 74.3065 166.593 73.8906C166.394 73.4666 166.098 73.1347 165.706 72.8948C165.314 72.6468 164.838 72.5229 164.278 72.5229C163.63 72.5229 163.086 72.6628 162.646 72.9428C162.206 73.2227 161.875 73.6106 161.651 74.1065C161.427 74.5944 161.315 75.1543 161.315 75.7861H158.423C158.423 74.7704 158.655 73.8426 159.119 73.0027C159.583 72.1549 160.255 71.4831 161.135 70.9872C162.014 70.4833 163.074 70.2314 164.314 70.2314C165.482 70.2314 166.473 70.4273 167.289 70.8192C168.105 71.2111 168.725 71.767 169.149 72.4869C169.581 73.2067 169.797 74.0585 169.797 75.0423C169.797 75.5862 169.709 76.1261 169.533 76.6619C169.357 77.1978 169.105 77.7337 168.777 78.2696C168.457 78.7975 168.077 79.3294 167.637 79.8652C167.197 80.3931 166.713 80.929 166.186 81.4729L162.406 85.636H170.469ZM184.434 85.636V87.9395H172.724V85.9599L178.411 79.7573C179.035 79.0534 179.527 78.4455 179.887 77.9337C180.246 77.4218 180.498 76.9619 180.642 76.554C180.794 76.1381 180.87 75.7341 180.87 75.3422C180.87 74.7904 180.766 74.3065 180.558 73.8906C180.358 73.4666 180.062 73.1347 179.671 72.8948C179.279 72.6468 178.803 72.5229 178.243 72.5229C177.595 72.5229 177.051 72.6628 176.611 72.9428C176.171 73.2227 175.839 73.6106 175.615 74.1065C175.392 74.5944 175.28 75.1543 175.28 75.7861H172.388C172.388 74.7704 172.62 73.8426 173.084 73.0027C173.548 72.1549 174.22 71.4831 175.1 70.9872C175.979 70.4833 177.039 70.2314 178.279 70.2314C179.447 70.2314 180.438 70.4273 181.254 70.8192C182.07 71.2111 182.69 71.767 183.114 72.4869C183.546 73.2067 183.762 74.0585 183.762 75.0423C183.762 75.5862 183.674 76.1261 183.498 76.6619C183.322 77.1978 183.07 77.7337 182.742 78.2696C182.422 78.7975 182.042 79.3294 181.602 79.8652C181.162 80.3931 180.678 80.929 180.15 81.4729L176.371 85.636H184.434Z" fill="black" fill-opacity="0.87"/>
<path d="M191.203 71.4102C191.203 70.7448 191.367 70.1341 191.695 69.5781C192.023 69.0221 192.461 68.5801 193.008 68.252C193.564 67.9147 194.165 67.7461 194.813 67.7461C195.469 67.7461 196.066 67.9147 196.604 68.252C197.141 68.5801 197.57 69.0221 197.889 69.5781C198.217 70.1341 198.381 70.7448 198.381 71.4102C198.381 72.0755 198.217 72.6862 197.889 73.2422C197.57 73.7891 197.141 74.222 196.604 74.541C196.066 74.86 195.469 75.0195 194.813 75.0195C194.165 75.0195 193.564 74.86 193.008 74.541C192.461 74.222 192.023 73.7891 191.695 73.2422C191.367 72.6862 191.203 72.0755 191.203 71.4102ZM193.049 71.4102C193.049 71.9023 193.222 72.3171 193.568 72.6543C193.915 72.9824 194.329 73.1465 194.813 73.1465C195.296 73.1465 195.701 72.9824 196.029 72.6543C196.357 72.3262 196.522 71.9115 196.522 71.4102C196.522 70.8997 196.357 70.4759 196.029 70.1387C195.701 69.8014 195.296 69.6328 194.813 69.6328C194.329 69.6328 193.915 69.8014 193.568 70.1387C193.222 70.4759 193.049 70.8997 193.049 71.4102ZM213.939 81.459H217.357C217.248 82.7624 216.883 83.9245 216.264 84.9453C215.644 85.957 214.773 86.7546 213.652 87.3379C212.531 87.9212 211.169 88.2129 209.564 88.2129C208.334 88.2129 207.227 87.9941 206.242 87.5566C205.258 87.11 204.415 86.4811 203.713 85.6699C203.011 84.8496 202.473 83.8607 202.1 82.7031C201.735 81.5456 201.553 80.2513 201.553 78.8203V77.166C201.553 75.735 201.74 74.4408 202.113 73.2832C202.496 72.1257 203.043 71.1367 203.754 70.3164C204.465 69.487 205.317 68.8535 206.311 68.416C207.313 67.9785 208.439 67.7598 209.688 67.7598C211.273 67.7598 212.613 68.0514 213.707 68.6348C214.801 69.2181 215.648 70.0247 216.25 71.0547C216.861 72.0846 217.234 73.265 217.371 74.5957H213.953C213.862 73.7389 213.661 73.0052 213.352 72.3945C213.051 71.7839 212.604 71.319 212.012 71C211.419 70.6719 210.645 70.5078 209.688 70.5078C208.904 70.5078 208.22 70.6536 207.637 70.9453C207.053 71.237 206.566 71.6654 206.174 72.2305C205.782 72.7956 205.486 73.4928 205.285 74.3223C205.094 75.1426 204.998 76.0814 204.998 77.1387V78.8203C204.998 79.8229 205.085 80.7344 205.258 81.5547C205.44 82.3659 205.714 83.0632 206.078 83.6465C206.452 84.2298 206.926 84.681 207.5 85C208.074 85.319 208.762 85.4785 209.564 85.4785C210.54 85.4785 211.328 85.3236 211.93 85.0137C212.54 84.7038 213.001 84.2526 213.311 83.6602C213.63 83.0586 213.839 82.3249 213.939 81.459Z" fill="black" fill-opacity="0.87"/>
</g>
<defs>
<filter id="filter0_d_3287_88395" x="0.479833" y="0.489917" width="247.04" height="126.04" filterUnits="userSpaceOnUse" color-interpolation-filters="sRGB">
<feFlood flood-opacity="0" result="BackgroundImageFix"/>
<feColorMatrix in="SourceAlpha" type="matrix" values="0 0 0 0 0 0 0 0 0 0 0 0 0 0 0 0 0 0 127 0" result="hardAlpha"/>
<feOffset dy="3.51008"/>
<feGaussianBlur stdDeviation="3.51008"/>
<feComposite in2="hardAlpha" operator="out"/>
<feColorMatrix type="matrix" values="0 0 0 0 0 0 0 0 0 0 0 0 0 0 0 0 0 0 0.04 0"/>
<feBlend mode="normal" in2="BackgroundImageFix" result="effect1_dropShadow_3287_88395"/>
<feBlend mode="normal" in="SourceGraphic" in2="effect1_dropShadow_3287_88395" result="shape"/>
</filter>
<filter id="filter1_b_3287_88395" x="12.7651" y="9.26515" width="222.47" height="101.47" filterUnits="userSpaceOnUse" color-interpolation-filters="sRGB">
<feFlood flood-opacity="0" result="BackgroundImageFix"/>
<feGaussianBlur in="BackgroundImageFix" stdDeviation="2.63256"/>
<feComposite in2="SourceAlpha" operator="in" result="effect1_backgroundBlur_3287_88395"/>
<feBlend mode="normal" in="SourceGraphic" in2="effect1_backgroundBlur_3287_88395" result="shape"/>
</filter>
</defs>
</svg>
