<svg width="266" height="59" fill="none" xmlns="http://www.w3.org/2000/svg"><rect x=".5" y=".5" width="265" height="58" rx="3.5" fill="#E8E8E8"/><rect x=".5" y=".5" width="265" height="58" rx="3.5" stroke="#305680"/><rect x="4" y="4" width="129" height="51" rx="2" fill="#305680"/><path d="M28.69 23.85a23.96 23.96 0 0 0-3.57 5.89l-3.62-1.55 4.05-4.05a2.01 2.01 0 0 1 1.81-.55l1.33.26Zm1.98 10.65s3.74-1.55 5.89-3.7c5.4-5.4 4.5-9.62 4.21-10.57-.95-.3-5.17-1.19-10.57 4.21-2.15 2.15-3.7 5.89-3.7 5.89l4.17 4.17Zm6.48-2.19a23.96 23.96 0 0 1-5.89 3.57l1.55 3.62 4.05-4.05c.47-.47.68-1.15.55-1.81l-.26-1.33ZM28.5 35.5a3 3 0 0 1-.88 2.12c-1.18 1.18-6.12 1.88-6.12 1.88s.7-4.94 1.88-6.12a3 3 0 0 1 5.12 2.12Zm4-9c0-1.1.9-2 2-2a2 2 0 0 1 2 2 2 2 0 0 1-2 2 2 2 0 0 1-2-2Zm20.44-1.95v9.95h-1.7v-9.95h1.7Zm3.13 0v1.36h-7.93v-1.36h7.93Zm2.56 3.96v5.99h-1.65v-7.4h1.57l.08 1.41Zm2.26-1.45-.01 1.53a3.23 3.23 0 0 0-1.42.07 1.4 1.4 0 0 0-.87.87c-.07.21-.12.44-.13.7l-.38.03c0-.46.05-.9.14-1.29.09-.4.22-.75.4-1.05.2-.3.43-.53.7-.7a1.87 1.87 0 0 1 1.3-.23c.12.02.21.04.27.07Zm5.2 5.96v-3.53c0-.27-.04-.5-.14-.68a1 1 0 0 0-.44-.45 1.5 1.5 0 0 0-.72-.16c-.27 0-.5.05-.7.14-.2.1-.35.21-.46.37a.89.89 0 0 0-.16.53h-1.64c0-.3.07-.58.21-.85a2.74 2.74 0 0 1 1.58-1.23 4 4 0 0 1 1.26-.2c.55 0 1.05.1 1.48.29.43.18.77.47 1.01.84.25.38.38.85.38 1.41v3.3c0 .33.02.63.07.9.05.26.12.5.21.7v.1h-1.69c-.08-.18-.14-.4-.18-.68a5.53 5.53 0 0 1-.06-.8Zm.24-3.02.02 1.02h-1.18c-.3 0-.58.03-.81.09-.23.05-.43.14-.58.25a1.07 1.07 0 0 0-.47.92c0 .2.05.37.14.54.1.16.22.28.4.37.17.1.39.14.64.14a1.81 1.81 0 0 0 1.48-.72c.15-.2.23-.4.24-.58l.53.73a2.92 2.92 0 0 1-.8 1.22 2.58 2.58 0 0 1-1.77.66c-.49 0-.92-.1-1.3-.29a2.3 2.3 0 0 1-.88-.79 2.35 2.35 0 0 1-.1-2.17c.15-.3.36-.55.65-.76.3-.2.65-.36 1.07-.46.42-.11.9-.17 1.43-.17h1.3Zm7.9 2.97V24h1.66v10.5h-1.5l-.16-1.53Zm-4.8-2.09v-.14c0-.56.06-1.07.19-1.53.13-.47.32-.86.57-1.2a2.52 2.52 0 0 1 2.14-1.04 2.43 2.43 0 0 1 2.03 1c.24.32.43.7.57 1.15.14.44.24.93.3 1.48v.45a7.4 7.4 0 0 1-.3 1.45 3.9 3.9 0 0 1-.57 1.14 2.45 2.45 0 0 1-2.05 1 2.59 2.59 0 0 1-2.12-1.07 3.7 3.7 0 0 1-.57-1.19 5.4 5.4 0 0 1-.2-1.5Zm1.64-.14v.14c0 .34.03.66.09.95.06.29.16.55.3.77.12.22.3.4.5.52.22.12.47.18.77.18.37 0 .68-.08.92-.24.24-.17.43-.39.57-.67.14-.28.24-.6.29-.94v-1.24a3.02 3.02 0 0 0-.17-.75c-.09-.23-.2-.43-.34-.6a1.41 1.41 0 0 0-.52-.42c-.21-.1-.45-.15-.74-.15-.3 0-.55.07-.76.2-.21.12-.38.3-.52.52-.13.22-.23.48-.3.78-.06.3-.1.61-.1.95Zm8.56-3.64v7.4h-1.66v-7.4h1.66Zm-1.77-1.94c0-.25.08-.46.25-.62.17-.17.4-.25.7-.25.29 0 .52.08.69.25.16.16.25.37.25.62s-.09.45-.25.62a.95.95 0 0 1-.7.24.96.96 0 0 1-.7-.24.83.83 0 0 1-.24-.62Zm7.21 1.94v1.2H80.9v-1.2h4.17Zm-2.97-1.8h1.65v7.16c0 .22.03.4.1.52s.16.2.28.24c.12.04.25.06.41.06a2.53 2.53 0 0 0 .58-.06l.01 1.26a4.2 4.2 0 0 1-1.1.16c-.37 0-.7-.07-1-.2a1.5 1.5 0 0 1-.68-.66 2.67 2.67 0 0 1-.25-1.22v-7.27Zm6.26 1.8v7.4H86.7v-7.4h1.66Zm-1.77-1.94c0-.25.08-.46.25-.62.17-.17.4-.25.7-.25.29 0 .52.08.69.25.16.16.25.37.25.62s-.09.45-.25.62a.95.95 0 0 1-.7.24.96.96 0 0 1-.7-.24.83.83 0 0 1-.24-.62Zm3.5 5.72v-.15c0-.54.08-1.03.24-1.49a3.18 3.18 0 0 1 3.2-2.27 3.2 3.2 0 0 1 3.21 2.28c.16.45.23.94.23 1.48v.15c0 .54-.07 1.03-.23 1.49-.15.45-.38.85-.68 1.2a3.14 3.14 0 0 1-2.52 1.07 3.6 3.6 0 0 1-1.46-.28 3.3 3.3 0 0 1-1.75-2 4.58 4.58 0 0 1-.23-1.48Zm1.65-.15v.15c0 .34.04.65.1.95.07.3.18.55.33.78a1.62 1.62 0 0 0 1.37.72 1.57 1.57 0 0 0 1.35-.72c.15-.23.26-.49.33-.78.07-.3.1-.61.1-.95v-.15c0-.33-.03-.64-.1-.93-.07-.3-.18-.56-.33-.79a1.57 1.57 0 0 0-1.36-.73 1.56 1.56 0 0 0-1.36.73c-.15.23-.26.5-.32.79-.07.29-.1.6-.1.93Zm8.5-2.05v5.82h-1.65v-7.4h1.55l.1 1.58Zm-.3 1.85h-.53c0-.53.08-1.01.22-1.45.14-.44.35-.81.6-1.13a2.66 2.66 0 0 1 2.13-.98c.36 0 .68.05.97.15.29.1.54.25.74.47.21.22.37.5.48.85.11.35.17.78.17 1.28v4.78h-1.66v-4.79c0-.35-.05-.63-.16-.84a.88.88 0 0 0-.44-.44c-.2-.1-.43-.14-.72-.14a1.6 1.6 0 0 0-1.32.67 2.78 2.78 0 0 0-.48 1.57Zm10.88 2.49v-3.53c0-.27-.05-.5-.15-.68a1 1 0 0 0-.44-.45 1.5 1.5 0 0 0-.72-.16c-.27 0-.5.05-.7.14-.2.1-.34.21-.45.37a.9.9 0 0 0-.17.53h-1.64c0-.3.07-.58.21-.85a2.74 2.74 0 0 1 1.58-1.23 4 4 0 0 1 1.26-.2c.56 0 1.05.1 1.48.29.43.18.77.47 1.02.84.25.38.37.85.37 1.41v3.3c0 .33.02.63.07.9.05.26.12.5.21.7v.1h-1.69c-.08-.18-.14-.4-.18-.68a5.53 5.53 0 0 1-.06-.8Zm.24-3.02v1.02h-1.17c-.3 0-.58.03-.81.09-.23.05-.43.14-.58.25a1.07 1.07 0 0 0-.47.92c0 .2.05.37.14.54.1.16.22.28.4.37a1.82 1.82 0 0 0 2.13-.58c.14-.2.22-.4.23-.58l.53.73a2.92 2.92 0 0 1-.8 1.22 2.56 2.56 0 0 1-1.77.66c-.48 0-.92-.1-1.3-.29a2.3 2.3 0 0 1-.88-.79 2.37 2.37 0 0 1-.1-2.17c.15-.3.36-.55.65-.76.3-.2.65-.36 1.07-.46.42-.11.9-.17 1.43-.17h1.3Zm5.15-6v10.5h-1.66V24h1.66Z" fill="#fff"/><path d="M169.19 23.85a23.96 23.96 0 0 0-3.57 5.89L162 28.19l4.05-4.05a2.01 2.01 0 0 1 1.81-.55l1.33.26Zm1.98 10.65s3.74-1.55 5.89-3.7c5.4-5.4 4.5-9.62 4.21-10.57-.95-.3-5.17-1.19-10.57 4.21-2.15 2.15-3.7 5.89-3.7 5.89l4.17 4.17Zm6.48-2.19a23.96 23.96 0 0 1-5.89 3.57l1.55 3.62 4.05-4.05c.47-.47.68-1.15.55-1.81l-.26-1.33ZM169 35.5a3 3 0 0 1-.88 2.12C166.94 38.8 162 39.5 162 39.5s.7-4.94 1.88-6.12A3 3 0 0 1 169 35.5Zm4-9c0-1.1.9-2 2-2a2 2 0 0 1 2 2 2 2 0 0 1-2 2 2 2 0 0 1-2-2Zm23.02 2.2v1.36h-5.29V28.7h5.29Zm-4.86-4.15v9.95h-1.72v-9.95h1.72Zm6.18 0v9.95h-1.71v-9.95h1.7Zm3.9 2.55v7.4h-1.66v-7.4h1.65Zm-1.77-1.94c0-.25.08-.46.24-.62.17-.17.4-.25.7-.25.3 0 .52.08.7.25.16.16.24.37.24.62s-.08.45-.25.62a.95.95 0 0 1-.69.24.96.96 0 0 1-.7-.24.83.83 0 0 1-.24-.62Zm7.13 4.43v1.31H203v-1.3h3.61Zm5.64 1.2h-2.6v-1.36h2.6c.45 0 .81-.08 1.1-.22.27-.15.47-.35.6-.6a2.02 2.02 0 0 0 0-1.77 1.5 1.5 0 0 0-.6-.67 2.1 2.1 0 0 0-1.1-.26h-2.07v8.59h-1.71v-9.95h3.78c.77 0 1.42.13 1.96.4a2.96 2.96 0 0 1 1.66 2.76 2.73 2.73 0 0 1-1.66 2.71 4.7 4.7 0 0 1-1.96.37Zm8.41 3.85c-.55 0-1.04-.1-1.48-.27a3.27 3.27 0 0 1-1.83-1.9 4 4 0 0 1-.24-1.42v-.27c0-.58.08-1.1.25-1.57.17-.47.4-.87.7-1.2a3.05 3.05 0 0 1 2.4-1.04c.53 0 1 .09 1.39.26a3.03 3.03 0 0 1 1.58 1.9c.12.44.19.93.19 1.46v.7h-5.71v-1.18h4.08v-.13c0-.3-.06-.57-.17-.83-.1-.26-.27-.47-.49-.63a1.45 1.45 0 0 0-.88-.24 1.44 1.44 0 0 0-1.26.68 2.9 2.9 0 0 0-.32.79c-.07.3-.11.65-.11 1.03v.27a3 3 0 0 0 .13.9c.1.28.22.52.4.72.17.21.38.37.63.49a2.28 2.28 0 0 0 2.7-.75l.87.85a3.11 3.11 0 0 1-1.56 1.18c-.36.13-.79.2-1.27.2Zm6.15-6.13v5.99h-1.65v-7.4h1.57l.08 1.41Zm2.26-1.45-.01 1.53a3.23 3.23 0 0 0-1.42.07 1.4 1.4 0 0 0-.86.87c-.08.21-.13.44-.14.7l-.38.03c0-.46.05-.9.14-1.29.1-.4.23-.75.41-1.05a1.87 1.87 0 0 1 2-.93c.11.02.2.04.26.07Zm3.64 7.44h-1.65v-8.1c0-.56.1-1.02.3-1.4.22-.37.52-.66.9-.85a3.42 3.42 0 0 1 2.32-.17l-.03 1.27-.3-.05-.35-.01c-.25 0-.46.05-.65.14a.95.95 0 0 0-.4.4c-.1.18-.14.4-.14.66v8.11Zm1.52-7.4v1.2h-4.3v-1.2h4.3Z" fill="#000" fill-opacity=".76"/></svg>