<svg width="499" height="231" viewBox="0 0 499 231" fill="none" xmlns="http://www.w3.org/2000/svg">
<g filter="url(#filter0_f_7199_317769)">
<path d="M261 20.8467V28.4598C261 28.7512 261.25 28.9812 261.54 28.9509C268.621 28.2089 272.072 23.9532 272.966 21.7882C272.989 21.7306 273 21.6707 273 21.6083V3.7506C273 3.57065 272.903 3.40458 272.747 3.31575L270.989 2.31824C270.705 2.15701 270.345 2.30697 270.263 2.62313C269.411 5.90504 268.285 11.3042 269.571 10.7567C270.842 10.2161 272.21 11.7201 272.859 12.7181C272.95 12.8587 272.955 13.0395 272.879 13.189C269.679 19.4834 264.373 20.5849 261.596 20.3258C261.284 20.2967 261 20.5333 261 20.8467Z" fill="#305680"/>
</g>
<path d="M73.8155 56.6276C72.7476 50.6636 76.0272 49.1423 79.0267 49.1477C79.5716 49.1487 79.587 49.8859 79.0895 50.1081C76.7511 51.1521 76.635 52.9673 76.9809 53.9662C76.9954 54.0082 77.0182 54.0486 77.0439 54.0848C78.9002 56.7011 76.1566 57.1404 74.2522 57.025C74.0338 57.0118 73.8541 56.8429 73.8155 56.6276Z" fill="#305680"/>
<path d="M392.124 34.2236C388.166 32.3314 388.187 29.7632 389.187 27.8516C389.437 27.3732 390.06 27.7284 390.042 28.268C389.982 29.9621 391.001 30.7561 391.736 30.9772C391.78 30.9903 391.827 30.995 391.872 30.9949C394.259 30.9916 393.534 32.8803 392.712 34.0744C392.582 34.2629 392.331 34.3224 392.124 34.2236Z" fill="#305680"/>
<path d="M58.5625 88.8754C54.8115 86.6873 52.8751 89.4544 52.1923 91.6293C52.0837 91.9751 52.3999 92.2852 52.7556 92.216C58.7522 91.0503 62.7284 92.6604 64.6393 94.129C64.9996 94.406 65.6136 94.1825 65.6419 93.7289L65.862 90.2075C65.8953 89.6758 64.8895 89.255 64.4202 89.5071C63.1379 90.1961 61.1783 90.4012 58.5625 88.8754Z" fill="#305680"/>
<path d="M101.471 86.0697C98.4382 82.6251 100.726 78.6649 102.696 76.6195C102.968 76.337 103.425 76.5005 103.48 76.8889C104.198 81.9397 104.654 89.6858 101.471 86.0697Z" fill="#305680"/>
<path d="M50.1778 129.083C40.0686 135.411 44.4686 138.774 48.6225 139.848C48.9483 139.932 49.2484 139.66 49.2281 139.324C48.9944 135.469 50.0134 132.043 51.0015 129.853C51.2182 129.372 50.6245 128.803 50.1778 129.083Z" fill="#305680"/>
<path d="M51.5713 5.28542L49.4543 1.75725C49.2544 1.42399 49.4944 1 49.8831 1H54.1169C54.5056 1 54.7456 1.42399 54.5457 1.75725L52.4287 5.28542C52.2345 5.60909 51.7655 5.60909 51.5713 5.28542Z" fill="#305680"/>
<path d="M1.90323 11L9.12903 23.6995V29.1421C9.43011 30.654 11.0258 33.3148 15 31.8634C13.6452 33.8288 10.0323 37.3061 6.41935 35.4918C2.80645 33.6776 4.91398 30.8051 6.41935 29.5957L1 20.9782L1.90323 11Z" fill="#305680"/>
<path d="M29 50.4734V47.7583C29 47.3993 29.367 47.1573 29.697 47.2987L36.697 50.2987C36.8808 50.3775 37 50.5583 37 50.7583V52.3484C37 52.6772 36.6882 52.9165 36.3706 52.8314L29.3706 50.9564C29.152 50.8979 29 50.6998 29 50.4734Z" fill="#305680"/>
<g filter="url(#filter1_f_7199_317769)">
<path d="M378.048 76.6647L379.312 72.0686C379.408 71.7206 379.115 71.3889 378.758 71.4412L366.913 73.1785C366.717 73.2073 366.556 73.3493 366.503 73.5405L365.718 76.3949C365.631 76.7131 365.87 77.0274 366.2 77.0275L377.566 77.032C377.791 77.0321 377.988 76.8818 378.048 76.6647Z" fill="#305680"/>
</g>
<path d="M162.446 30.4634L164.95 28.4433C165.219 28.2268 165.621 28.3405 165.736 28.6656L166.942 32.0712C166.98 32.1775 167.052 32.2679 167.147 32.3278L169.385 33.7316C169.682 33.9178 169.7 34.3438 169.42 34.5546L167.837 35.7466C167.642 35.893 167.37 35.8781 167.193 35.7112L162.418 31.2166C162.197 31.0088 162.21 30.6538 162.446 30.4634Z" fill="#305680"/>
<path d="M440.39 94.1556L444.697 95.3847C445.011 95.4744 445.156 95.8365 444.991 96.1184L442.373 100.581L440.783 103.872C440.674 104.097 440.417 104.207 440.179 104.13L437.387 103.229C437.123 103.143 436.978 102.858 437.067 102.594L439.779 94.4779C439.864 94.2242 440.133 94.0822 440.39 94.1556Z" fill="#305680"/>
<path d="M2.11816 100.954L3.46016 98.2693C3.62005 97.9494 4.05426 97.8959 4.287 98.1674L9.75271 104.543C9.88364 104.696 9.91029 104.912 9.82034 105.092L9.02476 106.683C8.87817 106.977 8.49378 107.052 8.2475 106.836L2.23537 101.553C2.06474 101.403 2.0166 101.157 2.11816 100.954Z" fill="#305680"/>
<path d="M0 166.445L0 163.68C0 163.342 0.326892 163.102 0.648784 163.202L10.6488 166.319C10.8577 166.384 11 166.578 11 166.796V168.393C11 168.708 10.7131 168.944 10.4044 168.884L0.404395 166.936C0.169529 166.89 0 166.684 0 166.445Z" fill="#305680"/>
<g filter="url(#filter2_f_7199_317769)">
<path d="M21.2185 63H11.4129C11.2168 63 11.0388 63.1146 10.9577 63.2931L2.40026 82.1194C2.23232 82.4889 2.55131 82.894 2.94987 82.8173L13.5662 80.7757C13.7244 80.7453 13.8582 80.6405 13.9257 80.4943L21.6725 63.7095C21.8254 63.3782 21.5834 63 21.2185 63Z" fill="#305680"/>
</g>
<path d="M61.9528 17.7618L61.5851 14.7071C61.5437 14.3631 61.1734 14.1645 60.8638 14.3203L56.3779 16.579C56.1598 16.6888 56.0529 16.9401 56.1251 17.1734L56.844 19.4961C56.9288 19.7699 57.2259 19.9166 57.4949 19.8173L61.6296 18.2906C61.8467 18.2104 61.9805 17.9917 61.9528 17.7618Z" fill="#305680"/>
<g filter="url(#filter3_f_7199_317769)">
<path d="M40.8541 206.495L42.5104 203.711C42.6501 203.476 42.5754 203.173 42.3425 203.03L33.2396 197.435C32.9448 197.254 32.5595 197.419 32.4884 197.758L31.912 200.504C31.8709 200.699 31.9503 200.901 32.114 201.016L40.1371 206.649C40.3753 206.816 40.7053 206.745 40.8541 206.495Z" fill="#305680"/>
</g>
<g filter="url(#filter4_f_7199_317769)">
<path d="M110.828 30.8543C109.06 33.4034 107.471 35.1065 106.675 35.8472C106.52 35.9909 106.46 36.2119 106.55 36.4024C108.397 40.2897 117.613 45.3401 122.691 47.7128C123.015 47.8644 123.398 47.6294 123.483 47.2817C123.89 45.6264 125.329 43.3298 126.33 41.9286C126.527 41.6536 126.412 41.2638 126.101 41.1333C121.531 39.2203 114.845 33.7171 111.585 30.7636C111.358 30.558 111.003 30.6027 110.828 30.8543Z" fill="#305680"/>
</g>
<g filter="url(#filter5_f_7199_317769)">
<path d="M349.984 47.943C351.396 48.998 352.369 49.948 352.855 50.4888C353.004 50.6541 353.24 50.7208 353.433 50.6113C355.865 49.2333 359.041 43.3865 360.637 39.9732C360.789 39.6481 360.553 39.2497 360.213 39.1354C359.284 38.8233 358.135 38.0814 357.33 37.4899C357.052 37.2862 356.649 37.399 356.51 37.7137C355.175 40.7342 351.805 44.9973 349.901 47.1979C349.707 47.4223 349.747 47.7653 349.984 47.943Z" fill="#305680"/>
</g>
<g filter="url(#filter6_f_7199_317769)">
<path d="M477.74 163.492C474.233 165.527 471.865 167.452 470.87 168.393C470.709 168.546 470.47 168.588 470.282 168.47C465.587 165.521 460.223 152.3 457.86 145.281C457.745 144.941 458.02 144.587 458.377 144.548C460.534 144.313 463.769 142.612 465.661 141.456C465.954 141.277 466.342 141.43 466.437 141.761C468.264 148.135 474.585 158.052 477.902 162.763C478.073 163.005 477.997 163.343 477.74 163.492Z" fill="#305680"/>
</g>
<path d="M168.497 72.452C169.388 70.0406 170.306 68.3308 170.807 67.533C170.919 67.3544 170.921 67.1232 170.784 66.9635C168.382 64.1787 159.815 62.0112 155.09 61.1325C154.738 61.0671 154.423 61.3909 154.42 61.7489C154.407 63.1765 153.761 65.2563 153.251 66.6058C153.132 66.922 153.341 67.2715 153.675 67.3216C157.854 67.9485 164.446 70.9922 167.787 72.7302C168.059 72.8715 168.391 72.7393 168.497 72.452Z" fill="#305680"/>
<path d="M121.272 9.85265C120.367 12.2427 121.9 13.8542 123.228 14.6285C123.559 14.8215 123.926 14.5313 123.858 14.1542C123.33 11.2164 122.264 7.23322 121.272 9.85265Z" fill="#305680"/>
<line x1="74.689" y1="19.841" x2="81.473" y2="24.081" stroke="#305680" stroke-linecap="round"/>
<line x1="429.646" y1="152.612" x2="421.919" y2="154.683" stroke="#305680" stroke-linecap="round"/>
<path d="M498 85.3158C495.359 83.1263 495.327 76.193 495.642 73C490.926 78.7778 481.399 90.8807 481.022 93.0702C480.644 95.2596 485.266 97.9357 487.625 99C486.493 96.0807 494.07 88.6608 498 85.3158Z" fill="#305680"/>
<g filter="url(#filter7_f_7199_317769)">
<path d="M419.824 7.33333L417 2H435.824L441 3.33333L440.529 10L419.824 7.33333Z" fill="#305680"/>
</g>
<defs>
<filter id="filter0_f_7199_317769" x="259" y="0.25293" width="16" height="30.7002" filterUnits="userSpaceOnUse" color-interpolation-filters="sRGB">
<feFlood flood-opacity="0" result="BackgroundImageFix"/>
<feBlend mode="normal" in="SourceGraphic" in2="BackgroundImageFix" result="shape"/>
<feGaussianBlur stdDeviation="1" result="effect1_foregroundBlur_7199_317769"/>
</filter>
<filter id="filter1_f_7199_317769" x="363.703" y="69.4355" width="17.625" height="9.59668" filterUnits="userSpaceOnUse" color-interpolation-filters="sRGB">
<feFlood flood-opacity="0" result="BackgroundImageFix"/>
<feBlend mode="normal" in="SourceGraphic" in2="BackgroundImageFix" result="shape"/>
<feGaussianBlur stdDeviation="1" result="effect1_foregroundBlur_7199_317769"/>
</filter>
<filter id="filter2_f_7199_317769" x="0.351562" y="61" width="23.3672" height="23.8271" filterUnits="userSpaceOnUse" color-interpolation-filters="sRGB">
<feFlood flood-opacity="0" result="BackgroundImageFix"/>
<feBlend mode="normal" in="SourceGraphic" in2="BackgroundImageFix" result="shape"/>
<feGaussianBlur stdDeviation="1" result="effect1_foregroundBlur_7199_317769"/>
</filter>
<filter id="filter3_f_7199_317769" x="29.8984" y="195.36" width="14.6797" height="13.3789" filterUnits="userSpaceOnUse" color-interpolation-filters="sRGB">
<feFlood flood-opacity="0" result="BackgroundImageFix"/>
<feBlend mode="normal" in="SourceGraphic" in2="BackgroundImageFix" result="shape"/>
<feGaussianBlur stdDeviation="1" result="effect1_foregroundBlur_7199_317769"/>
</filter>
<filter id="filter4_f_7199_317769" x="104.508" y="28.6338" width="23.9219" height="21.126" filterUnits="userSpaceOnUse" color-interpolation-filters="sRGB">
<feFlood flood-opacity="0" result="BackgroundImageFix"/>
<feBlend mode="normal" in="SourceGraphic" in2="BackgroundImageFix" result="shape"/>
<feGaussianBlur stdDeviation="1" result="effect1_foregroundBlur_7199_317769"/>
</filter>
<filter id="filter5_f_7199_317769" x="347.773" y="35.3877" width="14.9141" height="17.2773" filterUnits="userSpaceOnUse" color-interpolation-filters="sRGB">
<feFlood flood-opacity="0" result="BackgroundImageFix"/>
<feBlend mode="normal" in="SourceGraphic" in2="BackgroundImageFix" result="shape"/>
<feGaussianBlur stdDeviation="1" result="effect1_foregroundBlur_7199_317769"/>
</filter>
<filter id="filter6_f_7199_317769" x="453.836" y="137.381" width="28.1562" height="35.1572" filterUnits="userSpaceOnUse" color-interpolation-filters="sRGB">
<feFlood flood-opacity="0" result="BackgroundImageFix"/>
<feBlend mode="normal" in="SourceGraphic" in2="BackgroundImageFix" result="shape"/>
<feGaussianBlur stdDeviation="2" result="effect1_foregroundBlur_7199_317769"/>
</filter>
<filter id="filter7_f_7199_317769" x="415" y="0" width="28" height="12" filterUnits="userSpaceOnUse" color-interpolation-filters="sRGB">
<feFlood flood-opacity="0" result="BackgroundImageFix"/>
<feBlend mode="normal" in="SourceGraphic" in2="BackgroundImageFix" result="shape"/>
<feGaussianBlur stdDeviation="1" result="effect1_foregroundBlur_7199_317769"/>
</filter>
</defs>
</svg>
