<svg width="56" height="56" viewBox="0 0 56 56" fill="none" xmlns="http://www.w3.org/2000/svg">
<path d="M0.320312 35.1166C2.1985 35.0291 3.78774 34.3003 5.08802 32.9301C6.38831 31.56 7.0529 29.9274 7.0529 28.0325C7.0529 29.9274 7.68859 31.56 8.98888 32.9301C10.2892 34.3003 11.8784 35.0291 13.7566 35.1166C11.8784 35.204 10.2892 35.9328 8.98888 37.303C8.36023 37.9489 7.86529 38.7146 7.53291 39.5555C7.20053 40.3963 7.03736 41.2955 7.0529 42.2006C7.0529 40.3057 6.4172 38.6732 5.08802 37.303C3.78774 35.9328 2.1985 35.204 0.320312 35.1166ZM7.0529 14.1267C10.6937 13.9518 13.7855 12.5234 16.3283 9.84133C18.871 7.15929 20.1424 3.98167 20.1424 0.279297C20.1424 3.98167 21.4138 7.15929 23.9566 9.84133C26.4994 12.5234 29.5912 13.9227 33.2609 14.1267C30.8626 14.2434 28.6665 14.9139 26.6439 16.1966C24.6501 17.4501 23.0608 19.141 21.8761 21.24C20.7203 23.3389 20.1424 25.5837 20.1424 28.0325C20.1424 24.3301 18.871 21.1234 16.3283 18.4413C13.7855 15.7301 10.6937 14.3017 7.0529 14.1267ZM16.6461 45.524C19.3912 45.4074 21.7317 44.3288 23.6387 42.3172C25.5458 40.3057 26.4994 37.9152 26.4994 35.1166C26.4994 37.9152 27.4529 40.3057 29.36 42.3172C31.2671 44.3288 33.5787 45.4074 36.3237 45.524C33.5787 45.6406 31.2671 46.7193 29.36 48.7308C27.4529 50.7423 26.4994 53.1328 26.4994 55.9315C26.4994 53.1328 25.5458 50.7423 23.6387 48.7308C21.816 46.7765 19.3041 45.6245 16.6461 45.524ZM36.3237 31.7057C39.0688 31.5891 41.3804 30.5105 43.2875 28.4989C45.1946 26.4874 46.1192 24.0969 46.1192 21.2691C46.1192 24.0678 47.0728 26.4583 48.9799 28.4698C50.8869 30.4813 53.2274 31.56 55.9725 31.6766C53.2274 31.7932 50.8869 32.8718 48.9799 34.8834C47.0728 36.8949 46.1192 39.2854 46.1192 42.084C46.1192 39.2854 45.1657 36.8949 43.2875 34.8834C41.3804 32.901 39.0688 31.8223 36.3237 31.7057Z" fill="#00695C" fill-opacity="0.4"/>
</svg>
