<?xml version="1.0" encoding="UTF-8"?>
<svg width="95" height="76" fill="none" version="1.1" viewBox="0 0 95 76" xmlns="http://www.w3.org/2000/svg">
 <path d="m51.403 0.0064445c-0.33266 0.0098-0.6688 0.03164-1.0078 0.06445-10.642 1.0299-13.531 15.151-21.564 22.271-9.2267 8.1782-26.213 9.5198-28.119 21.764-1.9245 12.36 9.6705 18.371 19.793 25.592 8.5214 6.0789 19.566 5.925 30 6.0606 10.653 0.1384 21.672 1.6547 30-5.0508 9.0209-7.2631 14.774-14.987 13.91-26.602-0.8211-11.046-10.09-18.582-17.885-26.379-7.4985-7.5013-14.814-18.025-25.127-17.721zm-24.902 28.377h50c1.1046 0 2 0.87988 2 1.9844v33.535c0 0.67107-0.32283 1.2562-0.82227 1.6152-0.2557 0.78477-0.98095 1.3848-1.8945 1.3848h-50.225c-0.8252 0-1.5611-0.49632-1.8594-1.2656-1.5098-3.8931-6.1084-15.77-8.2363-21.449-0.482-1.2863 0.4682-2.627 1.8418-2.627h7.1953v-11.178c0-1.1046 0.8954-2 2-2z" fill="#00664d" fill-opacity=".039216"/>
 <path d="m25 63.889v-33.506c0-0.8284 0.6716-1.5 1.5-1.5h50c0.8334 0 1.5 0.6613 1.5 1.4847v33.535c0 0.8329-0.6496 1.4871-1.4736 1.4871h-50.038c-0.8248 0-1.4888-0.6678-1.4888-1.5z" fill="none" stroke="#00695C" stroke-opacity=".56"/>
 <path d="m25.56 66.403c-0.6222 0-1.1711-0.3725-1.3936-0.9462-1.5102-3.8941-6.109-15.769-8.2357-21.445-0.3564-0.9513 0.3411-1.951 1.3744-1.951h50.362c1.4933 0 2.8049 0.9447 3.2568 2.3597 1.6176 5.0656 4.8019 15.263 6.2931 20.046 0.2999 0.962-0.4196 1.9369-1.4342 1.9369h-50.223z" fill="none" stroke="#00695C" stroke-opacity=".56"/>
 <g fill="#00695C" fill-opacity=".2">
  <ellipse cx="49.5" cy="31.014" rx="1" ry="1.0137"/>
  <ellipse cx="43" cy="24.52" rx="1.5" ry="1.5205"/>
  <circle cx="55" cy="36.5" r="1.5"/>
 </g>
 <g transform="translate(-15.413 -35.297)">
  <path d="m54.413 82.94c-1.9248 0-3.5 1.5928-3.5 3.5488 0 1.9559 1.5752 3.5488 3.5 3.5488 1.9248 0 3.5-1.5929 3.5-3.5488 0-1.956-1.5752-3.5488-3.5-3.5488zm-0.66016 0.56641a1.75 1.774 0 0 1 0.08594 0.0039 1.75 1.774 0 0 1 0.08398 0.0059 1.75 1.774 0 0 1 0.08594 0.0098 1.75 1.774 0 0 1 0.08398 0.01563 1.75 1.774 0 0 1 0.08398 0.01953 1.75 1.774 0 0 1 0.08398 0.02344 1.75 1.774 0 0 1 0.08008 0.02734 1.75 1.774 0 0 1 0.08008 0.03125 1.75 1.774 0 0 1 0.08008 0.03516 1.75 1.774 0 0 1 0.07617 0.03906 1.75 1.774 0 0 1 0.07422 0.04297 1.75 1.774 0 0 1 0.07227 0.04687 1.75 1.774 0 0 1 0.07031 0.04883 1.75 1.774 0 0 1 0.06836 0.05469 1.75 1.774 0 0 1 0.06445 0.05664 1.75 1.774 0 0 1 0.03711 0.03516c1.1127 0.25355 1.9492 1.2586 1.9492 2.4863 0 1.4235-1.1238 2.5488-2.5 2.5488-1.3762 0-2.5-1.1254-2.5-2.5488 0-0.29103 0.04828-0.5691 0.13477-0.82812a1.75 1.774 0 0 1-0.02734-0.12695 1.75 1.774 0 0 1-0.01758-0.25195 1.75 1.774 0 0 1 0.01758-0.25391 1.75 1.774 0 0 1 0.05273-0.24609 1.75 1.774 0 0 1 0.08789-0.23828 1.75 1.774 0 0 1 0.11914-0.2207 1.75 1.774 0 0 1 0.14844-0.20312 1.75 1.774 0 0 1 0.17774-0.17969 1.75 1.774 0 0 1 0.19922-0.15039 1.75 1.774 0 0 1 0.21875-0.12109 1.75 1.774 0 0 1 0.23437-0.08984 1.75 1.774 0 0 1 0.24414-0.05273 1.75 1.774 0 0 1 0.25-0.01953z" color="#000000" fill="#00695c" fill-opacity=".56" style="-inkscape-stroke:none"/>
  <path d="m54.413 82.941a3.5 3.5479 0 0 0-3.5 3.5488 3.5 3.5479 0 0 0 3.5 3.5469 3.5 3.5479 0 0 0 3.5-3.5469 3.5 3.5479 0 0 0-3.5-3.5488zm-0.66016 0.56641a1.75 1.774 0 0 1 1.75 1.7734 1.75 1.774 0 0 1-1.75 1.7754 1.75 1.774 0 0 1-1.75-1.7754 1.75 1.774 0 0 1 1.75-1.7734z" fill="#00695a" fill-opacity=".4"/>
 </g>
 <g transform="translate(-1.4128 -35.28)">
  <path d="m54.413 82.94c-1.9248 0-3.5 1.5928-3.5 3.5488 0 1.9559 1.5752 3.5488 3.5 3.5488 1.9248 0 3.5-1.5929 3.5-3.5488 0-1.956-1.5752-3.5488-3.5-3.5488zm-0.66016 0.56641a1.75 1.774 0 0 1 0.08594 0.0039 1.75 1.774 0 0 1 0.08398 0.0059 1.75 1.774 0 0 1 0.08594 0.0098 1.75 1.774 0 0 1 0.08398 0.01563 1.75 1.774 0 0 1 0.08398 0.01953 1.75 1.774 0 0 1 0.08398 0.02344 1.75 1.774 0 0 1 0.08008 0.02734 1.75 1.774 0 0 1 0.08008 0.03125 1.75 1.774 0 0 1 0.08008 0.03516 1.75 1.774 0 0 1 0.07617 0.03906 1.75 1.774 0 0 1 0.07422 0.04297 1.75 1.774 0 0 1 0.07227 0.04687 1.75 1.774 0 0 1 0.07031 0.04883 1.75 1.774 0 0 1 0.06836 0.05469 1.75 1.774 0 0 1 0.06445 0.05664 1.75 1.774 0 0 1 0.03711 0.03516c1.1127 0.25355 1.9492 1.2586 1.9492 2.4863 0 1.4235-1.1238 2.5488-2.5 2.5488-1.3762 0-2.5-1.1254-2.5-2.5488 0-0.29103 0.04828-0.5691 0.13477-0.82812a1.75 1.774 0 0 1-0.02734-0.12695 1.75 1.774 0 0 1-0.01758-0.25195 1.75 1.774 0 0 1 0.01758-0.25391 1.75 1.774 0 0 1 0.05273-0.24609 1.75 1.774 0 0 1 0.08789-0.23828 1.75 1.774 0 0 1 0.11914-0.2207 1.75 1.774 0 0 1 0.14844-0.20312 1.75 1.774 0 0 1 0.17774-0.17969 1.75 1.774 0 0 1 0.19922-0.15039 1.75 1.774 0 0 1 0.21875-0.12109 1.75 1.774 0 0 1 0.23437-0.08984 1.75 1.774 0 0 1 0.24414-0.05273 1.75 1.774 0 0 1 0.25-0.01953z" color="#000000" fill="#00695c" fill-opacity=".56" style="-inkscape-stroke:none"/>
  <path d="m54.413 82.941a3.5 3.5479 0 0 0-3.5 3.5488 3.5 3.5479 0 0 0 3.5 3.5469 3.5 3.5479 0 0 0 3.5-3.5469 3.5 3.5479 0 0 0-3.5-3.5488zm-0.66016 0.56641a1.75 1.774 0 0 1 1.75 1.7734 1.75 1.774 0 0 1-1.75 1.7754 1.75 1.774 0 0 1-1.75-1.7754 1.75 1.774 0 0 1 1.75-1.7734z" fill="#00695a" fill-opacity=".4"/>
 </g>
 <path d="m42.5 59.807c1.098-0.765 4.2353-1.8359 8 0" stroke="#00695C" stroke-linecap="round" stroke-opacity=".56"/>
 <circle cx="52.5" cy="20" r="1" fill="#00695C" fill-opacity=".2"/>
 <circle cx="45.5" cy="11" r="1" fill="#00695C" fill-opacity=".2"/>
</svg>
