<svg width="198" height="60" viewBox="0 0 198 60" fill="none" xmlns="http://www.w3.org/2000/svg">
<g filter="url(#filter0_d_4179_114125)">
<path d="M82.3516 30.502H79.8154L79.8018 29.251H82.0166C82.3903 29.251 82.707 29.1963 82.9668 29.0869C83.2311 28.973 83.4316 28.8112 83.5684 28.6016C83.7051 28.3874 83.7734 28.1299 83.7734 27.8291C83.7734 27.4964 83.7096 27.2253 83.582 27.0156C83.4544 26.806 83.2585 26.6533 82.9941 26.5576C82.7344 26.4619 82.4017 26.4141 81.9961 26.4141H80.335V35H78.6191V25.0469H81.9961C82.543 25.0469 83.0306 25.0993 83.459 25.2041C83.8919 25.3089 84.2588 25.473 84.5596 25.6963C84.8649 25.915 85.0951 26.193 85.25 26.5303C85.4095 26.8675 85.4893 27.2686 85.4893 27.7334C85.4893 28.1436 85.3913 28.5195 85.1953 28.8613C84.9993 29.1986 84.71 29.4743 84.3271 29.6885C83.9443 29.9027 83.4681 30.0303 82.8984 30.0713L82.3516 30.502ZM82.2764 35H79.2754L80.0479 33.6396H82.2764C82.6637 33.6396 82.9873 33.5758 83.2471 33.4482C83.5068 33.3161 83.7005 33.1361 83.8281 32.9082C83.9603 32.6758 84.0264 32.4046 84.0264 32.0947C84.0264 31.7712 83.9694 31.4909 83.8555 31.2539C83.7415 31.0124 83.5615 30.8278 83.3154 30.7002C83.0693 30.568 82.748 30.502 82.3516 30.502H80.4238L80.4375 29.251H82.9463L83.3359 29.7227C83.8828 29.7409 84.3317 29.8617 84.6826 30.085C85.0381 30.3083 85.3024 30.5977 85.4756 30.9531C85.6488 31.3086 85.7354 31.6914 85.7354 32.1016C85.7354 32.735 85.5964 33.266 85.3184 33.6943C85.0449 34.1227 84.6507 34.4486 84.1357 34.6719C83.6208 34.8906 83.001 35 82.2764 35ZM92.001 33.2568V27.6035H93.6553V35H92.0967L92.001 33.2568ZM92.2334 31.7188L92.7871 31.7051C92.7871 32.2018 92.7324 32.6598 92.623 33.0791C92.5137 33.4938 92.3451 33.8561 92.1172 34.166C91.8893 34.4714 91.5977 34.7106 91.2422 34.8838C90.8867 35.0524 90.4606 35.1367 89.9639 35.1367C89.6038 35.1367 89.2734 35.0843 88.9727 34.9795C88.6719 34.8747 88.4121 34.7129 88.1934 34.4941C87.9792 34.2754 87.8128 33.9906 87.6943 33.6396C87.5758 33.2887 87.5166 32.8695 87.5166 32.3818V27.6035H89.1641V32.3955C89.1641 32.6644 89.196 32.89 89.2598 33.0723C89.3236 33.25 89.4102 33.3936 89.5195 33.5029C89.6289 33.6123 89.7565 33.6898 89.9023 33.7354C90.0482 33.7809 90.2031 33.8037 90.3672 33.8037C90.8366 33.8037 91.2057 33.7126 91.4746 33.5303C91.748 33.3434 91.9417 33.0928 92.0557 32.7783C92.1742 32.4639 92.2334 32.1107 92.2334 31.7188ZM98.9844 27.6035V28.8066H94.8145V27.6035H98.9844ZM96.0176 25.792H97.665V32.9561C97.665 33.1839 97.6969 33.3594 97.7607 33.4824C97.8291 33.6009 97.9225 33.6807 98.041 33.7217C98.1595 33.7627 98.2985 33.7832 98.458 33.7832C98.5719 33.7832 98.6813 33.7764 98.7861 33.7627C98.891 33.749 98.9753 33.7354 99.0391 33.7217L99.0459 34.9795C98.9092 35.0205 98.7497 35.057 98.5674 35.0889C98.3896 35.1208 98.1846 35.1367 97.9521 35.1367C97.5739 35.1367 97.2389 35.0706 96.9473 34.9385C96.6556 34.8018 96.4277 34.5807 96.2637 34.2754C96.0996 33.9701 96.0176 33.5645 96.0176 33.0586V25.792ZM103.896 27.6035V28.8066H99.7266V27.6035H103.896ZM100.93 25.792H102.577V32.9561C102.577 33.1839 102.609 33.3594 102.673 33.4824C102.741 33.6009 102.835 33.6807 102.953 33.7217C103.072 33.7627 103.211 33.7832 103.37 33.7832C103.484 33.7832 103.593 33.7764 103.698 33.7627C103.803 33.749 103.887 33.7354 103.951 33.7217L103.958 34.9795C103.821 35.0205 103.662 35.057 103.479 35.0889C103.302 35.1208 103.097 35.1367 102.864 35.1367C102.486 35.1367 102.151 35.0706 101.859 34.9385C101.568 34.8018 101.34 34.5807 101.176 34.2754C101.012 33.9701 100.93 33.5645 100.93 33.0586V25.792ZM104.939 31.3838V31.2266C104.939 30.6934 105.017 30.1989 105.172 29.7432C105.327 29.2829 105.55 28.8841 105.842 28.5469C106.138 28.2051 106.498 27.9408 106.922 27.7539C107.35 27.5625 107.833 27.4668 108.371 27.4668C108.913 27.4668 109.396 27.5625 109.82 27.7539C110.249 27.9408 110.611 28.2051 110.907 28.5469C111.203 28.8841 111.429 29.2829 111.584 29.7432C111.739 30.1989 111.816 30.6934 111.816 31.2266V31.3838C111.816 31.917 111.739 32.4115 111.584 32.8672C111.429 33.3229 111.203 33.7217 110.907 34.0635C110.611 34.4007 110.251 34.665 109.827 34.8564C109.403 35.0433 108.923 35.1367 108.385 35.1367C107.842 35.1367 107.357 35.0433 106.929 34.8564C106.505 34.665 106.145 34.4007 105.849 34.0635C105.552 33.7217 105.327 33.3229 105.172 32.8672C105.017 32.4115 104.939 31.917 104.939 31.3838ZM106.587 31.2266V31.3838C106.587 31.7165 106.621 32.0309 106.689 32.3271C106.758 32.6234 106.865 32.8831 107.011 33.1064C107.157 33.3298 107.343 33.5052 107.571 33.6328C107.799 33.7604 108.07 33.8242 108.385 33.8242C108.69 33.8242 108.954 33.7604 109.178 33.6328C109.406 33.5052 109.592 33.3298 109.738 33.1064C109.884 32.8831 109.991 32.6234 110.06 32.3271C110.132 32.0309 110.169 31.7165 110.169 31.3838V31.2266C110.169 30.8984 110.132 30.5885 110.06 30.2969C109.991 30.0007 109.882 29.7386 109.731 29.5107C109.586 29.2829 109.399 29.1051 109.171 28.9775C108.948 28.8454 108.681 28.7793 108.371 28.7793C108.061 28.7793 107.792 28.8454 107.564 28.9775C107.341 29.1051 107.157 29.2829 107.011 29.5107C106.865 29.7386 106.758 30.0007 106.689 30.2969C106.621 30.5885 106.587 30.8984 106.587 31.2266ZM115.081 29.1826V35H113.434V27.6035H114.985L115.081 29.1826ZM114.787 31.0283L114.254 31.0215C114.258 30.4974 114.331 30.0166 114.473 29.5791C114.618 29.1416 114.819 28.7656 115.074 28.4512C115.334 28.1367 115.644 27.8952 116.004 27.7266C116.364 27.5534 116.765 27.4668 117.207 27.4668C117.562 27.4668 117.884 27.5169 118.171 27.6172C118.463 27.7129 118.711 27.8701 118.916 28.0889C119.126 28.3076 119.285 28.5924 119.395 28.9434C119.504 29.2897 119.559 29.7158 119.559 30.2217V35H117.904V30.2148C117.904 29.8594 117.852 29.5791 117.747 29.374C117.647 29.1644 117.499 29.0163 117.303 28.9297C117.111 28.8385 116.872 28.793 116.585 28.793C116.302 28.793 116.049 28.8522 115.826 28.9707C115.603 29.0892 115.414 29.251 115.259 29.4561C115.108 29.6611 114.992 29.8981 114.91 30.167C114.828 30.4359 114.787 30.723 114.787 31.0283Z" fill="#3F52DD"/>
</g>
<defs>
<filter id="filter0_d_4179_114125" x="-7.5" y="-4" width="213" height="76" filterUnits="userSpaceOnUse" color-interpolation-filters="sRGB">
<feFlood flood-opacity="0" result="BackgroundImageFix"/>
<feColorMatrix in="SourceAlpha" type="matrix" values="0 0 0 0 0 0 0 0 0 0 0 0 0 0 0 0 0 0 127 0" result="hardAlpha"/>
<feOffset dy="4"/>
<feGaussianBlur stdDeviation="4"/>
<feComposite in2="hardAlpha" operator="out"/>
<feColorMatrix type="matrix" values="0 0 0 0 0 0 0 0 0 0 0 0 0 0 0 0 0 0 0.08 0"/>
<feBlend mode="normal" in2="BackgroundImageFix" result="effect1_dropShadow_4179_114125"/>
<feBlend mode="normal" in="SourceGraphic" in2="effect1_dropShadow_4179_114125" result="shape"/>
</filter>
</defs>
</svg>
