<svg width="214" height="76" viewBox="0 0 214 76" fill="none" xmlns="http://www.w3.org/2000/svg">
<g filter="url(#filter0_d_4205_117625)">
<path d="M8.5 8C8.5 5.79086 10.2909 4 12.5 4H201.5C203.709 4 205.5 5.79086 205.5 8V60C205.5 62.2091 203.709 64 201.5 64H12.5C10.2909 64 8.5 62.2091 8.5 60V8Z" fill="#3F52DD"/>
<path d="M81.5 42V36H85.5V42H90.5V34H93.5L83.5 25L73.5 34H76.5V42H81.5Z" fill="white"/>
<path d="M104.352 34.502H101.815L101.802 33.251H104.017C104.39 33.251 104.707 33.1963 104.967 33.0869C105.231 32.973 105.432 32.8112 105.568 32.6016C105.705 32.3874 105.773 32.1299 105.773 31.8291C105.773 31.4964 105.71 31.2253 105.582 31.0156C105.454 30.806 105.258 30.6533 104.994 30.5576C104.734 30.4619 104.402 30.4141 103.996 30.4141H102.335V39H100.619V29.0469H103.996C104.543 29.0469 105.031 29.0993 105.459 29.2041C105.892 29.3089 106.259 29.473 106.56 29.6963C106.865 29.915 107.095 30.193 107.25 30.5303C107.41 30.8675 107.489 31.2686 107.489 31.7334C107.489 32.1436 107.391 32.5195 107.195 32.8613C106.999 33.1986 106.71 33.4743 106.327 33.6885C105.944 33.9027 105.468 34.0303 104.898 34.0713L104.352 34.502ZM104.276 39H101.275L102.048 37.6396H104.276C104.664 37.6396 104.987 37.5758 105.247 37.4482C105.507 37.3161 105.701 37.1361 105.828 36.9082C105.96 36.6758 106.026 36.4046 106.026 36.0947C106.026 35.7712 105.969 35.4909 105.855 35.2539C105.742 35.0124 105.562 34.8278 105.315 34.7002C105.069 34.568 104.748 34.502 104.352 34.502H102.424L102.438 33.251H104.946L105.336 33.7227C105.883 33.7409 106.332 33.8617 106.683 34.085C107.038 34.3083 107.302 34.5977 107.476 34.9531C107.649 35.3086 107.735 35.6914 107.735 36.1016C107.735 36.735 107.596 37.266 107.318 37.6943C107.045 38.1227 106.651 38.4486 106.136 38.6719C105.621 38.8906 105.001 39 104.276 39ZM114.001 37.2568V31.6035H115.655V39H114.097L114.001 37.2568ZM114.233 35.7188L114.787 35.7051C114.787 36.2018 114.732 36.6598 114.623 37.0791C114.514 37.4938 114.345 37.8561 114.117 38.166C113.889 38.4714 113.598 38.7106 113.242 38.8838C112.887 39.0524 112.461 39.1367 111.964 39.1367C111.604 39.1367 111.273 39.0843 110.973 38.9795C110.672 38.8747 110.412 38.7129 110.193 38.4941C109.979 38.2754 109.813 37.9906 109.694 37.6396C109.576 37.2887 109.517 36.8695 109.517 36.3818V31.6035H111.164V36.3955C111.164 36.6644 111.196 36.89 111.26 37.0723C111.324 37.25 111.41 37.3936 111.52 37.5029C111.629 37.6123 111.757 37.6898 111.902 37.7354C112.048 37.7809 112.203 37.8037 112.367 37.8037C112.837 37.8037 113.206 37.7126 113.475 37.5303C113.748 37.3434 113.942 37.0928 114.056 36.7783C114.174 36.4639 114.233 36.1107 114.233 35.7188ZM120.984 31.6035V32.8066H116.814V31.6035H120.984ZM118.018 29.792H119.665V36.9561C119.665 37.1839 119.697 37.3594 119.761 37.4824C119.829 37.6009 119.923 37.6807 120.041 37.7217C120.16 37.7627 120.299 37.7832 120.458 37.7832C120.572 37.7832 120.681 37.7764 120.786 37.7627C120.891 37.749 120.975 37.7354 121.039 37.7217L121.046 38.9795C120.909 39.0205 120.75 39.057 120.567 39.0889C120.39 39.1208 120.185 39.1367 119.952 39.1367C119.574 39.1367 119.239 39.0706 118.947 38.9385C118.656 38.8018 118.428 38.5807 118.264 38.2754C118.1 37.9701 118.018 37.5645 118.018 37.0586V29.792ZM125.896 31.6035V32.8066H121.727V31.6035H125.896ZM122.93 29.792H124.577V36.9561C124.577 37.1839 124.609 37.3594 124.673 37.4824C124.741 37.6009 124.835 37.6807 124.953 37.7217C125.072 37.7627 125.211 37.7832 125.37 37.7832C125.484 37.7832 125.593 37.7764 125.698 37.7627C125.803 37.749 125.887 37.7354 125.951 37.7217L125.958 38.9795C125.821 39.0205 125.662 39.057 125.479 39.0889C125.302 39.1208 125.097 39.1367 124.864 39.1367C124.486 39.1367 124.151 39.0706 123.859 38.9385C123.568 38.8018 123.34 38.5807 123.176 38.2754C123.012 37.9701 122.93 37.5645 122.93 37.0586V29.792ZM126.939 35.3838V35.2266C126.939 34.6934 127.017 34.1989 127.172 33.7432C127.327 33.2829 127.55 32.8841 127.842 32.5469C128.138 32.2051 128.498 31.9408 128.922 31.7539C129.35 31.5625 129.833 31.4668 130.371 31.4668C130.913 31.4668 131.396 31.5625 131.82 31.7539C132.249 31.9408 132.611 32.2051 132.907 32.5469C133.203 32.8841 133.429 33.2829 133.584 33.7432C133.739 34.1989 133.816 34.6934 133.816 35.2266V35.3838C133.816 35.917 133.739 36.4115 133.584 36.8672C133.429 37.3229 133.203 37.7217 132.907 38.0635C132.611 38.4007 132.251 38.665 131.827 38.8564C131.403 39.0433 130.923 39.1367 130.385 39.1367C129.842 39.1367 129.357 39.0433 128.929 38.8564C128.505 38.665 128.145 38.4007 127.849 38.0635C127.552 37.7217 127.327 37.3229 127.172 36.8672C127.017 36.4115 126.939 35.917 126.939 35.3838ZM128.587 35.2266V35.3838C128.587 35.7165 128.621 36.0309 128.689 36.3271C128.758 36.6234 128.865 36.8831 129.011 37.1064C129.157 37.3298 129.343 37.5052 129.571 37.6328C129.799 37.7604 130.07 37.8242 130.385 37.8242C130.69 37.8242 130.954 37.7604 131.178 37.6328C131.406 37.5052 131.592 37.3298 131.738 37.1064C131.884 36.8831 131.991 36.6234 132.06 36.3271C132.132 36.0309 132.169 35.7165 132.169 35.3838V35.2266C132.169 34.8984 132.132 34.5885 132.06 34.2969C131.991 34.0007 131.882 33.7386 131.731 33.5107C131.586 33.2829 131.399 33.1051 131.171 32.9775C130.948 32.8454 130.681 32.7793 130.371 32.7793C130.061 32.7793 129.792 32.8454 129.564 32.9775C129.341 33.1051 129.157 33.2829 129.011 33.5107C128.865 33.7386 128.758 34.0007 128.689 34.2969C128.621 34.5885 128.587 34.8984 128.587 35.2266ZM137.081 33.1826V39H135.434V31.6035H136.985L137.081 33.1826ZM136.787 35.0283L136.254 35.0215C136.258 34.4974 136.331 34.0166 136.473 33.5791C136.618 33.1416 136.819 32.7656 137.074 32.4512C137.334 32.1367 137.644 31.8952 138.004 31.7266C138.364 31.5534 138.765 31.4668 139.207 31.4668C139.562 31.4668 139.884 31.5169 140.171 31.6172C140.463 31.7129 140.711 31.8701 140.916 32.0889C141.126 32.3076 141.285 32.5924 141.395 32.9434C141.504 33.2897 141.559 33.7158 141.559 34.2217V39H139.904V34.2148C139.904 33.8594 139.852 33.5791 139.747 33.374C139.647 33.1644 139.499 33.0163 139.303 32.9297C139.111 32.8385 138.872 32.793 138.585 32.793C138.302 32.793 138.049 32.8522 137.826 32.9707C137.603 33.0892 137.414 33.251 137.259 33.4561C137.108 33.6611 136.992 33.8981 136.91 34.167C136.828 34.4359 136.787 34.723 136.787 35.0283Z" fill="white"/>
</g>
<defs>
<filter id="filter0_d_4205_117625" x="0.5" y="0" width="213" height="76" filterUnits="userSpaceOnUse" color-interpolation-filters="sRGB">
<feFlood flood-opacity="0" result="BackgroundImageFix"/>
<feColorMatrix in="SourceAlpha" type="matrix" values="0 0 0 0 0 0 0 0 0 0 0 0 0 0 0 0 0 0 127 0" result="hardAlpha"/>
<feOffset dy="4"/>
<feGaussianBlur stdDeviation="4"/>
<feComposite in2="hardAlpha" operator="out"/>
<feColorMatrix type="matrix" values="0 0 0 0 0 0 0 0 0 0 0 0 0 0 0 0 0 0 0.08 0"/>
<feBlend mode="normal" in2="BackgroundImageFix" result="effect1_dropShadow_4205_117625"/>
<feBlend mode="normal" in="SourceGraphic" in2="effect1_dropShadow_4205_117625" result="shape"/>
</filter>
</defs>
</svg>
