<svg width="146" height="143" viewBox="0 0 146 143" fill="none" xmlns="http://www.w3.org/2000/svg">
<g filter="url(#filter0_d_5952_143934)">
<rect x="11" y="7" width="124" height="124" rx="4" fill="#3F52DD"/>
<path d="M85.3719 42.3776H60.6282V40.1282H85.3719V42.3776ZM61.7529 63.7472H66.2518C66.2518 60.3731 64.0023 58.1236 64.0023 58.1236C70.7506 53.6248 71.8753 43.5023 71.8753 43.5023H61.7529V63.7472ZM84.2472 43.5023H74.1248C74.1248 43.5023 75.2495 53.6248 81.9978 58.1236C81.9978 58.1236 79.7484 60.3731 79.7484 63.7472H84.2472V43.5023Z" fill="white"/>
<path d="M59.9715 93.0374V93.3772C59.9715 93.8756 59.905 94.3241 59.7721 94.7228C59.6392 95.1185 59.4505 95.4553 59.2058 95.7332C58.9611 96.0111 58.6697 96.224 58.3314 96.372C57.9931 96.52 57.617 96.594 57.2032 96.594C56.7955 96.594 56.4209 96.52 56.0796 96.372C55.7413 96.224 55.4483 96.0111 55.2006 95.7332C54.953 95.4553 54.7612 95.1185 54.6252 94.7228C54.4893 94.3241 54.4214 93.8756 54.4214 93.3772V93.0374C54.4214 92.536 54.4893 92.0875 54.6252 91.6918C54.7612 91.2961 54.9515 90.9593 55.1961 90.6814C55.4408 90.4005 55.7322 90.1861 56.0705 90.0381C56.4119 89.8901 56.7864 89.8161 57.1942 89.8161C57.608 89.8161 57.984 89.8901 58.3223 90.0381C58.6606 90.1861 58.9521 90.4005 59.1967 90.6814C59.4444 90.9593 59.6347 91.2961 59.7676 91.6918C59.9035 92.0875 59.9715 92.536 59.9715 93.0374ZM58.7119 93.3772V93.0284C58.7119 92.6689 58.6787 92.3533 58.6123 92.0814C58.5458 91.8066 58.4477 91.5755 58.3178 91.3882C58.1879 91.201 58.0278 91.0605 57.8375 90.9669C57.6472 90.8702 57.4328 90.8219 57.1942 90.8219C56.9525 90.8219 56.7381 90.8702 56.5508 90.9669C56.3665 91.0605 56.2095 91.201 56.0796 91.3882C55.9497 91.5755 55.85 91.8066 55.7806 92.0814C55.7141 92.3533 55.6809 92.6689 55.6809 93.0284V93.3772C55.6809 93.7336 55.7141 94.0493 55.7806 94.3241C55.85 94.599 55.9497 94.8316 56.0796 95.0219C56.2125 95.2091 56.3726 95.3511 56.5599 95.4478C56.7471 95.5444 56.9616 95.5927 57.2032 95.5927C57.4449 95.5927 57.6593 95.5444 57.8466 95.4478C58.0338 95.3511 58.1909 95.2091 58.3178 95.0219C58.4477 94.8316 58.5458 94.599 58.6123 94.3241C58.6787 94.0493 58.7119 93.7336 58.7119 93.3772ZM63.9861 94.0976H62.2871V93.119H63.9861C64.264 93.119 64.489 93.0737 64.6612 92.983C64.8364 92.8894 64.9648 92.7626 65.0463 92.6025C65.1279 92.4394 65.1686 92.2536 65.1686 92.0452C65.1686 91.8428 65.1279 91.654 65.0463 91.4789C64.9648 91.3037 64.8364 91.1617 64.6612 91.053C64.489 90.9442 64.264 90.8899 63.9861 90.8899H62.6949V96.5034H61.4489V89.9067H63.9861C64.4996 89.9067 64.9376 89.9988 65.3 90.1831C65.6655 90.3643 65.9434 90.6165 66.1337 90.9397C66.327 91.2599 66.4236 91.6253 66.4236 92.0361C66.4236 92.462 66.327 92.829 66.1337 93.1371C65.9434 93.4452 65.6655 93.6823 65.3 93.8484C64.9376 94.0145 64.4996 94.0976 63.9861 94.0976ZM72.1962 95.5248V96.5034H68.6894V95.5248H72.1962ZM69.07 89.9067V96.5034H67.824V89.9067H69.07ZM71.7386 92.6297V93.5856H68.6894V92.6297H71.7386ZM72.1826 89.9067V90.8899H68.6894V89.9067H72.1826ZM78.7843 89.9067V96.5034H77.5338L74.7293 91.9274V96.5034H73.4833V89.9067H74.7293L77.5428 94.4872V89.9067H78.7843ZM84.8468 95.5248V96.5034H81.34V95.5248H84.8468ZM81.7206 89.9067V96.5034H80.4746V89.9067H81.7206ZM84.3892 92.6297V93.5856H81.34V92.6297H84.3892ZM84.8332 89.9067V90.8899H81.34V89.9067H84.8332ZM88.1048 96.5034H86.6821L86.6912 95.5248H88.1048C88.4884 95.5248 88.8101 95.4402 89.0698 95.2711C89.3296 95.0989 89.5259 94.8527 89.6588 94.5326C89.7917 94.2094 89.8582 93.8227 89.8582 93.3727V93.0329C89.8582 92.6855 89.8204 92.379 89.7449 92.1132C89.6694 91.8473 89.5576 91.6238 89.4096 91.4426C89.2646 91.2614 89.0849 91.1239 88.8705 91.0303C88.656 90.9367 88.4098 90.8899 88.132 90.8899H86.6549V89.9067H88.132C88.573 89.9067 88.9747 89.9807 89.3371 90.1287C89.7026 90.2767 90.0183 90.4896 90.2841 90.7675C90.5529 91.0424 90.7583 91.3716 90.9002 91.7552C91.0452 92.1388 91.1177 92.5677 91.1177 93.0419V93.3727C91.1177 93.8439 91.0452 94.2728 90.9002 94.6594C90.7583 95.043 90.5529 95.3722 90.2841 95.6471C90.0183 95.922 89.7011 96.1334 89.3326 96.2814C88.9641 96.4294 88.5548 96.5034 88.1048 96.5034ZM87.3799 89.9067V96.5034H86.1339V89.9067H87.3799Z" fill="white" fill-opacity="0.8"/>
<path d="M30.9681 111.887L32.4014 106.307H33.1527L33.0687 107.745L31.5365 113.503H30.7556L30.9681 111.887ZM29.8955 106.307L31.0571 111.843L31.1609 113.503H30.3305L28.6648 106.307H29.8955ZM34.7788 111.828L35.9255 106.307H37.1612L35.4955 113.503H34.6652L34.7788 111.828ZM33.4443 106.307L34.8629 111.902L35.0705 113.503H34.2895L32.782 107.745L32.7029 106.307H33.4443ZM39.4479 108.156V113.503H38.2518V108.156H39.4479ZM38.1728 106.752C38.1728 106.571 38.2321 106.421 38.3507 106.302C38.4726 106.18 38.6407 106.119 38.8548 106.119C39.0657 106.119 39.2321 106.18 39.354 106.302C39.476 106.421 39.5369 106.571 39.5369 106.752C39.5369 106.93 39.476 107.078 39.354 107.197C39.2321 107.315 39.0657 107.375 38.8548 107.375C38.6407 107.375 38.4726 107.315 38.3507 107.197C38.2321 107.078 38.1728 106.93 38.1728 106.752ZM42.145 109.297V113.503H40.9538V108.156H42.0758L42.145 109.297ZM41.9324 110.632L41.5469 110.627C41.5502 110.248 41.6029 109.9 41.7051 109.584C41.8105 109.268 41.9555 108.996 42.14 108.768C42.3278 108.541 42.5519 108.366 42.8122 108.244C43.0725 108.119 43.3625 108.057 43.6821 108.057C43.9391 108.057 44.1714 108.093 44.379 108.165C44.5899 108.235 44.7695 108.348 44.9178 108.506C45.0693 108.665 45.1847 108.871 45.2637 109.124C45.3428 109.375 45.3824 109.683 45.3824 110.049V113.503H44.1863V110.044C44.1863 109.787 44.1484 109.584 44.0726 109.436C44.0001 109.284 43.893 109.177 43.7513 109.114C43.6129 109.048 43.4399 109.016 43.2323 109.016C43.028 109.016 42.8452 109.058 42.6837 109.144C42.5222 109.23 42.3855 109.347 42.2735 109.495C42.1647 109.643 42.0807 109.815 42.0214 110.009C41.9621 110.203 41.9324 110.411 41.9324 110.632ZM50.0712 112.396V105.912H51.2674V113.503H50.1849L50.0712 112.396ZM46.5917 110.889V110.785C46.5917 110.38 46.6394 110.011 46.735 109.678C46.8305 109.342 46.9689 109.053 47.1502 108.813C47.3314 108.569 47.5522 108.383 47.8125 108.254C48.0728 108.123 48.3661 108.057 48.6923 108.057C49.0152 108.057 49.2986 108.119 49.5424 108.244C49.7862 108.37 49.9938 108.549 50.1652 108.783C50.3365 109.014 50.4732 109.291 50.5754 109.614C50.6775 109.933 50.75 110.289 50.7929 110.681V111.012C50.75 111.395 50.6775 111.744 50.5754 112.06C50.4732 112.377 50.3365 112.65 50.1652 112.881C49.9938 113.111 49.7846 113.289 49.5374 113.414C49.2936 113.54 49.0086 113.602 48.6824 113.602C48.3595 113.602 48.0678 113.535 47.8075 113.4C47.5505 113.265 47.3314 113.075 47.1502 112.831C46.9689 112.587 46.8305 112.301 46.735 111.971C46.6394 111.638 46.5917 111.278 46.5917 110.889ZM47.7828 110.785V110.889C47.7828 111.133 47.8042 111.36 47.8471 111.571C47.8932 111.782 47.9641 111.968 48.0596 112.129C48.1552 112.288 48.2787 112.413 48.4303 112.505C48.5852 112.594 48.7697 112.638 48.9839 112.638C49.2541 112.638 49.4765 112.579 49.6511 112.461C49.8258 112.342 49.9625 112.182 50.0614 111.981C50.1635 111.777 50.2327 111.549 50.269 111.299V110.404C50.2492 110.21 50.208 110.029 50.1454 109.861C50.0861 109.693 50.0053 109.546 49.9032 109.421C49.8011 109.292 49.6742 109.193 49.5226 109.124C49.3743 109.052 49.1981 109.016 48.9938 109.016C48.7763 109.016 48.5918 109.062 48.4402 109.154C48.2886 109.246 48.1634 109.373 48.0646 109.535C47.969 109.696 47.8982 109.884 47.852 110.098C47.8059 110.312 47.7828 110.541 47.7828 110.785ZM52.4964 110.889V110.775C52.4964 110.39 52.5524 110.032 52.6645 109.703C52.7765 109.37 52.938 109.081 53.1488 108.838C53.363 108.59 53.6233 108.399 53.9298 108.264C54.2395 108.126 54.5888 108.057 54.9776 108.057C55.3697 108.057 55.719 108.126 56.0254 108.264C56.3352 108.399 56.5971 108.59 56.8113 108.838C57.0255 109.081 57.1886 109.37 57.3006 109.703C57.4127 110.032 57.4687 110.39 57.4687 110.775V110.889C57.4687 111.274 57.4127 111.632 57.3006 111.961C57.1886 112.291 57.0255 112.579 56.8113 112.826C56.5971 113.07 56.3368 113.261 56.0304 113.4C55.7239 113.535 55.3763 113.602 54.9875 113.602C54.5954 113.602 54.2445 113.535 53.9347 113.4C53.6283 113.261 53.368 113.07 53.1538 112.826C52.9396 112.579 52.7765 112.291 52.6645 111.961C52.5524 111.632 52.4964 111.274 52.4964 110.889ZM53.6876 110.775V110.889C53.6876 111.129 53.7123 111.357 53.7617 111.571C53.8112 111.785 53.8886 111.973 53.994 112.134C54.0995 112.296 54.2346 112.423 54.3993 112.515C54.5641 112.607 54.7601 112.653 54.9875 112.653C55.2083 112.653 55.3994 112.607 55.5608 112.515C55.7256 112.423 55.8607 112.296 55.9661 112.134C56.0716 111.973 56.149 111.785 56.1984 111.571C56.2511 111.357 56.2775 111.129 56.2775 110.889V110.775C56.2775 110.538 56.2511 110.314 56.1984 110.103C56.149 109.889 56.0699 109.699 55.9612 109.535C55.8557 109.37 55.7206 109.241 55.5559 109.149C55.3944 109.053 55.2017 109.006 54.9776 109.006C54.7535 109.006 54.5591 109.053 54.3944 109.149C54.2329 109.241 54.0995 109.37 53.994 109.535C53.8886 109.699 53.8112 109.889 53.7617 110.103C53.7123 110.314 53.6876 110.538 53.6876 110.775ZM60.1311 112.317L61.3667 108.156H62.1279L61.9203 109.401L60.6748 113.503H59.9927L60.1311 112.317ZM59.4045 108.156L60.3683 112.337L60.4474 113.503H59.6863L58.2381 108.156H59.4045ZM63.2845 112.288L64.2186 108.156H65.3801L63.9369 113.503H63.1757L63.2845 112.288ZM62.2564 108.156L63.4772 112.268L63.6305 113.503H62.9484L61.688 109.396L61.4804 108.156H62.2564ZM70.4084 105.912V113.503H69.2123V105.912H70.4084ZM74.2818 113.602C73.8864 113.602 73.5288 113.538 73.2092 113.41C72.8929 113.278 72.6227 113.095 72.3986 112.861C72.1779 112.627 72.0082 112.352 71.8895 112.035C71.7709 111.719 71.7116 111.378 71.7116 111.012V110.815C71.7116 110.396 71.7726 110.017 71.8945 109.678C72.0164 109.338 72.1861 109.048 72.4036 108.808C72.621 108.564 72.8781 108.378 73.1746 108.249C73.4712 108.121 73.7924 108.057 74.1384 108.057C74.5207 108.057 74.8551 108.121 75.1418 108.249C75.4284 108.378 75.6657 108.559 75.8535 108.793C76.0446 109.024 76.1863 109.299 76.2786 109.619C76.3741 109.938 76.4219 110.291 76.4219 110.676V111.185H72.2899V110.33H75.2456V110.236C75.239 110.022 75.1961 109.821 75.1171 109.633C75.0413 109.446 74.9243 109.294 74.7661 109.179C74.608 109.063 74.3971 109.006 74.1335 109.006C73.9358 109.006 73.7595 109.048 73.6046 109.134C73.4531 109.217 73.3262 109.337 73.224 109.495C73.1219 109.653 73.0428 109.844 72.9868 110.068C72.9341 110.289 72.9077 110.538 72.9077 110.815V111.012C72.9077 111.246 72.939 111.464 73.0016 111.665C73.0675 111.862 73.1631 112.035 73.2883 112.184C73.4135 112.332 73.5651 112.449 73.743 112.535C73.921 112.617 74.1236 112.658 74.351 112.658C74.6376 112.658 74.893 112.601 75.1171 112.485C75.3411 112.37 75.5355 112.207 75.7003 111.996L76.328 112.604C76.2127 112.772 76.0627 112.933 75.8782 113.088C75.6937 113.24 75.468 113.363 75.2011 113.459C74.9375 113.554 74.631 113.602 74.2818 113.602ZM79.1733 113.503H77.9821V107.641C77.9821 107.243 78.0563 106.908 78.2045 106.638C78.3561 106.365 78.5719 106.159 78.852 106.02C79.1321 105.879 79.4633 105.808 79.8455 105.808C79.9641 105.808 80.0811 105.816 80.1964 105.832C80.3117 105.846 80.4238 105.867 80.5325 105.897L80.5029 106.816C80.4369 106.8 80.3645 106.788 80.2854 106.781C80.2096 106.775 80.1272 106.772 80.0382 106.772C79.857 106.772 79.7005 106.806 79.5687 106.875C79.4402 106.941 79.3413 107.038 79.2721 107.167C79.2062 107.296 79.1733 107.454 79.1733 107.641V113.503ZM80.2755 108.156V109.025H77.1617V108.156H80.2755ZM83.8029 108.156V109.025H80.7879V108.156H83.8029ZM81.6578 106.846H82.8489V112.026C82.8489 112.19 82.872 112.317 82.9181 112.406C82.9676 112.492 83.0351 112.549 83.1208 112.579C83.2065 112.609 83.307 112.624 83.4223 112.624C83.5047 112.624 83.5837 112.619 83.6595 112.609C83.7353 112.599 83.7963 112.589 83.8424 112.579L83.8473 113.489C83.7485 113.518 83.6332 113.545 83.5014 113.568C83.3729 113.591 83.2246 113.602 83.0565 113.602C82.783 113.602 82.5408 113.554 82.33 113.459C82.1191 113.36 81.9543 113.2 81.8357 112.98C81.7171 112.759 81.6578 112.465 81.6578 112.1V106.846ZM89.8493 112.653C90.0437 112.653 90.2184 112.615 90.3732 112.54C90.5314 112.461 90.6582 112.352 90.7538 112.213C90.8527 112.075 90.907 111.915 90.9169 111.734H92.0389C92.0323 112.08 91.9301 112.395 91.7324 112.678C91.5347 112.961 91.2728 113.187 90.9466 113.355C90.6204 113.52 90.2595 113.602 89.8641 113.602C89.4555 113.602 89.0997 113.533 88.7965 113.395C88.4934 113.253 88.2413 113.059 88.0403 112.811C87.8393 112.564 87.6877 112.279 87.5856 111.956C87.4867 111.633 87.4373 111.287 87.4373 110.918V110.745C87.4373 110.376 87.4867 110.03 87.5856 109.707C87.6877 109.381 87.8393 109.095 88.0403 108.847C88.2413 108.6 88.4934 108.408 88.7965 108.269C89.0997 108.128 89.4539 108.057 89.8592 108.057C90.2876 108.057 90.6632 108.142 90.9861 108.314C91.309 108.482 91.5627 108.717 91.7473 109.02C91.9351 109.32 92.0323 109.67 92.0389 110.068H90.9169C90.907 109.871 90.8576 109.693 90.7686 109.535C90.683 109.373 90.561 109.245 90.4029 109.149C90.248 109.053 90.0618 109.006 89.8444 109.006C89.6038 109.006 89.4045 109.055 89.2463 109.154C89.0881 109.249 88.9646 109.381 88.8756 109.549C88.7866 109.714 88.7224 109.9 88.6829 110.108C88.6466 110.312 88.6285 110.525 88.6285 110.745V110.918C88.6285 111.139 88.6466 111.353 88.6829 111.561C88.7191 111.769 88.7817 111.955 88.8707 112.119C88.9629 112.281 89.0881 112.411 89.2463 112.51C89.4045 112.606 89.6055 112.653 89.8493 112.653ZM92.9368 110.889V110.775C92.9368 110.39 92.9928 110.032 93.1048 109.703C93.2169 109.37 93.3783 109.081 93.5892 108.838C93.8034 108.59 94.0637 108.399 94.3701 108.264C94.6799 108.126 95.0292 108.057 95.418 108.057C95.8101 108.057 96.1594 108.126 96.4658 108.264C96.7755 108.399 97.0375 108.59 97.2517 108.838C97.4659 109.081 97.629 109.37 97.741 109.703C97.853 110.032 97.9091 110.39 97.9091 110.775V110.889C97.9091 111.274 97.853 111.632 97.741 111.961C97.629 112.291 97.4659 112.579 97.2517 112.826C97.0375 113.07 96.7772 113.261 96.4708 113.4C96.1643 113.535 95.8167 113.602 95.4279 113.602C95.0358 113.602 94.6848 113.535 94.3751 113.4C94.0686 113.261 93.8083 113.07 93.5942 112.826C93.38 112.579 93.2169 112.291 93.1048 111.961C92.9928 111.632 92.9368 111.274 92.9368 110.889ZM94.128 110.775V110.889C94.128 111.129 94.1527 111.357 94.2021 111.571C94.2515 111.785 94.329 111.973 94.4344 112.134C94.5398 112.296 94.6749 112.423 94.8397 112.515C95.0044 112.607 95.2005 112.653 95.4279 112.653C95.6486 112.653 95.8397 112.607 96.0012 112.515C96.166 112.423 96.3011 112.296 96.4065 112.134C96.5119 111.973 96.5894 111.785 96.6388 111.571C96.6915 111.357 96.7179 111.129 96.7179 110.889V110.775C96.7179 110.538 96.6915 110.314 96.6388 110.103C96.5894 109.889 96.5103 109.699 96.4016 109.535C96.2961 109.37 96.161 109.241 95.9963 109.149C95.8348 109.053 95.642 109.006 95.418 109.006C95.1939 109.006 94.9995 109.053 94.8348 109.149C94.6733 109.241 94.5398 109.37 94.4344 109.535C94.329 109.699 94.2515 109.889 94.2021 110.103C94.1527 110.314 94.128 110.538 94.128 110.775ZM100.314 109.174V113.503H99.1233V108.156H100.26L100.314 109.174ZM101.95 108.121L101.941 109.228C101.868 109.215 101.789 109.205 101.703 109.198C101.621 109.192 101.539 109.189 101.456 109.189C101.252 109.189 101.072 109.218 100.917 109.277C100.763 109.334 100.632 109.416 100.527 109.525C100.425 109.63 100.346 109.759 100.29 109.91C100.234 110.062 100.201 110.231 100.191 110.419L99.919 110.439C99.919 110.103 99.952 109.792 100.018 109.505C100.084 109.218 100.183 108.966 100.314 108.749C100.45 108.531 100.618 108.361 100.819 108.24C101.023 108.118 101.258 108.057 101.525 108.057C101.598 108.057 101.675 108.063 101.758 108.076C101.843 108.09 101.908 108.104 101.95 108.121ZM104.089 109.297V113.503H102.898V108.156H104.02L104.089 109.297ZM103.876 110.632L103.491 110.627C103.494 110.248 103.547 109.9 103.649 109.584C103.754 109.268 103.899 108.996 104.084 108.768C104.272 108.541 104.496 108.366 104.756 108.244C105.017 108.119 105.306 108.057 105.626 108.057C105.883 108.057 106.115 108.093 106.323 108.165C106.534 108.235 106.713 108.348 106.862 108.506C107.013 108.665 107.129 108.871 107.208 109.124C107.287 109.375 107.326 109.683 107.326 110.049V113.503H106.13V110.044C106.13 109.787 106.092 109.584 106.017 109.436C105.944 109.284 105.837 109.177 105.695 109.114C105.557 109.048 105.384 109.016 105.176 109.016C104.972 109.016 104.789 109.058 104.628 109.144C104.466 109.23 104.329 109.347 104.217 109.495C104.109 109.643 104.025 109.815 103.965 110.009C103.906 110.203 103.876 110.411 103.876 110.632ZM111.111 113.602C110.715 113.602 110.358 113.538 110.038 113.41C109.722 113.278 109.452 113.095 109.228 112.861C109.007 112.627 108.837 112.352 108.719 112.035C108.6 111.719 108.541 111.378 108.541 111.012V110.815C108.541 110.396 108.602 110.017 108.723 109.678C108.845 109.338 109.015 109.048 109.233 108.808C109.45 108.564 109.707 108.378 110.004 108.249C110.3 108.121 110.621 108.057 110.967 108.057C111.35 108.057 111.684 108.121 111.971 108.249C112.257 108.378 112.495 108.559 112.682 108.793C112.874 109.024 113.015 109.299 113.108 109.619C113.203 109.938 113.251 110.291 113.251 110.676V111.185H109.119V110.33H112.075V110.236C112.068 110.022 112.025 109.821 111.946 109.633C111.87 109.446 111.753 109.294 111.595 109.179C111.437 109.063 111.226 109.006 110.962 109.006C110.765 109.006 110.588 109.048 110.434 109.134C110.282 109.217 110.155 109.337 110.053 109.495C109.951 109.653 109.872 109.844 109.816 110.068C109.763 110.289 109.737 110.538 109.737 110.815V111.012C109.737 111.246 109.768 111.464 109.831 111.665C109.896 111.862 109.992 112.035 110.117 112.184C110.242 112.332 110.394 112.449 110.572 112.535C110.75 112.617 110.953 112.658 111.18 112.658C111.467 112.658 111.722 112.601 111.946 112.485C112.17 112.37 112.365 112.207 112.529 111.996L113.157 112.604C113.042 112.772 112.892 112.933 112.707 113.088C112.523 113.24 112.297 113.363 112.03 113.459C111.766 113.554 111.46 113.602 111.111 113.602ZM115.587 109.174V113.503H114.396V108.156H115.533L115.587 109.174ZM117.223 108.121L117.213 109.228C117.141 109.215 117.062 109.205 116.976 109.198C116.894 109.192 116.811 109.189 116.729 109.189C116.525 109.189 116.345 109.218 116.19 109.277C116.035 109.334 115.905 109.416 115.8 109.525C115.697 109.63 115.618 109.759 115.562 109.91C115.506 110.062 115.473 110.231 115.464 110.419L115.192 110.439C115.192 110.103 115.225 109.792 115.291 109.505C115.356 109.218 115.455 108.966 115.587 108.749C115.722 108.531 115.89 108.361 116.091 108.24C116.296 108.118 116.531 108.057 116.798 108.057C116.871 108.057 116.948 108.063 117.03 108.076C117.116 108.09 117.18 108.104 117.223 108.121Z" fill="white"/>
</g>
<defs>
<filter id="filter0_d_5952_143934" x="0.877551" y="0.251701" width="144.245" height="144.245" filterUnits="userSpaceOnUse" color-interpolation-filters="sRGB">
<feFlood flood-opacity="0" result="BackgroundImageFix"/>
<feColorMatrix in="SourceAlpha" type="matrix" values="0 0 0 0 0 0 0 0 0 0 0 0 0 0 0 0 0 0 127 0" result="hardAlpha"/>
<feOffset dy="3.37415"/>
<feGaussianBlur stdDeviation="5.06122"/>
<feComposite in2="hardAlpha" operator="out"/>
<feColorMatrix type="matrix" values="0 0 0 0 0 0 0 0 0 0 0 0 0 0 0 0 0 0 0.06 0"/>
<feBlend mode="normal" in2="BackgroundImageFix" result="effect1_dropShadow_5952_143934"/>
<feBlend mode="normal" in="SourceGraphic" in2="effect1_dropShadow_5952_143934" result="shape"/>
</filter>
</defs>
</svg>
