<svg width="145" height="143" viewBox="0 0 145 143" fill="none" xmlns="http://www.w3.org/2000/svg">
<g filter="url(#filter0_d_5952_143928)">
<rect x="10.3334" y="7" width="124" height="124" rx="4" fill="#3F52DD"/>
<path d="M49.6985 23.8707H24.9547V21.6213H49.6985V23.8707ZM26.0794 45.2403H30.5783C30.5783 41.8662 28.3289 39.6167 28.3289 39.6167C35.0772 35.1179 36.2019 24.9954 36.2019 24.9954H26.0794V45.2403ZM48.5738 24.9954H38.4513C38.4513 24.9954 39.576 35.1179 46.3243 39.6167C46.3243 39.6167 44.0749 41.8662 44.0749 45.2403H48.5738V24.9954Z" fill="white"/>
<path d="M26.3655 94.8872L27.7989 89.307H28.5501L28.4661 90.7453L26.9339 96.5034H26.153L26.3655 94.8872ZM25.293 89.307L26.4545 94.8427L26.5583 96.5034H25.7279L24.0623 89.307H25.293ZM30.1763 94.8279L31.3229 89.307H32.5586L30.8929 96.5034H30.0626L30.1763 94.8279ZM28.8418 89.307L30.2603 94.902L30.4679 96.5034H29.6869L28.1794 90.7453L28.1004 89.307H28.8418ZM34.8454 91.1555V96.5034H33.6493V91.1555H34.8454ZM33.5702 89.7518C33.5702 89.5706 33.6295 89.4207 33.7481 89.302C33.87 89.1801 34.0381 89.1192 34.2523 89.1192C34.4631 89.1192 34.6295 89.1801 34.7515 89.302C34.8734 89.4207 34.9343 89.5706 34.9343 89.7518C34.9343 89.9298 34.8734 90.078 34.7515 90.1967C34.6295 90.3153 34.4631 90.3746 34.2523 90.3746C34.0381 90.3746 33.87 90.3153 33.7481 90.1967C33.6295 90.078 33.5702 89.9298 33.5702 89.7518ZM37.5424 92.2973V96.5034H36.3512V91.1555H37.4732L37.5424 92.2973ZM37.3299 93.6318L36.9443 93.6268C36.9476 93.2479 37.0003 92.9003 37.1025 92.5839C37.2079 92.2676 37.3529 91.9958 37.5374 91.7684C37.7253 91.541 37.9493 91.3664 38.2096 91.2445C38.4699 91.1193 38.7599 91.0567 39.0795 91.0567C39.3365 91.0567 39.5688 91.0929 39.7764 91.1654C39.9873 91.2346 40.1669 91.3483 40.3152 91.5064C40.4668 91.6646 40.5821 91.8706 40.6612 92.1243C40.7402 92.3747 40.7798 92.6828 40.7798 93.0485V96.5034H39.5837V93.0436C39.5837 92.7866 39.5458 92.5839 39.47 92.4357C39.3975 92.2841 39.2904 92.177 39.1487 92.1144C39.0103 92.0485 38.8373 92.0155 38.6298 92.0155C38.4255 92.0155 38.2426 92.0584 38.0811 92.144C37.9197 92.2297 37.7829 92.3467 37.6709 92.495C37.5622 92.6432 37.4781 92.8146 37.4188 93.009C37.3595 93.2034 37.3299 93.411 37.3299 93.6318ZM45.4687 95.3963V88.9116H46.6648V96.5034H45.5823L45.4687 95.3963ZM41.9891 93.8888V93.785C41.9891 93.3797 42.0369 93.0106 42.1324 92.6778C42.228 92.3417 42.3664 92.0534 42.5476 91.8129C42.7288 91.5691 42.9496 91.3829 43.2099 91.2544C43.4702 91.1226 43.7635 91.0567 44.0897 91.0567C44.4126 91.0567 44.696 91.1193 44.9398 91.2445C45.1836 91.3697 45.3912 91.5493 45.5626 91.7832C45.7339 92.0139 45.8707 92.2907 45.9728 92.6136C46.075 92.9332 46.1475 93.2891 46.1903 93.6812V94.0123C46.1475 94.3946 46.075 94.7439 45.9728 95.0602C45.8707 95.3765 45.7339 95.65 45.5626 95.8807C45.3912 96.1113 45.182 96.2892 44.9349 96.4145C44.691 96.5397 44.406 96.6023 44.0798 96.6023C43.7569 96.6023 43.4653 96.5347 43.205 96.3996C42.9479 96.2645 42.7288 96.0751 42.5476 95.8312C42.3664 95.5874 42.228 95.3007 42.1324 94.9712C42.0369 94.6384 41.9891 94.2776 41.9891 93.8888ZM43.1802 93.785V93.8888C43.1802 94.1326 43.2017 94.36 43.2445 94.5709C43.2906 94.7817 43.3615 94.9679 43.457 95.1294C43.5526 95.2875 43.6762 95.4128 43.8277 95.505C43.9826 95.594 44.1671 95.6385 44.3813 95.6385C44.6515 95.6385 44.8739 95.5792 45.0485 95.4605C45.2232 95.3419 45.3599 95.1821 45.4588 94.9811C45.5609 94.7768 45.6301 94.5494 45.6664 94.299V93.4044C45.6466 93.21 45.6054 93.0288 45.5428 92.8607C45.4835 92.6927 45.4028 92.546 45.3006 92.4208C45.1985 92.2923 45.0716 92.1935 44.92 92.1243C44.7718 92.0518 44.5955 92.0155 44.3912 92.0155C44.1737 92.0155 43.9892 92.0617 43.8376 92.1539C43.686 92.2462 43.5608 92.3731 43.462 92.5345C43.3664 92.696 43.2956 92.8838 43.2494 93.098C43.2033 93.3121 43.1802 93.5412 43.1802 93.785ZM47.8938 93.8888V93.7751C47.8938 93.3896 47.9499 93.0321 48.0619 92.7026C48.1739 92.3698 48.3354 92.0814 48.5463 91.8376C48.7604 91.5905 49.0208 91.3994 49.3272 91.2643C49.6369 91.1259 49.9862 91.0567 50.375 91.0567C50.7671 91.0567 51.1164 91.1259 51.4229 91.2643C51.7326 91.3994 51.9945 91.5905 52.2087 91.8376C52.4229 92.0814 52.586 92.3698 52.698 92.7026C52.8101 93.0321 52.8661 93.3896 52.8661 93.7751V93.8888C52.8661 94.2743 52.8101 94.6318 52.698 94.9613C52.586 95.2908 52.4229 95.5792 52.2087 95.8263C51.9945 96.0701 51.7342 96.2612 51.4278 96.3996C51.1214 96.5347 50.7737 96.6023 50.3849 96.6023C49.9928 96.6023 49.6419 96.5347 49.3321 96.3996C49.0257 96.2612 48.7654 96.0701 48.5512 95.8263C48.337 95.5792 48.1739 95.2908 48.0619 94.9613C47.9499 94.6318 47.8938 94.2743 47.8938 93.8888ZM49.085 93.7751V93.8888C49.085 94.1293 49.1097 94.3567 49.1591 94.5709C49.2086 94.785 49.286 94.9729 49.3914 95.1343C49.4969 95.2958 49.632 95.4226 49.7967 95.5149C49.9615 95.6072 50.1575 95.6533 50.3849 95.6533C50.6057 95.6533 50.7968 95.6072 50.9583 95.5149C51.123 95.4226 51.2581 95.2958 51.3635 95.1343C51.469 94.9729 51.5464 94.785 51.5958 94.5709C51.6486 94.3567 51.6749 94.1293 51.6749 93.8888V93.7751C51.6749 93.5379 51.6486 93.3138 51.5958 93.1029C51.5464 92.8887 51.4673 92.6993 51.3586 92.5345C51.2532 92.3698 51.1181 92.2412 50.9533 92.149C50.7918 92.0534 50.5991 92.0057 50.375 92.0057C50.151 92.0057 49.9565 92.0534 49.7918 92.149C49.6303 92.2412 49.4969 92.3698 49.3914 92.5345C49.286 92.6993 49.2086 92.8887 49.1591 93.1029C49.1097 93.3138 49.085 93.5379 49.085 93.7751ZM55.5285 95.3172L56.7642 91.1555H57.5253L57.3177 92.4011L56.0722 96.5034H55.3901L55.5285 95.3172ZM54.8019 91.1555L55.7658 95.337L55.8448 96.5034H55.0837L53.6355 91.1555H54.8019ZM58.6819 95.2875L59.616 91.1555H60.7776L59.3343 96.5034H58.5732L58.6819 95.2875ZM57.6538 91.1555L58.8747 95.2678L59.0279 96.5034H58.3458L57.0854 92.3961L56.8778 91.1555H57.6538ZM65.8058 88.9116V96.5034H64.6097V88.9116H65.8058ZM69.6792 96.6023C69.2838 96.6023 68.9263 96.538 68.6066 96.4095C68.2903 96.2777 68.0201 96.0948 67.796 95.8609C67.5753 95.6269 67.4056 95.3518 67.287 95.0355C67.1683 94.7191 67.109 94.3781 67.109 94.0123V93.8146C67.109 93.3962 67.17 93.0172 67.2919 92.6778C67.4138 92.3385 67.5835 92.0485 67.801 91.8079C68.0185 91.5641 68.2755 91.3779 68.572 91.2494C68.8686 91.1209 69.1899 91.0567 69.5358 91.0567C69.9181 91.0567 70.2525 91.1209 70.5392 91.2494C70.8259 91.3779 71.0631 91.5592 71.2509 91.7931C71.442 92.0238 71.5837 92.2989 71.676 92.6185C71.7715 92.9382 71.8193 93.2907 71.8193 93.6762V94.1853H67.6873V93.3303H70.643V93.2364C70.6364 93.0222 70.5936 92.8212 70.5145 92.6334C70.4387 92.4455 70.3217 92.294 70.1636 92.1786C70.0054 92.0633 69.7945 92.0057 69.5309 92.0057C69.3332 92.0057 69.1569 92.0485 69.002 92.1342C68.8505 92.2165 68.7236 92.3368 68.6215 92.495C68.5193 92.6531 68.4402 92.8442 68.3842 93.0683C68.3315 93.2891 68.3051 93.5379 68.3051 93.8146V94.0123C68.3051 94.2463 68.3364 94.4638 68.399 94.6648C68.4649 94.8625 68.5605 95.0355 68.6857 95.1837C68.8109 95.332 68.9625 95.449 69.1404 95.5347C69.3184 95.617 69.521 95.6582 69.7484 95.6582C70.035 95.6582 70.2904 95.6006 70.5145 95.4852C70.7385 95.3699 70.933 95.2068 71.0977 94.9959L71.7254 95.6039C71.6101 95.7719 71.4602 95.9334 71.2756 96.0882C71.0911 96.2398 70.8654 96.3634 70.5985 96.4589C70.3349 96.5545 70.0285 96.6023 69.6792 96.6023ZM74.5707 96.5034H73.3795V90.6415C73.3795 90.2428 73.4537 89.9083 73.602 89.6381C73.7535 89.3647 73.9694 89.1587 74.2494 89.0203C74.5295 88.8786 74.8607 88.8078 75.2429 88.8078C75.3615 88.8078 75.4785 88.816 75.5938 88.8325C75.7092 88.8457 75.8212 88.8671 75.9299 88.8968L75.9003 89.8161C75.8344 89.7996 75.7619 89.7881 75.6828 89.7815C75.607 89.7749 75.5246 89.7716 75.4357 89.7716C75.2544 89.7716 75.0979 89.8062 74.9661 89.8754C74.8376 89.9413 74.7388 90.0385 74.6696 90.167C74.6037 90.2955 74.5707 90.4537 74.5707 90.6415V96.5034ZM75.6729 91.1555V92.0254H72.5591V91.1555H75.6729ZM79.2003 91.1555V92.0254H76.1853V91.1555H79.2003ZM77.0552 89.8457H78.2464V95.0256C78.2464 95.1903 78.2694 95.3172 78.3156 95.4062C78.365 95.4918 78.4325 95.5495 78.5182 95.5792C78.6039 95.6088 78.7044 95.6236 78.8197 95.6236C78.9021 95.6236 78.9812 95.6187 79.0569 95.6088C79.1327 95.5989 79.1937 95.589 79.2398 95.5792L79.2448 96.4886C79.1459 96.5182 79.0306 96.5446 78.8988 96.5677C78.7703 96.5907 78.622 96.6023 78.4539 96.6023C78.1805 96.6023 77.9383 96.5545 77.7274 96.4589C77.5165 96.3601 77.3517 96.2003 77.2331 95.9795C77.1145 95.7587 77.0552 95.4655 77.0552 95.0997V89.8457ZM85.2467 95.6533C85.4411 95.6533 85.6158 95.6154 85.7706 95.5396C85.9288 95.4605 86.0557 95.3518 86.1512 95.2134C86.2501 95.075 86.3044 94.9152 86.3143 94.734H87.4363C87.4297 95.0799 87.3276 95.3946 87.1299 95.678C86.9322 95.9614 86.6702 96.1871 86.344 96.3551C86.0178 96.5199 85.657 96.6023 85.2616 96.6023C84.853 96.6023 84.4971 96.5331 84.194 96.3947C83.8908 96.253 83.6387 96.0586 83.4377 95.8115C83.2367 95.5643 83.0852 95.2793 82.983 94.9564C82.8842 94.6335 82.8347 94.2875 82.8347 93.9184V93.7454C82.8347 93.3764 82.8842 93.0304 82.983 92.7075C83.0852 92.3813 83.2367 92.0946 83.4377 91.8475C83.6387 91.6004 83.8908 91.4076 84.194 91.2692C84.4971 91.1275 84.8513 91.0567 85.2566 91.0567C85.685 91.0567 86.0606 91.1423 86.3835 91.3137C86.7064 91.4817 86.9602 91.7173 87.1447 92.0205C87.3325 92.3203 87.4297 92.6696 87.4363 93.0683H86.3143C86.3044 92.8706 86.255 92.6927 86.1661 92.5345C86.0804 92.3731 85.9585 92.2445 85.8003 92.149C85.6454 92.0534 85.4593 92.0057 85.2418 92.0057C85.0012 92.0057 84.8019 92.0551 84.6437 92.1539C84.4856 92.2495 84.362 92.3813 84.273 92.5493C84.1841 92.7141 84.1198 92.9003 84.0803 93.1079C84.044 93.3121 84.0259 93.5247 84.0259 93.7454V93.9184C84.0259 94.1392 84.044 94.3534 84.0803 94.561C84.1165 94.7686 84.1791 94.9547 84.2681 95.1195C84.3604 95.2809 84.4856 95.4111 84.6437 95.51C84.8019 95.6055 85.0029 95.6533 85.2467 95.6533ZM88.3342 93.8888V93.7751C88.3342 93.3896 88.3902 93.0321 88.5023 92.7026C88.6143 92.3698 88.7757 92.0814 88.9866 91.8376C89.2008 91.5905 89.4611 91.3994 89.7676 91.2643C90.0773 91.1259 90.4266 91.0567 90.8154 91.0567C91.2075 91.0567 91.5568 91.1259 91.8632 91.2643C92.173 91.3994 92.4349 91.5905 92.6491 91.8376C92.8633 92.0814 93.0264 92.3698 93.1384 92.7026C93.2504 93.0321 93.3065 93.3896 93.3065 93.7751V93.8888C93.3065 94.2743 93.2504 94.6318 93.1384 94.9613C93.0264 95.2908 92.8633 95.5792 92.6491 95.8263C92.4349 96.0701 92.1746 96.2612 91.8682 96.3996C91.5617 96.5347 91.2141 96.6023 90.8253 96.6023C90.4332 96.6023 90.0822 96.5347 89.7725 96.3996C89.4661 96.2612 89.2058 96.0701 88.9916 95.8263C88.7774 95.5792 88.6143 95.2908 88.5023 94.9613C88.3902 94.6318 88.3342 94.2743 88.3342 93.8888ZM89.5254 93.7751V93.8888C89.5254 94.1293 89.5501 94.3567 89.5995 94.5709C89.6489 94.785 89.7264 94.9729 89.8318 95.1343C89.9373 95.2958 90.0724 95.4226 90.2371 95.5149C90.4019 95.6072 90.5979 95.6533 90.8253 95.6533C91.046 95.6533 91.2372 95.6072 91.3986 95.5149C91.5634 95.4226 91.6985 95.2958 91.8039 95.1343C91.9094 94.9729 91.9868 94.785 92.0362 94.5709C92.0889 94.3567 92.1153 94.1293 92.1153 93.8888V93.7751C92.1153 93.5379 92.0889 93.3138 92.0362 93.1029C91.9868 92.8887 91.9077 92.6993 91.799 92.5345C91.6935 92.3698 91.5584 92.2412 91.3937 92.149C91.2322 92.0534 91.0395 92.0057 90.8154 92.0057C90.5913 92.0057 90.3969 92.0534 90.2322 92.149C90.0707 92.2412 89.9373 92.3698 89.8318 92.5345C89.7264 92.6993 89.6489 92.8887 89.5995 93.1029C89.5501 93.3138 89.5254 93.5379 89.5254 93.7751ZM95.7119 92.1737V96.5034H94.5207V91.1555H95.6575L95.7119 92.1737ZM97.3479 91.1209L97.338 92.2281C97.2655 92.2149 97.1864 92.205 97.1007 92.1984C97.0184 92.1918 96.936 92.1885 96.8536 92.1885C96.6493 92.1885 96.4697 92.2182 96.3149 92.2775C96.16 92.3335 96.0298 92.4159 95.9244 92.5246C95.8222 92.6301 95.7432 92.7586 95.6871 92.9101C95.6311 93.0617 95.5982 93.2314 95.5883 93.4192L95.3165 93.439C95.3165 93.1029 95.3494 92.7915 95.4153 92.5049C95.4812 92.2182 95.5801 91.9661 95.7119 91.7486C95.847 91.5312 96.015 91.3615 96.216 91.2395C96.4203 91.1176 96.6559 91.0567 96.9228 91.0567C96.9953 91.0567 97.0727 91.0633 97.1551 91.0764C97.2408 91.0896 97.305 91.1044 97.3479 91.1209ZM99.4864 92.2973V96.5034H98.2952V91.1555H99.4172L99.4864 92.2973ZM99.2738 93.6318L98.8883 93.6268C98.8916 93.2479 98.9443 92.9003 99.0465 92.5839C99.1519 92.2676 99.2969 91.9958 99.4814 91.7684C99.6692 91.541 99.8933 91.3664 100.154 91.2445C100.414 91.1193 100.704 91.0567 101.024 91.0567C101.281 91.0567 101.513 91.0929 101.72 91.1654C101.931 91.2346 102.111 91.3483 102.259 91.5064C102.411 91.6646 102.526 91.8706 102.605 92.1243C102.684 92.3747 102.724 92.6828 102.724 93.0485V96.5034H101.528V93.0436C101.528 92.7866 101.49 92.5839 101.414 92.4357C101.341 92.2841 101.234 92.177 101.093 92.1144C100.954 92.0485 100.781 92.0155 100.574 92.0155C100.369 92.0155 100.187 92.0584 100.025 92.144C99.8636 92.2297 99.7269 92.3467 99.6149 92.495C99.5061 92.6432 99.4221 92.8146 99.3628 93.009C99.3035 93.2034 99.2738 93.411 99.2738 93.6318ZM106.508 96.6023C106.113 96.6023 105.755 96.538 105.436 96.4095C105.119 96.2777 104.849 96.0948 104.625 95.8609C104.404 95.6269 104.235 95.3518 104.116 95.0355C103.997 94.7191 103.938 94.3781 103.938 94.0123V93.8146C103.938 93.3962 103.999 93.0172 104.121 92.6778C104.243 92.3385 104.412 92.0485 104.63 91.8079C104.847 91.5641 105.104 91.3779 105.401 91.2494C105.698 91.1209 106.019 91.0567 106.365 91.0567C106.747 91.0567 107.081 91.1209 107.368 91.2494C107.655 91.3779 107.892 91.5592 108.08 91.7931C108.271 92.0238 108.413 92.2989 108.505 92.6185C108.601 92.9382 108.648 93.2907 108.648 93.6762V94.1853H104.516V93.3303H107.472V93.2364C107.465 93.0222 107.423 92.8212 107.343 92.6334C107.268 92.4455 107.151 92.294 106.993 92.1786C106.834 92.0633 106.623 92.0057 106.36 92.0057C106.162 92.0057 105.986 92.0485 105.831 92.1342C105.679 92.2165 105.553 92.3368 105.45 92.495C105.348 92.6531 105.269 92.8442 105.213 93.0683C105.16 93.2891 105.134 93.5379 105.134 93.8146V94.0123C105.134 94.2463 105.165 94.4638 105.228 94.6648C105.294 94.8625 105.389 95.0355 105.515 95.1837C105.64 95.332 105.791 95.449 105.969 95.5347C106.147 95.617 106.35 95.6582 106.577 95.6582C106.864 95.6582 107.119 95.6006 107.343 95.4852C107.568 95.3699 107.762 95.2068 107.927 94.9959L108.554 95.6039C108.439 95.7719 108.289 95.9334 108.105 96.0882C107.92 96.2398 107.694 96.3634 107.427 96.4589C107.164 96.5545 106.857 96.6023 106.508 96.6023ZM110.985 92.1737V96.5034H109.793V91.1555H110.93L110.985 92.1737ZM112.621 91.1209L112.611 92.2281C112.538 92.2149 112.459 92.205 112.373 92.1984C112.291 92.1918 112.209 92.1885 112.126 92.1885C111.922 92.1885 111.742 92.2182 111.588 92.2775C111.433 92.3335 111.302 92.4159 111.197 92.5246C111.095 92.6301 111.016 92.7586 110.96 92.9101C110.904 93.0617 110.871 93.2314 110.861 93.4192L110.589 93.439C110.589 93.1029 110.622 92.7915 110.688 92.5049C110.754 92.2182 110.853 91.9661 110.985 91.7486C111.12 91.5312 111.288 91.3615 111.489 91.2395C111.693 91.1176 111.929 91.0567 112.195 91.0567C112.268 91.0567 112.345 91.0633 112.428 91.0764C112.513 91.0896 112.578 91.1044 112.621 91.1209Z" fill="white"/>
<path d="M29.2215 108.34V108.67C29.2215 109.123 29.1625 109.529 29.0444 109.889C28.9263 110.249 28.7575 110.555 28.5378 110.807C28.3209 111.06 28.06 111.254 27.7552 111.388C27.4504 111.52 27.1127 111.586 26.742 111.586C26.374 111.586 26.0377 111.52 25.7329 111.388C25.4308 111.254 25.1686 111.06 24.9462 110.807C24.7237 110.555 24.5508 110.249 24.4272 109.889C24.3064 109.529 24.246 109.123 24.246 108.67V108.34C24.246 107.887 24.3064 107.482 24.4272 107.125C24.548 106.765 24.7183 106.459 24.9379 106.207C25.1603 105.951 25.4226 105.758 25.7246 105.626C26.0294 105.491 26.3658 105.424 26.7337 105.424C27.1044 105.424 27.4422 105.491 27.747 105.626C28.0518 105.758 28.314 105.951 28.5337 106.207C28.7533 106.459 28.9222 106.765 29.0403 107.125C29.1611 107.482 29.2215 107.887 29.2215 108.34ZM28.1877 108.67V108.332C28.1877 107.997 28.1547 107.702 28.0888 107.446C28.0257 107.188 27.9309 106.973 27.8046 106.8C27.6811 106.624 27.5287 106.492 27.3474 106.404C27.1662 106.314 26.9616 106.268 26.7337 106.268C26.5058 106.268 26.3026 106.314 26.1241 106.404C25.9457 106.492 25.7933 106.624 25.667 106.8C25.5434 106.973 25.4487 107.188 25.3828 107.446C25.3169 107.702 25.2839 107.997 25.2839 108.332V108.67C25.2839 109.005 25.3169 109.301 25.3828 109.559C25.4487 109.817 25.5448 110.036 25.6711 110.214C25.8001 110.39 25.9539 110.523 26.1324 110.614C26.3109 110.702 26.5141 110.746 26.742 110.746C26.9726 110.746 27.1772 110.702 27.3557 110.614C27.5342 110.523 27.6852 110.39 27.8088 110.214C27.9323 110.036 28.0257 109.817 28.0888 109.559C28.1547 109.301 28.1877 109.005 28.1877 108.67ZM32.9548 109.267H31.3938V108.447H32.9548C33.2267 108.447 33.4463 108.403 33.6138 108.315C33.7813 108.228 33.9035 108.107 33.9804 107.953C34.06 107.796 34.0999 107.618 34.0999 107.418C34.0999 107.228 34.06 107.051 33.9804 106.886C33.9035 106.719 33.7813 106.584 33.6138 106.483C33.4463 106.381 33.2267 106.33 32.9548 106.33H31.7109V111.503H30.6771V105.506H32.9548C33.4189 105.506 33.8129 105.589 34.1369 105.754C34.4637 105.916 34.7122 106.141 34.8824 106.429C35.0527 106.715 35.1378 107.041 35.1378 107.409C35.1378 107.796 35.0527 108.129 34.8824 108.406C34.7122 108.683 34.4637 108.896 34.1369 109.044C33.8129 109.193 33.4189 109.267 32.9548 109.267ZM40.4116 110.684V111.503H37.2277V110.684H40.4116ZM37.5201 105.506V111.503H36.4863V105.506H37.5201ZM39.9956 108.011V108.818H37.2277V108.011H39.9956ZM40.391 105.506V106.33H37.2277V105.506H40.391ZM46.4349 105.506V111.503H45.4011L42.7115 107.207V111.503H41.6777V105.506H42.7115L45.4094 109.811V105.506H46.4349ZM52.0135 110.684V111.503H48.8296V110.684H52.0135ZM49.1221 105.506V111.503H48.0882V105.506H49.1221ZM51.5975 108.011V108.818H48.8296V108.011H51.5975ZM51.9929 105.506V106.33H48.8296V105.506H51.9929ZM55.0219 111.503H53.7409L53.7492 110.684H55.0219C55.3926 110.684 55.7029 110.603 55.9527 110.441C56.2054 110.279 56.3948 110.047 56.5211 109.745C56.6502 109.443 56.7147 109.083 56.7147 108.666V108.34C56.7147 108.016 56.6777 107.729 56.6035 107.479C56.5321 107.229 56.425 107.019 56.2823 106.849C56.1422 106.679 55.9692 106.55 55.7633 106.462C55.5601 106.374 55.3253 106.33 55.059 106.33H53.7162V105.506H55.059C55.4571 105.506 55.8209 105.574 56.1505 105.708C56.48 105.84 56.7642 106.031 57.0031 106.281C57.2447 106.531 57.43 106.83 57.5591 107.179C57.6882 107.527 57.7527 107.917 57.7527 108.348V108.666C57.7527 109.097 57.6882 109.487 57.5591 109.835C57.43 110.184 57.2447 110.483 57.0031 110.733C56.7614 110.98 56.4731 111.171 56.1381 111.306C55.8058 111.438 55.4338 111.503 55.0219 111.503ZM54.3135 105.506V111.503H53.2796V105.506H54.3135Z" fill="white" fill-opacity="0.8"/>
</g>
<defs>
<filter id="filter0_d_5952_143928" x="0.210925" y="0.251701" width="144.245" height="144.245" filterUnits="userSpaceOnUse" color-interpolation-filters="sRGB">
<feFlood flood-opacity="0" result="BackgroundImageFix"/>
<feColorMatrix in="SourceAlpha" type="matrix" values="0 0 0 0 0 0 0 0 0 0 0 0 0 0 0 0 0 0 127 0" result="hardAlpha"/>
<feOffset dy="3.37415"/>
<feGaussianBlur stdDeviation="5.06122"/>
<feComposite in2="hardAlpha" operator="out"/>
<feColorMatrix type="matrix" values="0 0 0 0 0 0 0 0 0 0 0 0 0 0 0 0 0 0 0.06 0"/>
<feBlend mode="normal" in2="BackgroundImageFix" result="effect1_dropShadow_5952_143928"/>
<feBlend mode="normal" in="SourceGraphic" in2="effect1_dropShadow_5952_143928" result="shape"/>
</filter>
</defs>
</svg>
