 <svg width="128" height="127" viewBox="0 0 128 127" fill="none" xmlns="http://www.w3.org/2000/svg">
<g filter="url(#filter0_d_1142_203964)">
<rect x="5.5" y="2.5" width="117" height="117" rx="2.29412" fill="white"/>
<path d="M40.3471 28.2998V34.8237H39.2314V28.2998H40.3471ZM42.3948 28.2998V29.196H37.2016V28.2998H42.3948ZM44.998 34.9133C44.6396 34.9133 44.3155 34.8551 44.0257 34.7386C43.739 34.6191 43.494 34.4533 43.2909 34.2412C43.0908 34.0292 42.9369 33.7797 42.8294 33.493C42.7219 33.2062 42.6681 32.897 42.6681 32.5655V32.3862C42.6681 32.0069 42.7233 31.6633 42.8339 31.3557C42.9444 31.048 43.0982 30.7851 43.2954 30.5671C43.4925 30.346 43.7255 30.1772 43.9944 30.0607C44.2632 29.9442 44.5545 29.886 44.8681 29.886C45.2146 29.886 45.5178 29.9442 45.7777 30.0607C46.0376 30.1772 46.2526 30.3415 46.4229 30.5536C46.5962 30.7627 46.7246 31.0121 46.8082 31.3019C46.8949 31.5917 46.9382 31.9113 46.9382 32.2608V32.7223H43.1923V31.9471H45.8718V31.862C45.8658 31.6678 45.827 31.4856 45.7553 31.3153C45.6866 31.1451 45.5805 31.0077 45.4372 30.9031C45.2938 30.7986 45.1026 30.7463 44.8636 30.7463C44.6844 30.7463 44.5246 30.7851 44.3842 30.8628C44.2468 30.9375 44.1318 31.0465 44.0392 31.1899C43.9466 31.3333 43.8749 31.5065 43.8241 31.7096C43.7763 31.9098 43.7524 32.1353 43.7524 32.3862V32.5655C43.7524 32.7775 43.7808 32.9747 43.8375 33.1569C43.8973 33.3361 43.9839 33.493 44.0974 33.6274C44.2109 33.7618 44.3483 33.8678 44.5097 33.9455C44.671 34.0202 44.8547 34.0575 45.0608 34.0575C45.3207 34.0575 45.5522 34.0053 45.7553 33.9007C45.9584 33.7962 46.1347 33.6483 46.284 33.4571L46.8531 34.0082C46.7485 34.1606 46.6126 34.307 46.4453 34.4474C46.278 34.5848 46.0734 34.6968 45.8315 34.7834C45.5925 34.87 45.3147 34.9133 44.998 34.9133ZM49.0038 30.9614V34.8237H47.9239V29.9756H48.9411L49.0038 30.9614ZM48.829 32.2204L48.4616 32.216C48.4616 31.8814 48.5034 31.5722 48.5871 31.2885C48.6707 31.0047 48.7932 30.7582 48.9545 30.5491C49.1158 30.3371 49.3159 30.1743 49.5549 30.0607C49.7969 29.9442 50.0762 29.886 50.3928 29.886C50.6139 29.886 50.8155 29.9189 50.9977 29.9846C51.1829 30.0473 51.3427 30.1474 51.4771 30.2848C51.6145 30.4222 51.7191 30.5984 51.7908 30.8135C51.8655 31.0286 51.9028 31.2885 51.9028 31.5931V34.8237H50.823V31.6872C50.823 31.4513 50.7871 31.2661 50.7154 31.1316C50.6467 30.9972 50.5466 30.9016 50.4152 30.8449C50.2868 30.7851 50.1329 30.7553 49.9537 30.7553C49.7506 30.7553 49.5773 30.7941 49.4339 30.8718C49.2935 30.9494 49.1785 31.0555 49.0889 31.1899C48.9993 31.3243 48.9336 31.4796 48.8918 31.6559C48.85 31.8321 48.829 32.0203 48.829 32.2204ZM51.8356 31.9337L51.3293 32.0457C51.3293 31.753 51.3696 31.4766 51.4503 31.2168C51.5339 30.9539 51.6549 30.7239 51.8132 30.5267C51.9745 30.3266 52.1731 30.1698 52.4091 30.0563C52.6451 29.9428 52.9154 29.886 53.2201 29.886C53.4681 29.886 53.6891 29.9204 53.8833 29.9891C54.0804 30.0548 54.2477 30.1593 54.3851 30.3027C54.5225 30.4461 54.6271 30.6328 54.6988 30.8628C54.7705 31.0898 54.8063 31.3646 54.8063 31.6872V34.8237H53.722V31.6828C53.722 31.4378 53.6861 31.2481 53.6144 31.1137C53.5457 30.9793 53.4472 30.8867 53.3187 30.8359C53.1903 30.7821 53.0364 30.7553 52.8572 30.7553C52.6899 30.7553 52.5421 30.7866 52.4136 30.8494C52.2881 30.9091 52.1821 30.9942 52.0955 31.1048C52.0088 31.2123 51.9431 31.3363 51.8983 31.4766C51.8565 31.617 51.8356 31.7694 51.8356 31.9337ZM57.1452 30.9076V36.6877H56.0654V29.9756H57.0601L57.1452 30.9076ZM60.3041 32.3549V32.449C60.3041 32.8014 60.2623 33.1285 60.1787 33.4302C60.098 33.7289 59.977 33.9903 59.8157 34.2144C59.6574 34.4354 59.4617 34.6072 59.2287 34.7296C58.9957 34.8521 58.7269 34.9133 58.4222 34.9133C58.1205 34.9133 57.8562 34.8581 57.6291 34.7476C57.4051 34.634 57.2154 34.4742 57.0601 34.2681C56.9048 34.062 56.7793 33.8201 56.6837 33.5423C56.5911 33.2615 56.5254 32.9538 56.4866 32.6192V32.2563C56.5254 31.9008 56.5911 31.5782 56.6837 31.2885C56.7793 30.9987 56.9048 30.7493 57.0601 30.5402C57.2154 30.3311 57.4051 30.1698 57.6291 30.0563C57.8532 29.9428 58.1145 29.886 58.4133 29.886C58.7179 29.886 58.9883 29.9457 59.2243 30.0652C59.4602 30.1817 59.6589 30.349 59.8202 30.5671C59.9815 30.7821 60.1025 31.042 60.1831 31.3467C60.2638 31.6484 60.3041 31.9845 60.3041 32.3549ZM59.2243 32.449V32.3549C59.2243 32.1308 59.2034 31.9232 59.1615 31.732C59.1197 31.5379 59.054 31.3676 58.9644 31.2212C58.8748 31.0749 58.7598 30.9614 58.6194 30.8807C58.482 30.7971 58.3162 30.7553 58.122 30.7553C57.9308 30.7553 57.7665 30.7881 57.6291 30.8538C57.4917 30.9166 57.3767 31.0047 57.2841 31.1182C57.1915 31.2317 57.1198 31.3646 57.069 31.517C57.0183 31.6663 56.9824 31.8291 56.9615 32.0054V32.8746C56.9974 33.0897 57.0586 33.2869 57.1452 33.4661C57.2318 33.6453 57.3543 33.7887 57.5126 33.8962C57.6739 34.0008 57.8801 34.0531 58.131 34.0531C58.3251 34.0531 58.4909 34.0112 58.6283 33.9276C58.7657 33.844 58.8778 33.7289 58.9644 33.5826C59.054 33.4332 59.1197 33.2615 59.1615 33.0673C59.2034 32.8731 59.2243 32.667 59.2243 32.449ZM63.5033 34.9133C63.1449 34.9133 62.8208 34.8551 62.531 34.7386C62.2443 34.6191 61.9993 34.4533 61.7962 34.2412C61.596 34.0292 61.4422 33.7797 61.3347 33.493C61.2271 33.2062 61.1734 32.897 61.1734 32.5655V32.3862C61.1734 32.0069 61.2286 31.6633 61.3392 31.3557C61.4497 31.048 61.6035 30.7851 61.8007 30.5671C61.9978 30.346 62.2308 30.1772 62.4997 30.0607C62.7685 29.9442 63.0597 29.886 63.3734 29.886C63.7199 29.886 64.0231 29.9442 64.283 30.0607C64.5429 30.1772 64.7579 30.3415 64.9282 30.5536C65.1014 30.7627 65.2299 31.0121 65.3135 31.3019C65.4002 31.5917 65.4435 31.9113 65.4435 32.2608V32.7223H61.6976V31.9471H64.3771V31.862C64.3711 31.6678 64.3323 31.4856 64.2606 31.3153C64.1919 31.1451 64.0858 31.0077 63.9424 30.9031C63.7991 30.7986 63.6079 30.7463 63.3689 30.7463C63.1897 30.7463 63.0299 30.7851 62.8895 30.8628C62.7521 30.9375 62.6371 31.0465 62.5445 31.1899C62.4519 31.3333 62.3802 31.5065 62.3294 31.7096C62.2816 31.9098 62.2577 32.1353 62.2577 32.3862V32.5655C62.2577 32.7775 62.2861 32.9747 62.3428 33.1569C62.4026 33.3361 62.4892 33.493 62.6027 33.6274C62.7162 33.7618 62.8536 33.8678 63.0149 33.9455C63.1762 34.0202 63.3599 34.0575 63.5661 34.0575C63.8259 34.0575 64.0574 34.0053 64.2606 33.9007C64.4637 33.7962 64.6399 33.6483 64.7893 33.4571L65.3583 34.0082C65.2538 34.1606 65.1179 34.307 64.9506 34.4474C64.7833 34.5848 64.5787 34.6968 64.3367 34.7834C64.0978 34.87 63.82 34.9133 63.5033 34.9133ZM67.5136 30.8986V34.8237H66.4337V29.9756H67.4643L67.5136 30.8986ZM68.9967 29.9442L68.9877 30.9479C68.922 30.936 68.8503 30.927 68.7726 30.921C68.698 30.9151 68.6233 30.9121 68.5486 30.9121C68.3634 30.9121 68.2006 30.939 68.0602 30.9927C67.9198 31.0435 67.8018 31.1182 67.7062 31.2168C67.6136 31.3124 67.5419 31.4289 67.4912 31.5663C67.4404 31.7037 67.4105 31.8575 67.4015 32.0278L67.1551 32.0457C67.1551 31.741 67.185 31.4587 67.2447 31.1988C67.3045 30.939 67.3941 30.7104 67.5136 30.5133C67.636 30.3161 67.7884 30.1623 67.9706 30.0518C68.1558 29.9413 68.3694 29.886 68.6113 29.886C68.677 29.886 68.7472 29.892 68.8219 29.9039C68.8996 29.9159 68.9578 29.9293 68.9967 29.9442ZM72.3886 33.8514V31.5394C72.3886 31.3661 72.3572 31.2168 72.2945 31.0913C72.2317 30.9658 72.1361 30.8688 72.0077 30.8001C71.8822 30.7314 71.7239 30.697 71.5327 30.697C71.3565 30.697 71.2042 30.7269 71.0757 30.7866C70.9473 30.8464 70.8472 30.927 70.7755 31.0286C70.7038 31.1301 70.668 31.2451 70.668 31.3736H69.5926C69.5926 31.1824 69.6389 30.9972 69.7315 30.818C69.8241 30.6388 69.9585 30.4789 70.1348 30.3386C70.311 30.1982 70.5216 30.0876 70.7665 30.007C71.0115 29.9263 71.2863 29.886 71.591 29.886C71.9554 29.886 72.278 29.9472 72.5588 30.0697C72.8426 30.1922 73.0651 30.3774 73.2264 30.6253C73.3907 30.8703 73.4729 31.1779 73.4729 31.5483V33.7036C73.4729 33.9246 73.4878 34.1232 73.5177 34.2995C73.5506 34.4727 73.5969 34.6236 73.6566 34.752V34.8237H72.5499C72.4991 34.7072 72.4588 34.5594 72.4289 34.3801C72.402 34.1979 72.3886 34.0217 72.3886 33.8514ZM72.5454 31.8754L72.5543 32.5431H71.7792C71.579 32.5431 71.4028 32.5625 71.2505 32.6013C71.0981 32.6371 70.9712 32.6909 70.8696 32.7626C70.768 32.8343 70.6919 32.9209 70.6411 33.0225C70.5903 33.1241 70.5649 33.2391 70.5649 33.3675C70.5649 33.496 70.5948 33.6139 70.6545 33.7215C70.7143 33.826 70.8009 33.9082 70.9144 33.9679C71.0309 34.0277 71.1713 34.0575 71.3356 34.0575C71.5566 34.0575 71.7493 34.0127 71.9136 33.9231C72.0809 33.8305 72.2123 33.7185 72.3079 33.5871C72.4035 33.4526 72.4543 33.3257 72.4602 33.2062L72.8097 33.6856C72.7739 33.8081 72.7127 33.9395 72.626 34.0799C72.5394 34.2203 72.4259 34.3548 72.2855 34.4832C72.1481 34.6087 71.9823 34.7117 71.7881 34.7924C71.597 34.873 71.3759 34.9133 71.125 34.9133C70.8084 34.9133 70.5261 34.8506 70.2781 34.7252C70.0302 34.5967 69.8361 34.4249 69.6957 34.2099C69.5553 33.9918 69.4851 33.7454 69.4851 33.4706C69.4851 33.2137 69.5329 32.9866 69.6284 32.7895C69.727 32.5894 69.8704 32.4221 70.0586 32.2877C70.2498 32.1532 70.4828 32.0517 70.7576 31.983C71.0324 31.9113 71.346 31.8754 71.6985 31.8754H72.5454ZM76.9678 29.9756V30.7642H74.2346V29.9756H76.9678ZM75.0232 28.7882H76.1031V33.484C76.1031 33.6334 76.124 33.7484 76.1658 33.829C76.2106 33.9067 76.2718 33.959 76.3495 33.9858C76.4272 34.0127 76.5183 34.0262 76.6228 34.0262C76.6975 34.0262 76.7692 34.0217 76.8379 34.0127C76.9066 34.0038 76.9619 33.9948 77.0037 33.9858L77.0082 34.8103C76.9185 34.8372 76.814 34.8611 76.6945 34.882C76.578 34.9029 76.4436 34.9133 76.2912 34.9133C76.0433 34.9133 75.8238 34.87 75.6326 34.7834C75.4414 34.6938 75.292 34.5489 75.1845 34.3488C75.077 34.1486 75.0232 33.8828 75.0232 33.5512V28.7882ZM80.8616 33.6812V29.9756H81.9459V34.8237H80.9243L80.8616 33.6812ZM81.0139 32.673L81.3768 32.664C81.3768 32.9896 81.341 33.2898 81.2693 33.5647C81.1976 33.8365 81.0871 34.074 80.9377 34.2771C80.7884 34.4772 80.5972 34.634 80.3642 34.7476C80.1312 34.8581 79.8519 34.9133 79.5263 34.9133C79.2903 34.9133 79.0738 34.879 78.8766 34.8103C78.6795 34.7416 78.5092 34.6355 78.3658 34.4922C78.2254 34.3488 78.1164 34.1621 78.0387 33.9321C77.9611 33.7021 77.9222 33.4272 77.9222 33.1076V29.9756H79.0021V33.1166C79.0021 33.2928 79.023 33.4407 79.0648 33.5602C79.1066 33.6767 79.1634 33.7708 79.2351 33.8425C79.3068 33.9141 79.3904 33.9649 79.486 33.9948C79.5816 34.0247 79.6831 34.0396 79.7907 34.0396C80.0983 34.0396 80.3403 33.9799 80.5165 33.8604C80.6958 33.7379 80.8227 33.5736 80.8974 33.3675C80.9751 33.1614 81.0139 32.9299 81.0139 32.673ZM84.2803 30.8986V34.8237H83.2005V29.9756H84.231L84.2803 30.8986ZM85.7634 29.9442L85.7545 30.9479C85.6888 30.936 85.6171 30.927 85.5394 30.921C85.4647 30.9151 85.3901 30.9121 85.3154 30.9121C85.1302 30.9121 84.9674 30.939 84.827 30.9927C84.6866 31.0435 84.5686 31.1182 84.473 31.2168C84.3804 31.3124 84.3087 31.4289 84.2579 31.5663C84.2071 31.7037 84.1773 31.8575 84.1683 32.0278L83.9219 32.0457C83.9219 31.741 83.9517 31.4587 84.0115 31.1988C84.0712 30.939 84.1608 30.7104 84.2803 30.5133C84.4028 30.3161 84.5551 30.1623 84.7374 30.0518C84.9226 29.9413 85.1361 29.886 85.3781 29.886C85.4438 29.886 85.514 29.892 85.5887 29.9039C85.6664 29.9159 85.7246 29.9293 85.7634 29.9442ZM88.6311 34.9133C88.2726 34.9133 87.9485 34.8551 87.6588 34.7386C87.372 34.6191 87.1271 34.4533 86.9239 34.2412C86.7238 34.0292 86.57 33.7797 86.4624 33.493C86.3549 33.2062 86.3011 32.897 86.3011 32.5655V32.3862C86.3011 32.0069 86.3564 31.6633 86.4669 31.3557C86.5774 31.048 86.7313 30.7851 86.9284 30.5671C87.1256 30.346 87.3586 30.1772 87.6274 30.0607C87.8963 29.9442 88.1875 29.886 88.5012 29.886C88.8477 29.886 89.1509 29.9442 89.4107 30.0607C89.6706 30.1772 89.8857 30.3415 90.056 30.5536C90.2292 30.7627 90.3577 31.0121 90.4413 31.3019C90.5279 31.5917 90.5712 31.9113 90.5712 32.2608V32.7223H86.8254V31.9471H89.5048V31.862C89.4989 31.6678 89.46 31.4856 89.3883 31.3153C89.3196 31.1451 89.2136 31.0077 89.0702 30.9031C88.9268 30.7986 88.7356 30.7463 88.4967 30.7463C88.3174 30.7463 88.1576 30.7851 88.0172 30.8628C87.8798 30.9375 87.7648 31.0465 87.6722 31.1899C87.5796 31.3333 87.5079 31.5065 87.4571 31.7096C87.4094 31.9098 87.3855 32.1353 87.3855 32.3862V32.5655C87.3855 32.7775 87.4138 32.9747 87.4706 33.1569C87.5303 33.3361 87.617 33.493 87.7305 33.6274C87.844 33.7618 87.9814 33.8678 88.1427 33.9455C88.304 34.0202 88.4877 34.0575 88.6938 34.0575C88.9537 34.0575 89.1852 34.0053 89.3883 33.9007C89.5915 33.7962 89.7677 33.6483 89.9171 33.4571L90.4861 34.0082C90.3815 34.1606 90.2456 34.307 90.0784 34.4474C89.9111 34.5848 89.7065 34.6968 89.4645 34.7834C89.2255 34.87 88.9477 34.9133 88.6311 34.9133Z" fill="black" fill-opacity="0.87"/>
<path d="M32.5735 63.9556V56.3086C32.5735 54.7218 31.2926 53.4409 29.7059 53.4409C28.1191 53.4409 26.8382 54.7218 26.8382 56.3086V63.9556C25.6816 64.8255 24.9265 66.2211 24.9265 67.7792C24.9265 70.4174 27.0676 72.5586 29.7059 72.5586C32.3441 72.5586 34.4853 70.4174 34.4853 67.7792C34.4853 66.2211 33.7301 64.8255 32.5735 63.9556ZM28.75 56.3086C28.75 55.7828 29.1801 55.3527 29.7059 55.3527C30.2316 55.3527 30.6618 55.7828 30.6618 56.3086H29.7059V57.2644H30.6618V59.1762H29.7059V60.1321H30.6618V62.0439H28.75V56.3086Z" fill="#5469FF"/>
<path d="M61.5793 70.204V73H47.3666V70.5972L54.2691 63.0685C55.0263 62.2142 55.6234 61.4764 56.0602 60.8551C56.4971 60.2337 56.8029 59.6755 56.9777 59.1804C57.1621 58.6756 57.2543 58.1853 57.2543 57.7096C57.2543 57.0398 57.1281 56.4524 56.8757 55.9476C56.633 55.433 56.2738 55.0302 55.7981 54.7389C55.3224 54.438 54.7448 54.2875 54.0652 54.2875C53.2788 54.2875 52.6187 54.4574 52.0847 54.7972C51.5508 55.1369 51.1479 55.6078 50.8761 56.2097C50.6042 56.8019 50.4683 57.4815 50.4683 58.2484H46.9588C46.9588 57.0155 47.2404 55.8893 47.8034 54.87C48.3665 53.8409 49.182 53.0254 50.2499 52.4235C51.3178 51.8119 52.6041 51.5061 54.1089 51.5061C55.5263 51.5061 56.7301 51.7439 57.7203 52.2196C58.7106 52.6953 59.463 53.3701 59.9775 54.2438C60.5017 55.1175 60.7638 56.1515 60.7638 57.3456C60.7638 58.0057 60.6571 58.661 60.4435 59.3115C60.2299 59.9619 59.9241 60.6124 59.5261 61.2628C59.1377 61.9035 58.6766 62.5491 58.1426 63.1996C57.6087 63.8403 57.0213 64.4908 56.3806 65.1509L51.7935 70.204H61.5793ZM78.0079 70.204V73H63.7951V70.5972L70.6976 63.0685C71.4549 62.2142 72.0519 61.4764 72.4888 60.8551C72.9257 60.2337 73.2315 59.6755 73.4062 59.1804C73.5907 58.6756 73.6829 58.1853 73.6829 57.7096C73.6829 57.0398 73.5567 56.4524 73.3043 55.9476C73.0616 55.433 72.7024 55.0302 72.2267 54.7389C71.751 54.438 71.1733 54.2875 70.4938 54.2875C69.7074 54.2875 69.0473 54.4574 68.5133 54.7972C67.9794 55.1369 67.5765 55.6078 67.3046 56.2097C67.0328 56.8019 66.8969 57.4815 66.8969 58.2484H63.3874C63.3874 57.0155 63.6689 55.8893 64.232 54.87C64.7951 53.8409 65.6106 53.0254 66.6785 52.4235C67.7464 51.8119 69.0327 51.5061 70.5375 51.5061C71.9549 51.5061 73.1587 51.7439 74.1489 52.2196C75.1391 52.6953 75.8915 53.3701 76.4061 54.2438C76.9303 55.1175 77.1924 56.1515 77.1924 57.3456C77.1924 58.0057 77.0856 58.661 76.872 59.3115C76.6585 59.9619 76.3527 60.6124 75.9546 61.2628C75.5663 61.9035 75.1052 62.5491 74.5712 63.1996C74.0373 63.8403 73.4499 64.4908 72.8092 65.1509L68.2221 70.204H78.0079ZM80.5004 55.3942C80.5004 54.6855 80.6751 54.0351 81.0246 53.4429C81.3741 52.8507 81.8401 52.3798 82.4226 52.0303C83.0148 51.6711 83.6555 51.4915 84.3448 51.4915C85.0438 51.4915 85.6797 51.6711 86.2525 52.0303C86.8253 52.3798 87.2815 52.8507 87.6213 53.4429C87.9708 54.0351 88.1456 54.6855 88.1456 55.3942C88.1456 56.1029 87.9708 56.7534 87.6213 57.3456C87.2815 57.928 86.8253 58.3892 86.2525 58.729C85.6797 59.0688 85.0438 59.2387 84.3448 59.2387C83.6555 59.2387 83.0148 59.0688 82.4226 58.729C81.8401 58.3892 81.3741 57.928 81.0246 57.3456C80.6751 56.7534 80.5004 56.1029 80.5004 55.3942ZM82.4663 55.3942C82.4663 55.9185 82.6507 56.3602 83.0197 56.7194C83.3886 57.0689 83.8303 57.2436 84.3448 57.2436C84.8594 57.2436 85.2914 57.0689 85.6409 56.7194C85.9904 56.3699 86.1651 55.9282 86.1651 55.3942C86.1651 54.8506 85.9904 54.3991 85.6409 54.0399C85.2914 53.6807 84.8594 53.5011 84.3448 53.5011C83.8303 53.5011 83.3886 53.6807 83.0197 54.0399C82.6507 54.3991 82.4663 54.8506 82.4663 55.3942ZM104.196 66.0975H107.836C107.72 67.4858 107.331 68.7235 106.671 69.8109C106.011 70.8885 105.084 71.7379 103.89 72.3593C102.696 72.9806 101.244 73.2912 99.5356 73.2912C98.225 73.2912 97.0455 73.0582 95.997 72.5923C94.9485 72.1166 94.0505 71.4467 93.303 70.5827C92.5554 69.7089 91.9826 68.6556 91.5846 67.4227C91.1963 66.1897 91.0021 64.8111 91.0021 63.287V61.5249C91.0021 60.0007 91.2011 58.6222 91.5992 57.3892C92.0069 56.1563 92.5894 55.103 93.3466 54.2292C94.1039 53.3458 95.0116 52.6711 96.0698 52.2051C97.1377 51.7391 98.3366 51.5061 99.6667 51.5061C101.356 51.5061 102.783 51.8168 103.948 52.4381C105.113 53.0594 106.016 53.9186 106.657 55.0156C107.307 56.1126 107.705 57.3698 107.851 58.7872H104.21C104.113 57.8747 103.899 57.0931 103.569 56.4427C103.249 55.7923 102.773 55.2971 102.142 54.9573C101.511 54.6079 100.686 54.4331 99.6667 54.4331C98.8318 54.4331 98.1036 54.5884 97.4823 54.8991C96.861 55.2098 96.3416 55.666 95.9242 56.268C95.5067 56.8699 95.1912 57.6125 94.9776 58.496C94.7737 59.3697 94.6718 60.3697 94.6718 61.4958V63.287C94.6718 64.3549 94.764 65.3257 94.9485 66.1994C95.1427 67.0634 95.4339 67.8061 95.8222 68.4274C96.2203 69.0488 96.7251 69.5293 97.3367 69.8691C97.9483 70.2089 98.6813 70.3788 99.5356 70.3788C100.574 70.3788 101.414 70.2138 102.055 69.8837C102.705 69.5536 103.196 69.073 103.526 68.442C103.865 67.8013 104.089 67.0198 104.196 66.0975Z" fill="black" fill-opacity="0.87"/>
<path d="M36.8514 93.5075V94.1763H34.3949V93.5075H36.8514ZM34.6301 89.2833V94.1763H33.7867V89.2833H34.6301ZM39.616 93.447V91.713C39.616 91.5831 39.5925 91.471 39.5455 91.377C39.4984 91.2829 39.4267 91.21 39.3304 91.1585C39.2363 91.107 39.1176 91.0812 38.9742 91.0812C38.842 91.0812 38.7277 91.1036 38.6314 91.1484C38.5351 91.1932 38.46 91.2537 38.4063 91.3299C38.3525 91.4061 38.3256 91.4923 38.3256 91.5887H37.5191C37.5191 91.4453 37.5538 91.3064 37.6232 91.172C37.6927 91.0375 37.7935 90.9177 37.9257 90.8124C38.0579 90.7071 38.2158 90.6242 38.3995 90.5637C38.5832 90.5032 38.7894 90.473 39.0179 90.473C39.2912 90.473 39.5331 90.5189 39.7437 90.6108C39.9566 90.7026 40.1235 90.8415 40.2445 91.0275C40.3677 91.2112 40.4293 91.4419 40.4293 91.7197V93.3361C40.4293 93.5019 40.4405 93.6509 40.4629 93.7831C40.4875 93.913 40.5223 94.0262 40.5671 94.1225V94.1763H39.737C39.6989 94.0889 39.6687 93.978 39.6463 93.8436C39.6261 93.7069 39.616 93.5747 39.616 93.447ZM39.7337 91.965L39.7404 92.4658H39.159C39.0089 92.4658 38.8767 92.4803 38.7625 92.5094C38.6482 92.5363 38.553 92.5767 38.4768 92.6304C38.4007 92.6842 38.3435 92.7492 38.3054 92.8253C38.2673 92.9015 38.2483 92.9878 38.2483 93.0841C38.2483 93.1804 38.2707 93.2689 38.3155 93.3496C38.3603 93.428 38.4253 93.4896 38.5104 93.5344C38.5978 93.5792 38.7031 93.6016 38.8263 93.6016C38.9921 93.6016 39.1366 93.568 39.2598 93.5008C39.3853 93.4314 39.4839 93.3473 39.5556 93.2488C39.6272 93.1479 39.6653 93.0527 39.6698 92.9631L39.9319 93.3227C39.905 93.4146 39.8591 93.5131 39.7941 93.6184C39.7292 93.7237 39.644 93.8245 39.5387 93.9209C39.4357 94.015 39.3114 94.0923 39.1657 94.1527C39.0223 94.2132 38.8566 94.2435 38.6684 94.2435C38.4309 94.2435 38.2192 94.1964 38.0332 94.1023C37.8473 94.006 37.7017 93.8772 37.5964 93.7159C37.4911 93.5523 37.4384 93.3675 37.4384 93.1614C37.4384 92.9687 37.4743 92.7985 37.546 92.6506C37.6199 92.5005 37.7274 92.375 37.8686 92.2742C38.0119 92.1734 38.1867 92.0972 38.3928 92.0457C38.5989 91.9919 38.8342 91.965 39.0985 91.965H39.7337ZM43.4594 93.1916C43.4594 93.111 43.4392 93.0382 43.3989 92.9732C43.3585 92.906 43.2813 92.8455 43.167 92.7917C43.055 92.738 42.8892 92.6887 42.6696 92.6439C42.477 92.6013 42.3 92.5509 42.1387 92.4926C41.9796 92.4322 41.8429 92.3593 41.7287 92.2742C41.6144 92.1891 41.5259 92.0883 41.4632 91.9718C41.4005 91.8553 41.3691 91.7208 41.3691 91.5685C41.3691 91.4206 41.4016 91.2806 41.4666 91.1484C41.5315 91.0163 41.6245 90.8998 41.7455 90.7989C41.8665 90.6981 42.0132 90.6186 42.1857 90.5603C42.3605 90.5021 42.5554 90.473 42.7705 90.473C43.0751 90.473 43.3361 90.5245 43.5535 90.6276C43.773 90.7284 43.941 90.8662 44.0575 91.0409C44.174 91.2134 44.2323 91.4083 44.2323 91.6256H43.4224C43.4224 91.5293 43.3977 91.4397 43.3485 91.3568C43.3014 91.2717 43.2297 91.2033 43.1334 91.1518C43.0371 91.098 42.9161 91.0711 42.7705 91.0711C42.6315 91.0711 42.5162 91.0935 42.4243 91.1384C42.3347 91.1809 42.2675 91.2369 42.2227 91.3064C42.1801 91.3758 42.1588 91.452 42.1588 91.5349C42.1588 91.5954 42.17 91.6503 42.1924 91.6996C42.2171 91.7466 42.2574 91.7903 42.3134 91.8306C42.3694 91.8687 42.4456 91.9046 42.5419 91.9382C42.6405 91.9718 42.7637 92.0043 42.9116 92.0356C43.1894 92.0939 43.428 92.1689 43.6274 92.2608C43.829 92.3504 43.9836 92.4669 44.0911 92.6103C44.1987 92.7514 44.2524 92.9306 44.2524 93.1479C44.2524 93.3093 44.2177 93.4571 44.1483 93.5915C44.0811 93.7237 43.9825 93.8391 43.8525 93.9377C43.7226 94.034 43.5669 94.1091 43.3854 94.1628C43.2062 94.2166 43.0046 94.2435 42.7805 94.2435C42.4512 94.2435 42.1723 94.1852 41.9438 94.0687C41.7152 93.95 41.5416 93.7988 41.4229 93.6151C41.3064 93.4291 41.2481 93.2364 41.2481 93.0371H42.0311C42.0401 93.1872 42.0815 93.307 42.1555 93.3966C42.2316 93.484 42.3257 93.5479 42.4378 93.5882C42.552 93.6263 42.6696 93.6453 42.7906 93.6453C42.9362 93.6453 43.0583 93.6263 43.1569 93.5882C43.2555 93.5479 43.3305 93.4941 43.3821 93.4269C43.4336 93.3574 43.4594 93.279 43.4594 93.1916ZM46.7717 90.5402V91.1316H44.7218V90.5402H46.7717ZM45.3132 89.6496H46.1231V93.1715C46.1231 93.2835 46.1388 93.3697 46.1702 93.4302C46.2038 93.4885 46.2497 93.5277 46.308 93.5479C46.3662 93.568 46.4345 93.5781 46.513 93.5781C46.569 93.5781 46.6227 93.5747 46.6743 93.568C46.7258 93.5613 46.7672 93.5546 46.7986 93.5479L46.802 94.1662C46.7347 94.1864 46.6563 94.2043 46.5667 94.22C46.4793 94.2356 46.3785 94.2435 46.2643 94.2435C46.0783 94.2435 45.9137 94.211 45.7703 94.146C45.6269 94.0788 45.5149 93.9702 45.4342 93.8201C45.3536 93.67 45.3132 93.4706 45.3132 93.2219V89.6496ZM51.5851 93.3193V90.5402H52.3984V94.1763H51.6322L51.5851 93.3193ZM51.6994 92.5632L51.9716 92.5565C51.9716 92.8007 51.9447 93.0259 51.8909 93.232C51.8371 93.4358 51.7543 93.6139 51.6422 93.7663C51.5302 93.9164 51.3868 94.034 51.2121 94.1191C51.0373 94.202 50.8279 94.2435 50.5837 94.2435C50.4067 94.2435 50.2443 94.2177 50.0964 94.1662C49.9485 94.1147 49.8208 94.0351 49.7133 93.9276C49.608 93.8201 49.5262 93.68 49.468 93.5075C49.4097 93.335 49.3806 93.1289 49.3806 92.8892V90.5402H50.1905V92.8959C50.1905 93.0281 50.2062 93.139 50.2375 93.2286C50.2689 93.316 50.3115 93.3865 50.3652 93.4403C50.419 93.4941 50.4817 93.5322 50.5534 93.5546C50.6251 93.577 50.7013 93.5882 50.7819 93.5882C51.0127 93.5882 51.1942 93.5434 51.3263 93.4538C51.4608 93.3619 51.556 93.2387 51.612 93.0841C51.6702 92.9295 51.6994 92.7559 51.6994 92.5632ZM54.185 91.2392V95.5742H53.3751V90.5402H54.1212L54.185 91.2392ZM56.5542 92.3246V92.3952C56.5542 92.6596 56.5228 92.9049 56.4601 93.1311C56.3996 93.3552 56.3089 93.5512 56.1879 93.7192C56.0692 93.885 55.9224 94.0138 55.7477 94.1057C55.5729 94.1976 55.3713 94.2435 55.1428 94.2435C54.9165 94.2435 54.7182 94.202 54.548 94.1191C54.3799 94.034 54.2377 93.9141 54.1212 93.7596C54.0047 93.605 53.9106 93.4235 53.8389 93.2152C53.7694 93.0046 53.7202 92.7738 53.691 92.5229V92.2507C53.7202 91.9841 53.7694 91.7421 53.8389 91.5248C53.9106 91.3075 54.0047 91.1204 54.1212 90.9636C54.2377 90.8068 54.3799 90.6858 54.548 90.6007C54.716 90.5155 54.912 90.473 55.1361 90.473C55.3646 90.473 55.5673 90.5178 55.7443 90.6074C55.9213 90.6948 56.0703 90.8202 56.1913 90.9838C56.3122 91.1451 56.403 91.34 56.4635 91.5685C56.524 91.7948 56.5542 92.0468 56.5542 92.3246ZM55.7443 92.3952V92.3246C55.7443 92.1566 55.7286 92.0009 55.6973 91.8575C55.6659 91.7119 55.6166 91.5842 55.5494 91.4744C55.4822 91.3646 55.3959 91.2795 55.2906 91.219C55.1876 91.1563 55.0632 91.1249 54.9176 91.1249C54.7742 91.1249 54.651 91.1496 54.548 91.1988C54.4449 91.2459 54.3587 91.312 54.2892 91.3971C54.2198 91.4822 54.166 91.5819 54.1279 91.6962C54.0898 91.8082 54.0629 91.9303 54.0473 92.0625V92.7144C54.0741 92.8757 54.1201 93.0236 54.185 93.158C54.25 93.2925 54.3419 93.4 54.4606 93.4806C54.5816 93.5591 54.7362 93.5983 54.9243 93.5983C55.07 93.5983 55.1943 93.5669 55.2974 93.5042C55.4004 93.4414 55.4844 93.3552 55.5494 93.2454C55.6166 93.1334 55.6659 93.0046 55.6973 92.8589C55.7286 92.7133 55.7443 92.5587 55.7443 92.3952ZM59.6044 93.4235V89.0145H60.4177V94.1763H59.6817L59.6044 93.4235ZM57.2386 92.3986V92.328C57.2386 92.0524 57.2711 91.8015 57.3361 91.5752C57.4011 91.3467 57.4951 91.1507 57.6184 90.9871C57.7416 90.8213 57.8917 90.6948 58.0687 90.6074C58.2457 90.5178 58.4451 90.473 58.6669 90.473C58.8864 90.473 59.0791 90.5155 59.2449 90.6007C59.4106 90.6858 59.5518 90.8079 59.6683 90.967C59.7848 91.1238 59.8778 91.312 59.9472 91.5315C60.0167 91.7489 60.0659 91.9908 60.0951 92.2574V92.4826C60.0659 92.7424 60.0167 92.9799 59.9472 93.195C59.8778 93.4101 59.7848 93.596 59.6683 93.7528C59.5518 93.9097 59.4095 94.0306 59.2415 94.1158C59.0757 94.2009 58.8819 94.2435 58.6601 94.2435C58.4406 94.2435 58.2423 94.1976 58.0653 94.1057C57.8906 94.0138 57.7416 93.885 57.6184 93.7192C57.4951 93.5535 57.4011 93.3585 57.3361 93.1345C57.2711 92.9082 57.2386 92.6629 57.2386 92.3986ZM58.0485 92.328V92.3986C58.0485 92.5643 58.0631 92.7189 58.0922 92.8623C58.1236 93.0057 58.1717 93.1323 58.2367 93.242C58.3017 93.3496 58.3857 93.4347 58.4887 93.4974C58.594 93.5579 58.7195 93.5882 58.8651 93.5882C59.0488 93.5882 59.2001 93.5479 59.3188 93.4672C59.4375 93.3865 59.5305 93.2779 59.5977 93.1412C59.6672 93.0023 59.7142 92.8477 59.7389 92.6775V92.0692C59.7254 91.937 59.6974 91.8138 59.6548 91.6996C59.6145 91.5853 59.5596 91.4856 59.4902 91.4005C59.4207 91.3131 59.3345 91.2459 59.2314 91.1988C59.1306 91.1496 59.0107 91.1249 58.8718 91.1249C58.724 91.1249 58.5985 91.1563 58.4955 91.219C58.3924 91.2817 58.3073 91.368 58.2401 91.4778C58.1751 91.5875 58.1269 91.7152 58.0956 91.8609C58.0642 92.0065 58.0485 92.1622 58.0485 92.328ZM63.4578 93.447V91.713C63.4578 91.5831 63.4343 91.471 63.3873 91.377C63.3402 91.2829 63.2685 91.21 63.1722 91.1585C63.0781 91.107 62.9594 91.0812 62.816 91.0812C62.6838 91.0812 62.5695 91.1036 62.4732 91.1484C62.3769 91.1932 62.3018 91.2537 62.248 91.3299C62.1943 91.4061 62.1674 91.4923 62.1674 91.5887H61.3609C61.3609 91.4453 61.3956 91.3064 61.465 91.172C61.5345 91.0375 61.6353 90.9177 61.7675 90.8124C61.8997 90.7071 62.0576 90.6242 62.2413 90.5637C62.425 90.5032 62.6311 90.473 62.8597 90.473C63.133 90.473 63.3749 90.5189 63.5855 90.6108C63.7984 90.7026 63.9653 90.8415 64.0863 91.0275C64.2095 91.2112 64.2711 91.4419 64.2711 91.7197V93.3361C64.2711 93.5019 64.2823 93.6509 64.3047 93.7831C64.3293 93.913 64.3641 94.0262 64.4089 94.1225V94.1763H63.5788C63.5407 94.0889 63.5105 93.978 63.4881 93.8436C63.4679 93.7069 63.4578 93.5747 63.4578 93.447ZM63.5755 91.965L63.5822 92.4658H63.0008C62.8507 92.4658 62.7185 92.4803 62.6043 92.5094C62.49 92.5363 62.3948 92.5767 62.3186 92.6304C62.2424 92.6842 62.1853 92.7492 62.1472 92.8253C62.1091 92.9015 62.0901 92.9878 62.0901 93.0841C62.0901 93.1804 62.1125 93.2689 62.1573 93.3496C62.2021 93.428 62.2671 93.4896 62.3522 93.5344C62.4396 93.5792 62.5449 93.6016 62.6681 93.6016C62.8339 93.6016 62.9784 93.568 63.1016 93.5008C63.2271 93.4314 63.3257 93.3473 63.3973 93.2488C63.469 93.1479 63.5071 93.0527 63.5116 92.9631L63.7737 93.3227C63.7468 93.4146 63.7009 93.5131 63.6359 93.6184C63.571 93.7237 63.4858 93.8245 63.3805 93.9209C63.2775 94.015 63.1531 94.0923 63.0075 94.1527C62.8641 94.2132 62.6984 94.2435 62.5102 94.2435C62.2727 94.2435 62.061 94.1964 61.875 94.1023C61.6891 94.006 61.5435 93.8772 61.4382 93.7159C61.3329 93.5523 61.2802 93.3675 61.2802 93.1614C61.2802 92.9687 61.3161 92.7985 61.3878 92.6506C61.4617 92.5005 61.5692 92.375 61.7104 92.2742C61.8537 92.1734 62.0285 92.0972 62.2346 92.0457C62.4407 91.9919 62.676 91.965 62.9403 91.965H63.5755ZM66.9281 90.5402V91.1316H64.8782V90.5402H66.9281ZM65.4697 89.6496H66.2796V93.1715C66.2796 93.2835 66.2952 93.3697 66.3266 93.4302C66.3602 93.4885 66.4061 93.5277 66.4644 93.5479C66.5226 93.568 66.591 93.5781 66.6694 93.5781C66.7254 93.5781 66.7792 93.5747 66.8307 93.568C66.8822 93.5613 66.9237 93.5546 66.955 93.5479L66.9584 94.1662C66.8912 94.1864 66.8128 94.2043 66.7231 94.22C66.6358 94.2356 66.535 94.2435 66.4207 94.2435C66.2347 94.2435 66.0701 94.211 65.9267 94.146C65.7833 94.0788 65.6713 93.9702 65.5906 93.8201C65.51 93.67 65.4697 93.4706 65.4697 93.2219V89.6496ZM69.2995 94.2435C69.0307 94.2435 68.7876 94.1998 68.5703 94.1124C68.3552 94.0228 68.1715 93.8985 68.0192 93.7394C67.8691 93.5803 67.7537 93.3933 67.6731 93.1782C67.5924 92.9631 67.5521 92.7312 67.5521 92.4826V92.3481C67.5521 92.0636 67.5935 91.806 67.6764 91.5752C67.7593 91.3445 67.8747 91.1473 68.0225 90.9838C68.1704 90.818 68.3452 90.6914 68.5468 90.604C68.7484 90.5167 68.9669 90.473 69.2021 90.473C69.462 90.473 69.6894 90.5167 69.8843 90.604C70.0792 90.6914 70.2405 90.8146 70.3682 90.9737C70.4981 91.1305 70.5945 91.3176 70.6572 91.5349C70.7222 91.7522 70.7547 91.9919 70.7547 92.254V92.6002H67.9453V92.0188H69.9548V91.955C69.9504 91.8093 69.9212 91.6727 69.8675 91.545C69.8159 91.4173 69.7364 91.3142 69.6289 91.2358C69.5213 91.1574 69.378 91.1182 69.1987 91.1182C69.0643 91.1182 68.9444 91.1473 68.8392 91.2056C68.7361 91.2616 68.6498 91.3433 68.5804 91.4509C68.5109 91.5584 68.4572 91.6884 68.4191 91.8407C68.3832 91.9908 68.3653 92.16 68.3653 92.3481V92.4826C68.3653 92.6416 68.3866 92.7895 68.4292 92.9262C68.474 93.0606 68.5389 93.1782 68.6241 93.279C68.7092 93.3798 68.8123 93.4594 68.9332 93.5176C69.0542 93.5736 69.192 93.6016 69.3466 93.6016C69.5415 93.6016 69.7151 93.5624 69.8675 93.484C70.0198 93.4056 70.152 93.2947 70.264 93.1513L70.6908 93.5647C70.6124 93.6789 70.5105 93.7887 70.385 93.894C70.2595 93.997 70.1061 94.0811 69.9246 94.146C69.7454 94.211 69.537 94.2435 69.2995 94.2435ZM75.5512 89.2665V94.1763H74.7414V90.2277L73.5416 90.6343V89.9655L75.4538 89.2665H75.5512ZM79.66 93.4235V89.0145H80.4733V94.1763H79.7373L79.66 93.4235ZM77.2942 92.3986V92.328C77.2942 92.0524 77.3267 91.8015 77.3917 91.5752C77.4567 91.3467 77.5508 91.1507 77.674 90.9871C77.7972 90.8213 77.9473 90.6948 78.1243 90.6074C78.3013 90.5178 78.5007 90.473 78.7225 90.473C78.942 90.473 79.1347 90.5155 79.3005 90.6007C79.4663 90.6858 79.6074 90.8079 79.7239 90.967C79.8404 91.1238 79.9334 91.312 80.0028 91.5315C80.0723 91.7489 80.1216 91.9908 80.1507 92.2574V92.4826C80.1216 92.7424 80.0723 92.9799 80.0028 93.195C79.9334 93.4101 79.8404 93.596 79.7239 93.7528C79.6074 93.9097 79.4651 94.0306 79.2971 94.1158C79.1313 94.2009 78.9375 94.2435 78.7157 94.2435C78.4962 94.2435 78.2979 94.1976 78.1209 94.1057C77.9462 94.0138 77.7972 93.885 77.674 93.7192C77.5508 93.5535 77.4567 93.3585 77.3917 93.1345C77.3267 92.9082 77.2942 92.6629 77.2942 92.3986ZM78.1041 92.328V92.3986C78.1041 92.5643 78.1187 92.7189 78.1478 92.8623C78.1792 93.0057 78.2273 93.1323 78.2923 93.242C78.3573 93.3496 78.4413 93.4347 78.5443 93.4974C78.6496 93.5579 78.7751 93.5882 78.9207 93.5882C79.1044 93.5882 79.2557 93.5479 79.3744 93.4672C79.4931 93.3865 79.5861 93.2779 79.6533 93.1412C79.7228 93.0023 79.7698 92.8477 79.7945 92.6775V92.0692C79.781 91.937 79.753 91.8138 79.7104 91.6996C79.6701 91.5853 79.6152 91.4856 79.5458 91.4005C79.4763 91.3131 79.3901 91.2459 79.287 91.1988C79.1862 91.1496 79.0663 91.1249 78.9274 91.1249C78.7796 91.1249 78.6541 91.1563 78.5511 91.219C78.448 91.2817 78.3629 91.368 78.2957 91.4778C78.2307 91.5875 78.1825 91.7152 78.1512 91.8609C78.1198 92.0065 78.1041 92.1622 78.1041 92.328ZM85.3707 93.447V91.713C85.3707 91.5831 85.3472 91.471 85.3001 91.377C85.2531 91.2829 85.1814 91.21 85.085 91.1585C84.991 91.107 84.8722 91.0812 84.7288 91.0812C84.5967 91.0812 84.4824 91.1036 84.3861 91.1484C84.2897 91.1932 84.2147 91.2537 84.1609 91.3299C84.1071 91.4061 84.0803 91.4923 84.0803 91.5887H83.2737C83.2737 91.4453 83.3085 91.3064 83.3779 91.172C83.4474 91.0375 83.5482 90.9177 83.6803 90.8124C83.8125 90.7071 83.9705 90.6242 84.1542 90.5637C84.3379 90.5032 84.544 90.473 84.7725 90.473C85.0458 90.473 85.2878 90.5189 85.4984 90.6108C85.7112 90.7026 85.8781 90.8415 85.9991 91.0275C86.1223 91.2112 86.1839 91.4419 86.1839 91.7197V93.3361C86.1839 93.5019 86.1951 93.6509 86.2175 93.7831C86.2422 93.913 86.2769 94.0262 86.3217 94.1225V94.1763H85.4917C85.4536 94.0889 85.4233 93.978 85.4009 93.8436C85.3808 93.7069 85.3707 93.5747 85.3707 93.447ZM85.4883 91.965L85.495 92.4658H84.9137C84.7636 92.4658 84.6314 92.4803 84.5171 92.5094C84.4029 92.5363 84.3076 92.5767 84.2315 92.6304C84.1553 92.6842 84.0982 92.7492 84.0601 92.8253C84.022 92.9015 84.003 92.9878 84.003 93.0841C84.003 93.1804 84.0254 93.2689 84.0702 93.3496C84.115 93.428 84.1799 93.4896 84.2651 93.5344C84.3525 93.5792 84.4578 93.6016 84.581 93.6016C84.7468 93.6016 84.8913 93.568 85.0145 93.5008C85.1399 93.4314 85.2385 93.3473 85.3102 93.2488C85.3819 93.1479 85.42 93.0527 85.4245 92.9631L85.6866 93.3227C85.6597 93.4146 85.6138 93.5131 85.5488 93.6184C85.4838 93.7237 85.3987 93.8245 85.2934 93.9209C85.1903 94.015 85.066 94.0923 84.9204 94.1527C84.777 94.2132 84.6112 94.2435 84.423 94.2435C84.1855 94.2435 83.9738 94.1964 83.7879 94.1023C83.6019 94.006 83.4563 93.8772 83.351 93.7159C83.2457 93.5523 83.1931 93.3675 83.1931 93.1614C83.1931 92.9687 83.2289 92.7985 83.3006 92.6506C83.3745 92.5005 83.4821 92.375 83.6232 92.2742C83.7666 92.1734 83.9413 92.0972 84.1475 92.0457C84.3536 91.9919 84.5888 91.965 84.8532 91.965H85.4883ZM89.503 90.5402H90.239V94.0755C90.239 94.4025 90.1695 94.6803 90.0306 94.9089C89.8917 95.1374 89.6979 95.311 89.4492 95.4297C89.2006 95.5507 88.9127 95.6112 88.5856 95.6112C88.4467 95.6112 88.2921 95.5911 88.1218 95.5507C87.9538 95.5104 87.7903 95.4454 87.6312 95.3558C87.4744 95.2684 87.3433 95.1531 87.238 95.0097L87.6178 94.5325C87.7477 94.6871 87.8911 94.8002 88.0479 94.8719C88.2047 94.9436 88.3694 94.9794 88.5419 94.9794C88.7279 94.9794 88.8858 94.9447 89.0157 94.8753C89.1479 94.808 89.2499 94.7084 89.3215 94.5762C89.3932 94.444 89.4291 94.2827 89.4291 94.0923V91.3635L89.503 90.5402ZM87.033 92.3986V92.328C87.033 92.0524 87.0666 91.8015 87.1338 91.5752C87.2011 91.3467 87.2974 91.1507 87.4229 90.9871C87.5483 90.8213 87.7007 90.6948 87.8799 90.6074C88.0591 90.5178 88.2619 90.473 88.4881 90.473C88.7234 90.473 88.9239 90.5155 89.0897 90.6007C89.2577 90.6858 89.3977 90.8079 89.5097 90.967C89.6218 91.1238 89.7091 91.312 89.7719 91.5315C89.8368 91.7489 89.885 91.9908 89.9164 92.2574V92.4826C89.8872 92.7424 89.8379 92.9799 89.7685 93.195C89.699 93.4101 89.6072 93.596 89.4929 93.7528C89.3787 93.9097 89.2375 94.0306 89.0695 94.1158C88.9037 94.2009 88.7077 94.2435 88.4814 94.2435C88.2596 94.2435 88.0591 94.1976 87.8799 94.1057C87.7029 94.0138 87.5506 93.885 87.4229 93.7192C87.2974 93.5535 87.2011 93.3585 87.1338 93.1345C87.0666 92.9082 87.033 92.6629 87.033 92.3986ZM87.8429 92.328V92.3986C87.8429 92.5643 87.8586 92.7189 87.89 92.8623C87.9236 93.0057 87.974 93.1323 88.0412 93.242C88.1106 93.3496 88.198 93.4347 88.3033 93.4974C88.4108 93.5579 88.5374 93.5882 88.683 93.5882C88.8735 93.5882 89.0292 93.5479 89.1502 93.4672C89.2734 93.3865 89.3675 93.2779 89.4324 93.1412C89.4997 93.0023 89.5467 92.8477 89.5736 92.6775V92.0692C89.5601 91.937 89.5321 91.8138 89.4896 91.6996C89.4492 91.5853 89.3944 91.4856 89.3249 91.4005C89.2555 91.3131 89.1681 91.2459 89.0628 91.1988C88.9575 91.1496 88.8332 91.1249 88.6898 91.1249C88.5441 91.1249 88.4176 91.1563 88.31 91.219C88.2025 91.2817 88.114 91.368 88.0445 91.4778C87.9773 91.5875 87.9269 91.7152 87.8933 91.8609C87.8597 92.0065 87.8429 92.1622 87.8429 92.328ZM91.0679 92.3986V92.3213C91.0679 92.0591 91.106 91.8161 91.1822 91.592C91.2583 91.3658 91.3681 91.1697 91.5115 91.0039C91.6571 90.8359 91.8341 90.706 92.0425 90.6141C92.253 90.52 92.4905 90.473 92.7549 90.473C93.0215 90.473 93.259 90.52 93.4673 90.6141C93.6779 90.706 93.856 90.8359 94.0016 91.0039C94.1473 91.1697 94.2582 91.3658 94.3343 91.592C94.4105 91.8161 94.4486 92.0591 94.4486 92.3213V92.3986C94.4486 92.6607 94.4105 92.9038 94.3343 93.1278C94.2582 93.3518 94.1473 93.5479 94.0016 93.7159C93.856 93.8817 93.679 94.0116 93.4707 94.1057C93.2623 94.1976 93.026 94.2435 92.7616 94.2435C92.495 94.2435 92.2564 94.1976 92.0458 94.1057C91.8375 94.0116 91.6605 93.8817 91.5148 93.7159C91.3692 93.5479 91.2583 93.3518 91.1822 93.1278C91.106 92.9038 91.0679 92.6607 91.0679 92.3986ZM91.8778 92.3213V92.3986C91.8778 92.5621 91.8946 92.7167 91.9282 92.8623C91.9618 93.0079 92.0144 93.1356 92.0861 93.2454C92.1578 93.3552 92.2497 93.4414 92.3617 93.5042C92.4737 93.5669 92.607 93.5983 92.7616 93.5983C92.9117 93.5983 93.0416 93.5669 93.1514 93.5042C93.2634 93.4414 93.3553 93.3552 93.427 93.2454C93.4987 93.1356 93.5513 93.0079 93.5849 92.8623C93.6208 92.7167 93.6387 92.5621 93.6387 92.3986V92.3213C93.6387 92.16 93.6208 92.0076 93.5849 91.8642C93.5513 91.7186 93.4976 91.5898 93.4236 91.4778C93.3519 91.3658 93.2601 91.2784 93.1481 91.2156C93.0383 91.1507 92.9072 91.1182 92.7549 91.1182C92.6025 91.1182 92.4704 91.1507 92.3583 91.2156C92.2486 91.2784 92.1578 91.3658 92.0861 91.4778C92.0144 91.5898 91.9618 91.7186 91.9282 91.8642C91.8946 92.0076 91.8778 92.16 91.8778 92.3213Z" fill="black" fill-opacity="0.38"/>
</g>
<defs>
<filter id="filter0_d_1142_203964" x="0.911765" y="0.205882" width="126.176" height="126.176" filterUnits="userSpaceOnUse" color-interpolation-filters="sRGB">
<feFlood flood-opacity="0" result="BackgroundImageFix"/>
<feColorMatrix in="SourceAlpha" type="matrix" values="0 0 0 0 0 0 0 0 0 0 0 0 0 0 0 0 0 0 127 0" result="hardAlpha"/>
<feOffset dy="2.29412"/>
<feGaussianBlur stdDeviation="2.29412"/>
<feComposite in2="hardAlpha" operator="out"/>
<feColorMatrix type="matrix" values="0 0 0 0 0 0 0 0 0 0 0 0 0 0 0 0 0 0 0.04 0"/>
<feBlend mode="normal" in2="BackgroundImageFix" result="effect1_dropShadow_1142_203964"/>
<feBlend mode="normal" in="SourceGraphic" in2="effect1_dropShadow_1142_203964" result="shape"/>
</filter>
</defs>
</svg>
