<svg width="399" height="108" viewBox="0 0 399 108" fill="none" xmlns="http://www.w3.org/2000/svg">
<g filter="url(#filter0_d_1247_22307)">
<rect x="8" y="4" width="383" height="92" rx="4" fill="white"/>
<path d="M59.5742 63.125V68H34.793V63.8105L46.8281 50.6836C48.1484 49.194 49.1895 47.9076 49.9512 46.8242C50.7129 45.7409 51.2461 44.7676 51.5508 43.9043C51.8724 43.0241 52.0332 42.1693 52.0332 41.3398C52.0332 40.1719 51.8132 39.1478 51.373 38.2676C50.9499 37.3704 50.3236 36.668 49.4941 36.1602C48.6647 35.6354 47.6576 35.373 46.4727 35.373C45.1016 35.373 43.9505 35.6693 43.0195 36.2617C42.0885 36.8542 41.3861 37.6751 40.9121 38.7246C40.4382 39.7572 40.2012 40.9421 40.2012 42.2793H34.082C34.082 40.1296 34.5729 38.166 35.5547 36.3887C36.5365 34.5944 37.9583 33.1725 39.8203 32.123C41.6823 31.0566 43.9251 30.5234 46.5488 30.5234C49.0202 30.5234 51.1191 30.9382 52.8457 31.7676C54.5723 32.597 55.8841 33.7734 56.7812 35.2969C57.6953 36.8203 58.1523 38.623 58.1523 40.7051C58.1523 41.8561 57.9661 42.9987 57.5938 44.1328C57.2214 45.2669 56.6882 46.401 55.9941 47.5352C55.3171 48.6523 54.513 49.778 53.582 50.9121C52.651 52.0293 51.627 53.1634 50.5098 54.3145L42.5117 63.125H59.5742ZM88.2189 63.125V68H63.4377V63.8105L75.4728 50.6836C76.7931 49.194 77.8341 47.9076 78.5959 46.8242C79.3576 45.7409 79.8908 44.7676 80.1955 43.9043C80.5171 43.0241 80.6779 42.1693 80.6779 41.3398C80.6779 40.1719 80.4578 39.1478 80.0177 38.2676C79.5946 37.3704 78.9683 36.668 78.1388 36.1602C77.3094 35.6354 76.3022 35.373 75.1173 35.373C73.7463 35.373 72.5952 35.6693 71.6642 36.2617C70.7332 36.8542 70.0308 37.6751 69.5568 38.7246C69.0828 39.7572 68.8459 40.9421 68.8459 42.2793H62.7267C62.7267 40.1296 63.2176 38.166 64.1994 36.3887C65.1811 34.5944 66.603 33.1725 68.465 32.123C70.327 31.0566 72.5698 30.5234 75.1935 30.5234C77.6649 30.5234 79.7638 30.9382 81.4904 31.7676C83.217 32.597 84.5288 33.7734 85.4259 35.2969C86.34 36.8203 86.797 38.623 86.797 40.7051C86.797 41.8561 86.6108 42.9987 86.2384 44.1328C85.866 45.2669 85.3328 46.401 84.6388 47.5352C83.9617 48.6523 83.1577 49.778 82.2267 50.9121C81.2957 52.0293 80.2716 53.1634 79.1545 54.3145L71.1564 63.125H88.2189ZM92.5648 37.3027C92.5648 36.0671 92.8695 34.9329 93.4788 33.9004C94.0882 32.8678 94.9007 32.0469 95.9163 31.4375C96.9489 30.8112 98.0661 30.498 99.2679 30.498C100.487 30.498 101.595 30.8112 102.594 31.4375C103.593 32.0469 104.388 32.8678 104.981 33.9004C105.59 34.9329 105.895 36.0671 105.895 37.3027C105.895 38.5384 105.59 39.6725 104.981 40.7051C104.388 41.7207 103.593 42.5247 102.594 43.1172C101.595 43.7096 100.487 44.0059 99.2679 44.0059C98.0661 44.0059 96.9489 43.7096 95.9163 43.1172C94.9007 42.5247 94.0882 41.7207 93.4788 40.7051C92.8695 39.6725 92.5648 38.5384 92.5648 37.3027ZM95.9925 37.3027C95.9925 38.2168 96.3141 38.987 96.9573 39.6133C97.6006 40.2227 98.3708 40.5273 99.2679 40.5273C100.165 40.5273 100.918 40.2227 101.528 39.6133C102.137 39.0039 102.442 38.2337 102.442 37.3027C102.442 36.3548 102.137 35.5677 101.528 34.9414C100.918 34.3151 100.165 34.002 99.2679 34.002C98.3708 34.002 97.6006 34.3151 96.9573 34.9414C96.3141 35.5677 95.9925 36.3548 95.9925 37.3027ZM133.879 55.9648H140.227C140.024 58.3854 139.347 60.5436 138.196 62.4395C137.045 64.3184 135.428 65.7995 133.346 66.8828C131.264 67.9661 128.734 68.5078 125.754 68.5078C123.469 68.5078 121.413 68.1016 119.584 67.2891C117.756 66.4596 116.191 65.2917 114.887 63.7852C113.584 62.2617 112.585 60.4251 111.891 58.2754C111.214 56.1257 110.875 53.722 110.875 51.0645V47.9922C110.875 45.3346 111.222 42.931 111.916 40.7812C112.627 38.6315 113.643 36.7949 114.963 35.2715C116.284 33.7311 117.866 32.5547 119.711 31.7422C121.573 30.9297 123.664 30.5234 125.983 30.5234C128.928 30.5234 131.416 31.0651 133.448 32.1484C135.479 33.2318 137.053 34.7298 138.17 36.6426C139.305 38.5553 139.999 40.7474 140.252 43.2188H133.905C133.735 41.6276 133.363 40.265 132.788 39.1309C132.229 37.9967 131.4 37.1335 130.299 36.541C129.199 35.9316 127.76 35.627 125.983 35.627C124.527 35.627 123.258 35.8978 122.174 36.4395C121.091 36.9811 120.185 37.7767 119.457 38.8262C118.73 39.8757 118.18 41.1706 117.807 42.7109C117.452 44.2344 117.274 45.9779 117.274 47.9414V51.0645C117.274 52.9264 117.435 54.6191 117.756 56.1426C118.095 57.6491 118.603 58.944 119.28 60.0273C119.974 61.1107 120.854 61.9486 121.92 62.541C122.987 63.1335 124.265 63.4297 125.754 63.4297C127.566 63.4297 129.03 63.1419 130.147 62.5664C131.281 61.9909 132.136 61.153 132.711 60.0527C133.304 58.9355 133.693 57.5729 133.879 55.9648Z" fill="black" fill-opacity="0.87"/>
<path d="M230.836 35.625V47H228.891V35.625H230.836ZM234.406 35.625V37.1875H225.352V35.625H234.406ZM238.945 47.1562C238.32 47.1562 237.755 47.0547 237.25 46.8516C236.75 46.6432 236.323 46.3542 235.969 45.9844C235.62 45.6146 235.352 45.1797 235.164 44.6797C234.977 44.1797 234.883 43.6406 234.883 43.0625V42.75C234.883 42.0885 234.979 41.4896 235.172 40.9531C235.365 40.4167 235.633 39.9583 235.977 39.5781C236.32 39.1927 236.727 38.8984 237.195 38.6953C237.664 38.4922 238.172 38.3906 238.719 38.3906C239.323 38.3906 239.852 38.4922 240.305 38.6953C240.758 38.8984 241.133 39.1849 241.43 39.5547C241.732 39.9193 241.956 40.3542 242.102 40.8594C242.253 41.3646 242.328 41.9219 242.328 42.5312V43.3359H235.797V41.9844H240.469V41.8359C240.458 41.4974 240.391 41.1797 240.266 40.8828C240.146 40.5859 239.961 40.3464 239.711 40.1641C239.461 39.9818 239.128 39.8906 238.711 39.8906C238.398 39.8906 238.12 39.9583 237.875 40.0938C237.635 40.224 237.435 40.4141 237.273 40.6641C237.112 40.9141 236.987 41.2161 236.898 41.5703C236.815 41.9193 236.773 42.3125 236.773 42.75V43.0625C236.773 43.4323 236.823 43.776 236.922 44.0938C237.026 44.4062 237.177 44.6797 237.375 44.9141C237.573 45.1484 237.812 45.3333 238.094 45.4688C238.375 45.599 238.695 45.6641 239.055 45.6641C239.508 45.6641 239.911 45.5729 240.266 45.3906C240.62 45.2083 240.927 44.9505 241.188 44.6172L242.18 45.5781C241.997 45.8438 241.76 46.099 241.469 46.3438C241.177 46.5833 240.82 46.7786 240.398 46.9297C239.982 47.0807 239.497 47.1562 238.945 47.1562ZM245.93 40.2656V47H244.047V38.5469H245.82L245.93 40.2656ZM245.625 42.4609L244.984 42.4531C244.984 41.8698 245.057 41.3307 245.203 40.8359C245.349 40.3411 245.562 39.9115 245.844 39.5469C246.125 39.1771 246.474 38.8932 246.891 38.6953C247.312 38.4922 247.799 38.3906 248.352 38.3906C248.737 38.3906 249.089 38.4479 249.406 38.5625C249.729 38.6719 250.008 38.8464 250.242 39.0859C250.482 39.3255 250.664 39.6328 250.789 40.0078C250.919 40.3828 250.984 40.8359 250.984 41.3672V47H249.102V41.5312C249.102 41.1198 249.039 40.7969 248.914 40.5625C248.794 40.3281 248.62 40.1615 248.391 40.0625C248.167 39.9583 247.898 39.9062 247.586 39.9062C247.232 39.9062 246.93 39.974 246.68 40.1094C246.435 40.2448 246.234 40.4297 246.078 40.6641C245.922 40.8984 245.807 41.1693 245.734 41.4766C245.661 41.7839 245.625 42.112 245.625 42.4609ZM250.867 41.9609L249.984 42.1562C249.984 41.6458 250.055 41.1641 250.195 40.7109C250.341 40.2526 250.552 39.8516 250.828 39.5078C251.109 39.1589 251.456 38.8854 251.867 38.6875C252.279 38.4896 252.75 38.3906 253.281 38.3906C253.714 38.3906 254.099 38.4505 254.438 38.5703C254.781 38.6849 255.073 38.8672 255.312 39.1172C255.552 39.3672 255.734 39.6927 255.859 40.0938C255.984 40.4896 256.047 40.9688 256.047 41.5312V47H254.156V41.5234C254.156 41.0964 254.094 40.7656 253.969 40.5312C253.849 40.2969 253.677 40.1354 253.453 40.0469C253.229 39.9531 252.961 39.9062 252.648 39.9062C252.357 39.9062 252.099 39.9609 251.875 40.0703C251.656 40.1745 251.471 40.3229 251.32 40.5156C251.169 40.7031 251.055 40.9193 250.977 41.1641C250.904 41.4089 250.867 41.6745 250.867 41.9609ZM260.125 40.1719V50.25H258.242V38.5469H259.977L260.125 40.1719ZM265.633 42.6953V42.8594C265.633 43.474 265.56 44.0443 265.414 44.5703C265.273 45.0911 265.062 45.5469 264.781 45.9375C264.505 46.3229 264.164 46.6224 263.758 46.8359C263.352 47.0495 262.883 47.1562 262.352 47.1562C261.826 47.1562 261.365 47.0599 260.969 46.8672C260.578 46.6693 260.247 46.3906 259.977 46.0312C259.706 45.6719 259.487 45.25 259.32 44.7656C259.159 44.276 259.044 43.7396 258.977 43.1562V42.5234C259.044 41.9036 259.159 41.3411 259.32 40.8359C259.487 40.3307 259.706 39.8958 259.977 39.5312C260.247 39.1667 260.578 38.8854 260.969 38.6875C261.359 38.4896 261.815 38.3906 262.336 38.3906C262.867 38.3906 263.339 38.4948 263.75 38.7031C264.161 38.9062 264.508 39.1979 264.789 39.5781C265.07 39.9531 265.281 40.4062 265.422 40.9375C265.562 41.4635 265.633 42.0495 265.633 42.6953ZM263.75 42.8594V42.6953C263.75 42.3047 263.714 41.9427 263.641 41.6094C263.568 41.2708 263.453 40.974 263.297 40.7188C263.141 40.4635 262.94 40.2656 262.695 40.125C262.456 39.9792 262.167 39.9062 261.828 39.9062C261.495 39.9062 261.208 39.9635 260.969 40.0781C260.729 40.1875 260.529 40.3411 260.367 40.5391C260.206 40.737 260.081 40.9688 259.992 41.2344C259.904 41.4948 259.841 41.7786 259.805 42.0859V43.6016C259.867 43.9766 259.974 44.3203 260.125 44.6328C260.276 44.9453 260.49 45.1953 260.766 45.3828C261.047 45.5651 261.406 45.6562 261.844 45.6562C262.182 45.6562 262.471 45.5833 262.711 45.4375C262.951 45.2917 263.146 45.0911 263.297 44.8359C263.453 44.5755 263.568 44.276 263.641 43.9375C263.714 43.599 263.75 43.2396 263.75 42.8594ZM271.211 47.1562C270.586 47.1562 270.021 47.0547 269.516 46.8516C269.016 46.6432 268.589 46.3542 268.234 45.9844C267.885 45.6146 267.617 45.1797 267.43 44.6797C267.242 44.1797 267.148 43.6406 267.148 43.0625V42.75C267.148 42.0885 267.245 41.4896 267.438 40.9531C267.63 40.4167 267.898 39.9583 268.242 39.5781C268.586 39.1927 268.992 38.8984 269.461 38.6953C269.93 38.4922 270.438 38.3906 270.984 38.3906C271.589 38.3906 272.117 38.4922 272.57 38.6953C273.023 38.8984 273.398 39.1849 273.695 39.5547C273.997 39.9193 274.221 40.3542 274.367 40.8594C274.518 41.3646 274.594 41.9219 274.594 42.5312V43.3359H268.062V41.9844H272.734V41.8359C272.724 41.4974 272.656 41.1797 272.531 40.8828C272.411 40.5859 272.227 40.3464 271.977 40.1641C271.727 39.9818 271.393 39.8906 270.977 39.8906C270.664 39.8906 270.385 39.9583 270.141 40.0938C269.901 40.224 269.701 40.4141 269.539 40.6641C269.378 40.9141 269.253 41.2161 269.164 41.5703C269.081 41.9193 269.039 42.3125 269.039 42.75V43.0625C269.039 43.4323 269.089 43.776 269.188 44.0938C269.292 44.4062 269.443 44.6797 269.641 44.9141C269.839 45.1484 270.078 45.3333 270.359 45.4688C270.641 45.599 270.961 45.6641 271.32 45.6641C271.773 45.6641 272.177 45.5729 272.531 45.3906C272.885 45.2083 273.193 44.9505 273.453 44.6172L274.445 45.5781C274.263 45.8438 274.026 46.099 273.734 46.3438C273.443 46.5833 273.086 46.7786 272.664 46.9297C272.247 47.0807 271.763 47.1562 271.211 47.1562ZM278.203 40.1562V47H276.32V38.5469H278.117L278.203 40.1562ZM280.789 38.4922L280.773 40.2422C280.659 40.2214 280.534 40.2057 280.398 40.1953C280.268 40.1849 280.138 40.1797 280.008 40.1797C279.685 40.1797 279.401 40.2266 279.156 40.3203C278.911 40.4089 278.706 40.5391 278.539 40.7109C278.378 40.8776 278.253 41.0807 278.164 41.3203C278.076 41.5599 278.023 41.8281 278.008 42.125L277.578 42.1562C277.578 41.625 277.63 41.1328 277.734 40.6797C277.839 40.2266 277.995 39.8281 278.203 39.4844C278.417 39.1406 278.682 38.8724 279 38.6797C279.323 38.487 279.695 38.3906 280.117 38.3906C280.232 38.3906 280.354 38.401 280.484 38.4219C280.62 38.4427 280.721 38.4661 280.789 38.4922ZM286.703 45.3047V41.2734C286.703 40.9714 286.648 40.7109 286.539 40.4922C286.43 40.2734 286.263 40.1042 286.039 39.9844C285.82 39.8646 285.544 39.8047 285.211 39.8047C284.904 39.8047 284.638 39.8568 284.414 39.9609C284.19 40.0651 284.016 40.2057 283.891 40.3828C283.766 40.5599 283.703 40.7604 283.703 40.9844H281.828C281.828 40.651 281.909 40.3281 282.07 40.0156C282.232 39.7031 282.466 39.4245 282.773 39.1797C283.081 38.9349 283.448 38.7422 283.875 38.6016C284.302 38.4609 284.781 38.3906 285.312 38.3906C285.948 38.3906 286.51 38.4974 287 38.7109C287.495 38.9245 287.883 39.2474 288.164 39.6797C288.451 40.1068 288.594 40.6432 288.594 41.2891V45.0469C288.594 45.4323 288.62 45.7786 288.672 46.0859C288.729 46.388 288.81 46.651 288.914 46.875V47H286.984C286.896 46.7969 286.826 46.5391 286.773 46.2266C286.727 45.9089 286.703 45.6016 286.703 45.3047ZM286.977 41.8594L286.992 43.0234H285.641C285.292 43.0234 284.984 43.0573 284.719 43.125C284.453 43.1875 284.232 43.2812 284.055 43.4062C283.878 43.5312 283.745 43.6823 283.656 43.8594C283.568 44.0365 283.523 44.237 283.523 44.4609C283.523 44.6849 283.576 44.8906 283.68 45.0781C283.784 45.2604 283.935 45.4036 284.133 45.5078C284.336 45.612 284.581 45.6641 284.867 45.6641C285.253 45.6641 285.589 45.5859 285.875 45.4297C286.167 45.2682 286.396 45.0729 286.562 44.8438C286.729 44.6094 286.818 44.388 286.828 44.1797L287.438 45.0156C287.375 45.2292 287.268 45.4583 287.117 45.7031C286.966 45.9479 286.768 46.1823 286.523 46.4062C286.284 46.625 285.995 46.8047 285.656 46.9453C285.323 47.0859 284.938 47.1562 284.5 47.1562C283.948 47.1562 283.456 47.0469 283.023 46.8281C282.591 46.6042 282.253 46.3047 282.008 45.9297C281.763 45.5495 281.641 45.1198 281.641 44.6406C281.641 44.1927 281.724 43.7969 281.891 43.4531C282.062 43.1042 282.312 42.8125 282.641 42.5781C282.974 42.3438 283.38 42.1667 283.859 42.0469C284.339 41.9219 284.885 41.8594 285.5 41.8594H286.977ZM294.688 38.5469V39.9219H289.922V38.5469H294.688ZM291.297 36.4766H293.18V44.6641C293.18 44.9245 293.216 45.125 293.289 45.2656C293.367 45.401 293.474 45.4922 293.609 45.5391C293.745 45.5859 293.904 45.6094 294.086 45.6094C294.216 45.6094 294.341 45.6016 294.461 45.5859C294.581 45.5703 294.677 45.5547 294.75 45.5391L294.758 46.9766C294.602 47.0234 294.419 47.0651 294.211 47.1016C294.008 47.138 293.773 47.1562 293.508 47.1562C293.076 47.1562 292.693 47.0807 292.359 46.9297C292.026 46.7734 291.766 46.5208 291.578 46.1719C291.391 45.8229 291.297 45.3594 291.297 44.7812V36.4766ZM301.477 45.0078V38.5469H303.367V47H301.586L301.477 45.0078ZM301.742 43.25L302.375 43.2344C302.375 43.8021 302.312 44.3255 302.188 44.8047C302.062 45.2786 301.87 45.6927 301.609 46.0469C301.349 46.3958 301.016 46.6693 300.609 46.8672C300.203 47.0599 299.716 47.1562 299.148 47.1562C298.737 47.1562 298.359 47.0964 298.016 46.9766C297.672 46.8568 297.375 46.6719 297.125 46.4219C296.88 46.1719 296.69 45.8464 296.555 45.4453C296.419 45.0443 296.352 44.5651 296.352 44.0078V38.5469H298.234V44.0234C298.234 44.3307 298.271 44.5885 298.344 44.7969C298.417 45 298.516 45.1641 298.641 45.2891C298.766 45.4141 298.911 45.5026 299.078 45.5547C299.245 45.6068 299.422 45.6328 299.609 45.6328C300.146 45.6328 300.568 45.5286 300.875 45.3203C301.188 45.1068 301.409 44.8203 301.539 44.4609C301.674 44.1016 301.742 43.6979 301.742 43.25ZM307.438 40.1562V47H305.555V38.5469H307.352L307.438 40.1562ZM310.023 38.4922L310.008 40.2422C309.893 40.2214 309.768 40.2057 309.633 40.1953C309.503 40.1849 309.372 40.1797 309.242 40.1797C308.919 40.1797 308.635 40.2266 308.391 40.3203C308.146 40.4089 307.94 40.5391 307.773 40.7109C307.612 40.8776 307.487 41.0807 307.398 41.3203C307.31 41.5599 307.258 41.8281 307.242 42.125L306.812 42.1562C306.812 41.625 306.865 41.1328 306.969 40.6797C307.073 40.2266 307.229 39.8281 307.438 39.4844C307.651 39.1406 307.917 38.8724 308.234 38.6797C308.557 38.487 308.93 38.3906 309.352 38.3906C309.466 38.3906 309.589 38.401 309.719 38.4219C309.854 38.4427 309.956 38.4661 310.023 38.4922ZM315.023 47.1562C314.398 47.1562 313.833 47.0547 313.328 46.8516C312.828 46.6432 312.401 46.3542 312.047 45.9844C311.698 45.6146 311.43 45.1797 311.242 44.6797C311.055 44.1797 310.961 43.6406 310.961 43.0625V42.75C310.961 42.0885 311.057 41.4896 311.25 40.9531C311.443 40.4167 311.711 39.9583 312.055 39.5781C312.398 39.1927 312.805 38.8984 313.273 38.6953C313.742 38.4922 314.25 38.3906 314.797 38.3906C315.401 38.3906 315.93 38.4922 316.383 38.6953C316.836 38.8984 317.211 39.1849 317.508 39.5547C317.81 39.9193 318.034 40.3542 318.18 40.8594C318.331 41.3646 318.406 41.9219 318.406 42.5312V43.3359H311.875V41.9844H316.547V41.8359C316.536 41.4974 316.469 41.1797 316.344 40.8828C316.224 40.5859 316.039 40.3464 315.789 40.1641C315.539 39.9818 315.206 39.8906 314.789 39.8906C314.477 39.8906 314.198 39.9583 313.953 40.0938C313.714 40.224 313.513 40.4141 313.352 40.6641C313.19 40.9141 313.065 41.2161 312.977 41.5703C312.893 41.9193 312.852 42.3125 312.852 42.75V43.0625C312.852 43.4323 312.901 43.776 313 44.0938C313.104 44.4062 313.255 44.6797 313.453 44.9141C313.651 45.1484 313.891 45.3333 314.172 45.4688C314.453 45.599 314.773 45.6641 315.133 45.6641C315.586 45.6641 315.99 45.5729 316.344 45.3906C316.698 45.2083 317.005 44.9505 317.266 44.6172L318.258 45.5781C318.076 45.8438 317.839 46.099 317.547 46.3438C317.255 46.5833 316.898 46.7786 316.477 46.9297C316.06 47.0807 315.576 47.1562 315.023 47.1562Z" fill="black" fill-opacity="0.87"/>
<path d="M217.211 64.834V66H212.928V64.834H217.211ZM213.338 57.4688V66H211.867V57.4688H213.338ZM222.031 64.7285V61.7051C222.031 61.4785 221.99 61.2832 221.908 61.1191C221.826 60.9551 221.701 60.8281 221.533 60.7383C221.369 60.6484 221.162 60.6035 220.912 60.6035C220.682 60.6035 220.482 60.6426 220.314 60.7207C220.146 60.7988 220.016 60.9043 219.922 61.0371C219.828 61.1699 219.781 61.3203 219.781 61.4883H218.375C218.375 61.2383 218.436 60.9961 218.557 60.7617C218.678 60.5273 218.854 60.3184 219.084 60.1348C219.314 59.9512 219.59 59.8066 219.91 59.7012C220.23 59.5957 220.59 59.543 220.988 59.543C221.465 59.543 221.887 59.623 222.254 59.7832C222.625 59.9434 222.916 60.1855 223.127 60.5098C223.342 60.8301 223.449 61.2324 223.449 61.7168V64.5352C223.449 64.8242 223.469 65.084 223.508 65.3145C223.551 65.541 223.611 65.7383 223.689 65.9062V66H222.242C222.176 65.8477 222.123 65.6543 222.084 65.4199C222.049 65.1816 222.031 64.9512 222.031 64.7285ZM222.236 62.1445L222.248 63.0176H221.234C220.973 63.0176 220.742 63.043 220.543 63.0938C220.344 63.1406 220.178 63.2109 220.045 63.3047C219.912 63.3984 219.812 63.5117 219.746 63.6445C219.68 63.7773 219.646 63.9277 219.646 64.0957C219.646 64.2637 219.686 64.418 219.764 64.5586C219.842 64.6953 219.955 64.8027 220.104 64.8809C220.256 64.959 220.439 64.998 220.654 64.998C220.943 64.998 221.195 64.9395 221.41 64.8223C221.629 64.7012 221.801 64.5547 221.926 64.3828C222.051 64.207 222.117 64.041 222.125 63.8848L222.582 64.5117C222.535 64.6719 222.455 64.8438 222.342 65.0273C222.229 65.2109 222.08 65.3867 221.896 65.5547C221.717 65.7188 221.5 65.8535 221.246 65.959C220.996 66.0645 220.707 66.1172 220.379 66.1172C219.965 66.1172 219.596 66.0352 219.271 65.8711C218.947 65.7031 218.693 65.4785 218.51 65.1973C218.326 64.9121 218.234 64.5898 218.234 64.2305C218.234 63.8945 218.297 63.5977 218.422 63.3398C218.551 63.0781 218.738 62.8594 218.984 62.6836C219.234 62.5078 219.539 62.375 219.898 62.2852C220.258 62.1914 220.668 62.1445 221.129 62.1445H222.236ZM228.732 64.2832C228.732 64.1426 228.697 64.0156 228.627 63.9023C228.557 63.7852 228.422 63.6797 228.223 63.5859C228.027 63.4922 227.738 63.4062 227.355 63.3281C227.02 63.2539 226.711 63.166 226.43 63.0645C226.152 62.959 225.914 62.832 225.715 62.6836C225.516 62.5352 225.361 62.3594 225.252 62.1562C225.143 61.9531 225.088 61.7188 225.088 61.4531C225.088 61.1953 225.145 60.9512 225.258 60.7207C225.371 60.4902 225.533 60.2871 225.744 60.1113C225.955 59.9355 226.211 59.7969 226.512 59.6953C226.816 59.5938 227.156 59.543 227.531 59.543C228.062 59.543 228.518 59.6328 228.896 59.8125C229.279 59.9883 229.572 60.2285 229.775 60.5332C229.979 60.834 230.08 61.1738 230.08 61.5527H228.668C228.668 61.3848 228.625 61.2285 228.539 61.084C228.457 60.9355 228.332 60.8164 228.164 60.7266C227.996 60.6328 227.785 60.5859 227.531 60.5859C227.289 60.5859 227.088 60.625 226.928 60.7031C226.771 60.7773 226.654 60.875 226.576 60.9961C226.502 61.1172 226.465 61.25 226.465 61.3945C226.465 61.5 226.484 61.5957 226.523 61.6816C226.566 61.7637 226.637 61.8398 226.734 61.9102C226.832 61.9766 226.965 62.0391 227.133 62.0977C227.305 62.1562 227.52 62.2129 227.777 62.2676C228.262 62.3691 228.678 62.5 229.025 62.6602C229.377 62.8164 229.646 63.0195 229.834 63.2695C230.021 63.5156 230.115 63.8281 230.115 64.207C230.115 64.4883 230.055 64.7461 229.934 64.9805C229.816 65.2109 229.645 65.4121 229.418 65.584C229.191 65.752 228.92 65.8828 228.604 65.9766C228.291 66.0703 227.939 66.1172 227.549 66.1172C226.975 66.1172 226.488 66.0156 226.09 65.8125C225.691 65.6055 225.389 65.3418 225.182 65.0215C224.979 64.6973 224.877 64.3613 224.877 64.0137H226.242C226.258 64.2754 226.33 64.4844 226.459 64.6406C226.592 64.793 226.756 64.9043 226.951 64.9746C227.15 65.041 227.355 65.0742 227.566 65.0742C227.82 65.0742 228.033 65.041 228.205 64.9746C228.377 64.9043 228.508 64.8105 228.598 64.6934C228.688 64.5723 228.732 64.4355 228.732 64.2832ZM234.508 59.6602V60.6914H230.934V59.6602H234.508ZM231.965 58.1074H233.377V64.248C233.377 64.4434 233.404 64.5938 233.459 64.6992C233.518 64.8008 233.598 64.8691 233.699 64.9043C233.801 64.9395 233.92 64.957 234.057 64.957C234.154 64.957 234.248 64.9512 234.338 64.9395C234.428 64.9277 234.5 64.916 234.555 64.9043L234.561 65.9824C234.443 66.0176 234.307 66.0488 234.15 66.0762C233.998 66.1035 233.822 66.1172 233.623 66.1172C233.299 66.1172 233.012 66.0605 232.762 65.9473C232.512 65.8301 232.316 65.6406 232.176 65.3789C232.035 65.1172 231.965 64.7695 231.965 64.3359V58.1074ZM242.9 64.5059V59.6602H244.318V66H242.982L242.9 64.5059ZM243.1 63.1875L243.574 63.1758C243.574 63.6016 243.527 63.9941 243.434 64.3535C243.34 64.709 243.195 65.0195 243 65.2852C242.805 65.5469 242.555 65.752 242.25 65.9004C241.945 66.0449 241.58 66.1172 241.154 66.1172C240.846 66.1172 240.562 66.0723 240.305 65.9824C240.047 65.8926 239.824 65.7539 239.637 65.5664C239.453 65.3789 239.311 65.1348 239.209 64.834C239.107 64.5332 239.057 64.1738 239.057 63.7559V59.6602H240.469V63.7676C240.469 63.998 240.496 64.1914 240.551 64.3477C240.605 64.5 240.68 64.623 240.773 64.7168C240.867 64.8105 240.977 64.877 241.102 64.916C241.227 64.9551 241.359 64.9746 241.5 64.9746C241.902 64.9746 242.219 64.8965 242.449 64.7402C242.684 64.5801 242.85 64.3652 242.947 64.0957C243.049 63.8262 243.1 63.5234 243.1 63.1875ZM247.434 60.8789V68.4375H246.021V59.6602H247.322L247.434 60.8789ZM251.564 62.7715V62.8945C251.564 63.3555 251.51 63.7832 251.4 64.1777C251.295 64.5684 251.137 64.9102 250.926 65.2031C250.719 65.4922 250.463 65.7168 250.158 65.877C249.854 66.0371 249.502 66.1172 249.104 66.1172C248.709 66.1172 248.363 66.0449 248.066 65.9004C247.773 65.752 247.525 65.543 247.322 65.2734C247.119 65.0039 246.955 64.6875 246.83 64.3242C246.709 63.957 246.623 63.5547 246.572 63.1172V62.6426C246.623 62.1777 246.709 61.7559 246.83 61.377C246.955 60.998 247.119 60.6719 247.322 60.3984C247.525 60.125 247.773 59.9141 248.066 59.7656C248.359 59.6172 248.701 59.543 249.092 59.543C249.49 59.543 249.844 59.6211 250.152 59.7773C250.461 59.9297 250.721 60.1484 250.932 60.4336C251.143 60.7148 251.301 61.0547 251.406 61.4531C251.512 61.8477 251.564 62.2871 251.564 62.7715ZM250.152 62.8945V62.7715C250.152 62.4785 250.125 62.207 250.07 61.957C250.016 61.7031 249.93 61.4805 249.812 61.2891C249.695 61.0977 249.545 60.9492 249.361 60.8438C249.182 60.7344 248.965 60.6797 248.711 60.6797C248.461 60.6797 248.246 60.7227 248.066 60.8086C247.887 60.8906 247.736 61.0059 247.615 61.1543C247.494 61.3027 247.4 61.4766 247.334 61.6758C247.268 61.8711 247.221 62.084 247.193 62.3145V63.4512C247.24 63.7324 247.32 63.9902 247.434 64.2246C247.547 64.459 247.707 64.6465 247.914 64.7871C248.125 64.9238 248.395 64.9922 248.723 64.9922C248.977 64.9922 249.193 64.9375 249.373 64.8281C249.553 64.7188 249.699 64.5684 249.812 64.377C249.93 64.1816 250.016 63.957 250.07 63.7031C250.125 63.4492 250.152 63.1797 250.152 62.8945ZM256.883 64.6875V57H258.301V66H257.018L256.883 64.6875ZM252.758 62.9004V62.7773C252.758 62.2969 252.814 61.8594 252.928 61.4648C253.041 61.0664 253.205 60.7246 253.42 60.4395C253.635 60.1504 253.896 59.9297 254.205 59.7773C254.514 59.6211 254.861 59.543 255.248 59.543C255.631 59.543 255.967 59.6172 256.256 59.7656C256.545 59.9141 256.791 60.127 256.994 60.4043C257.197 60.6777 257.359 61.0059 257.48 61.3887C257.602 61.7676 257.688 62.1895 257.738 62.6543V63.0469C257.688 63.5 257.602 63.9141 257.48 64.2891C257.359 64.6641 257.197 64.9883 256.994 65.2617C256.791 65.5352 256.543 65.7461 256.25 65.8945C255.961 66.043 255.623 66.1172 255.236 66.1172C254.854 66.1172 254.508 66.0371 254.199 65.877C253.895 65.7168 253.635 65.4922 253.42 65.2031C253.205 64.9141 253.041 64.5742 252.928 64.1836C252.814 63.7891 252.758 63.3613 252.758 62.9004ZM254.17 62.7773V62.9004C254.17 63.1895 254.195 63.459 254.246 63.709C254.301 63.959 254.385 64.1797 254.498 64.3711C254.611 64.5586 254.758 64.707 254.938 64.8164C255.121 64.9219 255.34 64.9746 255.594 64.9746C255.914 64.9746 256.178 64.9043 256.385 64.7637C256.592 64.623 256.754 64.4336 256.871 64.1953C256.992 63.9531 257.074 63.6836 257.117 63.3867V62.3262C257.094 62.0957 257.045 61.8809 256.971 61.6816C256.9 61.4824 256.805 61.3086 256.684 61.1602C256.562 61.0078 256.412 60.8906 256.232 60.8086C256.057 60.7227 255.848 60.6797 255.605 60.6797C255.348 60.6797 255.129 60.7344 254.949 60.8438C254.77 60.9531 254.621 61.1035 254.504 61.2949C254.391 61.4863 254.307 61.709 254.252 61.9629C254.197 62.2168 254.17 62.4883 254.17 62.7773ZM263.602 64.7285V61.7051C263.602 61.4785 263.561 61.2832 263.479 61.1191C263.396 60.9551 263.271 60.8281 263.104 60.7383C262.939 60.6484 262.732 60.6035 262.482 60.6035C262.252 60.6035 262.053 60.6426 261.885 60.7207C261.717 60.7988 261.586 60.9043 261.492 61.0371C261.398 61.1699 261.352 61.3203 261.352 61.4883H259.945C259.945 61.2383 260.006 60.9961 260.127 60.7617C260.248 60.5273 260.424 60.3184 260.654 60.1348C260.885 59.9512 261.16 59.8066 261.48 59.7012C261.801 59.5957 262.16 59.543 262.559 59.543C263.035 59.543 263.457 59.623 263.824 59.7832C264.195 59.9434 264.486 60.1855 264.697 60.5098C264.912 60.8301 265.02 61.2324 265.02 61.7168V64.5352C265.02 64.8242 265.039 65.084 265.078 65.3145C265.121 65.541 265.182 65.7383 265.26 65.9062V66H263.812C263.746 65.8477 263.693 65.6543 263.654 65.4199C263.619 65.1816 263.602 64.9512 263.602 64.7285ZM263.807 62.1445L263.818 63.0176H262.805C262.543 63.0176 262.312 63.043 262.113 63.0938C261.914 63.1406 261.748 63.2109 261.615 63.3047C261.482 63.3984 261.383 63.5117 261.316 63.6445C261.25 63.7773 261.217 63.9277 261.217 64.0957C261.217 64.2637 261.256 64.418 261.334 64.5586C261.412 64.6953 261.525 64.8027 261.674 64.8809C261.826 64.959 262.01 64.998 262.225 64.998C262.514 64.998 262.766 64.9395 262.98 64.8223C263.199 64.7012 263.371 64.5547 263.496 64.3828C263.621 64.207 263.688 64.041 263.695 63.8848L264.152 64.5117C264.105 64.6719 264.025 64.8438 263.912 65.0273C263.799 65.2109 263.65 65.3867 263.467 65.5547C263.287 65.7188 263.07 65.8535 262.816 65.959C262.566 66.0645 262.277 66.1172 261.949 66.1172C261.535 66.1172 261.166 66.0352 260.842 65.8711C260.518 65.7031 260.264 65.4785 260.08 65.1973C259.896 64.9121 259.805 64.5898 259.805 64.2305C259.805 63.8945 259.867 63.5977 259.992 63.3398C260.121 63.0781 260.309 62.8594 260.555 62.6836C260.805 62.5078 261.109 62.375 261.469 62.2852C261.828 62.1914 262.238 62.1445 262.699 62.1445H263.807ZM269.652 59.6602V60.6914H266.078V59.6602H269.652ZM267.109 58.1074H268.521V64.248C268.521 64.4434 268.549 64.5938 268.604 64.6992C268.662 64.8008 268.742 64.8691 268.844 64.9043C268.945 64.9395 269.064 64.957 269.201 64.957C269.299 64.957 269.393 64.9512 269.482 64.9395C269.572 64.9277 269.645 64.916 269.699 64.9043L269.705 65.9824C269.588 66.0176 269.451 66.0488 269.295 66.0762C269.143 66.1035 268.967 66.1172 268.768 66.1172C268.443 66.1172 268.156 66.0605 267.906 65.9473C267.656 65.8301 267.461 65.6406 267.32 65.3789C267.18 65.1172 267.109 64.7695 267.109 64.3359V58.1074ZM273.787 66.1172C273.318 66.1172 272.895 66.041 272.516 65.8887C272.141 65.7324 271.82 65.5156 271.555 65.2383C271.293 64.9609 271.092 64.6348 270.951 64.2598C270.811 63.8848 270.74 63.4805 270.74 63.0469V62.8125C270.74 62.3164 270.812 61.8672 270.957 61.4648C271.102 61.0625 271.303 60.7188 271.561 60.4336C271.818 60.1445 272.123 59.9238 272.475 59.7715C272.826 59.6191 273.207 59.543 273.617 59.543C274.07 59.543 274.467 59.6191 274.807 59.7715C275.146 59.9238 275.428 60.1387 275.65 60.416C275.877 60.6895 276.045 61.0156 276.154 61.3945C276.268 61.7734 276.324 62.1914 276.324 62.6484V63.252H271.426V62.2383H274.93V62.127C274.922 61.873 274.871 61.6348 274.777 61.4121C274.688 61.1895 274.549 61.0098 274.361 60.873C274.174 60.7363 273.924 60.668 273.611 60.668C273.377 60.668 273.168 60.7188 272.984 60.8203C272.805 60.918 272.654 61.0605 272.533 61.248C272.412 61.4355 272.318 61.6621 272.252 61.9277C272.189 62.1895 272.158 62.4844 272.158 62.8125V63.0469C272.158 63.3242 272.195 63.582 272.27 63.8203C272.348 64.0547 272.461 64.2598 272.609 64.4355C272.758 64.6113 272.938 64.75 273.148 64.8516C273.359 64.9492 273.6 64.998 273.869 64.998C274.209 64.998 274.512 64.9297 274.777 64.793C275.043 64.6562 275.273 64.4629 275.469 64.2129L276.213 64.9336C276.076 65.1328 275.898 65.3242 275.68 65.5078C275.461 65.6875 275.193 65.834 274.877 65.9473C274.564 66.0605 274.201 66.1172 273.787 66.1172ZM284.688 57.4395V66H283.275V59.1152L281.184 59.8242V58.6582L284.518 57.4395H284.688ZM291.852 64.6875V57H293.27V66H291.986L291.852 64.6875ZM287.727 62.9004V62.7773C287.727 62.2969 287.783 61.8594 287.896 61.4648C288.01 61.0664 288.174 60.7246 288.389 60.4395C288.604 60.1504 288.865 59.9297 289.174 59.7773C289.482 59.6211 289.83 59.543 290.217 59.543C290.6 59.543 290.936 59.6172 291.225 59.7656C291.514 59.9141 291.76 60.127 291.963 60.4043C292.166 60.6777 292.328 61.0059 292.449 61.3887C292.57 61.7676 292.656 62.1895 292.707 62.6543V63.0469C292.656 63.5 292.57 63.9141 292.449 64.2891C292.328 64.6641 292.166 64.9883 291.963 65.2617C291.76 65.5352 291.512 65.7461 291.219 65.8945C290.93 66.043 290.592 66.1172 290.205 66.1172C289.822 66.1172 289.477 66.0371 289.168 65.877C288.863 65.7168 288.604 65.4922 288.389 65.2031C288.174 64.9141 288.01 64.5742 287.896 64.1836C287.783 63.7891 287.727 63.3613 287.727 62.9004ZM289.139 62.7773V62.9004C289.139 63.1895 289.164 63.459 289.215 63.709C289.27 63.959 289.354 64.1797 289.467 64.3711C289.58 64.5586 289.727 64.707 289.906 64.8164C290.09 64.9219 290.309 64.9746 290.562 64.9746C290.883 64.9746 291.146 64.9043 291.354 64.7637C291.561 64.623 291.723 64.4336 291.84 64.1953C291.961 63.9531 292.043 63.6836 292.086 63.3867V62.3262C292.062 62.0957 292.014 61.8809 291.939 61.6816C291.869 61.4824 291.773 61.3086 291.652 61.1602C291.531 61.0078 291.381 60.8906 291.201 60.8086C291.025 60.7227 290.816 60.6797 290.574 60.6797C290.316 60.6797 290.098 60.7344 289.918 60.8438C289.738 60.9531 289.59 61.1035 289.473 61.2949C289.359 61.4863 289.275 61.709 289.221 61.9629C289.166 62.2168 289.139 62.4883 289.139 62.7773ZM301.809 64.7285V61.7051C301.809 61.4785 301.768 61.2832 301.686 61.1191C301.604 60.9551 301.479 60.8281 301.311 60.7383C301.146 60.6484 300.939 60.6035 300.689 60.6035C300.459 60.6035 300.26 60.6426 300.092 60.7207C299.924 60.7988 299.793 60.9043 299.699 61.0371C299.605 61.1699 299.559 61.3203 299.559 61.4883H298.152C298.152 61.2383 298.213 60.9961 298.334 60.7617C298.455 60.5273 298.631 60.3184 298.861 60.1348C299.092 59.9512 299.367 59.8066 299.688 59.7012C300.008 59.5957 300.367 59.543 300.766 59.543C301.242 59.543 301.664 59.623 302.031 59.7832C302.402 59.9434 302.693 60.1855 302.904 60.5098C303.119 60.8301 303.227 61.2324 303.227 61.7168V64.5352C303.227 64.8242 303.246 65.084 303.285 65.3145C303.328 65.541 303.389 65.7383 303.467 65.9062V66H302.02C301.953 65.8477 301.9 65.6543 301.861 65.4199C301.826 65.1816 301.809 64.9512 301.809 64.7285ZM302.014 62.1445L302.025 63.0176H301.012C300.75 63.0176 300.52 63.043 300.32 63.0938C300.121 63.1406 299.955 63.2109 299.822 63.3047C299.689 63.3984 299.59 63.5117 299.523 63.6445C299.457 63.7773 299.424 63.9277 299.424 64.0957C299.424 64.2637 299.463 64.418 299.541 64.5586C299.619 64.6953 299.732 64.8027 299.881 64.8809C300.033 64.959 300.217 64.998 300.432 64.998C300.721 64.998 300.973 64.9395 301.188 64.8223C301.406 64.7012 301.578 64.5547 301.703 64.3828C301.828 64.207 301.895 64.041 301.902 63.8848L302.359 64.5117C302.312 64.6719 302.232 64.8438 302.119 65.0273C302.006 65.2109 301.857 65.3867 301.674 65.5547C301.494 65.7188 301.277 65.8535 301.023 65.959C300.773 66.0645 300.484 66.1172 300.156 66.1172C299.742 66.1172 299.373 66.0352 299.049 65.8711C298.725 65.7031 298.471 65.4785 298.287 65.1973C298.104 64.9121 298.012 64.5898 298.012 64.2305C298.012 63.8945 298.074 63.5977 298.199 63.3398C298.328 63.0781 298.516 62.8594 298.762 62.6836C299.012 62.5078 299.316 62.375 299.676 62.2852C300.035 62.1914 300.445 62.1445 300.906 62.1445H302.014ZM309.014 59.6602H310.297V65.8242C310.297 66.3945 310.176 66.8789 309.934 67.2773C309.691 67.6758 309.354 67.9785 308.92 68.1855C308.486 68.3965 307.984 68.502 307.414 68.502C307.172 68.502 306.902 68.4668 306.605 68.3965C306.312 68.3262 306.027 68.2129 305.75 68.0566C305.477 67.9043 305.248 67.7031 305.064 67.4531L305.727 66.6211C305.953 66.8906 306.203 67.0879 306.477 67.2129C306.75 67.3379 307.037 67.4004 307.338 67.4004C307.662 67.4004 307.938 67.3398 308.164 67.2188C308.395 67.1016 308.572 66.9277 308.697 66.6973C308.822 66.4668 308.885 66.1855 308.885 65.8535V61.0957L309.014 59.6602ZM304.707 62.9004V62.7773C304.707 62.2969 304.766 61.8594 304.883 61.4648C305 61.0664 305.168 60.7246 305.387 60.4395C305.605 60.1504 305.871 59.9297 306.184 59.7773C306.496 59.6211 306.85 59.543 307.244 59.543C307.654 59.543 308.004 59.6172 308.293 59.7656C308.586 59.9141 308.83 60.127 309.025 60.4043C309.221 60.6777 309.373 61.0059 309.482 61.3887C309.596 61.7676 309.68 62.1895 309.734 62.6543V63.0469C309.684 63.5 309.598 63.9141 309.477 64.2891C309.355 64.6641 309.195 64.9883 308.996 65.2617C308.797 65.5352 308.551 65.7461 308.258 65.8945C307.969 66.043 307.627 66.1172 307.232 66.1172C306.846 66.1172 306.496 66.0371 306.184 65.877C305.875 65.7168 305.609 65.4922 305.387 65.2031C305.168 64.9141 305 64.5742 304.883 64.1836C304.766 63.7891 304.707 63.3613 304.707 62.9004ZM306.119 62.7773V62.9004C306.119 63.1895 306.146 63.459 306.201 63.709C306.26 63.959 306.348 64.1797 306.465 64.3711C306.586 64.5586 306.738 64.707 306.922 64.8164C307.109 64.9219 307.33 64.9746 307.584 64.9746C307.916 64.9746 308.188 64.9043 308.398 64.7637C308.613 64.623 308.777 64.4336 308.891 64.1953C309.008 63.9531 309.09 63.6836 309.137 63.3867V62.3262C309.113 62.0957 309.064 61.8809 308.99 61.6816C308.92 61.4824 308.824 61.3086 308.703 61.1602C308.582 61.0078 308.43 60.8906 308.246 60.8086C308.062 60.7227 307.846 60.6797 307.596 60.6797C307.342 60.6797 307.121 60.7344 306.934 60.8438C306.746 60.9531 306.592 61.1035 306.471 61.2949C306.354 61.4863 306.266 61.709 306.207 61.9629C306.148 62.2168 306.119 62.4883 306.119 62.7773ZM311.742 62.9004V62.7656C311.742 62.3086 311.809 61.8848 311.941 61.4941C312.074 61.0996 312.266 60.7578 312.516 60.4688C312.77 60.1758 313.078 59.9492 313.441 59.7891C313.809 59.625 314.223 59.543 314.684 59.543C315.148 59.543 315.562 59.625 315.926 59.7891C316.293 59.9492 316.604 60.1758 316.857 60.4688C317.111 60.7578 317.305 61.0996 317.438 61.4941C317.57 61.8848 317.637 62.3086 317.637 62.7656V62.9004C317.637 63.3574 317.57 63.7812 317.438 64.1719C317.305 64.5625 317.111 64.9043 316.857 65.1973C316.604 65.4863 316.295 65.7129 315.932 65.877C315.568 66.0371 315.156 66.1172 314.695 66.1172C314.23 66.1172 313.814 66.0371 313.447 65.877C313.084 65.7129 312.775 65.4863 312.521 65.1973C312.268 64.9043 312.074 64.5625 311.941 64.1719C311.809 63.7812 311.742 63.3574 311.742 62.9004ZM313.154 62.7656V62.9004C313.154 63.1855 313.184 63.4551 313.242 63.709C313.301 63.9629 313.393 64.1855 313.518 64.377C313.643 64.5684 313.803 64.7188 313.998 64.8281C314.193 64.9375 314.426 64.9922 314.695 64.9922C314.957 64.9922 315.184 64.9375 315.375 64.8281C315.57 64.7188 315.73 64.5684 315.855 64.377C315.98 64.1855 316.072 63.9629 316.131 63.709C316.193 63.4551 316.225 63.1855 316.225 62.9004V62.7656C316.225 62.4844 316.193 62.2188 316.131 61.9688C316.072 61.7148 315.979 61.4902 315.85 61.2949C315.725 61.0996 315.564 60.9473 315.369 60.8379C315.178 60.7246 314.949 60.668 314.684 60.668C314.418 60.668 314.188 60.7246 313.992 60.8379C313.801 60.9473 313.643 61.0996 313.518 61.2949C313.393 61.4902 313.301 61.7148 313.242 61.9688C313.184 62.2188 313.154 62.4844 313.154 62.7656Z" fill="black" fill-opacity="0.38"/>
<path d="M352 51.6667V38.3334C352 35.5667 349.767 33.3334 347 33.3334C344.233 33.3334 342 35.5667 342 38.3334V51.6667C339.983 53.1834 338.667 55.6167 338.667 58.3334C338.667 62.9334 342.4 66.6667 347 66.6667C351.6 66.6667 355.333 62.9334 355.333 58.3334C355.333 55.6167 354.017 53.1834 352 51.6667ZM345.333 38.3334C345.333 37.4167 346.083 36.6667 347 36.6667C347.917 36.6667 348.667 37.4167 348.667 38.3334H347V40H348.667V43.3334H347V45H348.667V48.3334H345.333V38.3334Z" fill="#5469FF"/>
</g>
<defs>
<filter id="filter0_d_1247_22307" x="0" y="0" width="399" height="108" filterUnits="userSpaceOnUse" color-interpolation-filters="sRGB">
<feFlood flood-opacity="0" result="BackgroundImageFix"/>
<feColorMatrix in="SourceAlpha" type="matrix" values="0 0 0 0 0 0 0 0 0 0 0 0 0 0 0 0 0 0 127 0" result="hardAlpha"/>
<feOffset dy="4"/>
<feGaussianBlur stdDeviation="4"/>
<feComposite in2="hardAlpha" operator="out"/>
<feColorMatrix type="matrix" values="0 0 0 0 0 0 0 0 0 0 0 0 0 0 0 0 0 0 0.04 0"/>
<feBlend mode="normal" in2="BackgroundImageFix" result="effect1_dropShadow_1247_22307"/>
<feBlend mode="normal" in="SourceGraphic" in2="effect1_dropShadow_1247_22307" result="shape"/>
</filter>
</defs>
</svg>
