<svg width="399" height="108" viewBox="0 0 399 108" fill="none" xmlns="http://www.w3.org/2000/svg">
<g filter="url(#filter0_d_1246_44447)">
<rect x="8" y="4" width="383" height="92" rx="4" fill="white"/>
<path d="M57.0001 51.6667V38.3334C57.0001 35.5667 54.7667 33.3334 52.0001 33.3334C49.2334 33.3334 47.0001 35.5667 47.0001 38.3334V51.6667C44.9834 53.1834 43.6667 55.6167 43.6667 58.3334C43.6667 62.9334 47.4001 66.6667 52.0001 66.6667C56.6001 66.6667 60.3334 62.9334 60.3334 58.3334C60.3334 55.6167 59.0167 53.1834 57.0001 51.6667ZM50.3334 38.3334C50.3334 37.4167 51.0834 36.6667 52.0001 36.6667C52.9167 36.6667 53.6667 37.4167 53.6667 38.3334H52.0001V40H53.6667V43.3334H52.0001V45H53.6667V48.3334H50.3334V38.3334Z" fill="#5469FF"/>
<path d="M85.8359 35.625V47H83.8906V35.625H85.8359ZM89.4062 35.625V37.1875H80.3516V35.625H89.4062ZM93.9453 47.1562C93.3203 47.1562 92.7552 47.0547 92.25 46.8516C91.75 46.6432 91.3229 46.3542 90.9688 45.9844C90.6198 45.6146 90.3516 45.1797 90.1641 44.6797C89.9766 44.1797 89.8828 43.6406 89.8828 43.0625V42.75C89.8828 42.0885 89.9792 41.4896 90.1719 40.9531C90.3646 40.4167 90.6328 39.9583 90.9766 39.5781C91.3203 39.1927 91.7266 38.8984 92.1953 38.6953C92.6641 38.4922 93.1719 38.3906 93.7188 38.3906C94.3229 38.3906 94.8516 38.4922 95.3047 38.6953C95.7578 38.8984 96.1328 39.1849 96.4297 39.5547C96.7318 39.9193 96.9557 40.3542 97.1016 40.8594C97.2526 41.3646 97.3281 41.9219 97.3281 42.5312V43.3359H90.7969V41.9844H95.4688V41.8359C95.4583 41.4974 95.3906 41.1797 95.2656 40.8828C95.1458 40.5859 94.9609 40.3464 94.7109 40.1641C94.4609 39.9818 94.1276 39.8906 93.7109 39.8906C93.3984 39.8906 93.1198 39.9583 92.875 40.0938C92.6354 40.224 92.4349 40.4141 92.2734 40.6641C92.112 40.9141 91.987 41.2161 91.8984 41.5703C91.8151 41.9193 91.7734 42.3125 91.7734 42.75V43.0625C91.7734 43.4323 91.8229 43.776 91.9219 44.0938C92.026 44.4062 92.1771 44.6797 92.375 44.9141C92.5729 45.1484 92.8125 45.3333 93.0938 45.4688C93.375 45.599 93.6953 45.6641 94.0547 45.6641C94.5078 45.6641 94.9115 45.5729 95.2656 45.3906C95.6198 45.2083 95.9271 44.9505 96.1875 44.6172L97.1797 45.5781C96.9974 45.8438 96.7604 46.099 96.4688 46.3438C96.1771 46.5833 95.8203 46.7786 95.3984 46.9297C94.9818 47.0807 94.4974 47.1562 93.9453 47.1562ZM100.93 40.2656V47H99.0469V38.5469H100.82L100.93 40.2656ZM100.625 42.4609L99.9844 42.4531C99.9844 41.8698 100.057 41.3307 100.203 40.8359C100.349 40.3411 100.562 39.9115 100.844 39.5469C101.125 39.1771 101.474 38.8932 101.891 38.6953C102.312 38.4922 102.799 38.3906 103.352 38.3906C103.737 38.3906 104.089 38.4479 104.406 38.5625C104.729 38.6719 105.008 38.8464 105.242 39.0859C105.482 39.3255 105.664 39.6328 105.789 40.0078C105.919 40.3828 105.984 40.8359 105.984 41.3672V47H104.102V41.5312C104.102 41.1198 104.039 40.7969 103.914 40.5625C103.794 40.3281 103.62 40.1615 103.391 40.0625C103.167 39.9583 102.898 39.9062 102.586 39.9062C102.232 39.9062 101.93 39.974 101.68 40.1094C101.435 40.2448 101.234 40.4297 101.078 40.6641C100.922 40.8984 100.807 41.1693 100.734 41.4766C100.661 41.7839 100.625 42.112 100.625 42.4609ZM105.867 41.9609L104.984 42.1562C104.984 41.6458 105.055 41.1641 105.195 40.7109C105.341 40.2526 105.552 39.8516 105.828 39.5078C106.109 39.1589 106.456 38.8854 106.867 38.6875C107.279 38.4896 107.75 38.3906 108.281 38.3906C108.714 38.3906 109.099 38.4505 109.438 38.5703C109.781 38.6849 110.073 38.8672 110.312 39.1172C110.552 39.3672 110.734 39.6927 110.859 40.0938C110.984 40.4896 111.047 40.9688 111.047 41.5312V47H109.156V41.5234C109.156 41.0964 109.094 40.7656 108.969 40.5312C108.849 40.2969 108.677 40.1354 108.453 40.0469C108.229 39.9531 107.961 39.9062 107.648 39.9062C107.357 39.9062 107.099 39.9609 106.875 40.0703C106.656 40.1745 106.471 40.3229 106.32 40.5156C106.169 40.7031 106.055 40.9193 105.977 41.1641C105.904 41.4089 105.867 41.6745 105.867 41.9609ZM115.125 40.1719V50.25H113.242V38.5469H114.977L115.125 40.1719ZM120.633 42.6953V42.8594C120.633 43.474 120.56 44.0443 120.414 44.5703C120.273 45.0911 120.062 45.5469 119.781 45.9375C119.505 46.3229 119.164 46.6224 118.758 46.8359C118.352 47.0495 117.883 47.1562 117.352 47.1562C116.826 47.1562 116.365 47.0599 115.969 46.8672C115.578 46.6693 115.247 46.3906 114.977 46.0312C114.706 45.6719 114.487 45.25 114.32 44.7656C114.159 44.276 114.044 43.7396 113.977 43.1562V42.5234C114.044 41.9036 114.159 41.3411 114.32 40.8359C114.487 40.3307 114.706 39.8958 114.977 39.5312C115.247 39.1667 115.578 38.8854 115.969 38.6875C116.359 38.4896 116.815 38.3906 117.336 38.3906C117.867 38.3906 118.339 38.4948 118.75 38.7031C119.161 38.9062 119.508 39.1979 119.789 39.5781C120.07 39.9531 120.281 40.4062 120.422 40.9375C120.562 41.4635 120.633 42.0495 120.633 42.6953ZM118.75 42.8594V42.6953C118.75 42.3047 118.714 41.9427 118.641 41.6094C118.568 41.2708 118.453 40.974 118.297 40.7188C118.141 40.4635 117.94 40.2656 117.695 40.125C117.456 39.9792 117.167 39.9062 116.828 39.9062C116.495 39.9062 116.208 39.9635 115.969 40.0781C115.729 40.1875 115.529 40.3411 115.367 40.5391C115.206 40.737 115.081 40.9688 114.992 41.2344C114.904 41.4948 114.841 41.7786 114.805 42.0859V43.6016C114.867 43.9766 114.974 44.3203 115.125 44.6328C115.276 44.9453 115.49 45.1953 115.766 45.3828C116.047 45.5651 116.406 45.6562 116.844 45.6562C117.182 45.6562 117.471 45.5833 117.711 45.4375C117.951 45.2917 118.146 45.0911 118.297 44.8359C118.453 44.5755 118.568 44.276 118.641 43.9375C118.714 43.599 118.75 43.2396 118.75 42.8594ZM126.211 47.1562C125.586 47.1562 125.021 47.0547 124.516 46.8516C124.016 46.6432 123.589 46.3542 123.234 45.9844C122.885 45.6146 122.617 45.1797 122.43 44.6797C122.242 44.1797 122.148 43.6406 122.148 43.0625V42.75C122.148 42.0885 122.245 41.4896 122.438 40.9531C122.63 40.4167 122.898 39.9583 123.242 39.5781C123.586 39.1927 123.992 38.8984 124.461 38.6953C124.93 38.4922 125.438 38.3906 125.984 38.3906C126.589 38.3906 127.117 38.4922 127.57 38.6953C128.023 38.8984 128.398 39.1849 128.695 39.5547C128.997 39.9193 129.221 40.3542 129.367 40.8594C129.518 41.3646 129.594 41.9219 129.594 42.5312V43.3359H123.062V41.9844H127.734V41.8359C127.724 41.4974 127.656 41.1797 127.531 40.8828C127.411 40.5859 127.227 40.3464 126.977 40.1641C126.727 39.9818 126.393 39.8906 125.977 39.8906C125.664 39.8906 125.385 39.9583 125.141 40.0938C124.901 40.224 124.701 40.4141 124.539 40.6641C124.378 40.9141 124.253 41.2161 124.164 41.5703C124.081 41.9193 124.039 42.3125 124.039 42.75V43.0625C124.039 43.4323 124.089 43.776 124.188 44.0938C124.292 44.4062 124.443 44.6797 124.641 44.9141C124.839 45.1484 125.078 45.3333 125.359 45.4688C125.641 45.599 125.961 45.6641 126.32 45.6641C126.773 45.6641 127.177 45.5729 127.531 45.3906C127.885 45.2083 128.193 44.9505 128.453 44.6172L129.445 45.5781C129.263 45.8438 129.026 46.099 128.734 46.3438C128.443 46.5833 128.086 46.7786 127.664 46.9297C127.247 47.0807 126.763 47.1562 126.211 47.1562ZM133.203 40.1562V47H131.32V38.5469H133.117L133.203 40.1562ZM135.789 38.4922L135.773 40.2422C135.659 40.2214 135.534 40.2057 135.398 40.1953C135.268 40.1849 135.138 40.1797 135.008 40.1797C134.685 40.1797 134.401 40.2266 134.156 40.3203C133.911 40.4089 133.706 40.5391 133.539 40.7109C133.378 40.8776 133.253 41.0807 133.164 41.3203C133.076 41.5599 133.023 41.8281 133.008 42.125L132.578 42.1562C132.578 41.625 132.63 41.1328 132.734 40.6797C132.839 40.2266 132.995 39.8281 133.203 39.4844C133.417 39.1406 133.682 38.8724 134 38.6797C134.323 38.487 134.695 38.3906 135.117 38.3906C135.232 38.3906 135.354 38.401 135.484 38.4219C135.62 38.4427 135.721 38.4661 135.789 38.4922ZM141.703 45.3047V41.2734C141.703 40.9714 141.648 40.7109 141.539 40.4922C141.43 40.2734 141.263 40.1042 141.039 39.9844C140.82 39.8646 140.544 39.8047 140.211 39.8047C139.904 39.8047 139.638 39.8568 139.414 39.9609C139.19 40.0651 139.016 40.2057 138.891 40.3828C138.766 40.5599 138.703 40.7604 138.703 40.9844H136.828C136.828 40.651 136.909 40.3281 137.07 40.0156C137.232 39.7031 137.466 39.4245 137.773 39.1797C138.081 38.9349 138.448 38.7422 138.875 38.6016C139.302 38.4609 139.781 38.3906 140.312 38.3906C140.948 38.3906 141.51 38.4974 142 38.7109C142.495 38.9245 142.883 39.2474 143.164 39.6797C143.451 40.1068 143.594 40.6432 143.594 41.2891V45.0469C143.594 45.4323 143.62 45.7786 143.672 46.0859C143.729 46.388 143.81 46.651 143.914 46.875V47H141.984C141.896 46.7969 141.826 46.5391 141.773 46.2266C141.727 45.9089 141.703 45.6016 141.703 45.3047ZM141.977 41.8594L141.992 43.0234H140.641C140.292 43.0234 139.984 43.0573 139.719 43.125C139.453 43.1875 139.232 43.2812 139.055 43.4062C138.878 43.5312 138.745 43.6823 138.656 43.8594C138.568 44.0365 138.523 44.237 138.523 44.4609C138.523 44.6849 138.576 44.8906 138.68 45.0781C138.784 45.2604 138.935 45.4036 139.133 45.5078C139.336 45.612 139.581 45.6641 139.867 45.6641C140.253 45.6641 140.589 45.5859 140.875 45.4297C141.167 45.2682 141.396 45.0729 141.562 44.8438C141.729 44.6094 141.818 44.388 141.828 44.1797L142.438 45.0156C142.375 45.2292 142.268 45.4583 142.117 45.7031C141.966 45.9479 141.768 46.1823 141.523 46.4062C141.284 46.625 140.995 46.8047 140.656 46.9453C140.323 47.0859 139.938 47.1562 139.5 47.1562C138.948 47.1562 138.456 47.0469 138.023 46.8281C137.591 46.6042 137.253 46.3047 137.008 45.9297C136.763 45.5495 136.641 45.1198 136.641 44.6406C136.641 44.1927 136.724 43.7969 136.891 43.4531C137.062 43.1042 137.312 42.8125 137.641 42.5781C137.974 42.3438 138.38 42.1667 138.859 42.0469C139.339 41.9219 139.885 41.8594 140.5 41.8594H141.977ZM149.688 38.5469V39.9219H144.922V38.5469H149.688ZM146.297 36.4766H148.18V44.6641C148.18 44.9245 148.216 45.125 148.289 45.2656C148.367 45.401 148.474 45.4922 148.609 45.5391C148.745 45.5859 148.904 45.6094 149.086 45.6094C149.216 45.6094 149.341 45.6016 149.461 45.5859C149.581 45.5703 149.677 45.5547 149.75 45.5391L149.758 46.9766C149.602 47.0234 149.419 47.0651 149.211 47.1016C149.008 47.138 148.773 47.1562 148.508 47.1562C148.076 47.1562 147.693 47.0807 147.359 46.9297C147.026 46.7734 146.766 46.5208 146.578 46.1719C146.391 45.8229 146.297 45.3594 146.297 44.7812V36.4766ZM156.477 45.0078V38.5469H158.367V47H156.586L156.477 45.0078ZM156.742 43.25L157.375 43.2344C157.375 43.8021 157.312 44.3255 157.188 44.8047C157.062 45.2786 156.87 45.6927 156.609 46.0469C156.349 46.3958 156.016 46.6693 155.609 46.8672C155.203 47.0599 154.716 47.1562 154.148 47.1562C153.737 47.1562 153.359 47.0964 153.016 46.9766C152.672 46.8568 152.375 46.6719 152.125 46.4219C151.88 46.1719 151.69 45.8464 151.555 45.4453C151.419 45.0443 151.352 44.5651 151.352 44.0078V38.5469H153.234V44.0234C153.234 44.3307 153.271 44.5885 153.344 44.7969C153.417 45 153.516 45.1641 153.641 45.2891C153.766 45.4141 153.911 45.5026 154.078 45.5547C154.245 45.6068 154.422 45.6328 154.609 45.6328C155.146 45.6328 155.568 45.5286 155.875 45.3203C156.188 45.1068 156.409 44.8203 156.539 44.4609C156.674 44.1016 156.742 43.6979 156.742 43.25ZM162.438 40.1562V47H160.555V38.5469H162.352L162.438 40.1562ZM165.023 38.4922L165.008 40.2422C164.893 40.2214 164.768 40.2057 164.633 40.1953C164.503 40.1849 164.372 40.1797 164.242 40.1797C163.919 40.1797 163.635 40.2266 163.391 40.3203C163.146 40.4089 162.94 40.5391 162.773 40.7109C162.612 40.8776 162.487 41.0807 162.398 41.3203C162.31 41.5599 162.258 41.8281 162.242 42.125L161.812 42.1562C161.812 41.625 161.865 41.1328 161.969 40.6797C162.073 40.2266 162.229 39.8281 162.438 39.4844C162.651 39.1406 162.917 38.8724 163.234 38.6797C163.557 38.487 163.93 38.3906 164.352 38.3906C164.466 38.3906 164.589 38.401 164.719 38.4219C164.854 38.4427 164.956 38.4661 165.023 38.4922ZM170.023 47.1562C169.398 47.1562 168.833 47.0547 168.328 46.8516C167.828 46.6432 167.401 46.3542 167.047 45.9844C166.698 45.6146 166.43 45.1797 166.242 44.6797C166.055 44.1797 165.961 43.6406 165.961 43.0625V42.75C165.961 42.0885 166.057 41.4896 166.25 40.9531C166.443 40.4167 166.711 39.9583 167.055 39.5781C167.398 39.1927 167.805 38.8984 168.273 38.6953C168.742 38.4922 169.25 38.3906 169.797 38.3906C170.401 38.3906 170.93 38.4922 171.383 38.6953C171.836 38.8984 172.211 39.1849 172.508 39.5547C172.81 39.9193 173.034 40.3542 173.18 40.8594C173.331 41.3646 173.406 41.9219 173.406 42.5312V43.3359H166.875V41.9844H171.547V41.8359C171.536 41.4974 171.469 41.1797 171.344 40.8828C171.224 40.5859 171.039 40.3464 170.789 40.1641C170.539 39.9818 170.206 39.8906 169.789 39.8906C169.477 39.8906 169.198 39.9583 168.953 40.0938C168.714 40.224 168.513 40.4141 168.352 40.6641C168.19 40.9141 168.065 41.2161 167.977 41.5703C167.893 41.9193 167.852 42.3125 167.852 42.75V43.0625C167.852 43.4323 167.901 43.776 168 44.0938C168.104 44.4062 168.255 44.6797 168.453 44.9141C168.651 45.1484 168.891 45.3333 169.172 45.4688C169.453 45.599 169.773 45.6641 170.133 45.6641C170.586 45.6641 170.99 45.5729 171.344 45.3906C171.698 45.2083 172.005 44.9505 172.266 44.6172L173.258 45.5781C173.076 45.8438 172.839 46.099 172.547 46.3438C172.255 46.5833 171.898 46.7786 171.477 46.9297C171.06 47.0807 170.576 47.1562 170.023 47.1562Z" fill="black" fill-opacity="0.87"/>
<path d="M86.2109 64.834V66H81.9277V64.834H86.2109ZM82.3379 57.4688V66H80.8672V57.4688H82.3379ZM91.0312 64.7285V61.7051C91.0312 61.4785 90.9902 61.2832 90.9082 61.1191C90.8262 60.9551 90.7012 60.8281 90.5332 60.7383C90.3691 60.6484 90.1621 60.6035 89.9121 60.6035C89.6816 60.6035 89.4824 60.6426 89.3145 60.7207C89.1465 60.7988 89.0156 60.9043 88.9219 61.0371C88.8281 61.1699 88.7812 61.3203 88.7812 61.4883H87.375C87.375 61.2383 87.4355 60.9961 87.5566 60.7617C87.6777 60.5273 87.8535 60.3184 88.084 60.1348C88.3145 59.9512 88.5898 59.8066 88.9102 59.7012C89.2305 59.5957 89.5898 59.543 89.9883 59.543C90.4648 59.543 90.8867 59.623 91.2539 59.7832C91.625 59.9434 91.916 60.1855 92.127 60.5098C92.3418 60.8301 92.4492 61.2324 92.4492 61.7168V64.5352C92.4492 64.8242 92.4688 65.084 92.5078 65.3145C92.5508 65.541 92.6113 65.7383 92.6895 65.9062V66H91.2422C91.1758 65.8477 91.123 65.6543 91.084 65.4199C91.0488 65.1816 91.0312 64.9512 91.0312 64.7285ZM91.2363 62.1445L91.248 63.0176H90.2344C89.9727 63.0176 89.7422 63.043 89.543 63.0938C89.3438 63.1406 89.1777 63.2109 89.0449 63.3047C88.9121 63.3984 88.8125 63.5117 88.7461 63.6445C88.6797 63.7773 88.6465 63.9277 88.6465 64.0957C88.6465 64.2637 88.6855 64.418 88.7637 64.5586C88.8418 64.6953 88.9551 64.8027 89.1035 64.8809C89.2559 64.959 89.4395 64.998 89.6543 64.998C89.9434 64.998 90.1953 64.9395 90.4102 64.8223C90.6289 64.7012 90.8008 64.5547 90.9258 64.3828C91.0508 64.207 91.1172 64.041 91.125 63.8848L91.582 64.5117C91.5352 64.6719 91.4551 64.8438 91.3418 65.0273C91.2285 65.2109 91.0801 65.3867 90.8965 65.5547C90.7168 65.7188 90.5 65.8535 90.2461 65.959C89.9961 66.0645 89.707 66.1172 89.3789 66.1172C88.9648 66.1172 88.5957 66.0352 88.2715 65.8711C87.9473 65.7031 87.6934 65.4785 87.5098 65.1973C87.3262 64.9121 87.2344 64.5898 87.2344 64.2305C87.2344 63.8945 87.2969 63.5977 87.4219 63.3398C87.5508 63.0781 87.7383 62.8594 87.9844 62.6836C88.2344 62.5078 88.5391 62.375 88.8984 62.2852C89.2578 62.1914 89.668 62.1445 90.1289 62.1445H91.2363ZM97.7324 64.2832C97.7324 64.1426 97.6973 64.0156 97.627 63.9023C97.5566 63.7852 97.4219 63.6797 97.2227 63.5859C97.0273 63.4922 96.7383 63.4062 96.3555 63.3281C96.0195 63.2539 95.7109 63.166 95.4297 63.0645C95.1523 62.959 94.9141 62.832 94.7148 62.6836C94.5156 62.5352 94.3613 62.3594 94.252 62.1562C94.1426 61.9531 94.0879 61.7188 94.0879 61.4531C94.0879 61.1953 94.1445 60.9512 94.2578 60.7207C94.3711 60.4902 94.5332 60.2871 94.7441 60.1113C94.9551 59.9355 95.2109 59.7969 95.5117 59.6953C95.8164 59.5938 96.1562 59.543 96.5312 59.543C97.0625 59.543 97.5176 59.6328 97.8965 59.8125C98.2793 59.9883 98.5723 60.2285 98.7754 60.5332C98.9785 60.834 99.0801 61.1738 99.0801 61.5527H97.668C97.668 61.3848 97.625 61.2285 97.5391 61.084C97.457 60.9355 97.332 60.8164 97.1641 60.7266C96.9961 60.6328 96.7852 60.5859 96.5312 60.5859C96.2891 60.5859 96.0879 60.625 95.9277 60.7031C95.7715 60.7773 95.6543 60.875 95.5762 60.9961C95.502 61.1172 95.4648 61.25 95.4648 61.3945C95.4648 61.5 95.4844 61.5957 95.5234 61.6816C95.5664 61.7637 95.6367 61.8398 95.7344 61.9102C95.832 61.9766 95.9648 62.0391 96.1328 62.0977C96.3047 62.1562 96.5195 62.2129 96.7773 62.2676C97.2617 62.3691 97.6777 62.5 98.0254 62.6602C98.377 62.8164 98.6465 63.0195 98.834 63.2695C99.0215 63.5156 99.1152 63.8281 99.1152 64.207C99.1152 64.4883 99.0547 64.7461 98.9336 64.9805C98.8164 65.2109 98.6445 65.4121 98.418 65.584C98.1914 65.752 97.9199 65.8828 97.6035 65.9766C97.291 66.0703 96.9395 66.1172 96.5488 66.1172C95.9746 66.1172 95.4883 66.0156 95.0898 65.8125C94.6914 65.6055 94.3887 65.3418 94.1816 65.0215C93.9785 64.6973 93.877 64.3613 93.877 64.0137H95.2422C95.2578 64.2754 95.3301 64.4844 95.459 64.6406C95.5918 64.793 95.7559 64.9043 95.9512 64.9746C96.1504 65.041 96.3555 65.0742 96.5664 65.0742C96.8203 65.0742 97.0332 65.041 97.2051 64.9746C97.377 64.9043 97.5078 64.8105 97.5977 64.6934C97.6875 64.5723 97.7324 64.4355 97.7324 64.2832ZM103.508 59.6602V60.6914H99.9336V59.6602H103.508ZM100.965 58.1074H102.377V64.248C102.377 64.4434 102.404 64.5938 102.459 64.6992C102.518 64.8008 102.598 64.8691 102.699 64.9043C102.801 64.9395 102.92 64.957 103.057 64.957C103.154 64.957 103.248 64.9512 103.338 64.9395C103.428 64.9277 103.5 64.916 103.555 64.9043L103.561 65.9824C103.443 66.0176 103.307 66.0488 103.15 66.0762C102.998 66.1035 102.822 66.1172 102.623 66.1172C102.299 66.1172 102.012 66.0605 101.762 65.9473C101.512 65.8301 101.316 65.6406 101.176 65.3789C101.035 65.1172 100.965 64.7695 100.965 64.3359V58.1074ZM111.9 64.5059V59.6602H113.318V66H111.982L111.9 64.5059ZM112.1 63.1875L112.574 63.1758C112.574 63.6016 112.527 63.9941 112.434 64.3535C112.34 64.709 112.195 65.0195 112 65.2852C111.805 65.5469 111.555 65.752 111.25 65.9004C110.945 66.0449 110.58 66.1172 110.154 66.1172C109.846 66.1172 109.562 66.0723 109.305 65.9824C109.047 65.8926 108.824 65.7539 108.637 65.5664C108.453 65.3789 108.311 65.1348 108.209 64.834C108.107 64.5332 108.057 64.1738 108.057 63.7559V59.6602H109.469V63.7676C109.469 63.998 109.496 64.1914 109.551 64.3477C109.605 64.5 109.68 64.623 109.773 64.7168C109.867 64.8105 109.977 64.877 110.102 64.916C110.227 64.9551 110.359 64.9746 110.5 64.9746C110.902 64.9746 111.219 64.8965 111.449 64.7402C111.684 64.5801 111.85 64.3652 111.947 64.0957C112.049 63.8262 112.1 63.5234 112.1 63.1875ZM116.434 60.8789V68.4375H115.021V59.6602H116.322L116.434 60.8789ZM120.564 62.7715V62.8945C120.564 63.3555 120.51 63.7832 120.4 64.1777C120.295 64.5684 120.137 64.9102 119.926 65.2031C119.719 65.4922 119.463 65.7168 119.158 65.877C118.854 66.0371 118.502 66.1172 118.104 66.1172C117.709 66.1172 117.363 66.0449 117.066 65.9004C116.773 65.752 116.525 65.543 116.322 65.2734C116.119 65.0039 115.955 64.6875 115.83 64.3242C115.709 63.957 115.623 63.5547 115.572 63.1172V62.6426C115.623 62.1777 115.709 61.7559 115.83 61.377C115.955 60.998 116.119 60.6719 116.322 60.3984C116.525 60.125 116.773 59.9141 117.066 59.7656C117.359 59.6172 117.701 59.543 118.092 59.543C118.49 59.543 118.844 59.6211 119.152 59.7773C119.461 59.9297 119.721 60.1484 119.932 60.4336C120.143 60.7148 120.301 61.0547 120.406 61.4531C120.512 61.8477 120.564 62.2871 120.564 62.7715ZM119.152 62.8945V62.7715C119.152 62.4785 119.125 62.207 119.07 61.957C119.016 61.7031 118.93 61.4805 118.812 61.2891C118.695 61.0977 118.545 60.9492 118.361 60.8438C118.182 60.7344 117.965 60.6797 117.711 60.6797C117.461 60.6797 117.246 60.7227 117.066 60.8086C116.887 60.8906 116.736 61.0059 116.615 61.1543C116.494 61.3027 116.4 61.4766 116.334 61.6758C116.268 61.8711 116.221 62.084 116.193 62.3145V63.4512C116.24 63.7324 116.32 63.9902 116.434 64.2246C116.547 64.459 116.707 64.6465 116.914 64.7871C117.125 64.9238 117.395 64.9922 117.723 64.9922C117.977 64.9922 118.193 64.9375 118.373 64.8281C118.553 64.7188 118.699 64.5684 118.812 64.377C118.93 64.1816 119.016 63.957 119.07 63.7031C119.125 63.4492 119.152 63.1797 119.152 62.8945ZM125.883 64.6875V57H127.301V66H126.018L125.883 64.6875ZM121.758 62.9004V62.7773C121.758 62.2969 121.814 61.8594 121.928 61.4648C122.041 61.0664 122.205 60.7246 122.42 60.4395C122.635 60.1504 122.896 59.9297 123.205 59.7773C123.514 59.6211 123.861 59.543 124.248 59.543C124.631 59.543 124.967 59.6172 125.256 59.7656C125.545 59.9141 125.791 60.127 125.994 60.4043C126.197 60.6777 126.359 61.0059 126.48 61.3887C126.602 61.7676 126.688 62.1895 126.738 62.6543V63.0469C126.688 63.5 126.602 63.9141 126.48 64.2891C126.359 64.6641 126.197 64.9883 125.994 65.2617C125.791 65.5352 125.543 65.7461 125.25 65.8945C124.961 66.043 124.623 66.1172 124.236 66.1172C123.854 66.1172 123.508 66.0371 123.199 65.877C122.895 65.7168 122.635 65.4922 122.42 65.2031C122.205 64.9141 122.041 64.5742 121.928 64.1836C121.814 63.7891 121.758 63.3613 121.758 62.9004ZM123.17 62.7773V62.9004C123.17 63.1895 123.195 63.459 123.246 63.709C123.301 63.959 123.385 64.1797 123.498 64.3711C123.611 64.5586 123.758 64.707 123.938 64.8164C124.121 64.9219 124.34 64.9746 124.594 64.9746C124.914 64.9746 125.178 64.9043 125.385 64.7637C125.592 64.623 125.754 64.4336 125.871 64.1953C125.992 63.9531 126.074 63.6836 126.117 63.3867V62.3262C126.094 62.0957 126.045 61.8809 125.971 61.6816C125.9 61.4824 125.805 61.3086 125.684 61.1602C125.562 61.0078 125.412 60.8906 125.232 60.8086C125.057 60.7227 124.848 60.6797 124.605 60.6797C124.348 60.6797 124.129 60.7344 123.949 60.8438C123.77 60.9531 123.621 61.1035 123.504 61.2949C123.391 61.4863 123.307 61.709 123.252 61.9629C123.197 62.2168 123.17 62.4883 123.17 62.7773ZM132.602 64.7285V61.7051C132.602 61.4785 132.561 61.2832 132.479 61.1191C132.396 60.9551 132.271 60.8281 132.104 60.7383C131.939 60.6484 131.732 60.6035 131.482 60.6035C131.252 60.6035 131.053 60.6426 130.885 60.7207C130.717 60.7988 130.586 60.9043 130.492 61.0371C130.398 61.1699 130.352 61.3203 130.352 61.4883H128.945C128.945 61.2383 129.006 60.9961 129.127 60.7617C129.248 60.5273 129.424 60.3184 129.654 60.1348C129.885 59.9512 130.16 59.8066 130.48 59.7012C130.801 59.5957 131.16 59.543 131.559 59.543C132.035 59.543 132.457 59.623 132.824 59.7832C133.195 59.9434 133.486 60.1855 133.697 60.5098C133.912 60.8301 134.02 61.2324 134.02 61.7168V64.5352C134.02 64.8242 134.039 65.084 134.078 65.3145C134.121 65.541 134.182 65.7383 134.26 65.9062V66H132.812C132.746 65.8477 132.693 65.6543 132.654 65.4199C132.619 65.1816 132.602 64.9512 132.602 64.7285ZM132.807 62.1445L132.818 63.0176H131.805C131.543 63.0176 131.312 63.043 131.113 63.0938C130.914 63.1406 130.748 63.2109 130.615 63.3047C130.482 63.3984 130.383 63.5117 130.316 63.6445C130.25 63.7773 130.217 63.9277 130.217 64.0957C130.217 64.2637 130.256 64.418 130.334 64.5586C130.412 64.6953 130.525 64.8027 130.674 64.8809C130.826 64.959 131.01 64.998 131.225 64.998C131.514 64.998 131.766 64.9395 131.98 64.8223C132.199 64.7012 132.371 64.5547 132.496 64.3828C132.621 64.207 132.688 64.041 132.695 63.8848L133.152 64.5117C133.105 64.6719 133.025 64.8438 132.912 65.0273C132.799 65.2109 132.65 65.3867 132.467 65.5547C132.287 65.7188 132.07 65.8535 131.816 65.959C131.566 66.0645 131.277 66.1172 130.949 66.1172C130.535 66.1172 130.166 66.0352 129.842 65.8711C129.518 65.7031 129.264 65.4785 129.08 65.1973C128.896 64.9121 128.805 64.5898 128.805 64.2305C128.805 63.8945 128.867 63.5977 128.992 63.3398C129.121 63.0781 129.309 62.8594 129.555 62.6836C129.805 62.5078 130.109 62.375 130.469 62.2852C130.828 62.1914 131.238 62.1445 131.699 62.1445H132.807ZM138.652 59.6602V60.6914H135.078V59.6602H138.652ZM136.109 58.1074H137.521V64.248C137.521 64.4434 137.549 64.5938 137.604 64.6992C137.662 64.8008 137.742 64.8691 137.844 64.9043C137.945 64.9395 138.064 64.957 138.201 64.957C138.299 64.957 138.393 64.9512 138.482 64.9395C138.572 64.9277 138.645 64.916 138.699 64.9043L138.705 65.9824C138.588 66.0176 138.451 66.0488 138.295 66.0762C138.143 66.1035 137.967 66.1172 137.768 66.1172C137.443 66.1172 137.156 66.0605 136.906 65.9473C136.656 65.8301 136.461 65.6406 136.32 65.3789C136.18 65.1172 136.109 64.7695 136.109 64.3359V58.1074ZM142.787 66.1172C142.318 66.1172 141.895 66.041 141.516 65.8887C141.141 65.7324 140.82 65.5156 140.555 65.2383C140.293 64.9609 140.092 64.6348 139.951 64.2598C139.811 63.8848 139.74 63.4805 139.74 63.0469V62.8125C139.74 62.3164 139.812 61.8672 139.957 61.4648C140.102 61.0625 140.303 60.7188 140.561 60.4336C140.818 60.1445 141.123 59.9238 141.475 59.7715C141.826 59.6191 142.207 59.543 142.617 59.543C143.07 59.543 143.467 59.6191 143.807 59.7715C144.146 59.9238 144.428 60.1387 144.65 60.416C144.877 60.6895 145.045 61.0156 145.154 61.3945C145.268 61.7734 145.324 62.1914 145.324 62.6484V63.252H140.426V62.2383H143.93V62.127C143.922 61.873 143.871 61.6348 143.777 61.4121C143.688 61.1895 143.549 61.0098 143.361 60.873C143.174 60.7363 142.924 60.668 142.611 60.668C142.377 60.668 142.168 60.7188 141.984 60.8203C141.805 60.918 141.654 61.0605 141.533 61.248C141.412 61.4355 141.318 61.6621 141.252 61.9277C141.189 62.1895 141.158 62.4844 141.158 62.8125V63.0469C141.158 63.3242 141.195 63.582 141.27 63.8203C141.348 64.0547 141.461 64.2598 141.609 64.4355C141.758 64.6113 141.938 64.75 142.148 64.8516C142.359 64.9492 142.6 64.998 142.869 64.998C143.209 64.998 143.512 64.9297 143.777 64.793C144.043 64.6562 144.273 64.4629 144.469 64.2129L145.213 64.9336C145.076 65.1328 144.898 65.3242 144.68 65.5078C144.461 65.6875 144.193 65.834 143.877 65.9473C143.564 66.0605 143.201 66.1172 142.787 66.1172ZM153.688 57.4395V66H152.275V59.1152L150.184 59.8242V58.6582L153.518 57.4395H153.688ZM160.852 64.6875V57H162.27V66H160.986L160.852 64.6875ZM156.727 62.9004V62.7773C156.727 62.2969 156.783 61.8594 156.896 61.4648C157.01 61.0664 157.174 60.7246 157.389 60.4395C157.604 60.1504 157.865 59.9297 158.174 59.7773C158.482 59.6211 158.83 59.543 159.217 59.543C159.6 59.543 159.936 59.6172 160.225 59.7656C160.514 59.9141 160.76 60.127 160.963 60.4043C161.166 60.6777 161.328 61.0059 161.449 61.3887C161.57 61.7676 161.656 62.1895 161.707 62.6543V63.0469C161.656 63.5 161.57 63.9141 161.449 64.2891C161.328 64.6641 161.166 64.9883 160.963 65.2617C160.76 65.5352 160.512 65.7461 160.219 65.8945C159.93 66.043 159.592 66.1172 159.205 66.1172C158.822 66.1172 158.477 66.0371 158.168 65.877C157.863 65.7168 157.604 65.4922 157.389 65.2031C157.174 64.9141 157.01 64.5742 156.896 64.1836C156.783 63.7891 156.727 63.3613 156.727 62.9004ZM158.139 62.7773V62.9004C158.139 63.1895 158.164 63.459 158.215 63.709C158.27 63.959 158.354 64.1797 158.467 64.3711C158.58 64.5586 158.727 64.707 158.906 64.8164C159.09 64.9219 159.309 64.9746 159.562 64.9746C159.883 64.9746 160.146 64.9043 160.354 64.7637C160.561 64.623 160.723 64.4336 160.84 64.1953C160.961 63.9531 161.043 63.6836 161.086 63.3867V62.3262C161.062 62.0957 161.014 61.8809 160.939 61.6816C160.869 61.4824 160.773 61.3086 160.652 61.1602C160.531 61.0078 160.381 60.8906 160.201 60.8086C160.025 60.7227 159.816 60.6797 159.574 60.6797C159.316 60.6797 159.098 60.7344 158.918 60.8438C158.738 60.9531 158.59 61.1035 158.473 61.2949C158.359 61.4863 158.275 61.709 158.221 61.9629C158.166 62.2168 158.139 62.4883 158.139 62.7773ZM170.809 64.7285V61.7051C170.809 61.4785 170.768 61.2832 170.686 61.1191C170.604 60.9551 170.479 60.8281 170.311 60.7383C170.146 60.6484 169.939 60.6035 169.689 60.6035C169.459 60.6035 169.26 60.6426 169.092 60.7207C168.924 60.7988 168.793 60.9043 168.699 61.0371C168.605 61.1699 168.559 61.3203 168.559 61.4883H167.152C167.152 61.2383 167.213 60.9961 167.334 60.7617C167.455 60.5273 167.631 60.3184 167.861 60.1348C168.092 59.9512 168.367 59.8066 168.688 59.7012C169.008 59.5957 169.367 59.543 169.766 59.543C170.242 59.543 170.664 59.623 171.031 59.7832C171.402 59.9434 171.693 60.1855 171.904 60.5098C172.119 60.8301 172.227 61.2324 172.227 61.7168V64.5352C172.227 64.8242 172.246 65.084 172.285 65.3145C172.328 65.541 172.389 65.7383 172.467 65.9062V66H171.02C170.953 65.8477 170.9 65.6543 170.861 65.4199C170.826 65.1816 170.809 64.9512 170.809 64.7285ZM171.014 62.1445L171.025 63.0176H170.012C169.75 63.0176 169.52 63.043 169.32 63.0938C169.121 63.1406 168.955 63.2109 168.822 63.3047C168.689 63.3984 168.59 63.5117 168.523 63.6445C168.457 63.7773 168.424 63.9277 168.424 64.0957C168.424 64.2637 168.463 64.418 168.541 64.5586C168.619 64.6953 168.732 64.8027 168.881 64.8809C169.033 64.959 169.217 64.998 169.432 64.998C169.721 64.998 169.973 64.9395 170.188 64.8223C170.406 64.7012 170.578 64.5547 170.703 64.3828C170.828 64.207 170.895 64.041 170.902 63.8848L171.359 64.5117C171.312 64.6719 171.232 64.8438 171.119 65.0273C171.006 65.2109 170.857 65.3867 170.674 65.5547C170.494 65.7188 170.277 65.8535 170.023 65.959C169.773 66.0645 169.484 66.1172 169.156 66.1172C168.742 66.1172 168.373 66.0352 168.049 65.8711C167.725 65.7031 167.471 65.4785 167.287 65.1973C167.104 64.9121 167.012 64.5898 167.012 64.2305C167.012 63.8945 167.074 63.5977 167.199 63.3398C167.328 63.0781 167.516 62.8594 167.762 62.6836C168.012 62.5078 168.316 62.375 168.676 62.2852C169.035 62.1914 169.445 62.1445 169.906 62.1445H171.014ZM178.014 59.6602H179.297V65.8242C179.297 66.3945 179.176 66.8789 178.934 67.2773C178.691 67.6758 178.354 67.9785 177.92 68.1855C177.486 68.3965 176.984 68.502 176.414 68.502C176.172 68.502 175.902 68.4668 175.605 68.3965C175.312 68.3262 175.027 68.2129 174.75 68.0566C174.477 67.9043 174.248 67.7031 174.064 67.4531L174.727 66.6211C174.953 66.8906 175.203 67.0879 175.477 67.2129C175.75 67.3379 176.037 67.4004 176.338 67.4004C176.662 67.4004 176.938 67.3398 177.164 67.2188C177.395 67.1016 177.572 66.9277 177.697 66.6973C177.822 66.4668 177.885 66.1855 177.885 65.8535V61.0957L178.014 59.6602ZM173.707 62.9004V62.7773C173.707 62.2969 173.766 61.8594 173.883 61.4648C174 61.0664 174.168 60.7246 174.387 60.4395C174.605 60.1504 174.871 59.9297 175.184 59.7773C175.496 59.6211 175.85 59.543 176.244 59.543C176.654 59.543 177.004 59.6172 177.293 59.7656C177.586 59.9141 177.83 60.127 178.025 60.4043C178.221 60.6777 178.373 61.0059 178.482 61.3887C178.596 61.7676 178.68 62.1895 178.734 62.6543V63.0469C178.684 63.5 178.598 63.9141 178.477 64.2891C178.355 64.6641 178.195 64.9883 177.996 65.2617C177.797 65.5352 177.551 65.7461 177.258 65.8945C176.969 66.043 176.627 66.1172 176.232 66.1172C175.846 66.1172 175.496 66.0371 175.184 65.877C174.875 65.7168 174.609 65.4922 174.387 65.2031C174.168 64.9141 174 64.5742 173.883 64.1836C173.766 63.7891 173.707 63.3613 173.707 62.9004ZM175.119 62.7773V62.9004C175.119 63.1895 175.146 63.459 175.201 63.709C175.26 63.959 175.348 64.1797 175.465 64.3711C175.586 64.5586 175.738 64.707 175.922 64.8164C176.109 64.9219 176.33 64.9746 176.584 64.9746C176.916 64.9746 177.188 64.9043 177.398 64.7637C177.613 64.623 177.777 64.4336 177.891 64.1953C178.008 63.9531 178.09 63.6836 178.137 63.3867V62.3262C178.113 62.0957 178.064 61.8809 177.99 61.6816C177.92 61.4824 177.824 61.3086 177.703 61.1602C177.582 61.0078 177.43 60.8906 177.246 60.8086C177.062 60.7227 176.846 60.6797 176.596 60.6797C176.342 60.6797 176.121 60.7344 175.934 60.8438C175.746 60.9531 175.592 61.1035 175.471 61.2949C175.354 61.4863 175.266 61.709 175.207 61.9629C175.148 62.2168 175.119 62.4883 175.119 62.7773ZM180.742 62.9004V62.7656C180.742 62.3086 180.809 61.8848 180.941 61.4941C181.074 61.0996 181.266 60.7578 181.516 60.4688C181.77 60.1758 182.078 59.9492 182.441 59.7891C182.809 59.625 183.223 59.543 183.684 59.543C184.148 59.543 184.562 59.625 184.926 59.7891C185.293 59.9492 185.604 60.1758 185.857 60.4688C186.111 60.7578 186.305 61.0996 186.438 61.4941C186.57 61.8848 186.637 62.3086 186.637 62.7656V62.9004C186.637 63.3574 186.57 63.7812 186.438 64.1719C186.305 64.5625 186.111 64.9043 185.857 65.1973C185.604 65.4863 185.295 65.7129 184.932 65.877C184.568 66.0371 184.156 66.1172 183.695 66.1172C183.23 66.1172 182.814 66.0371 182.447 65.877C182.084 65.7129 181.775 65.4863 181.521 65.1973C181.268 64.9043 181.074 64.5625 180.941 64.1719C180.809 63.7812 180.742 63.3574 180.742 62.9004ZM182.154 62.7656V62.9004C182.154 63.1855 182.184 63.4551 182.242 63.709C182.301 63.9629 182.393 64.1855 182.518 64.377C182.643 64.5684 182.803 64.7188 182.998 64.8281C183.193 64.9375 183.426 64.9922 183.695 64.9922C183.957 64.9922 184.184 64.9375 184.375 64.8281C184.57 64.7188 184.73 64.5684 184.855 64.377C184.98 64.1855 185.072 63.9629 185.131 63.709C185.193 63.4551 185.225 63.1855 185.225 62.9004V62.7656C185.225 62.4844 185.193 62.2188 185.131 61.9688C185.072 61.7148 184.979 61.4902 184.85 61.2949C184.725 61.0996 184.564 60.9473 184.369 60.8379C184.178 60.7246 183.949 60.668 183.684 60.668C183.418 60.668 183.188 60.7246 182.992 60.8379C182.801 60.9473 182.643 61.0996 182.518 61.2949C182.393 61.4902 182.301 61.7148 182.242 61.9688C182.184 62.2188 182.154 62.4844 182.154 62.7656Z" fill="black" fill-opacity="0.38"/>
<path d="M283.574 63.125V68H258.793V63.8105L270.828 50.6836C272.148 49.194 273.189 47.9076 273.951 46.8242C274.713 45.7409 275.246 44.7676 275.551 43.9043C275.872 43.0241 276.033 42.1693 276.033 41.3398C276.033 40.1719 275.813 39.1478 275.373 38.2676C274.95 37.3704 274.324 36.668 273.494 36.1602C272.665 35.6354 271.658 35.373 270.473 35.373C269.102 35.373 267.951 35.6693 267.02 36.2617C266.089 36.8542 265.386 37.6751 264.912 38.7246C264.438 39.7572 264.201 40.9421 264.201 42.2793H258.082C258.082 40.1296 258.573 38.166 259.555 36.3887C260.536 34.5944 261.958 33.1725 263.82 32.123C265.682 31.0566 267.925 30.5234 270.549 30.5234C273.02 30.5234 275.119 30.9382 276.846 31.7676C278.572 32.597 279.884 33.7734 280.781 35.2969C281.695 36.8203 282.152 38.623 282.152 40.7051C282.152 41.8561 281.966 42.9987 281.594 44.1328C281.221 45.2669 280.688 46.401 279.994 47.5352C279.317 48.6523 278.513 49.778 277.582 50.9121C276.651 52.0293 275.627 53.1634 274.51 54.3145L266.512 63.125H283.574ZM312.219 63.125V68H287.438V63.8105L299.473 50.6836C300.793 49.194 301.834 47.9076 302.596 46.8242C303.358 45.7409 303.891 44.7676 304.195 43.9043C304.517 43.0241 304.678 42.1693 304.678 41.3398C304.678 40.1719 304.458 39.1478 304.018 38.2676C303.595 37.3704 302.968 36.668 302.139 36.1602C301.309 35.6354 300.302 35.373 299.117 35.373C297.746 35.373 296.595 35.6693 295.664 36.2617C294.733 36.8542 294.031 37.6751 293.557 38.7246C293.083 39.7572 292.846 40.9421 292.846 42.2793H286.727C286.727 40.1296 287.218 38.166 288.199 36.3887C289.181 34.5944 290.603 33.1725 292.465 32.123C294.327 31.0566 296.57 30.5234 299.194 30.5234C301.665 30.5234 303.764 30.9382 305.49 31.7676C307.217 32.597 308.529 33.7734 309.426 35.2969C310.34 36.8203 310.797 38.623 310.797 40.7051C310.797 41.8561 310.611 42.9987 310.238 44.1328C309.866 45.2669 309.333 46.401 308.639 47.5352C307.962 48.6523 307.158 49.778 306.227 50.9121C305.296 52.0293 304.272 53.1634 303.154 54.3145L295.156 63.125H312.219ZM316.565 37.3027C316.565 36.0671 316.869 34.9329 317.479 33.9004C318.088 32.8678 318.901 32.0469 319.916 31.4375C320.949 30.8112 322.066 30.498 323.268 30.498C324.487 30.498 325.595 30.8112 326.594 31.4375C327.593 32.0469 328.388 32.8678 328.981 33.9004C329.59 34.9329 329.895 36.0671 329.895 37.3027C329.895 38.5384 329.59 39.6725 328.981 40.7051C328.388 41.7207 327.593 42.5247 326.594 43.1172C325.595 43.7096 324.487 44.0059 323.268 44.0059C322.066 44.0059 320.949 43.7096 319.916 43.1172C318.901 42.5247 318.088 41.7207 317.479 40.7051C316.869 39.6725 316.565 38.5384 316.565 37.3027ZM319.993 37.3027C319.993 38.2168 320.314 38.987 320.957 39.6133C321.601 40.2227 322.371 40.5273 323.268 40.5273C324.165 40.5273 324.918 40.2227 325.528 39.6133C326.137 39.0039 326.442 38.2337 326.442 37.3027C326.442 36.3548 326.137 35.5677 325.528 34.9414C324.918 34.3151 324.165 34.002 323.268 34.002C322.371 34.002 321.601 34.3151 320.957 34.9414C320.314 35.5677 319.993 36.3548 319.993 37.3027ZM357.879 55.9648H364.227C364.024 58.3854 363.347 60.5436 362.196 62.4395C361.045 64.3184 359.428 65.7995 357.346 66.8828C355.264 67.9661 352.734 68.5078 349.754 68.5078C347.469 68.5078 345.413 68.1016 343.584 67.2891C341.756 66.4596 340.191 65.2917 338.887 63.7852C337.584 62.2617 336.585 60.4251 335.891 58.2754C335.214 56.1257 334.875 53.722 334.875 51.0645V47.9922C334.875 45.3346 335.222 42.931 335.916 40.7812C336.627 38.6315 337.643 36.7949 338.963 35.2715C340.284 33.7311 341.866 32.5547 343.711 31.7422C345.573 30.9297 347.664 30.5234 349.983 30.5234C352.928 30.5234 355.416 31.0651 357.448 32.1484C359.479 33.2318 361.053 34.7298 362.17 36.6426C363.305 38.5553 363.999 40.7474 364.252 43.2188H357.905C357.735 41.6276 357.363 40.265 356.788 39.1309C356.229 37.9967 355.4 37.1335 354.299 36.541C353.199 35.9316 351.76 35.627 349.983 35.627C348.527 35.627 347.258 35.8978 346.174 36.4395C345.091 36.9811 344.185 37.7767 343.457 38.8262C342.73 39.8757 342.18 41.1706 341.807 42.7109C341.452 44.2344 341.274 45.9779 341.274 47.9414V51.0645C341.274 52.9264 341.435 54.6191 341.756 56.1426C342.095 57.6491 342.603 58.944 343.28 60.0273C343.974 61.1107 344.854 61.9486 345.92 62.541C346.987 63.1335 348.265 63.4297 349.754 63.4297C351.566 63.4297 353.03 63.1419 354.147 62.5664C355.281 61.9909 356.136 61.153 356.711 60.0527C357.304 58.9355 357.693 57.5729 357.879 55.9648Z" fill="black" fill-opacity="0.87"/>
</g>
<defs>
<filter id="filter0_d_1246_44447" x="0" y="0" width="399" height="108" filterUnits="userSpaceOnUse" color-interpolation-filters="sRGB">
<feFlood flood-opacity="0" result="BackgroundImageFix"/>
<feColorMatrix in="SourceAlpha" type="matrix" values="0 0 0 0 0 0 0 0 0 0 0 0 0 0 0 0 0 0 127 0" result="hardAlpha"/>
<feOffset dy="4"/>
<feGaussianBlur stdDeviation="4"/>
<feComposite in2="hardAlpha" operator="out"/>
<feColorMatrix type="matrix" values="0 0 0 0 0 0 0 0 0 0 0 0 0 0 0 0 0 0 0.04 0"/>
<feBlend mode="normal" in2="BackgroundImageFix" result="effect1_dropShadow_1246_44447"/>
<feBlend mode="normal" in="SourceGraphic" in2="effect1_dropShadow_1246_44447" result="shape"/>
</filter>
</defs>
</svg>
