<svg width="128" height="127" viewBox="0 0 128 127" fill="none" xmlns="http://www.w3.org/2000/svg">
<g filter="url(#filter0_d_1142_203969)">
<rect x="5.5" y="2.5" width="117" height="117" rx="2.29412" fill="white" shape-rendering="crispEdges"/>
<path d="M48.1964 57.6157V60.4116H33.9837V58.0088L40.8862 50.4802C41.6434 49.6258 42.2405 48.888 42.6773 48.2667C43.1142 47.6454 43.42 47.0871 43.5948 46.592C43.7792 46.0872 43.8714 45.5969 43.8714 45.1212C43.8714 44.4514 43.7452 43.864 43.4928 43.3592C43.2501 42.8447 42.8909 42.4418 42.4152 42.1505C41.9395 41.8496 41.3619 41.6991 40.6823 41.6991C39.8959 41.6991 39.2358 41.869 38.7018 42.2088C38.1679 42.5486 37.765 43.0194 37.4932 43.6213C37.2213 44.2135 37.0854 44.8931 37.0854 45.66H33.5759C33.5759 44.4271 33.8575 43.301 34.4205 42.2816C34.9836 41.2525 35.7991 40.437 36.867 39.8351C37.9349 39.2235 39.2212 38.9177 40.726 38.9177C42.1434 38.9177 43.3472 39.1556 44.3374 39.6313C45.3277 40.107 46.0801 40.7817 46.5946 41.6554C47.1188 42.5292 47.3809 43.5631 47.3809 44.7572C47.3809 45.4173 47.2742 46.0726 47.0606 46.7231C46.847 47.3735 46.5412 48.024 46.1432 48.6744C45.7548 49.3152 45.2937 49.9608 44.7597 50.6112C44.2258 51.252 43.6384 51.9024 42.9977 52.5626L38.4106 57.6157H48.1964ZM64.625 57.6157V60.4116H50.4122V58.0088L57.3147 50.4802C58.072 49.6258 58.669 48.888 59.1059 48.2667C59.5428 47.6454 59.8486 47.0871 60.0233 46.592C60.2078 46.0872 60.3 45.5969 60.3 45.1212C60.3 44.4514 60.1738 43.864 59.9214 43.3592C59.6787 42.8447 59.3195 42.4418 58.8438 42.1505C58.3681 41.8496 57.7904 41.6991 57.1109 41.6991C56.3245 41.6991 55.6644 41.869 55.1304 42.2088C54.5965 42.5486 54.1936 43.0194 53.9217 43.6213C53.6499 44.2135 53.514 44.8931 53.514 45.66H50.0045C50.0045 44.4271 50.286 43.301 50.8491 42.2816C51.4122 41.2525 52.2277 40.437 53.2956 39.8351C54.3635 39.2235 55.6498 38.9177 57.1546 38.9177C58.572 38.9177 59.7758 39.1556 60.766 39.6313C61.7562 40.107 62.5086 40.7817 63.0232 41.6554C63.5474 42.5292 63.8095 43.5631 63.8095 44.7572C63.8095 45.4173 63.7027 46.0726 63.4892 46.7231C63.2756 47.3735 62.9698 48.024 62.5717 48.6744C62.1834 49.3152 61.7223 49.9608 61.1883 50.6112C60.6544 51.252 60.067 51.9024 59.4263 52.5626L54.8392 57.6157H64.625ZM67.1175 42.8058C67.1175 42.0971 67.2922 41.4467 67.6417 40.8545C67.9912 40.2623 68.4572 39.7914 69.0397 39.442C69.6319 39.0827 70.2726 38.9031 70.9619 38.9031C71.6609 38.9031 72.2968 39.0827 72.8696 39.442C73.4424 39.7914 73.8986 40.2623 74.2384 40.8545C74.5879 41.4467 74.7627 42.0971 74.7627 42.8058C74.7627 43.5145 74.5879 44.165 74.2384 44.7572C73.8986 45.3397 73.4424 45.8008 72.8696 46.1406C72.2968 46.4804 71.6609 46.6503 70.9619 46.6503C70.2726 46.6503 69.6319 46.4804 69.0397 46.1406C68.4572 45.8008 67.9912 45.3397 67.6417 44.7572C67.2922 44.165 67.1175 43.5145 67.1175 42.8058ZM69.0834 42.8058C69.0834 43.3301 69.2678 43.7718 69.6368 44.131C70.0057 44.4805 70.4474 44.6552 70.9619 44.6552C71.4765 44.6552 71.9085 44.4805 72.258 44.131C72.6075 43.7815 72.7822 43.3398 72.7822 42.8058C72.7822 42.2622 72.6075 41.8107 72.258 41.4515C71.9085 41.0923 71.4765 40.9127 70.9619 40.9127C70.4474 40.9127 70.0057 41.0923 69.6368 41.4515C69.2678 41.8107 69.0834 42.2622 69.0834 42.8058ZM90.8126 53.5091H94.4532C94.3367 54.8974 93.9484 56.1352 93.2882 57.2225C92.6281 58.3001 91.7009 59.1496 90.5068 59.7709C89.3127 60.3922 87.8613 60.7029 86.1527 60.7029C84.8421 60.7029 83.6626 60.4699 82.6141 60.0039C81.5656 59.5282 80.6676 58.8583 79.9201 57.9943C79.1725 57.1205 78.5997 56.0672 78.2017 54.8343C77.8134 53.6013 77.6192 52.2228 77.6192 50.6986V48.9366C77.6192 47.4124 77.8182 46.0338 78.2163 44.8009C78.624 43.5679 79.2065 42.5146 79.9637 41.6409C80.721 40.7574 81.6287 40.0827 82.6869 39.6167C83.7548 39.1507 84.9537 38.9177 86.2838 38.9177C87.973 38.9177 89.4001 39.2284 90.5651 39.8497C91.7301 40.471 92.6329 41.3302 93.2737 42.4272C93.9241 43.5242 94.3221 44.7815 94.4678 46.1988H90.8272C90.7301 45.2863 90.5165 44.5048 90.1865 43.8543C89.8661 43.2039 89.3904 42.7088 88.7594 42.369C88.1283 42.0195 87.3031 41.8447 86.2838 41.8447C85.4489 41.8447 84.7208 42.0001 84.0994 42.3107C83.4781 42.6214 82.9587 43.0777 82.5413 43.6796C82.1238 44.2815 81.8083 45.0242 81.5947 45.9076C81.3908 46.7813 81.2889 47.7813 81.2889 48.9074V50.6986C81.2889 51.7665 81.3811 52.7373 81.5656 53.611C81.7598 54.4751 82.051 55.2177 82.4393 55.8391C82.8374 56.4604 83.3422 56.9409 83.9538 57.2807C84.5654 57.6205 85.2984 57.7904 86.1527 57.7904C87.1915 57.7904 88.0312 57.6254 88.672 57.2953C89.3224 56.9652 89.8127 56.4847 90.1428 55.8536C90.4826 55.2129 90.7058 54.4314 90.8126 53.5091Z" fill="black" fill-opacity="0.87"/>
<path d="M42.9287 76.88V82.5884H41.9525V76.88H42.9287ZM44.7204 76.88V77.6641H40.1764V76.88H44.7204ZM47.0162 82.6668C46.7026 82.6668 46.419 82.6158 46.1654 82.5139C45.9145 82.4093 45.7002 82.2643 45.5225 82.0787C45.3473 81.8931 45.2127 81.6749 45.1186 81.424C45.0245 81.173 44.9775 80.9025 44.9775 80.6124V80.4556C44.9775 80.1236 45.0259 79.823 45.1226 79.5538C45.2193 79.2846 45.3539 79.0546 45.5264 78.8638C45.6989 78.6704 45.9028 78.5227 46.138 78.4208C46.3732 78.3188 46.6281 78.2679 46.9025 78.2679C47.2057 78.2679 47.471 78.3188 47.6984 78.4208C47.9258 78.5227 48.114 78.6665 48.263 78.852C48.4146 79.035 48.527 79.2532 48.6001 79.5068C48.6759 79.7603 48.7138 80.04 48.7138 80.3458V80.7496H45.4362V80.0713H47.7807V79.9969C47.7755 79.827 47.7415 79.6675 47.6788 79.5185C47.6187 79.3696 47.5259 79.2493 47.4004 79.1578C47.275 79.0664 47.1077 79.0206 46.8986 79.0206C46.7418 79.0206 46.6019 79.0546 46.4791 79.1226C46.3589 79.1879 46.2582 79.2833 46.1772 79.4088C46.0962 79.5342 46.0334 79.6858 45.989 79.8636C45.9472 80.0387 45.9263 80.236 45.9263 80.4556V80.6124C45.9263 80.798 45.9511 80.9705 46.0008 81.1299C46.0531 81.2867 46.1288 81.424 46.2282 81.5416C46.3275 81.6592 46.4477 81.752 46.5889 81.8199C46.73 81.8853 46.8908 81.918 47.0711 81.918C47.2985 81.918 47.5011 81.8722 47.6788 81.7807C47.8565 81.6893 48.0107 81.5599 48.1414 81.3926L48.6393 81.8748C48.5479 82.0081 48.4289 82.1362 48.2826 82.259C48.1362 82.3793 47.9572 82.4773 47.7454 82.5531C47.5363 82.6289 47.2933 82.6668 47.0162 82.6668ZM50.5392 79.2088V82.5884H49.5943V78.3463H50.4843L50.5392 79.2088ZM50.3863 80.3105L50.0648 80.3066C50.0648 80.0138 50.1014 79.7433 50.1745 79.495C50.2477 79.2467 50.3549 79.0311 50.496 78.8481C50.6372 78.6625 50.8123 78.5201 51.0214 78.4208C51.2331 78.3188 51.4775 78.2679 51.7546 78.2679C51.948 78.2679 52.1244 78.2966 52.2838 78.3541C52.4459 78.409 52.5857 78.4966 52.7033 78.6168C52.8236 78.737 52.9151 78.8912 52.9778 79.0794C53.0431 79.2676 53.0758 79.495 53.0758 79.7616V82.5884H52.1309V79.844C52.1309 79.6375 52.0996 79.4754 52.0368 79.3578C51.9767 79.2402 51.8892 79.1565 51.7742 79.1069C51.6618 79.0546 51.5272 79.0285 51.3703 79.0285C51.1926 79.0285 51.041 79.0624 50.9155 79.1304C50.7927 79.1984 50.6921 79.2911 50.6137 79.4088C50.5352 79.5264 50.4777 79.6623 50.4411 79.8165C50.4046 79.9707 50.3863 80.1354 50.3863 80.3105ZM53.017 80.0596L52.574 80.1576C52.574 79.9015 52.6092 79.6597 52.6798 79.4323C52.753 79.2023 52.8589 79.001 52.9974 78.8285C53.1385 78.6534 53.3123 78.5162 53.5188 78.4168C53.7253 78.3175 53.9619 78.2679 54.2285 78.2679C54.4454 78.2679 54.6388 78.2979 54.8087 78.358C54.9812 78.4155 55.1276 78.507 55.2478 78.6325C55.3681 78.7579 55.4595 78.9213 55.5223 79.1226C55.585 79.3212 55.6164 79.5617 55.6164 79.844V82.5884H54.6676V79.84C54.6676 79.6257 54.6362 79.4597 54.5735 79.3421C54.5134 79.2245 54.4271 79.1435 54.3147 79.099C54.2023 79.052 54.0677 79.0285 53.9109 79.0285C53.7645 79.0285 53.6351 79.0559 53.5227 79.1108C53.413 79.1631 53.3202 79.2376 53.2444 79.3343C53.1686 79.4284 53.1111 79.5368 53.0719 79.6597C53.0353 79.7825 53.017 79.9158 53.017 80.0596ZM57.6808 79.1618V84.2194H56.736V78.3463H57.6063L57.6808 79.1618ZM60.4449 80.4281V80.5105C60.4449 80.8189 60.4083 81.1051 60.3351 81.3691C60.2645 81.6304 60.1587 81.8591 60.0175 82.0552C59.879 82.2486 59.7078 82.3989 59.5039 82.506C59.3 82.6132 59.0648 82.6668 58.7982 82.6668C58.5342 82.6668 58.3029 82.6184 58.1043 82.5217C57.9082 82.4224 57.7423 82.2826 57.6063 82.1022C57.4704 81.9219 57.3607 81.7102 57.277 81.4671C57.196 81.2214 57.1385 80.9522 57.1045 80.6594V80.3419C57.1385 80.0308 57.196 79.7485 57.277 79.495C57.3607 79.2415 57.4704 79.0232 57.6063 78.8403C57.7423 78.6573 57.9082 78.5162 58.1043 78.4168C58.3003 78.3175 58.529 78.2679 58.7904 78.2679C59.057 78.2679 59.2935 78.3201 59.5 78.4247C59.7065 78.5266 59.8803 78.673 60.0214 78.8638C60.1626 79.052 60.2684 79.2794 60.339 79.546C60.4096 79.81 60.4449 80.104 60.4449 80.4281ZM59.5 80.5105V80.4281C59.5 80.2321 59.4817 80.0504 59.4451 79.8832C59.4085 79.7133 59.351 79.5643 59.2726 79.4362C59.1942 79.3081 59.0936 79.2088 58.9707 79.1382C58.8505 79.0651 58.7054 79.0285 58.5355 79.0285C58.3683 79.0285 58.2245 79.0572 58.1043 79.1147C57.984 79.1696 57.8834 79.2467 57.8024 79.346C57.7214 79.4454 57.6586 79.5617 57.6142 79.695C57.5698 79.8257 57.5384 79.9681 57.5201 80.1223V80.8829C57.5515 81.0711 57.605 81.2436 57.6808 81.4004C57.7566 81.5573 57.8638 81.6827 58.0023 81.7768C58.1435 81.8683 58.3238 81.914 58.5434 81.914C58.7133 81.914 58.8583 81.8774 58.9786 81.8043C59.0988 81.7311 59.1968 81.6304 59.2726 81.5024C59.351 81.3717 59.4085 81.2214 59.4451 81.0515C59.4817 80.8816 59.5 80.7013 59.5 80.5105ZM63.2621 82.6668C62.9485 82.6668 62.6649 82.6158 62.4113 82.5139C62.1604 82.4093 61.9461 82.2643 61.7684 82.0787C61.5932 81.8931 61.4586 81.6749 61.3645 81.424C61.2704 81.173 61.2234 80.9025 61.2234 80.6124V80.4556C61.2234 80.1236 61.2717 79.823 61.3685 79.5538C61.4652 79.2846 61.5998 79.0546 61.7723 78.8638C61.9448 78.6704 62.1487 78.5227 62.3839 78.4208C62.6191 78.3188 62.874 78.2679 63.1484 78.2679C63.4516 78.2679 63.7169 78.3188 63.9443 78.4208C64.1717 78.5227 64.3599 78.6665 64.5089 78.852C64.6605 79.035 64.7729 79.2532 64.846 79.5068C64.9218 79.7603 64.9597 80.04 64.9597 80.3458V80.7496H61.6821V80.0713H64.0266V79.9969C64.0214 79.827 63.9874 79.6675 63.9247 79.5185C63.8646 79.3696 63.7718 79.2493 63.6463 79.1578C63.5209 79.0664 63.3536 79.0206 63.1445 79.0206C62.9877 79.0206 62.8478 79.0546 62.725 79.1226C62.6048 79.1879 62.5041 79.2833 62.4231 79.4088C62.3421 79.5342 62.2793 79.6858 62.2349 79.8636C62.1931 80.0387 62.1722 80.236 62.1722 80.4556V80.6124C62.1722 80.798 62.197 80.9705 62.2467 81.1299C62.2989 81.2867 62.3747 81.424 62.4741 81.5416C62.5734 81.6592 62.6936 81.752 62.8348 81.8199C62.9759 81.8853 63.1366 81.918 63.317 81.918C63.5444 81.918 63.747 81.8722 63.9247 81.7807C64.1024 81.6893 64.2566 81.5599 64.3873 81.3926L64.8852 81.8748C64.7938 82.0081 64.6748 82.1362 64.5285 82.259C64.3821 82.3793 64.2031 82.4773 63.9913 82.5531C63.7822 82.6289 63.5392 82.6668 63.2621 82.6668ZM66.789 79.1539V82.5884H65.8441V78.3463H66.7459L66.789 79.1539ZM68.0867 78.3188L68.0789 79.197C68.0214 79.1866 67.9586 79.1788 67.8907 79.1735C67.8253 79.1683 67.76 79.1657 67.6946 79.1657C67.5326 79.1657 67.3901 79.1892 67.2673 79.2363C67.1444 79.2807 67.0412 79.346 66.9576 79.4323C66.8765 79.5159 66.8138 79.6179 66.7694 79.7381C66.7249 79.8583 66.6988 79.9929 66.691 80.1419L66.4753 80.1576C66.4753 79.891 66.5015 79.644 66.5537 79.4166C66.606 79.1892 66.6844 78.9893 66.789 78.8168C66.8961 78.6442 67.0294 78.5096 67.1889 78.4129C67.3509 78.3162 67.5378 78.2679 67.7495 78.2679C67.807 78.2679 67.8685 78.2731 67.9338 78.2835C68.0018 78.294 68.0527 78.3058 68.0867 78.3188ZM71.0725 81.7376V79.7146C71.0725 79.563 71.0451 79.4323 70.9902 79.3225C70.9353 79.2127 70.8517 79.1278 70.7393 79.0677C70.6295 79.0076 70.491 78.9775 70.3237 78.9775C70.1695 78.9775 70.0362 79.0036 69.9238 79.0559C69.8114 79.1082 69.7238 79.1788 69.6611 79.2676C69.5984 79.3565 69.567 79.4571 69.567 79.5695H68.6261C68.6261 79.4022 68.6666 79.2402 68.7476 79.0834C68.8286 78.9265 68.9462 78.7867 69.1005 78.6638C69.2547 78.541 69.4389 78.4443 69.6533 78.3737C69.8676 78.3032 70.1081 78.2679 70.3747 78.2679C70.6935 78.2679 70.9758 78.3214 71.2215 78.4286C71.4698 78.5358 71.6645 78.6978 71.8057 78.9148C71.9494 79.1291 72.0213 79.3983 72.0213 79.7224V81.6082C72.0213 81.8016 72.0344 81.9755 72.0605 82.1297C72.0893 82.2813 72.1298 82.4133 72.1821 82.5256V82.5884H71.2137C71.1692 82.4864 71.1339 82.3571 71.1078 82.2002C71.0843 82.0408 71.0725 81.8866 71.0725 81.7376ZM71.2097 80.0086L71.2176 80.5928H70.5393C70.3642 80.5928 70.21 80.6098 70.0767 80.6438C69.9434 80.6751 69.8323 80.7222 69.7434 80.7849C69.6546 80.8476 69.5879 80.9234 69.5435 81.0123C69.4991 81.1012 69.4768 81.2018 69.4768 81.3142C69.4768 81.4266 69.503 81.5298 69.5552 81.6239C69.6075 81.7154 69.6833 81.7873 69.7826 81.8395C69.8846 81.8918 70.0074 81.918 70.1512 81.918C70.3446 81.918 70.5132 81.8787 70.6569 81.8003C70.8033 81.7193 70.9183 81.6213 71.002 81.5063C71.0856 81.3887 71.13 81.2776 71.1353 81.173L71.4411 81.5925C71.4097 81.6997 71.3561 81.8147 71.2803 81.9376C71.2045 82.0604 71.1052 82.178 70.9824 82.2904C70.8621 82.4002 70.7171 82.4904 70.5472 82.5609C70.3799 82.6315 70.1865 82.6668 69.9669 82.6668C69.6899 82.6668 69.4429 82.6119 69.2259 82.5021C69.009 82.3897 68.8391 82.2394 68.7162 82.0513C68.5934 81.8605 68.532 81.6448 68.532 81.4044C68.532 81.1796 68.5738 80.9809 68.6574 80.8084C68.7437 80.6333 68.8691 80.4869 69.0338 80.3693C69.2011 80.2517 69.405 80.1628 69.6454 80.1027C69.8859 80.04 70.1603 80.0086 70.4688 80.0086H71.2097ZM75.0973 78.3463V79.0363H72.7057V78.3463H75.0973ZM73.3958 77.3073H74.3406V81.4161C74.3406 81.5468 74.3589 81.6474 74.3955 81.718C74.4347 81.786 74.4883 81.8317 74.5563 81.8552C74.6242 81.8787 74.7039 81.8905 74.7954 81.8905C74.8608 81.8905 74.9235 81.8866 74.9836 81.8787C75.0437 81.8709 75.0921 81.8631 75.1287 81.8552L75.1326 82.5766C75.0542 82.6001 74.9627 82.6211 74.8582 82.6393C74.7562 82.6576 74.6386 82.6668 74.5053 82.6668C74.2884 82.6668 74.0963 82.6289 73.929 82.5531C73.7617 82.4747 73.631 82.3479 73.5369 82.1728C73.4428 81.9977 73.3958 81.7651 73.3958 81.4749V77.3073ZM78.5222 81.5886V78.3463H79.471V82.5884H78.5771L78.5222 81.5886ZM78.6555 80.7065L78.9731 80.6986C78.9731 80.9835 78.9418 81.2462 78.879 81.4867C78.8163 81.7245 78.7196 81.9323 78.5889 82.1101C78.4582 82.2852 78.2909 82.4224 78.0871 82.5217C77.8832 82.6184 77.6388 82.6668 77.3539 82.6668C77.1474 82.6668 76.9579 82.6367 76.7854 82.5766C76.6129 82.5165 76.4639 82.4237 76.3385 82.2983C76.2156 82.1728 76.1202 82.0094 76.0523 81.8082C75.9843 81.6069 75.9503 81.3665 75.9503 81.0868V78.3463H76.8952V81.0946C76.8952 81.2488 76.9135 81.3782 76.9501 81.4828C76.9867 81.5847 77.0363 81.667 77.0991 81.7298C77.1618 81.7925 77.235 81.8369 77.3186 81.8631C77.4023 81.8892 77.4911 81.9023 77.5852 81.9023C77.8544 81.9023 78.0661 81.85 78.2204 81.7454C78.3772 81.6383 78.4883 81.4945 78.5536 81.3142C78.6216 81.1338 78.6555 80.9313 78.6555 80.7065ZM81.5316 79.1539V82.5884H80.5867V78.3463H81.4885L81.5316 79.1539ZM82.8293 78.3188L82.8215 79.197C82.764 79.1866 82.7012 79.1788 82.6333 79.1735C82.5679 79.1683 82.5026 79.1657 82.4373 79.1657C82.2752 79.1657 82.1328 79.1892 82.0099 79.2363C81.8871 79.2807 81.7838 79.346 81.7002 79.4323C81.6192 79.5159 81.5564 79.6179 81.512 79.7381C81.4676 79.8583 81.4414 79.9929 81.4336 80.1419L81.2179 80.1576C81.2179 79.891 81.2441 79.644 81.2964 79.4166C81.3486 79.1892 81.427 78.9893 81.5316 78.8168C81.6388 78.6442 81.7721 78.5096 81.9315 78.4129C82.0936 78.3162 82.2804 78.2679 82.4921 78.2679C82.5496 78.2679 82.6111 78.2731 82.6764 78.2835C82.7444 78.294 82.7953 78.3058 82.8293 78.3188ZM85.3564 82.6668C85.0428 82.6668 84.7592 82.6158 84.5057 82.5139C84.2547 82.4093 84.0404 82.2643 83.8627 82.0787C83.6876 81.8931 83.553 81.6749 83.4589 81.424C83.3648 81.173 83.3177 80.9025 83.3177 80.6124V80.4556C83.3177 80.1236 83.3661 79.823 83.4628 79.5538C83.5595 79.2846 83.6941 79.0546 83.8666 78.8638C84.0391 78.6704 84.243 78.5227 84.4782 78.4208C84.7135 78.3188 84.9683 78.2679 85.2427 78.2679C85.5459 78.2679 85.8112 78.3188 86.0386 78.4208C86.266 78.5227 86.4542 78.6665 86.6032 78.852C86.7548 79.035 86.8672 79.2532 86.9404 79.5068C87.0162 79.7603 87.0541 80.04 87.0541 80.3458V80.7496H83.7764V80.0713H86.121V79.9969C86.1157 79.827 86.0817 79.6675 86.019 79.5185C85.9589 79.3696 85.8661 79.2493 85.7407 79.1578C85.6152 79.0664 85.4479 79.0206 85.2388 79.0206C85.082 79.0206 84.9422 79.0546 84.8193 79.1226C84.6991 79.1879 84.5984 79.2833 84.5174 79.4088C84.4364 79.5342 84.3737 79.6858 84.3292 79.8636C84.2874 80.0387 84.2665 80.236 84.2665 80.4556V80.6124C84.2665 80.798 84.2913 80.9705 84.341 81.1299C84.3933 81.2867 84.4691 81.424 84.5684 81.5416C84.6677 81.6592 84.7879 81.752 84.9291 81.8199C85.0702 81.8853 85.231 81.918 85.4113 81.918C85.6387 81.918 85.8413 81.8722 86.019 81.7807C86.1968 81.6893 86.351 81.5599 86.4816 81.3926L86.9796 81.8748C86.8881 82.0081 86.7692 82.1362 86.6228 82.259C86.4764 82.3793 86.2974 82.4773 86.0857 82.5531C85.8766 82.6289 85.6335 82.6668 85.3564 82.6668Z" fill="black" fill-opacity="0.87"/>
</g>
<defs>
<filter id="filter0_d_1142_203969" x="0.911765" y="0.205882" width="126.176" height="126.176" filterUnits="userSpaceOnUse" color-interpolation-filters="sRGB">
<feFlood flood-opacity="0" result="BackgroundImageFix"/>
<feColorMatrix in="SourceAlpha" type="matrix" values="0 0 0 0 0 0 0 0 0 0 0 0 0 0 0 0 0 0 127 0" result="hardAlpha"/>
<feOffset dy="2.29412"/>
<feGaussianBlur stdDeviation="2.29412"/>
<feComposite in2="hardAlpha" operator="out"/>
<feColorMatrix type="matrix" values="0 0 0 0 0 0 0 0 0 0 0 0 0 0 0 0 0 0 0.04 0"/>
<feBlend mode="normal" in2="BackgroundImageFix" result="effect1_dropShadow_1142_203969"/>
<feBlend mode="normal" in="SourceGraphic" in2="effect1_dropShadow_1142_203969" result="shape"/>
</filter>
</defs>
</svg>
