<?xml version="1.0" encoding="UTF-8"?>
<svg width="128" height="127" fill="none" version="1.1" viewBox="0 0 128 127" xmlns="http://www.w3.org/2000/svg">
 <g filter="url(#filter0_d_1142_203954)">
  <rect x="5.5" y="2.5" width="117" height="117" rx="2.2941" fill="#fff" shape-rendering="crispEdges"/>
  <path d="m33.603 29.221v-7.6471c0-1.5868-1.2808-2.8676-2.8676-2.8676s-2.8677 1.2808-2.8677 2.8676v7.6471c-1.1566 0.8698-1.9117 2.2654-1.9117 3.8235 0 2.6382 2.1412 4.7794 4.7794 4.7794s4.7794-2.1412 4.7794-4.7794c0-1.5581-0.7551-2.9537-1.9118-3.8235zm-3.8235-7.6471c0-0.5257 0.4302-0.9559 0.9559-0.9559s0.9559 0.4302 0.9559 0.9559h-0.9559v0.9559h0.9559v1.9117h-0.9559v0.9559h0.9559v1.9118h-1.9118v-5.7353z" fill="#5469FF"/>
  <g fill="#000">
   <path d="m50.141 19.741v6.5238h-1.1157v-6.5238h1.1157zm2.0477 0v0.8961h-5.1932v-0.8961h5.1932zm2.6033 6.6135c-0.3585 0-0.6826-0.0583-0.9723-0.1748-0.2868-0.1195-0.5318-0.2853-0.7349-0.4973-0.2001-0.2121-0.354-0.4616-0.4615-0.7483-0.1075-0.2868-0.1613-0.596-0.1613-0.9275v-0.1793c0-0.3793 0.0553-0.7228 0.1658-1.0305s0.2643-0.5706 0.4615-0.7886c0.1971-0.2211 0.4301-0.3898 0.699-0.5063 0.2688-0.1165 0.5601-0.1748 0.8737-0.1748 0.3465 0 0.6497 0.0583 0.9096 0.1748s0.475 0.2808 0.6452 0.4928c0.1733 0.2091 0.3017 0.4586 0.3854 0.7483 0.0866 0.2898 0.1299 0.6094 0.1299 0.9589v0.4615h-3.7459v-0.7752h2.6795v-0.0851c-6e-3 -0.1942-0.0448-0.3764-0.1165-0.5466-0.0687-0.1703-0.1747-0.3077-0.3181-0.4123-0.1434-0.1045-0.3346-0.1568-0.5736-0.1568-0.1792 0-0.339 0.0388-0.4794 0.1165-0.1374 0.0747-0.2524 0.1837-0.345 0.3271s-0.1643 0.3166-0.2151 0.5198c-0.0478 0.2001-0.0717 0.4256-0.0717 0.6765v0.1793c0 0.2121 0.0284 0.4092 0.0852 0.5914 0.0597 0.1793 0.1463 0.3361 0.2598 0.4705 0.1136 0.1344 0.251 0.2405 0.4123 0.3181 0.1613 0.0747 0.345 0.112 0.5511 0.112 0.2599 0 0.4914-0.0522 0.6945-0.1568 0.2031-0.1045 0.3794-0.2524 0.5287-0.4436l0.5691 0.5512c-0.1046 0.1523-0.2405 0.2987-0.4078 0.4391-0.1673 0.1374-0.3719 0.2494-0.6138 0.336-0.239 0.0866-0.5168 0.13-0.8334 0.13zm4.0057-3.952v3.8623h-1.0798v-4.8481h1.0171l0.0627 0.9858zm-0.1747 1.2591-0.3675-0.0045c0-0.3346 0.0419-0.6437 0.1255-0.9275s0.2061-0.5302 0.3674-0.7393c0.1613-0.2121 0.3615-0.3749 0.6004-0.4884 0.242-0.1165 0.5213-0.1748 0.8379-0.1748 0.2211 0 0.4227 0.0329 0.6049 0.0986 0.1852 0.0627 0.345 0.1628 0.4795 0.3002 0.1374 0.1374 0.2419 0.3136 0.3136 0.5287 0.0747 0.2151 0.112 0.475 0.112 0.7797v3.2305h-1.0798v-3.1364c0-0.236-0.0359-0.4212-0.1076-0.5556-0.0687-0.1345-0.1687-0.2301-0.3002-0.2868-0.1284-0.0598-0.2823-0.0896-0.4615-0.0896-0.2031 0-0.3764 0.0388-0.5197 0.1165-0.1404 0.0776-0.2554 0.1837-0.3451 0.3181-0.0896 0.1344-0.1553 0.2898-0.1971 0.466s-0.0627 0.3644-0.0627 0.5646zm3.0065-0.2868-0.5063 0.112c0-0.2927 0.0403-0.569 0.121-0.8289 0.0836-0.2629 0.2046-0.4929 0.3629-0.69 0.1613-0.2002 0.36-0.357 0.5959-0.4705 0.236-0.1135 0.5064-0.1703 0.811-0.1703 0.248 0 0.469 0.0344 0.6632 0.1031 0.1971 0.0657 0.3644 0.1702 0.5018 0.3136s0.242 0.3301 0.3137 0.5601c0.0717 0.227 0.1075 0.5018 0.1075 0.8245v3.1364h-1.0843v-3.1409c0-0.245-0.0359-0.4346-0.1076-0.5691-0.0687-0.1344-0.1672-0.227-0.2957-0.2778-0.1284-0.0537-0.2823-0.0806-0.4615-0.0806-0.1673 0-0.3151 0.0313-0.4436 0.0941-0.1254 0.0597-0.2315 0.1448-0.3181 0.2554-0.0866 0.1075-0.1524 0.2315-0.1972 0.3719-0.0418 0.1404-0.0627 0.2927-0.0627 0.457zm5.3096-1.0261v5.7801h-1.0798v-6.7121h0.9947l0.0851 0.932zm3.1589 1.4473v0.0941c0 0.3525-0.0418 0.6796-0.1254 0.9813-0.0807 0.2987-0.2017 0.56-0.363 0.7841-0.1583 0.221-0.3539 0.3928-0.5869 0.5153-0.233 0.1224-0.5019 0.1837-0.8066 0.1837-0.3017 0-0.566-0.0553-0.793-0.1658-0.2241-0.1135-0.4138-0.2733-0.5691-0.4795-0.1553-0.2061-0.2808-0.448-0.3764-0.7258-0.0926-0.2808-0.1583-0.5885-0.1971-0.9231v-0.3629c0.0388-0.3555 0.1045-0.6781 0.1971-0.9678 0.0956-0.2898 0.2211-0.5392 0.3764-0.7483s0.345-0.3704 0.5691-0.4839c0.224-0.1135 0.4854-0.1703 0.7841-0.1703 0.3047 0 0.575 0.0598 0.811 0.1792 0.236 0.1165 0.4346 0.2838 0.5959 0.5019 0.1613 0.2151 0.2823 0.4749 0.3629 0.7796 0.0807 0.3017 0.121 0.6378 0.121 1.0082zm-1.0798 0.0941v-0.0941c0-0.2241-0.0209-0.4317-0.0627-0.6228-0.0419-0.1942-0.1076-0.3645-0.1972-0.5108-0.0896-0.1464-0.2046-0.2599-0.345-0.3406-0.1374-0.0836-0.3032-0.1254-0.4974-0.1254-0.1911 0-0.3554 0.0328-0.4928 0.0985-0.1375 0.0628-0.2525 0.1509-0.3451 0.2644s-0.1643 0.2464-0.215 0.3988c-0.0508 0.1493-0.0867 0.3121-0.1076 0.4884v0.8692c0.0359 0.2151 0.0971 0.4123 0.1837 0.5915 0.0867 0.1792 0.2091 0.3226 0.3675 0.4301 0.1613 0.1046 0.3674 0.1569 0.6183 0.1569 0.1942 0 0.3599-0.0419 0.4973-0.1255 0.1375-0.0836 0.2495-0.1986 0.3361-0.345 0.0896-0.1494 0.1553-0.3211 0.1972-0.5153 0.0418-0.1941 0.0627-0.4003 0.0627-0.6183zm4.279 2.4644c-0.3584 0-0.6825-0.0583-0.9723-0.1748-0.2867-0.1195-0.5317-0.2853-0.7348-0.4973-0.2001-0.2121-0.354-0.4616-0.4615-0.7483-0.1075-0.2868-0.1613-0.596-0.1613-0.9275v-0.1793c0-0.3793 0.0552-0.7228 0.1658-1.0305 0.1105-0.3077 0.2643-0.5706 0.4615-0.7886 0.1971-0.2211 0.4301-0.3898 0.699-0.5063 0.2688-0.1165 0.5601-0.1748 0.8737-0.1748 0.3465 0 0.6497 0.0583 0.9096 0.1748s0.4749 0.2808 0.6452 0.4928c0.1733 0.2091 0.3017 0.4586 0.3853 0.7483 0.0867 0.2898 0.13 0.6094 0.13 0.9589v0.4615h-3.7459v-0.7752h2.6795v-0.0851c-6e-3 -0.1942-0.0448-0.3764-0.1165-0.5466-0.0687-0.1703-0.1748-0.3077-0.3181-0.4123-0.1434-0.1045-0.3346-0.1568-0.5736-0.1568-0.1792 0-0.339 0.0388-0.4794 0.1165-0.1374 0.0747-0.2524 0.1837-0.345 0.3271s-0.1643 0.3166-0.2151 0.5198c-0.0478 0.2001-0.0717 0.4256-0.0717 0.6765v0.1793c0 0.2121 0.0284 0.4092 0.0851 0.5914 0.0598 0.1793 0.1464 0.3361 0.2599 0.4705s0.2509 0.2405 0.4123 0.3181c0.1613 0.0747 0.345 0.112 0.5511 0.112 0.2599 0 0.4914-0.0522 0.6945-0.1568 0.2031-0.1045 0.3794-0.2524 0.5287-0.4436l0.5691 0.5512c-0.1046 0.1523-0.2405 0.2987-0.4078 0.4391-0.1673 0.1374-0.3719 0.2494-0.6138 0.336-0.239 0.0866-0.5168 0.13-0.8335 0.13zm4.0103-4.0147v3.925h-1.0799v-4.8481h1.0306l0.0493 0.9231zm1.4831-0.9544-9e-3 1.0036c-0.0657-0.0119-0.1374-0.0209-0.2151-0.0268-0.0746-6e-3 -0.1493-9e-3 -0.224-9e-3 -0.1852 0-0.348 0.0269-0.4884 0.0807-0.1404 0.0507-0.2584 0.1254-0.354 0.224-0.0926 0.0956-0.1643 0.2121-0.215 0.3495-0.0508 0.1374-0.0807 0.2912-0.0896 0.4615l-0.2465 0.0179c0-0.3047 0.0299-0.587 0.0896-0.8468 0.0598-0.2599 0.1494-0.4884 0.2689-0.6856 0.1224-0.1971 0.2748-0.351 0.457-0.4615 0.1852-0.1105 0.3988-0.1658 0.6407-0.1658 0.0658 0 0.136 6e-3 0.2106 0.0179 0.0777 0.012 0.136 0.0254 0.1748 0.0404zm3.3919 3.9071v-2.312c0-0.1733-0.0314-0.3226-0.0941-0.4481-0.0628-0.1254-0.1583-0.2225-0.2868-0.2912-0.1254-0.0687-0.2838-0.1031-0.4749-0.1031-0.1763 0-0.3286 0.0299-0.4571 0.0896-0.1284 0.0598-0.2285 0.1404-0.3002 0.242s-0.1075 0.2166-0.1075 0.345h-1.0754c0-0.1912 0.0463-0.3764 0.1389-0.5556s0.227-0.339 0.4033-0.4794c0.1762-0.1404 0.3868-0.2509 0.6318-0.3316 0.2449-0.0807 0.5197-0.121 0.8244-0.121 0.3644 0 0.687 0.0613 0.9678 0.1837 0.2838 0.1225 0.5064 0.3077 0.6677 0.5556 0.1643 0.245 0.2464 0.5527 0.2464 0.9231v2.1552c0 0.221 0.0149 0.4197 0.0448 0.5959 0.0329 0.1733 0.0792 0.3241 0.1389 0.4526v0.0716h-1.1067c-0.0508-0.1164-0.0911-0.2643-0.121-0.4435-0.0269-0.1823-0.0403-0.3585-0.0403-0.5288zm0.1568-1.976 9e-3 0.6677h-0.7752c-0.2001 0-0.3764 0.0194-0.5287 0.0582-0.1524 0.0359-0.2793 0.0896-0.3809 0.1613-0.1015 0.0717-0.1777 0.1583-0.2285 0.2599s-0.0762 0.2166-0.0762 0.345c0 0.1285 0.0299 0.2465 0.0896 0.354 0.0598 0.1045 0.1464 0.1867 0.2599 0.2464 0.1165 0.0598 0.2569 0.0896 0.4212 0.0896 0.2211 0 0.4137-0.0448 0.578-0.1344 0.1673-0.0926 0.2987-0.2046 0.3943-0.336 0.0956-0.1344 0.1464-0.2614 0.1524-0.3809l0.3495 0.4795c-0.0359 0.1224-0.0971 0.2539-0.1838 0.3943-0.0866 0.1403-0.2001 0.2748-0.3405 0.4032-0.1374 0.1255-0.3032 0.2285-0.4973 0.3092-0.1912 0.0806-0.4123 0.121-0.6632 0.121-0.3166 0-0.5989-0.0628-0.8468-0.1882-0.248-0.1285-0.4421-0.3002-0.5825-0.5153-0.1404-0.2181-0.2106-0.4645-0.2106-0.7393 0-0.2569 0.0478-0.4839 0.1434-0.6811 0.0985-0.2001 0.2419-0.3674 0.4301-0.5018 0.1912-0.1344 0.4242-0.236 0.699-0.3047 0.2748-0.0717 0.5885-0.1076 0.9409-0.1076h0.8469zm4.4224-1.8998v0.7886h-2.7332v-0.7886h2.7332zm-1.9446-1.1874h1.0799v4.6958c0 0.1494 0.0209 0.2644 0.0627 0.345 0.0448 0.0777 0.106 0.13 0.1837 0.1569 0.0777 0.0268 0.1688 0.0403 0.2733 0.0403 0.0747 0 0.1464-0.0045 0.2151-0.0135 0.0687-0.0089 0.124-0.0179 0.1658-0.0268l0.0045 0.8244c-0.0896 0.0269-0.1942 0.0508-0.3137 0.0717-0.1165 0.0209-0.2509 0.0314-0.4032 0.0314-0.248 0-0.4675-0.0434-0.6587-0.13-0.1912-0.0896-0.3405-0.2345-0.4481-0.4346-0.1075-0.2001-0.1613-0.466-0.1613-0.7976v-4.763zm5.8384 4.893v-3.7056h1.0843v4.8481h-1.0216l-0.0627-1.1425zm0.1523-1.0082 0.363-0.0089c0 0.3255-0.0359 0.6258-0.1076 0.9006-0.0717 0.2718-0.1822 0.5093-0.3316 0.7124-0.1493 0.2001-0.3405 0.357-0.5735 0.4705-0.233 0.1105-0.5123 0.1658-0.8379 0.1658-0.236 0-0.4525-0.0344-0.6497-0.1031-0.1971-0.0687-0.3674-0.1747-0.5108-0.3181-0.1404-0.1434-0.2494-0.3301-0.3271-0.5601-0.0776-0.23-0.1165-0.5048-0.1165-0.8245v-3.132h1.0799v3.141c0 0.1762 0.0209 0.3241 0.0627 0.4436 0.0418 0.1165 0.0986 0.2106 0.1703 0.2823s0.1553 0.1224 0.2509 0.1523 0.1971 0.0448 0.3047 0.0448c0.3077 0 0.5496-0.0597 0.7259-0.1792 0.1792-0.1225 0.3061-0.2868 0.3808-0.4929 0.0777-0.2061 0.1165-0.4376 0.1165-0.6945zm3.2664-1.7743v3.925h-1.0798v-4.8481h1.0306l0.0492 0.9231zm1.4832-0.9544-9e-3 1.0036c-0.0657-0.0119-0.1374-0.0209-0.2151-0.0268-0.0747-6e-3 -0.1493-9e-3 -0.224-9e-3 -0.1852 0-0.348 0.0269-0.4884 0.0807-0.1404 0.0507-0.2584 0.1254-0.354 0.224-0.0926 0.0956-0.1643 0.2121-0.2151 0.3495-0.0507 0.1374-0.0806 0.2912-0.0896 0.4615l-0.2464 0.0179c0-0.3047 0.0299-0.587 0.0896-0.8468 0.0597-0.2599 0.1494-0.4884 0.2688-0.6856 0.1225-0.1971 0.2749-0.351 0.4571-0.4615 0.1852-0.1105 0.3988-0.1658 0.6407-0.1658 0.0657 0 0.1359 6e-3 0.2106 0.0179 0.0777 0.012 0.1359 0.0254 0.1748 0.0404zm2.8676 4.9691c-0.3585 0-0.6826-0.0583-0.9723-0.1748-0.2868-0.1195-0.5317-0.2853-0.7348-0.4973-0.2002-0.2121-0.354-0.4616-0.4616-0.7483-0.1075-0.2868-0.1613-0.596-0.1613-0.9275v-0.1793c0-0.3793 0.0553-0.7228 0.1658-1.0305 0.1106-0.3077 0.2644-0.5706 0.4615-0.7886 0.1972-0.2211 0.4302-0.3898 0.699-0.5063 0.2689-0.1165 0.5601-0.1748 0.8738-0.1748 0.3465 0 0.6497 0.0583 0.9095 0.1748 0.2599 0.1165 0.475 0.2808 0.6453 0.4928 0.1729 0.2091 0.3019 0.4586 0.3849 0.7483 0.087 0.2898 0.13 0.6094 0.13 0.9589v0.4615h-3.7455v-0.7752h2.6794v-0.0851c-0.0059-0.1942-0.0448-0.3764-0.1165-0.5466-0.0687-0.1703-0.1747-0.3077-0.3181-0.4123-0.1434-0.1045-0.3345-0.1568-0.5735-0.1568-0.1792 0-0.3391 0.0388-0.4795 0.1165-0.1374 0.0747-0.2524 0.1837-0.345 0.3271s-0.1643 0.3166-0.215 0.5198c-0.0478 0.2001-0.0717 0.4256-0.0717 0.6765v0.1793c0 0.2121 0.0283 0.4092 0.0851 0.5914 0.0597 0.1793 0.1464 0.3361 0.2599 0.4705s0.2509 0.2405 0.4122 0.3181c0.1613 0.0747 0.345 0.112 0.5511 0.112 0.2599 0 0.4914-0.0522 0.6945-0.1568 0.2032-0.1045 0.3794-0.2524 0.5288-0.4436l0.5688 0.5512c-0.104 0.1523-0.24 0.2987-0.4075 0.4391-0.1673 0.1374-0.3719 0.2494-0.6139 0.336-0.239 0.0866-0.5168 0.13-0.8334 0.13z" fill-opacity=".87"/>
   <path d="m50.356 36.596v0.6687h-2.4566v-0.6687h2.4566zm-2.2213-4.2242v4.8929h-0.8435v-4.8929h0.8435zm4.9859 4.1637v-1.734c0-0.13-0.0236-0.242-0.0706-0.3361-0.0471-0.0941-0.1187-0.1669-0.2151-0.2184-0.0941-0.0515-0.2128-0.0773-0.3562-0.0773-0.1322 0-0.2464 0.0224-0.3428 0.0672-0.0963 0.0448-0.1714 0.1053-0.2251 0.1815-0.0538 0.0762-0.0807 0.1624-0.0807 0.2587h-0.8065c0-0.1433 0.0347-0.2822 0.1042-0.4167 0.0694-0.1344 0.1702-0.2542 0.3024-0.3595s0.2901-0.1882 0.4739-0.2487c0.1837-0.0605 0.3898-0.0907 0.6183-0.0907 0.2733 0 0.5153 0.0459 0.7259 0.1377 0.2128 0.0919 0.3797 0.2308 0.5007 0.4167 0.1232 0.1837 0.1848 0.4145 0.1848 0.6923v1.6164c0 0.1658 0.0112 0.3148 0.0336 0.447 0.0247 0.1299 0.0594 0.243 0.1042 0.3394v0.0537h-0.8301c-0.038-0.0873-0.0683-0.1982-0.0907-0.3326-0.0202-0.1367-0.0302-0.2689-0.0302-0.3966zm0.1176-1.482 0.0067 0.5007h-0.5814c-0.1501 0-0.2823 0.0146-0.3965 0.0437-0.1143 0.0269-0.2095 0.0672-0.2857 0.121-0.0761 0.0538-0.1333 0.1187-0.1713 0.1949-0.0381 0.0762-0.0572 0.1624-0.0572 0.2588 0 0.0963 0.0224 0.1848 0.0672 0.2655 0.0448 0.0784 0.1098 0.14 0.1949 0.1848 0.0874 0.0448 0.1927 0.0672 0.3159 0.0672 0.1658 0 0.3103-0.0336 0.4335-0.1008 0.1255-0.0695 0.2241-0.1535 0.2958-0.2521 0.0717-0.1008 0.1097-0.196 0.1142-0.2856l0.2622 0.3596c-0.0269 0.0918-0.0729 0.1904-0.1378 0.2957-0.065 0.1053-0.1501 0.2061-0.2554 0.3024-0.1031 0.0941-0.2274 0.1714-0.373 0.2319-0.1434 0.0605-0.3092 0.0908-0.4974 0.0908-0.2375 0-0.4492-0.0471-0.6351-0.1412-0.186-0.0963-0.3316-0.2251-0.4369-0.3864-0.1053-0.1636-0.158-0.3484-0.158-0.5545 0-0.1927 0.0359-0.363 0.1076-0.5108 0.0739-0.1501 0.1814-0.2756 0.3226-0.3764 0.1434-0.1008 0.3181-0.177 0.5242-0.2285 0.2061-0.0538 0.4414-0.0807 0.7057-0.0807h0.6352zm3.7257 1.2266c0-0.0806-0.0202-0.1534-0.0605-0.2184-0.0403-0.0672-0.1176-0.1277-0.2319-0.1815-0.112-0.0538-0.2778-0.103-0.4973-0.1479-0.1927-0.0425-0.3697-0.0929-0.531-0.1512-0.1591-0.0605-0.2957-0.1333-0.41-0.2184-0.1142-0.0851-0.2027-0.186-0.2655-0.3025-0.0627-0.1165-0.0941-0.2509-0.0941-0.4032 0-0.1479 0.0325-0.2879 0.0975-0.4201s0.1579-0.2487 0.2789-0.3495 0.2677-0.1803 0.4402-0.2386c0.1748-0.0582 0.3697-0.0873 0.5848-0.0873 0.3047 0 0.5657 0.0515 0.783 0.1545 0.2195 0.1009 0.3876 0.2386 0.5041 0.4134 0.1165 0.1725 0.1747 0.3674 0.1747 0.5847h-0.8099c0-0.0963-0.0246-0.1859-0.0739-0.2688-0.0471-0.0852-0.1188-0.1535-0.2151-0.205-0.0963-0.0538-0.2173-0.0807-0.3629-0.0807-0.1389 0-0.2543 0.0224-0.3462 0.0672-0.0896 0.0426-0.1568 0.0986-0.2016 0.1681-0.0426 0.0694-0.0638 0.1456-0.0638 0.2285 0 0.0605 0.0112 0.1154 0.0336 0.1646 0.0246 0.0471 0.0649 0.0908 0.1209 0.1311 0.0561 0.0381 0.1322 0.0739 0.2286 0.1075 0.0985 0.0336 0.2218 0.0661 0.3696 0.0975 0.2778 0.0582 0.5164 0.1333 0.7158 0.2251 0.2016 0.0897 0.3562 0.2062 0.4638 0.3495 0.1075 0.1412 0.1613 0.3204 0.1613 0.5377 0 0.1613-0.0348 0.3092-0.1042 0.4436-0.0672 0.1322-0.1658 0.2476-0.2957 0.3462-0.13 0.0963-0.2857 0.1713-0.4672 0.2251-0.1792 0.0538-0.3808 0.0807-0.6048 0.0807-0.3294 0-0.6083-0.0583-0.8368-0.1748-0.2285-0.1187-0.4022-0.27-0.5209-0.4537-0.1165-0.1859-0.1747-0.3786-0.1747-0.578h0.783c0.0089 0.1501 0.0504 0.27 0.1243 0.3596 0.0762 0.0874 0.1703 0.1512 0.2823 0.1916 0.1142 0.038 0.2319 0.0571 0.3528 0.0571 0.1457 0 0.2678-0.0191 0.3663-0.0571 0.0986-0.0404 0.1737-0.0941 0.2252-0.1613 0.0515-0.0695 0.0773-0.1479 0.0773-0.2353zm3.3123-2.6514v0.5914h-2.0499v-0.5914h2.0499zm-1.4584-0.8906h0.8099v3.5219c0 0.112 0.0156 0.1982 0.047 0.2587 0.0336 0.0583 0.0795 0.0975 0.1378 0.1176 0.0582 0.0202 0.1266 0.0303 0.205 0.0303 0.056 0 0.1098-0.0034 0.1613-0.0101s0.093-0.0134 0.1243-0.0202l0.0034 0.6184c-0.0672 0.0201-0.1456 0.0381-0.2353 0.0537-0.0873 0.0157-0.1881 0.0236-0.3024 0.0236-0.186 0-0.3506-0.0325-0.494-0.0975-0.1434-0.0672-0.2554-0.1759-0.3361-0.326-0.0806-0.1501-0.1209-0.3495-0.1209-0.5981v-3.5723zm6.2718 3.6697v-2.7791h0.8133v3.636h-0.7662l-0.0471-0.8569zm0.1143-0.7561 0.2722-0.0067c0 0.2442-0.0269 0.4693-0.0807 0.6754-0.0537 0.2039-0.1366 0.382-0.2486 0.5344-0.1121 0.1501-0.2554 0.2677-0.4302 0.3528-0.1747 0.0829-0.3842 0.1244-0.6284 0.1244-0.177 0-0.3394-0.0258-0.4873-0.0773-0.1478-0.0516-0.2755-0.1311-0.3831-0.2386-0.1053-0.1076-0.1871-0.2476-0.2453-0.4201-0.0583-0.1725-0.0874-0.3786-0.0874-0.6183v-2.349h0.8099v2.3557c0 0.1322 0.0157 0.2431 0.0471 0.3327 0.0313 0.0874 0.0739 0.1579 0.1277 0.2117 0.0537 0.0538 0.1165 0.0918 0.1881 0.1143 0.0717 0.0224 0.1479 0.0336 0.2286 0.0336 0.2307 0 0.4122-0.0449 0.5444-0.1345 0.1344-0.0918 0.2296-0.215 0.2856-0.3696 0.0583-0.1546 0.0874-0.3282 0.0874-0.5209zm2.4857-1.324v4.335h-0.8099v-5.034h0.746l0.0639 0.699zm2.3691 1.0854v0.0706c0 0.2643-0.0313 0.5097-0.0941 0.7359-0.0605 0.2241-0.1512 0.4201-0.2722 0.5881-0.1187 0.1658-0.2655 0.2946-0.4402 0.3865-0.1748 0.0918-0.3764 0.1378-0.6049 0.1378-0.2263 0-0.4245-0.0415-0.5948-0.1244-0.168-0.0851-0.3103-0.205-0.4268-0.3596-0.1165-0.1545-0.2106-0.336-0.2823-0.5444-0.0694-0.2106-0.1187-0.4413-0.1478-0.6922v-0.2722c0.0291-0.2666 0.0784-0.5086 0.1478-0.7259 0.0717-0.2173 0.1658-0.4044 0.2823-0.5612s0.2588-0.2778 0.4268-0.3629c0.168-0.0852 0.364-0.1277 0.5881-0.1277 0.2285 0 0.4312 0.0448 0.6082 0.1344 0.177 0.0873 0.326 0.2128 0.447 0.3764 0.121 0.1613 0.2117 0.3562 0.2722 0.5847 0.0605 0.2263 0.0907 0.4783 0.0907 0.7561zm-0.8099 0.0706v-0.0706c0-0.168-0.0156-0.3237-0.047-0.4671-0.0314-0.1456-0.0807-0.2733-0.1479-0.3831s-0.1534-0.1949-0.2587-0.2554c-0.1031-0.0627-0.2274-0.0941-0.3731-0.0941-0.1433 0-0.2666 0.0246-0.3696 0.0739-0.1031 0.0471-0.1893 0.1132-0.2588 0.1983-0.0694 0.0851-0.1232 0.1848-0.1613 0.2991-0.0381 0.112-0.0649 0.2341-0.0806 0.3663v0.6519c0.0269 0.1613 0.0728 0.3092 0.1378 0.4436 0.0649 0.1344 0.1568 0.242 0.2755 0.3226 0.121 0.0784 0.2756 0.1176 0.4638 0.1176 0.1456 0 0.2699-0.0313 0.373-0.0941 0.103-0.0627 0.1871-0.1489 0.252-0.2587 0.0672-0.112 0.1165-0.2409 0.1479-0.3865s0.047-0.3002 0.047-0.4637zm3.8602 1.0283v-4.409h0.8132v5.1617h-0.7359l-0.0773-0.7527zm-2.3659-1.025v-0.0705c0-0.2756 0.0325-0.5265 0.0975-0.7528 0.065-0.2285 0.1591-0.4245 0.2823-0.5881 0.1232-0.1658 0.2733-0.2924 0.4503-0.3797 0.177-0.0896 0.3764-0.1344 0.5982-0.1344 0.2195 0 0.4122 0.0425 0.578 0.1277 0.1658 0.0851 0.3069 0.2072 0.4234 0.3662 0.1165 0.1569 0.2095 0.3451 0.2789 0.5646 0.0695 0.2173 0.1188 0.4593 0.1479 0.7259v0.2251c-0.0291 0.2599-0.0784 0.4974-0.1479 0.7125-0.0694 0.215-0.1624 0.401-0.2789 0.5578s-0.2588 0.2778-0.4268 0.363c-0.1658 0.0851-0.3596 0.1277-0.5813 0.1277-0.2196 0-0.4179-0.046-0.5949-0.1378-0.1747-0.0919-0.3237-0.2207-0.4469-0.3865s-0.2173-0.3607-0.2823-0.5847c-0.065-0.2263-0.0975-0.4716-0.0975-0.736zm0.8099-0.0705v0.0705c0 0.1658 0.0146 0.3204 0.0437 0.4638 0.0314 0.1434 0.0796 0.2699 0.1445 0.3797 0.065 0.1076 0.149 0.1927 0.2521 0.2554 0.1053 0.0605 0.2307 0.0908 0.3763 0.0908 0.1838 0 0.335-0.0404 0.4537-0.121 0.1188-0.0807 0.2117-0.1893 0.2789-0.326 0.0695-0.1389 0.1165-0.2935 0.1412-0.4637v-0.6083c-0.0135-0.1322-0.0415-0.2554-0.084-0.3697-0.0404-0.1142-0.0952-0.2139-0.1647-0.299-0.0695-0.0874-0.1557-0.1546-0.2588-0.2017-0.1008-0.0493-0.2206-0.0739-0.3595-0.0739-0.1479 0-0.2734 0.0314-0.3764 0.0941-0.1031 0.0627-0.1882 0.149-0.2554 0.2587-0.065 0.1098-0.1132 0.2375-0.1445 0.3831-0.0314 0.1457-0.0471 0.3014-0.0471 0.4672zm5.4094 1.119v-1.734c0-0.13-0.0236-0.242-0.0706-0.3361-0.0471-0.0941-0.1188-0.1669-0.2151-0.2184-0.0941-0.0515-0.2128-0.0773-0.3562-0.0773-0.1322 0-0.2464 0.0224-0.3428 0.0672-0.0963 0.0448-0.1714 0.1053-0.2251 0.1815-0.0538 0.0762-0.0807 0.1624-0.0807 0.2587h-0.8065c0-0.1433 0.0347-0.2822 0.1042-0.4167 0.0694-0.1344 0.1702-0.2542 0.3024-0.3595s0.2901-0.1882 0.4738-0.2487c0.1838-0.0605 0.3899-0.0907 0.6184-0.0907 0.2733 0 0.5153 0.0459 0.7259 0.1377 0.2128 0.0919 0.3797 0.2308 0.5007 0.4167 0.1232 0.1837 0.1848 0.4145 0.1848 0.6923v1.6164c0 0.1658 0.0112 0.3148 0.0336 0.447 0.0247 0.1299 0.0594 0.243 0.1042 0.3394v0.0537h-0.8301c-0.038-0.0873-0.0683-0.1982-0.0907-0.3326-0.0202-0.1367-0.0302-0.2689-0.0302-0.3966zm0.1176-1.482 0.0067 0.5007h-0.5814c-0.1501 0-0.2823 0.0146-0.3965 0.0437-0.1143 0.0269-0.2095 0.0672-0.2857 0.121-0.0761 0.0538-0.1333 0.1187-0.1713 0.1949-0.0381 0.0762-0.0572 0.1624-0.0572 0.2588 0 0.0963 0.0224 0.1848 0.0672 0.2655 0.0448 0.0784 0.1098 0.14 0.1949 0.1848 0.0874 0.0448 0.1927 0.0672 0.3159 0.0672 0.1658 0 0.3103-0.0336 0.4335-0.1008 0.1255-0.0695 0.2241-0.1535 0.2958-0.2521 0.0717-0.1008 0.1097-0.196 0.1142-0.2856l0.2621 0.3596c-0.0268 0.0918-0.0728 0.1904-0.1377 0.2957-0.065 0.1053-0.1501 0.2061-0.2554 0.3024-0.1031 0.0941-0.2274 0.1714-0.3731 0.2319-0.1433 0.0605-0.3091 0.0908-0.4973 0.0908-0.2375 0-0.4492-0.0471-0.6351-0.1412-0.186-0.0963-0.3316-0.2251-0.4369-0.3864-0.1053-0.1636-0.158-0.3484-0.158-0.5545 0-0.1927 0.0359-0.363 0.1076-0.5108 0.0739-0.1501 0.1814-0.2756 0.3226-0.3764 0.1434-0.1008 0.3181-0.177 0.5242-0.2285 0.2061-0.0538 0.4414-0.0807 0.7057-0.0807h0.6352zm3.3527-1.4248v0.5914h-2.05v-0.5914h2.05zm-1.4585-0.8906h0.8099v3.5219c0 0.112 0.0157 0.1982 0.047 0.2587 0.0336 0.0583 0.0796 0.0975 0.1378 0.1176 0.0583 0.0202 0.1266 0.0303 0.205 0.0303 0.056 0 0.1098-0.0034 0.1613-0.0101s0.093-0.0134 0.1243-0.0202l0.0034 0.6184c-0.0672 0.0201-0.1456 0.0381-0.2352 0.0537-0.0874 0.0157-0.1882 0.0236-0.3025 0.0236-0.1859 0-0.3506-0.0325-0.494-0.0975-0.1434-0.0672-0.2554-0.1759-0.336-0.326-0.0807-0.1501-0.121-0.3495-0.121-0.5981v-3.5723zm3.8299 4.5939c-0.2689 0-0.512-0.0437-0.7293-0.1311-0.215-0.0896-0.3987-0.214-0.5511-0.373-0.1501-0.1591-0.2655-0.3462-0.3461-0.5612-0.0807-0.2151-0.121-0.447-0.121-0.6957v-0.1344c0-0.2845 0.0414-0.5421 0.1243-0.7729s0.1983-0.4279 0.3462-0.5914c0.1478-0.1658 0.3226-0.2924 0.5242-0.3798s0.4201-0.131 0.6553-0.131c0.2599 0 0.4873 0.0436 0.6822 0.131s0.3562 0.2106 0.4839 0.3697c0.13 0.1568 0.2263 0.3439 0.289 0.5612 0.065 0.2173 0.0975 0.457 0.0975 0.7191v0.3462h-2.8094v-0.5814h2.0096v-0.0639c-0.0045-0.1456-0.0336-0.2822-0.0874-0.4099-0.0515-0.1277-0.1311-0.2308-0.2386-0.3092s-0.2509-0.1176-0.4301-0.1176c-0.1345 0-0.2543 0.0291-0.3596 0.0873-0.1031 0.0561-0.1893 0.1378-0.2588 0.2454-0.0694 0.1075-0.1232 0.2374-0.1613 0.3898-0.0358 0.1501-0.0538 0.3192-0.0538 0.5074v0.1344c0 0.1591 0.0213 0.307 0.0639 0.4436 0.0448 0.1345 0.1098 0.2521 0.1949 0.3529s0.1882 0.1803 0.3092 0.2386c0.1209 0.056 0.2587 0.084 0.4133 0.084 0.1949 0 0.3686-0.0392 0.5209-0.1176s0.2845-0.1893 0.3965-0.3327l0.4268 0.4133c-0.0784 0.1143-0.1803 0.2241-0.3058 0.3294-0.1254 0.103-0.2789 0.187-0.4604 0.252-0.1792 0.065-0.3876 0.0975-0.625 0.0975zm6.2517-4.977v4.9097h-0.8099v-3.9486l-1.1997 0.4067v-0.6688l1.9121-0.699h0.0975zm4.1088 4.157v-4.409h0.8132v5.1617h-0.7359l-0.0773-0.7527zm-2.3658-1.025v-0.0705c0-0.2756 0.0324-0.5265 0.0974-0.7528 0.065-0.2285 0.1591-0.4245 0.2823-0.5881 0.1232-0.1658 0.2733-0.2924 0.4503-0.3797 0.177-0.0896 0.3764-0.1344 0.5982-0.1344 0.2195 0 0.4122 0.0425 0.578 0.1277 0.1658 0.0851 0.3069 0.2072 0.4234 0.3662 0.1165 0.1569 0.2095 0.3451 0.2789 0.5646 0.0695 0.2173 0.1188 0.4593 0.1479 0.7259v0.2251c-0.0291 0.2599-0.0784 0.4974-0.1479 0.7125-0.0694 0.215-0.1624 0.401-0.2789 0.5578s-0.2587 0.2778-0.4268 0.363c-0.1658 0.0851-0.3595 0.1277-0.5813 0.1277-0.2196 0-0.4179-0.046-0.5949-0.1378-0.1747-0.0919-0.3237-0.2207-0.4469-0.3865s-0.2173-0.3607-0.2823-0.5847c-0.065-0.2263-0.0974-0.4716-0.0974-0.736zm0.8098-0.0705v0.0705c0 0.1658 0.0146 0.3204 0.0437 0.4638 0.0314 0.1434 0.0796 0.2699 0.1445 0.3797 0.065 0.1076 0.149 0.1927 0.2521 0.2554 0.1053 0.0605 0.2307 0.0908 0.3763 0.0908 0.1838 0 0.335-0.0404 0.4537-0.121 0.1188-0.0807 0.2117-0.1893 0.2789-0.326 0.0695-0.1389 0.1165-0.2935 0.1412-0.4637v-0.6083c-0.0135-0.1322-0.0415-0.2554-0.084-0.3697-0.0404-0.1142-0.0952-0.2139-0.1647-0.299-0.0694-0.0874-0.1557-0.1546-0.2588-0.2017-0.1008-0.0493-0.2206-0.0739-0.3595-0.0739-0.1479 0-0.2734 0.0314-0.3764 0.0941-0.1031 0.0627-0.1882 0.149-0.2554 0.2587-0.065 0.1098-0.1131 0.2375-0.1445 0.3831-0.0314 0.1457-0.0471 0.3014-0.0471 0.4672zm7.2666 1.119v-1.734c0-0.13-0.0235-0.242-0.0706-0.3361-0.047-0.0941-0.1187-0.1669-0.215-0.2184-0.0941-0.0515-0.2129-0.0773-0.3562-0.0773-0.1322 0-0.2465 0.0224-0.3428 0.0672-0.0964 0.0448-0.1714 0.1053-0.2252 0.1815-0.0537 0.0762-0.0806 0.1624-0.0806 0.2587h-0.8066c0-0.1433 0.0348-0.2822 0.1042-0.4167 0.0695-0.1344 0.1703-0.2542 0.3025-0.3595 0.1321-0.1053 0.2901-0.1882 0.4738-0.2487s0.3898-0.0907 0.6183-0.0907c0.2734 0 0.5153 0.0459 0.7259 0.1377 0.2128 0.0919 0.3798 0.2308 0.5007 0.4167 0.1232 0.1837 0.1849 0.4145 0.1849 0.6923v1.6164c0 0.1658 0.0112 0.3148 0.0336 0.447 0.0246 0.1299 0.0593 0.243 0.1041 0.3394v0.0537h-0.83c-0.0381-0.0873-0.0683-0.1982-0.0907-0.3326-0.0202-0.1367-0.0303-0.2689-0.0303-0.3966zm0.1176-1.482 0.0068 0.5007h-0.5814c-0.1501 0-0.2823 0.0146-0.3966 0.0437-0.1142 0.0269-0.2094 0.0672-0.2856 0.121s-0.1333 0.1187-0.1714 0.1949-0.0571 0.1624-0.0571 0.2588c0 0.0963 0.0224 0.1848 0.0672 0.2655 0.0448 0.0784 0.1098 0.14 0.1949 0.1848 0.0874 0.0448 0.1927 0.0672 0.3159 0.0672 0.1658 0 0.3103-0.0336 0.4335-0.1008 0.1255-0.0695 0.224-0.1535 0.2957-0.2521 0.0717-0.1008 0.1098-0.196 0.1143-0.2856l0.2621 0.3596c-0.0269 0.0918-0.0728 0.1904-0.1378 0.2957s-0.1501 0.2061-0.2554 0.3024c-0.103 0.0941-0.2274 0.1714-0.373 0.2319-0.1434 0.0605-0.3092 0.0908-0.4974 0.0908-0.2374 0-0.4491-0.0471-0.6351-0.1412-0.1859-0.0963-0.3316-0.2251-0.4369-0.3864-0.1053-0.1636-0.1579-0.3484-0.1579-0.5545 0-0.1927 0.0358-0.363 0.1075-0.5108 0.074-0.1501 0.1815-0.2756 0.3226-0.3764 0.1434-0.1008 0.3182-0.177 0.5243-0.2285 0.2061-0.0538 0.4413-0.0807 0.7057-0.0807h0.6351zm4.0149-1.4248h0.736v3.5352c0 0.3271-0.07 0.6049-0.209 0.8334-0.138 0.2286-0.332 0.4022-0.581 0.5209-0.249 0.121-0.536 0.1815-0.864 0.1815-0.138 0-0.293-0.0202-0.463-0.0605-0.168-0.0403-0.332-0.1053-0.491-0.1949-0.157-0.0874-0.288-0.2028-0.393-0.3461l0.38-0.4772c0.13 0.1545 0.273 0.2677 0.43 0.3394s0.321 0.1075 0.494 0.1075c0.186 0 0.344-0.0347 0.474-0.1042 0.132-0.0672 0.234-0.1669 0.305-0.299 0.072-0.1322 0.108-0.2935 0.108-0.484v-2.7287l0.074-0.8233zm-2.47 1.8583v-0.0705c0-0.2756 0.033-0.5265 0.101-0.7528 0.067-0.2285 0.163-0.4245 0.289-0.5881 0.125-0.1658 0.277-0.2924 0.457-0.3797 0.179-0.0896 0.382-0.1344 0.608-0.1344 0.235 0 0.436 0.0425 0.601 0.1277 0.169 0.0851 0.309 0.2072 0.421 0.3662 0.112 0.1569 0.199 0.3451 0.262 0.5646 0.065 0.2173 0.113 0.4593 0.144 0.7259v0.2251c-0.029 0.2599-0.078 0.4974-0.148 0.7125-0.069 0.215-0.161 0.401-0.275 0.5578-0.115 0.1568-0.256 0.2778-0.424 0.363-0.165 0.0851-0.361 0.1277-0.588 0.1277-0.222 0-0.422-0.046-0.601-0.1378-0.177-0.0919-0.33-0.2207-0.457-0.3865-0.126-0.1658-0.222-0.3607-0.289-0.5847-0.068-0.2263-0.101-0.4716-0.101-0.736zm0.81-0.0705v0.0705c0 0.1658 0.015 0.3204 0.047 0.4638 0.033 0.1434 0.084 0.2699 0.151 0.3797 0.069 0.1076 0.157 0.1927 0.262 0.2554 0.108 0.0605 0.234 0.0908 0.38 0.0908 0.19 0 0.346-0.0404 0.467-0.121 0.123-0.0807 0.217-0.1893 0.282-0.326 0.067-0.1389 0.115-0.2935 0.141-0.4637v-0.6083c-0.013-0.1322-0.041-0.2554-0.084-0.3697-0.04-0.1142-0.095-0.2139-0.164-0.299-0.07-0.0874-0.157-0.1546-0.262-0.2017-0.106-0.0493-0.23-0.0739-0.373-0.0739-0.146 0-0.273 0.0314-0.38 0.0941-0.108 0.0627-0.196 0.149-0.266 0.2587-0.067 0.1098-0.117 0.2375-0.151 0.3831-0.033 0.1457-0.05 0.3014-0.05 0.4672zm3.225 0.0705v-0.0773c0-0.2621 0.038-0.5052 0.114-0.7292 0.076-0.2263 0.186-0.4223 0.329-0.5881 0.146-0.168 0.323-0.298 0.531-0.3898 0.211-0.0941 0.448-0.1411 0.713-0.1411 0.266 0 0.504 0.047 0.712 0.1411 0.211 0.0918 0.389 0.2218 0.534 0.3898 0.146 0.1658 0.257 0.3618 0.333 0.5881 0.076 0.224 0.114 0.4671 0.114 0.7292v0.0773c0 0.2622-0.038 0.5052-0.114 0.7293-0.076 0.224-0.187 0.42-0.333 0.5881-0.145 0.1657-0.322 0.2957-0.531 0.3898-0.208 0.0918-0.444 0.1378-0.709 0.1378-0.266 0-0.505-0.046-0.715-0.1378-0.209-0.0941-0.386-0.2241-0.531-0.3898-0.146-0.1681-0.257-0.3641-0.333-0.5881-0.076-0.2241-0.114-0.4671-0.114-0.7293zm0.81-0.0773v0.0773c0 0.1636 0.016 0.3182 0.05 0.4638s0.086 0.2733 0.158 0.3831 0.164 0.196 0.276 0.2587c0.112 0.0628 0.245 0.0941 0.399 0.0941 0.151 0 0.28-0.0313 0.39-0.0941 0.112-0.0627 0.204-0.1489 0.276-0.2587s0.124-0.2375 0.158-0.3831c0.036-0.1456 0.054-0.3002 0.054-0.4638v-0.0773c0-0.1613-0.018-0.3136-0.054-0.457-0.034-0.1456-0.088-0.2744-0.162-0.3865-0.071-0.112-0.163-0.1993-0.275-0.2621-0.11-0.0649-0.241-0.0974-0.393-0.0974-0.153 0-0.285 0.0325-0.397 0.0974-0.11 0.0628-0.2 0.1501-0.272 0.2621-0.072 0.1121-0.124 0.2409-0.158 0.3865-0.034 0.1434-0.05 0.2957-0.05 0.457z" fill-opacity=".38"/>
   <path d="m48.196 80.469v2.7959h-14.213v-2.4027l6.9025-7.5287c0.7572-0.8543 1.3543-1.5922 1.7911-2.2135 0.4369-0.6213 0.7427-1.1795 0.9175-1.6746 0.1844-0.5049 0.2766-0.9951 0.2766-1.4708 0-0.6699-0.1262-1.2572-0.3786-1.7621-0.2427-0.5145-0.6019-0.9174-1.0776-1.2086-0.4757-0.301-1.0533-0.4515-1.7329-0.4515-0.7864 0-1.4465 0.1699-1.9805 0.5097-0.5339 0.3398-0.9368 0.8106-1.2086 1.4126-0.2719 0.5921-0.4078 1.2717-0.4078 2.0387h-3.5095c0-1.233 0.2816-2.3591 0.8446-3.3785 0.5631-1.029 1.3786-1.8445 2.4465-2.4464 1.0679-0.6117 2.3542-0.9175 3.859-0.9175 1.4174 0 2.6212 0.2379 3.6114 0.7136 0.9903 0.4757 1.7427 1.1504 2.2572 2.0241 0.5242 0.8738 0.7864 1.9077 0.7864 3.1018 0 0.6602-0.1068 1.3155-0.3204 1.9659-0.2136 0.6505-0.5194 1.3009-0.9174 1.9514-0.3884 0.6407-0.8495 1.2863-1.3835 1.9367-0.5339 0.6408-1.1212 1.2912-1.762 1.9514l-4.5871 5.0531h9.7858zm16.429 0v2.7959h-14.213v-2.4027l6.9026-7.5287c0.7572-0.8543 1.3542-1.5922 1.7911-2.2135s0.7427-1.1795 0.9174-1.6746c0.1845-0.5049 0.2767-0.9951 0.2767-1.4708 0-0.6699-0.1262-1.2572-0.3786-1.7621-0.2427-0.5145-0.6019-0.9174-1.0776-1.2086-0.4757-0.301-1.0533-0.4515-1.7329-0.4515-0.7864 0-1.4465 0.1699-1.9805 0.5097-0.5339 0.3398-0.9368 0.8106-1.2087 1.4126-0.2718 0.5921-0.4077 1.2717-0.4077 2.0387h-3.5095c0-1.233 0.2815-2.3591 0.8446-3.3785 0.5631-1.029 1.3786-1.8445 2.4465-2.4464 1.0679-0.6117 2.3542-0.9175 3.859-0.9175 1.4174 0 2.6212 0.2379 3.6114 0.7136s1.7426 1.1504 2.2572 2.0241c0.5242 0.8738 0.7863 1.9077 0.7863 3.1018 0 0.6602-0.1068 1.3155-0.3203 1.9659-0.2136 0.6505-0.5194 1.3009-0.9175 1.9514-0.3883 0.6407-0.8494 1.2863-1.3834 1.9367-0.5339 0.6408-1.1213 1.2912-1.762 1.9514l-4.5871 5.0531h9.7858zm2.4925-14.81c0-0.7087 0.1747-1.3592 0.5242-1.9514s0.8155-1.063 1.398-1.4125c0.5922-0.3592 1.2329-0.5388 1.9222-0.5388 0.699 0 1.3349 0.1796 1.9077 0.5388 0.5728 0.3495 1.0291 0.8203 1.3688 1.4125 0.3495 0.5922 0.5243 1.2427 0.5243 1.9514s-0.1748 1.3591-0.5243 1.9513c-0.3397 0.5825-0.796 1.0436-1.3688 1.3834s-1.2087 0.5097-1.9077 0.5097c-0.6893 0-1.33-0.1699-1.9222-0.5097-0.5825-0.3398-1.0485-0.8009-1.398-1.3834-0.3495-0.5922-0.5242-1.2426-0.5242-1.9513zm1.9659 0c0 0.5242 0.1845 0.9659 0.5534 1.3251 0.3689 0.3495 0.8106 0.5243 1.3251 0.5243 0.5146 0 0.9466-0.1748 1.2961-0.5243s0.5242-0.7912 0.5242-1.3251c0-0.5437-0.1747-0.9951-0.5242-1.3543s-0.7815-0.5388-1.2961-0.5388c-0.5145 0-0.9562 0.1796-1.3251 0.5388s-0.5534 0.8106-0.5534 1.3543zm21.729 10.703h3.6406c-0.1165 1.3883-0.5048 2.6261-1.165 3.7134-0.6601 1.0776-1.5873 1.9271-2.7814 2.5484s-2.6454 0.932-4.3541 0.932c-1.3106 0-2.4901-0.233-3.5386-0.699-1.0485-0.4757-1.9465-1.1456-2.694-2.0096-0.7476-0.8737-1.3204-1.9271-1.7184-3.16-0.3883-1.2329-0.5825-2.6115-0.5825-4.1357v-1.762c0-1.5242 0.199-2.9028 0.5971-4.1357 0.4077-1.2329 0.9902-2.2863 1.7474-3.16 0.7573-0.8835 1.665-1.5582 2.7232-2.0242 1.0679-0.466 2.2669-0.699 3.5969-0.699 1.6892 0 3.1163 0.3107 4.2813 0.932s2.0678 1.4805 2.7086 2.5775c0.6504 1.0971 1.0484 2.3543 1.1941 3.7717h-3.6406c-0.0971-0.9126-0.3107-1.6941-0.6407-2.3446-0.3204-0.6504-0.7961-1.1455-1.4271-1.4853-0.6311-0.3495-1.4563-0.5242-2.4756-0.5242-0.8349 0-1.563 0.1553-2.1844 0.4659-0.6213 0.3107-1.1407 0.767-1.5581 1.3689-0.4175 0.6019-0.733 1.3446-0.9466 2.228-0.2039 0.8738-0.3058 1.8737-0.3058 2.9999v1.7911c0 1.0679 0.0922 2.0387 0.2767 2.9125 0.1942 0.864 0.4854 1.6067 0.8737 2.228 0.3981 0.6213 0.9029 1.1019 1.5145 1.4417 0.6116 0.3397 1.3446 0.5096 2.1989 0.5096 1.0388 0 1.8785-0.165 2.5193-0.4951 0.6504-0.3301 1.1407-0.8106 1.4708-1.4416 0.3398-0.6408 0.563-1.4223 0.6698-2.3446z" fill-opacity=".87"/>
  </g>
 </g>
 <defs>
  <filter id="filter0_d_1142_203954" x=".91176" y=".20588" width="126.18" height="126.18" color-interpolation-filters="sRGB" filterUnits="userSpaceOnUse">
   <feFlood flood-opacity="0" result="BackgroundImageFix"/>
   <feColorMatrix in="SourceAlpha" result="hardAlpha" values="0 0 0 0 0 0 0 0 0 0 0 0 0 0 0 0 0 0 127 0"/>
   <feOffset dy="2.29412"/>
   <feGaussianBlur stdDeviation="2.29412"/>
   <feComposite in2="hardAlpha" operator="out"/>
   <feColorMatrix values="0 0 0 0 0 0 0 0 0 0 0 0 0 0 0 0 0 0 0.04 0"/>
   <feBlend in2="BackgroundImageFix" result="effect1_dropShadow_1142_203954"/>
   <feBlend in="SourceGraphic" in2="effect1_dropShadow_1142_203954" result="shape"/>
  </filter>
 </defs>
</svg>
