<svg width="128" height="127" viewBox="0 0 128 127" fill="none" xmlns="http://www.w3.org/2000/svg">
<g filter="url(#filter0_d_1142_203959)">
<rect x="5.5" y="2.5" width="117" height="117" rx="2.29412" fill="white" shape-rendering="crispEdges"/>
<path d="M42.9287 21.6446V27.353H41.9525V21.6446H42.9287ZM44.7204 21.6446V22.4287H40.1764V21.6446H44.7204ZM47.0162 27.4314C46.7026 27.4314 46.419 27.3805 46.1654 27.2785C45.9145 27.174 45.7002 27.0289 45.5225 26.8433C45.3473 26.6578 45.2127 26.4395 45.1186 26.1886C45.0245 25.9377 44.9775 25.6672 44.9775 25.377V25.2202C44.9775 24.8883 45.0259 24.5877 45.1226 24.3185C45.2193 24.0493 45.3539 23.8192 45.5264 23.6284C45.6989 23.435 45.9028 23.2874 46.138 23.1854C46.3732 23.0835 46.6281 23.0325 46.9025 23.0325C47.2057 23.0325 47.471 23.0835 47.6984 23.1854C47.9258 23.2874 48.114 23.4311 48.263 23.6167C48.4146 23.7996 48.527 24.0179 48.6001 24.2714C48.6759 24.525 48.7138 24.8046 48.7138 25.1104V25.5143H45.4362V24.836H47.7807V24.7615C47.7755 24.5916 47.7415 24.4322 47.6788 24.2832C47.6187 24.1342 47.5259 24.014 47.4004 23.9225C47.275 23.831 47.1077 23.7853 46.8986 23.7853C46.7418 23.7853 46.6019 23.8192 46.4791 23.8872C46.3589 23.9526 46.2582 24.048 46.1772 24.1734C46.0962 24.2989 46.0334 24.4505 45.989 24.6282C45.9472 24.8033 45.9263 25.0007 45.9263 25.2202V25.377C45.9263 25.5626 45.9511 25.7351 46.0008 25.8946C46.0531 26.0514 46.1288 26.1886 46.2282 26.3062C46.3275 26.4238 46.4477 26.5166 46.5889 26.5846C46.73 26.6499 46.8908 26.6826 47.0711 26.6826C47.2985 26.6826 47.5011 26.6369 47.6788 26.5454C47.8565 26.4539 48.0107 26.3245 48.1414 26.1572L48.6393 26.6395C48.5479 26.7728 48.4289 26.9009 48.2826 27.0237C48.1362 27.1439 47.9572 27.2419 47.7454 27.3177C47.5363 27.3935 47.2933 27.4314 47.0162 27.4314ZM50.5392 23.9735V27.353H49.5943V23.1109H50.4843L50.5392 23.9735ZM50.3863 25.0752L50.0648 25.0712C50.0648 24.7785 50.1014 24.508 50.1745 24.2597C50.2477 24.0114 50.3549 23.7957 50.496 23.6128C50.6372 23.4272 50.8123 23.2847 51.0214 23.1854C51.2331 23.0835 51.4775 23.0325 51.7546 23.0325C51.948 23.0325 52.1244 23.0613 52.2838 23.1188C52.4459 23.1737 52.5857 23.2612 52.7033 23.3814C52.8236 23.5017 52.9151 23.6559 52.9778 23.8441C53.0431 24.0323 53.0758 24.2597 53.0758 24.5263V27.353H52.1309V24.6086C52.1309 24.4021 52.0996 24.2401 52.0368 24.1224C51.9767 24.0048 51.8892 23.9212 51.7742 23.8715C51.6618 23.8192 51.5272 23.7931 51.3703 23.7931C51.1926 23.7931 51.041 23.8271 50.9155 23.895C50.7927 23.963 50.6921 24.0558 50.6137 24.1734C50.5352 24.291 50.4777 24.4269 50.4411 24.5812C50.4046 24.7354 50.3863 24.9 50.3863 25.0752ZM53.017 24.8242L52.574 24.9222C52.574 24.6661 52.6092 24.4243 52.6798 24.1969C52.753 23.9669 52.8589 23.7657 52.9974 23.5932C53.1385 23.418 53.3123 23.2808 53.5188 23.1815C53.7253 23.0822 53.9619 23.0325 54.2285 23.0325C54.4454 23.0325 54.6388 23.0626 54.8087 23.1227C54.9812 23.1802 55.1276 23.2717 55.2478 23.3971C55.3681 23.5226 55.4595 23.6859 55.5223 23.8872C55.585 24.0859 55.6164 24.3263 55.6164 24.6086V27.353H54.6676V24.6047C54.6676 24.3904 54.6362 24.2244 54.5735 24.1068C54.5134 23.9891 54.4271 23.9081 54.3147 23.8637C54.2023 23.8166 54.0677 23.7931 53.9109 23.7931C53.7645 23.7931 53.6351 23.8206 53.5227 23.8754C53.413 23.9277 53.3202 24.0022 53.2444 24.0989C53.1686 24.193 53.1111 24.3015 53.0719 24.4243C53.0353 24.5472 53.017 24.6805 53.017 24.8242ZM57.6808 23.9264V28.984H56.736V23.1109H57.6063L57.6808 23.9264ZM60.4449 25.1928V25.2751C60.4449 25.5835 60.4083 25.8697 60.3351 26.1337C60.2645 26.3951 60.1587 26.6238 60.0175 26.8198C59.879 27.0132 59.7078 27.1635 59.5039 27.2707C59.3 27.3779 59.0648 27.4314 58.7982 27.4314C58.5342 27.4314 58.3029 27.3831 58.1043 27.2864C57.9082 27.1871 57.7423 27.0472 57.6063 26.8669C57.4704 26.6865 57.3607 26.4748 57.277 26.2317C57.196 25.986 57.1385 25.7168 57.1045 25.4241V25.1065C57.1385 24.7955 57.196 24.5132 57.277 24.2597C57.3607 24.0061 57.4704 23.7879 57.6063 23.6049C57.7423 23.422 57.9082 23.2808 58.1043 23.1815C58.3003 23.0822 58.529 23.0325 58.7904 23.0325C59.057 23.0325 59.2935 23.0848 59.5 23.1893C59.7065 23.2913 59.8803 23.4376 60.0214 23.6284C60.1626 23.8166 60.2684 24.044 60.339 24.3106C60.4096 24.5746 60.4449 24.8687 60.4449 25.1928ZM59.5 25.2751V25.1928C59.5 24.9967 59.4817 24.8151 59.4451 24.6478C59.4085 24.4779 59.351 24.3289 59.2726 24.2009C59.1942 24.0728 59.0936 23.9735 58.9707 23.9029C58.8505 23.8297 58.7054 23.7931 58.5355 23.7931C58.3683 23.7931 58.2245 23.8219 58.1043 23.8794C57.984 23.9343 57.8834 24.0114 57.8024 24.1107C57.7214 24.21 57.6586 24.3263 57.6142 24.4596C57.5698 24.5903 57.5384 24.7328 57.5201 24.887V25.6476C57.5515 25.8358 57.605 26.0083 57.6808 26.1651C57.7566 26.3219 57.8638 26.4474 58.0023 26.5415C58.1435 26.6329 58.3238 26.6787 58.5434 26.6787C58.7133 26.6787 58.8583 26.6421 58.9786 26.5689C59.0988 26.4957 59.1968 26.3951 59.2726 26.267C59.351 26.1363 59.4085 25.986 59.4451 25.8161C59.4817 25.6463 59.5 25.4659 59.5 25.2751ZM63.2621 27.4314C62.9485 27.4314 62.6649 27.3805 62.4113 27.2785C62.1604 27.174 61.9461 27.0289 61.7684 26.8433C61.5932 26.6578 61.4586 26.4395 61.3645 26.1886C61.2704 25.9377 61.2234 25.6672 61.2234 25.377V25.2202C61.2234 24.8883 61.2717 24.5877 61.3685 24.3185C61.4652 24.0493 61.5998 23.8192 61.7723 23.6284C61.9448 23.435 62.1487 23.2874 62.3839 23.1854C62.6191 23.0835 62.874 23.0325 63.1484 23.0325C63.4516 23.0325 63.7169 23.0835 63.9443 23.1854C64.1717 23.2874 64.3599 23.4311 64.5089 23.6167C64.6605 23.7996 64.7729 24.0179 64.846 24.2714C64.9218 24.525 64.9597 24.8046 64.9597 25.1104V25.5143H61.6821V24.836H64.0266V24.7615C64.0214 24.5916 63.9874 24.4322 63.9247 24.2832C63.8646 24.1342 63.7718 24.014 63.6463 23.9225C63.5209 23.831 63.3536 23.7853 63.1445 23.7853C62.9877 23.7853 62.8478 23.8192 62.725 23.8872C62.6048 23.9526 62.5041 24.048 62.4231 24.1734C62.3421 24.2989 62.2793 24.4505 62.2349 24.6282C62.1931 24.8033 62.1722 25.0007 62.1722 25.2202V25.377C62.1722 25.5626 62.197 25.7351 62.2467 25.8946C62.2989 26.0514 62.3747 26.1886 62.4741 26.3062C62.5734 26.4238 62.6936 26.5166 62.8348 26.5846C62.9759 26.6499 63.1366 26.6826 63.317 26.6826C63.5444 26.6826 63.747 26.6369 63.9247 26.5454C64.1024 26.4539 64.2566 26.3245 64.3873 26.1572L64.8852 26.6395C64.7938 26.7728 64.6748 26.9009 64.5285 27.0237C64.3821 27.1439 64.2031 27.2419 63.9913 27.3177C63.7822 27.3935 63.5392 27.4314 63.2621 27.4314ZM66.789 23.9186V27.353H65.8441V23.1109H66.7459L66.789 23.9186ZM68.0867 23.0835L68.0789 23.9617C68.0214 23.9512 67.9586 23.9434 67.8907 23.9382C67.8253 23.9329 67.76 23.9303 67.6946 23.9303C67.5326 23.9303 67.3901 23.9539 67.2673 24.0009C67.1444 24.0453 67.0412 24.1107 66.9576 24.1969C66.8765 24.2806 66.8138 24.3825 66.7694 24.5027C66.7249 24.623 66.6988 24.7576 66.691 24.9066L66.4753 24.9222C66.4753 24.6556 66.5015 24.4086 66.5537 24.1813C66.606 23.9539 66.6844 23.7539 66.789 23.5814C66.8961 23.4089 67.0294 23.2743 67.1889 23.1776C67.3509 23.0809 67.5378 23.0325 67.7495 23.0325C67.807 23.0325 67.8685 23.0377 67.9338 23.0482C68.0018 23.0587 68.0527 23.0704 68.0867 23.0835ZM71.0725 26.5023V24.4792C71.0725 24.3276 71.0451 24.1969 70.9902 24.0872C70.9353 23.9774 70.8517 23.8924 70.7393 23.8323C70.6295 23.7722 70.491 23.7421 70.3237 23.7421C70.1695 23.7421 70.0362 23.7683 69.9238 23.8206C69.8114 23.8728 69.7238 23.9434 69.6611 24.0323C69.5984 24.1211 69.567 24.2218 69.567 24.3342H68.6261C68.6261 24.1669 68.6666 24.0048 68.7476 23.848C68.8286 23.6912 68.9462 23.5513 69.1005 23.4285C69.2547 23.3056 69.4389 23.2089 69.6533 23.1384C69.8676 23.0678 70.1081 23.0325 70.3747 23.0325C70.6935 23.0325 70.9758 23.0861 71.2215 23.1933C71.4698 23.3004 71.6645 23.4625 71.8057 23.6794C71.9494 23.8937 72.0213 24.163 72.0213 24.4871V26.3729C72.0213 26.5663 72.0344 26.7401 72.0605 26.8943C72.0893 27.0459 72.1298 27.1779 72.1821 27.2903V27.353H71.2137C71.1692 27.2511 71.1339 27.1217 71.1078 26.9649C71.0843 26.8054 71.0725 26.6512 71.0725 26.5023ZM71.2097 24.7733L71.2176 25.3574H70.5393C70.3642 25.3574 70.21 25.3744 70.0767 25.4084C69.9434 25.4398 69.8323 25.4868 69.7434 25.5495C69.6546 25.6123 69.5879 25.6881 69.5435 25.7769C69.4991 25.8658 69.4768 25.9664 69.4768 26.0788C69.4768 26.1912 69.503 26.2945 69.5552 26.3886C69.6075 26.48 69.6833 26.5519 69.7826 26.6042C69.8846 26.6565 70.0074 26.6826 70.1512 26.6826C70.3446 26.6826 70.5132 26.6434 70.6569 26.565C70.8033 26.484 70.9183 26.3859 71.002 26.2709C71.0856 26.1533 71.13 26.0422 71.1353 25.9377L71.4411 26.3572C71.4097 26.4644 71.3561 26.5794 71.2803 26.7022C71.2045 26.8251 71.1052 26.9427 70.9824 27.0551C70.8621 27.1648 70.7171 27.255 70.5472 27.3256C70.3799 27.3962 70.1865 27.4314 69.9669 27.4314C69.6899 27.4314 69.4429 27.3766 69.2259 27.2668C69.009 27.1544 68.8391 27.0041 68.7162 26.8159C68.5934 26.6251 68.532 26.4095 68.532 26.169C68.532 25.9442 68.5738 25.7456 68.6574 25.5731C68.7437 25.3979 68.8691 25.2516 69.0338 25.134C69.2011 25.0163 69.405 24.9275 69.6454 24.8674C69.8859 24.8046 70.1603 24.7733 70.4688 24.7733H71.2097ZM75.0973 23.1109V23.801H72.7057V23.1109H75.0973ZM73.3958 22.072H74.3406V26.1808C74.3406 26.3115 74.3589 26.4121 74.3955 26.4827C74.4347 26.5506 74.4883 26.5963 74.5563 26.6199C74.6242 26.6434 74.7039 26.6552 74.7954 26.6552C74.8608 26.6552 74.9235 26.6512 74.9836 26.6434C75.0437 26.6356 75.0921 26.6277 75.1287 26.6199L75.1326 27.3413C75.0542 27.3648 74.9627 27.3857 74.8582 27.404C74.7562 27.4223 74.6386 27.4314 74.5053 27.4314C74.2884 27.4314 74.0963 27.3935 73.929 27.3177C73.7617 27.2393 73.631 27.1126 73.5369 26.9374C73.4428 26.7623 73.3958 26.5297 73.3958 26.2396V22.072ZM78.5222 26.3533V23.1109H79.471V27.353H78.5771L78.5222 26.3533ZM78.6555 25.4711L78.9731 25.4633C78.9731 25.7482 78.9418 26.0109 78.879 26.2513C78.8163 26.4892 78.7196 26.697 78.5889 26.8747C78.4582 27.0498 78.2909 27.1871 78.0871 27.2864C77.8832 27.3831 77.6388 27.4314 77.3539 27.4314C77.1474 27.4314 76.9579 27.4014 76.7854 27.3413C76.6129 27.2811 76.4639 27.1884 76.3385 27.0629C76.2156 26.9374 76.1202 26.7741 76.0523 26.5728C75.9843 26.3716 75.9503 26.1311 75.9503 25.8514V23.1109H76.8952V25.8593C76.8952 26.0135 76.9135 26.1429 76.9501 26.2474C76.9867 26.3494 77.0363 26.4317 77.0991 26.4944C77.1618 26.5571 77.235 26.6016 77.3186 26.6277C77.4023 26.6539 77.4911 26.6669 77.5852 26.6669C77.8544 26.6669 78.0661 26.6146 78.2204 26.5101C78.3772 26.4029 78.4883 26.2592 78.5536 26.0788C78.6216 25.8985 78.6555 25.6959 78.6555 25.4711ZM81.5316 23.9186V27.353H80.5867V23.1109H81.4885L81.5316 23.9186ZM82.8293 23.0835L82.8215 23.9617C82.764 23.9512 82.7012 23.9434 82.6333 23.9382C82.5679 23.9329 82.5026 23.9303 82.4373 23.9303C82.2752 23.9303 82.1328 23.9539 82.0099 24.0009C81.8871 24.0453 81.7838 24.1107 81.7002 24.1969C81.6192 24.2806 81.5564 24.3825 81.512 24.5027C81.4676 24.623 81.4414 24.7576 81.4336 24.9066L81.2179 24.9222C81.2179 24.6556 81.2441 24.4086 81.2964 24.1813C81.3486 23.9539 81.427 23.7539 81.5316 23.5814C81.6388 23.4089 81.7721 23.2743 81.9315 23.1776C82.0936 23.0809 82.2804 23.0325 82.4921 23.0325C82.5496 23.0325 82.6111 23.0377 82.6764 23.0482C82.7444 23.0587 82.7953 23.0704 82.8293 23.0835ZM85.3564 27.4314C85.0428 27.4314 84.7592 27.3805 84.5057 27.2785C84.2547 27.174 84.0404 27.0289 83.8627 26.8433C83.6876 26.6578 83.553 26.4395 83.4589 26.1886C83.3648 25.9377 83.3177 25.6672 83.3177 25.377V25.2202C83.3177 24.8883 83.3661 24.5877 83.4628 24.3185C83.5595 24.0493 83.6941 23.8192 83.8666 23.6284C84.0391 23.435 84.243 23.2874 84.4782 23.1854C84.7135 23.0835 84.9683 23.0325 85.2427 23.0325C85.5459 23.0325 85.8112 23.0835 86.0386 23.1854C86.266 23.2874 86.4542 23.4311 86.6032 23.6167C86.7548 23.7996 86.8672 24.0179 86.9404 24.2714C87.0162 24.525 87.0541 24.8046 87.0541 25.1104V25.5143H83.7764V24.836H86.121V24.7615C86.1157 24.5916 86.0817 24.4322 86.019 24.2832C85.9589 24.1342 85.8661 24.014 85.7407 23.9225C85.6152 23.831 85.4479 23.7853 85.2388 23.7853C85.082 23.7853 84.9422 23.8192 84.8193 23.8872C84.6991 23.9526 84.5984 24.048 84.5174 24.1734C84.4364 24.2989 84.3737 24.4505 84.3292 24.6282C84.2874 24.8033 84.2665 25.0007 84.2665 25.2202V25.377C84.2665 25.5626 84.2913 25.7351 84.341 25.8946C84.3933 26.0514 84.4691 26.1886 84.5684 26.3062C84.6677 26.4238 84.7879 26.5166 84.9291 26.5846C85.0702 26.6499 85.231 26.6826 85.4113 26.6826C85.6387 26.6826 85.8413 26.6369 86.019 26.5454C86.1968 26.4539 86.351 26.3245 86.4816 26.1572L86.9796 26.6395C86.8881 26.7728 86.7692 26.9009 86.6228 27.0237C86.4764 27.1439 86.2974 27.2419 86.0857 27.3177C85.8766 27.3935 85.6335 27.4314 85.3564 27.4314Z" fill="black" fill-opacity="0.87"/>
<path d="M47.8146 62.7333V65.5293H33.6018V63.1265L40.5044 55.5978C41.2616 54.7435 41.8587 54.0057 42.2955 53.3844C42.7324 52.763 43.0382 52.2048 43.2129 51.7097C43.3974 51.2049 43.4896 50.7146 43.4896 50.2389C43.4896 49.569 43.3634 48.9817 43.111 48.4769C42.8683 47.9623 42.5091 47.5595 42.0334 47.2682C41.5577 46.9673 40.9801 46.8168 40.3005 46.8168C39.5141 46.8168 38.854 46.9867 38.32 47.3265C37.7861 47.6662 37.3832 48.1371 37.1114 48.739C36.8395 49.3312 36.7036 50.0108 36.7036 50.7777H33.1941C33.1941 49.5448 33.4756 48.4186 34.0387 47.3993C34.6018 46.3702 35.4173 45.5547 36.4852 44.9528C37.5531 44.3412 38.8394 44.0354 40.3442 44.0354C41.7616 44.0354 42.9654 44.2732 43.9556 44.7489C44.9459 45.2246 45.6982 45.8994 46.2128 46.7731C46.737 47.6468 46.9991 48.6807 46.9991 49.8749C46.9991 50.535 46.8923 51.1903 46.6788 51.8408C46.4652 52.4912 46.1594 53.1417 45.7613 53.7921C45.373 54.4328 44.9119 55.0784 44.3779 55.7289C43.844 56.3696 43.2566 57.0201 42.6159 57.6802L38.0288 62.7333H47.8146ZM64.2432 62.7333V65.5293H50.0304V63.1265L56.9329 55.5978C57.6902 54.7435 58.2872 54.0057 58.7241 53.3844C59.161 52.763 59.4668 52.2048 59.6415 51.7097C59.826 51.2049 59.9182 50.7146 59.9182 50.2389C59.9182 49.569 59.792 48.9817 59.5396 48.4769C59.2969 47.9623 58.9377 47.5595 58.462 47.2682C57.9863 46.9673 57.4086 46.8168 56.7291 46.8168C55.9427 46.8168 55.2825 46.9867 54.7486 47.3265C54.2146 47.6662 53.8118 48.1371 53.5399 48.739C53.2681 49.3312 53.1322 50.0108 53.1322 50.7777H49.6227C49.6227 49.5448 49.9042 48.4186 50.4673 47.3993C51.0304 46.3702 51.8459 45.5547 52.9138 44.9528C53.9817 44.3412 55.268 44.0354 56.7728 44.0354C58.1901 44.0354 59.394 44.2732 60.3842 44.7489C61.3744 45.2246 62.1268 45.8994 62.6413 46.7731C63.1656 47.6468 63.4277 48.6807 63.4277 49.8749C63.4277 50.535 63.3209 51.1903 63.1073 51.8408C62.8938 52.4912 62.588 53.1417 62.1899 53.7921C61.8016 54.4328 61.3405 55.0784 60.8065 55.7289C60.2726 56.3696 59.6852 57.0201 59.0445 57.6802L54.4574 62.7333H64.2432ZM66.7357 47.9235C66.7357 47.2148 66.9104 46.5644 67.2599 45.9722C67.6094 45.38 68.0754 44.9091 68.6579 44.5596C69.2501 44.2004 69.8908 44.0208 70.5801 44.0208C71.2791 44.0208 71.915 44.2004 72.4878 44.5596C73.0606 44.9091 73.5168 45.38 73.8566 45.9722C74.2061 46.5644 74.3809 47.2148 74.3809 47.9235C74.3809 48.6322 74.2061 49.2827 73.8566 49.8749C73.5168 50.4573 73.0606 50.9185 72.4878 51.2583C71.915 51.5981 71.2791 51.768 70.5801 51.768C69.8908 51.768 69.2501 51.5981 68.6579 51.2583C68.0754 50.9185 67.6094 50.4573 67.2599 49.8749C66.9104 49.2827 66.7357 48.6322 66.7357 47.9235ZM68.7016 47.9235C68.7016 48.4478 68.886 48.8895 69.2549 49.2487C69.6239 49.5982 70.0656 49.7729 70.5801 49.7729C71.0946 49.7729 71.5267 49.5982 71.8762 49.2487C72.2257 48.8992 72.4004 48.4575 72.4004 47.9235C72.4004 47.3799 72.2257 46.9284 71.8762 46.5692C71.5267 46.21 71.0946 46.0304 70.5801 46.0304C70.0656 46.0304 69.6239 46.21 69.2549 46.5692C68.886 46.9284 68.7016 47.3799 68.7016 47.9235ZM90.4308 58.6268H94.0714C93.9549 60.0151 93.5666 61.2528 92.9064 62.3402C92.2463 63.4178 91.3191 64.2672 90.125 64.8886C88.9309 65.5099 87.4795 65.8205 85.7709 65.8205C84.4603 65.8205 83.2807 65.5875 82.2323 65.1216C81.1838 64.6459 80.2858 63.976 79.5382 63.112C78.7907 62.2382 78.2179 61.1849 77.8199 59.9519C77.4316 58.719 77.2374 57.3404 77.2374 55.8163V54.0542C77.2374 52.53 77.4364 51.1515 77.8345 49.9185C78.2422 48.6856 78.8247 47.6323 79.5819 46.7585C80.3392 45.8751 81.2469 45.2004 82.3051 44.7344C83.373 44.2684 84.5719 44.0354 85.902 44.0354C87.5912 44.0354 89.0183 44.346 90.1833 44.9674C91.3482 45.5887 92.2511 46.4479 92.8918 47.5449C93.5423 48.6419 93.9403 49.8991 94.086 51.3165H90.4454C90.3483 50.404 90.1347 49.6224 89.8046 48.972C89.4843 48.3215 89.0086 47.8264 88.3775 47.4866C87.7465 47.1371 86.9213 46.9624 85.902 46.9624C85.0671 46.9624 84.3389 47.1177 83.7176 47.4284C83.0963 47.7391 82.5769 48.1953 82.1595 48.7972C81.742 49.3992 81.4265 50.1418 81.2129 51.0253C81.009 51.899 80.9071 52.899 80.9071 54.0251V55.8163C80.9071 56.8842 80.9993 57.855 81.1838 58.7287C81.3779 59.5927 81.6692 60.3354 82.0575 60.9567C82.4556 61.5781 82.9604 62.0586 83.572 62.3984C84.1836 62.7382 84.9166 62.9081 85.7709 62.9081C86.8097 62.9081 87.6494 62.743 88.2902 62.413C88.9406 62.0829 89.4309 61.6023 89.761 60.9713C90.1007 60.3306 90.324 59.5491 90.4308 58.6268Z" fill="black" fill-opacity="0.87"/>
<path d="M66.8676 92.1324V84.4853C66.8676 82.8986 65.5868 81.6177 64 81.6177C62.4132 81.6177 61.1323 82.8986 61.1323 84.4853V92.1324C59.9757 93.0022 59.2206 94.3978 59.2206 95.9559C59.2206 98.5941 61.3618 100.735 64 100.735C66.6382 100.735 68.7794 98.5941 68.7794 95.9559C68.7794 94.3978 68.0243 93.0022 66.8676 92.1324ZM63.0441 84.4853C63.0441 83.9596 63.4743 83.5294 64 83.5294C64.5257 83.5294 64.9559 83.9596 64.9559 84.4853H64V85.4412H64.9559V87.353H64V88.3089H64.9559V90.2206H63.0441V84.4853Z" fill="#5469FF"/>
</g>
<defs>
<filter id="filter0_d_1142_203959" x="0.911765" y="0.205882" width="126.176" height="126.176" filterUnits="userSpaceOnUse" color-interpolation-filters="sRGB">
<feFlood flood-opacity="0" result="BackgroundImageFix"/>
<feColorMatrix in="SourceAlpha" type="matrix" values="0 0 0 0 0 0 0 0 0 0 0 0 0 0 0 0 0 0 127 0" result="hardAlpha"/>
<feOffset dy="2.29412"/>
<feGaussianBlur stdDeviation="2.29412"/>
<feComposite in2="hardAlpha" operator="out"/>
<feColorMatrix type="matrix" values="0 0 0 0 0 0 0 0 0 0 0 0 0 0 0 0 0 0 0.04 0"/>
<feBlend mode="normal" in2="BackgroundImageFix" result="effect1_dropShadow_1142_203959"/>
<feBlend mode="normal" in="SourceGraphic" in2="effect1_dropShadow_1142_203959" result="shape"/>
</filter>
</defs>
</svg>
