<svg width="214" height="75" viewBox="0 0 214 75" fill="none" xmlns="http://www.w3.org/2000/svg">
<g filter="url(#filter0_d_2646_18378)">
<path d="M8.5 8C8.5 5.79086 10.2909 4 12.5 4H201.5C203.709 4 205.5 5.79086 205.5 8V59C205.5 61.2091 203.709 63 201.5 63H12.5C10.2909 63 8.5 61.2091 8.5 59V8Z" fill="white"/>
<rect x="20.5" y="15.5" width="36" height="36" rx="4" fill="#FF8A00"/>
<path d="M30.5 28.5C30.5 27.95 30.95 27.5 31.5 27.5H47.5C48.05 27.5 48.5 27.05 48.5 26.5C48.5 25.95 48.05 25.5 47.5 25.5H30.5C29.4 25.5 28.5 26.4 28.5 27.5V38.5H28C27.17 38.5 26.5 39.17 26.5 40C26.5 40.83 27.17 41.5 28 41.5H40.5V38.5H30.5V28.5ZM49.5 29.5H43.5C42.95 29.5 42.5 29.95 42.5 30.5V40.5C42.5 41.05 42.95 41.5 43.5 41.5H49.5C50.05 41.5 50.5 41.05 50.5 40.5V30.5C50.5 29.95 50.05 29.5 49.5 29.5ZM48.5 38.5H44.5V31.5H48.5V38.5Z" fill="white"/>
<path d="M71.7988 25.5H70.0176L70.0293 24.5801H71.7988C72.4082 24.5801 72.916 24.4531 73.3223 24.1992C73.7285 23.9414 74.0332 23.582 74.2363 23.1211C74.4434 22.6562 74.5469 22.1133 74.5469 21.4922V20.9707C74.5469 20.4824 74.4883 20.0488 74.3711 19.6699C74.2539 19.2871 74.082 18.9648 73.8555 18.7031C73.6289 18.4375 73.3516 18.2363 73.0234 18.0996C72.6992 17.9629 72.3262 17.8945 71.9043 17.8945H69.9824V16.9688H71.9043C72.4629 16.9688 72.9727 17.0625 73.4336 17.25C73.8945 17.4336 74.291 17.7012 74.623 18.0527C74.959 18.4004 75.2168 18.8223 75.3965 19.3184C75.5762 19.8105 75.666 20.3652 75.666 20.9824V21.4922C75.666 22.1094 75.5762 22.666 75.3965 23.1621C75.2168 23.6543 74.957 24.0742 74.6172 24.4219C74.2812 24.7695 73.875 25.0371 73.3984 25.2246C72.9258 25.4082 72.3926 25.5 71.7988 25.5ZM70.6211 16.9688V25.5H69.4902V16.9688H70.6211ZM80.232 25.6172C79.7906 25.6172 79.3902 25.543 79.0309 25.3945C78.6754 25.2422 78.3687 25.0293 78.1109 24.7559C77.857 24.4824 77.6617 24.1582 77.525 23.7832C77.3883 23.4082 77.3199 22.998 77.3199 22.5527V22.3066C77.3199 21.791 77.3961 21.332 77.5484 20.9297C77.7008 20.5234 77.9078 20.1797 78.1695 19.8984C78.4312 19.6172 78.7281 19.4043 79.0602 19.2598C79.3922 19.1152 79.7359 19.043 80.0914 19.043C80.5445 19.043 80.9352 19.1211 81.2633 19.2773C81.5953 19.4336 81.8668 19.6523 82.0777 19.9336C82.2887 20.2109 82.4449 20.5391 82.5465 20.918C82.648 21.293 82.6988 21.7031 82.6988 22.1484V22.6348H77.9645V21.75H81.6148V21.668C81.5992 21.3867 81.5406 21.1133 81.4391 20.8477C81.3414 20.582 81.1852 20.3633 80.9703 20.1914C80.7555 20.0195 80.4625 19.9336 80.0914 19.9336C79.8453 19.9336 79.6187 19.9863 79.4117 20.0918C79.2047 20.1934 79.027 20.3457 78.8785 20.5488C78.7301 20.752 78.6148 21 78.5328 21.293C78.4508 21.5859 78.4098 21.9238 78.4098 22.3066V22.5527C78.4098 22.8535 78.4508 23.1367 78.5328 23.4023C78.6187 23.6641 78.7418 23.8945 78.902 24.0938C79.066 24.293 79.2633 24.4492 79.4937 24.5625C79.7281 24.6758 79.9937 24.7324 80.2906 24.7324C80.6734 24.7324 80.9977 24.6543 81.2633 24.498C81.5289 24.3418 81.7613 24.1328 81.9605 23.8711L82.6168 24.3926C82.4801 24.5996 82.3062 24.7969 82.0953 24.9844C81.8844 25.1719 81.6246 25.3242 81.316 25.4414C81.0113 25.5586 80.65 25.6172 80.232 25.6172ZM86.2102 24.5215L87.9445 19.1602H89.052L86.7727 25.5H86.0461L86.2102 24.5215ZM84.7629 19.1602L86.55 24.5508L86.673 25.5H85.9465L83.6496 19.1602H84.7629ZM91.6727 19.1602V25.5H90.5828V19.1602H91.6727ZM90.5008 17.4785C90.5008 17.3027 90.5535 17.1543 90.659 17.0332C90.7684 16.9121 90.9285 16.8516 91.1395 16.8516C91.3465 16.8516 91.5047 16.9121 91.6141 17.0332C91.7273 17.1543 91.784 17.3027 91.784 17.4785C91.784 17.6465 91.7273 17.791 91.6141 17.9121C91.5047 18.0293 91.3465 18.0879 91.1395 18.0879C90.9285 18.0879 90.7684 18.0293 90.659 17.9121C90.5535 17.791 90.5008 17.6465 90.5008 17.4785ZM96.35 24.7266C96.6078 24.7266 96.8461 24.6738 97.0648 24.5684C97.2836 24.4629 97.4633 24.3184 97.6039 24.1348C97.7445 23.9473 97.8246 23.7344 97.8441 23.4961H98.8754C98.8559 23.8711 98.7289 24.2207 98.4945 24.5449C98.2641 24.8652 97.9613 25.125 97.5863 25.3242C97.2113 25.5195 96.7992 25.6172 96.35 25.6172C95.8734 25.6172 95.4574 25.5332 95.102 25.3652C94.7504 25.1973 94.4574 24.9668 94.223 24.6738C93.9926 24.3809 93.8188 24.0449 93.7016 23.666C93.5883 23.2832 93.5316 22.8789 93.5316 22.4531V22.207C93.5316 21.7812 93.5883 21.3789 93.7016 21C93.8188 20.6172 93.9926 20.2793 94.223 19.9863C94.4574 19.6934 94.7504 19.4629 95.102 19.2949C95.4574 19.127 95.8734 19.043 96.35 19.043C96.8461 19.043 97.2797 19.1445 97.6508 19.3477C98.0219 19.5469 98.3129 19.8203 98.5238 20.168C98.7387 20.5117 98.8559 20.9023 98.8754 21.3398H97.8441C97.8246 21.0781 97.7504 20.8418 97.6215 20.6309C97.4965 20.4199 97.3246 20.252 97.1059 20.127C96.891 19.998 96.6391 19.9336 96.35 19.9336C96.018 19.9336 95.7387 20 95.5121 20.1328C95.2895 20.2617 95.1117 20.4375 94.9789 20.6602C94.85 20.8789 94.7563 21.123 94.6977 21.3926C94.643 21.6582 94.6156 21.9297 94.6156 22.207V22.4531C94.6156 22.7305 94.643 23.0039 94.6977 23.2734C94.7523 23.543 94.8441 23.7871 94.973 24.0059C95.1059 24.2246 95.2836 24.4004 95.5063 24.5332C95.7328 24.6621 96.0141 24.7266 96.35 24.7266ZM103.125 25.6172C102.684 25.6172 102.283 25.543 101.924 25.3945C101.568 25.2422 101.262 25.0293 101.004 24.7559C100.75 24.4824 100.555 24.1582 100.418 23.7832C100.281 23.4082 100.213 22.998 100.213 22.5527V22.3066C100.213 21.791 100.289 21.332 100.441 20.9297C100.594 20.5234 100.801 20.1797 101.062 19.8984C101.324 19.6172 101.621 19.4043 101.953 19.2598C102.285 19.1152 102.629 19.043 102.984 19.043C103.438 19.043 103.828 19.1211 104.156 19.2773C104.488 19.4336 104.76 19.6523 104.971 19.9336C105.182 20.2109 105.338 20.5391 105.439 20.918C105.541 21.293 105.592 21.7031 105.592 22.1484V22.6348H100.857V21.75H104.508V21.668C104.492 21.3867 104.434 21.1133 104.332 20.8477C104.234 20.582 104.078 20.3633 103.863 20.1914C103.648 20.0195 103.355 19.9336 102.984 19.9336C102.738 19.9336 102.512 19.9863 102.305 20.0918C102.098 20.1934 101.92 20.3457 101.771 20.5488C101.623 20.752 101.508 21 101.426 21.293C101.344 21.5859 101.303 21.9238 101.303 22.3066V22.5527C101.303 22.8535 101.344 23.1367 101.426 23.4023C101.512 23.6641 101.635 23.8945 101.795 24.0938C101.959 24.293 102.156 24.4492 102.387 24.5625C102.621 24.6758 102.887 24.7324 103.184 24.7324C103.566 24.7324 103.891 24.6543 104.156 24.498C104.422 24.3418 104.654 24.1328 104.854 23.8711L105.51 24.3926C105.373 24.5996 105.199 24.7969 104.988 24.9844C104.777 25.1719 104.518 25.3242 104.209 25.4414C103.904 25.5586 103.543 25.6172 103.125 25.6172ZM110.949 23.8184C110.949 23.6621 110.914 23.5176 110.843 23.3848C110.777 23.248 110.638 23.125 110.427 23.0156C110.22 22.9023 109.908 22.8047 109.49 22.7227C109.138 22.6484 108.82 22.5605 108.535 22.459C108.254 22.3574 108.013 22.2344 107.814 22.0898C107.619 21.9453 107.468 21.7754 107.363 21.5801C107.257 21.3848 107.205 21.1562 107.205 20.8945C107.205 20.6445 107.259 20.4082 107.369 20.1855C107.482 19.9629 107.64 19.7656 107.843 19.5938C108.05 19.4219 108.298 19.2871 108.588 19.1895C108.877 19.0918 109.199 19.043 109.554 19.043C110.062 19.043 110.496 19.1328 110.855 19.3125C111.214 19.4922 111.49 19.7324 111.681 20.0332C111.873 20.3301 111.968 20.6602 111.968 21.0234H110.884C110.884 20.8477 110.832 20.6777 110.726 20.5137C110.625 20.3457 110.474 20.207 110.275 20.0977C110.08 19.9883 109.839 19.9336 109.554 19.9336C109.254 19.9336 109.009 19.9805 108.822 20.0742C108.638 20.1641 108.504 20.2793 108.418 20.4199C108.336 20.5605 108.295 20.709 108.295 20.8652C108.295 20.9824 108.314 21.0879 108.353 21.1816C108.396 21.2715 108.47 21.3555 108.576 21.4336C108.681 21.5078 108.83 21.5781 109.021 21.6445C109.213 21.7109 109.457 21.7773 109.754 21.8438C110.273 21.9609 110.701 22.1016 111.037 22.2656C111.373 22.4297 111.623 22.6309 111.787 22.8691C111.951 23.1074 112.033 23.3965 112.033 23.7363C112.033 24.0137 111.974 24.2676 111.857 24.498C111.744 24.7285 111.578 24.9277 111.359 25.0957C111.144 25.2598 110.886 25.3887 110.586 25.4824C110.289 25.5723 109.955 25.6172 109.584 25.6172C109.025 25.6172 108.552 25.5176 108.166 25.3184C107.779 25.1191 107.486 24.8613 107.287 24.5449C107.088 24.2285 106.988 23.8945 106.988 23.543H108.078C108.093 23.8398 108.179 24.0762 108.336 24.252C108.492 24.4238 108.683 24.5469 108.91 24.6211C109.136 24.6914 109.361 24.7266 109.584 24.7266C109.88 24.7266 110.129 24.6875 110.328 24.6094C110.531 24.5312 110.685 24.4238 110.791 24.2871C110.896 24.1504 110.949 23.9941 110.949 23.8184Z" fill="black" fill-opacity="0.54"/>
<path d="M79.1055 46.625V48.5H69.5742V46.8887L74.2031 41.8398C74.7109 41.2669 75.1113 40.7721 75.4043 40.3555C75.6973 39.9388 75.9023 39.5645 76.0195 39.2324C76.1432 38.8939 76.2051 38.5651 76.2051 38.2461C76.2051 37.7969 76.1204 37.403 75.9512 37.0645C75.7884 36.7194 75.5475 36.4492 75.2285 36.2539C74.9095 36.0521 74.5221 35.9512 74.0664 35.9512C73.5391 35.9512 73.0964 36.0651 72.7383 36.293C72.3802 36.5208 72.11 36.8366 71.9277 37.2402C71.7454 37.6374 71.6543 38.0931 71.6543 38.6074H69.3008C69.3008 37.7806 69.4896 37.0254 69.8672 36.3418C70.2448 35.6517 70.7917 35.1048 71.5078 34.7012C72.224 34.291 73.0866 34.0859 74.0957 34.0859C75.0462 34.0859 75.8535 34.2454 76.5176 34.5645C77.1816 34.8835 77.6862 35.3359 78.0312 35.9219C78.3828 36.5078 78.5586 37.2012 78.5586 38.002C78.5586 38.4447 78.487 38.8841 78.3438 39.3203C78.2005 39.7565 77.9954 40.1927 77.7285 40.6289C77.4681 41.0586 77.1589 41.4915 76.8008 41.9277C76.4427 42.3574 76.0488 42.7936 75.6191 43.2363L72.543 46.625H79.1055ZM82.9359 46.6445H83.1313C84.0297 46.6445 84.7784 46.5273 85.3773 46.293C85.9828 46.0521 86.4646 45.7201 86.8227 45.2969C87.1807 44.8737 87.4379 44.3757 87.5941 43.8027C87.7504 43.2298 87.8285 42.6081 87.8285 41.9375V39.4863C87.8285 38.9069 87.7667 38.3991 87.643 37.9629C87.5258 37.5202 87.3565 37.1523 87.1352 36.8594C86.9203 36.5599 86.6697 36.3353 86.3832 36.1855C86.1033 36.0358 85.8005 35.9609 85.475 35.9609C85.1169 35.9609 84.7947 36.0423 84.5082 36.2051C84.2283 36.3613 83.9906 36.5794 83.7953 36.8594C83.6065 37.1328 83.46 37.4551 83.3559 37.8262C83.2582 38.1908 83.2094 38.5814 83.2094 38.998C83.2094 39.3887 83.2549 39.7663 83.3461 40.1309C83.4438 40.4889 83.587 40.8079 83.7758 41.0879C83.9646 41.3678 84.2022 41.5892 84.4887 41.752C84.7751 41.9147 85.1104 41.9961 85.4945 41.9961C85.8591 41.9961 86.1944 41.9277 86.5004 41.791C86.8064 41.6478 87.0733 41.4557 87.3012 41.2148C87.529 40.974 87.7081 40.7038 87.8383 40.4043C87.9685 40.1048 88.0401 39.7988 88.0531 39.4863L88.9516 39.7598C88.9516 40.2546 88.8474 40.7428 88.6391 41.2246C88.4372 41.6999 88.154 42.1361 87.7895 42.5332C87.4314 42.9238 87.0115 43.2363 86.5297 43.4707C86.0544 43.7051 85.5368 43.8223 84.977 43.8223C84.2999 43.8223 83.7009 43.6953 83.1801 43.4414C82.6658 43.181 82.2361 42.8294 81.891 42.3867C81.5525 41.944 81.2986 41.4362 81.1293 40.8633C80.96 40.2904 80.8754 39.6882 80.8754 39.0566C80.8754 38.373 80.9796 37.7318 81.1879 37.1328C81.3962 36.5339 81.699 36.0065 82.0961 35.5508C82.4932 35.0885 82.975 34.7305 83.5414 34.4766C84.1143 34.2161 84.7621 34.0859 85.4848 34.0859C86.253 34.0859 86.9268 34.2357 87.5063 34.5352C88.0857 34.8346 88.574 35.248 88.9711 35.7754C89.3682 36.3027 89.6677 36.9147 89.8695 37.6113C90.0714 38.3079 90.1723 39.0566 90.1723 39.8574V40.6875C90.1723 41.5273 90.0974 42.3379 89.9477 43.1191C89.7979 43.8939 89.5538 44.6133 89.2152 45.2773C88.8832 45.9349 88.4438 46.5143 87.8969 47.0156C87.3565 47.5104 86.6924 47.8978 85.9047 48.1777C85.1234 48.4512 84.2055 48.5879 83.1508 48.5879H82.9359V46.6445ZM99.618 34.1934H99.9109V36.1172H99.7449C98.9051 36.1172 98.1792 36.2474 97.5672 36.5078C96.9617 36.7682 96.4637 37.1263 96.073 37.582C95.6824 38.0378 95.3895 38.5716 95.1941 39.1836C95.0053 39.7891 94.9109 40.4336 94.9109 41.1172V43.3535C94.9109 43.9199 94.9728 44.4212 95.0965 44.8574C95.2202 45.2871 95.3927 45.6484 95.6141 45.9414C95.8419 46.2279 96.1023 46.446 96.3953 46.5957C96.6883 46.7454 97.004 46.8203 97.3426 46.8203C97.6941 46.8203 98.0132 46.7487 98.2996 46.6055C98.5861 46.4557 98.8302 46.2507 99.032 45.9902C99.2339 45.7298 99.3868 45.4206 99.491 45.0625C99.5952 44.7044 99.6473 44.3138 99.6473 43.8906C99.6473 43.487 99.5952 43.1094 99.491 42.7578C99.3934 42.3997 99.2469 42.0872 99.0516 41.8203C98.8563 41.5469 98.6121 41.3353 98.3191 41.1855C98.0327 41.0293 97.7007 40.9512 97.323 40.9512C96.8543 40.9512 96.4279 41.0618 96.0438 41.2832C95.6661 41.5046 95.3602 41.7943 95.1258 42.1523C94.8979 42.5039 94.7742 42.8783 94.7547 43.2754L93.8563 42.9824C93.9083 42.377 94.0418 41.8333 94.2566 41.3516C94.478 40.8698 94.7677 40.4596 95.1258 40.1211C95.4839 39.7826 95.8973 39.5254 96.366 39.3496C96.8413 39.1673 97.3621 39.0762 97.9285 39.0762C98.6186 39.0762 99.2176 39.2064 99.7254 39.4668C100.233 39.7272 100.653 40.082 100.985 40.5312C101.324 40.974 101.574 41.4818 101.737 42.0547C101.906 42.6211 101.991 43.2135 101.991 43.832C101.991 44.5156 101.887 45.1536 101.679 45.7461C101.47 46.332 101.164 46.8464 100.761 47.2891C100.363 47.7318 99.8784 48.0768 99.3055 48.3242C98.7391 48.5716 98.0945 48.6953 97.3719 48.6953C96.6102 48.6953 95.9298 48.5488 95.3309 48.2559C94.7384 47.9629 94.2339 47.5592 93.8172 47.0449C93.407 46.5306 93.0945 45.9382 92.8797 45.2676C92.6648 44.597 92.5574 43.8874 92.5574 43.1387V42.1621C92.5574 41.0814 92.6941 40.0625 92.9676 39.1055C93.241 38.1419 93.6609 37.2923 94.2273 36.5566C94.8003 35.821 95.5327 35.2448 96.4246 34.8281C97.3165 34.4049 98.381 34.1934 99.618 34.1934Z" fill="black" fill-opacity="0.87"/>
</g>
<defs>
<filter id="filter0_d_2646_18378" x="0.5" y="0" width="213" height="75" filterUnits="userSpaceOnUse" color-interpolation-filters="sRGB">
<feFlood flood-opacity="0" result="BackgroundImageFix"/>
<feColorMatrix in="SourceAlpha" type="matrix" values="0 0 0 0 0 0 0 0 0 0 0 0 0 0 0 0 0 0 127 0" result="hardAlpha"/>
<feOffset dy="4"/>
<feGaussianBlur stdDeviation="4"/>
<feComposite in2="hardAlpha" operator="out"/>
<feColorMatrix type="matrix" values="0 0 0 0 0 0 0 0 0 0 0 0 0 0 0 0 0 0 0.04 0"/>
<feBlend mode="normal" in2="BackgroundImageFix" result="effect1_dropShadow_2646_18378"/>
<feBlend mode="normal" in="SourceGraphic" in2="effect1_dropShadow_2646_18378" result="shape"/>
</filter>
</defs>
</svg>
