<svg width="214" height="75" viewBox="0 0 214 75" fill="none" xmlns="http://www.w3.org/2000/svg">
<g filter="url(#filter0_d_2646_18398)">
<path d="M8.5 8C8.5 5.79086 10.2909 4 12.5 4H201.5C203.709 4 205.5 5.79086 205.5 8V59C205.5 61.2091 203.709 63 201.5 63H12.5C10.2909 63 8.5 61.2091 8.5 59V8Z" fill="white"/>
<rect x="20.5" y="15.5" width="36" height="36" rx="4" fill="#F18D17"/>
<path d="M30.5 28.5C30.5 27.95 30.95 27.5 31.5 27.5H47.5C48.05 27.5 48.5 27.05 48.5 26.5C48.5 25.95 48.05 25.5 47.5 25.5H30.5C29.4 25.5 28.5 26.4 28.5 27.5V38.5H28C27.17 38.5 26.5 39.17 26.5 40C26.5 40.83 27.17 41.5 28 41.5H40.5V38.5H30.5V28.5ZM49.5 29.5H43.5C42.95 29.5 42.5 29.95 42.5 30.5V40.5C42.5 41.05 42.95 41.5 43.5 41.5H49.5C50.05 41.5 50.5 41.05 50.5 40.5V30.5C50.5 29.95 50.05 29.5 49.5 29.5ZM48.5 38.5H44.5V31.5H48.5V38.5Z" fill="white"/>
<path d="M71.7988 37.5H70.0176L70.0293 36.5801H71.7988C72.4082 36.5801 72.916 36.4531 73.3223 36.1992C73.7285 35.9414 74.0332 35.582 74.2363 35.1211C74.4434 34.6562 74.5469 34.1133 74.5469 33.4922V32.9707C74.5469 32.4824 74.4883 32.0488 74.3711 31.6699C74.2539 31.2871 74.082 30.9648 73.8555 30.7031C73.6289 30.4375 73.3516 30.2363 73.0234 30.0996C72.6992 29.9629 72.3262 29.8945 71.9043 29.8945H69.9824V28.9688H71.9043C72.4629 28.9688 72.9727 29.0625 73.4336 29.25C73.8945 29.4336 74.291 29.7012 74.623 30.0527C74.959 30.4004 75.2168 30.8223 75.3965 31.3184C75.5762 31.8105 75.666 32.3652 75.666 32.9824V33.4922C75.666 34.1094 75.5762 34.666 75.3965 35.1621C75.2168 35.6543 74.957 36.0742 74.6172 36.4219C74.2812 36.7695 73.875 37.0371 73.3984 37.2246C72.9258 37.4082 72.3926 37.5 71.7988 37.5ZM70.6211 28.9688V37.5H69.4902V28.9688H70.6211ZM80.232 37.6172C79.7906 37.6172 79.3902 37.543 79.0309 37.3945C78.6754 37.2422 78.3687 37.0293 78.1109 36.7559C77.857 36.4824 77.6617 36.1582 77.525 35.7832C77.3883 35.4082 77.3199 34.998 77.3199 34.5527V34.3066C77.3199 33.791 77.3961 33.332 77.5484 32.9297C77.7008 32.5234 77.9078 32.1797 78.1695 31.8984C78.4312 31.6172 78.7281 31.4043 79.0602 31.2598C79.3922 31.1152 79.7359 31.043 80.0914 31.043C80.5445 31.043 80.9352 31.1211 81.2633 31.2773C81.5953 31.4336 81.8668 31.6523 82.0777 31.9336C82.2887 32.2109 82.4449 32.5391 82.5465 32.918C82.648 33.293 82.6988 33.7031 82.6988 34.1484V34.6348H77.9645V33.75H81.6148V33.668C81.5992 33.3867 81.5406 33.1133 81.4391 32.8477C81.3414 32.582 81.1852 32.3633 80.9703 32.1914C80.7555 32.0195 80.4625 31.9336 80.0914 31.9336C79.8453 31.9336 79.6187 31.9863 79.4117 32.0918C79.2047 32.1934 79.027 32.3457 78.8785 32.5488C78.7301 32.752 78.6148 33 78.5328 33.293C78.4508 33.5859 78.4098 33.9238 78.4098 34.3066V34.5527C78.4098 34.8535 78.4508 35.1367 78.5328 35.4023C78.6187 35.6641 78.7418 35.8945 78.902 36.0938C79.066 36.293 79.2633 36.4492 79.4937 36.5625C79.7281 36.6758 79.9937 36.7324 80.2906 36.7324C80.6734 36.7324 80.9977 36.6543 81.2633 36.498C81.5289 36.3418 81.7613 36.1328 81.9605 35.8711L82.6168 36.3926C82.4801 36.5996 82.3062 36.7969 82.0953 36.9844C81.8844 37.1719 81.6246 37.3242 81.316 37.4414C81.0113 37.5586 80.65 37.6172 80.232 37.6172ZM86.2102 36.5215L87.9445 31.1602H89.052L86.7727 37.5H86.0461L86.2102 36.5215ZM84.7629 31.1602L86.55 36.5508L86.673 37.5H85.9465L83.6496 31.1602H84.7629ZM91.6727 31.1602V37.5H90.5828V31.1602H91.6727ZM90.5008 29.4785C90.5008 29.3027 90.5535 29.1543 90.659 29.0332C90.7684 28.9121 90.9285 28.8516 91.1395 28.8516C91.3465 28.8516 91.5047 28.9121 91.6141 29.0332C91.7273 29.1543 91.784 29.3027 91.784 29.4785C91.784 29.6465 91.7273 29.791 91.6141 29.9121C91.5047 30.0293 91.3465 30.0879 91.1395 30.0879C90.9285 30.0879 90.7684 30.0293 90.659 29.9121C90.5535 29.791 90.5008 29.6465 90.5008 29.4785ZM96.35 36.7266C96.6078 36.7266 96.8461 36.6738 97.0648 36.5684C97.2836 36.4629 97.4633 36.3184 97.6039 36.1348C97.7445 35.9473 97.8246 35.7344 97.8441 35.4961H98.8754C98.8559 35.8711 98.7289 36.2207 98.4945 36.5449C98.2641 36.8652 97.9613 37.125 97.5863 37.3242C97.2113 37.5195 96.7992 37.6172 96.35 37.6172C95.8734 37.6172 95.4574 37.5332 95.102 37.3652C94.7504 37.1973 94.4574 36.9668 94.223 36.6738C93.9926 36.3809 93.8188 36.0449 93.7016 35.666C93.5883 35.2832 93.5316 34.8789 93.5316 34.4531V34.207C93.5316 33.7812 93.5883 33.3789 93.7016 33C93.8188 32.6172 93.9926 32.2793 94.223 31.9863C94.4574 31.6934 94.7504 31.4629 95.102 31.2949C95.4574 31.127 95.8734 31.043 96.35 31.043C96.8461 31.043 97.2797 31.1445 97.6508 31.3477C98.0219 31.5469 98.3129 31.8203 98.5238 32.168C98.7387 32.5117 98.8559 32.9023 98.8754 33.3398H97.8441C97.8246 33.0781 97.7504 32.8418 97.6215 32.6309C97.4965 32.4199 97.3246 32.252 97.1059 32.127C96.891 31.998 96.6391 31.9336 96.35 31.9336C96.018 31.9336 95.7387 32 95.5121 32.1328C95.2895 32.2617 95.1117 32.4375 94.9789 32.6602C94.85 32.8789 94.7563 33.123 94.6977 33.3926C94.643 33.6582 94.6156 33.9297 94.6156 34.207V34.4531C94.6156 34.7305 94.643 35.0039 94.6977 35.2734C94.7523 35.543 94.8441 35.7871 94.973 36.0059C95.1059 36.2246 95.2836 36.4004 95.5063 36.5332C95.7328 36.6621 96.0141 36.7266 96.35 36.7266ZM103.125 37.6172C102.684 37.6172 102.283 37.543 101.924 37.3945C101.568 37.2422 101.262 37.0293 101.004 36.7559C100.75 36.4824 100.555 36.1582 100.418 35.7832C100.281 35.4082 100.213 34.998 100.213 34.5527V34.3066C100.213 33.791 100.289 33.332 100.441 32.9297C100.594 32.5234 100.801 32.1797 101.062 31.8984C101.324 31.6172 101.621 31.4043 101.953 31.2598C102.285 31.1152 102.629 31.043 102.984 31.043C103.438 31.043 103.828 31.1211 104.156 31.2773C104.488 31.4336 104.76 31.6523 104.971 31.9336C105.182 32.2109 105.338 32.5391 105.439 32.918C105.541 33.293 105.592 33.7031 105.592 34.1484V34.6348H100.857V33.75H104.508V33.668C104.492 33.3867 104.434 33.1133 104.332 32.8477C104.234 32.582 104.078 32.3633 103.863 32.1914C103.648 32.0195 103.355 31.9336 102.984 31.9336C102.738 31.9336 102.512 31.9863 102.305 32.0918C102.098 32.1934 101.92 32.3457 101.771 32.5488C101.623 32.752 101.508 33 101.426 33.293C101.344 33.5859 101.303 33.9238 101.303 34.3066V34.5527C101.303 34.8535 101.344 35.1367 101.426 35.4023C101.512 35.6641 101.635 35.8945 101.795 36.0938C101.959 36.293 102.156 36.4492 102.387 36.5625C102.621 36.6758 102.887 36.7324 103.184 36.7324C103.566 36.7324 103.891 36.6543 104.156 36.498C104.422 36.3418 104.654 36.1328 104.854 35.8711L105.51 36.3926C105.373 36.5996 105.199 36.7969 104.988 36.9844C104.777 37.1719 104.518 37.3242 104.209 37.4414C103.904 37.5586 103.543 37.6172 103.125 37.6172ZM110.949 35.8184C110.949 35.6621 110.914 35.5176 110.843 35.3848C110.777 35.248 110.638 35.125 110.427 35.0156C110.22 34.9023 109.908 34.8047 109.49 34.7227C109.138 34.6484 108.82 34.5605 108.535 34.459C108.254 34.3574 108.013 34.2344 107.814 34.0898C107.619 33.9453 107.468 33.7754 107.363 33.5801C107.257 33.3848 107.205 33.1562 107.205 32.8945C107.205 32.6445 107.259 32.4082 107.369 32.1855C107.482 31.9629 107.64 31.7656 107.843 31.5938C108.05 31.4219 108.298 31.2871 108.588 31.1895C108.877 31.0918 109.199 31.043 109.554 31.043C110.062 31.043 110.496 31.1328 110.855 31.3125C111.214 31.4922 111.49 31.7324 111.681 32.0332C111.873 32.3301 111.968 32.6602 111.968 33.0234H110.884C110.884 32.8477 110.832 32.6777 110.726 32.5137C110.625 32.3457 110.474 32.207 110.275 32.0977C110.08 31.9883 109.839 31.9336 109.554 31.9336C109.254 31.9336 109.009 31.9805 108.822 32.0742C108.638 32.1641 108.504 32.2793 108.418 32.4199C108.336 32.5605 108.295 32.709 108.295 32.8652C108.295 32.9824 108.314 33.0879 108.353 33.1816C108.396 33.2715 108.47 33.3555 108.576 33.4336C108.681 33.5078 108.83 33.5781 109.021 33.6445C109.213 33.7109 109.457 33.7773 109.754 33.8438C110.273 33.9609 110.701 34.1016 111.037 34.2656C111.373 34.4297 111.623 34.6309 111.787 34.8691C111.951 35.1074 112.033 35.3965 112.033 35.7363C112.033 36.0137 111.974 36.2676 111.857 36.498C111.744 36.7285 111.578 36.9277 111.359 37.0957C111.144 37.2598 110.886 37.3887 110.586 37.4824C110.289 37.5723 109.955 37.6172 109.584 37.6172C109.025 37.6172 108.552 37.5176 108.166 37.3184C107.779 37.1191 107.486 36.8613 107.287 36.5449C107.088 36.2285 106.988 35.8945 106.988 35.543H108.078C108.093 35.8398 108.179 36.0762 108.336 36.252C108.492 36.4238 108.683 36.5469 108.91 36.6211C109.136 36.6914 109.361 36.7266 109.584 36.7266C109.88 36.7266 110.129 36.6875 110.328 36.6094C110.531 36.5312 110.685 36.4238 110.791 36.2871C110.896 36.1504 110.949 35.9941 110.949 35.8184Z" fill="black" fill-opacity="0.54"/>
<path d="M169.105 38.625V40.5H159.574V38.8887L164.203 33.8398C164.711 33.2669 165.111 32.7721 165.404 32.3555C165.697 31.9388 165.902 31.5645 166.02 31.2324C166.143 30.8939 166.205 30.5651 166.205 30.2461C166.205 29.7969 166.12 29.403 165.951 29.0645C165.788 28.7194 165.548 28.4492 165.229 28.2539C164.91 28.0521 164.522 27.9512 164.066 27.9512C163.539 27.9512 163.096 28.0651 162.738 28.293C162.38 28.5208 162.11 28.8366 161.928 29.2402C161.745 29.6374 161.654 30.0931 161.654 30.6074H159.301C159.301 29.7806 159.49 29.0254 159.867 28.3418C160.245 27.6517 160.792 27.1048 161.508 26.7012C162.224 26.291 163.087 26.0859 164.096 26.0859C165.046 26.0859 165.854 26.2454 166.518 26.5645C167.182 26.8835 167.686 27.3359 168.031 27.9219C168.383 28.5078 168.559 29.2012 168.559 30.002C168.559 30.4447 168.487 30.8841 168.344 31.3203C168.201 31.7565 167.995 32.1927 167.729 32.6289C167.468 33.0586 167.159 33.4915 166.801 33.9277C166.443 34.3574 166.049 34.7936 165.619 35.2363L162.543 38.625H169.105ZM172.936 38.6445H173.131C174.03 38.6445 174.778 38.5273 175.377 38.293C175.983 38.0521 176.465 37.7201 176.823 37.2969C177.181 36.8737 177.438 36.3757 177.594 35.8027C177.75 35.2298 177.829 34.6081 177.829 33.9375V31.4863C177.829 30.9069 177.767 30.3991 177.643 29.9629C177.526 29.5202 177.357 29.1523 177.135 28.8594C176.92 28.5599 176.67 28.3353 176.383 28.1855C176.103 28.0358 175.801 27.9609 175.475 27.9609C175.117 27.9609 174.795 28.0423 174.508 28.2051C174.228 28.3613 173.991 28.5794 173.795 28.8594C173.607 29.1328 173.46 29.4551 173.356 29.8262C173.258 30.1908 173.209 30.5814 173.209 30.998C173.209 31.3887 173.255 31.7663 173.346 32.1309C173.444 32.4889 173.587 32.8079 173.776 33.0879C173.965 33.3678 174.202 33.5892 174.489 33.752C174.775 33.9147 175.11 33.9961 175.495 33.9961C175.859 33.9961 176.194 33.9277 176.5 33.791C176.806 33.6478 177.073 33.4557 177.301 33.2148C177.529 32.974 177.708 32.7038 177.838 32.4043C177.968 32.1048 178.04 31.7988 178.053 31.4863L178.952 31.7598C178.952 32.2546 178.847 32.7428 178.639 33.2246C178.437 33.6999 178.154 34.1361 177.789 34.5332C177.431 34.9238 177.011 35.2363 176.53 35.4707C176.054 35.7051 175.537 35.8223 174.977 35.8223C174.3 35.8223 173.701 35.6953 173.18 35.4414C172.666 35.181 172.236 34.8294 171.891 34.3867C171.552 33.944 171.299 33.4362 171.129 32.8633C170.96 32.2904 170.875 31.6882 170.875 31.0566C170.875 30.373 170.98 29.7318 171.188 29.1328C171.396 28.5339 171.699 28.0065 172.096 27.5508C172.493 27.0885 172.975 26.7305 173.541 26.4766C174.114 26.2161 174.762 26.0859 175.485 26.0859C176.253 26.0859 176.927 26.2357 177.506 26.5352C178.086 26.8346 178.574 27.248 178.971 27.7754C179.368 28.3027 179.668 28.9147 179.87 29.6113C180.071 30.3079 180.172 31.0566 180.172 31.8574V32.6875C180.172 33.5273 180.097 34.3379 179.948 35.1191C179.798 35.8939 179.554 36.6133 179.215 37.2773C178.883 37.9349 178.444 38.5143 177.897 39.0156C177.357 39.5104 176.692 39.8978 175.905 40.1777C175.123 40.4512 174.205 40.5879 173.151 40.5879H172.936V38.6445ZM189.618 26.1934H189.911V28.1172H189.745C188.905 28.1172 188.179 28.2474 187.567 28.5078C186.962 28.7682 186.464 29.1263 186.073 29.582C185.682 30.0378 185.389 30.5716 185.194 31.1836C185.005 31.7891 184.911 32.4336 184.911 33.1172V35.3535C184.911 35.9199 184.973 36.4212 185.096 36.8574C185.22 37.2871 185.393 37.6484 185.614 37.9414C185.842 38.2279 186.102 38.446 186.395 38.5957C186.688 38.7454 187.004 38.8203 187.343 38.8203C187.694 38.8203 188.013 38.7487 188.3 38.6055C188.586 38.4557 188.83 38.2507 189.032 37.9902C189.234 37.7298 189.387 37.4206 189.491 37.0625C189.595 36.7044 189.647 36.3138 189.647 35.8906C189.647 35.487 189.595 35.1094 189.491 34.7578C189.393 34.3997 189.247 34.0872 189.052 33.8203C188.856 33.5469 188.612 33.3353 188.319 33.1855C188.033 33.0293 187.701 32.9512 187.323 32.9512C186.854 32.9512 186.428 33.0618 186.044 33.2832C185.666 33.5046 185.36 33.7943 185.126 34.1523C184.898 34.5039 184.774 34.8783 184.755 35.2754L183.856 34.9824C183.908 34.377 184.042 33.8333 184.257 33.3516C184.478 32.8698 184.768 32.4596 185.126 32.1211C185.484 31.7826 185.897 31.5254 186.366 31.3496C186.841 31.1673 187.362 31.0762 187.929 31.0762C188.619 31.0762 189.218 31.2064 189.725 31.4668C190.233 31.7272 190.653 32.082 190.985 32.5312C191.324 32.974 191.574 33.4818 191.737 34.0547C191.906 34.6211 191.991 35.2135 191.991 35.832C191.991 36.5156 191.887 37.1536 191.679 37.7461C191.47 38.332 191.164 38.8464 190.761 39.2891C190.363 39.7318 189.878 40.0768 189.305 40.3242C188.739 40.5716 188.095 40.6953 187.372 40.6953C186.61 40.6953 185.93 40.5488 185.331 40.2559C184.738 39.9629 184.234 39.5592 183.817 39.0449C183.407 38.5306 183.095 37.9382 182.88 37.2676C182.665 36.597 182.557 35.8874 182.557 35.1387V34.1621C182.557 33.0814 182.694 32.0625 182.968 31.1055C183.241 30.1419 183.661 29.2923 184.227 28.5566C184.8 27.821 185.533 27.2448 186.425 26.8281C187.317 26.4049 188.381 26.1934 189.618 26.1934Z" fill="black" fill-opacity="0.87"/>
</g>
<defs>
<filter id="filter0_d_2646_18398" x="0.5" y="0" width="213" height="75" filterUnits="userSpaceOnUse" color-interpolation-filters="sRGB">
<feFlood flood-opacity="0" result="BackgroundImageFix"/>
<feColorMatrix in="SourceAlpha" type="matrix" values="0 0 0 0 0 0 0 0 0 0 0 0 0 0 0 0 0 0 127 0" result="hardAlpha"/>
<feOffset dy="4"/>
<feGaussianBlur stdDeviation="4"/>
<feComposite in2="hardAlpha" operator="out"/>
<feColorMatrix type="matrix" values="0 0 0 0 0 0 0 0 0 0 0 0 0 0 0 0 0 0 0.04 0"/>
<feBlend mode="normal" in2="BackgroundImageFix" result="effect1_dropShadow_2646_18398"/>
<feBlend mode="normal" in="SourceGraphic" in2="effect1_dropShadow_2646_18398" result="shape"/>
</filter>
</defs>
</svg>
